# exported by StudySceneExporter from mesh 'Cube'
mtllib materials.mtl
v 0.009469024 -0.01 -0.0284049
v 0.009469323 0.01 -0.003867444
v 0.009469115 0.01 -0.0284049
v 0.009469233 -0.01 -0.003867444
v 0.0001365356 -0.01 -0.003867444
v -9.21341E-05 -0.0075 -0.003867444
v -0.0005016021 -0.0075 -0.006934626
v -0.0002759841 -0.005 -0.003867444
v -0.0007272654 -0.005 -0.006934626
v -0.0003951716 -0.0025 -0.003867444
v -0.0008738367 -0.0025 -0.006934626
v -0.001123258 -0.005000004 -0.01000181
v -0.001328876 -0.002500437 -0.0100016
v -0.0009247215 -9.145576E-12 -0.006934626
v -0.0004364502 0 -0.003867444
v -0.001450843 4.169198E-07 -0.009997464
v -0.0008737865 0.0025 -0.006934626
v -0.0003951307 0.0025 -0.003867444
v -0.001365485 0.002503113 -0.009999257
v -0.001857373 -1.270593E-07 -0.01306696
v -0.001705571 -0.002501111 -0.01306922
v -0.001745766 0.002506004 -0.01306787
v -0.0008501869 -0.0075 -0.01000181
v -0.00143889 -0.00500002 -0.013069
v -0.0002203801 -0.01 -0.006934626
v -0.0007271703 0.005 -0.006934626
v -0.001123064 0.005000053 -0.01000179
v -0.001438597 0.005000429 -0.01306904
v -0.0002759065 0.005 -0.003867444
v -9.202838E-05 0.0075 -0.003867444
v 0.0001366581 0.01 -0.003867444
v -0.0005014723 0.0075 -0.006934626
v -0.0008500366 0.0075 -0.01000181
v -0.0002202291 0.01 -0.006934626
v -0.001091853 0.0075 -0.01306899
v -0.0005242187 0.01 -0.01000181
v -0.0007292105 0.01 -0.01306899
v -0.001557986 0.005000242 -0.01613637
v -0.001183545 0.0075 -0.01613617
v -0.0008017661 0.01 -0.01613617
v -0.0007293199 0.01 -0.01920335
v -0.0005244184 0.01 -0.02227053
v -0.001089516 0.0075 -0.01920335
v -0.0002204888 0.01 -0.02533771
v -0.001847219 0.00250035 -0.01613725
v -0.0008502664 0.0075 -0.02227053
v -0.001428604 0.005 -0.01920335
v 0.0001363778 0.01 -0.0284049
v 0.009469115 0.01 -0.0284049
v 0.009469323 0.01 -0.003867444
v -0.001962291 -6.292753E-07 -0.01613734
v -0.001686382 0.0025 -0.01920335
v -0.001117075 0.005 -0.02227053
v -0.0005017696 0.0075 -0.02533771
v -0.001847555 -0.002500314 -0.01613645
v -0.001784656 0 -0.01920335
v -9.235069E-05 0.0075 -0.0284049
v 0.009469115 0.01 -0.0284049
v -0.001312007 0.0025 -0.02227053
v -0.0007274985 0.005 -0.02533771
v -0.000276262 0.005 -0.0284049
v -0.0008741347 0.0025 -0.02533771
v -0.001384943 0 -0.02227053
v -0.001686644 -0.0025 -0.01920335
v -0.0003955072 0.0025 -0.0284049
v -0.0009250678 0 -0.02533771
v -0.001558464 -0.005000005 -0.01613618
v -0.001312147 -0.0025 -0.02227054
v -0.0004368344 0 -0.0284049
v -0.0008741851 -0.0025 -0.02533772
v -0.001428965 -0.005 -0.01920335
v -0.001092126 -0.0075 -0.01306899
v -0.0003955488 -0.0025 -0.0284049
v -0.001117245 -0.005 -0.02227054
v -0.001183885 -0.0075 -0.01613617
v -0.0005243933 -0.01 -0.01000181
v -0.0007275931 -0.005 -0.02533772
v -0.0002763399 -0.005 -0.0284049
v -0.00108976 -0.0075 -0.01920335
v -0.0007294023 -0.01 -0.01306899
v -9.245663E-05 -0.0075 -0.0284049
v 0.009469024 -0.01 -0.0284049
v 0.0001362553 -0.01 -0.0284049
v -0.0005018991 -0.0075 -0.02533772
v -0.000850417 -0.0075 -0.02227054
v -0.0008019627 -0.01 -0.01613617
v -0.0007295111 -0.01 -0.01920335
v -0.0005245931 -0.01 -0.02227054
v -0.0002206394 -0.01 -0.02533772
v 0.009469024 -0.01 -0.0284049
v 0.009469233 -0.01 -0.003867444
vt 1.362772 0.4603412
vt 1.01769 0.8054235
vt 1.362772 0.8054235
vt 1.01769 0.4603411
vt 0.6726074 0.4603411
vt 0.6726074 0.5034764
vt 0.6294721 0.5034764
vt 0.6726074 0.5466117
vt 0.6294721 0.5466117
vt 0.6726074 0.589747
vt 0.6294721 0.589747
vt 0.5863369 0.5466117
vt 0.5863369 0.589747
vt 0.6294721 0.6328823
vt 0.6726074 0.6328823
vt 0.5863369 0.6328823
vt 0.6294721 0.6760176
vt 0.6726074 0.6760176
vt 0.5863369 0.6760176
vt 0.5432015 0.6328823
vt 0.5432015 0.589747
vt 0.5432015 0.6760176
vt 0.5863369 0.5034764
vt 0.5432015 0.5466117
vt 0.6294721 0.4603411
vt 0.6294721 0.7191529
vt 0.5863369 0.7191529
vt 0.5432015 0.7191529
vt 0.6726074 0.7191529
vt 0.6726074 0.7622882
vt 0.6726074 0.8054235
vt 0.6294721 0.7622882
vt 0.5863369 0.7622882
vt 0.6294721 0.8054235
vt 0.5432015 0.7622882
vt 0.5863369 0.8054235
vt 0.5432015 0.8054235
vt 0.5000663 0.7191529
vt 0.5000663 0.7622882
vt 0.5000663 0.8054235
vt 0.456931 0.8054235
vt 0.4137957 0.8054235
vt 0.456931 0.7622882
vt 0.3706604 0.8054235
vt 0.5000663 0.6760176
vt 0.4137957 0.7622882
vt 0.456931 0.7191529
vt 0.327525 0.8054235
vt 0.327525 1.150506
vt 0.6726074 1.150506
vt 0.5000663 0.6328823
vt 0.456931 0.6760176
vt 0.4137957 0.7191529
vt 0.3706604 0.7622882
vt 0.5000663 0.589747
vt 0.456931 0.6328823
vt 0.327525 0.7622882
vt -0.01755731 0.8054235
vt 0.4137957 0.6760176
vt 0.3706604 0.7191529
vt 0.327525 0.7191529
vt 0.3706604 0.6760176
vt 0.4137957 0.6328823
vt 0.456931 0.589747
vt 0.327525 0.6760176
vt 0.3706604 0.6328823
vt 0.5000663 0.5466117
vt 0.4137957 0.589747
vt 0.327525 0.6328823
vt 0.3706604 0.589747
vt 0.456931 0.5466117
vt 0.5432015 0.5034764
vt 0.327525 0.589747
vt 0.4137957 0.5466117
vt 0.5000663 0.5034764
vt 0.5863369 0.4603411
vt 0.3706604 0.5466117
vt 0.327525 0.5466117
vt 0.456931 0.5034764
vt 0.5432015 0.4603411
vt 0.327525 0.5034764
vt -0.01755731 0.4603411
vt 0.327525 0.4603411
vt 0.3706604 0.5034764
vt 0.4137957 0.5034764
vt 0.5000663 0.4603411
vt 0.456931 0.4603411
vt 0.4137957 0.4603411
vt 0.3706604 0.4603411
vt 0.327525 0.1152587
vt 0.6726074 0.1152587
vn 0.5773299 -0.5773605 -0.5773605
vn 0.5773706 0.5773401 0.5773401
vn 0.5773299 0.5773605 -0.5773605
vn 0.5773605 -0.5773605 0.5773299
vn -0.5075394 -0.6074907 0.611031
vn -0.6585107 -0.06058043 0.7501291
vn -0.9875171 -0.09998164 0.1217115
vn -0.655729 -0.04431344 0.7536947
vn -0.9877961 -0.07538099 0.1362961
vn -0.6541544 -0.02343895 0.7559978
vn -0.9877084 -0.0436418 0.1500912
vn -0.9887547 -0.09604331 0.1146294
vn -0.9890725 -0.06296151 0.1333087
vn -0.9873841 -0.001800626 0.158333
vn -0.6536295 0 0.7568147
vn -0.9895809 -0.005646028 0.1438669
vn -0.9872586 0.04364215 0.1530222
vn -0.6541544 0.02343895 0.7559978
vn -0.9886336 0.06299129 0.1365117
vn -0.9966276 -0.005798606 0.08185189
vn -0.993731 -0.07791515 0.08017356
vn -0.9939679 0.07797562 0.07712109
vn -0.988147 -0.1192381 0.09668446
vn -0.990658 -0.1173164 0.06952307
vn -0.6645584 -0.7432678 0.07690872
vn -0.9874573 0.07718373 0.1377344
vn -0.9880046 0.1017212 0.1161874
vn -0.9900535 0.1232035 0.06793436
vn -0.655729 0.04431344 0.7536947
vn -0.6585107 0.06058043 0.7501291
vn -0.5075394 0.6074907 0.611031
vn -0.9875208 0.09998202 0.1216814
vn -0.988147 0.1192381 0.09668446
vn -0.66456 0.7432696 0.07687837
vn -0.9889882 0.1371509 0.05560503
vn -0.6614358 0.7476516 0.05932871
vn -0.6593644 0.7511047 0.03286903
vn -0.9917927 0.1278118 -0.003357043
vn -0.9895031 0.1445098 -0.0005798704
vn -0.6586083 0.7524859 -9.155815E-05
vn -0.6595435 0.7509475 -0.03286883
vn -0.6615385 0.7475727 -0.05917712
vn -0.989157 0.1358408 -0.05581957
vn -0.66456 0.7432696 -0.07687837
vn -0.9968613 0.07873813 -0.008240038
vn -0.9883412 0.1181407 -0.09604464
vn -0.9908679 0.1148439 -0.07065202
vn -0.5075394 0.6074907 -0.611031
vn 0.5773299 0.5773605 -0.5773605
vn 0.5773706 0.5773401 0.5773401
vn -0.9999565 -0.001953219 -0.009125195
vn -0.9940495 0.06872984 -0.0845084
vn -0.9891853 0.09360211 -0.1129207
vn -0.9875787 0.09970702 -0.1214369
vn -0.9968879 -0.07867919 -0.004913634
vn -0.9959307 3.051913E-05 -0.09012299
vn -0.6585258 0.06058182 -0.7501158
vn 0.5773299 0.5773605 -0.5773605
vn -0.9902403 0.05392655 -0.1285143
vn -0.9880217 0.07455789 -0.1351076
vn -0.6557281 0.0443439 -0.7536937
vn -0.9884638 0.04071295 -0.1458829
vn -0.9908478 0 -0.1349838
vn -0.9940515 -0.06866682 -0.08453649
vn -0.6541544 0.02343895 -0.7559978
vn -0.988649 0 -0.1502429
vn -0.9920543 -0.1257998 -0.001648032
vn -0.9902419 -0.05389612 -0.1285145
vn -0.6536295 0 -0.7568147
vn -0.988465 -0.04068247 -0.1458831
vn -0.9908636 -0.1148434 -0.07071276
vn -0.9889866 -0.1371507 0.05563546
vn -0.6541544 -0.02343895 -0.7559978
vn -0.9891819 -0.09360179 -0.1129508
vn -0.9894989 -0.1445397 -0.0005798679
vn -0.6614358 -0.7476516 0.05932871
vn -0.9880217 -0.07455789 -0.1351076
vn -0.655729 -0.04431344 -0.7536947
vn -0.9891511 -0.1358706 -0.05584976
vn -0.6593465 -0.7511191 0.03290018
vn -0.6585107 -0.06058043 -0.7501291
vn 0.5773299 -0.5773605 -0.5773605
vn -0.5075394 -0.6074907 -0.611031
vn -0.9875787 -0.09970702 -0.1214369
vn -0.9883347 -0.1181704 -0.09607454
vn -0.6586083 -0.7524859 -9.155815E-05
vn -0.6595262 -0.7509626 -0.03286949
vn -0.6615373 -0.7475713 -0.05920753
vn -0.66456 -0.7432696 -0.07687837
vn 0.5773299 -0.5773605 -0.5773605
vn 0.5773605 -0.5773605 0.5773299
usemtl screen
f 1/1/1 3/3/3 2/2/2 
f 1/1/1 2/2/2 4/4/4 
f 2/2/2 5/5/5 4/4/4 
f 5/5/5 2/2/2 6/6/6 
f 5/5/5 6/6/6 7/7/7 
f 6/6/6 2/2/2 8/8/8 
f 6/6/6 9/9/9 7/7/7 
f 6/6/6 8/8/8 9/9/9 
f 8/8/8 2/2/2 10/10/10 
f 8/8/8 11/11/11 9/9/9 
f 8/8/8 10/10/10 11/11/11 
f 7/7/7 9/9/9 12/12/12 
f 9/9/9 11/11/11 13/13/13 
f 9/9/9 13/13/13 12/12/12 
f 10/10/10 14/14/14 11/11/11 
f 10/10/10 2/2/2 15/15/15 
f 10/10/10 15/15/15 14/14/14 
f 11/11/11 16/16/16 13/13/13 
f 11/11/11 14/14/14 16/16/16 
f 15/15/15 17/17/17 14/14/14 
f 15/15/15 2/2/2 18/18/18 
f 15/15/15 18/18/18 17/17/17 
f 14/14/14 19/19/19 16/16/16 
f 14/14/14 17/17/17 19/19/19 
f 13/13/13 16/16/16 20/20/20 
f 12/12/12 13/13/13 21/21/21 
f 13/13/13 20/20/20 21/21/21 
f 16/16/16 19/19/19 22/22/22 
f 16/16/16 22/22/22 20/20/20 
f 7/7/7 12/12/12 23/23/23 
f 12/12/12 21/21/21 24/24/24 
f 23/23/23 12/12/12 24/24/24 
f 25/25/25 7/7/7 23/23/23 
f 5/5/5 7/7/7 25/25/25 
f 18/18/18 26/26/26 17/17/17 
f 17/17/17 27/27/27 19/19/19 
f 17/17/17 26/26/26 27/27/27 
f 19/19/19 28/28/28 22/22/22 
f 19/19/19 27/27/27 28/28/28 
f 18/18/18 29/29/29 26/26/26 
f 18/18/18 2/2/2 29/29/29 
f 29/29/29 2/2/2 30/30/30 
f 30/30/30 2/2/2 31/31/31 
f 29/29/29 32/32/32 26/26/26 
f 29/29/29 30/30/30 32/32/32 
f 26/26/26 33/33/33 27/27/27 
f 26/26/26 32/32/32 33/33/33 
f 30/30/30 34/34/34 32/32/32 
f 30/30/30 31/31/31 34/34/34 
f 27/27/27 35/35/35 28/28/28 
f 27/27/27 33/33/33 35/35/35 
f 32/32/32 36/36/36 33/33/33 
f 32/32/32 34/34/34 36/36/36 
f 33/33/33 37/37/37 35/35/35 
f 33/33/33 36/36/36 37/37/37 
f 22/22/22 28/28/28 38/38/38 
f 28/28/28 35/35/35 39/39/39 
f 28/28/28 39/39/39 38/38/38 
f 35/35/35 37/37/37 40/40/40 
f 35/35/35 40/40/40 39/39/39 
f 37/37/37 41/41/41 40/40/40 
f 39/39/39 40/40/40 41/41/41 
f 42/42/42 37/37/37 36/36/36 
f 41/41/41 37/37/37 42/42/42 
f 39/39/39 41/41/41 43/43/43 
f 38/38/38 39/39/39 43/43/43 
f 43/43/43 41/41/41 42/42/42 
f 44/44/44 36/36/36 34/34/34 
f 42/42/42 36/36/36 44/44/44 
f 22/22/22 38/38/38 45/45/45 
f 20/20/20 22/22/22 45/45/45 
f 43/43/43 42/42/42 46/46/46 
f 46/46/46 42/42/42 44/44/44 
f 38/38/38 43/43/43 47/47/47 
f 45/45/45 38/38/38 47/47/47 
f 47/47/47 43/43/43 46/46/46 
f 44/44/44 34/34/34 48/48/48 
f 48/48/48 34/34/34 31/31/31 
f 48/48/48 31/31/31 49/49/49 
f 49/49/49 31/31/31 50/50/50 
f 20/20/20 45/45/45 51/51/51 
f 21/21/21 20/20/20 51/51/51 
f 45/45/45 47/47/47 52/52/52 
f 51/51/51 45/45/45 52/52/52 
f 47/47/47 46/46/46 53/53/53 
f 52/52/52 47/47/47 53/53/53 
f 46/46/46 44/44/44 54/54/54 
f 54/54/54 44/44/44 48/48/48 
f 53/53/53 46/46/46 54/54/54 
f 21/21/21 51/51/51 55/55/55 
f 24/24/24 21/21/21 55/55/55 
f 51/51/51 52/52/52 56/56/56 
f 55/55/55 51/51/51 56/56/56 
f 54/54/54 48/48/48 57/57/57 
f 58/58/58 57/57/57 48/48/48 
f 52/52/52 53/53/53 59/59/59 
f 56/56/56 52/52/52 59/59/59 
f 53/53/53 54/54/54 60/60/60 
f 60/60/60 54/54/54 57/57/57 
f 59/59/59 53/53/53 60/60/60 
f 60/60/60 57/57/57 61/61/61 
f 58/58/58 61/61/61 57/57/57 
f 59/59/59 60/60/60 62/62/62 
f 62/62/62 60/60/60 61/61/61 
f 56/56/56 59/59/59 63/63/63 
f 63/63/63 59/59/59 62/62/62 
f 55/55/55 56/56/56 64/64/64 
f 64/64/64 56/56/56 63/63/63 
f 62/62/62 61/61/61 65/65/65 
f 58/58/58 65/65/65 61/61/61 
f 63/63/63 62/62/62 66/66/66 
f 66/66/66 62/62/62 65/65/65 
f 67/67/67 55/55/55 64/64/64 
f 24/24/24 55/55/55 67/67/67 
f 64/64/64 63/63/63 68/68/68 
f 68/68/68 63/63/63 66/66/66 
f 66/66/66 65/65/65 69/69/69 
f 58/58/58 69/69/69 65/65/65 
f 70/70/70 66/66/66 69/69/69 
f 68/68/68 66/66/66 70/70/70 
f 71/71/71 64/64/64 68/68/68 
f 67/67/67 64/64/64 71/71/71 
f 72/72/72 24/24/24 67/67/67 
f 23/23/23 24/24/24 72/72/72 
f 58/58/58 73/73/73 69/69/69 
f 70/70/70 69/69/69 73/73/73 
f 74/74/74 68/68/68 70/70/70 
f 71/71/71 68/68/68 74/74/74 
f 75/75/75 67/67/67 71/71/71 
f 72/72/72 67/67/67 75/75/75 
f 76/76/76 23/23/23 72/72/72 
f 25/25/25 23/23/23 76/76/76 
f 77/77/77 70/70/70 73/73/73 
f 74/74/74 70/70/70 77/77/77 
f 58/58/58 78/78/78 73/73/73 
f 77/77/77 73/73/73 78/78/78 
f 79/79/79 71/71/71 74/74/74 
f 75/75/75 71/71/71 79/79/79 
f 80/80/80 72/72/72 75/75/75 
f 76/76/76 72/72/72 80/80/80 
f 58/58/58 81/81/81 78/78/78 
f 82/82/82 81/81/81 58/58/58 
f 81/81/81 82/82/82 83/83/83 
f 84/84/84 77/77/77 78/78/78 
f 84/84/84 78/78/78 81/81/81 
f 85/85/85 74/74/74 77/77/77 
f 79/79/79 74/74/74 85/85/85 
f 85/85/85 77/77/77 84/84/84 
f 86/86/86 75/75/75 79/79/79 
f 80/80/80 75/75/75 86/86/86 
f 86/86/86 79/79/79 87/87/87 
f 87/87/87 79/79/79 85/85/85 
f 87/87/87 80/80/80 86/86/86 
f 87/87/87 85/85/85 88/88/88 
f 80/80/80 87/87/87 88/88/88 
f 88/88/88 85/85/85 84/84/84 
f 80/80/80 88/88/88 76/76/76 
f 89/89/89 84/84/84 81/81/81 
f 88/88/88 84/84/84 89/89/89 
f 76/76/76 88/88/88 89/89/89 
f 89/89/89 81/81/81 83/83/83 
f 76/76/76 89/89/89 25/25/25 
f 25/25/25 89/89/89 83/83/83 
f 25/25/25 83/83/83 5/5/5 
f 5/5/5 83/83/83 90/90/90 
f 5/5/5 90/90/90 91/91/91 
