# exported by StudySceneExporter from mesh 'Tool_Cabinet_Bolts_low'
mtllib materials.mtl
v 0.1034045 0.338596 0.02267105
v 0.103899 0.3333338 0.02267113
v 0.09930458 0.3329021 0.02533539
v 0.1034045 0.338596 0.01734253
v 0.103899 0.3333338 0.01734253
v 0.09881006 0.3381642 0.02533539
v 0.09471016 0.3324703 0.02267113
v 0.09881006 0.3381642 0.01467827
v 0.09930458 0.3329021 0.01467827
v 0.09881006 0.3381642 0.02000679
v 0.09421566 0.3377325 0.02267105
v 0.09471016 0.3324703 0.01734253
v 0.09421566 0.3377325 0.01734253
v 0.1554864 -0.314267 -0.01734253
v 0.1549919 -0.3090049 -0.01734253
v 0.1595864 -0.3085731 -0.01467827
v 0.1554864 -0.314267 -0.02267105
v 0.1549919 -0.3090049 -0.02267105
v 0.1600809 -0.3138353 -0.01467827
v 0.1641808 -0.3081414 -0.01734253
v 0.1600809 -0.3138353 -0.02533539
v 0.1595864 -0.3085731 -0.02533539
v 0.1600809 -0.3138353 -0.02000679
v 0.1646753 -0.3134035 -0.01734253
v 0.1641808 -0.3081414 -0.02267105
v 0.1646753 -0.3134035 -0.02267105
v -0.1034045 -0.338596 0.02267105
v -0.103899 -0.3333338 0.02267113
v -0.09930457 -0.3329021 0.02533539
v -0.1034045 -0.338596 0.01734253
v -0.103899 -0.3333338 0.01734253
v -0.09881006 -0.3381642 0.02533539
v -0.09471016 -0.3324703 0.02267113
v -0.09881006 -0.3381642 0.01467827
v -0.09930457 -0.3329021 0.01467827
v -0.09881006 -0.3381642 0.02000679
v -0.09421566 -0.3377324 0.02267105
v -0.09471014 -0.3324703 0.01734253
v -0.09421564 -0.3377324 0.01734253
v -0.1554864 0.314267 -0.01734253
v -0.1549919 0.3090049 -0.01734253
v -0.1595863 0.3085731 -0.01467827
v -0.1554864 0.314267 -0.02267105
v -0.1549919 0.3090049 -0.02267105
v -0.1600808 0.3138353 -0.01467827
v -0.1641808 0.3081414 -0.01734253
v -0.1600808 0.3138353 -0.02533539
v -0.1595863 0.3085731 -0.02533539
v -0.1600808 0.3138353 -0.02000679
v -0.1646753 0.3134035 -0.01734253
v -0.1641808 0.3081414 -0.02267105
v -0.1646753 0.3134035 -0.02267105
v 0.1034045 0.338596 -0.01734253
v 0.103899 0.3333338 -0.01734253
v 0.09930458 0.3329021 -0.01467827
v 0.1034045 0.338596 -0.02267105
v 0.103899 0.3333338 -0.02267105
v 0.09881006 0.3381642 -0.01467827
v 0.09471016 0.3324703 -0.01734253
v 0.09881006 0.3381642 -0.02533539
v 0.09930458 0.3329021 -0.02533539
v 0.09881006 0.3381642 -0.02000679
v 0.09421566 0.3377325 -0.01734253
v 0.09471016 0.3324703 -0.02267105
v 0.09421566 0.3377325 -0.02267105
v -0.1034045 -0.338596 -0.01734253
v -0.103899 -0.3333338 -0.01734253
v -0.09930457 -0.3329021 -0.01467827
v -0.1034045 -0.338596 -0.02267105
v -0.103899 -0.3333338 -0.02267105
v -0.09881006 -0.3381642 -0.01467827
v -0.09471016 -0.3324703 -0.01734253
v -0.09881006 -0.3381642 -0.02533539
v -0.09930457 -0.3329021 -0.02533539
v -0.09881006 -0.3381642 -0.02000679
v -0.09421566 -0.3377324 -0.01734253
v -0.09471014 -0.3324703 -0.02267105
v -0.09421564 -0.3377324 -0.02267105
v -0.1554864 0.314267 0.02267105
v -0.1549919 0.3090049 0.02267113
v -0.1595863 0.3085731 0.02533539
v -0.1554864 0.314267 0.01734253
v -0.1549919 0.3090049 0.01734253
v -0.1600808 0.3138353 0.02533539
v -0.1641808 0.3081414 0.02267113
v -0.1600808 0.3138353 0.01467827
v -0.1595863 0.3085731 0.01467827
v -0.1600808 0.3138353 0.02000679
v -0.1646753 0.3134035 0.02267105
v -0.1641808 0.3081414 0.01734253
v -0.1646753 0.3134035 0.01734253
v 0.1554864 -0.314267 0.02267105
v 0.1549919 -0.3090049 0.02267113
v 0.1595864 -0.3085731 0.02533539
v 0.1554864 -0.314267 0.01734253
v 0.1549919 -0.3090049 0.01734253
v 0.1600809 -0.3138353 0.02533539
v 0.1641808 -0.3081414 0.02267113
v 0.1600809 -0.3138353 0.01467827
v 0.1595864 -0.3085731 0.01467827
v 0.1600809 -0.3138353 0.02000679
v 0.1646753 -0.3134035 0.02267105
v 0.1641808 -0.3081414 0.01734253
v 0.1646753 -0.3134035 0.01734253
vt 0.7792251 0.7772334
vt 0.7788367 0.7743407
vt 0.7735804 0.7774094
vt 0.7818154 0.7791298
vt 0.7841455 0.7773687
vt 0.7762818 0.7785272
vt 0.7735954 0.7834929
vt 0.7814608 0.7823293
vt 0.7841435 0.7834781
vt 0.7788692 0.7804317
vt 0.7759202 0.7817227
vt 0.7788695 0.7865239
vt 0.7785163 0.7836227
vt 0.7182638 0.365899
vt 0.7159443 0.3676703
vt 0.7212153 0.3707138
vt 0.7186266 0.3627092
vt 0.715942 0.3615589
vt 0.7208467 0.3678136
vt 0.726491 0.3676847
vt 0.721581 0.3614309
vt 0.7212486 0.3585316
vt 0.7212179 0.3646224
vt 0.7238011 0.3665434
vt 0.7265085 0.3616018
vt 0.7241641 0.3633469
vt 0.76973 0.3663372
vt 0.7674119 0.3681104
vt 0.7726852 0.3711498
vt 0.7700903 0.3631471
vt 0.7674049 0.3619989
vt 0.7723144 0.3682499
vt 0.7779586 0.3681166
vt 0.7730438 0.3618665
vt 0.7727091 0.3589675
vt 0.7726831 0.3650584
vt 0.7752679 0.3669774
vt 0.7779713 0.3620336
vt 0.7756283 0.3637805
vt 0.9789011 0.6736362
vt 0.9785127 0.6707436
vt 0.9732564 0.6738123
vt 0.9814914 0.6755326
vt 0.9838215 0.6737714
vt 0.9759578 0.6749301
vt 0.9732714 0.6798958
vt 0.9811369 0.6787321
vt 0.9838195 0.6798809
vt 0.9785451 0.6768345
vt 0.9755962 0.6781256
vt 0.9785455 0.6829268
vt 0.9781923 0.6800255
vt 0.9789011 0.694182
vt 0.9785128 0.6912894
vt 0.9732564 0.6943582
vt 0.9814914 0.6960784
vt 0.9838215 0.6943173
vt 0.9759578 0.6954759
vt 0.9732714 0.7004417
vt 0.9811369 0.699278
vt 0.9838195 0.7004267
vt 0.9785451 0.6973804
vt 0.9755962 0.6986715
vt 0.9785455 0.7034726
vt 0.9781923 0.7005713
vt 0.7182638 0.3072053
vt 0.7159443 0.3089766
vt 0.7212153 0.3120201
vt 0.7186265 0.3040155
vt 0.715942 0.3028652
vt 0.7208467 0.3091199
vt 0.726491 0.308991
vt 0.721581 0.3027372
vt 0.7212485 0.2998379
vt 0.7212179 0.3059287
vt 0.7238011 0.3078497
vt 0.7265084 0.3029081
vt 0.724164 0.3046531
vt 0.9789012 0.6530903
vt 0.9785128 0.6501977
vt 0.9732564 0.6532664
vt 0.9814915 0.6549869
vt 0.9838215 0.6532257
vt 0.9759579 0.6543842
vt 0.9732714 0.6593499
vt 0.9811369 0.6581863
vt 0.9838195 0.659335
vt 0.9785452 0.6562887
vt 0.9755962 0.6575797
vt 0.9785456 0.6623809
vt 0.9781923 0.6594797
vt 0.7964907 0.608451
vt 0.7941725 0.6102241
vt 0.7994459 0.6132635
vt 0.7968509 0.6052609
vt 0.7941656 0.6041126
vt 0.7990751 0.6103637
vt 0.8047193 0.6102304
vt 0.7998044 0.6039803
vt 0.7994698 0.6010813
vt 0.7994438 0.6071721
vt 0.8020286 0.6090911
vt 0.804732 0.6041474
vt 0.802389 0.6058943
vn 0.7875077 0.3939608 0.4739479
vn 0.862226 0.08102656 0.500001
vn -1.264073E-06 -3.845698E-06 1
vn 0.7875026 0.3939621 -0.4739551
vn 0.8622252 0.08102948 -0.500002
vn -0.02981434 0.3171574 0.9479042
vn -0.8622267 -0.08102943 0.4999994
vn -0.02980978 0.3171622 -0.9479027
vn 1.14739E-06 2.550026E-06 -1
vn -0.09356432 0.9956132 0
vn -0.8471177 0.240345 0.473947
vn -0.8622269 -0.08102629 -0.4999996
vn -0.847113 0.2403475 -0.4739543
vn -0.7875046 -0.3939586 0.4739549
vn -0.8622255 -0.08102532 0.500002
vn 8.75128E-07 -4.035312E-07 1
vn -0.7875036 -0.3939652 -0.473951
vn -0.8622268 -0.08102962 -0.4999991
vn 0.02980452 -0.3171611 0.9479032
vn 0.8622248 0.08102474 0.5000035
vn 0.02980459 -0.317166 -0.9479016
vn 6.612087E-07 -5.360166E-06 -1
vn 0.09356207 -0.9956135 -4.882777E-07
vn 0.8471112 -0.2403509 0.4739559
vn 0.8622277 0.08102428 -0.4999985
vn 0.8471134 -0.2403525 -0.4739511
vn -0.7875071 -0.3939627 0.4739473
vn -0.8622254 -0.08102798 0.5000017
vn 1.691914E-06 9.893807E-07 1
vn -0.7875035 -0.3939638 -0.4739522
vn -0.862226 -0.08102939 -0.5000006
vn 0.02980546 -0.3171606 0.9479033
vn 0.8622255 0.08102857 0.5000015
vn 0.0298039 -0.317171 -0.9478999
vn -6.417623E-07 -6.857619E-06 -1
vn 0.09356058 -0.9956136 -8.296882E-07
vn 0.8471169 -0.2403452 0.4739485
vn 0.8622279 0.0810225 -0.4999984
vn 0.8471138 -0.2403506 -0.4739511
vn 0.7875029 0.3939605 0.4739561
vn 0.8622247 0.08102602 0.5000035
vn 0 4.910428E-07 1
vn 0.7875057 0.3939622 -0.4739501
vn 0.8622275 0.08103006 -0.4999978
vn -0.02980985 0.3171601 0.9479035
vn -0.8622254 -0.08102559 0.5000023
vn -0.02981197 0.3171619 -0.9479028
vn 0 4.397508E-06 -1
vn -0.09356432 0.9956132 0
vn -0.847111 0.2403503 0.4739565
vn -0.8622282 -0.08102573 -0.4999975
vn -0.8471151 0.2403495 -0.4739494
vn 0.7875035 0.3939621 0.4739536
vn 0.8622262 0.08102812 0.5000005
vn 1.186283E-06 3.041065E-06 1
vn 0.7875069 0.3939606 -0.4739493
vn 0.8622282 0.08102965 -0.4999966
vn -0.02980984 0.3171647 0.947902
vn -0.8622251 -0.08102361 0.500003
vn -0.02980719 0.317161 -0.9479031
vn 1.011259E-06 4.494756E-06 -1
vn -0.09355945 0.9956137 0
vn -0.8471103 0.2403519 0.4739568
vn -0.862228 -0.08102376 -0.4999979
vn -0.8471133 0.2403507 -0.4739523
vn -0.7875051 -0.3939576 0.4739548
vn -0.8622259 -0.08102141 0.5000021
vn 2.72262E-07 9.577789E-07 1
vn -0.7875043 -0.3939644 -0.4739505
vn -0.8622273 -0.08102909 -0.4999986
vn 0.02980415 -0.3171619 0.9479029
vn 0.8622257 0.08102216 0.5000024
vn 0.02980358 -0.3171661 -0.9479016
vn -7.001044E-07 -4.905593E-06 -1
vn 0.09356047 -0.9956136 -8.296903E-07
vn 0.8471118 -0.2403504 0.4739549
vn 0.8622287 0.08102418 -0.4999967
vn 0.8471147 -0.2403501 -0.4739499
vn 0.7875071 0.3939614 0.4739484
vn 0.8622238 0.08102842 0.5000045
vn -3.11156E-06 4.764576E-07 1
vn 0.7875012 0.3939646 -0.4739555
vn 0.8622245 0.08103041 -0.500003
vn -0.0298101 0.3171572 0.9479044
vn -0.8622271 -0.08102743 0.4999989
vn -0.02980967 0.3171614 -0.9479029
vn 2.139197E-07 1.978757E-06 -1
vn -0.09355944 0.9956137 0
vn -0.8471181 0.2403451 0.4739464
vn -0.862227 -0.08102816 -0.499999
vn -0.847114 0.2403456 -0.4739535
vn -0.7875071 -0.3939624 0.4739476
vn -0.8622253 -0.08102797 0.500002
vn 1.011259E-06 -4.08393E-07 1
vn -0.7875028 -0.3939648 -0.4739526
vn -0.8622258 -0.08102989 -0.5000008
vn 0.02980493 -0.31716 0.9479036
vn 0.8622245 0.08102743 0.5000033
vn 0.0298042 -0.3171677 -0.947901
vn 5.445249E-07 -3.415435E-06 -1
vn 0.09356184 -0.9956135 -4.882764E-07
vn 0.8471158 -0.240347 0.4739495
vn 0.8622266 0.08102652 -0.5000001
vn 0.8471129 -0.2403499 -0.4739533
usemtl Mat_Tool_Cabinet
f 1/1/1 3/3/3 2/2/2 
f 4/4/4 1/1/1 2/2/2 
f 4/4/4 2/2/2 5/5/5 
f 1/1/1 6/6/6 3/3/3 
f 6/6/6 7/7/7 3/3/3 
f 8/8/8 4/4/4 5/5/5 
f 8/8/8 5/5/5 9/9/9 
f 1/1/1 4/4/4 10/10/10 
f 6/6/6 1/1/1 10/10/10 
f 4/4/4 8/8/8 10/10/10 
f 6/6/6 11/11/11 7/7/7 
f 11/11/11 6/6/6 10/10/10 
f 11/11/11 12/12/12 7/7/7 
f 13/13/13 9/9/9 12/12/12 
f 13/13/13 8/8/8 9/9/9 
f 8/8/8 13/13/13 10/10/10 
f 11/11/11 13/13/13 12/12/12 
f 13/13/13 11/11/11 10/10/10 
f 14/14/14 16/16/16 15/15/15 
f 17/17/17 14/14/14 15/15/15 
f 17/17/17 15/15/15 18/18/18 
f 14/14/14 19/19/19 16/16/16 
f 19/19/19 20/20/20 16/16/16 
f 21/21/21 17/17/17 18/18/18 
f 21/21/21 18/18/18 22/22/22 
f 14/14/14 17/17/17 23/23/23 
f 19/19/19 14/14/14 23/23/23 
f 17/17/17 21/21/21 23/23/23 
f 19/19/19 24/24/24 20/20/20 
f 24/24/24 19/19/19 23/23/23 
f 24/24/24 25/25/25 20/20/20 
f 26/26/26 22/22/22 25/25/25 
f 26/26/26 21/21/21 22/22/22 
f 21/21/21 26/26/26 23/23/23 
f 24/24/24 26/26/26 25/25/25 
f 26/26/26 24/24/24 23/23/23 
f 27/27/27 29/29/29 28/28/28 
f 30/30/30 27/27/27 28/28/28 
f 30/30/30 28/28/28 31/31/31 
f 27/27/27 32/32/32 29/29/29 
f 32/32/32 33/33/33 29/29/29 
f 34/34/34 30/30/30 31/31/31 
f 34/34/34 31/31/31 35/35/35 
f 27/27/27 30/30/30 36/36/36 
f 32/32/32 27/27/27 36/36/36 
f 30/30/30 34/34/34 36/36/36 
f 32/32/32 37/37/37 33/33/33 
f 37/37/37 32/32/32 36/36/36 
f 37/37/37 38/38/38 33/33/33 
f 39/39/39 35/35/35 38/38/38 
f 39/39/39 34/34/34 35/35/35 
f 34/34/34 39/39/39 36/36/36 
f 37/37/37 39/39/39 38/38/38 
f 39/39/39 37/37/37 36/36/36 
f 40/40/40 42/42/42 41/41/41 
f 43/43/43 40/40/40 41/41/41 
f 43/43/43 41/41/41 44/44/44 
f 40/40/40 45/45/45 42/42/42 
f 45/45/45 46/46/46 42/42/42 
f 47/47/47 43/43/43 44/44/44 
f 47/47/47 44/44/44 48/48/48 
f 40/40/40 43/43/43 49/49/49 
f 45/45/45 40/40/40 49/49/49 
f 43/43/43 47/47/47 49/49/49 
f 45/45/45 50/50/50 46/46/46 
f 50/50/50 45/45/45 49/49/49 
f 50/50/50 51/51/51 46/46/46 
f 52/52/52 48/48/48 51/51/51 
f 52/52/52 47/47/47 48/48/48 
f 47/47/47 52/52/52 49/49/49 
f 50/50/50 52/52/52 51/51/51 
f 52/52/52 50/50/50 49/49/49 
f 53/53/53 55/55/55 54/54/54 
f 56/56/56 53/53/53 54/54/54 
f 56/56/56 54/54/54 57/57/57 
f 53/53/53 58/58/58 55/55/55 
f 58/58/58 59/59/59 55/55/55 
f 60/60/60 56/56/56 57/57/57 
f 60/60/60 57/57/57 61/61/61 
f 53/53/53 56/56/56 62/62/62 
f 58/58/58 53/53/53 62/62/62 
f 56/56/56 60/60/60 62/62/62 
f 58/58/58 63/63/63 59/59/59 
f 63/63/63 58/58/58 62/62/62 
f 63/63/63 64/64/64 59/59/59 
f 65/65/65 61/61/61 64/64/64 
f 65/65/65 60/60/60 61/61/61 
f 60/60/60 65/65/65 62/62/62 
f 63/63/63 65/65/65 64/64/64 
f 65/65/65 63/63/63 62/62/62 
f 66/66/66 68/68/68 67/67/67 
f 69/69/69 66/66/66 67/67/67 
f 69/69/69 67/67/67 70/70/70 
f 66/66/66 71/71/71 68/68/68 
f 71/71/71 72/72/72 68/68/68 
f 73/73/73 69/69/69 70/70/70 
f 73/73/73 70/70/70 74/74/74 
f 66/66/66 69/69/69 75/75/75 
f 71/71/71 66/66/66 75/75/75 
f 69/69/69 73/73/73 75/75/75 
f 71/71/71 76/76/76 72/72/72 
f 76/76/76 71/71/71 75/75/75 
f 76/76/76 77/77/77 72/72/72 
f 78/78/78 74/74/74 77/77/77 
f 78/78/78 73/73/73 74/74/74 
f 73/73/73 78/78/78 75/75/75 
f 76/76/76 78/78/78 77/77/77 
f 78/78/78 76/76/76 75/75/75 
f 79/79/79 81/81/81 80/80/80 
f 82/82/82 79/79/79 80/80/80 
f 82/82/82 80/80/80 83/83/83 
f 79/79/79 84/84/84 81/81/81 
f 84/84/84 85/85/85 81/81/81 
f 86/86/86 82/82/82 83/83/83 
f 86/86/86 83/83/83 87/87/87 
f 79/79/79 82/82/82 88/88/88 
f 84/84/84 79/79/79 88/88/88 
f 82/82/82 86/86/86 88/88/88 
f 84/84/84 89/89/89 85/85/85 
f 89/89/89 84/84/84 88/88/88 
f 89/89/89 90/90/90 85/85/85 
f 91/91/91 87/87/87 90/90/90 
f 91/91/91 86/86/86 87/87/87 
f 86/86/86 91/91/91 88/88/88 
f 89/89/89 91/91/91 90/90/90 
f 91/91/91 89/89/89 88/88/88 
f 92/92/92 94/94/94 93/93/93 
f 95/95/95 92/92/92 93/93/93 
f 95/95/95 93/93/93 96/96/96 
f 92/92/92 97/97/97 94/94/94 
f 97/97/97 98/98/98 94/94/94 
f 99/99/99 95/95/95 96/96/96 
f 99/99/99 96/96/96 100/100/100 
f 92/92/92 95/95/95 101/101/101 
f 97/97/97 92/92/92 101/101/101 
f 95/95/95 99/99/99 101/101/101 
f 97/97/97 102/102/102 98/98/98 
f 102/102/102 97/97/97 101/101/101 
f 102/102/102 103/103/103 98/98/98 
f 104/104/104 100/100/100 103/103/103 
f 104/104/104 99/99/99 100/100/100 
f 99/99/99 104/104/104 101/101/101 
f 102/102/102 104/104/104 103/103/103 
f 104/104/104 102/102/102 101/101/101 
