# exported by StudySceneExporter from mesh 'Wrench_S_low'
mtllib materials.mtl
v 0 -0.004173584 -0.1058318
v 0.003991966 -0.004527664 -0.1044597
v 0.003991966 -0.007206573 -0.09361694
v -0.003991966 -0.007206573 -0.09361687
v -0.003991966 -0.004527664 -0.1044597
v 0.003991966 -0.00655777 -0.09087784
v -0.003991928 -0.00655777 -0.09087768
v 0.003991966 -0.004382934 -0.08893669
v -0.003991966 -0.004382934 -0.08893669
v 0.003991966 -0.001190796 -0.08735977
v -0.003991928 -0.001190796 -0.0873597
v 0.003991966 0.002671127 -0.0863549
v -0.003991928 0.002671127 -0.08635483
v 0.003991966 0.006223907 -0.08672295
v -0.003991966 0.006223907 -0.08672287
v 0.003991966 0.009120255 -0.08805824
v -0.003991966 0.009120255 -0.08805824
v -0.003991966 0.0104657 -0.09058738
v 0.003991966 0.0104657 -0.09058738
v 0 0.0131324 -0.1012392
v -0.003991928 0.01277824 -0.09986709
v 0.003991966 0.01277824 -0.09986709
v 0 -0.006811676 -0.106207
v 0.003991966 -0.004527664 -0.1044597
v 0 -0.004173584 -0.1058318
v 0.003991966 -0.006291428 -0.104762
v 0 -0.01156212 -0.1021999
v 0.003991966 -0.01078354 -0.1009532
v 0 -0.0165583 -0.09539551
v 0.003991966 -0.007206573 -0.09361694
v 0.003991966 -0.01549034 -0.09477714
v 0 -0.01834022 -0.08912925
v 0.003991966 -0.01680428 -0.08897224
v 0 -0.01682686 -0.08281074
v 0.003991966 -0.01552284 -0.08324943
v 0.003991966 -0.00655777 -0.09087784
v 0.003991966 -0.01163269 -0.07821991
v 0 -0.01270576 -0.07746872
v 0.003991966 -0.004382934 -0.08893669
v 0 -0.009293213 -0.07202186
v 0.003991966 -0.006088333 -0.07501243
v 0.003991966 -0.001190796 -0.08735977
v 0.002949944 -0.008360366 -0.07283065
v 0 -0.007223663 -0.06223587
v 0.002949944 -0.005040359 -0.07008819
v 0.003991966 0.0008552551 -0.07365997
v 0.003991966 0.002671127 -0.0863549
v 0.002503624 -0.00647232 -0.06223587
v 0.002503624 -0.00647232 0.07340759
v 0.002503624 0.006676178 -0.06223587
v 0 -0.007223663 0.07340759
v 0.002949944 0.0001625061 -0.0691407
v 0.003991966 0.007395935 -0.07394394
v 0.003991966 0.006223907 -0.08672295
v 0.003991966 0.01271408 -0.07687492
v 0.003991966 0.009120255 -0.08805824
v 0.002949944 0.004179764 -0.06939109
v 0.002949944 0.008580322 -0.07091095
v 0.002961502 -0.007909851 0.07851944
v 0 -0.008480835 0.07795868
v 0.003991966 -0.009342194 0.08230911
v -3.814697E-08 -0.01001541 0.08182648
v 0 -0.01311134 0.08645981
v 0.003991966 0.01634148 -0.08241798
v 0.003991966 0.0104657 -0.09058738
v 0.003991928 -0.01223167 0.08663345
v -3.814697E-08 -0.01419838 0.0919252
v 0.003991966 -0.01324638 0.09173462
v 0 -0.01311134 0.09739059
v 0.003991966 -0.01223167 0.09683563
v -3.814697E-08 -0.01001541 0.1020239
v 0.003991966 -0.009342194 0.1011601
v -3.814697E-08 -0.00538208 0.1051198
v 0.003991928 -0.0050177 0.1040497
v 0 8.331299E-05 0.106207
v 0.003991966 8.331299E-05 0.1050642
v -3.814697E-08 0.005548782 0.1051198
v 0.003991928 0.005184402 0.1040497
v 0 0.01018204 0.1020239
v 0.003991966 0.009508896 0.1011601
v 0 0.01327805 0.09739059
v 0.003991966 0.01239845 0.09683563
v 0 0.01436516 0.0919252
v 0.003991966 0.01341309 0.09173462
v 0 0.01327812 0.08645981
v 0.003991966 0.01239838 0.08663345
v -3.814697E-08 0.01018204 0.08182648
v 0.003991966 0.009508896 0.08230911
v 0 0.008647537 0.07795868
v 0.002961502 0.008076706 0.07851944
v 0 0.007799377 0.07340759
v 0.003991966 8.331299E-05 0.1030292
v 0.003991966 0.00440567 0.1021695
v 0.003991966 0.008069992 0.09972107
v 0.003991966 0.01051826 0.09605682
v 0.003991966 0.01137802 0.09173462
v 0.003991966 0.01051826 0.08741226
v 0.003991966 -0.004238891 0.1021695
v 0.003991966 -0.007903137 0.09972107
v 0.003991966 -0.01035156 0.09605682
v 0.003991966 -0.01121124 0.09173462
v 0.003991966 -0.01035156 0.08741226
v 0.003991966 -0.007903214 0.08374801
v 0.003136482 -0.004238891 0.1021693
v 0.00313652 -0.007903137 0.09972107
v 0.003136482 -0.01035156 0.09605682
v 0.003136482 -0.01121124 0.09173446
v 0.003136482 -0.01035156 0.08741226
v 0.003136482 -0.007903214 0.08374786
v 0.003136482 8.331299E-05 0.1030292
v 0.003136482 0.00440567 0.1021693
v 0.003136482 0.008069992 0.09972107
v 0.003136482 0.01051826 0.09605682
v 0.003136482 0.01137802 0.09173446
v 0.00313652 -0.003478012 0.1003325
v 0.003136482 8.331299E-05 0.1020596
v 0.003136482 -0.007217636 0.09903549
v 0.00313652 0.003644791 0.1003325
v 0.003136482 0.007384414 0.09903549
v 0.003136482 -0.008514557 0.09529587
v 0.003136482 0.008681335 0.09529587
v 0.003136482 -0.01024185 0.09173446
v 0.003136482 -0.008514557 0.08817306
v 0.003136482 -0.007217712 0.08443344
v 0.003136482 0.01040863 0.09173446
v 0.00313652 -0.003478088 0.08313644
v 0.003136482 0.01051826 0.08741226
v 0.003136482 0.008681335 0.08817306
v 0.003136482 -0.004238968 0.08129959
v 0.003136482 8.331299E-05 0.0814093
v 0.003991966 0.008069916 0.08374801
v 0.003136482 0.008069916 0.08374786
v 0.003136482 0.007384414 0.08443344
v 0.003991966 -0.004238968 0.08129974
v 0.003136482 8.331299E-05 0.08043975
v 0.00313652 0.003644714 0.08313644
v 0.003136482 0.004405594 0.08129959
v 0.003991966 0.004405594 0.08129974
v 0.003991966 8.331299E-05 0.08043991
v 0.003991966 -0.0050177 0.07941955
v 0.003991966 0.005184402 0.07941955
v 0.003991966 8.331299E-05 0.07840484
v 0.00296154 -0.004242554 0.07611282
v 0.00296154 8.331299E-05 0.07526779
v 0.00296154 0.004409256 0.07611282
v 0.002503624 0.006676178 0.07340759
v 0 0.007799377 -0.06223587
v 0 0.009886474 -0.07043281
v 0 0.01417511 -0.07607437
v 0 0.01764061 -0.0815924
v 0 0.01834022 -0.08859581
v 0.003991966 0.01703819 -0.08856148
v 0 0.01728737 -0.09443184
v 0.003991966 0.01601166 -0.09418319
v 0 0.01557549 -0.1002525
v 0.003991966 0.01454018 -0.09925438
v 0.003991966 0.01277824 -0.09986709
v 0 0.0131324 -0.1012392
v 0 -0.006811676 -0.106207
v 0 -0.004173584 -0.1058318
v -0.003991966 -0.004527664 -0.1044597
v -0.003991966 -0.006291428 -0.104762
v -0.003991966 -0.007206573 -0.09361687
v -0.003991966 -0.01078354 -0.1009533
v 0 -0.01156212 -0.1021999
v -0.003991966 -0.01549034 -0.09477707
v 0 -0.0165583 -0.09539551
v -0.003991966 -0.01680428 -0.08897217
v -0.003991928 -0.00655777 -0.09087768
v 0 -0.01834022 -0.08912925
v -0.003991966 -0.01552284 -0.08324943
v -0.003991966 -0.004382934 -0.08893669
v -0.003991928 -0.01163269 -0.07821983
v 0 -0.01682686 -0.08281074
v 0 -0.01270576 -0.07746872
v -0.003991928 -0.001190796 -0.0873597
v 0 -0.009293213 -0.07202186
v -0.003991966 -0.006088333 -0.07501236
v -0.003991928 0.002671127 -0.08635483
v -0.002949944 -0.008360366 -0.07283058
v 0 -0.007223663 -0.06223587
v -0.002503624 -0.00647232 -0.06223587
v 0 -0.007223663 0.07340759
v -0.003991928 0.0008552551 -0.07365997
v -0.003991966 0.006223907 -0.08672287
v -0.002949944 -0.005040359 -0.07008819
v -0.003991966 0.007395935 -0.07394386
v -0.003991966 0.009120255 -0.08805824
v -0.003991966 0.01271408 -0.076875
v -0.003991966 0.0104657 -0.09058738
v -0.002949944 0.0001625061 -0.06914085
v -0.002949944 0.004179764 -0.06939125
v -0.002503624 -0.00647232 0.07340759
v -0.002503624 0.006676178 0.07340759
v -0.002503624 0.006676178 -0.06223587
v -0.002961502 -0.007909851 0.07851928
v 0 -0.008480835 0.07795868
v -0.003991928 -0.009342194 0.08230896
v -3.814697E-08 -0.01001541 0.08182648
v -0.00296154 -0.004242554 0.07611267
v -0.002949944 0.008580322 -0.07091095
v 0 0.007799377 -0.06223587
v 0 0.009886474 -0.07043281
v 0 0.01417511 -0.07607437
v 0 0.007799377 0.07340759
v -0.003991966 0.01634148 -0.08241798
v 0 0.01764061 -0.0815924
v -0.003991966 0.01703819 -0.08856155
v 0 0.01834022 -0.08859581
v -0.003991928 0.01601166 -0.09418319
v 0 0.01728737 -0.09443184
v -0.003991928 0.01277824 -0.09986709
v -0.003991966 0.01454018 -0.09925438
v 0 0.01557549 -0.1002525
v 0 0.0131324 -0.1012392
v -0.002961502 0.008076706 0.07851928
v 0 0.008647537 0.07795868
v -0.003991928 0.009508896 0.08230896
v -3.814697E-08 0.01018204 0.08182648
v 0 0.01327812 0.08645981
v -0.003991966 0.01239838 0.08663345
v 0 0.01436516 0.0919252
v -0.003991928 0.01341309 0.09173446
v 0 0.01327805 0.09739059
v -0.003991928 0.01239845 0.09683548
v 0 0.01018204 0.1020239
v -0.003991966 0.009508896 0.10116
v -3.814697E-08 0.005548782 0.1051198
v -0.003991966 0.005184402 0.1040495
v 0 8.331299E-05 0.106207
v -0.003991966 8.331299E-05 0.1050642
v -3.814697E-08 -0.00538208 0.1051198
v -0.003991966 -0.0050177 0.1040495
v -3.814697E-08 -0.01001541 0.1020239
v -0.003991928 -0.009342194 0.10116
v 0 -0.01311134 0.09739059
v -0.003991928 -0.01223167 0.09683548
v -3.814697E-08 -0.01419838 0.0919252
v -0.003991928 -0.01324638 0.09173446
v 0 -0.01311134 0.08645981
v -0.003991966 -0.01223167 0.08663345
v -0.003991966 0.00440567 0.1021693
v -0.003991966 8.331299E-05 0.1030292
v -0.003991966 -0.004238891 0.1021693
v -0.003991928 -0.007903137 0.09972107
v -0.003991928 -0.01035156 0.09605667
v -0.003991928 -0.01121124 0.09173446
v -0.003991928 -0.01035156 0.0874121
v -0.003991928 0.008069992 0.09972092
v -0.003991928 0.01051826 0.09605667
v -0.003991928 0.01137802 0.09173446
v -0.003991928 0.01051826 0.0874121
v -0.003991966 0.008069916 0.08374786
v -0.003136482 0.008069992 0.09972107
v -0.003136482 0.01051826 0.09605682
v -0.003136482 0.01137802 0.09173462
v -0.003136482 0.01051826 0.08741226
v -0.003136482 0.008069916 0.08374801
v -0.003136482 0.00440567 0.1021695
v -0.003136482 8.331299E-05 0.1030292
v -0.003136482 -0.004238891 0.1021695
v -0.003136482 -0.007903137 0.09972107
v -0.003136482 -0.01035156 0.09605682
v -0.003136482 -0.01121124 0.09173462
v -0.003136482 0.007384414 0.09903549
v -0.003136482 0.003644791 0.1003325
v -0.00313652 0.008681335 0.09529602
v -0.00313652 8.331299E-05 0.1020598
v -0.003136482 -0.003478012 0.1003325
v -0.003136482 0.01040863 0.09173462
v -0.003136482 -0.007217636 0.09903549
v -0.003136482 0.008681335 0.08817322
v -0.00313652 -0.008514557 0.09529602
v -0.003136482 0.007384414 0.08443359
v -0.003136482 -0.01024185 0.09173462
v -0.003136482 0.003644714 0.0831366
v -0.003136482 -0.01035156 0.08741226
v -0.003136482 -0.008514557 0.08817322
v -0.003136482 0.004405594 0.08129959
v -0.003136482 8.331299E-05 0.08140945
v -0.003991966 -0.007903214 0.08374786
v -0.003136482 -0.007903214 0.08374801
v -0.003136482 -0.007217712 0.08443359
v -0.003991928 0.004405594 0.08129959
v -0.003136482 8.331299E-05 0.08043991
v -0.003136482 -0.003478088 0.0831366
v -0.003136482 -0.004238968 0.08129959
v -0.003991928 -0.0050177 0.0794194
v -0.003991928 -0.004238968 0.08129959
v -0.003991928 8.331299E-05 0.08043975
v -0.003991928 0.005184402 0.0794194
v -0.003991928 8.331299E-05 0.07840469
v -0.00296154 8.331299E-05 0.07526764
v -0.00296154 0.004409256 0.07611267
v -0.003136482 -0.003478012 0.1003325
v 0.003136482 8.331299E-05 0.1020596
v -0.00313652 8.331299E-05 0.1020598
v 0.00313652 -0.003478012 0.1003325
v -0.003136482 -0.007217636 0.09903549
v 0.003136482 -0.007217636 0.09903549
v -0.00313652 -0.008514557 0.09529602
v 0.003136482 -0.008514557 0.09529587
v -0.003136482 -0.01024185 0.09173462
v 0.003136482 -0.01024185 0.09173446
v -0.003136482 -0.008514557 0.08817322
v 0.003136482 -0.008514557 0.08817306
v -0.003136482 -0.007217712 0.08443359
v 0.003136482 -0.007217712 0.08443344
v -0.003136482 -0.003478088 0.0831366
v 0.00313652 -0.003478088 0.08313644
v -0.003136482 8.331299E-05 0.08140945
v 0.003136482 8.331299E-05 0.0814093
v -0.003136482 0.003644714 0.0831366
v 0.00313652 0.003644714 0.08313644
v -0.003136482 0.007384414 0.08443359
v 0.003136482 0.007384414 0.08443344
v -0.003136482 0.008681335 0.08817322
v 0.003136482 0.008681335 0.08817306
v -0.003136482 0.01040863 0.09173462
v 0.003136482 0.01040863 0.09173446
v -0.00313652 0.008681335 0.09529602
v 0.003136482 0.008681335 0.09529587
v -0.003136482 0.007384414 0.09903549
v 0.003136482 0.007384414 0.09903549
v -0.003136482 0.003644791 0.1003325
v 0.00313652 0.003644791 0.1003325
v -0.00313652 8.331299E-05 0.1020598
v 0.003136482 8.331299E-05 0.1020596
vt 0.8789504 0.5063863
vt 0.8778954 0.503418
vt 0.8695891 0.5034212
vt 0.8695915 0.5093588
vt 0.8778977 0.5093555
vt 0.8674955 0.5034218
vt 0.8674979 0.5093596
vt 0.8653278 0.5034227
vt 0.86533 0.5093604
vt 0.8626797 0.5034239
vt 0.8626821 0.5093615
vt 0.8597121 0.5034249
vt 0.8597145 0.5093625
vt 0.8570557 0.503426
vt 0.857058 0.5093637
vt 0.8546839 0.5034268
vt 0.8546863 0.5093644
vt 0.8525555 0.5093652
vt 0.8525534 0.5034276
vt 0.8443882 0.5063996
vt 0.8454432 0.5093679
vt 0.8454409 0.5034304
vt 0.7806931 0.7000957
vt 0.782908 0.6969185
vt 0.7798522 0.6981699
vt 0.7831154 0.6982021
vt 0.7843754 0.7033718
vt 0.7863896 0.7009175
vt 0.7901869 0.7064974
vt 0.7914913 0.6973164
vt 0.7912314 0.7035971
vt 0.795357 0.7073517
vt 0.7953715 0.7041969
vt 0.8004456 0.7060952
vt 0.7993972 0.7031589
vt 0.7935915 0.6967111
vt 0.8031511 0.7004418
vt 0.8048277 0.7030873
vt 0.7950914 0.6950984
vt 0.808615 0.7003062
vt 0.8056569 0.6964025
vt 0.7963347 0.6928046
vt 0.8074102 0.6982307
vt 0.8154855 0.6984131
vt 0.8094394 0.6956153
vt 0.8066092 0.6911998
vt 0.7970402 0.6900115
vt 0.8153841 0.6964643
vt 0.916496 0.694515
vt 0.8151927 0.6866584
vt 0.9164505 0.6964664
vt 0.8100753 0.6916385
vt 0.8062475 0.686331
vt 0.796649 0.6874549
vt 0.8037939 0.6825461
vt 0.7955372 0.6853564
vt 0.8098342 0.6885841
vt 0.8085899 0.6852286
vt 0.9205279 0.6958413
vt 0.919503 0.6978357
vt 0.923629 0.6967907
vt 0.9223385 0.6995273
vt 0.9265976 0.7016869
vt 0.7996674 0.6800582
vt 0.793608 0.6843193
vt 0.9271631 0.6987479
vt 0.9314713 0.7022955
vt 0.9310167 0.6993413
vt 0.9362597 0.7010651
vt 0.9347777 0.6984606
vt 0.9402289 0.6981387
vt 0.9379096 0.6962295
vt 0.9427903 0.6939714
vt 0.9399526 0.692986
vt 0.9435933 0.689178
vt 0.9406862 0.6892107
vt 0.9426842 0.6843908
vt 0.9398763 0.685441
vt 0.9399867 0.6802843
vt 0.9377196 0.6822553
vt 0.9359226 0.67748
vt 0.9345105 0.680126
vt 0.9311023 0.6763787
vt 0.9307227 0.679343
vt 0.9262278 0.6771126
vt 0.9268706 0.6800344
vt 0.9219897 0.6793973
vt 0.9233682 0.6820917
vt 0.9191732 0.6812077
vt 0.9202762 0.6831598
vt 0.916172 0.6826026
vt 0.9392154 0.6892259
vt 0.9385324 0.6859999
vt 0.9366722 0.6832712
vt 0.9339039 0.6814532
vt 0.9306412 0.6807885
vt 0.9273133 0.6813996
vt 0.9385872 0.6924572
vt 0.9368346 0.69524
vt 0.9341409 0.6971486
vt 0.9308982 0.6978955
vt 0.9275603 0.6973736
vt 0.9245782 0.6956599
vt 0.9380162 0.6922407
vt 0.9363863 0.6948318
vt 0.9338746 0.6966062
vt 0.9308486 0.6972971
vt 0.9277322 0.6968031
vt 0.9249763 0.6951957
vt 0.9386058 0.6892352
vt 0.9379745 0.6862333
vt 0.9362395 0.6836948
vt 0.9336541 0.6820054
vt 0.9306126 0.6813881
vt 0.9366803 0.6917336
vt 0.937911 0.6892431
vt 0.9358773 0.694365
vt 0.9366691 0.6867747
vt 0.9357452 0.6841764
vt 0.9332604 0.6953373
vt 0.9330683 0.6832929
vt 0.9307961 0.6966152
vt 0.9281516 0.6954744
vt 0.9254355 0.6946702
vt 0.9305792 0.6820712
vt 0.9243774 0.691999
vt 0.9275088 0.681963
vt 0.9279773 0.6832747
vt 0.923064 0.6926022
vt 0.9230375 0.6894586
vt 0.9243522 0.6831985
vt 0.9247673 0.6836479
vt 0.9252415 0.684159
vt 0.9225049 0.6928623
vt 0.9223375 0.6894732
vt 0.924207 0.6868606
vt 0.9228961 0.6863003
vt 0.9223347 0.6860652
vt 0.9217246 0.6894872
vt 0.9211516 0.6934819
vt 0.9209738 0.6854978
vt 0.920248 0.6895161
vt 0.9185355 0.6928997
vt 0.9178295 0.6895654
vt 0.9183939 0.6861992
vt 0.9162912 0.6846507
vt 0.8152237 0.684612
vt 0.8095169 0.6829746
vt 0.8053429 0.6797221
vt 0.8008976 0.6772289
vt 0.7954128 0.6763334
vt 0.7952824 0.6794486
vt 0.7907557 0.6767316
vt 0.7912259 0.6799192
vt 0.7860646 0.6779828
vt 0.7875044 0.6806371
vt 0.7867818 0.6818094
vt 0.7845049 0.6794035
vt 0.7542591 0.6754479
vt 0.753418 0.6735222
vt 0.7564735 0.6722703
vt 0.7566812 0.6735542
vt 0.7650573 0.6726677
vt 0.7599556 0.6762693
vt 0.7579415 0.6787238
vt 0.7647974 0.6789489
vt 0.7637529 0.681849
vt 0.7689371 0.6795485
vt 0.767158 0.6720624
vt 0.7689228 0.6827033
vt 0.7729626 0.6785107
vt 0.7686582 0.6704493
vt 0.7767158 0.6757941
vt 0.7740109 0.681447
vt 0.7783918 0.6784396
vt 0.7699027 0.6681557
vt 0.7821772 0.6756611
vt 0.7792227 0.6717556
vt 0.7706103 0.6653628
vt 0.7809744 0.6735849
vt 0.7890453 0.6737752
vt 0.7889466 0.6718285
vt 0.8900108 0.6720018
vt 0.780179 0.6665534
vt 0.7702208 0.6628065
vt 0.7830048 0.6709714
vt 0.7798207 0.6616845
vt 0.7691097 0.6607082
vt 0.7773676 0.6578991
vt 0.7671804 0.6596713
vt 0.7836447 0.6669946
vt 0.7834067 0.6639402
vt 0.8900592 0.6700482
vt 0.8898726 0.6601841
vt 0.7887688 0.6620214
vt 0.8941 0.6713781
vt 0.893074 0.6733727
vt 0.8972063 0.6723266
vt 0.8959172 0.6750648
vt 0.8921046 0.6684351
vt 0.7821646 0.6605834
vt 0.7888024 0.6599727
vt 0.783093 0.6583297
vt 0.7789168 0.6550751
vt 0.8897567 0.6581383
vt 0.7732406 0.6554106
vt 0.7744706 0.6525815
vt 0.7688551 0.654801
vt 0.7689853 0.651686
vt 0.7647986 0.6552719
vt 0.764328 0.6520844
vt 0.7603545 0.6571625
vt 0.7610772 0.6559904
vt 0.7596369 0.6533363
vt 0.7580776 0.6547571
vt 0.8938494 0.6586962
vt 0.8927486 0.656744
vt 0.8969364 0.6576298
vt 0.8955581 0.654936
vt 0.8997869 0.6526468
vt 0.9004359 0.6555676
vt 0.9046535 0.6519035
vt 0.9042811 0.6548691
vt 0.9094722 0.652994
vt 0.9080665 0.6556436
vt 0.9135413 0.6557882
vt 0.9112799 0.6577656
vt 0.9162474 0.6598895
vt 0.9134426 0.6609471
vt 0.9171658 0.6646742
vt 0.9142587 0.6647143
vt 0.9163728 0.6694703
vt 0.9135327 0.6684914
vt 0.9138184 0.6736441
vt 0.9114947 0.671741
vt 0.909852 0.676579
vt 0.9083648 0.6739776
vt 0.9050632 0.6778178
vt 0.9046025 0.6748643
vt 0.9001842 0.6772182
vt 0.9007425 0.6742785
vt 0.9120994 0.6615112
vt 0.9127884 0.6647375
vt 0.9121652 0.6679704
vt 0.9104161 0.6707563
vt 0.9077234 0.6726699
vt 0.9044795 0.6734214
vt 0.9011416 0.6729007
vt 0.9102359 0.6587873
vt 0.9074671 0.6569759
vt 0.9042051 0.6563168
vt 0.900877 0.6569293
vt 0.8979216 0.6587291
vt 0.909801 0.6592093
vt 0.9072151 0.657527
vt 0.9041729 0.6569157
vt 0.9010692 0.6574935
vt 0.8983335 0.6591805
vt 0.9115407 0.6617427
vt 0.9121788 0.6647441
vt 0.9115949 0.6677523
vt 0.90997 0.6703463
vt 0.9074597 0.6721263
vt 0.9044333 0.6728225
vt 0.9093082 0.6596923
vt 0.9102373 0.6622882
vt 0.906631 0.6588151
vt 0.911484 0.6647539
vt 0.9102581 0.6672482
vt 0.9041405 0.6575981
vt 0.9094596 0.6698804
vt 0.9015403 0.6588051
vt 0.9068434 0.6708579
vt 0.8988078 0.659692
vt 0.9043803 0.6721404
vt 0.8977768 0.6623971
vt 0.9013171 0.6723309
vt 0.9017336 0.6710026
vt 0.896467 0.6618404
vt 0.89661 0.6649959
vt 0.8981533 0.6711886
vt 0.8985546 0.6707265
vt 0.8990135 0.6702013
vt 0.8959079 0.6616013
vt 0.89591 0.6650109
vt 0.8979518 0.6675329
vt 0.896636 0.6681385
vt 0.8947253 0.6690187
vt 0.896075 0.6683958
vt 0.8952966 0.6650219
vt 0.8945458 0.6610327
vt 0.8938196 0.6650531
vt 0.8914018 0.6651
vt 0.8919697 0.6617343
vt 0.9846702 0.6794639
vt 0.9870565 0.6832457
vt 0.9870563 0.6794639
vt 0.9846702 0.6832459
vt 0.9822838 0.6794641
vt 0.9822841 0.6832459
vt 0.9798975 0.6794641
vt 0.9798977 0.6832459
vt 0.9775114 0.6794641
vt 0.9775114 0.6832461
vt 0.9751248 0.6794643
vt 0.9751251 0.6832461
vt 0.9727387 0.6794643
vt 0.9727387 0.6832461
vt 0.9703524 0.6794643
vt 0.9703526 0.6832461
vt 0.9679661 0.6794643
vt 0.9679661 0.6832461
vt 0.96558 0.6794643
vt 0.96558 0.6832464
vt 0.9631934 0.6794646
vt 0.9631937 0.6832464
vt 0.9608073 0.6794646
vt 0.9608073 0.6832466
vt 0.958421 0.6794646
vt 0.958421 0.6832466
vt 0.9560347 0.6794648
vt 0.9560347 0.6832466
vt 0.9536483 0.6794648
vt 0.9536486 0.6832466
vt 0.951262 0.6794648
vt 0.951262 0.6832466
vt 0.9488757 0.6794648
vt 0.9488759 0.6832469
vn 0 0.991619 -0.1291966
vn 0.7823471 0.6204578 -0.05445408
vn 0.7757568 0.6287215 0.0539498
vn -0.7757641 0.6287127 0.05394831
vn -0.782333 0.6204755 -0.05445547
vn 0.9395551 0.2931741 -0.1768765
vn -0.9395545 0.2931749 -0.1768782
vn 0.931658 0.1991834 -0.3038739
vn -0.9316562 0.1991852 -0.3038782
vn 0.9245182 0.1310046 -0.3579159
vn -0.9245194 0.1310048 -0.3579128
vn 0.9304932 0.03134971 -0.3649649
vn -0.9304922 0.03134765 -0.3649678
vn 0.925115 -0.09696396 -0.3670972
vn -0.9251146 -0.09696634 -0.3670974
vn 0.9284023 -0.2502456 -0.2746748
vn -0.928399 -0.2502497 -0.2746823
vn -0.7090673 -0.6656852 -0.2325656
vn 0.7090734 -0.6656798 -0.2325628
vn 7.997797E-07 -0.7869884 -0.6169678
vn -0.7501418 -0.5331565 -0.3911923
vn 0.7501466 -0.5331568 -0.3911827
vn -2.980502E-06 -0.4681778 -0.8836343
vn 0.7823471 0.6204578 -0.05445408
vn 0 0.991619 -0.1291966
vn 0.8765889 -0.2208646 -0.4275635
vn 2.674323E-06 -0.7348315 -0.6782497
vn 0.8039387 -0.4419996 -0.3978931
vn 3.65458E-06 -0.889329 -0.4572681
vn 0.7757568 0.6287215 0.0539498
vn 0.744131 -0.5958084 -0.3021279
vn 2.81407E-06 -0.9998528 -0.01716035
vn 0.8570194 -0.5152708 -0.003724909
vn 2.996821E-06 -0.9032001 0.4292195
vn 0.8997336 -0.3922085 0.1914468
vn 0.9395551 0.2931741 -0.1768765
vn 0.9381031 -0.2780049 0.2065814
vn 3.336273E-06 -0.8119209 0.5837675
vn 0.931658 0.1991834 -0.3038739
vn 1.263285E-05 -0.9385372 0.3451781
vn 0.997139 -0.03225635 0.06836212
vn 0.9245182 0.1310046 -0.3579159
vn 0.6798083 -0.6457731 0.3476174
vn 1.163935E-06 -0.9998763 0.01573114
vn 0.9928765 -0.02989748 0.115336
vn 0.9975618 -0.005039396 0.06960743
vn 0.9304932 0.03134971 -0.3649649
vn 0.9453136 -0.3260574 0.008287902
vn 0.9437402 -0.3306483 -0.005114433
vn 0.9498029 0.3127671 0.00714689
vn 0 -0.9999353 -0.01137521
vn 0.9938831 -0.007594563 0.1101751
vn 0.996333 0.02798373 0.08085382
vn 0.925115 -0.09696396 -0.3670972
vn 0.9096764 0.3356925 0.2445392
vn 0.9284023 -0.2502456 -0.2746748
vn 0.9874006 0.0230032 0.1565597
vn 0.7418895 0.5619643 0.3657814
vn 0.6156631 -0.6963454 -0.368866
vn 2.873422E-06 -0.943555 -0.3312158
vn 0.634329 -0.6592888 -0.4036895
vn 0 -0.8719915 -0.4895211
vn 2.923009E-06 -0.9259722 -0.3775916
vn 0.8398114 0.514232 0.1740176
vn 0.7090734 -0.6656798 -0.2325628
vn 0.5191525 -0.7879089 -0.33118
vn 1.470441E-06 -0.9999824 0.005942504
vn 0.529924 -0.8480318 -0.004753723
vn -3.388207E-06 -0.9217674 0.3877432
vn 0.5405007 -0.7789473 0.3179625
vn -1.468718E-05 -0.7041363 0.7100649
vn 0.5492983 -0.5931861 0.5885588
vn -1.421593E-05 -0.3805928 0.9247428
vn 0.5550988 -0.319932 0.7677948
vn -8.947666E-06 0 1
vn 0.5571293 0 0.8304257
vn -1.376207E-05 0.3805868 0.9247451
vn 0.555098 0.3199235 0.767799
vn -1.103713E-05 0.7041333 0.7100679
vn 0.5492941 0.5931842 0.5885647
vn -1.066346E-05 0.9217649 0.3877492
vn 0.5404934 0.7789496 0.3179694
vn -2.286717E-06 0.9999824 0.005942349
vn 0.5299355 0.8480247 -0.004756811
vn 1.031717E-05 0.9259701 -0.3775967
vn 0.5191672 0.7878978 -0.3311833
vn 7.781322E-06 0.8719934 -0.4895177
vn 0.6343383 0.6592798 -0.4036893
vn 1.987003E-05 0.9503807 -0.311089
vn 0.6285101 0.6916359 -0.3558296
vn 1.159682E-06 0.9999532 -0.009684715
vn 0.9459702 0 -0.3242539
vn 0.9459711 -0.1240749 -0.2995732
vn 0.9459687 -0.2292813 -0.2292888
vn 0.9459678 -0.2995786 -0.1240866
vn 0.9459732 -0.324245 -1.188778E-05
vn 0.9459679 -0.2995755 0.124093
vn 0.9459764 0.1240741 -0.2995568
vn 0.9459708 0.2292746 -0.2292866
vn 0.9459707 0.2995687 -0.1240888
vn 0.9459714 0.32425 -4.830116E-06
vn 0.9459699 0.2995696 0.1240921
vn 0.9459592 0.2293043 0.2293048
vn 0.8186347 0.2197845 -0.5305958
vn 0.818628 0.4061029 -0.4061141
vn 0.8186241 0.5306123 -0.2197842
vn 0.8186162 0.574341 1.434283E-05
vn 0.8186163 0.5306222 0.2197898
vn 0.8186073 0.4061238 0.4061348
vn 0.8186324 0 -0.5743178
vn 0.8186314 -0.2197778 -0.5306037
vn 0.8186292 -0.4060999 -0.4061146
vn 0.8186212 -0.5306168 -0.2197842
vn 0.8186046 -0.5743575 1.110737E-05
vn 0.2277524 0.3726407 -0.8995931
vn 0.3279068 0 -0.9447101
vn 0.3279192 0.6680152 -0.6680004
vn 0.2277544 -0.3726329 -0.8995959
vn 0.327931 -0.6680118 -0.6679982
vn 0.2277445 0.8996002 -0.3726285
vn 0.2277452 -0.8995995 -0.3726296
vn 0.3279183 0.9447061 7.040173E-06
vn 0.2277665 0.8995991 0.3726175
vn 0.3279532 0.6680073 0.6679918
vn 0.3279099 -0.944709 5.756512E-06
vn 0.2277807 0.372595 0.8996048
vn 0.8186072 -0.5306329 0.219798
vn 0.227753 -0.8995991 0.3726259
vn 0.8185994 0.2197898 0.5306481
vn 0.3279483 0 0.9446957
vn 0.9459582 -0.2293058 0.2293075
vn 0.8185923 -0.4061332 0.4061558
vn 0.3279325 -0.6680025 0.6680067
vn 0.9459579 0.1241016 0.2996038
vn 0.8185921 0 0.5743753
vn 0.2277766 -0.3725919 0.8996072
vn 0.818593 -0.2197898 0.5306581
vn 0.9459561 -0.1241007 0.29961
vn 0.9459613 0 0.3242793
vn 0.9715902 -0.1042852 -0.2124546
vn 0.9715914 0.1042808 -0.2124517
vn 0.977145 -5.31201E-07 -0.2125739
vn 0.9659429 -0.08046748 -0.2459255
vn 0.9688811 0.004701157 -0.2474821
vn 0.9680875 0.05756797 -0.2439109
vn 0.9491133 0.3148899 -0.005317998
vn 0 0.9998605 0.01670139
vn -6.49225E-06 0.8948373 0.4463924
vn -9.9352E-06 0.8182821 0.5748168
vn -3.97371E-06 0.9392605 0.3432048
vn 0 0.9996253 -0.02737194
vn 0.719135 0.6945989 -0.01942374
vn 4.026829E-07 0.9734731 -0.2288011
vn 0.7836072 0.6046606 -0.1426365
vn 1.183628E-06 0.8593985 -0.5113064
vn 0.8277249 0.4831271 -0.2854114
vn 0.7501466 -0.5331568 -0.3911827
vn 7.997797E-07 -0.7869884 -0.6169678
vn -2.980502E-06 -0.4681778 -0.8836343
vn 0 0.991619 -0.1291966
vn -0.782333 0.6204755 -0.05445547
vn -0.8765943 -0.2208612 -0.4275543
vn -0.7757641 0.6287127 0.05394831
vn -0.803937 -0.4420017 -0.3978942
vn 2.674323E-06 -0.7348315 -0.6782497
vn -0.7441331 -0.5958087 -0.3021223
vn 3.65458E-06 -0.889329 -0.4572681
vn -0.8570182 -0.5152727 -0.003722918
vn -0.9395545 0.2931749 -0.1768782
vn 2.81407E-06 -0.9998528 -0.01716035
vn -0.89973 -0.3922163 0.1914482
vn -0.9316562 0.1991852 -0.3038782
vn -0.9381014 -0.2780097 0.2065824
vn 2.996821E-06 -0.9032001 0.4292195
vn 3.336273E-06 -0.8119209 0.5837675
vn -0.9245194 0.1310048 -0.3579128
vn 1.263285E-05 -0.9385372 0.3451781
vn -0.9971391 -0.03225454 0.06836133
vn -0.9304922 0.03134765 -0.3649678
vn -0.6798076 -0.6457728 0.3476192
vn 1.163935E-06 -0.9998763 0.01573114
vn -0.943405 -0.331562 0.007323167
vn 0 -0.9999353 -0.01137521
vn -0.9975618 -0.005039535 0.06960659
vn -0.9251146 -0.09696634 -0.3670974
vn -0.9887276 -0.04592979 0.142507
vn -0.9963332 0.02797995 0.080853
vn -0.928399 -0.2502497 -0.2746823
vn -0.9096776 0.3356909 0.2445371
vn -0.7090673 -0.6656852 -0.2325656
vn -0.9934747 -0.006376406 0.1138744
vn -0.9928272 0.01354383 0.118788
vn -0.944193 -0.3293351 -0.006172045
vn -0.9487237 0.3160772 -0.004314065
vn -0.9504998 0.3106306 0.00765082
vn -0.6156542 -0.6963572 -0.3688583
vn 2.873422E-06 -0.943555 -0.3312158
vn -0.6343299 -0.6592849 -0.4036942
vn 0 -0.8719915 -0.4895211
vn -0.9680196 -0.05771837 -0.2441446
vn -0.7418859 0.5619687 0.3657819
vn 0 0.9998605 0.01670139
vn -6.49225E-06 0.8948373 0.4463924
vn -9.9352E-06 0.8182821 0.5748168
vn 1.159682E-06 0.9999532 -0.009684715
vn -0.8398097 0.5142344 0.1740189
vn -3.97371E-06 0.9392605 0.3432048
vn -0.7191357 0.694598 -0.01942464
vn 0 0.9996253 -0.02737194
vn -0.7836018 0.604668 -0.1426353
vn 4.026829E-07 0.9734731 -0.2288011
vn -0.7501418 -0.5331565 -0.3911923
vn -0.8277217 0.4831326 -0.2854111
vn 1.183628E-06 0.8593985 -0.5113064
vn 7.997797E-07 -0.7869884 -0.6169678
vn -0.6284994 0.6916505 -0.3558204
vn 1.987003E-05 0.9503807 -0.311089
vn -0.6343397 0.6592771 -0.4036915
vn 7.781322E-06 0.8719934 -0.4895177
vn 1.031717E-05 0.9259701 -0.3775967
vn -0.5191716 0.7878928 -0.3311885
vn -2.286717E-06 0.9999824 0.005942349
vn -0.5299394 0.8480222 -0.004757699
vn -1.066346E-05 0.9217649 0.3877492
vn -0.540504 0.7789469 0.3179576
vn -1.103713E-05 0.7041333 0.7100679
vn -0.5493101 0.5931869 0.5885471
vn -1.376207E-05 0.3805868 0.9247451
vn -0.5551243 0.3199288 0.7677776
vn -8.947666E-06 0 1
vn -0.5571445 0 0.8304157
vn -1.421593E-05 -0.3805928 0.9247428
vn -0.5551222 -0.3199322 0.7677778
vn -1.468718E-05 -0.7041363 0.7100649
vn -0.5493155 -0.593183 0.5885459
vn -3.388207E-06 -0.9217674 0.3877432
vn -0.5405117 -0.7789431 0.317954
vn 1.470441E-06 -0.9999824 0.005942504
vn -0.5299267 -0.8480301 -0.004758719
vn 2.923009E-06 -0.9259722 -0.3775916
vn -0.5191625 -0.7879007 -0.3311839
vn -0.9459615 -0.1241006 -0.2995926
vn -0.9459661 0 -0.3242655
vn -0.9459626 0.1240935 -0.2995923
vn -0.9459688 0.2292799 -0.2292898
vn -0.9459707 0.2995724 -0.1240796
vn -0.9459717 0.3242494 1.188841E-05
vn -0.9459726 0.2995603 0.124094
vn -0.9459618 -0.2292988 -0.2292995
vn -0.9459698 -0.2995726 -0.1240863
vn -0.9459753 -0.3242389 1.423807E-05
vn -0.9459739 -0.2995559 0.1240953
vn -0.9459779 -0.229263 0.2292696
vn -0.8186192 -0.4061044 -0.4061301
vn -0.8186257 -0.5306033 -0.2197997
vn -0.8186221 -0.5743325 -1.75885E-05
vn -0.8186327 -0.5306021 0.2197768
vn -0.8186302 -0.4061039 0.4061085
vn -0.8186042 -0.2197872 -0.5306419
vn -0.8186059 0 -0.5743556
vn -0.8186182 0.2197817 -0.5306227
vn -0.8186204 0.4061064 -0.4061258
vn -0.8186169 0.5306149 -0.219805
vn -0.8186302 0.5743209 -1.110733E-05
vn -0.3279348 -0.6680132 -0.6679949
vn -0.2277649 -0.372632 -0.8995935
vn -0.22775 -0.8995988 -0.3726282
vn -0.327941 0 -0.9446982
vn -0.2277641 0.3726396 -0.8995906
vn -0.3279037 -0.9447111 -9.727918E-06
vn -0.3279264 0.6680139 -0.6679983
vn -0.2277329 -0.8996028 0.3726291
vn -0.2277506 0.8995987 -0.3726286
vn -0.3278954 -0.6680204 0.668007
vn -0.327914 0.9447075 -7.140465E-06
vn -0.2277393 -0.3725962 0.8996149
vn -0.8186486 0.5305832 0.2197634
vn -0.2277456 0.8996031 0.3726209
vn -0.8186455 -0.2197765 0.5305826
vn -0.3279155 0 0.944707
vn -0.9459733 0.2292714 0.2292796
vn -0.8186529 0.4060823 0.4060844
vn -0.3279244 0.6680229 0.6679904
vn -0.9459749 -0.1240865 0.2995566
vn -0.8186594 0 0.5742794
vn -0.2277485 0.3725985 0.8996116
vn -0.8186509 0.2197733 0.5305755
vn -0.9715916 -0.1042851 -0.2124486
vn -0.9459723 0.1240875 0.2995641
vn -0.9459802 0 0.3242245
vn -0.971591 0.1042843 -0.2124517
vn -0.9771464 4.337758E-07 -0.2125669
vn -0.9688553 -0.004706485 -0.2475827
vn -0.9660335 0.0803128 -0.2456197
vn -0.2277641 0.3726396 -0.8995906
vn 0.3279068 0 -0.9447101
vn -0.327941 0 -0.9446982
vn 0.2277524 0.3726407 -0.8995931
vn -0.3279264 0.6680139 -0.6679983
vn 0.3279192 0.6680152 -0.6680004
vn -0.2277506 0.8995987 -0.3726286
vn 0.2277445 0.8996002 -0.3726285
vn -0.327914 0.9447075 -7.140465E-06
vn 0.3279183 0.9447061 7.040173E-06
vn -0.2277456 0.8996031 0.3726209
vn 0.2277665 0.8995991 0.3726175
vn -0.3279244 0.6680229 0.6679904
vn 0.3279532 0.6680073 0.6679918
vn -0.2277485 0.3725985 0.8996116
vn 0.2277807 0.372595 0.8996048
vn -0.3279155 0 0.944707
vn 0.3279483 0 0.9446957
vn -0.2277393 -0.3725962 0.8996149
vn 0.2277766 -0.3725919 0.8996072
vn -0.3278954 -0.6680204 0.668007
vn 0.3279325 -0.6680025 0.6680067
vn -0.2277329 -0.8996028 0.3726291
vn 0.227753 -0.8995991 0.3726259
vn -0.3279037 -0.9447111 -9.727918E-06
vn 0.3279099 -0.944709 5.756512E-06
vn -0.22775 -0.8995988 -0.3726282
vn 0.2277452 -0.8995995 -0.3726296
vn -0.3279348 -0.6680132 -0.6679949
vn 0.327931 -0.6680118 -0.6679982
vn -0.2277649 -0.372632 -0.8995935
vn 0.2277544 -0.3726329 -0.8995959
vn -0.327941 0 -0.9446982
vn 0.3279068 0 -0.9447101
usemtl Mat_Tools
f 1/1/1 3/3/3 2/2/2 
f 1/1/1 4/4/4 3/3/3 
f 5/5/5 4/4/4 1/1/1 
f 6/6/6 3/3/3 4/4/4 
f 6/6/6 4/4/4 7/7/7 
f 8/8/8 6/6/6 7/7/7 
f 8/8/8 7/7/7 9/9/9 
f 10/10/10 8/8/8 9/9/9 
f 10/10/10 9/9/9 11/11/11 
f 12/12/12 10/10/10 11/11/11 
f 12/12/12 11/11/11 13/13/13 
f 14/14/14 12/12/12 13/13/13 
f 14/14/14 13/13/13 15/15/15 
f 16/16/16 14/14/14 15/15/15 
f 16/16/16 15/15/15 17/17/17 
f 18/18/18 16/16/16 17/17/17 
f 18/18/18 19/19/19 16/16/16 
f 18/18/18 20/20/20 19/19/19 
f 18/18/18 21/21/21 20/20/20 
f 19/19/19 20/20/20 22/22/22 
f 23/23/23 25/25/25 24/24/24 
f 23/23/23 24/24/24 26/26/26 
f 27/27/27 23/23/23 26/26/26 
f 28/28/28 26/26/26 24/24/24 
f 27/27/27 26/26/26 28/28/28 
f 29/29/29 27/27/27 28/28/28 
f 28/28/28 24/24/24 30/30/30 
f 29/29/29 28/28/28 31/31/31 
f 31/31/31 28/28/28 30/30/30 
f 32/32/32 29/29/29 31/31/31 
f 32/32/32 31/31/31 33/33/33 
f 33/33/33 31/31/31 30/30/30 
f 34/34/34 32/32/32 33/33/33 
f 35/35/35 33/33/33 30/30/30 
f 34/34/34 33/33/33 35/35/35 
f 35/35/35 30/30/30 36/36/36 
f 37/37/37 35/35/35 36/36/36 
f 38/38/38 34/34/34 35/35/35 
f 38/38/38 35/35/35 37/37/37 
f 37/37/37 36/36/36 39/39/39 
f 40/40/40 38/38/38 37/37/37 
f 41/41/41 37/37/37 39/39/39 
f 41/41/41 39/39/39 42/42/42 
f 40/40/40 37/37/37 43/43/43 
f 44/44/44 40/40/40 43/43/43 
f 37/37/37 45/45/45 43/43/43 
f 37/37/37 41/41/41 45/45/45 
f 46/46/46 41/41/41 42/42/42 
f 46/46/46 42/42/42 47/47/47 
f 44/44/44 43/43/43 48/48/48 
f 43/43/43 45/45/45 48/48/48 
f 44/44/44 48/48/48 49/49/49 
f 48/48/48 50/50/50 49/49/49 
f 45/45/45 50/50/50 48/48/48 
f 44/44/44 49/49/49 51/51/51 
f 41/41/41 52/52/52 45/45/45 
f 41/41/41 46/46/46 52/52/52 
f 45/45/45 52/52/52 50/50/50 
f 53/53/53 46/46/46 47/47/47 
f 53/53/53 47/47/47 54/54/54 
f 55/55/55 53/53/53 54/54/54 
f 55/55/55 54/54/54 56/56/56 
f 46/46/46 57/57/57 52/52/52 
f 46/46/46 53/53/53 57/57/57 
f 52/52/52 57/57/57 50/50/50 
f 53/53/53 58/58/58 57/57/57 
f 53/53/53 55/55/55 58/58/58 
f 57/57/57 58/58/58 50/50/50 
f 59/59/59 51/51/51 49/49/49 
f 59/59/59 60/60/60 51/51/51 
f 61/61/61 60/60/60 59/59/59 
f 61/61/61 62/62/62 60/60/60 
f 63/63/63 62/62/62 61/61/61 
f 64/64/64 55/55/55 56/56/56 
f 64/64/64 56/56/56 65/65/65 
f 63/63/63 61/61/61 66/66/66 
f 67/67/67 63/63/63 66/66/66 
f 67/67/67 66/66/66 68/68/68 
f 69/69/69 67/67/67 68/68/68 
f 69/69/69 68/68/68 70/70/70 
f 71/71/71 69/69/69 70/70/70 
f 71/71/71 70/70/70 72/72/72 
f 73/73/73 71/71/71 72/72/72 
f 73/73/73 72/72/72 74/74/74 
f 75/75/75 73/73/73 74/74/74 
f 75/75/75 74/74/74 76/76/76 
f 77/77/77 75/75/75 76/76/76 
f 77/77/77 76/76/76 78/78/78 
f 79/79/79 77/77/77 78/78/78 
f 79/79/79 78/78/78 80/80/80 
f 81/81/81 79/79/79 80/80/80 
f 81/81/81 80/80/80 82/82/82 
f 83/83/83 81/81/81 82/82/82 
f 83/83/83 82/82/82 84/84/84 
f 85/85/85 83/83/83 84/84/84 
f 85/85/85 84/84/84 86/86/86 
f 87/87/87 85/85/85 86/86/86 
f 87/87/87 86/86/86 88/88/88 
f 89/89/89 87/87/87 88/88/88 
f 89/89/89 88/88/88 90/90/90 
f 91/91/91 89/89/89 90/90/90 
f 78/78/78 76/76/76 92/92/92 
f 80/80/80 78/78/78 93/93/93 
f 78/78/78 92/92/92 93/93/93 
f 82/82/82 80/80/80 94/94/94 
f 80/80/80 93/93/93 94/94/94 
f 84/84/84 82/82/82 95/95/95 
f 82/82/82 94/94/94 95/95/95 
f 86/86/86 84/84/84 96/96/96 
f 84/84/84 95/95/95 96/96/96 
f 88/88/88 86/86/86 97/97/97 
f 86/86/86 96/96/96 97/97/97 
f 76/76/76 98/98/98 92/92/92 
f 76/76/76 74/74/74 98/98/98 
f 74/74/74 99/99/99 98/98/98 
f 74/74/74 72/72/72 99/99/99 
f 72/72/72 100/100/100 99/99/99 
f 72/72/72 70/70/70 100/100/100 
f 70/70/70 101/101/101 100/100/100 
f 70/70/70 68/68/68 101/101/101 
f 68/68/68 102/102/102 101/101/101 
f 68/68/68 66/66/66 102/102/102 
f 66/66/66 103/103/103 102/102/102 
f 66/66/66 61/61/61 103/103/103 
f 92/92/92 98/98/98 104/104/104 
f 98/98/98 99/99/99 105/105/105 
f 98/98/98 105/105/105 104/104/104 
f 99/99/99 100/100/100 106/106/106 
f 99/99/99 106/106/106 105/105/105 
f 100/100/100 101/101/101 107/107/107 
f 100/100/100 107/107/107 106/106/106 
f 101/101/101 102/102/102 108/108/108 
f 101/101/101 108/108/108 107/107/107 
f 102/102/102 103/103/103 109/109/109 
f 102/102/102 109/109/109 108/108/108 
f 92/92/92 104/104/104 110/110/110 
f 93/93/93 92/92/92 110/110/110 
f 93/93/93 110/110/110 111/111/111 
f 94/94/94 93/93/93 111/111/111 
f 94/94/94 111/111/111 112/112/112 
f 95/95/95 94/94/94 112/112/112 
f 95/95/95 112/112/112 113/113/113 
f 96/96/96 95/95/95 113/113/113 
f 96/96/96 113/113/113 114/114/114 
f 97/97/97 96/96/96 114/114/114 
f 110/110/110 104/104/104 115/115/115 
f 110/110/110 115/115/115 116/116/116 
f 111/111/111 110/110/110 116/116/116 
f 104/104/104 117/117/117 115/115/115 
f 111/111/111 116/116/116 118/118/118 
f 112/112/112 111/111/111 118/118/118 
f 104/104/104 105/105/105 117/117/117 
f 112/112/112 118/118/118 119/119/119 
f 113/113/113 112/112/112 119/119/119 
f 105/105/105 120/120/120 117/117/117 
f 113/113/113 119/119/119 121/121/121 
f 114/114/114 113/113/113 121/121/121 
f 105/105/105 106/106/106 120/120/120 
f 106/106/106 122/122/122 120/120/120 
f 106/106/106 107/107/107 122/122/122 
f 107/107/107 123/123/123 122/122/122 
f 107/107/107 108/108/108 123/123/123 
f 108/108/108 124/124/124 123/123/123 
f 108/108/108 109/109/109 124/124/124 
f 114/114/114 121/121/121 125/125/125 
f 109/109/109 126/126/126 124/124/124 
f 127/127/127 114/114/114 125/125/125 
f 97/97/97 114/114/114 127/127/127 
f 127/127/127 125/125/125 128/128/128 
f 109/109/109 129/129/129 126/126/126 
f 103/103/103 129/129/129 109/109/109 
f 129/129/129 130/130/130 126/126/126 
f 131/131/131 97/97/97 127/127/127 
f 88/88/88 97/97/97 131/131/131 
f 132/132/132 127/127/127 128/128/128 
f 131/131/131 127/127/127 132/132/132 
f 132/132/132 128/128/128 133/133/133 
f 103/103/103 134/134/134 129/129/129 
f 61/61/61 134/134/134 103/103/103 
f 129/129/129 135/135/135 130/130/130 
f 134/134/134 135/135/135 129/129/129 
f 135/135/135 136/136/136 130/130/130 
f 137/137/137 133/133/133 136/136/136 
f 137/137/137 132/132/132 133/133/133 
f 135/135/135 137/137/137 136/136/136 
f 138/138/138 131/131/131 132/132/132 
f 138/138/138 132/132/132 137/137/137 
f 139/139/139 137/137/137 135/135/135 
f 134/134/134 139/139/139 135/135/135 
f 139/139/139 138/138/138 137/137/137 
f 61/61/61 140/140/140 134/134/134 
f 140/140/140 139/139/139 134/134/134 
f 140/140/140 61/61/61 59/59/59 
f 141/141/141 131/131/131 138/138/138 
f 141/141/141 88/88/88 131/131/131 
f 142/142/142 138/138/138 139/139/139 
f 140/140/140 142/142/142 139/139/139 
f 142/142/142 141/141/141 138/138/138 
f 140/140/140 59/59/59 143/143/143 
f 142/142/142 140/140/140 143/143/143 
f 143/143/143 59/59/59 49/49/49 
f 142/142/142 143/143/143 144/144/144 
f 141/141/141 142/142/142 144/144/144 
f 144/144/144 143/143/143 49/49/49 
f 88/88/88 141/141/141 145/145/145 
f 141/141/141 144/144/144 145/145/145 
f 145/145/145 144/144/144 49/49/49 
f 88/88/88 145/145/145 90/90/90 
f 145/145/145 49/49/49 146/146/146 
f 90/90/90 145/145/145 146/146/146 
f 91/91/91 90/90/90 146/146/146 
f 50/50/50 146/146/146 49/49/49 
f 50/50/50 91/91/91 146/146/146 
f 50/50/50 147/147/147 91/91/91 
f 58/58/58 147/147/147 50/50/50 
f 58/58/58 148/148/148 147/147/147 
f 55/55/55 148/148/148 58/58/58 
f 55/55/55 149/149/149 148/148/148 
f 150/150/150 149/149/149 55/55/55 
f 150/150/150 55/55/55 64/64/64 
f 151/151/151 150/150/150 64/64/64 
f 151/151/151 64/64/64 152/152/152 
f 153/153/153 151/151/151 152/152/152 
f 152/152/152 64/64/64 65/65/65 
f 153/153/153 152/152/152 154/154/154 
f 154/154/154 152/152/152 65/65/65 
f 155/155/155 153/153/153 154/154/154 
f 156/156/156 154/154/154 65/65/65 
f 155/155/155 154/154/154 156/156/156 
f 156/156/156 65/65/65 157/157/157 
f 155/155/155 156/156/156 157/157/157 
f 155/155/155 157/157/157 158/158/158 
f 159/159/159 161/161/161 160/160/160 
f 159/159/159 162/162/162 161/161/161 
f 162/162/162 163/163/163 161/161/161 
f 164/164/164 162/162/162 159/159/159 
f 162/162/162 164/164/164 163/163/163 
f 164/164/164 159/159/159 165/165/165 
f 166/166/166 164/164/164 165/165/165 
f 164/164/164 166/166/166 163/163/163 
f 166/166/166 165/165/165 167/167/167 
f 166/166/166 168/168/168 163/163/163 
f 168/168/168 166/166/166 167/167/167 
f 168/168/168 169/169/169 163/163/163 
f 168/168/168 167/167/167 170/170/170 
f 168/168/168 171/171/171 169/169/169 
f 171/171/171 168/168/168 170/170/170 
f 171/171/171 172/172/172 169/169/169 
f 171/171/171 173/173/173 172/172/172 
f 171/171/171 170/170/170 174/174/174 
f 173/173/173 171/171/171 174/174/174 
f 173/173/173 174/174/174 175/175/175 
f 173/173/173 176/176/176 172/172/172 
f 173/173/173 175/175/175 177/177/177 
f 173/173/173 178/178/178 176/176/176 
f 178/178/178 179/179/179 176/176/176 
f 173/173/173 177/177/177 180/180/180 
f 178/178/178 173/173/173 180/180/180 
f 180/180/180 177/177/177 181/181/181 
f 180/180/180 181/181/181 182/182/182 
f 182/182/182 181/181/181 183/183/183 
f 178/178/178 184/184/184 179/179/179 
f 184/184/184 185/185/185 179/179/179 
f 178/178/178 180/180/180 186/186/186 
f 186/186/186 180/180/180 182/182/182 
f 184/184/184 178/178/178 186/186/186 
f 184/184/184 187/187/187 185/185/185 
f 187/187/187 188/188/188 185/185/185 
f 187/187/187 189/189/189 188/188/188 
f 189/189/189 190/190/190 188/188/188 
f 184/184/184 186/186/186 191/191/191 
f 187/187/187 184/184/184 191/191/191 
f 191/191/191 186/186/186 182/182/182 
f 187/187/187 191/191/191 192/192/192 
f 189/189/189 187/187/187 192/192/192 
f 192/192/192 191/191/191 182/182/182 
f 182/182/182 183/183/183 193/193/193 
f 182/182/182 193/193/193 194/194/194 
f 195/195/195 182/182/182 194/194/194 
f 192/192/192 182/182/182 195/195/195 
f 183/183/183 196/196/196 193/193/193 
f 183/183/183 197/197/197 196/196/196 
f 197/197/197 198/198/198 196/196/196 
f 197/197/197 199/199/199 198/198/198 
f 196/196/196 200/200/200 193/193/193 
f 200/200/200 194/194/194 193/193/193 
f 198/198/198 200/200/200 196/196/196 
f 201/201/201 192/192/192 195/195/195 
f 189/189/189 192/192/192 201/201/201 
f 202/202/202 201/201/201 195/195/195 
f 202/202/202 195/195/195 194/194/194 
f 202/202/202 203/203/203 201/201/201 
f 203/203/203 189/189/189 201/201/201 
f 203/203/203 204/204/204 189/189/189 
f 202/202/202 194/194/194 205/205/205 
f 206/206/206 189/189/189 204/204/204 
f 206/206/206 204/204/204 207/207/207 
f 189/189/189 206/206/206 190/190/190 
f 208/208/208 206/206/206 207/207/207 
f 206/206/206 208/208/208 190/190/190 
f 208/208/208 207/207/207 209/209/209 
f 208/208/208 210/210/210 190/190/190 
f 210/210/210 208/208/208 209/209/209 
f 210/210/210 209/209/209 211/211/211 
f 210/210/210 212/212/212 190/190/190 
f 213/213/213 210/210/210 211/211/211 
f 210/210/210 213/213/213 212/212/212 
f 213/213/213 211/211/211 214/214/214 
f 214/214/214 212/212/212 213/213/213 
f 214/214/214 215/215/215 212/212/212 
f 216/216/216 205/205/205 194/194/194 
f 216/216/216 217/217/217 205/205/205 
f 218/218/218 217/217/217 216/216/216 
f 218/218/218 219/219/219 217/217/217 
f 218/218/218 220/220/220 219/219/219 
f 218/218/218 221/221/221 220/220/220 
f 221/221/221 222/222/222 220/220/220 
f 221/221/221 223/223/223 222/222/222 
f 223/223/223 224/224/224 222/222/222 
f 223/223/223 225/225/225 224/224/224 
f 225/225/225 226/226/226 224/224/224 
f 225/225/225 227/227/227 226/226/226 
f 227/227/227 228/228/228 226/226/226 
f 227/227/227 229/229/229 228/228/228 
f 229/229/229 230/230/230 228/228/228 
f 229/229/229 231/231/231 230/230/230 
f 231/231/231 232/232/232 230/230/230 
f 231/231/231 233/233/233 232/232/232 
f 233/233/233 234/234/234 232/232/232 
f 233/233/233 235/235/235 234/234/234 
f 235/235/235 236/236/236 234/234/234 
f 235/235/235 237/237/237 236/236/236 
f 237/237/237 238/238/238 236/236/236 
f 237/237/237 239/239/239 238/238/238 
f 239/239/239 240/240/240 238/238/238 
f 239/239/239 241/241/241 240/240/240 
f 241/241/241 199/199/199 240/240/240 
f 241/241/241 198/198/198 199/199/199 
f 231/231/231 229/229/229 242/242/242 
f 233/233/233 231/231/231 243/243/243 
f 231/231/231 242/242/242 243/243/243 
f 235/235/235 233/233/233 244/244/244 
f 233/233/233 243/243/243 244/244/244 
f 237/237/237 235/235/235 245/245/245 
f 235/235/235 244/244/244 245/245/245 
f 239/239/239 237/237/237 246/246/246 
f 237/237/237 245/245/245 246/246/246 
f 241/241/241 239/239/239 247/247/247 
f 239/239/239 246/246/246 247/247/247 
f 198/198/198 241/241/241 248/248/248 
f 241/241/241 247/247/247 248/248/248 
f 229/229/229 249/249/249 242/242/242 
f 229/229/229 227/227/227 249/249/249 
f 227/227/227 250/250/250 249/249/249 
f 227/227/227 225/225/225 250/250/250 
f 225/225/225 251/251/251 250/250/250 
f 225/225/225 223/223/223 251/251/251 
f 223/223/223 252/252/252 251/251/251 
f 223/223/223 221/221/221 252/252/252 
f 221/221/221 253/253/253 252/252/252 
f 221/221/221 218/218/218 253/253/253 
f 242/242/242 249/249/249 254/254/254 
f 249/249/249 250/250/250 255/255/255 
f 249/249/249 255/255/255 254/254/254 
f 250/250/250 251/251/251 256/256/256 
f 250/250/250 256/256/256 255/255/255 
f 251/251/251 252/252/252 257/257/257 
f 251/251/251 257/257/257 256/256/256 
f 252/252/252 253/253/253 258/258/258 
f 252/252/252 258/258/258 257/257/257 
f 242/242/242 254/254/254 259/259/259 
f 243/243/243 242/242/242 259/259/259 
f 243/243/243 259/259/259 260/260/260 
f 244/244/244 243/243/243 260/260/260 
f 244/244/244 260/260/260 261/261/261 
f 245/245/245 244/244/244 261/261/261 
f 245/245/245 261/261/261 262/262/262 
f 246/246/246 245/245/245 262/262/262 
f 246/246/246 262/262/262 263/263/263 
f 247/247/247 246/246/246 263/263/263 
f 247/247/247 263/263/263 264/264/264 
f 248/248/248 247/247/247 264/264/264 
f 259/259/259 254/254/254 265/265/265 
f 259/259/259 265/265/265 266/266/266 
f 260/260/260 259/259/259 266/266/266 
f 254/254/254 267/267/267 265/265/265 
f 260/260/260 266/266/266 268/268/268 
f 261/261/261 260/260/260 268/268/268 
f 254/254/254 255/255/255 267/267/267 
f 261/261/261 268/268/268 269/269/269 
f 262/262/262 261/261/261 269/269/269 
f 255/255/255 270/270/270 267/267/267 
f 262/262/262 269/269/269 271/271/271 
f 255/255/255 256/256/256 270/270/270 
f 263/263/263 262/262/262 271/271/271 
f 256/256/256 272/272/272 270/270/270 
f 263/263/263 271/271/271 273/273/273 
f 256/256/256 257/257/257 272/272/272 
f 257/257/257 274/274/274 272/272/272 
f 264/264/264 263/263/263 273/273/273 
f 257/257/257 258/258/258 274/274/274 
f 264/264/264 273/273/273 275/275/275 
f 258/258/258 276/276/276 274/274/274 
f 277/277/277 264/264/264 275/275/275 
f 248/248/248 264/264/264 277/277/277 
f 277/277/277 275/275/275 278/278/278 
f 258/258/258 279/279/279 276/276/276 
f 253/253/253 279/279/279 258/258/258 
f 279/279/279 280/280/280 276/276/276 
f 281/281/281 248/248/248 277/277/277 
f 198/198/198 248/248/248 281/281/281 
f 282/282/282 277/277/277 278/278/278 
f 281/281/281 277/277/277 282/282/282 
f 282/282/282 278/278/278 283/283/283 
f 253/253/253 284/284/284 279/279/279 
f 218/218/218 284/284/284 253/253/253 
f 279/279/279 285/285/285 280/280/280 
f 284/284/284 285/285/285 279/279/279 
f 285/285/285 286/286/286 280/280/280 
f 287/287/287 283/283/283 286/286/286 
f 287/287/287 282/282/282 283/283/283 
f 285/285/285 287/287/287 286/286/286 
f 288/288/288 198/198/198 281/281/281 
f 198/198/198 288/288/288 200/200/200 
f 289/289/289 281/281/281 282/282/282 
f 289/289/289 282/282/282 287/287/287 
f 288/288/288 281/281/281 289/289/289 
f 290/290/290 287/287/287 285/285/285 
f 284/284/284 290/290/290 285/285/285 
f 290/290/290 289/289/289 287/287/287 
f 218/218/218 291/291/291 284/284/284 
f 291/291/291 290/290/290 284/284/284 
f 291/291/291 218/218/218 216/216/216 
f 292/292/292 289/289/289 290/290/290 
f 292/292/292 288/288/288 289/289/289 
f 291/291/291 292/292/292 290/290/290 
f 288/288/288 293/293/293 200/200/200 
f 288/288/288 292/292/292 293/293/293 
f 200/200/200 293/293/293 194/194/194 
f 294/294/294 216/216/216 194/194/194 
f 291/291/291 216/216/216 294/294/294 
f 292/292/292 291/291/291 294/294/294 
f 293/293/293 294/294/294 194/194/194 
f 292/292/292 294/294/294 293/293/293 
f 295/295/295 297/297/297 296/296/296 
f 295/295/295 296/296/296 298/298/298 
f 299/299/299 295/295/295 298/298/298 
f 299/299/299 298/298/298 300/300/300 
f 301/301/301 299/299/299 300/300/300 
f 301/301/301 300/300/300 302/302/302 
f 303/303/303 301/301/301 302/302/302 
f 303/303/303 302/302/302 304/304/304 
f 305/305/305 303/303/303 304/304/304 
f 305/305/305 304/304/304 306/306/306 
f 307/307/307 305/305/305 306/306/306 
f 307/307/307 306/306/306 308/308/308 
f 309/309/309 307/307/307 308/308/308 
f 309/309/309 308/308/308 310/310/310 
f 311/311/311 309/309/309 310/310/310 
f 311/311/311 310/310/310 312/312/312 
f 313/313/313 311/311/311 312/312/312 
f 313/313/313 312/312/312 314/314/314 
f 315/315/315 313/313/313 314/314/314 
f 315/315/315 314/314/314 316/316/316 
f 317/317/317 315/315/315 316/316/316 
f 317/317/317 316/316/316 318/318/318 
f 319/319/319 317/317/317 318/318/318 
f 319/319/319 318/318/318 320/320/320 
f 321/321/321 319/319/319 320/320/320 
f 321/321/321 320/320/320 322/322/322 
f 323/323/323 321/321/321 322/322/322 
f 323/323/323 322/322/322 324/324/324 
f 325/325/325 323/323/323 324/324/324 
f 325/325/325 324/324/324 326/326/326 
f 327/327/327 325/325/325 326/326/326 
f 327/327/327 326/326/326 328/328/328 
