# exported by StudySceneExporter from mesh 'Light_Fixture_Cord_low'
mtllib materials.mtl
v 0.01617435 0.1510982 -0.07289493
v 0.0157452 0.1906261 -0.07137447
v 0.01589981 0.1906889 -0.06946201
v 0.0160191 0.1518523 -0.07129162
v 0.01680775 0.1301924 -0.06587421
v 0.01795597 0.1907668 -0.0670834
v 0.01632984 0.1317281 -0.06476025
v 0.01774223 0.1211494 -0.05383106
v 0.0176688 0.1529106 -0.06889782
v 0.01985767 0.1907832 -0.06662761
v 0.01695877 0.1227647 -0.05304302
v 0.01899849 0.115919 -0.0428754
v 0.01750515 0.1341414 -0.06307758
v 0.01947399 0.1532155 -0.0682143
v 0.01970261 0.1907207 -0.06857357
v 0.01798725 0.1170827 -0.04166203
v 0.0207019 0.1067732 -0.03316677
v 0.01763134 0.125605 -0.05174908
v 0.01962887 0.1524614 -0.07000209
v 0.01764618 0.1906419 -0.0709325
v 0.01915878 0.1350194 -0.06251011
v 0.01947819 0.1074269 -0.03178227
v 0.02228702 0.09180298 -0.02673496
v 0.01797882 0.1514027 -0.072336
v 0.0157452 0.1906261 -0.07137447
v 0.01617435 0.1510982 -0.07289493
v 0.01824444 0.1194093 -0.0394788
v 0.01963634 0.1334837 -0.06362431
v 0.01846058 0.1310704 -0.06530598
v 0.01680775 0.1301924 -0.06587421
v 0.01908787 0.1268297 -0.05126423
v 0.02084568 0.09220077 -0.02547603
v 0.0228207 0.07447845 -0.0208794
v 0.01919788 0.1223741 -0.0533707
v 0.01774223 0.1211494 -0.05383106
v 0.01987102 0.1252144 -0.05209156
v 0.01931904 0.1089201 -0.02897762
v 0.01951336 0.1205724 -0.03850712
v 0.02119183 0.07483749 -0.01987514
v 0.02135345 0.05499557 -0.01479107
v 0.02026653 0.1170819 -0.04194073
v 0.01899849 0.115919 -0.0428754
v 0.02052437 0.1194087 -0.03975841
v 0.02021282 0.09313965 -0.02250599
v 0.02038418 0.1097603 -0.0275526
v 0.01960956 0.05550339 -0.01408649
v 0.01690029 0.03580658 -0.01092647
v 0.02176609 0.1076129 -0.0317516
v 0.0207019 0.1067732 -0.03316677
v 0.02160767 0.1091067 -0.02893894
v 0.02007023 0.07550857 -0.01696018
v 0.021022 0.09368164 -0.02079678
v 0.01512707 0.03652252 -0.01054562
v 0.01003044 0.01815475 -0.008959388
v 0.02309517 0.09234451 -0.02503628
v 0.02228702 0.09180298 -0.02673496
v 0.02246311 0.093284 -0.02203037
v 0.01804195 0.05618377 -0.01142368
v 0.02057819 0.07582138 -0.01505733
v 0.008297196 0.01904861 -0.008875465
v 0.002528152 0.00276474 -0.008647346
v 0.0233276 0.07479095 -0.01896381
v 0.0228207 0.07447845 -0.0208794
v 0.02220684 0.07546265 -0.01604221
v 0.01319813 0.03736557 -0.008193855
v 0.01821903 0.05635712 -0.009466514
v 0.0008824539 0.003812103 -0.008810997
v -0.005031853 -0.009654541 -0.01025196
v 0.0215295 0.05516861 -0.01284443
v 0.02135345 0.05499557 -0.01479107
v 0.01996277 0.05584946 -0.01017109
v 0.00606945 0.02007568 -0.006877937
v 0.0130447 0.03749313 -0.006213417
v -0.006509056 -0.00844635 -0.01066685
v -0.01067425 -0.0185173 -0.01364994
v 0.01674828 0.03593399 -0.008928642
v 0.01690029 0.03580658 -0.01092647
v 0.01481964 0.0367775 -0.006575508
v -0.00157505 0.00500122 -0.007213554
v 0.005578499 0.0202092 -0.004976082
v -0.01189011 -0.01709869 -0.01421383
v -0.01448273 -0.02433456 -0.01872372
v 0.009538612 0.01828842 -0.007052498
v 0.01003044 0.01815475 -0.008959388
v 0.007307854 0.01931564 -0.005086097
v -0.009169693 -0.007152252 -0.009533271
v -0.002383842 0.005143127 -0.005457649
v -0.01541302 -0.02272797 -0.01933773
v -0.01694359 -0.02852386 -0.02516338
v 0.001715393 0.002906799 -0.006881676
v 0.002528152 0.00276474 -0.008647346
v -0.0007336044 0.004096069 -0.005301399
v -0.0146809 -0.01571381 -0.01360989
v -0.01035667 -0.007066193 -0.007984886
v -0.01760391 -0.02683258 -0.02589039
v -0.01845592 -0.03248596 -0.03262112
v -0.006213112 -0.009568329 -0.008704643
v -0.005031853 -0.009654541 -0.01025196
v -0.008889923 -0.008274231 -0.007578392
v -0.01816807 -0.02117203 -0.01928516
v -0.01625282 -0.01574768 -0.0124445
v -0.01883926 -0.03083481 -0.0336002
v -0.01938423 -0.03767838 -0.04082981
v -0.01224461 -0.01855087 -0.01248699
v -0.01067425 -0.0185173 -0.01364994
v -0.01504356 -0.01716614 -0.01187778
v -0.02019054 -0.02506912 -0.02636883
v -0.01999203 -0.02122314 -0.01861729
v -0.01946976 -0.03616287 -0.04206714
v -0.01989311 -0.04489029 -0.04936245
v -0.01630669 -0.02438507 -0.01805828
v -0.01448273 -0.02433456 -0.01872372
v -0.01906109 -0.02282944 -0.01800472
v -0.02115936 -0.02893326 -0.03464222
v -0.02211655 -0.02499741 -0.0261211
v -0.01966789 -0.04354568 -0.05077053
v -0.020205 -0.05370132 -0.05780727
v -0.01886906 -0.02845154 -0.02491733
v -0.01694359 -0.02852386 -0.02516338
v -0.02145115 -0.02668838 -0.02540035
v -0.02144081 -0.03422958 -0.04363781
v -0.02310326 -0.02868317 -0.03470135
v -0.01967411 -0.05257797 -0.05932667
v -0.02032589 -0.06356888 -0.06516293
v -0.02039318 -0.03223541 -0.03268383
v -0.01845592 -0.03248596 -0.03262112
v -0.02271214 -0.03033417 -0.03373158
v -0.02122078 -0.04165573 -0.05280163
v -0.0233276 -0.0338121 -0.04396946
v -0.01949589 -0.06274033 -0.0667332
v -0.02051113 -0.07398483 -0.07053699
v -0.02126953 -0.03726059 -0.04116283
v -0.01938423 -0.03767838 -0.04082981
v -0.02324127 -0.03532761 -0.04273594
v -0.02076595 -0.05084274 -0.06176952
v -0.02299847 -0.04111038 -0.0534251
v -0.01941032 -0.07351486 -0.07208423
v -0.02081997 -0.0846553 -0.07373142
v -0.02166969 -0.04434494 -0.04998073
v -0.01989311 -0.04489029 -0.04936245
v -0.02322094 -0.04245498 -0.05201458
v -0.02008865 -0.06133163 -0.06951451
v -0.02239044 -0.05023086 -0.06269214
v -0.01947624 -0.08451126 -0.07514545
v -0.02120937 -0.09537979 -0.07488704
v -0.02182724 -0.05308975 -0.05872333
v -0.020205 -0.05370132 -0.05780727
v -0.02292087 -0.05135421 -0.0611636
v -0.01950321 -0.07263076 -0.07512516
v -0.02151237 -0.06075149 -0.07072414
v -0.01965843 -0.09547836 -0.07607494
v -0.02163734 -0.1059413 -0.07418598
v -0.0217493 -0.06298904 -0.06637257
v -0.02032589 -0.06356888 -0.06516293
v -0.02234203 -0.06158005 -0.06915341
v -0.01906494 -0.08421554 -0.07827289
v -0.02069748 -0.07221634 -0.07661823
v -0.01991871 -0.106179 -0.07508953
v -0.02206257 -0.1161024 -0.0713612
v -0.0217046 -0.07357101 -0.07203037
v -0.02051113 -0.07398483 -0.07053699
v -0.02179802 -0.07268631 -0.07507053
v -0.0187574 -0.09573989 -0.07910106
v -0.01999809 -0.08406357 -0.07998577
v -0.02021893 -0.1163701 -0.0719498
v -0.02244869 -0.1256404 -0.06645077
v -0.02175239 -0.08450393 -0.07544399
v -0.02081997 -0.0846553 -0.07373142
v -0.02134167 -0.08420761 -0.07857098
v -0.01855274 -0.1069081 -0.07785366
v -0.01940811 -0.09590255 -0.08093891
v -0.0205254 -0.1258351 -0.06674305
v -0.02271828 -0.1344017 -0.06031818
v -0.02185932 -0.09554275 -0.07672458
v -0.02120937 -0.09537979 -0.07488704
v -0.02095898 -0.09580368 -0.0797504
v -0.01842239 -0.1174391 -0.07429622
v -0.0189061 -0.1073991 -0.07971416
v -0.02076042 -0.1344362 -0.06035519
v -0.02269054 -0.1422417 -0.05370762
v -0.02199017 -0.106433 -0.07604618
v -0.02163734 -0.1059413 -0.07418598
v -0.02062481 -0.1071611 -0.07881016
v -0.01834286 -0.1270873 -0.06860431
v -0.01847038 -0.1182399 -0.07605389
v -0.0207452 -0.1420482 -0.05354267
v -0.02266235 -0.1490163 -0.04599201
v -0.02210991 -0.1169035 -0.07312039
v -0.02206257 -0.1161024 -0.0713612
v -0.02031422 -0.1179716 -0.07546657
v -0.01824825 -0.1357112 -0.06176082
v -0.01808426 -0.1281441 -0.07016666
v -0.02078381 -0.148546 -0.04570522
v -0.02266746 -0.1546303 -0.03727833
v -0.02218952 -0.1266975 -0.06802707
v -0.02244869 -0.1256404 -0.06645077
v -0.02000771 -0.1279488 -0.06987865
v -0.01795776 -0.1431978 -0.05450924
v -0.01769371 -0.1369514 -0.06313152
v -0.02089115 -0.153857 -0.0369566
v -0.02220173 -0.1591803 -0.02857365
v -0.0221637 -0.1356419 -0.06169315
v -0.02271828 -0.1344017 -0.06031818
v -0.01965912 -0.1369164 -0.06308597
v -0.01779442 -0.1494337 -0.0462347
v -0.01711994 -0.1445412 -0.05563854
v -0.02057491 -0.1581068 -0.02826542
v -0.02127251 -0.1628627 -0.02060841
v -0.02185669 -0.1435854 -0.05484135
v -0.02269054 -0.1422417 -0.05370762
v -0.01907047 -0.1447347 -0.05579593
v -0.01776398 -0.1543434 -0.0372337
v -0.01668343 -0.1507921 -0.04705486
v -0.0198748 -0.1615127 -0.02035213
v -0.01983456 -0.1658996 -0.01352253
v -0.02155399 -0.1503746 -0.04682339
v -0.02266235 -0.1490163 -0.04599201
v -0.01856247 -0.151262 -0.047318
v -0.01738991 -0.1580937 -0.0284734
v -0.01641331 -0.1556035 -0.03784344
v -0.01870872 -0.1643126 -0.01332294
v -0.01770851 -0.1684596 -0.007966804
v -0.02131367 -0.1558903 -0.03789242
v -0.02266746 -0.1546303 -0.03727833
v -0.0181839 -0.1563765 -0.0381406
v -0.01675571 -0.1609387 -0.0206461
v -0.01583015 -0.1591544 -0.02899601
v -0.0168697 -0.166707 -0.007728843
v -0.01499622 -0.1706574 -0.00400898
v -0.02062584 -0.1602406 -0.02909382
v -0.02220173 -0.1591803 -0.02857365
v -0.01744263 -0.1602275 -0.02930164
v -0.01582291 -0.1631282 -0.01387684
v -0.01504173 -0.1617151 -0.02119694
v -0.01439774 -0.1688414 -0.003591042
v -0.01196213 -0.1726889 -0.0009764481
v -0.01955372 -0.1636388 -0.02115856
v -0.02127251 -0.1628627 -0.02060841
v -0.01643921 -0.1630649 -0.02145321
v -0.01435657 -0.1649284 -0.008518257
v -0.01406322 -0.1635313 -0.01463062
v -0.01156643 -0.170896 -0.000308876
v -0.008717117 -0.1748413 0.001951561
v -0.01807464 -0.1663026 -0.01427593
v -0.01983456 -0.1658996 -0.01352253
v -0.01518944 -0.1651184 -0.01483036
v -0.0122406 -0.1666093 -0.00431385
v -0.01268303 -0.164903 -0.009546394
v -0.00853447 -0.1731116 0.002842979
v -0.005235977 -0.1774632 0.005644264
v -0.01603306 -0.1684338 -0.008994483
v -0.01770851 -0.1684596 -0.007966804
v -0.01352116 -0.1666556 -0.009784278
v -0.009623146 -0.1683977 -0.0006711197
v -0.01068573 -0.1661937 -0.005455131
v -0.005315933 -0.1757933 0.006660423
v -0.001521606 -0.1805508 0.01049816
v -0.01343269 -0.1702414 -0.005149727
v -0.01499622 -0.1706574 -0.00400898
v -0.01128139 -0.1680096 -0.005873146
v -0.006746101 -0.1704897 0.002985115
v -0.008098488 -0.1676924 -0.001701698
v -0.001916695 -0.1789381 0.01153255
v 0.002118645 -0.1837431 0.01644512
v -0.01043182 -0.1719835 -0.002006569
v -0.01196213 -0.1726889 -0.0009764481
v -0.008501777 -0.1694853 -0.002369423
v -0.003799019 -0.1730719 0.007237663
v -0.005168228 -0.1695973 0.002235374
v 0.001393929 -0.1822049 0.01740902
v 0.005538368 -0.1866618 0.02340359
v -0.007136955 -0.173949 0.001202354
v -0.008717117 -0.1748413 0.001951561
v -0.005362663 -0.1713271 0.00134388
v -0.0008039856 -0.1760939 0.01237484
v -0.002208786 -0.1720204 0.006798057
v 0.004495315 -0.1852338 0.02422481
v 0.008843422 -0.1889175 0.03123058
v -0.003645782 -0.1764117 0.00520504
v -0.005235977 -0.1774632 0.005644264
v -0.002132072 -0.1736905 0.00578167
v 0.002010613 -0.1792426 0.01835102
v 0.0007035065 -0.1748625 0.01218227
v 0.007504615 -0.1876552 0.0318858
v 0.01200508 -0.1902837 0.03962498
v -1.373291E-05 -0.1793195 0.01030598
v -0.001521606 -0.1805508 0.01049816
v 0.001098747 -0.1764754 0.01114765
v 0.004557342 -0.1821904 0.02510403
v 0.003350296 -0.1778184 0.01832897
v 0.01042973 -0.1892444 0.04013988
v 0.01477718 -0.1907832 0.04817516
v 0.003458977 -0.1823189 0.01642338
v 0.002118645 -0.1837431 0.01644512
v 0.004074593 -0.1793567 0.01736507
v 0.006982078 -0.1846147 0.03260097
v 0.005661659 -0.1805753 0.02516155
v 0.01302475 -0.1900094 0.04857166
v 0.01707489 -0.1904527 0.0564677
v 0.006643677 -0.1850467 0.02346157
v 0.005538368 -0.1866618 0.02340359
v 0.006706009 -0.1820036 0.02434025
v 0.009354095 -0.1863139 0.04067959
v 0.007797928 -0.1828366 0.03266064
v 0.01520058 -0.1899759 0.05676212
v 0.01881741 -0.1893149 0.0640984
v 0.009658966 -0.1871394 0.03129047
v 0.008843422 -0.1889175 0.03123058
v 0.009136963 -0.1840991 0.03200543
v 0.01144279 -0.1872871 0.04892277
v 0.00985382 -0.1844226 0.04070423
v 0.01687981 -0.1891579 0.06431767
v 0.01996952 -0.1873222 0.07066112
v 0.01250477 -0.1883925 0.03964977
v 0.01200508 -0.1902837 0.03962498
v 0.01142906 -0.1854621 0.04018917
v 0.01315952 -0.1875566 0.05689403
v 0.01161323 -0.1853388 0.04887722
v 0.01803478 -0.1874802 0.07090344
v 0.02062435 -0.1843265 0.07574398
v 0.01494762 -0.1888349 0.04812985
v 0.01477718 -0.1907832 0.04817516
v 0.01336559 -0.1861129 0.04848072
v 0.01443668 -0.1871463 0.06417385
v 0.01299271 -0.1856142 0.05673153
v 0.01875835 -0.1846921 0.0762035
v 0.02090763 -0.1803897 0.07884312
v 0.01690811 -0.1885104 0.05630543
v 0.01707489 -0.1904527 0.0564677
v 0.01486698 -0.1860913 0.05643703
v 0.01526463 -0.1860115 0.07045032
v 0.01393116 -0.1852917 0.06381039
v 0.01916302 -0.1806483 0.07968929
v 0.02096928 -0.1757351 0.07979099
v 0.01938534 -0.1757351 0.08093891
v 0.01831188 -0.1874603 0.06373524
v 0.01881741 -0.1893149 0.0640984
v 0.0158688 -0.1854489 0.06359112
v 0.01575699 -0.183912 0.07555591
v 0.01603443 -0.1804843 0.07921909
v 0.01621735 -0.1757351 0.08093891
v 0.01442913 -0.184385 0.06975506
v 0.01913414 -0.1856956 0.06996578
v 0.01996952 -0.1873222 0.07066112
v 0.01636394 -0.1842271 0.0695129
v 0.01462162 -0.1827665 0.07444897
v 0.01465053 -0.1800618 0.07790249
v 0.01463337 -0.1757351 0.07979099
v 0.01648773 -0.1824009 0.07398937
v 0.01948906 -0.1831809 0.07463695
v 0.02062435 -0.1843265 0.07574398
v 0.0163953 -0.1798031 0.07705631
v 0.01621735 -0.1757351 0.07864292
v 0.01952381 -0.1799671 0.07752667
v 0.02090763 -0.1803897 0.07884312
v 0.01938534 -0.1757351 0.07864292
v 0.02096928 -0.1757351 0.07979099
vt 0.9749056 0.2759915
vt 0.9759157 0.2354141
vt 0.9739279 0.2352288
vt 0.9732175 0.2753503
vt 0.9746825 0.2971523
vt 0.9706876 0.2349821
vt 0.972886 0.2964136
vt 0.9750952 0.3115833
vt 0.9701838 0.2744571
vt 0.9686723 0.2349009
vt 0.9730636 0.3112277
vt 0.9747692 0.3242756
vt 0.9698914 0.2952226
vt 0.9681724 0.2741677
vt 0.9666619 0.2350242
vt 0.9727721 0.3244096
vt 0.9747227 0.339125
vt 0.969762 0.3106398
vt 0.9662784 0.2747354
vt 0.9634215 0.2351645
vt 0.9678456 0.294756
vt 0.9726998 0.3392296
vt 0.9747226 0.3568212
vt 0.9632683 0.2754949
vt 0.9613862 0.2351702
vt 0.9612899 0.2756853
vt 0.9695922 0.3247412
vt 0.965955 0.2954534
vt 0.9629188 0.2964476
vt 0.9609275 0.2967494
vt 0.9677325 0.3103718
vt 0.9726828 0.3568099
vt 0.9745187 0.3760563
vt 0.9623384 0.3110208
vt 0.960296 0.3112339
vt 0.965669 0.3105564
vt 0.9694659 0.3395101
vt 0.9676165 0.3248847
vt 0.972487 0.3760384
vt 0.9741425 0.3974283
vt 0.9624827 0.3241122
vt 0.9604843 0.3239178
vt 0.9656566 0.3245742
vt 0.9693683 0.3569368
vt 0.967481 0.3396302
vt 0.9721128 0.3973392
vt 0.9738858 0.418373
vt 0.9623161 0.3390046
vt 0.9603331 0.3387288
vt 0.9655003 0.339439
vt 0.9691479 0.3762734
vt 0.9673076 0.3570178
vt 0.971857 0.4182368
vt 0.9735876 0.4382098
vt 0.9618971 0.356654
vt 0.9598596 0.3564389
vt 0.96527 0.3569338
vt 0.9688122 0.3975115
vt 0.9670666 0.3764758
vt 0.9715573 0.4380529
vt 0.9733505 0.4560661
vt 0.9617 0.376009
vt 0.9596274 0.3756846
vt 0.9650355 0.376386
vt 0.9685554 0.4182872
vt 0.9667709 0.3977274
vt 0.9713144 0.4559038
vt 0.9731702 0.4714161
vt 0.9614536 0.3973784
vt 0.9594358 0.3970516
vt 0.9647474 0.397699
vt 0.9682564 0.438056
vt 0.9664785 0.4184292
vt 0.9711434 0.4712276
vt 0.97312 0.4831143
vt 0.9611505 0.41825
vt 0.959071 0.4179892
vt 0.964445 0.4184487
vt 0.968006 0.4558838
vt 0.966206 0.4381654
vt 0.9711015 0.4828716
vt 0.9731523 0.492228
vt 0.9608861 0.4380476
vt 0.9588373 0.4378238
vt 0.9641709 0.4381987
vt 0.9678391 0.4712031
vt 0.9659802 0.4559762
vt 0.9711167 0.4920278
vt 0.9732013 0.5008175
vt 0.9606374 0.4558783
vt 0.9586158 0.455669
vt 0.9639278 0.456005
vt 0.967784 0.4828345
vt 0.9658269 0.4713174
vt 0.9711558 0.5007399
vt 0.9732145 0.5100554
vt 0.9604997 0.4712277
vt 0.9584921 0.4709921
vt 0.9638073 0.4713705
vt 0.9678127 0.4920386
vt 0.9657686 0.4829699
vt 0.9711812 0.5101249
vt 0.9732434 0.5206339
vt 0.9604427 0.4829572
vt 0.958444 0.4826826
vt 0.9637496 0.4830678
vt 0.9678516 0.500851
vt 0.96579 0.4921778
vt 0.9712101 0.5207571
vt 0.9733089 0.5327051
vt 0.9604433 0.4921436
vt 0.958445 0.4918813
vt 0.9637399 0.4922559
vt 0.9678951 0.5103418
vt 0.9658224 0.5009718
vt 0.9712664 0.5328174
vt 0.9732935 0.5458306
vt 0.9604842 0.5007647
vt 0.9584688 0.5005383
vt 0.9637816 0.5009493
vt 0.967921 0.520984
vt 0.9658579 0.5104292
vt 0.971251 0.5459459
vt 0.9732266 0.5591246
vt 0.9605435 0.5099803
vt 0.9585107 0.5097848
vt 0.9638355 0.5102793
vt 0.9679495 0.5330215
vt 0.9658845 0.5210359
vt 0.9711915 0.5592432
vt 0.9731926 0.5718784
vt 0.960577 0.5205126
vt 0.9585383 0.520344
vt 0.9638661 0.5208368
vt 0.9679352 0.5461614
vt 0.9658952 0.5330681
vt 0.9711619 0.5720087
vt 0.9732079 0.5840653
vt 0.9605417 0.532564
vt 0.9585017 0.5324062
vt 0.9638517 0.5328735
vt 0.9679043 0.5594661
vt 0.9658836 0.5462189
vt 0.9711733 0.5841805
vt 0.9732394 0.5958818
vt 0.9605361 0.5456936
vt 0.9584967 0.545532
vt 0.9638408 0.5460126
vt 0.9678886 0.5722751
vt 0.9658691 0.5595279
vt 0.9712003 0.5959637
vt 0.9732432 0.6074972
vt 0.9605613 0.5590006
vt 0.9585301 0.5588267
vt 0.963842 0.5593272
vt 0.9678959 0.5844541
vt 0.9658598 0.5723668
vt 0.9711957 0.607523
vt 0.9732359 0.6190557
vt 0.9605758 0.5717914
vt 0.9585513 0.5715754
vt 0.9638398 0.5721603
vt 0.9679146 0.5962098
vt 0.9658671 0.5845627
vt 0.9711996 0.6190335
vt 0.9732152 0.6306436
vt 0.9605734 0.5840002
vt 0.9585528 0.5837575
vt 0.9638409 0.5843733
vt 0.9679149 0.6076769
vt 0.9658822 0.5963208
vt 0.971174 0.6306179
vt 0.9732831 0.6420222
vt 0.9605672 0.5958149
vt 0.9585468 0.5955679
vt 0.9638456 0.5961587
vt 0.9679042 0.619069
vt 0.9658947 0.6077459
vt 0.9712371 0.6420193
vt 0.9733199 0.6529117
vt 0.9605911 0.6073751
vt 0.9585719 0.607171
vt 0.9638644 0.6076286
vt 0.9679087 0.630644
vt 0.9658922 0.6190656
vt 0.9712726 0.652908
vt 0.9733732 0.6638096
vt 0.9606035 0.618849
vt 0.9586 0.6187215
vt 0.9638623 0.6189922
vt 0.9679548 0.6421227
vt 0.9659216 0.6306424
vt 0.9713315 0.6637874
vt 0.9734944 0.67466
vt 0.9606027 0.6304387
vt 0.9586056 0.6303281
vt 0.9638724 0.6305736
vt 0.96798 0.6530364
vt 0.9659392 0.6421708
vt 0.9714454 0.6746271
vt 0.9736024 0.684806
vt 0.9605853 0.6418861
vt 0.9585708 0.6417321
vt 0.9638719 0.6420856
vt 0.9680291 0.6639039
vt 0.9659677 0.6531079
vt 0.9715451 0.6847694
vt 0.9737011 0.6937802
vt 0.9606465 0.6528041
vt 0.9586294 0.6526313
vt 0.9639265 0.6530216
vt 0.9681268 0.6747208
vt 0.9660195 0.6639858
vt 0.9716573 0.6937213
vt 0.9738761 0.7015861
vt 0.9607006 0.6637213
vt 0.958685 0.6635434
vt 0.9639871 0.6639481
vt 0.9682212 0.6848235
vt 0.9660836 0.6747808
vt 0.9718308 0.7014923
vt 0.9741239 0.7079411
vt 0.9607095 0.6745818
vt 0.9586752 0.6744238
vt 0.9640356 0.6747687
vt 0.9683422 0.6936882
vt 0.9661829 0.6848535
vt 0.9720734 0.7078082
vt 0.9742882 0.7132013
vt 0.9608107 0.6847191
vt 0.9587539 0.684594
vt 0.96414 0.6848285
vt 0.9685148 0.7013034
vt 0.9663055 0.6936448
vt 0.9722448 0.7130571
vt 0.9743837 0.7180653
vt 0.9609817 0.6936709
vt 0.9589399 0.6936088
vt 0.964268 0.6936557
vt 0.9687306 0.7074633
vt 0.9664678 0.7011161
vt 0.9723511 0.7179465
vt 0.9745005 0.7231523
vt 0.9610877 0.7013789
vt 0.9590523 0.701447
vt 0.9644024 0.7011796
vt 0.9689087 0.7126861
vt 0.9666595 0.7071499
vt 0.9724669 0.7230745
vt 0.9746689 0.7291399
vt 0.9611838 0.7075728
vt 0.9591402 0.7077834
vt 0.9645543 0.7072092
vt 0.9690437 0.7177129
vt 0.9668428 0.7123719
vt 0.9726325 0.729077
vt 0.9748182 0.7362601
vt 0.961398 0.7127261
vt 0.9593205 0.7129731
vt 0.9647729 0.7123491
vt 0.9691825 0.7230324
vt 0.9670089 0.7175021
vt 0.9727821 0.7361823
vt 0.9749376 0.7441267
vt 0.9617088 0.7175905
vt 0.9596608 0.7177259
vt 0.9649935 0.7174196
vt 0.9693478 0.7290949
vt 0.9671739 0.7229596
vt 0.9729024 0.7440405
vt 0.975041 0.75252
vt 0.9619317 0.7228222
vt 0.9599013 0.7227767
vt 0.9651779 0.7228693
vt 0.9694862 0.7361453
vt 0.9673267 0.7290871
vt 0.9730103 0.7524203
vt 0.9751267 0.7613676
vt 0.9620239 0.7289301
vt 0.9599918 0.728805
vt 0.9653031 0.7290354
vt 0.9695987 0.7439346
vt 0.9674523 0.7361129
vt 0.9730932 0.7612448
vt 0.9752024 0.7704931
vt 0.9621215 0.7360711
vt 0.96008 0.735973
vt 0.9654151 0.7361028
vt 0.9697062 0.7522581
vt 0.9675581 0.7438488
vt 0.9731656 0.7703726
vt 0.9752792 0.7795469
vt 0.9622254 0.7439065
vt 0.9601831 0.7438675
vt 0.9655269 0.7438666
vt 0.9697946 0.7610441
vt 0.9676601 0.7521343
vt 0.9732417 0.7794427
vt 0.9753694 0.7881646
vt 0.9623076 0.7522573
vt 0.9602639 0.75226
vt 0.9656164 0.7521636
vt 0.9698678 0.7701771
vt 0.9677516 0.7609079
vt 0.973331 0.7880778
vt 0.9755031 0.7959782
vt 0.9623983 0.7610785
vt 0.9603554 0.7610983
vt 0.9657059 0.7609516
vt 0.9699495 0.779264
vt 0.9678311 0.7700441
vt 0.9734588 0.7959061
vt 0.97569 0.8027419
vt 0.9624894 0.7702063
vt 0.9604487 0.7702261
vt 0.9657903 0.7700831
vt 0.9700411 0.7879148
vt 0.9679189 0.7791283
vt 0.9736355 0.8026792
vt 0.9758477 0.8085232
vt 0.9625804 0.7792695
vt 0.9605416 0.7792919
vt 0.9658751 0.7791533
vt 0.9701592 0.7957491
vt 0.9680151 0.787769
vt 0.9738179 0.8084652
vt 0.9758899 0.8135703
vt 0.9626938 0.7879115
vt 0.9606583 0.7879393
vt 0.9659817 0.7877895
vt 0.9703132 0.8024942
vt 0.9681332 0.7955757
vt 0.9738733 0.8136153
vt 0.9759254 0.8184995
vt 0.9738622 0.8187172
vt 0.9628094 0.7957605
vt 0.9607806 0.79581
vt 0.9660954 0.7956024
vt 0.9704985 0.8081694
vt 0.9706326 0.8131959
vt 0.9705234 0.8184
vt 0.9682837 0.8022531
vt 0.9629133 0.8025005
vt 0.9608948 0.8026196
vt 0.9662235 0.8022657
vt 0.9684811 0.8077979
vt 0.9686762 0.8126374
vt 0.9685923 0.8177239
vt 0.9663893 0.8077171
vt 0.9630171 0.8080513
vt 0.9610122 0.808317
vt 0.9666205 0.8122907
vt 0.9667583 0.8170888
vt 0.9632118 0.8126413
vt 0.9612038 0.8130908
vt 0.9637423 0.817159
vt 0.9618211 0.81779
vn -0.9965407 -0.03869203 -0.07355002
vn -0.999974 -0.007060716 0.001454376
vn -0.9065499 -0.02144267 0.4215537
vn -0.9530255 0.01338973 0.3025937
vn -0.9673964 -0.1967875 -0.1594332
vn -0.6138591 -0.03433292 0.7886687
vn -0.9955589 0.02418065 0.09098268
vn -0.91491 -0.3759996 -0.1468461
vn -0.6800264 0.04156316 0.7320087
vn 0.5559754 -0.04006638 0.8302326
vn -0.9978102 -0.05613046 0.03499083
vn -0.8427589 -0.4818777 -0.2398988
vn -0.8217352 0.2777073 0.4976243
vn 0.5893901 0.0526772 0.8061293
vn 0.9177762 0.01363527 -0.396864
vn -0.9883774 -0.1504417 -0.02184999
vn -0.7710415 -0.4094568 -0.4876886
vn -0.8995304 0.3496855 0.2618494
vn 0.9135864 -0.01253523 -0.4064513
vn 0.6071471 0.03193503 -0.7939475
vn 0.452237 0.4586308 0.7649441
vn -0.963944 -0.197191 -0.1786833
vn -0.6704969 -0.2933069 -0.6814728
vn 0.620657 -0.06072536 -0.7817272
vn 0.2574854 0.03833351 -0.9655215
vn 0.3107438 -0.08757355 -0.9464508
vn -0.9424129 0.2374779 0.235504
vn 0.9681191 -0.0852927 -0.2355215
vn 0.7536529 -0.3250549 -0.5712677
vn 0.5000669 -0.4641375 -0.7311016
vn 0.2234197 0.8342417 0.5041075
vn -0.9059242 -0.1798763 -0.3833352
vn -0.5481359 -0.2409666 -0.8009259
vn 0.8840734 -0.3666255 -0.2898275
vn 0.6518251 -0.619216 -0.4378307
vn 0.9988598 0.02162853 -0.04256115
vn -0.9765021 0.07360329 0.2025491
vn 0.05108183 0.8047885 0.5913595
vn -0.8249673 -0.1398525 -0.5476042
vn -0.4077548 -0.1637186 -0.8982941
vn 0.9600706 -0.1810154 -0.2133024
vn 0.7608014 -0.4959229 -0.4186187
vn 0.976325 0.2037957 0.07250314
vn -0.9988472 -0.006722939 0.04752994
vn -0.0565737 0.5390724 0.8403573
vn -0.7212421 -0.05301447 -0.6906512
vn -0.2390357 -0.07465412 -0.9681368
vn 0.9887593 -0.01404773 -0.1488548
vn 0.8440006 -0.2441017 -0.4775746
vn 0.9422209 0.2276004 0.2458002
vn -0.9912766 0.0145357 -0.1309937
vn -0.1951467 0.3405893 0.9197373
vn -0.572562 0.06174003 -0.8175335
vn -0.07022695 -0.0312757 -0.9970406
vn 0.9991749 0.02607637 -0.03113513
vn 0.9116067 -0.1053213 -0.3973418
vn 0.9006253 0.1720436 0.3990927
vn -0.9505325 0.1016312 -0.2935286
vn -0.3410693 0.3011195 0.8905047
vn -0.4105601 0.1347842 -0.9018168
vn 0.1011152 -0.0004738746 -0.9948747
vn 0.9911101 -0.003581186 0.1329962
vn 0.9637381 -0.1096512 -0.2432805
vn 0.8262914 0.1239905 0.549426
vn -0.8603803 0.222585 -0.4584775
vn -0.4490135 0.2944358 0.8436198
vn -0.2283431 0.18954 -0.9549524
vn 0.2991721 0.05329736 -0.9527095
vn 0.9481055 -0.08840135 0.3054195
vn 0.980866 -0.1770245 -0.08102014
vn 0.7213182 0.03493534 0.6917221
vn -0.7387502 0.3138996 -0.5964186
vn -0.5686139 0.3041652 0.7643047
vn -0.0186299 0.2693627 -0.9628586
vn 0.5482663 0.1470378 -0.8232763
vn 0.8593171 -0.2130178 0.4649704
vn 0.954336 -0.2859866 0.08633859
vn 0.5761836 -0.07993564 0.8134021
vn -0.5866372 0.3911923 -0.7091019
vn -0.6683106 0.3401467 0.6615597
vn 0.2550932 0.3893651 -0.8850549
vn 0.7808092 0.2190798 -0.5850993
vn 0.7355728 -0.30428 0.6052654
vn 0.89196 -0.3798565 0.2451866
vn 0.4076649 -0.1521262 0.9003704
vn -0.3998204 0.4886135 -0.7755001
vn -0.7344835 0.3770134 0.5642648
vn 0.5372439 0.5082055 -0.6731242
vn 0.9144965 0.1968349 -0.3534856
vn 0.5797567 -0.3792582 0.7211416
vn 0.7962227 -0.4601419 0.3928091
vn 0.2252356 -0.2099336 0.9514183
vn -0.1557403 0.6246485 -0.7652185
vn -0.8007038 0.3970173 0.4486097
vn 0.719391 0.5237986 -0.4561926
vn 0.9754073 0.1089422 -0.1916044
vn 0.3767389 -0.4689698 0.7988335
vn 0.6584824 -0.5490425 0.5147361
vn 0.0006768299 -0.2899528 0.9570407
vn 0.1258546 0.7682003 -0.6277172
vn -0.8681775 0.3874564 0.3100729
vn 0.8255271 0.4520911 -0.3378146
vn 0.9980679 0.002275922 -0.06209171
vn 0.118612 -0.6028537 0.7889858
vn 0.4697176 -0.663736 0.5820823
vn -0.2725966 -0.4188757 0.8661605
vn 0.3374023 0.8088384 -0.4816017
vn -0.892907 0.436573 0.1100955
vn 0.902401 0.3350936 -0.2708959
vn 0.9930026 -0.09701519 0.06733388
vn -0.1575201 -0.743338 0.6501047
vn 0.2355474 -0.8058459 0.5432584
vn -0.5499347 -0.5290636 0.6462688
vn 0.4848276 0.7552791 -0.4410167
vn -0.830408 0.550202 -0.08775166
vn 0.9593593 0.2083157 -0.1903532
vn 0.9629488 -0.1742395 0.2058407
vn -0.3610244 -0.7848977 0.5035841
vn 0.0347364 -0.8770763 0.4790934
vn -0.7334997 -0.5260231 0.4304389
vn 0.611012 0.6453447 -0.4584696
vn -0.717253 0.6419843 -0.270932
vn 0.9910644 0.1004685 -0.08773412
vn 0.9077637 -0.2169634 0.3590154
vn -0.5065982 -0.7324615 0.4548167
vn -0.1263644 -0.8589841 0.4961637
vn -0.8434717 -0.4381653 0.3107516
vn 0.7274738 0.5165628 -0.4516024
vn -0.5980539 0.6640325 -0.4487675
vn 0.9993754 0.0112977 0.03348649
vn 0.8283477 -0.2097827 0.5194528
vn -0.6316073 -0.6215563 0.4634002
vn -0.2753126 -0.7733946 0.5710201
vn -0.9174801 -0.3174731 0.2396688
vn 0.8230544 0.3927695 -0.4102602
vn -0.4718249 0.6490037 -0.5968044
vn 0.9833916 -0.0477409 0.175105
vn 0.72767 -0.1409481 0.6712899
vn -0.7413533 -0.4952374 0.4529185
vn -0.4194229 -0.6620688 0.6210873
vn -0.9668676 -0.198389 0.1606514
vn 0.89992 0.2638786 -0.3471484
vn -0.3311775 0.6071194 -0.722307
vn 0.9415238 -0.05313548 0.3327305
vn 0.6094556 -0.02202463 0.7925143
vn -0.8377326 -0.3682143 0.4032647
vn -0.5548116 -0.5433587 0.6300361
vn -0.9945251 -0.08996219 0.05316694
vn 0.956638 0.1408487 -0.2549619
vn -0.1762948 0.5140466 -0.83945
vn 0.8748356 -5.272225E-06 0.48442
vn 0.4768454 0.1469128 0.8666227
vn -0.9149302 -0.2357261 0.3276218
vn -0.6782547 -0.3999031 0.6164804
vn -0.9969785 -0.0005125263 -0.07767704
vn 0.9906596 0.05419927 -0.1251239
vn -0.02459762 0.3639291 -0.9311018
vn 0.7871323 0.1156659 0.6058416
vn 0.3308839 0.3502738 0.8762558
vn -0.9686765 -0.1106949 0.2222889
vn -0.7864724 -0.2373782 0.5701864
vn -0.9730858 0.05141617 -0.224634
vn 0.9993652 0.02326002 0.026985
vn 0.1244249 0.1814555 -0.975496
vn 0.6751255 0.2851187 0.680377
vn 0.1791387 0.5170612 0.8369929
vn -0.9960765 -0.02752436 0.0841065
vn -0.8752338 -0.09185821 0.4748976
vn -0.9247346 0.04431892 -0.3780234
vn 0.9830937 0.05491119 0.1746752
vn 0.2698739 -0.0001525465 -0.9628956
vn 0.5431558 0.4521574 0.7074853
vn 0.02704324 0.6192559 0.7847235
vn -0.9974272 -0.003192205 -0.0716162
vn -0.9410734 0.00580316 0.3381525
vn -0.8543515 -0.01919017 -0.5193412
vn 0.9407433 0.148972 0.3046461
vn 0.4044306 -0.1782514 -0.8970298
vn 0.4035538 0.5817024 0.7062341
vn -0.1289634 0.7040128 0.6983799
vn -0.9729339 -0.04458426 -0.2267416
vn -0.9828293 0.04650695 0.17856
vn -0.7621528 -0.1425359 -0.6315114
vn 0.8704605 0.281171 0.4040317
vn 0.5309702 -0.3336679 -0.7789328
vn 0.2585455 0.7032223 0.6622934
vn -0.2815703 0.7743101 0.5667117
vn -0.9238321 -0.1494451 -0.3524207
vn -0.999561 0.02340383 0.01816738
vn -0.6512153 -0.3130745 -0.6913053
vn 0.7806117 0.417723 0.4649224
vn 0.6555099 -0.4080094 -0.6354802
vn 0.1020276 0.8157343 0.5693576
vn -0.4238488 0.7836255 0.454184
vn -0.8547915 -0.2801572 -0.4368564
vn -0.9911605 -0.05896484 -0.1188457
vn -0.5276491 -0.4728523 -0.7056891
vn 0.676854 0.5587247 0.4792654
vn 0.7639205 -0.3993798 -0.506874
vn -0.05881338 0.8785172 0.4740767
vn -0.5567151 0.7319677 0.3927997
vn -0.768344 -0.4118168 -0.4899535
vn -0.959421 -0.1758048 -0.2204633
vn -0.3956011 -0.5977143 -0.6973072
vn 0.5497471 0.701924 0.4528583
vn 0.8506871 -0.3676931 -0.3756769
vn -0.2128585 0.8855724 0.4128591
vn -0.6776538 0.6339714 0.3726466
vn -0.6554258 -0.5590087 -0.5078645
vn -0.9035311 -0.3148823 -0.2906555
vn -0.2466134 -0.7208567 -0.6477249
vn 0.4047377 0.8213671 0.4019247
vn 0.9236034 -0.3047506 -0.2325594
vn -0.3668157 0.8456348 0.3877475
vn -0.7635397 0.4937965 0.4161395
vn -0.529395 -0.701712 -0.4768031
vn -0.823347 -0.4646253 -0.3259186
vn -0.09588931 -0.8292278 -0.5506237
vn 0.2542816 0.8995297 0.3552285
vn 0.9743424 -0.1797791 -0.1354119
vn -0.5015094 0.7563811 0.4199713
vn -0.7878855 0.3091715 0.5325874
vn -0.4012941 -0.813309 -0.4212974
vn -0.7232304 -0.6116185 -0.3207188
vn 0.04945322 -0.8883057 -0.4565824
vn 0.09194635 0.9391434 0.3309919
vn 0.9957046 -0.01499502 -0.09136533
vn -0.5805782 0.6169034 0.5313747
vn -0.7578948 0.1004633 0.6445949
vn -0.2624946 -0.8893242 -0.3744316
vn -0.6064523 -0.7373343 -0.2975799
vn 0.1992863 -0.8972084 -0.3940837
vn -0.07626087 0.9350914 0.3461043
vn 0.9846063 0.1578443 -0.07507123
vn -0.598869 0.4510066 0.6617771
vn -0.7410243 -0.08780376 0.6657128
vn -0.1168555 -0.9294989 -0.3498236
vn -0.4750368 -0.8337343 -0.2814734
vn 0.3467346 -0.8645449 -0.363782
vn -0.2155591 0.8772991 0.4288129
vn 0.9318177 0.3516573 -0.08973705
vn -0.6222808 0.2892568 0.7273906
vn -0.7805991 -0.2249005 0.5831679
vn 0.02097476 -0.9310449 -0.3643014
vn -0.3347091 -0.8977776 -0.2862959
vn 0.4765057 -0.7897135 -0.3863869
vn -0.2943398 0.7797597 0.5525749
vn 0.8211229 0.5548297 -0.1338703
vn -0.6979858 0.1513519 0.6999347
vn -0.8321487 -0.3247225 0.4495374
vn 0.143465 -0.8835289 -0.4458637
vn -0.1968497 -0.9198845 -0.339209
vn 0.5709047 -0.6581694 -0.4907961
vn -0.356507 0.6695513 0.6516164
vn 0.6900916 0.7087128 -0.1466275
vn -0.7951393 0.03437678 0.6054516
vn -0.8528374 -0.4186371 0.3121079
vn 0.2435582 -0.7817651 -0.5740406
vn -0.0832909 -0.8944935 -0.439254
vn 0.6158245 -0.4767674 -0.6272584
vn -0.4556389 0.5630696 0.6894534
vn 0.6073507 0.7898306 -0.08539676
vn -0.8718296 -0.07454168 0.484104
vn -0.8326632 -0.5200828 0.1902257
vn 0.3351707 -0.6512584 -0.6808253
vn 0.01518824 -0.8341278 -0.5513621
vn 0.6530774 -0.2961441 -0.6969854
vn -0.5869726 0.4611864 0.6654098
vn 0.5616102 0.8268318 0.03071227
vn -0.9146914 -0.1892735 0.3570928
vn -0.7656664 -0.6335152 0.1114163
vn 0.4503516 -0.531614 -0.7173353
vn 0.1337094 -0.762018 -0.6336011
vn 0.7264049 -0.1559705 -0.6693349
vn -0.7169296 0.3641526 0.5944787
vn 0.4897305 0.8567833 0.1615131
vn -0.9123919 -0.3188525 0.2566592
vn -0.6582919 -0.7482749 0.08207556
vn 0.579939 -0.4373733 -0.6872957
vn 0.2801055 -0.6953012 -0.661889
vn 0.8128889 -0.04862422 -0.5803855
vn -0.8306561 0.2603437 0.4921704
vn 0.379219 0.8881061 0.2597317
vn -0.8665179 -0.4571653 0.2003664
vn -0.5280039 -0.8455824 0.07875363
vn 0.7065108 -0.3512988 -0.6143547
vn 0.4378693 -0.6335601 -0.6378653
vn 0.8830616 0.05179699 -0.4663895
vn -0.9114359 0.1368849 0.3880041
vn 0.2302726 0.9210009 0.3142163
vn -0.7897183 -0.5892653 0.1706204
vn -0.3829133 -0.9191518 0.09239805
vn 0.8175515 -0.259911 -0.5138636
vn 0.5943981 -0.5664476 -0.5708134
vn 0.9249008 0.1592402 -0.345255
vn -0.9509231 -0.005105593 0.3093852
vn 0.04689985 0.9476273 0.3159161
vn -0.6887435 -0.7074227 0.1586995
vn -0.2246622 -0.9655352 0.1314107
vn 0.8978958 -0.149731 -0.4139613
vn 0.7317595 -0.4805505 -0.4833212
vn 0.9261062 0.2852286 -0.2469248
vn -0.9552564 -0.154276 0.252357
vn -0.1457971 0.9503518 0.2749086
vn -0.5639235 -0.8074461 0.173266
vn -0.05666823 -0.9758957 0.2107518
vn 0.9415337 -0.01463151 -0.336601
vn 0.8381295 -0.369212 -0.4015238
vn 0.8842634 0.4272708 -0.1884621
vn -0.928701 -0.3049745 0.2109618
vn -0.321725 0.921322 0.2183086
vn -0.4167341 -0.8796715 0.2291525
vn 0.11563 -0.9259002 0.3596368
vn 0.9512376 0.1334633 -0.2780906
vn 0.9131324 -0.2372962 -0.3314809
vn 0.81006 0.5652745 -0.1557802
vn -0.8709535 -0.4519379 0.1928525
vn -0.4865063 0.8589142 0.1599308
vn -0.2521506 -0.8964978 0.3642961
vn 0.2829358 -0.7608553 0.5839919
vn 0.9299645 0.2813793 -0.2366257
vn 0.9571055 -0.09178682 -0.2748172
vn 0.7115586 0.6884349 -0.1405055
vn -0.7804466 -0.5890892 0.2094684
vn -0.635916 0.7655569 0.09763864
vn -0.08568411 -0.7894011 0.6078687
vn 0.4455598 -0.4293961 0.7855543
vn 0.8795068 0.4223286 -0.2193319
vn 0.9696144 0.06008917 -0.2371437
vn 0.5913107 0.7922596 -0.1505863
vn -0.6532867 -0.6950132 0.3002885
vn -0.7708928 0.6363305 0.02842094
vn 0.07259758 -0.4803889 0.8740458
vn 0.5146027 -0.2064109 0.832213
vn 0.1435642 -0.271478 0.951677
vn 0.8028498 0.5475289 -0.23589
vn 0.9511547 0.2107433 -0.2255924
vn 0.4518059 0.8700832 -0.1970449
vn -0.4985569 -0.6957963 0.5170189
vn -0.352774 -0.4752609 0.8060258
vn -0.2735955 -0.2971188 0.9148038
vn -0.8905786 0.4531072 -0.03954322
vn 0.7005858 0.6387661 -0.3180526
vn 0.8990849 0.3439399 -0.2708353
vn 0.2928162 0.9044818 -0.3101149
vn -0.9759824 0.2087424 -0.06232854
vn -0.9999323 -0.004146723 0.01087193
vn -0.9839723 -0.05486134 0.1696725
vn 0.1172006 0.8410177 -0.5281603
vn 0.5731311 0.6432642 -0.5076729
vn 0.8123181 0.40618 -0.4185178
vn -0.07551515 0.555786 -0.8278885
vn -0.1802088 0.3301011 -0.926584
vn 0.4203734 0.4439604 -0.7913188
vn 0.7035336 0.2860059 -0.6505698
vn 0.3222252 0.2701953 -0.9072847
vn 0.6435311 0.1784424 -0.7443293
usemtl Light_Fixture
f 1/1/1 3/3/3 2/2/2 
f 1/1/1 4/4/4 3/3/3 
f 5/5/5 4/4/4 1/1/1 
f 4/4/4 6/6/6 3/3/3 
f 5/5/5 7/7/7 4/4/4 
f 8/8/8 7/7/7 5/5/5 
f 4/4/4 9/9/9 6/6/6 
f 7/7/7 9/9/9 4/4/4 
f 9/9/9 10/10/10 6/6/6 
f 8/8/8 11/11/11 7/7/7 
f 12/12/12 11/11/11 8/8/8 
f 7/7/7 13/13/13 9/9/9 
f 11/11/11 13/13/13 7/7/7 
f 9/9/9 14/14/14 10/10/10 
f 13/13/13 14/14/14 9/9/9 
f 14/14/14 15/15/15 10/10/10 
f 12/12/12 16/16/16 11/11/11 
f 17/17/17 16/16/16 12/12/12 
f 11/11/11 18/18/18 13/13/13 
f 16/16/16 18/18/18 11/11/11 
f 14/14/14 19/19/19 15/15/15 
f 19/19/19 20/20/20 15/15/15 
f 13/13/13 21/21/21 14/14/14 
f 18/18/18 21/21/21 13/13/13 
f 21/21/21 19/19/19 14/14/14 
f 17/17/17 22/22/22 16/16/16 
f 23/23/23 22/22/22 17/17/17 
f 19/19/19 24/24/24 20/20/20 
f 24/24/24 25/25/25 20/20/20 
f 24/24/24 26/26/26 25/25/25 
f 16/16/16 27/27/27 18/18/18 
f 22/22/22 27/27/27 16/16/16 
f 21/21/21 28/28/28 19/19/19 
f 28/28/28 24/24/24 19/19/19 
f 29/29/29 26/26/26 24/24/24 
f 28/28/28 29/29/29 24/24/24 
f 29/29/29 30/30/30 26/26/26 
f 18/18/18 31/31/31 21/21/21 
f 31/31/31 28/28/28 21/21/21 
f 27/27/27 31/31/31 18/18/18 
f 23/23/23 32/32/32 22/22/22 
f 33/33/33 32/32/32 23/23/23 
f 34/34/34 30/30/30 29/29/29 
f 34/34/34 35/35/35 30/30/30 
f 36/36/36 29/29/29 28/28/28 
f 31/31/31 36/36/36 28/28/28 
f 36/36/36 34/34/34 29/29/29 
f 22/22/22 37/37/37 27/27/27 
f 32/32/32 37/37/37 22/22/22 
f 27/27/27 38/38/38 31/31/31 
f 38/38/38 36/36/36 31/31/31 
f 37/37/37 38/38/38 27/27/27 
f 33/33/33 39/39/39 32/32/32 
f 40/40/40 39/39/39 33/33/33 
f 41/41/41 35/35/35 34/34/34 
f 41/41/41 42/42/42 35/35/35 
f 43/43/43 34/34/34 36/36/36 
f 38/38/38 43/43/43 36/36/36 
f 43/43/43 41/41/41 34/34/34 
f 32/32/32 44/44/44 37/37/37 
f 39/39/39 44/44/44 32/32/32 
f 37/37/37 45/45/45 38/38/38 
f 45/45/45 43/43/43 38/38/38 
f 44/44/44 45/45/45 37/37/37 
f 40/40/40 46/46/46 39/39/39 
f 47/47/47 46/46/46 40/40/40 
f 48/48/48 42/42/42 41/41/41 
f 48/48/48 49/49/49 42/42/42 
f 50/50/50 41/41/41 43/43/43 
f 45/45/45 50/50/50 43/43/43 
f 50/50/50 48/48/48 41/41/41 
f 39/39/39 51/51/51 44/44/44 
f 46/46/46 51/51/51 39/39/39 
f 44/44/44 52/52/52 45/45/45 
f 52/52/52 50/50/50 45/45/45 
f 51/51/51 52/52/52 44/44/44 
f 47/47/47 53/53/53 46/46/46 
f 54/54/54 53/53/53 47/47/47 
f 55/55/55 49/49/49 48/48/48 
f 55/55/55 56/56/56 49/49/49 
f 57/57/57 48/48/48 50/50/50 
f 52/52/52 57/57/57 50/50/50 
f 57/57/57 55/55/55 48/48/48 
f 46/46/46 58/58/58 51/51/51 
f 53/53/53 58/58/58 46/46/46 
f 51/51/51 59/59/59 52/52/52 
f 59/59/59 57/57/57 52/52/52 
f 58/58/58 59/59/59 51/51/51 
f 54/54/54 60/60/60 53/53/53 
f 61/61/61 60/60/60 54/54/54 
f 62/62/62 56/56/56 55/55/55 
f 62/62/62 63/63/63 56/56/56 
f 64/64/64 55/55/55 57/57/57 
f 59/59/59 64/64/64 57/57/57 
f 64/64/64 62/62/62 55/55/55 
f 53/53/53 65/65/65 58/58/58 
f 60/60/60 65/65/65 53/53/53 
f 58/58/58 66/66/66 59/59/59 
f 66/66/66 64/64/64 59/59/59 
f 65/65/65 66/66/66 58/58/58 
f 61/61/61 67/67/67 60/60/60 
f 68/68/68 67/67/67 61/61/61 
f 69/69/69 63/63/63 62/62/62 
f 69/69/69 70/70/70 63/63/63 
f 71/71/71 62/62/62 64/64/64 
f 66/66/66 71/71/71 64/64/64 
f 71/71/71 69/69/69 62/62/62 
f 60/60/60 72/72/72 65/65/65 
f 67/67/67 72/72/72 60/60/60 
f 65/65/65 73/73/73 66/66/66 
f 73/73/73 71/71/71 66/66/66 
f 72/72/72 73/73/73 65/65/65 
f 68/68/68 74/74/74 67/67/67 
f 75/75/75 74/74/74 68/68/68 
f 76/76/76 70/70/70 69/69/69 
f 76/76/76 77/77/77 70/70/70 
f 78/78/78 69/69/69 71/71/71 
f 73/73/73 78/78/78 71/71/71 
f 78/78/78 76/76/76 69/69/69 
f 67/67/67 79/79/79 72/72/72 
f 74/74/74 79/79/79 67/67/67 
f 72/72/72 80/80/80 73/73/73 
f 80/80/80 78/78/78 73/73/73 
f 79/79/79 80/80/80 72/72/72 
f 75/75/75 81/81/81 74/74/74 
f 82/82/82 81/81/81 75/75/75 
f 83/83/83 77/77/77 76/76/76 
f 83/83/83 84/84/84 77/77/77 
f 85/85/85 76/76/76 78/78/78 
f 80/80/80 85/85/85 78/78/78 
f 85/85/85 83/83/83 76/76/76 
f 74/74/74 86/86/86 79/79/79 
f 81/81/81 86/86/86 74/74/74 
f 79/79/79 87/87/87 80/80/80 
f 87/87/87 85/85/85 80/80/80 
f 86/86/86 87/87/87 79/79/79 
f 82/82/82 88/88/88 81/81/81 
f 89/89/89 88/88/88 82/82/82 
f 90/90/90 84/84/84 83/83/83 
f 90/90/90 91/91/91 84/84/84 
f 92/92/92 83/83/83 85/85/85 
f 87/87/87 92/92/92 85/85/85 
f 92/92/92 90/90/90 83/83/83 
f 81/81/81 93/93/93 86/86/86 
f 88/88/88 93/93/93 81/81/81 
f 86/86/86 94/94/94 87/87/87 
f 94/94/94 92/92/92 87/87/87 
f 93/93/93 94/94/94 86/86/86 
f 89/89/89 95/95/95 88/88/88 
f 96/96/96 95/95/95 89/89/89 
f 97/97/97 91/91/91 90/90/90 
f 97/97/97 98/98/98 91/91/91 
f 99/99/99 90/90/90 92/92/92 
f 94/94/94 99/99/99 92/92/92 
f 99/99/99 97/97/97 90/90/90 
f 88/88/88 100/100/100 93/93/93 
f 95/95/95 100/100/100 88/88/88 
f 93/93/93 101/101/101 94/94/94 
f 101/101/101 99/99/99 94/94/94 
f 100/100/100 101/101/101 93/93/93 
f 96/96/96 102/102/102 95/95/95 
f 103/103/103 102/102/102 96/96/96 
f 104/104/104 98/98/98 97/97/97 
f 104/104/104 105/105/105 98/98/98 
f 106/106/106 97/97/97 99/99/99 
f 101/101/101 106/106/106 99/99/99 
f 106/106/106 104/104/104 97/97/97 
f 95/95/95 107/107/107 100/100/100 
f 102/102/102 107/107/107 95/95/95 
f 100/100/100 108/108/108 101/101/101 
f 108/108/108 106/106/106 101/101/101 
f 107/107/107 108/108/108 100/100/100 
f 103/103/103 109/109/109 102/102/102 
f 110/110/110 109/109/109 103/103/103 
f 111/111/111 105/105/105 104/104/104 
f 111/111/111 112/112/112 105/105/105 
f 113/113/113 104/104/104 106/106/106 
f 108/108/108 113/113/113 106/106/106 
f 113/113/113 111/111/111 104/104/104 
f 102/102/102 114/114/114 107/107/107 
f 109/109/109 114/114/114 102/102/102 
f 107/107/107 115/115/115 108/108/108 
f 115/115/115 113/113/113 108/108/108 
f 114/114/114 115/115/115 107/107/107 
f 110/110/110 116/116/116 109/109/109 
f 117/117/117 116/116/116 110/110/110 
f 118/118/118 112/112/112 111/111/111 
f 118/118/118 119/119/119 112/112/112 
f 120/120/120 111/111/111 113/113/113 
f 115/115/115 120/120/120 113/113/113 
f 120/120/120 118/118/118 111/111/111 
f 109/109/109 121/121/121 114/114/114 
f 116/116/116 121/121/121 109/109/109 
f 114/114/114 122/122/122 115/115/115 
f 122/122/122 120/120/120 115/115/115 
f 121/121/121 122/122/122 114/114/114 
f 117/117/117 123/123/123 116/116/116 
f 124/124/124 123/123/123 117/117/117 
f 125/125/125 119/119/119 118/118/118 
f 125/125/125 126/126/126 119/119/119 
f 127/127/127 118/118/118 120/120/120 
f 122/122/122 127/127/127 120/120/120 
f 127/127/127 125/125/125 118/118/118 
f 116/116/116 128/128/128 121/121/121 
f 123/123/123 128/128/128 116/116/116 
f 121/121/121 129/129/129 122/122/122 
f 129/129/129 127/127/127 122/122/122 
f 128/128/128 129/129/129 121/121/121 
f 124/124/124 130/130/130 123/123/123 
f 131/131/131 130/130/130 124/124/124 
f 132/132/132 126/126/126 125/125/125 
f 132/132/132 133/133/133 126/126/126 
f 134/134/134 125/125/125 127/127/127 
f 129/129/129 134/134/134 127/127/127 
f 134/134/134 132/132/132 125/125/125 
f 123/123/123 135/135/135 128/128/128 
f 130/130/130 135/135/135 123/123/123 
f 128/128/128 136/136/136 129/129/129 
f 136/136/136 134/134/134 129/129/129 
f 135/135/135 136/136/136 128/128/128 
f 131/131/131 137/137/137 130/130/130 
f 138/138/138 137/137/137 131/131/131 
f 139/139/139 133/133/133 132/132/132 
f 139/139/139 140/140/140 133/133/133 
f 141/141/141 132/132/132 134/134/134 
f 136/136/136 141/141/141 134/134/134 
f 141/141/141 139/139/139 132/132/132 
f 130/130/130 142/142/142 135/135/135 
f 137/137/137 142/142/142 130/130/130 
f 135/135/135 143/143/143 136/136/136 
f 143/143/143 141/141/141 136/136/136 
f 142/142/142 143/143/143 135/135/135 
f 138/138/138 144/144/144 137/137/137 
f 145/145/145 144/144/144 138/138/138 
f 146/146/146 140/140/140 139/139/139 
f 146/146/146 147/147/147 140/140/140 
f 148/148/148 139/139/139 141/141/141 
f 143/143/143 148/148/148 141/141/141 
f 148/148/148 146/146/146 139/139/139 
f 137/137/137 149/149/149 142/142/142 
f 144/144/144 149/149/149 137/137/137 
f 142/142/142 150/150/150 143/143/143 
f 150/150/150 148/148/148 143/143/143 
f 149/149/149 150/150/150 142/142/142 
f 145/145/145 151/151/151 144/144/144 
f 152/152/152 151/151/151 145/145/145 
f 153/153/153 147/147/147 146/146/146 
f 153/153/153 154/154/154 147/147/147 
f 155/155/155 146/146/146 148/148/148 
f 150/150/150 155/155/155 148/148/148 
f 155/155/155 153/153/153 146/146/146 
f 144/144/144 156/156/156 149/149/149 
f 151/151/151 156/156/156 144/144/144 
f 149/149/149 157/157/157 150/150/150 
f 157/157/157 155/155/155 150/150/150 
f 156/156/156 157/157/157 149/149/149 
f 152/152/152 158/158/158 151/151/151 
f 159/159/159 158/158/158 152/152/152 
f 160/160/160 154/154/154 153/153/153 
f 160/160/160 161/161/161 154/154/154 
f 162/162/162 153/153/153 155/155/155 
f 157/157/157 162/162/162 155/155/155 
f 162/162/162 160/160/160 153/153/153 
f 151/151/151 163/163/163 156/156/156 
f 158/158/158 163/163/163 151/151/151 
f 156/156/156 164/164/164 157/157/157 
f 164/164/164 162/162/162 157/157/157 
f 163/163/163 164/164/164 156/156/156 
f 159/159/159 165/165/165 158/158/158 
f 166/166/166 165/165/165 159/159/159 
f 167/167/167 161/161/161 160/160/160 
f 167/167/167 168/168/168 161/161/161 
f 169/169/169 160/160/160 162/162/162 
f 164/164/164 169/169/169 162/162/162 
f 169/169/169 167/167/167 160/160/160 
f 158/158/158 170/170/170 163/163/163 
f 165/165/165 170/170/170 158/158/158 
f 163/163/163 171/171/171 164/164/164 
f 171/171/171 169/169/169 164/164/164 
f 170/170/170 171/171/171 163/163/163 
f 166/166/166 172/172/172 165/165/165 
f 173/173/173 172/172/172 166/166/166 
f 174/174/174 168/168/168 167/167/167 
f 174/174/174 175/175/175 168/168/168 
f 176/176/176 167/167/167 169/169/169 
f 171/171/171 176/176/176 169/169/169 
f 176/176/176 174/174/174 167/167/167 
f 165/165/165 177/177/177 170/170/170 
f 172/172/172 177/177/177 165/165/165 
f 170/170/170 178/178/178 171/171/171 
f 178/178/178 176/176/176 171/171/171 
f 177/177/177 178/178/178 170/170/170 
f 173/173/173 179/179/179 172/172/172 
f 180/180/180 179/179/179 173/173/173 
f 181/181/181 175/175/175 174/174/174 
f 181/181/181 182/182/182 175/175/175 
f 183/183/183 174/174/174 176/176/176 
f 178/178/178 183/183/183 176/176/176 
f 183/183/183 181/181/181 174/174/174 
f 172/172/172 184/184/184 177/177/177 
f 179/179/179 184/184/184 172/172/172 
f 177/177/177 185/185/185 178/178/178 
f 185/185/185 183/183/183 178/178/178 
f 184/184/184 185/185/185 177/177/177 
f 180/180/180 186/186/186 179/179/179 
f 187/187/187 186/186/186 180/180/180 
f 188/188/188 182/182/182 181/181/181 
f 188/188/188 189/189/189 182/182/182 
f 190/190/190 181/181/181 183/183/183 
f 185/185/185 190/190/190 183/183/183 
f 190/190/190 188/188/188 181/181/181 
f 179/179/179 191/191/191 184/184/184 
f 186/186/186 191/191/191 179/179/179 
f 184/184/184 192/192/192 185/185/185 
f 192/192/192 190/190/190 185/185/185 
f 191/191/191 192/192/192 184/184/184 
f 187/187/187 193/193/193 186/186/186 
f 194/194/194 193/193/193 187/187/187 
f 195/195/195 189/189/189 188/188/188 
f 195/195/195 196/196/196 189/189/189 
f 197/197/197 188/188/188 190/190/190 
f 192/192/192 197/197/197 190/190/190 
f 197/197/197 195/195/195 188/188/188 
f 186/186/186 198/198/198 191/191/191 
f 193/193/193 198/198/198 186/186/186 
f 191/191/191 199/199/199 192/192/192 
f 199/199/199 197/197/197 192/192/192 
f 198/198/198 199/199/199 191/191/191 
f 194/194/194 200/200/200 193/193/193 
f 201/201/201 200/200/200 194/194/194 
f 202/202/202 196/196/196 195/195/195 
f 202/202/202 203/203/203 196/196/196 
f 204/204/204 195/195/195 197/197/197 
f 199/199/199 204/204/204 197/197/197 
f 204/204/204 202/202/202 195/195/195 
f 193/193/193 205/205/205 198/198/198 
f 200/200/200 205/205/205 193/193/193 
f 198/198/198 206/206/206 199/199/199 
f 206/206/206 204/204/204 199/199/199 
f 205/205/205 206/206/206 198/198/198 
f 201/201/201 207/207/207 200/200/200 
f 208/208/208 207/207/207 201/201/201 
f 209/209/209 203/203/203 202/202/202 
f 209/209/209 210/210/210 203/203/203 
f 211/211/211 202/202/202 204/204/204 
f 206/206/206 211/211/211 204/204/204 
f 211/211/211 209/209/209 202/202/202 
f 200/200/200 212/212/212 205/205/205 
f 207/207/207 212/212/212 200/200/200 
f 205/205/205 213/213/213 206/206/206 
f 213/213/213 211/211/211 206/206/206 
f 212/212/212 213/213/213 205/205/205 
f 208/208/208 214/214/214 207/207/207 
f 215/215/215 214/214/214 208/208/208 
f 216/216/216 210/210/210 209/209/209 
f 216/216/216 217/217/217 210/210/210 
f 218/218/218 209/209/209 211/211/211 
f 213/213/213 218/218/218 211/211/211 
f 218/218/218 216/216/216 209/209/209 
f 207/207/207 219/219/219 212/212/212 
f 214/214/214 219/219/219 207/207/207 
f 212/212/212 220/220/220 213/213/213 
f 220/220/220 218/218/218 213/213/213 
f 219/219/219 220/220/220 212/212/212 
f 215/215/215 221/221/221 214/214/214 
f 222/222/222 221/221/221 215/215/215 
f 223/223/223 217/217/217 216/216/216 
f 223/223/223 224/224/224 217/217/217 
f 225/225/225 216/216/216 218/218/218 
f 220/220/220 225/225/225 218/218/218 
f 225/225/225 223/223/223 216/216/216 
f 214/214/214 226/226/226 219/219/219 
f 221/221/221 226/226/226 214/214/214 
f 219/219/219 227/227/227 220/220/220 
f 227/227/227 225/225/225 220/220/220 
f 226/226/226 227/227/227 219/219/219 
f 222/222/222 228/228/228 221/221/221 
f 229/229/229 228/228/228 222/222/222 
f 230/230/230 224/224/224 223/223/223 
f 230/230/230 231/231/231 224/224/224 
f 232/232/232 223/223/223 225/225/225 
f 227/227/227 232/232/232 225/225/225 
f 232/232/232 230/230/230 223/223/223 
f 221/221/221 233/233/233 226/226/226 
f 228/228/228 233/233/233 221/221/221 
f 226/226/226 234/234/234 227/227/227 
f 234/234/234 232/232/232 227/227/227 
f 233/233/233 234/234/234 226/226/226 
f 229/229/229 235/235/235 228/228/228 
f 236/236/236 235/235/235 229/229/229 
f 237/237/237 231/231/231 230/230/230 
f 237/237/237 238/238/238 231/231/231 
f 239/239/239 230/230/230 232/232/232 
f 234/234/234 239/239/239 232/232/232 
f 239/239/239 237/237/237 230/230/230 
f 228/228/228 240/240/240 233/233/233 
f 235/235/235 240/240/240 228/228/228 
f 233/233/233 241/241/241 234/234/234 
f 241/241/241 239/239/239 234/234/234 
f 240/240/240 241/241/241 233/233/233 
f 236/236/236 242/242/242 235/235/235 
f 243/243/243 242/242/242 236/236/236 
f 244/244/244 238/238/238 237/237/237 
f 244/244/244 245/245/245 238/238/238 
f 246/246/246 237/237/237 239/239/239 
f 241/241/241 246/246/246 239/239/239 
f 246/246/246 244/244/244 237/237/237 
f 235/235/235 247/247/247 240/240/240 
f 242/242/242 247/247/247 235/235/235 
f 240/240/240 248/248/248 241/241/241 
f 248/248/248 246/246/246 241/241/241 
f 247/247/247 248/248/248 240/240/240 
f 243/243/243 249/249/249 242/242/242 
f 250/250/250 249/249/249 243/243/243 
f 251/251/251 245/245/245 244/244/244 
f 251/251/251 252/252/252 245/245/245 
f 253/253/253 244/244/244 246/246/246 
f 248/248/248 253/253/253 246/246/246 
f 253/253/253 251/251/251 244/244/244 
f 242/242/242 254/254/254 247/247/247 
f 249/249/249 254/254/254 242/242/242 
f 247/247/247 255/255/255 248/248/248 
f 255/255/255 253/253/253 248/248/248 
f 254/254/254 255/255/255 247/247/247 
f 250/250/250 256/256/256 249/249/249 
f 257/257/257 256/256/256 250/250/250 
f 258/258/258 252/252/252 251/251/251 
f 258/258/258 259/259/259 252/252/252 
f 260/260/260 251/251/251 253/253/253 
f 255/255/255 260/260/260 253/253/253 
f 260/260/260 258/258/258 251/251/251 
f 249/249/249 261/261/261 254/254/254 
f 256/256/256 261/261/261 249/249/249 
f 254/254/254 262/262/262 255/255/255 
f 262/262/262 260/260/260 255/255/255 
f 261/261/261 262/262/262 254/254/254 
f 257/257/257 263/263/263 256/256/256 
f 264/264/264 263/263/263 257/257/257 
f 265/265/265 259/259/259 258/258/258 
f 265/265/265 266/266/266 259/259/259 
f 267/267/267 258/258/258 260/260/260 
f 262/262/262 267/267/267 260/260/260 
f 267/267/267 265/265/265 258/258/258 
f 256/256/256 268/268/268 261/261/261 
f 263/263/263 268/268/268 256/256/256 
f 261/261/261 269/269/269 262/262/262 
f 269/269/269 267/267/267 262/262/262 
f 268/268/268 269/269/269 261/261/261 
f 264/264/264 270/270/270 263/263/263 
f 271/271/271 270/270/270 264/264/264 
f 272/272/272 266/266/266 265/265/265 
f 272/272/272 273/273/273 266/266/266 
f 274/274/274 265/265/265 267/267/267 
f 269/269/269 274/274/274 267/267/267 
f 274/274/274 272/272/272 265/265/265 
f 263/263/263 275/275/275 268/268/268 
f 270/270/270 275/275/275 263/263/263 
f 268/268/268 276/276/276 269/269/269 
f 276/276/276 274/274/274 269/269/269 
f 275/275/275 276/276/276 268/268/268 
f 271/271/271 277/277/277 270/270/270 
f 278/278/278 277/277/277 271/271/271 
f 279/279/279 273/273/273 272/272/272 
f 279/279/279 280/280/280 273/273/273 
f 281/281/281 272/272/272 274/274/274 
f 276/276/276 281/281/281 274/274/274 
f 281/281/281 279/279/279 272/272/272 
f 270/270/270 282/282/282 275/275/275 
f 277/277/277 282/282/282 270/270/270 
f 275/275/275 283/283/283 276/276/276 
f 283/283/283 281/281/281 276/276/276 
f 282/282/282 283/283/283 275/275/275 
f 278/278/278 284/284/284 277/277/277 
f 285/285/285 284/284/284 278/278/278 
f 286/286/286 280/280/280 279/279/279 
f 286/286/286 287/287/287 280/280/280 
f 288/288/288 279/279/279 281/281/281 
f 283/283/283 288/288/288 281/281/281 
f 288/288/288 286/286/286 279/279/279 
f 277/277/277 289/289/289 282/282/282 
f 284/284/284 289/289/289 277/277/277 
f 282/282/282 290/290/290 283/283/283 
f 290/290/290 288/288/288 283/283/283 
f 289/289/289 290/290/290 282/282/282 
f 285/285/285 291/291/291 284/284/284 
f 292/292/292 291/291/291 285/285/285 
f 293/293/293 287/287/287 286/286/286 
f 293/293/293 294/294/294 287/287/287 
f 295/295/295 286/286/286 288/288/288 
f 290/290/290 295/295/295 288/288/288 
f 295/295/295 293/293/293 286/286/286 
f 284/284/284 296/296/296 289/289/289 
f 291/291/291 296/296/296 284/284/284 
f 289/289/289 297/297/297 290/290/290 
f 297/297/297 295/295/295 290/290/290 
f 296/296/296 297/297/297 289/289/289 
f 292/292/292 298/298/298 291/291/291 
f 299/299/299 298/298/298 292/292/292 
f 300/300/300 294/294/294 293/293/293 
f 300/300/300 301/301/301 294/294/294 
f 302/302/302 293/293/293 295/295/295 
f 297/297/297 302/302/302 295/295/295 
f 302/302/302 300/300/300 293/293/293 
f 291/291/291 303/303/303 296/296/296 
f 298/298/298 303/303/303 291/291/291 
f 296/296/296 304/304/304 297/297/297 
f 304/304/304 302/302/302 297/297/297 
f 303/303/303 304/304/304 296/296/296 
f 299/299/299 305/305/305 298/298/298 
f 306/306/306 305/305/305 299/299/299 
f 307/307/307 301/301/301 300/300/300 
f 307/307/307 308/308/308 301/301/301 
f 309/309/309 300/300/300 302/302/302 
f 304/304/304 309/309/309 302/302/302 
f 309/309/309 307/307/307 300/300/300 
f 298/298/298 310/310/310 303/303/303 
f 305/305/305 310/310/310 298/298/298 
f 303/303/303 311/311/311 304/304/304 
f 311/311/311 309/309/309 304/304/304 
f 310/310/310 311/311/311 303/303/303 
f 306/306/306 312/312/312 305/305/305 
f 313/313/313 312/312/312 306/306/306 
f 314/314/314 308/308/308 307/307/307 
f 314/314/314 315/315/315 308/308/308 
f 316/316/316 307/307/307 309/309/309 
f 311/311/311 316/316/316 309/309/309 
f 316/316/316 314/314/314 307/307/307 
f 305/305/305 317/317/317 310/310/310 
f 312/312/312 317/317/317 305/305/305 
f 310/310/310 318/318/318 311/311/311 
f 318/318/318 316/316/316 311/311/311 
f 317/317/317 318/318/318 310/310/310 
f 313/313/313 319/319/319 312/312/312 
f 320/320/320 319/319/319 313/313/313 
f 321/321/321 315/315/315 314/314/314 
f 321/321/321 322/322/322 315/315/315 
f 323/323/323 314/314/314 316/316/316 
f 318/318/318 323/323/323 316/316/316 
f 323/323/323 321/321/321 314/314/314 
f 312/312/312 324/324/324 317/317/317 
f 319/319/319 324/324/324 312/312/312 
f 317/317/317 325/325/325 318/318/318 
f 325/325/325 323/323/323 318/318/318 
f 324/324/324 325/325/325 317/317/317 
f 320/320/320 326/326/326 319/319/319 
f 327/327/327 326/326/326 320/320/320 
f 328/328/328 322/322/322 321/321/321 
f 328/328/328 329/329/329 322/322/322 
f 330/330/330 321/321/321 323/323/323 
f 325/325/325 330/330/330 323/323/323 
f 330/330/330 328/328/328 321/321/321 
f 319/319/319 331/331/331 324/324/324 
f 326/326/326 331/331/331 319/319/319 
f 324/324/324 332/332/332 325/325/325 
f 332/332/332 330/330/330 325/325/325 
f 331/331/331 332/332/332 324/324/324 
f 327/327/327 333/333/333 326/326/326 
f 334/334/334 333/333/333 327/327/327 
f 334/334/334 335/335/335 333/333/333 
f 336/336/336 329/329/329 328/328/328 
f 336/336/336 337/337/337 329/329/329 
f 338/338/338 328/328/328 330/330/330 
f 332/332/332 338/338/338 330/330/330 
f 338/338/338 336/336/336 328/328/328 
f 326/326/326 339/339/339 331/331/331 
f 333/333/333 339/339/339 326/326/326 
f 335/335/335 340/340/340 333/333/333 
f 333/333/333 340/340/340 339/339/339 
f 335/335/335 341/341/341 340/340/340 
f 331/331/331 342/342/342 332/332/332 
f 342/342/342 338/338/338 332/332/332 
f 339/339/339 342/342/342 331/331/331 
f 343/343/343 337/337/337 336/336/336 
f 343/343/343 344/344/344 337/337/337 
f 345/345/345 336/336/336 338/338/338 
f 342/342/342 345/345/345 338/338/338 
f 345/345/345 343/343/343 336/336/336 
f 339/339/339 346/346/346 342/342/342 
f 340/340/340 346/346/346 339/339/339 
f 346/346/346 345/345/345 342/342/342 
f 341/341/341 347/347/347 340/340/340 
f 340/340/340 347/347/347 346/346/346 
f 341/341/341 348/348/348 347/347/347 
f 346/346/346 349/349/349 345/345/345 
f 349/349/349 343/343/343 345/345/345 
f 347/347/347 349/349/349 346/346/346 
f 350/350/350 344/344/344 343/343/343 
f 349/349/349 350/350/350 343/343/343 
f 350/350/350 351/351/351 344/344/344 
f 348/348/348 352/352/352 347/347/347 
f 347/347/347 352/352/352 349/349/349 
f 352/352/352 350/350/350 349/349/349 
f 348/348/348 353/353/353 352/352/352 
f 354/354/354 351/351/351 350/350/350 
f 352/352/352 354/354/354 350/350/350 
f 353/353/353 354/354/354 352/352/352 
f 354/354/354 355/355/355 351/351/351 
f 353/353/353 356/356/356 354/354/354 
f 356/356/356 355/355/355 354/354/354 
f 356/356/356 357/357/357 355/355/355 
