# exported by StudySceneExporter from mesh 'cover'
mtllib materials.mtl
v 0.00590205 -0.00870532 -0.00355835
v 0.00632545 -0.00892433 -0.0036589
v 0.00590205 -0.00892433 -0.00355835
v 0.00632545 -0.00870532 -0.0036589
v 0.00661854 -0.00892433 -0.00394299
v 0.00590205 0.008751609 -0.00355835
v 0.00661854 -0.00870532 -0.00394299
v 0.00683718 -0.00892433 -0.00436136
v 0.00632545 0.008751609 -0.00365891
v 0.00590205 0.00888157 -0.00355835
v 0.00632545 0.00888157 -0.00365891
v 0.00661854 0.008751609 -0.00394299
v 0.00661854 0.00888157 -0.00394299
v 0.00683718 -0.00870532 -0.00436136
v 0.00693511 -0.00892433 -0.00485576
v 0.00683718 0.008751609 -0.00436136
v 0.00683718 0.00888157 -0.00436136
v 0.00693511 -0.00870532 -0.00485576
v 0.00683718 -0.00892433 -0.00535015
v 0.00693511 0.008751609 -0.00485576
v 0.00693511 0.00888157 -0.00485576
v 0.00683718 -0.00870532 -0.00535015
v 0.00661854 -0.00892433 -0.00576853
v 0.00683718 0.008751609 -0.00535015
v 0.00683718 0.00888157 -0.00535015
v 0.00661854 -0.00870532 -0.00576853
v 0.00632545 -0.00892433 -0.00605261
v 0.00661854 0.008751609 -0.00576853
v 0.00661854 0.00888157 -0.00576853
v 0.00632545 -0.00870532 -0.00605261
v 0.00590205 -0.00892433 -0.00615316
v 0.00590205 -0.00870532 -0.00615316
v 0.00632545 0.008751609 -0.00605261
v 0.00632545 0.00888157 -0.00605261
v 0.00590205 0.008751609 -0.00615316
v 0.00590205 0.00888157 -0.00615316
v 0.00625885 0.00888157 -0.00593108
v 0.00588614 0.008751609 -0.0060155
v 0.00588614 0.00888157 -0.0060155
v 0.00625885 0.008751609 -0.00593108
v 0.00650738 0.00888157 -0.00568578
v 0.00625885 -0.00870532 -0.00593108
v 0.00588614 -0.00870532 -0.0060155
v 0.00650738 0.008751609 -0.00568578
v 0.006706479 0.00888157 -0.00530409
v 0.00625885 -0.00892433 -0.00593108
v 0.00588614 -0.00892433 -0.0060155
v 0.00650738 -0.00892433 -0.00568578
v 0.00650738 -0.00870532 -0.00568578
v 0.006706479 -0.00892433 -0.00530409
v 0.006706479 -0.00870532 -0.00530409
v 0.00679653 -0.00892433 -0.00485576
v 0.006706479 0.008751609 -0.00530409
v 0.00679653 0.00888157 -0.00485576
v 0.00679653 -0.00870532 -0.00485576
v 0.006706479 -0.00892433 -0.00440742
v 0.00679653 0.008751609 -0.00485576
v 0.006706479 0.00888157 -0.00440743
v 0.006706479 -0.00870532 -0.00440742
v 0.00650738 -0.00892433 -0.00402573
v 0.006706479 0.008751609 -0.00440743
v 0.00650738 0.00888157 -0.00402573
v 0.00650738 -0.00870532 -0.00402573
v 0.00625885 -0.00892433 -0.00378043
v 0.00650738 0.008751609 -0.00402573
v 0.00625885 0.00888157 -0.00378044
v 0.00625885 -0.00870532 -0.00378043
v 0.00588614 -0.00892433 -0.00369601
v 0.00588614 -0.00870532 -0.00369601
v 0.00625885 0.008751609 -0.00378044
v 0.00588614 0.00888157 -0.00369601
v 0.00588614 0.008751609 -0.00369601
v -0.00662498 0.008751609 -0.00371429
v 0.00588614 0.00888157 -0.00369601
v -0.00662498 0.00888157 -0.0037143
v 0.00588614 0.008751609 -0.00369601
v -0.00662498 -0.00870532 -0.00371429
v 0.00588614 -0.00870532 -0.00369601
v -0.00662498 -0.00892433 -0.00371429
v 0.00588614 -0.00892433 -0.00369601
v -0.00673568 -0.00870532 -0.00371445
v -0.00673568 -0.00892433 -0.00371445
v -0.00673568 0.008751609 -0.00371446
v -0.00662498 0.008751609 -0.00371429
v -0.00688308 -0.00870532 -0.00371467
v -0.00688308 -0.00892433 -0.00371467
v -0.00688308 0.008751609 -0.00371467
v -0.00673568 0.00888157 -0.00371446
v -0.00662498 0.00888157 -0.0037143
v -0.00688308 0.00888157 -0.00371467
v -0.00673169 0.00888157 -0.00357594
v -0.00687923 0.008751609 -0.00357615
v -0.00687923 0.00888157 -0.00357615
v -0.00673169 0.008751609 -0.00357594
v -0.00662088 0.00888157 -0.00357579
v -0.00673169 -0.00870532 -0.00357594
v -0.00687923 -0.00870532 -0.00357614
v -0.00662088 0.008751609 -0.00357579
v -0.00673169 -0.00892433 -0.00357594
v -0.00687923 -0.00892433 -0.00357614
v -0.00662088 -0.00870532 -0.00357578
v -0.00662088 -0.00892433 -0.00357578
v 0.00590205 -0.00892433 -0.00355835
v 0.00590205 -0.00870532 -0.00355835
v 0.00590205 0.008751609 -0.00355835
v 0.00590205 0.00888157 -0.00355835
v -0.00673169 -0.00892433 -0.00357594
v -0.00688124 -0.00892433 -0.00364839
v -0.00687923 -0.00892433 -0.00357614
v -0.00673377 -0.00892433 -0.00364818
v -0.00688308 -0.00892433 -0.00371467
v -0.00673568 -0.00892433 -0.00371445
v -0.00662088 -0.00892433 -0.00357578
v -0.00662302 -0.00892433 -0.00364802
v -0.00662498 -0.00892433 -0.00371429
v 0.00588614 -0.00892433 -0.00369601
v 0.00589375 -0.00892433 -0.00363014
v 0.00590205 -0.00892433 -0.00355835
v 0.00632545 -0.00892433 -0.0036589
v 0.00629072 -0.00892433 -0.00372228
v 0.00625885 -0.00892433 -0.00378043
v 0.00650738 -0.00892433 -0.00402573
v 0.00656057 -0.00892433 -0.00398614
v 0.00661854 -0.00892433 -0.00394299
v 0.00683718 -0.00892433 -0.00436136
v 0.006706479 -0.00892433 -0.00440742
v 0.00676901 -0.00892433 -0.00438538
v 0.00693511 -0.00892433 -0.00485576
v 0.00686284 -0.00892433 -0.00485576
v 0.00679653 -0.00892433 -0.00485576
v 0.006706479 -0.00892433 -0.00530409
v 0.00676901 -0.00892433 -0.005326129
v 0.00683718 -0.00892433 -0.00535015
v 0.00661854 -0.00892433 -0.00576853
v 0.00650738 -0.00892433 -0.00568578
v 0.00656057 -0.00892433 -0.00572537
v 0.00632545 -0.00892433 -0.00605261
v 0.00629072 -0.00892433 -0.00598923
v 0.00625885 -0.00892433 -0.00593108
v 0.00588614 -0.00892433 -0.0060155
v 0.00589375 -0.00892433 -0.00608137
v 0.00590205 -0.00892433 -0.00615316
v -0.0066218 -0.00892433 -0.00615345
v -0.00662194 -0.00892433 -0.00601488
v -0.00662187 -0.00892433 -0.00608118
v -0.0067351 -0.00892433 -0.00615345
v -0.0067351 -0.00892433 -0.00608118
v -0.0067351 -0.00892433 -0.00601488
v -0.0067351 -0.00870532 -0.00601488
v -0.00662194 -0.00892433 -0.00601488
v -0.0067351 -0.00892433 -0.00601488
v -0.00662194 -0.00870532 -0.00601488
v -0.0067351 0.008751609 -0.00601488
v 0.00588614 -0.00870532 -0.0060155
v 0.00588614 -0.00892433 -0.0060155
v 0.00588614 0.008751609 -0.0060155
v -0.00662194 0.008751609 -0.00601488
v 0.00588614 0.00888157 -0.0060155
v -0.00662194 0.00888157 -0.00601488
v -0.0067351 0.00888157 -0.00601488
v -0.0067351 -0.00870532 -0.00615345
v -0.0067351 -0.00892433 -0.00608118
v -0.0067351 -0.00892433 -0.00615345
v -0.0067351 -0.00870532 -0.00608118
v -0.0067351 0.008751609 -0.00615346
v -0.0067351 -0.00870532 -0.00601488
v -0.0067351 -0.00892433 -0.00601488
v -0.0067351 0.008751609 -0.00601488
v -0.0067351 0.008751609 -0.00608118
v -0.0067351 0.00888157 -0.00615346
v -0.0067351 0.00888157 -0.00608118
v -0.0067351 0.00888157 -0.00601488
v -0.00688308 -0.00870532 -0.00371467
v -0.00688124 -0.00892433 -0.00364839
v -0.00688308 -0.00892433 -0.00371467
v -0.00688124 -0.00870532 -0.00364839
v -0.00688308 0.008751609 -0.00371467
v -0.00687923 -0.00870532 -0.00357614
v -0.00687923 -0.00892433 -0.00357614
v -0.00688124 0.008751609 -0.00364839
v -0.00687923 0.008751609 -0.00357615
v -0.00687923 0.00888157 -0.00357615
v -0.00688124 0.00888157 -0.00364839
v -0.00688308 0.00888157 -0.00371467
v -0.0067351 0.00888157 -0.00608118
v -0.00662194 0.00888157 -0.00601488
v -0.0067351 0.00888157 -0.00601488
v -0.00662187 0.00888157 -0.00608119
v -0.0066218 0.00888157 -0.00615345
v -0.0067351 0.00888157 -0.00615346
v 0.00590205 0.00888157 -0.00615316
v 0.00589375 0.00888157 -0.00608137
v 0.00588614 0.00888157 -0.0060155
v 0.00632545 0.00888157 -0.00605261
v 0.00629072 0.00888157 -0.00598923
v 0.00625885 0.00888157 -0.00593108
v 0.00650738 0.00888157 -0.00568578
v 0.00656057 0.00888157 -0.00572537
v 0.00661854 0.00888157 -0.00576853
v 0.00683718 0.00888157 -0.00535015
v 0.006706479 0.00888157 -0.00530409
v 0.00676901 0.00888157 -0.005326129
v 0.00693511 0.00888157 -0.00485576
v 0.00686284 0.00888157 -0.00485576
v 0.00679653 0.00888157 -0.00485576
v 0.006706479 0.00888157 -0.00440743
v 0.00676901 0.00888157 -0.00438539
v 0.00683718 0.00888157 -0.00436136
v 0.00661854 0.00888157 -0.00394299
v 0.00650738 0.00888157 -0.00402573
v 0.00656057 0.00888157 -0.00398614
v 0.00632545 0.00888157 -0.00365891
v 0.00629072 0.00888157 -0.00372229
v 0.00625885 0.00888157 -0.00378044
v 0.00588614 0.00888157 -0.00369601
v 0.00589375 0.00888157 -0.00363015
v 0.00590205 0.00888157 -0.00355835
v -0.00662498 0.00888157 -0.0037143
v -0.00662302 0.00888157 -0.00364802
v -0.00662088 0.00888157 -0.00357579
v -0.00673568 0.00888157 -0.00371446
v -0.00673377 0.00888157 -0.00364818
v -0.00688308 0.00888157 -0.00371467
v -0.00673169 0.00888157 -0.00357594
v -0.00688124 0.00888157 -0.00364839
v -0.00687923 0.00888157 -0.00357615
v -0.0067351 0.008751609 -0.00615346
v -0.0066218 0.00888157 -0.00615345
v -0.0067351 0.00888157 -0.00615346
v -0.0066218 0.008751609 -0.00615345
v -0.0067351 -0.00870532 -0.00615345
v 0.00590205 0.008751609 -0.00615316
v 0.00590205 0.00888157 -0.00615316
v 0.00590205 -0.00870532 -0.00615316
v -0.0066218 -0.00870532 -0.00615345
v -0.0067351 -0.00892433 -0.00615345
v 0.00590205 -0.00892433 -0.00615316
v -0.0066218 -0.00892433 -0.00615345
vt 0.146638 0.699031
vt 0.150049 0.697495
vt 0.146627 0.697515
vt 0.15006 0.699011
vt 0.153263 0.697475
vt 0.147533 0.819953
vt 0.153271 0.698994
vt 0.156982 0.697467
vt 0.150953 0.819933
vt 0.147539 0.820852
vt 0.15096 0.820832
vt 0.154165 0.819916
vt 0.15417 0.820813
vt 0.156987 0.698984
vt 0.160951 0.697454
vt 0.157882 0.819905
vt 0.157885 0.820806
vt 0.160957 0.69897
vt 0.164921 0.697437
vt 0.161852 0.819892
vt 0.161855 0.820792
vt 0.164928 0.698953
vt 0.168639 0.697419
vt 0.165823 0.819875
vt 0.165827 0.820775
vt 0.168648 0.698934
vt 0.171853 0.697396
vt 0.169542 0.819856
vt 0.169548 0.820757
vt 0.171864 0.698913
vt 0.175279 0.697372
vt 0.17529 0.698889
vt 0.172758 0.819834
vt 0.172765 0.820734
vt 0.176184 0.81981
vt 0.176191 0.82071
vt 0.149299 0.952325
vt 0.146316 0.951428
vt 0.146323 0.952332
vt 0.149292 0.951421
vt 0.151999 0.952316
vt 0.148396 0.830423
vt 0.145421 0.830429
vt 0.151995 0.951416
vt 0.155328 0.952322
vt 0.148385 0.828902
vt 0.14541 0.828908
vt 0.151085 0.828895
vt 0.151093 0.830418
vt 0.154403 0.828898
vt 0.154414 0.830413
vt 0.157912 0.828854
vt 0.155321 0.951412
vt 0.158864 0.952277
vt 0.157941 0.830367
vt 0.161419 0.828761
vt 0.158847 0.951365
vt 0.162397 0.952184
vt 0.161467 0.830276
vt 0.164726 0.828634
vt 0.162368 0.951274
vt 0.165722 0.952057
vt 0.164789 0.830152
vt 0.167418 0.828503
vt 0.165684 0.951152
vt 0.168412 0.951925
vt 0.167482 0.830024
vt 0.170405 0.828365
vt 0.170444 0.829901
vt 0.168373 0.951024
vt 0.171365 0.951788
vt 0.171341 0.9509
vt 0.269673 0.950138
vt 0.171365 0.951788
vt 0.269694 0.951045
vt 0.171341 0.9509
vt 0.268773 0.829136
vt 0.170444 0.829901
vt 0.268759 0.827613
vt 0.170405 0.828365
vt 0.269633 0.829101
vt 0.26962 0.82758
vt 0.27053 0.950095
vt 0.269673 0.950138
vt 0.270788 0.829071
vt 0.27077 0.827552
vt 0.271684 0.950069
vt 0.270551 0.950994
vt 0.269694 0.951045
vt 0.2717 0.950973
vt 0.0482779 0.82158
vt 0.0471125 0.820688
vt 0.0471191 0.821587
vt 0.0482713 0.82068
vt 0.0491477 0.821576
vt 0.0473768 0.699759
vt 0.046218 0.699766
vt 0.0491411 0.820676
vt 0.0473655 0.698242
vt 0.0462068 0.69825
vt 0.0482466 0.699755
vt 0.0482354 0.698238
vt 0.146627 0.697515
vt 0.146638 0.699031
vt 0.147533 0.819953
vt 0.147539 0.820852
vt 0.196418 0.982539
vt 0.195243 0.98197
vt 0.195258 0.982537
vt 0.196401 0.981971
vt 0.195228 0.981449
vt 0.196386 0.981451
vt 0.197289 0.98254
vt 0.197272 0.981973
vt 0.197256 0.981452
vt 0.295565 0.981595
vt 0.295625 0.982113
vt 0.29569 0.982677
vt 0.299017 0.981887
vt 0.298744 0.981389
vt 0.298494 0.980932
vt 0.300447 0.979005
vt 0.300865 0.979316
vt 0.30132 0.979655
vt 0.303038 0.976367
vt 0.302011 0.976005
vt 0.302503 0.976179
vt 0.303808 0.972483
vt 0.30324 0.972483
vt 0.302719 0.972483
vt 0.302011 0.96896
vt 0.302503 0.968787
vt 0.303038 0.968598
vt 0.30132 0.96531
vt 0.300447 0.96596
vt 0.300865 0.965649
vt 0.299017 0.963078
vt 0.298744 0.963576
vt 0.298494 0.964033
vt 0.295565 0.96337
vt 0.295625 0.962852
vt 0.29569 0.962288
vt 0.197281 0.962286
vt 0.19728 0.963374
vt 0.197281 0.962853
vt 0.196391 0.962286
vt 0.196391 0.962853
vt 0.196391 0.963375
vt 0.0462179 0.831148
vt 0.0470923 0.829624
vt 0.0462068 0.829627
vt 0.0471034 0.831145
vt 0.0471129 0.952146
vt 0.145421 0.830429
vt 0.14541 0.828908
vt 0.146316 0.951428
vt 0.0479983 0.952144
vt 0.146323 0.952332
vt 0.0480049 0.953048
vt 0.0471195 0.95305
vt 0.168231 0.959694
vt 0.16975 0.960195
vt 0.16975 0.959694
vt 0.168231 0.960195
vt 0.0471085 0.959694
vt 0.168231 0.960655
vt 0.16975 0.960655
vt 0.0471085 0.960655
vt 0.0471085 0.960195
vt 0.0462067 0.959694
vt 0.0462067 0.960195
vt 0.0462067 0.960655
vt 0.270788 0.829071
vt 0.271283 0.827532
vt 0.27077 0.827552
vt 0.271309 0.829052
vt 0.271684 0.950069
vt 0.271877 0.82904
vt 0.27185 0.827518
vt 0.272201 0.95005
vt 0.272768 0.950037
vt 0.27279 0.950937
vt 0.272222 0.950953
vt 0.2717 0.950973
vt 0.288391 0.953783
vt 0.287502 0.954304
vt 0.288391 0.954304
vt 0.287501 0.953783
vt 0.2875 0.953215
vt 0.288391 0.953215
vt 0.189092 0.953217
vt 0.189157 0.953781
vt 0.189217 0.954299
vt 0.185765 0.954007
vt 0.186037 0.954505
vt 0.186288 0.954962
vt 0.184335 0.95689
vt 0.183917 0.956578
vt 0.183461 0.956239
vt 0.181744 0.959527
vt 0.182771 0.959889
vt 0.182279 0.959716
vt 0.180974 0.963412
vt 0.181542 0.963412
vt 0.182063 0.963412
vt 0.182771 0.966935
vt 0.182279 0.967108
vt 0.181744 0.967296
vt 0.183461 0.970584
vt 0.184335 0.969934
vt 0.183917 0.970245
vt 0.185765 0.972816
vt 0.186037 0.972318
vt 0.186288 0.971861
vt 0.189217 0.972525
vt 0.189157 0.973042
vt 0.189092 0.973606
vt 0.287525 0.972381
vt 0.28751 0.972902
vt 0.287493 0.973469
vt 0.288395 0.97238
vt 0.28838 0.9729
vt 0.289554 0.972378
vt 0.288364 0.973468
vt 0.289539 0.972899
vt 0.289523 0.973466
vt 0.275478 0.819077
vt 0.274593 0.819983
vt 0.275485 0.819976
vt 0.274587 0.819083
vt 0.274584 0.698155
vt 0.176184 0.81981
vt 0.176191 0.82071
vt 0.17529 0.698889
vt 0.273692 0.698162
vt 0.274572 0.696639
vt 0.175279 0.697372
vt 0.273681 0.696645
vn 0.2310651 1.58512E-07 0.9729383
vn 0.48072 1.42861E-07 0.8768741
vn 0.2310651 1.58512E-07 0.9729383
vn 0.48072 1.43331E-07 0.8768741
vn 0.8013298 0 0.5982229
vn 0.2310651 1.58512E-07 0.9729383
vn 0.8013298 0 0.5982229
vn 0.9432368 0 0.332121
vn 0.48072 1.43331E-07 0.8768741
vn 0.2310651 1.58512E-07 0.9729383
vn 0.48072 1.42861E-07 0.8768741
vn 0.8013298 0 0.5982229
vn 0.8013298 0 0.5982229
vn 0.9432368 0 0.332121
vn 1 0 0
vn 0.9432368 0 0.332121
vn 0.9432368 0 0.332121
vn 1 0 0
vn 0.9432368 0 -0.332121
vn 1 0 0
vn 1 0 0
vn 0.9432368 0 -0.332121
vn 0.8013298 0 -0.5982229
vn 0.9432368 0 -0.332121
vn 0.9432368 0 -0.332121
vn 0.8013298 0 -0.5982229
vn 0.48072 -1.42861E-07 -0.8768741
vn 0.8013298 0 -0.5982229
vn 0.8013298 0 -0.5982229
vn 0.48072 -1.42861E-07 -0.8768741
vn 0.2310651 -1.58512E-07 -0.9729383
vn 0.2310651 -1.58512E-07 -0.9729383
vn 0.48072 -1.42861E-07 -0.8768741
vn 0.48072 -1.42861E-07 -0.8768741
vn 0.2310651 -1.58512E-07 -0.9729383
vn 0.2310651 -1.58512E-07 -0.9729383
vn -0.4801297 1.429139E-07 0.8771975
vn -0.2209079 1.590339E-07 0.9752946
vn -0.2209079 1.588959E-07 0.9752946
vn -0.4801297 1.443039E-07 0.8771975
vn -0.8042619 0 0.5942749
vn -0.4801297 1.443039E-07 0.8771975
vn -0.2209079 1.590339E-07 0.9752946
vn -0.8042619 0 0.5942749
vn -0.9429184 0 0.3330241
vn -0.4801297 1.429139E-07 0.8771975
vn -0.2209079 1.588959E-07 0.9752946
vn -0.8042619 0 0.5942749
vn -0.8042619 0 0.5942749
vn -0.942918 0 0.333025
vn -0.9429184 0 0.3330241
vn -1 0 0
vn -0.9429184 0 0.3330241
vn -1 0 0
vn -1 0 0
vn -0.942918 0 -0.333025
vn -1 0 0
vn -0.942918 0 -0.333025
vn -0.942918 0 -0.333025
vn -0.8042619 0 -0.5942749
vn -0.942918 0 -0.333025
vn -0.8042619 0 -0.5942749
vn -0.8042619 0 -0.5942749
vn -0.4801297 -1.429139E-07 -0.8771975
vn -0.8042619 0 -0.5942749
vn -0.4801297 -1.429139E-07 -0.8771975
vn -0.4801297 -1.433469E-07 -0.8771975
vn -0.2209079 -1.588959E-07 -0.9752946
vn -0.2209079 -1.588959E-07 -0.9752946
vn -0.4801297 -1.433469E-07 -0.8771975
vn -0.2209079 -1.588959E-07 -0.9752946
vn -0.2209079 -1.588959E-07 -0.9752946
vn 0.00146111 -1.62921E-07 -0.9999989
vn 0.00146111 -1.62921E-07 -0.9999989
vn 0.00146111 -1.62921E-07 -0.9999989
vn 0.00146111 -1.62921E-07 -0.9999989
vn 0.0014611 -1.62921E-07 -0.9999989
vn 0.0014611 -1.62921E-07 -0.9999989
vn 0.0014611 -1.62921E-07 -0.9999989
vn 0.0014611 -1.62921E-07 -0.9999989
vn 0.00146128 -1.62921E-07 -0.9999989
vn 0.00146128 -1.62921E-07 -0.9999989
vn 0.00146128 -1.67727E-07 -0.9999989
vn 0.00146068 -1.62921E-07 -0.9999989
vn 0.00146128 -1.62921E-07 -0.9999989
vn 0.00146128 -1.62921E-07 -0.9999989
vn 0.00146128 -1.67727E-07 -0.9999989
vn 0.00146128 -1.62921E-07 -0.9999989
vn 0.00146068 -1.62921E-07 -0.9999989
vn 0.00146128 -1.62921E-07 -0.9999989
vn -0.00139224 1.62921E-07 0.999999
vn -0.00139224 1.62921E-07 0.999999
vn -0.00139224 1.62921E-07 0.999999
vn -0.00139224 1.62921E-07 0.999999
vn -0.00139222 1.62921E-07 0.999999
vn -0.00139224 1.62921E-07 0.999999
vn -0.00139224 1.62921E-07 0.999999
vn -0.00139221 1.70131E-07 0.999999
vn -0.00139224 1.62921E-07 0.999999
vn -0.00139224 1.62921E-07 0.999999
vn -0.0013922 1.62921E-07 0.999999
vn -0.0013922 1.62921E-07 0.999999
vn -0.0013922 1.62921E-07 0.999999
vn -0.0013922 1.62921E-07 0.999999
vn -0.00139221 1.70131E-07 0.999999
vn -0.00139222 1.62921E-07 0.999999
vn 0 -1 1.62921E-07
vn 0 -1 1.62921E-07
vn 0 -1 1.62921E-07
vn 0 -1 1.62921E-07
vn 0 -1 1.62921E-07
vn 0 -1 1.62921E-07
vn 0 -1 1.62921E-07
vn 0 -1 1.62921E-07
vn 0 -1 1.62921E-07
vn 0 -1 1.62921E-07
vn 0 -1 1.62921E-07
vn 0 -1 1.62921E-07
vn 0 -1 1.62921E-07
vn 0 -1 1.62921E-07
vn 0 -1 1.62921E-07
vn 0 -1 1.62921E-07
vn 0 -1 1.62921E-07
vn 0 -1 1.62921E-07
vn 0 -1 1.62921E-07
vn 0 -1 1.62921E-07
vn 0 -1 1.62921E-07
vn 0 -1 1.62921E-07
vn 0 -1 1.62921E-07
vn 0 -1 1.62921E-07
vn 0 -1 1.62921E-07
vn 0 -1 1.62921E-07
vn 0 -1 1.62921E-07
vn 0 -1 1.62921E-07
vn 0 -1 1.62921E-07
vn 0 -1 1.62921E-07
vn 0 -1 1.62921E-07
vn 0 -1 1.62921E-07
vn 0 -1 1.62921E-07
vn 0 -1 1.62921E-07
vn 0 -1 1.62921E-07
vn 0 -1 1.62921E-07
vn 0 -1 1.62921E-07
vn 0 -1 1.62921E-07
vn 0 -1 1.62921E-07
vn 0 -1 1.62921E-07
vn 0 -1 1.62921E-07
vn 0 -1 1.62921E-07
vn 4.89417E-05 1.62921E-07 1
vn 4.89417E-05 1.62921E-07 1
vn 4.89417E-05 1.62921E-07 1
vn 4.89417E-05 1.62921E-07 1
vn 4.89417E-05 1.62921E-07 1
vn 4.94011E-05 1.62921E-07 1
vn 4.94011E-05 1.62921E-07 1
vn 4.94011E-05 1.62921E-07 1
vn 4.94011E-05 1.62921E-07 1
vn 4.94011E-05 1.62921E-07 1
vn 4.94011E-05 1.62921E-07 1
vn 4.89417E-05 1.62921E-07 1
vn -1 0 0
vn -1 0 0
vn -1 0 0
vn -1 0 0
vn -1 0 0
vn -1 0 0
vn -1 0 0
vn -1 0 0
vn -1 0 0
vn -1 0 0
vn -1 0 0
vn -1 0 0
vn -0.9996136 0 0.02780042
vn -0.9996136 0 0.02780042
vn -0.9996136 0 0.02780042
vn -0.9996136 0 0.02780042
vn -0.9996136 0 0.02780039
vn -0.9996133 0 0.02780911
vn -0.9996133 0 0.02780911
vn -0.9996133 0 0.02780911
vn -0.9996133 0 0.02780911
vn -0.9996133 0 0.02780911
vn -0.9996133 0 0.02780911
vn -0.9996136 0 0.02780039
vn 0 1 -1.62921E-07
vn 0 1 -1.62921E-07
vn 0 1 -1.62921E-07
vn 0 1 -1.62921E-07
vn 0 1 -1.62921E-07
vn 0 1 -1.62921E-07
vn 0 1 -1.62921E-07
vn 0 1 -1.62921E-07
vn 0 1 -1.62921E-07
vn 0 1 -1.62921E-07
vn 0 1 -1.62921E-07
vn 0 1 -1.62921E-07
vn 0 1 -1.62921E-07
vn 0 1 -1.62921E-07
vn 0 1 -1.62921E-07
vn 0 1 -1.62921E-07
vn 0 1 -1.62921E-07
vn 0 1 -1.62921E-07
vn 0 1 -1.62921E-07
vn 0 1 -1.62921E-07
vn 0 1 -1.62921E-07
vn 0 1 -1.62921E-07
vn 0 1 -1.62921E-07
vn 0 1 -1.62921E-07
vn 0 1 -1.62921E-07
vn 0 1 -1.62921E-07
vn 0 1 -1.62921E-07
vn 0 1 -1.62921E-07
vn 0 1 -1.62921E-07
vn 0 1 -1.62921E-07
vn 0 1 -1.62921E-07
vn 0 1 -1.62921E-07
vn 0 1 -1.62921E-07
vn 1.21702E-07 1 -1.71738E-07
vn 1.21645E-07 1 -1.71733E-07
vn 1.21645E-07 1 -1.71733E-07
vn 0 1 -1.62921E-07
vn 0 1 -1.62921E-07
vn 0 1 -1.62921E-07
vn 0 1 -1.62921E-07
vn 0 1 -1.62921E-07
vn 0 1 -1.62921E-07
vn 2.29586E-05 -1.62921E-07 -1
vn 2.29586E-05 -1.62921E-07 -1
vn 2.29586E-05 -1.62921E-07 -1
vn 2.29586E-05 -1.62921E-07 -1
vn 2.29586E-05 -1.62921E-07 -1
vn 2.31955E-05 -1.62921E-07 -1
vn 2.31955E-05 -1.62921E-07 -1
vn 2.31955E-05 -1.62921E-07 -1
vn 2.29586E-05 -1.62921E-07 -1
vn 2.29586E-05 -1.62921E-07 -1
vn 2.31955E-05 -1.62921E-07 -1
vn 2.29586E-05 -1.62921E-07 -1
usemtl cover
f 1/1/1 3/3/3 2/2/2 
f 2/2/2 4/4/4 1/1/1 
f 4/4/4 2/2/2 5/5/5 
f 6/6/6 1/1/1 4/4/4 
f 5/5/5 7/7/7 4/4/4 
f 7/7/7 5/5/5 8/8/8 
f 4/4/4 9/9/9 6/6/6 
f 9/9/9 4/4/4 7/7/7 
f 10/10/10 6/6/6 9/9/9 
f 9/9/9 11/11/11 10/10/10 
f 11/11/11 9/9/9 12/12/12 
f 7/7/7 12/12/12 9/9/9 
f 12/12/12 13/13/13 11/11/11 
f 8/8/8 14/14/14 7/7/7 
f 12/12/12 7/7/7 14/14/14 
f 14/14/14 8/8/8 15/15/15 
f 13/13/13 12/12/12 16/16/16 
f 14/14/14 16/16/16 12/12/12 
f 16/16/16 17/17/17 13/13/13 
f 15/15/15 18/18/18 14/14/14 
f 16/16/16 14/14/14 18/18/18 
f 18/18/18 15/15/15 19/19/19 
f 17/17/17 16/16/16 20/20/20 
f 18/18/18 20/20/20 16/16/16 
f 20/20/20 21/21/21 17/17/17 
f 19/19/19 22/22/22 18/18/18 
f 20/20/20 18/18/18 22/22/22 
f 22/22/22 19/19/19 23/23/23 
f 21/21/21 20/20/20 24/24/24 
f 22/22/22 24/24/24 20/20/20 
f 24/24/24 25/25/25 21/21/21 
f 23/23/23 26/26/26 22/22/22 
f 24/24/24 22/22/22 26/26/26 
f 26/26/26 23/23/23 27/27/27 
f 25/25/25 24/24/24 28/28/28 
f 26/26/26 28/28/28 24/24/24 
f 28/28/28 29/29/29 25/25/25 
f 27/27/27 30/30/30 26/26/26 
f 28/28/28 26/26/26 30/30/30 
f 30/30/30 27/27/27 31/31/31 
f 31/31/31 32/32/32 30/30/30 
f 29/29/29 28/28/28 33/33/33 
f 30/30/30 33/33/33 28/28/28 
f 33/33/33 30/30/30 32/32/32 
f 33/33/33 34/34/34 29/29/29 
f 32/32/32 35/35/35 33/33/33 
f 34/34/34 33/33/33 35/35/35 
f 35/35/35 36/36/36 34/34/34 
f 37/37/37 39/39/39 38/38/38 
f 38/38/38 40/40/40 37/37/37 
f 41/41/41 37/37/37 40/40/40 
f 42/42/42 40/40/40 38/38/38 
f 38/38/38 43/43/43 42/42/42 
f 40/40/40 44/44/44 41/41/41 
f 45/45/45 41/41/41 44/44/44 
f 46/46/46 42/42/42 43/43/43 
f 43/43/43 47/47/47 46/46/46 
f 42/42/42 46/46/46 48/48/48 
f 40/40/40 42/42/42 49/49/49 
f 48/48/48 49/49/49 42/42/42 
f 49/49/49 44/44/44 40/40/40 
f 49/49/49 48/48/48 50/50/50 
f 50/50/50 51/51/51 49/49/49 
f 44/44/44 49/49/49 51/51/51 
f 51/51/51 50/50/50 52/52/52 
f 44/44/44 53/53/53 45/45/45 
f 51/51/51 53/53/53 44/44/44 
f 54/54/54 45/45/45 53/53/53 
f 52/52/52 55/55/55 51/51/51 
f 53/53/53 51/51/51 55/55/55 
f 55/55/55 52/52/52 56/56/56 
f 53/53/53 57/57/57 54/54/54 
f 55/55/55 57/57/57 53/53/53 
f 58/58/58 54/54/54 57/57/57 
f 56/56/56 59/59/59 55/55/55 
f 57/57/57 55/55/55 59/59/59 
f 59/59/59 56/56/56 60/60/60 
f 57/57/57 61/61/61 58/58/58 
f 59/59/59 61/61/61 57/57/57 
f 62/62/62 58/58/58 61/61/61 
f 60/60/60 63/63/63 59/59/59 
f 61/61/61 59/59/59 63/63/63 
f 63/63/63 60/60/60 64/64/64 
f 61/61/61 65/65/65 62/62/62 
f 63/63/63 65/65/65 61/61/61 
f 66/66/66 62/62/62 65/65/65 
f 64/64/64 67/67/67 63/63/63 
f 65/65/65 63/63/63 67/67/67 
f 67/67/67 64/64/64 68/68/68 
f 68/68/68 69/69/69 67/67/67 
f 65/65/65 70/70/70 66/66/66 
f 67/67/67 70/70/70 65/65/65 
f 70/70/70 67/67/67 69/69/69 
f 71/71/71 66/66/66 70/70/70 
f 69/69/69 72/72/72 70/70/70 
f 70/70/70 72/72/72 71/71/71 
f 73/73/73 75/75/75 74/74/74 
f 74/74/74 76/76/76 73/73/73 
f 77/77/77 73/73/73 76/76/76 
f 76/76/76 78/78/78 77/77/77 
f 79/79/79 77/77/77 78/78/78 
f 78/78/78 80/80/80 79/79/79 
f 81/81/81 77/77/77 79/79/79 
f 79/79/79 82/82/82 81/81/81 
f 77/77/77 81/81/81 83/83/83 
f 83/83/83 84/84/84 77/77/77 
f 85/85/85 81/81/81 82/82/82 
f 83/83/83 81/81/81 85/85/85 
f 82/82/82 86/86/86 85/85/85 
f 85/85/85 87/87/87 83/83/83 
f 84/84/84 83/83/83 88/88/88 
f 88/88/88 83/83/83 87/87/87 
f 88/88/88 89/89/89 84/84/84 
f 87/87/87 90/90/90 88/88/88 
f 91/91/91 93/93/93 92/92/92 
f 92/92/92 94/94/94 91/91/91 
f 95/95/95 91/91/91 94/94/94 
f 96/96/96 94/94/94 92/92/92 
f 92/92/92 97/97/97 96/96/96 
f 94/94/94 98/98/98 95/95/95 
f 98/98/98 94/94/94 96/96/96 
f 99/99/99 96/96/96 97/97/97 
f 97/97/97 100/100/100 99/99/99 
f 101/101/101 96/96/96 99/99/99 
f 96/96/96 101/101/101 98/98/98 
f 99/99/99 102/102/102 101/101/101 
f 101/101/101 102/102/102 103/103/103 
f 103/103/103 104/104/104 101/101/101 
f 98/98/98 101/101/101 104/104/104 
f 104/104/104 105/105/105 98/98/98 
f 95/95/95 98/98/98 105/105/105 
f 105/105/105 106/106/106 95/95/95 
f 107/107/107 109/109/109 108/108/108 
f 108/108/108 110/110/110 107/107/107 
f 110/110/110 108/108/108 111/111/111 
f 111/111/111 112/112/112 110/110/110 
f 113/113/113 107/107/107 110/110/110 
f 114/114/114 110/110/110 112/112/112 
f 110/110/110 114/114/114 113/113/113 
f 112/112/112 115/115/115 114/114/114 
f 114/114/114 115/115/115 116/116/116 
f 113/113/113 114/114/114 117/117/117 
f 116/116/116 117/117/117 114/114/114 
f 117/117/117 118/118/118 113/113/113 
f 119/119/119 118/118/118 117/117/117 
f 120/120/120 117/117/117 116/116/116 
f 117/117/117 120/120/120 119/119/119 
f 116/116/116 121/121/121 120/120/120 
f 120/120/120 121/121/121 122/122/122 
f 119/119/119 120/120/120 123/123/123 
f 122/122/122 123/123/123 120/120/120 
f 123/123/123 124/124/124 119/119/119 
f 125/125/125 124/124/124 123/123/123 
f 123/123/123 122/122/122 126/126/126 
f 123/123/123 127/127/127 125/125/125 
f 126/126/126 127/127/127 123/123/123 
f 128/128/128 125/125/125 127/127/127 
f 129/129/129 127/127/127 126/126/126 
f 127/127/127 129/129/129 128/128/128 
f 126/126/126 130/130/130 129/129/129 
f 129/129/129 130/130/130 131/131/131 
f 128/128/128 129/129/129 132/132/132 
f 131/131/131 132/132/132 129/129/129 
f 132/132/132 133/133/133 128/128/128 
f 134/134/134 133/133/133 132/132/132 
f 132/132/132 131/131/131 135/135/135 
f 132/132/132 136/136/136 134/134/134 
f 135/135/135 136/136/136 132/132/132 
f 137/137/137 134/134/134 136/136/136 
f 138/138/138 136/136/136 135/135/135 
f 136/136/136 138/138/138 137/137/137 
f 135/135/135 139/139/139 138/138/138 
f 138/138/138 139/139/139 140/140/140 
f 137/137/137 138/138/138 141/141/141 
f 140/140/140 141/141/141 138/138/138 
f 141/141/141 142/142/142 137/137/137 
f 143/143/143 142/142/142 141/141/141 
f 141/141/141 140/140/140 144/144/144 
f 141/141/141 145/145/145 143/143/143 
f 144/144/144 145/145/145 141/141/141 
f 146/146/146 143/143/143 145/145/145 
f 145/145/145 147/147/147 146/146/146 
f 147/147/147 145/145/145 144/144/144 
f 144/144/144 148/148/148 147/147/147 
f 149/149/149 151/151/151 150/150/150 
f 150/150/150 152/152/152 149/149/149 
f 153/153/153 149/149/149 152/152/152 
f 154/154/154 152/152/152 150/150/150 
f 150/150/150 155/155/155 154/154/154 
f 152/152/152 154/154/154 156/156/156 
f 156/156/156 157/157/157 152/152/152 
f 152/152/152 157/157/157 153/153/153 
f 157/157/157 156/156/156 158/158/158 
f 158/158/158 159/159/159 157/157/157 
f 153/153/153 157/157/157 159/159/159 
f 159/159/159 160/160/160 153/153/153 
f 161/161/161 163/163/163 162/162/162 
f 162/162/162 164/164/164 161/161/161 
f 165/165/165 161/161/161 164/164/164 
f 166/166/166 164/164/164 162/162/162 
f 162/162/162 167/167/167 166/166/166 
f 164/164/164 166/166/166 168/168/168 
f 164/164/164 169/169/169 165/165/165 
f 168/168/168 169/169/169 164/164/164 
f 170/170/170 165/165/165 169/169/169 
f 169/169/169 171/171/171 170/170/170 
f 171/171/171 169/169/169 168/168/168 
f 168/168/168 172/172/172 171/171/171 
f 173/173/173 175/175/175 174/174/174 
f 174/174/174 176/176/176 173/173/173 
f 177/177/177 173/173/173 176/176/176 
f 178/178/178 176/176/176 174/174/174 
f 174/174/174 179/179/179 178/178/178 
f 180/180/180 176/176/176 178/178/178 
f 176/176/176 180/180/180 177/177/177 
f 178/178/178 181/181/181 180/180/180 
f 180/180/180 181/181/181 182/182/182 
f 182/182/182 183/183/183 180/180/180 
f 177/177/177 180/180/180 183/183/183 
f 183/183/183 184/184/184 177/177/177 
f 185/185/185 187/187/187 186/186/186 
f 186/186/186 188/188/188 185/185/185 
f 185/185/185 188/188/188 189/189/189 
f 189/189/189 190/190/190 185/185/185 
f 191/191/191 189/189/189 188/188/188 
f 192/192/192 188/188/188 186/186/186 
f 188/188/188 192/192/192 191/191/191 
f 186/186/186 193/193/193 192/192/192 
f 194/194/194 191/191/191 192/192/192 
f 195/195/195 192/192/192 193/193/193 
f 192/192/192 195/195/195 194/194/194 
f 193/193/193 196/196/196 195/195/195 
f 195/195/195 196/196/196 197/197/197 
f 194/194/194 195/195/195 198/198/198 
f 197/197/197 198/198/198 195/195/195 
f 198/198/198 199/199/199 194/194/194 
f 200/200/200 199/199/199 198/198/198 
f 198/198/198 197/197/197 201/201/201 
f 198/198/198 202/202/202 200/200/200 
f 201/201/201 202/202/202 198/198/198 
f 203/203/203 200/200/200 202/202/202 
f 204/204/204 202/202/202 201/201/201 
f 202/202/202 204/204/204 203/203/203 
f 201/201/201 205/205/205 204/204/204 
f 204/204/204 205/205/205 206/206/206 
f 203/203/203 204/204/204 207/207/207 
f 206/206/206 207/207/207 204/204/204 
f 207/207/207 208/208/208 203/203/203 
f 209/209/209 208/208/208 207/207/207 
f 207/207/207 206/206/206 210/210/210 
f 207/207/207 211/211/211 209/209/209 
f 210/210/210 211/211/211 207/207/207 
f 212/212/212 209/209/209 211/211/211 
f 213/213/213 211/211/211 210/210/210 
f 211/211/211 213/213/213 212/212/212 
f 210/210/210 214/214/214 213/213/213 
f 213/213/213 214/214/214 215/215/215 
f 212/212/212 213/213/213 216/216/216 
f 215/215/215 216/216/216 213/213/213 
f 216/216/216 217/217/217 212/212/212 
f 216/216/216 215/215/215 218/218/218 
f 217/217/217 216/216/216 219/219/219 
f 218/218/218 219/219/219 216/216/216 
f 219/219/219 220/220/220 217/217/217 
f 219/219/219 218/218/218 221/221/221 
f 220/220/220 219/219/219 222/222/222 
f 221/221/221 222/222/222 219/219/219 
f 222/222/222 221/221/221 223/223/223 
f 222/222/222 224/224/224 220/220/220 
f 223/223/223 225/225/225 222/222/222 
f 224/224/224 222/222/222 225/225/225 
f 225/225/225 226/226/226 224/224/224 
f 227/227/227 229/229/229 228/228/228 
f 228/228/228 230/230/230 227/227/227 
f 231/231/231 227/227/227 230/230/230 
f 232/232/232 230/230/230 228/228/228 
f 228/228/228 233/233/233 232/232/232 
f 230/230/230 232/232/232 234/234/234 
f 230/230/230 235/235/235 231/231/231 
f 234/234/234 235/235/235 230/230/230 
f 236/236/236 231/231/231 235/235/235 
f 235/235/235 234/234/234 237/237/237 
f 235/235/235 238/238/238 236/236/236 
f 237/237/237 238/238/238 235/235/235 
