# exported by StudySceneExporter from mesh 'cover004'
mtllib materials.mtl
v 0.0034918 -0.00620762 0.00615346
v 0.00376515 -0.0063804 0.00605282
v 0.00347899 -0.00635564 0.00615346
v 0.00377796 -0.00623239 0.00605282
v 0.00396324 -0.00639755 0.0057685
v 0.00451285 0.00559091 0.00615345
v 0.00397605 -0.00624953 0.0057685
v 0.00411101 -0.00641034 0.00534977
v 0.00479901 0.00556615 0.00605282
v 0.00452045 0.00567875 0.00615345
v 0.00480661 0.00565398 0.00605282
v 0.0049971 0.005549 0.0057685
v 0.0050047 0.00563684 0.0057685
v 0.00412382 -0.00626232 0.00534977
v 0.0041772 -0.00641606 0.00485497
v 0.00514487 0.00553622 0.00534977
v 0.00515247 0.00562405 0.00534977
v 0.00419001 -0.00626804 0.00485497
v 0.00411101 -0.00641034 0.00436016
v 0.00521106 0.00553049 0.00485497
v 0.00521866 0.00561833 0.00485497
v 0.00412382 -0.00626232 0.00436016
v 0.00396324 -0.00639755 0.00394143
v 0.00514487 0.00553622 0.00436016
v 0.00515247 0.00562405 0.00436016
v 0.00397605 -0.00624953 0.00394143
v 0.00376515 -0.0063804 0.00365711
v 0.0049971 0.005549 0.00394143
v 0.0050047 0.00563684 0.00394143
v 0.00377796 -0.00623239 0.00365711
v 0.00347899 -0.00635564 0.00355648
v 0.0034918 -0.00620762 0.00355648
v 0.00479901 0.00556615 0.00365711
v 0.00480661 0.00565398 0.00365711
v 0.00451285 0.00559091 0.00355647
v 0.00452045 0.00567875 0.00355647
v 0.0047616 0.00565788 0.00377874
v 0.00450209 0.00559184 0.00369425
v 0.0045097 0.00567968 0.00369425
v 0.004754 0.00557004 0.00377874
v 0.00492957 0.00564334 0.00402425
v 0.00373295 -0.00622849 0.00377875
v 0.00348104 -0.00620669 0.00369425
v 0.00492197 0.00555551 0.00402425
v 0.00506414 0.0056317 0.00440626
v 0.00372014 -0.00637651 0.00377875
v 0.00346823 -0.00635471 0.00369425
v 0.00388811 -0.00639105 0.00402425
v 0.00390092 -0.00624303 0.00402425
v 0.00402267 -0.006402689 0.00440626
v 0.00403548 -0.00625467 0.00440626
v 0.00408354 -0.00640796 0.00485497
v 0.00505654 0.00554386 0.00440626
v 0.005125 0.00562643 0.00485497
v 0.00409635 -0.00625994 0.00485497
v 0.00402267 -0.006402689 0.00530367
v 0.0051174 0.00553859 0.00485497
v 0.00506414 0.0056317 0.00530367
v 0.00403548 -0.00625467 0.00530367
v 0.00388811 -0.00639105 0.00568569
v 0.00505654 0.00554386 0.00530367
v 0.00492957 0.00564334 0.00568568
v 0.00390092 -0.00624303 0.00568569
v 0.00372014 -0.00637651 0.00593119
v 0.00492197 0.00555551 0.00568568
v 0.0047616 0.00565788 0.00593119
v 0.00373295 -0.00622849 0.00593119
v 0.00346823 -0.00635471 0.00601568
v 0.00348104 -0.00620669 0.00601568
v 0.004754 0.00557004 0.00593119
v 0.0045097 0.00567968 0.00601568
v 0.00450209 0.00559184 0.00601568
v -0.00395374 0.00632362 0.00599738
v 0.0045097 0.00567968 0.00601568
v -0.00394614 0.00641145 0.00599738
v 0.00450209 0.00559184 0.00601568
v -0.00497479 -0.00547492 0.00599738
v 0.00348104 -0.00620669 0.00601568
v -0.0049876 -0.00562294 0.00599738
v 0.00346823 -0.00635471 0.00601568
v -0.00504961 -0.00546844 0.00599722
v -0.005062419 -0.00561646 0.00599722
v -0.00402856 0.00633009 0.00599722
v -0.00395374 0.00632362 0.00599738
v -0.005149229 -0.00545982 0.00599701
v -0.00516204 -0.00560784 0.00599701
v -0.00412818 0.00633871 0.005997
v -0.00402096 0.00641793 0.00599722
v -0.00394614 0.00641145 0.00599738
v -0.00412058 0.00642655 0.005997
v -0.00401826 0.0064177 0.00613585
v -0.00412558 0.00633849 0.00613565
v -0.00411798 0.00642633 0.00613565
v -0.00402586 0.00632986 0.00613585
v -0.00394337 0.006411219 0.00613601
v -0.00504691 -0.00546868 0.00613585
v -0.00514663 -0.00546005 0.00613565
v -0.00395097 0.00632338 0.00613601
v -0.00505972 -0.00561669 0.00613585
v -0.00515944 -0.00560807 0.00613565
v -0.00497202 -0.00547516 0.00613601
v -0.00498483 -0.00562318 0.00613601
v 0.00347899 -0.00635564 0.00615346
v 0.0034918 -0.00620762 0.00615346
v 0.00451285 0.00559091 0.00615345
v 0.00452045 0.00567875 0.00615345
v -0.00505972 -0.00561669 0.00613585
v -0.0051608 -0.00560795 0.00606334
v -0.00515944 -0.00560807 0.00613565
v -0.00506113 -0.00561657 0.00606355
v -0.00516204 -0.00560784 0.00599701
v -0.005062419 -0.00561646 0.00599722
v -0.00498483 -0.00562318 0.00613601
v -0.00498628 -0.00562305 0.00606371
v -0.0049876 -0.00562294 0.00599738
v 0.00346823 -0.00635471 0.00601568
v 0.00347338 -0.00635515 0.0060816
v 0.00347899 -0.00635564 0.00615346
v 0.00376515 -0.0063804 0.00605282
v 0.00374167 -0.00637837 0.00598938
v 0.00372014 -0.00637651 0.00593119
v 0.00388811 -0.00639105 0.00568569
v 0.00392406 -0.00639416 0.00572531
v 0.00396324 -0.00639755 0.0057685
v 0.00411101 -0.00641034 0.00534977
v 0.00402267 -0.006402689 0.00530367
v 0.00406494 -0.00640635 0.00532573
v 0.0041772 -0.00641606 0.00485497
v 0.00412835 -0.00641184 0.00485497
v 0.00408354 -0.00640796 0.00485497
v 0.00402267 -0.006402689 0.00440626
v 0.00406494 -0.00640635 0.0043842
v 0.00411101 -0.00641034 0.00436016
v 0.00396324 -0.00639755 0.00394143
v 0.00388811 -0.00639105 0.00402425
v 0.00392406 -0.00639416 0.00398462
v 0.00376515 -0.0063804 0.00365711
v 0.00374167 -0.00637837 0.00372055
v 0.00372014 -0.00637651 0.00377875
v 0.00346823 -0.00635471 0.00369425
v 0.00347338 -0.00635515 0.00362833
v 0.00347899 -0.00635564 0.00355648
v -0.00498545 -0.00562312 0.00355619
v -0.00498555 -0.00562311 0.00369487
v -0.0049855 -0.00562312 0.00362851
v -0.00506203 -0.0056165 0.00355618
v -0.00506203 -0.0056165 0.00362852
v -0.00506203 -0.0056165 0.00369488
v -0.00504922 -0.00546848 0.00369488
v -0.00498555 -0.00562311 0.00369487
v -0.00506203 -0.0056165 0.00369488
v -0.00497274 -0.0054751 0.00369487
v -0.00402817 0.00633006 0.00369487
v 0.00348104 -0.00620669 0.00369425
v 0.00346823 -0.00635471 0.00369425
v 0.00450209 0.00559184 0.00369425
v -0.00395169 0.00632344 0.00369487
v 0.0045097 0.00567968 0.00369425
v -0.00394409 0.00641128 0.00369487
v -0.00402057 0.00641789 0.00369487
v -0.00504922 -0.00546848 0.00355618
v -0.00506203 -0.0056165 0.00362852
v -0.00506203 -0.0056165 0.00355618
v -0.00504922 -0.00546848 0.00362852
v -0.00402817 0.00633006 0.00355618
v -0.00504922 -0.00546848 0.00369488
v -0.00506203 -0.0056165 0.00369488
v -0.00402817 0.00633006 0.00369487
v -0.00402817 0.00633006 0.00362851
v -0.00402057 0.00641789 0.00355618
v -0.00402057 0.00641789 0.00362851
v -0.00402057 0.00641789 0.00369487
v -0.005149229 -0.00545982 0.00599701
v -0.0051608 -0.00560795 0.00606334
v -0.00516204 -0.00560784 0.00599701
v -0.00514799 -0.005459929 0.00606334
v -0.00412818 0.00633871 0.005997
v -0.00514663 -0.00546005 0.00613565
v -0.00515944 -0.00560807 0.00613565
v -0.00412694 0.00633861 0.00606334
v -0.00412558 0.00633849 0.00613565
v -0.00411798 0.00642633 0.00613565
v -0.00411933 0.00642644 0.00606334
v -0.00412058 0.00642655 0.005997
v -0.00402057 0.00641789 0.00362851
v -0.00394409 0.00641128 0.00369487
v -0.00402057 0.00641789 0.00369487
v -0.00394404 0.00641127 0.00362851
v -0.00394399 0.00641127 0.00355618
v -0.00402057 0.00641789 0.00355618
v 0.00452045 0.00567875 0.00355647
v 0.00451484 0.00567923 0.00362833
v 0.0045097 0.00567968 0.00369425
v 0.00480661 0.00565398 0.00365711
v 0.00478314 0.00565602 0.00372055
v 0.0047616 0.00565788 0.00377874
v 0.00492957 0.00564334 0.00402425
v 0.00496552 0.00564023 0.00398462
v 0.0050047 0.00563684 0.00394143
v 0.00515247 0.00562405 0.00436016
v 0.00506414 0.0056317 0.00440626
v 0.0051064 0.00562804 0.0043842
v 0.00521866 0.00561833 0.00485497
v 0.00516982 0.00562255 0.00485497
v 0.005125 0.00562643 0.00485497
v 0.00506414 0.0056317 0.00530367
v 0.0051064 0.00562804 0.00532573
v 0.00515247 0.00562405 0.00534977
v 0.0050047 0.00563684 0.0057685
v 0.00492957 0.00564334 0.00568568
v 0.00496552 0.00564023 0.00572531
v 0.00480661 0.00565398 0.00605282
v 0.00478314 0.00565602 0.00598938
v 0.0047616 0.00565788 0.00593119
v 0.0045097 0.00567968 0.00601568
v 0.00451484 0.00567924 0.0060816
v 0.00452045 0.00567875 0.00615345
v -0.00394614 0.00641145 0.00599738
v -0.00394481 0.00641134 0.00606371
v -0.00394337 0.006411219 0.00613601
v -0.00402096 0.00641793 0.00599722
v -0.00401967 0.00641782 0.00606355
v -0.00412058 0.00642655 0.005997
v -0.00401826 0.0064177 0.00613585
v -0.00411933 0.00642644 0.00606334
v -0.00411798 0.00642633 0.00613565
v -0.00402817 0.00633006 0.00355618
v -0.00394399 0.00641127 0.00355618
v -0.00402057 0.00641789 0.00355618
v -0.00395159 0.00632343 0.00355618
v -0.00504922 -0.00546848 0.00355618
v 0.00451285 0.00559091 0.00355647
v 0.00452045 0.00567875 0.00355647
v 0.0034918 -0.00620762 0.00355648
v -0.00497264 -0.0054751 0.00355619
v -0.00506203 -0.0056165 0.00355618
v 0.00347899 -0.00635564 0.00355648
v -0.00498545 -0.00562312 0.00355619
vt 0.796806 0.359304
vt 0.800216 0.357767
vt 0.796795 0.357787
vt 0.800227 0.359284
vt 0.803431 0.357748
vt 0.7977 0.480225
vt 0.803438 0.359267
vt 0.80715 0.35774
vt 0.801121 0.480205
vt 0.797707 0.481125
vt 0.801127 0.481105
vt 0.804333 0.480188
vt 0.804337 0.481085
vt 0.807155 0.359257
vt 0.811119 0.357727
vt 0.80805 0.480178
vt 0.808053 0.481078
vt 0.811125 0.359243
vt 0.815089 0.35771
vt 0.812019 0.480165
vt 0.812023 0.481065
vt 0.815096 0.359226
vt 0.818807 0.357691
vt 0.81599 0.480148
vt 0.815995 0.481048
vt 0.818816 0.359207
vt 0.822021 0.357669
vt 0.81971 0.480128
vt 0.819716 0.481029
vt 0.822032 0.359185
vt 0.825446 0.357645
vt 0.825457 0.359162
vt 0.822926 0.480107
vt 0.822933 0.481007
vt 0.826352 0.480083
vt 0.826358 0.480983
vt 0.799467 0.612597
vt 0.796484 0.611701
vt 0.79649 0.612604
vt 0.79946 0.611694
vt 0.802166 0.612589
vt 0.798564 0.490696
vt 0.795589 0.490702
vt 0.802162 0.611688
vt 0.805496 0.612595
vt 0.798553 0.489174
vt 0.795578 0.489181
vt 0.801253 0.489167
vt 0.80126 0.490691
vt 0.80457 0.489171
vt 0.804582 0.490685
vt 0.808079 0.489127
vt 0.805489 0.611684
vt 0.809032 0.61255
vt 0.808109 0.49064
vt 0.811587 0.489034
vt 0.809014 0.611638
vt 0.812564 0.612456
vt 0.811635 0.490549
vt 0.814894 0.488906
vt 0.812536 0.611547
vt 0.815889 0.61233
vt 0.814957 0.490425
vt 0.817585 0.488775
vt 0.815852 0.611425
vt 0.81858 0.612198
vt 0.81765 0.490297
vt 0.820573 0.488638
vt 0.820611 0.490174
vt 0.818541 0.611296
vt 0.821532 0.612061
vt 0.821509 0.611173
vt 0.91984 0.610411
vt 0.821532 0.612061
vt 0.919862 0.611317
vt 0.821509 0.611173
vt 0.918941 0.489408
vt 0.820611 0.490174
vt 0.918927 0.487886
vt 0.820573 0.488638
vt 0.919801 0.489373
vt 0.919788 0.487853
vt 0.920697 0.610367
vt 0.91984 0.610411
vt 0.920956 0.489344
vt 0.920937 0.487824
vt 0.921852 0.610342
vt 0.920718 0.611267
vt 0.919862 0.611317
vt 0.921868 0.611246
vt 0.698446 0.481853
vt 0.69728 0.48096
vt 0.697287 0.48186
vt 0.698439 0.480953
vt 0.699315 0.481849
vt 0.697544 0.360031
vt 0.696386 0.360039
vt 0.699309 0.480949
vt 0.697533 0.358515
vt 0.696374 0.358522
vt 0.698414 0.360028
vt 0.698403 0.358511
vt 0.796795 0.357787
vt 0.796806 0.359304
vt 0.7977 0.480225
vt 0.797707 0.481125
vt 0.846586 0.642812
vt 0.84541 0.642242
vt 0.845426 0.64281
vt 0.846569 0.642244
vt 0.845396 0.641722
vt 0.846554 0.641723
vt 0.847456 0.642813
vt 0.847439 0.642245
vt 0.847424 0.641725
vt 0.945733 0.641868
vt 0.945793 0.642386
vt 0.945858 0.64295
vt 0.949185 0.64216
vt 0.948912 0.641662
vt 0.948662 0.641205
vt 0.950615 0.639277
vt 0.951032 0.639588
vt 0.951488 0.639928
vt 0.953206 0.63664
vt 0.952179 0.636278
vt 0.95267 0.636451
vt 0.953975 0.632755
vt 0.953408 0.632755
vt 0.952887 0.632755
vt 0.952179 0.629232
vt 0.95267 0.629059
vt 0.953206 0.62887
vt 0.951488 0.625583
vt 0.950615 0.626233
vt 0.951032 0.625922
vt 0.949185 0.623351
vt 0.948912 0.623849
vt 0.948662 0.624306
vt 0.945733 0.623642
vt 0.945793 0.623125
vt 0.945858 0.622561
vt 0.847449 0.622558
vt 0.847448 0.623647
vt 0.847448 0.623126
vt 0.846559 0.622558
vt 0.846559 0.623126
vt 0.846559 0.623647
vt 0.696386 0.491421
vt 0.69726 0.489897
vt 0.696374 0.4899
vt 0.697271 0.491418
vt 0.697281 0.612419
vt 0.795589 0.490702
vt 0.795578 0.489181
vt 0.796484 0.611701
vt 0.698166 0.612417
vt 0.79649 0.612604
vt 0.698173 0.61332
vt 0.697287 0.613323
vt 0.818398 0.619967
vt 0.819918 0.620468
vt 0.819918 0.619967
vt 0.818398 0.620468
vt 0.697276 0.619967
vt 0.818398 0.620928
vt 0.819918 0.620928
vt 0.697276 0.620928
vt 0.697276 0.620468
vt 0.696374 0.619967
vt 0.696374 0.620468
vt 0.696374 0.620928
vt 0.920956 0.489344
vt 0.921451 0.487805
vt 0.920937 0.487824
vt 0.921477 0.489325
vt 0.921852 0.610342
vt 0.922045 0.489313
vt 0.922017 0.487791
vt 0.922368 0.610322
vt 0.922935 0.610309
vt 0.922957 0.61121
vt 0.92239 0.611226
vt 0.921868 0.611246
vt 0.938558 0.614055
vt 0.937669 0.614576
vt 0.938558 0.614576
vt 0.937669 0.614055
vt 0.937668 0.613487
vt 0.938558 0.613487
vt 0.839259 0.61349
vt 0.839324 0.614054
vt 0.839384 0.614571
vt 0.835932 0.61428
vt 0.836205 0.614778
vt 0.836456 0.615235
vt 0.834503 0.617162
vt 0.834085 0.616851
vt 0.833629 0.616512
vt 0.831911 0.6198
vt 0.832938 0.620162
vt 0.832447 0.619988
vt 0.831142 0.623684
vt 0.83171 0.623684
vt 0.832231 0.623684
vt 0.832938 0.627207
vt 0.832447 0.62738
vt 0.831911 0.627569
vt 0.833629 0.630857
vt 0.834503 0.630206
vt 0.834085 0.630518
vt 0.835932 0.633089
vt 0.836205 0.632591
vt 0.836456 0.632134
vt 0.839384 0.632797
vt 0.839324 0.633315
vt 0.839259 0.633879
vt 0.937693 0.632654
vt 0.937678 0.633175
vt 0.937661 0.633742
vt 0.938563 0.632652
vt 0.938548 0.633173
vt 0.939721 0.632651
vt 0.938532 0.633741
vt 0.939707 0.633172
vt 0.939691 0.633739
vt 0.925646 0.479349
vt 0.924761 0.480256
vt 0.925653 0.480249
vt 0.924754 0.479356
vt 0.924751 0.358428
vt 0.826352 0.480083
vt 0.826358 0.480983
vt 0.825457 0.359162
vt 0.92386 0.358434
vt 0.92474 0.356911
vt 0.825446 0.357645
vt 0.923849 0.356918
vn 0.3294331 -0.02850921 0.9437484
vn 0.6265129 -0.05421869 0.7775229
vn 0.3294331 -0.02850921 0.9437484
vn 0.6265129 -0.05421869 0.7775229
vn 0.888945 -0.0769297 0.451507
vn 0.3294331 -0.02850921 0.9437484
vn 0.888945 -0.0769297 0.451507
vn 0.9690587 -0.08386287 0.2321469
vn 0.6265129 -0.05421869 0.7775229
vn 0.3294331 -0.02850921 0.9437484
vn 0.6265129 -0.05421869 0.7775229
vn 0.888945 -0.0769297 0.451507
vn 0.888945 -0.0769298 0.451507
vn 0.9690587 -0.08386287 0.2321469
vn 0.9962763 -0.08621832 0
vn 0.9690587 -0.08386287 0.2321469
vn 0.9690587 -0.08386287 0.2321469
vn 0.9962763 -0.08621832 0
vn 0.9690587 -0.08386298 -0.2321469
vn 0.9962763 -0.08621832 0
vn 0.9962763 -0.08621832 0
vn 0.9690587 -0.08386298 -0.2321469
vn 0.888945 -0.0769299 -0.451507
vn 0.9690587 -0.08386298 -0.2321469
vn 0.9690587 -0.08386298 -0.2321469
vn 0.888945 -0.0769299 -0.451507
vn 0.6265129 -0.05421889 -0.7775229
vn 0.888945 -0.0769299 -0.451507
vn 0.888945 -0.0769299 -0.451507
vn 0.6265129 -0.05421889 -0.7775229
vn 0.3294331 -0.02850951 -0.9437484
vn 0.3294331 -0.02850951 -0.9437484
vn 0.6265129 -0.05421889 -0.7775229
vn 0.6265129 -0.05421889 -0.7775229
vn 0.3294331 -0.02850951 -0.9437484
vn 0.3294331 -0.02850951 -0.9437484
vn -0.6259078 0.05416648 0.7780138
vn -0.315756 0.0273258 0.9484469
vn -0.315756 0.0273258 0.9484469
vn -0.6259078 0.05416658 0.7780138
vn -0.8907933 0.07708984 0.4478217
vn -0.6259078 0.05416658 0.7780138
vn -0.315756 0.0273258 0.9484469
vn -0.8907933 0.07708984 0.4478217
vn -0.9688987 0.08384908 0.2328189
vn -0.6259078 0.05416658 0.7780138
vn -0.315756 0.0273258 0.9484469
vn -0.8907931 0.07708991 0.4478221
vn -0.8907933 0.07708984 0.4478217
vn -0.9688987 0.08384908 0.2328189
vn -0.9688987 0.08384908 0.2328189
vn -0.9962763 0.08621832 0
vn -0.9688987 0.08384908 0.2328189
vn -0.9962763 0.08621832 0
vn -0.9962763 0.08621832 0
vn -0.9688987 0.08384898 -0.2328189
vn -0.9962763 0.08621832 0
vn -0.9688987 0.08384898 -0.2328189
vn -0.9688987 0.08384898 -0.2328189
vn -0.8907931 0.07708971 -0.4478221
vn -0.9688987 0.08384898 -0.2328189
vn -0.8907931 0.07708971 -0.4478221
vn -0.8907931 0.07708971 -0.4478221
vn -0.6259078 0.05416628 -0.7780138
vn -0.8907931 0.07708971 -0.4478221
vn -0.6259078 0.05416628 -0.7780138
vn -0.6259078 0.05416628 -0.7780138
vn -0.315755 0.0273255 -0.9484471
vn -0.315755 0.0273255 -0.9484471
vn -0.6259078 0.05416628 -0.7780138
vn -0.315755 0.0273255 -0.9484471
vn -0.315755 0.0273255 -0.9484471
vn 0.00214754 -0.000186013 -0.9999977
vn 0.00214754 -0.000186013 -0.9999977
vn 0.00214754 -0.000186013 -0.9999977
vn 0.00214754 -0.000186013 -0.9999977
vn 0.00214753 -0.000186012 -0.9999977
vn 0.00214753 -0.000186012 -0.9999977
vn 0.00214753 -0.000186012 -0.9999977
vn 0.00214753 -0.000186012 -0.9999977
vn 0.0021478 -0.000186035 -0.9999977
vn 0.0021478 -0.000186035 -0.9999977
vn 0.0021478 -0.000186042 -0.9999977
vn 0.002146909 -0.000185958 -0.9999977
vn 0.0021478 -0.000186035 -0.9999977
vn 0.0021478 -0.000186035 -0.9999977
vn 0.0021478 -0.000186042 -0.9999977
vn 0.0021478 -0.000186035 -0.9999977
vn 0.002146909 -0.000185958 -0.9999977
vn 0.0021478 -0.000186035 -0.9999977
vn -0.00204631 0.000177252 0.999998
vn -0.00204631 0.000177252 0.999998
vn -0.00204631 0.000177252 0.999998
vn -0.00204631 0.000177252 0.999998
vn -0.00204628 0.00017725 0.999998
vn -0.00204631 0.000177252 0.999998
vn -0.00204631 0.000177252 0.999998
vn -0.00204627 0.000177259 0.999998
vn -0.00204631 0.000177252 0.999998
vn -0.00204631 0.000177252 0.999998
vn -0.00204625 0.000177247 0.999998
vn -0.00204625 0.000177247 0.999998
vn -0.00204625 0.000177247 0.999998
vn -0.00204625 0.000177247 0.999998
vn -0.00204627 0.000177259 0.999998
vn -0.00204628 0.00017725 0.999998
vn -0.08621832 -0.9962763 1.62921E-07
vn -0.08621832 -0.9962763 1.62921E-07
vn -0.08621832 -0.9962763 1.62921E-07
vn -0.08621832 -0.9962763 1.62921E-07
vn -0.08621832 -0.9962763 1.62921E-07
vn -0.08621832 -0.9962763 1.62921E-07
vn -0.08621832 -0.9962763 1.62921E-07
vn -0.08621832 -0.9962763 1.62921E-07
vn -0.08621832 -0.9962763 1.62921E-07
vn -0.08621832 -0.9962763 1.62921E-07
vn -0.08621832 -0.9962763 1.62921E-07
vn -0.08621832 -0.9962763 1.62921E-07
vn -0.08621832 -0.9962763 1.62921E-07
vn -0.08621832 -0.9962763 1.62921E-07
vn -0.08621832 -0.9962763 1.62921E-07
vn -0.08621832 -0.9962763 1.62921E-07
vn -0.08621832 -0.9962763 1.62921E-07
vn -0.08621832 -0.9962763 1.62921E-07
vn -0.08621832 -0.9962763 1.62921E-07
vn -0.08621832 -0.9962763 1.62921E-07
vn -0.08621832 -0.9962763 1.62921E-07
vn -0.08621832 -0.9962763 1.62921E-07
vn -0.08621832 -0.9962763 1.62921E-07
vn -0.08621832 -0.9962763 1.62921E-07
vn -0.08621832 -0.9962763 1.62921E-07
vn -0.08621832 -0.9962763 1.62921E-07
vn -0.08621832 -0.9962763 1.62921E-07
vn -0.08621832 -0.9962763 1.62921E-07
vn -0.08621832 -0.9962763 1.62921E-07
vn -0.08621832 -0.9962763 1.62921E-07
vn -0.08621832 -0.9962763 1.62921E-07
vn -0.08621832 -0.9962763 1.62921E-07
vn -0.08621832 -0.9962763 1.62921E-07
vn -0.08621832 -0.9962763 1.62921E-07
vn -0.08621832 -0.9962763 1.62921E-07
vn -0.08621832 -0.9962763 1.62921E-07
vn -0.08621832 -0.9962763 1.62921E-07
vn -0.08621832 -0.9962763 1.62921E-07
vn -0.08621832 -0.9962763 1.62921E-07
vn -0.08621832 -0.9962763 1.62921E-07
vn -0.08621832 -0.9962763 1.62921E-07
vn -0.08621832 -0.9962763 1.62921E-07
vn 7.19491E-05 -6.06299E-06 1
vn 7.19491E-05 -6.06299E-06 1
vn 7.19491E-05 -6.06299E-06 1
vn 7.19491E-05 -6.06299E-06 1
vn 7.19491E-05 -6.06299E-06 1
vn 7.26245E-05 -6.12144E-06 1
vn 7.26245E-05 -6.12144E-06 1
vn 7.26245E-05 -6.12144E-06 1
vn 7.26245E-05 -6.12144E-06 1
vn 7.26245E-05 -6.12144E-06 1
vn 7.26245E-05 -6.12144E-06 1
vn 7.19491E-05 -6.06299E-06 1
vn -0.9962763 0.08621832 0
vn -0.9962763 0.08621832 0
vn -0.9962763 0.08621832 0
vn -0.9962763 0.08621832 0
vn -0.9962763 0.08621832 0
vn -0.9962763 0.08621832 0
vn -0.9962763 0.08621832 0
vn -0.9962763 0.08621832 0
vn -0.9962763 0.08621832 0
vn -0.9962763 0.08621832 0
vn -0.9962763 0.08621832 0
vn -0.9962763 0.08621832 0
vn -0.9960992 0.08620302 0.0188477
vn -0.9960992 0.08620302 0.0188477
vn -0.9960992 0.08620302 0.0188477
vn -0.9960992 0.08620302 0.0188477
vn -0.9960992 0.08620302 0.0188478
vn -0.9960991 0.08620301 0.0188536
vn -0.9960991 0.08620301 0.0188536
vn -0.9960991 0.08620301 0.0188536
vn -0.9960991 0.08620301 0.0188536
vn -0.9960991 0.08620301 0.0188536
vn -0.9960991 0.08620301 0.0188536
vn -0.9960992 0.08620302 0.0188478
vn 0.08621832 0.9962763 -1.62921E-07
vn 0.08621832 0.9962763 -1.62921E-07
vn 0.08621832 0.9962763 -1.62921E-07
vn 0.08621832 0.9962763 -1.62921E-07
vn 0.08621832 0.9962763 -1.62921E-07
vn 0.08621832 0.9962763 -1.62921E-07
vn 0.08621832 0.9962763 -1.62921E-07
vn 0.08621832 0.9962763 -1.62921E-07
vn 0.08621832 0.9962763 -1.62921E-07
vn 0.08621832 0.9962763 -1.62921E-07
vn 0.08621832 0.9962763 -1.62921E-07
vn 0.08621832 0.9962763 -1.62921E-07
vn 0.08621832 0.9962763 -1.62921E-07
vn 0.08621832 0.9962763 -1.62921E-07
vn 0.08621832 0.9962763 -1.62921E-07
vn 0.08621832 0.9962763 -1.62921E-07
vn 0.08621832 0.9962763 -1.62921E-07
vn 0.08621832 0.9962763 -1.62921E-07
vn 0.08621832 0.9962763 -1.62921E-07
vn 0.08621832 0.9962763 -1.62921E-07
vn 0.08621832 0.9962763 -1.62921E-07
vn 0.08621832 0.9962763 -1.62921E-07
vn 0.08621832 0.9962763 -1.62921E-07
vn 0.08621832 0.9962763 -1.62921E-07
vn 0.08621832 0.9962763 -1.62921E-07
vn 0.08621832 0.9962763 -1.62921E-07
vn 0.08621832 0.9962763 -1.62921E-07
vn 0.08621832 0.9962763 -1.62921E-07
vn 0.08621832 0.9962763 -1.62921E-07
vn 0.08621832 0.9962763 -1.62921E-07
vn 0.08621832 0.9962763 -1.62921E-07
vn 0.08621832 0.9962763 -1.62921E-07
vn 0.08621832 0.9962763 -1.62921E-07
vn 0.08621852 0.9962763 -1.68897E-07
vn 0.08621852 0.9962763 -1.68894E-07
vn 0.08621852 0.9962763 -1.68894E-07
vn 0.08621832 0.9962763 -1.62921E-07
vn 0.08621832 0.9962763 -1.62921E-07
vn 0.08621832 0.9962763 -1.62921E-07
vn 0.08621832 0.9962763 -1.62921E-07
vn 0.08621832 0.9962763 -1.62921E-07
vn 0.08621832 0.9962763 -1.62921E-07
vn 3.37308E-05 -3.08261E-06 -1
vn 3.37308E-05 -3.08261E-06 -1
vn 3.37308E-05 -3.08261E-06 -1
vn 3.37308E-05 -3.08261E-06 -1
vn 3.37308E-05 -3.08261E-06 -1
vn 3.40789E-05 -3.11274E-06 -1
vn 3.40789E-05 -3.11274E-06 -1
vn 3.40789E-05 -3.11274E-06 -1
vn 3.37308E-05 -3.08261E-06 -1
vn 3.37308E-05 -3.08261E-06 -1
vn 3.40789E-05 -3.11274E-06 -1
vn 3.37308E-05 -3.08261E-06 -1
usemtl cover
f 1/1/1 3/3/3 2/2/2 
f 2/2/2 4/4/4 1/1/1 
f 4/4/4 2/2/2 5/5/5 
f 6/6/6 1/1/1 4/4/4 
f 5/5/5 7/7/7 4/4/4 
f 7/7/7 5/5/5 8/8/8 
f 4/4/4 9/9/9 6/6/6 
f 9/9/9 4/4/4 7/7/7 
f 10/10/10 6/6/6 9/9/9 
f 9/9/9 11/11/11 10/10/10 
f 11/11/11 9/9/9 12/12/12 
f 7/7/7 12/12/12 9/9/9 
f 12/12/12 13/13/13 11/11/11 
f 8/8/8 14/14/14 7/7/7 
f 12/12/12 7/7/7 14/14/14 
f 14/14/14 8/8/8 15/15/15 
f 13/13/13 12/12/12 16/16/16 
f 14/14/14 16/16/16 12/12/12 
f 16/16/16 17/17/17 13/13/13 
f 15/15/15 18/18/18 14/14/14 
f 16/16/16 14/14/14 18/18/18 
f 18/18/18 15/15/15 19/19/19 
f 17/17/17 16/16/16 20/20/20 
f 18/18/18 20/20/20 16/16/16 
f 20/20/20 21/21/21 17/17/17 
f 19/19/19 22/22/22 18/18/18 
f 20/20/20 18/18/18 22/22/22 
f 22/22/22 19/19/19 23/23/23 
f 21/21/21 20/20/20 24/24/24 
f 22/22/22 24/24/24 20/20/20 
f 24/24/24 25/25/25 21/21/21 
f 23/23/23 26/26/26 22/22/22 
f 24/24/24 22/22/22 26/26/26 
f 26/26/26 23/23/23 27/27/27 
f 25/25/25 24/24/24 28/28/28 
f 26/26/26 28/28/28 24/24/24 
f 28/28/28 29/29/29 25/25/25 
f 27/27/27 30/30/30 26/26/26 
f 28/28/28 26/26/26 30/30/30 
f 30/30/30 27/27/27 31/31/31 
f 31/31/31 32/32/32 30/30/30 
f 29/29/29 28/28/28 33/33/33 
f 30/30/30 33/33/33 28/28/28 
f 33/33/33 30/30/30 32/32/32 
f 33/33/33 34/34/34 29/29/29 
f 32/32/32 35/35/35 33/33/33 
f 34/34/34 33/33/33 35/35/35 
f 35/35/35 36/36/36 34/34/34 
f 37/37/37 39/39/39 38/38/38 
f 38/38/38 40/40/40 37/37/37 
f 41/41/41 37/37/37 40/40/40 
f 42/42/42 40/40/40 38/38/38 
f 38/38/38 43/43/43 42/42/42 
f 40/40/40 44/44/44 41/41/41 
f 45/45/45 41/41/41 44/44/44 
f 46/46/46 42/42/42 43/43/43 
f 43/43/43 47/47/47 46/46/46 
f 42/42/42 46/46/46 48/48/48 
f 40/40/40 42/42/42 49/49/49 
f 48/48/48 49/49/49 42/42/42 
f 49/49/49 44/44/44 40/40/40 
f 49/49/49 48/48/48 50/50/50 
f 50/50/50 51/51/51 49/49/49 
f 44/44/44 49/49/49 51/51/51 
f 51/51/51 50/50/50 52/52/52 
f 44/44/44 53/53/53 45/45/45 
f 51/51/51 53/53/53 44/44/44 
f 54/54/54 45/45/45 53/53/53 
f 52/52/52 55/55/55 51/51/51 
f 53/53/53 51/51/51 55/55/55 
f 55/55/55 52/52/52 56/56/56 
f 53/53/53 57/57/57 54/54/54 
f 55/55/55 57/57/57 53/53/53 
f 58/58/58 54/54/54 57/57/57 
f 56/56/56 59/59/59 55/55/55 
f 57/57/57 55/55/55 59/59/59 
f 59/59/59 56/56/56 60/60/60 
f 57/57/57 61/61/61 58/58/58 
f 59/59/59 61/61/61 57/57/57 
f 62/62/62 58/58/58 61/61/61 
f 60/60/60 63/63/63 59/59/59 
f 61/61/61 59/59/59 63/63/63 
f 63/63/63 60/60/60 64/64/64 
f 61/61/61 65/65/65 62/62/62 
f 63/63/63 65/65/65 61/61/61 
f 66/66/66 62/62/62 65/65/65 
f 64/64/64 67/67/67 63/63/63 
f 65/65/65 63/63/63 67/67/67 
f 67/67/67 64/64/64 68/68/68 
f 68/68/68 69/69/69 67/67/67 
f 65/65/65 70/70/70 66/66/66 
f 67/67/67 70/70/70 65/65/65 
f 70/70/70 67/67/67 69/69/69 
f 71/71/71 66/66/66 70/70/70 
f 69/69/69 72/72/72 70/70/70 
f 70/70/70 72/72/72 71/71/71 
f 73/73/73 75/75/75 74/74/74 
f 74/74/74 76/76/76 73/73/73 
f 77/77/77 73/73/73 76/76/76 
f 76/76/76 78/78/78 77/77/77 
f 79/79/79 77/77/77 78/78/78 
f 78/78/78 80/80/80 79/79/79 
f 81/81/81 77/77/77 79/79/79 
f 79/79/79 82/82/82 81/81/81 
f 77/77/77 81/81/81 83/83/83 
f 83/83/83 84/84/84 77/77/77 
f 85/85/85 81/81/81 82/82/82 
f 83/83/83 81/81/81 85/85/85 
f 82/82/82 86/86/86 85/85/85 
f 85/85/85 87/87/87 83/83/83 
f 84/84/84 83/83/83 88/88/88 
f 88/88/88 83/83/83 87/87/87 
f 88/88/88 89/89/89 84/84/84 
f 87/87/87 90/90/90 88/88/88 
f 91/91/91 93/93/93 92/92/92 
f 92/92/92 94/94/94 91/91/91 
f 95/95/95 91/91/91 94/94/94 
f 96/96/96 94/94/94 92/92/92 
f 92/92/92 97/97/97 96/96/96 
f 94/94/94 98/98/98 95/95/95 
f 98/98/98 94/94/94 96/96/96 
f 99/99/99 96/96/96 97/97/97 
f 97/97/97 100/100/100 99/99/99 
f 101/101/101 96/96/96 99/99/99 
f 96/96/96 101/101/101 98/98/98 
f 99/99/99 102/102/102 101/101/101 
f 101/101/101 102/102/102 103/103/103 
f 103/103/103 104/104/104 101/101/101 
f 98/98/98 101/101/101 104/104/104 
f 104/104/104 105/105/105 98/98/98 
f 95/95/95 98/98/98 105/105/105 
f 105/105/105 106/106/106 95/95/95 
f 107/107/107 109/109/109 108/108/108 
f 108/108/108 110/110/110 107/107/107 
f 110/110/110 108/108/108 111/111/111 
f 111/111/111 112/112/112 110/110/110 
f 113/113/113 107/107/107 110/110/110 
f 114/114/114 110/110/110 112/112/112 
f 110/110/110 114/114/114 113/113/113 
f 112/112/112 115/115/115 114/114/114 
f 114/114/114 115/115/115 116/116/116 
f 113/113/113 114/114/114 117/117/117 
f 116/116/116 117/117/117 114/114/114 
f 117/117/117 118/118/118 113/113/113 
f 119/119/119 118/118/118 117/117/117 
f 120/120/120 117/117/117 116/116/116 
f 117/117/117 120/120/120 119/119/119 
f 116/116/116 121/121/121 120/120/120 
f 120/120/120 121/121/121 122/122/122 
f 119/119/119 120/120/120 123/123/123 
f 122/122/122 123/123/123 120/120/120 
f 123/123/123 124/124/124 119/119/119 
f 125/125/125 124/124/124 123/123/123 
f 123/123/123 122/122/122 126/126/126 
f 123/123/123 127/127/127 125/125/125 
f 126/126/126 127/127/127 123/123/123 
f 128/128/128 125/125/125 127/127/127 
f 129/129/129 127/127/127 126/126/126 
f 127/127/127 129/129/129 128/128/128 
f 126/126/126 130/130/130 129/129/129 
f 129/129/129 130/130/130 131/131/131 
f 128/128/128 129/129/129 132/132/132 
f 131/131/131 132/132/132 129/129/129 
f 132/132/132 133/133/133 128/128/128 
f 134/134/134 133/133/133 132/132/132 
f 132/132/132 131/131/131 135/135/135 
f 132/132/132 136/136/136 134/134/134 
f 135/135/135 136/136/136 132/132/132 
f 137/137/137 134/134/134 136/136/136 
f 138/138/138 136/136/136 135/135/135 
f 136/136/136 138/138/138 137/137/137 
f 135/135/135 139/139/139 138/138/138 
f 138/138/138 139/139/139 140/140/140 
f 137/137/137 138/138/138 141/141/141 
f 140/140/140 141/141/141 138/138/138 
f 141/141/141 142/142/142 137/137/137 
f 143/143/143 142/142/142 141/141/141 
f 141/141/141 140/140/140 144/144/144 
f 141/141/141 145/145/145 143/143/143 
f 144/144/144 145/145/145 141/141/141 
f 146/146/146 143/143/143 145/145/145 
f 145/145/145 147/147/147 146/146/146 
f 147/147/147 145/145/145 144/144/144 
f 144/144/144 148/148/148 147/147/147 
f 149/149/149 151/151/151 150/150/150 
f 150/150/150 152/152/152 149/149/149 
f 153/153/153 149/149/149 152/152/152 
f 154/154/154 152/152/152 150/150/150 
f 150/150/150 155/155/155 154/154/154 
f 152/152/152 154/154/154 156/156/156 
f 156/156/156 157/157/157 152/152/152 
f 152/152/152 157/157/157 153/153/153 
f 157/157/157 156/156/156 158/158/158 
f 158/158/158 159/159/159 157/157/157 
f 153/153/153 157/157/157 159/159/159 
f 159/159/159 160/160/160 153/153/153 
f 161/161/161 163/163/163 162/162/162 
f 162/162/162 164/164/164 161/161/161 
f 165/165/165 161/161/161 164/164/164 
f 166/166/166 164/164/164 162/162/162 
f 162/162/162 167/167/167 166/166/166 
f 164/164/164 166/166/166 168/168/168 
f 164/164/164 169/169/169 165/165/165 
f 168/168/168 169/169/169 164/164/164 
f 170/170/170 165/165/165 169/169/169 
f 169/169/169 171/171/171 170/170/170 
f 171/171/171 169/169/169 168/168/168 
f 168/168/168 172/172/172 171/171/171 
f 173/173/173 175/175/175 174/174/174 
f 174/174/174 176/176/176 173/173/173 
f 177/177/177 173/173/173 176/176/176 
f 178/178/178 176/176/176 174/174/174 
f 174/174/174 179/179/179 178/178/178 
f 180/180/180 176/176/176 178/178/178 
f 176/176/176 180/180/180 177/177/177 
f 178/178/178 181/181/181 180/180/180 
f 180/180/180 181/181/181 182/182/182 
f 182/182/182 183/183/183 180/180/180 
f 177/177/177 180/180/180 183/183/183 
f 183/183/183 184/184/184 177/177/177 
f 185/185/185 187/187/187 186/186/186 
f 186/186/186 188/188/188 185/185/185 
f 185/185/185 188/188/188 189/189/189 
f 189/189/189 190/190/190 185/185/185 
f 191/191/191 189/189/189 188/188/188 
f 192/192/192 188/188/188 186/186/186 
f 188/188/188 192/192/192 191/191/191 
f 186/186/186 193/193/193 192/192/192 
f 194/194/194 191/191/191 192/192/192 
f 195/195/195 192/192/192 193/193/193 
f 192/192/192 195/195/195 194/194/194 
f 193/193/193 196/196/196 195/195/195 
f 195/195/195 196/196/196 197/197/197 
f 194/194/194 195/195/195 198/198/198 
f 197/197/197 198/198/198 195/195/195 
f 198/198/198 199/199/199 194/194/194 
f 200/200/200 199/199/199 198/198/198 
f 198/198/198 197/197/197 201/201/201 
f 198/198/198 202/202/202 200/200/200 
f 201/201/201 202/202/202 198/198/198 
f 203/203/203 200/200/200 202/202/202 
f 204/204/204 202/202/202 201/201/201 
f 202/202/202 204/204/204 203/203/203 
f 201/201/201 205/205/205 204/204/204 
f 204/204/204 205/205/205 206/206/206 
f 203/203/203 204/204/204 207/207/207 
f 206/206/206 207/207/207 204/204/204 
f 207/207/207 208/208/208 203/203/203 
f 209/209/209 208/208/208 207/207/207 
f 207/207/207 206/206/206 210/210/210 
f 207/207/207 211/211/211 209/209/209 
f 210/210/210 211/211/211 207/207/207 
f 212/212/212 209/209/209 211/211/211 
f 213/213/213 211/211/211 210/210/210 
f 211/211/211 213/213/213 212/212/212 
f 210/210/210 214/214/214 213/213/213 
f 213/213/213 214/214/214 215/215/215 
f 212/212/212 213/213/213 216/216/216 
f 215/215/215 216/216/216 213/213/213 
f 216/216/216 217/217/217 212/212/212 
f 216/216/216 215/215/215 218/218/218 
f 217/217/217 216/216/216 219/219/219 
f 218/218/218 219/219/219 216/216/216 
f 219/219/219 220/220/220 217/217/217 
f 219/219/219 218/218/218 221/221/221 
f 220/220/220 219/219/219 222/222/222 
f 221/221/221 222/222/222 219/219/219 
f 222/222/222 221/221/221 223/223/223 
f 222/222/222 224/224/224 220/220/220 
f 223/223/223 225/225/225 222/222/222 
f 224/224/224 222/222/222 225/225/225 
f 225/225/225 226/226/226 224/224/224 
f 227/227/227 229/229/229 228/228/228 
f 228/228/228 230/230/230 227/227/227 
f 231/231/231 227/227/227 230/230/230 
f 232/232/232 230/230/230 228/228/228 
f 228/228/228 233/233/233 232/232/232 
f 230/230/230 232/232/232 234/234/234 
f 230/230/230 235/235/235 231/231/231 
f 234/234/234 235/235/235 230/230/230 
f 236/236/236 231/231/231 235/235/235 
f 235/235/235 234/234/234 237/237/237 
f 235/235/235 238/238/238 236/236/236 
f 237/237/237 238/238/238 235/235/235 
