# exported by StudySceneExporter from mesh 'Duct_Tape_low'
mtllib materials.mtl
v -0.009930658 0.05921665 -0.02514122
v -0.02875888 0.0530888 0.0256588
v -0.02875888 0.0530888 -0.02514122
v -0.009930658 0.05921665 0.0256588
v 0.009869661 0.05922626 -0.02514122
v 0.009869661 0.05922626 0.0256588
v 0.02870385 0.05311684 -0.02514122
v 0.02870385 0.05311684 0.0256588
v 0.04472835 0.04148632 -0.02514122
v 0.04472835 0.04148632 0.0256588
v 0.05637446 0.02547321 -0.02514122
v 0.05637446 0.02547321 0.0256588
v 0.06250228 0.006644974 -0.02514122
v 0.06250228 0.006644974 0.0256588
v 0.06251195 -0.01315533 -0.02514122
v 0.06251195 -0.01315533 0.0256588
v 0.0564025 -0.03198951 -0.02514122
v 0.0564025 -0.03198951 0.0256588
v 0.04477198 -0.04801399 -0.02514122
v 0.04477198 -0.04801399 0.0256588
v 0.0287589 -0.05966011 -0.02514122
v 0.0287589 -0.05966011 0.0256588
v 0.009930658 -0.06578796 -0.02514122
v 0.009930658 -0.06578796 0.0256588
v -0.009869652 -0.06579761 -0.02514122
v -0.009869652 -0.06579761 0.0256588
v -0.02875888 0.0530888 -0.02514122
v -0.02875888 0.0530888 0.0256588
v -0.04477204 0.04144268 0.0256588
v -0.04477204 0.04144268 -0.02514122
v -0.05640253 0.02541821 0.0256588
v -0.05640253 0.02541821 -0.02514122
v -0.06251195 0.006583977 0.0256588
v -0.06251195 0.006583977 -0.02514122
v -0.06250228 -0.01321636 0.0256588
v -0.06250228 -0.01321636 -0.02514122
v -0.05637446 -0.03204456 0.0256588
v -0.05637446 -0.03204456 -0.02514122
v -0.04472833 -0.04805767 0.0256588
v -0.04472833 -0.04805767 -0.02514122
v -0.02870385 -0.05968818 0.0256588
v -0.02870385 -0.05968818 -0.02514122
v -0.009869652 -0.06579761 0.0256588
v -0.009869652 -0.06579761 -0.02514122
v -0.005799999 0.03321865 -0.02514122
v 0.005764322 0.03322426 0.0256588
v 0.005764322 0.03322426 -0.02514122
v -0.005799999 0.03321865 0.0256588
v -0.01679656 0.0296397 -0.02514122
v -0.01679656 0.0296397 0.0256588
v -0.026149 0.02283779 -0.02514122
v -0.026149 0.02283779 0.0256588
v -0.03294176 0.01347874 -0.02514122
v -0.03294176 0.01347874 0.0256588
v -0.03650995 0.002478676 -0.02514122
v -0.03650995 0.002478676 0.0256588
v -0.03650432 -0.009085655 -0.02514122
v -0.03650432 -0.009085655 0.0256588
v -0.03292539 -0.02008224 -0.02514122
v -0.03292539 -0.02008224 0.0256588
v -0.02612348 -0.02943462 -0.02514122
v -0.02612348 -0.02943462 0.0256588
v -0.01676442 -0.03622742 -0.02514122
v -0.01676442 -0.03622742 0.0256588
v -0.005764341 -0.03979564 -0.02514122
v -0.005764341 -0.03979564 0.0256588
v 0.005799951 -0.03978996 -0.02514122
v 0.005799951 -0.03978996 0.0256588
v 0.01679656 -0.03621105 -0.02514122
v 0.01679656 -0.03621105 0.0256588
v 0.02614896 -0.02940914 -0.02514122
v 0.02614896 -0.02940914 0.0256588
v 0.03294173 -0.02005009 -0.02514122
v 0.03294173 -0.02005009 0.0256588
v 0.03650996 -0.009050026 -0.02514122
v 0.03650996 -0.009050026 0.0256588
v 0.03650428 0.002514305 -0.02514122
v 0.03650428 0.002514305 0.0256588
v 0.03292535 0.01351086 -0.02514122
v 0.03292535 0.01351086 0.0256588
v 0.02612348 0.02286327 -0.02514122
v 0.02612348 0.02286327 0.0256588
v 0.0167644 0.02965607 -0.02514122
v 0.0167644 0.02965607 0.0256588
v 0.005764322 0.03322426 -0.02514122
v 0.005764322 0.03322426 0.0256588
v -0.02875888 0.0530888 -0.02514122
v -0.02277339 0.0566325 -0.0256588
v -0.02290776 0.05578152 -0.01742859
v -0.01685761 0.061572 -0.0250515
v -0.01693516 0.05955143 -0.008555831
v -0.02342138 0.05557903 0.0256588
v -0.02875888 0.0530888 -0.02514122
v -0.02875888 0.0530888 0.0256588
v -0.01659322 0.05901775 0.0256588
v -0.0127155 0.06304962 0.005064468
v -0.01195245 0.06389362 0.01864792
v -0.01262059 0.06552082 -0.01511047
v -0.01375846 0.06073906 0.02513588
v -0.01143809 0.06317703 0.02163048
v -0.01077899 0.06159119 0.02402573
v -0.01213561 0.06521083 -0.0194854
v -0.01425412 0.06323639 -0.02445595
v -0.01211114 0.06579761 -0.02342331
v 0.02870385 0.05311684 0.0256588
v 0.005764322 0.03322426 0.0256588
v 0.009869661 0.05922626 0.0256588
v 0.0167644 0.02965607 0.0256588
v -0.005799999 0.03321865 0.0256588
v 0.04472835 0.04148632 0.0256588
v -0.009930658 0.05921665 0.0256588
v 0.02612348 0.02286327 0.0256588
v -0.01679656 0.0296397 0.0256588
v 0.05637446 0.02547321 0.0256588
v -0.02875888 0.0530888 0.0256588
v 0.03292535 0.01351086 0.0256588
v -0.026149 0.02283779 0.0256588
v 0.06250228 0.006644974 0.0256588
v -0.04477204 0.04144268 0.0256588
v 0.03650428 0.002514305 0.0256588
v -0.03294176 0.01347874 0.0256588
v 0.06251195 -0.01315533 0.0256588
v -0.05640253 0.02541821 0.0256588
v 0.03650996 -0.009050026 0.0256588
v -0.03650995 0.002478676 0.0256588
v 0.0564025 -0.03198951 0.0256588
v -0.06251195 0.006583977 0.0256588
v 0.03294173 -0.02005009 0.0256588
v -0.03650432 -0.009085655 0.0256588
v 0.04477198 -0.04801399 0.0256588
v -0.06250228 -0.01321636 0.0256588
v 0.02614896 -0.02940914 0.0256588
v -0.03292539 -0.02008224 0.0256588
v 0.0287589 -0.05966011 0.0256588
v -0.05637446 -0.03204456 0.0256588
v 0.01679656 -0.03621105 0.0256588
v -0.02612348 -0.02943462 0.0256588
v 0.009930658 -0.06578796 0.0256588
v -0.04472833 -0.04805767 0.0256588
v 0.005799951 -0.03978996 0.0256588
v -0.01676442 -0.03622742 0.0256588
v -0.009869652 -0.06579761 0.0256588
v -0.02870385 -0.05968818 0.0256588
v -0.005764341 -0.03979564 0.0256588
v 0.009869661 0.05922626 -0.02514122
v 0.005764322 0.03322426 -0.02514122
v 0.0167644 0.02965607 -0.02514122
v 0.02870385 0.05311684 -0.02514122
v -0.009930658 0.05921665 -0.02514122
v 0.02612348 0.02286327 -0.02514122
v -0.005799999 0.03321865 -0.02514122
v 0.04472835 0.04148632 -0.02514122
v -0.02875888 0.0530888 -0.02514122
v 0.03292535 0.01351086 -0.02514122
v -0.01679656 0.0296397 -0.02514122
v 0.05637446 0.02547321 -0.02514122
v -0.04477204 0.04144268 -0.02514122
v 0.03650428 0.002514305 -0.02514122
v -0.026149 0.02283779 -0.02514122
v 0.06250228 0.006644974 -0.02514122
v -0.05640253 0.02541821 -0.02514122
v 0.03650996 -0.009050026 -0.02514122
v -0.03294176 0.01347874 -0.02514122
v 0.06251195 -0.01315533 -0.02514122
v -0.06251195 0.006583977 -0.02514122
v 0.03294173 -0.02005009 -0.02514122
v -0.03650995 0.002478676 -0.02514122
v 0.0564025 -0.03198951 -0.02514122
v -0.06250228 -0.01321636 -0.02514122
v 0.02614896 -0.02940914 -0.02514122
v -0.03650432 -0.009085655 -0.02514122
v 0.04477198 -0.04801399 -0.02514122
v -0.05637446 -0.03204456 -0.02514122
v 0.01679656 -0.03621105 -0.02514122
v -0.03292539 -0.02008224 -0.02514122
v 0.0287589 -0.05966011 -0.02514122
v -0.04472833 -0.04805767 -0.02514122
v 0.005799951 -0.03978996 -0.02514122
v -0.02612348 -0.02943462 -0.02514122
v 0.009930658 -0.06578796 -0.02514122
v -0.02870385 -0.05968818 -0.02514122
v -0.005764341 -0.03979564 -0.02514122
v -0.01676442 -0.03622742 -0.02514122
v -0.009869652 -0.06579761 -0.02514122
vt 0.1870003 0.8618417
vt 0.2036853 0.9046607
vt 0.2036893 0.8618433
vt 0.1869963 0.9046593
vt 0.1703114 0.8618402
vt 0.1703074 0.9046578
vt 0.1536224 0.8618388
vt 0.1536185 0.9046562
vt 0.1369335 0.8618371
vt 0.1369295 0.9046545
vt 0.1202446 0.8618355
vt 0.1202406 0.9046531
vt 0.1035556 0.861834
vt 0.1035516 0.9046516
vt 0.08686668 0.8618326
vt 0.08686268 0.90465
vt 0.07017773 0.8618309
vt 0.07017376 0.9046483
vt 0.05348879 0.8618293
vt 0.05348481 0.9046469
vt 0.03679985 0.8618279
vt 0.03679587 0.9046454
vt 0.0201109 0.8618264
vt 0.02010692 0.9046438
vt 0.003421955 0.8618248
vt 0.003417976 0.9046421
vt 0.08352166 0.9537647
vt 0.08352166 0.996582
vt 0.1002479 0.9965529
vt 0.1001733 0.9537356
vt 0.1169368 0.9965239
vt 0.1168623 0.9537065
vt 0.1336257 0.9964948
vt 0.1335512 0.9536777
vt 0.1503147 0.9964659
vt 0.1502401 0.9536486
vt 0.1670036 0.9964368
vt 0.1669291 0.9536195
vt 0.1836925 0.9964077
vt 0.1836179 0.9535904
vt 0.2003814 0.9963787
vt 0.2003069 0.9535613
vt 0.2170703 0.9963498
vt 0.2169958 0.9535322
vt 0.1886136 0.9077015
vt 0.1983614 0.9505188
vt 0.1983607 0.9077015
vt 0.1886142 0.9505188
vt 0.1788665 0.9077015
vt 0.1788672 0.9505191
vt 0.1691194 0.9077017
vt 0.16912 0.9505191
vt 0.1593722 0.907702
vt 0.1593729 0.9505193
vt 0.1496251 0.907702
vt 0.1496257 0.9505196
vt 0.1398779 0.9077022
vt 0.1398786 0.9505196
vt 0.1301308 0.9077024
vt 0.1301314 0.9505198
vt 0.1203836 0.9077024
vt 0.1203843 0.95052
vt 0.1106365 0.9077027
vt 0.1106372 0.95052
vt 0.1008893 0.9077029
vt 0.10089 0.9505203
vt 0.09114221 0.9077029
vt 0.09114289 0.9505205
vt 0.08139509 0.9077032
vt 0.08139575 0.9505205
vt 0.07164794 0.9077034
vt 0.07164861 0.9505208
vt 0.06190079 0.9077034
vt 0.06190148 0.950521
vt 0.05215368 0.9077036
vt 0.05215433 0.950521
vt 0.04240653 0.9077039
vt 0.04240721 0.9505212
vt 0.03265939 0.9077039
vt 0.03266007 0.9505215
vt 0.02291226 0.9077041
vt 0.02291293 0.9505215
vt 0.01316513 0.9077044
vt 0.0131658 0.9505217
vt 0.003417969 0.9077044
vt 0.003418639 0.9505219
vt 0.08352166 0.9537647
vt 0.07764421 0.9532986
vt 0.07817274 0.9602551
vt 0.07113786 0.9537849
vt 0.07222606 0.9677391
vt 0.07861066 0.9965777
vt 0.08352166 0.9537647
vt 0.08352166 0.996582
vt 0.07216282 0.9965763
vt 0.06754659 0.9791875
vt 0.06652272 0.9906321
vt 0.06612791 0.9621036
vt 0.06935407 0.9962258
vt 0.06653424 0.9932539
vt 0.06662251 0.9957366
vt 0.06601481 0.9583845
vt 0.06851777 0.9542255
vt 0.06568418 0.9550443
vt 0.1036307 0.8303194
vt 0.07813215 0.8281322
vt 0.09382117 0.843821
vt 0.08386138 0.8202465
vt 0.07024655 0.8338614
vt 0.1087878 0.8144474
vt 0.08031952 0.8536305
vt 0.08687341 0.8109765
vt 0.06097649 0.8368735
vt 0.1087878 0.7977583
vt 0.06444739 0.8587878
vt 0.08687341 0.8012295
vt 0.05122936 0.8368735
vt 0.1036307 0.7818863
vt 0.04775843 0.8587878
vt 0.08386138 0.7919593
vt 0.04195926 0.8338614
vt 0.09382117 0.7683847
vt 0.03188631 0.8536305
vt 0.07813215 0.7840736
vt 0.03407367 0.8281322
vt 0.08031952 0.7585752
vt 0.01838465 0.843821
vt 0.07024656 0.7783444
vt 0.02834444 0.8202467
vt 0.06444739 0.753418
vt 0.008575138 0.8303194
vt 0.06097648 0.7753325
vt 0.02533241 0.8109765
vt 0.04775845 0.753418
vt 0.003417969 0.8144474
vt 0.05122933 0.7753325
vt 0.02533241 0.8012295
vt 0.03188631 0.7585752
vt 0.003417978 0.7977583
vt 0.04195927 0.7783444
vt 0.02834444 0.7919593
vt 0.01838467 0.7683847
vt 0.008575145 0.7818863
vt 0.03407367 0.7840736
vt 0.2022136 0.8438101
vt 0.1865186 0.8281269
vt 0.1786352 0.8338592
vt 0.1887157 0.8536246
vt 0.212018 0.8303046
vt 0.1693662 0.8368747
vt 0.1922449 0.8202391
vt 0.1728455 0.8587878
vt 0.2171691 0.8144305
vt 0.1596191 0.8368783
vt 0.1952534 0.8109679
vt 0.1561566 0.8587942
vt 0.2171627 0.7977414
vt 0.1503479 0.8338699
vt 0.1952497 0.8012209
vt 0.1402825 0.8536429
vt 0.2119995 0.7818713
vt 0.1424601 0.8281436
vt 0.192234 0.7919519
vt 0.1267771 0.8438387
vt 0.2021849 0.7683735
vt 0.1367279 0.8202603
vt 0.1865019 0.7840686
vt 0.1169624 0.8303409
vt 0.1886795 0.7585692
vt 0.1337124 0.8109913
vt 0.1786141 0.7783422
vt 0.1117992 0.8144708
vt 0.1728054 0.753418
vt 0.1337086 0.8012443
vt 0.1693428 0.7753336
vt 0.1117929 0.7977817
vt 0.1561165 0.7534244
vt 0.1367171 0.7919731
vt 0.1595957 0.7753375
vt 0.116944 0.7819076
vt 0.1402463 0.7585876
vt 0.1424434 0.7840853
vt 0.1503268 0.778353
vt 0.1267484 0.7684021
vn -0.1569157 0.9876119 0
vn -0.309482 0.9509053 0
vn -0.309482 0.9509053 0
vn -0.1569157 0.9876119 0
vn 0.1559535 0.9877644 0
vn 0.1559535 0.9877644 0
vn 0.4535554 0.891228 0
vn 0.4535554 0.891228 0
vn 0.7067615 0.7074518 0
vn 0.7067615 0.7074518 0
vn 0.8907852 0.4544245 0
vn 0.8907852 0.4544245 0
vn 0.9876118 0.1569165 0
vn 0.9876118 0.1569165 0
vn 0.9877647 -0.1559524 0
vn 0.9877647 -0.1559524 0
vn 0.891228 -0.4535554 0
vn 0.891228 -0.4535554 0
vn 0.7074517 -0.7067617 0
vn 0.7074517 -0.7067617 0
vn 0.4544251 -0.8907849 0
vn 0.4544251 -0.8907849 0
vn 0.1569173 -0.9876117 0
vn 0.1569173 -0.9876117 0
vn -0.1559528 -0.9877645 0
vn -0.1559528 -0.9877645 0
vn -0.5881777 0.8087317 0
vn -0.5881777 0.8087317 0
vn -0.7074511 0.7067623 0
vn -0.7074511 0.7067623 0
vn -0.8912287 0.4535542 0
vn -0.8912287 0.4535542 0
vn -0.9877648 0.1559514 0
vn -0.9877648 0.1559514 0
vn -0.9876118 -0.1569165 0
vn -0.9876118 -0.1569165 0
vn -0.890785 -0.4544249 0
vn -0.890785 -0.4544249 0
vn -0.7067617 -0.7074517 0
vn -0.7067617 -0.7074517 0
vn -0.4535554 -0.891228 0
vn -0.4535554 -0.891228 0
vn -0.1559528 -0.9877645 0
vn -0.1559528 -0.9877645 0
vn 0.1569154 -0.9876121 0
vn -0.1559539 -0.9877644 0
vn -0.1559539 -0.9877644 0
vn 0.1569154 -0.9876121 0
vn 0.4544263 -0.8907843 0
vn 0.4544263 -0.8907843 0
vn 0.7074514 -0.706762 0
vn 0.7074514 -0.706762 0
vn 0.8912284 -0.4535548 0
vn 0.8912284 -0.4535548 0
vn 0.9877647 -0.1559524 0
vn 0.9877647 -0.1559524 0
vn 0.9876119 0.1569158 0
vn 0.9876119 0.1569158 0
vn 0.8907843 0.4544264 0
vn 0.8907843 0.4544264 0
vn 0.7067612 0.7074522 0
vn 0.7067612 0.7074522 0
vn 0.4535569 0.8912274 0
vn 0.4535569 0.8912274 0
vn 0.1559502 0.987765 0
vn 0.1559502 0.987765 0
vn -0.1569177 0.9876117 0
vn -0.1569177 0.9876117 0
vn -0.4544227 0.8907862 0
vn -0.4544227 0.8907862 0
vn -0.7074512 0.7067621 0
vn -0.7074512 0.7067621 0
vn -0.8912275 0.4535563 0
vn -0.8912275 0.4535563 0
vn -0.9877648 0.1559516 0
vn -0.9877648 0.1559516 0
vn -0.9876116 -0.1569181 0
vn -0.9876116 -0.1569181 0
vn -0.8907852 -0.4544245 0
vn -0.8907852 -0.4544245 0
vn -0.7067618 -0.7074515 0
vn -0.7067618 -0.7074515 0
vn -0.453555 -0.8912283 0
vn -0.453555 -0.8912283 0
vn -0.1559539 -0.9877644 0
vn -0.1559539 -0.9877644 0
vn -0.5026032 0.860734 0.08078978
vn -0.6053947 0.7915272 0.08355915
vn -0.479041 0.8775781 0.01939949
vn -0.6700697 0.7392848 0.06681752
vn -0.5979884 0.8008806 0.03162473
vn -0.4570399 0.8894399 0.003355915
vn -0.4201336 0.9074622 -0.0003412679
vn -0.4201336 0.9074622 -0.000341268
vn -0.5346975 0.8449402 0.01321186
vn -0.7014581 0.7124528 0.01917101
vn -0.6849285 0.7283187 0.02060975
vn -0.7604027 0.6459333 0.06751154
vn -0.4319293 0.8489422 0.3045229
vn -0.4274719 0.8498941 0.3081358
vn -0.02956679 0.8296604 0.5574849
vn -0.5391433 0.8359802 -0.1022813
vn -0.5458157 0.8321638 -0.09792194
vn -0.7810757 0.6183063 0.08728198
vn 0 2.806708E-06 1
vn 0 9.355706E-07 1
vn 0 9.35571E-07 1
vn 0 2.806707E-06 1
vn 0 4.677854E-07 1
vn 0 1.871139E-06 1
vn 0 4.677852E-07 1
vn 0 1.871137E-06 1
vn 0 9.35571E-07 1
vn 0 1.871139E-06 1
vn 0 9.35571E-07 1
vn 0 1.871143E-06 1
vn 0 0 1
vn 0 3.74228E-06 1
vn 0 0 1
vn 0 3.74228E-06 1
vn 0 0 1
vn 0 1.871139E-06 1
vn 0 0 1
vn 0 1.871139E-06 1
vn 0 -1.87114E-06 1
vn 0 0 1
vn 0 -1.871139E-06 1
vn 0 0 1
vn 0 -3.742285E-06 1
vn 0 0 1
vn 0 -3.742284E-06 1
vn 0 0 1
vn 0 -1.871143E-06 1
vn 0 -9.355711E-07 1
vn 0 -1.871144E-06 1
vn 0 -9.355725E-07 1
vn 0 0 1
vn 0 -4.677857E-07 1
vn 0 0 1
vn 0 -4.677848E-07 1
vn 0 9.355683E-07 1
vn 0 1.403356E-06 1
vn 0 9.355692E-07 1
vn 0 1.403356E-06 1
vn 0 -4.677855E-07 -1
vn 0 -4.67786E-07 -1
vn 0 -4.677838E-07 -1
vn 0 -4.677854E-07 -1
vn 0 -1.871142E-06 -1
vn 0 -9.355683E-07 -1
vn 0 -1.871142E-06 -1
vn 0 -9.355693E-07 -1
vn 0 -1.871142E-06 -1
vn 0 1.871142E-06 -1
vn 0 -1.871142E-06 -1
vn 0 1.871138E-06 -1
vn 0 -3.742276E-06 -1
vn 0 0 -1
vn 0 -3.742277E-06 -1
vn 0 0 -1
vn 0 0 -1
vn 0 0 -1
vn 0 0 -1
vn 0 0 -1
vn 0 0 -1
vn 0 1.871138E-06 -1
vn 0 0 -1
vn 0 1.87114E-06 -1
vn 0 -1.871141E-06 -1
vn 0 -1.871143E-06 -1
vn 0 -1.871144E-06 -1
vn 0 -1.871142E-06 -1
vn 0 0 -1
vn 0 -2.806714E-06 -1
vn 0 0 -1
vn 0 -2.806715E-06 -1
vn 0 -9.355713E-07 -1
vn 0 -1.403356E-06 -1
vn 0 -9.355706E-07 -1
vn 0 -1.403356E-06 -1
vn 0 -1.403355E-06 -1
vn 0 -9.355714E-07 -1
vn 0 -1.403356E-06 -1
vn 0 -9.355714E-07 -1
usemtl Mat_Tools
f 1/1/1 3/3/3 2/2/2 
f 1/1/1 2/2/2 4/4/4 
f 5/5/5 1/1/1 4/4/4 
f 5/5/5 4/4/4 6/6/6 
f 7/7/7 5/5/5 6/6/6 
f 7/7/7 6/6/6 8/8/8 
f 9/9/9 7/7/7 8/8/8 
f 9/9/9 8/8/8 10/10/10 
f 11/11/11 9/9/9 10/10/10 
f 11/11/11 10/10/10 12/12/12 
f 13/13/13 11/11/11 12/12/12 
f 13/13/13 12/12/12 14/14/14 
f 15/15/15 13/13/13 14/14/14 
f 15/15/15 14/14/14 16/16/16 
f 17/17/17 15/15/15 16/16/16 
f 17/17/17 16/16/16 18/18/18 
f 19/19/19 17/17/17 18/18/18 
f 19/19/19 18/18/18 20/20/20 
f 21/21/21 19/19/19 20/20/20 
f 21/21/21 20/20/20 22/22/22 
f 23/23/23 21/21/21 22/22/22 
f 23/23/23 22/22/22 24/24/24 
f 25/25/25 23/23/23 24/24/24 
f 25/25/25 24/24/24 26/26/26 
f 27/27/27 29/29/29 28/28/28 
f 27/27/27 30/30/30 29/29/29 
f 30/30/30 31/31/31 29/29/29 
f 30/30/30 32/32/32 31/31/31 
f 32/32/32 33/33/33 31/31/31 
f 32/32/32 34/34/34 33/33/33 
f 34/34/34 35/35/35 33/33/33 
f 34/34/34 36/36/36 35/35/35 
f 36/36/36 37/37/37 35/35/35 
f 36/36/36 38/38/38 37/37/37 
f 38/38/38 39/39/39 37/37/37 
f 38/38/38 40/40/40 39/39/39 
f 40/40/40 41/41/41 39/39/39 
f 40/40/40 42/42/42 41/41/41 
f 42/42/42 43/43/43 41/41/41 
f 42/42/42 44/44/44 43/43/43 
f 45/45/45 47/47/47 46/46/46 
f 45/45/45 46/46/46 48/48/48 
f 49/49/49 45/45/45 48/48/48 
f 49/49/49 48/48/48 50/50/50 
f 51/51/51 49/49/49 50/50/50 
f 51/51/51 50/50/50 52/52/52 
f 53/53/53 51/51/51 52/52/52 
f 53/53/53 52/52/52 54/54/54 
f 55/55/55 53/53/53 54/54/54 
f 55/55/55 54/54/54 56/56/56 
f 57/57/57 55/55/55 56/56/56 
f 57/57/57 56/56/56 58/58/58 
f 59/59/59 57/57/57 58/58/58 
f 59/59/59 58/58/58 60/60/60 
f 61/61/61 59/59/59 60/60/60 
f 61/61/61 60/60/60 62/62/62 
f 63/63/63 61/61/61 62/62/62 
f 63/63/63 62/62/62 64/64/64 
f 65/65/65 63/63/63 64/64/64 
f 65/65/65 64/64/64 66/66/66 
f 67/67/67 65/65/65 66/66/66 
f 67/67/67 66/66/66 68/68/68 
f 69/69/69 67/67/67 68/68/68 
f 69/69/69 68/68/68 70/70/70 
f 71/71/71 69/69/69 70/70/70 
f 71/71/71 70/70/70 72/72/72 
f 73/73/73 71/71/71 72/72/72 
f 73/73/73 72/72/72 74/74/74 
f 75/75/75 73/73/73 74/74/74 
f 75/75/75 74/74/74 76/76/76 
f 77/77/77 75/75/75 76/76/76 
f 77/77/77 76/76/76 78/78/78 
f 79/79/79 77/77/77 78/78/78 
f 79/79/79 78/78/78 80/80/80 
f 81/81/81 79/79/79 80/80/80 
f 81/81/81 80/80/80 82/82/82 
f 83/83/83 81/81/81 82/82/82 
f 83/83/83 82/82/82 84/84/84 
f 85/85/85 83/83/83 84/84/84 
f 85/85/85 84/84/84 86/86/86 
f 87/87/87 89/89/89 88/88/88 
f 90/90/90 88/88/88 89/89/89 
f 90/90/90 89/89/89 91/91/91 
f 91/91/91 89/89/89 92/92/92 
f 93/93/93 92/92/92 89/89/89 
f 93/93/93 94/94/94 92/92/92 
f 91/91/91 92/92/92 95/95/95 
f 96/96/96 91/91/91 95/95/95 
f 90/90/90 91/91/91 96/96/96 
f 96/96/96 95/95/95 97/97/97 
f 90/90/90 96/96/96 98/98/98 
f 97/97/97 95/95/95 99/99/99 
f 97/97/97 99/99/99 100/100/100 
f 100/100/100 99/99/99 101/101/101 
f 90/90/90 98/98/98 102/102/102 
f 90/90/90 102/102/102 103/103/103 
f 103/103/103 102/102/102 104/104/104 
f 105/105/105 107/107/107 106/106/106 
f 105/105/105 106/106/106 108/108/108 
f 107/107/107 109/109/109 106/106/106 
f 110/110/110 105/105/105 108/108/108 
f 107/107/107 111/111/111 109/109/109 
f 110/110/110 108/108/108 112/112/112 
f 111/111/111 113/113/113 109/109/109 
f 114/114/114 110/110/110 112/112/112 
f 111/111/111 115/115/115 113/113/113 
f 114/114/114 112/112/112 116/116/116 
f 115/115/115 117/117/117 113/113/113 
f 118/118/118 114/114/114 116/116/116 
f 115/115/115 119/119/119 117/117/117 
f 118/118/118 116/116/116 120/120/120 
f 119/119/119 121/121/121 117/117/117 
f 122/122/122 118/118/118 120/120/120 
f 119/119/119 123/123/123 121/121/121 
f 122/122/122 120/120/120 124/124/124 
f 123/123/123 125/125/125 121/121/121 
f 126/126/126 122/122/122 124/124/124 
f 123/123/123 127/127/127 125/125/125 
f 126/126/126 124/124/124 128/128/128 
f 127/127/127 129/129/129 125/125/125 
f 130/130/130 126/126/126 128/128/128 
f 127/127/127 131/131/131 129/129/129 
f 130/130/130 128/128/128 132/132/132 
f 131/131/131 133/133/133 129/129/129 
f 134/134/134 130/130/130 132/132/132 
f 131/131/131 135/135/135 133/133/133 
f 134/134/134 132/132/132 136/136/136 
f 135/135/135 137/137/137 133/133/133 
f 138/138/138 134/134/134 136/136/136 
f 135/135/135 139/139/139 137/137/137 
f 138/138/138 136/136/136 140/140/140 
f 139/139/139 141/141/141 137/137/137 
f 142/142/142 138/138/138 140/140/140 
f 139/139/139 143/143/143 141/141/141 
f 142/142/142 140/140/140 144/144/144 
f 143/143/143 144/144/144 141/141/141 
f 143/143/143 142/142/142 144/144/144 
f 145/145/145 147/147/147 146/146/146 
f 145/145/145 148/148/148 147/147/147 
f 149/149/149 145/145/145 146/146/146 
f 148/148/148 150/150/150 147/147/147 
f 149/149/149 146/146/146 151/151/151 
f 148/148/148 152/152/152 150/150/150 
f 153/153/153 149/149/149 151/151/151 
f 152/152/152 154/154/154 150/150/150 
f 153/153/153 151/151/151 155/155/155 
f 152/152/152 156/156/156 154/154/154 
f 157/157/157 153/153/153 155/155/155 
f 156/156/156 158/158/158 154/154/154 
f 157/157/157 155/155/155 159/159/159 
f 156/156/156 160/160/160 158/158/158 
f 161/161/161 157/157/157 159/159/159 
f 160/160/160 162/162/162 158/158/158 
f 161/161/161 159/159/159 163/163/163 
f 160/160/160 164/164/164 162/162/162 
f 165/165/165 161/161/161 163/163/163 
f 164/164/164 166/166/166 162/162/162 
f 165/165/165 163/163/163 167/167/167 
f 164/164/164 168/168/168 166/166/166 
f 169/169/169 165/165/165 167/167/167 
f 168/168/168 170/170/170 166/166/166 
f 169/169/169 167/167/167 171/171/171 
f 168/168/168 172/172/172 170/170/170 
f 173/173/173 169/169/169 171/171/171 
f 172/172/172 174/174/174 170/170/170 
f 173/173/173 171/171/171 175/175/175 
f 172/172/172 176/176/176 174/174/174 
f 177/177/177 173/173/173 175/175/175 
f 176/176/176 178/178/178 174/174/174 
f 177/177/177 175/175/175 179/179/179 
f 176/176/176 180/180/180 178/178/178 
f 181/181/181 177/177/177 179/179/179 
f 180/180/180 182/182/182 178/178/178 
f 181/181/181 179/179/179 183/183/183 
f 180/180/180 184/184/184 182/182/182 
f 184/184/184 181/181/181 183/183/183 
f 184/184/184 183/183/183 182/182/182 
