# exported by StudySceneExporter from mesh 'Pegboard_Hook_Pliers_low2'
mtllib materials.mtl
v 0.01153564 -0.0078928 0.005224686
v 0.01385025 -0.0078928 0.005928574
v 0.01385025 -0.0078928 0.009389877
v 0.009133606 -0.0078928 0.007717208
v 0.01385025 -0.01135426 0.009389877
v 0.007175216 -0.0078928 0.003193283
v 0.01063663 -0.0078928 0.00319664
v 0.009133606 -0.01135426 0.007717208
v 0.01385025 -0.01135426 0.005928574
v 0.007175216 -0.01135426 0.003193283
v 0.007175216 -0.0078928 -0.001535263
v 0.01063663 -0.0078928 -0.001531906
v 0.01153564 -0.01135426 0.005224686
v 0.01385025 -0.0078928 0.005928574
v 0.01153564 -0.0078928 0.005224686
v 0.01063663 -0.0078928 0.00319664
v 0.01063663 -0.01135426 0.00319664
v 0.01063663 -0.0078928 -0.001531906
v 0.01063663 -0.01135426 -0.001531906
v 0.01063663 -0.01040577 -0.007002945
v 0.007175216 -0.01135426 -0.001535263
v 0.01063663 -0.01285336 -0.004555283
v 0.01063663 -0.0158321 -0.009389877
v 0.007175216 -0.01285572 -0.004557724
v 0.01063663 -0.0158321 -0.005928421
v 0.01063663 -0.01958668 -0.009389877
v 0.007175216 -0.01040813 -0.007005234
v 0.01063663 -0.01040577 -0.007002945
v 0.01063663 -0.01958668 -0.005928421
v 0.008103447 -0.02470562 -0.009389877
v 0.007175216 -0.01583546 -0.005928421
v 0.007175216 -0.01583538 -0.009389877
v 0.01063663 -0.0158321 -0.009389877
v 0.008103485 -0.02470562 -0.005928421
v 0.00229702 -0.02677349 -0.009389877
v 0.007175216 -0.01959003 -0.005928421
v 0.007175216 -0.01958996 -0.009389877
v 0.01063663 -0.01958668 -0.009389877
v 0.002297058 -0.02677349 -0.005928421
v -0.006154899 -0.02677349 -0.009389877
v 0.005653495 -0.0222604 -0.005928421
v 0.005653534 -0.02226032 -0.009389877
v 0.008103447 -0.02470562 -0.009389877
v -0.006154861 -0.02677349 -0.005928421
v -0.01116978 -0.02470776 -0.009389877
v 0.002293663 -0.02331211 -0.005928421
v 0.002293739 -0.02331203 -0.009389877
v 0.00229702 -0.02677349 -0.009389877
v -0.01116978 -0.02470776 -0.005928421
v -0.01385021 -0.01959156 -0.009389877
v -0.006158256 -0.02331211 -0.005928421
v -0.00615818 -0.02331203 -0.009389877
v -0.006154899 -0.02677349 -0.009389877
v -0.008724555 -0.02225773 -0.005928421
v -0.008724517 -0.0222578 -0.009389877
v -0.01116978 -0.02470776 -0.009389877
v -0.01385025 -0.01959164 -0.005928421
v -0.01038879 -0.0195882 -0.005928421
v -0.01038883 -0.01958828 -0.009389877
v -0.01385021 -0.01959156 -0.009389877
v -0.01385021 0.0195916 -0.009389877
v -0.01385025 0.01959164 -0.005928421
v -0.01385021 0.0195916 -0.009389877
v -0.01116978 0.02470776 -0.009389877
v -0.01038879 0.01958824 -0.005928421
v -0.01038883 0.01958832 -0.009389877
v -0.01116978 0.02470779 -0.005928421
v -0.006154899 0.02677349 -0.009389877
v -0.008724517 0.02225784 -0.009389877
v -0.01116978 0.02470776 -0.009389877
v -0.008724555 0.02225777 -0.005928421
v -0.006154861 0.02677349 -0.005928421
v 0.00229702 0.02677349 -0.009389877
v -0.00615818 0.02331207 -0.009389877
v -0.006154899 0.02677349 -0.009389877
v -0.006158256 0.02331211 -0.005928421
v 0.002297058 0.02677349 -0.005928421
v 0.008103447 0.02470562 -0.009389877
v 0.002293739 0.02331207 -0.009389877
v 0.00229702 0.02677349 -0.009389877
v 0.002293663 0.02331211 -0.005928421
v 0.008103485 0.02470562 -0.005928421
v 0.01063663 0.01958668 -0.009389877
v 0.005653534 0.02226036 -0.009389877
v 0.008103447 0.02470562 -0.009389877
v 0.005653495 0.0222604 -0.005928421
v 0.01063663 0.01958668 -0.005928421
v 0.01063663 0.01583019 -0.009389877
v 0.007175216 0.01958996 -0.009389877
v 0.01063663 0.01958668 -0.009389877
v 0.007175216 0.01959003 -0.005928421
v 0.01063663 0.01583015 -0.005928421
v 0.01063663 0.01040382 -0.007002945
v 0.007175216 0.01583347 -0.009389877
v 0.01063663 0.01583019 -0.009389877
v 0.007175216 0.01583355 -0.005928421
v 0.01063663 0.01285145 -0.004555283
v 0.01063663 0.007890892 -0.001531906
v 0.007175216 0.01040623 -0.007005234
v 0.01063663 0.01040382 -0.007002945
v 0.007175216 0.01285381 -0.004557724
v 0.01063663 0.01135235 -0.001531906
v 0.01063663 0.007890892 0.00319664
v 0.007175216 0.007890892 -0.001535263
v 0.01063663 0.007890892 -0.001531906
v 0.007175216 0.01135235 -0.001535263
v 0.01063663 0.01135235 0.00319664
v 0.01153564 0.007890892 0.005224686
v 0.007175216 0.007890892 0.003193283
v 0.01063663 0.007890892 0.00319664
v 0.007175216 0.01135235 0.003193283
v 0.01153564 0.01135235 0.005224686
v 0.01385025 0.007890892 0.005928574
v 0.01385025 0.01135235 0.005928574
v 0.01385025 0.01135235 0.009389877
v 0.009133606 0.01135235 0.007717208
v 0.01385025 0.007890892 0.009389877
v 0.009133606 0.007890892 0.007717208
v 0.01153564 0.007890892 0.005224686
v 0.01385025 0.007890892 0.005928574
vt 0.8492968 0.7640939
vt 0.8512163 0.7640939
vt 0.852407 0.7619845
vt 0.8492968 0.7619845
vt 0.852407 0.759802
vt 0.8473529 0.7619845
vt 0.8473529 0.7640939
vt 0.8492968 0.759802
vt 0.8505715 0.7576266
vt 0.8473529 0.759802
vt 0.8443043 0.7619845
vt 0.8443044 0.7640939
vt 0.8492968 0.7576266
vt 0.8505715 0.7554419
vt 0.8492968 0.755442
vt 0.8473529 0.755442
vt 0.8473529 0.7576266
vt 0.8443044 0.7554419
vt 0.8443044 0.7576266
vt 0.8415045 0.7554419
vt 0.8443044 0.759802
vt 0.8415045 0.7576266
vt 0.8386941 0.7554419
vt 0.8415045 0.759802
vt 0.8386941 0.7576266
vt 0.836332 0.7554419
vt 0.8415045 0.7619845
vt 0.8415042 0.7640939
vt 0.836332 0.7576266
vt 0.8337216 0.7554419
vt 0.8386941 0.759802
vt 0.8386941 0.7619845
vt 0.8386941 0.7640939
vt 0.8337216 0.7576266
vt 0.830822 0.7554419
vt 0.836332 0.759802
vt 0.8363321 0.7619845
vt 0.836332 0.7640939
vt 0.8308218 0.7576266
vt 0.8255306 0.7554419
vt 0.8337216 0.759802
vt 0.8337218 0.7619845
vt 0.8337218 0.7640939
vt 0.8255306 0.7576266
vt 0.8231108 0.7554419
vt 0.8308218 0.759802
vt 0.830822 0.7619845
vt 0.830822 0.7640939
vt 0.8231107 0.7576266
vt 0.8204768 0.7554419
vt 0.8255306 0.759802
vt 0.8255306 0.7619845
vt 0.8255306 0.7640939
vt 0.8231107 0.759802
vt 0.8231108 0.7619845
vt 0.8231108 0.7640939
vt 0.8204768 0.7576266
vt 0.8204768 0.759802
vt 0.8204768 0.7619845
vt 0.8204768 0.7640939
vt 0.7955077 0.7640939
vt 0.7955077 0.7576266
vt 0.7955077 0.7554419
vt 0.7928827 0.7554419
vt 0.7955077 0.759802
vt 0.7955077 0.7619845
vt 0.7928827 0.7576266
vt 0.7904675 0.7554419
vt 0.7928827 0.7619845
vt 0.7928827 0.7640939
vt 0.7928827 0.759802
vt 0.7904675 0.7576266
vt 0.7851645 0.7554419
vt 0.7904675 0.7619845
vt 0.7904675 0.7640939
vt 0.7904675 0.759802
vt 0.7851645 0.7576266
vt 0.7822723 0.7554419
vt 0.7851645 0.7619845
vt 0.7851645 0.7640939
vt 0.7851645 0.759802
vt 0.7822723 0.7576266
vt 0.7796688 0.7554419
vt 0.7822723 0.7619845
vt 0.7822723 0.7640939
vt 0.7822723 0.759802
vt 0.7796688 0.7576266
vt 0.7772946 0.7554419
vt 0.7796688 0.7619845
vt 0.7796688 0.7640939
vt 0.7796688 0.759802
vt 0.7772946 0.7576266
vt 0.7744982 0.7554419
vt 0.7772946 0.7619845
vt 0.7772946 0.7640939
vt 0.7772946 0.759802
vt 0.7744982 0.7576266
vt 0.7716813 0.7554419
vt 0.7744985 0.7619845
vt 0.7744982 0.7640939
vt 0.7744985 0.759802
vt 0.7716813 0.7576266
vt 0.7686595 0.755442
vt 0.7716813 0.7619845
vt 0.7716813 0.7640939
vt 0.7716813 0.759802
vt 0.7686595 0.7576266
vt 0.7666706 0.7554419
vt 0.7686595 0.7619845
vt 0.7686595 0.7640939
vt 0.7686595 0.759802
vt 0.7666706 0.7576266
vt 0.7653575 0.7554419
vt 0.7653575 0.7576266
vt 0.7635951 0.759802
vt 0.7666706 0.759802
vt 0.7635951 0.7619845
vt 0.7666706 0.7619845
vt 0.7666706 0.7640939
vt 0.7648942 0.7640939
vn 0.2861355 0.8971252 -0.33659
vn 0.148343 0.8602428 -0.4878286
vn -0.294394 0.4735161 0.8301293
vn -0.5973745 0.4785976 0.6434968
vn -0.2943915 -0.4735166 0.8301299
vn -0.7799059 0.6037355 0.1650769
vn 0.60317 0.7935649 -0.08025412
vn -0.5973746 -0.4785975 0.6434968
vn 0.148348 -0.8602421 -0.4878282
vn -0.779908 -0.6037328 0.1650761
vn -0.5997512 0.7769041 -0.1916207
vn 0.5998679 0.7768681 -0.191401
vn 0.2861353 -0.8971252 -0.33659
vn 0.148343 0.8602428 -0.4878286
vn 0.2861355 0.8971252 -0.33659
vn 0.60317 0.7935649 -0.08025412
vn 0.6031656 -0.7935682 -0.08025447
vn 0.5998679 0.7768681 -0.191401
vn 0.7945572 -0.5961418 0.1152996
vn 0.5088639 0.6055732 -0.6118322
vn -0.7947077 -0.5959181 0.1154183
vn 0.8570774 -0.3608756 0.3676781
vn 0.5873229 0.2036397 -0.7833151
vn -0.8570895 -0.3607106 0.3678117
vn 0.8004267 -0.1197372 0.5873501
vn 0.7816072 -0.2231257 -0.5824991
vn -0.5088581 0.6053115 -0.6120961
vn 0.5088639 0.6055732 -0.6118322
vn 0.7816106 -0.2231336 0.5824913
vn 0.5642406 -0.6547453 -0.5029325
vn -0.8003076 -0.119618 0.5875367
vn -0.5874835 0.2034303 -0.7832491
vn 0.5873229 0.2036397 -0.7833151
vn 0.5642459 -0.6547499 0.5029206
vn 0.1105095 -0.761974 -0.6381092
vn -0.5703117 0.1350716 0.810247
vn -0.5703181 0.135082 -0.8102408
vn 0.7816072 -0.2231257 -0.5824991
vn 0.1105128 -0.7619792 0.6381024
vn -0.1167067 -0.7608145 -0.6383892
vn -0.3046814 0.3996001 0.8645744
vn -0.3046891 0.3996063 -0.8645688
vn 0.5642406 -0.6547453 -0.5029325
vn -0.1167054 -0.7608178 0.6383857
vn -0.5894114 -0.631542 -0.503735
vn -0.05784988 0.6497291 0.7579614
vn -0.05785328 0.6497314 -0.7579591
vn 0.1105095 -0.761974 -0.6381092
vn -0.5894092 -0.6315502 0.5037272
vn -0.7250565 -0.04386973 -0.6872909
vn 0.06126992 0.6402903 0.7656854
vn 0.06126908 0.6403036 -0.7656745
vn -0.1167067 -0.7608145 -0.6383892
vn 0.3390802 0.385213 0.8582747
vn 0.3390736 0.38523 -0.8582698
vn -0.5894114 -0.631542 -0.503735
vn -0.7250565 -0.04387277 0.6872905
vn 0.6828049 0.02715519 0.730096
vn 0.6828056 0.0271588 -0.7300951
vn -0.7250565 -0.04386973 -0.6872909
vn -0.7250544 0.04386891 -0.6872929
vn -0.7250559 0.04387228 0.6872911
vn -0.7250544 0.04386891 -0.6872929
vn -0.5894128 0.6315389 -0.5037372
vn 0.6828077 -0.02715529 0.7300933
vn 0.6828059 -0.02716122 -0.7300948
vn -0.5894069 0.6315547 0.5037243
vn -0.1167072 0.7608173 -0.6383859
vn 0.3390729 -0.3852407 -0.8582652
vn -0.5894128 0.6315389 -0.5037372
vn 0.3390819 -0.3852148 0.8582732
vn -0.1167055 0.7608185 0.6383847
vn 0.1105096 0.7619791 -0.6381032
vn 0.06126745 -0.6403047 -0.7656736
vn -0.1167072 0.7608173 -0.6383859
vn 0.0612689 -0.6402952 0.7656816
vn 0.1105127 0.7619787 0.6381029
vn 0.5642377 0.6547506 -0.5029291
vn -0.05785194 -0.649727 -0.7579629
vn 0.1105096 0.7619791 -0.6381032
vn -0.05784872 -0.6497322 0.7579588
vn 0.5642432 0.6547529 0.5029197
vn 0.7815967 0.223075 -0.5825324
vn -0.3046934 -0.3995955 -0.8645723
vn 0.5642377 0.6547506 -0.5029291
vn -0.3046882 -0.3995964 0.8645737
vn 0.7815976 0.2230855 0.5825274
vn 0.587352 -0.2035924 -0.7833057
vn -0.5703596 -0.1350501 -0.8102169
vn 0.7815967 0.223075 -0.5825324
vn -0.5703539 -0.1350334 0.8102237
vn 0.8004083 0.11971 0.5873806
vn 0.508861 -0.6055711 -0.6118367
vn -0.5875103 -0.2033831 -0.7832413
vn 0.587352 -0.2035924 -0.7833057
vn -0.8002892 0.1195892 0.5875676
vn 0.8570773 0.360878 0.367676
vn 0.5998685 -0.7768679 -0.1914003
vn -0.5088542 -0.6053097 -0.6121011
vn 0.508861 -0.6055711 -0.6118367
vn -0.857089 0.3607097 0.3678136
vn 0.7945563 0.5961433 0.1152972
vn 0.6031706 -0.7935644 -0.08025408
vn -0.5997499 -0.776906 -0.1916175
vn 0.5998685 -0.7768679 -0.1914003
vn -0.7947063 0.5959191 0.1154213
vn 0.6031669 0.7935672 -0.08025436
vn 0.2861418 -0.8971234 -0.3365893
vn -0.7799058 -0.6037356 0.1650769
vn 0.6031706 -0.7935644 -0.08025408
vn -0.7799075 0.6037335 0.1650763
vn 0.2861349 0.8971254 -0.3365901
vn 0.1483514 -0.8602417 -0.4878279
vn 0.1483446 0.8602425 -0.4878284
vn -0.2943932 0.4735163 0.8301295
vn -0.5973747 0.4785975 0.6434966
vn -0.2943897 -0.4735168 0.8301304
vn -0.5973722 -0.4785986 0.6434982
vn 0.2861418 -0.8971234 -0.3365893
vn 0.1483514 -0.8602417 -0.4878279
usemtl Mat_Pegboard
f 1/1/1 3/3/3 2/2/2 
f 1/1/1 4/4/4 3/3/3 
f 4/4/4 5/5/5 3/3/3 
f 6/6/6 4/4/4 1/1/1 
f 6/6/6 1/1/1 7/7/7 
f 4/4/4 8/8/8 5/5/5 
f 8/8/8 9/9/9 5/5/5 
f 10/10/10 4/4/4 6/6/6 
f 10/10/10 8/8/8 4/4/4 
f 11/11/11 6/6/6 7/7/7 
f 11/11/11 7/7/7 12/12/12 
f 8/8/8 13/13/13 9/9/9 
f 13/13/13 14/14/14 9/9/9 
f 13/13/13 15/15/15 14/14/14 
f 16/16/16 15/15/15 13/13/13 
f 17/17/17 13/13/13 8/8/8 
f 16/16/16 13/13/13 17/17/17 
f 17/17/17 8/8/8 10/10/10 
f 18/18/18 16/16/16 17/17/17 
f 18/18/18 17/17/17 19/19/19 
f 19/19/19 17/17/17 10/10/10 
f 20/20/20 18/18/18 19/19/19 
f 21/21/21 10/10/10 6/6/6 
f 19/19/19 10/10/10 21/21/21 
f 21/21/21 6/6/6 11/11/11 
f 20/20/20 19/19/19 22/22/22 
f 22/22/22 19/19/19 21/21/21 
f 23/23/23 20/20/20 22/22/22 
f 24/24/24 21/21/21 11/11/11 
f 22/22/22 21/21/21 24/24/24 
f 23/23/23 22/22/22 25/25/25 
f 25/25/25 22/22/22 24/24/24 
f 26/26/26 23/23/23 25/25/25 
f 24/24/24 11/11/11 27/27/27 
f 27/27/27 11/11/11 12/12/12 
f 27/27/27 12/12/12 28/28/28 
f 26/26/26 25/25/25 29/29/29 
f 30/30/30 26/26/26 29/29/29 
f 25/25/25 24/24/24 31/31/31 
f 31/31/31 24/24/24 27/27/27 
f 29/29/29 25/25/25 31/31/31 
f 32/32/32 27/27/27 28/28/28 
f 31/31/31 27/27/27 32/32/32 
f 32/32/32 28/28/28 33/33/33 
f 30/30/30 29/29/29 34/34/34 
f 35/35/35 30/30/30 34/34/34 
f 29/29/29 31/31/31 36/36/36 
f 36/36/36 31/31/31 32/32/32 
f 34/34/34 29/29/29 36/36/36 
f 37/37/37 32/32/32 33/33/33 
f 36/36/36 32/32/32 37/37/37 
f 37/37/37 33/33/33 38/38/38 
f 35/35/35 34/34/34 39/39/39 
f 40/40/40 35/35/35 39/39/39 
f 34/34/34 36/36/36 41/41/41 
f 41/41/41 36/36/36 37/37/37 
f 39/39/39 34/34/34 41/41/41 
f 42/42/42 37/37/37 38/38/38 
f 41/41/41 37/37/37 42/42/42 
f 42/42/42 38/38/38 43/43/43 
f 40/40/40 39/39/39 44/44/44 
f 45/45/45 40/40/40 44/44/44 
f 39/39/39 41/41/41 46/46/46 
f 46/46/46 41/41/41 42/42/42 
f 44/44/44 39/39/39 46/46/46 
f 47/47/47 42/42/42 43/43/43 
f 46/46/46 42/42/42 47/47/47 
f 47/47/47 43/43/43 48/48/48 
f 45/45/45 44/44/44 49/49/49 
f 50/50/50 45/45/45 49/49/49 
f 44/44/44 46/46/46 51/51/51 
f 51/51/51 46/46/46 47/47/47 
f 49/49/49 44/44/44 51/51/51 
f 52/52/52 47/47/47 48/48/48 
f 51/51/51 47/47/47 52/52/52 
f 52/52/52 48/48/48 53/53/53 
f 49/49/49 51/51/51 54/54/54 
f 54/54/54 51/51/51 52/52/52 
f 55/55/55 52/52/52 53/53/53 
f 54/54/54 52/52/52 55/55/55 
f 55/55/55 53/53/53 56/56/56 
f 50/50/50 49/49/49 57/57/57 
f 57/57/57 49/49/49 54/54/54 
f 58/58/58 54/54/54 55/55/55 
f 57/57/57 54/54/54 58/58/58 
f 59/59/59 55/55/55 56/56/56 
f 58/58/58 55/55/55 59/59/59 
f 59/59/59 56/56/56 60/60/60 
f 61/61/61 59/59/59 60/60/60 
f 62/62/62 50/50/50 57/57/57 
f 62/62/62 63/63/63 50/50/50 
f 62/62/62 64/64/64 63/63/63 
f 65/65/65 57/57/57 58/58/58 
f 65/65/65 62/62/62 57/57/57 
f 66/66/66 58/58/58 59/59/59 
f 61/61/61 66/66/66 59/59/59 
f 66/66/66 65/65/65 58/58/58 
f 62/62/62 67/67/67 64/64/64 
f 65/65/65 67/67/67 62/62/62 
f 67/67/67 68/68/68 64/64/64 
f 61/61/61 69/69/69 66/66/66 
f 61/61/61 70/70/70 69/69/69 
f 66/66/66 71/71/71 65/65/65 
f 65/65/65 71/71/71 67/67/67 
f 66/66/66 69/69/69 71/71/71 
f 67/67/67 72/72/72 68/68/68 
f 71/71/71 72/72/72 67/67/67 
f 72/72/72 73/73/73 68/68/68 
f 70/70/70 74/74/74 69/69/69 
f 70/70/70 75/75/75 74/74/74 
f 69/69/69 76/76/76 71/71/71 
f 71/71/71 76/76/76 72/72/72 
f 69/69/69 74/74/74 76/76/76 
f 72/72/72 77/77/77 73/73/73 
f 76/76/76 77/77/77 72/72/72 
f 77/77/77 78/78/78 73/73/73 
f 75/75/75 79/79/79 74/74/74 
f 75/75/75 80/80/80 79/79/79 
f 74/74/74 81/81/81 76/76/76 
f 76/76/76 81/81/81 77/77/77 
f 74/74/74 79/79/79 81/81/81 
f 77/77/77 82/82/82 78/78/78 
f 81/81/81 82/82/82 77/77/77 
f 82/82/82 83/83/83 78/78/78 
f 80/80/80 84/84/84 79/79/79 
f 80/80/80 85/85/85 84/84/84 
f 79/79/79 86/86/86 81/81/81 
f 81/81/81 86/86/86 82/82/82 
f 79/79/79 84/84/84 86/86/86 
f 82/82/82 87/87/87 83/83/83 
f 86/86/86 87/87/87 82/82/82 
f 87/87/87 88/88/88 83/83/83 
f 85/85/85 89/89/89 84/84/84 
f 85/85/85 90/90/90 89/89/89 
f 84/84/84 91/91/91 86/86/86 
f 86/86/86 91/91/91 87/87/87 
f 84/84/84 89/89/89 91/91/91 
f 87/87/87 92/92/92 88/88/88 
f 91/91/91 92/92/92 87/87/87 
f 92/92/92 93/93/93 88/88/88 
f 90/90/90 94/94/94 89/89/89 
f 90/90/90 95/95/95 94/94/94 
f 89/89/89 96/96/96 91/91/91 
f 91/91/91 96/96/96 92/92/92 
f 89/89/89 94/94/94 96/96/96 
f 92/92/92 97/97/97 93/93/93 
f 96/96/96 97/97/97 92/92/92 
f 97/97/97 98/98/98 93/93/93 
f 95/95/95 99/99/99 94/94/94 
f 95/95/95 100/100/100 99/99/99 
f 94/94/94 101/101/101 96/96/96 
f 96/96/96 101/101/101 97/97/97 
f 94/94/94 99/99/99 101/101/101 
f 97/97/97 102/102/102 98/98/98 
f 101/101/101 102/102/102 97/97/97 
f 102/102/102 103/103/103 98/98/98 
f 100/100/100 104/104/104 99/99/99 
f 100/100/100 105/105/105 104/104/104 
f 99/99/99 106/106/106 101/101/101 
f 101/101/101 106/106/106 102/102/102 
f 99/99/99 104/104/104 106/106/106 
f 102/102/102 107/107/107 103/103/103 
f 106/106/106 107/107/107 102/102/102 
f 107/107/107 108/108/108 103/103/103 
f 105/105/105 109/109/109 104/104/104 
f 105/105/105 110/110/110 109/109/109 
f 104/104/104 111/111/111 106/106/106 
f 106/106/106 111/111/111 107/107/107 
f 104/104/104 109/109/109 111/111/111 
f 107/107/107 112/112/112 108/108/108 
f 111/111/111 112/112/112 107/107/107 
f 113/113/113 108/108/108 112/112/112 
f 113/113/113 112/112/112 114/114/114 
f 112/112/112 115/115/115 114/114/114 
f 111/111/111 116/116/116 112/112/112 
f 112/112/112 116/116/116 115/115/115 
f 109/109/109 116/116/116 111/111/111 
f 116/116/116 117/117/117 115/115/115 
f 110/110/110 118/118/118 109/109/109 
f 109/109/109 118/118/118 116/116/116 
f 116/116/116 118/118/118 117/117/117 
f 110/110/110 119/119/119 118/118/118 
f 118/118/118 120/120/120 117/117/117 
f 118/118/118 119/119/119 120/120/120 
