# exported by StudySceneExporter from mesh 'Pliers_Handles_low'
mtllib materials.mtl
v 0.003466358 -0.02391699 -0.03142517
v -0.003466396 -0.02340593 -0.02987244
v 0.003466358 -0.02340101 -0.02986908
v 0.003466396 -0.02103937 -0.02829529
v -0.003466358 -0.02103937 -0.02829544
v 0.002315197 -0.01948347 -0.02497772
v -0.002315235 -0.01948347 -0.02497772
v 0.002315197 -0.01939409 -0.02257889
v -0.007486095 -0.01820597 -0.02807648
v -0.002315235 -0.01939409 -0.02257889
v 0.002315197 -0.02355883 -0.01331558
v -0.005000019 -0.01676435 -0.02525009
v -0.007486095 -0.009247074 -0.0248082
v -0.002315235 -0.02355883 -0.01331558
v 0.002315197 -0.02729235 -0.002652283
v -0.007486095 -0.01972837 -0.02986633
v -0.003466396 -0.023915 -0.03143021
v -0.002315235 -0.02729235 -0.002652283
v 0.002315197 -0.0293004 0.006932678
v -0.002315235 -0.0293004 0.006932678
v 0.002315197 -0.0303578 0.01686508
v -0.004999981 -0.02470053 -0.001930389
v -0.004999981 -0.02105307 -0.01234787
v -0.002315235 -0.0303578 0.01686508
v 0.002315197 -0.03048056 0.02607864
v -0.005000019 -0.01056803 -0.02221848
v -0.007486057 -0.0200482 -0.03146835
v -0.007486095 -0.006400089 -0.03208053
v -0.003466358 -0.003511982 -0.0325592
v -0.004999981 -0.005801716 -0.03446472
v -0.007486095 -0.01941423 -0.03320313
v -0.004999981 -0.02664495 0.007351074
v -0.004999981 -0.01666567 -0.009747009
v -0.003466396 -0.006816959 -0.02366379
v -0.003466396 -0.02227053 -0.03557251
v 0.003466358 -0.02227152 -0.03556991
v 0.003466396 -0.02098082 -0.03656799
v -0.003466358 -0.02097799 -0.03656845
v -0.005000019 -0.01999712 -0.0003353882
v -0.002314129 -0.008216724 -0.02092011
v -0.007486057 -0.01816095 -0.03425217
v -0.003466396 -0.01724062 -0.03708114
v 0.003466358 -0.01724062 -0.03708099
v -0.007486095 -0.01540941 -0.03483856
v -0.007486057 -0.01399912 -0.03594818
v -0.003466358 -0.01604895 -0.03775268
v 0.003466396 -0.01604895 -0.03775253
v 0.002315197 -0.01449739 -0.03964538
v -0.002315235 -0.01449739 -0.03964538
v -0.005000019 -0.01267874 -0.03756683
v -0.002315235 -0.01167295 -0.04155685
v 0.002315197 -0.01167295 -0.04155685
v -0.005000019 -0.01073992 -0.03808838
v -0.002315197 -0.003510914 -0.03772629
v 0.002315235 -0.003510914 -0.03772629
v -0.004999981 -0.006639652 -0.03628922
v -0.002315197 -0.003140965 -0.0343808
v 0.002315235 -0.003140965 -0.0343808
v 0.003466358 -0.003511982 -0.03255905
v 0.003466358 -0.006816959 -0.02366379
v 0.002314091 -0.008216724 -0.02092026
v 0.002315197 -0.01418478 -0.008709717
v -0.002315235 -0.01418478 -0.008709717
v 0.002315197 -0.0174262 0.0004475403
v -0.002315235 -0.0174262 0.0004475403
v 0.002315197 -0.01958918 0.008885803
v -0.002315235 -0.01958918 0.008885803
v 0.002315235 -0.02047972 0.01730438
v -0.005000019 -0.02223848 0.008408814
v -0.002315197 -0.02047972 0.01730438
v 0.002315235 -0.0205411 0.02585617
v -0.004999981 -0.02316023 0.01712235
v -0.005000019 -0.02767488 0.01702545
v -0.002315197 -0.0205411 0.02585617
v 0.002315197 -0.02013762 0.03574707
v -0.005000019 -0.02322817 0.02589126
v -0.002315235 -0.02013762 0.03574707
v 0.002315235 -0.02104517 0.03959351
v -0.002315235 -0.03048056 0.02607864
v 0.002315197 -0.03015875 0.03550064
v -0.004999981 -0.02779516 0.02605072
v -0.002315235 -0.03015875 0.03550064
v 0.002283573 -0.02915201 0.03844528
v -0.004999981 -0.02748915 0.03500992
v -0.002283611 -0.02915201 0.03844528
v 0.002251987 -0.02629797 0.04104996
v -0.005000019 -0.02284006 0.03550949
v -0.005000019 -0.02645357 0.03834686
v -0.002251949 -0.02629797 0.04104996
v -0.002315197 -0.02426668 0.0415567
v 0.002315235 -0.02426668 0.04155685
v -0.004999981 -0.0236503 0.03894348
v -0.002315197 -0.02104517 0.03959351
v -0.002315197 0.02426664 0.0415567
v 0.002315235 0.02426664 0.04155685
v 0.002315235 0.02104521 0.03959351
v 0.002251987 0.02629797 0.04104996
v -0.002315197 0.02104521 0.03959351
v -0.002315235 0.02013762 0.03574707
v 0.002315197 0.02013762 0.03574707
v -0.004999981 0.02365034 0.03894348
v -0.002315197 0.02054106 0.02585617
v 0.002315235 0.02054106 0.02585617
v -0.002315197 0.02047972 0.01730438
v 0.002315235 0.02047972 0.01730438
v -0.005000019 0.02322813 0.02589126
v -0.005000019 0.0228401 0.03550949
v -0.005000019 0.02645353 0.03834686
v -0.002251949 0.02629797 0.04104996
v -0.002283611 0.02915197 0.03844528
v 0.002283573 0.02915197 0.03844528
v -0.004999981 0.02748915 0.03500992
v -0.002315235 0.03015875 0.03550064
v 0.002315197 0.03015875 0.03550064
v -0.002315235 0.03048056 0.02607864
v 0.002315197 0.03048056 0.02607864
v -0.004999981 0.02779516 0.02605072
v -0.002315235 0.0303578 0.01686508
v 0.002315197 0.0303578 0.01686508
v -0.004999981 0.02316023 0.01712235
v -0.005000019 0.02767492 0.01702545
v -0.002315235 0.02930037 0.006932678
v 0.002315197 0.02930037 0.006932678
v -0.002315235 0.01958921 0.008885803
v 0.002315197 0.01958921 0.008885803
v -0.004999981 0.02664495 0.007351074
v -0.005000019 0.02223852 0.008408814
v -0.002315235 0.0174262 0.0004475403
v 0.002315197 0.0174262 0.0004475403
v -0.002315235 0.02729231 -0.002652283
v 0.002315197 0.02729231 -0.002652283
v -0.005000019 0.01999716 -0.0003353882
v -0.004999981 0.02470053 -0.001930389
v -0.002315235 0.02355886 -0.01331558
v 0.002315197 0.02355886 -0.01331558
v -0.002315235 0.01418478 -0.008709717
v 0.002315197 0.01418478 -0.008709717
v -0.004999981 0.01666571 -0.009747009
v -0.002314129 0.008216762 -0.02092011
v 0.002314091 0.008216762 -0.02092026
v -0.004999981 0.02105307 -0.01234787
v -0.002315235 0.01939413 -0.02257889
v 0.002315197 0.01939413 -0.02257889
v -0.003466396 0.006816997 -0.02366379
v 0.003466358 0.006816997 -0.02366379
v -0.003466358 0.003511944 -0.0325592
v -0.007486095 0.009247112 -0.0248082
v -0.007486095 0.006400127 -0.03208053
v -0.004999981 0.005801678 -0.03446472
v 0.003466358 0.003511944 -0.03255905
v 0.002315235 0.003140926 -0.0343808
v -0.005000019 0.01056799 -0.02221848
v -0.002315197 0.003140926 -0.0343808
v 0.002315235 0.003510952 -0.03772629
v -0.005000019 0.01676435 -0.02525009
v -0.002315197 0.003510952 -0.03772629
v 0.002315197 0.01167295 -0.04155685
v -0.002315235 0.01948347 -0.02497772
v 0.002315197 0.01948347 -0.02497772
v -0.002315235 0.01167295 -0.04155685
v 0.002315197 0.01449743 -0.03964538
v -0.007486095 0.018206 -0.02807648
v -0.003466358 0.02103933 -0.02829544
v 0.003466396 0.02103933 -0.02829529
v -0.003466396 0.02340589 -0.02987244
v 0.003466358 0.02340567 -0.02987213
v -0.007486095 0.01972837 -0.02986633
v -0.007486057 0.0200482 -0.03146835
v -0.003466396 0.023915 -0.03143021
v 0.003466358 0.02391508 -0.0314299
v -0.007486095 0.01941427 -0.03320313
v -0.003466358 0.02227156 -0.03556991
v 0.003466358 0.02227056 -0.03557236
v -0.007486057 0.01816092 -0.03425217
v -0.003466358 0.02098082 -0.03656799
v 0.003466358 0.02097799 -0.03656845
v -0.003466396 0.01724066 -0.03708114
v 0.003466358 0.01724066 -0.03708099
v -0.007486095 0.01540945 -0.03483856
v -0.007486057 0.01399916 -0.03594818
v -0.003466358 0.01604895 -0.03775268
v 0.003466396 0.01604895 -0.03775253
v -0.002315235 0.01449743 -0.03964538
v -0.005000019 0.01267874 -0.03756683
v -0.005000019 0.01073996 -0.03808838
v -0.004999981 0.00663969 -0.03628922
v 0.005000019 0.00663969 -0.03628922
v 0.002315197 0.01167295 -0.04155685
v 0.002315235 0.003510952 -0.03772629
v 0.002315235 0.003140926 -0.0343808
v 0.004999981 0.01073996 -0.03808838
v 0.002315197 0.01449743 -0.03964538
v 0.005000019 0.005801678 -0.03446472
v 0.004999981 0.01267874 -0.03756683
v 0.003466396 0.01604895 -0.03775253
v 0.007486057 0.006400127 -0.03208053
v 0.003466358 0.003511944 -0.03255905
v 0.003466358 0.006816997 -0.02366379
v 0.007486057 0.009247112 -0.0248082
v 0.002314091 0.008216762 -0.02092026
v 0.007486057 0.01399916 -0.03594818
v 0.007486057 0.01547232 -0.03478912
v 0.003466358 0.01724066 -0.03708099
v 0.003466358 0.02097799 -0.03656845
v 0.007486095 0.01815496 -0.03424408
v 0.007486057 0.01941481 -0.03320175
v 0.003466358 0.02227056 -0.03557236
v 0.003466358 0.02391508 -0.0314299
v 0.007486057 0.02004728 -0.03147079
v 0.007486095 0.01971258 -0.02987061
v 0.003466358 0.02340567 -0.02987213
v 0.003466396 0.02103933 -0.02829529
v 0.007486057 0.01829847 -0.0282579
v 0.004999981 0.01676435 -0.02525009
v 0.002315197 0.01948347 -0.02497772
v 0.002315197 0.01939413 -0.02257889
v 0.004999981 0.01056799 -0.02221848
v 0.002315197 0.01418478 -0.008709717
v 0.005000019 0.02105307 -0.01234787
v 0.002315197 0.02355886 -0.01331558
v 0.002315197 0.02729231 -0.002652283
v 0.005000019 0.01666571 -0.009747009
v 0.005000019 0.02470053 -0.001930389
v 0.004999981 0.01999716 -0.0003353882
v 0.002315197 0.0174262 0.0004475403
v 0.002315197 0.01958921 0.008885803
v 0.005000019 0.02664495 0.007351074
v 0.002315197 0.02930037 0.006932678
v 0.004999981 0.02223852 0.008408814
v 0.002315235 0.02047972 0.01730438
v 0.004999981 0.02767492 0.01702545
v 0.002315197 0.0303578 0.01686508
v 0.005000019 0.02316023 0.01712235
v 0.002315235 0.02054106 0.02585617
v 0.005000019 0.02779516 0.02605072
v 0.002315197 0.03048056 0.02607864
v 0.002315197 0.03015875 0.03550064
v 0.004999981 0.02322813 0.02589126
v 0.005000019 0.02748915 0.03500992
v 0.004999981 0.0228401 0.03550949
v 0.002315197 0.02013762 0.03574707
v 0.002315235 0.02104521 0.03959351
v 0.004999981 0.02645353 0.03834686
v 0.002283573 0.02915197 0.03844528
v 0.002251987 0.02629797 0.04104996
v 0.005000019 0.02365034 0.03894348
v 0.002315235 0.02426664 0.04155685
v 0.005000019 -0.006639652 -0.03628922
v 0.002315235 -0.003510914 -0.03772629
v 0.002315197 -0.01167295 -0.04155685
v 0.002315235 -0.003140965 -0.0343808
v 0.004999981 -0.01073992 -0.03808838
v 0.002315197 -0.01449739 -0.03964538
v 0.005000019 -0.005801716 -0.03446472
v 0.004999981 -0.01267874 -0.03756683
v 0.003466396 -0.01604895 -0.03775253
v 0.007486057 -0.006400089 -0.03208053
v 0.003466358 -0.003511982 -0.03255905
v 0.003466358 -0.006816959 -0.02366379
v 0.007486057 -0.009247074 -0.0248082
v 0.002314091 -0.008216724 -0.02092026
v 0.007486057 -0.01399912 -0.03594818
v 0.007486057 -0.01547232 -0.03478912
v 0.003466358 -0.01724062 -0.03708099
v 0.003466396 -0.02098082 -0.03656799
v 0.007486095 -0.01815496 -0.03424408
v 0.003466358 -0.02227152 -0.03556991
v 0.007486057 -0.01941477 -0.03320175
v 0.003466358 -0.02391699 -0.03142517
v 0.007486057 -0.02004732 -0.03147079
v 0.003466358 -0.02340101 -0.02986908
v 0.007486095 -0.01971258 -0.02987061
v 0.003466396 -0.02103937 -0.02829529
v 0.007486057 -0.01829847 -0.0282579
v 0.004999981 -0.01676435 -0.02525009
v 0.002315197 -0.01948347 -0.02497772
v 0.002315197 -0.01939409 -0.02257889
v 0.004999981 -0.01056803 -0.02221848
v 0.002315197 -0.01418478 -0.008709717
v 0.005000019 -0.02105307 -0.01234787
v 0.002315197 -0.02355883 -0.01331558
v 0.002315197 -0.02729235 -0.002652283
v 0.005000019 -0.01666567 -0.009747009
v 0.005000019 -0.02470053 -0.001930389
v 0.004999981 -0.01999712 -0.0003353882
v 0.002315197 -0.0174262 0.0004475403
v 0.002315197 -0.01958918 0.008885803
v 0.005000019 -0.02664495 0.007351074
v 0.002315197 -0.0293004 0.006932678
v 0.004999981 -0.02223848 0.008408814
v 0.002315235 -0.02047972 0.01730438
v 0.004999981 -0.02767488 0.01702545
v 0.002315197 -0.0303578 0.01686508
v 0.005000019 -0.02316023 0.01712235
v 0.002315235 -0.0205411 0.02585617
v 0.005000019 -0.02779516 0.02605072
v 0.002315197 -0.03048056 0.02607864
v 0.002315197 -0.03015875 0.03550064
v 0.004999981 -0.02322817 0.02589126
v 0.005000019 -0.02748915 0.03500992
v 0.004999981 -0.02284006 0.03550949
v 0.002315197 -0.02013762 0.03574707
v 0.002315235 -0.02104517 0.03959351
v 0.004999981 -0.02645357 0.03834686
v 0.002283573 -0.02915201 0.03844528
v 0.002251987 -0.02629797 0.04104996
v 0.005000019 -0.0236503 0.03894348
v 0.002315235 -0.02426668 0.04155685
vt 0.2802992 0.5460138
vt 0.2852268 0.5571566
vt 0.2841653 0.5459548
vt 0.2902615 0.5471494
vt 0.2901095 0.5593174
vt 0.2972225 0.5516026
vt 0.2969595 0.5607855
vt 0.3015563 0.5527784
vt 0.288806 0.5677669
vt 0.3016474 0.5620506
vt 0.3202009 0.5525736
vt 0.2958361 0.5689662
vt 0.2921549 0.5831567
vt 0.3207673 0.5614092
vt 0.3413315 0.5514684
vt 0.2860422 0.5652318
vt 0.2824132 0.5566736
vt 0.3416011 0.5602269
vt 0.3598613 0.5512823
vt 0.3596278 0.5600767
vt 0.3789722 0.5516744
vt 0.3418409 0.5674547
vt 0.3213013 0.5686805
vt 0.3780595 0.5604947
vt 0.3973572 0.552949
vt 0.298138 0.5833917
vt 0.2834127 0.5646955
vt 0.2787551 0.5847247
vt 0.2748615 0.5916985
vt 0.2731646 0.586205
vt 0.2803873 0.5654196
vt 0.3594378 0.5673552
vt 0.3237572 0.5784779
vt 0.2930618 0.5914185
vt 0.2754438 0.5587108
vt 0.26992 0.5483115
vt 0.2666481 0.5505056
vt 0.2731408 0.560077
vt 0.3427442 0.5768871
vt 0.298995 0.5912144
vt 0.2781852 0.5668936
vt 0.2692597 0.5650642
vt 0.2599022 0.5564275
vt 0.276379 0.5706596
vt 0.2742429 0.5725472
vt 0.267804 0.5669926
vt 0.2579229 0.5589135
vt 0.2566569 0.5652136
vt 0.2634901 0.5692923
vt 0.2692549 0.5737143
vt 0.2608368 0.5746231
vt 0.253418 0.5734006
vt 0.2681789 0.5768367
vt 0.2657858 0.5894079
vt 0.2591919 0.594103
vt 0.2704086 0.5841725
vt 0.2709227 0.5923104
vt 0.2669317 0.5996591
vt 0.2705905 0.6036021
vt 0.2926858 0.6036075
vt 0.2994766 0.6000741
vt 0.3255479 0.5946672
vt 0.3245796 0.5858862
vt 0.3438169 0.5928522
vt 0.3432275 0.5841012
vt 0.3602425 0.5922691
vt 0.3600562 0.5834339
vt 0.3764169 0.5929773
vt 0.3599479 0.5760751
vt 0.3763795 0.5840511
vt 0.3934731 0.5943167
vt 0.376529 0.57661
vt 0.3773474 0.5678298
vt 0.3926072 0.5853716
vt 0.4147427 0.5923882
vt 0.3924731 0.5779102
vt 0.4109221 0.5851916
vt 0.422575 0.5863988
vt 0.395084 0.5615993
vt 0.4169674 0.5585157
vt 0.3937275 0.568965
vt 0.4119191 0.5649897
vt 0.4227723 0.5638256
vt 0.4085406 0.5708109
vt 0.4162557 0.5679126
vt 0.4264256 0.5727172
vt 0.4088337 0.5789261
vt 0.4133954 0.5731632
vt 0.4196272 0.5734341
vt 0.4194899 0.5768336
vt 0.4269762 0.5780902
vt 0.4140823 0.5772916
vt 0.416945 0.5824652
vt 0.4195123 0.6337669
vt 0.4270025 0.6325305
vt 0.4226211 0.6242085
vt 0.4264364 0.6379033
vt 0.4169825 0.6281283
vt 0.4109658 0.625386
vt 0.4148034 0.6181986
vt 0.414106 0.6332946
vt 0.3926511 0.6251574
vt 0.3935387 0.6162144
vt 0.37642 0.6264342
vt 0.3764794 0.6175084
vt 0.3924979 0.6326184
vt 0.4088616 0.631646
vt 0.413408 0.6374214
vt 0.4196408 0.6371669
vt 0.4162537 0.6426799
vt 0.4227579 0.6467861
vt 0.4085468 0.6397607
vt 0.4119086 0.6455913
vt 0.4169376 0.6520801
vt 0.395064 0.6489363
vt 0.3973117 0.6575933
vt 0.393728 0.641567
vt 0.3780364 0.649995
vt 0.3789232 0.6588178
vt 0.3765501 0.6338756
vt 0.377345 0.6426579
vt 0.359604 0.6503625
vt 0.3598113 0.6591574
vt 0.3600948 0.6270072
vt 0.3603033 0.6181728
vt 0.3594344 0.6430836
vt 0.3599676 0.6343653
vt 0.3432665 0.6262944
vt 0.3438778 0.6175454
vt 0.3415799 0.6501617
vt 0.3412843 0.6589195
vt 0.3427657 0.6335062
vt 0.3418388 0.642935
vt 0.3207576 0.6489213
vt 0.3201671 0.6577554
vt 0.3246174 0.6244609
vt 0.325607 0.615684
vt 0.3237803 0.6318651
vt 0.299021 0.6190891
vt 0.2995204 0.6102337
vt 0.3213059 0.6416517
vt 0.301653 0.6482373
vt 0.3015525 0.6575019
vt 0.2930812 0.6188803
vt 0.2927287 0.6066958
vt 0.2748684 0.6186002
vt 0.2921631 0.6271391
vt 0.2787575 0.625572
vt 0.273166 0.6240973
vt 0.2706114 0.6066918
vt 0.2669454 0.6106386
vt 0.2981523 0.6269057
vt 0.2709284 0.6179906
vt 0.2591971 0.6162031
vt 0.2958463 0.6413209
vt 0.2657878 0.6208999
vt 0.253418 0.6369395
vt 0.2969699 0.6494923
vt 0.2972367 0.658658
vt 0.2608349 0.6357067
vt 0.2566615 0.6451504
vt 0.2888139 0.6425245
vt 0.290119 0.6509693
vt 0.2903132 0.6630664
vt 0.285234 0.6531665
vt 0.2842338 0.6642281
vt 0.2860501 0.6450589
vt 0.2834207 0.6455959
vt 0.2824085 0.6535764
vt 0.2803947 0.66431
vt 0.2803947 0.6448752
vt 0.2754163 0.651619
vt 0.2700441 0.6619967
vt 0.278192 0.6434028
vt 0.2731726 0.6501962
vt 0.2666654 0.6599226
vt 0.2692662 0.6452456
vt 0.2599188 0.6539776
vt 0.2763836 0.6396397
vt 0.2742459 0.6377561
vt 0.2678069 0.6433241
vt 0.2579339 0.6514828
vt 0.2634894 0.6410403
vt 0.2692548 0.6365995
vt 0.2681785 0.6334776
vt 0.2704093 0.6261342
vt 0.2635246 0.5353479
vt 0.253418 0.5245264
vt 0.2583154 0.5416102
vt 0.2645633 0.5444053
vt 0.2612978 0.5271529
vt 0.2571654 0.5188887
vt 0.2665497 0.5376121
vt 0.2626873 0.5236323
vt 0.2618474 0.5162127
vt 0.2723988 0.5357747
vt 0.2690756 0.5438569
vt 0.2885293 0.5416133
vt 0.2861995 0.5333414
vt 0.2945666 0.540345
vt 0.2680227 0.5220392
vt 0.2704471 0.5196888
vt 0.2634288 0.5138195
vt 0.2674536 0.5069665
vt 0.2723333 0.5153613
vt 0.2746233 0.513603
vt 0.2701881 0.5049605
vt 0.279228 0.503418
vt 0.2778704 0.5130221
vt 0.2806133 0.5140676
vt 0.2823687 0.5046566
vt 0.286424 0.5089824
vt 0.2830744 0.5169203
vt 0.2904478 0.5197057
vt 0.2928288 0.5125076
vt 0.2969207 0.5137876
vt 0.2926759 0.5332696
vt 0.3190899 0.5355682
vt 0.3158435 0.5194187
vt 0.3154209 0.5123544
vt 0.3362741 0.5111742
vt 0.3182309 0.5285959
vt 0.3362749 0.5182241
vt 0.3368287 0.5274076
vt 0.3370401 0.534462
vt 0.3532083 0.5345854
vt 0.3537832 0.5191183
vt 0.3544207 0.5120877
vt 0.353685 0.5275418
vt 0.3687901 0.5366342
vt 0.3716193 0.5214159
vt 0.3728058 0.5144511
vt 0.3699069 0.5296435
vt 0.3843672 0.5400412
vt 0.3879845 0.52474
vt 0.389673 0.5178103
vt 0.407034 0.5224771
vt 0.3858329 0.5330627
vt 0.4039044 0.5287286
vt 0.402997 0.5373122
vt 0.4027846 0.5442647
vt 0.410708 0.5433855
vt 0.4091198 0.5319412
vt 0.4123347 0.5258951
vt 0.4160796 0.5330539
vt 0.4092059 0.5367785
vt 0.4158037 0.5373654
vt 0.4543738 0.5135159
vt 0.4606321 0.5083017
vt 0.4435441 0.503418
vt 0.4634321 0.5145473
vt 0.446177 0.5112958
vt 0.4379095 0.50717
vt 0.4566405 0.5165391
vt 0.4426576 0.5126882
vt 0.4352372 0.5118541
vt 0.4548078 0.5223897
vt 0.4628873 0.5190601
vt 0.4606596 0.5385154
vt 0.4523857 0.5361922
vt 0.4593961 0.5445539
vt 0.4410685 0.5180247
vt 0.4387202 0.5204509
vt 0.4328451 0.5134375
vt 0.4259905 0.5174711
vt 0.434394 0.5223407
vt 0.42399 0.5202093
vt 0.4326376 0.5246322
vt 0.4224555 0.5292559
vt 0.4320595 0.5278797
vt 0.4237056 0.532393
vt 0.4331076 0.5306218
vt 0.4280272 0.5364366
vt 0.4359622 0.5330806
vt 0.4387535 0.5404518
vt 0.4315574 0.5428386
vt 0.4328407 0.5469294
vt 0.4523194 0.5426687
vt 0.4546392 0.5690811
vt 0.4384871 0.5658474
vt 0.4314224 0.5654306
vt 0.4302588 0.5862846
vt 0.447666 0.5682275
vt 0.4373085 0.5862797
vt 0.4464927 0.5868263
vt 0.4535471 0.5870322
vt 0.4536831 0.6032004
vt 0.4382166 0.6037874
vt 0.4311864 0.6044303
vt 0.4466399 0.6036826
vt 0.4557439 0.6187809
vt 0.4405279 0.6216216
vt 0.4335641 0.6228136
vt 0.4487541 0.6199028
vt 0.4591631 0.6343553
vt 0.4438645 0.6379843
vt 0.4369363 0.639678
vt 0.4416164 0.6570356
vt 0.4521856 0.6358262
vt 0.4478654 0.6539011
vt 0.4564482 0.6529871
vt 0.4634006 0.6527693
vt 0.4625275 0.6606934
vt 0.451082 0.6591141
vt 0.4450384 0.6623335
vt 0.4522001 0.666073
vt 0.4559193 0.6591964
vt 0.4565114 0.6657937
vn 8.701722E-06 -0.9808567 -0.1947309
vn -0.2296665 -0.7580123 0.6104676
vn -4.29022E-06 -0.7364175 0.6765274
vn -1.241602E-05 -0.744765 0.6673268
vn -0.2371958 -0.6984555 0.6752024
vn -6.362557E-06 -0.9502002 0.3116402
vn -0.2241457 -0.8887205 0.3999181
vn 0 -0.9440197 -0.3298891
vn -0.7202392 -0.4028157 0.5647965
vn -0.3506582 -0.8821859 -0.3143037
vn 0 -0.929637 -0.3684767
vn -0.9285188 -0.280908 0.2427826
vn -0.9073648 0.2697138 0.3224026
vn -0.3190126 -0.8845233 -0.3403665
vn 0 -0.9620699 -0.2728028
vn -0.7956015 -0.4734882 0.3779248
vn -0.2512173 -0.9515486 -0.1773276
vn -0.3368436 -0.9058344 -0.2569056
vn 0 -0.9878893 -0.1551599
vn -0.337751 -0.9298401 -0.1460187
vn 0 -0.9981056 -0.06152269
vn -0.9340222 -0.3436518 -0.09749798
vn -0.9528898 -0.2848517 -0.1042141
vn -0.3385637 -0.9391623 -0.05786798
vn 0 -0.999943 0.01068072
vn -0.9333333 0.2090631 0.2918584
vn -0.9750686 -0.2187584 -0.03722846
vn -0.8888274 0.4573986 -0.02779203
vn -0.2364355 0.9349775 0.2644151
vn -0.7306907 0.4913811 -0.4739575
vn -0.9758128 -0.1875318 -0.1123436
vn -0.9309653 -0.3606899 -0.05662517
vn -0.9549252 0.2726167 0.1174648
vn -0.243773 0.8825464 0.4021027
vn -0.2531012 -0.8354222 -0.4878623
vn 6.490585E-06 -0.8683353 -0.4959775
vn 1.32088E-05 -0.2875125 -0.9577768
vn -0.2326628 -0.3072501 -0.9227488
vn -0.9489654 0.3014891 0.0925689
vn -0.3209856 0.8358966 0.4452471
vn -0.7914831 -0.1806085 -0.5838964
vn -0.2479948 -0.2435778 -0.9376398
vn 1.695534E-05 -0.2335657 -0.9723409
vn -0.843479 -0.1721261 -0.5088376
vn -0.7806358 0.07803416 -0.6200956
vn -0.3249865 -0.5039161 -0.8002826
vn 1.696749E-05 -0.6483558 -0.7613375
vn 7.276168E-06 -0.681286 -0.7320173
vn -0.2596067 -0.5811802 -0.7712548
vn -0.7274738 0.04010563 -0.6849624
vn -0.2662035 0.1578302 -0.9509077
vn 0 0.1720853 -0.985082
vn -0.8374332 0.1277549 -0.5313986
vn -0.2639928 0.6252754 -0.7343967
vn 0 0.6436788 -0.7652957
vn -0.8336483 0.322341 -0.4484714
vn -0.2667335 0.9617111 -0.06296771
vn 0 0.9992016 0.03995208
vn 0 0.9424297 0.3344044
vn 9.099542E-07 0.9302294 0.3669786
vn 1.03557E-05 0.8964796 0.443085
vn 7.082117E-06 0.9183391 0.3957946
vn -0.3521838 0.8595052 0.3704288
vn 0 0.9559258 0.2936083
vn -0.3517078 0.8948616 0.274817
vn 0 0.9839867 0.1782419
vn -0.354968 0.9199061 0.1666444
vn 0 0.9984304 0.05600547
vn -0.9478636 0.3135718 0.0568099
vn -0.3519756 0.9345397 0.05242716
vn 0 0.999828 -0.01854631
vn -0.944222 0.3287829 0.01861446
vn -0.9300625 -0.366707 -0.02257906
vn -0.3466122 0.9378505 -0.01721509
vn 0 0.9993275 0.03666839
vn -0.9388357 0.3443097 -0.006180389
vn -0.3302971 0.9432723 0.03378374
vn -8.668956E-06 0.8151019 0.5793177
vn -0.3391785 -0.9406691 0.009988543
vn 0 -0.9943569 0.1060858
vn -0.9355595 -0.3531497 0.003710637
vn -0.3325353 -0.9376474 0.1011812
vn 0 -0.8227232 0.5684422
vn -0.9323038 -0.3595387 0.03926235
vn -0.2688201 -0.8167514 0.5105418
vn -5.481839E-06 -0.535181 0.8447375
vn -0.9187666 0.3945604 0.01378816
vn -0.9013552 -0.311242 0.3011433
vn -0.2533876 -0.4765719 0.8418278
vn -0.2546226 0.1973725 0.9466845
vn -1.707965E-05 0.273183 0.9619621
vn -0.8997359 0.2840075 0.3313835
vn -0.2632291 0.8150498 0.5161435
vn -0.25462 -0.1973843 0.9466826
vn -1.322711E-05 -0.2731899 0.9619601
vn -5.754585E-06 -0.8151064 0.5793113
vn -5.481906E-06 0.5351683 0.8447454
vn -0.2632236 -0.8150551 0.5161383
vn -0.3302985 -0.9432715 0.03378902
vn 0 -0.9993273 0.03667352
vn -0.8997335 -0.284016 0.3313826
vn -0.3466156 -0.9378493 -0.01721457
vn 0 -0.999828 -0.01854626
vn -0.3519771 -0.9345394 0.05242294
vn 0 -0.9984307 0.05600131
vn -0.9388367 -0.3443073 -0.006179918
vn -0.9187673 -0.3945586 0.01379169
vn -0.9013565 0.3112393 0.3011421
vn -0.2533858 0.4765615 0.8418342
vn -0.2688203 0.816749 0.5105454
vn 0 0.8227201 0.5684467
vn -0.9323023 0.3595423 0.0392652
vn -0.3325356 0.9376472 0.1011823
vn 0 0.9943569 0.1060861
vn -0.3391782 0.9406691 0.009989265
vn 0 0.999943 0.01068072
vn -0.9355596 0.3531495 0.003711433
vn -0.3385559 0.9391651 -0.05786932
vn 0 0.9981055 -0.06152483
vn -0.944223 -0.3287804 0.0186116
vn -0.9300613 0.3667099 -0.0225802
vn -0.3377415 0.9298432 -0.1460216
vn 0 0.987889 -0.1551619
vn -0.3549747 -0.9199037 0.166644
vn 0 -0.9839865 0.1782428
vn -0.9309635 0.360694 -0.05662719
vn -0.9478645 -0.3135694 0.05680876
vn -0.3517156 -0.8948584 0.2748177
vn 0 -0.9559251 0.2936104
vn -0.3368346 0.9058379 -0.2569047
vn 0 0.9620707 -0.2728001
vn -0.9489655 -0.3014882 0.09256984
vn -0.934021 0.3436553 -0.0974977
vn -0.3190099 0.8845249 -0.3403649
vn 0 0.929638 -0.3684742
vn -0.3521879 -0.8595036 0.3704285
vn 0 -0.9183391 0.3957945
vn -0.9549252 -0.2726167 0.1174652
vn -0.3209854 -0.8358979 0.4452449
vn 2.76259E-06 -0.8964809 0.4430825
vn -0.9528896 0.2848522 -0.1042141
vn -0.3506669 0.882182 -0.3143047
vn 0 0.9440187 -0.3298918
vn -0.2437735 -0.8825454 0.4021046
vn -2.947418E-06 -0.9302276 0.3669833
vn -0.2364406 -0.9349745 0.2644213
vn -0.9073653 -0.269711 0.3224038
vn -0.8888287 -0.4573961 -0.02779112
vn -0.7306907 -0.4913821 -0.4739565
vn -6.098644E-06 -0.9424272 0.3344115
vn -4.335109E-06 -0.9992021 0.03994009
vn -0.9333329 -0.2090654 0.2918588
vn -0.2667399 -0.9617085 -0.06298009
vn 0 -0.6436733 -0.7653003
vn -0.9285197 0.2809068 0.2427811
vn -0.2639966 -0.6252711 -0.734399
vn 0 -0.1720811 -0.9850827
vn -0.224141 0.8887246 0.3999118
vn -6.36258E-06 0.9502035 0.31163
vn -0.2662028 -0.1578274 -0.9509083
vn 3.638102E-06 0.681286 -0.7320173
vn -0.7202407 0.4028124 0.5647969
vn -0.2371242 0.6984283 0.6752555
vn -1.556326E-05 0.7446782 0.6674237
vn -0.2295958 0.7581839 0.6102811
vn -1.922195E-05 0.7368894 0.6760133
vn -0.7956 0.4734987 0.3779148
vn -0.9750801 0.2187113 -0.03720584
vn -0.251254 0.9515017 -0.1775274
vn -2.164111E-06 0.9807491 -0.195272
vn -0.9758218 0.1875159 -0.1122924
vn -0.253156 0.8354536 -0.4877799
vn 2.511768E-06 0.868258 -0.4961128
vn -0.7914569 0.1806727 -0.583912
vn -0.2326998 0.307414 -0.922685
vn 4.654238E-06 0.2874258 -0.9578029
vn -0.2480444 0.2435549 -0.9376326
vn 8.963488E-06 0.2335662 -0.9723408
vn -0.8434458 0.1721093 -0.5088986
vn -0.7806368 -0.0780311 -0.6200946
vn -0.3249907 0.503916 -0.8002809
vn 1.218212E-05 0.6483552 -0.7613379
vn -0.2596062 0.5811816 -0.7712539
vn -0.7274744 -0.04010539 -0.6849618
vn -0.837437 -0.127754 -0.5313928
vn -0.833653 -0.3223379 -0.448465
vn 0.833653 -0.3223368 -0.4484659
vn 0.7558119 -0.0897862 -0.6486037
vn 0.7514712 -0.4371971 -0.4941151
vn 0.6942682 -0.6796416 -0.23681
vn 0.8374351 -0.1277526 -0.5313961
vn 0.6868393 0.2675121 -0.6757876
vn 0.7306864 -0.4914036 -0.4739408
vn 0.7274759 -0.04009359 -0.6849607
vn 0.5806293 0.3222234 -0.747691
vn 0.8888087 -0.4574351 -0.02779176
vn 0.5890208 -0.7997466 0.1160172
vn 0.5677601 -0.715115 0.4077486
vn 0.9083338 -0.2659051 0.3228379
vn 0.692926 -0.6164352 0.3739799
vn 0.7840574 -0.07499915 -0.6161406
vn 0.8406194 0.1733584 -0.5131333
vn 0.562865 0.2335262 -0.7928735
vn 0.6196165 0.2967191 -0.7266589
vn 0.7916433 0.1785409 -0.5843149
vn 0.9757769 0.1875293 -0.1126605
vn 0.6761831 0.6267416 -0.3872613
vn 0.683116 0.7219727 -0.1100364
vn 0.9750171 0.219058 -0.03681433
vn 0.7977125 0.4690105 0.3790566
vn 0.6075743 0.6830681 0.4053044
vn 0.4906593 0.5951083 0.6364743
vn 0.7139856 0.4080437 0.5689683
vn 0.9285181 0.2810655 0.2426029
vn 0.5793004 0.6517277 0.4895529
vn 0.6209486 0.7365841 -0.2680801
vn 0.9339451 -0.2068554 0.2914746
vn 0.7075283 -0.6489833 0.2796865
vn 0.9528887 0.2848533 -0.1042192
vn 0.6638333 0.7023026 -0.257092
vn 0.7078387 0.6795546 -0.1927947
vn 0.954923 -0.2726238 0.1174667
vn 0.9340189 0.3436609 -0.09749833
vn 0.9489625 -0.3014967 0.09257406
vn 0.7074648 -0.6756185 0.2074444
vn 0.7080525 -0.6948497 0.1258803
vn 0.9309618 0.360699 -0.0566252
vn 0.7075477 0.6981151 -0.1095965
vn 0.9478627 -0.3135746 0.05680797
vn 0.7075022 -0.7056019 0.03958143
vn 0.9300598 0.3667136 -0.02258328
vn 0.7074804 0.7053968 -0.04343873
vn 0.9442232 -0.32878 0.01860777
vn 0.7074376 -0.7066611 -0.01273355
vn 0.9355595 0.3531496 0.003709184
vn 0.7072027 0.7069719 0.007427226
vn 0.7078343 0.7021299 0.07735731
vn 0.9388366 -0.3443078 -0.006179367
vn 0.9323037 0.3595382 0.03926818
vn 0.9187675 -0.3945582 0.01379122
vn 0.7100754 -0.7037149 0.02404809
vn 0.7013723 -0.6495962 0.2934308
vn 0.9013506 0.3112499 0.3011486
vn 0.6799857 0.6597752 0.3198689
vn 0.671886 0.2831307 0.684402
vn 0.8997406 -0.2840005 0.3313769
vn 0.688175 -0.01281291 0.7254316
vn 0.8336514 0.322341 -0.4484658
vn 0.7514663 0.4371988 -0.4941211
vn 0.7558086 0.08978432 -0.6486079
vn 0.6942691 0.679641 -0.2368089
vn 0.8374349 0.1277535 -0.5313962
vn 0.6868371 -0.2675104 -0.6757906
vn 0.730691 0.491397 -0.4739406
vn 0.7274764 0.04009225 -0.6849603
vn 0.5806241 -0.3222235 -0.747695
vn 0.8888083 0.4574356 -0.02779286
vn 0.5890201 0.7997478 0.1160115
vn 0.5677603 0.7151176 0.4077438
vn 0.9083335 0.2659091 0.3228352
vn 0.6929296 0.6164318 0.3739791
vn 0.7840598 0.07500214 -0.6161371
vn 0.840583 -0.1733478 -0.5131966
vn 0.5628592 -0.2334874 -0.7928891
vn 0.6196738 -0.2969277 -0.7265249
vn 0.7916076 -0.1786149 -0.5843408
vn 0.6761788 -0.6268682 -0.387064
vn 0.9757689 -0.1875863 -0.1126335
vn 0.6831446 -0.7220034 -0.1096564
vn 0.9750105 -0.2191029 -0.03672156
vn 0.6073286 -0.6828827 0.4059841
vn 0.7977616 -0.4688674 0.3791301
vn 0.4906751 -0.5951638 0.6364104
vn 0.7140189 -0.4080315 0.5689353
vn 0.9285175 -0.281067 0.2426036
vn 0.5793006 -0.6517241 0.4895575
vn 0.6209356 -0.7365941 -0.2680823
vn 0.9339463 0.2068548 0.2914712
vn 0.7075269 0.6489837 0.2796891
vn 0.952889 -0.2848515 -0.1042212
vn 0.663838 -0.7022989 -0.2570901
vn 0.707851 -0.6795428 -0.1927917
vn 0.9549233 0.2726231 0.1174647
vn 0.9340208 -0.3436558 -0.09749837
vn 0.9489623 0.3014974 0.09257336
vn 0.7074556 0.6756271 0.2074476
vn 0.7080458 0.6948558 0.1258829
vn 0.9309635 -0.3606947 -0.05662419
vn 0.7075607 -0.6981026 -0.109593
vn 0.9478619 0.3135772 0.05680859
vn 0.7075017 0.705602 0.03958645
vn 0.9300612 -0.3667102 -0.02258014
vn 0.7074898 -0.7053874 -0.04343585
vn 0.9442225 0.3287817 0.0186119
vn 0.7074333 0.7066654 -0.01273413
vn 0.9355586 -0.3531521 0.003712329
vn 0.7071999 -0.7069747 0.007426121
vn 0.7078324 -0.7021323 0.07735301
vn 0.938836 0.344309 -0.006175837
vn 0.932304 -0.3595378 0.03926655
vn 0.9187669 0.3945597 0.01378892
vn 0.7100726 0.7037178 0.02404409
vn 0.7013782 0.6495887 0.2934333
vn 0.9013574 -0.3112428 0.3011358
vn 0.6799937 -0.6597716 0.3198593
vn 0.6718985 -0.2831109 0.6843981
vn 0.8997436 0.2840018 0.3313676
vn 0.6881768 0.01282485 0.7254297
usemtl Mat_Tools
f 1/1/1 3/3/3 2/2/2 
f 4/4/4 2/2/2 3/3/3 
f 4/4/4 5/5/5 2/2/2 
f 6/6/6 5/5/5 4/4/4 
f 6/6/6 7/7/7 5/5/5 
f 8/8/8 7/7/7 6/6/6 
f 9/9/9 2/2/2 5/5/5 
f 7/7/7 9/9/9 5/5/5 
f 8/8/8 10/10/10 7/7/7 
f 11/11/11 10/10/10 8/8/8 
f 10/10/10 12/12/12 7/7/7 
f 7/7/7 12/12/12 9/9/9 
f 13/13/13 9/9/9 12/12/12 
f 11/11/11 14/14/14 10/10/10 
f 14/14/14 12/12/12 10/10/10 
f 15/15/15 14/14/14 11/11/11 
f 9/9/9 16/16/16 2/2/2 
f 13/13/13 16/16/16 9/9/9 
f 1/1/1 2/2/2 17/17/17 
f 16/16/16 17/17/17 2/2/2 
f 15/15/15 18/18/18 14/14/14 
f 19/19/19 18/18/18 15/15/15 
f 19/19/19 20/20/20 18/18/18 
f 21/21/21 20/20/20 19/19/19 
f 22/22/22 14/14/14 18/18/18 
f 22/22/22 18/18/18 20/20/20 
f 14/14/14 23/23/23 12/12/12 
f 22/22/22 23/23/23 14/14/14 
f 21/21/21 24/24/24 20/20/20 
f 25/25/25 24/24/24 21/21/21 
f 26/26/26 12/12/12 23/23/23 
f 13/13/13 12/12/12 26/26/26 
f 16/16/16 27/27/27 17/17/17 
f 16/16/16 13/13/13 27/27/27 
f 28/28/28 27/27/27 13/13/13 
f 13/13/13 29/29/29 28/28/28 
f 29/29/29 30/30/30 28/28/28 
f 17/17/17 27/27/27 31/31/31 
f 28/28/28 31/31/31 27/27/27 
f 24/24/24 32/32/32 20/20/20 
f 22/22/22 20/20/20 32/32/32 
f 33/33/33 23/23/23 22/22/22 
f 26/26/26 23/23/23 33/33/33 
f 26/26/26 34/34/34 13/13/13 
f 13/13/13 34/34/34 29/29/29 
f 17/17/17 31/31/31 35/35/35 
f 1/1/1 17/17/17 35/35/35 
f 1/1/1 35/35/35 36/36/36 
f 37/37/37 36/36/36 35/35/35 
f 31/31/31 38/38/38 35/35/35 
f 37/37/37 35/35/35 38/38/38 
f 39/39/39 22/22/22 32/32/32 
f 33/33/33 22/22/22 39/39/39 
f 26/26/26 40/40/40 34/34/34 
f 33/33/33 40/40/40 26/26/26 
f 31/31/31 41/41/41 38/38/38 
f 31/31/31 28/28/28 41/41/41 
f 37/37/37 38/38/38 42/42/42 
f 37/37/37 42/42/42 43/43/43 
f 38/38/38 41/41/41 44/44/44 
f 28/28/28 44/44/44 41/41/41 
f 38/38/38 44/44/44 42/42/42 
f 28/28/28 45/45/45 44/44/44 
f 42/42/42 44/44/44 45/45/45 
f 30/30/30 45/45/45 28/28/28 
f 43/43/43 42/42/42 46/46/46 
f 42/42/42 45/45/45 46/46/46 
f 43/43/43 46/46/46 47/47/47 
f 48/48/48 47/47/47 46/46/46 
f 45/45/45 49/49/49 46/46/46 
f 48/48/48 46/46/46 49/49/49 
f 45/45/45 50/50/50 49/49/49 
f 30/30/30 50/50/50 45/45/45 
f 51/51/51 48/48/48 49/49/49 
f 51/51/51 49/49/49 50/50/50 
f 51/51/51 52/52/52 48/48/48 
f 53/53/53 50/50/50 30/30/30 
f 51/51/51 50/50/50 53/53/53 
f 52/52/52 51/51/51 54/54/54 
f 52/52/52 54/54/54 55/55/55 
f 56/56/56 51/51/51 53/53/53 
f 53/53/53 30/30/30 56/56/56 
f 56/56/56 54/54/54 51/51/51 
f 30/30/30 54/54/54 56/56/56 
f 55/55/55 54/54/54 57/57/57 
f 30/30/30 57/57/57 54/54/54 
f 55/55/55 57/57/57 58/58/58 
f 29/29/29 57/57/57 30/30/30 
f 58/58/58 57/57/57 29/29/29 
f 58/58/58 29/29/29 59/59/59 
f 60/60/60 59/59/59 29/29/29 
f 60/60/60 29/29/29 34/34/34 
f 61/61/61 60/60/60 34/34/34 
f 61/61/61 34/34/34 40/40/40 
f 62/62/62 61/61/61 40/40/40 
f 62/62/62 40/40/40 63/63/63 
f 64/64/64 62/62/62 63/63/63 
f 33/33/33 63/63/63 40/40/40 
f 64/64/64 63/63/63 65/65/65 
f 65/65/65 63/63/63 33/33/33 
f 66/66/66 64/64/64 65/65/65 
f 65/65/65 33/33/33 39/39/39 
f 66/66/66 65/65/65 67/67/67 
f 68/68/68 66/66/66 67/67/67 
f 65/65/65 39/39/39 69/69/69 
f 65/65/65 69/69/69 67/67/67 
f 39/39/39 32/32/32 69/69/69 
f 68/68/68 67/67/67 70/70/70 
f 71/71/71 68/68/68 70/70/70 
f 72/72/72 67/67/67 69/69/69 
f 72/72/72 70/70/70 67/67/67 
f 69/69/69 32/32/32 73/73/73 
f 69/69/69 73/73/73 72/72/72 
f 24/24/24 73/73/73 32/32/32 
f 71/71/71 70/70/70 74/74/74 
f 75/75/75 71/71/71 74/74/74 
f 76/76/76 70/70/70 72/72/72 
f 76/76/76 74/74/74 70/70/70 
f 75/75/75 74/74/74 77/77/77 
f 77/77/77 74/74/74 76/76/76 
f 78/78/78 75/75/75 77/77/77 
f 79/79/79 73/73/73 24/24/24 
f 25/25/25 79/79/79 24/24/24 
f 80/80/80 79/79/79 25/25/25 
f 72/72/72 73/73/73 81/81/81 
f 72/72/72 81/81/81 76/76/76 
f 79/79/79 81/81/81 73/73/73 
f 80/80/80 82/82/82 79/79/79 
f 83/83/83 82/82/82 80/80/80 
f 84/84/84 81/81/81 79/79/79 
f 76/76/76 81/81/81 84/84/84 
f 84/84/84 79/79/79 82/82/82 
f 83/83/83 85/85/85 82/82/82 
f 84/84/84 82/82/82 85/85/85 
f 85/85/85 83/83/83 86/86/86 
f 76/76/76 84/84/84 87/87/87 
f 77/77/77 76/76/76 87/87/87 
f 84/84/84 85/85/85 88/88/88 
f 87/87/87 84/84/84 88/88/88 
f 85/85/85 86/86/86 89/89/89 
f 88/88/88 85/85/85 89/89/89 
f 86/86/86 90/90/90 89/89/89 
f 88/88/88 89/89/89 90/90/90 
f 86/86/86 91/91/91 90/90/90 
f 90/90/90 91/91/91 78/78/78 
f 87/87/87 88/88/88 92/92/92 
f 77/77/77 87/87/87 92/92/92 
f 88/88/88 90/90/90 92/92/92 
f 90/90/90 78/78/78 93/93/93 
f 78/78/78 77/77/77 93/93/93 
f 77/77/77 92/92/92 93/93/93 
f 90/90/90 93/93/93 92/92/92 
f 94/94/94 96/96/96 95/95/95 
f 97/97/97 94/94/94 95/95/95 
f 94/94/94 98/98/98 96/96/96 
f 96/96/96 98/98/98 99/99/99 
f 96/96/96 99/99/99 100/100/100 
f 94/94/94 101/101/101 98/98/98 
f 99/99/99 98/98/98 101/101/101 
f 100/100/100 99/99/99 102/102/102 
f 100/100/100 102/102/102 103/103/103 
f 103/103/103 102/102/102 104/104/104 
f 103/103/103 104/104/104 105/105/105 
f 99/99/99 106/106/106 102/102/102 
f 106/106/106 104/104/104 102/102/102 
f 99/99/99 101/101/101 107/107/107 
f 99/99/99 107/107/107 106/106/106 
f 108/108/108 101/101/101 94/94/94 
f 107/107/107 101/101/101 108/108/108 
f 97/97/97 109/109/109 94/94/94 
f 108/108/108 94/94/94 109/109/109 
f 110/110/110 109/109/109 97/97/97 
f 108/108/108 109/109/109 110/110/110 
f 110/110/110 97/97/97 111/111/111 
f 107/107/107 108/108/108 112/112/112 
f 112/112/112 108/108/108 110/110/110 
f 106/106/106 107/107/107 112/112/112 
f 111/111/111 113/113/113 110/110/110 
f 112/112/112 110/110/110 113/113/113 
f 111/111/111 114/114/114 113/113/113 
f 114/114/114 115/115/115 113/113/113 
f 112/112/112 113/113/113 115/115/115 
f 114/114/114 116/116/116 115/115/115 
f 106/106/106 112/112/112 117/117/117 
f 112/112/112 115/115/115 117/117/117 
f 116/116/116 118/118/118 115/115/115 
f 116/116/116 119/119/119 118/118/118 
f 120/120/120 106/106/106 117/117/117 
f 106/106/106 120/120/120 104/104/104 
f 115/115/115 121/121/121 117/117/117 
f 115/115/115 118/118/118 121/121/121 
f 120/120/120 117/117/117 121/121/121 
f 119/119/119 122/122/122 118/118/118 
f 119/119/119 123/123/123 122/122/122 
f 120/120/120 124/124/124 104/104/104 
f 105/105/105 104/104/104 124/124/124 
f 105/105/105 124/124/124 125/125/125 
f 118/118/118 126/126/126 121/121/121 
f 118/118/118 122/122/122 126/126/126 
f 127/127/127 120/120/120 121/121/121 
f 120/120/120 127/127/127 124/124/124 
f 127/127/127 121/121/121 126/126/126 
f 125/125/125 124/124/124 128/128/128 
f 128/128/128 124/124/124 127/127/127 
f 125/125/125 128/128/128 129/129/129 
f 123/123/123 130/130/130 122/122/122 
f 123/123/123 131/131/131 130/130/130 
f 132/132/132 127/127/127 126/126/126 
f 128/128/128 127/127/127 132/132/132 
f 133/133/133 126/126/126 122/122/122 
f 133/133/133 122/122/122 130/130/130 
f 132/132/132 126/126/126 133/133/133 
f 131/131/131 134/134/134 130/130/130 
f 133/133/133 130/130/130 134/134/134 
f 131/131/131 135/135/135 134/134/134 
f 129/129/129 128/128/128 136/136/136 
f 129/129/129 136/136/136 137/137/137 
f 128/128/128 132/132/132 138/138/138 
f 138/138/138 132/132/132 133/133/133 
f 128/128/128 138/138/138 136/136/136 
f 137/137/137 136/136/136 139/139/139 
f 138/138/138 139/139/139 136/136/136 
f 137/137/137 139/139/139 140/140/140 
f 138/138/138 133/133/133 141/141/141 
f 133/133/133 134/134/134 141/141/141 
f 135/135/135 142/142/142 134/134/134 
f 135/135/135 143/143/143 142/142/142 
f 140/140/140 139/139/139 144/144/144 
f 140/140/140 144/144/144 145/145/145 
f 145/145/145 144/144/144 146/146/146 
f 147/147/147 146/146/146 144/144/144 
f 147/147/147 148/148/148 146/146/146 
f 146/146/146 148/148/148 149/149/149 
f 145/145/145 146/146/146 150/150/150 
f 151/151/151 150/150/150 146/146/146 
f 152/152/152 144/144/144 139/139/139 
f 152/152/152 147/147/147 144/144/144 
f 138/138/138 152/152/152 139/139/139 
f 152/152/152 138/138/138 141/141/141 
f 151/151/151 146/146/146 153/153/153 
f 146/146/146 149/149/149 153/153/153 
f 154/154/154 151/151/151 153/153/153 
f 152/152/152 141/141/141 155/155/155 
f 147/147/147 152/152/152 155/155/155 
f 134/134/134 155/155/155 141/141/141 
f 134/134/134 142/142/142 155/155/155 
f 154/154/154 153/153/153 156/156/156 
f 149/149/149 156/156/156 153/153/153 
f 157/157/157 154/154/154 156/156/156 
f 142/142/142 158/158/158 155/155/155 
f 143/143/143 158/158/158 142/142/142 
f 143/143/143 159/159/159 158/158/158 
f 157/157/157 156/156/156 160/160/160 
f 160/160/160 161/161/161 157/157/157 
f 158/158/158 162/162/162 155/155/155 
f 147/147/147 155/155/155 162/162/162 
f 159/159/159 163/163/163 158/158/158 
f 158/158/158 163/163/163 162/162/162 
f 159/159/159 164/164/164 163/163/163 
f 164/164/164 165/165/165 163/163/163 
f 162/162/162 163/163/163 165/165/165 
f 164/164/164 166/166/166 165/165/165 
f 147/147/147 162/162/162 167/167/167 
f 162/162/162 165/165/165 167/167/167 
f 168/168/168 147/147/147 167/167/167 
f 165/165/165 168/168/168 167/167/167 
f 148/148/148 147/147/147 168/168/168 
f 166/166/166 169/169/169 165/165/165 
f 165/165/165 169/169/169 168/168/168 
f 166/166/166 170/170/170 169/169/169 
f 169/169/169 171/171/171 168/168/168 
f 148/148/148 168/168/168 171/171/171 
f 170/170/170 172/172/172 169/169/169 
f 169/169/169 172/172/172 171/171/171 
f 170/170/170 173/173/173 172/172/172 
f 172/172/172 174/174/174 171/171/171 
f 174/174/174 148/148/148 171/171/171 
f 173/173/173 175/175/175 172/172/172 
f 172/172/172 175/175/175 174/174/174 
f 173/173/173 176/176/176 175/175/175 
f 176/176/176 177/177/177 175/175/175 
f 174/174/174 175/175/175 177/177/177 
f 176/176/176 178/178/178 177/177/177 
f 148/148/148 174/174/174 179/179/179 
f 174/174/174 177/177/177 179/179/179 
f 148/148/148 179/179/179 180/180/180 
f 177/177/177 180/180/180 179/179/179 
f 149/149/149 148/148/148 180/180/180 
f 178/178/178 181/181/181 177/177/177 
f 177/177/177 181/181/181 180/180/180 
f 178/178/178 182/182/182 181/181/181 
f 161/161/161 181/181/181 182/182/182 
f 161/161/161 183/183/183 181/181/181 
f 180/180/180 181/181/181 183/183/183 
f 160/160/160 183/183/183 161/161/161 
f 180/180/180 183/183/183 184/184/184 
f 149/149/149 180/180/180 184/184/184 
f 160/160/160 184/184/184 183/183/183 
f 185/185/185 149/149/149 184/184/184 
f 160/160/160 185/185/185 184/184/184 
f 185/185/185 186/186/186 149/149/149 
f 186/186/186 185/185/185 160/160/160 
f 149/149/149 186/186/186 156/156/156 
f 186/186/186 160/160/160 156/156/156 
f 187/187/187 189/189/189 188/188/188 
f 187/187/187 190/190/190 189/189/189 
f 187/187/187 188/188/188 191/191/191 
f 192/192/192 191/191/191 188/188/188 
f 187/187/187 193/193/193 190/190/190 
f 191/191/191 193/193/193 187/187/187 
f 192/192/192 194/194/194 191/191/191 
f 191/191/191 194/194/194 193/193/193 
f 195/195/195 194/194/194 192/192/192 
f 196/196/196 190/190/190 193/193/193 
f 196/196/196 197/197/197 190/190/190 
f 198/198/198 197/197/197 196/196/196 
f 198/198/198 196/196/196 199/199/199 
f 200/200/200 198/198/198 199/199/199 
f 193/193/193 194/194/194 201/201/201 
f 195/195/195 201/201/201 194/194/194 
f 193/193/193 201/201/201 196/196/196 
f 202/202/202 201/201/201 195/195/195 
f 196/196/196 201/201/201 202/202/202 
f 202/202/202 195/195/195 203/203/203 
f 204/204/204 202/202/202 203/203/203 
f 204/204/204 205/205/205 202/202/202 
f 196/196/196 202/202/202 205/205/205 
f 206/206/206 205/205/205 204/204/204 
f 206/206/206 196/196/196 205/205/205 
f 206/206/206 204/204/204 207/207/207 
f 208/208/208 206/206/206 207/207/207 
f 196/196/196 206/206/206 209/209/209 
f 208/208/208 209/209/209 206/206/206 
f 196/196/196 209/209/209 199/199/199 
f 210/210/210 209/209/209 208/208/208 
f 210/210/210 199/199/199 209/209/209 
f 210/210/210 208/208/208 211/211/211 
f 212/212/212 210/210/210 211/211/211 
f 212/212/212 213/213/213 210/210/210 
f 199/199/199 210/210/210 213/213/213 
f 214/214/214 213/213/213 212/212/212 
f 199/199/199 213/213/213 214/214/214 
f 214/214/214 212/212/212 215/215/215 
f 214/214/214 215/215/215 216/216/216 
f 199/199/199 214/214/214 217/217/217 
f 200/200/200 199/199/199 217/217/217 
f 218/218/218 200/200/200 217/217/217 
f 219/219/219 214/214/214 216/216/216 
f 217/217/217 214/214/214 219/219/219 
f 219/219/219 216/216/216 220/220/220 
f 221/221/221 219/219/219 220/220/220 
f 218/218/218 217/217/217 222/222/222 
f 217/217/217 219/219/219 222/222/222 
f 221/221/221 223/223/223 219/219/219 
f 222/222/222 219/219/219 223/223/223 
f 224/224/224 218/218/218 222/222/222 
f 222/222/222 223/223/223 224/224/224 
f 224/224/224 225/225/225 218/218/218 
f 224/224/224 226/226/226 225/225/225 
f 221/221/221 227/227/227 223/223/223 
f 224/224/224 223/223/223 227/227/227 
f 221/221/221 228/228/228 227/227/227 
f 224/224/224 229/229/229 226/226/226 
f 224/224/224 227/227/227 229/229/229 
f 230/230/230 226/226/226 229/229/229 
f 231/231/231 227/227/227 228/228/228 
f 229/229/229 227/227/227 231/231/231 
f 231/231/231 228/228/228 232/232/232 
f 230/230/230 229/229/229 233/233/233 
f 229/229/229 231/231/231 233/233/233 
f 234/234/234 230/230/230 233/233/233 
f 235/235/235 231/231/231 232/232/232 
f 233/233/233 231/231/231 235/235/235 
f 235/235/235 232/232/232 236/236/236 
f 237/237/237 235/235/235 236/236/236 
f 234/234/234 233/233/233 238/238/238 
f 233/233/233 235/235/235 238/238/238 
f 237/237/237 239/239/239 235/235/235 
f 238/238/238 235/235/235 239/239/239 
f 240/240/240 234/234/234 238/238/238 
f 238/238/238 239/239/239 240/240/240 
f 240/240/240 241/241/241 234/234/234 
f 240/240/240 242/242/242 241/241/241 
f 237/237/237 243/243/243 239/239/239 
f 240/240/240 239/239/239 243/243/243 
f 237/237/237 244/244/244 243/243/243 
f 245/245/245 243/243/243 244/244/244 
f 240/240/240 246/246/246 242/242/242 
f 240/240/240 243/243/243 246/246/246 
f 245/245/245 246/246/246 243/243/243 
f 242/242/242 246/246/246 247/247/247 
f 245/245/245 247/247/247 246/246/246 
f 248/248/248 250/250/250 249/249/249 
f 248/248/248 249/249/249 251/251/251 
f 248/248/248 252/252/252 250/250/250 
f 253/253/253 250/250/250 252/252/252 
f 248/248/248 251/251/251 254/254/254 
f 252/252/252 248/248/248 254/254/254 
f 253/253/253 252/252/252 255/255/255 
f 252/252/252 254/254/254 255/255/255 
f 256/256/256 253/253/253 255/255/255 
f 257/257/257 254/254/254 251/251/251 
f 257/257/257 251/251/251 258/258/258 
f 259/259/259 257/257/257 258/258/258 
f 259/259/259 260/260/260 257/257/257 
f 261/261/261 260/260/260 259/259/259 
f 254/254/254 262/262/262 255/255/255 
f 256/256/256 255/255/255 262/262/262 
f 254/254/254 257/257/257 262/262/262 
f 263/263/263 256/256/256 262/262/262 
f 257/257/257 263/263/263 262/262/262 
f 263/263/263 264/264/264 256/256/256 
f 265/265/265 264/264/264 263/263/263 
f 265/265/265 263/263/263 266/266/266 
f 257/257/257 266/266/266 263/263/263 
f 266/266/266 267/267/267 265/265/265 
f 266/266/266 268/268/268 267/267/267 
f 266/266/266 257/257/257 268/268/268 
f 269/269/269 267/267/267 268/268/268 
f 257/257/257 270/270/270 268/268/268 
f 269/269/269 268/268/268 270/270/270 
f 257/257/257 260/260/260 270/270/270 
f 270/270/270 271/271/271 269/269/269 
f 270/270/270 272/272/272 271/271/271 
f 270/270/270 260/260/260 272/272/272 
f 273/273/273 271/271/271 272/272/272 
f 273/273/273 272/272/272 274/274/274 
f 260/260/260 274/274/274 272/272/272 
f 275/275/275 273/273/273 274/274/274 
f 260/260/260 275/275/275 274/274/274 
f 275/275/275 276/276/276 273/273/273 
f 275/275/275 277/277/277 276/276/276 
f 260/260/260 278/278/278 275/275/275 
f 261/261/261 278/278/278 260/260/260 
f 279/279/279 278/278/278 261/261/261 
f 280/280/280 277/277/277 275/275/275 
f 278/278/278 280/280/280 275/275/275 
f 280/280/280 281/281/281 277/277/277 
f 282/282/282 281/281/281 280/280/280 
f 279/279/279 283/283/283 278/278/278 
f 278/278/278 283/283/283 280/280/280 
f 282/282/282 280/280/280 284/284/284 
f 283/283/283 284/284/284 280/280/280 
f 285/285/285 283/283/283 279/279/279 
f 283/283/283 285/285/285 284/284/284 
f 285/285/285 279/279/279 286/286/286 
f 285/285/285 286/286/286 287/287/287 
f 282/282/282 284/284/284 288/288/288 
f 285/285/285 288/288/288 284/284/284 
f 282/282/282 288/288/288 289/289/289 
f 285/285/285 287/287/287 290/290/290 
f 285/285/285 290/290/290 288/288/288 
f 291/291/291 290/290/290 287/287/287 
f 292/292/292 289/289/289 288/288/288 
f 290/290/290 292/292/292 288/288/288 
f 292/292/292 293/293/293 289/289/289 
f 291/291/291 294/294/294 290/290/290 
f 290/290/290 294/294/294 292/292/292 
f 295/295/295 294/294/294 291/291/291 
f 296/296/296 293/293/293 292/292/292 
f 294/294/294 296/296/296 292/292/292 
f 296/296/296 297/297/297 293/293/293 
f 298/298/298 297/297/297 296/296/296 
f 295/295/295 299/299/299 294/294/294 
f 294/294/294 299/299/299 296/296/296 
f 298/298/298 296/296/296 300/300/300 
f 299/299/299 300/300/300 296/296/296 
f 301/301/301 299/299/299 295/295/295 
f 299/299/299 301/301/301 300/300/300 
f 301/301/301 295/295/295 302/302/302 
f 301/301/301 302/302/302 303/303/303 
f 298/298/298 300/300/300 304/304/304 
f 301/301/301 304/304/304 300/300/300 
f 298/298/298 304/304/304 305/305/305 
f 306/306/306 305/305/305 304/304/304 
f 301/301/301 303/303/303 307/307/307 
f 301/301/301 307/307/307 304/304/304 
f 306/306/306 304/304/304 307/307/307 
f 303/303/303 308/308/308 307/307/307 
f 306/306/306 307/307/307 308/308/308 
