# exported by StudySceneExporter from mesh 'Screwdriver_S_Handle_low'
mtllib materials.mtl
v -0.01239803 -0.002355366 -0.02814949
v -0.009559326 -0.008238849 -0.02500435
v -0.009559326 -0.008238849 -0.02814949
v -0.01239803 -0.002355366 -0.02500435
v -0.01191471 0.004159183 -0.02814934
v -0.007712898 -0.006647434 -0.02072899
v -0.01191467 0.004159183 -0.02500435
v -0.008238831 0.009559307 -0.02814949
v -0.01000328 -0.001900425 -0.02072899
v -0.006986465 -0.006021404 -0.01645347
v -0.008238831 0.009559307 -0.02500435
v -0.002355385 0.01239801 -0.02814934
v -0.009061127 -0.001721439 -0.01645347
v -0.007597999 -0.006548443 -0.01175682
v -0.009613303 0.003355846 -0.02072899
v -0.002355385 0.01239801 -0.02500435
v 0.004159202 0.01191469 -0.02814949
v -0.009854279 -0.00187212 -0.01175682
v -0.009037781 -0.007789287 -0.007320022
v -0.008707886 0.003039761 -0.01645347
v -0.006647491 0.007712879 -0.02072899
v 0.004159202 0.01191469 -0.02500435
v 0.009559288 0.008238849 -0.02814949
v 0.009559326 0.008238849 -0.02500435
v -0.01172157 -0.002226849 -0.007320022
v -0.01169273 -0.01007757 0.0007532501
v -0.001900444 0.01000326 -0.02072899
v 0.003355789 0.009613323 -0.02072899
v 0.00771286 0.006647434 -0.02072899
v -0.006021385 0.006986446 -0.01645347
v -0.009470101 0.003305874 -0.01175682
v -0.01516499 -0.002881031 0.0007532501
v -0.01299671 -0.01120142 0.01111794
v 0.003039741 0.008707866 -0.01645347
v 0.006986427 0.006021404 -0.01645347
v -0.001721458 0.009061107 -0.01645347
v -0.01126461 0.003932285 -0.007320022
v -0.006548424 0.007598018 -0.01175682
v -0.01685619 -0.003202343 0.01111778
v -0.01105446 -0.009527416 0.02054146
v 0.003305855 0.009470119 -0.01175682
v 0.007597999 0.006548481 -0.01175682
v -0.001872101 0.009854259 -0.01175682
v -0.01457382 0.005087414 0.0007534027
v -0.007789306 0.009037762 -0.007320022
v -0.01433716 -0.002723751 0.02054146
v -0.008286972 -0.0071422 0.02555168
v 0.003932228 0.01126463 -0.007320022
v 0.009037742 0.007789287 -0.007320022
v -0.002226868 0.01172155 -0.007320022
v -0.01007755 0.01169275 0.0007532501
v -0.01619907 0.005654812 0.01111794
v 0.005087395 0.01457376 0.0007532501
v 0.01169273 0.01007757 0.0007532501
v -0.00288105 0.015165 0.0007534027
v -0.003202362 0.01685617 0.01111794
v 0.005654793 0.01619909 0.01111778
v 0.01299671 0.01120142 0.01111794
v -0.0112014 0.01299673 0.01111794
v 0.004809723 0.01377821 0.02054146
v 0.01105446 0.009527416 0.02054146
v -0.00272377 0.01433714 0.02054146
v 0.003605614 0.01032881 0.02555153
v -0.002041893 0.01074785 0.02555153
v 0.008286933 0.0071422 0.02555168
v 0.004489784 0.003869571 0.02841728
v 0.001953468 0.005596065 0.02841728
v 0 1.907349E-08 0.02946785
v -0.004246025 0.01374765 0.0201197
v -0.001106262 0.005823078 0.02841728
v -0.01048168 0.01216162 0.0150071
v -0.00677784 0.01423399 0.01622566
v -0.01310825 0.008809796 0.01621941
v -0.01377823 0.004809704 0.02054146
v -0.01074783 -0.002041874 0.02555153
v -0.01032883 0.003605595 0.02555153
v -0.005823059 -0.001106281 0.02841728
v -0.004489822 -0.003869571 0.02841728
v -0.005596046 0.001953487 0.02841728
v -0.003869591 0.004489803 0.02841743
v -0.007142219 0.008286953 0.02555168
v -0.007371216 0.008552646 0.02504494
v -0.0129705 0.006228275 0.0201197
v -0.004504318 0.01180677 0.02322472
v -0.0110128 0.006197338 0.02322472
v -0.01110775 0.008450069 0.01727653
v -0.01078262 0.006314907 0.01964958
v -0.009299049 0.01078947 0.01640221
v -0.009217872 0.006477222 0.02190163
v -0.006775741 0.007861691 0.02301857
v -0.006729927 0.01224657 0.01727653
v -0.005046005 0.0100728 0.02190163
v -0.004654541 0.01159643 0.01964958
v 0.01239803 0.002355366 -0.02814949
v 0.009559326 0.008238849 -0.02500435
v 0.009559288 0.008238849 -0.02814949
v 0.01239803 0.002355366 -0.02500435
v 0.01191467 -0.004159183 -0.02814949
v 0.00771286 0.006647434 -0.02072899
v 0.01191467 -0.004159183 -0.02500435
v 0.008238831 -0.009559307 -0.02814949
v 0.01000324 0.001900425 -0.02072899
v 0.006986427 0.006021404 -0.01645347
v 0.008238831 -0.009559307 -0.02500435
v 0.002355385 -0.01239801 -0.02814949
v 0.009061127 0.001721439 -0.01645363
v 0.007597999 0.006548481 -0.01175682
v 0.009613303 -0.003355846 -0.02072899
v 0.002355385 -0.01239801 -0.02500435
v -0.004159202 -0.01191469 -0.02814949
v 0.009854279 0.00187212 -0.01175682
v 0.009037742 0.007789287 -0.007320022
v 0.008707886 -0.003039761 -0.01645347
v 0.006647453 -0.007712879 -0.02072899
v -0.004159202 -0.01191469 -0.02500435
v -0.009559326 -0.008238849 -0.02814949
v -0.009559326 -0.008238849 -0.02500435
v 0.01172157 0.002226887 -0.007320022
v 0.01169273 0.01007757 0.0007532501
v 0.001900406 -0.01000326 -0.02072899
v -0.003355827 -0.009613323 -0.02072899
v -0.007712898 -0.006647434 -0.02072899
v 0.006021347 -0.006986446 -0.01645347
v 0.009470139 -0.003305836 -0.01175682
v 0.01516495 0.002881031 0.0007534027
v 0.01299671 0.01120142 0.01111794
v -0.00303978 -0.008707866 -0.01645363
v -0.006986465 -0.006021404 -0.01645347
v 0.00172142 -0.009061107 -0.01645347
v 0.01126461 -0.003932285 -0.007320022
v 0.006548462 -0.007598018 -0.01175682
v 0.01685619 0.003202343 0.01111794
v 0.01105446 0.009527416 0.02054146
v -0.003305855 -0.009470119 -0.01175682
v -0.007597999 -0.006548443 -0.01175682
v 0.001872139 -0.009854259 -0.01175682
v 0.01457375 -0.005087414 0.0007532501
v 0.007789306 -0.009037762 -0.007320175
v 0.01433716 0.002723751 0.02054146
v 0.008286933 0.0071422 0.02555168
v -0.003932266 -0.01126463 -0.007320022
v -0.009037781 -0.007789287 -0.007320022
v 0.002226868 -0.01172159 -0.007320022
v 0.01007751 -0.01169275 0.0007532501
v 0.01619907 -0.005654812 0.01111778
v -0.005087433 -0.01457376 0.0007534027
v -0.01169273 -0.01007757 0.0007532501
v 0.002881012 -0.015165 0.0007532501
v 0.003202324 -0.01685617 0.01111778
v -0.005654793 -0.01619909 0.01111794
v -0.01299671 -0.01120142 0.01111794
v 0.0112014 -0.01299673 0.01111778
v -0.004809723 -0.01377821 0.02054146
v -0.01105446 -0.009527416 0.02054146
v 0.00272377 -0.01433714 0.02054146
v -0.003605614 -0.01032881 0.02555168
v -0.008286972 -0.0071422 0.02555168
v -0.004489822 -0.003869571 0.02841728
v 0.002041855 -0.01074785 0.02555168
v -0.001953468 -0.005596065 0.02841743
v 0 1.907349E-08 0.02946785
v 0.001106262 -0.00582304 0.02841743
v 0.01310825 -0.008809719 0.01621941
v 0.01048164 -0.01216162 0.01500725
v 0.01377823 -0.004809704 0.02054146
v 0.01074783 0.002041874 0.02555168
v 0.01032883 -0.003605595 0.02555168
v 0.005823059 0.001106281 0.02841743
v 0.004489784 0.003869571 0.02841728
v 0.005596046 -0.001953487 0.02841743
v 0.003869591 -0.004489803 0.02841728
v 0.007142219 -0.008286953 0.02555168
v 0.004257279 -0.01152018 0.02322472
v 0.0129705 -0.006228313 0.02011955
v 0.007371216 -0.008552646 0.02504478
v 0.004246025 -0.01374765 0.02011955
v 0.0110128 -0.006197338 0.02322456
v 0.006777802 -0.01423399 0.01622566
v 0.009299049 -0.01078947 0.01640221
v 0.006729927 -0.01224657 0.01727653
v 0.01110775 -0.008450069 0.01727653
v 0.004654541 -0.01159643 0.01964973
v 0.01078258 -0.006314907 0.01964973
v 0.005046005 -0.0100728 0.02190178
v 0.009217834 -0.006477222 0.02190178
v 0.006775741 -0.007861691 0.02301857
v -0.006729927 0.01224657 0.01727653
v 0.009299049 -0.01078947 0.01640221
v -0.009299049 0.01078947 0.01640221
v 0.01110775 -0.008450069 0.01727653
v -0.004654541 0.01159643 0.01964958
v 0.01078258 -0.006314907 0.01964973
v -0.005046005 0.0100728 0.02190163
v 0.009217834 -0.006477222 0.02190178
v -0.006775741 0.007861691 0.02301857
v 0.006775741 -0.007861691 0.02301857
v -0.009217872 0.006477222 0.02190163
v 0.005046005 -0.0100728 0.02190178
v -0.01078262 0.006314907 0.01964958
v 0.004654541 -0.01159643 0.01964973
v -0.01110775 0.008450069 0.01727653
v 0.006729927 -0.01224657 0.01727653
v -0.009299049 0.01078947 0.01640221
v 0.009299049 -0.01078947 0.01640221
v -0.008238831 0.009559307 -0.02814949
v -0.005680008 0.006590366 -0.02814949
v -0.00162384 0.008547382 -0.02814949
v -0.002355385 0.01239801 -0.02814934
v -0.01191471 0.004159183 -0.02814934
v 0.002867393 0.008214206 -0.02814949
v 0.004159202 0.01191469 -0.02814949
v -0.008214188 0.002867451 -0.02814949
v -0.01239803 -0.002355366 -0.02814949
v 0.006590347 0.005679989 -0.02814949
v 0.009559288 0.008238849 -0.02814949
v -0.008547401 -0.001623821 -0.02814949
v -0.009559326 -0.008238849 -0.02814949
v 0.008547401 0.001623859 -0.02814934
v 0.01239803 0.002355366 -0.02814949
v -0.006590347 -0.005679989 -0.02814949
v -0.004159202 -0.01191469 -0.02814949
v 0.008214188 -0.002867451 -0.02814934
v 0.01191467 -0.004159183 -0.02814949
v -0.002867432 -0.008214206 -0.02814934
v 0.002355385 -0.01239801 -0.02814949
v 0.00567997 -0.006590366 -0.02814934
v 0.008238831 -0.009559307 -0.02814949
v 0.00162384 -0.008547382 -0.02814934
v 0.008547401 0.001623859 -0.0294677
v 0.008214188 -0.002867451 -0.0294677
v 0.00567997 -0.006590366 -0.0294677
v 0.00162384 -0.008547382 -0.0294677
v 0 1.907349E-08 -0.0294677
v 0.006590347 0.005679989 -0.0294677
v -0.002867432 -0.008214206 -0.0294677
v -0.006590347 -0.005679989 -0.0294677
v 0.002867393 0.008214206 -0.0294677
v -0.008547401 -0.001623821 -0.0294677
v -0.00162384 0.008547382 -0.02946785
v -0.008214188 0.002867451 -0.02946785
v -0.005680008 0.006590366 -0.0294677
vt 0.6424315 0.8310194
vt 0.6341041 0.8436501
vt 0.6407754 0.8446155
vt 0.6357689 0.8303542
vt 0.6431069 0.8176055
vt 0.624498 0.8405836
vt 0.6363814 0.8173628
vt 0.6432273 0.8042164
vt 0.6255009 0.8291233
vt 0.6160882 0.8398023
vt 0.6364857 0.8043478
vt 0.6428641 0.7907209
vt 0.6160753 0.8289945
vt 0.6065437 0.8423576
vt 0.6258285 0.816968
vt 0.6361567 0.7912605
vt 0.6416967 0.7770624
vt 0.6056337 0.8306744
vt 0.5960965 0.8469062
vt 0.6161973 0.8171387
vt 0.6258709 0.8045106
vt 0.6351269 0.7780838
vt 0.6392689 0.7634192
vt 0.6326945 0.7646499
vt 0.5950227 0.8333201
vt 0.5746748 0.8540955
vt 0.6255935 0.792038
vt 0.6248134 0.7798483
vt 0.6229806 0.7683091
vt 0.6162331 0.8047833
vt 0.6057134 0.8180692
vt 0.5755217 0.8372068
vt 0.5470879 0.8540931
vt 0.615548 0.7806315
vt 0.6147916 0.7698503
vt 0.6160297 0.7924459
vt 0.5953727 0.8193021
vt 0.6058482 0.8050356
vt 0.5524194 0.8369954
vt 0.5240365 0.8431647
vt 0.6055158 0.7795904
vt 0.6059015 0.7681012
vt 0.6057286 0.7920523
vt 0.5771608 0.8208952
vt 0.5957103 0.8051016
vt 0.532136 0.8307567
vt 0.5127401 0.8312645
vt 0.5954391 0.7772017
vt 0.5964847 0.7640638
vt 0.5956135 0.7909775
vt 0.5780765 0.8047938
vt 0.556198 0.8205309
vt 0.5770962 0.7726676
vt 0.57743 0.7564068
vt 0.5778675 0.7887454
vt 0.557258 0.7877219
vt 0.5548384 0.7709866
vt 0.5516996 0.753418
vt 0.5578938 0.8042526
vt 0.5343945 0.7749739
vt 0.5277519 0.7609739
vt 0.5382679 0.7891698
vt 0.5224811 0.7810948
vt 0.5261891 0.7914631
vt 0.5149292 0.7717452
vt 0.5074698 0.7855258
vt 0.5124427 0.7893984
vt 0.503418 0.8012698
vt 0.5393217 0.7921298
vt 0.515269 0.7953036
vt 0.5502806 0.8038974
vt 0.5477414 0.7959437
vt 0.5472146 0.8116083
vt 0.5371163 0.8175106
vt 0.520506 0.8234937
vt 0.5251546 0.8137307
vt 0.5111021 0.8141541
vt 0.5055935 0.8175416
vt 0.5145808 0.8086445
vt 0.515957 0.8020389
vt 0.5268697 0.8026855
vt 0.5280125 0.8027523
vt 0.5384123 0.8146191
vt 0.532337 0.7945094
vt 0.5315826 0.8114505
vt 0.543923 0.8089533
vt 0.5382011 0.8106298
vt 0.5460703 0.8036983
vt 0.53404 0.808044
vt 0.5321379 0.8029873
vt 0.5443195 0.7982538
vt 0.5345101 0.7981708
vt 0.5388006 0.7960329
vt 0.6424493 0.9352052
vt 0.6341494 0.947859
vt 0.6408237 0.9488077
vt 0.6357846 0.9345574
vt 0.6430964 0.9217834
vt 0.6245325 0.9448175
vt 0.6363701 0.9215591
vt 0.6431865 0.9083853
vt 0.6255114 0.9333532
vt 0.6161132 0.9440591
vt 0.6364455 0.9085367
vt 0.6427884 0.8948817
vt 0.6160809 0.9332497
vt 0.6065608 0.94664
vt 0.6258152 0.9211934
vt 0.6360831 0.8954425
vt 0.6415801 0.8812199
vt 0.6056352 0.9349563
vt 0.5961049 0.9512122
vt 0.6161827 0.9213901
vt 0.6258316 0.90873
vt 0.6350143 0.8822632
vt 0.6391065 0.8675821
vt 0.6325368 0.868835
vt 0.5950201 0.9376254
vt 0.5746624 0.9584293
vt 0.625524 0.8962514
vt 0.6247088 0.8840592
vt 0.6228373 0.8725243
vt 0.6161957 0.909029
vt 0.6056981 0.9223471
vt 0.5755098 0.9415402
vt 0.5470573 0.9584324
vt 0.6154506 0.8848677
vt 0.6146574 0.8740869
vt 0.6159651 0.8966861
vt 0.5953565 0.9236033
vt 0.6058139 0.909308
vt 0.552398 0.9413359
vt 0.5240158 0.9475143
vt 0.6054232 0.8838513
vt 0.6057676 0.8723578
vt 0.6056696 0.8963189
vt 0.5771399 0.9252274
vt 0.5956796 0.9093971
vt 0.5321302 0.9351122
vt 0.5127268 0.9356332
vt 0.5953488 0.8814864
vt 0.596344 0.8683414
vt 0.5955607 0.8952682
vt 0.5780528 0.9091196
vt 0.5561626 0.9248724
vt 0.5770102 0.876996
vt 0.5772781 0.8607335
vt 0.5778251 0.8930714
vt 0.5572183 0.8920655
vt 0.5547686 0.8753772
vt 0.5515658 0.8578272
vt 0.5578854 0.908597
vt 0.5343877 0.8794823
vt 0.5276897 0.8654597
vt 0.5381966 0.8935027
vt 0.5223882 0.8854671
vt 0.5148661 0.8761487
vt 0.5074457 0.8899574
vt 0.52631 0.8960667
vt 0.5124273 0.8938274
vt 0.503418 0.9056914
vt 0.5152915 0.8997505
vt 0.5471594 0.9159434
vt 0.5503031 0.908227
vt 0.5370922 0.9218316
vt 0.5205008 0.9278791
vt 0.5251422 0.9181316
vt 0.5110986 0.9185586
vt 0.5055902 0.9219384
vt 0.5145752 0.9130588
vt 0.5159559 0.9064665
vt 0.5268682 0.90713
vt 0.532042 0.8989027
vt 0.5383855 0.9189265
vt 0.5280062 0.907198
vt 0.5392809 0.8964615
vt 0.5315533 0.9158258
vt 0.5476919 0.9002571
vt 0.5461395 0.9080169
vt 0.5442375 0.9025607
vt 0.5438333 0.9132686
vt 0.5386755 0.9003623
vt 0.5381917 0.9148951
vt 0.5342519 0.9023724
vt 0.533963 0.912395
vt 0.5321133 0.9073091
vt 0.5981457 0.9604204
vt 0.6457253 0.9552631
vt 0.5971683 0.9552619
vt 0.6447175 0.9604216
vt 0.6012945 0.9649136
vt 0.6415987 0.9649146
vt 0.602826 0.9693387
vt 0.6400669 0.9693396
vt 0.603756 0.9744039
vt 0.6391368 0.9744046
vt 0.6028258 0.9794688
vt 0.6400666 0.9794698
vt 0.601294 0.9838939
vt 0.6415982 0.9838948
vt 0.5981753 0.9883869
vt 0.6447469 0.9883881
vt 0.5971674 0.9935451
vt 0.6457243 0.9935465
vt 0.6499312 0.7896142
vt 0.6578761 0.7875056
vt 0.6578661 0.77706
vt 0.6499313 0.7749135
vt 0.6572814 0.8023453
vt 0.6630802 0.7680087
vt 0.6572818 0.7621825
vt 0.6631076 0.7965469
vt 0.6700125 0.8096957
vt 0.6721215 0.7627771
vt 0.670013 0.7548323
vt 0.672159 0.8017609
vt 0.6847131 0.809696
vt 0.6825671 0.7627671
vt 0.6847136 0.7548323
vt 0.6826048 0.8017509
vt 0.6974444 0.8023458
vt 0.6916184 0.7679811
vt 0.6974447 0.7621827
vt 0.6916459 0.7965193
vt 0.7047949 0.7896147
vt 0.6968498 0.7770224
vt 0.7047949 0.7749138
vt 0.6968598 0.787468
vt 0.6819043 0.7653151
vt 0.6897705 0.7698565
vt 0.6943121 0.7777226
vt 0.6943121 0.7868054
vt 0.6773629 0.782264
vt 0.6728215 0.7653151
vt 0.6897707 0.7946715
vt 0.6819046 0.7992129
vt 0.6649555 0.7698565
vt 0.6728215 0.7992129
vt 0.660414 0.7777226
vt 0.6649556 0.7946715
vt 0.660414 0.7868056
vn -0.9824266 -0.1866494 0
vn -0.8645735 -0.4171471 0.2801801
vn -0.9006436 -0.4345586 0
vn -0.9404314 -0.178667 0.2892522
vn -0.9441226 0.3295946 0
vn -0.8343056 -0.4025354 0.3766954
vn -0.9037691 0.3154931 0.2892497
vn -0.6528358 0.7574995 0
vn -0.9054596 -0.1720182 0.388011
vn -0.9005083 -0.434473 0.01783358
vn -0.6249375 0.7251139 0.2892455
vn -0.1866347 0.9824294 0
vn -0.9822618 -0.1866039 0.01846076
vn -0.8626235 -0.4162042 -0.2874974
vn -0.8701628 0.3037528 0.3880089
vn -0.1786602 0.9404344 0.2892469
vn 0.3295753 0.9441293 -2.402754E-06
vn -0.9381716 -0.1782324 -0.2967614
vn -0.8310272 -0.4009677 -0.385511
vn -0.9439681 0.3295203 0.01846017
vn -0.6016998 0.6981468 0.3880059
vn 0.3154846 0.903773 0.2892469
vn 0.5626984 0.8266622 -4.641731E-06
vn 0.5401601 0.7935533 0.2801792
vn -0.9016923 -0.1713035 -0.3969964
vn -0.8722962 -0.4208739 -0.2489266
vn -0.1720196 0.9054608 0.3880079
vn 0.3037508 0.8701615 0.3880132
vn 0.5212499 0.7657665 0.3766966
vn -0.6527355 0.7573609 0.01846066
vn -0.9015968 0.3147299 -0.2967632
vn -0.9493937 -0.1803661 -0.2571374
vn -0.9000425 -0.4342652 0.03656752
vn 0.3295202 0.9439682 0.01845751
vn 0.5626185 0.8265244 0.0178276
vn -0.1866143 0.9822598 0.01845932
vn -0.8665411 0.3024929 -0.3969944
vn -0.6234425 0.7233598 -0.296766
vn -0.9817234 -0.1865113 0.03785114
vn -0.8413354 -0.4059423 0.356883
vn 0.3147306 0.9015954 -0.296767
vn 0.5389536 0.7917517 -0.2875034
vn -0.1782349 0.9381692 -0.2967674
vn -0.9123828 0.3184946 -0.2571356
vn -0.5991957 0.6952415 -0.3969936
vn -0.9135659 -0.1735611 0.3677959
vn -0.6599836 -0.3184294 0.6804589
vn 0.3024912 0.8665414 -0.396995
vn 0.5192154 0.7627568 -0.3855096
vn -0.1713021 0.901695 -0.3969909
vn -0.6308978 0.7320166 -0.2571377
vn -0.959181 0.282681 -0.007958834
vn 0.3184961 0.9123812 -0.2571396
vn 0.5449937 0.8006348 -0.2489291
vn -0.1803678 0.949394 -0.2571352
vn -0.1381226 0.9903848 -0.007751499
vn 0.329341 0.943452 0.03785125
vn 0.5623277 0.8261056 0.03656707
vn -0.6509547 0.7556196 -0.07278146
vn 0.306473 0.8779529 0.3677948
vn 0.5256457 0.7722231 0.3568867
vn -0.00758285 0.9309766 0.3649998
vn 0.2375911 0.6806244 0.6930374
vn -0.04999672 0.684948 0.7268745
vn 0.4123349 0.6057637 0.6804633
vn 0.2503318 0.3677387 0.8956016
vn 0.1425731 0.4084207 0.9015905
vn -0.07660369 0.08886168 0.9930938
vn -0.4780436 0.7927577 0.3781663
vn -0.0807269 0.4250072 0.901583
vn -0.6241499 0.7259572 0.2888303
vn -0.4551983 0.8340155 0.3117895
vn -0.7581424 0.5729782 0.3113136
vn -0.9197532 0.1441197 0.3650802
vn -0.7082335 -0.1345467 0.6930386
vn -0.6700637 0.1505309 0.7268804
vn -0.4250059 -0.08074637 0.9015819
vn -0.4006881 -0.1933256 0.895586
vn -0.4084491 0.1425599 0.9015797
vn -0.2824247 0.327686 0.9015864
vn -0.38644 0.4483903 0.8059841
vn -0.6085351 0.7060903 0.3621071
vn -0.7139241 0.5881749 0.3799509
vn -0.5852806 0.7071245 0.3967638
vn -0.6130134 0.6832108 0.3967842
vn -0.1673853 0.6908112 0.7033932
vn -0.05875568 0.9426267 0.3286379
vn -0.4004017 0.4664991 0.7887059
vn -0.2527393 0.9442609 -0.2109363
vn -0.6048035 0.7017056 -0.3765925
vn -0.658269 0.2705828 0.7024719
vn -0.8966302 0.3893065 -0.2109378
vn -0.9236493 0.1991078 0.3274571
vn 0.9824258 0.1866534 -4.805484E-06
vn 0.8645728 0.4171464 0.2801833
vn 0.9006372 0.4345718 -9.283341E-06
vn 0.9404317 0.1786664 0.289252
vn 0.9441271 -0.3295816 0
vn 0.834307 0.4025246 0.3767039
vn 0.9037713 -0.3154868 0.2892498
vn 0.6528488 -0.7574883 0
vn 0.9054583 0.172016 0.3880153
vn 0.900506 0.4344783 0.01781895
vn 0.6249434 -0.7251074 0.289249
vn 0.1866416 -0.982428 0
vn 0.9822608 0.1866094 0.01845619
vn 0.8626212 0.4162081 -0.2874983
vn 0.8701617 -0.303752 0.388012
vn 0.1786647 -0.9404326 0.2892498
vn -0.3295703 -0.944131 0
vn 0.9381712 0.1782356 -0.2967608
vn 0.8310309 0.4009644 -0.3855065
vn 0.9439674 -0.3295225 0.01845197
vn 0.6016995 -0.6981459 0.3880076
vn -0.3154874 -0.9037706 0.2892513
vn -0.5626963 -0.8266637 0
vn -0.5401647 -0.7935489 0.2801824
vn 0.9016932 0.1713085 -0.396992
vn 0.8722971 0.4208713 -0.2489277
vn 0.1720217 -0.9054585 0.3880121
vn -0.3037594 -0.8701557 0.3880199
vn -0.5212575 -0.7657595 0.3767
vn 0.6527317 -0.7573645 0.01845473
vn 0.9015958 -0.3147318 -0.296764
vn 0.9493939 0.1803673 -0.257136
vn 0.9000447 0.4342606 0.03656571
vn -0.3295244 -0.9439666 0.01846163
vn -0.5626171 -0.8265254 0.01782506
vn 0.1866106 -0.9822606 0.01845438
vn 0.8665434 -0.3024895 -0.3969919
vn 0.6234335 -0.7233664 -0.2967687
vn 0.9817238 0.1865087 0.03785441
vn 0.8413364 0.4059382 0.3568856
vn -0.3147254 -0.901599 -0.2967609
vn -0.5389498 -0.7917572 -0.2874957
vn 0.1782295 -0.9381706 -0.2967662
vn 0.9123833 -0.3184906 -0.2571389
vn 0.5992011 -0.6952369 -0.3969931
vn 0.9135663 0.1735587 0.3677961
vn 0.6599807 0.3184378 0.6804579
vn -0.3024923 -0.8665431 -0.3969906
vn -0.5192043 -0.7627668 -0.3855045
vn 0.1712987 -0.9016947 -0.396993
vn 0.6309009 -0.7320147 -0.2571357
vn 0.9591811 -0.28268 -0.007962931
vn -0.3184986 -0.9123815 -0.2571355
vn -0.5449883 -0.8006387 -0.2489288
vn 0.1803635 -0.9493946 -0.2571359
vn 0.1381224 -0.9903848 -0.007754026
vn -0.3293415 -0.9434518 0.03785549
vn -0.5623319 -0.8261026 0.03656627
vn 0.6509554 -0.7556189 -0.07278103
vn -0.3064725 -0.8779525 0.3677961
vn -0.5256521 -0.7722186 0.356887
vn 0.01328969 -0.9304044 0.3662936
vn -0.2375947 -0.6806275 0.693033
vn -0.4123427 -0.6057683 0.6804544
vn -0.2503559 -0.3677491 0.8955905
vn 0.05330247 -0.6872072 0.7245035
vn -0.1425854 -0.4084217 0.9015881
vn 0.0765934 -0.08885363 0.9930953
vn 0.08074912 -0.424993 0.9015878
vn 0.7581482 -0.5729758 0.311304
vn 0.6241568 -0.7259512 0.2888305
vn 0.9197525 -0.14413 0.365078
vn 0.7082353 0.1345499 0.6930361
vn 0.6700664 -0.1505437 0.7268751
vn 0.4249936 0.08075737 0.9015867
vn 0.4006692 0.1933496 0.8955893
vn 0.4084258 -0.1425845 0.9015864
vn 0.2824255 -0.3277014 0.9015806
vn 0.3908722 -0.4561203 0.7994831
vn 0.5965745 -0.6980551 0.3960025
vn 0.7139123 -0.5881978 0.3799377
vn 0.6001276 -0.7245563 0.3389174
vn 0.4873343 -0.7835171 0.3854949
vn 0.6130014 -0.6832344 0.3967618
vn 0.4551898 -0.8340207 0.3117881
vn 0.4003943 -0.466489 0.7887158
vn 0.6582493 -0.2706141 0.7024783
vn 0.1674149 -0.6908016 0.7033956
vn 0.9033231 -0.2158278 0.3707098
vn 0.05878095 -0.9426301 0.3286235
vn 0.8833414 -0.4478691 -0.1382795
vn 0.2527296 -0.9442596 -0.210954
vn 0.5818837 -0.7358421 -0.3463347
vn -0.3863426 -0.3329529 0.8601637
vn -0.2188411 -0.1885958 0.957361
vn -0.2188411 -0.1885958 0.957361
vn -0.3865214 -0.333107 0.8600237
vn -0.7501094 -0.6464897 0.1392378
vn -0.7501594 -0.6465328 0.1387664
vn -0.5218027 -0.4497383 -0.7248843
vn -0.5218022 -0.4497377 -0.7248852
vn 3.391875E-06 8.552163E-07 -1
vn 2.667115E-06 2.319231E-07 -1
vn 0.521809 0.4497244 -0.7248884
vn 0.5218076 0.4497231 -0.7248904
vn 0.7501631 0.6465269 0.1387743
vn 0.7501142 0.6464847 0.139235
vn 0.3865176 0.3331043 0.8600266
vn 0.3863437 0.3329544 0.8601626
vn 0.2188395 0.1885941 0.9573618
vn 0.2188395 0.1885941 0.9573618
vn -1.037175E-05 -1.826021E-05 -1
vn -0.1495356 0.1734846 -0.9734178
vn -0.04275236 0.2250203 -0.9734157
vn -4.300922E-06 -9.130031E-06 -1
vn -2.175649E-05 -9.130041E-06 -1
vn 0.07547513 0.2162442 -0.9734177
vn -6.148709E-06 0 -1
vn -0.2162618 0.07548013 -0.9734134
vn -9.536788E-06 -9.129988E-06 -1
vn 0.1734859 0.1495185 -0.9734202
vn -6.070805E-06 0 -1
vn -0.225015 -0.04275052 -0.973417
vn 1.138443E-05 4.56494E-06 -1
vn 0.2249936 0.04274997 -0.973422
vn -2.616761E-05 9.130063E-06 -1
vn -0.1734774 -0.1495137 -0.9734224
vn 1.287551E-05 3.195515E-05 -1
vn 0.2162195 -0.07547117 -0.9734234
vn -3.675534E-05 1.826E-05 -1
vn -0.07547248 -0.2161974 -0.9734283
vn -7.266206E-06 3.652026E-05 -1
vn 0.1495111 -0.1734756 -0.9734232
vn -2.541582E-05 2.739016E-05 -1
vn 0.04274411 -0.2249795 -0.9734255
vn 0.3357589 0.06377646 -0.9397864
vn 0.3226768 -0.1126379 -0.9397832
vn 0.2231244 -0.2589041 -0.9397787
vn 0.06378924 -0.3357745 -0.93978
vn 3.305259E-06 -1.25989E-05 -1
vn 0.258871 0.2231107 -0.9397911
vn -0.1126354 -0.3226625 -0.9397883
vn -0.2588668 -0.2231082 -0.9397929
vn 0.1126451 0.3226586 -0.9397885
vn -0.3357416 -0.06381427 -0.93979
vn -0.06378151 0.3357237 -0.9397987
vn -0.3226403 0.1126383 -0.9397956
vn -0.2231162 0.2589125 -0.9397784
usemtl Mat_Tools
f 1/1/1 3/3/3 2/2/2 
f 1/1/1 2/2/2 4/4/4 
f 5/5/5 1/1/1 4/4/4 
f 4/4/4 2/2/2 6/6/6 
f 5/5/5 4/4/4 7/7/7 
f 8/8/8 5/5/5 7/7/7 
f 4/4/4 6/6/6 9/9/9 
f 7/7/7 4/4/4 9/9/9 
f 9/9/9 6/6/6 10/10/10 
f 8/8/8 7/7/7 11/11/11 
f 12/12/12 8/8/8 11/11/11 
f 9/9/9 10/10/10 13/13/13 
f 13/13/13 10/10/10 14/14/14 
f 7/7/7 9/9/9 15/15/15 
f 11/11/11 7/7/7 15/15/15 
f 15/15/15 9/9/9 13/13/13 
f 12/12/12 11/11/11 16/16/16 
f 17/17/17 12/12/12 16/16/16 
f 13/13/13 14/14/14 18/18/18 
f 18/18/18 14/14/14 19/19/19 
f 15/15/15 13/13/13 20/20/20 
f 20/20/20 13/13/13 18/18/18 
f 11/11/11 15/15/15 21/21/21 
f 16/16/16 11/11/11 21/21/21 
f 21/21/21 15/15/15 20/20/20 
f 17/17/17 16/16/16 22/22/22 
f 23/23/23 17/17/17 22/22/22 
f 23/23/23 22/22/22 24/24/24 
f 18/18/18 19/19/19 25/25/25 
f 25/25/25 19/19/19 26/26/26 
f 16/16/16 21/21/21 27/27/27 
f 22/22/22 16/16/16 27/27/27 
f 24/24/24 22/22/22 28/28/28 
f 22/22/22 27/27/27 28/28/28 
f 24/24/24 28/28/28 29/29/29 
f 21/21/21 20/20/20 30/30/30 
f 27/27/27 21/21/21 30/30/30 
f 20/20/20 18/18/18 31/31/31 
f 31/31/31 18/18/18 25/25/25 
f 30/30/30 20/20/20 31/31/31 
f 25/25/25 26/26/26 32/32/32 
f 32/32/32 26/26/26 33/33/33 
f 29/29/29 28/28/28 34/34/34 
f 29/29/29 34/34/34 35/35/35 
f 28/28/28 27/27/27 36/36/36 
f 27/27/27 30/30/30 36/36/36 
f 28/28/28 36/36/36 34/34/34 
f 31/31/31 25/25/25 37/37/37 
f 37/37/37 25/25/25 32/32/32 
f 30/30/30 31/31/31 38/38/38 
f 36/36/36 30/30/30 38/38/38 
f 38/38/38 31/31/31 37/37/37 
f 32/32/32 33/33/33 39/39/39 
f 39/39/39 33/33/33 40/40/40 
f 35/35/35 34/34/34 41/41/41 
f 35/35/35 41/41/41 42/42/42 
f 34/34/34 36/36/36 43/43/43 
f 36/36/36 38/38/38 43/43/43 
f 34/34/34 43/43/43 41/41/41 
f 37/37/37 32/32/32 44/44/44 
f 44/44/44 32/32/32 39/39/39 
f 38/38/38 37/37/37 45/45/45 
f 43/43/43 38/38/38 45/45/45 
f 45/45/45 37/37/37 44/44/44 
f 39/39/39 40/40/40 46/46/46 
f 47/47/47 46/46/46 40/40/40 
f 42/42/42 41/41/41 48/48/48 
f 42/42/42 48/48/48 49/49/49 
f 41/41/41 43/43/43 50/50/50 
f 43/43/43 45/45/45 50/50/50 
f 41/41/41 50/50/50 48/48/48 
f 45/45/45 44/44/44 51/51/51 
f 50/50/50 45/45/45 51/51/51 
f 44/44/44 39/39/39 52/52/52 
f 52/52/52 39/39/39 46/46/46 
f 51/51/51 44/44/44 52/52/52 
f 49/49/49 48/48/48 53/53/53 
f 49/49/49 53/53/53 54/54/54 
f 48/48/48 50/50/50 55/55/55 
f 50/50/50 51/51/51 55/55/55 
f 48/48/48 55/55/55 53/53/53 
f 53/53/53 55/55/55 56/56/56 
f 54/54/54 53/53/53 57/57/57 
f 53/53/53 56/56/56 57/57/57 
f 54/54/54 57/57/57 58/58/58 
f 55/55/55 51/51/51 59/59/59 
f 51/51/51 52/52/52 59/59/59 
f 55/55/55 59/59/59 56/56/56 
f 58/58/58 57/57/57 60/60/60 
f 58/58/58 60/60/60 61/61/61 
f 57/57/57 62/62/62 60/60/60 
f 57/57/57 56/56/56 62/62/62 
f 63/63/63 61/61/61 60/60/60 
f 62/62/62 63/63/63 60/60/60 
f 62/62/62 64/64/64 63/63/63 
f 63/63/63 65/65/65 61/61/61 
f 66/66/66 65/65/65 63/63/63 
f 66/66/66 63/63/63 67/67/67 
f 67/67/67 63/63/63 64/64/64 
f 68/68/68 66/66/66 67/67/67 
f 56/56/56 69/69/69 62/62/62 
f 64/64/64 62/62/62 69/69/69 
f 68/68/68 67/67/67 70/70/70 
f 67/67/67 64/64/64 70/70/70 
f 56/56/56 59/59/59 71/71/71 
f 56/56/56 72/72/72 69/69/69 
f 56/56/56 71/71/71 72/72/72 
f 59/59/59 73/73/73 71/71/71 
f 59/59/59 52/52/52 73/73/73 
f 73/73/73 52/52/52 74/74/74 
f 52/52/52 46/46/46 74/74/74 
f 75/75/75 74/74/74 46/46/46 
f 75/75/75 76/76/76 74/74/74 
f 47/47/47 75/75/75 46/46/46 
f 77/77/77 75/75/75 47/47/47 
f 77/77/77 47/47/47 78/78/78 
f 68/68/68 77/77/77 78/78/78 
f 79/79/79 75/75/75 77/77/77 
f 68/68/68 79/79/79 77/77/77 
f 79/79/79 76/76/76 75/75/75 
f 79/79/79 68/68/68 80/80/80 
f 76/76/76 79/79/79 80/80/80 
f 68/68/68 70/70/70 80/80/80 
f 70/70/70 81/81/81 80/80/80 
f 76/76/76 80/80/80 81/81/81 
f 70/70/70 64/64/64 81/81/81 
f 64/64/64 82/82/82 81/81/81 
f 76/76/76 81/81/81 82/82/82 
f 76/76/76 83/83/83 74/74/74 
f 73/73/73 74/74/74 83/83/83 
f 64/64/64 84/84/84 82/82/82 
f 64/64/64 69/69/69 84/84/84 
f 76/76/76 82/82/82 85/85/85 
f 76/76/76 85/85/85 83/83/83 
f 83/83/83 86/86/86 73/73/73 
f 83/83/83 87/87/87 86/86/86 
f 87/87/87 83/83/83 85/85/85 
f 88/88/88 73/73/73 86/86/86 
f 87/87/87 85/85/85 89/89/89 
f 89/89/89 85/85/85 82/82/82 
f 88/88/88 71/71/71 73/73/73 
f 89/89/89 82/82/82 90/90/90 
f 90/90/90 82/82/82 84/84/84 
f 91/91/91 71/71/71 88/88/88 
f 90/90/90 84/84/84 92/92/92 
f 92/92/92 84/84/84 69/69/69 
f 91/91/91 72/72/72 71/71/71 
f 92/92/92 69/69/69 93/93/93 
f 93/93/93 72/72/72 91/91/91 
f 93/93/93 69/69/69 72/72/72 
f 94/94/94 96/96/96 95/95/95 
f 94/94/94 95/95/95 97/97/97 
f 98/98/98 94/94/94 97/97/97 
f 97/97/97 95/95/95 99/99/99 
f 98/98/98 97/97/97 100/100/100 
f 101/101/101 98/98/98 100/100/100 
f 97/97/97 99/99/99 102/102/102 
f 100/100/100 97/97/97 102/102/102 
f 102/102/102 99/99/99 103/103/103 
f 101/101/101 100/100/100 104/104/104 
f 105/105/105 101/101/101 104/104/104 
f 102/102/102 103/103/103 106/106/106 
f 106/106/106 103/103/103 107/107/107 
f 100/100/100 102/102/102 108/108/108 
f 104/104/104 100/100/100 108/108/108 
f 108/108/108 102/102/102 106/106/106 
f 105/105/105 104/104/104 109/109/109 
f 110/110/110 105/105/105 109/109/109 
f 106/106/106 107/107/107 111/111/111 
f 111/111/111 107/107/107 112/112/112 
f 108/108/108 106/106/106 113/113/113 
f 113/113/113 106/106/106 111/111/111 
f 104/104/104 108/108/108 114/114/114 
f 109/109/109 104/104/104 114/114/114 
f 114/114/114 108/108/108 113/113/113 
f 110/110/110 109/109/109 115/115/115 
f 116/116/116 110/110/110 115/115/115 
f 116/116/116 115/115/115 117/117/117 
f 111/111/111 112/112/112 118/118/118 
f 118/118/118 112/112/112 119/119/119 
f 109/109/109 114/114/114 120/120/120 
f 115/115/115 109/109/109 120/120/120 
f 117/117/117 115/115/115 121/121/121 
f 115/115/115 120/120/120 121/121/121 
f 117/117/117 121/121/121 122/122/122 
f 114/114/114 113/113/113 123/123/123 
f 120/120/120 114/114/114 123/123/123 
f 113/113/113 111/111/111 124/124/124 
f 124/124/124 111/111/111 118/118/118 
f 123/123/123 113/113/113 124/124/124 
f 118/118/118 119/119/119 125/125/125 
f 125/125/125 119/119/119 126/126/126 
f 122/122/122 121/121/121 127/127/127 
f 122/122/122 127/127/127 128/128/128 
f 121/121/121 120/120/120 129/129/129 
f 120/120/120 123/123/123 129/129/129 
f 121/121/121 129/129/129 127/127/127 
f 124/124/124 118/118/118 130/130/130 
f 130/130/130 118/118/118 125/125/125 
f 123/123/123 124/124/124 131/131/131 
f 129/129/129 123/123/123 131/131/131 
f 131/131/131 124/124/124 130/130/130 
f 125/125/125 126/126/126 132/132/132 
f 132/132/132 126/126/126 133/133/133 
f 128/128/128 127/127/127 134/134/134 
f 128/128/128 134/134/134 135/135/135 
f 127/127/127 129/129/129 136/136/136 
f 129/129/129 131/131/131 136/136/136 
f 127/127/127 136/136/136 134/134/134 
f 130/130/130 125/125/125 137/137/137 
f 137/137/137 125/125/125 132/132/132 
f 131/131/131 130/130/130 138/138/138 
f 136/136/136 131/131/131 138/138/138 
f 138/138/138 130/130/130 137/137/137 
f 132/132/132 133/133/133 139/139/139 
f 140/140/140 139/139/139 133/133/133 
f 135/135/135 134/134/134 141/141/141 
f 135/135/135 141/141/141 142/142/142 
f 134/134/134 136/136/136 143/143/143 
f 136/136/136 138/138/138 143/143/143 
f 134/134/134 143/143/143 141/141/141 
f 138/138/138 137/137/137 144/144/144 
f 143/143/143 138/138/138 144/144/144 
f 137/137/137 132/132/132 145/145/145 
f 145/145/145 132/132/132 139/139/139 
f 144/144/144 137/137/137 145/145/145 
f 142/142/142 141/141/141 146/146/146 
f 142/142/142 146/146/146 147/147/147 
f 141/141/141 143/143/143 148/148/148 
f 143/143/143 144/144/144 148/148/148 
f 141/141/141 148/148/148 146/146/146 
f 146/146/146 148/148/148 149/149/149 
f 147/147/147 146/146/146 150/150/150 
f 146/146/146 149/149/149 150/150/150 
f 147/147/147 150/150/150 151/151/151 
f 148/148/148 144/144/144 152/152/152 
f 144/144/144 145/145/145 152/152/152 
f 148/148/148 152/152/152 149/149/149 
f 151/151/151 150/150/150 153/153/153 
f 151/151/151 153/153/153 154/154/154 
f 150/150/150 149/149/149 155/155/155 
f 150/150/150 155/155/155 153/153/153 
f 156/156/156 154/154/154 153/153/153 
f 156/156/156 157/157/157 154/154/154 
f 158/158/158 157/157/157 156/156/156 
f 159/159/159 156/156/156 153/153/153 
f 159/159/159 153/153/153 155/155/155 
f 158/158/158 156/156/156 160/160/160 
f 160/160/160 156/156/156 159/159/159 
f 161/161/161 158/158/158 160/160/160 
f 160/160/160 159/159/159 162/162/162 
f 161/161/161 160/160/160 162/162/162 
f 152/152/152 145/145/145 163/163/163 
f 149/149/149 152/152/152 164/164/164 
f 152/152/152 163/163/163 164/164/164 
f 163/163/163 145/145/145 165/165/165 
f 145/145/145 139/139/139 165/165/165 
f 166/166/166 165/165/165 139/139/139 
f 166/166/166 167/167/167 165/165/165 
f 140/140/140 166/166/166 139/139/139 
f 168/168/168 166/166/166 140/140/140 
f 168/168/168 140/140/140 169/169/169 
f 161/161/161 168/168/168 169/169/169 
f 170/170/170 166/166/166 168/168/168 
f 161/161/161 170/170/170 168/168/168 
f 170/170/170 167/167/167 166/166/166 
f 161/161/161 171/171/171 170/170/170 
f 171/171/171 167/167/167 170/170/170 
f 161/161/161 162/162/162 171/171/171 
f 162/162/162 172/172/172 171/171/171 
f 171/171/171 172/172/172 167/167/167 
f 162/162/162 159/159/159 172/172/172 
f 172/172/172 159/159/159 173/173/173 
f 173/173/173 159/159/159 155/155/155 
f 167/167/167 174/174/174 165/165/165 
f 163/163/163 165/165/165 174/174/174 
f 167/167/167 172/172/172 175/175/175 
f 172/172/172 173/173/173 175/175/175 
f 173/173/173 155/155/155 176/176/176 
f 149/149/149 176/176/176 155/155/155 
f 167/167/167 177/177/177 174/174/174 
f 167/167/167 175/175/175 177/177/177 
f 149/149/149 178/178/178 176/176/176 
f 149/149/149 164/164/164 178/178/178 
f 179/179/179 164/164/164 163/163/163 
f 180/180/180 164/164/164 179/179/179 
f 180/180/180 178/178/178 164/164/164 
f 179/179/179 163/163/163 181/181/181 
f 181/181/181 163/163/163 174/174/174 
f 182/182/182 178/178/178 180/180/180 
f 182/182/182 176/176/176 178/178/178 
f 181/181/181 174/174/174 183/183/183 
f 183/183/183 174/174/174 177/177/177 
f 184/184/184 176/176/176 182/182/182 
f 183/183/183 177/177/177 185/185/185 
f 175/175/175 185/185/185 177/177/177 
f 184/184/184 173/173/173 176/176/176 
f 175/175/175 186/186/186 185/185/185 
f 186/186/186 173/173/173 184/184/184 
f 186/186/186 175/175/175 173/173/173 
f 187/187/187 189/189/189 188/188/188 
f 187/187/187 188/188/188 190/190/190 
f 191/191/191 187/187/187 190/190/190 
f 191/191/191 190/190/190 192/192/192 
f 193/193/193 191/191/191 192/192/192 
f 193/193/193 192/192/192 194/194/194 
f 195/195/195 193/193/193 194/194/194 
f 195/195/195 194/194/194 196/196/196 
f 197/197/197 195/195/195 196/196/196 
f 197/197/197 196/196/196 198/198/198 
f 199/199/199 197/197/197 198/198/198 
f 199/199/199 198/198/198 200/200/200 
f 201/201/201 199/199/199 200/200/200 
f 201/201/201 200/200/200 202/202/202 
f 203/203/203 201/201/201 202/202/202 
f 203/203/203 202/202/202 204/204/204 
f 205/205/205 207/207/207 206/206/206 
f 205/205/205 208/208/208 207/207/207 
f 209/209/209 205/205/205 206/206/206 
f 208/208/208 210/210/210 207/207/207 
f 208/208/208 211/211/211 210/210/210 
f 209/209/209 206/206/206 212/212/212 
f 213/213/213 209/209/209 212/212/212 
f 211/211/211 214/214/214 210/210/210 
f 211/211/211 215/215/215 214/214/214 
f 213/213/213 212/212/212 216/216/216 
f 217/217/217 213/213/213 216/216/216 
f 215/215/215 218/218/218 214/214/214 
f 215/215/215 219/219/219 218/218/218 
f 217/217/217 216/216/216 220/220/220 
f 221/221/221 217/217/217 220/220/220 
f 219/219/219 222/222/222 218/218/218 
f 219/219/219 223/223/223 222/222/222 
f 221/221/221 220/220/220 224/224/224 
f 225/225/225 221/221/221 224/224/224 
f 223/223/223 226/226/226 222/222/222 
f 223/223/223 227/227/227 226/226/226 
f 227/227/227 225/225/225 228/228/228 
f 225/225/225 224/224/224 228/228/228 
f 227/227/227 228/228/228 226/226/226 
f 214/214/214 218/218/218 229/229/229 
f 218/218/218 222/222/222 230/230/230 
f 218/218/218 230/230/230 229/229/229 
f 222/222/222 226/226/226 231/231/231 
f 222/222/222 231/231/231 230/230/230 
f 226/226/226 228/228/228 232/232/232 
f 226/226/226 232/232/232 231/231/231 
f 230/230/230 231/231/231 233/233/233 
f 229/229/229 230/230/230 233/233/233 
f 231/231/231 232/232/232 233/233/233 
f 234/234/234 229/229/229 233/233/233 
f 214/214/214 229/229/229 234/234/234 
f 232/232/232 235/235/235 233/233/233 
f 228/228/228 235/235/235 232/232/232 
f 228/228/228 224/224/224 235/235/235 
f 210/210/210 214/214/214 234/234/234 
f 224/224/224 236/236/236 235/235/235 
f 235/235/235 236/236/236 233/233/233 
f 224/224/224 220/220/220 236/236/236 
f 210/210/210 234/234/234 237/237/237 
f 237/237/237 234/234/234 233/233/233 
f 207/207/207 210/210/210 237/237/237 
f 220/220/220 238/238/238 236/236/236 
f 236/236/236 238/238/238 233/233/233 
f 220/220/220 216/216/216 238/238/238 
f 207/207/207 237/237/237 239/239/239 
f 239/239/239 237/237/237 233/233/233 
f 206/206/206 207/207/207 239/239/239 
f 216/216/216 240/240/240 238/238/238 
f 238/238/238 240/240/240 233/233/233 
f 216/216/216 212/212/212 240/240/240 
f 206/206/206 239/239/239 241/241/241 
f 241/241/241 239/239/239 233/233/233 
f 240/240/240 241/241/241 233/233/233 
f 212/212/212 241/241/241 240/240/240 
f 212/212/212 206/206/206 241/241/241 
