# exported by StudySceneExporter from mesh 'Vice_Bolts_low'
mtllib materials.mtl
v -0.09708425 0.155945 -0.04354145
v -0.09442239 0.1604621 -0.03855305
v -0.09442239 0.1604621 -0.04354145
v -0.09708425 0.155945 -0.03855305
v -0.1023272 0.1559917 -0.04354145
v -0.1023272 0.1559917 -0.03855305
v -0.1049082 0.1605554 -0.04354145
v -0.1049082 0.1605554 -0.03855305
v -0.1022463 0.1650725 -0.04354145
v -0.1022463 0.1650725 -0.03855305
v -0.09700344 0.1650259 -0.04354145
v -0.09700344 0.1650259 -0.03855305
v -0.09442239 0.1604621 -0.04354145
v -0.09442239 0.1604621 -0.03855305
v -0.0996653 0.1605087 -0.03855305
v -0.1023272 0.1559917 -0.03855305
v -0.09700344 0.1650259 -0.03855305
v -0.1049082 0.1605554 -0.03855305
v -0.1022463 0.1650725 -0.03855305
v 0.09773514 0.1468785 -0.04354145
v 0.09451965 0.1510199 -0.04354145
v 0.09451965 0.1510199 -0.03855305
v 0.09773514 0.1468785 -0.03855305
v 0.1029294 0.1475926 -0.04354145
v 0.1029294 0.1475926 -0.03855305
v 0.1049082 0.1524478 -0.04354145
v 0.1049082 0.1524478 -0.03855305
v 0.1016927 0.1565894 -0.04354145
v 0.1016927 0.1565894 -0.03855305
v 0.09649844 0.1558752 -0.04354145
v 0.09649844 0.1558752 -0.03855305
v 0.09451965 0.1510199 -0.04354145
v 0.09451965 0.1510199 -0.03855305
v 0.09971392 0.1517339 -0.03855305
v 0.1029294 0.1475926 -0.03855305
v 0.09649844 0.1558752 -0.03855305
v 0.1049082 0.1524478 -0.03855305
v 0.1016927 0.1565894 -0.03855305
v -0.02078089 -0.1314693 0.01316158
v -0.01408014 -0.1643568 0.01098042
v -0.01264849 -0.1318272 0.01098042
v -0.02221253 -0.1639988 0.01316158
v -0.02673421 -0.1312073 0.01912067
v -0.02816585 -0.1637368 0.01912067
v -0.02891328 -0.1311114 0.02726093
v -0.03034492 -0.1636409 0.02726093
v -0.02673421 -0.1312073 0.03540119
v -0.02816585 -0.1637368 0.03540119
v -0.02078089 -0.1314693 0.04136028
v -0.02221253 -0.1639988 0.04136028
v -0.01264849 -0.1318272 0.04354145
v -0.01408014 -0.1643568 0.04354145
v -0.004516103 -0.1321852 0.04136028
v -0.00594775 -0.1647146 0.04136028
v 0.001437218 -0.1324472 0.03540119
v 5.571842E-06 -0.1649766 0.03540119
v 0.003616288 -0.1325431 0.02726093
v 0.002184641 -0.1650725 0.02726093
v 0.001437218 -0.1324472 0.01912067
v 5.571842E-06 -0.1649766 0.01912067
v -0.004516103 -0.1321852 0.01316158
v -0.00594775 -0.1647146 0.01316158
v -0.01264849 -0.1318272 0.01098042
v -0.01408014 -0.1643568 0.01098042
v -0.02816585 -0.1637368 0.03540119
v -0.01408014 -0.1643568 0.02726093
v -0.03034492 -0.1636409 0.02726093
v -0.02221253 -0.1639988 0.04136028
v -0.02816585 -0.1637368 0.01912067
v -0.01408014 -0.1643568 0.04354145
v -0.02221253 -0.1639988 0.01316158
v -0.00594775 -0.1647146 0.04136028
v -0.01408014 -0.1643568 0.01098042
v 5.571842E-06 -0.1649766 0.03540119
v -0.00594775 -0.1647146 0.01316158
v 0.002184641 -0.1650725 0.02726093
v 5.571842E-06 -0.1649766 0.01912067
vt 0.8797807 0.06710199
vt 0.8734062 0.06103894
vt 0.8734071 0.06710288
vt 0.8797799 0.06103808
vt 0.8861543 0.06710106
vt 0.8861533 0.06103715
vt 0.8925278 0.06710017
vt 0.892527 0.06103626
vt 0.8989015 0.0670993
vt 0.8989006 0.06103539
vt 0.905275 0.06709838
vt 0.9052742 0.06103447
vt 0.9116486 0.06709749
vt 0.9116478 0.06103361
vt 0.8765922 0.05551878
vt 0.8829659 0.05551791
vt 0.8702187 0.05551973
vt 0.8797783 0.04999867
vt 0.8734047 0.04999954
vt 0.1881413 0.03077515
vt 0.1945148 0.0307769
vt 0.1945165 0.02471298
vt 0.1881429 0.02471124
vt 0.1817676 0.03077341
vt 0.1817694 0.02470949
vt 0.1753941 0.03077165
vt 0.1753958 0.0247077
vt 0.1690205 0.0307699
vt 0.1690221 0.02470598
vt 0.1626469 0.03076812
vt 0.1626486 0.02470423
vt 0.1562733 0.03076639
vt 0.156275 0.02470245
vt 0.1913312 0.01919243
vt 0.1849576 0.01919068
vt 0.1977048 0.01919417
vt 0.1881459 0.01367188
vt 0.1945196 0.01367361
vt 0.3365145 0.01368332
vt 0.346755 0.05326593
vt 0.3467591 0.01368445
vt 0.3365105 0.05326498
vt 0.3262701 0.01368231
vt 0.3262661 0.0532639
vt 0.3160256 0.01368123
vt 0.3160216 0.05326289
vt 0.3057812 0.01368022
vt 0.3057771 0.05326182
vt 0.2955367 0.01367921
vt 0.2955327 0.05326074
vt 0.2852921 0.01367813
vt 0.2852882 0.05325973
vt 0.2750478 0.01367712
vt 0.2750437 0.05325866
vt 0.2648032 0.01367611
vt 0.2647992 0.05325764
vt 0.2545588 0.01367497
vt 0.2545548 0.05325657
vt 0.2443143 0.01367396
vt 0.2443103 0.05325556
vt 0.2340698 0.01367289
vt 0.2340658 0.05325454
vt 0.2238254 0.01367188
vt 0.2238214 0.05325347
vt 0.03791043 0.06335643
vt 0.0327884 0.08247293
vt 0.04678249 0.06847855
vt 0.02766594 0.06335655
vt 0.05190483 0.07735046
vt 0.01879403 0.06847887
vt 0.05190495 0.08759493
vt 0.01367188 0.07735091
vt 0.04678279 0.09646699
vt 0.01367205 0.08759537
vt 0.03791094 0.1015893
vt 0.01879439 0.09646728
vt 0.02766636 0.1015894
vn 0.4922764 -0.8704389 0
vn 0.7365416 -0.4340217 0.5187791
vn 0.8615423 -0.5076857 0
vn 0.4645885 -0.8214815 0.3306444
vn -0.5076879 -0.861541 0
vn -0.5076879 -0.861541 0
vn -0.9999604 0.008900789 0
vn -0.9999604 0.008900789 0
vn -0.49227 0.8704426 0
vn -0.49227 0.8704426 0
vn 0.5076736 0.8615496 0
vn 0.5076736 0.8615496 0
vn 0.8704354 0.4922827 0
vn 0.8704354 0.4922827 0
vn 0 0 1
vn 0 -8.011722E-06 1
vn 0 0 1
vn 0 0 1
vn 0 0 1
vn -0.3774008 -0.92605 0
vn -0.7898667 -0.6132784 0
vn -0.6752626 -0.5242961 0.5187813
vn -0.3561728 -0.8739644 0.3306466
vn 0.6132712 -0.7898724 0
vn 0.6132712 -0.7898724 0
vn 0.9906834 0.1361845 0
vn 0.9906834 0.1361845 0
vn 0.3774152 0.9260442 0
vn 0.3774152 0.9260442 0
vn -0.6132817 0.7898642 0
vn -0.6132817 0.7898642 0
vn -0.926047 0.3774081 0
vn -0.926047 0.3774081 0
vn 0 0 1
vn 0 0 1
vn 0 8.011638E-06 1
vn 0 0 1
vn 0 0 1
vn -0.4995167 0.02198441 -0.8660253
vn -0.2585679 0.01138024 -0.9659261
vn -0.2585679 0.01138023 -0.9659261
vn -0.499516 0.02198437 -0.8660257
vn -0.8651881 0.03807771 -0.4999997
vn -0.8651883 0.03807772 -0.4999993
vn -0.999033 0.04396816 0
vn -0.999033 0.04396816 0
vn -0.8651881 0.03807807 0.4999997
vn -0.8651883 0.03807808 0.4999993
vn -0.4995167 0.02198405 0.8660253
vn -0.499516 0.02198402 0.8660257
vn -1.946994E-06 2.339792E-07 1
vn -1.016451E-06 1.937162E-07 1
vn 0.4995145 -0.02198375 0.8660265
vn 0.499514 -0.02198372 0.8660269
vn 0.8651883 -0.0380782 0.4999992
vn 0.8651881 -0.0380782 0.4999995
vn 0.999033 -0.04396833 0
vn 0.999033 -0.04396833 0
vn 0.8651883 -0.03807802 -0.4999992
vn 0.8651881 -0.03807801 -0.4999995
vn 0.4995145 -0.02198429 -0.8660265
vn 0.499514 -0.02198427 -0.8660269
vn 0.2585672 -0.01137958 -0.9659262
vn 0.2585672 -0.01137957 -0.9659262
vn -0.04397085 -0.9990329 4.587493E-06
vn -0.04396693 -0.999033 0
vn -0.04398184 -0.9990324 0
vn -0.0439711 -0.9990329 3.553081E-06
vn -0.04397659 -0.9990325 -4.58749E-06
vn -0.04395936 -0.9990333 0
vn -0.04397659 -0.9990325 -3.553058E-06
vn -0.04395386 -0.9990336 3.305713E-06
vn -0.04397034 -0.9990329 0
vn -0.04395935 -0.9990333 4.789885E-06
vn -0.04397085 -0.9990329 -3.305693E-06
vn -0.04394735 -0.9990338 0
vn -0.0439651 -0.9990331 -4.789883E-06
usemtl Mat_Vice
f 1/1/1 3/3/3 2/2/2 
f 1/1/1 2/2/2 4/4/4 
f 5/5/5 1/1/1 4/4/4 
f 5/5/5 4/4/4 6/6/6 
f 7/7/7 5/5/5 6/6/6 
f 7/7/7 6/6/6 8/8/8 
f 9/9/9 7/7/7 8/8/8 
f 9/9/9 8/8/8 10/10/10 
f 11/11/11 9/9/9 10/10/10 
f 11/11/11 10/10/10 12/12/12 
f 13/13/13 11/11/11 12/12/12 
f 13/13/13 12/12/12 14/14/14 
f 4/4/4 2/2/2 15/15/15 
f 16/16/16 4/4/4 15/15/15 
f 2/2/2 17/17/17 15/15/15 
f 18/18/18 16/16/16 15/15/15 
f 17/17/17 19/19/19 15/15/15 
f 19/19/19 18/18/18 15/15/15 
f 20/20/20 22/22/22 21/21/21 
f 20/20/20 23/23/23 22/22/22 
f 24/24/24 23/23/23 20/20/20 
f 24/24/24 25/25/25 23/23/23 
f 26/26/26 25/25/25 24/24/24 
f 26/26/26 27/27/27 25/25/25 
f 28/28/28 27/27/27 26/26/26 
f 28/28/28 29/29/29 27/27/27 
f 30/30/30 29/29/29 28/28/28 
f 30/30/30 31/31/31 29/29/29 
f 32/32/32 31/31/31 30/30/30 
f 32/32/32 33/33/33 31/31/31 
f 23/23/23 34/34/34 22/22/22 
f 35/35/35 34/34/34 23/23/23 
f 22/22/22 34/34/34 36/36/36 
f 37/37/37 34/34/34 35/35/35 
f 36/36/36 34/34/34 38/38/38 
f 38/38/38 34/34/34 37/37/37 
f 39/39/39 41/41/41 40/40/40 
f 39/39/39 40/40/40 42/42/42 
f 43/43/43 39/39/39 42/42/42 
f 43/43/43 42/42/42 44/44/44 
f 45/45/45 43/43/43 44/44/44 
f 45/45/45 44/44/44 46/46/46 
f 47/47/47 45/45/45 46/46/46 
f 47/47/47 46/46/46 48/48/48 
f 49/49/49 47/47/47 48/48/48 
f 49/49/49 48/48/48 50/50/50 
f 51/51/51 49/49/49 50/50/50 
f 51/51/51 50/50/50 52/52/52 
f 53/53/53 51/51/51 52/52/52 
f 53/53/53 52/52/52 54/54/54 
f 55/55/55 53/53/53 54/54/54 
f 55/55/55 54/54/54 56/56/56 
f 57/57/57 55/55/55 56/56/56 
f 57/57/57 56/56/56 58/58/58 
f 59/59/59 57/57/57 58/58/58 
f 59/59/59 58/58/58 60/60/60 
f 61/61/61 59/59/59 60/60/60 
f 61/61/61 60/60/60 62/62/62 
f 63/63/63 61/61/61 62/62/62 
f 63/63/63 62/62/62 64/64/64 
f 65/65/65 67/67/67 66/66/66 
f 68/68/68 65/65/65 66/66/66 
f 67/67/67 69/69/69 66/66/66 
f 70/70/70 68/68/68 66/66/66 
f 69/69/69 71/71/71 66/66/66 
f 72/72/72 70/70/70 66/66/66 
f 71/71/71 73/73/73 66/66/66 
f 74/74/74 72/72/72 66/66/66 
f 73/73/73 75/75/75 66/66/66 
f 76/76/76 74/74/74 66/66/66 
f 75/75/75 77/77/77 66/66/66 
f 77/77/77 76/76/76 66/66/66 
