# exported by StudySceneExporter from mesh 'SM_Pot_005.001'
mtllib materials.mtl
v 0.3088699 -0.127938 0.2800685
v 0.317516 4.200913E-09 0.2300081
v 0.3343183 8.375905E-08 0.2800685
v 0.2933466 -0.1215081 0.2300081
v 0.2363989 -0.2363987 0.2800685
v 0.313978 -2.018397E-08 0.1974806
v 0.2245179 -0.2245177 0.2300081
v 0.1279383 -0.30887 0.2800685
v 0.2900778 -0.1201542 0.1974806
v 0.3210649 -5.037577E-09 0.1655155
v 0.1215083 -0.2933466 0.2300081
v 2.178696E-07 -0.3343185 0.2800685
v 0.2966253 -0.1228662 0.1655155
v 0.353095 8.948975E-08 0.09626182
v 0.2220161 -0.2220159 0.1974806
v 2.519558E-07 -0.3175161 0.2300081
v -0.1279379 -0.3088701 0.2800685
v 0.3262172 -0.1351235 0.09626184
v 0.3597919 1.383112E-07 0.05505225
v 0.1201544 -0.2900779 0.1974806
v 0.2270273 -0.2270272 0.1655155
v -0.1215079 -0.2933467 0.2300081
v -0.2363986 -0.2363991 0.2800685
v 0.3324045 -0.1376863 0.05505225
v 0.3399694 1.591535E-07 0.02488475
v 0.3140908 -0.1301005 0.02488475
v 0.249676 -0.2496758 0.09626184
v 0.2544115 -0.2544112 0.05505225
v 0.2403948 -0.2403945 0.02488475
v 0.1228665 -0.2966253 0.1655155
v 2.668963E-07 -0.3139781 0.1974806
v -0.2245175 -0.224518 0.2300081
v -0.3088698 -0.1279384 0.2800685
v 0.1351238 -0.3262172 0.09626184
v 0.1376866 -0.3324043 0.05505225
v 0.1301009 -0.3140907 0.02488475
v -0.1201539 -0.290078 0.1974806
v 2.712936E-07 -0.3210651 0.1655155
v -0.2933463 -0.1215085 0.2300081
v -0.3343183 -3.5198E-07 0.2800685
v 2.645342E-07 -0.3530951 0.09626184
v 2.521654E-07 -0.3597921 0.05505225
v 2.266744E-07 -0.3399694 0.02488475
v -0.122866 -0.2966255 0.1655155
v -0.2220157 -0.2220162 0.1974806
v -0.3175159 -4.096384E-07 0.2300081
v -0.3088699 0.1279378 0.2800685
v -0.1351233 -0.3262174 0.09626184
v -0.1376862 -0.3324046 0.05505225
v -0.1301004 -0.3140908 0.02488475
v -0.2900776 -0.1201545 0.1974806
v -0.2270269 -0.2270275 0.1655155
v -0.2933465 0.1215077 0.2300081
v -0.2363989 0.2363985 0.2800685
v -0.2496756 -0.2496761 0.09626182
v -0.2544111 -0.2544116 0.05505225
v -0.2403945 -0.2403948 0.02488475
v -0.3139778 -4.293537E-07 0.1974806
v -0.2966251 -0.1228666 0.1655155
v -0.2245178 0.2245173 0.2300081
v -0.1279383 0.3088697 0.2800685
v -0.326217 -0.1351239 0.09626182
v -0.3324043 -0.1376867 0.05505225
v -0.3140907 -0.1301009 0.02488475
v -0.2900777 0.1201537 0.1974806
v -0.3210648 -4.235024E-07 0.1655155
v -0.1215082 0.2933462 0.2300081
v -2.178694E-07 0.3343182 0.2800685
v -0.3530949 -3.70722E-07 0.09626182
v -0.3597919 -3.310949E-07 0.05505225
v -0.3399694 -2.858134E-07 0.02488475
v -0.2220159 0.2220155 0.1974806
v -0.2966252 0.1228658 0.1655155
v -1.618835E-07 0.3175157 0.2300081
v 0.1279379 0.3088698 0.2800685
v -0.3262172 0.1351232 0.09626182
v -0.3324045 0.1376861 0.05505225
v -0.3140908 0.1301004 0.02488475
v -0.1201543 0.2900774 0.1974806
v -0.2270272 0.2270268 0.1655155
v 0.121508 0.2933463 0.2300081
v 0.2363986 0.2363988 0.2800685
v -0.2496759 0.2496755 0.09626182
v -0.2544115 0.254411 0.05505225
v -0.2403948 0.2403944 0.02488475
v -1.423316E-07 0.3139777 0.1974806
v -0.1228663 0.296625 0.1655155
v 0.2245176 0.2245176 0.2300081
v 0.3088698 0.1279382 0.2800685
v -0.1351238 0.3262169 0.09626182
v -0.1376866 0.3324042 0.05505225
v -0.1301009 0.3140906 0.02488475
v -1.471712E-07 0.3210647 0.1655155
v 0.120154 0.2900776 0.1974806
v 0.2933464 0.1215081 0.2300081
v 0.3343183 8.375905E-08 0.2800685
v 0.317516 4.200913E-09 0.2300081
v -1.956775E-07 0.3530948 0.09626182
v -2.163094E-07 0.3597919 0.05505225
v -2.145672E-07 0.3399693 0.02488475
v 0.2220158 0.2220158 0.1974806
v 0.2900777 0.1201541 0.1974806
v 0.313978 -2.018397E-08 0.1974806
v 0.1228661 0.2966251 0.1655155
v 0.1351234 0.326217 0.09626182
v 0.1376862 0.3324044 0.05505225
v 0.1301004 0.3140907 0.02488475
v 0.227027 0.227027 0.1655155
v 0.2966252 0.1228662 0.1655155
v 0.3210649 -5.037577E-09 0.1655155
v 0.2496757 0.2496758 0.09626182
v 0.2544111 0.2544114 0.05505225
v 0.2403945 0.2403947 0.02488475
v 0.3262171 0.1351237 0.09626182
v 0.353095 8.948975E-08 0.09626182
v 0.3324043 0.1376865 0.05505225
v 0.3140906 0.1301008 0.02488475
v 0.3597919 1.383112E-07 0.05505225
v 0.3399694 1.591535E-07 0.02488475
v 0.3376135 2.974383E-08 0.2247054
v 0.3259661 -0.1350195 0.2800685
v 0.3528232 9.581832E-08 0.2800685
v 0.3119143 -0.1291991 0.2247054
v 0.2494838 -0.2494836 0.2800685
v 0.3101412 -0.1284646 0.1919352
v 0.3356943 1.53304E-08 0.1919352
v 0.238729 -0.2387288 0.2247054
v 0.1350198 -0.3259662 0.2800685
v 0.3178742 -0.1316677 0.1601541
v 0.3440645 3.691807E-08 0.1601541
v 0.3838331 1.566858E-07 0.08115097
v 0.2373719 -0.2373717 0.1919352
v 0.1291994 -0.3119143 0.2247054
v 2.299289E-07 -0.3528233 0.2800685
v 0.2432905 -0.2432903 0.1601541
v 0.3546157 -0.1468864 0.08115098
v 0.1284649 -0.3101412 0.1919352
v 2.661392E-07 -0.3376137 0.2247054
v -0.1350194 -0.3259663 0.2800685
v 0.131668 -0.3178742 0.1601541
v 2.810485E-07 -0.3356945 0.1919352
v -0.1291988 -0.3119144 0.2247054
v -0.2494835 -0.2494839 0.2800685
v 0.3620643 -0.1499717 0.04057548
v 0.3918955 2.10688E-07 0.04057548
v 0.2714112 -0.2714109 0.08115098
v 2.861981E-07 -0.3440646 0.1601541
v -0.1284644 -0.3101413 0.1919352
v -0.2387286 -0.2387291 0.2247054
v -0.325966 -0.1350199 0.2800685
v 0.344674 -0.1427684 0.01087216
v 0.3730724 2.354414E-07 0.01087216
v 0.2638022 -0.2638018 0.01087216
v 0.2771121 -0.2771118 0.04057548
v 0.1427689 -0.3446739 0.01087216
v 0.1499722 -0.3620641 0.04057548
v 2.473158E-07 -0.3730724 0.01087216
v 0.1468868 -0.3546155 0.08115098
v 2.709912E-07 -0.3918955 0.04057548
v -0.1427684 -0.3446741 0.01087216
v 2.815416E-07 -0.3838331 0.08115098
v -0.1499717 -0.3620644 0.04057548
v -0.2638018 -0.2638022 0.01087216
v -0.1316675 -0.3178743 0.1601541
v -0.1468863 -0.3546157 0.08115097
v -0.2771117 -0.2771121 0.04057547
v -0.3446738 -0.1427689 0.01087216
v -0.2432901 -0.2432906 0.1601541
v -0.2714108 -0.2714112 0.08115096
v -0.362064 -0.1499722 0.04057548
v -0.3730724 -2.508083E-07 0.01087216
v -0.2373715 -0.237372 0.1919352
v -0.317874 -0.1316682 0.1601541
v -0.3546154 -0.1468869 0.08115097
v -0.3918954 -3.00095E-07 0.04057548
v -0.3446741 0.1427684 0.01087216
v -0.3101409 -0.128465 0.1919352
v -0.3440644 -4.115236E-07 0.1601541
v -0.3838331 -3.435889E-07 0.08115098
v -0.3620643 0.1499716 0.04057547
v -0.2638022 0.2638018 0.01087216
v -0.3119141 -0.1291995 0.2247054
v -0.3528232 -3.640392E-07 0.2800685
v -0.3356942 -4.222019E-07 0.1919352
v -0.3376134 -4.102899E-07 0.2247054
v -0.3259661 0.1350192 0.2800685
v -0.3178741 0.1316674 0.1601541
v -0.3546156 0.1468862 0.08115096
v -0.2771121 0.2771117 0.04057548
v -0.1427688 0.3446738 0.01087216
v -0.3119142 0.1291987 0.2247054
v -0.2494838 0.2494833 0.2800685
v -0.310141 0.1284642 0.1919352
v -0.2432904 0.2432899 0.1601541
v -0.2714111 0.2714107 0.08115097
v -0.1499721 0.362064 0.04057547
v -2.398652E-07 0.3730724 0.01087216
v -0.2387289 0.2387284 0.2247054
v -0.1350198 0.3259659 0.2800685
v -0.2373717 0.2373713 0.1919352
v -0.1316679 0.3178738 0.1601541
v -0.1468868 0.3546153 0.08115096
v -2.397918E-07 0.3918954 0.04057547
v 0.1427684 0.344674 0.01087216
v -0.1291993 0.3119139 0.2247054
v -2.299287E-07 0.352823 0.2800685
v -0.1284648 0.3101408 0.1919352
v -1.622436E-07 0.3440642 0.1601541
v -2.187332E-07 0.383833 0.08115096
v 0.1499717 0.3620642 0.04057548
v 0.2638018 0.2638022 0.01087216
v -1.738946E-07 0.3376133 0.2247054
v 0.1350194 0.325966 0.2800685
v -1.56542E-07 0.3356941 0.1919352
v 0.1316676 0.317874 0.1601541
v 0.1468864 0.3546155 0.08115097
v 0.2771117 0.2771121 0.04057548
v 0.3446738 0.1427688 0.01087216
v 0.1291989 0.311914 0.2247054
v 0.2494835 0.2494837 0.2800685
v 0.1284645 0.3101409 0.1919352
v 0.2432902 0.2432902 0.1601541
v 0.2714108 0.2714111 0.08115097
v 0.362064 0.1499721 0.04057548
v 0.3730724 2.354414E-07 0.01087216
v 0.3918955 2.10688E-07 0.04057548
v 0.3546154 0.1468867 0.08115097
v 0.3838331 1.566858E-07 0.08115097
v 0.3440645 3.691807E-08 0.1601541
v 0.3178741 0.1316678 0.1601541
v 0.2373715 0.2373716 0.1919352
v 0.310141 0.1284647 0.1919352
v 0.3356943 1.53304E-08 0.1919352
v 0.2387287 0.2387287 0.2247054
v 0.325966 0.1350197 0.2800685
v 0.3119142 0.1291991 0.2247054
v 0.3376135 2.974383E-08 0.2247054
v 0.3528232 9.581832E-08 0.2800685
v 0.3633533 -0.0530136 0.1897054
v 0.3271199 -0.0533853 0.1723375
v 0.3309043 -0.06028383 0.1605443
v 0.3686571 -0.06009793 0.1786405
v 0.3698619 -0.0514481 0.1928251
v 0.3278657 -0.07408091 0.1590877
v 0.3783599 -0.0575833 0.1832913
v 0.3747928 -0.04648347 0.1951885
v 0.3686571 -0.07426661 0.1786405
v 0.3210425 -0.08097943 0.1694244
v 0.3856291 -0.05002563 0.1867755
v 0.3768245 -0.03944998 0.1961623
v 0.3847483 -0.06985373 0.1863534
v 0.3633533 -0.08135094 0.1897054
v 0.317258 -0.07408091 0.1812176
v 0.3580495 -0.07426661 0.2007703
v 0.3202967 -0.06028385 0.1826741
v 0.3826386 -0.07598894 0.1989494
v 0.396694 -0.05710995 0.1920793
v 0.3885167 -0.03944998 0.1881595
v 0.3580495 -0.06009794 0.2007703
v 0.3271199 -0.0533853 0.1723375
v 0.3633533 -0.0530136 0.1897054
v 0.3741407 -0.06985375 0.2084833
v 0.3677523 -0.05758332 0.2054211
v 0.3698619 -0.0514481 0.1928251
v 0.3969227 -0.06065212 0.2057961
v 0.3750214 -0.05002564 0.2089054
v 0.3747928 -0.04648347 0.1951885
v 0.3860864 -0.05710996 0.2142092
v 0.4012934 -0.03944997 0.1942838
v 0.377909 -0.03944998 0.2102894
v 0.3768245 -0.03944998 0.1961623
v 0.3768244 0.05530791 0.1961623
v 0.4023779 -0.03944997 0.2084109
v 0.3906858 -0.03944998 0.2164137
v 0.377909 0.05530791 0.2102894
v 0.3747927 0.06234139 0.1951885
v 0.3906857 0.05530791 0.2164137
v 0.3750213 0.06588355 0.2089054
v 0.3698618 0.06730601 0.1928251
v 0.4023778 0.05530792 0.2084109
v 0.3677522 0.07344122 0.2054211
v 0.3633531 0.06887151 0.1897054
v 0.3860863 0.07296789 0.2142092
v 0.4012933 0.05530792 0.1942838
v 0.3580493 0.07595585 0.2007703
v 0.3271197 0.06924315 0.1723375
v 0.3202966 0.07614169 0.1826741
v 0.3969226 0.07651006 0.2057961
v 0.3741405 0.08571165 0.2084833
v 0.3580493 0.09012451 0.2007703
v 0.3172579 0.08993875 0.1812176
v 0.3885166 0.05530791 0.1881595
v 0.3768244 0.05530791 0.1961623
v 0.3966939 0.07296789 0.1920793
v 0.3826385 0.09184688 0.1989494
v 0.3633531 0.09720884 0.1897054
v 0.3210424 0.09683728 0.1694244
v 0.385629 0.06588356 0.1867755
v 0.3747927 0.06234139 0.1951885
v 0.3847481 0.08571167 0.1863534
v 0.3686569 0.09012451 0.1786405
v 0.3278655 0.08993875 0.1590877
v 0.3783598 0.07344123 0.1832912
v 0.3698618 0.06730601 0.1928251
v 0.368657 0.07595584 0.1786405
v 0.3309042 0.07614169 0.1605443
v 0.3633531 0.06887151 0.1897054
v 0.3271197 0.06924315 0.1723375
v -0.3633531 -0.05301408 0.1897054
v -0.3309043 -0.06028427 0.1605443
v -0.3271197 -0.05338573 0.1723375
v -0.368657 -0.06009841 0.1786405
v -0.3698618 -0.05144858 0.1928251
v -0.3278655 -0.07408133 0.1590877
v -0.3783597 -0.05758379 0.1832913
v -0.3747926 -0.04648396 0.1951885
v -0.368657 -0.07426708 0.1786405
v -0.3210424 -0.08097986 0.1694244
v -0.3856289 -0.05002613 0.1867755
v -0.3768245 -0.03945048 0.1961623
v -0.3847481 -0.06985424 0.1863534
v -0.3633531 -0.08135141 0.1897054
v -0.3172579 -0.07408133 0.1812176
v -0.3580493 -0.07426708 0.2007703
v -0.3202966 -0.06028427 0.1826742
v -0.3826386 -0.07598945 0.1989494
v -0.3966939 -0.05711047 0.1920792
v -0.3885167 -0.03945049 0.1881595
v -0.3580493 -0.06009841 0.2007703
v -0.3271197 -0.05338573 0.1723375
v -0.3633531 -0.05301408 0.1897054
v -0.3741405 -0.06985422 0.2084833
v -0.3677521 -0.05758379 0.2054211
v -0.3698618 -0.05144858 0.1928251
v -0.3969225 -0.06065264 0.2057961
v -0.3750213 -0.05002613 0.2089054
v -0.3747926 -0.04648396 0.1951885
v -0.3860863 -0.05711047 0.2142092
v -0.4012934 -0.03945049 0.1942838
v -0.377909 -0.03945048 0.2102894
v -0.3768245 -0.03945048 0.1961623
v -0.3768246 0.05530741 0.1961623
v -0.4023779 -0.03945049 0.2084109
v -0.3906857 -0.03945049 0.2164137
v -0.3779091 0.05530741 0.2102894
v -0.3747927 0.0623409 0.1951885
v -0.3906858 0.05530741 0.2164137
v -0.3750214 0.06588307 0.2089054
v -0.3698619 0.06730554 0.1928251
v -0.4023779 0.0553074 0.2084109
v -0.3677523 0.07344075 0.2054211
v -0.3633533 0.06887103 0.1897054
v -0.3860864 0.07296739 0.2142092
v -0.4012934 0.0553074 0.1942838
v -0.3580495 0.07595537 0.2007703
v -0.3271199 0.06924273 0.1723375
v -0.3202967 0.07614127 0.1826741
v -0.3969226 0.07650956 0.2057961
v -0.3741407 0.08571117 0.2084833
v -0.3580495 0.09012403 0.2007703
v -0.317258 0.08993832 0.1812176
v -0.3885168 0.05530741 0.1881595
v -0.3768246 0.05530741 0.1961623
v -0.396694 0.07296739 0.1920793
v -0.3826386 0.09184637 0.1989494
v -0.3633533 0.09720837 0.1897054
v -0.3210425 0.09683685 0.1694244
v -0.385629 0.06588306 0.1867755
v -0.3747927 0.0623409 0.1951885
v -0.3847483 0.08571115 0.1863534
v -0.3686571 0.09012403 0.1786405
v -0.3278657 0.08993832 0.1590877
v -0.3783599 0.07344072 0.1832913
v -0.3698619 0.06730554 0.1928251
v -0.3686571 0.07595536 0.1786405
v -0.3309044 0.07614126 0.1605443
v -0.3633533 0.06887103 0.1897054
v -0.3271199 0.06924273 0.1723375
v 0.1301009 -0.3140907 0.02488475
v 0.114399 -0.2761832 0.01384267
v 0.2113817 -0.2113814 0.01384267
v 1.513431E-09 -4.889444E-08 0.01384266
v 0.2403948 -0.2403945 0.02488475
v 2.266744E-07 -0.3399694 0.02488475
v 0.2761833 -0.1143987 0.01384267
v 0.3140908 -0.1301005 0.02488475
v 1.948132E-07 -0.2989387 0.01384267
v -0.1301004 -0.3140908 0.02488475
v 0.2989387 1.463844E-07 0.01384267
v 0.3399694 1.591535E-07 0.02488475
v -0.1143987 -0.2761833 0.01384267
v -0.2403945 -0.2403948 0.02488475
v 0.2761832 0.114399 0.01384267
v 0.3140906 0.1301008 0.02488475
v -0.2113814 -0.2113817 0.01384267
v 0.2113814 0.2113816 0.01384267
v -0.2761832 -0.1143991 0.01384267
v -0.3140907 -0.1301009 0.02488475
v 0.2403945 0.2403947 0.02488475
v -0.3399694 -2.858134E-07 0.02488475
v 0.1143987 0.2761832 0.01384267
v 0.1301004 0.3140907 0.02488475
v -0.2989387 -2.469672E-07 0.01384267
v -0.3140908 0.1301004 0.02488475
v -1.910878E-07 0.2989386 0.01384267
v -2.145672E-07 0.3399693 0.02488475
v -0.2761833 0.1143986 0.01384267
v -0.2403948 0.2403944 0.02488475
v -0.114399 0.2761831 0.01384267
v -0.1301009 0.3140906 0.02488475
v -0.2113817 0.2113813 0.01384267
v 0.2638022 -0.2638018 0.01087216
v 0.127207 -0.3071045 -1.490116E-08
v 0.1427689 -0.3446739 0.01087216
v 0.2350477 -0.2350474 -1.490116E-08
v 1.804438E-09 -9.313214E-10 0
v 0.344674 -0.1427684 0.01087216
v 2.166243E-07 -0.3324075 -1.490116E-08
v 2.473158E-07 -0.3730724 0.01087216
v 0.3071045 -0.1272066 -1.490116E-08
v 0.3730724 2.354414E-07 0.01087216
v -0.1272066 -0.3071046 -1.490116E-08
v -0.1427684 -0.3446741 0.01087216
v 0.3324075 2.240748E-07 -1.490116E-08
v 0.3446738 0.1427688 0.01087216
v -0.2350474 -0.2350478 -1.490116E-08
v -0.2638018 -0.2638022 0.01087216
v 0.3071044 0.127207 -1.490116E-08
v -0.3071044 -0.127207 -1.490116E-08
v 0.2350474 0.2350478 -1.490116E-08
v 0.2638018 0.2638022 0.01087216
v -0.3446738 -0.1427689 0.01087216
v 0.1427684 0.344674 0.01087216
v -0.3324075 -2.091737E-07 -1.490116E-08
v -0.3730724 -2.508083E-07 0.01087216
v 0.1272066 0.3071045 -1.490116E-08
v -2.398652E-07 0.3730724 0.01087216
v -0.3071045 0.1272066 -1.490116E-08
v -0.3446741 0.1427684 0.01087216
v -2.184869E-07 0.3324075 -1.490116E-08
v -0.1427688 0.3446738 0.01087216
v -0.2350477 0.2350474 -1.490116E-08
v -0.2638022 0.2638018 0.01087216
v -0.127207 0.3071044 -1.490116E-08
v 0.2363989 -0.2363987 0.2800685
v 0.1350198 -0.3259662 0.2800685
v 0.1279383 -0.30887 0.2800685
v 0.2494838 -0.2494836 0.2800685
v 2.299289E-07 -0.3528233 0.2800685
v 0.3088699 -0.127938 0.2800685
v 2.178696E-07 -0.3343185 0.2800685
v 0.3259661 -0.1350195 0.2800685
v -0.1350194 -0.3259663 0.2800685
v 0.3343183 8.375905E-08 0.2800685
v -0.1279379 -0.3088701 0.2800685
v 0.3528232 9.581832E-08 0.2800685
v -0.2494835 -0.2494839 0.2800685
v 0.3088698 0.1279382 0.2800685
v -0.2363986 -0.2363991 0.2800685
v 0.325966 0.1350197 0.2800685
v -0.325966 -0.1350199 0.2800685
v 0.2363986 0.2363988 0.2800685
v -0.3088698 -0.1279384 0.2800685
v 0.2494835 0.2494837 0.2800685
v -0.3528232 -3.640392E-07 0.2800685
v 0.1279379 0.3088698 0.2800685
v -0.3343183 -3.5198E-07 0.2800685
v 0.1350194 0.325966 0.2800685
v -0.3259661 0.1350192 0.2800685
v -2.178694E-07 0.3343182 0.2800685
v -0.3088699 0.1279378 0.2800685
v -2.299287E-07 0.352823 0.2800685
v -0.2494838 0.2494833 0.2800685
v -0.1279383 0.3088697 0.2800685
v -0.2363989 0.2363985 0.2800685
v -0.1350198 0.3259659 0.2800685
vt 0.03811992 0.152937
vt 0.003908401 0.139085
vt 0.0039084 0.152937
vt 0.03811992 0.139085
vt 0.07233144 0.152937
vt 0.003908402 0.1305018
vt 0.07233144 0.139085
vt 0.106543 0.152937
vt 0.03811992 0.1305018
vt 0.003908402 0.1219131
vt 0.106543 0.139085
vt 0.1407545 0.152937
vt 0.03811992 0.1219131
vt 0.003908404 0.1018972
vt 0.07233144 0.1305018
vt 0.1407546 0.139085
vt 0.1749661 0.152937
vt 0.03811992 0.1018972
vt 0.003908405 0.09094512
vt 0.106543 0.1305019
vt 0.07233144 0.1219131
vt 0.1749661 0.139085
vt 0.2091776 0.152937
vt 0.03811992 0.09094512
vt 0.003908406 0.08147591
vt 0.03811992 0.08147591
vt 0.07233144 0.1018972
vt 0.07233144 0.09094512
vt 0.07233144 0.08147591
vt 0.106543 0.1219131
vt 0.1407546 0.1305019
vt 0.2091775 0.139085
vt 0.2433891 0.152937
vt 0.106543 0.1018972
vt 0.106543 0.09094512
vt 0.106543 0.08147592
vt 0.1749661 0.1305019
vt 0.1407546 0.1219131
vt 0.2433891 0.139085
vt 0.2776006 0.152937
vt 0.1407546 0.1018972
vt 0.1407546 0.09094512
vt 0.1407545 0.08147592
vt 0.1749661 0.1219131
vt 0.2091775 0.1305019
vt 0.2776006 0.139085
vt 0.3118122 0.152937
vt 0.1749661 0.1018972
vt 0.1749661 0.09094513
vt 0.1749661 0.08147593
vt 0.2433891 0.1305019
vt 0.2091775 0.1219131
vt 0.3118121 0.139085
vt 0.3460237 0.152937
vt 0.2091775 0.1018972
vt 0.2091775 0.09094515
vt 0.2091776 0.08147595
vt 0.2776006 0.1305019
vt 0.2433891 0.1219131
vt 0.3460237 0.139085
vt 0.3802352 0.152937
vt 0.2433891 0.1018972
vt 0.2433891 0.09094515
vt 0.2433891 0.08147595
vt 0.3118121 0.1305019
vt 0.2776006 0.1219131
vt 0.3802352 0.139085
vt 0.4144467 0.152937
vt 0.2776006 0.1018972
vt 0.2776006 0.09094515
vt 0.2776006 0.08147596
vt 0.3460237 0.1305019
vt 0.3118121 0.1219131
vt 0.4144467 0.139085
vt 0.4486583 0.152937
vt 0.3118122 0.1018972
vt 0.3118122 0.09094515
vt 0.3118122 0.08147596
vt 0.3802352 0.1305019
vt 0.3460237 0.1219131
vt 0.4486583 0.139085
vt 0.4828698 0.152937
vt 0.3460237 0.1018972
vt 0.3460237 0.09094516
vt 0.3460237 0.08147597
vt 0.4144467 0.1305019
vt 0.3802352 0.1219131
vt 0.4828698 0.139085
vt 0.5170814 0.152937
vt 0.3802353 0.1018972
vt 0.3802353 0.09094516
vt 0.3802353 0.08147597
vt 0.4144467 0.1219131
vt 0.4486583 0.1305019
vt 0.5170814 0.139085
vt 0.5512929 0.152937
vt 0.5512929 0.139085
vt 0.4144468 0.1018972
vt 0.4144468 0.09094516
vt 0.4144468 0.08147597
vt 0.4828698 0.1305019
vt 0.5170814 0.1305019
vt 0.5512929 0.1305019
vt 0.4486583 0.1219131
vt 0.4486583 0.1018972
vt 0.4486583 0.09094517
vt 0.4486583 0.08147597
vt 0.4828698 0.1219131
vt 0.5170814 0.1219131
vt 0.5512929 0.1219131
vt 0.4828698 0.1018972
vt 0.4828698 0.09094517
vt 0.4828698 0.08147597
vt 0.5170814 0.1018972
vt 0.5512929 0.1018973
vt 0.5170814 0.09094518
vt 0.5170814 0.08147598
vt 0.5512929 0.09094519
vt 0.5512929 0.08147599
vt 0.003908043 0.01896253
vt 0.0407261 0.003907401
vt 0.003908044 0.003907398
vt 0.0407261 0.01896254
vt 0.07754419 0.003907404
vt 0.0407261 0.02757034
vt 0.003908042 0.02757033
vt 0.07754419 0.01896254
vt 0.1143623 0.003907408
vt 0.0407261 0.03618808
vt 0.003908041 0.03618807
vt 0.003908039 0.05938091
vt 0.07754419 0.02757034
vt 0.1143623 0.01896254
vt 0.1511804 0.003907411
vt 0.07754418 0.03618808
vt 0.0407261 0.05938092
vt 0.1143623 0.02757035
vt 0.1511804 0.01896255
vt 0.1879984 0.003907422
vt 0.1143623 0.03618809
vt 0.1511804 0.02757035
vt 0.1879984 0.01896256
vt 0.2248165 0.003907425
vt 0.0407261 0.07022867
vt 0.003908038 0.07022867
vt 0.07754418 0.05938092
vt 0.1511804 0.03618809
vt 0.1879984 0.02757035
vt 0.2248165 0.01896256
vt 0.2616346 0.003907428
vt 0.0407261 0.07944968
vt 0.003908037 0.07944968
vt 0.07754418 0.07944968
vt 0.07754418 0.07022867
vt 0.1143623 0.07944969
vt 0.1143623 0.07022867
vt 0.1511804 0.0794497
vt 0.1143623 0.05938092
vt 0.1511804 0.07022868
vt 0.1879984 0.0794497
vt 0.1511804 0.05938093
vt 0.1879984 0.07022869
vt 0.2248165 0.07944971
vt 0.1879984 0.03618809
vt 0.1879984 0.05938093
vt 0.2248165 0.0702287
vt 0.2616346 0.07944971
vt 0.2248165 0.0361881
vt 0.2248165 0.05938094
vt 0.2616346 0.0702287
vt 0.2984527 0.07944972
vt 0.2248165 0.02757036
vt 0.2616346 0.0361881
vt 0.2616346 0.05938094
vt 0.2984527 0.0702287
vt 0.3352708 0.07944972
vt 0.2616346 0.02757037
vt 0.2984527 0.03618811
vt 0.2984527 0.05938095
vt 0.3352708 0.0702287
vt 0.3720888 0.07944973
vt 0.2616346 0.01896257
vt 0.2984527 0.003907431
vt 0.2984527 0.02757037
vt 0.2984527 0.01896257
vt 0.3352708 0.003907434
vt 0.3352708 0.03618811
vt 0.3352708 0.05938095
vt 0.3720888 0.07022871
vt 0.4089069 0.07944973
vt 0.3352708 0.01896257
vt 0.3720888 0.003907437
vt 0.3352708 0.02757038
vt 0.3720888 0.03618811
vt 0.3720888 0.05938096
vt 0.4089068 0.07022872
vt 0.445725 0.07944974
vt 0.3720888 0.01896259
vt 0.4089069 0.003907441
vt 0.3720888 0.02757038
vt 0.4089068 0.03618812
vt 0.4089068 0.05938096
vt 0.4457249 0.07022872
vt 0.482543 0.07944974
vt 0.4089068 0.01896259
vt 0.445725 0.003907444
vt 0.4089068 0.02757038
vt 0.4457249 0.03618812
vt 0.4457249 0.05938097
vt 0.482543 0.07022873
vt 0.5193611 0.07944974
vt 0.4457249 0.01896259
vt 0.482543 0.003907447
vt 0.4457249 0.02757039
vt 0.482543 0.03618813
vt 0.482543 0.05938097
vt 0.5193611 0.07022873
vt 0.5561792 0.07944975
vt 0.482543 0.0189626
vt 0.5193611 0.003907465
vt 0.482543 0.0275704
vt 0.5193611 0.03618814
vt 0.5193611 0.05938098
vt 0.5561792 0.07022873
vt 0.5929973 0.07944975
vt 0.5929973 0.07022874
vt 0.5561792 0.05938098
vt 0.5929973 0.05938099
vt 0.5929973 0.03618815
vt 0.5561792 0.03618814
vt 0.5193611 0.0275704
vt 0.5561792 0.0275704
vt 0.5929973 0.02757041
vt 0.5193611 0.0189626
vt 0.5561792 0.003907469
vt 0.5561792 0.01896261
vt 0.5929973 0.01896261
vt 0.5929973 0.003907472
vt 0.854423 0.02613804
vt 0.8659358 0.02613804
vt 0.8659358 0.02243306
vt 0.854423 0.02243303
vt 0.8504384 0.02613805
vt 0.8659358 0.01872678
vt 0.8504384 0.02243303
vt 0.8467276 0.02613805
vt 0.854423 0.01872675
vt 0.8659358 0.01502177
vt 0.8467276 0.02243302
vt 0.8430169 0.02613805
vt 0.8504384 0.01872675
vt 0.854423 0.01502174
vt 0.8659358 0.01131678
vt 0.854423 0.01131674
vt 0.8659358 0.007610409
vt 0.8504384 0.01502174
vt 0.8467276 0.01872675
vt 0.8430169 0.02243302
vt 0.854423 0.007610438
vt 0.8659358 0.003905429
vt 0.854423 0.003905428
vt 0.8504384 0.01131674
vt 0.8504384 0.007610437
vt 0.8504384 0.003905413
vt 0.8467276 0.01502174
vt 0.8467276 0.007610437
vt 0.8467276 0.003905413
vt 0.8467276 0.01131674
vt 0.8430169 0.01872675
vt 0.8430169 0.007610437
vt 0.8430169 0.003905427
vt 0.8182414 0.00390541
vt 0.8430169 0.01502177
vt 0.8430169 0.01131674
vt 0.8182414 0.007610435
vt 0.8145306 0.00390541
vt 0.8182414 0.01131674
vt 0.8145306 0.007610435
vt 0.8108199 0.003905409
vt 0.8182414 0.01502177
vt 0.8108198 0.007610434
vt 0.8068352 0.003905424
vt 0.8145306 0.01131674
vt 0.8182414 0.01872675
vt 0.8068352 0.007610434
vt 0.7953224 0.003905423
vt 0.7953224 0.007610403
vt 0.8145306 0.01502174
vt 0.8108198 0.01131674
vt 0.8068352 0.01131674
vt 0.7953224 0.01131677
vt 0.8182414 0.02243302
vt 0.8182414 0.02613804
vt 0.8145306 0.01872675
vt 0.8108198 0.01502174
vt 0.8068352 0.01502173
vt 0.7953224 0.01502176
vt 0.8145306 0.02243302
vt 0.8145306 0.02613805
vt 0.8108198 0.01872675
vt 0.8068352 0.01872675
vt 0.7953224 0.01872677
vt 0.8108198 0.02243302
vt 0.8108199 0.02613805
vt 0.8068352 0.02243302
vt 0.7953224 0.02243305
vt 0.8068352 0.02613804
vt 0.7953224 0.02613804
vt 1.854423 0.02613804
vt 1.865936 0.02243306
vt 1.865936 0.02613804
vt 1.854423 0.02243303
vt 1.850438 0.02613805
vt 1.865936 0.01872678
vt 1.850438 0.02243303
vt 1.846728 0.02613805
vt 1.854423 0.01872675
vt 1.865936 0.01502177
vt 1.846728 0.02243302
vt 1.843017 0.02613805
vt 1.850438 0.01872675
vt 1.854423 0.01502174
vt 1.865936 0.01131678
vt 1.854423 0.01131674
vt 1.865936 0.007610409
vt 1.850438 0.01502174
vt 1.846728 0.01872675
vt 1.843017 0.02243302
vt 1.854423 0.007610438
vt 1.865936 0.003905429
vt 1.854423 0.003905428
vt 1.850438 0.01131674
vt 1.850438 0.007610437
vt 1.850438 0.003905413
vt 1.846728 0.01502174
vt 1.846728 0.007610437
vt 1.846728 0.003905413
vt 1.846728 0.01131674
vt 1.843017 0.01872675
vt 1.843017 0.007610437
vt 1.843017 0.003905427
vt 1.818241 0.00390541
vt 1.843017 0.01502177
vt 1.843017 0.01131674
vt 1.818241 0.007610435
vt 1.814531 0.00390541
vt 1.818241 0.01131674
vt 1.814531 0.007610435
vt 1.81082 0.003905409
vt 1.818241 0.01502177
vt 1.81082 0.007610434
vt 1.806835 0.003905424
vt 1.814531 0.01131674
vt 1.818241 0.01872675
vt 1.806835 0.007610434
vt 1.795322 0.003905423
vt 1.795322 0.007610403
vt 1.814531 0.01502174
vt 1.81082 0.01131674
vt 1.806835 0.01131674
vt 1.795322 0.01131677
vt 1.818241 0.02243302
vt 1.818241 0.02613804
vt 1.814531 0.01872675
vt 1.81082 0.01502174
vt 1.806835 0.01502173
vt 1.795322 0.01502176
vt 1.814531 0.02243302
vt 1.814531 0.02613805
vt 1.81082 0.01872675
vt 1.806835 0.01872675
vt 1.795322 0.01872677
vt 1.81082 0.02243302
vt 1.81082 0.02613805
vt 1.806835 0.02243302
vt 1.795322 0.02243305
vt 1.806835 0.02613804
vt 1.795322 0.02613804
vt 0.6693202 0.3358582
vt 0.6755276 0.326546
vt 0.6538973 0.3049088
vt 0.719101 0.2613562
vt 0.6445988 0.3111368
vt 0.7016203 0.3492373
vt 0.6421938 0.2766413
vt 0.6312197 0.2788368
vt 0.7037915 0.3382586
vt 0.7365816 0.3492373
vt 0.6421986 0.2460466
vt 0.6312197 0.2438754
vt 0.7343861 0.3382634
vt 0.7688817 0.3358582
vt 0.6539112 0.2177828
vt 0.6445988 0.2115754
vt 0.7626538 0.3265597
vt 0.6755482 0.1961525
vt 0.7842909 0.3049294
vt 0.793603 0.3111369
vt 0.6693203 0.186854
vt 0.8069822 0.2788368
vt 0.7038158 0.1844489
vt 0.7016203 0.173475
vt 0.7960033 0.2766656
vt 0.8069822 0.2438755
vt 0.7344105 0.1844537
vt 0.7365816 0.1734749
vt 0.7960082 0.246071
vt 0.7936031 0.2115755
vt 0.7626743 0.1961663
vt 0.7688817 0.186854
vt 0.7843046 0.2178034
vt 0.8032818 0.3175535
vt 0.8271814 0.2882734
vt 0.8179578 0.2821236
vt 0.8141568 0.3197052
vt 0.8996786 0.3367291
vt 0.8032814 0.3559026
vt 0.8512431 0.2642183
vt 0.845075 0.2550069
vt 0.814152 0.3537289
vt 0.8179567 0.3913326
vt 0.8826787 0.2512023
vt 0.880505 0.2403317
vt 0.827168 0.3851645
vt 0.8450733 0.4184498
vt 0.9167023 0.2512071
vt 0.9188541 0.2403321
vt 0.851223 0.4092262
vt 0.9481343 0.2642317
vt 0.882655 0.4222508
vt 0.8805031 0.4331258
vt 0.954284 0.255008
vt 0.9188523 0.4331261
vt 0.9721894 0.2882933
vt 0.9814007 0.2821252
vt 0.9166787 0.4222555
vt 0.9542824 0.4184509
vt 0.9852052 0.3197289
vt 0.9960759 0.3175552
vt 0.9481142 0.4092396
vt 0.9813995 0.3913342
vt 0.9852006 0.3537525
vt 0.9960755 0.3559044
vt 0.9721759 0.3851846
vt 0.2536963 0.6499329
vt 0.2888808 0.6546965
vt 0.2879333 0.6499329
vt 0.2527488 0.6546965
vt 0.3222625 0.6408694
vt 0.2220654 0.6368311
vt 0.3195642 0.6368311
vt 0.2193671 0.6408694
vt 0.3478117 0.6153202
vt 0.1978561 0.6126219
vt 0.3437734 0.6126219
vt 0.1938179 0.6153202
vt 0.3616389 0.5819384
vt 0.1847542 0.5809909
vt 0.3568753 0.5809909
vt 0.1799906 0.5819384
vt 0.3616389 0.5458064
vt 0.1847542 0.5467539
vt 0.3568753 0.5467539
vt 0.1799906 0.5458064
vt 0.3478117 0.5124247
vt 0.1978561 0.5151231
vt 0.3437734 0.5151231
vt 0.1938179 0.5124247
vt 0.3222625 0.4868755
vt 0.2220654 0.4909137
vt 0.3195642 0.4909137
vt 0.2193671 0.4868755
vt 0.2888809 0.4730483
vt 0.2536963 0.4778119
vt 0.2879333 0.4778119
vt 0.2527488 0.4730483
vn -0.8758609 0.3627929 0.3181967
vn -0.9761138 -4.652436E-07 0.2172599
vn -0.9480246 -5.729091E-07 0.3181972
vn -0.9018118 0.3735422 0.2172595
vn -0.6703552 0.6703541 0.3181967
vn -0.998429 -3.889404E-07 -0.05603034
vn -0.6902173 0.6902162 0.2172596
vn -0.362794 0.8758603 0.3181969
vn -0.9224284 0.3820818 -0.05603037
vn -0.9460296 -3.402982E-07 -0.3240803
vn -0.3735433 0.9018113 0.2172597
vn -3.718884E-07 0.9480245 0.3181973
vn -0.8740177 0.3620295 -0.32408
vn -0.9575745 -5.49662E-07 -0.2881857
vn -0.7059966 0.7059954 -0.05603043
vn -4.844291E-07 0.9761138 0.2172598
vn 0.3627929 0.8758606 0.3181975
vn -0.8846838 0.3664474 -0.2881856
vn -0.9798096 -6.819561E-07 0.1999328
vn -0.382083 0.9224279 -0.05603032
vn -0.6689447 0.6689433 -0.32408
vn 0.3735421 0.9018118 0.2172597
vn 0.6703541 0.6703548 0.3181977
vn -0.9052263 0.3749564 0.199933
vn -0.6136934 -4.462248E-07 0.7895445
vn -0.5669786 0.2348498 0.7895446
vn -0.677108 0.677107 -0.2881851
vn -0.6928306 0.6928294 0.1999331
vn -0.4339471 0.4339463 0.7895445
vn -0.3620305 0.8740173 -0.32408
vn -5.666045E-07 0.998429 -0.05603052
vn 0.6902161 0.6902171 0.2172603
vn 0.8758599 0.3627937 0.3181983
vn -0.3664487 0.8846835 -0.2881848
vn -0.3749577 0.9052257 0.1999332
vn -0.2348507 0.5669786 0.7895443
vn 0.3820816 0.9224284 -0.05603064
vn -5.320154E-07 0.9460297 -0.32408
vn 0.901811 0.3735431 0.2172612
vn 0.9480241 3.819395E-07 0.3181986
vn -6.04133E-07 0.9575747 -0.2881853
vn -7.279611E-07 0.9798095 0.1999334
vn -4.107893E-07 0.6136929 0.7895448
vn 0.3620293 0.8740177 -0.3240801
vn 0.7059954 0.7059966 -0.05603015
vn 0.9761134 5.371886E-07 0.2172617
vn 0.8758601 -0.3627926 0.3181989
vn 0.3664474 0.8846837 -0.2881857
vn 0.3749563 0.9052262 0.1999332
vn 0.2348498 0.5669783 0.7895449
vn 0.922428 0.3820828 -0.05602992
vn 0.6689433 0.6689445 -0.3240802
vn 0.9018114 -0.3735418 0.2172617
vn 0.6703545 -0.6703537 0.3181994
vn 0.677107 0.6771079 -0.2881857
vn 0.6928295 0.6928306 0.1999328
vn 0.4339464 0.4339469 0.7895446
vn 0.998429 4.897768E-07 -0.05602992
vn 0.8740169 0.3620304 -0.3240807
vn 0.690217 -0.6902158 0.2172617
vn 0.3627937 -0.8758596 0.3181993
vn 0.8846833 0.3664485 -0.288186
vn 0.9052258 0.3749576 0.1999324
vn 0.5669788 0.2348507 0.7895443
vn 0.9224285 -0.3820815 -0.05602996
vn 0.9460292 4.888789E-07 -0.3240811
vn 0.3735431 -0.9018111 0.2172612
vn 5.327051E-07 -0.9480239 0.3181992
vn 0.9575742 6.189887E-07 -0.2881867
vn 0.9798098 6.440696E-07 0.1999319
vn 0.6136934 3.097326E-07 0.7895443
vn 0.7059966 -0.7059954 -0.05602989
vn 0.8740173 -0.3620291 -0.3240812
vn 4.316694E-07 -0.9761136 0.2172611
vn -0.3627924 -0.8758602 0.3181988
vn 0.8846833 -0.3664473 -0.2881872
vn 0.9052265 -0.3749565 0.1999316
vn 0.5669789 -0.2348501 0.7895445
vn 0.3820829 -0.9224279 -0.05603
vn 0.6689444 -0.6689432 -0.3240809
vn -0.3735421 -0.9018116 0.2172607
vn -0.6703537 -0.6703551 0.3181981
vn 0.6771076 -0.6771066 -0.2881871
vn 0.6928307 -0.6928298 0.1999314
vn 0.4339472 -0.4339466 0.7895442
vn 4.417595E-07 -0.998429 -0.05603059
vn 0.3620304 -0.874017 -0.3240806
vn -0.6902161 -0.690217 0.2172605
vn -0.87586 -0.362794 0.3181976
vn 0.3664485 -0.8846828 -0.288187
vn 0.3749578 -0.9052261 0.1999311
vn 0.234851 -0.5669793 0.7895439
vn 4.21778E-07 -0.9460294 -0.3240811
vn -0.3820819 -0.9224284 -0.05603078
vn -0.9018112 -0.3735431 0.2172604
vn -0.9480246 -5.729091E-07 0.3181972
vn -0.9761138 -4.652436E-07 0.2172599
vn 5.793735E-07 -0.957574 -0.2881874
vn 7.739661E-07 -0.9798099 0.1999311
vn 4.882226E-07 -0.6136936 0.7895443
vn -0.7059955 -0.7059965 -0.05603034
vn -0.9224279 -0.3820829 -0.05603024
vn -0.998429 -3.889404E-07 -0.05603034
vn -0.3620293 -0.8740174 -0.324081
vn -0.3664474 -0.8846831 -0.2881874
vn -0.3749565 -0.9052265 0.1999316
vn -0.2348499 -0.5669786 0.7895448
vn -0.6689433 -0.6689444 -0.3240807
vn -0.874017 -0.3620304 -0.3240806
vn -0.9460296 -3.402982E-07 -0.3240803
vn -0.6771069 -0.6771076 -0.2881865
vn -0.6928296 -0.6928306 0.1999321
vn -0.4339468 -0.4339469 0.7895443
vn -0.8846833 -0.3664486 -0.2881857
vn -0.9575745 -5.49662E-07 -0.2881857
vn -0.9052258 -0.3749577 0.1999325
vn -0.5669789 -0.2348509 0.7895442
vn -0.9798096 -6.819561E-07 0.1999328
vn -0.6136934 -4.462248E-07 0.7895445
vn 0.986343 3.838216E-07 -0.1647044
vn 0.8908724 -0.3690109 -0.2649098
vn 0.9642731 6.292482E-07 -0.2649102
vn 0.9112623 -0.3774566 -0.1647041
vn 0.6818447 -0.6818437 -0.2649098
vn 0.9191239 -0.3807129 0.1013356
vn 0.9948522 3.360353E-07 0.1013358
vn 0.6974504 -0.6974492 -0.1647039
vn 0.3690119 -0.8908719 -0.26491
vn 0.8624875 -0.3572534 0.3584482
vn 0.9335495 4.50423E-07 0.3584484
vn 0.9473545 6.729391E-07 0.3201865
vn 0.7034674 -0.7034662 0.1013356
vn 0.3774579 -0.9112619 -0.164704
vn 3.196181E-07 -0.9642731 -0.26491
vn 0.6601198 -0.660119 0.3584477
vn 0.8752418 -0.3625363 0.3201863
vn 0.3807142 -0.9191234 0.1013353
vn 4.36597E-07 -0.986343 -0.164704
vn -0.3690111 -0.8908722 -0.2649103
vn 0.3572547 -0.8624875 0.3584472
vn 4.65649E-07 -0.9948524 0.1013352
vn -0.3774566 -0.9112623 -0.1647042
vn -0.6818435 -0.6818443 -0.2649109
vn 0.9095405 -0.3767433 -0.1755013
vn 0.9844792 8.64891E-07 -0.175501
vn 0.6698814 -0.6698805 0.320186
vn 5.414659E-07 -0.9335499 0.3584473
vn -0.380713 -0.9191239 0.1013355
vn -0.6974491 -0.6974503 -0.1647049
vn -0.8908716 -0.3690117 -0.2649112
vn 0.5728097 -0.2372651 -0.7845982
vn 0.6200047 5.814127E-07 -0.7845982
vn 0.4384097 -0.438409 -0.7845983
vn 0.6961324 -0.6961315 -0.1755014
vn 0.2372659 -0.5728093 -0.7845982
vn 0.3767445 -0.9095399 -0.1755012
vn 4.535284E-07 -0.6200047 -0.7845982
vn 0.3625376 -0.8752413 0.3201859
vn 7.61539E-07 -0.9844791 -0.1755011
vn -0.2372651 -0.5728099 -0.7845981
vn 6.828353E-07 -0.9473547 0.320186
vn -0.3767434 -0.9095404 -0.1755013
vn -0.4384093 -0.4384095 -0.7845982
vn -0.3572536 -0.8624878 0.3584478
vn -0.3625363 -0.8752418 0.3201861
vn -0.6961316 -0.6961323 -0.1755011
vn -0.5728096 -0.2372659 -0.784598
vn -0.6601188 -0.6601198 0.3584481
vn -0.6698804 -0.6698812 0.3201863
vn -0.9095401 -0.3767446 -0.1755006
vn -0.620005 -4.403445E-07 -0.7845979
vn -0.7034661 -0.7034674 0.1013354
vn -0.862487 -0.3572546 0.3584484
vn -0.875241 -0.3625374 0.3201868
vn -0.9844794 -7.343413E-07 -0.1755
vn -0.5728102 0.2372653 -0.7845979
vn -0.9191234 -0.3807143 0.1013352
vn -0.9335494 -4.935485E-07 0.3584487
vn -0.9473543 -6.778871E-07 0.3201874
vn -0.9095407 0.3767435 -0.1754998
vn -0.4384101 0.4384097 -0.7845977
vn -0.9112616 -0.3774578 -0.1647055
vn -0.9642727 -3.495824E-07 -0.2649117
vn -0.9948524 -5.136541E-07 0.1013354
vn -0.9863428 -5.805302E-07 -0.1647057
vn -0.8908719 0.3690107 -0.2649119
vn -0.8624873 0.3572533 0.3584492
vn -0.8752413 0.3625361 0.3201878
vn -0.6961324 0.6961319 -0.1754996
vn -0.2372662 0.5728099 -0.7845977
vn -0.911262 0.3774565 -0.1647059
vn -0.6818442 0.6818432 -0.264912
vn -0.9191239 0.380713 0.1013354
vn -0.6601196 0.6601185 0.3584492
vn -0.6698809 0.6698802 0.3201877
vn -0.3767447 0.9095402 -0.1754994
vn -4.640757E-07 0.6200052 -0.7845976
vn -0.6974502 0.6974491 -0.164706
vn -0.3690117 0.8908714 -0.2649124
vn -0.7034674 0.7034662 0.1013354
vn -0.3572544 0.8624868 0.3584491
vn -0.3625374 0.8752408 0.3201877
vn -7.370611E-07 0.9844795 -0.1754996
vn 0.2372653 0.5728104 -0.7845976
vn -0.3774576 0.9112616 -0.1647059
vn -5.093914E-07 0.9642726 -0.264912
vn -0.3807142 0.9191234 0.1013357
vn -4.983402E-07 0.9335494 0.3584488
vn -6.877833E-07 0.9473541 0.3201877
vn 0.3767434 0.9095407 -0.1754999
vn 0.4384096 0.43841 -0.7845979
vn -3.982149E-07 0.9863428 -0.1647051
vn 0.3690105 0.8908721 -0.2649113
vn -3.792398E-07 0.9948522 0.1013359
vn 0.3572533 0.8624874 0.3584488
vn 0.3625362 0.8752415 0.3201875
vn 0.6961316 0.6961325 -0.1755002
vn 0.5728095 0.237266 -0.784598
vn 0.3774566 0.9112622 -0.1647047
vn 0.6818432 0.6818447 -0.2649111
vn 0.3807129 0.9191238 0.1013358
vn 0.6601185 0.6601197 0.3584489
vn 0.6698802 0.669881 0.3201872
vn 0.90954 0.3767447 -0.1755008
vn 0.6200047 5.814127E-07 -0.7845982
vn 0.9844792 8.64891E-07 -0.175501
vn 0.8752412 0.3625375 0.3201867
vn 0.9473545 6.729391E-07 0.3201865
vn 0.9335495 4.50423E-07 0.3584484
vn 0.862487 0.3572544 0.3584486
vn 0.7034662 0.7034674 0.1013357
vn 0.9191234 0.3807141 0.1013359
vn 0.9948522 3.360353E-07 0.1013358
vn 0.6974491 0.6974503 -0.164705
vn 0.8908718 0.3690121 -0.2649106
vn 0.9112619 0.3774577 -0.1647047
vn 0.986343 3.838216E-07 -0.1647044
vn 0.9642731 6.292482E-07 -0.2649102
vn -0.1070354 0.9929308 -0.05130272
vn -0.006128469 0.999977 -0.002936791
vn 0.3842641 0.4454236 -0.8086649
vn 0.33269 0.472624 -0.8160538
vn -0.4174323 0.886405 -0.2000908
vn 0.3551675 -0.5596193 -0.7487873
vn 0.2068297 0.3821255 -0.9006673
vn -0.76117 0.5361911 -0.3648552
vn 0.4254181 -0.5272925 -0.7355148
vn -0.005452048 -0.9999818 -0.002613203
vn 0.05903883 0.2295311 -0.9715091
vn -0.8905389 0.1572376 -0.4268686
vn 0.6018202 -0.4879185 -0.6322562
vn 0.1030184 -0.9934529 0.04938142
vn -0.3612701 -0.5596192 0.7458622
vn -0.3069191 -0.5272902 0.7923167
vn -0.3897241 0.4454233 0.806048
vn 0.4382112 -0.8739851 0.2100501
vn 0.7892643 -0.2878464 -0.5424079
vn -0.03149828 0.06639543 -0.997296
vn -0.4277787 0.4726242 0.770475
vn -0.006128469 0.999977 -0.002936791
vn -0.1070354 0.9929308 -0.05130272
vn -0.1159337 -0.4879136 0.8651588
vn -0.5725636 0.3821348 0.7253578
vn -0.4174323 0.886405 -0.2000908
vn 0.7735631 -0.5139169 0.3707959
vn -0.7203621 0.2295438 0.6545136
vn -0.76117 0.5361911 -0.3648552
vn 0.07150647 -0.2878377 0.9550059
vn 0.8416399 -0.07777928 -0.5344087
vn -0.7971777 0.06640109 0.6000823
vn -0.8905389 0.1572376 -0.4268686
vn -0.8905383 -0.1572404 -0.4268687
vn 0.8936907 -0.1334567 0.4283764
vn 0.1105447 -0.07777433 0.9908234
vn -0.7971771 -0.06640378 0.6000826
vn -0.7611692 -0.5361928 -0.3648545
vn 0.1105455 0.07777453 0.9908233
vn -0.7203622 -0.2295458 0.6545129
vn -0.4174317 -0.8864055 -0.2000899
vn 0.8936906 0.133458 0.4283761
vn -0.5725641 -0.3821348 0.7253575
vn -0.107034 -0.9929309 -0.05130271
vn 0.07150629 0.2878373 0.9550061
vn 0.8416399 0.0777803 -0.5344086
vn -0.427778 -0.472625 0.770475
vn -0.006127158 -0.999977 -0.002936713
vn -0.3897232 -0.4454237 0.806048
vn 0.7735631 0.5139171 0.3707954
vn -0.1159345 0.4879134 0.8651588
vn -0.3069198 0.5272901 0.7923165
vn -0.3612708 0.5596185 0.7458622
vn -0.03149821 -0.06639541 -0.997296
vn -0.8905383 -0.1572404 -0.4268687
vn 0.7892638 0.2878464 -0.5424085
vn 0.4382105 0.8739855 0.2100499
vn 0.1030173 0.993453 0.04938096
vn -0.005453201 0.9999818 -0.00261398
vn 0.05903829 -0.2295315 -0.971509
vn -0.7611692 -0.5361928 -0.3648545
vn 0.6018195 0.4879187 -0.6322569
vn 0.425417 0.5272927 -0.7355154
vn 0.3551671 0.5596189 -0.7487877
vn 0.2068296 -0.3821262 -0.900667
vn -0.4174317 -0.8864055 -0.2000899
vn 0.33269 -0.4726242 -0.8160537
vn 0.3842648 -0.4454233 -0.8086647
vn -0.107034 -0.9929309 -0.05130271
vn -0.006127158 -0.999977 -0.002936713
vn 0.1070349 0.9929308 -0.05130384
vn -0.3842644 0.4454243 -0.8086644
vn 0.006127519 0.999977 -0.00293704
vn -0.3326907 0.4726237 -0.8160537
vn 0.4174321 0.8864049 -0.2000919
vn -0.3551668 -0.55962 -0.748787
vn -0.206829 0.3821274 -0.9006667
vn 0.7611666 0.5361983 -0.3648516
vn -0.4254181 -0.5272919 -0.7355152
vn 0.005453165 -0.9999818 -0.002613514
vn -0.05903603 0.2295327 -0.9715089
vn 0.8905379 0.1572457 -0.4268677
vn -0.6018197 -0.4879182 -0.6322569
vn -0.1030172 -0.993453 0.04938142
vn 0.3612705 -0.5596188 0.7458622
vn 0.3069195 -0.5272904 0.7923164
vn 0.3897233 0.4454238 0.806048
vn -0.4382119 -0.8739849 0.2100497
vn -0.7892626 -0.2878473 -0.5424098
vn 0.0314955 0.06639548 -0.9972962
vn 0.4277791 0.4726243 0.7704748
vn 0.006127519 0.999977 -0.00293704
vn 0.1070349 0.9929308 -0.05130384
vn 0.1159335 -0.4879136 0.8651588
vn 0.5725637 0.3821341 0.7253581
vn 0.4174321 0.8864049 -0.2000919
vn -0.7735628 -0.5139176 0.3707956
vn 0.7203602 0.2295487 0.6545141
vn 0.7611666 0.5361983 -0.3648516
vn -0.0715078 -0.2878374 0.9550058
vn -0.841641 -0.07778197 -0.5344067
vn 0.7971761 0.06640642 0.6000838
vn 0.8905379 0.1572457 -0.4268677
vn 0.8905388 -0.157241 -0.4268677
vn -0.8936907 -0.1334586 0.4283756
vn -0.110546 -0.07777478 0.9908233
vn 0.7971768 -0.06640367 0.6000831
vn 0.7611688 -0.5361944 -0.3648527
vn -0.1105457 0.07777371 0.9908234
vn 0.720361 -0.2295459 0.6545141
vn 0.4174322 -0.8864052 -0.2000906
vn -0.8936904 0.1334565 0.428377
vn 0.5725648 -0.3821335 0.7253575
vn 0.1070354 -0.9929308 -0.0513026
vn -0.07150839 0.2878375 0.9550058
vn -0.8416414 0.07778014 -0.5344061
vn 0.4277798 -0.4726246 0.7704741
vn 0.006129073 -0.999977 -0.002936228
vn 0.3897233 -0.4454235 0.8060481
vn -0.7735633 0.5139169 0.3707955
vn 0.1159333 0.4879149 0.8651581
vn 0.3069195 0.5272904 0.7923163
vn 0.3612696 0.5596184 0.745863
vn 0.03149568 -0.06639497 -0.9972962
vn 0.8905388 -0.157241 -0.4268677
vn -0.7892641 0.287847 -0.5424078
vn -0.4382116 0.8739851 0.210049
vn -0.1030185 0.9934529 0.04938149
vn 0.005452432 0.9999818 -0.0026129
vn -0.05903731 -0.229532 -0.971509
vn 0.7611688 -0.5361944 -0.3648527
vn -0.6018205 0.4879182 -0.6322562
vn -0.4254187 0.527292 -0.7355149
vn -0.3551669 0.5596202 -0.7487869
vn -0.2068295 -0.3821287 -0.9006661
vn 0.4174322 -0.8864052 -0.2000906
vn -0.3326908 -0.4726241 -0.8160535
vn -0.3842638 -0.4454241 -0.8086648
vn 0.1070354 -0.9929308 -0.0513026
vn 0.006129073 -0.999977 -0.002936228
vn -0.2348507 0.5669786 0.7895443
vn -0.0562906 0.1358973 0.9891225
vn -0.1040115 0.1040113 0.9891225
vn 0 0 1
vn -0.4339471 0.4339463 0.7895445
vn -4.107893E-07 0.6136929 0.7895448
vn -0.1358975 0.05629049 0.9891225
vn -0.5669786 0.2348498 0.7895446
vn 0 0.1470943 0.9891225
vn 0.2348498 0.5669783 0.7895449
vn -0.1470944 0 0.9891225
vn -0.6136934 -4.462248E-07 0.7895445
vn 0.05629048 0.1358975 0.9891225
vn 0.4339464 0.4339469 0.7895446
vn -0.1358974 -0.05629066 0.9891225
vn -0.5669789 -0.2348509 0.7895442
vn 0.1040113 0.1040115 0.9891225
vn -0.1040113 -0.1040115 0.9891225
vn 0.1358973 0.05629063 0.9891225
vn 0.5669788 0.2348507 0.7895443
vn -0.4339468 -0.4339469 0.7895443
vn 0.6136934 3.097326E-07 0.7895443
vn -0.05629047 -0.1358974 0.9891225
vn -0.2348499 -0.5669786 0.7895448
vn 0.1470943 0 0.9891225
vn 0.5669789 -0.2348501 0.7895445
vn 0 -0.1470941 0.9891225
vn 4.882226E-07 -0.6136936 0.7895443
vn 0.1358975 -0.0562905 0.9891225
vn 0.4339472 -0.4339466 0.7895442
vn 0.05629059 -0.1358972 0.9891225
vn 0.234851 -0.5669793 0.7895439
vn 0.1040114 -0.1040113 0.9891225
vn 0.4384097 -0.438409 -0.7845983
vn 0.05594336 -0.1350589 -0.989257
vn 0.2372659 -0.5728093 -0.7845982
vn 0.1033697 -0.1033696 -0.989257
vn 0 0 -1
vn 0.5728097 -0.2372651 -0.7845982
vn 0 -0.1461867 -0.989257
vn 4.535284E-07 -0.6200047 -0.7845982
vn 0.1350589 -0.05594315 -0.989257
vn 0.6200047 5.814127E-07 -0.7845982
vn -0.05594318 -0.135059 -0.989257
vn -0.2372651 -0.5728099 -0.7845981
vn 0.1461869 1.271248E-07 -0.989257
vn 0.5728095 0.237266 -0.784598
vn -0.1033696 -0.1033698 -0.989257
vn -0.4384093 -0.4384095 -0.7845982
vn 0.1350592 0.05594346 -0.9892569
vn -0.135059 -0.05594337 -0.989257
vn 0.1033697 0.1033698 -0.989257
vn 0.4384096 0.43841 -0.7845979
vn -0.5728096 -0.2372659 -0.784598
vn 0.2372653 0.5728104 -0.7845976
vn -0.1461868 -1.067369E-07 -0.989257
vn -0.620005 -4.403445E-07 -0.7845979
vn 0.05594318 0.135059 -0.989257
vn -4.640757E-07 0.6200052 -0.7845976
vn -0.1350589 0.05594317 -0.989257
vn -0.5728102 0.2372653 -0.7845979
vn 0 0.1461869 -0.989257
vn -0.2372662 0.5728099 -0.7845977
vn -0.1033697 0.1033696 -0.989257
vn -0.4384101 0.4384097 -0.7845977
vn -0.05594339 0.135059 -0.989257
vn -3.827887E-07 0 1
vn -3.827886E-07 0 1
vn -3.827892E-07 0 1
vn -3.827891E-07 0 1
vn 0 0 1
vn 7.655784E-07 0 1
vn 0 0 1
vn 7.655784E-07 0 1
vn 0 0 1
vn 7.655786E-07 0 1
vn 0 0 1
vn 7.655784E-07 0 1
vn 0 0 1
vn 0 0 1
vn 0 0 1
vn 0 0 1
vn 0 0 1
vn 3.827891E-07 0 1
vn 0 0 1
vn 3.827886E-07 0 1
vn -7.655782E-07 0 1
vn 3.827889E-07 0 1
vn -7.655785E-07 0 1
vn 3.827889E-07 0 1
vn -7.655783E-07 0 1
vn 0 0 1
vn -7.655785E-07 0 1
vn 0 0 1
vn 0 0 1
vn 0 0 1
vn 0 0 1
vn 0 0 1
usemtl M_Pot
f 1/1/1 3/3/3 2/2/2 
f 1/1/1 2/2/2 4/4/4 
f 5/5/5 1/1/1 4/4/4 
f 6/6/6 4/4/4 2/2/2 
f 5/5/5 4/4/4 7/7/7 
f 8/8/8 5/5/5 7/7/7 
f 6/6/6 9/9/9 4/4/4 
f 9/9/9 7/7/7 4/4/4 
f 10/10/10 9/9/9 6/6/6 
f 8/8/8 7/7/7 11/11/11 
f 12/12/12 8/8/8 11/11/11 
f 10/10/10 13/13/13 9/9/9 
f 13/13/13 10/10/10 14/14/14 
f 9/9/9 15/15/15 7/7/7 
f 15/15/15 11/11/11 7/7/7 
f 13/13/13 15/15/15 9/9/9 
f 12/12/12 11/11/11 16/16/16 
f 17/17/17 12/12/12 16/16/16 
f 13/13/13 14/14/14 18/18/18 
f 18/18/18 14/14/14 19/19/19 
f 15/15/15 20/20/20 11/11/11 
f 20/20/20 16/16/16 11/11/11 
f 13/13/13 21/21/21 15/15/15 
f 21/21/21 13/13/13 18/18/18 
f 21/21/21 20/20/20 15/15/15 
f 17/17/17 16/16/16 22/22/22 
f 23/23/23 17/17/17 22/22/22 
f 18/18/18 19/19/19 24/24/24 
f 24/24/24 19/19/19 25/25/25 
f 24/24/24 25/25/25 26/26/26 
f 21/21/21 18/18/18 27/27/27 
f 27/27/27 18/18/18 24/24/24 
f 28/28/28 24/24/24 26/26/26 
f 27/27/27 24/24/24 28/28/28 
f 28/28/28 26/26/26 29/29/29 
f 21/21/21 30/30/30 20/20/20 
f 30/30/30 21/21/21 27/27/27 
f 20/20/20 31/31/31 16/16/16 
f 31/31/31 22/22/22 16/16/16 
f 30/30/30 31/31/31 20/20/20 
f 23/23/23 22/22/22 32/32/32 
f 33/33/33 23/23/23 32/32/32 
f 34/34/34 27/27/27 28/28/28 
f 30/30/30 27/27/27 34/34/34 
f 35/35/35 28/28/28 29/29/29 
f 34/34/34 28/28/28 35/35/35 
f 35/35/35 29/29/29 36/36/36 
f 31/31/31 37/37/37 22/22/22 
f 37/37/37 32/32/32 22/22/22 
f 30/30/30 38/38/38 31/31/31 
f 38/38/38 30/30/30 34/34/34 
f 38/38/38 37/37/37 31/31/31 
f 33/33/33 32/32/32 39/39/39 
f 40/40/40 33/33/33 39/39/39 
f 41/41/41 34/34/34 35/35/35 
f 38/38/38 34/34/34 41/41/41 
f 42/42/42 35/35/35 36/36/36 
f 41/41/41 35/35/35 42/42/42 
f 42/42/42 36/36/36 43/43/43 
f 38/38/38 44/44/44 37/37/37 
f 44/44/44 38/38/38 41/41/41 
f 37/37/37 45/45/45 32/32/32 
f 45/45/45 39/39/39 32/32/32 
f 44/44/44 45/45/45 37/37/37 
f 40/40/40 39/39/39 46/46/46 
f 47/47/47 40/40/40 46/46/46 
f 48/48/48 41/41/41 42/42/42 
f 44/44/44 41/41/41 48/48/48 
f 49/49/49 42/42/42 43/43/43 
f 48/48/48 42/42/42 49/49/49 
f 49/49/49 43/43/43 50/50/50 
f 45/45/45 51/51/51 39/39/39 
f 51/51/51 46/46/46 39/39/39 
f 44/44/44 52/52/52 45/45/45 
f 52/52/52 44/44/44 48/48/48 
f 52/52/52 51/51/51 45/45/45 
f 47/47/47 46/46/46 53/53/53 
f 54/54/54 47/47/47 53/53/53 
f 55/55/55 48/48/48 49/49/49 
f 52/52/52 48/48/48 55/55/55 
f 56/56/56 49/49/49 50/50/50 
f 55/55/55 49/49/49 56/56/56 
f 56/56/56 50/50/50 57/57/57 
f 51/51/51 58/58/58 46/46/46 
f 58/58/58 53/53/53 46/46/46 
f 52/52/52 59/59/59 51/51/51 
f 59/59/59 52/52/52 55/55/55 
f 59/59/59 58/58/58 51/51/51 
f 54/54/54 53/53/53 60/60/60 
f 61/61/61 54/54/54 60/60/60 
f 62/62/62 55/55/55 56/56/56 
f 59/59/59 55/55/55 62/62/62 
f 63/63/63 56/56/56 57/57/57 
f 62/62/62 56/56/56 63/63/63 
f 63/63/63 57/57/57 64/64/64 
f 58/58/58 65/65/65 53/53/53 
f 65/65/65 60/60/60 53/53/53 
f 59/59/59 66/66/66 58/58/58 
f 66/66/66 59/59/59 62/62/62 
f 66/66/66 65/65/65 58/58/58 
f 61/61/61 60/60/60 67/67/67 
f 68/68/68 61/61/61 67/67/67 
f 69/69/69 62/62/62 63/63/63 
f 66/66/66 62/62/62 69/69/69 
f 70/70/70 63/63/63 64/64/64 
f 69/69/69 63/63/63 70/70/70 
f 70/70/70 64/64/64 71/71/71 
f 65/65/65 72/72/72 60/60/60 
f 72/72/72 67/67/67 60/60/60 
f 66/66/66 73/73/73 65/65/65 
f 73/73/73 66/66/66 69/69/69 
f 73/73/73 72/72/72 65/65/65 
f 68/68/68 67/67/67 74/74/74 
f 75/75/75 68/68/68 74/74/74 
f 76/76/76 69/69/69 70/70/70 
f 73/73/73 69/69/69 76/76/76 
f 77/77/77 70/70/70 71/71/71 
f 76/76/76 70/70/70 77/77/77 
f 77/77/77 71/71/71 78/78/78 
f 72/72/72 79/79/79 67/67/67 
f 79/79/79 74/74/74 67/67/67 
f 73/73/73 80/80/80 72/72/72 
f 80/80/80 73/73/73 76/76/76 
f 80/80/80 79/79/79 72/72/72 
f 75/75/75 74/74/74 81/81/81 
f 82/82/82 75/75/75 81/81/81 
f 83/83/83 76/76/76 77/77/77 
f 80/80/80 76/76/76 83/83/83 
f 84/84/84 77/77/77 78/78/78 
f 83/83/83 77/77/77 84/84/84 
f 84/84/84 78/78/78 85/85/85 
f 79/79/79 86/86/86 74/74/74 
f 86/86/86 81/81/81 74/74/74 
f 80/80/80 87/87/87 79/79/79 
f 87/87/87 80/80/80 83/83/83 
f 87/87/87 86/86/86 79/79/79 
f 82/82/82 81/81/81 88/88/88 
f 89/89/89 82/82/82 88/88/88 
f 90/90/90 83/83/83 84/84/84 
f 87/87/87 83/83/83 90/90/90 
f 91/91/91 84/84/84 85/85/85 
f 90/90/90 84/84/84 91/91/91 
f 91/91/91 85/85/85 92/92/92 
f 87/87/87 93/93/93 86/86/86 
f 93/93/93 87/87/87 90/90/90 
f 86/86/86 94/94/94 81/81/81 
f 94/94/94 88/88/88 81/81/81 
f 93/93/93 94/94/94 86/86/86 
f 89/89/89 88/88/88 95/95/95 
f 96/96/96 89/89/89 95/95/95 
f 96/96/96 95/95/95 97/97/97 
f 98/98/98 90/90/90 91/91/91 
f 93/93/93 90/90/90 98/98/98 
f 99/99/99 91/91/91 92/92/92 
f 98/98/98 91/91/91 99/99/99 
f 99/99/99 92/92/92 100/100/100 
f 94/94/94 101/101/101 88/88/88 
f 101/101/101 95/95/95 88/88/88 
f 102/102/102 97/97/97 95/95/95 
f 101/101/101 102/102/102 95/95/95 
f 102/102/102 103/103/103 97/97/97 
f 93/93/93 104/104/104 94/94/94 
f 104/104/104 93/93/93 98/98/98 
f 104/104/104 101/101/101 94/94/94 
f 105/105/105 98/98/98 99/99/99 
f 104/104/104 98/98/98 105/105/105 
f 106/106/106 99/99/99 100/100/100 
f 105/105/105 99/99/99 106/106/106 
f 106/106/106 100/100/100 107/107/107 
f 104/104/104 108/108/108 101/101/101 
f 108/108/108 102/102/102 101/101/101 
f 108/108/108 104/104/104 105/105/105 
f 109/109/109 103/103/103 102/102/102 
f 108/108/108 109/109/109 102/102/102 
f 109/109/109 110/110/110 103/103/103 
f 108/108/108 105/105/105 111/111/111 
f 111/111/111 105/105/105 106/106/106 
f 109/109/109 108/108/108 111/111/111 
f 112/112/112 106/106/106 107/107/107 
f 111/111/111 106/106/106 112/112/112 
f 112/112/112 107/107/107 113/113/113 
f 110/110/110 109/109/109 114/114/114 
f 109/109/109 111/111/111 114/114/114 
f 114/114/114 111/111/111 112/112/112 
f 110/110/110 114/114/114 115/115/115 
f 116/116/116 112/112/112 113/113/113 
f 114/114/114 112/112/112 116/116/116 
f 115/115/115 114/114/114 116/116/116 
f 116/116/116 113/113/113 117/117/117 
f 115/115/115 116/116/116 118/118/118 
f 118/118/118 116/116/116 117/117/117 
f 118/118/118 117/117/117 119/119/119 
f 120/120/120 122/122/122 121/121/121 
f 120/120/120 121/121/121 123/123/123 
f 123/123/123 121/121/121 124/124/124 
f 120/120/120 123/123/123 125/125/125 
f 120/120/120 125/125/125 126/126/126 
f 123/123/123 124/124/124 127/127/127 
f 127/127/127 124/124/124 128/128/128 
f 126/126/126 125/125/125 129/129/129 
f 126/126/126 129/129/129 130/130/130 
f 131/131/131 130/130/130 129/129/129 
f 123/123/123 132/132/132 125/125/125 
f 123/123/123 127/127/127 132/132/132 
f 127/127/127 128/128/128 133/133/133 
f 133/133/133 128/128/128 134/134/134 
f 125/125/125 135/135/135 129/129/129 
f 125/125/125 132/132/132 135/135/135 
f 131/131/131 129/129/129 136/136/136 
f 136/136/136 129/129/129 135/135/135 
f 127/127/127 137/137/137 132/132/132 
f 127/127/127 133/133/133 137/137/137 
f 133/133/133 134/134/134 138/138/138 
f 138/138/138 134/134/134 139/139/139 
f 132/132/132 140/140/140 135/135/135 
f 132/132/132 137/137/137 140/140/140 
f 133/133/133 141/141/141 137/137/137 
f 133/133/133 138/138/138 141/141/141 
f 138/138/138 139/139/139 142/142/142 
f 142/142/142 139/139/139 143/143/143 
f 131/131/131 136/136/136 144/144/144 
f 131/131/131 144/144/144 145/145/145 
f 136/136/136 135/135/135 146/146/146 
f 146/146/146 135/135/135 140/140/140 
f 137/137/137 147/147/147 140/140/140 
f 137/137/137 141/141/141 147/147/147 
f 138/138/138 148/148/148 141/141/141 
f 138/138/138 142/142/142 148/148/148 
f 142/142/142 143/143/143 149/149/149 
f 149/149/149 143/143/143 150/150/150 
f 145/145/145 144/144/144 151/151/151 
f 145/145/145 151/151/151 152/152/152 
f 144/144/144 153/153/153 151/151/151 
f 144/144/144 154/154/154 153/153/153 
f 136/136/136 154/154/154 144/144/144 
f 154/154/154 155/155/155 153/153/153 
f 136/136/136 146/146/146 154/154/154 
f 154/154/154 156/156/156 155/155/155 
f 146/146/146 156/156/156 154/154/154 
f 156/156/156 157/157/157 155/155/155 
f 146/146/146 158/158/158 156/156/156 
f 146/146/146 140/140/140 158/158/158 
f 158/158/158 140/140/140 147/147/147 
f 156/156/156 159/159/159 157/157/157 
f 158/158/158 159/159/159 156/156/156 
f 159/159/159 160/160/160 157/157/157 
f 158/158/158 147/147/147 161/161/161 
f 158/158/158 161/161/161 159/159/159 
f 159/159/159 162/162/162 160/160/160 
f 161/161/161 162/162/162 159/159/159 
f 162/162/162 163/163/163 160/160/160 
f 161/161/161 147/147/147 164/164/164 
f 141/141/141 164/164/164 147/147/147 
f 141/141/141 148/148/148 164/164/164 
f 161/161/161 165/165/165 162/162/162 
f 161/161/161 164/164/164 165/165/165 
f 162/162/162 166/166/166 163/163/163 
f 165/165/165 166/166/166 162/162/162 
f 166/166/166 167/167/167 163/163/163 
f 148/148/148 168/168/168 164/164/164 
f 165/165/165 164/164/164 168/168/168 
f 165/165/165 169/169/169 166/166/166 
f 165/165/165 168/168/168 169/169/169 
f 166/166/166 170/170/170 167/167/167 
f 169/169/169 170/170/170 166/166/166 
f 170/170/170 171/171/171 167/167/167 
f 148/148/148 172/172/172 168/168/168 
f 142/142/142 172/172/172 148/148/148 
f 142/142/142 149/149/149 172/172/172 
f 169/169/169 168/168/168 173/173/173 
f 172/172/172 173/173/173 168/168/168 
f 169/169/169 174/174/174 170/170/170 
f 169/169/169 173/173/173 174/174/174 
f 170/170/170 175/175/175 171/171/171 
f 174/174/174 175/175/175 170/170/170 
f 175/175/175 176/176/176 171/171/171 
f 149/149/149 177/177/177 172/172/172 
f 172/172/172 177/177/177 173/173/173 
f 174/174/174 173/173/173 178/178/178 
f 177/177/177 178/178/178 173/173/173 
f 174/174/174 179/179/179 175/175/175 
f 174/174/174 178/178/178 179/179/179 
f 175/175/175 180/180/180 176/176/176 
f 179/179/179 180/180/180 175/175/175 
f 180/180/180 181/181/181 176/176/176 
f 149/149/149 182/182/182 177/177/177 
f 149/149/149 150/150/150 182/182/182 
f 182/182/182 150/150/150 183/183/183 
f 177/177/177 184/184/184 178/178/178 
f 182/182/182 184/184/184 177/177/177 
f 182/182/182 183/183/183 185/185/185 
f 182/182/182 185/185/185 184/184/184 
f 185/185/185 183/183/183 186/186/186 
f 179/179/179 178/178/178 187/187/187 
f 184/184/184 187/187/187 178/178/178 
f 179/179/179 188/188/188 180/180/180 
f 179/179/179 187/187/187 188/188/188 
f 180/180/180 189/189/189 181/181/181 
f 188/188/188 189/189/189 180/180/180 
f 189/189/189 190/190/190 181/181/181 
f 185/185/185 186/186/186 191/191/191 
f 191/191/191 186/186/186 192/192/192 
f 185/185/185 193/193/193 184/184/184 
f 184/184/184 193/193/193 187/187/187 
f 185/185/185 191/191/191 193/193/193 
f 188/188/188 187/187/187 194/194/194 
f 193/193/193 194/194/194 187/187/187 
f 188/188/188 195/195/195 189/189/189 
f 188/188/188 194/194/194 195/195/195 
f 189/189/189 196/196/196 190/190/190 
f 195/195/195 196/196/196 189/189/189 
f 196/196/196 197/197/197 190/190/190 
f 191/191/191 192/192/192 198/198/198 
f 198/198/198 192/192/192 199/199/199 
f 191/191/191 200/200/200 193/193/193 
f 193/193/193 200/200/200 194/194/194 
f 191/191/191 198/198/198 200/200/200 
f 195/195/195 194/194/194 201/201/201 
f 200/200/200 201/201/201 194/194/194 
f 195/195/195 202/202/202 196/196/196 
f 195/195/195 201/201/201 202/202/202 
f 196/196/196 203/203/203 197/197/197 
f 202/202/202 203/203/203 196/196/196 
f 203/203/203 204/204/204 197/197/197 
f 198/198/198 199/199/199 205/205/205 
f 205/205/205 199/199/199 206/206/206 
f 198/198/198 207/207/207 200/200/200 
f 200/200/200 207/207/207 201/201/201 
f 198/198/198 205/205/205 207/207/207 
f 202/202/202 201/201/201 208/208/208 
f 207/207/207 208/208/208 201/201/201 
f 202/202/202 209/209/209 203/203/203 
f 202/202/202 208/208/208 209/209/209 
f 203/203/203 210/210/210 204/204/204 
f 209/209/209 210/210/210 203/203/203 
f 210/210/210 211/211/211 204/204/204 
f 205/205/205 206/206/206 212/212/212 
f 212/212/212 206/206/206 213/213/213 
f 205/205/205 214/214/214 207/207/207 
f 207/207/207 214/214/214 208/208/208 
f 205/205/205 212/212/212 214/214/214 
f 209/209/209 208/208/208 215/215/215 
f 214/214/214 215/215/215 208/208/208 
f 209/209/209 216/216/216 210/210/210 
f 209/209/209 215/215/215 216/216/216 
f 210/210/210 217/217/217 211/211/211 
f 216/216/216 217/217/217 210/210/210 
f 217/217/217 218/218/218 211/211/211 
f 212/212/212 213/213/213 219/219/219 
f 219/219/219 213/213/213 220/220/220 
f 212/212/212 221/221/221 214/214/214 
f 214/214/214 221/221/221 215/215/215 
f 212/212/212 219/219/219 221/221/221 
f 216/216/216 215/215/215 222/222/222 
f 221/221/221 222/222/222 215/215/215 
f 216/216/216 223/223/223 217/217/217 
f 216/216/216 222/222/222 223/223/223 
f 217/217/217 224/224/224 218/218/218 
f 223/223/223 224/224/224 217/217/217 
f 224/224/224 225/225/225 218/218/218 
f 224/224/224 226/226/226 225/225/225 
f 227/227/227 226/226/226 224/224/224 
f 223/223/223 227/227/227 224/224/224 
f 227/227/227 228/228/228 226/226/226 
f 227/227/227 229/229/229 228/228/228 
f 223/223/223 230/230/230 227/227/227 
f 223/223/223 222/222/222 230/230/230 
f 227/227/227 230/230/230 229/229/229 
f 221/221/221 231/231/231 222/222/222 
f 219/219/219 231/231/231 221/221/221 
f 231/231/231 230/230/230 222/222/222 
f 232/232/232 229/229/229 230/230/230 
f 231/231/231 232/232/232 230/230/230 
f 232/232/232 233/233/233 229/229/229 
f 219/219/219 234/234/234 231/231/231 
f 234/234/234 232/232/232 231/231/231 
f 219/219/219 220/220/220 234/234/234 
f 234/234/234 220/220/220 235/235/235 
f 236/236/236 233/233/233 232/232/232 
f 234/234/234 236/236/236 232/232/232 
f 234/234/234 235/235/235 236/236/236 
f 236/236/236 237/237/237 233/233/233 
f 236/236/236 235/235/235 238/238/238 
f 236/236/236 238/238/238 237/237/237 
f 239/239/239 241/241/241 240/240/240 
f 239/239/239 242/242/242 241/241/241 
f 243/243/243 242/242/242 239/239/239 
f 242/242/242 244/244/244 241/241/241 
f 243/243/243 245/245/245 242/242/242 
f 246/246/246 245/245/245 243/243/243 
f 242/242/242 247/247/247 244/244/244 
f 245/245/245 247/247/247 242/242/242 
f 247/247/247 248/248/248 244/244/244 
f 246/246/246 249/249/249 245/245/245 
f 250/250/250 249/249/249 246/246/246 
f 245/245/245 251/251/251 247/247/247 
f 249/249/249 251/251/251 245/245/245 
f 247/247/247 252/252/252 248/248/248 
f 251/251/251 252/252/252 247/247/247 
f 252/252/252 253/253/253 248/248/248 
f 252/252/252 254/254/254 253/253/253 
f 254/254/254 255/255/255 253/253/253 
f 251/251/251 256/256/256 252/252/252 
f 256/256/256 254/254/254 252/252/252 
f 249/249/249 257/257/257 251/251/251 
f 257/257/257 256/256/256 251/251/251 
f 250/250/250 258/258/258 249/249/249 
f 258/258/258 257/257/257 249/249/249 
f 254/254/254 259/259/259 255/255/255 
f 259/259/259 260/260/260 255/255/255 
f 259/259/259 261/261/261 260/260/260 
f 256/256/256 262/262/262 254/254/254 
f 262/262/262 259/259/259 254/254/254 
f 263/263/263 261/261/261 259/259/259 
f 262/262/262 263/263/263 259/259/259 
f 263/263/263 264/264/264 261/261/261 
f 257/257/257 265/265/265 256/256/256 
f 265/265/265 262/262/262 256/256/256 
f 266/266/266 264/264/264 263/263/263 
f 266/266/266 267/267/267 264/264/264 
f 268/268/268 263/263/263 262/262/262 
f 265/265/265 268/268/268 262/262/262 
f 268/268/268 266/266/266 263/263/263 
f 269/269/269 265/265/265 257/257/257 
f 258/258/258 269/269/269 257/257/257 
f 270/270/270 267/267/267 266/266/266 
f 270/270/270 271/271/271 267/267/267 
f 272/272/272 271/271/271 270/270/270 
f 273/273/273 268/268/268 265/265/265 
f 269/269/269 273/273/273 265/265/265 
f 274/274/274 266/266/266 268/268/268 
f 274/274/274 270/270/270 266/266/266 
f 273/273/273 274/274/274 268/268/268 
f 272/272/272 270/270/270 275/275/275 
f 275/275/275 270/270/270 274/274/274 
f 275/275/275 276/276/276 272/272/272 
f 277/277/277 274/274/274 273/273/273 
f 275/275/275 274/274/274 277/277/277 
f 275/275/275 278/278/278 276/276/276 
f 277/277/277 278/278/278 275/275/275 
f 278/278/278 279/279/279 276/276/276 
f 280/280/280 273/273/273 269/269/269 
f 277/277/277 273/273/273 280/280/280 
f 278/278/278 281/281/281 279/279/279 
f 281/281/281 282/282/282 279/279/279 
f 277/277/277 283/283/283 278/278/278 
f 280/280/280 283/283/283 277/277/277 
f 283/283/283 281/281/281 278/278/278 
f 280/280/280 269/269/269 284/284/284 
f 284/284/284 269/269/269 258/258/258 
f 281/281/281 285/285/285 282/282/282 
f 285/285/285 286/286/286 282/282/282 
f 285/285/285 287/287/287 286/286/286 
f 280/280/280 288/288/288 283/283/283 
f 284/284/284 288/288/288 280/280/280 
f 283/283/283 289/289/289 281/281/281 
f 289/289/289 285/285/285 281/281/281 
f 288/288/288 289/289/289 283/283/283 
f 290/290/290 287/287/287 285/285/285 
f 289/289/289 290/290/290 285/285/285 
f 290/290/290 291/291/291 287/287/287 
f 284/284/284 258/258/258 292/292/292 
f 292/292/292 258/258/258 250/250/250 
f 292/292/292 250/250/250 293/293/293 
f 284/284/284 294/294/294 288/288/288 
f 292/292/292 294/294/294 284/284/284 
f 288/288/288 295/295/295 289/289/289 
f 295/295/295 290/290/290 289/289/289 
f 294/294/294 295/295/295 288/288/288 
f 296/296/296 291/291/291 290/290/290 
f 295/295/295 296/296/296 290/290/290 
f 296/296/296 297/297/297 291/291/291 
f 293/293/293 298/298/298 292/292/292 
f 292/292/292 298/298/298 294/294/294 
f 293/293/293 299/299/299 298/298/298 
f 294/294/294 300/300/300 295/295/295 
f 300/300/300 296/296/296 295/295/295 
f 298/298/298 300/300/300 294/294/294 
f 301/301/301 297/297/297 296/296/296 
f 300/300/300 301/301/301 296/296/296 
f 301/301/301 302/302/302 297/297/297 
f 299/299/299 303/303/303 298/298/298 
f 298/298/298 303/303/303 300/300/300 
f 303/303/303 301/301/301 300/300/300 
f 299/299/299 304/304/304 303/303/303 
f 305/305/305 302/302/302 301/301/301 
f 303/303/303 305/305/305 301/301/301 
f 304/304/304 305/305/305 303/303/303 
f 305/305/305 306/306/306 302/302/302 
f 304/304/304 307/307/307 305/305/305 
f 307/307/307 306/306/306 305/305/305 
f 307/307/307 308/308/308 306/306/306 
f 309/309/309 311/311/311 310/310/310 
f 309/309/309 310/310/310 312/312/312 
f 313/313/313 309/309/309 312/312/312 
f 312/312/312 310/310/310 314/314/314 
f 313/313/313 312/312/312 315/315/315 
f 316/316/316 313/313/313 315/315/315 
f 312/312/312 314/314/314 317/317/317 
f 315/315/315 312/312/312 317/317/317 
f 317/317/317 314/314/314 318/318/318 
f 316/316/316 315/315/315 319/319/319 
f 320/320/320 316/316/316 319/319/319 
f 315/315/315 317/317/317 321/321/321 
f 319/319/319 315/315/315 321/321/321 
f 317/317/317 318/318/318 322/322/322 
f 321/321/321 317/317/317 322/322/322 
f 322/322/322 318/318/318 323/323/323 
f 322/322/322 323/323/323 324/324/324 
f 324/324/324 323/323/323 325/325/325 
f 321/321/321 322/322/322 326/326/326 
f 326/326/326 322/322/322 324/324/324 
f 319/319/319 321/321/321 327/327/327 
f 327/327/327 321/321/321 326/326/326 
f 320/320/320 319/319/319 328/328/328 
f 328/328/328 319/319/319 327/327/327 
f 324/324/324 325/325/325 329/329/329 
f 329/329/329 325/325/325 330/330/330 
f 329/329/329 330/330/330 331/331/331 
f 326/326/326 324/324/324 332/332/332 
f 332/332/332 324/324/324 329/329/329 
f 333/333/333 329/329/329 331/331/331 
f 332/332/332 329/329/329 333/333/333 
f 333/333/333 331/331/331 334/334/334 
f 327/327/327 326/326/326 335/335/335 
f 335/335/335 326/326/326 332/332/332 
f 336/336/336 333/333/333 334/334/334 
f 336/336/336 334/334/334 337/337/337 
f 338/338/338 332/332/332 333/333/333 
f 335/335/335 332/332/332 338/338/338 
f 338/338/338 333/333/333 336/336/336 
f 339/339/339 327/327/327 335/335/335 
f 328/328/328 327/327/327 339/339/339 
f 340/340/340 336/336/336 337/337/337 
f 340/340/340 337/337/337 341/341/341 
f 342/342/342 340/340/340 341/341/341 
f 343/343/343 335/335/335 338/338/338 
f 339/339/339 335/335/335 343/343/343 
f 344/344/344 338/338/338 336/336/336 
f 344/344/344 336/336/336 340/340/340 
f 343/343/343 338/338/338 344/344/344 
f 342/342/342 345/345/345 340/340/340 
f 345/345/345 344/344/344 340/340/340 
f 345/345/345 342/342/342 346/346/346 
f 347/347/347 343/343/343 344/344/344 
f 345/345/345 347/347/347 344/344/344 
f 345/345/345 346/346/346 348/348/348 
f 347/347/347 345/345/345 348/348/348 
f 348/348/348 346/346/346 349/349/349 
f 350/350/350 339/339/339 343/343/343 
f 347/347/347 350/350/350 343/343/343 
f 348/348/348 349/349/349 351/351/351 
f 351/351/351 349/349/349 352/352/352 
f 347/347/347 348/348/348 353/353/353 
f 350/350/350 347/347/347 353/353/353 
f 353/353/353 348/348/348 351/351/351 
f 350/350/350 354/354/354 339/339/339 
f 354/354/354 328/328/328 339/339/339 
f 351/351/351 352/352/352 355/355/355 
f 355/355/355 352/352/352 356/356/356 
f 355/355/355 356/356/356 357/357/357 
f 350/350/350 353/353/353 358/358/358 
f 354/354/354 350/350/350 358/358/358 
f 353/353/353 351/351/351 359/359/359 
f 359/359/359 351/351/351 355/355/355 
f 358/358/358 353/353/353 359/359/359 
f 360/360/360 355/355/355 357/357/357 
f 359/359/359 355/355/355 360/360/360 
f 360/360/360 357/357/357 361/361/361 
f 354/354/354 362/362/362 328/328/328 
f 362/362/362 320/320/320 328/328/328 
f 362/362/362 363/363/363 320/320/320 
f 354/354/354 358/358/358 364/364/364 
f 362/362/362 354/354/354 364/364/364 
f 358/358/358 359/359/359 365/365/365 
f 365/365/365 359/359/359 360/360/360 
f 364/364/364 358/358/358 365/365/365 
f 366/366/366 360/360/360 361/361/361 
f 365/365/365 360/360/360 366/366/366 
f 366/366/366 361/361/361 367/367/367 
f 363/363/363 362/362/362 368/368/368 
f 362/362/362 364/364/364 368/368/368 
f 363/363/363 368/368/368 369/369/369 
f 364/364/364 365/365/365 370/370/370 
f 370/370/370 365/365/365 366/366/366 
f 368/368/368 364/364/364 370/370/370 
f 371/371/371 366/366/366 367/367/367 
f 370/370/370 366/366/366 371/371/371 
f 371/371/371 367/367/367 372/372/372 
f 369/369/369 368/368/368 373/373/373 
f 368/368/368 370/370/370 373/373/373 
f 373/373/373 370/370/370 371/371/371 
f 369/369/369 373/373/373 374/374/374 
f 375/375/375 371/371/371 372/372/372 
f 373/373/373 371/371/371 375/375/375 
f 374/374/374 373/373/373 375/375/375 
f 375/375/375 372/372/372 376/376/376 
f 374/374/374 375/375/375 377/377/377 
f 377/377/377 375/375/375 376/376/376 
f 377/377/377 376/376/376 378/378/378 
f 379/379/379 381/381/381 380/380/380 
f 382/382/382 380/380/380 381/381/381 
f 379/379/379 383/383/383 381/381/381 
f 384/384/384 379/379/379 380/380/380 
f 383/383/383 385/385/385 381/381/381 
f 382/382/382 381/381/381 385/385/385 
f 383/383/383 386/386/386 385/385/385 
f 384/384/384 380/380/380 387/387/387 
f 382/382/382 387/387/387 380/380/380 
f 388/388/388 384/384/384 387/387/387 
f 386/386/386 389/389/389 385/385/385 
f 382/382/382 385/385/385 389/389/389 
f 386/386/386 390/390/390 389/389/389 
f 388/388/388 387/387/387 391/391/391 
f 382/382/382 391/391/391 387/387/387 
f 392/392/392 388/388/388 391/391/391 
f 390/390/390 393/393/393 389/389/389 
f 382/382/382 389/389/389 393/393/393 
f 390/390/390 394/394/394 393/393/393 
f 392/392/392 391/391/391 395/395/395 
f 382/382/382 395/395/395 391/391/391 
f 382/382/382 393/393/393 396/396/396 
f 394/394/394 396/396/396 393/393/393 
f 382/382/382 397/397/397 395/395/395 
f 398/398/398 392/392/392 395/395/395 
f 398/398/398 395/395/395 397/397/397 
f 394/394/394 399/399/399 396/396/396 
f 400/400/400 398/398/398 397/397/397 
f 399/399/399 401/401/401 396/396/396 
f 382/382/382 396/396/396 401/401/401 
f 399/399/399 402/402/402 401/401/401 
f 400/400/400 397/397/397 403/403/403 
f 382/382/382 403/403/403 397/397/397 
f 404/404/404 400/400/400 403/403/403 
f 402/402/402 405/405/405 401/401/401 
f 382/382/382 401/401/401 405/405/405 
f 402/402/402 406/406/406 405/405/405 
f 404/404/404 403/403/403 407/407/407 
f 382/382/382 407/407/407 403/403/403 
f 408/408/408 404/404/404 407/407/407 
f 406/406/406 409/409/409 405/405/405 
f 382/382/382 405/405/405 409/409/409 
f 406/406/406 410/410/410 409/409/409 
f 408/408/408 407/407/407 411/411/411 
f 382/382/382 411/411/411 407/407/407 
f 382/382/382 409/409/409 411/411/411 
f 410/410/410 411/411/411 409/409/409 
f 410/410/410 408/408/408 411/411/411 
f 412/412/412 414/414/414 413/413/413 
f 412/412/412 413/413/413 415/415/415 
f 416/416/416 415/415/415 413/413/413 
f 417/417/417 412/412/412 415/415/415 
f 414/414/414 418/418/418 413/413/413 
f 416/416/416 413/413/413 418/418/418 
f 414/414/414 419/419/419 418/418/418 
f 417/417/417 415/415/415 420/420/420 
f 416/416/416 420/420/420 415/415/415 
f 421/421/421 417/417/417 420/420/420 
f 419/419/419 422/422/422 418/418/418 
f 416/416/416 418/418/418 422/422/422 
f 419/419/419 423/423/423 422/422/422 
f 421/421/421 420/420/420 424/424/424 
f 416/416/416 424/424/424 420/420/420 
f 425/425/425 421/421/421 424/424/424 
f 423/423/423 426/426/426 422/422/422 
f 416/416/416 422/422/422 426/426/426 
f 423/423/423 427/427/427 426/426/426 
f 425/425/425 424/424/424 428/428/428 
f 416/416/416 428/428/428 424/424/424 
f 416/416/416 426/426/426 429/429/429 
f 427/427/427 429/429/429 426/426/426 
f 416/416/416 430/430/430 428/428/428 
f 431/431/431 425/425/425 428/428/428 
f 431/431/431 428/428/428 430/430/430 
f 427/427/427 432/432/432 429/429/429 
f 433/433/433 431/431/431 430/430/430 
f 432/432/432 434/434/434 429/429/429 
f 416/416/416 429/429/429 434/434/434 
f 432/432/432 435/435/435 434/434/434 
f 433/433/433 430/430/430 436/436/436 
f 416/416/416 436/436/436 430/430/430 
f 437/437/437 433/433/433 436/436/436 
f 435/435/435 438/438/438 434/434/434 
f 416/416/416 434/434/434 438/438/438 
f 435/435/435 439/439/439 438/438/438 
f 437/437/437 436/436/436 440/440/440 
f 416/416/416 440/440/440 436/436/436 
f 441/441/441 437/437/437 440/440/440 
f 439/439/439 442/442/442 438/438/438 
f 416/416/416 438/438/438 442/442/442 
f 439/439/439 443/443/443 442/442/442 
f 443/443/443 441/441/441 444/444/444 
f 441/441/441 440/440/440 444/444/444 
f 416/416/416 444/444/444 440/440/440 
f 443/443/443 444/444/444 442/442/442 
f 416/416/416 442/442/442 444/444/444 
f 445/445/445 447/447/447 446/446/446 
f 445/445/445 446/446/446 448/448/448 
f 447/447/447 449/449/449 446/446/446 
f 450/450/450 445/445/445 448/448/448 
f 447/447/447 451/451/451 449/449/449 
f 450/450/450 448/448/448 452/452/452 
f 451/451/451 453/453/453 449/449/449 
f 454/454/454 450/450/450 452/452/452 
f 451/451/451 455/455/455 453/453/453 
f 454/454/454 452/452/452 456/456/456 
f 455/455/455 457/457/457 453/453/453 
f 458/458/458 454/454/454 456/456/456 
f 455/455/455 459/459/459 457/457/457 
f 458/458/458 456/456/456 460/460/460 
f 459/459/459 461/461/461 457/457/457 
f 462/462/462 458/458/458 460/460/460 
f 459/459/459 463/463/463 461/461/461 
f 462/462/462 460/460/460 464/464/464 
f 463/463/463 465/465/465 461/461/461 
f 466/466/466 462/462/462 464/464/464 
f 463/463/463 467/467/467 465/465/465 
f 466/466/466 464/464/464 468/468/468 
f 467/467/467 469/469/469 465/465/465 
f 470/470/470 466/466/466 468/468/468 
f 467/467/467 471/471/471 469/469/469 
f 470/470/470 468/468/468 472/472/472 
f 471/471/471 473/473/473 469/469/469 
f 474/474/474 470/470/470 472/472/472 
f 471/471/471 475/475/475 473/473/473 
f 474/474/474 472/472/472 476/476/476 
f 475/475/475 476/476/476 473/473/473 
f 475/475/475 474/474/474 476/476/476 
