# exported by StudySceneExporter from mesh 'Tool_Cabinet_Wheel_Front_Lock_low'
mtllib materials.mtl
v -0.01411078 -0.0307913 0.0447474
v -0.01461053 -0.03007754 0.0440403
v -0.02082931 -0.03443178 0.02815904
v -0.02032956 -0.03514552 0.02815904
v -0.02178664 -0.03510208 0.02699909
v -0.02573586 -0.03893089 0.02560811
v -0.02284903 -0.0369096 0.04474739
v -0.0212869 -0.03581582 0.02699909
v -0.02340692 -0.03623656 0.02608545
v -0.02290717 -0.03695032 0.02608545
v -0.02623561 -0.03821714 0.02560811
v -0.02883803 -0.04003929 0.02560811
v -0.0331273 -0.003631682 0.0447474
v -0.01461053 -0.03007754 0.0440403
v -0.03262753 -0.004345441 0.0440403
v -0.04186553 -0.009749989 0.04474739
v -0.03960362 -0.02840351 0.02648673
v -0.03009538 -0.04198332 0.02648673
v -0.02943736 -0.04152259 0.02584552
v -0.03009538 -0.04198332 0.02648673
v -0.02833829 -0.04075304 0.02560811
v -0.02993711 -0.04080883 0.02584552
v -0.03724208 -0.04698727 0.01555711
v -0.02943736 -0.04152259 0.02584552
v -0.03658406 -0.04652654 0.0149159
v -0.04609227 -0.03294671 0.01491586
v -0.03894561 -0.02794279 0.02584552
v -0.04675031 -0.03340743 0.01555707
v -0.04911189 -0.01482371 0.02648673
v -0.04475236 -0.01177128 0.02560811
v -0.0331273 -0.003631682 0.0447474
v -0.03894561 -0.02794279 0.02584552
v -0.04795411 -0.01507674 0.02584552
v -0.03934605 -0.007985911 0.02815904
v -0.03262753 -0.004345441 0.0440403
v -0.03884629 -0.00869967 0.02815904
v -0.04030339 -0.00865621 0.02699909
v -0.03980363 -0.009369979 0.02699909
v -0.04192368 -0.009790702 0.02608545
v -0.04142392 -0.01050446 0.02608545
v -0.04425262 -0.01248504 0.02560811
v -0.04735478 -0.01359343 0.02560811
v -0.04685502 -0.01430719 0.02560811
v -0.04845387 -0.01436298 0.02584552
v -0.04795411 -0.01507674 0.02584552
v -0.03894561 -0.02794279 0.02584552
v -0.04108495 -0.01026712 0.0440403
v -0.04795411 -0.01507674 0.02584552
v -0.02306794 -0.03599923 0.0440403
v -0.02993711 -0.04080883 0.02584552
v -0.04609227 -0.03294671 0.01491586
v -0.03658406 -0.04652654 0.0149159
v -0.02943736 -0.04152259 0.02584552
v -0.03262753 -0.004345441 0.0440403
v -0.01461053 -0.03007754 0.0440403
v -0.02082931 -0.03443178 0.02815904
v -0.04425262 -0.01248504 0.02560811
v -0.03884629 -0.00869967 0.02815904
v -0.04685502 -0.01430719 0.02560811
v -0.04795411 -0.01507674 0.02584552
v -0.04142392 -0.01050446 0.02608545
v -0.03980363 -0.009369979 0.02699909
v -0.02623561 -0.03821714 0.02560811
v -0.02340692 -0.03623656 0.02608545
v -0.02178664 -0.03510208 0.02699909
v -0.02883803 -0.04003929 0.02560811
v -0.02993711 -0.04080883 0.02584552
v -0.006215381 -0.02652014 0.04604413
v -0.006732502 -0.02578159 0.04533703
v -0.006732502 -0.02578159 0.03604414
v -0.006215381 -0.02652014 0.03604414
v -0.0178633 -0.0335751 0.03604414
v -0.01911078 -0.03554919 0.03801393
v -0.01917266 -0.03559251 0.04115791
v -0.01734618 -0.03431365 0.03604414
v -0.01913579 -0.03446607 0.03659019
v -0.01861867 -0.03520462 0.03659019
v -0.0196279 -0.03481063 0.03801393
v -0.01968978 -0.03485396 0.04115791
v -0.02035474 -0.03531955 0.04278599
v -0.01983762 -0.03605811 0.04278599
v -0.02151484 -0.03613183 0.04346138
v -0.02099772 -0.03687038 0.04346138
v -0.02525777 -0.03875252 0.04349914
v -0.02474065 -0.03949108 0.04349914
v -0.02661881 -0.0397055 0.04406558
v -0.02610169 -0.04044406 0.04406558
v -0.02726842 -0.04016034 0.04519843
v -0.0267513 -0.04089889 0.04519843
v -0.0267513 -0.04089889 0.04604413
v -0.02639338 0.002298341 0.04604413
v -0.02587628 0.001559796 0.04533702
v -0.006732502 -0.02578159 0.04533703
v -0.03966102 -0.02246108 0.04604413
v -0.04692931 -0.01208041 0.04604413
v -0.03966102 -0.02246108 0.0452962
v -0.02726842 -0.04016034 0.04519843
v -0.04344815 -0.02511275 0.04604413
v -0.04344815 -0.02511275 0.0452962
v -0.04723531 -0.02776441 0.04625512
v -0.04723531 -0.02776441 0.04550719
v -0.05102244 -0.03041608 0.04706155
v -0.05102244 -0.03041608 0.04631361
v -0.05777363 -0.02077396 0.04706155
v -0.05777363 -0.02077396 0.04621585
v -0.05398648 -0.01812229 0.04625512
v -0.05398648 -0.01812229 0.04540941
v -0.05019933 -0.01547063 0.04604413
v -0.05019933 -0.01547063 0.04519843
v -0.04641219 -0.01281895 0.04604413
v -0.04641219 -0.01281895 0.04519843
v -0.04641219 -0.01281895 0.04519843
v -0.04692931 -0.01208041 0.04519843
v -0.04576261 -0.01236412 0.04406558
v -0.04627971 -0.01162557 0.04406558
v -0.04440154 -0.01141114 0.04349914
v -0.04491864 -0.01067259 0.04349914
v -0.04065862 -0.008790431 0.04346138
v -0.04117574 -0.008051886 0.04346138
v -0.03949853 -0.007978167 0.04278599
v -0.04001563 -0.007239623 0.04278599
v -0.03883355 -0.007512574 0.04115791
v -0.03935067 -0.00677403 0.04115791
v -0.03877168 -0.007469248 0.03801393
v -0.0392888 -0.006730704 0.03801393
v -0.03827958 -0.007124686 0.03659019
v -0.02639338 0.002298341 0.03604414
v -0.02587628 0.001559796 0.04533702
v -0.02587628 0.001559796 0.03604414
v -0.03752419 -0.005495162 0.03604414
v -0.03700707 -0.006233716 0.03604414
v -0.03879668 -0.006386142 0.03659019
v -0.05398648 -0.01812229 0.04540941
v -0.05777363 -0.02077396 0.04621585
v -0.05102244 -0.03041608 0.04631361
v -0.04723531 -0.02776441 0.04550719
v -0.05019933 -0.01547063 0.04519843
v -0.04344815 -0.02511275 0.0452962
v -0.04641219 -0.01281895 0.04519843
v -0.03966102 -0.02246108 0.0452962
v -0.02587628 0.001559796 0.04533702
v -0.02726842 -0.04016034 0.04519843
v -0.04065862 -0.008790431 0.04346138
v -0.04576261 -0.01236412 0.04406558
v -0.04440154 -0.01141114 0.04349914
v -0.03949853 -0.007978167 0.04278599
v -0.03883355 -0.007512574 0.04115791
v -0.02587628 0.001559796 0.03604414
v -0.03877168 -0.007469248 0.03801393
v -0.03827958 -0.007124686 0.03659019
v -0.03700707 -0.006233716 0.03604414
v -0.006732502 -0.02578159 0.04533703
v -0.02151484 -0.03613183 0.04346138
v -0.02525777 -0.03875252 0.04349914
v -0.02661881 -0.0397055 0.04406558
v -0.02035474 -0.03531955 0.04278599
v -0.01968978 -0.03485396 0.04115791
v -0.006732502 -0.02578159 0.03604414
v -0.0196279 -0.03481063 0.03801393
v -0.01913579 -0.03446607 0.03659019
v -0.0178633 -0.0335751 0.03604414
v 0.01865789 -0.009046836 0.00987328
v 0.02092514 -0.007459359 0.008725266
v 0.02319328 -0.005871262 0.009870601
v 0.02413369 -0.005212817 0.01263834
v 0.0243072 -0.005091319 0.01981211
v 0.02480769 -0.004740892 0.02295131
v 0.02629594 -0.003698859 0.03060529
v 0.02629594 -0.003698859 0.02577859
v 0.02765243 -0.002749076 0.0266075
v 0.0120049 -0.0137051 0.01968601
v 0.02757587 -0.002802682 0.02995809
v 0.02818259 -0.002377868 0.02830215
v 0.0243072 -0.005091319 0.03293779
v 0.02117729 -0.007282815 0.03747552
v 0.004827299 -0.01873066 0.02692393
v 0.02112802 -0.007317309 0.03754694
v 0.01909856 -0.008738293 0.0420285
v 0.004764891 -0.01877437 0.02698687
v -0.003093004 -0.02427628 0.0312706
v -0.009991245 -0.02910627 0.04443879
v -0.01243234 -0.03081546 0.03466588
v -0.009632063 -0.02885477 0.04561739
v -0.009632063 -0.02885477 0.04637711
v 0.01793426 -0.009553485 0.0459407
v -0.002389145 0.01947266 0.0459407
v -0.02995547 0.0001713896 0.04637711
v -0.02995547 0.0001713896 0.04561739
v -0.01107263 -0.02986343 0.04378917
v -0.001224861 0.02028787 0.0420285
v -0.0158146 -0.03318363 0.04054869
v -0.0143995 -0.03219282 0.03577963
v -0.0158146 -0.03318363 0.03792352
v -0.0143995 -0.03219282 0.04269256
v -0.01243234 -0.03081546 0.04380631
v -0.02341641 0.004749875 0.0312706
v -0.03031466 -8.010387E-05 0.04443879
v -0.01555852 0.01025178 0.02698687
v 0.0008046055 0.02170886 0.03754694
v -0.00831851 0.01532107 0.01968601
v 0.003983784 0.02393484 0.03293779
v -0.03275577 -0.001789298 0.03466588
v -0.001665516 0.01997932 0.00987328
v -0.03139604 -0.0008372641 0.04378917
v 0.005972519 0.0253273 0.03060529
v -0.03613801 -0.004157481 0.04054869
v -0.03275577 -0.001789298 0.04380631
v -0.03472291 -0.003166652 0.04269256
v -0.03613801 -0.004157481 0.03792352
v -0.03472291 -0.003166652 0.03577963
v 0.004484272 0.02428526 0.02295131
v 0.003983784 0.02393484 0.01981211
v 0.003810272 0.02381335 0.01263834
v 0.0006017303 0.0215668 0.008725266
v 0.002869873 0.02315489 0.009870601
v 0.005972519 0.0253273 0.02577859
v 0.007329016 0.02627707 0.0266075
v 0.007859172 0.02664828 0.02830215
v 0.007252455 0.02622347 0.02995809
v 0.03794705 0.04698727 0.05920671
v 0.03915543 0.0452615 0.05920671
v 0.05011145 0.04246438 0.05920671
v 0.05656531 0.0203965 0.05920671
v 0.05768453 0.03164841 0.05920671
v 0.05777363 0.0186707 0.05920671
v 0.02204227 0.03327927 0.05920671
v 0.03915543 0.0452615 0.05054362
v 0.03457873 0.042057 0.03458981
v -0.008352241 0.0119978 -0.02007683
v 0.00796689 0.02342406 -0.02200557
v 0.005008316 0.02135253 -0.02767347
v 0.001248264 0.01871984 -0.03365543
v -0.003519621 0.01538147 -0.03701584
v -0.009428873 0.01124397 -0.03796554
v -0.01474675 0.007520518 -0.03622607
v -0.01947534 0.004209676 -0.03179671
v -0.02222806 0.002282271 -0.0259763
v -0.02301816 0.001729073 -0.01865012
v -0.02206014 0.002399869 -0.01203184
v 0.0002906895 0.01804937 0.03462221
v 0.004929066 0.02129704 0.05055498
v 0.004929066 0.02129704 0.05920671
v 0.03945214 0.008414273 0.05920671
v 0.05656531 0.0203965 0.05054362
v 0.05198861 0.01719201 0.03458981
v 0.02537678 -0.001440968 -0.02200557
v 0.009057646 -0.01286723 -0.02007683
v 0.0224182 -0.003512492 -0.02767347
v 0.01865815 -0.006145186 -0.03365543
v 0.01389027 -0.009483542 -0.03701584
v 0.007981014 -0.01362106 -0.03796554
v 0.002663145 -0.01734451 -0.03622607
v -0.002065458 -0.02065535 -0.03179671
v -0.004818182 -0.02258275 -0.0259763
v -0.005608282 -0.02313596 -0.01865012
v -0.00465024 -0.02246516 -0.01203184
v 0.01770058 -0.006815657 0.03462221
v 0.02233895 -0.003567977 0.05055498
v 0.02233895 -0.003567977 0.05920671
v 0.003809824 0.0100451 0.05920671
v 0.003720703 0.02302285 0.05920671
v 0.0113829 -0.0007708597 0.05920671
v 0.02354732 -0.005293774 0.05920671
v 0.03794705 0.04698727 0.05920671
v 0.03915543 0.0452615 0.05054362
v 0.03915543 0.0452615 0.05920671
v 0.03794705 0.04698727 0.05054362
v 0.02083391 0.03500506 0.07087682
v 0.03794705 0.04698727 0.07087682
v 0.05011145 0.04246438 0.07087682
v 0.05011145 0.04246438 0.05920671
v 0.05768453 0.03164841 0.05920671
v 0.05768453 0.03164841 0.07087682
v 0.05777363 0.0186707 0.05920671
v 0.05777363 0.0186707 0.07087682
v 0.03337035 0.04378277 0.03458981
v 0.03457873 0.042057 0.03458981
v 0.00796689 0.02342406 -0.02200557
v 0.006758537 0.02514984 -0.02200557
v 0.003799963 0.02307833 -0.02767347
v 0.005008316 0.02135253 -0.02767347
v 0.001248264 0.01871984 -0.03365543
v -0.009560594 0.01372359 -0.02007683
v 3.990173E-05 0.02044563 -0.03365543
v -0.004727983 0.01710727 -0.03701584
v -0.0009176731 0.01977516 0.03462221
v -0.003519621 0.01538147 -0.03701584
v -0.009428873 0.01124397 -0.03796554
v -0.01063723 0.01296976 -0.03796554
v -0.01595511 0.009246306 -0.03622607
v -0.01474675 0.007520518 -0.03622607
v -0.01947534 0.004209676 -0.03179671
v -0.0206837 0.005935464 -0.03179671
v -0.02343642 0.004008069 -0.0259763
v -0.02222806 0.002282271 -0.0259763
v -0.02301816 0.001729073 -0.01865012
v -0.02422652 0.003454861 -0.01865012
v -0.02326848 0.004125657 -0.01203184
v -0.02206014 0.002399869 -0.01203184
v 0.0002906895 0.01804937 0.03462221
v 0.003720703 0.02302285 0.05055498
v 0.004929066 0.02129704 0.05055498
v 0.004929066 0.02129704 0.05920671
v 0.003720703 0.02302285 0.05920671
v 0.003720703 0.02302285 0.07087682
v 0.003809824 0.0100451 0.05920671
v 0.003809824 0.0100451 0.07087682
v 0.0113829 -0.0007708597 0.07087682
v 0.0113829 -0.0007708597 0.05920671
v 0.02354732 -0.005293774 0.07087682
v 0.02354732 -0.005293774 0.05920671
v 0.04066049 0.006688485 0.07087682
v 0.02354732 -0.005293774 0.05055498
v 0.01890894 -0.008541445 0.03462221
v 0.02233895 -0.003567977 0.05920671
v 0.02233895 -0.003567977 0.05055498
v 0.01770058 -0.006815657 0.03462221
v -0.00465024 -0.02246516 -0.01203184
v -0.003441877 -0.02419095 -0.01203184
v -0.005608282 -0.02313596 -0.01865012
v 0.01026601 -0.01459302 -0.02007683
v -0.004399919 -0.02486175 -0.01865012
v -0.003609829 -0.02430854 -0.0259763
v 0.02658514 -0.003166757 -0.02200557
v -0.004818182 -0.02258275 -0.0259763
v -0.002065458 -0.02065535 -0.03179671
v -0.0008570957 -0.02238115 -0.03179671
v 0.003871498 -0.0190703 -0.03622607
v 0.002663145 -0.01734451 -0.03622607
v 0.007981014 -0.01362106 -0.03796554
v 0.009189367 -0.01534685 -0.03796554
v 0.01509862 -0.01120934 -0.03701584
v 0.01389027 -0.009483542 -0.03701584
v 0.01865815 -0.006145186 -0.03365543
v 0.01986651 -0.007870974 -0.03365543
v 0.02362657 -0.00523828 -0.02767347
v 0.0224182 -0.003512492 -0.02767347
v 0.02537678 -0.001440968 -0.02200557
v 0.05198861 0.01719201 0.03458981
v 0.05319693 0.0154662 0.03458981
v 0.05777363 0.0186707 0.05054362
v 0.05656531 0.0203965 0.05054362
v 0.05777363 0.0186707 0.05920671
v 0.05777363 0.0186707 0.07087682
v 0.05656531 0.0203965 0.05920671
v -0.007424078 0.01243151 -0.07087682
v 0.009782686 -0.01214342 -0.07087682
v 0.02264197 -0.003139653 -0.06839049
v 0.005435209 0.02143527 -0.06839049
v 0.03424251 0.004982762 -0.06117489
v 0.01703574 0.02955769 -0.06117489
v 0.04344875 0.01142874 -0.04993631
v 0.02624198 0.03600367 -0.04993631
v 0.04935952 0.01556733 -0.03577488
v 0.03215276 0.04014225 -0.03577489
v 0.05139622 0.01699337 -0.02007682
v 0.03418946 0.0415683 -0.02007682
v 0.04935952 0.01556733 -0.004378757
v 0.03215276 0.04014225 -0.004378757
v 0.04344875 0.01142874 0.009782672
v 0.02624198 0.03600369 0.009782672
v 0.03424253 0.004982772 0.02102125
v 0.01703575 0.02955771 0.02102125
v 0.02264198 -0.003139634 0.02823686
v 0.005435209 0.02143528 0.02823686
v 0.009782686 -0.01214342 0.03072319
v -0.007424078 0.01243151 0.03072319
v -0.00307662 -0.02114718 0.02823686
v -0.02028338 0.003427749 0.02823686
v -0.01467715 -0.0292696 0.02102126
v -0.03188392 -0.004694676 0.02102126
v -0.02388339 -0.03571559 0.009782681
v -0.04109017 -0.01114067 0.009782681
v -0.02979417 -0.03985417 -0.004378753
v -0.04700093 -0.01527924 -0.004378753
v -0.03183087 -0.04128022 -0.02007682
v -0.04903764 -0.0167053 -0.02007682
v -0.02979417 -0.03985417 -0.03577489
v -0.04700093 -0.01527924 -0.03577489
v -0.02388341 -0.03571559 -0.04993633
v -0.04109017 -0.01114067 -0.04993633
v -0.01467715 -0.0292696 -0.06117491
v -0.03188392 -0.004694676 -0.06117491
v -0.00307662 -0.02114719 -0.06839053
v -0.02028338 0.003427739 -0.06839053
v -0.007424078 0.01243151 -0.07087682
v 0.009782686 -0.01214342 -0.07087682
v 0.005435209 0.02143527 -0.06839049
v -0.007424078 0.01243151 -0.02007682
v -0.007424078 0.01243151 -0.07087682
v 0.01703574 0.02955769 -0.06117489
v -0.02028338 0.003427739 -0.06839053
v 0.02624198 0.03600367 -0.04993631
v -0.03188392 -0.004694676 -0.06117491
v 0.03215276 0.04014225 -0.03577489
v -0.04109017 -0.01114067 -0.04993633
v 0.03418946 0.0415683 -0.02007682
v -0.04700093 -0.01527924 -0.03577489
v 0.03215276 0.04014225 -0.004378757
v -0.04903764 -0.0167053 -0.02007682
v 0.02624198 0.03600369 0.009782672
v -0.04700093 -0.01527924 -0.004378753
v 0.01703575 0.02955771 0.02102125
v -0.04109017 -0.01114067 0.009782681
v 0.005435209 0.02143528 0.02823686
v -0.03188392 -0.004694676 0.02102126
v -0.007424078 0.01243151 0.03072319
v -0.02028338 0.003427749 0.02823686
v 0.009782686 -0.01214342 -0.07087682
v 0.009782686 -0.01214342 -0.02007682
v 0.02264197 -0.003139653 -0.06839049
v -0.00307662 -0.02114719 -0.06839053
v 0.03424251 0.004982762 -0.06117489
v -0.01467715 -0.0292696 -0.06117491
v 0.04344875 0.01142874 -0.04993631
v -0.02388341 -0.03571559 -0.04993633
v 0.04935952 0.01556733 -0.03577488
v -0.02979417 -0.03985417 -0.03577489
v 0.05139622 0.01699337 -0.02007682
v -0.03183087 -0.04128022 -0.02007682
v 0.04935952 0.01556733 -0.004378757
v -0.02979417 -0.03985417 -0.004378753
v 0.04344875 0.01142874 0.009782672
v -0.02388339 -0.03571559 0.009782681
v 0.03424253 0.004982772 0.02102125
v -0.01467715 -0.0292696 0.02102126
v 0.02264198 -0.003139634 0.02823686
v -0.00307662 -0.02114718 0.02823686
v 0.009782686 -0.01214342 0.03072319
v 0.02164443 -0.008054843 0.03754694
v 0.02117729 -0.007282815 0.03747552
v 0.0243072 -0.005091319 0.03293779
v 0.02112802 -0.007317309 0.03754694
v 0.01961496 -0.009475827 0.0420285
v 0.005281296 -0.01951191 0.02698687
v 0.01909856 -0.008738293 0.0420285
v 0.02482361 -0.005828862 0.03293779
v 0.02629594 -0.003698859 0.03060529
v 0.02681234 -0.004436393 0.03060529
v 0.02757587 -0.002802682 0.02995809
v 0.01252131 -0.01444263 0.01968601
v 0.0191743 -0.009784369 0.00987328
v 0.0120049 -0.0137051 0.01968601
v 0.004827299 -0.01873066 0.02692393
v 0.004764891 -0.01877437 0.02698687
v -0.003093004 -0.02427628 0.0312706
v 0.01865789 -0.009046836 0.00987328
v -0.002576599 -0.02501382 0.0312706
v -0.01243234 -0.03081546 0.03466588
v -0.01191594 -0.031553 0.03466588
v -0.0143995 -0.03219282 0.03577963
v 0.02809228 -0.003540215 0.02995809
v 0.02818259 -0.002377868 0.02830215
v 0.028699 -0.003115411 0.02830215
v 0.02765243 -0.002749076 0.0266075
v 0.02816883 -0.003486619 0.0266075
v 0.02629594 -0.003698859 0.02577859
v 0.02681234 -0.004436393 0.02577859
v 0.02480769 -0.004740892 0.02295131
v 0.0253241 -0.005478434 0.02295131
v 0.0243072 -0.005091319 0.01981211
v 0.02482361 -0.005828862 0.01981211
v 0.02465009 -0.005950351 0.01263834
v 0.02413369 -0.005212817 0.01263834
v 0.02319328 -0.005871262 0.009870601
v 0.02370969 -0.006608806 0.009870601
v 0.02092514 -0.007459359 0.008725266
v 0.02144155 -0.008196902 0.008725266
v -0.01388308 -0.03293035 0.03577963
v -0.0158146 -0.03318363 0.03792352
v -0.0152982 -0.03392118 0.03792352
v -0.0158146 -0.03318363 0.04054869
v -0.0152982 -0.03392118 0.04054869
v -0.0143995 -0.03219282 0.04269256
v -0.01388308 -0.03293035 0.04269256
v -0.01243234 -0.03081546 0.04380631
v -0.01191594 -0.031553 0.04380631
v -0.01107263 -0.02986343 0.04378917
v -0.01055622 -0.03060096 0.04378917
v -0.009991245 -0.02910627 0.04443879
v -0.00947484 -0.0298438 0.04443879
v -0.009632063 -0.02885477 0.04561739
v -0.009115648 -0.02959231 0.04561739
v -0.009632063 -0.02885477 0.04637711
v 0.01810809 -0.01053091 0.04708422
v 0.01793426 -0.009553485 0.0459407
v -0.002389145 0.01947266 0.0459407
v -0.009115648 -0.02959231 0.04708422
v -0.02995547 0.0001713896 0.04637711
v -0.003248138 0.01997034 0.04708422
v -0.03047189 0.0009089326 0.04708422
v -0.02995547 0.0001713896 0.04561739
v -0.03047189 0.0009089326 0.04561739
v -0.03031466 -8.010387E-05 0.04443879
v -0.001741266 0.0210254 0.0420285
v -0.001224861 0.02028787 0.0420285
v -0.03083108 0.0006574297 0.04443879
v -0.03139604 -0.0008372641 0.04378917
v 0.0002882004 0.02244639 0.03754694
v 0.0008046055 0.02170886 0.03754694
v -0.03191245 -9.972095E-05 0.04378917
v -0.03275577 -0.001789298 0.04380631
v -0.02393283 0.005487418 0.0312706
v 0.003467378 0.02467238 0.03293779
v 0.003983784 0.02393484 0.03293779
v 0.005456114 0.02606484 0.03060529
v 0.005972519 0.0253273 0.03060529
v -0.03327216 -0.001051764 0.04380631
v -0.03472291 -0.003166652 0.04269256
v -0.03523931 -0.002429118 0.04269256
v -0.03613801 -0.004157481 0.04054869
v -0.03665442 -0.003419938 0.04054869
v -0.03613801 -0.004157481 0.03792352
v -0.01607493 0.01098933 0.02698687
v -0.002181921 0.02071686 0.00987328
v -0.008834925 0.0160586 0.01968601
v -0.001665516 0.01997932 0.00987328
v -0.00831851 0.01532107 0.01968601
v -0.01555852 0.01025178 0.02698687
v -0.02341641 0.004749875 0.0312706
v 0.0006017303 0.0215668 0.008725266
v -0.03327216 -0.001051764 0.03466588
v -0.03275577 -0.001789298 0.03466588
v -0.03523931 -0.002429118 0.03577963
v -0.03472291 -0.003166652 0.03577963
v -0.03665442 -0.003419938 0.03792352
v 8.532524E-05 0.02230433 0.008725266
v 0.002869873 0.02315489 0.009870601
v 0.002353468 0.02389243 0.009870601
v 0.003810272 0.02381335 0.01263834
v 0.003293867 0.02455088 0.01263834
v 0.003983784 0.02393484 0.01981211
v 0.003467378 0.02467238 0.01981211
v 0.004484272 0.02428526 0.02295131
v 0.003967867 0.0250228 0.02295131
v 0.005972519 0.0253273 0.02577859
v 0.005456114 0.02606484 0.02577859
v 0.007329016 0.02627707 0.0266075
v 0.006812601 0.02701462 0.0266075
v 0.007859172 0.02664828 0.02830215
v 0.006736059 0.02696101 0.02995809
v 0.007252455 0.02622347 0.02995809
v 0.007342767 0.02738581 0.02830215
v -0.007811632 0.02319836 -0.0163417
v -0.003703051 0.01733044 -0.0163417
v -0.008826398 0.0137432 -0.01273075
v -0.007811632 0.02319836 -0.0235636
v -0.00370306 0.01733043 -0.0235636
v -0.01293498 0.01961112 -0.01273075
v -0.01394973 0.01015595 -0.0163417
v -0.01293496 0.01961111 -0.02717455
v -0.008826398 0.0137432 -0.02717455
v -0.01293498 0.01961112 -0.01995265
v -0.01805831 0.01602389 -0.0163417
v -0.01394975 0.01015595 -0.0235636
v -0.01805833 0.01602388 -0.0235636
v 0.009682083 -0.02359531 -0.0163417
v 0.005573501 -0.01772739 -0.0163417
v 0.01069685 -0.01414014 -0.01273075
v 0.009682093 -0.02359531 -0.0235636
v 0.005573511 -0.01772739 -0.0235636
v 0.01480543 -0.02000807 -0.01273075
v 0.01582018 -0.0105529 -0.0163417
v 0.01480542 -0.02000806 -0.02717455
v 0.01069685 -0.01414014 -0.02717455
v 0.01480543 -0.02000807 -0.01995265
v 0.01992877 -0.01642084 -0.0163417
v 0.0158202 -0.01055291 -0.0235636
v 0.01992877 -0.01642083 -0.0235636
vt 0.8908775 0.2812447
vt 0.8916055 0.2812557
vt 0.8975275 0.2733783
vt 0.8970472 0.2730888
vt 0.8978076 0.2721175
vt 0.8960825 0.2691881
vt 0.8861759 0.2765191
vt 0.8972674 0.2722048
vt 0.8974923 0.270713
vt 0.8970476 0.2709951
vt 0.8965994 0.2690203
vt 0.8963239 0.2672168
vt 0.8820085 0.2987368
vt 0.8910411 0.2819251
vt 0.8826475 0.2984787
vt 0.8757784 0.2957018
vt 0.869078 0.2799391
vt 0.8949919 0.265884
vt 0.8955246 0.2663774
vt 0.8747229 0.2702875
vt 0.8957701 0.267222
vt 0.8961586 0.2663759
vt 0.8665437 0.2664137
vt 0.8747963 0.2696171
vt 0.866243 0.2658877
vt 0.8620965 0.2750888
vt 0.8683839 0.2799968
vt 0.8626735 0.2750437
vt 0.8645961 0.2893775
vt 0.863972 0.2925847
vt 0.8745762 0.3023551
vt 0.8683708 0.2800435
vt 0.8642701 0.2886826
vt 0.8649706 0.2967771
vt 0.8739047 0.3026426
vt 0.8647214 0.297271
vt 0.8643558 0.296015
vt 0.8639262 0.2963611
vt 0.863959 0.2947516
vt 0.8634147 0.2948917
vt 0.8634102 0.292627
vt 0.8640168 0.2906924
vt 0.8635113 0.2908421
vt 0.8641573 0.2899375
vt 0.8635301 0.2899404
vt 0.8830808 0.324317
vt 0.8781596 0.3395934
vt 0.888625 0.3325216
vt 0.8670714 0.3231842
vt 0.8775368 0.3161125
vt 0.8903861 0.3193807
vt 0.8845345 0.3107209
vt 0.8772292 0.3156573
vt 0.8727664 0.3432377
vt 0.8616782 0.3268285
vt 0.860038 0.3158529
vt 0.8866858 0.3478569
vt 0.8823378 0.348854
vt 0.8883454 0.3467355
vt 0.8889624 0.3461379
vt 0.8847135 0.3488265
vt 0.8833578 0.3490474
vt 0.8625852 0.3121907
vt 0.8609498 0.313659
vt 0.8602391 0.3148344
vt 0.8642448 0.3110693
vt 0.8650294 0.3107197
vt 0.9057003 0.4486857
vt 0.9051199 0.4480929
vt 0.8992763 0.4480306
vt 0.8996551 0.4484134
vt 0.8981206 0.4563049
vt 0.8997757 0.4578577
vt 0.9018269 0.4584055
vt 0.8986928 0.456297
vt 0.8985092 0.4575596
vt 0.8989301 0.4572662
vt 0.8994612 0.4583056
vt 0.901512 0.458886
vt 0.902382 0.4593917
vt 0.9028387 0.4590379
vt 0.9026637 0.4600633
vt 0.9032297 0.4599427
vt 0.9025592 0.4628162
vt 0.9031257 0.4627491
vt 0.9029244 0.4640066
vt 0.9034026 0.4637479
vt 0.9036368 0.4647109
vt 0.9040255 0.464291
vt 0.9046053 0.4643973
vt 0.9269509 0.4490357
vt 0.9264113 0.4485761
vt 0.9062601 0.4482444
vt 0.9194521 0.4656039
vt 0.9278478 0.4642342
vt 0.9192777 0.4660438
vt 0.9051093 0.4649733
vt 0.9203938 0.4686496
vt 0.9199724 0.4688413
vt 0.9212988 0.4715931
vt 0.9208704 0.4717815
vt 0.9223583 0.47429
vt 0.9222719 0.4747241
vt 0.9291716 0.4726796
vt 0.9295228 0.4730053
vt 0.928628 0.4697872
vt 0.9291447 0.4696502
vt 0.9278296 0.4670863
vt 0.9283561 0.4669784
vt 0.9272891 0.4643915
vt 0.9277959 0.4645465
vt 0.9283019 0.4646865
vt 0.9282295 0.4642977
vt 0.9293742 0.4641595
vt 0.9289398 0.4638945
vt 0.929879 0.4629306
vt 0.9293352 0.4628902
vt 0.9299048 0.460128
vt 0.9293422 0.4600299
vt 0.9302541 0.4594782
vt 0.9297606 0.4591471
vt 0.9312037 0.4589657
vt 0.9308161 0.4585117
vt 0.9333087 0.458162
vt 0.9328737 0.457802
vt 0.9342206 0.457278
vt 0.9327464 0.4484614
vt 0.9274616 0.4484153
vt 0.9330536 0.4480304
vt 0.9339089 0.456187
vt 0.9344558 0.4560077
vt 0.9336964 0.4571452
vt 0.9887189 0.8949481
vt 0.9916776 0.8949438
vt 0.9916773 0.8875226
vt 0.9887186 0.887527
vt 0.9858012 0.8949493
vt 0.9858009 0.8875282
vt 0.9828865 0.8949494
vt 0.9828861 0.8875283
vt 0.9670811 0.8949494
vt 0.9828862 0.8739063
vt 0.9784644 0.896069
vt 0.9823905 0.8956664
vt 0.9813449 0.8960293
vt 0.977574 0.8964998
vt 0.9770679 0.897529
vt 0.9671135 0.900808
vt 0.9770312 0.8995114
vt 0.9766575 0.9004111
vt 0.97568 0.9007607
vt 0.9670809 0.8739066
vt 0.9784642 0.8727868
vt 0.9813447 0.8728265
vt 0.9823902 0.8731893
vt 0.9775737 0.8723561
vt 0.9770676 0.8713268
vt 0.9671131 0.868048
vt 0.9770309 0.8693445
vt 0.976657 0.8684447
vt 0.9756796 0.8680951
vt 0.2852518 0.941252
vt 0.2859529 0.9394978
vt 0.2852083 0.9377617
vt 0.2834541 0.9370606
vt 0.2789301 0.9369857
vt 0.2769461 0.9366261
vt 0.2721062 0.9355433
vt 0.2751489 0.9355039
vt 0.2746129 0.9344667
vt 0.2791322 0.946452
vt 0.2725014 0.934553
vt 0.2735393 0.9340726
vt 0.2706556 0.9370928
vt 0.2678262 0.9395385
vt 0.2746409 0.9520348
vt 0.2677816 0.939577
vt 0.2649767 0.9411754
vt 0.2746018 0.9520833
vt 0.2719796 0.9581655
vt 0.2637472 0.9635816
vt 0.2699323 0.9653804
vt 0.2630006 0.9633148
vt 0.2625217 0.9633211
vt 0.262522 0.9421033
vt 0.2401826 0.942103
vt 0.2401823 0.9633207
vt 0.2397033 0.9633145
vt 0.2641675 0.9644086
vt 0.237728 0.9411749
vt 0.2662575 0.9680313
vt 0.2692498 0.9669034
vt 0.2679124 0.9680099
vt 0.264892 0.9669598
vt 0.2641702 0.9654551
vt 0.2307244 0.9581648
vt 0.2389567 0.9635812
vt 0.2281025 0.9520825
vt 0.2349231 0.9395764
vt 0.2235723 0.9464511
vt 0.2320493 0.9370921
vt 0.2327715 0.9653798
vt 0.2174529 0.9412508
vt 0.2385364 0.9644081
vt 0.2305988 0.9355425
vt 0.2364462 0.9680308
vt 0.2385336 0.9654546
vt 0.2378119 0.9669594
vt 0.2347913 0.9680093
vt 0.2334539 0.9669027
vt 0.2257588 0.9366252
vt 0.2237748 0.9369847
vt 0.2192507 0.9370595
vt 0.2167519 0.9394966
vt 0.2174966 0.9377605
vt 0.2275559 0.9355031
vt 0.2280921 0.9344659
vt 0.2291657 0.9340718
vt 0.2302035 0.9345523
vt 0.7833413 0.7419065
vt 0.783388 0.7406399
vt 0.7787267 0.7352315
vt 0.7833329 0.7217374
vt 0.7787333 0.7270739
vt 0.7832932 0.7204596
vt 0.7966655 0.7407097
vt 0.7832931 0.7459253
vt 0.7863721 0.7558833
vt 0.8179011 0.7914942
vt 0.8053808 0.7923461
vt 0.8075429 0.7960055
vt 0.8103184 0.7998615
vt 0.8138963 0.8020873
vt 0.8183814 0.8028373
vt 0.8224664 0.8019024
vt 0.8261654 0.7992903
vt 0.82841 0.7957654
vt 0.8292311 0.79124
vt 0.8287256 0.7870713
vt 0.8128133 0.7568577
vt 0.8096638 0.7465336
vt 0.8097832 0.7408236
vt 0.7965685 0.7216316
vt 0.7832093 0.7164151
vt 0.7862853 0.7063909
vt 0.8054038 0.6698635
vt 0.8178412 0.6708584
vt 0.80764 0.6661873
vt 0.8105243 0.6623462
vt 0.8141831 0.660192
vt 0.8187062 0.6595618
vt 0.8227664 0.660615
vt 0.8263807 0.6633259
vt 0.8285154 0.6668916
vt 0.8292122 0.671396
vt 0.8286123 0.6754982
vt 0.812722 0.7053334
vt 0.8095959 0.7156165
vt 0.8097085 0.7212887
vt 0.8143979 0.7352889
vt 0.8098233 0.7421259
vt 0.8143513 0.7268903
vt 0.8097629 0.7200021
vt 0.7965903 0.2506664
vt 0.8009968 0.2470195
vt 0.7965512 0.249169
vt 0.8009308 0.2483727
vt 0.7970857 0.2689121
vt 0.7903543 0.2548854
vt 0.785358 0.2486909
vt 0.7911636 0.2436719
vt 0.7848515 0.2371281
vt 0.7798302 0.2429048
vt 0.7770666 0.2324885
vt 0.7735804 0.2385071
vt 0.8101816 0.2455697
vt 0.8101225 0.244218
vt 0.8473844 0.2344634
vt 0.8477179 0.2357874
vt 0.8513063 0.2347706
vt 0.8510256 0.2334089
vt 0.855285 0.2324759
vt 0.8556476 0.2460036
vt 0.8552755 0.2338091
vt 0.8588165 0.2342076
vt 0.8271559 0.2650291
vt 0.8591986 0.2328754
vt 0.8630378 0.2347245
vt 0.8622998 0.235831
vt 0.8648037 0.2384146
vt 0.8658946 0.2375609
vt 0.8677299 0.241584
vt 0.8664957 0.2420669
vt 0.8667712 0.2459858
vt 0.8681379 0.2458916
vt 0.8669049 0.2507671
vt 0.8656158 0.2505181
vt 0.8631759 0.2544762
vt 0.8640249 0.2555174
vt 0.8279821 0.2661188
vt 0.8171253 0.2696108
vt 0.8181209 0.2704993
vt 0.8147108 0.2743746
vt 0.8132656 0.2739505
vt 0.805929 0.2771304
vt 0.8137333 0.2838883
vt 0.8066357 0.2838534
vt 0.8059106 0.2917002
vt 0.8129264 0.2930706
vt 0.8040668 0.2978389
vt 0.8102444 0.3029746
vt 0.7938681 0.3017052
vt 0.8123282 0.3087213
vt 0.8198496 0.317083
vt 0.8117424 0.3030831
vt 0.8135425 0.3081606
vt 0.8210167 0.3163601
vt 0.8500889 0.3414138
vt 0.8488353 0.3418824
vt 0.8504733 0.3470222
vt 0.8385115 0.3463503
vt 0.8492214 0.3466254
vt 0.8482758 0.3513125
vt 0.8267549 0.3521926
vt 0.8494501 0.3520049
vt 0.8471499 0.3557634
vt 0.8462654 0.3547788
vt 0.8430716 0.3573359
vt 0.8436515 0.3585942
vt 0.8397708 0.3598459
vt 0.8396336 0.3585231
vt 0.8357828 0.3584009
vt 0.8354899 0.359758
vt 0.8318374 0.3583601
vt 0.8324642 0.3571819
vt 0.8294048 0.3546189
vt 0.8284671 0.3556652
vt 0.8257887 0.3531457
vt 0.7959552 0.3293642
vt 0.7966906 0.3282166
vt 0.7895478 0.3219061
vt 0.789039 0.323139
vt 0.7867012 0.3181392
vt 0.7818608 0.3133855
vt 0.7859093 0.3194134
vt 0.9921875 0.4013435
vt 0.9732739 0.4013419
vt 0.973273 0.4113621
vt 0.9921866 0.4113638
vt 0.9732721 0.4213824
vt 0.9921858 0.4213841
vt 0.9732713 0.4314027
vt 0.9921849 0.4314043
vt 0.9732704 0.441423
vt 0.992184 0.4414246
vt 0.9732696 0.4514432
vt 0.9921831 0.4514449
vt 0.9732686 0.4614635
vt 0.9921823 0.4614652
vt 0.9732677 0.4714838
vt 0.9921814 0.4714854
vt 0.9732668 0.4815041
vt 0.9921805 0.4815057
vt 0.973266 0.4915243
vt 0.9921797 0.491526
vt 0.9732651 0.5015447
vt 0.9921788 0.5015463
vt 0.9732643 0.5115649
vt 0.9921779 0.5115666
vt 0.9732634 0.5215852
vt 0.992177 0.5215868
vt 0.9732625 0.5316055
vt 0.9921762 0.5316072
vt 0.9732617 0.5416257
vt 0.9921753 0.5416274
vt 0.9732608 0.551646
vt 0.9921744 0.5516477
vt 0.9732599 0.5616664
vt 0.9921736 0.5616679
vt 0.973259 0.5716866
vt 0.9921727 0.5716882
vt 0.9732581 0.5817069
vt 0.9921718 0.5817086
vt 0.9732572 0.5917271
vt 0.9921709 0.5917288
vt 0.9921701 0.6017491
vt 0.9732564 0.6017475
vt 0.5058296 0.9250397
vt 0.4912895 0.9535761
vt 0.5139361 0.9309295
vt 0.4962997 0.9219432
vt 0.5198259 0.9390361
vt 0.4862794 0.9219432
vt 0.5229223 0.9485659
vt 0.4767495 0.9250397
vt 0.5229223 0.9585862
vt 0.468643 0.9309295
vt 0.5198259 0.9681161
vt 0.4627532 0.9390361
vt 0.5139361 0.9762226
vt 0.4596568 0.9485659
vt 0.5058296 0.9821124
vt 0.4596567 0.9585862
vt 0.4962997 0.9852088
vt 0.4627532 0.968116
vt 0.4862794 0.9852088
vt 0.468643 0.9762226
vt 0.4767495 0.9821124
vt 0.3819151 0.9167088
vt 0.3502817 0.9217156
vt 0.381914 0.926729
vt 0.3788196 0.9071786
vt 0.3788165 0.9362586
vt 0.3729307 0.8990714
vt 0.3729259 0.9443645
vt 0.3648247 0.8931807
vt 0.3648187 0.9502535
vt 0.3552952 0.8900834
vt 0.3552885 0.9533489
vt 0.3452749 0.8900823
vt 0.3452682 0.9533478
vt 0.3357447 0.8931777
vt 0.3357387 0.9502504
vt 0.3276376 0.8990666
vt 0.3276328 0.9443598
vt 0.3217469 0.9071726
vt 0.3217439 0.9362525
vt 0.3186495 0.9167022
vt 0.3186484 0.9267224
vt 0.9512787 0.8476273
vt 0.9507902 0.8473222
vt 0.9484257 0.8501757
vt 0.9508193 0.8472797
vt 0.9529545 0.8449244
vt 0.9643817 0.8544804
vt 0.9525187 0.8445397
vt 0.9488462 0.8505648
vt 0.9469038 0.8516068
vt 0.947315 0.8520455
vt 0.9458646 0.8523463
vt 0.9586263 0.8590798
vt 0.9533291 0.8650194
vt 0.9590023 0.8595142
vt 0.964646 0.8549943
vt 0.9646773 0.8549716
vt 0.9708695 0.8522087
vt 0.9536577 0.8654793
vt 0.9706582 0.8516755
vt 0.9780838 0.850245
vt 0.9778793 0.8497072
vt 0.9798018 0.8495751
vt 0.946342 0.8526149
vt 0.9454665 0.8536178
vt 0.9459978 0.853561
vt 0.94597 0.8547713
vt 0.9464043 0.8544714
vt 0.946882 0.8554713
vt 0.9473325 0.8551066
vt 0.9479685 0.8571438
vt 0.9484931 0.8569032
vt 0.9483709 0.8590779
vt 0.9489346 0.8589597
vt 0.9492826 0.8636348
vt 0.9487388 0.8638213
vt 0.9497752 0.8657417
vt 0.9501033 0.8652992
vt 0.9517711 0.8663632
vt 0.9517306 0.8658198
vt 0.9794487 0.8491312
vt 0.9810822 0.8481532
vt 0.9805662 0.8479609
vt 0.9811772 0.8463718
vt 0.9806302 0.8464667
vt 0.9803175 0.8447267
vt 0.9798546 0.8450441
vt 0.9787932 0.8436186
vt 0.9784938 0.844073
vt 0.9776651 0.8432872
vt 0.9773535 0.8437959
vt 0.9769139 0.842752
vt 0.9765118 0.8432501
vt 0.9764061 0.8419731
vt 0.9760253 0.8425614
vt 0.9760868 0.8412332
vt 0.954934 0.8420053
vt 0.9541839 0.8417298
vt 0.9542347 0.8185908
vt 0.9756508 0.8417258
vt 0.975606 0.8188921
vt 0.9549691 0.8183166
vt 0.9751582 0.8184465
vt 0.9759267 0.81819
vt 0.9755511 0.8176154
vt 0.9764308 0.817422
vt 0.9530193 0.815361
vt 0.9525807 0.815741
vt 0.9760451 0.81693
vt 0.9772251 0.8168981
vt 0.9513235 0.8126476
vt 0.9508664 0.8130001
vt 0.9769055 0.8163759
vt 0.9784036 0.8164998
vt 0.9703968 0.8085578
vt 0.9488792 0.8097185
vt 0.9484587 0.8101071
vt 0.9473404 0.8082547
vt 0.9469501 0.8086854
vt 0.9780619 0.8160461
vt 0.9799101 0.815301
vt 0.9794272 0.8150103
vt 0.9807345 0.8136182
vt 0.9801773 0.8135655
vt 0.9805638 0.8118181
vt 0.9642705 0.8057544
vt 0.9532 0.7952723
vt 0.9585696 0.8011429
vt 0.9535131 0.794795
vt 0.958943 0.8007038
vt 0.964578 0.8052707
vt 0.9706066 0.8080265
vt 0.9515247 0.7939567
vt 0.9773946 0.8104643
vt 0.9775848 0.809926
vt 0.9789376 0.8109531
vt 0.979251 0.8104958
vt 0.9800683 0.8120584
vt 0.951533 0.7945094
vt 0.9495453 0.794669
vt 0.9499089 0.7950731
vt 0.9486308 0.7965666
vt 0.9491693 0.7967243
vt 0.9483699 0.8011739
vt 0.9489299 0.80128
vt 0.9479889 0.803076
vt 0.9485143 0.8033113
vt 0.9468579 0.8047966
vt 0.9473296 0.8051693
vt 0.945904 0.8055905
vt 0.9463931 0.8058576
vt 0.9454674 0.8068253
vt 0.9463681 0.8077431
vt 0.9459518 0.8080546
vt 0.9460072 0.8068107
vt 0.8801641 0.244186
vt 0.8765061 0.2426807
vt 0.8765441 0.2509299
vt 0.8841459 0.2424317
vt 0.8836587 0.2385034
vt 0.8796872 0.2485174
vt 0.8836938 0.2550365
vt 0.8876604 0.245017
vt 0.8908272 0.2426474
vt 0.8836764 0.246772
vt 0.8831922 0.2511081
vt 0.8908263 0.2509018
vt 0.887182 0.2493494
vt 0.7559375 0.3574658
vt 0.7590819 0.3550662
vt 0.7519396 0.3509386
vt 0.7554442 0.3617888
vt 0.7590822 0.3633492
vt 0.7524377 0.3548696
vt 0.7447878 0.3550416
vt 0.7514395 0.3635199
vt 0.7518885 0.3674495
vt 0.7519331 0.3591945
vt 0.7484329 0.3565897
vt 0.7447612 0.3632859
vt 0.7479395 0.3609219
vn 0.1523568 -0.1268916 0.9801459
vn 0.8284805 0.373282 -0.4174694
vn 0.8122444 0.3779946 -0.4442737
vn 0.7269412 -0.6788064 -0.1038188
vn 0.4507455 0.3155988 -0.8350005
vn 0.5760064 -0.8153914 -0.05790876
vn -0.3141941 -0.4638244 0.8283411
vn 0.7185068 -0.5726433 -0.3947501
vn 0.203241 0.1423057 -0.9687322
vn 0.5768763 -0.5572013 -0.5972776
vn 0.05882512 0.04118685 -0.9974183
vn -0.04298017 -0.03009447 -0.9986225
vn 0.02293719 0.0160594 0.999608
vn 0.8191659 0.5735566 1.879944E-05
vn 0.8191659 0.5735566 1.879944E-05
vn -0.5964122 -0.2153539 0.7732499
vn -0.7326891 -0.4962978 0.4656769
vn 0.5735581 -0.8191649 4.484532E-07
vn 0.477218 -0.7962676 -0.3717807
vn -0.6639593 -0.5089887 0.5478034
vn 0.3329359 -0.5459369 -0.7688346
vn -0.142731 -0.09992938 -0.984704
vn -0.6392639 -0.5229352 0.5638089
vn 0.5735567 -0.8191658 -1.326971E-05
vn -0.02079233 -0.8016865 -0.597383
vn -0.7604367 0.2546906 -0.597385
vn -0.5735491 0.8191712 -6.634845E-06
vn -0.7100585 -0.421824 0.5638098
vn -0.7898028 -0.4487402 0.4181432
vn -0.5691758 0.8201739 -0.05791084
vn -0.4651897 0.8832624 -0.05870253
vn -0.5110366 -0.3578174 -0.7815422
vn -0.5110366 -0.3578174 -0.7815422
vn -0.389203 0.9152827 -0.1038196
vn 0.6341599 0.6508166 -0.4174674
vn 0.6330342 0.633948 -0.4442722
vn -0.2923145 0.8710435 -0.39476
vn 0.4507473 0.3156041 -0.8349976
vn -0.3262517 0.7326667 -0.5972934
vn 0.2032368 0.1423019 -0.9687337
vn 0.05882181 0.04118782 -0.9974184
vn -0.3991148 0.4995961 -0.7688375
vn -0.04297821 -0.03009185 -0.9986227
vn -0.6230065 0.6344472 -0.4575368
vn -0.2099018 -0.1469769 -0.9666121
vn 0.7332453 0.5134007 -0.4458375
vn 0.637871 0.1659709 -0.7520467
vn 0.7439547 0.5208991 -0.4185635
vn 0.2763972 0.5288126 -0.8024723
vn 0.6862589 0.4805008 -0.5460474
vn 0.6402134 0.4482597 -0.6238511
vn 0.6402131 0.4482577 -0.6238526
vn 0.6402131 0.4482577 -0.6238526
vn 0.1670448 -0.2385755 -0.9566492
vn -0.1670449 0.2385749 -0.9566494
vn -0.5735602 0.8191634 1.377439E-06
vn 0.5735594 -0.8191639 0
vn 0.5735591 -0.8191642 0
vn 0.5735537 -0.8191679 1.075496E-06
vn 0.5735437 -0.8191749 2.708998E-06
vn 0.5735577 -0.8191651 1.385138E-05
vn 0.5735577 -0.8191651 1.385137E-05
vn -0.5735593 0.8191641 9.987493E-07
vn -0.5735552 0.8191669 0
vn -0.5735552 0.8191669 0
vn -0.5735545 0.8191674 0
vn -0.5735506 0.8191702 0
vn 0.08697925 -0.08767072 0.9923449
vn 0.8191632 0.5735604 0
vn 0.4741968 0.3320235 -0.8154126
vn 0.6395773 -0.7584592 -0.1252219
vn -0.0295224 -0.02067004 -0.9993504
vn 0.5458461 -0.8378708 -0.004949777
vn 0.5478131 -0.8365808 -0.005779593
vn 0.4919648 -0.7322415 -0.4709492
vn -0.5527872 -0.3870512 -0.7379823
vn 0.5005448 -0.8608552 -0.09155905
vn -0.8103275 -0.5673773 -0.1464656
vn -0.805357 -0.5638994 -0.1828047
vn -0.5888056 -0.4122712 -0.695227
vn 0.5019925 -0.8611641 -0.07999983
vn -0.09691777 -0.06786397 -0.9929761
vn 0.5651302 -0.821923 -0.07120736
vn -0.07906435 -0.05536228 -0.995331
vn 0.5630904 -0.8206559 -0.0972265
vn -0.4662802 -0.3264752 -0.8221902
vn 0.09081657 -0.8170213 -0.5694108
vn -0.7043756 -0.493185 -0.5105129
vn 0.1459723 -0.9642953 -0.2209677
vn 0.006365558 -0.02991121 0.9995323
vn -0.06821195 0.1447978 0.9871073
vn 0.8191692 0.5735519 0
vn 0.8191693 0.5735518 0
vn -0.01125457 -0.01170141 0.9998682
vn -0.07684555 0.1014509 0.9918682
vn -0.6935979 -0.7203624 0
vn -0.819162 -0.5735624 0
vn 0.05553589 -0.03962648 0.99767
vn 0.5735607 -0.8191631 0
vn 0.1270141 0.008883224 0.9918611
vn 0.5735604 -0.8191633 0
vn 0.03408767 -0.04506303 0.9984024
vn -0.5424746 -0.8400722 0
vn -0.03490324 0.0534692 0.9979594
vn -0.9846469 -0.1745578 0
vn 0.04684827 0.1232634 0.9912676
vn -0.5735572 0.8191655 0
vn -0.02304872 0.07258601 0.9970958
vn -0.573559 0.8191643 0
vn -0.007704952 0.007430837 0.9999428
vn -0.5735585 0.8191646 0
vn -0.7603647 -0.532396 -0.3720216
vn -0.9018217 0.3781192 -0.2091498
vn -0.4662779 -0.326476 -0.8221913
vn -0.7366655 0.3648268 -0.569408
vn -0.07906353 -0.05535933 -0.9953312
vn -0.5785368 0.8098419 -0.09721696
vn -0.09691701 -0.06786283 -0.9929762
vn -0.5790299 0.8121914 -0.07119904
vn -0.588805 -0.4122732 -0.6952263
vn -0.6375071 0.7662779 -0.08001915
vn -0.8053554 -0.5639018 -0.1828042
vn -0.5987313 0.8009291 -0.005778769
vn -0.8103266 -0.5673813 -0.1464558
vn -0.6006162 0.7995222 -0.004948501
vn -0.5527884 -0.3870491 -0.7379824
vn -0.493935 0.860435 -0.1252194
vn 0.8191695 0.5735516 0
vn 0.4741966 0.3320198 -0.8154142
vn -0.5197927 0.7127663 -0.4709348
vn -0.02952321 -0.02066551 -0.9993505
vn -0.6377104 0.7648165 -0.09154884
vn -0.08482766 -0.0694728 -0.9939708
vn -0.1360654 -0.1052586 -0.9850923
vn -0.1360654 -0.1052586 -0.9850923
vn -0.08488724 -0.06951442 -0.9939627
vn -0.01392148 -0.0198847 -0.9997053
vn -0.01392599 -0.01988785 -0.9997051
vn 0.02394346 -0.02716026 -0.9993443
vn 0.002524086 0.002039642 -0.9999948
vn 0.09130234 -0.1246412 -0.9879922
vn -0.003085338 0.009917788 -0.9999461
vn 0.5735621 -0.8191621 -4.859568E-06
vn 0.5735618 -0.8191622 1.047442E-05
vn 0.5735618 -0.8191622 1.047442E-05
vn 0.5735572 -0.8191655 -5.729343E-06
vn 0.5735586 -0.8191645 8.336116E-07
vn 0.5735592 -0.8191642 0
vn 0.5735591 -0.8191642 0
vn 0.5735585 -0.8191646 0
vn 0.5735585 -0.8191646 0
vn -0.06833025 0.1030595 -0.9923254
vn -0.5735593 0.819164 -1.470245E-06
vn -0.5735569 0.8191658 5.237197E-06
vn -0.5735569 0.8191658 5.237196E-06
vn -0.5735556 0.8191665 -9.800217E-06
vn -0.573559 0.8191642 8.336064E-07
vn -0.5735586 0.8191646 0
vn -0.5735586 0.8191646 0
vn -0.5735589 0.8191643 0
vn -0.5735589 0.8191643 0
vn -0.5735589 0.8191643 0
vn -0.5735573 0.8191655 2.199872E-06
vn -0.5735573 0.8191655 2.199872E-06
vn -0.5735571 0.8191656 3.361635E-07
vn -0.5735576 0.8191653 0
vn -0.5735577 0.8191651 0
vn -0.5735591 0.8191642 0
vn -0.5735593 0.819164 0
vn -0.5735599 0.8191637 2.400617E-07
vn -0.5735586 0.8191645 0
vn -0.5735595 0.8191639 7.945534E-07
vn -0.5735595 0.8191639 7.945535E-07
vn -0.5735586 0.8191645 0
vn -0.5735589 0.8191643 5.938775E-07
vn -0.5735591 0.8191642 8.677621E-07
vn -0.5735596 0.8191637 1.412985E-06
vn -0.5735593 0.8191641 2.054323E-07
vn -0.5735596 0.8191639 1.412985E-06
vn -0.5735593 0.8191641 -2.373393E-07
vn -0.5735592 0.8191641 -7.041972E-07
vn -0.5735579 0.8191651 3.195712E-07
vn -0.573559 0.8191642 -1.151803E-06
vn -0.04812497 0.04617253 -0.9977735
vn -0.0570781 0.05898548 -0.9966258
vn 0.03590318 -0.07381199 -0.9966258
vn 0.02692565 -0.06101605 -0.9977735
vn 0.5735582 -0.8191649 -8.513191E-07
vn -0.5735611 0.8191628 8.388255E-07
vn 0.5735592 -0.8191641 -5.291971E-07
vn -0.5735577 0.8191651 1.493303E-06
vn -0.573558 0.8191649 0
vn -0.573558 0.8191649 0
vn -0.5735592 0.8191642 -5.479377E-06
vn -0.5735591 0.8191642 -5.479377E-06
vn 0.5735587 -0.8191644 -3.875918E-07
vn 0.5735584 -0.8191646 -5.219642E-07
vn 0.5735599 -0.8191636 -1.914927E-07
vn 0.5735598 -0.8191637 -2.929163E-07
vn 0.5735598 -0.8191637 2.457786E-07
vn 0.5735596 -0.8191637 2.931316E-07
vn 0.5735591 -0.8191642 -1.285853E-06
vn 0.5735598 -0.8191637 1.174711E-06
vn 0.5735615 -0.8191625 -1.317231E-06
vn 0.5735596 -0.8191637 1.15843E-06
vn 0.5735613 -0.8191627 1.116471E-07
vn 0.5735492 -0.819171 2.739693E-06
vn 0.5735493 -0.819171 2.739693E-06
vn 0.5735604 -0.8191633 0
vn 0.5735604 -0.8191633 0
vn 0.5735568 -0.8191658 0
vn 0.5735571 -0.8191656 0
vn 0.5735592 -0.8191641 5.882852E-07
vn 0.5735599 -0.8191636 3.84978E-06
vn 0.5735598 -0.8191637 3.849779E-06
vn 0.5735608 -0.819163 0
vn 0.5735581 -0.8191649 9.602384E-07
vn 0.5735417 -0.8191764 3.178256E-06
vn 0.5735417 -0.8191764 3.178256E-06
vn 0 7.677273E-06 -1
vn 0.03827962 -0.05467157 -0.9977703
vn 0 -7.990349E-07 -1
vn -0.03827963 0.05467128 -0.9977704
vn 0 -8.137758E-07 -1
vn 0 6.717623E-07 -1
vn 0.2878463 -0.4111063 -0.8649486
vn 0.5735599 -0.8191636 3.72026E-07
vn 0.5735585 -0.8191646 0
vn 0.5735586 -0.8191645 0
vn 0.5735583 -0.8191647 0
vn 0.5735592 -0.8191641 1.742659E-07
vn 0.573559 -0.8191643 0
vn 0.5735576 -0.8191652 7.792914E-07
vn 0.5735586 -0.8191645 0
vn 0.5735593 -0.819164 0
vn 0.57356 -0.8191636 0
vn 0.5735598 -0.8191637 7.642469E-07
vn 0.5735585 -0.8191646 7.332905E-07
vn 0.5735587 -0.8191644 1.660058E-07
vn 0.5735588 -0.8191643 1.557748E-07
vn 0.5735593 -0.819164 -5.069337E-07
vn 0.03822963 -0.05460015 -0.9977762
vn -0.2878468 0.4111061 -0.8649485
vn -0.5735589 0.8191643 -1.860132E-07
vn -0.5735593 0.819164 -1.214035E-07
vn -0.5735593 0.819164 -1.438426E-07
vn -0.5735591 0.8191642 0
vn -0.5735587 0.8191644 -1.742661E-07
vn -0.5735575 0.8191653 7.562273E-07
vn -0.5735586 0.8191646 -1.925987E-07
vn -0.57356 0.8191636 -1.925987E-07
vn -0.573559 0.8191643 -7.703934E-07
vn -0.5735581 0.8191649 -7.703936E-07
vn -0.5735593 0.819164 0
vn -0.5735596 0.8191639 -3.976488E-07
vn -0.5735587 0.8191644 0
vn -0.5735587 0.8191644 0
vn -0.5735584 0.8191646 0
vn -0.03822968 0.05459993 -0.9977762
vn 0 5.896307E-07 -1
vn 0 -1.535438E-06 -1
vn 0 5.670144E-07 -1
vn 0 -1.22832E-05 -1
vn -0.1499584 0.9886923 0
vn 0.798839 0.5593471 -0.2213304
vn 0.8191553 0.5735718 0
vn -0.4397179 0.8974508 -0.03507449
vn -0.5735589 0.8191643 2.05599E-07
vn -0.0706787 0.9974992 0
vn 0.6136288 0.7895946 0
vn 0.6136288 0.7895946 0
vn 0.9518626 0.306525 0
vn 0.9518626 0.306525 0
vn 0.9999764 0.006866331 0
vn 0.9999764 0.006866331 0
vn -0.5291743 0.8480582 -0.0277775
vn 0.7253455 0.5078736 -0.4646916
vn 0.7086744 0.4961971 -0.5015667
vn -0.5302607 0.8473065 -0.02992124
vn -0.3968626 0.907509 -0.1375772
vn 0.6698148 0.4689888 -0.5756716
vn 0.547114 0.383076 -0.7442573
vn -0.573559 0.8191642 0
vn -0.4119989 0.8904955 -0.1930668
vn -0.4872253 0.8378366 -0.2462543
vn -0.6252703 0.7796573 0.03422773
vn 0.2571833 0.1800732 -0.9494368
vn -0.04712508 -0.03299681 -0.9983438
vn -0.5661535 0.7825732 -0.2589391
vn -0.6494033 0.7242832 -0.2317096
vn -0.3680913 -0.2577298 -0.8933556
vn -0.6116005 -0.4282284 -0.6652558
vn -0.7125618 0.6800612 -0.1725468
vn -0.7557667 0.6498051 -0.08105703
vn -0.7781374 -0.544835 -0.3125012
vn -0.8190743 -0.5734992 0.01469935
vn -0.7617306 0.6478834 0.00370952
vn -0.6577191 0.7510509 0.05769043
vn -0.7225508 -0.5059147 0.4711378
vn -0.7248603 -0.5075305 0.4658223
vn -0.7373154 0.6736873 0.05011279
vn -0.7982662 -0.5589239 0.224444
vn -0.8191655 -0.5735571 0
vn -0.8778292 0.4789738 0
vn -0.9131514 0.4076204 0
vn -0.9518626 -0.3065249 0
vn -0.9518626 -0.3065249 0
vn -0.6136292 -0.7895945 0
vn -0.6136292 -0.7895945 0
vn 0.0706786 -0.9974992 0
vn 0.14981 -0.9887148 0
vn 0.5735591 -0.8191642 1.157413E-07
vn 0.380845 -0.9232799 0.05011228
vn 0.5187465 -0.8542426 0.0342285
vn -0.8191639 -0.5735596 0
vn -0.7982643 -0.5589266 0.2244441
vn -0.724862 -0.5075298 0.4658203
vn -0.7225537 -0.505913 0.471135
vn 0.4807656 -0.8749492 0.0576914
vn -0.8190755 -0.5734972 0.01470149
vn 0.5735591 -0.8191642 2.01161E-07
vn 0.3482437 -0.9373968 0.003710108
vn 0.3520905 -0.9324492 -0.08105874
vn 0.6148143 -0.7881041 -0.02992138
vn -0.7781384 -0.5448326 -0.3125029
vn -0.6116012 -0.4282262 -0.6652565
vn 0.3953016 -0.9021997 -0.1725466
vn 0.4584608 -0.8579772 -0.2317086
vn -0.368093 -0.2577294 -0.8933549
vn -0.04712496 -0.0329961 -0.9983439
vn 0.5417069 -0.7996898 -0.2589398
vn 0.6206352 -0.7444265 -0.2462542
vn 0.2571825 0.1800734 -0.9494371
vn 0.5471123 0.3830777 -0.7442577
vn 0.6958518 -0.6917483 -0.1930665
vn 0.717016 -0.6833451 -0.1375771
vn 0.6698143 0.468991 -0.5756703
vn 0.7086809 0.4961882 -0.5015663
vn 0.7253553 0.5078599 -0.4646914
vn 0.6158923 -0.7873405 -0.02777767
vn 0.6929039 -0.7201763 -0.03507433
vn 0.7988578 0.5593201 -0.2213308
vn 0.6448752 -0.7642878 0
vn 0.5735592 -0.8191642 0
vn 0.819173 0.5735465 0
vn 0.1281455 0.0897244 -0.9876884
vn 0.1281455 0.0897244 -0.9876884
vn 0.2531357 0.1772394 -0.9510565
vn 0.2531357 0.1772395 -0.9510565
vn 0.4814928 0.3371295 -0.8090169
vn 0.4814928 0.3371296 -0.809017
vn 0.6627177 0.4640189 -0.5877854
vn 0.6627177 0.4640189 -0.5877854
vn 0.7790716 0.5454869 -0.309017
vn 0.7790716 0.5454869 -0.309017
vn 0.8191643 0.5735588 0
vn 0.8191643 0.5735588 0
vn 0.7790716 0.5454869 0.3090172
vn 0.7790716 0.5454868 0.3090173
vn 0.6627179 0.464019 0.5877852
vn 0.6627179 0.464019 0.5877852
vn 0.4814928 0.3371297 0.8090168
vn 0.4814927 0.3371297 0.8090168
vn 0.2531357 0.1772395 0.9510565
vn 0.2531357 0.1772395 0.9510565
vn 0 0 1
vn 0 0 1
vn -0.2531356 -0.1772393 0.9510565
vn -0.2531355 -0.1772392 0.9510565
vn -0.4814928 -0.3371295 0.8090169
vn -0.4814928 -0.3371295 0.809017
vn -0.6627178 -0.464019 0.5877852
vn -0.6627179 -0.464019 0.5877852
vn -0.7790715 -0.5454869 0.3090171
vn -0.7790715 -0.5454869 0.3090172
vn -0.8191643 -0.5735588 0
vn -0.8191643 -0.5735589 0
vn -0.7790716 -0.5454869 -0.3090167
vn -0.7790716 -0.5454869 -0.3090167
vn -0.6627181 -0.4640189 -0.5877849
vn -0.6627181 -0.4640189 -0.5877849
vn -0.4814929 -0.3371295 -0.8090168
vn -0.481493 -0.3371295 -0.8090168
vn -0.253135 -0.1772389 -0.9510568
vn -0.2531349 -0.1772389 -0.9510568
vn -0.1281437 -0.0897231 -0.9876887
vn -0.1281437 -0.0897231 -0.9876887
vn -0.5735595 0.8191639 0
vn -0.5735591 0.8191642 -1.076297E-07
vn -0.5735596 0.8191639 0
vn -0.5735592 0.8191641 0
vn -0.5735593 0.819164 0
vn -0.5735588 0.8191643 0
vn -0.5735585 0.8191646 -2.391772E-07
vn -0.573559 0.8191643 0
vn -0.5735588 0.8191643 2.39177E-07
vn -0.5735587 0.8191645 0
vn -0.5735592 0.8191641 0
vn -0.5735589 0.8191643 -4.78355E-07
vn -0.573559 0.8191642 0
vn -0.5735591 0.8191642 -4.783548E-07
vn -0.5735591 0.8191642 0
vn -0.5735589 0.8191643 -1.195888E-07
vn -0.5735583 0.8191647 -4.783546E-07
vn -0.5735596 0.8191639 -1.195887E-07
vn -0.5735587 0.8191645 -2.391774E-07
vn -0.5735595 0.8191639 0
vn -0.5735591 0.8191642 -2.391775E-07
vn 0.5735586 -0.8191645 0
vn 0.573559 -0.8191643 0
vn 0.5735595 -0.8191639 0
vn 0.573559 -0.8191642 0
vn 0.5735596 -0.8191639 -4.783549E-07
vn 0.5735587 -0.8191644 0
vn 0.573559 -0.8191643 0
vn 0.5735585 -0.8191646 0
vn 0.5735589 -0.8191643 0
vn 0.5735589 -0.8191643 -4.783544E-07
vn 0.5735589 -0.8191643 0
vn 0.573559 -0.8191642 0
vn 0.5735592 -0.8191641 0
vn 0.573559 -0.8191643 4.783546E-07
vn 0.5735586 -0.8191646 0
vn 0.5735584 -0.8191646 0
vn 0.5735582 -0.8191648 4.783549E-07
vn 0.5735591 -0.8191642 2.391772E-07
vn 0.5735593 -0.819164 0
vn 0.5735591 -0.8191642 2.391773E-07
vn 0.5735591 -0.8191642 0
vn 0.5908224 -0.8066661 0.01478903
vn 0.6266056 0.4387454 0.6441025
vn 0.6061025 0.4243854 0.6727085
vn 0.7162123 0.5014783 0.4853449
vn 0.5931389 -0.8050241 0.01106481
vn 0.5510128 -0.8333953 -0.04286118
vn 0.7450647 0.5209295 0.4165466
vn 0.5877546 -0.8088824 0.01593406
vn 0.4901318 0.3431772 0.8012491
vn 0.5841028 -0.8114918 0.01745976
vn 0.5792375 0.4055681 0.7071056
vn 0.5380729 -0.8418664 -0.0416951
vn 0.5099516 -0.8570689 -0.07336474
vn -0.5819573 -0.4074765 -0.7037674
vn -0.5216941 -0.3652833 -0.7709755
vn -0.3349601 -0.2345251 -0.9125786
vn -0.2814051 -0.197027 -0.939144
vn -0.5811227 -0.4068903 -0.7047955
vn 0.5581929 -0.8282803 -0.04870697
vn -0.2543836 -0.1781082 -0.9505612
vn 0.521536 -0.8375633 -0.1627516
vn -0.5073944 -0.3552707 -0.7850691
vn 0.7751408 -0.5424945 0.3238154
vn 0.8188485 0.5733321 0.02788135
vn 0.8924957 -0.4508635 0.01317664
vn 0.6050637 0.4236457 -0.6741084
vn 0.786678 -0.5350006 -0.3080781
vn 0.5939518 0.4158652 -0.688678
vn 0.7679046 -0.5737081 -0.2849234
vn 0.7587588 0.5312591 -0.3768935
vn 0.6578208 -0.7519005 -0.04378749
vn 0.8165707 0.5717404 -0.07953159
vn 0.7097797 -0.7042813 -0.01416065
vn 0.7561694 -0.65352 -0.03345665
vn 0.8116082 0.5682657 -0.135522
vn 0.5789565 0.4053697 -0.7074495
vn 0.7180865 -0.664333 -0.2073966
vn -0.0003966027 -0.0002783415 -0.9999999
vn 0.5482427 -0.7832532 -0.2931625
vn 0.3475094 -0.8923777 -0.2879225
vn -0.770192 -0.5392672 -0.3405806
vn 0.2352125 -0.9631677 -0.1303189
vn -0.7701935 -0.5392628 0.3405842
vn 0.4315593 -0.9001554 0.05896306
vn -0.5073926 -0.355263 0.7850738
vn 0.2111164 -0.881761 0.4218145
vn -0.2135408 -0.1495125 0.9654255
vn 0.4150067 -0.7982449 0.4365484
vn -0.1700761 -0.1190821 0.9782094
vn 0.5486927 -0.8275599 0.1186622
vn -0.5903685 -0.4133694 0.6932465
vn 0.5700208 -0.8216199 0.004142074
vn -0.8045661 -0.5633495 0.1879109
vn 0.5693426 -0.8220998 0.0009826444
vn -0.8191633 -0.5735603 9.860213E-06
vn 0.07851604 -0.07552646 0.9940478
vn 0.7694522 0.5385984 0.3433003
vn 0.7693083 0.5388038 0.3433005
vn 0.04309989 -0.07764826 0.9960487
vn -0.8191634 -0.5735602 9.860214E-06
vn -0.04411335 0.09961434 0.9940478
vn -0.05822163 0.0670604 0.9960487
vn -0.8045663 -0.5633465 0.1879193
vn -0.57776 0.8162061 0.0009818658
vn -0.590365 -0.4133641 0.6932526
vn -0.553574 0.8327264 0.01106491
vn 0.744364 0.5219306 0.4165463
vn -0.5770768 0.8166794 0.004141525
vn -0.170075 -0.1190842 0.9782093
vn -0.5552279 0.8315543 0.01547393
vn 0.671258 0.4700041 0.573157
vn -0.589956 0.7986681 0.1186646
vn -0.2135397 -0.1495156 0.9654253
vn -0.5873812 0.8078433 -0.04870747
vn -0.5589654 0.8290364 0.01600974
vn 0.6062091 0.4244599 0.6725655
vn -0.5627411 0.8264489 0.01745863
vn 0.4901257 0.3431776 0.8012527
vn -0.6081287 0.6630213 0.4365573
vn -0.507395 -0.3552676 0.7850702
vn -0.7563543 0.4999971 0.4218188
vn -0.7701893 -0.5392743 0.3405754
vn -0.6982385 0.7134329 0.0589618
vn -0.7701899 -0.5392736 -0.3405752
vn -0.5956389 0.8020233 -0.04441756
vn -0.6309332 0.7723604 -0.07336605
vn -0.607089 0.7935343 -0.04178891
vn -0.5811262 -0.4068913 -0.704792
vn -0.5818424 -0.4073969 -0.7039085
vn -0.4359208 -0.3052255 -0.8466465
vn -0.2814036 -0.1970315 -0.9391436
vn -0.000398195 -0.0002801602 -0.9999999
vn -0.6086428 0.7765729 -0.1627526
vn -0.2543833 -0.1781123 -0.9505605
vn -0.7196817 0.6317903 -0.2879224
vn -0.5073973 -0.3552657 -0.7850696
vn -0.8246148 0.5504788 -0.1303212
vn -0.5484728 0.7830893 -0.2931702
vn 0.5789537 0.4053712 -0.707451
vn -0.3786286 0.902011 -0.2074042
vn 0.8116056 0.5682696 -0.1355206
vn -0.355437 0.9341012 -0.03345892
vn 0.8165673 0.5717457 -0.07952873
vn -0.4190131 0.9078697 -0.01416034
vn 0.7587532 0.531267 -0.376894
vn -0.4815346 0.8753326 -0.04378678
vn 0.5939411 0.4158688 -0.6886852
vn -0.2764336 0.917824 -0.2849268
vn 0.6050506 0.4236515 -0.6741166
vn -0.2336384 0.922226 -0.3080786
vn 0.818846 0.5733359 0.02787948
vn -0.2446081 0.9139512 0.3238208
vn 0.5792381 0.4055659 0.7071064
vn -0.1183647 0.9928827 0.01318347
vn 0.4897508 0.7317876 0.4739526
vn 0.7094168 0.4967168 0.5000002
vn -1.249269E-06 0 1
vn 0.4897512 0.7317873 -0.4739526
vn 0.7094177 0.4967158 -0.4999999
vn -0.1827095 0.2609473 0.9479049
vn -0.7094175 -0.4967157 0.5000003
vn -0.1827081 0.2609471 -0.9479052
vn -1.482185E-07 -8.99898E-07 -1
vn -0.5735581 0.8191649 -5.903084E-07
vn -0.8551688 -0.2098931 0.4739528
vn -0.7094184 -0.4967164 -0.4999984
vn -0.8551696 -0.209893 -0.4739515
vn -0.4897509 -0.7317877 0.4739523
vn -0.7094167 -0.4967171 0.5000002
vn 7.199171E-07 0 1
vn -0.4897501 -0.7317881 -0.4739525
vn -0.7094171 -0.496717 -0.4999996
vn 0.182709 -0.2609473 0.9479051
vn 0.709417 0.4967162 0.5000006
vn 0.1827092 -0.2609477 -0.9479048
vn 4.446563E-07 -1.90567E-07 -1
vn 0.5735589 -0.8191643 -2.725151E-07
vn 0.8551688 0.2098932 0.4739527
vn 0.7094177 0.4967163 -0.4999995
vn 0.8551691 0.2098932 -0.4739524
usemtl Mat_Tool_Cabinet
f 1/1/1 3/3/3 2/2/2 
f 1/1/1 4/4/4 3/3/3 
f 4/4/4 5/5/5 3/3/3 
f 1/1/1 6/6/6 4/4/4 
f 7/7/7 6/6/6 1/1/1 
f 4/4/4 8/8/8 5/5/5 
f 8/8/8 9/9/9 5/5/5 
f 4/4/4 10/10/10 8/8/8 
f 8/8/8 10/10/10 9/9/9 
f 4/4/4 6/6/6 10/10/10 
f 10/10/10 11/11/11 9/9/9 
f 10/10/10 6/6/6 11/11/11 
f 6/6/6 12/12/12 11/11/11 
f 13/13/13 7/7/7 1/1/1 
f 13/13/13 1/1/1 14/14/14 
f 13/13/13 14/14/14 15/15/15 
f 13/13/13 16/16/16 7/7/7 
f 16/16/16 17/17/17 7/7/7 
f 7/7/7 18/18/18 6/6/6 
f 6/6/6 18/18/18 19/19/19 
f 7/7/7 17/17/17 20/20/20 
f 6/6/6 21/21/21 12/12/12 
f 6/6/6 19/19/19 21/21/21 
f 21/21/21 22/22/22 12/12/12 
f 21/21/21 19/19/19 22/22/22 
f 23/23/23 20/20/20 17/17/17 
f 24/24/24 20/20/20 23/23/23 
f 24/24/24 23/23/23 25/25/25 
f 23/23/23 26/26/26 25/25/25 
f 17/17/17 27/27/27 26/26/26 
f 23/23/23 28/28/28 26/26/26 
f 23/23/23 17/17/17 28/28/28 
f 17/17/17 26/26/26 28/28/28 
f 16/16/16 29/29/29 17/17/17 
f 16/16/16 30/30/30 29/29/29 
f 16/16/16 31/31/31 30/30/30 
f 32/32/32 17/17/17 29/29/29 
f 32/32/32 29/29/29 33/33/33 
f 30/30/30 31/31/31 34/34/34 
f 34/34/34 31/31/31 35/35/35 
f 34/34/34 35/35/35 36/36/36 
f 37/37/37 34/34/34 36/36/36 
f 30/30/30 34/34/34 37/37/37 
f 37/37/37 36/36/36 38/38/38 
f 39/39/39 37/37/37 38/38/38 
f 30/30/30 37/37/37 39/39/39 
f 39/39/39 38/38/38 40/40/40 
f 30/30/30 39/39/39 40/40/40 
f 30/30/30 40/40/40 41/41/41 
f 42/42/42 30/30/30 41/41/41 
f 29/29/29 30/30/30 42/42/42 
f 42/42/42 41/41/41 43/43/43 
f 29/29/29 42/42/42 44/44/44 
f 44/44/44 42/42/42 43/43/43 
f 29/29/29 44/44/44 45/45/45 
f 44/44/44 43/43/43 45/45/45 
f 46/46/46 48/48/48 47/47/47 
f 46/46/46 47/47/47 49/49/49 
f 50/50/50 46/46/46 49/49/49 
f 50/50/50 51/51/51 46/46/46 
f 52/52/52 51/51/51 50/50/50 
f 52/52/52 50/50/50 53/53/53 
f 54/54/54 49/49/49 47/47/47 
f 54/54/54 55/55/55 49/49/49 
f 56/56/56 49/49/49 55/55/55 
f 57/57/57 54/54/54 47/47/47 
f 57/57/57 58/58/58 54/54/54 
f 57/57/57 47/47/47 59/59/59 
f 59/59/59 47/47/47 60/60/60 
f 58/58/58 57/57/57 61/61/61 
f 58/58/58 61/61/61 62/62/62 
f 56/56/56 63/63/63 49/49/49 
f 56/56/56 64/64/64 63/63/63 
f 56/56/56 65/65/65 64/64/64 
f 49/49/49 63/63/63 66/66/66 
f 49/49/49 66/66/66 67/67/67 
f 68/68/68 70/70/70 69/69/69 
f 68/68/68 71/71/71 70/70/70 
f 71/71/71 72/72/72 70/70/70 
f 68/68/68 73/73/73 71/71/71 
f 68/68/68 74/74/74 73/73/73 
f 71/71/71 75/75/75 72/72/72 
f 75/75/75 76/76/76 72/72/72 
f 71/71/71 77/77/77 75/75/75 
f 75/75/75 77/77/77 76/76/76 
f 71/71/71 73/73/73 77/77/77 
f 77/77/77 78/78/78 76/76/76 
f 77/77/77 73/73/73 78/78/78 
f 73/73/73 79/79/79 78/78/78 
f 73/73/73 74/74/74 79/79/79 
f 74/74/74 80/80/80 79/79/79 
f 74/74/74 81/81/81 80/80/80 
f 68/68/68 81/81/81 74/74/74 
f 81/81/81 82/82/82 80/80/80 
f 81/81/81 83/83/83 82/82/82 
f 68/68/68 83/83/83 81/81/81 
f 83/83/83 84/84/84 82/82/82 
f 83/83/83 85/85/85 84/84/84 
f 68/68/68 85/85/85 83/83/83 
f 85/85/85 86/86/86 84/84/84 
f 85/85/85 87/87/87 86/86/86 
f 87/87/87 88/88/88 86/86/86 
f 87/87/87 89/89/89 88/88/88 
f 85/85/85 89/89/89 87/87/87 
f 89/89/89 90/90/90 88/88/88 
f 85/85/85 90/90/90 89/89/89 
f 68/68/68 90/90/90 85/85/85 
f 90/90/90 68/68/68 91/91/91 
f 68/68/68 92/92/92 91/91/91 
f 68/68/68 93/93/93 92/92/92 
f 90/90/90 91/91/91 94/94/94 
f 94/94/94 91/91/91 95/95/95 
f 96/96/96 90/90/90 94/94/94 
f 96/96/96 97/97/97 90/90/90 
f 96/96/96 94/94/94 98/98/98 
f 96/96/96 98/98/98 99/99/99 
f 99/99/99 98/98/98 100/100/100 
f 99/99/99 100/100/100 101/101/101 
f 101/101/101 100/100/100 102/102/102 
f 101/101/101 102/102/102 103/103/103 
f 103/103/103 102/102/102 104/104/104 
f 100/100/100 104/104/104 102/102/102 
f 103/103/103 104/104/104 105/105/105 
f 100/100/100 106/106/106 104/104/104 
f 106/106/106 105/105/105 104/104/104 
f 98/98/98 106/106/106 100/100/100 
f 106/106/106 107/107/107 105/105/105 
f 98/98/98 108/108/108 106/106/106 
f 108/108/108 107/107/107 106/106/106 
f 94/94/94 108/108/108 98/98/98 
f 108/108/108 109/109/109 107/107/107 
f 94/94/94 110/110/110 108/108/108 
f 110/110/110 109/109/109 108/108/108 
f 110/110/110 111/111/111 109/109/109 
f 94/94/94 95/95/95 110/110/110 
f 112/112/112 110/110/110 95/95/95 
f 112/112/112 95/95/95 113/113/113 
f 113/113/113 114/114/114 112/112/112 
f 113/113/113 115/115/115 114/114/114 
f 95/95/95 115/115/115 113/113/113 
f 115/115/115 116/116/116 114/114/114 
f 95/95/95 117/117/117 115/115/115 
f 115/115/115 117/117/117 116/116/116 
f 117/117/117 118/118/118 116/116/116 
f 91/91/91 117/117/117 95/95/95 
f 117/117/117 119/119/119 118/118/118 
f 91/91/91 119/119/119 117/117/117 
f 119/119/119 120/120/120 118/118/118 
f 119/119/119 121/121/121 120/120/120 
f 91/91/91 121/121/121 119/119/119 
f 121/121/121 122/122/122 120/120/120 
f 121/121/121 123/123/123 122/122/122 
f 91/91/91 123/123/123 121/121/121 
f 123/123/123 124/124/124 122/122/122 
f 123/123/123 125/125/125 124/124/124 
f 91/91/91 125/125/125 123/123/123 
f 125/125/125 126/126/126 124/124/124 
f 91/91/91 127/127/127 125/125/125 
f 127/127/127 91/91/91 128/128/128 
f 127/127/127 128/128/128 129/129/129 
f 130/130/130 127/127/127 129/129/129 
f 125/125/125 127/127/127 130/130/130 
f 130/130/130 129/129/129 131/131/131 
f 132/132/132 131/131/131 126/126/126 
f 125/125/125 132/132/132 126/126/126 
f 125/125/125 130/130/130 132/132/132 
f 132/132/132 130/130/130 131/131/131 
f 133/133/133 135/135/135 134/134/134 
f 133/133/133 136/136/136 135/135/135 
f 137/137/137 136/136/136 133/133/133 
f 137/137/137 138/138/138 136/136/136 
f 139/139/139 138/138/138 137/137/137 
f 139/139/139 140/140/140 138/138/138 
f 140/140/140 139/139/139 141/141/141 
f 141/141/141 142/142/142 140/140/140 
f 143/143/143 141/141/141 139/139/139 
f 143/143/143 139/139/139 144/144/144 
f 143/143/143 144/144/144 145/145/145 
f 146/146/146 141/141/141 143/143/143 
f 147/147/147 141/141/141 146/146/146 
f 148/148/148 141/141/141 147/147/147 
f 148/148/148 147/147/147 149/149/149 
f 148/148/148 149/149/149 150/150/150 
f 148/148/148 150/150/150 151/151/151 
f 141/141/141 152/152/152 142/142/142 
f 152/152/152 153/153/153 142/142/142 
f 142/142/142 153/153/153 154/154/154 
f 142/142/142 154/154/154 155/155/155 
f 152/152/152 156/156/156 153/153/153 
f 152/152/152 157/157/157 156/156/156 
f 158/158/158 157/157/157 152/152/152 
f 158/158/158 159/159/159 157/157/157 
f 158/158/158 160/160/160 159/159/159 
f 158/158/158 161/161/161 160/160/160 
f 162/162/162 164/164/164 163/163/163 
f 162/162/162 165/165/165 164/164/164 
f 162/162/162 166/166/166 165/165/165 
f 162/162/162 167/167/167 166/166/166 
f 162/162/162 168/168/168 167/167/167 
f 167/167/167 168/168/168 169/169/169 
f 169/169/169 168/168/168 170/170/170 
f 171/171/171 168/168/168 162/162/162 
f 170/170/170 168/168/168 172/172/172 
f 170/170/170 172/172/172 173/173/173 
f 171/171/171 174/174/174 168/168/168 
f 175/175/175 174/174/174 171/171/171 
f 175/175/175 171/171/171 176/176/176 
f 176/176/176 177/177/177 175/175/175 
f 176/176/176 178/178/178 177/177/177 
f 179/179/179 178/178/178 176/176/176 
f 178/178/178 179/179/179 180/180/180 
f 178/178/178 180/180/180 181/181/181 
f 181/181/181 180/180/180 182/182/182 
f 178/178/178 181/181/181 183/183/183 
f 178/178/178 183/183/183 184/184/184 
f 178/178/178 184/184/184 185/185/185 
f 186/186/186 185/185/185 184/184/184 
f 186/186/186 184/184/184 187/187/187 
f 188/188/188 186/186/186 187/187/187 
f 181/181/181 182/182/182 189/189/189 
f 188/188/188 190/190/190 186/186/186 
f 189/189/189 182/182/182 191/191/191 
f 191/191/191 182/182/182 192/192/192 
f 191/191/191 192/192/192 193/193/193 
f 189/189/189 191/191/191 194/194/194 
f 189/189/189 194/194/194 195/195/195 
f 196/196/196 190/190/190 188/188/188 
f 196/196/196 188/188/188 197/197/197 
f 198/198/198 190/190/190 196/196/196 
f 198/198/198 199/199/199 190/190/190 
f 200/200/200 199/199/199 198/198/198 
f 200/200/200 201/201/201 199/199/199 
f 196/196/196 197/197/197 202/202/202 
f 203/203/203 201/201/201 200/200/200 
f 202/202/202 197/197/197 204/204/204 
f 203/203/203 205/205/205 201/201/201 
f 202/202/202 204/204/204 206/206/206 
f 206/206/206 204/204/204 207/207/207 
f 206/206/206 207/207/207 208/208/208 
f 202/202/202 206/206/206 209/209/209 
f 202/202/202 209/209/209 210/210/210 
f 203/203/203 211/211/211 205/205/205 
f 203/203/203 212/212/212 211/211/211 
f 213/213/213 212/212/212 203/203/203 
f 213/213/213 203/203/203 214/214/214 
f 213/213/213 214/214/214 215/215/215 
f 205/205/205 211/211/211 216/216/216 
f 205/205/205 216/216/216 217/217/217 
f 205/205/205 217/217/217 218/218/218 
f 205/205/205 218/218/218 219/219/219 
f 220/220/220 222/222/222 221/221/221 
f 223/223/223 221/221/221 222/222/222 
f 223/223/223 222/222/222 224/224/224 
f 225/225/225 223/223/223 224/224/224 
f 223/223/223 226/226/226 221/221/221 
f 221/221/221 226/226/226 227/227/227 
f 228/228/228 227/227/227 226/226/226 
f 228/228/228 226/226/226 229/229/229 
f 228/228/228 229/229/229 230/230/230 
f 230/230/230 229/229/229 231/231/231 
f 229/229/229 232/232/232 231/231/231 
f 229/229/229 233/233/233 232/232/232 
f 229/229/229 234/234/234 233/233/233 
f 229/229/229 235/235/235 234/234/234 
f 229/229/229 236/236/236 235/235/235 
f 229/229/229 237/237/237 236/236/236 
f 229/229/229 238/238/238 237/237/237 
f 239/239/239 238/238/238 229/229/229 
f 226/226/226 239/239/239 229/229/229 
f 226/226/226 240/240/240 239/239/239 
f 240/240/240 226/226/226 241/241/241 
f 226/226/226 242/242/242 241/241/241 
f 223/223/223 242/242/242 226/226/226 
f 243/243/243 242/242/242 223/223/223 
f 223/223/223 244/244/244 243/243/243 
f 245/245/245 243/243/243 244/244/244 
f 243/243/243 245/245/245 246/246/246 
f 243/243/243 246/246/246 247/247/247 
f 246/246/246 248/248/248 247/247/247 
f 247/247/247 248/248/248 249/249/249 
f 247/247/247 249/249/249 250/250/250 
f 247/247/247 250/250/250 251/251/251 
f 247/247/247 251/251/251 252/252/252 
f 247/247/247 252/252/252 253/253/253 
f 247/247/247 253/253/253 254/254/254 
f 247/247/247 254/254/254 255/255/255 
f 256/256/256 247/247/247 255/255/255 
f 243/243/243 247/247/247 256/256/256 
f 243/243/243 256/256/256 257/257/257 
f 257/257/257 258/258/258 243/243/243 
f 243/243/243 258/258/258 259/259/259 
f 242/242/242 243/243/243 259/259/259 
f 260/260/260 242/242/242 259/259/259 
f 260/260/260 261/261/261 242/242/242 
f 260/260/260 259/259/259 262/262/262 
f 262/262/262 259/259/259 263/263/263 
f 264/264/264 266/266/266 265/265/265 
f 264/264/264 265/265/265 267/267/267 
f 268/268/268 264/264/264 267/267/267 
f 269/269/269 264/264/264 268/268/268 
f 270/270/270 264/264/264 269/269/269 
f 270/270/270 271/271/271 264/264/264 
f 270/270/270 272/272/272 271/271/271 
f 270/270/270 273/273/273 272/272/272 
f 273/273/273 274/274/274 272/272/272 
f 273/273/273 275/275/275 274/274/274 
f 276/276/276 267/267/267 265/265/265 
f 276/276/276 268/268/268 267/267/267 
f 276/276/276 265/265/265 277/277/277 
f 276/276/276 277/277/277 278/278/278 
f 276/276/276 278/278/278 279/279/279 
f 268/268/268 276/276/276 279/279/279 
f 278/278/278 280/280/280 279/279/279 
f 278/278/278 281/281/281 280/280/280 
f 280/280/280 281/281/281 282/282/282 
f 279/279/279 280/280/280 283/283/283 
f 268/268/268 279/279/279 283/283/283 
f 283/283/283 280/280/280 284/284/284 
f 280/280/280 282/282/282 284/284/284 
f 283/283/283 284/284/284 285/285/285 
f 282/282/282 285/285/285 284/284/284 
f 286/286/286 268/268/268 283/283/283 
f 282/282/282 287/287/287 285/285/285 
f 285/285/285 287/287/287 288/288/288 
f 285/285/285 288/288/288 289/289/289 
f 283/283/283 285/285/285 289/289/289 
f 288/288/288 290/290/290 289/289/289 
f 283/283/283 289/289/289 290/290/290 
f 288/288/288 291/291/291 290/290/290 
f 290/290/290 291/291/291 292/292/292 
f 290/290/290 292/292/292 293/293/293 
f 283/283/283 290/290/290 293/293/293 
f 292/292/292 294/294/294 293/293/293 
f 283/283/283 293/293/293 294/294/294 
f 292/292/292 295/295/295 294/294/294 
f 294/294/294 295/295/295 296/296/296 
f 283/283/283 294/294/294 297/297/297 
f 294/294/294 296/296/296 297/297/297 
f 298/298/298 283/283/283 297/297/297 
f 296/296/296 298/298/298 297/297/297 
f 296/296/296 299/299/299 298/298/298 
f 286/286/286 283/283/283 298/298/298 
f 300/300/300 298/298/298 299/299/299 
f 300/300/300 286/286/286 298/298/298 
f 301/301/301 286/286/286 300/300/300 
f 301/301/301 300/300/300 302/302/302 
f 303/303/303 301/301/301 302/302/302 
f 286/286/286 301/301/301 268/268/268 
f 303/303/303 304/304/304 301/301/301 
f 304/304/304 268/268/268 301/301/301 
f 268/268/268 304/304/304 305/305/305 
f 305/305/305 304/304/304 306/306/306 
f 305/305/305 306/306/306 307/307/307 
f 308/308/308 307/307/307 306/306/306 
f 308/308/308 306/306/306 309/309/309 
f 310/310/310 308/308/308 309/309/309 
f 310/310/310 309/309/309 311/311/311 
f 312/312/312 310/310/310 311/311/311 
f 311/311/311 313/313/313 312/312/312 
f 314/314/314 312/312/312 313/313/313 
f 315/315/315 313/313/313 311/311/311 
f 315/315/315 316/316/316 313/313/313 
f 314/314/314 313/313/313 316/316/316 
f 314/314/314 316/316/316 317/317/317 
f 314/314/314 317/317/317 318/318/318 
f 314/314/314 318/318/318 319/319/319 
f 312/312/312 314/314/314 319/319/319 
f 320/320/320 319/319/319 318/318/318 
f 312/312/312 319/319/319 321/321/321 
f 319/319/319 322/322/322 321/321/321 
f 320/320/320 322/322/322 319/319/319 
f 321/321/321 322/322/322 323/323/323 
f 323/323/323 322/322/322 320/320/320 
f 312/312/312 321/321/321 324/324/324 
f 323/323/323 320/320/320 325/325/325 
f 326/326/326 323/323/323 325/325/325 
f 326/326/326 327/327/327 323/323/323 
f 321/321/321 323/323/323 327/327/327 
f 328/328/328 327/327/327 326/326/326 
f 321/321/321 327/327/327 328/328/328 
f 328/328/328 326/326/326 329/329/329 
f 330/330/330 328/328/328 329/329/329 
f 330/330/330 331/331/331 328/328/328 
f 321/321/321 328/328/328 331/331/331 
f 332/332/332 331/331/331 330/330/330 
f 321/321/321 331/331/331 332/332/332 
f 332/332/332 330/330/330 333/333/333 
f 334/334/334 332/332/332 333/333/333 
f 321/321/321 332/332/332 335/335/335 
f 334/334/334 335/335/335 332/332/332 
f 321/321/321 335/335/335 336/336/336 
f 336/336/336 335/335/335 334/334/334 
f 324/324/324 321/321/321 336/336/336 
f 336/336/336 334/334/334 337/337/337 
f 338/338/338 336/336/336 337/337/337 
f 338/338/338 324/324/324 336/336/336 
f 339/339/339 324/324/324 338/338/338 
f 339/339/339 340/340/340 324/324/324 
f 312/312/312 324/324/324 340/340/340 
f 341/341/341 340/340/340 339/339/339 
f 340/340/340 341/341/341 312/312/312 
f 341/341/341 339/339/339 342/342/342 
f 312/312/312 341/341/341 343/343/343 
f 343/343/343 341/341/341 342/342/342 
f 344/344/344 312/312/312 343/343/343 
f 343/343/343 342/342/342 345/345/345 
f 346/346/346 348/348/348 347/347/347 
f 346/346/346 349/349/349 348/348/348 
f 349/349/349 350/350/350 348/348/348 
f 349/349/349 351/351/351 350/350/350 
f 351/351/351 352/352/352 350/350/350 
f 351/351/351 353/353/353 352/352/352 
f 353/353/353 354/354/354 352/352/352 
f 353/353/353 355/355/355 354/354/354 
f 355/355/355 356/356/356 354/354/354 
f 355/355/355 357/357/357 356/356/356 
f 357/357/357 358/358/358 356/356/356 
f 357/357/357 359/359/359 358/358/358 
f 359/359/359 360/360/360 358/358/358 
f 359/359/359 361/361/361 360/360/360 
f 361/361/361 362/362/362 360/360/360 
f 361/361/361 363/363/363 362/362/362 
f 363/363/363 364/364/364 362/362/362 
f 363/363/363 365/365/365 364/364/364 
f 365/365/365 366/366/366 364/364/364 
f 365/365/365 367/367/367 366/366/366 
f 367/367/367 368/368/368 366/366/366 
f 367/367/367 369/369/369 368/368/368 
f 369/369/369 370/370/370 368/368/368 
f 369/369/369 371/371/371 370/370/370 
f 371/371/371 372/372/372 370/370/370 
f 371/371/371 373/373/373 372/372/372 
f 373/373/373 374/374/374 372/372/372 
f 373/373/373 375/375/375 374/374/374 
f 375/375/375 376/376/376 374/374/374 
f 375/375/375 377/377/377 376/376/376 
f 377/377/377 378/378/378 376/376/376 
f 377/377/377 379/379/379 378/378/378 
f 379/379/379 380/380/380 378/378/378 
f 379/379/379 381/381/381 380/380/380 
f 381/381/381 382/382/382 380/380/380 
f 381/381/381 383/383/383 382/382/382 
f 383/383/383 384/384/384 382/382/382 
f 383/383/383 385/385/385 384/384/384 
f 384/384/384 385/385/385 386/386/386 
f 384/384/384 386/386/386 387/387/387 
f 388/388/388 390/390/390 389/389/389 
f 391/391/391 388/388/388 389/389/389 
f 390/390/390 392/392/392 389/389/389 
f 393/393/393 391/391/391 389/389/389 
f 392/392/392 394/394/394 389/389/389 
f 395/395/395 393/393/393 389/389/389 
f 394/394/394 396/396/396 389/389/389 
f 397/397/397 395/395/395 389/389/389 
f 396/396/396 398/398/398 389/389/389 
f 399/399/399 397/397/397 389/389/389 
f 398/398/398 400/400/400 389/389/389 
f 401/401/401 399/399/399 389/389/389 
f 400/400/400 402/402/402 389/389/389 
f 403/403/403 401/401/401 389/389/389 
f 402/402/402 404/404/404 389/389/389 
f 405/405/405 403/403/403 389/389/389 
f 404/404/404 406/406/406 389/389/389 
f 407/407/407 405/405/405 389/389/389 
f 406/406/406 408/408/408 389/389/389 
f 408/408/408 407/407/407 389/389/389 
f 409/409/409 411/411/411 410/410/410 
f 412/412/412 409/409/409 410/410/410 
f 411/411/411 413/413/413 410/410/410 
f 414/414/414 412/412/412 410/410/410 
f 413/413/413 415/415/415 410/410/410 
f 416/416/416 414/414/414 410/410/410 
f 415/415/415 417/417/417 410/410/410 
f 418/418/418 416/416/416 410/410/410 
f 417/417/417 419/419/419 410/410/410 
f 420/420/420 418/418/418 410/410/410 
f 419/419/419 421/421/421 410/410/410 
f 422/422/422 420/420/420 410/410/410 
f 421/421/421 423/423/423 410/410/410 
f 424/424/424 422/422/422 410/410/410 
f 423/423/423 425/425/425 410/410/410 
f 426/426/426 424/424/424 410/410/410 
f 425/425/425 427/427/427 410/410/410 
f 428/428/428 426/426/426 410/410/410 
f 427/427/427 429/429/429 410/410/410 
f 429/429/429 428/428/428 410/410/410 
f 430/430/430 432/432/432 431/431/431 
f 430/430/430 431/431/431 433/433/433 
f 434/434/434 430/430/430 433/433/433 
f 435/435/435 430/430/430 434/434/434 
f 434/434/434 433/433/433 436/436/436 
f 430/430/430 437/437/437 432/432/432 
f 435/435/435 437/437/437 430/430/430 
f 437/437/437 438/438/438 432/432/432 
f 437/437/437 439/439/439 438/438/438 
f 439/439/439 440/440/440 438/438/438 
f 439/439/439 437/437/437 441/441/441 
f 435/435/435 441/441/441 437/437/437 
f 439/439/439 441/441/441 442/442/442 
f 442/442/442 441/441/441 443/443/443 
f 441/441/441 444/444/444 443/443/443 
f 441/441/441 435/435/435 444/444/444 
f 444/444/444 435/435/435 445/445/445 
f 435/435/435 446/446/446 445/445/445 
f 442/442/442 443/443/443 447/447/447 
f 435/435/435 448/448/448 446/446/446 
f 448/448/448 449/449/449 446/446/446 
f 448/448/448 450/450/450 449/449/449 
f 435/435/435 434/434/434 448/448/448 
f 450/450/450 451/451/451 449/449/449 
f 439/439/439 452/452/452 440/440/440 
f 452/452/452 453/453/453 440/440/440 
f 452/452/452 454/454/454 453/453/453 
f 439/439/439 454/454/454 452/452/452 
f 454/454/454 455/455/455 453/453/453 
f 454/454/454 456/456/456 455/455/455 
f 439/439/439 456/456/456 454/454/454 
f 456/456/456 457/457/457 455/455/455 
f 456/456/456 458/458/458 457/457/457 
f 439/439/439 458/458/458 456/456/456 
f 458/458/458 459/459/459 457/457/457 
f 439/439/439 460/460/460 458/458/458 
f 458/458/458 460/460/460 459/459/459 
f 442/442/442 460/460/460 439/439/439 
f 460/460/460 461/461/461 459/459/459 
f 460/460/460 462/462/462 461/461/461 
f 442/442/442 462/462/462 460/460/460 
f 461/461/461 462/462/462 463/463/463 
f 442/442/442 463/463/463 462/462/462 
f 461/461/461 463/463/463 464/464/464 
f 463/463/463 465/465/465 464/464/464 
f 463/463/463 466/466/466 465/465/465 
f 442/442/442 466/466/466 463/463/463 
f 466/466/466 467/467/467 465/465/465 
f 442/442/442 468/468/468 466/466/466 
f 466/466/466 468/468/468 467/467/467 
f 468/468/468 442/442/442 447/447/447 
f 468/468/468 447/447/447 467/467/467 
f 450/450/450 469/469/469 451/451/451 
f 469/469/469 470/470/470 451/451/451 
f 469/469/469 471/471/471 470/470/470 
f 450/450/450 471/471/471 469/469/469 
f 471/471/471 472/472/472 470/470/470 
f 471/471/471 473/473/473 472/472/472 
f 450/450/450 473/473/473 471/471/471 
f 473/473/473 474/474/474 472/472/472 
f 473/473/473 475/475/475 474/474/474 
f 475/475/475 476/476/476 474/474/474 
f 475/475/475 477/477/477 476/476/476 
f 473/473/473 477/477/477 475/475/475 
f 477/477/477 478/478/478 476/476/476 
f 473/473/473 479/479/479 477/477/477 
f 477/477/477 479/479/479 478/478/478 
f 450/450/450 479/479/479 473/473/473 
f 479/479/479 480/480/480 478/478/478 
f 450/450/450 481/481/481 479/479/479 
f 479/479/479 481/481/481 480/480/480 
f 448/448/448 481/481/481 450/450/450 
f 481/481/481 482/482/482 480/480/480 
f 434/434/434 481/481/481 448/448/448 
f 481/481/481 483/483/483 482/482/482 
f 434/434/434 483/483/483 481/481/481 
f 483/483/483 484/484/484 482/482/482 
f 485/485/485 483/483/483 434/434/434 
f 485/485/485 434/434/434 436/436/436 
f 485/485/485 436/436/436 486/486/486 
f 485/485/485 486/486/486 487/487/487 
f 483/483/483 488/488/488 484/484/484 
f 485/485/485 488/488/488 483/483/483 
f 489/489/489 484/484/484 488/488/488 
f 485/485/485 487/487/487 490/490/490 
f 488/488/488 485/485/485 490/490/490 
f 489/489/489 488/488/488 491/491/491 
f 488/488/488 490/490/490 491/491/491 
f 491/491/491 492/492/492 489/489/489 
f 491/491/491 493/493/493 492/492/492 
f 490/490/490 493/493/493 491/491/491 
f 493/493/493 494/494/494 492/492/492 
f 495/495/495 490/490/490 487/487/487 
f 490/490/490 495/495/495 493/493/493 
f 495/495/495 487/487/487 496/496/496 
f 493/493/493 497/497/497 494/494/494 
f 495/495/495 497/497/497 493/493/493 
f 497/497/497 498/498/498 494/494/494 
f 499/499/499 495/495/495 496/496/496 
f 499/499/499 496/496/496 500/500/500 
f 497/497/497 501/501/501 498/498/498 
f 501/501/501 502/502/502 498/498/498 
f 495/495/495 503/503/503 497/497/497 
f 499/499/499 503/503/503 495/495/495 
f 504/504/504 499/499/499 500/500/500 
f 504/504/504 500/500/500 505/505/505 
f 506/506/506 504/504/504 505/505/505 
f 506/506/506 505/505/505 507/507/507 
f 501/501/501 508/508/508 502/502/502 
f 508/508/508 509/509/509 502/502/502 
f 508/508/508 510/510/510 509/509/509 
f 501/501/501 510/510/510 508/508/508 
f 510/510/510 511/511/511 509/509/509 
f 510/510/510 512/512/512 511/511/511 
f 501/501/501 512/512/512 510/510/510 
f 512/512/512 513/513/513 511/511/511 
f 499/499/499 514/514/514 503/503/503 
f 504/504/504 514/514/514 499/499/499 
f 515/515/515 504/504/504 506/506/506 
f 515/515/515 516/516/516 504/504/504 
f 504/504/504 516/516/516 514/514/514 
f 516/516/516 515/515/515 517/517/517 
f 516/516/516 517/517/517 518/518/518 
f 514/514/514 516/516/516 518/518/518 
f 514/514/514 518/518/518 519/519/519 
f 503/503/503 514/514/514 519/519/519 
f 503/503/503 519/519/519 520/520/520 
f 515/515/515 521/521/521 517/517/517 
f 522/522/522 503/503/503 520/520/520 
f 497/497/497 503/503/503 522/522/522 
f 497/497/497 522/522/522 501/501/501 
f 522/522/522 520/520/520 523/523/523 
f 501/501/501 522/522/522 512/512/512 
f 524/524/524 522/522/522 523/523/523 
f 512/512/512 522/522/522 524/524/524 
f 524/524/524 523/523/523 525/525/525 
f 512/512/512 524/524/524 526/526/526 
f 526/526/526 524/524/524 525/525/525 
f 512/512/512 526/526/526 513/513/513 
f 526/526/526 525/525/525 513/513/513 
f 515/515/515 527/527/527 521/521/521 
f 527/527/527 528/528/528 521/521/521 
f 527/527/527 529/529/529 528/528/528 
f 515/515/515 529/529/529 527/527/527 
f 529/529/529 530/530/530 528/528/528 
f 529/529/529 531/531/531 530/530/530 
f 515/515/515 531/531/531 529/529/529 
f 532/532/532 530/530/530 531/531/531 
f 532/532/532 531/531/531 533/533/533 
f 515/515/515 533/533/533 531/531/531 
f 533/533/533 534/534/534 532/532/532 
f 515/515/515 535/535/535 533/533/533 
f 533/533/533 535/535/535 534/534/534 
f 535/535/535 536/536/536 534/534/534 
f 515/515/515 506/506/506 535/535/535 
f 535/535/535 537/537/537 536/536/536 
f 535/535/535 506/506/506 537/537/537 
f 537/537/537 538/538/538 536/536/536 
f 537/537/537 539/539/539 538/538/538 
f 537/537/537 506/506/506 539/539/539 
f 539/539/539 540/540/540 538/538/538 
f 539/539/539 506/506/506 541/541/541 
f 541/541/541 506/506/506 507/507/507 
f 541/541/541 507/507/507 542/542/542 
f 539/539/539 543/543/543 540/540/540 
f 539/539/539 541/541/541 543/543/543 
f 543/543/543 542/542/542 540/540/540 
f 543/543/543 541/541/541 542/542/542 
f 544/544/544 546/546/546 545/545/545 
f 547/547/547 544/544/544 545/545/545 
f 547/547/547 545/545/545 548/548/548 
f 544/544/544 549/549/549 546/546/546 
f 549/549/549 550/550/550 546/546/546 
f 551/551/551 547/547/547 548/548/548 
f 551/551/551 548/548/548 552/552/552 
f 544/544/544 547/547/547 553/553/553 
f 549/549/549 544/544/544 553/553/553 
f 547/547/547 551/551/551 553/553/553 
f 549/549/549 554/554/554 550/550/550 
f 554/554/554 549/549/549 553/553/553 
f 554/554/554 555/555/555 550/550/550 
f 556/556/556 552/552/552 555/555/555 
f 556/556/556 551/551/551 552/552/552 
f 551/551/551 556/556/556 553/553/553 
f 554/554/554 556/556/556 555/555/555 
f 556/556/556 554/554/554 553/553/553 
f 557/557/557 559/559/559 558/558/558 
f 560/560/560 557/557/557 558/558/558 
f 560/560/560 558/558/558 561/561/561 
f 557/557/557 562/562/562 559/559/559 
f 562/562/562 563/563/563 559/559/559 
f 564/564/564 560/560/560 561/561/561 
f 564/564/564 561/561/561 565/565/565 
f 557/557/557 560/560/560 566/566/566 
f 562/562/562 557/557/557 566/566/566 
f 560/560/560 564/564/564 566/566/566 
f 562/562/562 567/567/567 563/563/563 
f 567/567/567 562/562/562 566/566/566 
f 567/567/567 568/568/568 563/563/563 
f 569/569/569 565/565/565 568/568/568 
f 569/569/569 564/564/564 565/565/565 
f 564/564/564 569/569/569 566/566/566 
f 567/567/567 569/569/569 568/568/568 
f 569/569/569 567/567/567 566/566/566 
