# exported by StudySceneExporter from mesh 'Tool_Cabinet_Handles_low'
mtllib materials.mtl
v -0.1400225 -0.3126316 0.1662011
v -0.1915009 0.2760665 0.1669622
v -0.1362124 -0.3122736 0.1669622
v -0.195311 0.2757085 0.1662011
v -0.1432525 -0.3129351 0.1640333
v -0.198541 0.275405 0.1640333
v -0.1454107 -0.3131379 0.1607891
v -0.2006992 0.2752021 0.1607891
v -0.1461686 -0.3132092 0.1569622
v -0.2014571 0.2751309 0.1569622
v -0.1441383 -0.3130184 0.1569622
v -0.1454107 -0.3131379 0.1607891
v -0.143535 -0.3129617 0.1600087
v -0.1432525 -0.3129351 0.1640333
v -0.1418169 -0.3128003 0.1625914
v -0.1400225 -0.3126316 0.1662011
v -0.1392456 -0.3125586 0.1643171
v -0.1362124 -0.3122736 0.1669622
v -0.1362124 -0.3122736 0.1649231
v -0.1994268 0.2753217 0.1569622
v -0.143535 -0.3129617 0.1600087
v -0.1988235 0.2753784 0.1600087
v -0.1988235 0.2753784 0.1600087
v -0.2006992 0.2752021 0.1607891
v -0.1418169 -0.3128003 0.1625914
v -0.1971054 0.2755399 0.1625914
v -0.1971054 0.2755399 0.1625914
v -0.198541 0.275405 0.1640333
v -0.1392456 -0.3125586 0.1643171
v -0.194534 0.2757815 0.1643171
v -0.194534 0.2757815 0.1643171
v -0.1362124 -0.3122736 0.1649231
v -0.1915009 0.2760665 0.1649231
v -0.195311 0.2757085 0.1662011
v -0.1915009 0.2760665 0.1649231
v -0.1915009 0.2760665 0.1669622
v -0.1400225 -0.3126316 0.05999329
v -0.1915009 0.2760665 0.06075447
v -0.1362124 -0.3122736 0.06075447
v -0.195311 0.2757085 0.05999329
v -0.1432525 -0.3129351 0.05782555
v -0.198541 0.275405 0.05782555
v -0.1454107 -0.3131379 0.0545813
v -0.2006992 0.2752021 0.0545813
v -0.1461686 -0.3132092 0.05075447
v -0.2014571 0.2751309 0.05075447
v -0.1441383 -0.3130184 0.05075447
v -0.1454107 -0.3131379 0.0545813
v -0.143535 -0.3129617 0.05380096
v -0.1432525 -0.3129351 0.05782555
v -0.1418169 -0.3128003 0.05638367
v -0.1400225 -0.3126316 0.05999329
v -0.1392456 -0.3125586 0.05810936
v -0.1362124 -0.3122736 0.06075447
v -0.1362124 -0.3122736 0.05871528
v -0.1994268 0.2753217 0.05075447
v -0.143535 -0.3129617 0.05380096
v -0.1988235 0.2753784 0.05380096
v -0.1988235 0.2753784 0.05380096
v -0.2006992 0.2752021 0.0545813
v -0.1418169 -0.3128003 0.05638367
v -0.1971054 0.2755399 0.05638367
v -0.1971054 0.2755399 0.05638367
v -0.198541 0.275405 0.05782555
v -0.1392456 -0.3125586 0.05810936
v -0.194534 0.2757815 0.05810936
v -0.194534 0.2757815 0.05810936
v -0.1362124 -0.3122736 0.05871528
v -0.1915009 0.2760665 0.05871528
v -0.195311 0.2757085 0.05999329
v -0.1915009 0.2760665 0.05871528
v -0.1915009 0.2760665 0.06075447
v -0.1400225 -0.3126316 0.008835793
v -0.1915009 0.2760665 0.009596977
v -0.1362124 -0.3122736 0.009596977
v -0.195311 0.2757085 0.008835793
v -0.1432525 -0.3129351 0.006668053
v -0.198541 0.275405 0.006668053
v -0.1454107 -0.3131379 0.003423805
v -0.2006992 0.2752021 0.003423805
v -0.1461686 -0.3132092 -0.0004030227
v -0.2014571 0.2751309 -0.0004030227
v -0.1441383 -0.3130184 -0.0004030227
v -0.1454107 -0.3131379 0.003423805
v -0.143535 -0.3129617 0.002643471
v -0.1432525 -0.3129351 0.006668053
v -0.1418169 -0.3128003 0.005226173
v -0.1400225 -0.3126316 0.008835793
v -0.1392456 -0.3125586 0.006951866
v -0.1362124 -0.3122736 0.009596977
v -0.1362124 -0.3122736 0.007557793
v -0.1994268 0.2753217 -0.0004030227
v -0.143535 -0.3129617 0.002643471
v -0.1988235 0.2753784 0.002643471
v -0.1988235 0.2753784 0.002643471
v -0.2006992 0.2752021 0.003423805
v -0.1418169 -0.3128003 0.005226173
v -0.1971054 0.2755399 0.005226173
v -0.1971054 0.2755399 0.005226173
v -0.198541 0.275405 0.006668053
v -0.1392456 -0.3125586 0.006951866
v -0.194534 0.2757815 0.006951866
v -0.194534 0.2757815 0.006951866
v -0.1362124 -0.3122736 0.007557793
v -0.1915009 0.2760665 0.007557793
v -0.195311 0.2757085 0.008835793
v -0.1915009 0.2760665 0.007557793
v -0.1915009 0.2760665 0.009596977
v -0.1400225 -0.3126316 -0.04232185
v -0.1915009 0.2760665 -0.04156067
v -0.1362124 -0.3122736 -0.04156067
v -0.195311 0.2757085 -0.04232185
v -0.1432525 -0.3129351 -0.04448959
v -0.198541 0.275405 -0.04448959
v -0.1454107 -0.3131379 -0.04773384
v -0.2006992 0.2752021 -0.04773384
v -0.1461686 -0.3132092 -0.05156067
v -0.2014571 0.2751309 -0.05156067
v -0.1441383 -0.3130184 -0.05156067
v -0.1454107 -0.3131379 -0.04773384
v -0.143535 -0.3129617 -0.04851418
v -0.1432525 -0.3129351 -0.04448959
v -0.1418169 -0.3128003 -0.04593147
v -0.1400225 -0.3126316 -0.04232185
v -0.1392456 -0.3125586 -0.04420578
v -0.1362124 -0.3122736 -0.04156067
v -0.1362124 -0.3122736 -0.04359985
v -0.1994268 0.2753217 -0.05156067
v -0.143535 -0.3129617 -0.04851418
v -0.1988235 0.2753784 -0.04851418
v -0.1988235 0.2753784 -0.04851418
v -0.2006992 0.2752021 -0.04773384
v -0.1418169 -0.3128003 -0.04593147
v -0.1971054 0.2755399 -0.04593147
v -0.1971054 0.2755399 -0.04593147
v -0.198541 0.275405 -0.04448959
v -0.1392456 -0.3125586 -0.04420578
v -0.194534 0.2757815 -0.04420578
v -0.194534 0.2757815 -0.04420578
v -0.1362124 -0.3122736 -0.04359985
v -0.1915009 0.2760665 -0.04359985
v -0.195311 0.2757085 -0.04232185
v -0.1915009 0.2760665 -0.04359985
v -0.1915009 0.2760665 -0.04156067
v -0.1400225 -0.3126316 -0.09347946
v -0.1915009 0.2760665 -0.09271827
v -0.1362124 -0.3122736 -0.09271827
v -0.195311 0.2757085 -0.09347946
v -0.1432525 -0.3129351 -0.0956472
v -0.198541 0.275405 -0.0956472
v -0.1454107 -0.3131379 -0.09889144
v -0.2006992 0.2752021 -0.09889144
v -0.1461686 -0.3132092 -0.1027183
v -0.2014571 0.2751309 -0.1027183
v -0.1441383 -0.3130184 -0.1027183
v -0.1454107 -0.3131379 -0.09889144
v -0.143535 -0.3129617 -0.09967178
v -0.1432525 -0.3129351 -0.0956472
v -0.1418169 -0.3128003 -0.09708908
v -0.1400225 -0.3126316 -0.09347946
v -0.1994268 0.2753217 -0.1027183
v -0.143535 -0.3129617 -0.09967178
v -0.1988235 0.2753784 -0.09967178
v -0.1988235 0.2753784 -0.09967178
v -0.2006992 0.2752021 -0.09889144
v -0.1971054 0.2755399 -0.09708908
v -0.198541 0.275405 -0.0956472
v -0.194534 0.2757815 -0.09536339
v -0.195311 0.2757085 -0.09347946
v -0.1915009 0.2760665 -0.09475746
v -0.1915009 0.2760665 -0.09271827
v -0.1971054 0.2755399 -0.09708908
v -0.1392456 -0.3125586 -0.09536339
v -0.1362124 -0.3122736 -0.09271827
v -0.194534 0.2757815 -0.09536339
v -0.1362124 -0.3122736 -0.09475746
v -0.1915009 0.2760665 -0.09475746
v -0.1400225 -0.3126316 -0.1865294
v -0.1915009 0.2760665 -0.1857682
v -0.1362124 -0.3122736 -0.1857682
v -0.195311 0.2757085 -0.1865294
v -0.1432525 -0.3129351 -0.1886972
v -0.198541 0.275405 -0.1886972
v -0.1454107 -0.3131379 -0.1919414
v -0.2006992 0.2752021 -0.1919414
v -0.1461686 -0.3132092 -0.1957682
v -0.2014571 0.2751309 -0.1957682
v -0.1441383 -0.3130184 -0.1957682
v -0.1454107 -0.3131379 -0.1919414
v -0.143535 -0.3129617 -0.1927217
v -0.1432525 -0.3129351 -0.1886972
v -0.1418169 -0.3128003 -0.190139
v -0.1400225 -0.3126316 -0.1865294
v -0.1392456 -0.3125586 -0.1884134
v -0.1362124 -0.3122736 -0.1857682
v -0.1362124 -0.3122736 -0.1878074
v -0.1994268 0.2753217 -0.1957682
v -0.143535 -0.3129617 -0.1927217
v -0.1988235 0.2753784 -0.1927217
v -0.1988235 0.2753784 -0.1927217
v -0.2006992 0.2752021 -0.1919414
v -0.1418169 -0.3128003 -0.190139
v -0.1971054 0.2755399 -0.190139
v -0.1971054 0.2755399 -0.190139
v -0.198541 0.275405 -0.1886972
v -0.1392456 -0.3125586 -0.1884134
v -0.194534 0.2757815 -0.1884134
v -0.194534 0.2757815 -0.1884134
v -0.1362124 -0.3122736 -0.1878074
v -0.1915009 0.2760665 -0.1878074
v -0.195311 0.2757085 -0.1865294
v -0.1915009 0.2760665 -0.1878074
v -0.1915009 0.2760665 -0.1857682
v 0.1150086 0.3652431 0.1551358
v 0.1180676 0.3326929 0.1551358
v 0.1379799 0.3345641 0.1551358
v 0.134921 0.3671141 0.1551358
v 0.1379799 0.3345641 0.1801358
v 0.1382494 0.3316964 0.1551358
v 0.1382494 0.3316964 0.1801358
v 0.134921 0.3671141 0.1801358
v 0.1180676 0.3326929 0.1801358
v 0.1277855 0.3806999 0.1551358
v 0.1192792 0.3877006 0.1551358
v 0.1064492 0.3721801 0.1551358
v 0.1062858 0.372225 0.1551358
v 0.1044146 0.3921373 0.1551358
v -0.1167004 0.3512702 0.1551358
v 0.1192792 0.3877006 0.1801358
v 0.1277855 0.3806999 0.1801358
v 0.1150086 0.3652433 0.1801358
v 0.1064495 0.37218 0.1801358
v 0.1044146 0.3921373 0.1801358
v -0.1185717 0.3711824 0.1551358
v -0.1185717 0.3711824 0.1801358
v -0.1323495 0.3640541 0.1551358
v -0.1168529 0.3511955 0.1551358
v -0.1323495 0.3640541 0.1801358
v -0.1394026 0.3555912 0.1551358
v -0.1239698 0.3427855 0.1551358
v -0.1394026 0.3555912 0.1801358
v 0.1064492 0.3721801 0.1551358
v 0.1150086 0.3652431 0.1551358
v 0.1180676 0.3326929 0.1551358
v 0.1183371 0.3298252 0.1551358
v 0.1183371 0.3298252 0.1801358
v 0.1062858 0.372225 0.1801358
v 0.1062858 0.372225 0.1551358
v -0.1167004 0.3512702 0.1801358
v -0.1167004 0.3512702 0.1551358
v -0.1168529 0.3511955 0.1551358
v -0.1168526 0.3511956 0.1801358
v -0.1239698 0.3427855 0.1551358
v -0.1239698 0.3427854 0.1801358
v -0.120911 0.3102351 0.1801358
v -0.120911 0.3102351 0.1551358
v -0.1206416 0.3073675 0.1551358
v -0.1206416 0.3073675 0.1801358
v -0.1438822 0.340914 0.1801358
v -0.1408233 0.3083639 0.1801358
v -0.1438822 0.340914 0.1551358
v -0.1408233 0.3083639 0.1551358
v -0.120911 0.3102351 0.1551358
v -0.1405538 0.3054962 0.1551358
v -0.1405538 0.3054962 0.1801358
v 0.1180676 0.3326929 0.1801358
v 0.1183371 0.3298252 0.1927685
v 0.1183371 0.3298252 0.1801358
v 0.1180676 0.3326929 0.1927685
v 0.1379799 0.3345641 0.1801358
v 0.1189424 0.3327751 0.1948896
v 0.1192119 0.3299074 0.1948896
v 0.1210542 0.3329735 0.1957682
v 0.1213237 0.3301058 0.1957682
v 0.1352628 0.3314157 0.1957682
v 0.1379799 0.3345641 0.1927685
v 0.1382494 0.3316964 0.1801358
v 0.1382494 0.3316964 0.1927685
v 0.1373747 0.3316142 0.1948896
v 0.1349933 0.3342835 0.1957682
v 0.1371052 0.3344819 0.1948896
v 0.1379799 0.3345641 0.1551358
v 0.1382494 0.3316964 0.1425032
v 0.1382494 0.3316964 0.1551358
v 0.1379799 0.3345641 0.1425032
v 0.1180676 0.3326929 0.1551358
v 0.1371052 0.3344819 0.140382
v 0.1373747 0.3316142 0.140382
v 0.1349933 0.3342835 0.1395034
v 0.1352628 0.3314157 0.1395034
v 0.1213237 0.3301058 0.1395034
v 0.1180676 0.3326929 0.1425032
v 0.1183371 0.3298252 0.1551358
v 0.1183371 0.3298252 0.1425032
v 0.1192119 0.3299074 0.140382
v 0.1210542 0.3329735 0.1395034
v 0.1189424 0.3327751 0.140382
v -0.120911 0.3102351 0.1801358
v -0.1206416 0.3073675 0.1801358
v -0.1206416 0.3073675 0.1927685
v -0.120911 0.3102351 0.1927685
v -0.1408233 0.3083639 0.1927685
v -0.1408233 0.3083639 0.1801358
v -0.1405538 0.3054962 0.1801358
v -0.1405538 0.3054962 0.1927685
v -0.1396791 0.3055784 0.1948896
v -0.1217858 0.310153 0.1948896
v -0.1215163 0.3072852 0.1948896
v -0.1238976 0.3099545 0.1957682
v -0.1236281 0.3070868 0.1957682
v -0.1375673 0.3057769 0.1957682
v -0.1399486 0.3084461 0.1948896
v -0.1378368 0.3086446 0.1957682
v -0.1408233 0.3083639 0.1551358
v -0.1405538 0.3054962 0.1551358
v -0.1405538 0.3054962 0.1425032
v -0.1408233 0.3083639 0.1425032
v -0.120911 0.3102351 0.1425032
v -0.120911 0.3102351 0.1551358
v -0.1206416 0.3073675 0.1551358
v -0.1206416 0.3073675 0.1425032
v -0.1215163 0.3072852 0.140382
v -0.1399486 0.3084461 0.140382
v -0.1396791 0.3055784 0.140382
v -0.1378368 0.3086446 0.1395034
v -0.1375673 0.3057769 0.1395034
v -0.1236281 0.3070868 0.1395034
v -0.1217858 0.310153 0.140382
v -0.1238976 0.3099545 0.1395034
v -0.05743376 -0.3652431 0.1551358
v -0.06049274 -0.3326929 0.1551358
v -0.080405 -0.3345641 0.1551358
v -0.07734616 -0.3671141 0.1551358
v -0.080405 -0.3345641 0.1801358
v -0.08067449 -0.3316964 0.1551358
v -0.08067449 -0.3316964 0.1801358
v -0.07734616 -0.3671141 0.1801358
v -0.06049274 -0.3326929 0.1801358
v -0.07021059 -0.3806999 0.1551358
v -0.06170435 -0.3877006 0.1551358
v -0.04887433 -0.3721801 0.1551358
v -0.04871093 -0.372225 0.1551358
v -0.0468397 -0.3921373 0.1551358
v 0.1742753 -0.3512701 0.1551358
v -0.06170432 -0.3877006 0.1801358
v -0.0702106 -0.3806999 0.1801358
v -0.05743368 -0.3652433 0.1801358
v -0.04887465 -0.37218 0.1801358
v -0.0468397 -0.3921373 0.1801358
v 0.1761465 -0.3711824 0.1551358
v 0.1761465 -0.3711824 0.1801358
v 0.1899243 -0.3640541 0.1551358
v 0.1744278 -0.3511955 0.1551358
v 0.1899244 -0.3640541 0.1801358
v 0.1969775 -0.3555912 0.1551358
v 0.1815446 -0.3427856 0.1551358
v 0.1969775 -0.3555912 0.1801358
v -0.04887433 -0.3721801 0.1551358
v -0.05743376 -0.3652431 0.1551358
v -0.06049274 -0.3326929 0.1551358
v -0.06076222 -0.3298252 0.1551358
v -0.06076222 -0.3298252 0.1801358
v -0.04871093 -0.372225 0.1801358
v -0.04871093 -0.372225 0.1551358
v 0.1742753 -0.3512701 0.1801358
v 0.1742753 -0.3512701 0.1551358
v 0.1744278 -0.3511955 0.1551358
v 0.1744275 -0.3511956 0.1801358
v 0.1815446 -0.3427856 0.1551358
v 0.1815447 -0.3427854 0.1801358
v 0.1784859 -0.3102351 0.1801358
v 0.1784859 -0.3102352 0.1551358
v 0.1782164 -0.3073675 0.1551358
v 0.1782164 -0.3073675 0.1801358
v 0.2014571 -0.3409139 0.1801358
v 0.1983982 -0.3083639 0.1801358
v 0.2014571 -0.3409139 0.1551358
v 0.1983982 -0.3083639 0.1551358
v 0.1784859 -0.3102352 0.1551358
v 0.1981287 -0.3054962 0.1551358
v 0.1981287 -0.3054962 0.1801358
v -0.06049274 -0.3326929 0.1801358
v -0.06076222 -0.3298252 0.1927685
v -0.06076222 -0.3298252 0.1801358
v -0.06049274 -0.3326929 0.1927685
v -0.080405 -0.3345641 0.1801358
v -0.06136747 -0.3327751 0.1948896
v -0.06163696 -0.3299074 0.1948896
v -0.06347927 -0.3329735 0.1957682
v -0.06374876 -0.3301058 0.1957682
v -0.07768796 -0.3314157 0.1957682
v -0.080405 -0.3345641 0.1927685
v -0.08067449 -0.3316964 0.1801358
v -0.08067449 -0.3316964 0.1927685
v -0.07979976 -0.3316142 0.1948896
v -0.07741847 -0.3342834 0.1957682
v -0.07953027 -0.3344819 0.1948896
v -0.080405 -0.3345641 0.1551358
v -0.08067449 -0.3316964 0.1425032
v -0.08067449 -0.3316964 0.1551358
v -0.080405 -0.3345641 0.1425032
v -0.06049274 -0.3326929 0.1551358
v -0.07953027 -0.3344819 0.140382
v -0.07979976 -0.3316142 0.140382
v -0.07741847 -0.3342834 0.1395034
v -0.07768796 -0.3314157 0.1395034
v -0.06374876 -0.3301058 0.1395034
v -0.06049274 -0.3326929 0.1425032
v -0.06076222 -0.3298252 0.1551358
v -0.06076222 -0.3298252 0.1425032
v -0.06163696 -0.3299074 0.140382
v -0.06347927 -0.3329735 0.1395034
v -0.06136747 -0.3327751 0.140382
v 0.1784859 -0.3102351 0.1801358
v 0.1782164 -0.3073675 0.1801358
v 0.1782164 -0.3073675 0.1927685
v 0.1784859 -0.3102351 0.1927685
v 0.1983982 -0.3083639 0.1927685
v 0.1983982 -0.3083639 0.1801358
v 0.1981287 -0.3054962 0.1801358
v 0.1981287 -0.3054962 0.1927685
v 0.197254 -0.3055784 0.1948896
v 0.1793607 -0.3101529 0.1948896
v 0.1790912 -0.3072852 0.1948896
v 0.1814725 -0.3099545 0.1957682
v 0.181203 -0.3070868 0.1957682
v 0.1951422 -0.3057769 0.1957682
v 0.1975235 -0.3084461 0.1948896
v 0.1954116 -0.3086446 0.1957682
v 0.1983982 -0.3083639 0.1551358
v 0.1981287 -0.3054962 0.1551358
v 0.1981287 -0.3054962 0.1425032
v 0.1983982 -0.3083639 0.1425032
v 0.1784859 -0.3102352 0.1425032
v 0.1784859 -0.3102352 0.1551358
v 0.1782164 -0.3073675 0.1551358
v 0.1782164 -0.3073675 0.1425032
v 0.1790912 -0.3072852 0.140382
v 0.1975235 -0.3084461 0.140382
v 0.197254 -0.3055784 0.140382
v 0.1954116 -0.3086446 0.1395034
v 0.1951422 -0.3057769 0.1395034
v 0.181203 -0.3070868 0.1395034
v 0.1793607 -0.3101529 0.140382
v 0.1814725 -0.3099545 0.1395034
vt 0.9088145 0.3866725
vt 0.9063637 0.01411666
vt 0.9063547 0.3866725
vt 0.9088236 0.01411672
vt 0.9112746 0.3866726
vt 0.9112835 0.01411679
vt 0.9137344 0.3866726
vt 0.9137435 0.01411685
vt 0.9161943 0.3866727
vt 0.9162034 0.01411691
vt 0.91748 0.3866727
vt 0.9166741 0.3890854
vt 0.9178619 0.3885934
vt 0.9180408 0.3911307
vt 0.9189498 0.3902217
vt 0.920086 0.3924974
vt 0.9205781 0.3913097
vt 0.9224987 0.3929774
vt 0.9224987 0.3916918
vt 0.9174889 0.01411695
vt 0.9194382 0.3866728
vt 0.9178711 0.01219625
vt 0.9194472 0.01411698
vt 0.9166833 0.01170427
vt 0.9213966 0.3866729
vt 0.9189591 0.01056803
vt 0.9214056 0.01411701
vt 0.91805 0.009658962
vt 0.9233548 0.3866729
vt 0.9205873 0.009480096
vt 0.9233639 0.01411707
vt 0.9253131 0.386673
vt 0.9253221 0.01411713
vt 0.9200954 0.008292357
vt 0.922508 0.009098117
vt 0.9225081 0.0078125
vt 0.9479263 0.7794793
vt 0.9454753 0.4069231
vt 0.9454665 0.7794792
vt 0.9479353 0.4069231
vt 0.9503863 0.7794793
vt 0.9503952 0.4069232
vt 0.9528462 0.7794793
vt 0.9528551 0.4069232
vt 0.9553062 0.7794794
vt 0.955315 0.4069233
vt 0.9565917 0.7794794
vt 0.9557859 0.7818921
vt 0.9569737 0.7814001
vt 0.9571525 0.7839375
vt 0.9580616 0.7830284
vt 0.9591979 0.7853042
vt 0.9596899 0.7841165
vt 0.9616105 0.7857841
vt 0.9616105 0.7844986
vt 0.9566006 0.4069234
vt 0.95855 0.7794795
vt 0.9569827 0.4050027
vt 0.9585589 0.4069234
vt 0.955795 0.4045107
vt 0.9605083 0.7794796
vt 0.9580707 0.4033744
vt 0.9605172 0.4069234
vt 0.9571617 0.4024653
vt 0.9624667 0.7794797
vt 0.9596989 0.4022865
vt 0.9624755 0.4069235
vt 0.9644249 0.7794797
vt 0.9644338 0.4069236
vt 0.959207 0.4010988
vt 0.9616197 0.4019045
vt 0.9616197 0.4006189
vt 0.9366045 0.3866728
vt 0.9341535 0.01411664
vt 0.9341446 0.3866728
vt 0.9366134 0.0141167
vt 0.9390644 0.3866729
vt 0.9390733 0.01411676
vt 0.9415243 0.3866729
vt 0.9415333 0.01411682
vt 0.9439843 0.386673
vt 0.9439932 0.01411689
vt 0.9452699 0.386673
vt 0.9444641 0.3890857
vt 0.9456519 0.3885937
vt 0.9458307 0.391131
vt 0.9467398 0.390222
vt 0.947876 0.3924977
vt 0.948368 0.39131
vt 0.9502887 0.3929777
vt 0.9502887 0.3916921
vt 0.9452788 0.01411689
vt 0.9472282 0.386673
vt 0.9456609 0.01219626
vt 0.9472371 0.01411695
vt 0.9444731 0.01170428
vt 0.9491865 0.3866731
vt 0.9467489 0.010568
vt 0.9491954 0.01411701
vt 0.9458398 0.009658931
vt 0.9511448 0.3866731
vt 0.9483772 0.009480097
vt 0.9511536 0.01411708
vt 0.9531031 0.3866732
vt 0.9531119 0.01411708
vt 0.9478852 0.008292357
vt 0.9502978 0.009098056
vt 0.9502979 0.0078125
vt 0.9201364 0.8992319
vt 0.9176854 0.5266756
vt 0.9176765 0.8992318
vt 0.9201453 0.5266757
vt 0.9225963 0.8992319
vt 0.9226052 0.5266758
vt 0.9250562 0.899232
vt 0.9250651 0.5266758
vt 0.9275161 0.899232
vt 0.927525 0.5266759
vt 0.9288018 0.8992321
vt 0.927996 0.9016447
vt 0.9291838 0.9011527
vt 0.9293625 0.90369
vt 0.9302717 0.9027811
vt 0.9314079 0.9050568
vt 0.9318999 0.9038691
vt 0.9338205 0.9055367
vt 0.9338206 0.9042511
vt 0.9288107 0.526676
vt 0.9307601 0.8992321
vt 0.9291928 0.5247553
vt 0.9307689 0.526676
vt 0.928005 0.5242633
vt 0.9327183 0.8992321
vt 0.9302807 0.523127
vt 0.9327272 0.5266761
vt 0.9293717 0.5222179
vt 0.9346766 0.8992321
vt 0.931909 0.5220391
vt 0.9346855 0.5266761
vt 0.936635 0.8992322
vt 0.9366438 0.5266761
vt 0.931417 0.5208514
vt 0.9338297 0.5216571
vt 0.9338297 0.5203715
vt 0.8923555 0.9056214
vt 0.8901878 0.5330661
vt 0.8898866 0.9056313
vt 0.892657 0.5330564
vt 0.8948244 0.9056115
vt 0.8951262 0.5330468
vt 0.8972931 0.9056015
vt 0.8975958 0.5330374
vt 0.8997616 0.9055917
vt 0.9000654 0.5330281
vt 0.9010021 0.9052403
vt 0.9021804 0.9070412
vt 0.9027026 0.9059044
vt 0.9046682 0.9072229
vt 0.9048443 0.9059188
vt 0.906945 0.9072264
vt 0.9013561 0.5330232
vt 0.9029595 0.9053659
vt 0.9017318 0.5310938
vt 0.9033241 0.533016
vt 0.9005377 0.5306047
vt 0.9028174 0.5294551
vt 0.9019014 0.5285463
vt 0.9044474 0.5283567
vt 0.903949 0.5271665
vt 0.9063737 0.5279657
vt 0.9063687 0.5266752
vt 0.9052916 0.5330096
vt 0.9068113 0.9059196
vt 0.9092965 0.9068871
vt 0.9072561 0.5330029
vt 0.9087697 0.9057392
vt 0.9092207 0.5329958
vt 0.9643945 0.3866725
vt 0.9619435 0.01411669
vt 0.9619346 0.3866725
vt 0.9644034 0.01411669
vt 0.9668545 0.3866726
vt 0.9668633 0.01411682
vt 0.9693144 0.3866726
vt 0.9693232 0.01411682
vt 0.9717743 0.3866727
vt 0.9717831 0.01411695
vt 0.9730599 0.3866727
vt 0.972254 0.3890854
vt 0.9734419 0.3885934
vt 0.9736207 0.3911307
vt 0.9745298 0.3902217
vt 0.975666 0.3924975
vt 0.976158 0.3913098
vt 0.9780787 0.3929774
vt 0.9780787 0.3916918
vt 0.9730687 0.01411691
vt 0.9750181 0.3866728
vt 0.9734508 0.01219625
vt 0.9750271 0.01411701
vt 0.9722631 0.01170431
vt 0.9769765 0.3866728
vt 0.9745388 0.01056803
vt 0.9769853 0.01411704
vt 0.9736298 0.009658993
vt 0.9789348 0.3866729
vt 0.9761671 0.009480065
vt 0.9789436 0.01411707
vt 0.9808931 0.3866729
vt 0.9809019 0.01411717
vt 0.9756752 0.008292357
vt 0.9780878 0.009098118
vt 0.9780878 0.0078125
vt 0.7905756 0.2012889
vt 0.7869607 0.2242691
vt 0.8011103 0.2275442
vt 0.8023625 0.2077114
vt 0.8197752 0.2266057
vt 0.8012314 0.2293959
vt 0.8198296 0.2284619
vt 0.8181185 0.2078328
vt 0.8332058 0.2232116
vt 0.8030248 0.2000607
vt 0.8029214 0.194578
vt 0.7901232 0.1913523
vt 0.7900569 0.1912263
vt 0.8026268 0.1876676
vt 0.7906321 0.04591678
vt 0.8181803 0.1950025
vt 0.8178894 0.2003696
vt 0.8308166 0.201093
vt 0.8310037 0.1921521
vt 0.8186094 0.1879597
vt 0.8027967 0.04941148
vt 0.8188412 0.04911898
vt 0.8031433 0.04255873
vt 0.7906963 0.04579775
vt 0.8182723 0.0421309
vt 0.8032224 0.03711359
vt 0.7908762 0.03591442
vt 0.8179438 0.03675371
vt 0.8471575 0.1920112
vt 0.8471961 0.1994759
vt 0.8491455 0.2207521
vt 0.8494034 0.2225929
vt 0.8334634 0.2250467
vt 0.8310658 0.1920329
vt 0.8471217 0.1919056
vt 0.830883 0.04517467
vt 0.8468927 0.04522563
vt 0.8469279 0.04511923
vt 0.8308231 0.04505608
vt 0.8471028 0.03771532
vt 0.8306643 0.03603408
vt 0.8330874 0.0139097
vt 0.8490553 0.01637731
vt 0.849309 0.0145353
vt 0.8333412 0.01207457
vt 0.8181104 0.0293003
vt 0.8196928 0.01052266
vt 0.802501 0.02947238
vt 0.8010982 0.009664298
vt 0.7870126 0.01300669
vt 0.8012046 0.0078125
vt 0.8197346 0.008665432
vt 0.8059487 0.5422213
vt 0.7969264 0.5426552
vt 0.8054675 0.5440994
vt 0.7977104 0.5411106
vt 0.8059453 0.5285152
vt 0.7964694 0.5404769
vt 0.7952889 0.5415506
vt 0.7959678 0.5392957
vt 0.7941656 0.5397891
vt 0.7947413 0.5303103
vt 0.7983075 0.5291877
vt 0.805605 0.5266671
vt 0.7975312 0.5275151
vt 0.7958144 0.5286373
vt 0.7963734 0.5308393
vt 0.7970294 0.5296832
vt 0.8999986 0.4932348
vt 0.899565 0.4842122
vt 0.8981206 0.4927535
vt 0.9011094 0.4849965
vt 0.9137048 0.4932321
vt 0.9017435 0.4837554
vt 0.90067 0.4825749
vt 0.9029247 0.483254
vt 0.9024317 0.4814517
vt 0.9119105 0.4820282
vt 0.9130323 0.4855945
vt 0.915553 0.4928916
vt 0.9147049 0.4848182
vt 0.9135832 0.4831015
vt 0.9113814 0.4836603
vt 0.9125372 0.4843164
vt 0.9751537 0.6101138
vt 0.9732564 0.6104689
vt 0.9742523 0.6184341
vt 0.9758506 0.6177213
vt 0.9877381 0.6183769
vt 0.988903 0.6101139
vt 0.9907265 0.6105919
vt 0.9893616 0.619227
vt 0.9881011 0.6208643
vt 0.9763784 0.6190371
vt 0.9752151 0.6201399
vt 0.9775074 0.6196498
vt 0.9768763 0.621415
vt 0.9863466 0.6217915
vt 0.9871523 0.6195846
vt 0.9859491 0.6201282
vt 0.9888291 0.6418321
vt 0.9907263 0.6414768
vt 0.9897296 0.6335115
vt 0.9881313 0.6342244
vt 0.9762437 0.6335708
vt 0.9750801 0.6418338
vt 0.9732564 0.6413562
vt 0.97462 0.6327209
vt 0.9758804 0.6310834
vt 0.9876034 0.6329088
vt 0.9887666 0.6318058
vt 0.9864743 0.6322964
vt 0.9871049 0.630531
vt 0.9776345 0.6301562
vt 0.9768292 0.632363
vt 0.9780323 0.6318192
vt 0.7195539 0.2012955
vt 0.715942 0.2242767
vt 0.7300925 0.2275513
vt 0.7313418 0.2077182
vt 0.748759 0.2266111
vt 0.7302137 0.2294029
vt 0.7488136 0.2284673
vt 0.7470983 0.2078384
vt 0.7621904 0.2232132
vt 0.732003 0.2000673
vt 0.7318991 0.1945842
vt 0.7191007 0.1913581
vt 0.7190346 0.1912318
vt 0.7316042 0.1876731
vt 0.7196066 0.04591968
vt 0.7471579 0.1950076
vt 0.7468678 0.2003751
vt 0.7597952 0.2010961
vt 0.7599807 0.1921555
vt 0.7475863 0.1879643
vt 0.7317711 0.04941463
vt 0.7478155 0.04912302
vt 0.7321178 0.04256112
vt 0.7196707 0.0458002
vt 0.747247 0.04213475
vt 0.7321974 0.03711567
vt 0.7198511 0.03591429
vt 0.7469192 0.0367575
vt 0.7761348 0.1920122
vt 0.776175 0.1994753
vt 0.7781298 0.2207491
vt 0.7783884 0.2225899
vt 0.7624487 0.2250482
vt 0.7600427 0.1920362
vt 0.7760984 0.1919071
vt 0.7598574 0.04517971
vt 0.7758669 0.04523137
vt 0.7759024 0.04512522
vt 0.7597976 0.04506106
vt 0.7760786 0.0377234
vt 0.7596403 0.03603951
vt 0.7620698 0.01391702
vt 0.7780369 0.01638829
vt 0.7782911 0.01454641
vt 0.7623243 0.0120819
vt 0.7470873 0.02930414
vt 0.7486763 0.01052752
vt 0.7314774 0.02947395
vt 0.7300819 0.009664297
vt 0.7159948 0.0130017
vt 0.7301892 0.0078125
vt 0.7487189 0.008670294
vt 0.8975527 0.0233673
vt 0.88853 0.02380049
vt 0.8970712 0.02524531
vt 0.8893143 0.0222561
vt 0.8975497 0.009660827
vt 0.8880734 0.02162203
vt 0.8868927 0.02269573
vt 0.8875719 0.02044098
vt 0.8857695 0.02093417
vt 0.8863458 0.01145554
vt 0.8899121 0.01033335
vt 0.8972092 0.0078125
vt 0.8891358 0.008660886
vt 0.8874191 0.009782575
vt 0.8879778 0.01198465
vt 0.8886339 0.01082861
vt 0.8320683 0.3082244
vt 0.8316212 0.2992023
vt 0.8301896 0.3077458
vt 0.8331668 0.2999842
vt 0.8457747 0.3082004
vt 0.8337988 0.2987423
vt 0.8327236 0.2975634
vt 0.8349793 0.2982389
vt 0.8344833 0.2964374
vt 0.8439629 0.2969991
vt 0.8450904 0.3005638
vt 0.8476225 0.3078569
vt 0.8467618 0.2997848
vt 0.8456374 0.29807
vt 0.8434362 0.298632
vt 0.8445933 0.2992865
vt 0.808929 0.8993803
vt 0.8085735 0.8974832
vt 0.8006083 0.8984805
vt 0.8013214 0.9000789
vt 0.8006682 0.9119664
vt 0.8089314 0.9131296
vt 0.8084539 0.9149533
vt 0.7998186 0.91359
vt 0.7981808 0.9123298
vt 0.8000059 0.9006069
vt 0.7989028 0.8994436
vt 0.7993935 0.9017358
vt 0.797628 0.9011052
vt 0.7972533 0.9105755
vt 0.7994604 0.9113808
vt 0.7989165 0.9101777
vt 0.8612012 0.8627659
vt 0.8630984 0.8624106
vt 0.8621014 0.8544453
vt 0.8605032 0.8551583
vt 0.8486155 0.854505
vt 0.847452 0.862768
vt 0.8456284 0.8622906
vt 0.8469917 0.8536552
vt 0.8482521 0.8520176
vt 0.8599752 0.8538426
vt 0.8611383 0.8527396
vt 0.8588461 0.8532302
vt 0.8594766 0.8514648
vt 0.8500063 0.8510903
vt 0.849201 0.8532972
vt 0.850404 0.8527533
vn -0.3810027 -0.03580413 0.9238805
vn -0.1942295 -0.01825203 0.9807863
vn -0.1942295 -0.01825203 0.9807863
vn -0.3810031 -0.03580419 0.9238802
vn -0.7040076 -0.06615847 0.7071041
vn -0.7040076 -0.06615845 0.7071042
vn -0.9198281 -0.08643952 0.3826806
vn -0.919828 -0.08643951 0.3826807
vn -0.9441034 -0.0913036 -0.3167532
vn -0.944586 -0.08618245 -0.3167486
vn 0.7520808 0.06735441 -0.6556202
vn 0.09356432 -0.9956132 -9.568598E-07
vn 0.09356435 -0.9956132 -9.568744E-07
vn 0.0935616 -0.9956135 -1.063204E-06
vn 0.0935616 -0.9956135 -1.063194E-06
vn 0.09356034 -0.9956136 -7.442221E-07
vn 0.09356032 -0.9956136 -7.442265E-07
vn 0.09356075 -0.9956136 -1.275782E-06
vn 0.09356075 -0.9956136 -1.275782E-06
vn 0.7514613 0.07393871 -0.6556211
vn 0.9198282 0.08643985 -0.3826804
vn -0.09357277 0.9956124 -2.551634E-06
vn 0.9198279 0.08643983 -0.382681
vn -0.09357277 0.9956124 -2.551675E-06
vn 0.7040113 0.06615862 -0.7071005
vn -0.09356539 0.9956131 0
vn 0.7040119 0.06615866 -0.7070999
vn -0.09356538 0.9956131 0
vn 0.3809986 0.03580317 -0.9238821
vn -0.09357118 0.9956125 6.378991E-07
vn 0.3809988 0.03580319 -0.9238821
vn 0.1942167 0.01825038 -0.9807889
vn 0.1942167 0.01825038 -0.9807889
vn -0.09357117 0.9956125 6.378905E-07
vn -0.09358373 0.9956114 1.275771E-06
vn -0.09358373 0.9956114 1.275771E-06
vn -0.3810027 -0.03580413 0.9238805
vn -0.1942295 -0.01825203 0.9807863
vn -0.1942295 -0.01825203 0.9807863
vn -0.3810031 -0.03580419 0.9238802
vn -0.7040077 -0.06615778 0.7071041
vn -0.7040075 -0.06615778 0.7071042
vn -0.9198281 -0.08643952 0.3826806
vn -0.919828 -0.08643951 0.3826808
vn -0.9441032 -0.09130497 -0.3167532
vn -0.9445859 -0.08618368 -0.3167485
vn 0.7520808 0.06735432 -0.6556202
vn 0.09356308 -0.9956133 -9.56834E-07
vn 0.09356309 -0.9956133 -9.568485E-07
vn 0.09356064 -0.9956136 -1.063179E-06
vn 0.09356067 -0.9956136 -1.063169E-06
vn 0.09356002 -0.9956136 -7.44214E-07
vn 0.09356001 -0.9956136 -7.442186E-07
vn 0.09356075 -0.9956136 -1.275782E-06
vn 0.09356075 -0.9956136 -1.275782E-06
vn 0.7514614 0.07393875 -0.655621
vn 0.9198282 0.08643985 -0.3826804
vn -0.09357151 0.9956125 -2.551565E-06
vn 0.9198279 0.08643983 -0.382681
vn -0.09357151 0.9956125 -2.551606E-06
vn 0.7040113 0.06615862 -0.7071005
vn -0.09356601 0.995613 0
vn 0.7040119 0.06615866 -0.7070999
vn -0.09356602 0.995613 0
vn 0.3809985 0.03580486 -0.9238821
vn -0.09357245 0.9956124 6.379078E-07
vn 0.3809988 0.03580488 -0.9238819
vn 0.1942167 0.0182537 -0.9807888
vn 0.1942167 0.0182537 -0.9807888
vn -0.09357245 0.9956124 6.378991E-07
vn -0.09358498 0.9956113 1.275788E-06
vn -0.09358498 0.9956113 1.275788E-06
vn -0.3810027 -0.03580414 0.9238805
vn -0.1942295 -0.01825203 0.9807863
vn -0.1942295 -0.01825203 0.9807863
vn -0.3810031 -0.03580418 0.9238802
vn -0.7040076 -0.06615845 0.7071042
vn -0.7040075 -0.06615845 0.7071042
vn -0.9198281 -0.08643951 0.3826806
vn -0.919828 -0.08643951 0.3826807
vn -0.9441033 -0.0913037 -0.3167532
vn -0.944586 -0.08618241 -0.3167486
vn 0.7520808 0.06735428 -0.6556202
vn 0.09356308 -0.9956133 -9.568357E-07
vn 0.09356308 -0.9956133 -9.5685E-07
vn 0.09356112 -0.9956135 -1.063186E-06
vn 0.09356112 -0.9956135 -1.063176E-06
vn 0.09356111 -0.9956135 -7.442201E-07
vn 0.09356113 -0.9956135 -7.442247E-07
vn 0.09356202 -0.9956135 -1.275799E-06
vn 0.09356202 -0.9956135 -1.275799E-06
vn 0.7514614 0.07393876 -0.655621
vn 0.9198282 0.08643901 -0.3826804
vn -0.09357024 0.9956126 -2.551535E-06
vn 0.9198279 0.08643898 -0.382681
vn -0.09357024 0.9956126 -2.551576E-06
vn 0.7040112 0.06615862 -0.7071005
vn -0.09356571 0.9956131 0
vn 0.7040117 0.06615866 -0.7070999
vn -0.09356572 0.9956131 0
vn 0.3809986 0.03580402 -0.9238821
vn -0.09357294 0.9956124 6.379057E-07
vn 0.3809988 0.03580404 -0.9238819
vn 0.1942167 0.01825038 -0.9807889
vn 0.1942167 0.01825038 -0.9807889
vn -0.09357293 0.9956124 6.37897E-07
vn -0.09358532 0.9956113 1.275792E-06
vn -0.09358532 0.9956113 1.275792E-06
vn -0.3810027 -0.03580414 0.9238805
vn -0.1942295 -0.01825269 0.9807863
vn -0.1942295 -0.01825269 0.9807863
vn -0.3810031 -0.03580419 0.9238802
vn -0.7040075 -0.06615812 0.7071042
vn -0.7040075 -0.06615811 0.7071042
vn -0.9198281 -0.08643986 0.3826806
vn -0.919828 -0.08643984 0.3826807
vn -0.9441033 -0.09130365 -0.3167532
vn -0.944586 -0.08618244 -0.3167487
vn 0.7520807 0.06735562 -0.6556202
vn 0.09356306 -0.9956133 -9.56834E-07
vn 0.09356308 -0.9956133 -9.568485E-07
vn 0.09356112 -0.9956135 -1.063177E-06
vn 0.09356114 -0.9956135 -1.063167E-06
vn 0.09356111 -0.9956135 -7.442201E-07
vn 0.09356113 -0.9956135 -7.442247E-07
vn 0.09356202 -0.9956135 -1.275799E-06
vn 0.09356202 -0.9956135 -1.275799E-06
vn 0.7514613 0.07394002 -0.655621
vn 0.9198282 0.08644027 -0.3826803
vn -0.09357214 0.9956125 -2.551548E-06
vn 0.9198279 0.08644024 -0.382681
vn -0.09357213 0.9956125 -2.551589E-06
vn 0.7040113 0.06615862 -0.7071005
vn -0.09356602 0.995613 0
vn 0.7040119 0.06615866 -0.7070999
vn -0.09356602 0.995613 0
vn 0.3809986 0.03580317 -0.9238822
vn -0.09357182 0.9956125 6.379036E-07
vn 0.3809988 0.03580319 -0.9238821
vn 0.1942168 0.01825038 -0.9807889
vn 0.1942168 0.01825038 -0.9807889
vn -0.09357183 0.9956125 6.378949E-07
vn -0.09358498 0.9956113 1.275788E-06
vn -0.09358498 0.9956113 1.275788E-06
vn -0.3810027 -0.03580414 0.9238805
vn -0.1942295 -0.01825269 0.9807863
vn -0.1942295 -0.01825269 0.9807863
vn -0.3810031 -0.03580419 0.9238802
vn -0.7040075 -0.06615812 0.7071042
vn -0.7040075 -0.06615811 0.7071042
vn -0.9198281 -0.08643984 0.3826806
vn -0.919828 -0.08643984 0.3826807
vn -0.9441033 -0.09130432 -0.3167532
vn -0.944586 -0.08618309 -0.3167486
vn 0.7520808 0.06735432 -0.6556202
vn 0.09356308 -0.9956133 -9.568308E-07
vn 0.09356308 -0.9956133 -9.56845E-07
vn 0.09356065 -0.9956136 -1.063171E-06
vn 0.7044143 0.06179788 -0.7070937
vn 0.09356098 -0.9956136 -7.442164E-07
vn 0.7514614 0.07393873 -0.655621
vn 0.9198282 0.08643942 -0.3826804
vn -0.09357119 0.9956125 -2.551539E-06
vn 0.9198279 0.0864394 -0.382681
vn -0.09357117 0.9956125 -2.55158E-06
vn -0.09356539 0.9956131 0
vn -0.0935654 0.9956131 0
vn -0.0935723 0.9956124 6.379057E-07
vn -0.0935723 0.9956124 6.37897E-07
vn -0.09358532 0.9956113 1.275792E-06
vn -0.09358532 0.9956113 1.275792E-06
vn 0.7040119 0.06615866 -0.7070999
vn 0.3814047 0.03144399 -0.9238732
vn 0.09356202 -0.9956135 -1.275799E-06
vn 0.3809988 0.03580446 -0.9238819
vn 0.1946168 0.01397563 -0.9807797
vn 0.1942167 0.01825204 -0.9807888
vn -0.3810027 -0.03580414 0.9238805
vn -0.1942295 -0.01825203 0.9807863
vn -0.1942295 -0.01825203 0.9807863
vn -0.3810031 -0.03580418 0.9238802
vn -0.7040076 -0.06615812 0.7071042
vn -0.7040075 -0.06615811 0.7071043
vn -0.9198281 -0.08643951 0.3826806
vn -0.919828 -0.08643951 0.3826807
vn -0.9441033 -0.09130427 -0.3167531
vn -0.944586 -0.08618309 -0.3167486
vn 0.7520808 0.06735437 -0.6556202
vn 0.09356306 -0.9956133 -9.568413E-07
vn 0.09356308 -0.9956133 -9.568557E-07
vn 0.09356066 -0.9956136 -1.063179E-06
vn 0.09356065 -0.9956136 -1.063169E-06
vn 0.09356032 -0.9956136 -7.442148E-07
vn 0.09356033 -0.9956136 -7.442193E-07
vn 0.09356075 -0.9956136 -1.275782E-06
vn 0.09356075 -0.9956136 -1.275782E-06
vn 0.7514614 0.07393871 -0.655621
vn 0.9198282 0.08643942 -0.3826804
vn -0.09357151 0.9956125 -2.55158E-06
vn 0.9198279 0.0864394 -0.382681
vn -0.09357151 0.9956125 -2.551621E-06
vn 0.7040113 0.06615862 -0.7071005
vn -0.09356538 0.9956131 0
vn 0.7040119 0.06615866 -0.7070999
vn -0.09356538 0.9956131 0
vn 0.3809986 0.03580403 -0.9238822
vn -0.09357229 0.9956124 6.379055E-07
vn 0.3809988 0.03580404 -0.9238819
vn 0.1942168 0.01825121 -0.9807889
vn 0.1942168 0.01825121 -0.9807889
vn -0.09357229 0.9956124 6.37897E-07
vn -0.09358469 0.9956114 1.275784E-06
vn -0.09358468 0.9956114 1.275784E-06
vn 0 2.015109E-07 -1
vn 0 0 -1
vn 0.8021418 0.07538053 -0.5923566
vn 0.8209773 0.1814075 -0.5413757
vn 0.8021407 0.07538078 0.592358
vn 0.9956133 0.09356257 0
vn 0.9956133 0.09356257 0
vn 0.8209757 0.1814076 0.541378
vn -0.8021417 -0.07538308 0.5923564
vn 0.7104002 0.5397676 -0.4516444
vn 0.3920106 0.8010259 -0.4524217
vn 0 -2.393511E-06 -1
vn 0 -2.014881E-07 -1
vn -0.05489502 0.7904519 -0.6100594
vn 0 0 -1
vn 0.3920113 0.8010277 0.4524179
vn 0.7104033 0.5397692 0.4516374
vn -0.7056754 -0.2076308 0.6774303
vn -0.3550389 -0.443573 0.8229158
vn -0.05489502 0.7904516 0.6100596
vn -0.09332883 0.78684 -0.6100594
vn -0.09332887 0.78684 0.6100595
vn -0.5343805 0.7139716 -0.4524181
vn 0 1.874115E-06 -1
vn -0.5343797 0.7139692 0.4524227
vn -0.7985243 0.3979717 -0.4516387
vn 0 -8.00094E-07 -1
vn -0.7985214 0.3979692 0.4516459
vn -0.6248892 -0.7807134 4.007083E-06
vn -0.9593371 -0.2822631 0
vn -0.9956131 -0.09356541 -1.15045E-06
vn -0.9956133 -0.09356257 0
vn -0.9956133 -0.09356257 0
vn 0.07174071 -0.7656148 0.6392865
vn 0.09329475 -0.9956385 0
vn 0.07215063 -0.7655753 0.6392876
vn 0.09382795 -0.9955884 0
vn 0.7593998 -0.6506243 -5.526814E-06
vn 0.4314731 -0.3696695 0.8229066
vn 0.9951276 -0.09859648 -7.529994E-07
vn 0.7320017 -0.07252344 0.6774318
vn 0.8021425 0.07537837 0.592356
vn 0.9956138 0.0935574 8.578618E-07
vn 0.9956137 0.09355929 0
vn 0.9956137 0.09355929 0
vn -0.8404014 0.02528285 0.5413746
vn -0.8021422 -0.07537872 0.5923564
vn -0.8403999 0.02528063 -0.5413768
vn -0.802141 -0.07538136 -0.5923576
vn 0 -2.333596E-06 -1
vn -0.9956133 -0.09356257 0
vn -0.9956133 -0.09356257 0
vn -0.2345272 0.9721096 0
vn -0.993853 -0.09339507 0.05944403
vn -0.9956136 -0.0935599 0
vn -0.2426009 0.9700846 0.008978658
vn 0.04931327 0.9987834 0
vn -0.7071448 0.1575432 0.689294
vn -0.7040119 -0.06616257 0.7070995
vn -0.1080976 0.8494881 0.5164155
vn -0.05417936 -0.005092132 0.9985183
vn 0.05417933 0.005091872 0.9985183
vn 0.05762404 0.998298 0.008978534
vn 0.9956132 0.09356382 0
vn 0.9938526 0.09339771 0.05944547
vn 0.7040114 0.06615911 0.7071002
vn -0.05205671 0.854755 0.5164146
vn 0.6654065 0.286532 0.6892994
vn 0.04931327 0.9987834 0
vn 0.9938526 0.0933977 -0.05944551
vn 0.9956132 0.09356414 0
vn 0.05762421 0.998298 -0.008978547
vn -0.2345272 0.9721096 0
vn 0.6654109 0.2865219 -0.6892992
vn 0.7040108 0.06615418 -0.7071013
vn -0.0520563 0.8547531 -0.5164177
vn 0.05417931 0.005090846 -0.9985183
vn -0.0541793 -0.005092381 -0.9985183
vn -0.2426011 0.9700846 -0.008978602
vn -0.9956136 -0.09356023 0
vn -0.993853 -0.09339562 -0.05944357
vn -0.7040134 -0.06616467 -0.7070978
vn -0.1080977 0.8494864 -0.516418
vn -0.7071498 0.1575402 -0.6892895
vn 0.04931062 0.9987835 0
vn 0.9956136 0.09356058 0
vn 0.9938529 0.09339543 0.05944631
vn 0.05762133 0.9982981 0.00897867
vn -0.2426004 0.9700847 0.008978536
vn -0.2345257 0.9721099 0
vn -0.9956132 -0.09356382 0
vn -0.9938526 -0.093398 0.0594449
vn -0.7040181 -0.06616072 0.7070936
vn 0.6653941 0.2865501 0.6893039
vn 0.7040096 0.06616845 0.7071012
vn -0.05205563 0.8547569 0.5164115
vn 0.05418038 0.005094791 0.9985182
vn -0.05418102 -0.005091263 0.9985182
vn -0.7071403 0.1575472 0.6892977
vn -0.1080963 0.849491 0.5164109
vn -0.2345244 0.9721102 0
vn -0.9956132 -0.09356414 0
vn -0.9938526 -0.09339827 -0.05944495
vn -0.2425994 0.9700851 -0.008978481
vn 0.05762103 0.9982982 -0.00897857
vn 0.04931032 0.9987835 0
vn 0.9956136 0.09356058 0
vn 0.993853 0.09339431 -0.05944606
vn 0.704011 0.06614909 -0.7071016
vn -0.7071409 0.1575478 -0.689297
vn -0.7040184 -0.06616075 -0.7070932
vn -0.1080974 0.8494889 -0.516414
vn -0.05418055 -0.005095063 -0.9985182
vn 0.0541804 0.005086846 -0.9985182
vn 0.6653981 0.2865327 -0.6893072
vn -0.05205669 0.8547541 -0.5164161
vn 0 0 -1
vn 0 2.917003E-07 -1
vn -0.8021413 -0.07537994 -0.5923573
vn -0.820977 -0.1814076 -0.5413761
vn -0.8021399 -0.07537945 0.5923592
vn -0.9956135 -0.09356185 0
vn -0.9956135 -0.09356185 0
vn -0.8209755 -0.1814064 0.5413788
vn 0.8021417 0.07538395 0.5923563
vn -0.7103993 -0.5397688 -0.4516441
vn -0.3920104 -0.8010259 -0.4524219
vn 0 0 -1
vn 0 2.620522E-06 -1
vn 0.05489507 -0.790451 -0.6100603
vn 0 2.419033E-06 -1
vn -0.3920111 -0.801028 0.4524172
vn -0.7104027 -0.5397698 0.4516377
vn 0.7056751 0.2076312 0.6774305
vn 0.3550408 0.4435748 0.8229141
vn 0.05489498 -0.7904517 0.6100595
vn 0.09332893 -0.7868392 -0.6100605
vn 0.0933288 -0.78684 0.6100594
vn 0.5343803 -0.7139722 -0.4524173
vn 0 -2.393507E-06 -1
vn 0.5343801 -0.7139697 0.4524214
vn 0.798525 -0.3979713 -0.4516377
vn 0 1.610117E-06 -1
vn 0.798522 -0.3979691 0.4516449
vn 0.6248887 0.7807139 4.256898E-06
vn 0.9593371 0.2822627 3.70702E-07
vn 0.9956131 0.09356544 -9.078339E-07
vn 0.9956135 0.09356135 0
vn 0.9956135 0.09356135 0
vn -0.07174084 0.7656142 0.6392874
vn -0.09329489 0.9956385 0
vn -0.07215074 0.7655759 0.6392869
vn -0.09382793 0.9955884 0
vn -0.7593964 0.6506283 -4.369192E-06
vn -0.4314585 0.3696626 0.8229175
vn -0.9951274 0.09859745 0
vn -0.7320018 0.0725267 0.6774313
vn -0.8021432 -0.0753755 0.5923554
vn -0.9956139 -0.0935572 1.288748E-06
vn -0.9956135 -0.0935616 0
vn -0.9956135 -0.0935616 0
vn 0.8404003 -0.02528067 0.5413762
vn 0.802141 0.07538178 0.5923575
vn 0.8403991 -0.02528063 -0.5413782
vn 0.8021401 0.0753817 -0.5923588
vn 0 2.333594E-06 -1
vn 0.9956135 0.09356185 0
vn 0.9956135 0.09356185 0
vn 0.2345254 -0.97211 0
vn 0.9938529 0.09339606 0.05944481
vn 0.9956136 0.09356082 0
vn 0.2425995 -0.970085 0.008978406
vn -0.04931439 -0.9987833 0
vn 0.7071434 -0.1575422 0.6892958
vn 0.7040087 0.06616349 0.7071025
vn 0.1080978 -0.8494898 0.5164125
vn 0.05417856 0.005092165 0.9985183
vn -0.05417834 -0.005091119 0.9985183
vn -0.05762416 -0.998298 0.008978427
vn -0.9956135 -0.09356212 0
vn -0.9938527 -0.09339673 0.05944476
vn -0.7040077 -0.0661579 0.7071041
vn 0.05205776 -0.8547562 0.5164124
vn -0.6654127 -0.2865316 0.6892936
vn -0.04931476 -0.9987833 0
vn -0.9938529 -0.09339599 -0.05944485
vn -0.9956135 -0.09356171 0
vn -0.05762474 -0.998298 -0.008978672
vn 0.2345265 -0.9721097 0
vn -0.6654143 -0.2865173 -0.689298
vn -0.704008 -0.06615549 -0.707104
vn 0.05205701 -0.8547521 -0.5164193
vn -0.05417867 -0.005090857 -0.9985183
vn 0.05417853 0.005092394 -0.9985183
vn 0.2426007 -0.9700846 -0.008978629
vn 0.9956135 0.09356221 0
vn 0.9938527 0.09339725 -0.059445
vn 0.7040083 0.06616433 -0.707103
vn 0.1080979 -0.8494859 -0.5164189
vn 0.7071459 -0.1575403 -0.6892935
vn -0.04931366 -0.9987834 0
vn -0.9956135 -0.09356212 0
vn -0.9938526 -0.09339688 0.05944672
vn -0.05762405 -0.998298 0.008978707
vn 0.2426003 -0.9700847 0.008978234
vn 0.2345261 -0.9721099 0
vn 0.9956135 0.09356212 0
vn 0.9938529 0.09339696 0.05944353
vn 0.704008 0.0661616 0.7071034
vn -0.6654029 -0.2865404 0.6892993
vn -0.7040032 -0.06616887 0.7071076
vn 0.05205561 -0.8547528 0.5164183
vn -0.05417827 -0.005094713 0.9985183
vn 0.05417838 0.005091111 0.9985183
vn 0.7071431 -0.1575446 0.6892955
vn 0.1080962 -0.8494864 0.5164186
vn 0.2345265 -0.9721097 0
vn 0.9956135 0.09356171 0
vn 0.9938529 0.0933965 -0.05944279
vn 0.2426008 -0.9700846 -0.008978467
vn -0.05762479 -0.998298 -0.00897902
vn -0.04931475 -0.9987833 0
vn -0.9956135 -0.09356221 0
vn -0.9938527 -0.09339585 -0.05944676
vn -0.7040049 -0.06614944 -0.7071076
vn 0.7071453 -0.1575439 -0.6892934
vn 0.7040114 0.06616147 -0.7071001
vn 0.1080983 -0.8494854 -0.5164198
vn 0.05417864 0.005094957 -0.9985183
vn -0.05417876 -0.005086789 -0.9985183
vn -0.6654122 -0.286521 -0.6892985
vn 0.05205749 -0.8547516 -0.5164199
usemtl Mat_Tool_Cabinet
f 1/1/1 3/3/3 2/2/2 
f 1/1/1 2/2/2 4/4/4 
f 5/5/5 1/1/1 4/4/4 
f 5/5/5 4/4/4 6/6/6 
f 7/7/7 5/5/5 6/6/6 
f 7/7/7 6/6/6 8/8/8 
f 9/9/9 7/7/7 8/8/8 
f 9/9/9 8/8/8 10/10/10 
f 10/10/10 11/11/11 9/9/9 
f 12/12/12 9/9/9 11/11/11 
f 12/12/12 11/11/11 13/13/13 
f 14/14/14 12/12/12 13/13/13 
f 14/14/14 13/13/13 15/15/15 
f 16/16/16 14/14/14 15/15/15 
f 16/16/16 15/15/15 17/17/17 
f 18/18/18 16/16/16 17/17/17 
f 18/18/18 17/17/17 19/19/19 
f 10/10/10 20/20/20 11/11/11 
f 21/21/21 11/11/11 20/20/20 
f 10/10/10 22/22/22 20/20/20 
f 21/21/21 20/20/20 23/23/23 
f 10/10/10 24/24/24 22/22/22 
f 25/25/25 21/21/21 23/23/23 
f 24/24/24 26/26/26 22/22/22 
f 25/25/25 23/23/23 27/27/27 
f 24/24/24 28/28/28 26/26/26 
f 29/29/29 25/25/25 27/27/27 
f 28/28/28 30/30/30 26/26/26 
f 29/29/29 27/27/27 31/31/31 
f 32/32/32 29/29/29 31/31/31 
f 32/32/32 31/31/31 33/33/33 
f 28/28/28 34/34/34 30/30/30 
f 34/34/34 35/35/35 30/30/30 
f 34/34/34 36/36/36 35/35/35 
f 37/37/37 39/39/39 38/38/38 
f 37/37/37 38/38/38 40/40/40 
f 41/41/41 37/37/37 40/40/40 
f 41/41/41 40/40/40 42/42/42 
f 43/43/43 41/41/41 42/42/42 
f 43/43/43 42/42/42 44/44/44 
f 45/45/45 43/43/43 44/44/44 
f 45/45/45 44/44/44 46/46/46 
f 46/46/46 47/47/47 45/45/45 
f 48/48/48 45/45/45 47/47/47 
f 48/48/48 47/47/47 49/49/49 
f 50/50/50 48/48/48 49/49/49 
f 50/50/50 49/49/49 51/51/51 
f 52/52/52 50/50/50 51/51/51 
f 52/52/52 51/51/51 53/53/53 
f 54/54/54 52/52/52 53/53/53 
f 54/54/54 53/53/53 55/55/55 
f 46/46/46 56/56/56 47/47/47 
f 57/57/57 47/47/47 56/56/56 
f 46/46/46 58/58/58 56/56/56 
f 57/57/57 56/56/56 59/59/59 
f 46/46/46 60/60/60 58/58/58 
f 61/61/61 57/57/57 59/59/59 
f 60/60/60 62/62/62 58/58/58 
f 61/61/61 59/59/59 63/63/63 
f 60/60/60 64/64/64 62/62/62 
f 65/65/65 61/61/61 63/63/63 
f 64/64/64 66/66/66 62/62/62 
f 65/65/65 63/63/63 67/67/67 
f 68/68/68 65/65/65 67/67/67 
f 68/68/68 67/67/67 69/69/69 
f 64/64/64 70/70/70 66/66/66 
f 70/70/70 71/71/71 66/66/66 
f 70/70/70 72/72/72 71/71/71 
f 73/73/73 75/75/75 74/74/74 
f 73/73/73 74/74/74 76/76/76 
f 77/77/77 73/73/73 76/76/76 
f 77/77/77 76/76/76 78/78/78 
f 79/79/79 77/77/77 78/78/78 
f 79/79/79 78/78/78 80/80/80 
f 81/81/81 79/79/79 80/80/80 
f 81/81/81 80/80/80 82/82/82 
f 82/82/82 83/83/83 81/81/81 
f 84/84/84 81/81/81 83/83/83 
f 84/84/84 83/83/83 85/85/85 
f 86/86/86 84/84/84 85/85/85 
f 86/86/86 85/85/85 87/87/87 
f 88/88/88 86/86/86 87/87/87 
f 88/88/88 87/87/87 89/89/89 
f 90/90/90 88/88/88 89/89/89 
f 90/90/90 89/89/89 91/91/91 
f 82/82/82 92/92/92 83/83/83 
f 93/93/93 83/83/83 92/92/92 
f 82/82/82 94/94/94 92/92/92 
f 93/93/93 92/92/92 95/95/95 
f 82/82/82 96/96/96 94/94/94 
f 97/97/97 93/93/93 95/95/95 
f 96/96/96 98/98/98 94/94/94 
f 97/97/97 95/95/95 99/99/99 
f 96/96/96 100/100/100 98/98/98 
f 101/101/101 97/97/97 99/99/99 
f 100/100/100 102/102/102 98/98/98 
f 101/101/101 99/99/99 103/103/103 
f 104/104/104 101/101/101 103/103/103 
f 104/104/104 103/103/103 105/105/105 
f 100/100/100 106/106/106 102/102/102 
f 106/106/106 107/107/107 102/102/102 
f 106/106/106 108/108/108 107/107/107 
f 109/109/109 111/111/111 110/110/110 
f 109/109/109 110/110/110 112/112/112 
f 113/113/113 109/109/109 112/112/112 
f 113/113/113 112/112/112 114/114/114 
f 115/115/115 113/113/113 114/114/114 
f 115/115/115 114/114/114 116/116/116 
f 117/117/117 115/115/115 116/116/116 
f 117/117/117 116/116/116 118/118/118 
f 118/118/118 119/119/119 117/117/117 
f 120/120/120 117/117/117 119/119/119 
f 120/120/120 119/119/119 121/121/121 
f 122/122/122 120/120/120 121/121/121 
f 122/122/122 121/121/121 123/123/123 
f 124/124/124 122/122/122 123/123/123 
f 124/124/124 123/123/123 125/125/125 
f 126/126/126 124/124/124 125/125/125 
f 126/126/126 125/125/125 127/127/127 
f 118/118/118 128/128/128 119/119/119 
f 129/129/129 119/119/119 128/128/128 
f 118/118/118 130/130/130 128/128/128 
f 129/129/129 128/128/128 131/131/131 
f 118/118/118 132/132/132 130/130/130 
f 133/133/133 129/129/129 131/131/131 
f 132/132/132 134/134/134 130/130/130 
f 133/133/133 131/131/131 135/135/135 
f 132/132/132 136/136/136 134/134/134 
f 137/137/137 133/133/133 135/135/135 
f 136/136/136 138/138/138 134/134/134 
f 137/137/137 135/135/135 139/139/139 
f 140/140/140 137/137/137 139/139/139 
f 140/140/140 139/139/139 141/141/141 
f 136/136/136 142/142/142 138/138/138 
f 142/142/142 143/143/143 138/138/138 
f 142/142/142 144/144/144 143/143/143 
f 145/145/145 147/147/147 146/146/146 
f 145/145/145 146/146/146 148/148/148 
f 149/149/149 145/145/145 148/148/148 
f 149/149/149 148/148/148 150/150/150 
f 151/151/151 149/149/149 150/150/150 
f 151/151/151 150/150/150 152/152/152 
f 153/153/153 151/151/151 152/152/152 
f 153/153/153 152/152/152 154/154/154 
f 154/154/154 155/155/155 153/153/153 
f 156/156/156 153/153/153 155/155/155 
f 156/156/156 155/155/155 157/157/157 
f 158/158/158 156/156/156 157/157/157 
f 158/158/158 157/157/157 159/159/159 
f 160/160/160 158/158/158 159/159/159 
f 154/154/154 161/161/161 155/155/155 
f 162/162/162 155/155/155 161/161/161 
f 154/154/154 163/163/163 161/161/161 
f 162/162/162 161/161/161 164/164/164 
f 159/159/159 162/162/162 164/164/164 
f 154/154/154 165/165/165 163/163/163 
f 165/165/165 166/166/166 163/163/163 
f 165/165/165 167/167/167 166/166/166 
f 167/167/167 168/168/168 166/166/166 
f 167/167/167 169/169/169 168/168/168 
f 169/169/169 170/170/170 168/168/168 
f 169/169/169 171/171/171 170/170/170 
f 159/159/159 164/164/164 172/172/172 
f 173/173/173 159/159/159 172/172/172 
f 160/160/160 159/159/159 173/173/173 
f 174/174/174 160/160/160 173/173/173 
f 173/173/173 172/172/172 175/175/175 
f 174/174/174 173/173/173 176/176/176 
f 176/176/176 173/173/173 175/175/175 
f 176/176/176 175/175/175 177/177/177 
f 178/178/178 180/180/180 179/179/179 
f 178/178/178 179/179/179 181/181/181 
f 182/182/182 178/178/178 181/181/181 
f 182/182/182 181/181/181 183/183/183 
f 184/184/184 182/182/182 183/183/183 
f 184/184/184 183/183/183 185/185/185 
f 186/186/186 184/184/184 185/185/185 
f 186/186/186 185/185/185 187/187/187 
f 187/187/187 188/188/188 186/186/186 
f 189/189/189 186/186/186 188/188/188 
f 189/189/189 188/188/188 190/190/190 
f 191/191/191 189/189/189 190/190/190 
f 191/191/191 190/190/190 192/192/192 
f 193/193/193 191/191/191 192/192/192 
f 193/193/193 192/192/192 194/194/194 
f 195/195/195 193/193/193 194/194/194 
f 195/195/195 194/194/194 196/196/196 
f 187/187/187 197/197/197 188/188/188 
f 198/198/198 188/188/188 197/197/197 
f 187/187/187 199/199/199 197/197/197 
f 198/198/198 197/197/197 200/200/200 
f 187/187/187 201/201/201 199/199/199 
f 202/202/202 198/198/198 200/200/200 
f 201/201/201 203/203/203 199/199/199 
f 202/202/202 200/200/200 204/204/204 
f 201/201/201 205/205/205 203/203/203 
f 206/206/206 202/202/202 204/204/204 
f 205/205/205 207/207/207 203/203/203 
f 206/206/206 204/204/204 208/208/208 
f 209/209/209 206/206/206 208/208/208 
f 209/209/209 208/208/208 210/210/210 
f 205/205/205 211/211/211 207/207/207 
f 211/211/211 212/212/212 207/207/207 
f 211/211/211 213/213/213 212/212/212 
f 214/214/214 216/216/216 215/215/215 
f 214/214/214 217/217/217 216/216/216 
f 218/218/218 216/216/216 217/217/217 
f 219/219/219 216/216/216 218/218/218 
f 219/219/219 218/218/218 220/220/220 
f 218/218/218 217/217/217 221/221/221 
f 222/222/222 218/218/218 221/221/221 
f 217/217/217 214/214/214 223/223/223 
f 221/221/221 217/217/217 223/223/223 
f 224/224/224 223/223/223 214/214/214 
f 224/224/224 214/214/214 225/225/225 
f 224/224/224 225/225/225 226/226/226 
f 224/224/224 226/226/226 227/227/227 
f 227/227/227 226/226/226 228/228/228 
f 229/229/229 223/223/223 224/224/224 
f 229/229/229 224/224/224 227/227/227 
f 221/221/221 223/223/223 230/230/230 
f 229/229/229 230/230/230 223/223/223 
f 231/231/231 221/221/221 230/230/230 
f 222/222/222 221/221/221 231/231/231 
f 232/232/232 230/230/230 229/229/229 
f 232/232/232 231/231/231 230/230/230 
f 229/229/229 227/227/227 233/233/233 
f 232/232/232 229/229/229 233/233/233 
f 227/227/227 228/228/228 234/234/234 
f 227/227/227 235/235/235 233/233/233 
f 227/227/227 234/234/234 235/235/235 
f 236/236/236 234/234/234 228/228/228 
f 236/236/236 228/228/228 237/237/237 
f 238/238/238 235/235/235 234/234/234 
f 238/238/238 234/234/234 236/236/236 
f 239/239/239 236/236/236 237/237/237 
f 239/239/239 237/237/237 240/240/240 
f 241/241/241 238/238/238 236/236/236 
f 241/241/241 236/236/236 239/239/239 
f 231/231/231 232/232/232 242/242/242 
f 231/231/231 242/242/242 243/243/243 
f 243/243/243 222/222/222 231/231/231 
f 243/243/243 244/244/244 222/222/222 
f 222/222/222 244/244/244 245/245/245 
f 222/222/222 245/245/245 246/246/246 
f 242/242/242 232/232/232 247/247/247 
f 242/242/242 247/247/247 248/248/248 
f 232/232/232 233/233/233 247/247/247 
f 248/248/248 247/247/247 249/249/249 
f 233/233/233 249/249/249 247/247/247 
f 248/248/248 249/249/249 250/250/250 
f 233/233/233 235/235/235 249/249/249 
f 251/251/251 250/250/250 249/249/249 
f 252/252/252 249/249/249 235/235/235 
f 251/251/251 249/249/249 252/252/252 
f 252/252/252 235/235/235 238/238/238 
f 252/252/252 253/253/253 251/251/251 
f 254/254/254 252/252/252 238/238/238 
f 252/252/252 254/254/254 253/253/253 
f 254/254/254 238/238/238 241/241/241 
f 253/253/253 254/254/254 255/255/255 
f 253/253/253 255/255/255 256/256/256 
f 255/255/255 257/257/257 256/256/256 
f 255/255/255 258/258/258 257/257/257 
f 254/254/254 241/241/241 259/259/259 
f 255/255/255 254/254/254 259/259/259 
f 259/259/259 241/241/241 239/239/239 
f 255/255/255 259/259/259 260/260/260 
f 259/259/259 239/239/239 261/261/261 
f 260/260/260 259/259/259 261/261/261 
f 261/261/261 239/239/239 240/240/240 
f 240/240/240 262/262/262 261/261/261 
f 260/260/260 261/261/261 262/262/262 
f 240/240/240 263/263/263 262/262/262 
f 264/264/264 260/260/260 262/262/262 
f 264/264/264 265/265/265 260/260/260 
f 266/266/266 268/268/268 267/267/267 
f 266/266/266 267/267/267 269/269/269 
f 269/269/269 270/270/270 266/266/266 
f 267/267/267 271/271/271 269/269/269 
f 267/267/267 272/272/272 271/271/271 
f 272/272/272 273/273/273 271/271/271 
f 271/271/271 273/273/273 269/269/269 
f 272/272/272 274/274/274 273/273/273 
f 273/273/273 274/274/274 275/275/275 
f 269/269/269 276/276/276 270/270/270 
f 277/277/277 270/270/270 276/276/276 
f 277/277/277 276/276/276 278/278/278 
f 279/279/279 278/278/278 276/276/276 
f 269/269/269 273/273/273 280/280/280 
f 273/273/273 275/275/275 280/280/280 
f 269/269/269 280/280/280 276/276/276 
f 275/275/275 279/279/279 281/281/281 
f 279/279/279 276/276/276 281/281/281 
f 275/275/275 281/281/281 280/280/280 
f 276/276/276 280/280/280 281/281/281 
f 282/282/282 284/284/284 283/283/283 
f 282/282/282 283/283/283 285/285/285 
f 285/285/285 286/286/286 282/282/282 
f 287/287/287 285/285/285 283/283/283 
f 287/287/287 283/283/283 288/288/288 
f 289/289/289 287/287/287 288/288/288 
f 289/289/289 285/285/285 287/287/287 
f 289/289/289 288/288/288 290/290/290 
f 291/291/291 289/289/289 290/290/290 
f 285/285/285 292/292/292 286/286/286 
f 293/293/293 286/286/286 292/292/292 
f 293/293/293 292/292/292 294/294/294 
f 292/292/292 295/295/295 294/294/294 
f 296/296/296 285/285/285 289/289/289 
f 291/291/291 296/296/296 289/289/289 
f 296/296/296 292/292/292 285/285/285 
f 292/292/292 297/297/297 295/295/295 
f 297/297/297 291/291/291 295/295/295 
f 297/297/297 296/296/296 291/291/291 
f 297/297/297 292/292/292 296/296/296 
f 298/298/298 300/300/300 299/299/299 
f 298/298/298 301/301/301 300/300/300 
f 302/302/302 301/301/301 298/298/298 
f 302/302/302 298/298/298 303/303/303 
f 304/304/304 302/302/302 303/303/303 
f 304/304/304 305/305/305 302/302/302 
f 306/306/306 302/302/302 305/305/305 
f 300/300/300 301/301/301 307/307/307 
f 300/300/300 307/307/307 308/308/308 
f 307/307/307 301/301/301 309/309/309 
f 308/308/308 307/307/307 309/309/309 
f 309/309/309 301/301/301 302/302/302 
f 308/308/308 309/309/309 310/310/310 
f 309/309/309 311/311/311 310/310/310 
f 311/311/311 312/312/312 306/306/306 
f 306/306/306 312/312/312 302/302/302 
f 309/309/309 313/313/313 311/311/311 
f 309/309/309 302/302/302 313/313/313 
f 311/311/311 313/313/313 312/312/312 
f 313/313/313 302/302/302 312/312/312 
f 314/314/314 316/316/316 315/315/315 
f 314/314/314 317/317/317 316/316/316 
f 318/318/318 317/317/317 314/314/314 
f 318/318/318 314/314/314 319/319/319 
f 320/320/320 318/318/318 319/319/319 
f 320/320/320 321/321/321 318/318/318 
f 318/318/318 321/321/321 322/322/322 
f 323/323/323 316/316/316 317/317/317 
f 323/323/323 324/324/324 316/316/316 
f 317/317/317 325/325/325 323/323/323 
f 325/325/325 324/324/324 323/323/323 
f 318/318/318 325/325/325 317/317/317 
f 325/325/325 326/326/326 324/324/324 
f 327/327/327 326/326/326 325/325/325 
f 318/318/318 322/322/322 328/328/328 
f 328/328/328 322/322/322 327/327/327 
f 327/327/327 325/325/325 329/329/329 
f 318/318/318 329/329/329 325/325/325 
f 328/328/328 327/327/327 329/329/329 
f 328/328/328 329/329/329 318/318/318 
f 330/330/330 332/332/332 331/331/331 
f 330/330/330 333/333/333 332/332/332 
f 334/334/334 332/332/332 333/333/333 
f 335/335/335 332/332/332 334/334/334 
f 335/335/335 334/334/334 336/336/336 
f 334/334/334 333/333/333 337/337/337 
f 338/338/338 334/334/334 337/337/337 
f 333/333/333 330/330/330 339/339/339 
f 337/337/337 333/333/333 339/339/339 
f 340/340/340 339/339/339 330/330/330 
f 340/340/340 330/330/330 341/341/341 
f 340/340/340 341/341/341 342/342/342 
f 340/340/340 342/342/342 343/343/343 
f 343/343/343 342/342/342 344/344/344 
f 345/345/345 339/339/339 340/340/340 
f 345/345/345 340/340/340 343/343/343 
f 337/337/337 339/339/339 346/346/346 
f 345/345/345 346/346/346 339/339/339 
f 347/347/347 337/337/337 346/346/346 
f 338/338/338 337/337/337 347/347/347 
f 348/348/348 346/346/346 345/345/345 
f 348/348/348 347/347/347 346/346/346 
f 345/345/345 343/343/343 349/349/349 
f 348/348/348 345/345/345 349/349/349 
f 343/343/343 344/344/344 350/350/350 
f 343/343/343 351/351/351 349/349/349 
f 343/343/343 350/350/350 351/351/351 
f 352/352/352 350/350/350 344/344/344 
f 352/352/352 344/344/344 353/353/353 
f 354/354/354 351/351/351 350/350/350 
f 354/354/354 350/350/350 352/352/352 
f 355/355/355 352/352/352 353/353/353 
f 355/355/355 353/353/353 356/356/356 
f 357/357/357 354/354/354 352/352/352 
f 357/357/357 352/352/352 355/355/355 
f 347/347/347 348/348/348 358/358/358 
f 347/347/347 358/358/358 359/359/359 
f 359/359/359 338/338/338 347/347/347 
f 359/359/359 360/360/360 338/338/338 
f 338/338/338 360/360/360 361/361/361 
f 338/338/338 361/361/361 362/362/362 
f 358/358/358 348/348/348 363/363/363 
f 358/358/358 363/363/363 364/364/364 
f 348/348/348 349/349/349 363/363/363 
f 364/364/364 363/363/363 365/365/365 
f 349/349/349 365/365/365 363/363/363 
f 364/364/364 365/365/365 366/366/366 
f 349/349/349 351/351/351 365/365/365 
f 367/367/367 366/366/366 365/365/365 
f 368/368/368 365/365/365 351/351/351 
f 367/367/367 365/365/365 368/368/368 
f 368/368/368 351/351/351 354/354/354 
f 368/368/368 369/369/369 367/367/367 
f 370/370/370 368/368/368 354/354/354 
f 368/368/368 370/370/370 369/369/369 
f 370/370/370 354/354/354 357/357/357 
f 369/369/369 370/370/370 371/371/371 
f 369/369/369 371/371/371 372/372/372 
f 371/371/371 373/373/373 372/372/372 
f 371/371/371 374/374/374 373/373/373 
f 370/370/370 357/357/357 375/375/375 
f 371/371/371 370/370/370 375/375/375 
f 375/375/375 357/357/357 355/355/355 
f 371/371/371 375/375/375 376/376/376 
f 375/375/375 355/355/355 377/377/377 
f 376/376/376 375/375/375 377/377/377 
f 377/377/377 355/355/355 356/356/356 
f 356/356/356 378/378/378 377/377/377 
f 376/376/376 377/377/377 378/378/378 
f 356/356/356 379/379/379 378/378/378 
f 380/380/380 376/376/376 378/378/378 
f 380/380/380 381/381/381 376/376/376 
f 382/382/382 384/384/384 383/383/383 
f 382/382/382 383/383/383 385/385/385 
f 385/385/385 386/386/386 382/382/382 
f 383/383/383 387/387/387 385/385/385 
f 383/383/383 388/388/388 387/387/387 
f 388/388/388 389/389/389 387/387/387 
f 387/387/387 389/389/389 385/385/385 
f 388/388/388 390/390/390 389/389/389 
f 389/389/389 390/390/390 391/391/391 
f 385/385/385 392/392/392 386/386/386 
f 393/393/393 386/386/386 392/392/392 
f 393/393/393 392/392/392 394/394/394 
f 395/395/395 394/394/394 392/392/392 
f 385/385/385 389/389/389 396/396/396 
f 389/389/389 391/391/391 396/396/396 
f 385/385/385 396/396/396 392/392/392 
f 391/391/391 395/395/395 397/397/397 
f 395/395/395 392/392/392 397/397/397 
f 391/391/391 397/397/397 396/396/396 
f 392/392/392 396/396/396 397/397/397 
f 398/398/398 400/400/400 399/399/399 
f 398/398/398 399/399/399 401/401/401 
f 401/401/401 402/402/402 398/398/398 
f 403/403/403 401/401/401 399/399/399 
f 403/403/403 399/399/399 404/404/404 
f 405/405/405 403/403/403 404/404/404 
f 405/405/405 401/401/401 403/403/403 
f 405/405/405 404/404/404 406/406/406 
f 407/407/407 405/405/405 406/406/406 
f 401/401/401 408/408/408 402/402/402 
f 409/409/409 402/402/402 408/408/408 
f 409/409/409 408/408/408 410/410/410 
f 408/408/408 411/411/411 410/410/410 
f 412/412/412 401/401/401 405/405/405 
f 407/407/407 412/412/412 405/405/405 
f 412/412/412 408/408/408 401/401/401 
f 408/408/408 413/413/413 411/411/411 
f 413/413/413 407/407/407 411/411/411 
f 413/413/413 412/412/412 407/407/407 
f 413/413/413 408/408/408 412/412/412 
f 414/414/414 416/416/416 415/415/415 
f 414/414/414 417/417/417 416/416/416 
f 418/418/418 417/417/417 414/414/414 
f 418/418/418 414/414/414 419/419/419 
f 420/420/420 418/418/418 419/419/419 
f 420/420/420 421/421/421 418/418/418 
f 422/422/422 418/418/418 421/421/421 
f 416/416/416 417/417/417 423/423/423 
f 416/416/416 423/423/423 424/424/424 
f 423/423/423 417/417/417 425/425/425 
f 424/424/424 423/423/423 425/425/425 
f 425/425/425 417/417/417 418/418/418 
f 424/424/424 425/425/425 426/426/426 
f 425/425/425 427/427/427 426/426/426 
f 427/427/427 428/428/428 422/422/422 
f 422/422/422 428/428/428 418/418/418 
f 425/425/425 429/429/429 427/427/427 
f 425/425/425 418/418/418 429/429/429 
f 427/427/427 429/429/429 428/428/428 
f 429/429/429 418/418/418 428/428/428 
f 430/430/430 432/432/432 431/431/431 
f 430/430/430 433/433/433 432/432/432 
f 434/434/434 433/433/433 430/430/430 
f 434/434/434 430/430/430 435/435/435 
f 436/436/436 434/434/434 435/435/435 
f 436/436/436 437/437/437 434/434/434 
f 434/434/434 437/437/437 438/438/438 
f 439/439/439 432/432/432 433/433/433 
f 439/439/439 440/440/440 432/432/432 
f 433/433/433 441/441/441 439/439/439 
f 441/441/441 440/440/440 439/439/439 
f 434/434/434 441/441/441 433/433/433 
f 441/441/441 442/442/442 440/440/440 
f 443/443/443 442/442/442 441/441/441 
f 434/434/434 438/438/438 444/444/444 
f 444/444/444 438/438/438 443/443/443 
f 443/443/443 441/441/441 445/445/445 
f 434/434/434 445/445/445 441/441/441 
f 444/444/444 443/443/443 445/445/445 
f 444/444/444 445/445/445 434/434/434 
