# exported by StudySceneExporter from mesh 'Tool_Cabinet_Wheel_Back_low'
mtllib materials.mtl
v 0.007044163 -0.01324306 -0.07087682
v 0.006815262 0.02061512 -0.06839049
v -0.007044163 0.01324314 -0.07087682
v 0.02090359 -0.005871086 -0.06839049
v 0.01931797 0.02726543 -0.06117489
v 0.03340629 0.0007792282 -0.06117489
v 0.02924026 0.03254322 -0.04993631
v 0.04332859 0.006057014 -0.04993631
v 0.03561069 0.03593174 -0.03577488
v 0.04969902 0.009445533 -0.03577489
v 0.03780582 0.03709934 -0.02007682
v 0.05189415 0.01061314 -0.02007682
v 0.03561069 0.03593174 -0.004378757
v 0.04969902 0.009445533 -0.004378757
v 0.02924026 0.03254322 0.009782672
v 0.04332859 0.006057014 0.009782672
v 0.01931803 0.02726551 0.02102125
v 0.03340637 0.0007793045 0.02102125
v 0.006815262 0.02061512 0.02823686
v 0.02090359 -0.005871086 0.02823686
v -0.007044163 0.01324314 0.03072319
v 0.007044163 -0.01324306 0.03072319
v -0.02090359 0.005871086 0.02823686
v -0.006815262 -0.02061512 0.02823686
v -0.03340636 -0.0007792282 0.02102126
v -0.01931803 -0.02726543 0.02102126
v -0.04332859 -0.006057014 0.009782681
v -0.02924025 -0.03254322 0.009782681
v -0.04969902 -0.009445533 -0.004378753
v -0.03561069 -0.03593174 -0.004378753
v -0.05189415 -0.01061314 -0.02007682
v -0.03780582 -0.03709934 -0.02007682
v -0.04969902 -0.009445533 -0.03577489
v -0.03561069 -0.03593174 -0.03577489
v -0.04332859 -0.006057014 -0.04993633
v -0.02924025 -0.03254322 -0.04993633
v -0.03340636 -0.0007792282 -0.06117491
v -0.01931803 -0.02726543 -0.06117491
v -0.02090359 0.005871086 -0.06839053
v -0.006815262 -0.02061512 -0.06839053
v -0.007044163 0.01324314 -0.07087682
v 0.007044163 -0.01324306 -0.07087682
v 0.02656074 -0.005448799 0.05920671
v 0.02557146 -0.003588753 0.05920671
v 0.02310514 -0.004900627 0.05054362
v 0.02409451 -0.006760597 0.05054362
v 0.008116664 -0.01525944 0.07087682
v 0.02310509 -0.004900627 -0.01865012
v 0.02656074 -0.005448799 0.07087682
v 0.02805161 0.007443352 0.07087682
v 0.02805161 0.007443352 0.05920671
v 0.02185102 0.01910046 0.07087682
v 0.02185102 0.01910046 0.05920671
v 0.0103274 0.02507007 0.05920671
v 0.0103274 0.02507007 0.07087682
v -0.008116664 0.01525944 0.07087682
v 0.02409445 -0.006760674 -0.01865012
v 0.02273193 -0.00748539 -0.0259763
v 0.02174257 -0.005625419 -0.0259763
v 0.0174745 -0.007895622 -0.03365543
v 0.008116684 -0.01525944 -0.01865012
v 0.01846386 -0.009755668 -0.03365543
v 0.01332514 -0.01248898 -0.03701584
v 0.01233576 -0.010629 -0.03701584
v 0.007127323 -0.01339939 -0.03796554
v 0.008116684 -0.01525944 -0.03796554
v 0.001224823 -0.01892528 -0.03622607
v 0.0002354622 -0.01706531 -0.03622607
v -0.00486084 -0.01977604 -0.03179671
v -0.00387147 -0.02163609 -0.03179671
v -0.006838322 -0.02321415 -0.0259763
v -0.007827692 -0.02135418 -0.0259763
v -0.008679228 -0.02180714 -0.01865012
v -0.007689857 -0.02366711 -0.01865012
v -0.008679228 -0.02180714 0.05055498
v -0.007689857 -0.02366711 0.05055498
v -0.01131682 -0.0232101 0.05920671
v -0.01032745 -0.02507007 0.05920671
v -0.01032745 -0.02507007 0.07087682
v -0.02185102 -0.01910046 0.05920671
v -0.02185102 -0.01910046 0.07087682
v -0.02805161 -0.007443352 0.05920671
v -0.02805161 -0.007443352 0.07087682
v -0.02656082 0.005448799 0.07087682
v -0.02656082 0.005448799 0.05920671
v -0.02656082 0.005448799 0.07087682
v -0.02656082 0.005448799 0.05920671
v -0.02392323 0.006851768 0.05055498
v -0.02557146 0.003588753 0.05920671
v -0.02293386 0.004991722 0.05055498
v -0.02293386 0.004991722 -0.01865012
v -0.008116684 0.01525944 -0.01865012
v -0.02392323 0.006851768 -0.01865012
v -0.02307169 0.007304726 -0.0259763
v 0.00786108 0.0237582 -0.01865012
v -0.02208233 0.005444679 -0.0259763
v -0.01911548 0.007022819 -0.03179671
v -0.02010484 0.00888279 -0.03179671
v -0.01500854 0.01159359 -0.03622607
v -0.01401917 0.009733619 -0.03622607
v -0.007127323 0.01339947 -0.03796554
v -0.008116684 0.01525944 -0.03796554
v -0.00290823 0.0180299 -0.03701584
v -0.001918869 0.01616985 -0.03701584
v 0.003219872 0.01890324 -0.03365543
v 0.002230511 0.02076321 -0.03365543
v 0.006498565 0.02303348 -0.0259763
v 0.007487926 0.02117344 -0.0259763
v 0.00885046 0.02189823 -0.01865012
v 0.008850517 0.02189823 0.05054362
v 0.007861156 0.0237582 0.05054362
v 0.01131683 0.0232101 0.05920671
v -0.02557146 0.003588753 0.05920671
v -0.02656082 0.005448799 0.05920671
v -0.02805161 -0.007443352 0.05920671
v -0.02185102 -0.01910046 0.05920671
v -0.01131682 -0.0232101 0.05920671
v 0.007127323 -0.01339939 0.05920671
v -0.01032745 -0.02507007 0.05920671
v -0.008679228 -0.02180714 0.05055498
v -0.008679228 -0.02180714 -0.01865012
v 0.007127323 -0.01339939 -0.01865012
v -0.007827692 -0.02135418 -0.0259763
v -0.00486084 -0.01977604 -0.03179671
v 0.0002354622 -0.01706531 -0.03622607
v 0.007127323 -0.01339939 -0.03796554
v 0.01233576 -0.010629 -0.03701584
v 0.0174745 -0.007895622 -0.03365543
v 0.02174257 -0.005625419 -0.0259763
v 0.02310509 -0.004900627 -0.01865012
v 0.02310514 -0.004900627 0.05054362
v 0.02557146 -0.003588753 0.05920671
v -0.007127313 0.01339939 0.05920671
v -0.02293386 0.004991722 0.05055498
v -0.02293386 0.004991722 -0.01865012
v -0.007127323 0.01339947 -0.01865012
v -0.02208233 0.005444679 -0.0259763
v -0.01911548 0.007022819 -0.03179671
v -0.01401917 0.009733619 -0.03622607
v -0.007127323 0.01339947 -0.03796554
v -0.001918869 0.01616985 -0.03701584
v 0.003219872 0.01890324 -0.03365543
v 0.007487926 0.02117344 -0.0259763
v 0.00885046 0.02189823 -0.01865012
v 0.008850517 0.02189823 0.05054362
v 0.01131683 0.0232101 0.05920671
v 0.02805161 0.007443352 0.05920671
v 0.02656074 -0.005448799 0.05920671
v 0.02185102 0.01910046 0.05920671
v 0.0103274 0.02507007 0.05920671
v 0.02090359 -0.005871086 -0.06839049
v 0.007044163 -0.01324306 -0.07087682
v 0.007044163 -0.01324306 -0.02007682
v 0.03340629 0.0007792282 -0.06117489
v -0.006815262 -0.02061512 -0.06839053
v 0.04332859 0.006057014 -0.04993631
v -0.01931803 -0.02726543 -0.06117491
v 0.04969902 0.009445533 -0.03577489
v -0.02924025 -0.03254322 -0.04993633
v 0.05189415 0.01061314 -0.02007682
v -0.03561069 -0.03593174 -0.03577489
v 0.04969902 0.009445533 -0.004378757
v -0.03780582 -0.03709934 -0.02007682
v 0.04332859 0.006057014 0.009782672
v -0.03561069 -0.03593174 -0.004378753
v 0.03340637 0.0007793045 0.02102125
v -0.02924025 -0.03254322 0.009782681
v 0.02090359 -0.005871086 0.02823686
v -0.01931803 -0.02726543 0.02102126
v 0.007044163 -0.01324306 0.03072319
v -0.006815262 -0.02061512 0.02823686
v -0.007044163 0.01324314 -0.07087682
v 0.006815262 0.02061512 -0.06839049
v -0.007044163 0.01324314 -0.02007682
v -0.02090359 0.005871086 -0.06839053
v 0.01931797 0.02726543 -0.06117489
v -0.03340636 -0.0007792282 -0.06117491
v 0.02924026 0.03254322 -0.04993631
v -0.04332859 -0.006057014 -0.04993633
v 0.03561069 0.03593174 -0.03577488
v -0.04969902 -0.009445533 -0.03577489
v 0.03780582 0.03709934 -0.02007682
v -0.05189415 -0.01061314 -0.02007682
v 0.03561069 0.03593174 -0.004378757
v -0.04969902 -0.009445533 -0.004378753
v 0.02924026 0.03254322 0.009782672
v -0.04332859 -0.006057014 0.009782681
v 0.01931803 0.02726551 0.02102125
v -0.03340636 -0.0007792282 0.02102126
v 0.006815262 0.02061512 0.02823686
v -0.02090359 0.005871086 0.02823686
v -0.007044163 0.01324314 0.03072319
v 0.005774708 -0.02437237 -0.0163417
v 0.002410717 -0.01804806 -0.0163417
v 0.007932529 -0.01511097 -0.01273075
v 0.005774708 -0.02437237 -0.0235636
v 0.002410717 -0.01804806 -0.0235636
v 0.0112965 -0.02143528 -0.01273075
v 0.01345432 -0.01217381 -0.0163417
v 0.01129648 -0.0214352 -0.02717455
v 0.007932529 -0.01511097 -0.02717455
v 0.0112965 -0.02143528 -0.01995265
v 0.01681829 -0.01849812 -0.0163417
v 0.01345432 -0.01217381 -0.0235636
v 0.01681829 -0.01849812 -0.0235636
v -0.005923204 0.0242561 -0.0163417
v -0.002559233 0.01793186 -0.0163417
v -0.008081036 0.0149947 -0.01273075
v -0.005923204 0.0242561 -0.0235636
v -0.002559233 0.01793186 -0.0235636
v -0.011445 0.02131901 -0.01273075
v -0.01360282 0.01205761 -0.0163417
v -0.011445 0.02131901 -0.02717455
v -0.008081036 0.0149947 -0.02717455
v -0.011445 0.02131901 -0.01995265
v -0.0169668 0.01838192 -0.0163417
v -0.01360284 0.01205761 -0.0235636
v -0.0169668 0.01838192 -0.0235636
vt 0.2082182 0.9619267
vt 0.1981989 0.9808409
vt 0.2082192 0.9808403
vt 0.1981979 0.9619272
vt 0.1881786 0.9808414
vt 0.1881776 0.9619278
vt 0.1781583 0.980842
vt 0.1781573 0.9619283
vt 0.1681381 0.9808425
vt 0.168137 0.9619289
vt 0.1581178 0.9808431
vt 0.1581168 0.9619294
vt 0.1480975 0.9808436
vt 0.1480965 0.96193
vt 0.1380772 0.9808441
vt 0.1380762 0.9619306
vt 0.128057 0.9808447
vt 0.1280559 0.961931
vt 0.1180367 0.9808453
vt 0.1180356 0.9619316
vt 0.1080164 0.9808459
vt 0.1080153 0.9619322
vt 0.09799609 0.9808463
vt 0.09799504 0.9619328
vt 0.08797579 0.9808469
vt 0.08797474 0.9619333
vt 0.07795551 0.9808475
vt 0.07795447 0.9619339
vt 0.06793524 0.980848
vt 0.06793421 0.9619344
vt 0.05791494 0.9808486
vt 0.05791392 0.9619349
vt 0.04789466 0.9808491
vt 0.04789363 0.9619355
vt 0.03787439 0.9808496
vt 0.03787335 0.9619361
vt 0.02785412 0.9808502
vt 0.02785309 0.9619365
vt 0.01783382 0.9808508
vt 0.01783278 0.9619371
vt 0.00781353 0.9808513
vt 0.0078125 0.9619377
vt 0.8449254 0.4303271
vt 0.8461885 0.4300115
vt 0.8445622 0.4245331
vt 0.8432365 0.4246936
vt 0.8321224 0.4376749
vt 0.8427321 0.3807772
vt 0.844979 0.43769
vt 0.8531451 0.4376929
vt 0.85314 0.4303284
vt 0.8614708 0.4376951
vt 0.8614797 0.4303306
vt 0.8696942 0.4303338
vt 0.8696368 0.4376962
vt 0.8824937 0.4376851
vt 0.8414215 0.380968
vt 0.8401626 0.3764629
vt 0.8413526 0.3758353
vt 0.8377734 0.3709293
vt 0.8300515 0.3816721
vt 0.8369351 0.371894
vt 0.83332 0.3699491
vt 0.8337375 0.3686611
vt 0.829617 0.3681823
vt 0.8297058 0.369462
vt 0.8249731 0.3707091
vt 0.8243847 0.3694975
vt 0.8205245 0.3726296
vt 0.8214791 0.3734842
vt 0.8194674 0.3771231
vt 0.8182166 0.3766406
vt 0.81746 0.3816432
vt 0.818784 0.3817172
vt 0.818854 0.4255063
vt 0.8201855 0.425573
vt 0.8175385 0.4311166
vt 0.8188317 0.4313498
vt 0.8193555 0.4386964
vt 0.8106403 0.4320056
vt 0.8112186 0.4393477
vt 0.8023302 0.4326707
vt 0.8029165 0.4400122
vt 0.7947528 0.4406657
vt 0.7941656 0.4333243
vt 0.8952928 0.4387195
vt 0.8957791 0.4313699
vt 0.8944337 0.4255924
vt 0.8970727 0.4311378
vt 0.8957655 0.4255275
vt 0.89719 0.3816674
vt 0.8845979 0.381684
vt 0.8958662 0.3817408
vt 0.8951865 0.3771443
vt 0.8732292 0.3809705
vt 0.8964376 0.3766626
vt 0.8941312 0.3726486
vt 0.8931763 0.3735029
vt 0.8896832 0.3707248
vt 0.890272 0.3695134
vt 0.8850399 0.368195
vt 0.8849507 0.3694746
vt 0.8813363 0.3699594
vt 0.8809192 0.3686714
vt 0.8768825 0.3709369
vt 0.8777205 0.3719019
vt 0.8744911 0.3764677
vt 0.8733012 0.3758396
vt 0.871918 0.3807797
vt 0.8700618 0.4245407
vt 0.8713865 0.4247027
vt 0.8684313 0.4300174
vt 0.8632364 0.7487376
vt 0.8632364 0.7500659
vt 0.8678832 0.7433314
vt 0.8678836 0.7350072
vt 0.8632369 0.7296007
vt 0.8500661 0.7296003
vt 0.863237 0.7282726
vt 0.8613536 0.7241462
vt 0.8613549 0.6805155
vt 0.8500676 0.6805152
vt 0.8607469 0.6758966
vt 0.8586284 0.6722271
vt 0.8549892 0.6694344
vt 0.8500679 0.6683376
vt 0.8463485 0.6689363
vt 0.8426789 0.6710548
vt 0.839631 0.675896
vt 0.8386578 0.6805148
vt 0.8386567 0.7241383
vt 0.8368952 0.7296
vt 0.8500655 0.7487372
vt 0.8613527 0.7541921
vt 0.8613514 0.7978228
vt 0.850064 0.7978224
vt 0.8607432 0.8024415
vt 0.8586245 0.806111
vt 0.8549852 0.8089033
vt 0.8500637 0.8099999
vt 0.8463444 0.8094011
vt 0.842675 0.8072824
vt 0.8396274 0.8024409
vt 0.8386545 0.7978221
vt 0.8386557 0.7541986
vt 0.8368947 0.7487369
vt 0.8322483 0.7350062
vt 0.8368953 0.7282718
vt 0.8322481 0.7433304
vt 0.8368947 0.7500651
vt 0.9593283 0.9505424
vt 0.9593276 0.9405221
vt 0.9276952 0.9455343
vt 0.9562325 0.9600724
vt 0.9562306 0.9309925
vt 0.9503433 0.9681794
vt 0.9503403 0.9228863
vt 0.942237 0.9740697
vt 0.9422334 0.916997
vt 0.9327073 0.9771667
vt 0.9327033 0.9139012
vt 0.9226871 0.9771674
vt 0.922683 0.9139018
vt 0.913157 0.9740716
vt 0.9131534 0.9169989
vt 0.9050501 0.9681824
vt 0.9050471 0.9228891
vt 0.8991598 0.9600762
vt 0.8991579 0.9309961
vt 0.8960627 0.9505464
vt 0.8960621 0.9405261
vt 0.5859842 0.9309387
vt 0.5778775 0.9250489
vt 0.5633376 0.9535853
vt 0.5918739 0.9390453
vt 0.5683477 0.9219525
vt 0.5949704 0.9485751
vt 0.5583274 0.9219525
vt 0.5949704 0.9585955
vt 0.5487976 0.9250489
vt 0.5918739 0.9681253
vt 0.5406909 0.9309387
vt 0.5859842 0.9762319
vt 0.5348012 0.9390453
vt 0.5778776 0.9821216
vt 0.5317048 0.9485751
vt 0.5683477 0.985218
vt 0.5317048 0.9585955
vt 0.5583275 0.985218
vt 0.5348012 0.9681253
vt 0.5487976 0.9821216
vt 0.540691 0.9762319
vt 0.8053418 0.3833593
vt 0.8084863 0.3809597
vt 0.8013439 0.3768322
vt 0.8048486 0.3876823
vt 0.8084865 0.3892427
vt 0.801842 0.3807631
vt 0.7941921 0.380935
vt 0.8008438 0.3894134
vt 0.8012929 0.393343
vt 0.8013374 0.385088
vt 0.7978372 0.3824832
vt 0.7941656 0.3891794
vt 0.7973438 0.3868154
vt 0.7710628 0.2663349
vt 0.7674049 0.2648297
vt 0.7674426 0.2730788
vt 0.7750446 0.2645807
vt 0.7745573 0.2606523
vt 0.7705858 0.2706663
vt 0.7745923 0.2771854
vt 0.7785591 0.2671659
vt 0.7817258 0.2647963
vt 0.7745751 0.268921
vt 0.7740909 0.2732571
vt 0.7817249 0.2730507
vt 0.7780806 0.2714983
vn 0.1381118 0.07346323 -0.9876884
vn 0.2728233 0.1451179 -0.9510565
vn 0.1381118 0.07346323 -0.9876884
vn 0.2728235 0.145118 -0.9510564
vn 0.5189398 0.2760303 -0.8090172
vn 0.5189399 0.2760304 -0.8090171
vn 0.7142591 0.3799231 -0.5877859
vn 0.7142591 0.3799231 -0.587786
vn 0.8396628 0.4466266 -0.3090163
vn 0.8396628 0.4466266 -0.3090163
vn 0.8828737 0.4696108 0
vn 0.8828737 0.4696108 0
vn 0.8396628 0.4466266 0.3090163
vn 0.8396628 0.4466266 0.3090163
vn 0.7142605 0.3799239 0.5877836
vn 0.7142606 0.379924 0.5877836
vn 0.5189398 0.2760305 0.8090171
vn 0.51894 0.2760306 0.809017
vn 0.2728224 0.1451176 0.9510567
vn 0.2728225 0.1451176 0.9510567
vn 0 0 1
vn -2.90064E-07 0 1
vn -0.2728227 -0.1451176 0.9510565
vn -0.2728227 -0.1451176 0.9510565
vn -0.5189399 -0.2760304 0.809017
vn -0.5189397 -0.2760304 0.8090172
vn -0.7142597 -0.3799235 0.587785
vn -0.7142599 -0.3799235 0.5877848
vn -0.8396627 -0.4466266 0.3090166
vn -0.8396627 -0.4466266 0.3090166
vn -0.8828735 -0.469611 2.014341E-07
vn -0.8828735 -0.469611 2.014339E-07
vn -0.8396627 -0.4466269 -0.3090163
vn -0.8396627 -0.4466268 -0.3090163
vn -0.7142597 -0.3799237 -0.5877848
vn -0.7142598 -0.3799238 -0.5877846
vn -0.5189401 -0.2760307 -0.8090168
vn -0.51894 -0.2760306 -0.8090169
vn -0.272822 -0.1451172 -0.9510569
vn -0.272822 -0.1451172 -0.9510569
vn -0.1381095 -0.07346206 -0.9876888
vn -0.1381095 -0.07346205 -0.9876888
vn 0.8124903 -0.5826882 -0.0182713
vn 0.8402801 0.4469303 -0.3068919
vn 0.882308 0.4693046 -0.03585707
vn 0.5318018 -0.8468649 -0.002576549
vn 0.4696109 -0.8828735 1.060435E-07
vn 0.8826957 0.469512 -0.02016487
vn 0.8567605 -0.5157146 0
vn 0.9820901 0.1884121 0
vn 0.9820901 0.1884121 0
vn 0.7051545 0.7090537 0
vn 0.7051545 0.7090537 0
vn -0.02904852 0.999411 -0.01827275
vn 0.0512356 0.9986866 0
vn -0.4696087 0.8828747 1.398291E-07
vn 0.5616317 -0.8273846 -0.00216399
vn 0.6600618 -0.7446527 -0.09904882
vn 0.8125355 0.4321883 -0.3911512
vn 0.6352604 0.3379021 -0.6944541
vn 0.469611 -0.8828735 1.009414E-07
vn 0.6175359 -0.7658856 -0.1790774
vn 0.5290748 -0.8180533 -0.2255409
vn 0.304729 0.1620912 -0.938545
vn -0.05079345 -0.02701499 -0.9983437
vn 0.4434021 -0.8631982 -0.2414195
vn 0.3651895 -0.9035152 -0.2242697
vn -0.3651841 -0.194242 -0.9104453
vn -0.6591628 -0.3506217 -0.6652585
vn 0.2924835 -0.9420838 -0.1641083
vn 0.2413056 -0.9672008 -0.07933612
vn -0.8386529 -0.4460969 -0.3125043
vn -0.8827989 -0.469582 -0.01260175
vn 0.3713029 -0.9285107 -0.001364039
vn -0.882218 -0.4692771 -0.03834368
vn 0.4044951 -0.914536 -0.002776414
vn -0.8345025 -0.4439187 -0.3264072
vn 0.02874051 -0.9993956 -0.01955487
vn -0.05123563 -0.9986866 0
vn -0.7051556 -0.7090526 0
vn -0.7051556 -0.7090526 0
vn -0.9820895 -0.188415 0
vn -0.9820895 -0.188415 0
vn -0.9933805 0.1148699 0
vn -0.9933805 0.1148699 0
vn -0.4696099 0.8828741 0
vn -0.5466806 0.8367683 -0.03096968
vn -0.5322593 0.8465768 -0.002776513
vn -0.8345258 -0.4438834 -0.3263958
vn -0.8822303 -0.4692542 -0.03834343
vn -0.8828096 -0.4695619 -0.0126016
vn -0.4696084 0.8828748 1.857109E-07
vn -0.5624002 0.8268641 -0.001363839
vn -0.6671413 0.7406942 -0.07933836
vn -0.372168 0.9281629 -0.002163802
vn -0.8386662 -0.446079 -0.3124941
vn -0.6591816 -0.3506151 -0.6652433
vn -0.6177081 0.7690938 -0.164108
vn -0.5450941 0.8078237 -0.2242619
vn -0.3651852 -0.194244 -0.9104444
vn -0.05079129 -0.02701533 -0.9983438
vn -0.4679551 0.8501382 -0.241419
vn -0.3826212 0.8959548 -0.2255349
vn 0.3047294 0.1620905 -0.938545
vn 0.635269 0.3378991 -0.6944476
vn -0.2899132 0.9401497 -0.1790775
vn -0.2485507 0.963541 -0.09905235
vn 0.8125381 0.4321859 -0.3911485
vn 0.8826855 0.4695314 -0.02016596
vn 0.8822944 0.46933 -0.03585836
vn -0.4049938 0.9143158 -0.002576455
vn 0.8402438 0.4469868 -0.3069089
vn 0.02469677 -0.0464296 -0.9986162
vn 0 1.535414E-06 -1
vn 0 -4.414184E-07 -1
vn 0 -4.188032E-07 -1
vn -0.02469702 0.04642973 -0.9986162
vn -0.2856231 0.5369747 -0.7937744
vn 0 1.228366E-05 -1
vn -0.4696109 0.8828735 0
vn -0.4696104 0.8828737 1.270106E-07
vn -0.4696106 0.8828737 0
vn -0.4696122 0.8828728 3.004792E-06
vn -0.4696143 0.8828717 -8.661171E-07
vn -0.4696097 0.8828741 -1.965767E-06
vn -0.4696101 0.8828739 0
vn -0.469606 0.882876 -1.551707E-06
vn -0.4696023 0.882878 -8.209854E-07
vn -0.4696105 0.8828737 -1.860544E-06
vn -0.469611 0.8828735 -1.010795E-07
vn -0.469611 0.8828735 0
vn -0.02513839 0.04725993 -0.9985663
vn 0.2855957 -0.536922 -0.7938198
vn 0.4696074 -0.8828753 -4.740775E-07
vn 0.4696071 -0.8828755 -4.894439E-07
vn 0.4696113 -0.8828733 -5.430377E-07
vn 0.469615 -0.8828713 -2.297839E-06
vn 0.469612 -0.882873 -2.557354E-06
vn 0.4696059 -0.8828762 -9.828835E-07
vn 0.4696099 -0.8828741 0
vn 0.4696053 -0.8828765 7.758537E-07
vn 0.4696025 -0.8828779 7.175281E-07
vn 0.4696106 -0.8828737 2.756361E-06
vn 0.4696157 -0.882871 -4.261688E-07
vn 0.4696159 -0.8828709 -6.471046E-07
vn 0.02513864 -0.04726001 -0.9985663
vn 0 0 -1
vn 0 -1.535509E-06 -1
vn 0 0 -1
vn 0 0 -1
vn 0.4696102 -0.8828738 -3.587665E-07
vn 0.4696149 -0.8828714 0
vn 0.4696108 -0.8828735 0
vn 0.4696103 -0.8828738 2.391774E-07
vn 0.4696092 -0.8828745 9.567101E-07
vn 0.4696117 -0.8828731 5.381481E-07
vn 0.4696087 -0.8828747 3.58766E-07
vn 0.4696108 -0.8828735 -2.989719E-07
vn 0.4696121 -0.8828729 -5.979434E-07
vn 0.4696106 -0.8828737 0
vn 0.4696098 -0.882874 7.922753E-07
vn 0.4696108 -0.8828737 2.989718E-07
vn 0.4696119 -0.882873 0
vn 0.4696095 -0.8828743 2.989726E-07
vn 0.4696099 -0.8828741 -7.922754E-07
vn 0.4696106 -0.8828737 2.391773E-07
vn 0.4696092 -0.8828745 5.979451E-07
vn 0.46961 -0.8828739 0
vn 0.4696092 -0.8828745 -3.587638E-07
vn 0.4696136 -0.882872 0
vn 0.4696142 -0.8828718 -9.567073E-07
vn -0.4696128 0.8828725 0
vn -0.4696106 0.8828737 3.587662E-07
vn -0.4696108 0.8828735 0
vn -0.4696092 0.8828745 -8.371223E-07
vn -0.4696111 0.8828735 -3.587665E-07
vn -0.4696104 0.8828737 -2.391765E-07
vn -0.4696117 0.8828731 -7.773252E-07
vn -0.4696121 0.8828728 7.175325E-07
vn -0.4696108 0.8828735 4.484577E-07
vn -0.4696099 0.882874 -4.185605E-07
vn -0.4696106 0.8828737 0
vn -0.4696119 0.882873 0
vn -0.4696108 0.8828737 -4.484575E-07
vn -0.4696099 0.8828741 4.185603E-07
vn -0.4696093 0.8828744 -2.989727E-07
vn -0.4696122 0.8828728 -7.175321E-07
vn -0.4696085 0.8828748 -1.195893E-07
vn -0.4696082 0.8828748 2.39177E-07
vn -0.4696106 0.8828737 2.391769E-07
vn -0.4696104 0.8828737 8.371208E-07
vn -0.4696164 0.8828706 0
vn -0.5751653 -0.6667492 0.4739519
vn -0.7645918 -0.4066956 0.4999982
vn 1.185738E-06 -1.058695E-07 1
vn -0.5751628 -0.6667506 -0.473953
vn -0.7645908 -0.4066965 -0.4999988
vn 0.1495986 -0.281242 0.9479046
vn 0.7645904 0.4066946 0.500001
vn 0.1495983 -0.2812398 -0.9479054
vn 4.361846E-06 -2.117401E-07 -1
vn 0.469613 -0.8828723 -3.598327E-06
vn 0.8743542 0.1042679 0.4739543
vn 0.7645923 0.4066953 -0.4999975
vn 0.8743553 0.1042666 -0.473953
vn 0.575159 0.6667529 0.4739544
vn 0.7645881 0.4066975 0.5000023
vn -2.816164E-06 -1.122231E-06 1
vn 0.5751588 0.6667526 -0.4739549
vn 0.7645882 0.4066974 -0.5000021
vn -0.1495933 0.2812417 0.9479056
vn -0.7645892 -0.4066959 0.5000018
vn -0.1495954 0.2812417 -0.9479052
vn -5.060623E-06 -5.611151E-07 -1
vn -0.4696061 0.882876 0
vn -0.8743546 -0.1042673 0.4739539
vn -0.7645913 -0.4066951 -0.4999992
vn -0.8743556 -0.1042665 -0.4739522
usemtl Mat_Tool_Cabinet
f 1/1/1 3/3/3 2/2/2 
f 1/1/1 2/2/2 4/4/4 
f 4/4/4 2/2/2 5/5/5 
f 4/4/4 5/5/5 6/6/6 
f 6/6/6 5/5/5 7/7/7 
f 6/6/6 7/7/7 8/8/8 
f 8/8/8 7/7/7 9/9/9 
f 8/8/8 9/9/9 10/10/10 
f 10/10/10 9/9/9 11/11/11 
f 10/10/10 11/11/11 12/12/12 
f 12/12/12 11/11/11 13/13/13 
f 12/12/12 13/13/13 14/14/14 
f 14/14/14 13/13/13 15/15/15 
f 14/14/14 15/15/15 16/16/16 
f 16/16/16 15/15/15 17/17/17 
f 16/16/16 17/17/17 18/18/18 
f 18/18/18 17/17/17 19/19/19 
f 18/18/18 19/19/19 20/20/20 
f 20/20/20 19/19/19 21/21/21 
f 20/20/20 21/21/21 22/22/22 
f 22/22/22 21/21/21 23/23/23 
f 22/22/22 23/23/23 24/24/24 
f 24/24/24 23/23/23 25/25/25 
f 24/24/24 25/25/25 26/26/26 
f 26/26/26 25/25/25 27/27/27 
f 26/26/26 27/27/27 28/28/28 
f 28/28/28 27/27/27 29/29/29 
f 28/28/28 29/29/29 30/30/30 
f 30/30/30 29/29/29 31/31/31 
f 30/30/30 31/31/31 32/32/32 
f 32/32/32 31/31/31 33/33/33 
f 32/32/32 33/33/33 34/34/34 
f 34/34/34 33/33/33 35/35/35 
f 34/34/34 35/35/35 36/36/36 
f 36/36/36 35/35/35 37/37/37 
f 36/36/36 37/37/37 38/38/38 
f 38/38/38 37/37/37 39/39/39 
f 38/38/38 39/39/39 40/40/40 
f 40/40/40 39/39/39 41/41/41 
f 40/40/40 41/41/41 42/42/42 
f 43/43/43 45/45/45 44/44/44 
f 43/43/43 46/46/46 45/45/45 
f 47/47/47 46/46/46 43/43/43 
f 48/48/48 45/45/45 46/46/46 
f 49/49/49 47/47/47 43/43/43 
f 50/50/50 49/49/49 43/43/43 
f 50/50/50 43/43/43 51/51/51 
f 52/52/52 50/50/50 51/51/51 
f 52/52/52 51/51/51 53/53/53 
f 52/52/52 53/53/53 54/54/54 
f 52/52/52 54/54/54 55/55/55 
f 55/55/55 54/54/54 56/56/56 
f 48/48/48 46/46/46 57/57/57 
f 57/57/57 46/46/46 47/47/47 
f 48/48/48 57/57/57 58/58/58 
f 48/48/48 58/58/58 59/59/59 
f 58/58/58 60/60/60 59/59/59 
f 57/57/57 61/61/61 58/58/58 
f 57/57/57 47/47/47 61/61/61 
f 61/61/61 62/62/62 58/58/58 
f 58/58/58 62/62/62 60/60/60 
f 60/60/60 62/62/62 63/63/63 
f 61/61/61 63/63/63 62/62/62 
f 60/60/60 63/63/63 64/64/64 
f 63/63/63 65/65/65 64/64/64 
f 63/63/63 66/66/66 65/65/65 
f 61/61/61 66/66/66 63/63/63 
f 65/65/65 66/66/66 67/67/67 
f 61/61/61 67/67/67 66/66/66 
f 65/65/65 67/67/67 68/68/68 
f 67/67/67 69/69/69 68/68/68 
f 67/67/67 70/70/70 69/69/69 
f 61/61/61 70/70/70 67/67/67 
f 69/69/69 70/70/70 71/71/71 
f 61/61/61 71/71/71 70/70/70 
f 69/69/69 71/71/71 72/72/72 
f 71/71/71 73/73/73 72/72/72 
f 61/61/61 74/74/74 71/71/71 
f 71/71/71 74/74/74 73/73/73 
f 74/74/74 75/75/75 73/73/73 
f 74/74/74 61/61/61 47/47/47 
f 74/74/74 76/76/76 75/75/75 
f 74/74/74 47/47/47 76/76/76 
f 77/77/77 75/75/75 76/76/76 
f 77/77/77 76/76/76 78/78/78 
f 78/78/78 76/76/76 47/47/47 
f 47/47/47 79/79/79 78/78/78 
f 79/79/79 80/80/80 78/78/78 
f 79/79/79 81/81/81 80/80/80 
f 81/81/81 82/82/82 80/80/80 
f 81/81/81 83/83/83 82/82/82 
f 84/84/84 82/82/82 83/83/83 
f 84/84/84 85/85/85 82/82/82 
f 56/56/56 87/87/87 86/86/86 
f 87/87/87 56/56/56 88/88/88 
f 89/89/89 87/87/87 88/88/88 
f 89/89/89 88/88/88 90/90/90 
f 91/91/91 90/90/90 88/88/88 
f 88/88/88 56/56/56 92/92/92 
f 88/88/88 92/92/92 93/93/93 
f 91/91/91 88/88/88 93/93/93 
f 92/92/92 94/94/94 93/93/93 
f 94/94/94 91/91/91 93/93/93 
f 56/56/56 95/95/95 92/92/92 
f 94/94/94 96/96/96 91/91/91 
f 97/97/97 96/96/96 94/94/94 
f 97/97/97 94/94/94 98/98/98 
f 92/92/92 98/98/98 94/94/94 
f 99/99/99 97/97/97 98/98/98 
f 92/92/92 99/99/99 98/98/98 
f 99/99/99 100/100/100 97/97/97 
f 101/101/101 100/100/100 99/99/99 
f 101/101/101 99/99/99 102/102/102 
f 92/92/92 102/102/102 99/99/99 
f 103/103/103 101/101/101 102/102/102 
f 92/92/92 103/103/103 102/102/102 
f 103/103/103 104/104/104 101/101/101 
f 105/105/105 104/104/104 103/103/103 
f 92/92/92 106/106/106 103/103/103 
f 105/105/105 103/103/103 106/106/106 
f 92/92/92 107/107/107 106/106/106 
f 107/107/107 105/105/105 106/106/106 
f 95/95/95 107/107/107 92/92/92 
f 107/107/107 108/108/108 105/105/105 
f 109/109/109 108/108/108 107/107/107 
f 109/109/109 107/107/107 95/95/95 
f 95/95/95 110/110/110 109/109/109 
f 95/95/95 111/111/111 110/110/110 
f 56/56/56 111/111/111 95/95/95 
f 56/56/56 54/54/54 111/111/111 
f 54/54/54 110/110/110 111/111/111 
f 54/54/54 112/112/112 110/110/110 
f 113/113/113 115/115/115 114/114/114 
f 113/113/113 116/116/116 115/115/115 
f 113/113/113 117/117/117 116/116/116 
f 113/113/113 118/118/118 117/117/117 
f 116/116/116 117/117/117 119/119/119 
f 118/118/118 120/120/120 117/117/117 
f 121/121/121 120/120/120 118/118/118 
f 121/121/121 118/118/118 122/122/122 
f 122/122/122 123/123/123 121/121/121 
f 122/122/122 124/124/124 123/123/123 
f 122/122/122 125/125/125 124/124/124 
f 122/122/122 126/126/126 125/125/125 
f 122/122/122 127/127/127 126/126/126 
f 122/122/122 128/128/128 127/127/127 
f 122/122/122 129/129/129 128/128/128 
f 130/130/130 129/129/129 122/122/122 
f 130/130/130 122/122/122 118/118/118 
f 130/130/130 118/118/118 131/131/131 
f 132/132/132 131/131/131 118/118/118 
f 118/118/118 113/113/113 132/132/132 
f 132/132/132 113/113/113 133/133/133 
f 133/133/133 113/113/113 134/134/134 
f 133/133/133 134/134/134 135/135/135 
f 133/133/133 135/135/135 136/136/136 
f 136/136/136 135/135/135 137/137/137 
f 136/136/136 137/137/137 138/138/138 
f 136/136/136 138/138/138 139/139/139 
f 136/136/136 139/139/139 140/140/140 
f 136/136/136 140/140/140 141/141/141 
f 136/136/136 141/141/141 142/142/142 
f 136/136/136 142/142/142 143/143/143 
f 144/144/144 136/136/136 143/143/143 
f 145/145/145 136/136/136 144/144/144 
f 145/145/145 133/133/133 136/136/136 
f 146/146/146 133/133/133 145/145/145 
f 132/132/132 133/133/133 146/146/146 
f 146/146/146 147/147/147 132/132/132 
f 132/132/132 147/147/147 148/148/148 
f 146/146/146 149/149/149 147/147/147 
f 146/146/146 150/150/150 149/149/149 
f 151/151/151 153/153/153 152/152/152 
f 154/154/154 153/153/153 151/151/151 
f 152/152/152 153/153/153 155/155/155 
f 156/156/156 153/153/153 154/154/154 
f 155/155/155 153/153/153 157/157/157 
f 158/158/158 153/153/153 156/156/156 
f 157/157/157 153/153/153 159/159/159 
f 160/160/160 153/153/153 158/158/158 
f 159/159/159 153/153/153 161/161/161 
f 162/162/162 153/153/153 160/160/160 
f 161/161/161 153/153/153 163/163/163 
f 164/164/164 153/153/153 162/162/162 
f 163/163/163 153/153/153 165/165/165 
f 166/166/166 153/153/153 164/164/164 
f 165/165/165 153/153/153 167/167/167 
f 168/168/168 153/153/153 166/166/166 
f 167/167/167 153/153/153 169/169/169 
f 170/170/170 153/153/153 168/168/168 
f 169/169/169 153/153/153 171/171/171 
f 171/171/171 153/153/153 170/170/170 
f 172/172/172 174/174/174 173/173/173 
f 175/175/175 174/174/174 172/172/172 
f 173/173/173 174/174/174 176/176/176 
f 177/177/177 174/174/174 175/175/175 
f 176/176/176 174/174/174 178/178/178 
f 179/179/179 174/174/174 177/177/177 
f 178/178/178 174/174/174 180/180/180 
f 181/181/181 174/174/174 179/179/179 
f 180/180/180 174/174/174 182/182/182 
f 183/183/183 174/174/174 181/181/181 
f 182/182/182 174/174/174 184/184/184 
f 185/185/185 174/174/174 183/183/183 
f 184/184/184 174/174/174 186/186/186 
f 187/187/187 174/174/174 185/185/185 
f 186/186/186 174/174/174 188/188/188 
f 189/189/189 174/174/174 187/187/187 
f 188/188/188 174/174/174 190/190/190 
f 191/191/191 174/174/174 189/189/189 
f 190/190/190 174/174/174 192/192/192 
f 192/192/192 174/174/174 191/191/191 
f 193/193/193 195/195/195 194/194/194 
f 196/196/196 193/193/193 194/194/194 
f 196/196/196 194/194/194 197/197/197 
f 193/193/193 198/198/198 195/195/195 
f 198/198/198 199/199/199 195/195/195 
f 200/200/200 196/196/196 197/197/197 
f 200/200/200 197/197/197 201/201/201 
f 193/193/193 196/196/196 202/202/202 
f 198/198/198 193/193/193 202/202/202 
f 196/196/196 200/200/200 202/202/202 
f 198/198/198 203/203/203 199/199/199 
f 203/203/203 198/198/198 202/202/202 
f 203/203/203 204/204/204 199/199/199 
f 205/205/205 201/201/201 204/204/204 
f 205/205/205 200/200/200 201/201/201 
f 200/200/200 205/205/205 202/202/202 
f 203/203/203 205/205/205 204/204/204 
f 205/205/205 203/203/203 202/202/202 
f 206/206/206 208/208/208 207/207/207 
f 209/209/209 206/206/206 207/207/207 
f 209/209/209 207/207/207 210/210/210 
f 206/206/206 211/211/211 208/208/208 
f 211/211/211 212/212/212 208/208/208 
f 213/213/213 209/209/209 210/210/210 
f 213/213/213 210/210/210 214/214/214 
f 206/206/206 209/209/209 215/215/215 
f 211/211/211 206/206/206 215/215/215 
f 209/209/209 213/213/213 215/215/215 
f 211/211/211 216/216/216 212/212/212 
f 216/216/216 211/211/211 215/215/215 
f 216/216/216 217/217/217 212/212/212 
f 218/218/218 214/214/214 217/217/217 
f 218/218/218 213/213/213 214/214/214 
f 213/213/213 218/218/218 215/215/215 
f 216/216/216 218/218/218 217/217/217 
f 218/218/218 216/216/216 215/215/215 
