# exported by StudySceneExporter from mesh 'Tool_Cabinet_Drawers_low'
mtllib materials.mtl
v 0.02412244 -0.2960416 -0.2603162
v -0.03145306 0.2953528 -0.2603162
v -0.03145306 0.2953528 -0.1025749
v 0.02412244 -0.2960416 -0.1025749
v -0.02412243 0.2960416 -0.1025749
v 0.03145306 -0.2953527 -0.1025749
v -0.02412243 0.2960416 -0.0923354
v 0.03145306 -0.2953527 -0.0923354
v 0.03145306 -0.2953527 -0.009524913
v -0.02412243 0.2960416 0.0007147646
v 0.03145306 -0.2953527 0.000714612
v -0.02412243 0.2960416 -0.00952476
v 0.02412244 -0.2960416 -0.009524913
v -0.03145306 0.2953528 -0.00952476
v 0.02412244 -0.2960416 -0.0923354
v -0.03145306 0.2953528 -0.0923354
v 0.03145306 -0.2953527 -0.0923354
v -0.02412243 0.2960416 -0.0923354
v 0.03145306 -0.2953527 0.1439479
v -0.02412243 0.2960416 0.1541873
v 0.03145306 -0.2953527 0.1541873
v -0.02412243 0.2960416 0.1439479
v 0.02412244 -0.2960416 0.1439479
v -0.03145306 0.2953528 0.1439479
v 0.02412244 -0.2960416 0.1030299
v -0.03145306 0.2953528 0.1030299
v 0.03145306 -0.2953527 0.1030299
v -0.02412243 0.2960416 0.1030299
v 0.03145306 -0.2953527 0.0927903
v -0.02412243 0.2960416 0.1030299
v 0.03145306 -0.2953527 0.1030299
v -0.02412243 0.2960416 0.0927903
v 0.02412244 -0.2960416 0.0927903
v -0.03145306 0.2953528 0.0927903
v 0.02412244 -0.2960416 0.05187214
v -0.03145306 0.2953528 0.05187214
v 0.03145306 -0.2953527 0.05187214
v -0.02412243 0.2960416 0.05187214
v 0.03145306 -0.2953527 0.04163266
v -0.02412243 0.2960416 0.05187214
v 0.03145306 -0.2953527 0.05187214
v -0.02412243 0.2960416 0.04163266
v 0.02412244 -0.2960416 0.04163266
v -0.03145306 0.2953528 0.04163266
v 0.02412244 -0.2960416 0.000714612
v -0.03145306 0.2953528 0.0007147646
v 0.03145306 -0.2953527 0.000714612
v -0.02412243 0.2960416 0.0007147646
v 0.03145306 -0.2953527 0.2501556
v -0.02412243 0.2960416 0.2603162
v 0.03145306 -0.2953527 0.2603162
v -0.02412243 0.2960416 0.2501558
v 0.02412244 -0.2960416 0.2501556
v -0.03145306 0.2953528 0.2501558
v 0.02412244 -0.2960416 0.1541873
v -0.03145306 0.2953528 0.1541873
v 0.03145306 -0.2953527 0.1541873
v -0.02412243 0.2960416 0.1541873
vt 0.3823139 0.6713697
vt 0.007824024 0.6713308
vt 0.007813668 0.7707795
vt 0.3823036 0.7708184
vt 0.007813195 0.7754215
vt 0.3823031 0.7754604
vt 0.0078125 0.781877
vt 0.3823025 0.781916
vt 0.765187 0.8219804
vt 0.3906964 0.8283971
vt 0.7651864 0.8284359
vt 0.3906971 0.8219415
vt 0.7651876 0.8173383
vt 0.3906976 0.8172995
vt 0.7651929 0.7651301
vt 0.390703 0.7650912
vt 0.7651934 0.7604882
vt 0.3907035 0.7604492
vt 0.7651871 0.8718826
vt 0.3906964 0.8782992
vt 0.7651865 0.8783382
vt 0.3906971 0.8718437
vt 0.7651876 0.8672407
vt 0.3906976 0.8672017
vt 0.7651903 0.8414437
vt 0.3907003 0.8414047
vt 0.7651908 0.8368018
vt 0.3907008 0.8367628
vt 0.3823032 0.8253627
vt 0.0078125 0.8317794
vt 0.3823026 0.8318182
vt 0.007813195 0.8253237
vt 0.3823037 0.8207207
vt 0.007813668 0.8206818
vt 0.3823064 0.7949237
vt 0.007816352 0.7948847
vt 0.3823069 0.7902817
vt 0.007816826 0.7902427
vt 0.382303 0.8752648
vt 0.0078125 0.8816814
vt 0.3823024 0.8817204
vt 0.007813163 0.875226
vt 0.3823035 0.8706229
vt 0.007813668 0.870584
vt 0.3823062 0.8448259
vt 0.007816352 0.8447871
vt 0.3823067 0.840184
vt 0.007816826 0.8401451
vt 0.7651871 0.7457166
vt 0.3906964 0.7520835
vt 0.7651865 0.7521225
vt 0.3906971 0.7456778
vt 0.7651876 0.7410747
vt 0.3906976 0.7410358
vt 0.7651939 0.680571
vt 0.3907039 0.6805321
vt 0.7651944 0.675929
vt 0.3907044 0.6758901
vn -0.9956135 -0.09356145 0
vn -0.9956135 -0.09356146 0
vn -0.9945307 -0.0934597 0.0466264
vn -0.9945307 -0.0934597 0.04662655
vn -0.8083291 -0.07596183 0.5838097
vn -0.80833 -0.07596191 0.5838086
vn -0.9956135 -0.09356167 0
vn -0.9956135 -0.09356167 0
vn -0.808331 -0.07596192 0.5838072
vn -0.9956135 -0.09356157 0
vn -0.9956135 -0.09356155 0
vn -0.8083302 -0.07596184 0.5838082
vn -0.9917013 -0.09319382 0.08856368
vn -0.9917013 -0.09319381 0.08856345
vn -0.9917013 -0.09319382 -0.0885637
vn -0.9917013 -0.09319382 -0.08856343
vn 0 0 -1
vn 0 0 -1
vn -0.808329 -0.07596189 0.58381
vn -0.9956135 -0.09356126 0
vn -0.9956135 -0.09356126 0
vn -0.8083282 -0.07596181 0.5838112
vn -0.9798758 -0.09208266 0.1770994
vn -0.9798759 -0.09208267 0.1770989
vn -0.9798758 -0.0920824 -0.1770994
vn -0.9798759 -0.09208241 -0.1770989
vn 0 6.977705E-07 -1
vn 0 6.977705E-07 -1
vn -0.808332 -0.07596215 0.5838057
vn -0.9956135 -0.09356174 0
vn -0.9956135 -0.09356174 0
vn -0.8083312 -0.07596207 0.5838069
vn -0.9798759 -0.09208255 0.1770988
vn -0.979876 -0.09208256 0.1770982
vn -0.9798759 -0.09208243 -0.1770988
vn -0.979876 -0.09208243 -0.1770982
vn 0 6.977705E-07 -1
vn 0 6.977705E-07 -1
vn -0.80833 -0.07596191 0.5838086
vn -0.9956135 -0.09356167 0
vn -0.9956135 -0.09356167 0
vn -0.8083291 -0.07596183 0.5838097
vn -0.9798758 -0.09208255 0.1770996
vn -0.9798759 -0.09208256 0.177099
vn -0.9798758 -0.09208241 -0.1770996
vn -0.9798759 -0.09208243 -0.177099
vn 0 6.977705E-07 -1
vn 0 6.977705E-07 -1
vn -0.806189 -0.07576092 0.5867874
vn -0.9956135 -0.09356194 0
vn -0.9956135 -0.09356194 0
vn -0.8061882 -0.07576085 0.5867885
vn -0.9926962 -0.09328732 0.07649773
vn -0.9926962 -0.09328732 0.07649752
vn -0.9926962 -0.09328733 -0.07649775
vn -0.9926962 -0.09328733 -0.0764975
vn 0 0 -1
vn 0 0 -1
usemtl Mat_Tool_Cabinet
f 1/1/1 3/3/3 2/2/2 
f 1/1/1 4/4/4 3/3/3 
f 4/4/4 5/5/5 3/3/3 
f 4/4/4 6/6/6 5/5/5 
f 6/6/6 7/7/7 5/5/5 
f 6/6/6 8/8/8 7/7/7 
f 9/9/9 11/11/11 10/10/10 
f 9/9/9 10/10/10 12/12/12 
f 13/13/13 9/9/9 12/12/12 
f 13/13/13 12/12/12 14/14/14 
f 15/15/15 13/13/13 14/14/14 
f 15/15/15 14/14/14 16/16/16 
f 17/17/17 15/15/15 16/16/16 
f 17/17/17 16/16/16 18/18/18 
f 19/19/19 21/21/21 20/20/20 
f 19/19/19 20/20/20 22/22/22 
f 23/23/23 19/19/19 22/22/22 
f 23/23/23 22/22/22 24/24/24 
f 25/25/25 23/23/23 24/24/24 
f 25/25/25 24/24/24 26/26/26 
f 27/27/27 25/25/25 26/26/26 
f 27/27/27 26/26/26 28/28/28 
f 29/29/29 31/31/31 30/30/30 
f 29/29/29 30/30/30 32/32/32 
f 33/33/33 29/29/29 32/32/32 
f 33/33/33 32/32/32 34/34/34 
f 35/35/35 33/33/33 34/34/34 
f 35/35/35 34/34/34 36/36/36 
f 37/37/37 35/35/35 36/36/36 
f 37/37/37 36/36/36 38/38/38 
f 39/39/39 41/41/41 40/40/40 
f 39/39/39 40/40/40 42/42/42 
f 43/43/43 39/39/39 42/42/42 
f 43/43/43 42/42/42 44/44/44 
f 45/45/45 43/43/43 44/44/44 
f 45/45/45 44/44/44 46/46/46 
f 47/47/47 45/45/45 46/46/46 
f 47/47/47 46/46/46 48/48/48 
f 49/49/49 51/51/51 50/50/50 
f 49/49/49 50/50/50 52/52/52 
f 53/53/53 49/49/49 52/52/52 
f 53/53/53 52/52/52 54/54/54 
f 55/55/55 53/53/53 54/54/54 
f 55/55/55 54/54/54 56/56/56 
f 57/57/57 55/55/55 56/56/56 
f 57/57/57 56/56/56 58/58/58 
