# exported by StudySceneExporter from mesh 'Adjustable_Wrench_S_low'
mtllib materials.mtl
v -0.002156925 0.005599017 0.07164516
v -0.002156925 0.003226403 0.07211696
v -1.907349E-08 0.003226403 0.07131847
v 1.907349E-08 0.005293262 0.0709074
v 0.002156925 0.003226403 0.07211712
v -0.002156963 0.007610323 0.07030117
v 0.002156963 0.005599017 0.07164516
v 1.907349E-08 0.007045636 0.06973659
v 0.002156925 0.007610323 0.07030132
v -0.002156963 0.008954246 0.06828991
v 1.907349E-08 0.008216342 0.06798428
v 0.002156925 0.008954246 0.06828991
v 0.002156925 0.009426198 0.06591732
v -1.907349E-08 0.00862745 0.06591747
v -0.002156963 0.009426198 0.06591747
v 0.002156925 0.008954241 0.06354488
v -1.907349E-08 0.008216335 0.06385051
v -0.002156925 0.008954241 0.06354473
v 0.002156925 0.007610319 0.06153347
v -1.907349E-08 0.007045631 0.06209835
v -0.002156925 0.007610319 0.06153347
v 0.002156963 0.005599007 0.06018963
v -1.907349E-08 0.005293252 0.06092754
v -0.002156925 0.005599007 0.06018963
v -0.002156925 0.003226398 0.05971767
v 1.907349E-08 0.003226399 0.06051632
v 0.002156963 0.003226397 0.05971767
v -0.002156925 0.0008538675 0.06018963
v -1.907349E-08 0.001159623 0.06092754
v 0.002156963 0.0008538675 0.06018963
v 0.002156925 -0.001157364 0.06153347
v -1.907349E-08 -0.0005927515 0.06209835
v -0.002156925 -0.001157364 0.06153347
v 0.002156925 -0.002501284 0.06354488
v -1.907349E-08 -0.001763455 0.06385051
v -0.002156925 -0.00250128 0.06354473
v 0.002156925 -0.002973232 0.06591732
v -1.907349E-08 -0.002174488 0.06591747
v -0.002156925 -0.002973229 0.06591747
v 0.002156925 -0.002501283 0.06828991
v 1.907349E-08 -0.001763453 0.06798428
v -0.002156963 -0.002501283 0.06828991
v -0.002156963 -0.00115736 0.07030117
v 1.907349E-08 -0.0005927479 0.06973659
v 0.002156925 -0.00115736 0.07030132
v -0.002156925 0.0008538699 0.07164516
v 1.907349E-08 0.001159626 0.0709074
v -0.002156925 0.003226403 0.07211696
v 0.002156963 0.0008538699 0.07164516
v -1.907349E-08 0.003226403 0.07131847
v 0.002156925 0.003226403 0.07211712
v -0.003439159 -0.0187269 -0.04074276
v -0.001850758 -0.02028962 -0.04211552
v -0.003439121 -0.01980733 -0.04242504
v -0.001850758 -0.01920911 -0.04043308
v -0.001848888 -0.01800208 -0.03974064
v -0.002614689 -0.01562708 -0.0387138
v -0.003439159 -0.01309266 -0.03765598
v -0.001848888 -0.01385991 -0.0374387
v -0.002541408 -0.008702867 -0.03237057
v -1.907349E-08 -0.01398456 -0.0365604
v 1.907349E-08 -0.009828005 -0.03195858
v 1.907349E-08 -0.006702368 -0.02575878
v -0.002156925 -0.005734737 -0.02575878
v -0.002156925 -0.004090371 0.06591747
v 0.002541447 -0.008702867 -0.03237049
v 0.001848927 -0.01385992 -0.03743862
v 0.003439159 -0.01309266 -0.0376559
v 0.002614765 -0.01562709 -0.0387138
v 0.003439159 -0.0187269 -0.04074276
v 0.001848927 -0.01800209 -0.03974072
v 0.001836796 -0.0192134 -0.04043026
v 0.003439159 -0.01980733 -0.04242504
v 0.001836796 -0.02029375 -0.04211261
v 0.002156963 -0.005734737 -0.02575878
v 1.907349E-08 -0.004612992 0.06602215
v -0.002156925 -0.003533282 0.06871731
v 0.002156925 -0.004090371 0.06591732
v 1.907349E-08 -0.004016287 0.06902202
v 0.002156963 -0.003533282 0.06871746
v -0.002156963 -0.001947341 0.07109112
v 0.002156925 -0.001947341 0.07109112
v 1.907349E-08 -0.002316775 0.07156536
v -0.002156925 0.0004263925 0.07267711
v 0.002156963 0.0004263925 0.07267727
v 5.722046E-08 0.0002264512 0.07326473
v -0.002156925 0.003226403 0.07323406
v 0.002156963 0.003226403 0.07323422
v 1.907349E-08 0.003226403 0.0738615
v -0.001850758 0.003252046 -0.05226146
v -0.003439121 -0.01980733 -0.04242504
v -0.001850758 -0.02028962 -0.04211552
v -0.003439159 0.003252046 -0.05226154
v -0.003439159 0.004887633 -0.05357365
v 0.003439159 0.004887633 -0.05357365
v 0.003439159 0.009358361 -0.05946537
v -0.003439159 0.009358361 -0.05946545
v 0.003439159 0.009303081 -0.06086971
v -0.003439159 0.009303081 -0.06086979
v 1.907349E-08 0.003226799 -0.07315479
v -0.003439159 0.003749686 -0.0720998
v 0.003439159 0.003749686 -0.07209965
v 0.001836796 0.003252046 -0.05226146
v 0.003439159 0.003252046 -0.05226146
v 0.003439159 -0.01980733 -0.04242504
v 0.001836796 -0.02029375 -0.04211261
v 0.001848888 0.004595282 -0.04897419
v -1.907349E-08 0.004305484 -0.04968319
v -0.00184885 0.004595275 -0.04897426
v -0.003439159 -0.01309266 -0.03765598
v -0.003439159 -0.0187269 -0.04074276
v -0.003439121 -0.01980733 -0.04242504
v -0.003439159 -0.006475708 -0.04011158
v -0.002541408 -0.008702867 -0.03237057
v -0.003439159 0.003391039 -0.0441032
v -0.002156925 -0.002833202 -0.03075382
v -0.003439159 0.003252046 -0.05226154
v -0.003439159 0.004887633 -0.05357365
v -0.002156925 -0.005734737 -0.02575878
v -0.003439159 0.01799215 -0.0508646
v -0.003439159 0.009358361 -0.05946545
v -0.002541447 0.01207288 -0.03843761
v -0.003439159 0.01919135 -0.05573894
v -0.002156925 0.006809338 -0.03459469
v -0.003439159 0.009303081 -0.06086979
v -0.003439159 0.01831225 -0.06162167
v -0.003439159 0.01535697 -0.06719005
v -0.003439159 0.0113884 -0.07071064
v -0.003439159 0.003749686 -0.0720998
v -0.003439159 0.006751316 -0.07261654
v -0.002156925 0.007897227 -0.02575878
v -0.002156925 0.005356965 -0.02941059
v -0.002156963 0.01054333 0.06591747
v -0.002156925 0.005743848 -0.03197597
v -0.0008169746 0.006809337 -0.03459469
v -0.0008169746 0.00513196 -0.03199169
v -0.0008169746 -0.002838057 -0.03075504
v 0.0008284568 0.006809337 -0.03459484
v 0.000828495 -0.00282827 -0.03075252
v -0.0008169746 -0.001937847 -0.02941059
v -0.0008169746 0.004647801 -0.02941059
v -0.002156925 0.008901998 0.05646832
v -0.0008169365 0.007961267 0.05575535
v -0.002156925 0.00738764 0.05829235
v -0.002156925 0.008954241 0.06354473
v -0.002156963 0.009426198 0.06591747
v -0.002156925 0.009986171 0.06871731
v -0.002156963 0.008954246 0.06828991
v -0.002156925 0.008400229 0.07109112
v -0.002156963 0.007610323 0.07030117
v -0.002156925 0.006026497 0.07267711
v -0.002156925 0.005599017 0.07164516
v -0.002156925 0.003226403 0.07323406
v -0.002156925 0.003226403 0.07211696
v -0.002156925 0.0004263925 0.07267711
v -0.002156925 0.0008538699 0.07164516
v -0.002156963 -0.001947341 0.07109112
v -0.002156963 -0.00115736 0.07030117
v -0.002156925 -0.003533282 0.06871731
v -0.002156963 -0.002501283 0.06828991
v -0.002156925 -0.004090371 0.06591747
v -0.002156925 -0.002973229 0.06591747
v -0.002156925 -0.00250128 0.06354473
v -0.002156963 -0.0005441153 0.05887737
v -0.002156925 -0.001157364 0.06153347
v -0.002156925 0.0008538675 0.06018963
v -0.002156925 -0.002609084 0.05646832
v -0.002156925 0.003421686 0.05902416
v -0.002156925 0.003226398 0.05971767
v -0.002156925 -0.002609084 -0.02941059
v -0.0008169746 -0.001702874 0.05578258
v -0.0008169365 -9.029508E-05 0.05785915
v -0.0008169365 0.00337268 0.05804287
v -0.002156925 0.005599007 0.06018963
v -0.002156925 0.007610319 0.06153347
v -0.0008169746 0.006835656 0.05734829
v -0.003439159 -0.006475708 -0.04011158
v -0.0008169746 -0.002838057 -0.03075504
v -0.002156925 -0.002833202 -0.03075382
v -0.00184885 -0.006475711 -0.04011158
v -0.003439159 0.003391039 -0.0441032
v -1.735687E-06 -0.006328115 -0.03969349
v -0.001850567 -0.006618395 -0.04040188
v 0.000828495 -0.00282827 -0.03075252
v 0.001850567 -0.006635308 -0.04039509
v 0.001893673 -0.006475711 -0.04011173
v -0.001848888 0.003391039 -0.04410313
v -0.002156925 0.006809338 -0.03459469
v -0.001850567 -0.006618395 -0.04040188
v -0.001852817 0.003172469 -0.04440861
v -0.0008169746 0.006809337 -0.03459469
v -0.001852817 0.003172469 -0.04440861
v 3.566742E-06 0.00346972 -0.04368313
v 0.0008284568 0.006809337 -0.03459484
v 0.001804142 0.003391039 -0.0441032
v 0.001852856 0.003288323 -0.04445606
v 0.002541447 0.006809337 -0.03459469
v 0.003439159 0.003391039 -0.0441032
v 0.003439121 -0.006475708 -0.04011158
v 0.001852856 0.003288323 -0.04445606
v 0.001850567 -0.006635308 -0.04039509
v 0.002540569 -0.002845454 -0.03074383
v 1.907349E-08 0.003226799 -0.07315479
v -0.003439159 0.006751316 -0.07261654
v -0.003439159 0.003749686 -0.0720998
v 1.907349E-08 0.007199597 -0.0738615
v -0.003439159 0.0113884 -0.07071064
v 0.003439159 0.006751316 -0.07261654
v 0.003439159 0.003749686 -0.07209965
v 0.003439159 0.0113884 -0.07071064
v -1.907349E-08 0.01205918 -0.07178478
v -0.003439159 0.01535697 -0.06719005
v 0.003439159 0.01535697 -0.06719005
v 1.907349E-08 0.01627707 -0.06772289
v -0.003439159 0.01831225 -0.06162167
v 0.003439159 0.01831225 -0.06162167
v -1.907349E-08 0.01963546 -0.06175701
v 1.907349E-08 0.02029375 -0.05621624
v -0.00184885 0.0195678 -0.05509228
v 0.001848888 0.0195678 -0.0550922
v -0.003439159 0.01919135 -0.05573894
v 0.003439159 0.01919135 -0.05573894
v -0.002614727 0.01872069 -0.05274883
v 0.002614727 0.01872071 -0.05274883
v -0.003439159 0.01799215 -0.0508646
v 0.003439159 0.01799215 -0.05086445
v -0.001856365 0.01844447 -0.05065815
v 0.001856365 0.01844448 -0.05065815
v -0.002541447 0.01207288 -0.03843761
v 1.907349E-08 0.01287666 -0.0377409
v -1.907349E-08 0.01874361 -0.04993359
v 0.002541447 0.01207288 -0.03843761
v 0.002156963 0.007897227 -0.02575878
v -0.002156925 0.007897227 -0.02575878
v 1.907349E-08 0.0085444 -0.02575878
v 0.002156925 0.01054333 0.06591732
v 1.907349E-08 0.01106572 0.06602215
v -0.002156963 0.01054333 0.06591747
v 0.002156963 0.009986171 0.06871746
v 1.907349E-08 0.01046917 0.06902202
v -0.002156925 0.009986171 0.06871731
v 0.002156925 0.008400229 0.07109112
v -0.002156925 0.008400229 0.07109112
v 1.907349E-08 0.008769662 0.07156536
v 0.002156963 0.006026497 0.07267727
v -0.002156925 0.006026497 0.07267711
v 5.722046E-08 0.00622644 0.07326473
v 0.002156963 0.003226403 0.07323422
v -0.002156925 0.003226403 0.07323406
v 1.907349E-08 0.003226403 0.0738615
v 0.003439159 0.006751316 -0.07261654
v 0.003439159 0.003749686 -0.07209965
v 0.003439159 0.009303081 -0.06086971
v 0.003439159 0.0113884 -0.07071064
v 0.003439159 0.01535697 -0.06719005
v 0.003439159 0.01831225 -0.06162167
v 0.003439159 0.009358361 -0.05946537
v 0.003439159 0.01919135 -0.05573894
v 0.003439159 0.004887633 -0.05357365
v 0.003439159 0.01799215 -0.05086445
v 0.003439159 0.003391039 -0.0441032
v 0.002541447 0.01207288 -0.03843761
v 0.003439159 0.003252046 -0.05226146
v 0.002541447 0.006809337 -0.03459469
v 0.003439121 -0.006475708 -0.04011158
v 0.003439159 -0.01980733 -0.04242504
v 0.003439159 -0.0187269 -0.04074276
v 0.003439159 -0.01309266 -0.0376559
v 0.002541447 -0.008702867 -0.03237049
v 0.002540569 -0.002845454 -0.03074383
v 0.002156963 -0.005734737 -0.02575878
v 0.002156963 0.007897227 -0.02575878
v 0.00243803 -0.002609085 -0.02941059
v 0.000828495 -0.00282827 -0.03075252
v 0.002156925 -0.004090371 0.06591732
v 0.002350369 0.005356964 -0.02941067
v 0.002156925 0.01054333 0.06591732
v 0.0008284568 -0.001937847 -0.02941067
v 0.0008284568 0.006809337 -0.03459484
v 0.002450428 0.005743845 -0.03197605
v 0.0008284568 0.005132109 -0.03199177
v 0.0008284568 0.004647798 -0.02941067
v 0.002156963 0.008901997 0.05646832
v 0.002156963 0.00738764 0.05829235
v 0.0008284568 0.007961265 0.05575527
v 0.0008284568 -0.001702876 0.05578251
v 0.002156963 -0.002609086 0.05646832
v 0.002156925 -0.0005441153 0.05887737
v 0.000828495 -9.029508E-05 0.057859
v 0.000828495 0.00337268 0.05804287
v 0.0008284568 0.006835656 0.05734814
v 0.002156963 0.003421686 0.05902416
v 0.002156925 -0.002501284 0.06354488
v 0.002156925 -0.002973232 0.06591732
v 0.002156963 -0.003533282 0.06871746
v 0.002156925 -0.002501283 0.06828991
v 0.002156925 -0.001947341 0.07109112
v 0.002156925 -0.00115736 0.07030132
v 0.002156963 0.0004263925 0.07267727
v 0.002156963 0.0008538699 0.07164516
v 0.002156963 0.003226403 0.07323422
v 0.002156925 0.003226403 0.07211712
v 0.002156963 0.006026497 0.07267727
v 0.002156963 0.005599017 0.07164516
v 0.002156925 0.008400229 0.07109112
v 0.002156925 0.007610323 0.07030132
v 0.002156963 0.009986171 0.06871746
v 0.002156925 0.008954246 0.06828991
v 0.002156925 0.009426198 0.06591732
v 0.002156925 0.008954241 0.06354488
v 0.002156925 0.007610319 0.06153347
v 0.002156963 0.005599007 0.06018963
v 0.002156963 0.003226397 0.05971767
v 0.002156963 0.0008538675 0.06018963
v 0.002156925 -0.001157364 0.06153347
v 1.907349E-08 0.02029375 -0.05621624
v -1.907349E-08 0.004305484 -0.04968319
v -0.00184885 0.004595275 -0.04897426
v -0.00184885 0.0195678 -0.05509228
v -0.002614727 0.01872069 -0.05274883
v -0.002614727 -0.007927461 -0.04186001
v -0.001848888 -0.01800208 -0.03974064
v -0.001850758 -0.01920911 -0.04043308
v -0.001850758 0.003252046 -0.05226146
v -0.001850758 -0.02028962 -0.04211552
v -0.002614689 -0.01562708 -0.0387138
v -0.001848888 -0.01385991 -0.0374387
v -0.001850567 -0.006618395 -0.04040188
v -1.735687E-06 -0.006328115 -0.03969349
v -1.907349E-08 -0.01398456 -0.0365604
v -0.001852817 0.003172469 -0.04440861
v -0.001856365 0.01844447 -0.05065815
v -1.907349E-08 0.01874361 -0.04993359
v 3.566742E-06 0.00346972 -0.04368313
v 0.001856365 0.01844448 -0.05065815
v 0.001850567 -0.006635308 -0.04039509
v 0.001848927 -0.01385992 -0.03743862
v 0.001852856 0.003288323 -0.04445606
v 0.002614765 -0.01562709 -0.0387138
v 0.002614727 0.01872071 -0.05274883
v 0.001848927 -0.01800209 -0.03974072
v 0.001848888 0.004595282 -0.04897419
v 0.001836796 -0.0192134 -0.04043026
v 0.001836796 -0.02029375 -0.04211261
v 0.001836796 0.003252046 -0.05226146
v 0.001848888 0.0195678 -0.0550922
v -1.907349E-08 0.004305484 -0.04968319
v 1.907349E-08 0.02029375 -0.05621624
vt 0.1127939 0.003447769
vt 0.1107863 0.003511311
vt 0.1110066 0.005404705
vt 0.112868 0.005426908
vt 0.1107262 0.007342733
vt 0.1147582 0.003437752
vt 0.1127905 0.007439021
vt 0.1147847 0.005432973
vt 0.1147718 0.007425141
vt 0.1167098 0.003418582
vt 0.116721 0.005455285
vt 0.1167169 0.007386198
vt 0.1186522 0.007406134
vt 0.1186613 0.005428758
vt 0.1186606 0.003436657
vt 0.1205925 0.007414401
vt 0.1206007 0.005430039
vt 0.1206081 0.003445568
vt 0.1225393 0.007422063
vt 0.1225403 0.005431386
vt 0.1225483 0.003455323
vt 0.1244873 0.007438015
vt 0.1244822 0.005404629
vt 0.1244824 0.003479223
vt 0.1264191 0.003445974
vt 0.126425 0.00542854
vt 0.1264308 0.007411083
vt 0.1283626 0.003419053
vt 0.1283678 0.005452439
vt 0.1283676 0.007377833
vt 0.1303016 0.007401744
vt 0.1303096 0.005425692
vt 0.1303106 0.003434993
vt 0.1322418 0.007411499
vt 0.1322493 0.005427029
vt 0.1322574 0.003442656
vt 0.1341893 0.0074204
vt 0.1341886 0.005428299
vt 0.1341977 0.003450911
vt 0.1361402 0.007438464
vt 0.1361289 0.00540176
vt 0.136133 0.003470836
vt 0.1380782 0.003431872
vt 0.1380652 0.005424073
vt 0.1380917 0.00741926
vt 0.1400594 0.003417969
vt 0.139982 0.005430084
vt 0.1421237 0.003514213
vt 0.140056 0.007409243
vt 0.1418434 0.005452264
vt 0.1420636 0.007345647
vt 0.1988379 0.1524948
vt 0.2006161 0.1538829
vt 0.20056 0.1524285
vt 0.1988941 0.1539493
vt 0.1977031 0.153809
vt 0.1955868 0.1528469
vt 0.1933464 0.1518074
vt 0.193648 0.1533083
vt 0.1874986 0.1526494
vt 0.1931664 0.1549866
vt 0.187758 0.1550463
vt 0.181627 0.1551139
vt 0.1814798 0.1530779
vt 0.1025434 0.1540756
vt 0.1875516 0.1574483
vt 0.1936849 0.1566539
vt 0.1934165 0.1581611
vt 0.1956334 0.1570724
vt 0.1988915 0.1573526
vt 0.197728 0.1560638
vt 0.1989157 0.1558845
vt 0.2006146 0.1573809
vt 0.2006388 0.1559129
vt 0.1815247 0.1571527
vt 0.1025172 0.1559867
vt 0.100018 0.1541102
vt 0.1025856 0.1578968
vt 0.09995699 0.156015
vt 0.10006 0.157918
vt 0.09747368 0.1541233
vt 0.09751603 0.157961
vt 0.09741709 0.156043
vt 0.09493035 0.154139
vt 0.09497297 0.1580015
vt 0.09487534 0.1560711
vt 0.09242386 0.1541184
vt 0.09246755 0.1580774
vt 0.09229171 0.1560996
vt 0.1874821 0.1402238
vt 0.2080697 0.1469154
vt 0.2087927 0.14568
vt 0.1870793 0.1415392
vt 0.1855731 0.1415477
vt 0.1856646 0.1357395
vt 0.179338 0.1355069
vt 0.1791368 0.1414381
vt 0.1781362 0.1354629
vt 0.1779137 0.1414017
vt 0.1662238 0.1378697
vt 0.1670536 0.1408693
vt 0.1673658 0.1349539
vt 0.1875478 0.1369732
vt 0.1870932 0.1356627
vt 0.2081798 0.1308408
vt 0.2087943 0.1321219
vt 0.1906601 0.1371396
vt 0.1899072 0.138689
vt 0.1905141 0.1403107
vt 0.241152 0.06005809
vt 0.2456263 0.05709989
vt 0.2464723 0.05561964
vt 0.2349406 0.05849436
vt 0.2381513 0.06580673
vt 0.226216 0.05560698
vt 0.2332766 0.06827438
vt 0.2255706 0.04842278
vt 0.2240037 0.04739407
vt 0.2352346 0.07280043
vt 0.2130024 0.05097622
vt 0.2195235 0.04270926
vt 0.2193066 0.0607738
vt 0.2114369 0.04692796
vt 0.223799 0.06403108
vt 0.2194217 0.04148565
vt 0.2115607 0.04177837
vt 0.2135151 0.03666312
vt 0.2165665 0.03319883
vt 0.2230184 0.03118025
vt 0.2203693 0.03105529
vt 0.2219189 0.07123578
vt 0.2244177 0.06853393
vt 0.211451 0.1507066
vt 0.2243088 0.06646414
vt 0.2246221 0.06459308
vt 0.2255641 0.06658117
vt 0.2322688 0.06808965
vt 0.2257398 0.06433901
vt 0.2317512 0.06721091
vt 0.2315308 0.069215
vt 0.2257417 0.06867233
vt 0.2136998 0.1423649
vt 0.2151644 0.1417576
vt 0.2149898 0.1442449
vt 0.2131162 0.1487474
vt 0.2125087 0.1507846
vt 0.2118585 0.1531689
vt 0.2127931 0.1528868
vt 0.2131168 0.1553692
vt 0.213868 0.1547511
vt 0.215122 0.1569485
vt 0.2155783 0.1560895
vt 0.2175815 0.1576703
vt 0.2176743 0.1567021
vt 0.220133 0.1574267
vt 0.2198486 0.1564967
vt 0.2224001 0.1562575
vt 0.2217829 0.1555055
vt 0.2240554 0.1543405
vt 0.2231932 0.1538816
vt 0.2248942 0.1519857
vt 0.2238734 0.1518716
vt 0.2236897 0.1497514
vt 0.2223663 0.1454808
vt 0.222656 0.1478825
vt 0.220907 0.1465551
vt 0.224612 0.1434021
vt 0.2186089 0.1454059
vt 0.2187375 0.1459776
vt 0.232846 0.06937522
vt 0.2233297 0.142556
vt 0.2218348 0.1441283
vt 0.2188424 0.1440175
vt 0.2165007 0.1461425
vt 0.214522 0.1471127
vt 0.2159303 0.1431356
vt 0.09881198 0.003417969
vt 0.1076736 0.006660849
vt 0.1078359 0.005486378
vt 0.09870163 0.004825624
vt 0.08907977 0.003460515
vt 0.09927991 0.006506646
vt 0.09870586 0.0050976
vt 0.1075155 0.008145586
vt 0.09861267 0.007867057
vt 0.09852344 0.008139975
vt 0.0890516 0.004880041
vt 0.08006801 0.004725253
vt 0.09848222 0.004967505
vt 0.08936277 0.00502611
vt 0.08006752 0.005924119
vt 0.08898148 0.005150728
vt 0.08842111 0.006608957
vt 0.0800862 0.007435624
vt 0.08923036 0.008200439
vt 0.08916152 0.007941253
vt 0.08006673 0.008948907
vt 0.08922154 0.009656271
vt 0.09847793 0.009518709
vt 0.08944196 0.008019172
vt 0.09833229 0.007990479
vt 0.1073509 0.009653457
vt 0.03834651 0.1478745
vt 0.04151431 0.1448082
vt 0.03884187 0.1447252
vt 0.04172547 0.1478849
vt 0.04603563 0.1447465
vt 0.04149535 0.1509602
vt 0.03882246 0.1510268
vt 0.04601622 0.1510498
vt 0.04605219 0.1478983
vt 0.05076914 0.1447915
vt 0.0507499 0.151034
vt 0.05089846 0.1479132
vt 0.05637276 0.1447238
vt 0.05635299 0.1511362
vt 0.05658156 0.1479307
vt 0.06119919 0.1479449
vt 0.06222019 0.1463132
vt 0.06221011 0.1495829
vt 0.06168056 0.1449013
vt 0.06166179 0.1509914
vt 0.06435758 0.1456376
vt 0.06434329 0.1502717
vt 0.06613761 0.1448837
vt 0.06611866 0.1510364
vt 0.06617419 0.1463093
vt 0.06616402 0.1496111
vt 0.07805635 0.1456292
vt 0.07833827 0.1479977
vt 0.06668845 0.1479618
vt 0.07804176 0.1503644
vt 0.08942884 0.1499718
vt 0.08944076 0.146092
vt 0.08938175 0.1480317
vt 0.1684422 0.1501858
vt 0.1685117 0.1482756
vt 0.168454 0.1463649
vt 0.1709749 0.1501889
vt 0.1710653 0.1482834
vt 0.1709867 0.1463774
vt 0.1735204 0.1502107
vt 0.1735322 0.1463712
vt 0.1736045 0.1482912
vt 0.1760641 0.1502305
vt 0.1760761 0.1463671
vt 0.1761465 0.148299
vt 0.1785703 0.1502864
vt 0.1785825 0.1463267
vt 0.1787305 0.148307
vt 0.08336553 0.0590006
vt 0.08391899 0.06157324
vt 0.0934172 0.0563789
vt 0.08484489 0.05492949
vt 0.08774093 0.05137733
vt 0.09243688 0.04862523
vt 0.09462917 0.05628157
vt 0.09747237 0.04765169
vt 0.0999043 0.05994117
vt 0.1017088 0.04850717
vt 0.108149 0.06094161
vt 0.1125554 0.05293708
vt 0.1011036 0.06131265
vt 0.1162592 0.05698679
vt 0.1119517 0.06951812
vt 0.1102908 0.08112189
vt 0.1117119 0.0801513
vt 0.1142339 0.07522085
vt 0.1188163 0.07138498
vt 0.1201175 0.066358
vt 0.1248601 0.0686709
vt 0.1238178 0.05511145
vt 0.1216024 0.0661888
vt 0.1207434 0.06516153
vt 0.2038524 0.0609922
vt 0.1209323 0.05752523
vt 0.2029609 0.04766403
vt 0.1216329 0.06466395
vt 0.1165793 0.05827957
vt 0.1187547 0.05749081
vt 0.1188458 0.05898419
vt 0.1210457 0.05898024
vt 0.1946128 0.04958829
vt 0.1964405 0.05093098
vt 0.1939691 0.05101234
vt 0.1945434 0.0591366
vt 0.1953582 0.06042701
vt 0.1974683 0.05826806
vt 0.196144 0.05770206
vt 0.1961139 0.05473387
vt 0.1953173 0.05181892
vt 0.1974927 0.05455109
vt 0.2016665 0.0597212
vt 0.203757 0.0599727
vt 0.2061982 0.06022866
vt 0.2057699 0.05936109
vt 0.2081479 0.05865175
vt 0.2074218 0.05801588
vt 0.2093745 0.05644229
vt 0.2084606 0.05613257
vt 0.2096902 0.05392443
vt 0.2087272 0.05398712
vt 0.2090464 0.05146918
vt 0.2081803 0.05189501
vt 0.2075392 0.04943812
vt 0.2069018 0.05016308
vt 0.2053968 0.04812795
vt 0.205085 0.04904442
vt 0.2030064 0.04870066
vt 0.2009652 0.04923543
vt 0.1992978 0.05056897
vt 0.1982824 0.05249089
vt 0.1980593 0.05469796
vt 0.1985724 0.05686235
vt 0.199839 0.05863179
vt 0.07964508 0.1203584
vt 0.06532423 0.1205096
vt 0.06480473 0.1221632
vt 0.07877561 0.122112
vt 0.07739121 0.1237953
vt 0.05256964 0.1241982
vt 0.04378355 0.1227126
vt 0.04308487 0.1218124
vt 0.0638977 0.1191876
vt 0.04280961 0.1201028
vt 0.04519638 0.1242822
vt 0.04608449 0.1259244
vt 0.05310614 0.1259248
vt 0.05282483 0.1276132
vt 0.04568341 0.127672
vt 0.06234214 0.1257788
vt 0.07666656 0.125553
vt 0.07666433 0.1273564
vt 0.06235202 0.1275232
vt 0.07661411 0.1291219
vt 0.052753 0.1293629
vt 0.04602194 0.1294308
vt 0.06218044 0.1292337
vt 0.04525483 0.1311576
vt 0.07736473 0.130812
vt 0.04382594 0.1328492
vt 0.06491284 0.1327498
vt 0.04316176 0.1337692
vt 0.04286644 0.1354814
vt 0.06417358 0.1357787
vt 0.07879566 0.1324498
vt 0.06558169 0.1343405
vt 0.07964301 0.1341894
vn -0.347197 -0.35886 -0.8664143
vn -0.3413063 -0.1832661 -0.921913
vn 1.72087E-05 -0.1950137 -0.9808005
vn 1.79551E-05 -0.3826403 -0.9238973
vn 0.3413263 -0.1833396 -0.9218909
vn -0.3471998 -0.663143 -0.6630941
vn 0.3472205 -0.3588434 -0.8664118
vn 1.394814E-05 -0.7071258 -0.7070877
vn 0.3472259 -0.6631257 -0.6630977
vn -0.3472321 -0.8664 -0.3588603
vn 1.005494E-05 -0.9238861 -0.3826678
vn 0.3472412 -0.8663995 -0.3588531
vn 0.347261 -0.9377686 1.024359E-05
vn -7.087174E-06 -1 -2.991571E-06
vn -0.347269 -0.9377655 -6.432579E-07
vn 0.3472503 -0.8663948 0.3588556
vn -9.639465E-06 -0.9238861 0.3826675
vn -0.3472771 -0.8663816 0.3588612
vn 0.3472643 -0.6630763 0.6631268
vn -2.783819E-06 -0.7070981 0.7071154
vn -0.3472744 -0.6630888 0.6631092
vn 0.3472506 -0.358862 0.8663921
vn -2.035865E-06 -0.3826773 0.9238821
vn -0.3472618 -0.3588819 0.8663793
vn -0.3472521 -8.313892E-07 0.9377718
vn 4.143035E-06 -4.570397E-07 1
vn 0.3472415 -2.305969E-07 0.9377757
vn -0.3472575 0.3588916 0.866377
vn -2.510781E-06 0.3826894 0.9238771
vn 0.3472499 0.3588744 0.8663871
vn 0.347248 0.6630839 0.6631279
vn -2.985649E-06 0.7071033 0.7071102
vn -0.3472559 0.6630918 0.6631157
vn 0.3472312 0.8664039 0.358852
vn -8.582861E-06 0.9238911 0.3826554
vn -0.3472508 0.8663941 0.3588566
vn 0.3472451 0.9377744 5.661921E-06
vn -6.499593E-06 1 -5.496459E-06
vn -0.347252 0.9377718 -5.522289E-07
vn 0.347222 0.8664077 -0.3588517
vn 1.117688E-05 0.9238871 -0.3826651
vn -0.3472174 0.8664023 -0.3588692
vn -0.3471822 0.6631479 -0.6630983
vn 1.476141E-05 0.7071307 -0.7070828
vn 0.3472086 0.6631309 -0.6631015
vn -0.3471936 0.3588686 -0.8664121
vn 1.72551E-05 0.3826483 -0.9238942
vn -0.341307 0.1832731 -0.9219114
vn 0.3472144 0.3588498 -0.8664114
vn 1.569548E-05 0.1950202 -0.9807992
vn 0.341324 0.183345 -0.9218907
vn -0.3383498 -0.6784356 0.6521077
vn -0.3393857 -0.7914801 0.5083076
vn -0.3393858 -0.7914801 0.5083077
vn -0.3374813 -0.7298303 0.59452
vn -0.3119753 -0.4627913 0.8297564
vn -0.3292855 -0.4542288 0.8277966
vn -0.3939403 -0.6258629 0.6731319
vn -0.3821052 -0.6583135 0.6485514
vn -0.3956901 -0.7662157 0.5063031
vn -1.623221E-05 -0.7347144 0.6783765
vn -8.243684E-06 -0.8247696 0.5654688
vn -2.861771E-07 -0.9983627 0.05720047
vn -0.3343593 -0.9412223 0.04800396
vn -0.3244705 -0.9455839 0.02428496
vn 0.3956757 -0.7662216 0.5063054
vn 0.3820849 -0.6583278 0.6485488
vn 0.3939441 -0.6258635 0.6731291
vn 0.3292852 -0.4542228 0.8278
vn 0.3383711 -0.6789534 0.6515574
vn 0.3119322 -0.4627672 0.829786
vn 0.3375207 -0.7302109 0.5940301
vn 0.3393883 -0.7914986 0.5082771
vn 0.3393883 -0.7914986 0.5082771
vn 0.3343621 -0.9412212 0.04800449
vn -7.050868E-06 -0.9996629 0.0259622
vn -0.2522333 -0.8959234 0.3656495
vn 0.3244739 -0.9455827 0.02428491
vn -4.002224E-06 -0.9217343 0.3878219
vn 0.2522215 -0.8959302 0.3656411
vn -0.2664842 -0.6842555 0.6788083
vn 0.2664642 -0.6842684 0.6788031
vn -1.379786E-05 -0.7041024 0.7100984
vn -0.2759635 -0.36974 0.8872071
vn 0.2759327 -0.3697399 0.8872167
vn -1.977278E-05 -0.380562 0.9247554
vn -0.2743385 -0.187592 0.9431583
vn 0.2742902 -0.1875968 0.9431714
vn -3.46515E-05 -0.1950776 0.9807878
vn 0.02084091 -0.5618914 -0.8269483
vn 0.02972683 -0.3939281 -0.9186604
vn 0.02972683 -0.3939281 -0.9186604
vn 0.02858852 -0.403698 -0.9144455
vn 3.319326E-06 -0.7779915 -0.6282748
vn 2.884593E-06 -0.7780361 -0.6282197
vn 2.776759E-06 -0.855534 -0.5177466
vn 2.776748E-06 -0.8555352 -0.5177447
vn 1.48361E-05 -0.927325 0.3742571
vn -2.367487E-05 -0.9273242 0.374259
vn -8.469348E-06 -0.8963712 0.4433041
vn -0.0003080109 -0.896381 0.4432845
vn 0.0002871224 -0.8963829 0.4432805
vn -0.02075492 -0.5875471 -0.8089238
vn -0.02862344 -0.4037009 -0.9144431
vn -0.02976445 -0.3939328 -0.9186572
vn -0.02976445 -0.3939328 -0.9186572
vn 1.735711E-05 -0.9257051 0.3782462
vn 5.014749E-06 -0.9257032 0.3782508
vn -5.355345E-05 -0.9256942 0.3782725
vn -0.9979094 0.01908853 0.06174572
vn -1 4.44277E-07 -2.111905E-05
vn -1 -1.248116E-06 -2.57616E-06
vn -0.9997321 0.006833481 0.02211444
vn -0.9924124 0.04092681 0.1159426
vn -0.9993336 0.01195718 0.03448905
vn -0.9936736 0.0841376 0.0743891
vn -1 -8.708293E-07 2.571792E-06
vn -1 0 1.516699E-06
vn -0.999998 0.001740726 0.001011182
vn -0.9994282 0.01107595 0.03194365
vn -1 0 0
vn -0.99476 0.03005771 0.09771881
vn -1 0 0
vn -0.998041 -0.02271468 0.05829529
vn -1 0 2.771871E-07
vn -1 0 0
vn -1 0 0
vn -1 0 8.358475E-07
vn -1 0 1.10654E-06
vn -1 0 1.10654E-06
vn -0.9999986 -0.001714677 0.0002109562
vn -0.7753201 -0.6312081 0.02133118
vn -1 -6.525138E-06 2.249282E-06
vn -0.9412196 -0.3178801 -0.1142713
vn -0.3181856 -0.4597904 -0.8290662
vn -0.9775328 -0.2000677 -0.06635128
vn -0.6213905 -0.205475 -0.7560779
vn 0.001767962 -0.3700547 -0.9290083
vn 0.001767962 -0.3700546 -0.9290083
vn -0.9890337 0.1476866 -0.001003955
vn -0.9892532 -0.146127 0.005003965
vn -0.9752117 -0.2212354 0.004129098
vn -0.981952 -0.1890572 0.005244269
vn -0.9654079 -0.1129882 -0.234992
vn -1 -1.188578E-05 3.326172E-06
vn -1 1.073776E-05 0
vn -1 2.230876E-05 2.063273E-05
vn -1 2.230917E-05 2.063248E-05
vn -1 1.630473E-05 1.65056E-05
vn -1 1.630536E-05 1.65056E-05
vn -1 1.828475E-06 8.25282E-06
vn -1 1.828378E-06 8.252381E-06
vn -1 0 0
vn -1 0 0
vn -1 6.014372E-06 4.126443E-06
vn -1 6.014119E-06 4.12627E-06
vn -1 -3.233798E-06 4.126248E-06
vn -1 -3.233693E-06 4.126277E-06
vn -1 -1.84899E-05 -4.126503E-06
vn -1 -1.84899E-05 -4.126156E-06
vn -1 -2.792472E-06 -1.378391E-06
vn -1 -1.267118E-05 -8.486087E-06
vn -1 -1.005121E-05 -3.738702E-06
vn -0.9666027 0.1005093 -0.2357477
vn -1 2.543847E-05 0
vn -1 8.140584E-06 1.023199E-05
vn -0.982014 0.1887313 -0.005385678
vn -0.8453131 -0.03875409 -0.5328638
vn -1 3.595029E-06 4.18781E-06
vn -0.81883 0.5740172 -0.004661293
vn -0.9829116 0.1840478 -0.003352771
vn -0.808415 0.2390284 -0.5378946
vn -0.9221089 -0.02883822 -0.3858545
vn -1 0 -4.945684E-06
vn -1 0 0
vn -0.7791649 -0.2748244 -0.5633591
vn 0.0008473862 0.8690662 0.4946949
vn -0.0003928229 0.9316667 -0.3633137
vn 0.001393711 0.9319065 -0.3626961
vn 0.1050731 0.9903562 0.09030139
vn -2.302183E-05 -0.3034335 0.9528525
vn -0.0004912691 0.9303175 -0.3667547
vn 0.008388179 0.9307174 -0.3656428
vn 0.001785955 0.9318798 -0.3627627
vn -0.008805304 0.9297804 -0.3680095
vn -0.102539 0.991804 0.07622692
vn 0.06589764 -0.671486 0.7380813
vn -8.857973E-06 -0.9410388 0.3382987
vn 0.9999665 -0.002999218 -0.007623723
vn 0.9999665 -0.002999218 -0.007623723
vn -0.0019862 -0.9400037 0.3411584
vn -0.03982178 -0.9355605 0.3509144
vn -0.001314959 -0.9384016 0.3455441
vn 0.001658794 -0.9402775 0.3404047
vn -0.08208599 -0.7017362 0.7076922
vn 0.0381452 -0.9398213 0.3395306
vn -1.550501E-05 -0.9410355 0.338308
vn -4.418031E-05 -0.3802879 0.9248682
vn 0.003913793 0.8989014 0.4381335
vn -0.9999584 -0.006845867 -0.006028643
vn -0.9999584 -0.006845867 -0.006028643
vn 0.00589881 0.9322758 -0.3617004
vn 1.088474E-05 -0.1727798 -0.9849605
vn -0.3471341 0.1420853 -0.9269896
vn -0.3144234 -0.1640166 -0.9350062
vn 5.07884E-06 0.1800868 -0.9836507
vn -0.3351547 0.5156832 -0.7885062
vn 0.3471391 0.1420832 -0.9269879
vn 0.3144433 -0.1640161 -0.9349995
vn 0.3351521 0.5156718 -0.7885149
vn -1.6657E-06 0.5464457 -0.8374946
vn -0.3177427 0.7530918 -0.5761009
vn 0.3177424 0.7530864 -0.5761081
vn 6.367029E-07 0.7992156 -0.6010444
vn -0.3419588 0.881401 -0.325878
vn 0.341958 0.8814005 -0.3258802
vn 0 0.948103 -0.3179636
vn 8.037189E-06 0.9946117 -0.1036707
vn -0.3460561 0.9358323 -0.06680743
vn 0.3460573 0.9358315 -0.06681033
vn -0.2062488 0.9766817 -0.05961723
vn 0.2062468 0.9766824 -0.05961412
vn -0.2998719 0.9261322 0.2288145
vn 0.2998663 0.926133 0.2288184
vn -0.2998223 0.8661045 0.3999619
vn 0.2997946 0.8661108 0.3999691
vn -0.331206 0.8490286 0.4116468
vn 0.3311951 0.8490284 0.4116558
vn -0.334426 0.8676097 0.3679848
vn 0 0.9243675 0.3815032
vn -9.027578E-07 0.8980513 0.4398909
vn 0.3344243 0.8676069 0.3679927
vn 0.2710176 0.9624071 0.01794557
vn -0.2710141 0.9624081 0.01794513
vn -5.371069E-07 0.9997471 0.02248729
vn 0.260507 0.9652503 -0.02068895
vn -6.230524E-06 0.9997802 -0.02096334
vn -0.2605033 0.9652513 -0.02068832
vn 0.252196 0.8959376 0.3656405
vn -3.380855E-06 0.921737 0.3878155
vn -0.2522042 0.8959353 0.3656406
vn 0.2664618 0.6842637 0.6788087
vn -0.2664853 0.6842577 0.6788055
vn -1.537618E-05 0.7041005 0.7101002
vn 0.275928 0.3697306 0.8872221
vn -0.2759678 0.3697292 0.8872103
vn -2.239309E-05 0.3805523 0.9247594
vn 0.274286 0.1875964 0.9431728
vn -0.2743397 0.1875954 0.9431573
vn -3.57192E-05 0.195079 0.9807875
vn 1 0 2.213054E-06
vn 1 0 2.213054E-06
vn 1 0 1.755373E-06
vn 1 0 1.671679E-06
vn 1 0 3.493577E-06
vn 1 0 2.599556E-06
vn 1 0 0
vn 1 0 0
vn 1 0 0
vn 0.9995347 0.01436456 0.02690844
vn 0.9994574 0.01551112 0.02905601
vn 0.9954191 0.04535861 0.08416197
vn 1 1.202793E-07 0
vn 0.9985323 0.005467655 0.05388387
vn 0.9997886 0.001376218 0.02051447
vn 1 9.489067E-07 0
vn 1 3.357368E-06 0
vn 0.9983455 0.0038496 0.05737064
vn 0.9937199 0.004992747 0.1117844
vn 0.9957607 0.04723653 0.07892666
vn 0.9985425 -0.05381161 0.004121413
vn 0.9988843 0.04721609 0.0009089487
vn 0.8047937 0.5935479 -0.002820616
vn 0.9848762 0.16013 -0.06616073
vn 0.9991018 -0.04234486 0.001608903
vn 0.7632009 -0.6456546 0.02558151
vn 0.9994239 0.03393721 -0.0004167588
vn 0.9868015 0.1619308 -0.001083929
vn 0.8108932 -0.5187616 -0.270811
vn 0.9259167 -0.363591 -0.1023715
vn 0.9671716 -0.2410546 -0.08044765
vn 0.9877642 -0.1558622 0.005378258
vn 0.9805268 -0.1963361 0.004403358
vn 0.9660119 -0.1120093 -0.2329697
vn 0.9796434 -0.2006602 0.005862245
vn 0.9795933 0.200965 -0.003165477
vn 0.9870664 0.1602755 -0.003421045
vn 0.9671984 0.09962402 -0.2336711
vn 0.8107337 0.2377481 -0.5349642
vn 0.9232658 -0.02862425 -0.3830939
vn 0.7817421 -0.2734487 -0.5604509
vn 0.8474191 -0.03849465 -0.529527
vn 1 1.018754E-05 1.398814E-05
vn 1 1.073852E-05 -2.262901E-05
vn 1 1.707877E-05 -8.251879E-06
vn 1 1.707864E-05 -8.252615E-06
vn 1 3.233762E-06 4.125983E-06
vn 1 3.231757E-06 4.126525E-06
vn 1 -7.693262E-07 2.063123E-05
vn 1 -7.698259E-07 2.063068E-05
vn 1 0 1.2378E-05
vn 1 0 1.237808E-05
vn 1 7.693531E-07 -2.063036E-05
vn 1 7.697259E-07 -2.063076E-05
vn 1 -3.233334E-06 -2.47581E-05
vn 1 -3.232192E-06 -2.475872E-05
vn 1 -1.707956E-05 -1.650526E-05
vn 1 -1.707939E-05 -1.650526E-05
vn 1 -1.073878E-05 -1.697216E-05
vn 1 -1.276361E-06 4.350137E-06
vn 1 -8.481395E-06 1.022968E-05
vn 1 3.958077E-06 -2.104081E-05
vn 1 -3.595033E-06 -1.995153E-05
vn 1 -1.143156E-05 -1.778068E-05
vn 1 -7.7233E-06 -7.268989E-06
vn 0.3827057 0.3494621 0.8552266
vn 0.3827057 0.3494621 0.8552267
vn 0.9290228 0.1399507 0.3425352
vn 0.4953639 0.3285887 0.8041418
vn 0.9899186 0.05357725 0.131113
vn 0.9907085 0.05144132 0.1258988
vn 0.9911156 0.05031339 0.12312
vn 0.9999999 -0.0002016006 -0.0004231397
vn 1 -0.0001608118 -0.0003154154
vn 1 -0.0001608118 -0.0003154153
vn 0.9996569 0.009917228 0.02424226
vn 0.7297363 -0.2587953 -0.6328586
vn 0.8520929 -0.1980485 -0.4844733
vn 0.001480607 -0.3786815 -0.9255258
vn 0.0001662704 -0.3786821 -0.9255267
vn 0.8132671 -0.2202169 -0.5386103
vn 0.6442605 -0.2895321 -0.7078838
vn 0.0008519505 -0.3786936 -0.9255217
vn 0.009286742 -0.3786766 -0.9254825
vn -0.6442565 -0.2895812 -0.7078674
vn -0.8749715 -0.183219 -0.4481693
vn -0.6219146 -0.296508 -0.7247794
vn -0.8280716 -0.2121916 -0.5189144
vn -0.9507697 0.1172232 0.2868721
vn -0.9902844 0.05259937 0.1287248
vn -0.9681988 0.09463921 0.2315909
vn -0.9283479 0.1406663 0.3440683
vn -0.9999957 0.00128487 0.002638782
vn -0.9999976 0.001019617 0.001946504
vn -0.9999976 0.001019617 0.001946504
vn -0.4953678 0.3285772 0.8041441
vn -0.3827212 0.3494488 0.8552252
vn -0.3827212 0.3494487 0.8552251
usemtl Mat_Tools
f 1/1/1 3/3/3 2/2/2 
f 1/1/1 4/4/4 3/3/3 
f 4/4/4 5/5/5 3/3/3 
f 6/6/6 4/4/4 1/1/1 
f 4/4/4 7/7/7 5/5/5 
f 6/6/6 8/8/8 4/4/4 
f 8/8/8 7/7/7 4/4/4 
f 8/8/8 9/9/9 7/7/7 
f 10/10/10 8/8/8 6/6/6 
f 11/11/11 9/9/9 8/8/8 
f 10/10/10 11/11/11 8/8/8 
f 11/11/11 12/12/12 9/9/9 
f 13/13/13 12/12/12 11/11/11 
f 10/10/10 14/14/14 11/11/11 
f 13/13/13 11/11/11 14/14/14 
f 10/10/10 15/15/15 14/14/14 
f 16/16/16 13/13/13 14/14/14 
f 15/15/15 17/17/17 14/14/14 
f 16/16/16 14/14/14 17/17/17 
f 15/15/15 18/18/18 17/17/17 
f 19/19/19 16/16/16 17/17/17 
f 18/18/18 20/20/20 17/17/17 
f 19/19/19 17/17/17 20/20/20 
f 18/18/18 21/21/21 20/20/20 
f 22/22/22 19/19/19 20/20/20 
f 21/21/21 23/23/23 20/20/20 
f 22/22/22 20/20/20 23/23/23 
f 21/21/21 24/24/24 23/23/23 
f 23/23/23 24/24/24 25/25/25 
f 26/26/26 22/22/22 23/23/23 
f 23/23/23 25/25/25 26/26/26 
f 26/26/26 27/27/27 22/22/22 
f 26/26/26 25/25/25 28/28/28 
f 29/29/29 27/27/27 26/26/26 
f 26/26/26 28/28/28 29/29/29 
f 29/29/29 30/30/30 27/27/27 
f 31/31/31 30/30/30 29/29/29 
f 28/28/28 32/32/32 29/29/29 
f 31/31/31 29/29/29 32/32/32 
f 28/28/28 33/33/33 32/32/32 
f 34/34/34 31/31/31 32/32/32 
f 33/33/33 35/35/35 32/32/32 
f 34/34/34 32/32/32 35/35/35 
f 33/33/33 36/36/36 35/35/35 
f 37/37/37 34/34/34 35/35/35 
f 36/36/36 38/38/38 35/35/35 
f 37/37/37 35/35/35 38/38/38 
f 36/36/36 39/39/39 38/38/38 
f 40/40/40 37/37/37 38/38/38 
f 39/39/39 41/41/41 38/38/38 
f 40/40/40 38/38/38 41/41/41 
f 39/39/39 42/42/42 41/41/41 
f 43/43/43 41/41/41 42/42/42 
f 44/44/44 40/40/40 41/41/41 
f 43/43/43 44/44/44 41/41/41 
f 44/44/44 45/45/45 40/40/40 
f 46/46/46 44/44/44 43/43/43 
f 47/47/47 45/45/45 44/44/44 
f 46/46/46 47/47/47 44/44/44 
f 48/48/48 47/47/47 46/46/46 
f 47/47/47 49/49/49 45/45/45 
f 48/48/48 50/50/50 47/47/47 
f 50/50/50 49/49/49 47/47/47 
f 50/50/50 51/51/51 49/49/49 
f 52/52/52 54/54/54 53/53/53 
f 52/52/52 53/53/53 55/55/55 
f 56/56/56 52/52/52 55/55/55 
f 57/57/57 52/52/52 56/56/56 
f 58/58/58 52/52/52 57/57/57 
f 58/58/58 57/57/57 59/59/59 
f 60/60/60 58/58/58 59/59/59 
f 60/60/60 59/59/59 61/61/61 
f 60/60/60 61/61/61 62/62/62 
f 63/63/63 60/60/60 62/62/62 
f 63/63/63 64/64/64 60/60/60 
f 65/65/65 64/64/64 63/63/63 
f 66/66/66 62/62/62 61/61/61 
f 63/63/63 62/62/62 66/66/66 
f 66/66/66 61/61/61 67/67/67 
f 66/66/66 67/67/67 68/68/68 
f 68/68/68 67/67/67 69/69/69 
f 68/68/68 69/69/69 70/70/70 
f 70/70/70 69/69/69 71/71/71 
f 70/70/70 71/71/71 72/72/72 
f 72/72/72 73/73/73 70/70/70 
f 72/72/72 74/74/74 73/73/73 
f 63/63/63 66/66/66 75/75/75 
f 65/65/65 63/63/63 76/76/76 
f 76/76/76 63/63/63 75/75/75 
f 76/76/76 77/77/77 65/65/65 
f 76/76/76 75/75/75 78/78/78 
f 76/76/76 79/79/79 77/77/77 
f 78/78/78 79/79/79 76/76/76 
f 78/78/78 80/80/80 79/79/79 
f 79/79/79 81/81/81 77/77/77 
f 79/79/79 80/80/80 82/82/82 
f 79/79/79 83/83/83 81/81/81 
f 79/79/79 82/82/82 83/83/83 
f 83/83/83 84/84/84 81/81/81 
f 83/83/83 82/82/82 85/85/85 
f 83/83/83 86/86/86 84/84/84 
f 83/83/83 85/85/85 86/86/86 
f 86/86/86 87/87/87 84/84/84 
f 86/86/86 85/85/85 88/88/88 
f 86/86/86 89/89/89 87/87/87 
f 86/86/86 88/88/88 89/89/89 
f 90/90/90 92/92/92 91/91/91 
f 90/90/90 91/91/91 93/93/93 
f 90/90/90 93/93/93 94/94/94 
f 90/90/90 94/94/94 95/95/95 
f 94/94/94 96/96/96 95/95/95 
f 94/94/94 97/97/97 96/96/96 
f 97/97/97 98/98/98 96/96/96 
f 97/97/97 99/99/99 98/98/98 
f 100/100/100 98/98/98 99/99/99 
f 100/100/100 99/99/99 101/101/101 
f 102/102/102 98/98/98 100/100/100 
f 90/90/90 95/95/95 103/103/103 
f 103/103/103 95/95/95 104/104/104 
f 105/105/105 103/103/103 104/104/104 
f 105/105/105 106/106/106 103/103/103 
f 90/90/90 103/103/103 107/107/107 
f 90/90/90 107/107/107 108/108/108 
f 108/108/108 109/109/109 90/90/90 
f 110/110/110 112/112/112 111/111/111 
f 110/110/110 113/113/113 112/112/112 
f 113/113/113 110/110/110 114/114/114 
f 115/115/115 112/112/112 113/113/113 
f 113/113/113 114/114/114 116/116/116 
f 115/115/115 117/117/117 112/112/112 
f 115/115/115 118/118/118 117/117/117 
f 116/116/116 114/114/114 119/119/119 
f 115/115/115 120/120/120 118/118/118 
f 120/120/120 121/121/121 118/118/118 
f 115/115/115 122/122/122 120/120/120 
f 120/120/120 123/123/123 121/121/121 
f 115/115/115 124/124/124 122/122/122 
f 123/123/123 125/125/125 121/121/121 
f 123/123/123 126/126/126 125/125/125 
f 126/126/126 127/127/127 125/125/125 
f 127/127/127 128/128/128 125/125/125 
f 128/128/128 129/129/129 125/125/125 
f 128/128/128 130/130/130 129/129/129 
f 122/122/122 124/124/124 131/131/131 
f 132/132/132 131/131/131 124/124/124 
f 132/132/132 133/133/133 131/131/131 
f 132/132/132 124/124/124 134/134/134 
f 135/135/135 134/134/134 124/124/124 
f 135/135/135 136/136/136 134/134/134 
f 132/132/132 134/134/134 136/136/136 
f 137/137/137 136/136/136 135/135/135 
f 137/137/137 135/135/135 138/138/138 
f 137/137/137 138/138/138 139/139/139 
f 137/137/137 140/140/140 136/136/136 
f 116/116/116 140/140/140 137/137/137 
f 132/132/132 136/136/136 141/141/141 
f 140/140/140 141/141/141 136/136/136 
f 141/141/141 142/142/142 132/132/132 
f 132/132/132 142/142/142 133/133/133 
f 141/141/141 143/143/143 142/142/142 
f 140/140/140 143/143/143 141/141/141 
f 144/144/144 133/133/133 142/142/142 
f 144/144/144 142/142/142 143/143/143 
f 144/144/144 145/145/145 133/133/133 
f 133/133/133 145/145/145 146/146/146 
f 147/147/147 133/133/133 146/146/146 
f 147/147/147 146/146/146 148/148/148 
f 149/149/149 147/147/147 148/148/148 
f 149/149/149 148/148/148 150/150/150 
f 151/151/151 149/149/149 150/150/150 
f 151/151/151 150/150/150 152/152/152 
f 153/153/153 151/151/151 152/152/152 
f 153/153/153 152/152/152 154/154/154 
f 155/155/155 153/153/153 154/154/154 
f 155/155/155 154/154/154 156/156/156 
f 157/157/157 155/155/155 156/156/156 
f 157/157/157 156/156/156 158/158/158 
f 159/159/159 157/157/157 158/158/158 
f 159/159/159 158/158/158 160/160/160 
f 161/161/161 159/159/159 160/160/160 
f 161/161/161 160/160/160 162/162/162 
f 163/163/163 161/161/161 162/162/162 
f 164/164/164 161/161/161 163/163/163 
f 164/164/164 163/163/163 165/165/165 
f 164/164/164 165/165/165 166/166/166 
f 164/164/164 167/167/167 161/161/161 
f 119/119/119 161/161/161 167/167/167 
f 166/166/166 168/168/168 164/164/164 
f 166/166/166 169/169/169 168/168/168 
f 119/119/119 167/167/167 170/170/170 
f 116/116/116 119/119/119 170/170/170 
f 116/116/116 170/170/170 140/140/140 
f 170/170/170 171/171/171 140/140/140 
f 170/170/170 167/167/167 171/171/171 
f 140/140/140 171/171/171 143/143/143 
f 167/167/167 164/164/164 172/172/172 
f 167/167/167 172/172/172 171/171/171 
f 172/172/172 164/164/164 168/168/168 
f 171/171/171 172/172/172 173/173/173 
f 171/171/171 173/173/173 143/143/143 
f 172/172/172 168/168/168 173/173/173 
f 169/169/169 144/144/144 168/168/168 
f 173/173/173 168/168/168 144/144/144 
f 169/169/169 174/174/174 144/144/144 
f 175/175/175 144/144/144 174/174/174 
f 145/145/145 144/144/144 175/175/175 
f 144/144/144 143/143/143 176/176/176 
f 143/143/143 173/173/173 176/176/176 
f 173/173/173 144/144/144 176/176/176 
f 177/177/177 179/179/179 178/178/178 
f 177/177/177 178/178/178 180/180/180 
f 181/181/181 177/177/177 180/180/180 
f 180/180/180 178/178/178 182/182/182 
f 180/180/180 182/182/182 183/183/183 
f 184/184/184 182/182/182 178/178/178 
f 184/184/184 185/185/185 182/182/182 
f 184/184/184 186/186/186 185/185/185 
f 181/181/181 180/180/180 187/187/187 
f 188/188/188 181/181/181 187/187/187 
f 187/187/187 180/180/180 189/189/189 
f 187/187/187 189/189/189 190/190/190 
f 188/188/188 187/187/187 191/191/191 
f 191/191/191 187/187/187 192/192/192 
f 191/191/191 192/192/192 193/193/193 
f 194/194/194 191/191/191 193/193/193 
f 195/195/195 194/194/194 193/193/193 
f 195/195/195 193/193/193 196/196/196 
f 195/195/195 197/197/197 194/194/194 
f 195/195/195 198/198/198 197/197/197 
f 199/199/199 198/198/198 195/195/195 
f 199/199/199 195/195/195 186/186/186 
f 186/186/186 195/195/195 200/200/200 
f 186/186/186 200/200/200 201/201/201 
f 184/184/184 199/199/199 186/186/186 
f 184/184/184 202/202/202 199/199/199 
f 203/203/203 205/205/205 204/204/204 
f 203/203/203 204/204/204 206/206/206 
f 206/206/206 204/204/204 207/207/207 
f 208/208/208 203/203/203 206/206/206 
f 208/208/208 209/209/209 203/203/203 
f 210/210/210 208/208/208 206/206/206 
f 206/206/206 207/207/207 211/211/211 
f 210/210/210 206/206/206 211/211/211 
f 211/211/211 207/207/207 212/212/212 
f 211/211/211 213/213/213 210/210/210 
f 211/211/211 212/212/212 214/214/214 
f 211/211/211 214/214/214 213/213/213 
f 214/214/214 212/212/212 215/215/215 
f 214/214/214 216/216/216 213/213/213 
f 214/214/214 215/215/215 217/217/217 
f 214/214/214 217/217/217 216/216/216 
f 215/215/215 218/218/218 217/217/217 
f 218/218/218 216/216/216 217/217/217 
f 215/215/215 219/219/219 218/218/218 
f 218/218/218 220/220/220 216/216/216 
f 215/215/215 221/221/221 219/219/219 
f 216/216/216 220/220/220 222/222/222 
f 221/221/221 223/223/223 219/219/219 
f 220/220/220 224/224/224 222/222/222 
f 221/221/221 225/225/225 223/223/223 
f 222/222/222 224/224/224 226/226/226 
f 223/223/223 225/225/225 227/227/227 
f 226/226/226 224/224/224 228/228/228 
f 227/227/227 225/225/225 229/229/229 
f 227/227/227 229/229/229 230/230/230 
f 227/227/227 230/230/230 231/231/231 
f 228/228/228 231/231/231 230/230/230 
f 228/228/228 232/232/232 226/226/226 
f 228/228/228 230/230/230 232/232/232 
f 230/230/230 233/233/233 232/232/232 
f 234/234/234 230/230/230 229/229/229 
f 230/230/230 235/235/235 233/233/233 
f 234/234/234 235/235/235 230/230/230 
f 235/235/235 236/236/236 233/233/233 
f 234/234/234 237/237/237 235/235/235 
f 235/235/235 237/237/237 236/236/236 
f 234/234/234 238/238/238 237/237/237 
f 239/239/239 236/236/236 237/237/237 
f 240/240/240 237/237/237 238/238/238 
f 239/239/239 237/237/237 240/240/240 
f 240/240/240 238/238/238 241/241/241 
f 242/242/242 239/239/239 240/240/240 
f 240/240/240 241/241/241 243/243/243 
f 242/242/242 240/240/240 244/244/244 
f 240/240/240 243/243/243 244/244/244 
f 245/245/245 242/242/242 244/244/244 
f 244/244/244 243/243/243 246/246/246 
f 245/245/245 244/244/244 247/247/247 
f 244/244/244 246/246/246 247/247/247 
f 248/248/248 245/245/245 247/247/247 
f 247/247/247 246/246/246 249/249/249 
f 248/248/248 247/247/247 250/250/250 
f 247/247/247 249/249/249 250/250/250 
f 251/251/251 253/253/253 252/252/252 
f 251/251/251 254/254/254 253/253/253 
f 254/254/254 255/255/255 253/253/253 
f 255/255/255 256/256/256 253/253/253 
f 256/256/256 257/257/257 253/253/253 
f 256/256/256 258/258/258 257/257/257 
f 258/258/258 259/259/259 257/257/257 
f 258/258/258 260/260/260 259/259/259 
f 261/261/261 259/259/259 260/260/260 
f 262/262/262 261/261/261 260/260/260 
f 261/261/261 263/263/263 259/259/259 
f 262/262/262 264/264/264 261/261/261 
f 265/265/265 263/263/263 261/261/261 
f 265/265/265 266/266/266 263/263/263 
f 265/265/265 267/267/267 266/266/266 
f 265/265/265 268/268/268 267/267/267 
f 269/269/269 268/268/268 265/265/265 
f 269/269/269 265/265/265 270/270/270 
f 270/270/270 271/271/271 269/269/269 
f 264/264/264 262/262/262 272/272/272 
f 271/271/271 270/270/270 273/273/273 
f 274/274/274 273/273/273 270/270/270 
f 273/273/273 275/275/275 271/271/271 
f 264/264/264 272/272/272 276/276/276 
f 277/277/277 276/276/276 272/272/272 
f 274/274/274 278/278/278 273/273/273 
f 279/279/279 278/278/278 274/274/274 
f 280/280/280 279/279/279 264/264/264 
f 264/264/264 276/276/276 280/280/280 
f 280/280/280 281/281/281 279/279/279 
f 279/279/279 281/281/281 278/278/278 
f 276/276/276 281/281/281 280/280/280 
f 276/276/276 282/282/282 281/281/281 
f 278/278/278 281/281/281 282/282/282 
f 282/282/282 276/276/276 283/283/283 
f 277/277/277 283/283/283 276/276/276 
f 284/284/284 283/283/283 277/277/277 
f 282/282/282 283/283/283 285/285/285 
f 278/278/278 282/282/282 285/285/285 
f 284/284/284 285/285/285 283/283/283 
f 273/273/273 278/278/278 286/286/286 
f 278/278/278 285/285/285 286/286/286 
f 273/273/273 287/287/287 275/275/275 
f 273/273/273 286/286/286 287/287/287 
f 288/288/288 275/275/275 287/287/287 
f 287/287/287 289/289/289 288/288/288 
f 287/287/287 286/286/286 289/289/289 
f 286/286/286 290/290/290 289/289/289 
f 286/286/286 285/285/285 290/290/290 
f 288/288/288 289/289/289 290/290/290 
f 290/290/290 285/285/285 291/291/291 
f 284/284/284 291/291/291 285/285/285 
f 292/292/292 290/290/290 291/291/291 
f 288/288/288 290/290/290 292/292/292 
f 292/292/292 291/291/291 284/284/284 
f 288/288/288 293/293/293 275/275/275 
f 275/275/275 293/293/293 294/294/294 
f 295/295/295 275/275/275 294/294/294 
f 295/295/295 294/294/294 296/296/296 
f 297/297/297 295/295/295 296/296/296 
f 297/297/297 296/296/296 298/298/298 
f 299/299/299 297/297/297 298/298/298 
f 299/299/299 298/298/298 300/300/300 
f 301/301/301 299/299/299 300/300/300 
f 301/301/301 300/300/300 302/302/302 
f 303/303/303 301/301/301 302/302/302 
f 303/303/303 302/302/302 304/304/304 
f 305/305/305 303/303/303 304/304/304 
f 305/305/305 304/304/304 306/306/306 
f 307/307/307 305/305/305 306/306/306 
f 307/307/307 306/306/306 308/308/308 
f 277/277/277 307/307/307 308/308/308 
f 277/277/277 308/308/308 309/309/309 
f 310/310/310 277/277/277 309/309/309 
f 284/284/284 277/277/277 310/310/310 
f 310/310/310 311/311/311 284/284/284 
f 284/284/284 311/311/311 312/312/312 
f 312/312/312 292/292/292 284/284/284 
f 312/312/312 313/313/313 292/292/292 
f 313/313/313 288/288/288 292/292/292 
f 313/313/313 314/314/314 288/288/288 
f 315/315/315 288/288/288 314/314/314 
f 315/315/315 293/293/293 288/288/288 
f 316/316/316 318/318/318 317/317/317 
f 316/316/316 319/319/319 318/318/318 
f 319/319/319 320/320/320 318/318/318 
f 318/318/318 320/320/320 321/321/321 
f 318/318/318 321/321/321 322/322/322 
f 322/322/322 323/323/323 318/318/318 
f 323/323/323 324/324/324 318/318/318 
f 323/323/323 325/325/325 324/324/324 
f 322/322/322 321/321/321 326/326/326 
f 321/321/321 327/327/327 326/326/326 
f 320/320/320 328/328/328 321/321/321 
f 321/321/321 328/328/328 327/327/327 
f 327/327/327 328/328/328 329/329/329 
f 327/327/327 329/329/329 330/330/330 
f 320/320/320 331/331/331 328/328/328 
f 320/320/320 332/332/332 331/331/331 
f 331/331/331 332/332/332 333/333/333 
f 331/331/331 333/333/333 334/334/334 
f 335/335/335 334/334/334 333/333/333 
f 336/336/336 330/330/330 329/329/329 
f 336/336/336 337/337/337 330/330/330 
f 335/335/335 338/338/338 334/334/334 
f 336/336/336 339/339/339 337/337/337 
f 338/338/338 339/339/339 336/336/336 
f 340/340/340 338/338/338 335/335/335 
f 338/338/338 340/340/340 339/339/339 
f 340/340/340 341/341/341 339/339/339 
f 340/340/340 342/342/342 341/341/341 
f 343/343/343 341/341/341 342/342/342 
f 344/344/344 343/343/343 342/342/342 
f 344/344/344 342/342/342 345/345/345 
f 340/340/340 346/346/346 342/342/342 
f 346/346/346 347/347/347 342/342/342 
f 346/346/346 348/348/348 347/347/347 
