# exported by StudySceneExporter from mesh 'flopy'
mtllib materials.mtl
v 0.0002645792 0.004712973 0.01405417
v 0.0002645792 0.007903048 0.01405417
v 0.0002645792 0.007903048 0.006218805
v 0.0002645792 0.004712973 0.006218805
v 0.0002645792 0.0047058 0.01405417
v 0.0002645792 0.004705801 0.006218805
v 0.0002645792 0.004596481 0.01405417
v 0.0002645792 0.004596481 0.006218805
v 0.0002645792 0.004589308 0.01405417
v 0.0002645792 0.004589308 0.006218805
v 0.0002645792 0.001399231 0.01405417
v 0.0002645792 0.001399231 0.006218805
v -0.007856109 0.006468237 0.009176018
v -0.007428846 0.006468237 0.00912029
v -0.007428846 0.006468237 0.006685409
v -0.007856109 0.006468237 0.006741137
v 0.0002645792 0.004712973 0.01405417
v -0.007856109 0.007903048 0.01405417
v 0.0002645792 0.007903048 0.01405417
v -0.007856109 0.004712973 0.01405417
v 0.0002645792 0.0047058 0.01405417
v -0.00772313 0.0047058 0.01405417
v 0.0002645792 0.004596481 0.01405417
v -0.00772313 0.004596481 0.01405417
v 0.0002645792 0.004589308 0.01405417
v -0.007856109 0.004589308 0.01405417
v 0.0002645792 0.001399231 0.01405417
v -0.007856109 0.001399231 0.01405417
v 0.0002645792 0.001399231 0.006218805
v -0.007856109 0.001399231 0.006218805
v -0.007856109 0.001399231 0.01405417
v 0.0002645792 0.001399231 0.01405417
v 0.0002645792 0.004589308 0.006218805
v -0.007856109 0.001399231 0.006218805
v 0.0002645792 0.001399231 0.006218805
v -0.007856109 0.004589308 0.006218805
v 0.0002645792 0.004596481 0.006218805
v -0.00772313 0.004596481 0.006218805
v 0.0002645792 0.004705801 0.006218805
v -0.00772313 0.004705801 0.006218805
v 0.0002645792 0.004712973 0.006218805
v -0.007856109 0.004712973 0.006218805
v 0.0002645792 0.007903048 0.006218805
v -0.007856109 0.007903048 0.006218805
v 0.0002645792 0.007903048 0.01405417
v -0.007856109 0.007903048 0.01405417
v -0.007856109 0.007903048 0.006218805
v 0.0002645792 0.007903048 0.006218805
v -0.007856109 0.001399231 0.01405417
v -0.007856109 0.001399231 0.006218805
v -0.007856109 0.004589308 0.006218805
v -0.007856109 0.004589308 0.01405417
v -0.007856109 0.004589308 0.01405417
v -0.007856109 0.004589308 0.006218805
v -0.00772313 0.004596481 0.006218805
v -0.00772313 0.004596481 0.01405417
v -0.00772313 0.004596481 0.01405417
v -0.00772313 0.004596481 0.006218805
v -0.00772313 0.004705801 0.006218805
v -0.00772313 0.0047058 0.01405417
v -0.00772313 0.0047058 0.01405417
v -0.00772313 0.004705801 0.006218805
v -0.007856109 0.004712973 0.006218805
v -0.007856109 0.004712973 0.01405417
v -0.007856109 0.006468237 0.009176018
v -0.007856109 0.006468237 0.006741137
v -0.007856109 0.007041474 0.009171345
v -0.007856109 0.007903048 0.006218805
v -0.007856109 0.006147784 0.006741137
v -0.007856109 0.007903048 0.01405417
v -0.007856109 0.00704609 0.01098401
v -0.007856109 0.006468237 0.01101642
v -0.007856109 0.006468237 0.01353184
v -0.007856109 0.004712973 0.01405417
v -0.007856109 0.004712973 0.006218805
v -0.007856109 0.006147784 0.01353184
v -0.007856109 0.005589669 0.009183834
v -0.007856109 0.006147784 0.009178068
v -0.007856109 0.005601681 0.01108402
v -0.007856109 0.006147784 0.01105298
v -0.007856109 0.006147784 0.01353184
v -0.007428846 0.006147784 0.01347611
v -0.007428846 0.006468237 0.01347611
v -0.007856109 0.006468237 0.01353184
v -0.007856109 0.00704609 0.01098401
v -0.007666026 0.00704609 0.01092828
v -0.007666026 0.007041474 0.009115617
v -0.007856109 0.007041474 0.009171345
v -0.007428846 0.006468237 0.01096069
v -0.007428846 0.006468237 0.00912029
v -0.007666026 0.007041474 0.009115617
v -0.007666026 0.00704609 0.01092828
v -0.007428846 0.006147784 0.009122339
v -0.007428846 0.006147784 0.01099725
v -0.007666026 0.005601681 0.01102829
v -0.007666026 0.005589669 0.009128106
v -0.007856109 0.005601681 0.01108402
v -0.007666026 0.005601681 0.01102829
v -0.007428846 0.006147784 0.01099725
v -0.007856109 0.006147784 0.01105298
v -0.007856109 0.006468237 0.01101642
v -0.007428846 0.006468237 0.01096069
v -0.007666026 0.00704609 0.01092828
v -0.007856109 0.00704609 0.01098401
v -0.007856109 0.006468237 0.006741137
v -0.007428846 0.006468237 0.006685409
v -0.007428846 0.006147784 0.006685409
v -0.007856109 0.006147784 0.006741137
v -0.007856109 0.005589669 0.009183834
v -0.007666026 0.005589669 0.009128106
v -0.007666026 0.005601681 0.01102829
v -0.007856109 0.005601681 0.01108402
v -0.007856109 0.006147784 0.01105298
v -0.007428846 0.006147784 0.01099725
v -0.007428846 0.006147784 0.01347611
v -0.007856109 0.006147784 0.01353184
v -0.007856109 0.006147784 0.006741137
v -0.007428846 0.006147784 0.006685409
v -0.007428846 0.006147784 0.009122339
v -0.007856109 0.006147784 0.009178068
v -0.007856109 0.007041474 0.009171345
v -0.007666026 0.007041474 0.009115617
v -0.007428846 0.006468237 0.00912029
v -0.007856109 0.006468237 0.009176018
v -0.007856109 0.006147784 0.009178068
v -0.007428846 0.006147784 0.009122339
v -0.007666026 0.005589669 0.009128106
v -0.007856109 0.005589669 0.009183834
v -0.007856109 0.006468237 0.01353184
v -0.007428846 0.006468237 0.01347611
v -0.007428846 0.006468237 0.01096069
v -0.007856109 0.006468237 0.01101642
vt 0.8116661 0.5
vt 0.8527768 0.5
vt 0.8527769 0.75
vt 0.8116662 0.75
vt 0.7705554 0.5
vt 0.7705555 0.75
vt 0.7294446 0.5
vt 0.7294446 0.75
vt 0.6883339 0.5
vt 0.6883339 0.75
vt 0.6472232 0.5
vt 0.6472232 0.75
vt 0.8460455 0.6556453
vt 0.8460455 0.6556453
vt 0.8460456 0.7333341
vt 0.8460456 0.7333341
vt 0.8116661 0.5
vt 0.8527768 0.5
vt 0.8527768 0.5
vt 0.8116661 0.5
vt 0.7705554 0.5
vt 0.7705554 0.5
vt 0.7294446 0.5
vt 0.7294446 0.5
vt 0.6883339 0.5
vt 0.6883339 0.5
vt 0.6472232 0.5
vt 0.6472232 0.5
vt 0.6472232 0.75
vt 0.6472232 0.75
vt 0.6472232 0.5
vt 0.6472232 0.5
vt 0.6883339 0.75
vt 0.6472232 0.75
vt 0.6472232 0.75
vt 0.6883339 0.75
vt 0.7294446 0.75
vt 0.7294446 0.75
vt 0.7705555 0.75
vt 0.7705555 0.75
vt 0.8116662 0.75
vt 0.8116662 0.75
vt 0.8527769 0.75
vt 0.8527769 0.75
vt 0.8527768 0.5
vt 0.8527768 0.5
vt 0.8527769 0.75
vt 0.8527769 0.75
vt 0.6472232 0.5
vt 0.6472232 0.75
vt 0.6883339 0.75
vt 0.6883339 0.5
vt 0.6883339 0.5
vt 0.6883339 0.75
vt 0.7294446 0.75
vt 0.7294446 0.5
vt 0.7294446 0.5
vt 0.7294446 0.75
vt 0.7705555 0.75
vt 0.7705554 0.5
vt 0.7705554 0.5
vt 0.7705555 0.75
vt 0.8116662 0.75
vt 0.8116661 0.5
vt 0.8460455 0.6556453
vt 0.8460456 0.7333341
vt 0.8487349 0.6557945
vt 0.8527769 0.75
vt 0.8183975 0.7333341
vt 0.8527768 0.5
vt 0.8487564 0.5979584
vt 0.8460455 0.5969243
vt 0.8460454 0.5166658
vt 0.8116661 0.5
vt 0.8116662 0.75
vt 0.8183974 0.5166658
vt 0.8157791 0.6524743
vt 0.8183974 0.6526582
vt 0.8158354 0.5947676
vt 0.8183974 0.5957578
vt 0.8183974 0.5166658
vt 0.8183974 0.5166658
vt 0.8460454 0.5166658
vt 0.8460454 0.5166658
vt 0.8487564 0.5979584
vt 0.8487564 0.5979584
vt 0.8487349 0.6557945
vt 0.8487349 0.6557945
vt 0.8460455 0.5969243
vt 0.8460455 0.6556453
vt 0.8487349 0.6557945
vt 0.8487564 0.5979584
vt 0.8183974 0.6526582
vt 0.8183974 0.5957578
vt 0.8158354 0.5947676
vt 0.8157791 0.6524743
vt 0.8158354 0.5947676
vt 0.8158354 0.5947676
vt 0.8183974 0.5957578
vt 0.8183974 0.5957578
vt 0.8460455 0.5969243
vt 0.8460455 0.5969243
vt 0.8487564 0.5979584
vt 0.8487564 0.5979584
vt 0.8460456 0.7333341
vt 0.8460456 0.7333341
vt 0.8183975 0.7333341
vt 0.8183975 0.7333341
vt 0.8157791 0.6524743
vt 0.8157791 0.6524743
vt 0.8158354 0.5947676
vt 0.8158354 0.5947676
vt 0.8183974 0.5957578
vt 0.8183974 0.5957578
vt 0.8183974 0.5166658
vt 0.8183974 0.5166658
vt 0.8183975 0.7333341
vt 0.8183975 0.7333341
vt 0.8183974 0.6526582
vt 0.8183974 0.6526582
vt 0.8487349 0.6557945
vt 0.8487349 0.6557945
vt 0.8460455 0.6556453
vt 0.8460455 0.6556453
vt 0.8183974 0.6526582
vt 0.8183974 0.6526582
vt 0.8157791 0.6524743
vt 0.8157791 0.6524743
vt 0.8460454 0.5166658
vt 0.8460454 0.5166658
vt 0.8460455 0.5969243
vt 0.8460455 0.5969243
vn 1 0 0
vn 1 0 0
vn 1 0 0
vn 1 0 0
vn 1 0 0
vn 1 0 0
vn 1 0 0
vn 1 0 0
vn 1 0 0
vn 1 0 0
vn 1 0 0
vn 1 0 0
vn 0 -1 0
vn 0 -1 0
vn 0 -1 0
vn 0 -1 0
vn 0 0 1
vn 0 0 1
vn 0 0 1
vn 0 0 1
vn 0 0 1
vn 0 0 1
vn 0 5.80302E-05 1
vn 0 5.80302E-05 1
vn 0 0 1
vn 0 0 1
vn 0 0 1
vn 0 0 1
vn 0 -1 0
vn 0 -1 0
vn 0 -1 0
vn 0 -1 0
vn 0 0 -1
vn 0 0 -1
vn 0 0 -1
vn 0 0 -1
vn 0 0 -1
vn 0 0 -1
vn 0 -3.063087E-05 -1
vn 0 -3.063087E-05 -1
vn 0 0 -1
vn 0 0 -1
vn 0 0 -1
vn 0 0 -1
vn 0 1 0
vn 0 1 0
vn 0 1 0
vn 0 1 0
vn -1 0 0
vn -1 0 0
vn -1 0 0
vn -1 0 0
vn -0.05386638 0.9985481 0
vn -0.05386638 0.9985481 0
vn -0.05386638 0.9985481 0
vn -0.05386638 0.9985481 0
vn -1 0 0
vn -1 0 0
vn -1 0 0
vn -1 0 0
vn -0.05386069 -0.9985484 0
vn -0.05386069 -0.9985484 0
vn -0.05386069 -0.9985484 0
vn -0.05386069 -0.9985484 0
vn -1 0 0
vn -1 0 0
vn -1 0 0
vn -1 0 0
vn -1 0 0
vn -1 0 0
vn -1 0 0
vn -1 0 0
vn -1 0 0
vn -1 0 3.250579E-06
vn -1 0 0
vn -1 0 3.250579E-06
vn -1 0 0
vn -1 0 0
vn -1 0 0
vn -1 0 0
vn -0.1293401 0 -0.9916003
vn -0.1293401 0 -0.9916003
vn -0.1293401 0 -0.9916003
vn -0.1293401 0 -0.9916003
vn 0.000743852 -0.9999965 0.002546728
vn 0.000743852 -0.9999965 0.002546728
vn 0.000743852 -0.9999965 0.002546728
vn 0.000743852 -0.9999965 0.002546728
vn -0.9245756 -0.3809985 0.0004812819
vn -0.9245756 -0.3809985 0.0004812819
vn -0.9245756 -0.3809985 0.0004812819
vn -0.9245756 -0.3809985 0.0004812819
vn -0.9188206 0.3946734 -0.001256185
vn -0.9188206 0.3946734 -0.001256185
vn -0.9188206 0.3946734 -0.001256185
vn -0.9188206 0.3946734 -0.001256185
vn -0.1776454 -0.01734047 -0.9839417
vn -0.1776454 -0.01734047 -0.9839417
vn -0.1776454 -0.01734047 -0.9839417
vn -0.1776454 -0.01734047 -0.9839417
vn -0.1769308 -0.09127038 -0.9799823
vn -0.1769308 -0.09127038 -0.9799823
vn -0.1769308 -0.09127038 -0.9799823
vn -0.1769308 -0.09127038 -0.9799823
vn 0.1293348 0 0.991601
vn 0.1293348 0 0.991601
vn 0.1293348 0 0.991601
vn 0.1293348 0 0.991601
vn -0.001854395 0.9999783 -0.006321738
vn -0.001854395 0.9999783 -0.006321738
vn -0.001854395 0.9999783 -0.006321738
vn -0.001854395 0.9999783 -0.006321738
vn 0 1 0
vn 0 1 0
vn 0 1 0
vn 0 1 0
vn 0 1 0
vn 0 1 0
vn 0 1 0
vn 0 1 0
vn 0.1774916 0.04473354 0.9831051
vn 0.1774916 0.04473354 0.9831051
vn 0.1774916 0.04473354 0.9831051
vn 0.1774916 0.04473354 0.9831051
vn 0.1776026 -0.02757061 0.983716
vn 0.1776026 -0.02757061 0.983716
vn 0.1776026 -0.02757061 0.983716
vn 0.1776026 -0.02757061 0.983716
vn -1.386482E-06 -1 0
vn -1.386482E-06 -1 0
vn -1.386482E-06 -1 0
vn -1.386482E-06 -1 0
usemtl vintage_1
f 1/1/1 3/3/3 2/2/2 
f 1/1/1 4/4/4 3/3/3 
f 5/5/5 4/4/4 1/1/1 
f 5/5/5 6/6/6 4/4/4 
f 7/7/7 6/6/6 5/5/5 
f 7/7/7 8/8/8 6/6/6 
f 9/9/9 8/8/8 7/7/7 
f 9/9/9 10/10/10 8/8/8 
f 11/11/11 10/10/10 9/9/9 
f 11/11/11 12/12/12 10/10/10 
f 13/13/13 15/15/15 14/14/14 
f 13/13/13 16/16/16 15/15/15 
f 17/17/17 19/19/19 18/18/18 
f 17/17/17 18/18/18 20/20/20 
f 21/21/21 17/17/17 20/20/20 
f 21/21/21 20/20/20 22/22/22 
f 23/23/23 21/21/21 22/22/22 
f 23/23/23 22/22/22 24/24/24 
f 25/25/25 23/23/23 24/24/24 
f 25/25/25 24/24/24 26/26/26 
f 27/27/27 25/25/25 26/26/26 
f 27/27/27 26/26/26 28/28/28 
f 29/29/29 31/31/31 30/30/30 
f 29/29/29 32/32/32 31/31/31 
f 33/33/33 35/35/35 34/34/34 
f 33/33/33 34/34/34 36/36/36 
f 37/37/37 33/33/33 36/36/36 
f 37/37/37 36/36/36 38/38/38 
f 39/39/39 37/37/37 38/38/38 
f 39/39/39 38/38/38 40/40/40 
f 41/41/41 39/39/39 40/40/40 
f 41/41/41 40/40/40 42/42/42 
f 43/43/43 41/41/41 42/42/42 
f 43/43/43 42/42/42 44/44/44 
f 45/45/45 47/47/47 46/46/46 
f 45/45/45 48/48/48 47/47/47 
f 49/49/49 51/51/51 50/50/50 
f 49/49/49 52/52/52 51/51/51 
f 53/53/53 55/55/55 54/54/54 
f 53/53/53 56/56/56 55/55/55 
f 57/57/57 59/59/59 58/58/58 
f 57/57/57 60/60/60 59/59/59 
f 61/61/61 63/63/63 62/62/62 
f 61/61/61 64/64/64 63/63/63 
f 65/65/65 67/67/67 66/66/66 
f 67/67/67 68/68/68 66/66/66 
f 69/69/69 66/66/66 68/68/68 
f 68/68/68 67/67/67 70/70/70 
f 70/70/70 67/67/67 71/71/71 
f 70/70/70 71/71/71 72/72/72 
f 70/70/70 72/72/72 73/73/73 
f 73/73/73 74/74/74 70/70/70 
f 69/69/69 68/68/68 75/75/75 
f 73/73/73 76/76/76 74/74/74 
f 75/75/75 77/77/77 69/69/69 
f 77/77/77 75/75/75 74/74/74 
f 69/69/69 77/77/77 78/78/78 
f 77/77/77 74/74/74 79/79/79 
f 79/79/79 74/74/74 76/76/76 
f 76/76/76 80/80/80 79/79/79 
f 81/81/81 83/83/83 82/82/82 
f 81/81/81 84/84/84 83/83/83 
f 85/85/85 87/87/87 86/86/86 
f 85/85/85 88/88/88 87/87/87 
f 89/89/89 91/91/91 90/90/90 
f 89/89/89 92/92/92 91/91/91 
f 93/93/93 95/95/95 94/94/94 
f 93/93/93 96/96/96 95/95/95 
f 97/97/97 99/99/99 98/98/98 
f 97/97/97 100/100/100 99/99/99 
f 101/101/101 103/103/103 102/102/102 
f 101/101/101 104/104/104 103/103/103 
f 105/105/105 107/107/107 106/106/106 
f 105/105/105 108/108/108 107/107/107 
f 109/109/109 111/111/111 110/110/110 
f 109/109/109 112/112/112 111/111/111 
f 113/113/113 115/115/115 114/114/114 
f 113/113/113 116/116/116 115/115/115 
f 117/117/117 119/119/119 118/118/118 
f 117/117/117 120/120/120 119/119/119 
f 121/121/121 123/123/123 122/122/122 
f 121/121/121 124/124/124 123/123/123 
f 125/125/125 127/127/127 126/126/126 
f 125/125/125 128/128/128 127/127/127 
f 129/129/129 131/131/131 130/130/130 
f 129/129/129 132/132/132 131/131/131 
