# exported by StudySceneExporter from mesh 'Pegboard_Hook_Pliers_low1'
mtllib materials.mtl
v 0.01153564 -0.0078928 0.005224686
v 0.01385025 -0.0078928 0.005928574
v 0.01385025 -0.0078928 0.009389877
v 0.009133606 -0.0078928 0.007717208
v 0.01385025 -0.01135426 0.009389877
v 0.007175216 -0.0078928 0.003193283
v 0.01063663 -0.0078928 0.00319664
v 0.009133606 -0.01135426 0.007717208
v 0.01385025 -0.01135426 0.005928574
v 0.007175216 -0.01135426 0.003193283
v 0.007175216 -0.0078928 -0.001535263
v 0.01063663 -0.0078928 -0.001531906
v 0.01153564 -0.01135426 0.005224686
v 0.01385025 -0.0078928 0.005928574
v 0.01153564 -0.0078928 0.005224686
v 0.01063663 -0.0078928 0.00319664
v 0.01063663 -0.01135426 0.00319664
v 0.01063663 -0.0078928 -0.001531906
v 0.01063663 -0.01135426 -0.001531906
v 0.01063663 -0.01040577 -0.007002945
v 0.007175216 -0.01135426 -0.001535263
v 0.01063663 -0.01285336 -0.004555283
v 0.01063663 -0.0158321 -0.009389877
v 0.007175216 -0.01285572 -0.004557724
v 0.01063663 -0.0158321 -0.005928421
v 0.01063663 -0.01958668 -0.009389877
v 0.007175216 -0.01040813 -0.007005234
v 0.01063663 -0.01040577 -0.007002945
v 0.01063663 -0.01958668 -0.005928421
v 0.008103447 -0.02470562 -0.009389877
v 0.007175216 -0.01583546 -0.005928421
v 0.007175216 -0.01583538 -0.009389877
v 0.01063663 -0.0158321 -0.009389877
v 0.008103485 -0.02470562 -0.005928421
v 0.00229702 -0.02677349 -0.009389877
v 0.007175216 -0.01959003 -0.005928421
v 0.007175216 -0.01958996 -0.009389877
v 0.01063663 -0.01958668 -0.009389877
v 0.002297058 -0.02677349 -0.005928421
v -0.006154899 -0.02677349 -0.009389877
v 0.005653495 -0.0222604 -0.005928421
v 0.005653534 -0.02226032 -0.009389877
v 0.008103447 -0.02470562 -0.009389877
v -0.006154861 -0.02677349 -0.005928421
v -0.01116978 -0.02470776 -0.009389877
v 0.002293663 -0.02331211 -0.005928421
v 0.002293739 -0.02331203 -0.009389877
v 0.00229702 -0.02677349 -0.009389877
v -0.01116978 -0.02470776 -0.005928421
v -0.01385021 -0.01959156 -0.009389877
v -0.006158256 -0.02331211 -0.005928421
v -0.00615818 -0.02331203 -0.009389877
v -0.006154899 -0.02677349 -0.009389877
v -0.008724555 -0.02225773 -0.005928421
v -0.008724517 -0.0222578 -0.009389877
v -0.01116978 -0.02470776 -0.009389877
v -0.01385025 -0.01959164 -0.005928421
v -0.01038879 -0.0195882 -0.005928421
v -0.01038883 -0.01958828 -0.009389877
v -0.01385021 -0.01959156 -0.009389877
v -0.01385021 0.0195916 -0.009389877
v -0.01385025 0.01959164 -0.005928421
v -0.01385021 0.0195916 -0.009389877
v -0.01116978 0.02470776 -0.009389877
v -0.01038879 0.01958824 -0.005928421
v -0.01038883 0.01958832 -0.009389877
v -0.01116978 0.02470779 -0.005928421
v -0.006154899 0.02677349 -0.009389877
v -0.008724517 0.02225784 -0.009389877
v -0.01116978 0.02470776 -0.009389877
v -0.008724555 0.02225777 -0.005928421
v -0.006154861 0.02677349 -0.005928421
v 0.00229702 0.02677349 -0.009389877
v -0.00615818 0.02331207 -0.009389877
v -0.006154899 0.02677349 -0.009389877
v -0.006158256 0.02331211 -0.005928421
v 0.002297058 0.02677349 -0.005928421
v 0.008103447 0.02470562 -0.009389877
v 0.002293739 0.02331207 -0.009389877
v 0.00229702 0.02677349 -0.009389877
v 0.002293663 0.02331211 -0.005928421
v 0.008103485 0.02470562 -0.005928421
v 0.01063663 0.01958668 -0.009389877
v 0.005653534 0.02226036 -0.009389877
v 0.008103447 0.02470562 -0.009389877
v 0.005653495 0.0222604 -0.005928421
v 0.01063663 0.01958668 -0.005928421
v 0.01063663 0.01583019 -0.009389877
v 0.007175216 0.01958996 -0.009389877
v 0.01063663 0.01958668 -0.009389877
v 0.007175216 0.01959003 -0.005928421
v 0.01063663 0.01583015 -0.005928421
v 0.01063663 0.01040382 -0.007002945
v 0.007175216 0.01583347 -0.009389877
v 0.01063663 0.01583019 -0.009389877
v 0.007175216 0.01583355 -0.005928421
v 0.01063663 0.01285145 -0.004555283
v 0.01063663 0.007890892 -0.001531906
v 0.007175216 0.01040623 -0.007005234
v 0.01063663 0.01040382 -0.007002945
v 0.007175216 0.01285381 -0.004557724
v 0.01063663 0.01135235 -0.001531906
v 0.01063663 0.007890892 0.00319664
v 0.007175216 0.007890892 -0.001535263
v 0.01063663 0.007890892 -0.001531906
v 0.007175216 0.01135235 -0.001535263
v 0.01063663 0.01135235 0.00319664
v 0.01153564 0.007890892 0.005224686
v 0.007175216 0.007890892 0.003193283
v 0.01063663 0.007890892 0.00319664
v 0.007175216 0.01135235 0.003193283
v 0.01153564 0.01135235 0.005224686
v 0.01385025 0.007890892 0.005928574
v 0.01385025 0.01135235 0.005928574
v 0.01385025 0.01135235 0.009389877
v 0.009133606 0.01135235 0.007717208
v 0.01385025 0.007890892 0.009389877
v 0.009133606 0.007890892 0.007717208
v 0.01153564 0.007890892 0.005224686
v 0.01385025 0.007890892 0.005928574
vt 0.8492968 0.7640939
vt 0.8512163 0.7640939
vt 0.852407 0.7619845
vt 0.8492968 0.7619845
vt 0.852407 0.759802
vt 0.8473529 0.7619845
vt 0.8473529 0.7640939
vt 0.8492968 0.759802
vt 0.8505715 0.7576266
vt 0.8473529 0.759802
vt 0.8443043 0.7619845
vt 0.8443044 0.7640939
vt 0.8492968 0.7576266
vt 0.8505715 0.7554419
vt 0.8492968 0.755442
vt 0.8473529 0.755442
vt 0.8473529 0.7576266
vt 0.8443044 0.7554419
vt 0.8443044 0.7576266
vt 0.8415045 0.7554419
vt 0.8443044 0.759802
vt 0.8415045 0.7576266
vt 0.8386941 0.7554419
vt 0.8415045 0.759802
vt 0.8386941 0.7576266
vt 0.836332 0.7554419
vt 0.8415045 0.7619845
vt 0.8415042 0.7640939
vt 0.836332 0.7576266
vt 0.8337216 0.7554419
vt 0.8386941 0.759802
vt 0.8386941 0.7619845
vt 0.8386941 0.7640939
vt 0.8337216 0.7576266
vt 0.830822 0.7554419
vt 0.836332 0.759802
vt 0.8363321 0.7619845
vt 0.836332 0.7640939
vt 0.8308218 0.7576266
vt 0.8255306 0.7554419
vt 0.8337216 0.759802
vt 0.8337218 0.7619845
vt 0.8337218 0.7640939
vt 0.8255306 0.7576266
vt 0.8231108 0.7554419
vt 0.8308218 0.759802
vt 0.830822 0.7619845
vt 0.830822 0.7640939
vt 0.8231107 0.7576266
vt 0.8204768 0.7554419
vt 0.8255306 0.759802
vt 0.8255306 0.7619845
vt 0.8255306 0.7640939
vt 0.8231107 0.759802
vt 0.8231108 0.7619845
vt 0.8231108 0.7640939
vt 0.8204768 0.7576266
vt 0.8204768 0.759802
vt 0.8204768 0.7619845
vt 0.8204768 0.7640939
vt 0.7955077 0.7640939
vt 0.7955077 0.7576266
vt 0.7955077 0.7554419
vt 0.7928827 0.7554419
vt 0.7955077 0.759802
vt 0.7955077 0.7619845
vt 0.7928827 0.7576266
vt 0.7904675 0.7554419
vt 0.7928827 0.7619845
vt 0.7928827 0.7640939
vt 0.7928827 0.759802
vt 0.7904675 0.7576266
vt 0.7851645 0.7554419
vt 0.7904675 0.7619845
vt 0.7904675 0.7640939
vt 0.7904675 0.759802
vt 0.7851645 0.7576266
vt 0.7822723 0.7554419
vt 0.7851645 0.7619845
vt 0.7851645 0.7640939
vt 0.7851645 0.759802
vt 0.7822723 0.7576266
vt 0.7796688 0.7554419
vt 0.7822723 0.7619845
vt 0.7822723 0.7640939
vt 0.7822723 0.759802
vt 0.7796688 0.7576266
vt 0.7772946 0.7554419
vt 0.7796688 0.7619845
vt 0.7796688 0.7640939
vt 0.7796688 0.759802
vt 0.7772946 0.7576266
vt 0.7744982 0.7554419
vt 0.7772946 0.7619845
vt 0.7772946 0.7640939
vt 0.7772946 0.759802
vt 0.7744982 0.7576266
vt 0.7716813 0.7554419
vt 0.7744985 0.7619845
vt 0.7744982 0.7640939
vt 0.7744985 0.759802
vt 0.7716813 0.7576266
vt 0.7686595 0.755442
vt 0.7716813 0.7619845
vt 0.7716813 0.7640939
vt 0.7716813 0.759802
vt 0.7686595 0.7576266
vt 0.7666706 0.7554419
vt 0.7686595 0.7619845
vt 0.7686595 0.7640939
vt 0.7686595 0.759802
vt 0.7666706 0.7576266
vt 0.7653575 0.7554419
vt 0.7653575 0.7576266
vt 0.7635951 0.759802
vt 0.7666706 0.759802
vt 0.7635951 0.7619845
vt 0.7666706 0.7619845
vt 0.7666706 0.7640939
vt 0.7648942 0.7640939
vn 0.2861589 0.8971151 -0.3365973
vn 0.1483718 0.8602324 -0.4878383
vn -0.2943876 0.4735057 0.8301376
vn -0.5973783 0.4785857 0.643502
vn -0.2943928 -0.4735049 0.8301362
vn -0.7799042 0.6037376 0.1650768
vn 0.6031697 0.793565 -0.08025441
vn -0.5973819 -0.478579 0.6435037
vn 0.1483617 -0.8602337 -0.487839
vn -0.7799086 -0.6037319 0.1650771
vn -0.5997431 0.7769105 -0.1916202
vn 0.5998619 0.776873 -0.1914002
vn 0.2861587 -0.8971133 -0.336602
vn 0.1483718 0.8602324 -0.4878383
vn 0.2861589 0.8971151 -0.3365973
vn 0.6031697 0.793565 -0.08025441
vn 0.603174 -0.7935618 -0.08025533
vn 0.5998619 0.776873 -0.1914002
vn 0.7945546 -0.596145 0.1153002
vn 0.508863 0.6055735 -0.6118325
vn -0.7947059 -0.5959204 0.1154187
vn 0.8570757 -0.3608775 0.36768
vn 0.5873212 0.2036401 -0.7833164
vn -0.8570908 -0.3607091 0.3678102
vn 0.8004245 -0.119747 0.587351
vn 0.7816066 -0.2231342 -0.5824966
vn -0.5088583 0.6053113 -0.6120959
vn 0.508863 0.6055735 -0.6118325
vn 0.7816125 -0.2231291 0.5824906
vn 0.5642381 -0.6547501 -0.502929
vn -0.8003084 -0.119627 0.5875337
vn -0.5874857 0.2034298 -0.7832475
vn 0.5873212 0.2036401 -0.7833164
vn 0.5642461 -0.6547505 0.5029197
vn 0.1105088 -0.7619737 -0.6381095
vn -0.5703092 0.135079 0.8102475
vn -0.5703176 0.1350638 -0.8102441
vn 0.7816066 -0.2231342 -0.5824966
vn 0.1105112 -0.7619833 0.6380976
vn -0.1167073 -0.7608116 -0.6383924
vn -0.3046822 0.3995887 0.8645794
vn -0.304691 0.3995872 -0.8645771
vn 0.5642381 -0.6547501 -0.502929
vn -0.1167052 -0.7608184 0.6383849
vn -0.5894125 -0.6315388 -0.5037377
vn -0.05785171 0.6497186 0.7579702
vn -0.05785461 0.6497286 -0.7579615
vn 0.1105088 -0.7619737 -0.6381095
vn -0.5894116 -0.6315448 0.5037312
vn -0.7250565 -0.04387002 -0.6872907
vn 0.06127052 0.6402849 0.76569
vn 0.06126926 0.6403043 -0.7656739
vn -0.1167073 -0.7608116 -0.6383924
vn 0.3390789 0.3852122 0.8582757
vn 0.3390729 0.3852248 -0.8582724
vn -0.5894125 -0.6315388 -0.5037377
vn -0.7250565 -0.04387183 0.6872906
vn 0.6828048 0.02715596 0.7300959
vn 0.6828057 0.02715712 -0.7300951
vn -0.7250565 -0.04387002 -0.6872907
vn -0.7250544 0.04387047 -0.6872928
vn -0.7250559 0.04387134 0.6872911
vn -0.7250544 0.04387047 -0.6872928
vn -0.5894111 0.6315402 -0.5037376
vn 0.6828075 -0.02715606 0.7300935
vn 0.6828058 -0.02715712 -0.7300951
vn -0.5894092 0.6315492 0.5037283
vn -0.1167078 0.7608145 -0.6383892
vn 0.3390738 -0.3852257 -0.8582717
vn -0.5894111 0.6315402 -0.5037376
vn 0.3390806 -0.3852141 0.8582741
vn -0.1167053 0.7608191 0.6383839
vn 0.1105096 0.7619749 -0.638108
vn 0.06126923 -0.6403054 -0.765673
vn -0.1167078 0.7608145 -0.6383892
vn 0.06127109 -0.6402895 0.7656861
vn 0.1105112 0.761983 0.6380982
vn 0.5642408 0.6547452 -0.5029325
vn -0.05785424 -0.6497326 -0.7579581
vn 0.1105096 0.7619749 -0.638108
vn -0.05785206 -0.6497216 0.7579677
vn 0.5642433 0.6547523 0.5029205
vn 0.7815964 0.2230774 -0.5825319
vn -0.3046912 -0.3996051 -0.8645687
vn 0.5642408 0.6547452 -0.5029325
vn -0.3046883 -0.3995895 0.8645769
vn 0.781599 0.2230781 0.5825282
vn 0.5873531 -0.2035923 -0.7833049
vn -0.5703581 -0.1350447 -0.8102189
vn 0.7815964 0.2230774 -0.5825319
vn -0.5703508 -0.1350471 0.8102236
vn 0.8004085 0.1197191 0.5873785
vn 0.5088587 -0.6055721 -0.6118377
vn -0.5875106 -0.203383 -0.783241
vn 0.5873531 -0.2035923 -0.7833049
vn -0.800288 0.1195987 0.5875672
vn 0.8570787 0.3608764 0.3676744
vn 0.5998616 -0.7768735 -0.1913997
vn -0.5088601 -0.6053072 -0.6120986
vn 0.5088587 -0.6055721 -0.6118377
vn -0.8570899 0.3607088 0.3678125
vn 0.7945572 0.5961422 0.115297
vn 0.6031783 -0.7935585 -0.08025501
vn -0.5997519 -0.7769049 -0.1916151
vn 0.5998616 -0.7768735 -0.1913997
vn -0.7947085 0.5959163 0.1154207
vn 0.6031698 0.793565 -0.08025441
vn 0.2861528 -0.8971149 -0.3366026
vn -0.7799094 -0.6037308 0.1650767
vn 0.6031783 -0.7935585 -0.08025501
vn -0.7799076 0.6037335 0.1650757
vn 0.2861482 0.897118 -0.3365984
vn 0.1483535 -0.8602347 -0.4878396
vn 0.1483535 0.8602347 -0.4878396
vn -0.2943918 0.473505 0.8301364
vn -0.5973803 0.4785849 0.6435009
vn -0.2943918 -0.473505 0.8301364
vn -0.5973822 -0.4785789 0.6435035
vn 0.2861528 -0.8971149 -0.3366026
vn 0.1483535 -0.8602347 -0.4878396
usemtl Mat_Pegboard
f 1/1/1 3/3/3 2/2/2 
f 1/1/1 4/4/4 3/3/3 
f 4/4/4 5/5/5 3/3/3 
f 6/6/6 4/4/4 1/1/1 
f 6/6/6 1/1/1 7/7/7 
f 4/4/4 8/8/8 5/5/5 
f 8/8/8 9/9/9 5/5/5 
f 10/10/10 4/4/4 6/6/6 
f 10/10/10 8/8/8 4/4/4 
f 11/11/11 6/6/6 7/7/7 
f 11/11/11 7/7/7 12/12/12 
f 8/8/8 13/13/13 9/9/9 
f 13/13/13 14/14/14 9/9/9 
f 13/13/13 15/15/15 14/14/14 
f 16/16/16 15/15/15 13/13/13 
f 17/17/17 13/13/13 8/8/8 
f 16/16/16 13/13/13 17/17/17 
f 17/17/17 8/8/8 10/10/10 
f 18/18/18 16/16/16 17/17/17 
f 18/18/18 17/17/17 19/19/19 
f 19/19/19 17/17/17 10/10/10 
f 20/20/20 18/18/18 19/19/19 
f 21/21/21 10/10/10 6/6/6 
f 19/19/19 10/10/10 21/21/21 
f 21/21/21 6/6/6 11/11/11 
f 20/20/20 19/19/19 22/22/22 
f 22/22/22 19/19/19 21/21/21 
f 23/23/23 20/20/20 22/22/22 
f 24/24/24 21/21/21 11/11/11 
f 22/22/22 21/21/21 24/24/24 
f 23/23/23 22/22/22 25/25/25 
f 25/25/25 22/22/22 24/24/24 
f 26/26/26 23/23/23 25/25/25 
f 24/24/24 11/11/11 27/27/27 
f 27/27/27 11/11/11 12/12/12 
f 27/27/27 12/12/12 28/28/28 
f 26/26/26 25/25/25 29/29/29 
f 30/30/30 26/26/26 29/29/29 
f 25/25/25 24/24/24 31/31/31 
f 31/31/31 24/24/24 27/27/27 
f 29/29/29 25/25/25 31/31/31 
f 32/32/32 27/27/27 28/28/28 
f 31/31/31 27/27/27 32/32/32 
f 32/32/32 28/28/28 33/33/33 
f 30/30/30 29/29/29 34/34/34 
f 35/35/35 30/30/30 34/34/34 
f 29/29/29 31/31/31 36/36/36 
f 36/36/36 31/31/31 32/32/32 
f 34/34/34 29/29/29 36/36/36 
f 37/37/37 32/32/32 33/33/33 
f 36/36/36 32/32/32 37/37/37 
f 37/37/37 33/33/33 38/38/38 
f 35/35/35 34/34/34 39/39/39 
f 40/40/40 35/35/35 39/39/39 
f 34/34/34 36/36/36 41/41/41 
f 41/41/41 36/36/36 37/37/37 
f 39/39/39 34/34/34 41/41/41 
f 42/42/42 37/37/37 38/38/38 
f 41/41/41 37/37/37 42/42/42 
f 42/42/42 38/38/38 43/43/43 
f 40/40/40 39/39/39 44/44/44 
f 45/45/45 40/40/40 44/44/44 
f 39/39/39 41/41/41 46/46/46 
f 46/46/46 41/41/41 42/42/42 
f 44/44/44 39/39/39 46/46/46 
f 47/47/47 42/42/42 43/43/43 
f 46/46/46 42/42/42 47/47/47 
f 47/47/47 43/43/43 48/48/48 
f 45/45/45 44/44/44 49/49/49 
f 50/50/50 45/45/45 49/49/49 
f 44/44/44 46/46/46 51/51/51 
f 51/51/51 46/46/46 47/47/47 
f 49/49/49 44/44/44 51/51/51 
f 52/52/52 47/47/47 48/48/48 
f 51/51/51 47/47/47 52/52/52 
f 52/52/52 48/48/48 53/53/53 
f 49/49/49 51/51/51 54/54/54 
f 54/54/54 51/51/51 52/52/52 
f 55/55/55 52/52/52 53/53/53 
f 54/54/54 52/52/52 55/55/55 
f 55/55/55 53/53/53 56/56/56 
f 50/50/50 49/49/49 57/57/57 
f 57/57/57 49/49/49 54/54/54 
f 58/58/58 54/54/54 55/55/55 
f 57/57/57 54/54/54 58/58/58 
f 59/59/59 55/55/55 56/56/56 
f 58/58/58 55/55/55 59/59/59 
f 59/59/59 56/56/56 60/60/60 
f 61/61/61 59/59/59 60/60/60 
f 62/62/62 50/50/50 57/57/57 
f 62/62/62 63/63/63 50/50/50 
f 62/62/62 64/64/64 63/63/63 
f 65/65/65 57/57/57 58/58/58 
f 65/65/65 62/62/62 57/57/57 
f 66/66/66 58/58/58 59/59/59 
f 61/61/61 66/66/66 59/59/59 
f 66/66/66 65/65/65 58/58/58 
f 62/62/62 67/67/67 64/64/64 
f 65/65/65 67/67/67 62/62/62 
f 67/67/67 68/68/68 64/64/64 
f 61/61/61 69/69/69 66/66/66 
f 61/61/61 70/70/70 69/69/69 
f 66/66/66 71/71/71 65/65/65 
f 65/65/65 71/71/71 67/67/67 
f 66/66/66 69/69/69 71/71/71 
f 67/67/67 72/72/72 68/68/68 
f 71/71/71 72/72/72 67/67/67 
f 72/72/72 73/73/73 68/68/68 
f 70/70/70 74/74/74 69/69/69 
f 70/70/70 75/75/75 74/74/74 
f 69/69/69 76/76/76 71/71/71 
f 71/71/71 76/76/76 72/72/72 
f 69/69/69 74/74/74 76/76/76 
f 72/72/72 77/77/77 73/73/73 
f 76/76/76 77/77/77 72/72/72 
f 77/77/77 78/78/78 73/73/73 
f 75/75/75 79/79/79 74/74/74 
f 75/75/75 80/80/80 79/79/79 
f 74/74/74 81/81/81 76/76/76 
f 76/76/76 81/81/81 77/77/77 
f 74/74/74 79/79/79 81/81/81 
f 77/77/77 82/82/82 78/78/78 
f 81/81/81 82/82/82 77/77/77 
f 82/82/82 83/83/83 78/78/78 
f 80/80/80 84/84/84 79/79/79 
f 80/80/80 85/85/85 84/84/84 
f 79/79/79 86/86/86 81/81/81 
f 81/81/81 86/86/86 82/82/82 
f 79/79/79 84/84/84 86/86/86 
f 82/82/82 87/87/87 83/83/83 
f 86/86/86 87/87/87 82/82/82 
f 87/87/87 88/88/88 83/83/83 
f 85/85/85 89/89/89 84/84/84 
f 85/85/85 90/90/90 89/89/89 
f 84/84/84 91/91/91 86/86/86 
f 86/86/86 91/91/91 87/87/87 
f 84/84/84 89/89/89 91/91/91 
f 87/87/87 92/92/92 88/88/88 
f 91/91/91 92/92/92 87/87/87 
f 92/92/92 93/93/93 88/88/88 
f 90/90/90 94/94/94 89/89/89 
f 90/90/90 95/95/95 94/94/94 
f 89/89/89 96/96/96 91/91/91 
f 91/91/91 96/96/96 92/92/92 
f 89/89/89 94/94/94 96/96/96 
f 92/92/92 97/97/97 93/93/93 
f 96/96/96 97/97/97 92/92/92 
f 97/97/97 98/98/98 93/93/93 
f 95/95/95 99/99/99 94/94/94 
f 95/95/95 100/100/100 99/99/99 
f 94/94/94 101/101/101 96/96/96 
f 96/96/96 101/101/101 97/97/97 
f 94/94/94 99/99/99 101/101/101 
f 97/97/97 102/102/102 98/98/98 
f 101/101/101 102/102/102 97/97/97 
f 102/102/102 103/103/103 98/98/98 
f 100/100/100 104/104/104 99/99/99 
f 100/100/100 105/105/105 104/104/104 
f 99/99/99 106/106/106 101/101/101 
f 101/101/101 106/106/106 102/102/102 
f 99/99/99 104/104/104 106/106/106 
f 102/102/102 107/107/107 103/103/103 
f 106/106/106 107/107/107 102/102/102 
f 107/107/107 108/108/108 103/103/103 
f 105/105/105 109/109/109 104/104/104 
f 105/105/105 110/110/110 109/109/109 
f 104/104/104 111/111/111 106/106/106 
f 106/106/106 111/111/111 107/107/107 
f 104/104/104 109/109/109 111/111/111 
f 107/107/107 112/112/112 108/108/108 
f 111/111/111 112/112/112 107/107/107 
f 113/113/113 108/108/108 112/112/112 
f 113/113/113 112/112/112 114/114/114 
f 112/112/112 115/115/115 114/114/114 
f 111/111/111 116/116/116 112/112/112 
f 112/112/112 116/116/116 115/115/115 
f 109/109/109 116/116/116 111/111/111 
f 116/116/116 117/117/117 115/115/115 
f 110/110/110 118/118/118 109/109/109 
f 109/109/109 118/118/118 116/116/116 
f 116/116/116 118/118/118 117/117/117 
f 110/110/110 119/119/119 118/118/118 
f 118/118/118 120/120/120 117/117/117 
f 118/118/118 119/119/119 120/120/120 
