# exported by StudySceneExporter from mesh 'Screwdriver_S_Handle_low'
mtllib materials.mtl
v 0.001497765 -0.01201328 -0.02819321
v 0.007648735 -0.01008858 -0.02487274
v 0.007722931 -0.01004116 -0.02801666
v 0.001423569 -0.0120607 -0.02504959
v -0.004880371 -0.0106078 -0.0283226
v 0.006235084 -0.008099136 -0.02059906
v -0.004954605 -0.01065521 -0.02517883
v -0.00970253 -0.00620121 -0.02837006
v 0.001212349 -0.009690399 -0.02074158
v 0.005617714 -0.007355614 -0.01632523
v -0.009776764 -0.006248665 -0.02522629
v -0.0116766 2.567291E-05 -0.0283226
v 0.001068039 -0.008796959 -0.01645431
v 0.005941696 -0.008106727 -0.0116304
v -0.003933868 -0.008556328 -0.02084595
v -0.01175079 -2.174377E-05 -0.02517883
v -0.01027355 0.006404381 -0.02819321
v 0.0009937667 -0.009674225 -0.01177093
v 0.006860542 -0.009775162 -0.007195435
v -0.003593445 -0.007769699 -0.01654907
v -0.007824592 -0.005000915 -0.02088425
v -0.01034779 0.006356964 -0.02504959
v -0.005869446 0.01122578 -0.02801666
v -0.00594368 0.01117836 -0.02487274
v 0.0009750366 -0.01163971 -0.007362518
v 0.008557549 -0.01285027 0.0008747863
v -0.009417343 2.319336E-05 -0.02084595
v -0.008285332 0.00516983 -0.02074158
v -0.004731865 0.009059944 -0.02059906
v -0.007117729 -0.004549179 -0.01658371
v -0.004075813 -0.008557091 -0.01187378
v 0.0009430695 -0.01526253 0.0006585693
v 0.009240036 -0.01445713 0.01123535
v -0.007535095 0.004663658 -0.01645431
v -0.00431633 0.008187409 -0.01632523
v -0.008560485 1.754761E-06 -0.01654907
v -0.00505516 -0.0103109 -0.007484741
v -0.007908554 -0.005054626 -0.01191132
v 0.0007763671 -0.01713844 0.01099487
v 0.007636757 -0.01243874 0.02065521
v -0.008362465 0.004964676 -0.01177093
v -0.004861946 0.008796845 -0.0116304
v -0.009477577 -0.0001053238 -0.01187378
v -0.006858558 -0.01354336 0.0005003357
v -0.009614182 -0.006144752 -0.007529602
v 0.0004379272 -0.01471931 0.02045074
v 0.005550957 -0.009435845 0.02566345
v -0.01015407 0.005773087 -0.007362518
v -0.005990257 0.01033142 -0.007195435
v -0.01148052 -0.0002576065 -0.007484741
v -0.01275692 -0.008153343 0.0004423523
v -0.007895317 -0.01522751 0.01081909
v -0.01345539 0.007265549 0.0006585693
v -0.008068352 0.01316299 0.0008747863
v -0.01517151 -0.0005367279 0.0005003357
v -0.01713531 -0.0007704162 0.01081909
v -0.01522781 0.007902069 0.01099487
v -0.009240036 0.01445713 0.01123535
v -0.01445145 -0.009236412 0.0107547
v -0.01317451 0.00657898 0.02045074
v -0.008081589 0.01215446 0.02065521
v -0.01479698 -0.0007974243 0.02030106
v -0.0100502 0.004820785 0.0255101
v -0.01126648 -0.0007089233 0.02539795
v -0.006232262 0.009000396 0.02566345
v -0.003600273 0.004733352 0.02852798
v -0.005668831 0.002468872 0.02844498
v -0.0004330826 -0.0002767944 0.02957809
v -0.01441975 -0.002381515 0.0198642
v -0.006327781 -0.0005270767 0.02838409
v -0.01361465 -0.008701554 0.01467331
v -0.01516849 -0.004759331 0.01591507
v -0.01069916 -0.01179645 0.0159082
v -0.006937828 -0.01309399 0.02030106
v 0.0001543808 -0.01114552 0.0255101
v -0.005374832 -0.009927062 0.02539795
v -0.0001400757 -0.006181526 0.02844498
v 0.002783699 -0.005255203 0.02852798
v -0.003135795 -0.005521355 0.02838409
v -0.005400619 -0.003451691 0.02836197
v -0.009555168 -0.006107025 0.0253569
v -0.009838638 -0.006288185 0.02484054
v -0.008217049 -0.01208637 0.0198642
v -0.01260902 -0.002960205 0.02300446
v -0.007981796 -0.01020004 0.02300446
v -0.01008419 -0.00988369 0.01700912
v -0.007981071 -0.009901542 0.01943253
v -0.01212185 -0.007747459 0.01611862
v -0.007972755 -0.0083638 0.02170883
v -0.00902256 -0.005766601 0.02284073
v -0.01321976 -0.005010605 0.01700851
v -0.01093876 -0.003723145 0.02170883
v -0.0123378 -0.003084908 0.01943253
v 0.0003557205 0.01319794 -0.02783981
v -0.00594368 0.01117836 -0.02487274
v -0.005869446 0.01122578 -0.02801666
v 0.0002814865 0.01315048 -0.02469589
v 0.006733894 0.01179241 -0.02771057
v -0.004731865 0.009059944 -0.02059906
v 0.00665966 0.01174499 -0.02456665
v 0.01155605 0.007385864 -0.02766312
v 0.0002908707 0.01065117 -0.02045639
v -0.00431633 0.008187409 -0.01632523
v 0.01148182 0.007338409 -0.02451935
v 0.01353008 0.001158943 -0.02771057
v 0.000233345 0.009628753 -0.01619614
v -0.004861946 0.008796845 -0.0116304
v 0.00543705 0.009517135 -0.02035202
v 0.01345585 0.001111527 -0.02456665
v 0.01212708 -0.005219726 -0.02783981
v 8.598327E-05 0.01036434 -0.01148987
v -0.005990257 0.01033142 -0.007195435
v 0.004894867 0.008601493 -0.01610153
v 0.009327774 0.005961723 -0.02031387
v 0.01205284 -0.005267181 -0.02469589
v 0.007722931 -0.01004116 -0.02801666
v 0.007648735 -0.01008858 -0.02487274
v -0.0001047516 0.01219597 -0.007028198
v -0.008068352 0.01316299 0.0008747863
v 0.01092052 0.0009375763 -0.02035202
v 0.009788513 -0.004209061 -0.02045639
v 0.006235084 -0.008099136 -0.02059906
v 0.008419151 0.005380974 -0.01606689
v 0.005155563 0.009247169 -0.01138702
v -0.0004538727 0.01557526 0.001091003
v -0.009240036 0.01445713 0.01123535
v 0.008836479 -0.003831863 -0.01619614
v 0.005617714 -0.007355614 -0.01632523
v 0.00986187 0.00083004 -0.01610153
v 0.005925445 0.01086716 -0.006905975
v 0.008988342 0.005744743 -0.01134949
v -0.0007763671 0.01713844 0.01147568
v -0.008081589 0.01215446 0.02065521
v 0.009442215 -0.004274559 -0.01148987
v 0.005941696 -0.008106727 -0.0116304
v 0.01055733 0.0007954406 -0.01138702
v 0.007347755 0.01385609 0.001249084
v 0.0104845 0.006701012 -0.006861267
v -0.0008827591 0.01443504 0.02085953
v -0.006232262 0.009000396 0.02566345
v 0.01102436 -0.005216827 -0.007028198
v 0.006860542 -0.009775162 -0.007195435
v 0.01235085 0.0008138656 -0.006905975
v 0.01324612 0.008466034 0.001307068
v 0.007895317 0.01522751 0.01165146
v 0.01394459 -0.006952858 0.001091003
v 0.008557549 -0.01285027 0.0008747863
v 0.01566071 0.0008494568 0.001249084
v 0.01713531 0.0007704162 0.01165146
v 0.01522781 -0.007902031 0.01147568
v 0.009240036 -0.01445713 0.01123535
v 0.01445145 0.009236412 0.01171585
v 0.01272968 -0.00686325 0.02085953
v 0.007636757 -0.01243874 0.02065521
v 0.01435215 0.0005131149 0.02100922
v 0.009368896 -0.005256195 0.02581665
v 0.005550957 -0.009435845 0.02566345
v 0.002783699 -0.005255203 0.02852798
v 0.01058517 0.0002734756 0.0259288
v 0.004852257 -0.002990761 0.02861099
v -0.0004330826 -0.0002767944 0.02957809
v 0.005511208 5.187988E-06 0.02867187
v 0.0104583 0.01164257 0.01676147
v 0.01343105 0.008584252 0.01557281
v 0.006492996 0.01280972 0.02100922
v -0.0008356857 0.01071007 0.02581665
v 0.004693527 0.009491653 0.0259288
v -0.0006764984 0.005659638 0.02861099
v -0.003600273 0.004733352 0.02852798
v 0.002319221 0.004999466 0.02867187
v 0.004584045 0.00292984 0.028694
v 0.008873863 0.005671578 0.02596985
v 0.01171886 0.002391319 0.02365967
v 0.007792129 0.01181477 0.02060272
v 0.009181252 0.005868072 0.02547302
v 0.01399483 0.002109947 0.02060272
v 0.007410316 0.009834823 0.0236702
v 0.01492741 0.004605217 0.01676712
v 0.01187241 0.007588043 0.0169165
v 0.01292904 0.004824829 0.01777451
v 0.009793472 0.009697914 0.01777389
v 0.01193508 0.00282753 0.02009491
v 0.007578316 0.009644165 0.02009491
v 0.01042973 0.003397827 0.02232101
v 0.007463722 0.008038483 0.02232101
v 0.008460808 0.0054076 0.02342194
v -0.01321976 -0.005010605 0.01700851
v 0.01187241 0.007588043 0.0169165
v -0.01212185 -0.007747459 0.01611862
v 0.009793472 0.009697914 0.01777389
v -0.0123378 -0.003084908 0.01943253
v 0.007578316 0.009644165 0.02009491
v -0.01093876 -0.003723145 0.02170883
v 0.007463722 0.008038483 0.02232101
v -0.00902256 -0.005766601 0.02284073
v 0.008460808 0.0054076 0.02342194
v -0.007972755 -0.0083638 0.02170883
v 0.01042973 0.003397827 0.02232101
v -0.007981071 -0.009901542 0.01943253
v 0.01193508 0.00282753 0.02009491
v -0.01008419 -0.00988369 0.01700912
v 0.01292904 0.004824829 0.01777451
v -0.01212185 -0.007747459 0.01611862
v 0.01187241 0.007588043 0.0169165
v -0.00970253 -0.00620121 -0.02837006
v -0.006401252 -0.004091263 -0.02826034
v -0.007762184 0.0002016449 -0.02822769
v -0.0116766 2.567291E-05 -0.0283226
v -0.004880371 -0.0106078 -0.0283226
v -0.00679493 0.004599266 -0.02813843
v -0.01027355 0.006404381 -0.02819321
v -0.003076782 -0.007129211 -0.02822769
v 0.001497765 -0.01201328 -0.02819321
v -0.003758659 0.007923203 -0.02801666
v -0.005869446 0.01122578 -0.02801666
v 0.001320419 -0.00809822 -0.02813843
v 0.007722931 -0.01004116 -0.02801666
v 0.0005330658 0.009282837 -0.02789474
v 0.0003557205 0.01319794 -0.02783981
v 0.005612182 -0.006738586 -0.02801666
v 0.01212708 -0.005219726 -0.02783981
v 0.004930305 0.008313865 -0.02780548
v 0.006733894 0.01179241 -0.02771057
v 0.008648452 -0.003414612 -0.02789474
v 0.01353008 0.001158943 -0.02771057
v 0.008254776 0.005275917 -0.02777283
v 0.01155605 0.007385864 -0.02766312
v 0.009615707 0.0009830093 -0.02780548
v 0.0005641937 0.009302749 -0.02921249
v 0.004961395 0.00833374 -0.02912338
v 0.008285865 0.005295792 -0.02909073
v 0.009646797 0.001002884 -0.02912338
v 0.0009578704 0.0006122207 -0.02933441
v -0.003727569 0.007943115 -0.02933441
v 0.008679543 -0.003394737 -0.02921249
v 0.005643272 -0.006718674 -0.02933441
v -0.00676384 0.004619141 -0.02945633
v 0.001351547 -0.008078308 -0.02945633
v -0.007731094 0.0002215576 -0.02954544
v -0.003045692 -0.007109337 -0.02954544
v -0.006370163 -0.00407135 -0.02957809
vt 0.8924315 0.0810193
vt 0.8841043 0.0936501
vt 0.8907754 0.09461558
vt 0.8857689 0.08035424
vt 0.8931069 0.06760544
vt 0.8744979 0.09058362
vt 0.8863814 0.06736267
vt 0.8932273 0.05421625
vt 0.8755009 0.07912317
vt 0.8660882 0.08980224
vt 0.8864856 0.05434774
vt 0.8928642 0.04072081
vt 0.8660753 0.07899445
vt 0.8565435 0.09235764
vt 0.8758285 0.0669681
vt 0.8861566 0.04126043
vt 0.8916967 0.02706237
vt 0.8556337 0.08067444
vt 0.8460965 0.09690619
vt 0.8661973 0.06713882
vt 0.8758709 0.05451074
vt 0.8851271 0.02808395
vt 0.8892689 0.01341908
vt 0.8826945 0.01464984
vt 0.8450227 0.08332029
vt 0.8246748 0.1040955
vt 0.8755937 0.04203784
vt 0.8748136 0.02984832
vt 0.8729806 0.018309
vt 0.8662331 0.05478337
vt 0.8557134 0.06806926
vt 0.8255217 0.08720699
vt 0.7970879 0.1040932
vt 0.8655481 0.03063141
vt 0.8647916 0.01985021
vt 0.8660297 0.04244597
vt 0.8453727 0.06930205
vt 0.8558483 0.05503565
vt 0.8024194 0.08699536
vt 0.7740364 0.09316474
vt 0.855516 0.02959028
vt 0.8559015 0.01810123
vt 0.8557286 0.04205236
vt 0.8271608 0.07089512
vt 0.8457103 0.05510166
vt 0.782136 0.08075669
vt 0.7627401 0.0812645
vt 0.845439 0.02720168
vt 0.8464847 0.01406381
vt 0.8456135 0.04097761
vt 0.8280764 0.05479394
vt 0.8061981 0.07053076
vt 0.8270962 0.02266771
vt 0.82743 0.006406903
vt 0.8278675 0.03874536
vt 0.8072581 0.03772184
vt 0.8048384 0.0209865
vt 0.8016996 0.003417969
vt 0.8078938 0.05425268
vt 0.7843945 0.02497375
vt 0.7777519 0.01097386
vt 0.7882679 0.0391698
vt 0.772481 0.03109474
vt 0.7761891 0.04146317
vt 0.7649293 0.0217452
vt 0.7574697 0.0355259
vt 0.7624426 0.03939836
vt 0.753418 0.05126983
vt 0.7893217 0.0421297
vt 0.765269 0.04530349
vt 0.8002806 0.05389729
vt 0.7977414 0.04594381
vt 0.7972145 0.06160837
vt 0.7871163 0.06751058
vt 0.7705059 0.07349372
vt 0.7751546 0.06373078
vt 0.7611022 0.06415406
vt 0.7555935 0.06754148
vt 0.7645807 0.05864455
vt 0.7659569 0.05203892
vt 0.7768698 0.05268553
vt 0.7780125 0.05275218
vt 0.7884123 0.06461892
vt 0.782337 0.04450931
vt 0.7815826 0.06145035
vt 0.7939229 0.05895317
vt 0.7882011 0.06062998
vt 0.7960703 0.05369836
vt 0.78404 0.05804385
vt 0.7821379 0.05298737
vt 0.7943196 0.04825376
vt 0.7845101 0.04817083
vt 0.7888007 0.04603291
vt 0.8924494 0.1852053
vt 0.8841496 0.197859
vt 0.8908238 0.1988078
vt 0.8857846 0.1845573
vt 0.8930964 0.1717835
vt 0.8745325 0.1948175
vt 0.8863702 0.1715591
vt 0.8931866 0.1583852
vt 0.8755114 0.1833532
vt 0.8661132 0.1940591
vt 0.8864455 0.1585366
vt 0.8927884 0.1448816
vt 0.8660808 0.1832497
vt 0.8565607 0.19664
vt 0.8758152 0.1711933
vt 0.8860831 0.1454424
vt 0.8915801 0.1312197
vt 0.8556352 0.1849563
vt 0.8461049 0.2012122
vt 0.8661828 0.1713899
vt 0.8758316 0.15873
vt 0.8850143 0.1322631
vt 0.8891065 0.1175821
vt 0.8825369 0.118835
vt 0.8450201 0.1876253
vt 0.8246624 0.2084293
vt 0.875524 0.1462515
vt 0.8747087 0.1340592
vt 0.8728373 0.1225242
vt 0.8661957 0.1590291
vt 0.8556981 0.1723472
vt 0.8255098 0.1915401
vt 0.7970572 0.2084324
vt 0.8654506 0.1348677
vt 0.8646574 0.1240869
vt 0.8659651 0.1466861
vt 0.8453565 0.1736033
vt 0.855814 0.1593081
vt 0.802398 0.191336
vt 0.7740159 0.1975144
vt 0.8554232 0.1338513
vt 0.8557677 0.1223579
vt 0.8556695 0.1463189
vt 0.8271399 0.1752273
vt 0.8456798 0.1593972
vt 0.7821302 0.1851122
vt 0.7627268 0.1856331
vt 0.8453488 0.1314865
vt 0.846344 0.1183415
vt 0.8455606 0.1452682
vt 0.8280528 0.1591195
vt 0.8061626 0.1748723
vt 0.8270102 0.1269961
vt 0.8272781 0.1107334
vt 0.8278251 0.1430714
vt 0.8072183 0.1420655
vt 0.8047686 0.1253772
vt 0.8015656 0.1078271
vt 0.8078854 0.1585971
vt 0.7843876 0.1294821
vt 0.7776897 0.1154597
vt 0.7881966 0.1435026
vt 0.7723882 0.1354669
vt 0.7648661 0.1261487
vt 0.7574458 0.1399575
vt 0.77631 0.1460667
vt 0.7624273 0.1438275
vt 0.753418 0.1556914
vt 0.7652915 0.1497505
vt 0.7971594 0.1659434
vt 0.800303 0.158227
vt 0.7870922 0.1718316
vt 0.7705007 0.1778791
vt 0.7751422 0.1681316
vt 0.7610986 0.1685585
vt 0.7555902 0.1719383
vt 0.7645752 0.1630589
vt 0.7659559 0.1564664
vt 0.7768683 0.15713
vt 0.782042 0.1489027
vt 0.7883854 0.1689265
vt 0.7780061 0.1571981
vt 0.7892809 0.1464616
vt 0.7815533 0.1658259
vt 0.7976918 0.1502571
vt 0.7961395 0.1580169
vt 0.7942376 0.1525607
vt 0.7938333 0.1632686
vt 0.7886755 0.1503622
vt 0.7881918 0.1648951
vt 0.7842519 0.1523724
vt 0.783963 0.162395
vt 0.7821133 0.1573092
vt 0.8481457 0.2104204
vt 0.8957253 0.2052631
vt 0.8471684 0.2052619
vt 0.8947175 0.2104216
vt 0.8512945 0.2149136
vt 0.8915987 0.2149146
vt 0.8528261 0.2193387
vt 0.8900669 0.2193395
vt 0.853756 0.2244037
vt 0.8891368 0.2244046
vt 0.8528256 0.2294688
vt 0.8900666 0.2294697
vt 0.851294 0.2338938
vt 0.8915982 0.2338947
vt 0.8481753 0.2383868
vt 0.8947468 0.2383879
vt 0.8471675 0.2435452
vt 0.8957243 0.2435464
vt 0.8999312 0.03961416
vt 0.907876 0.03750563
vt 0.907866 0.02705994
vt 0.8999314 0.02491354
vt 0.9072814 0.05234537
vt 0.9130802 0.01800869
vt 0.9072819 0.01218246
vt 0.9131076 0.04654682
vt 0.9200125 0.05969575
vt 0.9221215 0.01277713
vt 0.920013 0.004832216
vt 0.922159 0.05176094
vt 0.9347131 0.05969587
vt 0.9325671 0.01276706
vt 0.9347136 0.004832298
vt 0.9326048 0.0517509
vt 0.9474444 0.0523456
vt 0.9416184 0.01798118
vt 0.9474447 0.0121827
vt 0.9416459 0.0465194
vt 0.9547949 0.03961455
vt 0.9468498 0.0270224
vt 0.9547949 0.02491388
vt 0.9468598 0.0374681
vt 0.9319043 0.01531506
vt 0.9397705 0.01985651
vt 0.9443121 0.02772254
vt 0.9443121 0.0368054
vt 0.9273629 0.03226403
vt 0.9228215 0.01531507
vt 0.9397707 0.04467148
vt 0.9319046 0.04921302
vt 0.9149556 0.01985653
vt 0.9228215 0.04921302
vt 0.910414 0.02772259
vt 0.9149556 0.04467157
vt 0.910414 0.03680552
vn 0.04525045 -0.9988776 -0.01400007
vn 0.2834672 -0.9192693 0.2731124
vn 0.3021687 -0.953227 -0.007249506
vn 0.03648997 -0.9605422 0.2757301
vn -0.4601665 -0.8875013 -0.02425278
vn 0.2710409 -0.8886867 0.3698281
vn -0.447316 -0.8539282 0.265923
vn -0.842267 -0.5383329 -0.02800176
vn 0.03254687 -0.9264771 0.3749413
vn 0.3017151 -0.9533395 0.01057452
vn -0.813092 -0.5196804 0.2623239
vn -0.9986964 -0.04491587 -0.02425151
vn 0.04480573 -0.9989858 0.00444326
vn 0.2962153 -0.9086386 -0.2943339
vn -0.4332643 -0.8238287 0.3654971
vn -0.962831 -0.04734786 0.2659226
vn -0.8875108 0.460574 -0.01400711
vn 0.0502165 -0.9494028 -0.3100203
vn 0.2879317 -0.8737265 -0.3920426
vn -0.4605222 -0.8876293 -0.005797991
vn -0.785442 -0.502 0.3620452
vn -0.8564066 0.4365113 0.2757274
vn -0.7381574 0.6745896 -0.007249691
vn -0.7152227 0.6433249 0.273111
vn 0.05090147 -0.9108027 -0.409692
vn 0.2985523 -0.9194601 -0.2558506
vn -0.9296122 -0.04723574 0.3654997
vn -0.8271477 0.4186197 0.3749458
vn -0.6927 0.619189 0.3698265
vn -0.8425683 -0.5385047 -0.009548204
vn -0.4324241 -0.843048 -0.3198118
vn 0.04979507 -0.9614115 -0.2705705
vn 0.3011236 -0.9531346 0.02930829
vn -0.887804 0.4602002 0.004444415
vn -0.7384792 0.6741934 0.01057368
vn -0.9989622 -0.04517685 -0.00579698
vn -0.4129764 -0.8085788 -0.4191071
vn -0.7973277 -0.5095917 -0.3233957
vn 0.04432283 -0.9987327 0.02384108
vn 0.2738609 -0.895833 0.3499764
vn -0.8405352 0.4442838 -0.3100204
vn -0.7002226 0.6504291 -0.2943302
vn -0.9467036 -0.03840645 -0.319808
vn -0.4386199 -0.8537829 -0.280477
vn -0.7636847 -0.4880949 -0.4225506
vn 0.03339554 -0.9344096 0.3546312
vn 0.2053658 -0.7087772 0.6748775
vn -0.8052126 0.4286998 -0.409694
vn -0.6720194 0.6282449 -0.3920438
vn -0.9072543 -0.03522517 -0.4191049
vn -0.8078814 -0.5163456 -0.2841038
vn -0.415698 -0.9089573 -0.03149154
vn -0.8516095 0.4489471 -0.2705695
vn -0.7090711 0.6570839 -0.2558497
vn -0.9590473 -0.03951321 -0.2804762
vn -0.9995009 0.00436867 -0.0312865
vn -0.8877799 0.4596502 0.02384313
vn -0.7385539 0.6735569 0.02930914
vn -0.8384354 -0.5356194 -0.1006877
vn -0.8339955 0.4227177 0.3546287
vn -0.6979991 0.6247517 0.3499753
vn -0.9309793 0.119484 0.3449655
vn -0.6561809 0.3215442 0.6826683
vn -0.702073 0.03702519 0.7111419
vn -0.556999 0.4840238 0.6748874
vn -0.349553 0.2865684 0.8920153
vn -0.4052312 0.1856224 0.8951715
vn -0.1222797 -0.07815768 0.9894135
vn -0.8612853 -0.3660028 0.3524624
vn -0.4533261 -0.0330305 0.8907325
vn -0.8138072 -0.5187729 0.2619015
vn -0.8973067 -0.3365183 0.2856504
vn -0.6819674 -0.6734993 0.2851649
vn -0.2817865 -0.8952827 0.3450585
vn 0.01625487 -0.7305536 0.682662
vn -0.2612324 -0.6527193 0.7111365
vn -0.001716642 -0.4457239 0.8951689
vn 0.1132969 -0.437595 0.8920059
vn -0.2203518 -0.3975513 0.890729
vn -0.3856453 -0.2465008 0.8891091
vn -0.5175924 -0.3308198 0.7890858
vn -0.7936662 -0.5072454 0.3358512
vn -0.6923636 -0.6285957 0.3542602
vn -0.792201 -0.4846068 0.3709094
vn -0.7724953 -0.5154458 0.3708998
vn -0.7239891 -0.07794727 0.6853932
vn -0.9489173 0.07107547 0.3074155
vn -0.5370818 -0.3417836 0.7711854
vn -0.9653299 -0.1125715 -0.235512
vn -0.7713695 -0.4930173 -0.4023966
vn -0.3777665 -0.6235657 0.68444
vn -0.5075554 -0.8288071 -0.2355127
vn -0.3358537 -0.8907503 0.3062124
vn -0.04524269 0.9988778 0.0140031
vn -0.2967038 0.9108149 0.2870244
vn -0.3021848 0.9532218 0.007247853
vn -0.05013765 0.9518154 0.3025455
vn 0.4601587 0.8875053 0.02425411
vn -0.2888235 0.8773198 0.3832637
vn 0.4336729 0.845199 0.3123563
vn 0.8422657 0.5383345 0.02801013
vn -0.0508593 0.914766 0.40077
vn -0.3025537 0.9528025 0.02507252
vn 0.7994412 0.5109503 0.3159486
vn 0.9986967 0.04490355 0.02425966
vn -0.04566634 0.9984294 0.03245489
vn -0.2826406 0.9173144 -0.2804438
vn 0.414958 0.8121152 0.4102179
vn 0.9491786 0.03862693 0.3123586
vn 0.8875186 -0.460559 0.01400127
vn -0.03619691 0.9583567 -0.2832707
vn -0.269725 0.8853571 -0.3786702
vn 0.4596435 0.8870764 0.0426982
vn 0.7671257 0.4902982 0.4136737
vn 0.8427559 -0.4452275 0.3025476
vn 0.7381769 -0.6745683 0.007242365
vn 0.7019995 -0.6517776 0.2870237
vn -0.03216145 0.9227785 -0.3839862
vn -0.2867954 0.9269725 -0.2418062
vn 0.9112954 0.03553954 0.4102165
vn 0.8088296 -0.4303223 0.4007711
vn 0.6749092 -0.63056 0.3832646
vn 0.8416911 0.5379577 0.04644965
vn 0.4464301 0.8520014 -0.2734843
vn -0.03765939 0.9691699 -0.2434987
vn -0.3028493 0.9520316 0.0437974
vn 0.8869378 -0.4607477 0.03244765
vn 0.7376505 -0.6747175 0.02506221
vn 0.9980913 0.04461686 0.04269752
vn 0.4317118 0.820559 -0.3745766
vn 0.811334 0.5185459 -0.2699026
vn -0.04611127 0.9975905 0.05183582
vn -0.2907126 0.8850657 0.3635174
vn 0.8545431 -0.4353303 -0.283273
vn 0.7138022 -0.6417463 -0.2804427
vn 0.9607104 0.04734733 -0.2734845
vn 0.4507567 0.861541 -0.2335925
vn 0.782425 0.5000717 -0.3711325
vn -0.05076022 0.9233145 0.3806754
vn -0.2374971 0.6882554 0.6854922
vn 0.8239546 -0.4167178 -0.3839857
vn 0.6902236 -0.6166068 -0.3786653
vn 0.9259931 0.04719848 -0.3745786
vn 0.8200217 0.5240996 -0.2299652
vn 0.4160782 0.9091953 0.01558033
vn 0.8637483 -0.4411877 -0.2435004
vn 0.7208216 -0.6495727 -0.2418085
vn 0.9711843 0.04726858 -0.2335953
vn 0.9998668 -0.004137647 0.01578737
vn 0.8859921 -0.4607942 0.05183581
vn 0.7368271 -0.6746613 0.04379564
vn 0.8418756 0.5378076 -0.04481694
vn 0.8166299 -0.433823 0.3806745
vn 0.6811496 -0.6355234 0.3635178
vn 0.9139602 -0.1247951 0.3861386
vn 0.6234593 -0.3424831 0.702854
vn 0.5248691 -0.5045909 0.6854929
vn 0.3072626 -0.3136092 0.8984648
vn 0.6705196 -0.05598247 0.7397766
vn 0.3626649 -0.212834 0.9072903
vn 0.07538702 0.04818161 0.9959896
vn 0.4107567 0.005831283 0.9117264
vn 0.667278 0.6641041 0.3372029
vn 0.8001779 0.5100537 0.3155321
vn 0.2645615 0.8842646 0.3848161
vn -0.04898057 0.7096477 0.7028521
vn 0.226927 0.6307833 0.7420353
vn -0.04086047 0.4185239 0.9072862
vn -0.1555755 0.4105643 0.8984616
vn 0.1777872 0.3703425 0.9117227
vn 0.3430949 0.2192868 0.9133451
vn 0.4879902 0.3098643 0.8159962
vn 0.7661228 0.4851186 0.4215637
vn 0.6744405 0.6171252 0.4053227
vn 0.7942156 0.4856907 0.3651385
vn 0.8354418 0.3649872 0.4108788
vn 0.7537836 0.503445 0.4223192
vn 0.882592 0.3271037 0.3376902
vn 0.4998331 0.3179845 0.8056381
vn 0.3446255 0.6023468 0.7200081
vn 0.6907729 0.05675214 0.7208412
vn 0.3330522 0.8577119 0.3916714
vn 0.9334119 -0.08093591 0.3495594
vn 0.5718631 0.8125868 -0.1125847
vn 0.9752815 0.1189346 -0.1862268
vn 0.8189422 0.4764097 -0.3199491
vn 0.2543612 -0.4427321 0.859819
vn 0.1329716 -0.2578657 0.9569868
vn 0.1329716 -0.2578657 0.9569868
vn 0.2544897 -0.442926 0.8596812
vn 0.5300082 -0.8364937 0.1391747
vn 0.530055 -0.8365424 0.1387033
vn 0.3881014 -0.5694902 -0.724609
vn 0.3881001 -0.5694882 -0.7246113
vn 0.02360262 0.01511009 -0.9996073
vn 0.02360247 0.01511032 -0.9996073
vn -0.3538701 0.5913854 -0.724596
vn -0.353869 0.5913838 -0.7245978
vn -0.5365995 0.8323574 0.1387157
vn -0.5365756 0.8322957 0.1391781
vn -0.2950891 0.4169958 0.8596726
vn -0.2949683 0.4167997 0.8598092
vn -0.1781817 0.2290302 0.9569725
vn -0.1781817 0.2290302 0.9569725
vn 0.02357739 0.01508277 -0.9996082
vn -0.1699536 -0.1086057 -0.9794492
vn -0.2057998 0.004425936 -0.9785841
vn 0.02356726 0.01511012 -0.9996081
vn 0.02359351 0.01502297 -0.9996088
vn -0.1803386 0.1201698 -0.9762363
vn 0.02356998 0.01509193 -0.9996083
vn -0.08242685 -0.1886338 -0.9785822
vn 0.02359106 0.01504126 -0.9996086
vn -0.1003848 0.2076712 -0.9730343
vn 0.02359449 0.01508744 -0.9996077
vn 0.03332699 -0.2141296 -0.9762366
vn 0.02359889 0.01509196 -0.9996076
vn 0.01261255 0.2434703 -0.9698263
vn 0.02360323 0.01510394 -0.9996074
vn 0.1463175 -0.1782917 -0.9730382
vn 0.02359969 0.01506459 -0.999608
vn 0.1283645 0.2179346 -0.9674849
vn 0.02358872 0.01507197 -0.9996082
vn 0.2262502 -0.09080762 -0.9698272
vn 0.02357596 0.01505552 -0.9996087
vn 0.2158796 0.1379606 -0.9666245
vn 0.02357747 0.01505548 -0.9996087
vn 0.2517031 0.02494755 -0.9674829
vn 0.006715006 0.3555479 -0.9346339
vn 0.1794478 0.3174727 -0.9311335
vn 0.3100554 0.1981592 -0.9298379
vn 0.3635042 0.0295455 -0.9311239
vn 0.02360222 0.01508404 -0.9996076
vn -0.1618641 0.3021263 -0.9394251
vn 0.3255071 -0.1432119 -0.9346312
vn 0.2062406 -0.2737858 -0.939418
vn -0.281141 0.1715591 -0.9442073
vn 0.03764322 -0.3271805 -0.9442118
vn -0.3191388 -0.001151083 -0.9477074
vn -0.1350912 -0.2891257 -0.9477113
vn -0.2656633 -0.1697897 -0.9489966
usemtl Mat_Tools
f 1/1/1 3/3/3 2/2/2 
f 1/1/1 2/2/2 4/4/4 
f 5/5/5 1/1/1 4/4/4 
f 4/4/4 2/2/2 6/6/6 
f 5/5/5 4/4/4 7/7/7 
f 8/8/8 5/5/5 7/7/7 
f 4/4/4 6/6/6 9/9/9 
f 7/7/7 4/4/4 9/9/9 
f 9/9/9 6/6/6 10/10/10 
f 8/8/8 7/7/7 11/11/11 
f 12/12/12 8/8/8 11/11/11 
f 9/9/9 10/10/10 13/13/13 
f 13/13/13 10/10/10 14/14/14 
f 7/7/7 9/9/9 15/15/15 
f 11/11/11 7/7/7 15/15/15 
f 15/15/15 9/9/9 13/13/13 
f 12/12/12 11/11/11 16/16/16 
f 17/17/17 12/12/12 16/16/16 
f 13/13/13 14/14/14 18/18/18 
f 18/18/18 14/14/14 19/19/19 
f 15/15/15 13/13/13 20/20/20 
f 20/20/20 13/13/13 18/18/18 
f 11/11/11 15/15/15 21/21/21 
f 16/16/16 11/11/11 21/21/21 
f 21/21/21 15/15/15 20/20/20 
f 17/17/17 16/16/16 22/22/22 
f 23/23/23 17/17/17 22/22/22 
f 23/23/23 22/22/22 24/24/24 
f 18/18/18 19/19/19 25/25/25 
f 25/25/25 19/19/19 26/26/26 
f 16/16/16 21/21/21 27/27/27 
f 22/22/22 16/16/16 27/27/27 
f 24/24/24 22/22/22 28/28/28 
f 22/22/22 27/27/27 28/28/28 
f 24/24/24 28/28/28 29/29/29 
f 21/21/21 20/20/20 30/30/30 
f 27/27/27 21/21/21 30/30/30 
f 20/20/20 18/18/18 31/31/31 
f 31/31/31 18/18/18 25/25/25 
f 30/30/30 20/20/20 31/31/31 
f 25/25/25 26/26/26 32/32/32 
f 32/32/32 26/26/26 33/33/33 
f 29/29/29 28/28/28 34/34/34 
f 29/29/29 34/34/34 35/35/35 
f 28/28/28 27/27/27 36/36/36 
f 27/27/27 30/30/30 36/36/36 
f 28/28/28 36/36/36 34/34/34 
f 31/31/31 25/25/25 37/37/37 
f 37/37/37 25/25/25 32/32/32 
f 30/30/30 31/31/31 38/38/38 
f 36/36/36 30/30/30 38/38/38 
f 38/38/38 31/31/31 37/37/37 
f 32/32/32 33/33/33 39/39/39 
f 39/39/39 33/33/33 40/40/40 
f 35/35/35 34/34/34 41/41/41 
f 35/35/35 41/41/41 42/42/42 
f 34/34/34 36/36/36 43/43/43 
f 36/36/36 38/38/38 43/43/43 
f 34/34/34 43/43/43 41/41/41 
f 37/37/37 32/32/32 44/44/44 
f 44/44/44 32/32/32 39/39/39 
f 38/38/38 37/37/37 45/45/45 
f 43/43/43 38/38/38 45/45/45 
f 45/45/45 37/37/37 44/44/44 
f 39/39/39 40/40/40 46/46/46 
f 47/47/47 46/46/46 40/40/40 
f 42/42/42 41/41/41 48/48/48 
f 42/42/42 48/48/48 49/49/49 
f 41/41/41 43/43/43 50/50/50 
f 43/43/43 45/45/45 50/50/50 
f 41/41/41 50/50/50 48/48/48 
f 45/45/45 44/44/44 51/51/51 
f 50/50/50 45/45/45 51/51/51 
f 44/44/44 39/39/39 52/52/52 
f 52/52/52 39/39/39 46/46/46 
f 51/51/51 44/44/44 52/52/52 
f 49/49/49 48/48/48 53/53/53 
f 49/49/49 53/53/53 54/54/54 
f 48/48/48 50/50/50 55/55/55 
f 50/50/50 51/51/51 55/55/55 
f 48/48/48 55/55/55 53/53/53 
f 53/53/53 55/55/55 56/56/56 
f 54/54/54 53/53/53 57/57/57 
f 53/53/53 56/56/56 57/57/57 
f 54/54/54 57/57/57 58/58/58 
f 55/55/55 51/51/51 59/59/59 
f 51/51/51 52/52/52 59/59/59 
f 55/55/55 59/59/59 56/56/56 
f 58/58/58 57/57/57 60/60/60 
f 58/58/58 60/60/60 61/61/61 
f 57/57/57 62/62/62 60/60/60 
f 57/57/57 56/56/56 62/62/62 
f 63/63/63 61/61/61 60/60/60 
f 62/62/62 63/63/63 60/60/60 
f 62/62/62 64/64/64 63/63/63 
f 63/63/63 65/65/65 61/61/61 
f 66/66/66 65/65/65 63/63/63 
f 66/66/66 63/63/63 67/67/67 
f 67/67/67 63/63/63 64/64/64 
f 68/68/68 66/66/66 67/67/67 
f 56/56/56 69/69/69 62/62/62 
f 64/64/64 62/62/62 69/69/69 
f 68/68/68 67/67/67 70/70/70 
f 67/67/67 64/64/64 70/70/70 
f 56/56/56 59/59/59 71/71/71 
f 56/56/56 72/72/72 69/69/69 
f 56/56/56 71/71/71 72/72/72 
f 59/59/59 73/73/73 71/71/71 
f 59/59/59 52/52/52 73/73/73 
f 73/73/73 52/52/52 74/74/74 
f 52/52/52 46/46/46 74/74/74 
f 75/75/75 74/74/74 46/46/46 
f 75/75/75 76/76/76 74/74/74 
f 47/47/47 75/75/75 46/46/46 
f 77/77/77 75/75/75 47/47/47 
f 77/77/77 47/47/47 78/78/78 
f 68/68/68 77/77/77 78/78/78 
f 79/79/79 75/75/75 77/77/77 
f 68/68/68 79/79/79 77/77/77 
f 79/79/79 76/76/76 75/75/75 
f 79/79/79 68/68/68 80/80/80 
f 76/76/76 79/79/79 80/80/80 
f 68/68/68 70/70/70 80/80/80 
f 70/70/70 81/81/81 80/80/80 
f 76/76/76 80/80/80 81/81/81 
f 70/70/70 64/64/64 81/81/81 
f 64/64/64 82/82/82 81/81/81 
f 76/76/76 81/81/81 82/82/82 
f 76/76/76 83/83/83 74/74/74 
f 73/73/73 74/74/74 83/83/83 
f 64/64/64 84/84/84 82/82/82 
f 64/64/64 69/69/69 84/84/84 
f 76/76/76 82/82/82 85/85/85 
f 76/76/76 85/85/85 83/83/83 
f 83/83/83 86/86/86 73/73/73 
f 83/83/83 87/87/87 86/86/86 
f 87/87/87 83/83/83 85/85/85 
f 88/88/88 73/73/73 86/86/86 
f 87/87/87 85/85/85 89/89/89 
f 89/89/89 85/85/85 82/82/82 
f 88/88/88 71/71/71 73/73/73 
f 89/89/89 82/82/82 90/90/90 
f 90/90/90 82/82/82 84/84/84 
f 91/91/91 71/71/71 88/88/88 
f 90/90/90 84/84/84 92/92/92 
f 92/92/92 84/84/84 69/69/69 
f 91/91/91 72/72/72 71/71/71 
f 92/92/92 69/69/69 93/93/93 
f 93/93/93 72/72/72 91/91/91 
f 93/93/93 69/69/69 72/72/72 
f 94/94/94 96/96/96 95/95/95 
f 94/94/94 95/95/95 97/97/97 
f 98/98/98 94/94/94 97/97/97 
f 97/97/97 95/95/95 99/99/99 
f 98/98/98 97/97/97 100/100/100 
f 101/101/101 98/98/98 100/100/100 
f 97/97/97 99/99/99 102/102/102 
f 100/100/100 97/97/97 102/102/102 
f 102/102/102 99/99/99 103/103/103 
f 101/101/101 100/100/100 104/104/104 
f 105/105/105 101/101/101 104/104/104 
f 102/102/102 103/103/103 106/106/106 
f 106/106/106 103/103/103 107/107/107 
f 100/100/100 102/102/102 108/108/108 
f 104/104/104 100/100/100 108/108/108 
f 108/108/108 102/102/102 106/106/106 
f 105/105/105 104/104/104 109/109/109 
f 110/110/110 105/105/105 109/109/109 
f 106/106/106 107/107/107 111/111/111 
f 111/111/111 107/107/107 112/112/112 
f 108/108/108 106/106/106 113/113/113 
f 113/113/113 106/106/106 111/111/111 
f 104/104/104 108/108/108 114/114/114 
f 109/109/109 104/104/104 114/114/114 
f 114/114/114 108/108/108 113/113/113 
f 110/110/110 109/109/109 115/115/115 
f 116/116/116 110/110/110 115/115/115 
f 116/116/116 115/115/115 117/117/117 
f 111/111/111 112/112/112 118/118/118 
f 118/118/118 112/112/112 119/119/119 
f 109/109/109 114/114/114 120/120/120 
f 115/115/115 109/109/109 120/120/120 
f 117/117/117 115/115/115 121/121/121 
f 115/115/115 120/120/120 121/121/121 
f 117/117/117 121/121/121 122/122/122 
f 114/114/114 113/113/113 123/123/123 
f 120/120/120 114/114/114 123/123/123 
f 113/113/113 111/111/111 124/124/124 
f 124/124/124 111/111/111 118/118/118 
f 123/123/123 113/113/113 124/124/124 
f 118/118/118 119/119/119 125/125/125 
f 125/125/125 119/119/119 126/126/126 
f 122/122/122 121/121/121 127/127/127 
f 122/122/122 127/127/127 128/128/128 
f 121/121/121 120/120/120 129/129/129 
f 120/120/120 123/123/123 129/129/129 
f 121/121/121 129/129/129 127/127/127 
f 124/124/124 118/118/118 130/130/130 
f 130/130/130 118/118/118 125/125/125 
f 123/123/123 124/124/124 131/131/131 
f 129/129/129 123/123/123 131/131/131 
f 131/131/131 124/124/124 130/130/130 
f 125/125/125 126/126/126 132/132/132 
f 132/132/132 126/126/126 133/133/133 
f 128/128/128 127/127/127 134/134/134 
f 128/128/128 134/134/134 135/135/135 
f 127/127/127 129/129/129 136/136/136 
f 129/129/129 131/131/131 136/136/136 
f 127/127/127 136/136/136 134/134/134 
f 130/130/130 125/125/125 137/137/137 
f 137/137/137 125/125/125 132/132/132 
f 131/131/131 130/130/130 138/138/138 
f 136/136/136 131/131/131 138/138/138 
f 138/138/138 130/130/130 137/137/137 
f 132/132/132 133/133/133 139/139/139 
f 140/140/140 139/139/139 133/133/133 
f 135/135/135 134/134/134 141/141/141 
f 135/135/135 141/141/141 142/142/142 
f 134/134/134 136/136/136 143/143/143 
f 136/136/136 138/138/138 143/143/143 
f 134/134/134 143/143/143 141/141/141 
f 138/138/138 137/137/137 144/144/144 
f 143/143/143 138/138/138 144/144/144 
f 137/137/137 132/132/132 145/145/145 
f 145/145/145 132/132/132 139/139/139 
f 144/144/144 137/137/137 145/145/145 
f 142/142/142 141/141/141 146/146/146 
f 142/142/142 146/146/146 147/147/147 
f 141/141/141 143/143/143 148/148/148 
f 143/143/143 144/144/144 148/148/148 
f 141/141/141 148/148/148 146/146/146 
f 146/146/146 148/148/148 149/149/149 
f 147/147/147 146/146/146 150/150/150 
f 146/146/146 149/149/149 150/150/150 
f 147/147/147 150/150/150 151/151/151 
f 148/148/148 144/144/144 152/152/152 
f 144/144/144 145/145/145 152/152/152 
f 148/148/148 152/152/152 149/149/149 
f 151/151/151 150/150/150 153/153/153 
f 151/151/151 153/153/153 154/154/154 
f 150/150/150 149/149/149 155/155/155 
f 150/150/150 155/155/155 153/153/153 
f 156/156/156 154/154/154 153/153/153 
f 156/156/156 157/157/157 154/154/154 
f 158/158/158 157/157/157 156/156/156 
f 159/159/159 156/156/156 153/153/153 
f 159/159/159 153/153/153 155/155/155 
f 158/158/158 156/156/156 160/160/160 
f 160/160/160 156/156/156 159/159/159 
f 161/161/161 158/158/158 160/160/160 
f 160/160/160 159/159/159 162/162/162 
f 161/161/161 160/160/160 162/162/162 
f 152/152/152 145/145/145 163/163/163 
f 149/149/149 152/152/152 164/164/164 
f 152/152/152 163/163/163 164/164/164 
f 163/163/163 145/145/145 165/165/165 
f 145/145/145 139/139/139 165/165/165 
f 166/166/166 165/165/165 139/139/139 
f 166/166/166 167/167/167 165/165/165 
f 140/140/140 166/166/166 139/139/139 
f 168/168/168 166/166/166 140/140/140 
f 168/168/168 140/140/140 169/169/169 
f 161/161/161 168/168/168 169/169/169 
f 170/170/170 166/166/166 168/168/168 
f 161/161/161 170/170/170 168/168/168 
f 170/170/170 167/167/167 166/166/166 
f 161/161/161 171/171/171 170/170/170 
f 171/171/171 167/167/167 170/170/170 
f 161/161/161 162/162/162 171/171/171 
f 162/162/162 172/172/172 171/171/171 
f 171/171/171 172/172/172 167/167/167 
f 162/162/162 159/159/159 172/172/172 
f 172/172/172 159/159/159 173/173/173 
f 173/173/173 159/159/159 155/155/155 
f 167/167/167 174/174/174 165/165/165 
f 163/163/163 165/165/165 174/174/174 
f 167/167/167 172/172/172 175/175/175 
f 172/172/172 173/173/173 175/175/175 
f 173/173/173 155/155/155 176/176/176 
f 149/149/149 176/176/176 155/155/155 
f 167/167/167 177/177/177 174/174/174 
f 167/167/167 175/175/175 177/177/177 
f 149/149/149 178/178/178 176/176/176 
f 149/149/149 164/164/164 178/178/178 
f 179/179/179 164/164/164 163/163/163 
f 180/180/180 164/164/164 179/179/179 
f 180/180/180 178/178/178 164/164/164 
f 179/179/179 163/163/163 181/181/181 
f 181/181/181 163/163/163 174/174/174 
f 182/182/182 178/178/178 180/180/180 
f 182/182/182 176/176/176 178/178/178 
f 181/181/181 174/174/174 183/183/183 
f 183/183/183 174/174/174 177/177/177 
f 184/184/184 176/176/176 182/182/182 
f 183/183/183 177/177/177 185/185/185 
f 175/175/175 185/185/185 177/177/177 
f 184/184/184 173/173/173 176/176/176 
f 175/175/175 186/186/186 185/185/185 
f 186/186/186 173/173/173 184/184/184 
f 186/186/186 175/175/175 173/173/173 
f 187/187/187 189/189/189 188/188/188 
f 187/187/187 188/188/188 190/190/190 
f 191/191/191 187/187/187 190/190/190 
f 191/191/191 190/190/190 192/192/192 
f 193/193/193 191/191/191 192/192/192 
f 193/193/193 192/192/192 194/194/194 
f 195/195/195 193/193/193 194/194/194 
f 195/195/195 194/194/194 196/196/196 
f 197/197/197 195/195/195 196/196/196 
f 197/197/197 196/196/196 198/198/198 
f 199/199/199 197/197/197 198/198/198 
f 199/199/199 198/198/198 200/200/200 
f 201/201/201 199/199/199 200/200/200 
f 201/201/201 200/200/200 202/202/202 
f 203/203/203 201/201/201 202/202/202 
f 203/203/203 202/202/202 204/204/204 
f 205/205/205 207/207/207 206/206/206 
f 205/205/205 208/208/208 207/207/207 
f 209/209/209 205/205/205 206/206/206 
f 208/208/208 210/210/210 207/207/207 
f 208/208/208 211/211/211 210/210/210 
f 209/209/209 206/206/206 212/212/212 
f 213/213/213 209/209/209 212/212/212 
f 211/211/211 214/214/214 210/210/210 
f 211/211/211 215/215/215 214/214/214 
f 213/213/213 212/212/212 216/216/216 
f 217/217/217 213/213/213 216/216/216 
f 215/215/215 218/218/218 214/214/214 
f 215/215/215 219/219/219 218/218/218 
f 217/217/217 216/216/216 220/220/220 
f 221/221/221 217/217/217 220/220/220 
f 219/219/219 222/222/222 218/218/218 
f 219/219/219 223/223/223 222/222/222 
f 221/221/221 220/220/220 224/224/224 
f 225/225/225 221/221/221 224/224/224 
f 223/223/223 226/226/226 222/222/222 
f 223/223/223 227/227/227 226/226/226 
f 227/227/227 225/225/225 228/228/228 
f 225/225/225 224/224/224 228/228/228 
f 227/227/227 228/228/228 226/226/226 
f 214/214/214 218/218/218 229/229/229 
f 218/218/218 222/222/222 230/230/230 
f 218/218/218 230/230/230 229/229/229 
f 222/222/222 226/226/226 231/231/231 
f 222/222/222 231/231/231 230/230/230 
f 226/226/226 228/228/228 232/232/232 
f 226/226/226 232/232/232 231/231/231 
f 230/230/230 231/231/231 233/233/233 
f 229/229/229 230/230/230 233/233/233 
f 231/231/231 232/232/232 233/233/233 
f 234/234/234 229/229/229 233/233/233 
f 214/214/214 229/229/229 234/234/234 
f 232/232/232 235/235/235 233/233/233 
f 228/228/228 235/235/235 232/232/232 
f 228/228/228 224/224/224 235/235/235 
f 210/210/210 214/214/214 234/234/234 
f 224/224/224 236/236/236 235/235/235 
f 235/235/235 236/236/236 233/233/233 
f 224/224/224 220/220/220 236/236/236 
f 210/210/210 234/234/234 237/237/237 
f 237/237/237 234/234/234 233/233/233 
f 207/207/207 210/210/210 237/237/237 
f 220/220/220 238/238/238 236/236/236 
f 236/236/236 238/238/238 233/233/233 
f 220/220/220 216/216/216 238/238/238 
f 207/207/207 237/237/237 239/239/239 
f 239/239/239 237/237/237 233/233/233 
f 206/206/206 207/207/207 239/239/239 
f 216/216/216 240/240/240 238/238/238 
f 238/238/238 240/240/240 233/233/233 
f 216/216/216 212/212/212 240/240/240 
f 206/206/206 239/239/239 241/241/241 
f 241/241/241 239/239/239 233/233/233 
f 240/240/240 241/241/241 233/233/233 
f 212/212/212 241/241/241 240/240/240 
f 212/212/212 206/206/206 241/241/241 
