# exported by StudySceneExporter from mesh 'Workbench_Group_3_low'
mtllib materials.mtl
v 0.285885 -0.1180007 -0.256769
v 0.2854528 -0.0912825 -0.3467864
v 0.2855201 -0.1170143 -0.3445165
v 0.2854689 -0.08919557 -0.2527129
v 0.2827037 -0.0951293 -0.2458455
v -0.2875204 -0.08921397 -0.3472622
v -0.2881114 -0.08928251 -0.2469106
v -0.2883088 -0.111934 -0.3395372
v -0.2870162 -0.1163577 -0.2602769
v -0.2849978 -0.1067254 -0.2457435
v -0.2493056 -0.1137622 -0.3470753
v -0.2875204 -0.08921397 -0.3472622
v -0.2883088 -0.111934 -0.3395372
v 0.1264943 -0.09721219 -0.347272
v 0.2798616 -0.1145099 -0.3469161
v 0.2854528 -0.0912825 -0.3467864
v 0.2855201 -0.1170143 -0.3445165
v 0.1074781 -0.08877431 -0.340067
v 0.1736271 -0.08999225 -0.3464388
v 0.2785529 -0.08840561 -0.3379834
v 0.2854689 -0.08919557 -0.2527129
v -0.2819413 -0.08844469 -0.3338495
v -0.2881114 -0.08928251 -0.2469106
v -0.2665516 -0.0883204 -0.275912
v 0.2607923 -0.08836744 -0.2706665
v 0.2470171 -0.08966708 -0.2477677
v 0.2827037 -0.0951293 -0.2458455
v -0.06198152 -0.08914866 -0.2472295
v -0.1703912 -0.08845159 -0.259892
v -0.2177579 -0.09014254 -0.2465278
v -0.2849978 -0.1067254 -0.2457435
v -0.165651 -0.09566507 -0.2460319
v 0.02012967 -0.1049686 -0.2457798
v 0.2715518 -0.1122731 -0.245921
v 0.285885 -0.1180007 -0.256769
v -0.2637174 -0.1167132 -0.2459423
v -0.2870162 -0.1163577 -0.2602769
v 0.1063743 -0.1149812 -0.2461572
v 0.2465701 -0.1168681 -0.2474239
v 0.06557901 -0.1172876 -0.2502071
v -0.2765267 -0.1180046 -0.2587805
v -0.284481 -0.1178286 -0.3377604
v -0.2883088 -0.111934 -0.3395372
v -0.2493056 -0.1137622 -0.3470753
v -0.2408618 -0.1181402 -0.3299175
v 0.2643024 -0.1180327 -0.3324141
v 0.2855201 -0.1170143 -0.3445165
v -0.1996852 -0.1174026 -0.3446416
v 0.2798616 -0.1145099 -0.3469161
v -0.2855034 -0.8454045 -0.3439976
v -0.2863466 -0.8251669 -0.3403453
v -0.2858981 -0.8456293 -0.2524277
v -0.2859175 -0.8203584 -0.2538858
v -0.2805361 -0.81612 -0.2987839
v 0.2149152 -0.8169606 -0.34395
v 0.2854383 -0.8272303 -0.3468049
v 0.2878927 -0.8164889 -0.3383065
v 0.2163911 -0.8371571 -0.3467657
v 0.2872182 -0.8451967 -0.3461491
v 0.1843422 -0.8429763 -0.3471526
v 0.1917657 -0.8197256 -0.3470662
v -0.2384743 -0.8252713 -0.3472535
v 0.2251625 -0.8457097 -0.3403858
v 0.2849252 -0.8458839 -0.2461846
v -0.2840491 -0.8430508 -0.3466409
v -0.2698204 -0.8198867 -0.34728
v -0.2863466 -0.8251669 -0.3403453
v -0.2855034 -0.8454045 -0.3439976
v -0.2680039 -0.8460708 -0.3066581
v -0.2858981 -0.8456293 -0.2524277
v 0.1428564 -0.8457701 -0.2538765
v 0.1345583 -0.8376193 -0.2459564
v 0.2808221 -0.8198143 -0.2462297
v -0.275906 -0.8443327 -0.2473787
v -0.2859175 -0.8203584 -0.2538858
v 0.01075058 -0.8418534 -0.2461513
v -0.08854412 -0.8303365 -0.2454276
v -0.2730344 -0.8222494 -0.2456999
v -0.2757244 -0.816418 -0.2537119
v -0.2805361 -0.81612 -0.2987839
v 0.2712914 -0.8161877 -0.2522165
v -0.2676514 -0.8164177 -0.3403467
v -0.2863466 -0.8251669 -0.3403453
v -0.2698204 -0.8198867 -0.34728
v -0.2384743 -0.8252713 -0.3472535
v 0.2880048 -0.8212068 -0.251087
v 0.286505 -0.8171768 -0.2754533
v 0.2878927 -0.8164889 -0.3383065
v 0.2149152 -0.8169606 -0.34395
v -0.1851118 -0.818022 -0.3462633
v 0.1917657 -0.8197256 -0.3470662
v -0.1436592 -0.8177088 -0.2482325
v -0.06957951 -0.816976 -0.2522403
v -0.008824205 -0.8183372 -0.246512
v 0.2878927 -0.8164889 -0.3383065
v 0.2854383 -0.8272303 -0.3468049
v 0.2872182 -0.8451967 -0.3461491
v 0.2883088 -0.84332 -0.2858635
v 0.286505 -0.8171768 -0.2754533
v 0.2849252 -0.8458839 -0.2461846
v 0.2880048 -0.8212068 -0.251087
v 0.2808221 -0.8198143 -0.2462297
v -0.2112775 0.9484196 0.2507894
v -0.206944 0.9483162 0.3463395
v -0.2253536 0.9489543 0.3425651
v -0.2340873 0.9481663 0.2462832
v -0.2356191 0.9491571 0.256694
v -0.2357481 0.9432791 0.3338325
v -0.2340318 -0.9486955 0.3470454
v -0.234874 -0.9488678 0.2465092
v -0.2356828 -0.9453853 0.3362594
v -0.2359324 -0.9393013 0.2883646
v -0.2357481 0.9432791 0.3338325
v -0.2358961 0.9340131 0.2815391
v -0.2356191 0.9491571 0.256694
v -0.2356728 -0.857888 0.2589346
v -0.2355956 -0.4046334 0.2543197
v -0.2293019 -0.8388008 0.2458334
v -0.2345927 -0.8105723 0.2477535
v -0.2189641 -0.8815764 0.2458108
v -0.2069818 -0.9482526 0.2469301
v -0.2323596 -0.4225941 0.2461868
v -0.2239035 0.1166542 0.2457169
v -0.2337575 -0.2738864 0.2464455
v -0.235035 0.1068299 0.2482844
v -0.2332489 0.1637772 0.2462561
v -0.2288976 0.5651554 0.2460167
v -0.2354797 0.3572747 0.2525349
v -0.2341257 0.4832047 0.2463125
v -0.2356522 0.5697936 0.2582577
v -0.2354431 0.5492746 0.2520328
v -0.2344955 0.695428 0.249007
v -0.2340873 0.9481663 0.2462832
v -0.2197174 0.9459875 0.2457597
v -0.2112775 0.9484196 0.2507894
v -0.2117925 0.5344765 0.2459085
v -0.2065876 0.9166792 0.2462182
v -0.2060917 0.9407147 0.2683176
v -0.2067204 0.5563753 0.2520146
v -0.2061741 0.1071664 0.2607301
v -0.2078587 0.1994215 0.246516
v -0.2060107 0.9465724 0.31409
v -0.206944 0.9483162 0.3463395
v -0.2064805 0.5263301 0.3419025
v -0.2062259 -0.9452716 0.3349645
v -0.2065747 -0.1812925 0.3412752
v -0.2071424 0.1830004 0.3441414
v -0.2059902 -0.9460391 0.2924081
v -0.2062144 -0.811734 0.2601189
v -0.2128074 0.1094326 0.24603
v -0.2070763 -0.8765748 0.2483164
v -0.213515 -0.8172688 0.2458982
v -0.2184487 -0.6240645 0.2458039
v -0.2159918 -0.3055021 0.245793
v -0.2074178 0.04382769 0.2469137
v -0.206798 -0.2274389 0.2498039
v -0.2085973 -0.4732096 0.2456741
v -0.2067625 -0.5966284 0.2515041
v -0.2085333 -0.6751788 0.2469822
v -0.2067174 -0.7888499 0.2513187
v 0.2244844 0.9458879 0.2598294
v 0.2246206 0.9484025 0.3235961
v 0.216917 0.9485428 0.2464645
v 0.1986694 0.9485312 0.3470981
v 0.2242597 0.9433303 0.3401829
v 0.2168996 0.9406955 0.3471512
v 0.1947342 0.9481813 0.2886312
v 0.1950676 0.9460256 0.2558193
v 0.1960299 0.9477606 0.3454223
v 0.1950547 0.9445974 0.3382083
v 0.2236492 -0.9484826 0.3443363
v 0.2230305 -0.9485441 0.2468342
v 0.1963232 -0.9490883 0.3458314
v 0.1974016 -0.9488287 0.2567809
v 0.2036473 -0.9468181 0.2457826
v 0.1963232 -0.9490883 0.3458314
v 0.1960299 0.9477606 0.3454223
v 0.1986694 0.9485312 0.3470981
v 0.1986718 -0.9463482 0.3470319
v 0.2236492 -0.9484826 0.3443363
v 0.2125981 -0.4114244 0.34728
v 0.2215275 -0.9461142 0.3470449
v 0.2147564 0.01231536 0.3472283
v 0.2168996 0.9406955 0.3471512
v 0.2206591 -0.473362 0.3466575
v 0.223361 -0.4204161 0.3453508
v 0.2216403 -0.2451604 0.3471951
v 0.2242826 -0.4698093 0.3395495
v 0.2233043 0.04781953 0.3453756
v 0.221656 0.2193 0.3470962
v 0.2243641 0.3550157 0.3380197
v 0.223748 0.9160638 0.3445643
v 0.2242597 0.9433303 0.3401829
v 0.2246206 0.9484025 0.3235961
v 0.2244966 -0.9396368 0.334509
v 0.224665 -0.6010585 0.2854559
v 0.2244844 0.9458879 0.2598294
v 0.2244832 -0.9458479 0.2571386
v 0.2244543 -0.7358197 0.2565618
v 0.2230305 -0.9485441 0.2468342
v 0.2232612 -0.8136697 0.2466355
v 0.2174689 -0.9298053 0.2458404
v 0.2036473 -0.9468181 0.2457826
v 0.2111376 -0.3136643 0.2457326
v 0.2182786 -0.750712 0.2458762
v 0.2197573 -0.7570285 0.2462775
v 0.215119 -0.2305188 0.2457786
v 0.2156546 -0.08712193 0.245881
v 0.2196792 -0.744449 0.2460928
v 0.218897 -0.729968 0.2460721
v 0.2197641 -0.686375 0.2459299
v 0.2238774 -0.6700326 0.2588801
v 0.2239744 -0.636311 0.2492989
v 0.2226714 -0.2754977 0.2463857
v 0.2242323 -0.4794893 0.2555739
v 0.2241053 -0.2098625 0.2504605
v 0.224306 -0.08905108 0.2562807
v 0.2241944 -0.0221891 0.2520496
v 0.2215198 -0.06096886 0.2473403
v 0.2241103 0.8954747 0.2515597
v 0.216917 0.9485428 0.2464645
v 0.2166112 -0.0209919 0.2458199
v 0.2116082 0.5079232 0.2457302
v 0.2233946 0.05941174 0.2462185
v 0.220165 0.7771901 0.2460504
v 0.1996878 0.9089898 0.2458701
v 0.1950676 0.9460256 0.2558193
v 0.20441 0.1670353 0.2458669
v 0.1956054 0.8820309 0.249545
v 0.1964683 0.548765 0.2461151
v 0.1957716 0.4909759 0.2501106
v 0.2046792 0.3918462 0.2458193
v 0.1951791 0.3884957 0.253409
v 0.1949479 -0.470791 0.2609908
v 0.1947342 0.9481813 0.2886312
v 0.1948767 -0.9465106 0.26103
v 0.1947948 -0.8850513 0.3178149
v 0.1950547 0.9445974 0.3382083
v 0.1951676 -0.9463692 0.3403205
v 0.1960299 0.9477606 0.3454223
v 0.1963232 -0.9490883 0.3458314
v 0.1974016 -0.9488287 0.2567809
v 0.1952425 -0.9226028 0.2501458
v 0.1962959 -0.8017876 0.247357
v 0.1954233 -0.547609 0.2495862
v 0.2005428 -0.6038187 0.2459013
v 0.1973879 -0.4973235 0.2469546
v 0.1991915 -0.3504033 0.245889
v 0.195327 -0.3842876 0.2511186
v 0.195955 -0.3275071 0.2483369
v 0.1955439 0.3699996 0.2503789
v 0.1979067 -0.2795373 0.2460576
v 0.1966409 0.1289119 0.2473733
v 0.1995985 0.3501222 0.2459527
v 0.2182637 0.9252574 0.1172986
v 0.04872474 0.9253892 0.3403296
v 0.2245934 0.9261187 0.1753545
v -0.03859735 0.925308 0.3324215
v 0.2253316 0.9256859 0.04242703
v -0.08434769 0.926185 0.3459899
v 0.02190175 0.9262678 0.3465826
v 0.05513493 0.9255593 0.2204686
v 0.1338727 0.9261952 0.1305778
v 0.1018028 0.9308049 0.1589513
v 0.2224156 0.9284469 0.03838501
v 0.2250289 0.9488992 0.0374538
v -0.0836895 0.9467202 0.344687
v -0.07763575 0.9500494 0.3464838
v 0.0778248 0.9441534 0.183065
v 0.1568912 0.946347 0.1040979
v 0.04766525 0.9493596 0.2146423
v 0.08131351 0.9498697 0.1871016
v 0.2166438 0.9503944 0.05829231
v -0.01355275 0.9505286 0.3419733
v 0.2169994 0.9503972 0.1650198
v 0.04147818 0.950137 0.3466863
v 0.2255586 0.9496943 0.1722778
v 0.1355665 0.9502006 0.2554799
v 0.06137478 0.9490173 0.3423484
v 0.1500751 0.945109 0.2538902
v 0.05821163 0.9338012 0.3459695
v 0.1635949 0.9493812 0.2388124
v 0.2241473 0.946048 0.1799821
v 0.2245934 0.9261187 0.1753545
v 0.07649811 0.9262769 0.3260915
v 0.04872474 0.9253892 0.3403296
v 0.1851167 0.9273157 0.2187363
v 0.06137478 0.9490173 0.3423484
v 0.05821163 0.9338012 0.3459695
v 0.04147818 0.950137 0.3466863
v 0.02190175 0.9262678 0.3465826
v 0.04872474 0.9253892 0.3403296
v -0.01697619 0.9456118 0.3467494
v -0.01355275 0.9505286 0.3419733
v -0.07763575 0.9500494 0.3464838
v -0.08434769 0.926185 0.3459899
v 0.05877412 -0.9279881 0.3451518
v 0.05853931 -0.9477479 0.3452286
v 0.04275017 -0.925639 0.3466986
v 0.002276392 -0.9497667 0.3466811
v 0.0524148 -0.9504085 0.3400966
v -0.04581979 -0.9505286 0.3427707
v -0.05399991 -0.9433447 0.3468139
v -0.07822616 -0.9500885 0.3462677
v -0.08493049 -0.9289628 0.3461004
v -0.06253608 -0.9256543 0.3428999
v 0.2247783 -0.9263878 0.1766308
v 0.2246482 -0.9498329 0.1735279
v 0.2187928 -0.932216 0.1852041
v 0.2117112 -0.9478999 0.1922358
v 0.05877412 -0.9279881 0.3451518
v 0.05853931 -0.9477479 0.3452286
v 0.0524148 -0.9504085 0.3400966
v 0.2215893 -0.9504291 0.1335579
v -0.04581979 -0.9505286 0.3427707
v 0.2172492 -0.9500284 0.0493943
v 0.2239701 -0.9482355 0.04713497
v -0.07822616 -0.9500885 0.3462677
v 0.2168126 -0.9372462 0.04526275
v 0.224126 -0.9269264 0.0500592
v -0.0731774 -0.9480574 0.334463
v -0.08493049 -0.9289628 0.3461004
v 0.2083039 -0.947261 0.05315567
v 0.02728951 -0.9332156 0.2333885
v 0.2058842 -0.9282146 0.05629894
v 0.1720689 -0.9320398 0.0889883
v 0.177231 -0.9257674 0.09769485
v 0.1995108 -0.925541 0.09419182
v 0.2247783 -0.9263878 0.1766308
v 0.2002702 -0.9255909 0.1964858
v 0.2187928 -0.932216 0.1852041
v 0.05877412 -0.9279881 0.3451518
v 0.04275017 -0.925639 0.3466986
v -0.01543051 -0.925303 0.3111604
v -0.06253608 -0.9256543 0.3428999
v -0.03350218 -0.9257028 0.3059682
v -0.03539941 -0.9287286 0.296527
v -0.01770481 -0.9277336 0.294142
v -0.02481187 -0.9384932 0.2855525
v 0.002726807 -0.9256143 0.2702901
v 0.02763679 -0.9256122 0.2471587
v 0.05550766 -0.9272664 0.2062816
v 0.1581816 -0.9267471 0.1054433
v 0.2247783 -0.9263878 0.1766308
v 0.2251997 -0.9451042 0.1085838
v 0.2246482 -0.9498329 0.1735279
v 0.224126 -0.9269264 0.0500592
v 0.2215893 -0.9504291 0.1335579
v 0.2239701 -0.9482355 0.04713497
v 0.2245934 0.9261187 0.1753545
v 0.2255586 0.9496943 0.1722778
v 0.2254784 0.9300963 0.1328188
v 0.2182637 0.9252574 0.1172986
v 0.2250289 0.9488992 0.0374538
v 0.2253316 0.9256859 0.04242703
v -0.2253536 0.9489543 0.3425651
v -0.2294455 0.9406872 0.3472058
v -0.2357481 0.9432791 0.3338325
v -0.2130007 0.6301077 0.3469485
v -0.2353117 0.900183 0.3422423
v -0.2353339 -0.5232492 0.3406207
v -0.2356828 -0.9453853 0.3362594
v -0.2340318 -0.9486955 0.3470454
v -0.2300453 -0.5119237 0.3470343
v -0.2157623 -0.593106 0.3472359
v -0.2166329 -0.1796747 0.347221
v -0.2117905 -0.9405625 0.3470848
v -0.2074102 -0.9201168 0.3460763
v -0.2067825 -0.7645946 0.343453
v -0.207574 -0.5248554 0.3452564
v -0.2079088 -0.4454853 0.3469816
v -0.211772 -0.2548179 0.346987
v -0.2074664 -0.1286713 0.3468403
v -0.2109011 0.1640718 0.3470872
v -0.2090438 0.4595834 0.3468223
v -0.2175096 0.495979 0.3472054
v -0.2107648 0.5482003 0.3471834
v -0.2294239 0.2170718 0.3471519
v -0.2340403 0.749817 0.3469996
v -0.2353261 0.1816542 0.341664
v -0.2352274 -0.1086506 0.3464003
v -0.2349512 -0.443583 0.3443321
v -0.2117905 -0.9405625 0.3470848
v -0.2062259 -0.9452716 0.3349645
v -0.2109481 -0.9490793 0.3413512
v -0.2340318 -0.9486955 0.3470454
v -0.2059902 -0.9460391 0.2924081
v -0.234874 -0.9488678 0.2465092
v -0.2069818 -0.9482526 0.2469301
vt 0.04518712 0.8002626
vt 0.05348408 0.7743959
vt 0.04602742 0.7748898
vt 0.05349362 0.8016176
vt 0.05172181 0.8037138
vt 0.3667592 0.8165084
vt 0.3377276 0.8165017
vt 0.3645172 0.8230826
vt 0.3415835 0.8243461
vt 0.3372992 0.8216208
vt 0.3257622 0.5126638
vt 0.3188889 0.5237992
vt 0.3258325 0.5241932
vt 0.3202004 0.4030097
vt 0.3251177 0.3596484
vt 0.3189616 0.3578995
vt 0.3258372 0.3578728
vt 0.3167091 0.4087488
vt 0.3184404 0.3895954
vt 0.3163912 0.3599696
vt 0.2911965 0.3578839
vt 0.3150626 0.5221796
vt 0.2901827 0.5240629
vt 0.2982 0.5178676
vt 0.2967995 0.3650884
vt 0.2900574 0.3691784
vt 0.2883695 0.3587232
vt 0.2900852 0.4579471
vt 0.2935786 0.4897793
vt 0.2898901 0.503832
vt 0.2853353 0.5230806
vt 0.2883272 0.4883731
vt 0.2854401 0.4344966
vt 0.2836217 0.3623815
vt 0.2798475 0.3578182
vt 0.2826017 0.5166242
vt 0.2788518 0.5238048
vt 0.2827289 0.4091175
vt 0.2823199 0.3694325
vt 0.2813547 0.4209502
vt 0.2789087 0.52065
vt 0.2566731 0.5230032
vt 0.2556238 0.5249303
vt 0.2527145 0.5130255
vt 0.2581924 0.5102994
vt 0.2577645 0.3640111
vt 0.2542287 0.3578179
vt 0.2539767 0.4983735
vt 0.2532116 0.3594542
vt 0.7257338 0.7269617
vt 0.724691 0.7210996
vt 0.6992427 0.7269594
vt 0.6996818 0.7196497
vt 0.7126995 0.7178679
vt 0.9105895 0.3009427
vt 0.9136817 0.2804665
vt 0.9097208 0.2796856
vt 0.9165795 0.3006633
vt 0.9188535 0.279963
vt 0.9176037 0.3100829
vt 0.9109015 0.307812
vt 0.9116962 0.4321608
vt 0.9197978 0.2981586
vt 0.9473516 0.2811371
vt 0.9167912 0.4449684
vt 0.910159 0.4415775
vt 0.9120466 0.4469278
vt 0.9177976 0.445523
vt 0.9286509 0.4405809
vt 0.9441532 0.4457684
vt 0.9448373 0.3224465
vt 0.948403 0.3249874
vt 0.9542119 0.2824352
vt 0.9456289 0.4426728
vt 0.9534302 0.4460728
vt 0.9469432 0.3607069
vt 0.9500434 0.3890644
vt 0.9519366 0.4418669
vt 0.9546965 0.4429481
vt 0.9677204 0.4459549
vt 0.9562556 0.2852623
vt 0.9798528 0.4420771
vt 0.9801944 0.4480307
vt 0.9820364 0.4428866
vt 0.9836681 0.4332803
vt 0.9555711 0.2802614
vt 0.9628736 0.2807797
vt 0.9811598 0.2802345
vt 0.982548 0.3015845
vt 0.9818106 0.4175664
vt 0.9836787 0.3083414
vt 0.9536046 0.4051008
vt 0.9549889 0.3833954
vt 0.953615 0.3658178
vt 0.9525564 0.785957
vt 0.950046 0.7891199
vt 0.9504736 0.7943503
vt 0.9678392 0.7933849
vt 0.970821 0.7858221
vt 0.9793146 0.7943565
vt 0.9779189 0.7871036
vt 0.9804366 0.7867594
vt 0.8449384 0.8096956
vt 0.8172678 0.809671
vt 0.8185954 0.8149462
vt 0.8465351 0.8162299
vt 0.8435416 0.8168534
vt 0.8212084 0.8183066
vt 0.08846298 0.6446558
vt 0.1177429 0.6444927
vt 0.0916051 0.6435554
vt 0.1056966 0.641728
vt 0.09117216 0.09674861
vt 0.106575 0.09925578
vt 0.1134931 0.09481503
vt 0.1143491 0.6177555
vt 0.1153006 0.4856578
vt 0.1191172 0.611892
vt 0.1175057 0.6036307
vt 0.1222009 0.6245005
vt 0.1256237 0.6441182
vt 0.1179896 0.4909425
vt 0.1200898 0.3351697
vt 0.117526 0.4477904
vt 0.1167692 0.3380226
vt 0.1174295 0.3216501
vt 0.1183318 0.2071076
vt 0.1153747 0.2662262
vt 0.1169711 0.2308709
vt 0.1134306 0.2057081
vt 0.1153071 0.2119192
vt 0.1162018 0.1682974
vt 0.1162021 0.09502485
vt 0.1202309 0.09595121
vt 0.1238398 0.0947215
vt 0.1230536 0.2135964
vt 0.1239379 0.1044712
vt 0.130049 0.09725355
vt 0.1255233 0.2071981
vt 0.1284559 0.3379294
vt 0.1244073 0.3108168
vt 0.1435054 0.09501217
vt 0.152877 0.09428976
vt 0.1520899 0.2166102
vt 0.150993 0.6427958
vt 0.1519174 0.420787
vt 0.1527509 0.3158777
vt 0.1384848 0.6431652
vt 0.1288367 0.6037337
vt 0.1232822 0.3372847
vt 0.1256984 0.6230435
vt 0.1237405 0.605487
vt 0.122032 0.5494926
vt 0.1224178 0.4580587
vt 0.1247606 0.3565077
vt 0.125429 0.4349568
vt 0.1244808 0.5056932
vt 0.1262543 0.5410867
vt 0.1249226 0.5642012
vt 0.1262717 0.5969858
vt 0.904091 0.7577856
vt 0.8856294 0.7578706
vt 0.9079396 0.7601351
vt 0.8788185 0.7653674
vt 0.8806117 0.7577611
vt 0.8782474 0.7596554
vt 0.895731 0.7665341
vt 0.9052442 0.7665023
vt 0.8793011 0.7661642
vt 0.8813649 0.7671705
vt 0.4032824 0.8163932
vt 0.375075 0.8164007
vt 0.4036667 0.8243029
vt 0.3779073 0.823833
vt 0.3746738 0.8220243
vt 0.2446732 0.6433304
vt 0.2446951 0.09392523
vt 0.243783 0.09370609
vt 0.243905 0.6424986
vt 0.2363745 0.6430773
vt 0.2398524 0.4868707
vt 0.2373393 0.6422634
vt 0.2392395 0.3638995
vt 0.2384674 0.09570388
vt 0.2374297 0.5046455
vt 0.2366706 0.4894766
vt 0.2373595 0.4386761
vt 0.2350064 0.5038056
vt 0.2366968 0.354156
vt 0.2371783 0.3040726
vt 0.2345224 0.2656422
vt 0.2363451 0.1028843
vt 0.2350711 0.0949867
vt 0.2302602 0.09352878
vt 0.2336302 0.6400263
vt 0.219271 0.5421953
vt 0.2116366 0.09424817
vt 0.2113008 0.6420535
vt 0.2109275 0.5806499
vt 0.2083041 0.6429088
vt 0.2082993 0.6034013
vt 0.2067419 0.637047
vt 0.2027398 0.6425167
vt 0.2049719 0.4581737
vt 0.2069541 0.5849835
vt 0.2074111 0.5867619
vt 0.2060525 0.4343442
vt 0.2061224 0.3922813
vt 0.2073846 0.5831702
vt 0.2071553 0.5789512
vt 0.2073731 0.5661935
vt 0.2115128 0.5614755
vt 0.2089225 0.551357
vt 0.2081657 0.4473693
vt 0.2107006 0.505388
vt 0.2092354 0.4281482
vt 0.2108232 0.3927698
vt 0.2096716 0.3731322
vt 0.2079492 0.3845483
vt 0.2092814 0.1092713
vt 0.2065778 0.09364764
vt 0.2062427 0.3730309
vt 0.2049557 0.22178
vt 0.2080643 0.3497791
vt 0.2073432 0.1435698
vt 0.201557 0.1061101
vt 0.1982688 0.09467538
vt 0.2029532 0.3202308
vt 0.2000072 0.113559
vt 0.2008657 0.2096847
vt 0.1997847 0.226083
vt 0.2029134 0.2555685
vt 0.1988794 0.2561052
vt 0.1967626 0.5036668
vt 0.1886669 0.09408727
vt 0.1968792 0.6417251
vt 0.1803257 0.6237873
vt 0.1741852 0.0953244
vt 0.1737764 0.6417603
vt 0.1720641 0.0945388
vt 0.172153 0.6427636
vt 0.1981958 0.642699
vt 0.1999537 0.6355526
vt 0.200665 0.6006781
vt 0.2000719 0.5265205
vt 0.20186 0.5425255
vt 0.2008949 0.5113007
vt 0.201465 0.4687579
vt 0.1995571 0.4781403
vt 0.2003422 0.4620703
vt 0.1997385 0.2616439
vt 0.201191 0.4483781
vt 0.20066 0.3310582
vt 0.2014675 0.2675027
vt 0.9641714 0.4712877
vt 0.9778813 0.5514336
vt 0.9777812 0.481289
vt 0.9587886 0.5686688
vt 0.9496982 0.4551324
vt 0.9527496 0.5811285
vt 0.973936 0.5584257
vt 0.9536369 0.5268595
vt 0.9502712 0.491998
vt 0.9492354 0.5042576
vt 0.9481903 0.4555874
vt 0.9427365 0.4539862
vt 0.9471436 0.5790797
vt 0.9452685 0.5789205
vt 0.94566 0.5145835
vt 0.9439596 0.4819329
vt 0.9446752 0.5272582
vt 0.9430491 0.5147658
vt 0.9403209 0.4603084
vt 0.9326218 0.5656763
vt 0.9188476 0.4830383
vt 0.9200184 0.5561191
vt 0.9155428 0.4829074
vt 0.9182261 0.5178142
vt 0.916694 0.5512933
vt 0.9148536 0.5145781
vt 0.9123256 0.5528815
vt 0.9157484 0.5087517
vt 0.9139066 0.4850017
vt 0.9077607 0.4838025
vt 0.9101657 0.5447465
vt 0.9077537 0.5539281
vt 0.9091566 0.5006844
vt 0.9284081 0.7416319
vt 0.9293699 0.7461469
vt 0.9343082 0.7415171
vt 0.9398222 0.7485303
vt 0.9318901 0.7492688
vt 0.9511858 0.7431923
vt 0.9502434 0.7411838
vt 0.9687809 0.742318
vt 0.9705477 0.7492697
vt 0.8782474 0.7420756
vt 0.8783355 0.7479564
vt 0.8829705 0.7411768
vt 0.8945456 0.7483346
vt 0.8800739 0.749768
vt 0.9083471 0.7497678
vt 0.9108475 0.7473956
vt 0.9178402 0.7495582
vt 0.9199838 0.7435656
vt 0.9135508 0.7419072
vt 0.2527145 0.630576
vt 0.2598988 0.631018
vt 0.2541462 0.6273981
vt 0.2586972 0.6244102
vt 0.2538459 0.5613332
vt 0.2596011 0.5613937
vt 0.2620457 0.5612398
vt 0.2686451 0.6388182
vt 0.2819277 0.5408395
vt 0.286586 0.6538056
vt 0.2863308 0.6560658
vt 0.2880383 0.5335375
vt 0.2905669 0.6543376
vt 0.2948949 0.6560668
vt 0.2894966 0.537099
vt 0.2948777 0.5320549
vt 0.2879275 0.651242
vt 0.2929558 0.5792686
vt 0.2930491 0.6504095
vt 0.2925533 0.6370242
vt 0.2963599 0.6364716
vt 0.3000627 0.6419247
vt 0.3222725 0.6313276
vt 0.3215593 0.6221034
vt 0.3239403 0.6282663
vt 0.323649 0.5625578
vt 0.3206276 0.5589048
vt 0.3013953 0.5538626
vt 0.2988009 0.5375099
vt 0.2969242 0.5510421
vt 0.2945147 0.5524533
vt 0.2968487 0.5570031
vt 0.2918138 0.5571716
vt 0.2966622 0.5664631
vt 0.2970315 0.5763445
vt 0.2943915 0.5904074
vt 0.2942026 0.6308687
vt 0.9858698 0.7786803
vt 0.9805124 0.7589823
vt 0.9791077 0.7777695
vt 0.9858604 0.7420772
vt 0.9785687 0.7661887
vt 0.9797231 0.7411862
vt 0.821202 0.6344154
vt 0.8221463 0.6411241
vt 0.83356 0.6354767
vt 0.8380551 0.6329362
vt 0.8610972 0.6411223
vt 0.8597232 0.6344193
vt 0.1586109 0.09493184
vt 0.15905 0.09789381
vt 0.1638009 0.09696247
vt 0.1545728 0.1868528
vt 0.1615032 0.1102143
vt 0.1624144 0.5205314
vt 0.1638402 0.6429718
vt 0.1608904 0.6439319
vt 0.1599426 0.5169137
vt 0.1557266 0.5405153
vt 0.1559228 0.4201198
vt 0.1549599 0.6413751
vt 0.1537566 0.6354312
vt 0.1532011 0.5907913
vt 0.1531806 0.5202398
vt 0.153579 0.497566
vt 0.1545499 0.4428381
vt 0.153435 0.4053674
vt 0.1542079 0.3213883
vt 0.1535915 0.236139
vt 0.1560205 0.2255421
vt 0.1540338 0.2104152
vt 0.1595095 0.3067549
vt 0.1603725 0.1528797
vt 0.1619594 0.3174165
vt 0.1609592 0.4015112
vt 0.1614805 0.496926
vt 0.8769721 0.7942107
vt 0.8726991 0.793368
vt 0.8742442 0.7951843
vt 0.8764712 0.8017005
vt 0.8604602 0.7931603
vt 0.8467741 0.8016968
vt 0.8473121 0.793452
vn 0.9999162 0.01199724 0.004877802
vn 0.9999814 0.005165225 -0.003269527
vn 0.9999889 0.002251892 -0.004134511
vn 0.9997228 0.01155346 0.0205114
vn 0.9372454 -0.03530403 0.3468786
vn -0.9994485 0.03268628 -0.005863527
vn -0.9990784 -0.03669226 0.02227235
vn -0.9997763 0.02093842 -0.002989959
vn -0.998484 -0.05082374 0.02114007
vn -0.959191 -0.1554125 0.2362192
vn -0.004160231 -0.01425881 -0.9998897
vn -0.02506715 0.6630155 -0.7481858
vn -0.1944022 -0.3097137 -0.9307445
vn -0.00233925 0.06170806 -0.9980915
vn 0.01548348 -0.001327413 -0.9998792
vn 0.0400937 0.2605496 -0.9646276
vn 0.3584887 -0.08110254 -0.9300045
vn 0.007290651 0.8262812 -0.5632105
vn -0.002244542 0.7704504 -0.6374959
vn 0.0126571 0.999811 -0.01475741
vn 0.03633003 0.9927018 0.1149925
vn -0.004213541 0.9999162 -0.01224085
vn -0.0130775 0.9040465 0.427234
vn -0.002231118 0.9999952 0.002145062
vn 0.001557135 0.9999795 0.006210601
vn 0.002197775 0.9473338 0.3202402
vn 0.03744087 0.0778939 0.9962584
vn -0.0005615568 0.9737617 0.2275696
vn 0.008775919 0.9703375 0.2415953
vn 0.007765153 0.5936255 0.804704
vn -0.05335111 -0.08233089 0.995176
vn -0.004880005 0.3034562 0.9528329
vn 0.005040894 -0.1332529 0.9910693
vn 0.03445171 -0.08893207 0.9954417
vn 0.004329124 -0.9999481 0.009223306
vn -0.00529325 -0.8596541 0.5108491
vn -0.2267682 -0.963315 0.1435292
vn -0.003546551 -0.2981846 0.9545016
vn 0.003865361 -0.909776 0.4150817
vn -0.01595145 -0.8583307 0.5128489
vn -0.004581311 -0.9998903 0.01408788
vn -0.1682838 -0.9810882 -0.09563816
vn -0.7594965 -0.5812335 -0.2921175
vn -0.005568313 -0.9492507 -0.3144713
vn -0.0009740729 -0.9999857 -0.005274724
vn 0.00187727 -0.9998949 -0.01437709
vn 0.01479119 -0.986271 -0.1644706
vn -0.0009820067 -0.9634796 -0.26778
vn 0.0007333581 -0.6903856 -0.7234412
vn -0.9991561 -0.04083627 -0.004407299
vn -0.9999819 -0.004499214 -0.004005386
vn -0.9999765 -0.005720101 0.003769826
vn -0.9996579 0.02591805 0.003519803
vn -0.7683227 0.6392752 -0.03173991
vn 0.002087197 0.1501641 -0.9886588
vn 0.02465302 0.2590646 -0.9655452
vn 0.05708385 0.6114014 -0.789259
vn -0.00144649 -0.07404176 -0.9972541
vn 0.007451211 -0.9800023 -0.1988467
vn 0.002067143 -0.376352 -0.9264745
vn 0.01105187 0.000184272 -0.999939
vn -0.001097483 -0.03072439 -0.9995273
vn 0.0003463572 -0.9998471 -0.01748222
vn 0.001179765 -0.9939073 0.1102132
vn -0.03302482 -0.3983625 -0.9166333
vn -0.07062661 0.01586761 -0.9973767
vn -0.4524948 0.2438362 -0.8577834
vn -0.003854253 -0.996996 -0.07735671
vn -0.001664918 -0.9999912 -0.003855599
vn -0.007090435 -0.9995638 0.02867029
vn -0.006662798 -0.9822993 0.1871995
vn -8.20957E-05 -0.3228736 0.9464421
vn 0.009067298 0.1716743 0.985112
vn -0.02949377 -0.6232275 0.7814842
vn -0.5104532 0.7191049 0.4715142
vn 0.004275644 -0.3598441 0.9330027
vn 0.002666912 0.02253202 0.9997426
vn -0.04240118 0.1646144 0.9854462
vn -0.008200443 0.9994497 0.03214264
vn -0.003171563 0.9999948 -0.0007012972
vn 0.002329196 0.9996046 0.02802185
vn -0.009449206 0.9997692 -0.01929501
vn -0.4194056 0.8961579 -0.1449138
vn -0.08206224 0.9013214 -0.4253064
vn -0.04046232 0.4674494 -0.8830934
vn 0.2761005 0.9508953 0.139881
vn 0.1049667 0.9941249 0.02641126
vn 0.0003400503 0.9999931 -0.003717867
vn 0.0004951166 0.994208 -0.1074724
vn -0.001945731 0.6456079 -0.7636666
vn 0.001887704 0.7363912 -0.6765535
vn 0.009002813 0.5790774 0.8152229
vn -0.02667513 0.6589622 0.751703
vn -0.002268276 0.4921947 0.8704821
vn 0.9998692 0.002445311 -0.01598886
vn 0.9269641 0.07844193 -0.3668574
vn 0.9994104 -0.02234623 -0.02606873
vn 0.991834 -0.1265831 0.01555538
vn 0.9975197 0.07029098 -0.003681319
vn 0.9863451 -0.1131749 0.1196453
vn 0.9828998 -0.02797149 0.182004
vn 0.5699188 0.09110878 0.8166345
vn -0.005654001 0.9999616 -0.00669342
vn 0.03473647 0.9993964 -0.0004942478
vn -0.07728004 0.9969477 0.01109873
vn -0.001715937 0.9999664 -0.008026962
vn 0.2208986 0.9749986 -0.02411251
vn -0.5191438 0.8522817 0.06407554
vn -0.9053817 -0.4245172 0.008312861
vn -0.8551832 -0.01203413 -0.5181861
vn -0.9999806 -0.003410888 0.005224436
vn -0.9999932 -0.001208506 0.003483756
vn -0.9999959 6.201701E-05 0.00286087
vn -0.9999993 0.0002564767 0.00121433
vn -0.9988123 0.0006440124 -0.04871807
vn -0.9989125 0.003023182 -0.04652687
vn -0.999808 -0.0001322269 -0.01959783
vn -0.06670072 -0.003082154 -0.9977683
vn -0.905696 -0.002413209 -0.4239209
vn 0.04409459 -0.001441351 -0.9990263
vn 0.9483163 -0.006890486 -0.3172517
vn -0.4600624 0.001572708 -0.8878851
vn -0.06638278 -0.001111871 -0.9977937
vn -0.7633114 -0.001137658 -0.6460297
vn -0.9834014 0.0009188013 -0.1814408
vn -0.2252706 0.001210077 -0.9742955
vn -0.154725 0.0007092918 -0.9879573
vn -0.998381 -0.002398221 -0.0568301
vn -0.5285495 0.0002871037 -0.8489025
vn -0.9917129 -0.004292496 -0.128402
vn -0.9619386 0.02045299 -0.2724993
vn -0.9177395 -0.003541551 -0.397167
vn -0.4842733 0.002393793 -0.8749135
vn -0.002304981 0.02285851 -0.999736
vn 0.8602664 0.2681949 -0.4336049
vn 0.2152824 0.001449765 -0.9765508
vn 0.8109171 0.00301218 -0.5851532
vn 0.9999801 0.004748435 -0.004160286
vn 0.984614 -0.001622485 -0.1747357
vn 0.9997805 0.0001549185 -0.02095411
vn 0.6811017 -0.001953943 -0.7321862
vn 0.9999837 0.005001429 0.002795603
vn 0.9111085 0.003960522 0.4121474
vn 0.9995847 -0.0004467827 0.02881211
vn 0.9999745 -0.0003724413 0.007129466
vn 0.9767309 -0.001889933 0.21446
vn 0.8695551 -0.001304808 0.4938344
vn 0.9999949 -0.0002609461 0.003188534
vn 0.9998676 -0.0002247303 -0.01627264
vn 0.2918407 -0.0005929467 -0.9564667
vn 0.7415459 0.005460817 -0.67088
vn 0.3681174 0.01176096 -0.929705
vn 0.1378523 0.00956431 -0.9904067
vn 0.1204336 0.004870167 -0.9927094
vn 0.8290842 0.001761397 -0.5591209
vn 0.9633737 -0.001914732 -0.268156
vn 0.4865434 -0.000977774 -0.8736558
vn 0.915988 -0.01115328 -0.4010506
vn 0.4808568 0.003459967 -0.8767923
vn 0.9337689 -0.0117133 -0.3576848
vn 0.3885905 0.9206619 -0.03713609
vn 0.02950526 0.999317 0.02224366
vn 0.007249487 0.9996781 -0.02431409
vn 0.01673602 0.998737 0.04737435
vn 0.2727214 0.9039428 0.3294091
vn 0.312474 0.7311166 0.6064887
vn -0.03776624 0.9992423 -0.009411464
vn -0.1421706 0.9876173 -0.06632929
vn -0.4597467 0.8878862 0.01706431
vn -0.9694111 0.2442739 0.02392391
vn 0.02218032 -0.9997539 0.0004905566
vn 0.0101695 -0.9999055 -0.009256806
vn 0.020404 -0.9997918 1.096705E-05
vn 0.007121294 -0.9999222 -0.0102519
vn -0.07466725 -0.9725922 -0.2202026
vn -0.4474816 -0.008508954 0.8942526
vn -0.5359984 9.908853E-05 0.844219
vn -0.1600262 9.428243E-05 0.9871127
vn -0.1766132 -0.003082595 0.9842755
vn 0.9715144 -0.0187225 0.2362399
vn -0.00589839 -0.0003696284 0.9999826
vn 0.1284794 -0.006073452 0.9916936
vn 0.04035653 0.001037847 0.9991848
vn 0.02017939 0.001451089 0.9997954
vn 0.4738929 0.00129306 0.8805815
vn 0.8996664 0.0003831805 0.4365778
vn 0.2058431 2.920145E-05 0.978585
vn 0.9888222 -0.0006215292 0.1490982
vn 0.9254925 -0.001345643 0.3787638
vn 0.2868492 0.001431022 0.9579747
vn 0.9972133 -0.0003997405 0.07460158
vn 0.6699477 0.002165629 0.7424052
vn 0.9993394 0.001905114 0.03629195
vn 1 8.030019E-05 -0.0002197464
vn 0.9998852 -0.002760581 0.01490303
vn 0.999999 -9.661023E-05 0.00143852
vn 0.9999799 0.0006523859 -0.00631917
vn 0.9999092 -0.01000329 -0.009040805
vn 0.9993308 0.001139528 -0.03656317
vn 0.9088304 -0.02701842 -0.4162902
vn 0.8811076 0.0003241841 -0.4729157
vn 0.02032486 -0.0008265718 -0.9997931
vn -0.08093889 -0.01615177 -0.9965882
vn -0.01270081 -0.002732625 -0.9999156
vn 0.0429551 -0.0001268006 -0.999077
vn 0.83284 0.04599861 -0.5515992
vn 0.2064445 0.01740349 -0.9783035
vn 0.1698538 -0.0002968785 -0.9854693
vn 0.8459604 0.01493484 -0.5330365
vn 0.8779766 -0.009365521 -0.4786119
vn 0.5321719 0.00211223 -0.8466337
vn 0.9946821 -0.00487692 -0.1028765
vn 0.9215928 -0.004880296 -0.3881272
vn 0.4368621 -0.0007766286 -0.8995282
vn 0.9997807 3.413565E-05 -0.02094059
vn 0.9136994 0.001244875 -0.4063888
vn 0.9252404 0.004180246 -0.3793582
vn 0.9935032 -0.001776562 -0.1137912
vn 0.7194327 -0.02148598 -0.6942298
vn 0.9855894 0.00292546 -0.1691302
vn 0.2155401 0.09164844 -0.9721847
vn 0.2352525 -0.008500673 -0.9718971
vn -0.007630013 -0.004187026 -0.9999622
vn 0.6927692 -0.0001542366 -0.7211593
vn 0.3846215 0.002143104 -0.9230719
vn -0.1254351 0.01806197 -0.9919373
vn -0.9996392 0.00341825 -0.02664398
vn -0.04486166 -0.000978848 -0.9989927
vn -0.9251804 0.002741572 -0.3795179
vn -0.2959599 -0.001855429 -0.9551985
vn -0.8098907 0.002134452 -0.586577
vn -0.2288952 -0.001818571 -0.9734494
vn -0.9942678 0.0004489839 -0.1069167
vn -0.9996141 -0.0007090368 -0.02777311
vn -0.9999998 6.050376E-05 0.0007877198
vn -0.9999695 -0.007222163 -0.002977878
vn -0.9999907 -0.0001160463 0.00430795
vn -0.9996548 7.288161E-05 0.02627572
vn -0.9939362 -0.006297876 0.1097783
vn -0.9909737 9.00023E-05 0.1340561
vn -0.9790826 -0.004248475 0.2034192
vn -0.8551918 -0.3473676 -0.3846854
vn -0.8660013 -0.009983333 -0.4999422
vn -0.8584729 -0.002534642 -0.5128527
vn -0.9937509 -0.0006417785 -0.1116189
vn -0.4690379 0.004214147 -0.883168
vn -0.8042583 0.009316748 -0.5942068
vn -0.04743531 -0.0002247243 -0.9988742
vn -0.9955301 0.0003732592 -0.09444512
vn -0.8777906 0.008629408 -0.4789668
vn -0.9719083 0.008905003 -0.2351915
vn -0.1745312 -0.0007022667 -0.9846514
vn -0.6111028 0.001442469 -0.7915499
vn -0.4346062 0.0040819 -0.9006113
vn -0.001505942 -0.9999955 -0.002611087
vn 0.00142618 -0.9999964 0.002299817
vn 0.01638746 -0.9997806 0.01304687
vn -0.008382808 -0.9999648 -0.000423836
vn -0.03258083 -0.9984809 -0.04443467
vn -0.6820832 -0.2896032 -0.6714852
vn -4.442331E-06 -0.9902755 0.1391196
vn -0.1353674 -0.9798853 -0.1466303
vn -0.3110252 -0.9006127 -0.3035789
vn -0.6931448 -0.2425316 -0.6787699
vn -0.6482602 -0.1925833 -0.7366617
vn -0.6540523 0.3023603 -0.693393
vn -0.7232245 0.1058836 -0.6824478
vn -0.07043102 0.9958365 -0.05787085
vn -0.7016352 0.1166015 -0.7029312
vn -0.6262713 0.4560783 -0.6322792
vn -0.4947459 0.7122131 -0.497975
vn -0.2501368 0.9338211 -0.2557527
vn -0.001021532 0.9998593 -0.0167431
vn -0.004890563 0.9999801 -0.004006806
vn 0.006091556 0.9999804 0.001463988
vn 0.008526022 0.9999157 0.009795016
vn 0.1550368 0.9845968 0.0808254
vn 0.1701951 0.9727697 0.15733
vn 0.5178173 0.6796336 0.5195803
vn 0.6946828 0.1234475 0.7086441
vn 0.6749992 -0.1455863 0.7233123
vn 0.3383216 0.8753574 0.3453807
vn 0.7476889 0.1986543 0.6336386
vn 0.7366199 -0.1945056 0.6477334
vn 0.4126256 -0.8122908 0.4122181
vn 0.1828186 -0.9368311 0.2982031
vn 0.6904725 -0.2239851 0.687807
vn 0.2192344 0.182521 0.9584479
vn 0.1003776 -0.08105583 0.9916422
vn 0.03079531 0.01983233 0.999329
vn 0.00654901 -0.02853322 0.9995714
vn 0.1496496 -0.6614915 0.7348701
vn 0.000407814 0.1820303 0.9832929
vn -0.01723546 0.7028227 0.7111562
vn -0.005020238 -0.01156768 0.9999205
vn -0.00556265 -0.01912275 0.9998017
vn 0.09647804 0.002720936 0.9953313
vn 0.04082106 -0.1795773 0.9828965
vn 0.02504578 -0.02208876 0.9994423
vn 0.005857087 -0.3108727 0.9504335
vn 0.04085695 -0.9154463 0.4003609
vn -0.03405816 -0.5519117 0.8332068
vn -0.0006164479 -0.02923197 0.9995725
vn -0.01349902 -0.03244481 0.9993824
vn -0.01257297 0.07948592 0.9967567
vn -0.02305938 0.7713416 0.6360034
vn 0.8409804 -0.07557347 0.5357617
vn 0.04265152 -0.998548 0.03290595
vn 0.7311971 -0.01905094 0.6819001
vn 0.673501 -0.3203772 0.6661493
vn 0.7066906 -0.00551084 0.7075012
vn 0.6607212 -0.3541402 0.66184
vn 0.01369376 -0.9998139 0.01359245
vn -0.0008779967 -0.9999964 -0.00251494
vn -0.008351349 -0.999928 -0.008618275
vn -0.013064 -0.9992554 -0.03630342
vn 0.2555449 -0.9231531 -0.2872025
vn -0.1048563 -0.9915826 -0.07595444
vn -0.2549619 0.1912718 -0.9478446
vn 0.003840572 0.9884688 -0.1513759
vn -0.5274737 -0.679905 -0.5094121
vn -0.7065966 0.2810985 -0.6493883
vn -0.5661392 -0.5854436 -0.580295
vn -0.7109312 0.03804493 -0.7022318
vn -0.5375437 0.6059673 -0.5863877
vn -0.7031357 0.09638699 -0.7044925
vn -0.05712515 0.9963998 -0.06264327
vn 0.01186652 0.9999197 -0.004453798
vn 0.04717289 0.9987826 0.01442538
vn 0.05419739 0.9972456 0.05063421
vn 0.5686451 0.5533165 0.6086736
vn 0.1644164 0.9712523 0.1721518
vn 0.01110301 0.9998589 0.0126062
vn -0.0007106418 0.9999995 0.0007817146
vn -0.06993192 0.9962987 -0.04998318
vn -0.1098014 0.9854278 -0.1299066
vn -0.6344379 0.3474308 -0.6904928
vn -0.3620275 0.8580056 -0.3643659
vn -0.6368616 0.4195273 -0.6468418
vn -0.07047196 0.9957153 -0.05987274
vn -0.290994 0.9153143 -0.2784282
vn -0.4864921 0.728713 -0.481978
vn -0.3191773 0.8887801 -0.3289314
vn 0.9999728 0.005767685 0.004605687
vn 0.9980349 -0.06258034 -0.003178788
vn 0.9998266 -0.01715567 0.007241267
vn 0.9998407 0.008442021 -0.01572181
vn 0.7325279 -0.6796186 -0.03900661
vn 0.9996743 -0.01687131 -0.0191441
vn 0.9969888 -0.07634234 0.01360504
vn 0.9998192 -0.01776503 0.006791449
vn 0.9911743 -0.1323455 -0.007628326
vn 0.5062772 -0.8617272 0.03331257
vn 0.9999359 0.0110386 -0.002537419
vn 0.9999758 -0.006838283 -0.001291285
vn -0.3512504 0.5844574 0.7314593
vn -0.04558216 0.01916419 0.9987767
vn -0.9863958 0.03789536 0.1599603
vn 0.1242832 -0.001808562 0.9922451
vn -0.9926751 0.00201126 0.1207978
vn -0.9764047 0.001480091 0.2159439
vn -0.9886655 -0.000734011 0.1501334
vn -0.4937101 -0.0006694585 0.8696263
vn -0.1506924 -0.00121843 0.9885799
vn 0.05816351 -0.001365017 0.9983062
vn 0.02217176 -0.001324043 0.9997533
vn 0.03270002 -0.005842672 0.9994481
vn 0.7513458 -0.003110808 0.6599014
vn 0.9591171 0.003015521 0.2829933
vn 0.8329082 -0.005411638 0.5533847
vn 0.3945909 0.0002056866 0.9188569
vn 0.3441624 0.006729502 0.938886
vn 0.5432829 -0.001085328 0.8395491
vn 0.3422482 0.003939419 0.9396013
vn 0.2753536 0.001009733 0.9613425
vn 0.087883 0.02264328 0.9958734
vn 0.4037711 0.008342123 0.9148219
vn -0.2346465 -0.001832866 0.972079
vn -0.650785 -0.0001264833 0.759262
vn -0.770844 0.008316857 0.6369696
vn -0.5622842 -0.0003207786 0.8269439
vn -0.8848857 -0.002903679 0.4657991
vn 0.30901 -0.5099124 0.8028089
vn 0.6805655 -0.7294989 0.06827877
vn 0.05724084 -0.9958233 0.07113093
vn -0.009484199 -0.9995364 0.02893171
vn 0.6680113 -0.7438415 0.02146668
vn 0.01686159 -0.9998368 -0.006482158
vn 0.02721391 -0.9996007 -0.00761002
usemtl Mat_Workbench
f 1/1/1 3/3/3 2/2/2 
f 2/2/2 4/4/4 1/1/1 
f 1/1/1 4/4/4 5/5/5 
f 6/6/6 8/8/8 7/7/7 
f 9/9/9 7/7/7 8/8/8 
f 10/10/10 7/7/7 9/9/9 
f 11/11/11 13/13/13 12/12/12 
f 14/14/14 11/11/11 12/12/12 
f 14/14/14 15/15/15 11/11/11 
f 15/15/15 14/14/14 16/16/16 
f 16/16/16 17/17/17 15/15/15 
f 12/12/12 18/18/18 14/14/14 
f 16/16/16 14/14/14 19/19/19 
f 19/19/19 14/14/14 18/18/18 
f 20/20/20 16/16/16 19/19/19 
f 18/18/18 20/20/20 19/19/19 
f 16/16/16 20/20/20 21/21/21 
f 22/22/22 18/18/18 12/12/12 
f 22/22/22 20/20/20 18/18/18 
f 23/23/23 22/22/22 12/12/12 
f 24/24/24 20/20/20 22/22/22 
f 24/24/24 22/22/22 23/23/23 
f 21/21/21 20/20/20 25/25/25 
f 25/25/25 20/20/20 24/24/24 
f 26/26/26 21/21/21 25/25/25 
f 27/27/27 21/21/21 26/26/26 
f 26/26/26 25/25/25 28/28/28 
f 25/25/25 24/24/24 28/28/28 
f 27/27/27 26/26/26 28/28/28 
f 23/23/23 29/29/29 24/24/24 
f 29/29/29 28/28/28 24/24/24 
f 30/30/30 29/29/29 23/23/23 
f 31/31/31 30/30/30 23/23/23 
f 28/28/28 29/29/29 32/32/32 
f 30/30/30 32/32/32 29/29/29 
f 32/32/32 27/27/27 28/28/28 
f 32/32/32 30/30/30 31/31/31 
f 33/33/33 27/27/27 32/32/32 
f 33/33/33 32/32/32 31/31/31 
f 34/34/34 27/27/27 33/33/33 
f 35/35/35 27/27/27 34/34/34 
f 33/33/33 31/31/31 36/36/36 
f 31/31/31 37/37/37 36/36/36 
f 34/34/34 33/33/33 38/38/38 
f 39/39/39 34/34/34 38/38/38 
f 39/39/39 35/35/35 34/34/34 
f 40/40/40 38/38/38 33/33/33 
f 39/39/39 38/38/38 40/40/40 
f 36/36/36 40/40/40 33/33/33 
f 35/35/35 39/39/39 40/40/40 
f 36/36/36 35/35/35 40/40/40 
f 37/37/37 41/41/41 36/36/36 
f 41/41/41 35/35/35 36/36/36 
f 37/37/37 42/42/42 41/41/41 
f 42/42/42 37/37/37 43/43/43 
f 42/42/42 43/43/43 44/44/44 
f 42/42/42 45/45/45 41/41/41 
f 45/45/45 35/35/35 41/41/41 
f 42/42/42 44/44/44 45/45/45 
f 46/46/46 35/35/35 45/45/45 
f 35/35/35 46/46/46 47/47/47 
f 45/45/45 44/44/44 48/48/48 
f 45/45/45 48/48/48 46/46/46 
f 47/47/47 46/46/46 48/48/48 
f 49/49/49 48/48/48 44/44/44 
f 48/48/48 49/49/49 47/47/47 
f 50/50/50 52/52/52 51/51/51 
f 52/52/52 53/53/53 51/51/51 
f 54/54/54 51/51/51 53/53/53 
f 55/55/55 57/57/57 56/56/56 
f 55/55/55 56/56/56 58/58/58 
f 56/56/56 59/59/59 58/58/58 
f 55/55/55 58/58/58 60/60/60 
f 55/55/55 60/60/60 61/61/61 
f 61/61/61 60/60/60 62/62/62 
f 59/59/59 63/63/63 58/58/58 
f 63/63/63 60/60/60 58/58/58 
f 63/63/63 59/59/59 64/64/64 
f 62/62/62 60/60/60 65/65/65 
f 65/65/65 60/60/60 63/63/63 
f 62/62/62 65/65/65 66/66/66 
f 67/67/67 66/66/66 65/65/65 
f 65/65/65 68/68/68 67/67/67 
f 63/63/63 68/68/68 65/65/65 
f 68/68/68 63/63/63 69/69/69 
f 69/69/69 63/63/63 64/64/64 
f 69/69/69 70/70/70 68/68/68 
f 69/69/69 64/64/64 71/71/71 
f 69/69/69 71/71/71 70/70/70 
f 71/71/71 64/64/64 72/72/72 
f 64/64/64 73/73/73 72/72/72 
f 70/70/70 71/71/71 74/74/74 
f 75/75/75 70/70/70 74/74/74 
f 71/71/71 72/72/72 76/76/76 
f 72/72/72 73/73/73 76/76/76 
f 74/74/74 71/71/71 76/76/76 
f 76/76/76 77/77/77 74/74/74 
f 76/76/76 73/73/73 77/77/77 
f 75/75/75 74/74/74 78/78/78 
f 74/74/74 77/77/77 78/78/78 
f 78/78/78 79/79/79 75/75/75 
f 79/79/79 80/80/80 75/75/75 
f 79/79/79 81/81/81 80/80/80 
f 81/81/81 82/82/82 80/80/80 
f 80/80/80 82/82/82 83/83/83 
f 84/84/84 83/83/83 82/82/82 
f 82/82/82 85/85/85 84/84/84 
f 86/86/86 81/81/81 73/73/73 
f 86/86/86 87/87/87 81/81/81 
f 87/87/87 88/88/88 81/81/81 
f 81/81/81 88/88/88 82/82/82 
f 89/89/89 82/82/82 88/88/88 
f 82/82/82 90/90/90 85/85/85 
f 82/82/82 89/89/89 90/90/90 
f 90/90/90 91/91/91 85/85/85 
f 91/91/91 90/90/90 89/89/89 
f 78/78/78 92/92/92 79/79/79 
f 77/77/77 92/92/92 78/78/78 
f 92/92/92 93/93/93 79/79/79 
f 93/93/93 81/81/81 79/79/79 
f 77/77/77 93/93/93 92/92/92 
f 94/94/94 73/73/73 81/81/81 
f 77/77/77 73/73/73 94/94/94 
f 94/94/94 81/81/81 93/93/93 
f 94/94/94 93/93/93 77/77/77 
f 95/95/95 97/97/97 96/96/96 
f 95/95/95 98/98/98 97/97/97 
f 95/95/95 99/99/99 98/98/98 
f 97/97/97 98/98/98 100/100/100 
f 98/98/98 99/99/99 101/101/101 
f 100/100/100 98/98/98 101/101/101 
f 100/100/100 101/101/101 102/102/102 
f 103/103/103 105/105/105 104/104/104 
f 106/106/106 105/105/105 103/103/103 
f 107/107/107 105/105/105 106/106/106 
f 107/107/107 108/108/108 105/105/105 
f 109/109/109 111/111/111 110/110/110 
f 111/111/111 112/112/112 110/110/110 
f 111/111/111 113/113/113 112/112/112 
f 113/113/113 114/114/114 112/112/112 
f 114/114/114 113/113/113 115/115/115 
f 110/110/110 112/112/112 116/116/116 
f 112/112/112 114/114/114 117/117/117 
f 112/112/112 117/117/117 116/116/116 
f 116/116/116 118/118/118 110/110/110 
f 116/116/116 117/117/117 119/119/119 
f 116/116/116 119/119/119 118/118/118 
f 118/118/118 120/120/120 110/110/110 
f 110/110/110 120/120/120 121/121/121 
f 119/119/119 122/122/122 118/118/118 
f 117/117/117 122/122/122 119/119/119 
f 122/122/122 123/123/123 118/118/118 
f 118/118/118 123/123/123 120/120/120 
f 117/117/117 124/124/124 122/122/122 
f 124/124/124 123/123/123 122/122/122 
f 117/117/117 125/125/125 124/124/124 
f 125/125/125 123/123/123 124/124/124 
f 114/114/114 125/125/125 117/117/117 
f 126/126/126 123/123/123 125/125/125 
f 126/126/126 127/127/127 123/123/123 
f 114/114/114 128/128/128 125/125/125 
f 128/128/128 126/126/126 125/125/125 
f 129/129/129 127/127/127 126/126/126 
f 129/129/129 126/126/126 128/128/128 
f 114/114/114 130/130/130 128/128/128 
f 130/130/130 114/114/114 115/115/115 
f 128/128/128 131/131/131 129/129/129 
f 129/129/129 131/131/131 127/127/127 
f 130/130/130 131/131/131 128/128/128 
f 130/130/130 127/127/127 131/131/131 
f 130/130/130 115/115/115 132/132/132 
f 130/130/130 132/132/132 127/127/127 
f 115/115/115 133/133/133 132/132/132 
f 132/132/132 133/133/133 127/127/127 
f 133/133/133 134/134/134 127/127/127 
f 123/123/123 127/127/127 134/134/134 
f 133/133/133 135/135/135 134/134/134 
f 134/134/134 136/136/136 123/123/123 
f 134/134/134 135/135/135 137/137/137 
f 134/134/134 137/137/137 136/136/136 
f 137/137/137 135/135/135 138/138/138 
f 137/137/137 139/139/139 136/136/136 
f 137/137/137 138/138/138 139/139/139 
f 140/140/140 139/139/139 138/138/138 
f 136/136/136 139/139/139 141/141/141 
f 136/136/136 141/141/141 123/123/123 
f 141/141/141 139/139/139 140/140/140 
f 135/135/135 142/142/142 138/138/138 
f 135/135/135 143/143/143 142/142/142 
f 142/142/142 143/143/143 144/144/144 
f 145/145/145 142/142/142 144/144/144 
f 144/144/144 146/146/146 145/145/145 
f 146/146/146 144/144/144 147/147/147 
f 138/138/138 142/142/142 148/148/148 
f 140/140/140 138/138/138 148/148/148 
f 148/148/148 142/142/142 145/145/145 
f 149/149/149 140/140/140 148/148/148 
f 149/149/149 148/148/148 121/121/121 
f 123/123/123 141/141/141 150/150/150 
f 150/150/150 141/141/141 140/140/140 
f 151/151/151 149/149/149 121/121/121 
f 121/121/121 120/120/120 151/151/151 
f 152/152/152 151/151/151 120/120/120 
f 152/152/152 149/149/149 151/151/151 
f 120/120/120 123/123/123 153/153/153 
f 120/120/120 153/153/153 152/152/152 
f 123/123/123 150/150/150 154/154/154 
f 153/153/153 123/123/123 154/154/154 
f 155/155/155 150/150/150 140/140/140 
f 154/154/154 150/150/150 155/155/155 
f 156/156/156 155/155/155 140/140/140 
f 154/154/154 155/155/155 156/156/156 
f 140/140/140 149/149/149 156/156/156 
f 154/154/154 156/156/156 157/157/157 
f 154/154/154 157/157/157 153/153/153 
f 158/158/158 157/157/157 156/156/156 
f 156/156/156 149/149/149 158/158/158 
f 157/157/157 158/158/158 153/153/153 
f 153/153/153 159/159/159 152/152/152 
f 159/159/159 153/153/153 158/158/158 
f 160/160/160 158/158/158 149/149/149 
f 160/160/160 149/149/149 152/152/152 
f 159/159/159 158/158/158 160/160/160 
f 159/159/159 160/160/160 152/152/152 
f 161/161/161 163/163/163 162/162/162 
f 163/163/163 164/164/164 162/162/162 
f 165/165/165 162/162/162 164/164/164 
f 165/165/165 164/164/164 166/166/166 
f 164/164/164 163/163/163 167/167/167 
f 168/168/168 167/167/167 163/163/163 
f 164/164/164 167/167/167 169/169/169 
f 167/167/167 170/170/170 169/169/169 
f 171/171/171 173/173/173 172/172/172 
f 173/173/173 174/174/174 172/172/172 
f 174/174/174 175/175/175 172/172/172 
f 176/176/176 178/178/178 177/177/177 
f 179/179/179 178/178/178 176/176/176 
f 176/176/176 180/180/180 179/179/179 
f 181/181/181 178/178/178 179/179/179 
f 180/180/180 182/182/182 179/179/179 
f 182/182/182 181/181/181 179/179/179 
f 183/183/183 178/178/178 181/181/181 
f 184/184/184 178/178/178 183/183/183 
f 185/185/185 182/182/182 180/180/180 
f 182/182/182 185/185/185 181/181/181 
f 181/181/181 185/185/185 186/186/186 
f 187/187/187 183/183/183 181/181/181 
f 186/186/186 187/187/187 181/181/181 
f 186/186/186 185/185/185 188/188/188 
f 188/188/188 185/185/185 180/180/180 
f 189/189/189 187/187/187 186/186/186 
f 189/189/189 183/183/183 187/187/187 
f 188/188/188 189/189/189 186/186/186 
f 184/184/184 183/183/183 190/190/190 
f 190/190/190 183/183/183 189/189/189 
f 191/191/191 189/189/189 188/188/188 
f 189/189/189 191/191/191 190/190/190 
f 192/192/192 184/184/184 190/190/190 
f 191/191/191 192/192/192 190/190/190 
f 193/193/193 184/184/184 192/192/192 
f 191/191/191 193/193/193 192/192/192 
f 194/194/194 193/193/193 191/191/191 
f 191/191/191 188/188/188 195/195/195 
f 195/195/195 188/188/188 180/180/180 
f 195/195/195 194/194/194 191/191/191 
f 196/196/196 194/194/194 195/195/195 
f 196/196/196 197/197/197 194/194/194 
f 198/198/198 195/195/195 180/180/180 
f 198/198/198 196/196/196 195/195/195 
f 196/196/196 198/198/198 199/199/199 
f 198/198/198 180/180/180 200/200/200 
f 200/200/200 201/201/201 198/198/198 
f 201/201/201 199/199/199 198/198/198 
f 202/202/202 201/201/201 200/200/200 
f 203/203/203 202/202/202 200/200/200 
f 203/203/203 204/204/204 202/202/202 
f 202/202/202 205/205/205 201/201/201 
f 201/201/201 206/206/206 199/199/199 
f 205/205/205 206/206/206 201/201/201 
f 204/204/204 207/207/207 202/202/202 
f 202/202/202 207/207/207 205/205/205 
f 204/204/204 208/208/208 207/207/207 
f 209/209/209 199/199/199 206/206/206 
f 205/205/205 209/209/209 206/206/206 
f 210/210/210 209/209/209 205/205/205 
f 209/209/209 210/210/210 199/199/199 
f 205/205/205 211/211/211 210/210/210 
f 211/211/211 199/199/199 210/210/210 
f 205/205/205 207/207/207 211/211/211 
f 199/199/199 212/212/212 196/196/196 
f 212/212/212 199/199/199 211/211/211 
f 196/196/196 212/212/212 213/213/213 
f 211/211/211 213/213/213 212/212/212 
f 211/211/211 207/207/207 214/214/214 
f 211/211/211 214/214/214 213/213/213 
f 215/215/215 196/196/196 213/213/213 
f 214/214/214 215/215/215 213/213/213 
f 197/197/197 196/196/196 215/215/215 
f 207/207/207 216/216/216 214/214/214 
f 216/216/216 215/215/215 214/214/214 
f 207/207/207 208/208/208 216/216/216 
f 216/216/216 217/217/217 215/215/215 
f 217/217/217 197/197/197 215/215/215 
f 216/216/216 208/208/208 217/217/217 
f 218/218/218 197/197/197 217/217/217 
f 217/217/217 208/208/208 219/219/219 
f 218/218/218 217/217/217 219/219/219 
f 220/220/220 197/197/197 218/218/218 
f 221/221/221 197/197/197 220/220/220 
f 222/222/222 218/218/218 219/219/219 
f 222/222/222 219/219/219 208/208/208 
f 208/208/208 223/223/223 222/222/222 
f 224/224/224 220/220/220 218/218/218 
f 222/222/222 224/224/224 218/218/218 
f 225/225/225 220/220/220 224/224/224 
f 222/222/222 225/225/225 224/224/224 
f 221/221/221 220/220/220 225/225/225 
f 222/222/222 223/223/223 225/225/225 
f 226/226/226 221/221/221 225/225/225 
f 226/226/226 225/225/225 223/223/223 
f 227/227/227 221/221/221 226/226/226 
f 228/228/228 223/223/223 208/208/208 
f 204/204/204 228/228/228 208/208/208 
f 226/226/226 229/229/229 227/227/227 
f 229/229/229 226/226/226 230/230/230 
f 230/230/230 226/226/226 223/223/223 
f 229/229/229 230/230/230 231/231/231 
f 230/230/230 223/223/223 231/231/231 
f 227/227/227 229/229/229 231/231/231 
f 231/231/231 223/223/223 232/232/232 
f 232/232/232 223/223/223 228/228/228 
f 227/227/227 231/231/231 233/233/233 
f 232/232/232 233/233/233 231/231/231 
f 227/227/227 233/233/233 234/234/234 
f 234/234/234 235/235/235 227/227/227 
f 235/235/235 234/234/234 236/236/236 
f 237/237/237 235/235/235 236/236/236 
f 238/238/238 235/235/235 237/237/237 
f 239/239/239 238/238/238 237/237/237 
f 239/239/239 237/237/237 236/236/236 
f 240/240/240 238/238/238 239/239/239 
f 240/240/240 239/239/239 241/241/241 
f 236/236/236 241/241/241 239/239/239 
f 236/236/236 242/242/242 241/241/241 
f 236/236/236 243/243/243 242/242/242 
f 242/242/242 243/243/243 203/203/203 
f 236/236/236 244/244/244 243/243/243 
f 244/244/244 203/203/203 243/243/243 
f 236/236/236 245/245/245 244/244/244 
f 236/236/236 234/234/234 245/245/245 
f 246/246/246 203/203/203 244/244/244 
f 245/245/245 246/246/246 244/244/244 
f 234/234/234 247/247/247 245/245/245 
f 245/245/245 247/247/247 246/246/246 
f 248/248/248 203/203/203 246/246/246 
f 247/247/247 248/248/248 246/246/246 
f 248/248/248 204/204/204 203/203/203 
f 249/249/249 247/247/247 234/234/234 
f 249/249/249 248/248/248 247/247/247 
f 234/234/234 233/233/233 249/249/249 
f 248/248/248 250/250/250 204/204/204 
f 249/249/249 250/250/250 248/248/248 
f 249/249/249 233/233/233 251/251/251 
f 233/233/233 232/232/232 251/251/251 
f 250/250/250 252/252/252 204/204/204 
f 228/228/228 204/204/204 252/252/252 
f 249/249/249 253/253/253 250/250/250 
f 250/250/250 253/253/253 252/252/252 
f 251/251/251 253/253/253 249/249/249 
f 252/252/252 253/253/253 228/228/228 
f 232/232/232 254/254/254 251/251/251 
f 254/254/254 232/232/232 228/228/228 
f 251/251/251 254/254/254 253/253/253 
f 253/253/253 254/254/254 228/228/228 
f 255/255/255 257/257/257 256/256/256 
f 255/255/255 256/256/256 258/258/258 
f 258/258/258 259/259/259 255/255/255 
f 258/258/258 256/256/256 260/260/260 
f 261/261/261 260/260/260 256/256/256 
f 258/258/258 262/262/262 259/259/259 
f 260/260/260 262/262/262 258/258/258 
f 263/263/263 259/259/259 262/262/262 
f 264/264/264 262/262/262 260/260/260 
f 262/262/262 264/264/264 263/263/263 
f 265/265/265 259/259/259 263/263/263 
f 264/264/264 265/265/265 263/263/263 
f 265/265/265 266/266/266 259/259/259 
f 264/264/264 260/260/260 267/267/267 
f 265/265/265 264/264/264 267/267/267 
f 260/260/260 268/268/268 267/267/267 
f 269/269/269 265/265/265 267/267/267 
f 266/266/266 265/265/265 270/270/270 
f 270/270/270 265/265/265 269/269/269 
f 271/271/271 269/269/269 267/267/267 
f 271/271/271 267/267/267 268/268/268 
f 272/272/272 269/269/269 271/271/271 
f 270/270/270 269/269/269 272/272/272 
f 272/272/272 271/271/271 268/268/268 
f 272/272/272 273/273/273 270/270/270 
f 273/273/273 272/272/272 268/268/268 
f 266/266/266 270/270/270 273/273/273 
f 274/274/274 273/273/273 268/268/268 
f 266/266/266 273/273/273 275/275/275 
f 275/275/275 273/273/273 274/274/274 
f 276/276/276 275/275/275 274/274/274 
f 277/277/277 266/266/266 275/275/275 
f 275/275/275 276/276/276 278/278/278 
f 278/278/278 277/277/277 275/275/275 
f 279/279/279 278/278/278 276/276/276 
f 279/279/279 280/280/280 278/278/278 
f 281/281/281 280/280/280 279/279/279 
f 282/282/282 277/277/277 278/278/278 
f 280/280/280 282/282/282 278/278/278 
f 283/283/283 277/277/277 282/282/282 
f 280/280/280 283/283/283 282/282/282 
f 277/277/277 283/283/283 284/284/284 
f 285/285/285 280/280/280 281/281/281 
f 285/285/285 281/281/281 286/286/286 
f 286/286/286 284/284/284 285/285/285 
f 284/284/284 283/283/283 287/287/287 
f 287/287/287 283/283/283 280/280/280 
f 284/284/284 287/287/287 285/285/285 
f 285/285/285 287/287/287 280/280/280 
f 288/288/288 290/290/290 289/289/289 
f 290/290/290 291/291/291 289/289/289 
f 291/291/291 292/292/292 289/289/289 
f 293/293/293 291/291/291 290/290/290 
f 290/290/290 294/294/294 293/293/293 
f 295/295/295 293/293/293 294/294/294 
f 293/293/293 295/295/295 291/291/291 
f 291/291/291 295/295/295 296/296/296 
f 297/297/297 299/299/299 298/298/298 
f 298/298/298 299/299/299 300/300/300 
f 301/301/301 298/298/298 300/300/300 
f 300/300/300 302/302/302 301/301/301 
f 300/300/300 303/303/303 302/302/302 
f 299/299/299 303/303/303 300/300/300 
f 302/302/302 303/303/303 304/304/304 
f 303/303/303 305/305/305 304/304/304 
f 299/299/299 305/305/305 303/303/303 
f 306/306/306 305/305/305 299/299/299 
f 307/307/307 309/309/309 308/308/308 
f 310/310/310 308/308/308 309/309/309 
f 311/311/311 310/310/310 309/309/309 
f 312/312/312 310/310/310 311/311/311 
f 310/310/310 312/312/312 313/313/313 
f 308/308/308 310/310/310 313/313/313 
f 314/314/314 308/308/308 313/313/313 
f 313/313/313 315/315/315 314/314/314 
f 314/314/314 315/315/315 316/316/316 
f 314/314/314 316/316/316 317/317/317 
f 318/318/318 316/316/316 315/315/315 
f 316/316/316 319/319/319 317/317/317 
f 319/319/319 320/320/320 317/317/317 
f 318/318/318 321/321/321 316/316/316 
f 322/322/322 321/321/321 318/318/318 
f 323/323/323 319/319/319 316/316/316 
f 316/316/316 321/321/321 323/323/323 
f 324/324/324 323/323/323 321/321/321 
f 319/319/319 323/323/323 325/325/325 
f 319/319/319 325/325/325 320/320/320 
f 323/323/323 326/326/326 325/325/325 
f 324/324/324 326/326/326 323/323/323 
f 325/325/325 327/327/327 320/320/320 
f 326/326/326 327/327/327 325/325/325 
f 327/327/327 328/328/328 320/320/320 
f 329/329/329 320/320/320 328/328/328 
f 330/330/330 329/329/329 328/328/328 
f 331/331/331 329/329/329 330/330/330 
f 331/331/331 330/330/330 332/332/332 
f 330/330/330 333/333/333 332/332/332 
f 333/333/333 330/330/330 334/334/334 
f 334/334/334 330/330/330 328/328/328 
f 335/335/335 333/333/333 334/334/334 
f 334/334/334 336/336/336 335/335/335 
f 336/336/336 322/322/322 335/335/335 
f 337/337/337 322/322/322 336/336/336 
f 321/321/321 322/322/322 337/337/337 
f 336/336/336 334/334/334 338/338/338 
f 337/337/337 336/336/336 338/338/338 
f 337/337/337 339/339/339 321/321/321 
f 337/337/337 338/338/338 339/339/339 
f 339/339/339 324/324/324 321/321/321 
f 324/324/324 339/339/339 338/338/338 
f 334/334/334 340/340/340 338/338/338 
f 328/328/328 340/340/340 334/334/334 
f 340/340/340 324/324/324 338/338/338 
f 341/341/341 340/340/340 328/328/328 
f 341/341/341 324/324/324 340/340/340 
f 327/327/327 341/341/341 328/328/328 
f 342/342/342 324/324/324 341/341/341 
f 324/324/324 342/342/342 326/326/326 
f 343/343/343 341/341/341 327/327/327 
f 343/343/343 327/327/327 326/326/326 
f 341/341/341 343/343/343 342/342/342 
f 326/326/326 342/342/342 343/343/343 
f 344/344/344 346/346/346 345/345/345 
f 345/345/345 347/347/347 344/344/344 
f 346/346/346 348/348/348 345/345/345 
f 349/349/349 347/347/347 345/345/345 
f 348/348/348 349/349/349 345/345/345 
f 350/350/350 352/352/352 351/351/351 
f 350/350/350 353/353/353 352/352/352 
f 352/352/352 354/354/354 351/351/351 
f 355/355/355 352/352/352 353/353/353 
f 352/352/352 355/355/355 354/354/354 
f 356/356/356 358/358/358 357/357/357 
f 356/356/356 357/357/357 143/143/143 
f 359/359/359 143/143/143 357/357/357 
f 143/143/143 359/359/359 144/144/144 
f 357/357/357 358/358/358 360/360/360 
f 360/360/360 358/358/358 361/361/361 
f 361/361/361 358/358/358 362/362/362 
f 361/361/361 362/362/362 363/363/363 
f 363/363/363 364/364/364 361/361/361 
f 365/365/365 364/364/364 363/363/363 
f 365/365/365 366/366/366 364/364/364 
f 365/365/365 363/363/363 367/367/367 
f 368/368/368 365/365/365 367/367/367 
f 368/368/368 367/367/367 145/145/145 
f 145/145/145 369/369/369 368/368/368 
f 368/368/368 369/369/369 365/365/365 
f 145/145/145 146/146/146 369/369/369 
f 369/369/369 370/370/370 365/365/365 
f 146/146/146 370/370/370 369/369/369 
f 371/371/371 365/365/365 370/370/370 
f 146/146/146 371/371/371 370/370/370 
f 372/372/372 365/365/365 371/371/371 
f 372/372/372 366/366/366 365/365/365 
f 146/146/146 372/372/372 371/371/371 
f 146/146/146 366/366/366 372/372/372 
f 146/146/146 373/373/373 366/366/366 
f 147/147/147 373/373/373 146/146/146 
f 147/147/147 374/374/374 373/373/373 
f 373/373/373 374/374/374 366/366/366 
f 147/147/147 375/375/375 374/374/374 
f 374/374/374 375/375/375 366/366/366 
f 147/147/147 144/144/144 375/375/375 
f 375/375/375 376/376/376 366/366/366 
f 375/375/375 144/144/144 376/376/376 
f 366/366/366 376/376/376 364/364/364 
f 144/144/144 377/377/377 376/376/376 
f 144/144/144 359/359/359 377/377/377 
f 359/359/359 376/376/376 377/377/377 
f 376/376/376 359/359/359 378/378/378 
f 376/376/376 378/378/378 364/364/364 
f 359/359/359 357/357/357 378/378/378 
f 357/357/357 379/379/379 378/378/378 
f 357/357/357 360/360/360 379/379/379 
f 379/379/379 360/360/360 380/380/380 
f 380/380/380 378/378/378 379/379/379 
f 360/360/360 361/361/361 380/380/380 
f 378/378/378 381/381/381 364/364/364 
f 378/378/378 380/380/380 381/381/381 
f 380/380/380 361/361/361 382/382/382 
f 361/361/361 364/364/364 382/382/382 
f 381/381/381 380/380/380 382/382/382 
f 382/382/382 364/364/364 381/381/381 
f 383/383/383 385/385/385 384/384/384 
f 383/383/383 386/386/386 385/385/385 
f 384/384/384 385/385/385 387/387/387 
f 385/385/385 386/386/386 388/388/388 
f 389/389/389 387/387/387 385/385/385 
f 385/385/385 388/388/388 389/389/389 
