# exported by StudySceneExporter from mesh 'Box_Cutter_Lock_low'
mtllib materials.mtl
v -0.009390735 -0.0100387 0.001089401
v -3.540039E-05 -0.005937176 0.002081146
v -3.540039E-05 -0.005937176 0.001089401
v -0.009390735 -0.0100387 0.002081146
v -0.004785728 0.004898014 0.002081146
v -0.01414106 0.0007964897 0.002081146
v -0.01414106 0.0007964897 0.001089401
v -0.009390735 -0.0100387 0.001089401
v -0.01414106 0.0007964897 0.001089401
v -0.004785728 0.004898014 0.001089401
v -0.003876152 0.002823324 0.001089401
v -0.004785728 0.004898014 0.001089401
v -0.001081276 -0.003551607 0.001089401
v -3.540039E-05 -0.005937176 0.001089401
v -0.000455246 -0.00327713 0.001089401
v -0.003250122 0.003097792 0.001089401
v -0.004159736 0.005172481 0.002081146
v -0.004159736 0.005172481 0.001089401
v 0.0005905914 -0.005662708 0.002081146
v 0.0005905914 -0.005662708 0.001089401
v 0.01063686 -0.001258259 0.002081146
v 0.005886536 0.009576931 0.002081146
v 0.0005905914 -0.005662708 0.001089401
v -0.004159736 0.005172481 0.001089401
v 0.005886536 0.009576931 0.001089401
v 0.01063686 -0.001258259 0.001089401
v 0.008913536 0.0100387 0.001089401
v 0.01302744 0.0006551647 0.002081146
v 0.01302744 0.0006551647 0.001089401
v 0.01367929 0.006534481 0.002081146
v 0.01414106 0.00350748 0.002081146
v 0.01414106 0.00350748 0.001089401
v 0.01367929 0.006534481 0.001089401
v 0.0117659 0.008925076 0.002081146
v 0.0117659 0.008925076 0.001089401
v 0.008913536 0.0100387 0.002081146
v -0.01139978 -0.0004751682 0.001089401
v -0.01139978 -0.0004751682 -0.002081146
v -0.003876152 0.002823324 0.001089401
v -0.003250122 0.003097792 0.001089401
v 0.006554985 0.007396498 -0.002081146
v 0.006554985 0.007396498 0.001089401
v 0.008765792 0.007797346 -0.002081146
v 0.008765792 0.007797346 0.001089401
v 0.01055693 0.00721673 -0.002081146
v 0.01055693 0.00721673 0.001089401
v 0.01171484 0.005858564 -0.002081146
v 0.01171484 0.005858564 0.001089401
v 0.01192919 0.004086733 -0.002081146
v 0.01192919 0.004086733 0.001089401
v 0.01114262 0.002375975 -0.002081146
v 0.01114262 0.002375975 0.001089401
v 0.009349861 0.001021614 -0.002081146
v 0.009349842 0.001021614 0.001089401
v -0.000455246 -0.00327713 0.001089401
v -0.008604907 -0.00685009 -0.002081146
v -0.001081276 -0.003551607 0.001089401
v -0.008604907 -0.00685009 0.001089401
v -0.01139978 -0.0004751682 0.001089401
v -0.01139978 -0.0004751682 -0.002081146
v -0.004159736 0.005172481 0.001089401
v -0.003250122 0.003097792 0.001089401
v 0.006554985 0.007396498 0.001089401
v 0.005886536 0.009576931 0.001089401
v 0.008765792 0.007797346 0.001089401
v 0.008913536 0.0100387 0.001089401
v 0.01055693 0.00721673 0.001089401
v 0.0117659 0.008925076 0.001089401
v 0.01171484 0.005858564 0.001089401
v 0.01367929 0.006534481 0.001089401
v 0.01192919 0.004086733 0.001089401
v 0.01414106 0.00350748 0.001089401
v 0.01114262 0.002375975 0.001089401
v 0.01302744 0.0006551647 0.001089401
v 0.009349842 0.001021614 0.001089401
v 0.01063686 -0.001258259 0.001089401
v -0.000455246 -0.00327713 0.001089401
v 0.0005905914 -0.005662708 0.001089401
v -0.01414106 0.0007964897 0.001089401
v -0.003876152 0.002823324 0.001089401
v -0.004785728 0.004898014 0.001089401
v -0.01139978 -0.0004751682 0.001089401
v -0.009390735 -0.0100387 0.001089401
v -0.008604907 -0.00685009 0.001089401
v -3.540039E-05 -0.005937176 0.001089401
v -0.001081276 -0.003551607 0.001089401
vt 0.1750674 0.5451204
vt 0.1578543 0.5434608
vt 0.1578517 0.5451343
vt 0.1750695 0.5434463
vt 0.1578007 0.5233667
vt 0.1750649 0.523429
vt 0.1767389 0.5234318
vt 0.176743 0.5434482
vt 0.175067 0.5217549
vt 0.1578033 0.5216932
vt 0.1561248 0.5271925
vt 0.1561275 0.5233651
vt 0.1561807 0.5390533
vt 0.1561797 0.5434574
vt 0.1550473 0.5390834
vt 0.154951 0.5271592
vt 0.1532233 0.5232407
vt 0.1549066 0.523258
vt 0.153433 0.5435801
vt 0.1550984 0.5435693
vt 0.1347575 0.5432221
vt 0.1349508 0.5235579
vt 0.1533158 0.5452571
vt 0.1531098 0.5215633
vt 0.1346374 0.5219053
vt 0.1344753 0.544858
vt 0.1289666 0.523716
vt 0.1297971 0.5418053
vt 0.1289253 0.5431762
vt 0.1251687 0.533456
vt 0.1263411 0.5382458
vt 0.1248995 0.5390265
vt 0.1235257 0.5334845
vt 0.126358 0.5286651
vt 0.1248956 0.5279319
vt 0.1298927 0.5250738
vt 0.1519496 0.6108463
vt 0.1519492 0.6055055
vt 0.1381114 0.6108474
vt 0.13696 0.6108475
vt 0.118925 0.6055081
vt 0.1189255 0.6108489
vt 0.1151402 0.6055084
vt 0.1151406 0.6108491
vt 0.1119684 0.6055087
vt 0.1119688 0.6108495
vt 0.1089619 0.6055089
vt 0.1089624 0.6108497
vt 0.1059555 0.6055092
vt 0.1059559 0.61085
vt 0.1027837 0.6055095
vt 0.1027841 0.6108502
vt 0.09899879 0.6055098
vt 0.0989992 0.6108506
vt 0.0809647 0.610852
vt 0.06597464 0.6055124
vt 0.07981327 0.610852
vt 0.06597508 0.6108532
vt 0.0542497 0.6108541
vt 0.05424926 0.6055133
vt 0.2278938 0.6122055
vt 0.2278937 0.6083895
vt 0.2098592 0.6083901
vt 0.2094158 0.612206
vt 0.2061773 0.6075132
vt 0.2044334 0.6108711
vt 0.2038066 0.605406
vt 0.2007861 0.607224
vt 0.2029388 0.6025276
vt 0.1994509 0.6022418
vt 0.2038065 0.599649
vt 0.2007858 0.5972594
vt 0.206177 0.5975417
vt 0.204433 0.593612
vt 0.2098589 0.5966647
vt 0.2094152 0.5922768
vt 0.2278934 0.5966642
vt 0.2278932 0.5922763
vt 0.2397555 0.5196655
vt 0.2359414 0.5368731
vt 0.2397573 0.5368727
vt 0.2359399 0.5230349
vt 0.2198263 0.5196676
vt 0.2242145 0.5230362
vt 0.2198282 0.5368748
vt 0.224216 0.5368743
vn 0.401523 -0.915849 0
vn 0.05731445 -0.06605126 0.9961688
vn 0.401523 -0.915849 0
vn -0.05480992 -0.114816 0.9918736
vn -0.008796732 0.08732045 0.9961414
vn -0.1215804 0.03748307 0.9918736
vn -0.9158476 -0.4015261 0
vn -0.9158476 -0.4015261 0
vn -0.4015225 0.9158492 0
vn -0.4015225 0.9158492 0
vn 0.8799235 0.3857788 0.2773255
vn 0.9158315 0.4015628 0
vn 0.881102 0.3862958 0.2728275
vn 0.9158234 0.4015812 0
vn -0.881112 -0.3862884 0.2728055
vn -0.8799356 -0.3857735 0.2772946
vn -0.05656293 0.06638803 0.9961894
vn -0.9158315 -0.4015628 0
vn 0.01138121 -0.08618717 0.996214
vn -0.9158521 -0.4015159 0
vn 0.04154347 -0.08177322 0.9957847
vn -0.03199802 0.08596784 0.9957839
vn 0.401527 -0.9158473 0
vn -0.401527 0.9158473 0
vn -0.3488473 0.9371796 0
vn 0.4529112 -0.8915555 0
vn 0.1101973 0.9939097 0
vn 0.3007427 -0.2211341 0.9277141
vn 0.8056513 -0.5923901 0
vn 0.130273 0.05711427 0.9898317
vn 0.3710195 -0.04113727 0.9277135
vn 0.9939094 -0.110201 0
vn 0.9158477 0.4015259 0
vn 0.2211297 0.3007373 0.927717
vn 0.5923893 0.8056519 0
vn 0.0411346 0.3710078 0.9277183
vn -0.401544 0.9158397 0
vn -0.4015328 0.9158447 0
vn -0.4015207 0.91585 -1.694917E-05
vn -0.4015221 0.9158494 -1.210031E-07
vn -0.37386 0.927485 0
vn -0.37386 0.927485 0
vn 0.04487531 0.9989926 0
vn 0.04487531 0.9989926 0
vn 0.5493508 0.8355918 0
vn 0.5493508 0.8355918 0
vn 0.9158487 0.4015236 0
vn 0.9158487 0.4015236 0
vn 0.9867685 -0.1621354 0
vn 0.9867685 -0.1621354 0
vn 0.7651339 -0.6438712 0
vn 0.7651339 -0.6438712 0
vn 0.4288177 -0.9033911 -1.733762E-06
vn 0.4288173 -0.9033912 -1.733765E-06
vn 0.4015178 -0.9158512 -1.979241E-06
vn -0.3987046 -0.9170794 -6.905677E-07
vn 0.4015216 -0.9158495 0
vn -0.5847133 -0.81124 0
vn -0.9158476 -0.4015261 0
vn -0.9158476 -0.4015261 0
vn 0 3.496008E-05 -1
vn 0 3.496008E-05 -1
vn 0 2.817644E-05 -1
vn 0 2.829872E-05 -1
vn 0 5.392035E-06 -1
vn 0 5.192682E-06 -1
vn 0 6.065089E-06 -1
vn 0 6.061624E-06 -1
vn 0 1.856729E-05 -1
vn 0 2.058365E-05 -1
vn 0 1.870785E-05 -1
vn 0 1.558661E-05 -1
vn 0 1.472583E-05 -1
vn 0 1.633287E-05 -1
vn 0 -1.618036E-05 -1
vn 0 -1.670259E-05 -1
vn 0 -2.702602E-05 -1
vn 0 -2.702603E-05 -1
vn 0 1.109238E-05 -1
vn 0 2.741132E-05 -1
vn 0 2.741131E-05 -1
vn 0 9.122469E-06 -1
vn 0 -1.128463E-05 -1
vn 0 -1.109396E-05 -1
vn 0 -1.191954E-05 -1
vn 0 -1.191954E-05 -1
usemtl Mat_Tools
f 1/1/1 3/3/3 2/2/2 
f 1/1/1 2/2/2 4/4/4 
f 5/5/5 4/4/4 2/2/2 
f 5/5/5 6/6/6 4/4/4 
f 4/4/4 6/6/6 7/7/7 
f 4/4/4 7/7/7 8/8/8 
f 5/5/5 9/9/9 6/6/6 
f 5/5/5 10/10/10 9/9/9 
f 11/11/11 5/5/5 2/2/2 
f 5/5/5 11/11/11 12/12/12 
f 11/11/11 2/2/2 13/13/13 
f 2/2/2 14/14/14 13/13/13 
f 11/11/11 13/13/13 15/15/15 
f 11/11/11 15/15/15 16/16/16 
f 15/15/15 17/17/17 16/16/16 
f 17/17/17 18/18/18 16/16/16 
f 15/15/15 19/19/19 17/17/17 
f 19/19/19 15/15/15 20/20/20 
f 17/17/17 19/19/19 21/21/21 
f 17/17/17 21/21/21 22/22/22 
f 23/23/23 21/21/21 19/19/19 
f 22/22/22 24/24/24 17/17/17 
f 22/22/22 25/25/25 24/24/24 
f 23/23/23 26/26/26 21/21/21 
f 27/27/27 25/25/25 22/22/22 
f 26/26/26 28/28/28 21/21/21 
f 26/26/26 29/29/29 28/28/28 
f 30/30/30 21/21/21 28/28/28 
f 22/22/22 21/21/21 30/30/30 
f 29/29/29 31/31/31 28/28/28 
f 30/30/30 28/28/28 31/31/31 
f 29/29/29 32/32/32 31/31/31 
f 32/32/32 30/30/30 31/31/31 
f 32/32/32 33/33/33 30/30/30 
f 33/33/33 34/34/34 30/30/30 
f 22/22/22 30/30/30 34/34/34 
f 33/33/33 35/35/35 34/34/34 
f 35/35/35 27/27/27 36/36/36 
f 27/27/27 22/22/22 36/36/36 
f 35/35/35 36/36/36 34/34/34 
f 22/22/22 34/34/34 36/36/36 
f 37/37/37 39/39/39 38/38/38 
f 39/39/39 40/40/40 38/38/38 
f 40/40/40 41/41/41 38/38/38 
f 40/40/40 42/42/42 41/41/41 
f 43/43/43 41/41/41 42/42/42 
f 43/43/43 42/42/42 44/44/44 
f 45/45/45 43/43/43 44/44/44 
f 45/45/45 44/44/44 46/46/46 
f 47/47/47 45/45/45 46/46/46 
f 47/47/47 46/46/46 48/48/48 
f 49/49/49 47/47/47 48/48/48 
f 49/49/49 48/48/48 50/50/50 
f 51/51/51 49/49/49 50/50/50 
f 51/51/51 50/50/50 52/52/52 
f 53/53/53 51/51/51 52/52/52 
f 53/53/53 52/52/52 54/54/54 
f 53/53/53 54/54/54 55/55/55 
f 53/53/53 55/55/55 56/56/56 
f 56/56/56 55/55/55 57/57/57 
f 56/56/56 57/57/57 58/58/58 
f 59/59/59 56/56/56 58/58/58 
f 59/59/59 60/60/60 56/56/56 
f 61/61/61 63/63/63 62/62/62 
f 61/61/61 64/64/64 63/63/63 
f 64/64/64 65/65/65 63/63/63 
f 64/64/64 66/66/66 65/65/65 
f 66/66/66 67/67/67 65/65/65 
f 66/66/66 68/68/68 67/67/67 
f 68/68/68 69/69/69 67/67/67 
f 68/68/68 70/70/70 69/69/69 
f 70/70/70 71/71/71 69/69/69 
f 70/70/70 72/72/72 71/71/71 
f 72/72/72 73/73/73 71/71/71 
f 72/72/72 74/74/74 73/73/73 
f 74/74/74 75/75/75 73/73/73 
f 74/74/74 76/76/76 75/75/75 
f 76/76/76 77/77/77 75/75/75 
f 76/76/76 78/78/78 77/77/77 
f 79/79/79 81/81/81 80/80/80 
f 79/79/79 80/80/80 82/82/82 
f 82/82/82 83/83/83 79/79/79 
f 82/82/82 84/84/84 83/83/83 
f 85/85/85 83/83/83 84/84/84 
f 85/85/85 84/84/84 86/86/86 
