# exported by StudySceneExporter from mesh 'Box_Cutter_Cap_low'
mtllib materials.mtl
v 0.004096374 0.004389314 -3.814697E-08
v 0.01048023 0.007188082 -3.814697E-08
v 0.01048023 0.007188082 0.00166317
v 0.004096374 0.004389314 0.00166317
v 0.01342674 0.0004672337 0.00166317
v 0.007042885 -0.002331533 0.00166317
v 0.01342674 0.0004672337 -3.814697E-08
v 0.007042885 -0.002331533 -3.814697E-08
v 0.01193016 0.00662199 0.00166317
v 0.01399282 0.0019172 0.00166317
v 0.01401009 0.001074991 0.00166317
v 0.01342674 0.0004672337 -3.814697E-08
v 0.01401009 0.001074991 -3.814697E-08
v 0.01399282 0.0019172 -3.814697E-08
v 0.01193016 0.00662199 -3.814697E-08
v 0.01132244 0.007205334 0.00166317
v 0.01132244 0.007205334 -3.814697E-08
v 0.01048023 0.007188082 -3.814697E-08
v -0.01401009 0.003671179 0.0009513473
v -0.01401009 0.003671179 -0.0009513473
v -0.01196877 0.004550161 -0.003170509
v -0.01196877 0.004550161 0.003170509
v -9.933471E-05 0.009660912 0.003170509
v -9.933471E-05 0.009660912 -0.003170509
v 0.001423035 0.009411965 -0.003170509
v 0.001423035 0.009411965 0.003170509
v 0.002385826 0.00829092 -0.003170509
v 0.002385826 0.00829092 0.003170509
v 0.004096374 0.004389314 0.00166317
v 0.004096374 0.004389314 -3.814697E-08
v 0.007042885 -0.002331533 0.00166317
v 0.009100456 -0.007024727 -0.003170509
v 0.007042885 -0.002331533 -3.814697E-08
v 0.009100456 -0.007024727 0.003170509
v 0.01004484 -0.009178781 0.0009513473
v 0.01004484 -0.009178781 -0.0009513473
v 0.003667278 -0.009660912 -0.0009513473
v 0.01004484 -0.009178781 -0.0009513473
v 0.009100456 -0.007024727 -0.003170509
v 0.003794823 -0.007425804 -0.003170509
v -0.002082558 -0.008558378 -0.0009513473
v 0.002385826 0.00829092 -0.003170509
v -0.001308823 -0.006447191 -0.003170509
v -0.007250099 -0.005646658 -0.0009513473
v -0.005909309 -0.003855 -0.003170509
v 0.001423035 0.009411965 -0.003170509
v -0.01136352 -0.001643791 -0.0009513473
v -0.009545307 -0.0003167057 -0.003170509
v -9.933471E-05 0.009660912 -0.003170509
v -0.01401009 0.003671179 -0.0009513473
v -0.01196877 0.004550161 -0.003170509
v 0.003667278 -0.009660912 -0.0009513473
v 0.01004484 -0.009178781 0.0009513473
v 0.01004484 -0.009178781 -0.0009513473
v 0.003667278 -0.009660912 0.0009513473
v -0.002082558 -0.008558378 -0.0009513473
v 0.003794823 -0.007425804 0.003170509
v 0.009100456 -0.007024727 0.003170509
v 0.002385826 0.00829092 0.003170509
v 0.001423035 0.009411965 0.003170509
v -0.002082558 -0.008558378 0.0009513473
v -0.007250099 -0.005646658 -0.0009513473
v -0.001308823 -0.006447191 0.003170509
v -0.005909309 -0.003855 0.003170509
v -0.007250099 -0.005646658 0.0009513473
v -0.01136352 -0.001643791 -0.0009513473
v -0.009545307 -0.0003167057 0.003170509
v -9.933471E-05 0.009660912 0.003170509
v -0.01196877 0.004550161 0.003170509
v -0.01136352 -0.001643791 0.0009513473
v -0.01401009 0.003671179 -0.0009513473
v -0.01401009 0.003671179 0.0009513473
vt 0.07076442 0.5310488
vt 0.05895939 0.5310774
vt 0.05896226 0.5338969
vt 0.0707664 0.5338663
vt 0.05894201 0.5462587
vt 0.07076335 0.5462704
vt 0.05894436 0.5490782
vt 0.07076573 0.5490879
vt 0.05718294 0.535889
vt 0.05724935 0.5441594
vt 0.0576871 0.5453553
vt 0.05619088 0.5476443
vt 0.05528438 0.546412
vt 0.05446374 0.5448157
vt 0.05462937 0.535289
vt 0.05771922 0.5346849
vt 0.05528958 0.5336844
vt 0.05622876 0.5323319
vt 0.237493 0.6508818
vt 0.2342878 0.6508822
vt 0.2305502 0.6546268
vt 0.2412318 0.6546251
vt 0.2412355 0.676394
vt 0.2305539 0.6763959
vt 0.2305544 0.6789942
vt 0.2412359 0.6789925
vt 0.2305548 0.6814835
vt 0.2412363 0.6814818
vt 0.2386984 0.6886585
vt 0.2358968 0.688659
vt 0.2387005 0.70102
vt 0.2305596 0.7096536
vt 0.2358989 0.7010205
vt 0.2412411 0.7096519
vt 0.2375036 0.7136145
vt 0.2342984 0.7136149
vt 0.1831117 0.5386987
vt 0.1790755 0.5487964
vt 0.1844758 0.5496197
vt 0.1877652 0.5412923
vt 0.1890274 0.5304947
vt 0.2129561 0.5500922
vt 0.1927709 0.5342053
vt 0.1972478 0.5243609
vt 0.1998768 0.5290148
vt 0.2153539 0.5493532
vt 0.2064052 0.5206581
vt 0.2076968 0.5257862
vt 0.216771 0.5471468
vt 0.2164764 0.5197575
vt 0.2167713 0.5251052
vt 0.08437842 0.5368278
vt 0.08196576 0.5254958
vt 0.07912873 0.5271488
vt 0.08698958 0.534956
vt 0.09100068 0.5450212
vt 0.09138456 0.5320077
vt 0.08742511 0.5239527
vt 0.1166105 0.5223767
vt 0.1190525 0.5231252
vt 0.09312433 0.5426586
vt 0.09971517 0.5511005
vt 0.09663105 0.5388204
vt 0.1038189 0.5436685
vt 0.1012576 0.5483055
vt 0.1090896 0.5549381
vt 0.111551 0.5468936
vt 0.1205052 0.5253731
vt 0.1205038 0.5479914
vt 0.1100255 0.5519133
vt 0.119159 0.5566866
vt 0.1198319 0.5535138
vn -0.4015281 0.9158467 0
vn -0.4015281 0.9158467 0
vn -0.08341473 0.2140411 0.9732565
vn -0.0887517 0.202434 0.9752659
vn 0.1009063 -0.2063764 0.9732558
vn 0.08875167 -0.202434 0.9752659
vn 0.4015281 -0.9158467 0
vn 0.4015281 -0.9158467 0
vn 0.6151464 0.3106223 0.7246438
vn 0.6452599 0.2419367 0.7246423
vn 0.921837 -0.3598929 0.1438531
vn 0.7214478 -0.6924687 0
vn 0.9315257 -0.3636754 0
vn 0.9363366 0.3511035 0
vn 0.8926392 0.4507719 0
vn 0.3599015 0.9218337 0.1438528
vn 0.3636934 0.9315187 0
vn -0.02048011 0.9997903 0
vn -0.3954842 0.9184728 0
vn -0.3954842 0.9184728 0
vn -0.3954797 0.9184746 0
vn -0.3954797 0.9184746 0
vn -0.341252 0.9399719 0
vn -0.341252 0.9399719 0
vn 0.4827709 0.8757466 0
vn 0.4827709 0.8757466 0
vn 0.8813348 0.4724923 -3.357218E-06
vn 0.8692588 0.4943573 7.824337E-07
vn 0.9158495 0.4015218 3.204186E-06
vn 0.9158498 0.4015212 -5.377106E-06
vn 0.9158502 0.40152 3.03038E-06
vn 0.9158489 0.401523 -3.177916E-06
vn 0.9158503 0.4015198 -5.203378E-06
vn 0.9158474 0.4015264 6.91905E-07
vn 0.9158473 0.4015267 0
vn 0.9158473 0.4015267 0
vn -0.03736888 -0.7030091 -0.7101984
vn 0.05330206 -0.7051023 -0.7070994
vn 0.02251904 -0.2978915 -0.9543341
vn -0.01060859 -0.1995779 -0.9798245
vn -0.2424918 -0.6592659 -0.7117345
vn 0 0 -1
vn -0.2092193 -0.5688093 -0.7954139
vn -0.4205641 -0.5647511 -0.7100577
vn -0.1129602 -0.1516875 -0.9819526
vn 0 0 -1
vn -0.5688457 -0.4114525 -0.7121247
vn -0.2079965 -0.1504467 -0.9664901
vn 0 0 -1
vn -0.6329795 -0.315176 -0.7071075
vn -0.2041171 -0.1016349 -0.9736562
vn -0.05109023 -0.9986941 0
vn 0.06810404 -0.9009061 0.4286373
vn 0.0753822 -0.9971547 0
vn -0.04642359 -0.889934 0.4537206
vn -0.3451086 -0.9385628 0
vn -0.01060836 -0.1995756 0.979825
vn 0.02251863 -0.2978888 0.954335
vn 0 -2.645536E-06 1
vn 0 -2.190488E-06 1
vn -0.3072492 -0.8354561 0.4556436
vn -0.5974505 -0.8019059 0
vn -0.2092208 -0.5688083 0.7954141
vn -0.1073 -0.1440857 0.9837307
vn -0.5314652 -0.7135023 0.4565733
vn -0.809422 -0.5872273 0
vn -0.2047651 -0.1481095 0.9675406
vn 0 -6.818599E-07 1
vn -0.2386025 -0.1188138 0.9638216
vn -0.720537 -0.5219456 0.4565076
vn -0.8951625 -0.4457399 0
vn -0.7937592 -0.3952461 0.4623061
usemtl Mat_Tools
f 1/1/1 3/3/3 2/2/2 
f 1/1/1 4/4/4 3/3/3 
f 5/5/5 3/3/3 4/4/4 
f 5/5/5 4/4/4 6/6/6 
f 6/6/6 7/7/7 5/5/5 
f 6/6/6 8/8/8 7/7/7 
f 5/5/5 9/9/9 3/3/3 
f 5/5/5 10/10/10 9/9/9 
f 11/11/11 10/10/10 5/5/5 
f 12/12/12 11/11/11 5/5/5 
f 12/12/12 13/13/13 11/11/11 
f 13/13/13 10/10/10 11/11/11 
f 13/13/13 14/14/14 10/10/10 
f 10/10/10 14/14/14 15/15/15 
f 10/10/10 15/15/15 9/9/9 
f 15/15/15 16/16/16 9/9/9 
f 3/3/3 9/9/9 16/16/16 
f 15/15/15 17/17/17 16/16/16 
f 17/17/17 3/3/3 16/16/16 
f 17/17/17 18/18/18 3/3/3 
f 19/19/19 21/21/21 20/20/20 
f 19/19/19 22/22/22 21/21/21 
f 21/21/21 22/22/22 23/23/23 
f 21/21/21 23/23/23 24/24/24 
f 25/25/25 24/24/24 23/23/23 
f 25/25/25 23/23/23 26/26/26 
f 27/27/27 25/25/25 26/26/26 
f 27/27/27 26/26/26 28/28/28 
f 27/27/27 28/28/28 29/29/29 
f 27/27/27 29/29/29 30/30/30 
f 31/31/31 29/29/29 28/28/28 
f 30/30/30 32/32/32 27/27/27 
f 30/30/30 33/33/33 32/32/32 
f 32/32/32 33/33/33 31/31/31 
f 31/31/31 28/28/28 34/34/34 
f 32/32/32 31/31/31 34/34/34 
f 35/35/35 32/32/32 34/34/34 
f 35/35/35 36/36/36 32/32/32 
f 37/37/37 39/39/39 38/38/38 
f 37/37/37 40/40/40 39/39/39 
f 41/41/41 40/40/40 37/37/37 
f 40/40/40 42/42/42 39/39/39 
f 41/41/41 43/43/43 40/40/40 
f 44/44/44 43/43/43 41/41/41 
f 45/45/45 42/42/42 40/40/40 
f 45/45/45 40/40/40 43/43/43 
f 44/44/44 45/45/45 43/43/43 
f 45/45/45 46/46/46 42/42/42 
f 45/45/45 44/44/44 47/47/47 
f 48/48/48 46/46/46 45/45/45 
f 45/45/45 47/47/47 48/48/48 
f 48/48/48 49/49/49 46/46/46 
f 50/50/50 48/48/48 47/47/47 
f 48/48/48 51/51/51 49/49/49 
f 50/50/50 51/51/51 48/48/48 
f 52/52/52 54/54/54 53/53/53 
f 52/52/52 53/53/53 55/55/55 
f 56/56/56 52/52/52 55/55/55 
f 57/57/57 55/55/55 53/53/53 
f 57/57/57 53/53/53 58/58/58 
f 59/59/59 57/57/57 58/58/58 
f 60/60/60 57/57/57 59/59/59 
f 56/56/56 55/55/55 61/61/61 
f 62/62/62 56/56/56 61/61/61 
f 63/63/63 55/55/55 57/57/57 
f 63/63/63 61/61/61 55/55/55 
f 57/57/57 64/64/64 63/63/63 
f 60/60/60 64/64/64 57/57/57 
f 64/64/64 61/61/61 63/63/63 
f 62/62/62 61/61/61 65/65/65 
f 64/64/64 65/65/65 61/61/61 
f 66/66/66 62/62/62 65/65/65 
f 67/67/67 64/64/64 60/60/60 
f 65/65/65 64/64/64 67/67/67 
f 67/67/67 60/60/60 68/68/68 
f 67/67/67 68/68/68 69/69/69 
f 66/66/66 65/65/65 70/70/70 
f 65/65/65 67/67/67 70/70/70 
f 69/69/69 70/70/70 67/67/67 
f 71/71/71 66/66/66 70/70/70 
f 69/69/69 72/72/72 70/70/70 
f 71/71/71 70/70/70 72/72/72 
