# exported by StudySceneExporter from mesh 'cover003'
mtllib materials.mtl
v 0.00442482 -0.00860037 0.00350048
v 0.00480684 -0.008866279 0.00343371
v 0.00439026 -0.00879059 0.00350048
v 0.0048414 -0.00867606 0.00343371
v 0.00509521 -0.008918679 0.00324508
v 0.00717995 0.00656208 0.00350048
v 0.00512978 -0.008728459 0.00324508
v 0.00531032 -0.00895777 0.00296729
v 0.00759653 0.00648638 0.00343371
v 0.00720047 0.00667496 0.00350048
v 0.00761704 0.00659927 0.00343371
v 0.00788491 0.00643398 0.00324508
v 0.00790542 0.00654687 0.00324508
v 0.00534489 -0.00876755 0.00296729
v 0.00540668 -0.00897528 0.00263901
v 0.00810002 0.0063949 0.00296728
v 0.00812053 0.00650778 0.00296728
v 0.00544124 -0.00878506 0.00263901
v 0.00531032 -0.00895777 0.00231073
v 0.00819637 0.00637739 0.00263901
v 0.008216879 0.00649027 0.00263901
v 0.00534489 -0.00876755 0.00231073
v 0.00509521 -0.008918679 0.00203293
v 0.00810002 0.0063949 0.00231073
v 0.00812053 0.00650778 0.00231073
v 0.00512978 -0.008728459 0.00203293
v 0.00480684 -0.008866279 0.0018443
v 0.00788491 0.00643398 0.00203293
v 0.00790542 0.00654687 0.00203293
v 0.0048414 -0.00867606 0.0018443
v 0.00439026 -0.00879059 0.00177754
v 0.00442482 -0.00860037 0.00177754
v 0.00759653 0.00648638 0.0018443
v 0.00761704 0.00659927 0.0018443
v 0.00717996 0.00656208 0.00177754
v 0.00720047 0.00667496 0.00177754
v 0.00755152 0.00661117 0.001925
v 0.0071643 0.00656492 0.00186894
v 0.00718481 0.00667781 0.00186894
v 0.00753101 0.00649829 0.001925
v 0.00779605 0.00656674 0.00208787
v 0.00477588 -0.00866416 0.001925
v 0.00440917 -0.00859752 0.00186894
v 0.00777553 0.00645386 0.00208787
v 0.00799194 0.00653115 0.00234132
v 0.00474132 -0.00885438 0.001925
v 0.0043746 -0.00878774 0.00186894
v 0.00498584 -0.00889881 0.00208788
v 0.0050204 -0.00870859 0.00208788
v 0.00518173 -0.0089344 0.00234132
v 0.00521629 -0.00874418 0.00234132
v 0.00527033 -0.0089505 0.00263901
v 0.00797142 0.00641826 0.00234132
v 0.008080539 0.00651505 0.00263901
v 0.0053049 -0.00876028 0.00263901
v 0.00518173 -0.0089344 0.0029367
v 0.00806003 0.00640216 0.00263901
v 0.00799194 0.00653115 0.0029367
v 0.00521629 -0.00874418 0.0029367
v 0.00498584 -0.00889881 0.00319014
v 0.00797142 0.00641826 0.0029367
v 0.00779605 0.00656674 0.00319014
v 0.0050204 -0.00870859 0.00319014
v 0.00474132 -0.00885438 0.00335302
v 0.00777553 0.00645386 0.00319014
v 0.00755152 0.00661117 0.00335302
v 0.00477588 -0.00866416 0.00335302
v 0.0043746 -0.00878774 0.00340907
v 0.00440917 -0.00859752 0.00340907
v 0.00753101 0.00649829 0.00335302
v 0.00718481 0.00667781 0.00340907
v 0.0071643 0.00656492 0.00340907
v -0.00514525 0.00880166 0.00339693
v 0.00718481 0.00667781 0.00340907
v -0.00512474 0.00891455 0.00339693
v 0.0071643 0.00656492 0.00340907
v -0.00790038 -0.00636078 0.00339694
v 0.00440917 -0.00859752 0.00340907
v -0.00793494 -0.00655101 0.00339694
v 0.0043746 -0.00878774 0.00340907
v -0.00800929 -0.00634099 0.00339683
v -0.00804386 -0.00653121 0.00339683
v -0.00525416 0.008821449 0.00339683
v -0.00815432 -0.00631464 0.00339669
v -0.00818889 -0.00650486 0.00339669
v -0.00539919 0.008847809 0.00339668
v -0.00523365 0.00893434 0.00339683
v -0.00512474 0.00891455 0.00339693
v -0.00537868 0.008960689 0.00339668
v -0.00522973 0.00893362 0.0034888
v -0.0053954 0.008847119 0.00348866
v -0.00537489 0.00896 0.00348866
v -0.00525024 0.00882074 0.0034888
v -0.00512071 0.00891381 0.0034889
v -0.008005369 -0.00634171 0.0034888
v -0.00815053 -0.00631533 0.00348867
v -0.00514122 0.008800929 0.0034889
v -0.00803993 -0.00653193 0.0034888
v -0.0081851 -0.00650555 0.00348867
v -0.00789635 -0.00636152 0.0034889
v -0.00793091 -0.00655174 0.0034889
v 0.00439026 -0.00879059 0.00350048
v 0.00442482 -0.00860037 0.00350048
v 0.00717995 0.00656208 0.00350048
v 0.00720047 0.00667496 0.00350048
v -0.00803993 -0.00653193 0.0034888
v -0.00818707 -0.00650519 0.0034407
v -0.0081851 -0.00650555 0.00348867
v -0.00804198 -0.00653156 0.00344084
v -0.00818889 -0.00650486 0.00339669
v -0.00804386 -0.00653121 0.00339683
v -0.00793091 -0.00655174 0.0034889
v -0.00793302 -0.00655136 0.00344094
v -0.00793494 -0.00655101 0.00339694
v 0.0043746 -0.00878774 0.00340907
v 0.0043821 -0.0087891 0.00345281
v 0.00439026 -0.00879059 0.00350048
v 0.00480684 -0.008866279 0.00343371
v 0.00477267 -0.00886007 0.00339163
v 0.00474132 -0.00885438 0.00335302
v 0.00498584 -0.00889881 0.00319014
v 0.00503817 -0.00890832 0.00321643
v 0.00509521 -0.008918679 0.00324508
v 0.00531032 -0.00895777 0.00296729
v 0.00518173 -0.0089344 0.0029367
v 0.00524326 -0.00894558 0.00295133
v 0.00540668 -0.00897528 0.00263901
v 0.00533557 -0.00896236 0.00263901
v 0.00527033 -0.0089505 0.00263901
v 0.00518173 -0.0089344 0.00234132
v 0.00524326 -0.00894558 0.00232668
v 0.00531032 -0.00895777 0.00231073
v 0.00509521 -0.008918679 0.00203293
v 0.00498584 -0.00889881 0.00208788
v 0.00503817 -0.00890832 0.00206159
v 0.00480684 -0.008866279 0.0018443
v 0.00477267 -0.00886007 0.00188639
v 0.00474132 -0.00885438 0.001925
v 0.0043746 -0.00878774 0.00186894
v 0.0043821 -0.0087891 0.00182521
v 0.00439026 -0.00879059 0.00177754
v -0.00793181 -0.00655157 0.00177734
v -0.00793196 -0.00655155 0.00186935
v -0.00793189 -0.00655156 0.00182533
v -0.008043289 -0.00653132 0.00177734
v -0.008043289 -0.00653132 0.00182533
v -0.008043289 -0.00653132 0.00186936
v -0.00800873 -0.0063411 0.00186936
v -0.00793196 -0.00655155 0.00186935
v -0.008043289 -0.00653132 0.00186936
v -0.00789739 -0.00636133 0.00186935
v -0.00525359 0.00882135 0.00186936
v 0.00440917 -0.00859752 0.00186894
v 0.0043746 -0.00878774 0.00186894
v 0.0071643 0.00656492 0.00186894
v -0.00514226 0.008801119 0.00186935
v 0.00718481 0.00667781 0.00186894
v -0.00512175 0.008913999 0.00186935
v -0.00523308 0.00893423 0.00186936
v -0.00800873 -0.0063411 0.00177734
v -0.008043289 -0.00653132 0.00182533
v -0.008043289 -0.00653132 0.00177734
v -0.00800873 -0.0063411 0.00182533
v -0.00525359 0.00882135 0.00177734
v -0.00800873 -0.0063411 0.00186936
v -0.008043289 -0.00653132 0.00186936
v -0.00525359 0.00882135 0.00186936
v -0.00525359 0.00882135 0.00182533
v -0.00523308 0.00893423 0.00177734
v -0.00523308 0.00893423 0.00182533
v -0.00523308 0.00893423 0.00186936
v -0.00815432 -0.00631464 0.00339669
v -0.00818707 -0.00650519 0.0034407
v -0.00818889 -0.00650486 0.00339669
v -0.00815251 -0.00631497 0.0034407
v -0.00539919 0.008847809 0.00339668
v -0.00815053 -0.00631533 0.00348867
v -0.0081851 -0.00650555 0.00348867
v -0.00539738 0.00884748 0.00344069
v -0.0053954 0.008847119 0.00348866
v -0.00537489 0.00896 0.00348866
v -0.00537687 0.00896036 0.00344069
v -0.00537868 0.008960689 0.00339668
v -0.00523308 0.00893423 0.00182533
v -0.00512175 0.008913999 0.00186935
v -0.00523308 0.00893423 0.00186936
v -0.00512168 0.00891399 0.00182533
v -0.00512161 0.00891398 0.00177734
v -0.00523308 0.00893423 0.00177734
v 0.00720047 0.00667496 0.00177754
v 0.0071923 0.006676449 0.00182521
v 0.00718481 0.00667781 0.00186894
v 0.00761704 0.00659927 0.0018443
v 0.00758287 0.006605479 0.00188639
v 0.00755152 0.00661117 0.001925
v 0.00779605 0.00656674 0.00208787
v 0.00784838 0.006557229 0.00206158
v 0.00790542 0.00654687 0.00203293
v 0.00812053 0.00650778 0.00231073
v 0.00799194 0.00653115 0.00234132
v 0.00805346 0.00651997 0.00232668
v 0.008216879 0.00649027 0.00263901
v 0.008145779 0.006503189 0.00263901
v 0.008080539 0.00651505 0.00263901
v 0.00799194 0.00653115 0.0029367
v 0.00805346 0.00651997 0.00295133
v 0.00812053 0.00650778 0.00296728
v 0.00790542 0.00654687 0.00324508
v 0.00779605 0.00656674 0.00319014
v 0.00784838 0.006557229 0.00321643
v 0.00761704 0.00659927 0.00343371
v 0.00758287 0.006605479 0.00339163
v 0.00755152 0.00661117 0.00335302
v 0.00718481 0.00667781 0.00340907
v 0.0071923 0.006676449 0.00345281
v 0.00720047 0.00667496 0.00350048
v -0.00512474 0.00891455 0.00339693
v -0.00512281 0.008914189 0.00344094
v -0.00512071 0.00891381 0.0034889
v -0.00523365 0.00893434 0.00339683
v -0.00523177 0.00893399 0.00344083
v -0.00537868 0.008960689 0.00339668
v -0.00522973 0.00893362 0.0034888
v -0.00537687 0.00896036 0.00344069
v -0.00537489 0.00896 0.00348866
v -0.00525359 0.00882135 0.00177734
v -0.00512161 0.00891398 0.00177734
v -0.00523308 0.00893423 0.00177734
v -0.00514212 0.00880109 0.00177734
v -0.00800873 -0.0063411 0.00177734
v 0.00717996 0.00656208 0.00177754
v 0.00720047 0.00667496 0.00177754
v 0.00442482 -0.00860037 0.00177754
v -0.007897249 -0.006361349 0.00177734
v -0.008043289 -0.00653132 0.00177734
v 0.00439026 -0.00879059 0.00177754
v -0.00793181 -0.00655157 0.00177734
vt 0.790949 0.699031
vt 0.794359 0.697495
vt 0.790938 0.697515
vt 0.79437 0.699011
vt 0.797573 0.697475
vt 0.791843 0.819953
vt 0.797581 0.698994
vt 0.801292 0.697467
vt 0.795264 0.819933
vt 0.79185 0.820852
vt 0.79527 0.820832
vt 0.798476 0.819916
vt 0.79848 0.820813
vt 0.801297 0.698984
vt 0.805262 0.697454
vt 0.802192 0.819905
vt 0.802195 0.820806
vt 0.805268 0.69897
vt 0.809231 0.697437
vt 0.806162 0.819892
vt 0.806166 0.820792
vt 0.809239 0.698953
vt 0.812949 0.697419
vt 0.810133 0.819875
vt 0.810137 0.820775
vt 0.812959 0.698934
vt 0.816164 0.697396
vt 0.813853 0.819856
vt 0.813858 0.820757
vt 0.816175 0.698913
vt 0.819589 0.697372
vt 0.8196 0.698889
vt 0.817069 0.819834
vt 0.817075 0.820734
vt 0.820494 0.81981
vt 0.820501 0.82071
vt 0.793609 0.952325
vt 0.790626 0.951428
vt 0.790633 0.952332
vt 0.793602 0.951421
vt 0.796309 0.952316
vt 0.792707 0.830423
vt 0.789731 0.830429
vt 0.796305 0.951416
vt 0.799638 0.952322
vt 0.792695 0.828902
vt 0.78972 0.828908
vt 0.795396 0.828895
vt 0.795403 0.830418
vt 0.798713 0.828898
vt 0.798725 0.830413
vt 0.802222 0.828854
vt 0.799632 0.951412
vt 0.803174 0.952277
vt 0.802251 0.830367
vt 0.80573 0.828761
vt 0.803157 0.951365
vt 0.806707 0.952184
vt 0.805777 0.830276
vt 0.809036 0.828634
vt 0.806679 0.951274
vt 0.810032 0.952057
vt 0.809099 0.830152
vt 0.811728 0.828503
vt 0.809994 0.951152
vt 0.812722 0.951925
vt 0.811793 0.830024
vt 0.814716 0.828365
vt 0.814754 0.829901
vt 0.812683 0.951024
vt 0.815675 0.951788
vt 0.815651 0.9509
vt 0.913983 0.950138
vt 0.815675 0.951788
vt 0.914005 0.951045
vt 0.815651 0.9509
vt 0.913084 0.829136
vt 0.814754 0.829901
vt 0.913069 0.827613
vt 0.814716 0.828365
vt 0.913943 0.829101
vt 0.913931 0.82758
vt 0.91484 0.950095
vt 0.915099 0.829071
vt 0.91508 0.827552
vt 0.915994 0.950069
vt 0.914861 0.950994
vt 0.914005 0.951045
vt 0.91601 0.950973
vt 0.692588 0.82158
vt 0.691423 0.820688
vt 0.691429 0.821587
vt 0.692582 0.82068
vt 0.693458 0.821576
vt 0.691687 0.699759
vt 0.690528 0.699766
vt 0.693451 0.820676
vt 0.691676 0.698242
vt 0.690517 0.69825
vt 0.692557 0.699755
vt 0.692546 0.698238
vt 0.790938 0.697515
vt 0.790949 0.699031
vt 0.791843 0.819953
vt 0.79185 0.820852
vt 0.840728 0.982539
vt 0.839553 0.98197
vt 0.839569 0.982537
vt 0.840712 0.981971
vt 0.839539 0.981449
vt 0.840697 0.981451
vt 0.841599 0.98254
vt 0.841582 0.981973
vt 0.841567 0.981452
vt 0.939875 0.981595
vt 0.939935 0.982113
vt 0.940001 0.982677
vt 0.943327 0.981887
vt 0.943055 0.981389
vt 0.942804 0.980932
vt 0.944757 0.979005
vt 0.945175 0.979316
vt 0.945631 0.979655
vt 0.947349 0.976367
vt 0.946322 0.976005
vt 0.946813 0.976179
vt 0.948118 0.972483
vt 0.94755 0.972483
vt 0.947029 0.972483
vt 0.946322 0.96896
vt 0.946813 0.968787
vt 0.947349 0.968598
vt 0.945631 0.96531
vt 0.944757 0.96596
vt 0.945175 0.965649
vt 0.943327 0.963078
vt 0.943055 0.963576
vt 0.942804 0.964033
vt 0.939875 0.96337
vt 0.939935 0.962852
vt 0.940001 0.962288
vt 0.841592 0.962286
vt 0.84159 0.963374
vt 0.841591 0.962853
vt 0.840701 0.962286
vt 0.840701 0.962853
vt 0.840701 0.963375
vt 0.690528 0.831148
vt 0.691403 0.829624
vt 0.690517 0.829627
vt 0.691414 0.831145
vt 0.691423 0.952146
vt 0.789731 0.830429
vt 0.78972 0.828908
vt 0.790626 0.951428
vt 0.692309 0.952144
vt 0.790633 0.952332
vt 0.692315 0.953048
vt 0.69143 0.95305
vt 0.812541 0.959694
vt 0.81406 0.960195
vt 0.81406 0.959694
vt 0.812541 0.960195
vt 0.691419 0.959694
vt 0.812541 0.960655
vt 0.81406 0.960655
vt 0.691419 0.960655
vt 0.691419 0.960195
vt 0.690517 0.959694
vt 0.690517 0.960195
vt 0.690517 0.960655
vt 0.915099 0.829071
vt 0.915593 0.827532
vt 0.91508 0.827552
vt 0.91562 0.829052
vt 0.915994 0.950069
vt 0.916187 0.82904
vt 0.91616 0.827518
vt 0.916511 0.95005
vt 0.917078 0.950037
vt 0.9171 0.950937
vt 0.916533 0.950953
vt 0.91601 0.950973
vt 0.932701 0.953783
vt 0.931812 0.954304
vt 0.932701 0.954304
vt 0.931811 0.953783
vt 0.931811 0.953215
vt 0.932701 0.953215
vt 0.833402 0.953217
vt 0.833467 0.953781
vt 0.833527 0.954299
vt 0.830075 0.954007
vt 0.830348 0.954505
vt 0.830598 0.954962
vt 0.828645 0.95689
vt 0.828227 0.956578
vt 0.827772 0.956239
vt 0.826054 0.959527
vt 0.827081 0.959889
vt 0.826589 0.959716
vt 0.825284 0.963412
vt 0.825852 0.963412
vt 0.826373 0.963412
vt 0.827081 0.966935
vt 0.826589 0.967108
vt 0.826054 0.967296
vt 0.827772 0.970584
vt 0.828645 0.969934
vt 0.828227 0.970245
vt 0.830075 0.972816
vt 0.830348 0.972318
vt 0.830598 0.971861
vt 0.833527 0.972525
vt 0.833467 0.973042
vt 0.833402 0.973606
vt 0.931836 0.972381
vt 0.93182 0.972902
vt 0.931804 0.973469
vt 0.932706 0.97238
vt 0.932691 0.9729
vt 0.933864 0.972378
vt 0.932674 0.973468
vt 0.933849 0.972899
vt 0.933834 0.973466
vt 0.919788 0.819077
vt 0.918904 0.819983
vt 0.919795 0.819976
vt 0.918897 0.819083
vt 0.918894 0.698155
vt 0.820494 0.81981
vt 0.820501 0.82071
vt 0.8196 0.698889
vt 0.918003 0.698162
vt 0.918883 0.696639
vt 0.819589 0.697372
vt 0.917991 0.696645
vn 0.1532589 -0.02784819 0.9877936
vn 0.336547 -0.06115299 0.939679
vn 0.1532589 -0.02784819 0.9877936
vn 0.336547 -0.06115299 0.939679
vn 0.6538841 -0.118816 0.747207
vn 0.1532589 -0.02784819 0.9877936
vn 0.6538841 -0.118816 0.747207
vn 0.8692349 -0.157946 0.4684909
vn 0.336547 -0.06115299 0.939679
vn 0.1532589 -0.02784819 0.9877936
vn 0.336547 -0.06115299 0.939679
vn 0.6538841 -0.118816 0.747207
vn 0.6538841 -0.118816 0.747207
vn 0.8692349 -0.157946 0.4684909
vn 0.9838891 -0.17878 1.16515E-07
vn 0.8692349 -0.157946 0.4684909
vn 0.8692349 -0.157946 0.4684909
vn 0.9838891 -0.17878 0
vn 0.8692352 -0.157947 -0.4684901
vn 0.9838891 -0.17878 0
vn 0.9838891 -0.17878 0
vn 0.8692352 -0.157947 -0.4684901
vn 0.6538841 -0.118816 -0.747207
vn 0.8692352 -0.157947 -0.4684901
vn 0.8692352 -0.157947 -0.4684901
vn 0.6538841 -0.118816 -0.747207
vn 0.3365469 -0.06115329 -0.9396788
vn 0.6538841 -0.118816 -0.747207
vn 0.6538841 -0.118816 -0.747207
vn 0.3365469 -0.06115329 -0.9396788
vn 0.1532589 -0.02784859 -0.9877936
vn 0.1532589 -0.02784859 -0.9877936
vn 0.3365469 -0.06115329 -0.9396788
vn 0.3365469 -0.06115329 -0.9396788
vn 0.1532589 -0.02784859 -0.9877936
vn 0.1532589 -0.02784859 -0.9877936
vn -0.336073 0.06106711 0.9398541
vn -0.1463289 0.02658929 0.9888786
vn -0.1463289 0.02658929 0.9888786
vn -0.336073 0.06106711 0.9398541
vn -0.6576281 0.119496 0.7438051
vn -0.336073 0.06106711 0.9398541
vn -0.1463289 0.02658929 0.9888786
vn -0.6576281 0.119496 0.7438051
vn -0.8686511 0.15784 0.4696081
vn -0.336073 0.06106711 0.9398541
vn -0.1463289 0.02658929 0.9888786
vn -0.6576281 0.119496 0.7438051
vn -0.6576281 0.119496 0.7438051
vn -0.8686511 0.15784 0.4696081
vn -0.8686511 0.15784 0.4696081
vn -0.9838891 0.17878 -1.31149E-07
vn -0.8686511 0.15784 0.4696081
vn -0.9838891 0.17878 -1.02005E-07
vn -0.9838891 0.17878 -1.16577E-07
vn -0.8686507 0.15784 -0.4696088
vn -0.9838891 0.17878 -1.02005E-07
vn -0.8686507 0.15784 -0.4696088
vn -0.8686507 0.15784 -0.4696088
vn -0.6576281 0.119496 -0.7438051
vn -0.8686507 0.15784 -0.4696088
vn -0.6576281 0.119496 -0.7438051
vn -0.6576281 0.119496 -0.7438051
vn -0.336073 0.06106681 -0.9398541
vn -0.6576281 0.119496 -0.7438051
vn -0.336073 0.06106681 -0.9398541
vn -0.336073 0.06106681 -0.9398541
vn -0.1463289 0.02658889 -0.9888786
vn -0.1463289 0.02658889 -0.9888786
vn -0.336073 0.06106681 -0.9398541
vn -0.1463289 0.02658889 -0.9888786
vn -0.1463289 0.02658889 -0.9888786
vn 0.0009545115 -0.0001736079 -0.9999995
vn 0.0009545115 -0.0001736079 -0.9999995
vn 0.0009545115 -0.0001736079 -0.9999995
vn 0.0009545115 -0.0001736079 -0.9999995
vn 0.0009545076 -0.0001736069 -0.9999995
vn 0.0009545076 -0.0001736069 -0.9999995
vn 0.0009545076 -0.0001736069 -0.9999995
vn 0.0009545076 -0.0001736069 -0.9999995
vn 0.0009546255 -0.0001736279 -0.9999995
vn 0.0009546255 -0.0001736279 -0.9999995
vn 0.0009546255 -0.0001736319 -0.9999995
vn 0.0009546255 -0.0001736279 -0.9999995
vn 0.0009546255 -0.0001736279 -0.9999995
vn 0.0009546255 -0.0001736319 -0.9999995
vn 0.0009546255 -0.0001736279 -0.9999995
vn 0.0009542305 -0.0001735569 -0.9999995
vn 0.0009546255 -0.0001736279 -0.9999995
vn -0.0009095166 0.0001654319 0.9999996
vn -0.0009095166 0.0001654319 0.9999996
vn -0.0009095166 0.0001654319 0.9999996
vn -0.0009095166 0.0001654319 0.9999996
vn -0.0009095047 0.000165429 0.9999996
vn -0.0009095166 0.0001654319 0.9999996
vn -0.0009095166 0.0001654319 0.9999996
vn -0.0009094966 0.0001654339 0.9999996
vn -0.0009095166 0.0001654319 0.9999996
vn -0.0009095166 0.0001654319 0.9999996
vn -0.0009094906 0.000165427 0.9999996
vn -0.0009094906 0.000165427 0.9999996
vn -0.0009094906 0.000165427 0.9999996
vn -0.0009094906 0.000165427 0.9999996
vn -0.0009094966 0.0001654339 0.9999996
vn -0.0009095047 0.000165429 0.9999996
vn -0.17878 -0.9838891 1.62921E-07
vn -0.17878 -0.9838891 1.62921E-07
vn -0.17878 -0.9838891 1.62921E-07
vn -0.17878 -0.9838891 1.62921E-07
vn -0.17878 -0.9838891 1.62921E-07
vn -0.17878 -0.9838891 1.62921E-07
vn -0.17878 -0.9838891 1.62921E-07
vn -0.17878 -0.9838891 1.62921E-07
vn -0.17878 -0.9838891 1.62921E-07
vn -0.17878 -0.9838891 1.62921E-07
vn -0.17878 -0.9838891 1.62921E-07
vn -0.17878 -0.9838891 1.62921E-07
vn -0.17878 -0.9838891 1.62921E-07
vn -0.17878 -0.9838891 1.62921E-07
vn -0.17878 -0.9838891 1.62921E-07
vn -0.17878 -0.9838891 1.62921E-07
vn -0.17878 -0.9838891 1.62921E-07
vn -0.17878 -0.9838891 1.62921E-07
vn -0.17878 -0.9838891 1.62921E-07
vn -0.17878 -0.9838891 1.62921E-07
vn -0.17878 -0.9838891 1.62921E-07
vn -0.17878 -0.9838891 1.62921E-07
vn -0.17878 -0.9838891 1.62921E-07
vn -0.17878 -0.9838891 1.62921E-07
vn -0.17878 -0.9838891 1.62921E-07
vn -0.17878 -0.9838891 1.62921E-07
vn -0.17878 -0.9838891 1.62921E-07
vn -0.17878 -0.9838891 1.62921E-07
vn -0.17878 -0.9838891 1.62921E-07
vn -0.17878 -0.9838891 1.62921E-07
vn -0.17878 -0.9838891 1.62921E-07
vn -0.17878 -0.9838891 1.62921E-07
vn -0.17878 -0.9838891 1.62921E-07
vn -0.17878 -0.9838891 1.62921E-07
vn -0.17878 -0.9838891 1.62921E-07
vn -0.17878 -0.9838891 1.62921E-07
vn -0.17878 -0.9838891 1.62921E-07
vn -0.17878 -0.9838891 1.62921E-07
vn -0.17878 -0.9838891 1.62921E-07
vn -0.17878 -0.9838891 1.62921E-07
vn -0.17878 -0.9838891 1.62921E-07
vn -0.17878 -0.9838891 1.62921E-07
vn 3.20026E-05 -5.64953E-06 1
vn 3.20026E-05 -5.64953E-06 1
vn 3.20026E-05 -5.64953E-06 1
vn 3.20026E-05 -5.64953E-06 1
vn 3.20026E-05 -5.64953E-06 1
vn 3.23028E-05 -5.70408E-06 1
vn 3.23028E-05 -5.70408E-06 1
vn 3.23028E-05 -5.70408E-06 1
vn 3.23028E-05 -5.70408E-06 1
vn 3.23028E-05 -5.70408E-06 1
vn 3.23028E-05 -5.70408E-06 1
vn 3.20026E-05 -5.64953E-06 1
vn -0.9838891 0.17878 0
vn -0.9838891 0.17878 0
vn -0.9838891 0.17878 0
vn -0.9838891 0.17878 0
vn -0.9838891 0.17878 0
vn -0.9838891 0.17878 0
vn -0.9838891 0.17878 0
vn -0.9838891 0.17878 0
vn -0.9838891 0.17878 0
vn -0.9838891 0.17878 0
vn -0.9838891 0.17878 0
vn -0.9838891 0.17878 0
vn -0.9830273 0.1786231 0.04184781
vn -0.9830273 0.1786231 0.04184781
vn -0.9830273 0.1786231 0.04184781
vn -0.9830273 0.1786231 0.04184781
vn -0.9830273 0.1786231 0.04184781
vn -0.9830267 0.178623 0.04186079
vn -0.9830267 0.178623 0.04186079
vn -0.9830267 0.178623 0.04186089
vn -0.9830267 0.178623 0.04186089
vn -0.9830267 0.178623 0.04186089
vn -0.9830267 0.178623 0.04186089
vn -0.9830273 0.1786231 0.04184781
vn 0.17878 0.9838891 -1.62921E-07
vn 0.17878 0.9838891 -1.62921E-07
vn 0.17878 0.9838891 -1.62921E-07
vn 0.17878 0.9838891 -1.62921E-07
vn 0.17878 0.9838891 -1.62921E-07
vn 0.17878 0.9838891 -1.62921E-07
vn 0.17878 0.9838891 -1.62921E-07
vn 0.17878 0.9838891 -1.62921E-07
vn 0.17878 0.9838891 -1.62921E-07
vn 0.17878 0.9838891 -1.62921E-07
vn 0.17878 0.9838891 -1.62921E-07
vn 0.17878 0.9838891 -1.62921E-07
vn 0.17878 0.9838891 -1.62921E-07
vn 0.17878 0.9838891 -1.62921E-07
vn 0.17878 0.9838891 -1.62921E-07
vn 0.17878 0.9838891 -1.62921E-07
vn 0.17878 0.9838891 -1.62921E-07
vn 0.17878 0.9838891 -1.62921E-07
vn 0.17878 0.9838891 -1.62921E-07
vn 0.17878 0.9838891 -1.62921E-07
vn 0.17878 0.9838891 -1.62921E-07
vn 0.17878 0.9838891 -1.62921E-07
vn 0.17878 0.9838891 -1.62921E-07
vn 0.17878 0.9838891 -1.62921E-07
vn 0.17878 0.9838891 -1.62921E-07
vn 0.17878 0.9838891 -1.62921E-07
vn 0.17878 0.9838891 -1.62921E-07
vn 0.17878 0.9838891 -1.62921E-07
vn 0.17878 0.9838891 -1.62921E-07
vn 0.17878 0.9838891 -1.62921E-07
vn 0.17878 0.9838891 -1.62921E-07
vn 0.17878 0.9838891 -1.62921E-07
vn 0.17878 0.9838891 -1.62921E-07
vn 0.17878 0.9838891 -1.74643E-07
vn 0.17878 0.9838891 -1.74637E-07
vn 0.17878 0.9838891 -1.74637E-07
vn 0.17878 0.9838891 -1.62921E-07
vn 0.17878 0.9838891 -1.62921E-07
vn 0.17878 0.9838891 -1.62921E-07
vn 0.17878 0.9838891 -1.62921E-07
vn 0.17878 0.9838891 -1.62921E-07
vn 0.17878 0.9838891 -1.62921E-07
vn 1.49697E-05 -2.88569E-06 -1
vn 1.49697E-05 -2.88569E-06 -1
vn 1.49697E-05 -2.88569E-06 -1
vn 1.49697E-05 -2.88569E-06 -1
vn 1.49697E-05 -2.88569E-06 -1
vn 1.51244E-05 -2.91381E-06 -1
vn 1.51244E-05 -2.91381E-06 -1
vn 1.51244E-05 -2.91381E-06 -1
vn 1.49697E-05 -2.88569E-06 -1
vn 1.49697E-05 -2.88569E-06 -1
vn 1.51244E-05 -2.91381E-06 -1
vn 1.49697E-05 -2.88569E-06 -1
usemtl cover
f 1/1/1 3/3/3 2/2/2 
f 2/2/2 4/4/4 1/1/1 
f 4/4/4 2/2/2 5/5/5 
f 6/6/6 1/1/1 4/4/4 
f 5/5/5 7/7/7 4/4/4 
f 7/7/7 5/5/5 8/8/8 
f 4/4/4 9/9/9 6/6/6 
f 9/9/9 4/4/4 7/7/7 
f 10/10/10 6/6/6 9/9/9 
f 9/9/9 11/11/11 10/10/10 
f 11/11/11 9/9/9 12/12/12 
f 7/7/7 12/12/12 9/9/9 
f 12/12/12 13/13/13 11/11/11 
f 8/8/8 14/14/14 7/7/7 
f 12/12/12 7/7/7 14/14/14 
f 14/14/14 8/8/8 15/15/15 
f 13/13/13 12/12/12 16/16/16 
f 14/14/14 16/16/16 12/12/12 
f 16/16/16 17/17/17 13/13/13 
f 15/15/15 18/18/18 14/14/14 
f 16/16/16 14/14/14 18/18/18 
f 18/18/18 15/15/15 19/19/19 
f 17/17/17 16/16/16 20/20/20 
f 18/18/18 20/20/20 16/16/16 
f 20/20/20 21/21/21 17/17/17 
f 19/19/19 22/22/22 18/18/18 
f 20/20/20 18/18/18 22/22/22 
f 22/22/22 19/19/19 23/23/23 
f 21/21/21 20/20/20 24/24/24 
f 22/22/22 24/24/24 20/20/20 
f 24/24/24 25/25/25 21/21/21 
f 23/23/23 26/26/26 22/22/22 
f 24/24/24 22/22/22 26/26/26 
f 26/26/26 23/23/23 27/27/27 
f 25/25/25 24/24/24 28/28/28 
f 26/26/26 28/28/28 24/24/24 
f 28/28/28 29/29/29 25/25/25 
f 27/27/27 30/30/30 26/26/26 
f 28/28/28 26/26/26 30/30/30 
f 30/30/30 27/27/27 31/31/31 
f 31/31/31 32/32/32 30/30/30 
f 29/29/29 28/28/28 33/33/33 
f 30/30/30 33/33/33 28/28/28 
f 33/33/33 30/30/30 32/32/32 
f 33/33/33 34/34/34 29/29/29 
f 32/32/32 35/35/35 33/33/33 
f 34/34/34 33/33/33 35/35/35 
f 35/35/35 36/36/36 34/34/34 
f 37/37/37 39/39/39 38/38/38 
f 38/38/38 40/40/40 37/37/37 
f 41/41/41 37/37/37 40/40/40 
f 42/42/42 40/40/40 38/38/38 
f 38/38/38 43/43/43 42/42/42 
f 40/40/40 44/44/44 41/41/41 
f 45/45/45 41/41/41 44/44/44 
f 46/46/46 42/42/42 43/43/43 
f 43/43/43 47/47/47 46/46/46 
f 42/42/42 46/46/46 48/48/48 
f 40/40/40 42/42/42 49/49/49 
f 48/48/48 49/49/49 42/42/42 
f 49/49/49 44/44/44 40/40/40 
f 49/49/49 48/48/48 50/50/50 
f 50/50/50 51/51/51 49/49/49 
f 44/44/44 49/49/49 51/51/51 
f 51/51/51 50/50/50 52/52/52 
f 44/44/44 53/53/53 45/45/45 
f 51/51/51 53/53/53 44/44/44 
f 54/54/54 45/45/45 53/53/53 
f 52/52/52 55/55/55 51/51/51 
f 53/53/53 51/51/51 55/55/55 
f 55/55/55 52/52/52 56/56/56 
f 53/53/53 57/57/57 54/54/54 
f 55/55/55 57/57/57 53/53/53 
f 58/58/58 54/54/54 57/57/57 
f 56/56/56 59/59/59 55/55/55 
f 57/57/57 55/55/55 59/59/59 
f 59/59/59 56/56/56 60/60/60 
f 57/57/57 61/61/61 58/58/58 
f 59/59/59 61/61/61 57/57/57 
f 62/62/62 58/58/58 61/61/61 
f 60/60/60 63/63/63 59/59/59 
f 61/61/61 59/59/59 63/63/63 
f 63/63/63 60/60/60 64/64/64 
f 61/61/61 65/65/65 62/62/62 
f 63/63/63 65/65/65 61/61/61 
f 66/66/66 62/62/62 65/65/65 
f 64/64/64 67/67/67 63/63/63 
f 65/65/65 63/63/63 67/67/67 
f 67/67/67 64/64/64 68/68/68 
f 68/68/68 69/69/69 67/67/67 
f 65/65/65 70/70/70 66/66/66 
f 67/67/67 70/70/70 65/65/65 
f 70/70/70 67/67/67 69/69/69 
f 71/71/71 66/66/66 70/70/70 
f 69/69/69 72/72/72 70/70/70 
f 70/70/70 72/72/72 71/71/71 
f 73/73/73 75/75/75 74/74/74 
f 74/74/74 76/76/76 73/73/73 
f 77/77/77 73/73/73 76/76/76 
f 76/76/76 78/78/78 77/77/77 
f 79/79/79 77/77/77 78/78/78 
f 78/78/78 80/80/80 79/79/79 
f 81/81/81 77/77/77 79/79/79 
f 79/79/79 82/82/82 81/81/81 
f 83/83/83 73/73/73 77/77/77 
f 77/77/77 81/81/81 83/83/83 
f 84/84/84 81/81/81 82/82/82 
f 83/83/83 81/81/81 84/84/84 
f 82/82/82 85/85/85 84/84/84 
f 84/84/84 86/86/86 83/83/83 
f 73/73/73 83/83/83 87/87/87 
f 87/87/87 83/83/83 86/86/86 
f 87/87/87 88/88/88 73/73/73 
f 86/86/86 89/89/89 87/87/87 
f 90/90/90 92/92/92 91/91/91 
f 91/91/91 93/93/93 90/90/90 
f 94/94/94 90/90/90 93/93/93 
f 95/95/95 93/93/93 91/91/91 
f 91/91/91 96/96/96 95/95/95 
f 93/93/93 97/97/97 94/94/94 
f 97/97/97 93/93/93 95/95/95 
f 98/98/98 95/95/95 96/96/96 
f 96/96/96 99/99/99 98/98/98 
f 100/100/100 95/95/95 98/98/98 
f 95/95/95 100/100/100 97/97/97 
f 98/98/98 101/101/101 100/100/100 
f 100/100/100 101/101/101 102/102/102 
f 102/102/102 103/103/103 100/100/100 
f 97/97/97 100/100/100 103/103/103 
f 103/103/103 104/104/104 97/97/97 
f 94/94/94 97/97/97 104/104/104 
f 104/104/104 105/105/105 94/94/94 
f 106/106/106 108/108/108 107/107/107 
f 107/107/107 109/109/109 106/106/106 
f 109/109/109 107/107/107 110/110/110 
f 110/110/110 111/111/111 109/109/109 
f 112/112/112 106/106/106 109/109/109 
f 113/113/113 109/109/109 111/111/111 
f 109/109/109 113/113/113 112/112/112 
f 111/111/111 114/114/114 113/113/113 
f 113/113/113 114/114/114 115/115/115 
f 112/112/112 113/113/113 116/116/116 
f 115/115/115 116/116/116 113/113/113 
f 116/116/116 117/117/117 112/112/112 
f 118/118/118 117/117/117 116/116/116 
f 119/119/119 116/116/116 115/115/115 
f 116/116/116 119/119/119 118/118/118 
f 115/115/115 120/120/120 119/119/119 
f 119/119/119 120/120/120 121/121/121 
f 118/118/118 119/119/119 122/122/122 
f 121/121/121 122/122/122 119/119/119 
f 122/122/122 123/123/123 118/118/118 
f 124/124/124 123/123/123 122/122/122 
f 122/122/122 121/121/121 125/125/125 
f 122/122/122 126/126/126 124/124/124 
f 125/125/125 126/126/126 122/122/122 
f 127/127/127 124/124/124 126/126/126 
f 128/128/128 126/126/126 125/125/125 
f 126/126/126 128/128/128 127/127/127 
f 125/125/125 129/129/129 128/128/128 
f 128/128/128 129/129/129 130/130/130 
f 127/127/127 128/128/128 131/131/131 
f 130/130/130 131/131/131 128/128/128 
f 131/131/131 132/132/132 127/127/127 
f 133/133/133 132/132/132 131/131/131 
f 131/131/131 130/130/130 134/134/134 
f 131/131/131 135/135/135 133/133/133 
f 134/134/134 135/135/135 131/131/131 
f 136/136/136 133/133/133 135/135/135 
f 137/137/137 135/135/135 134/134/134 
f 135/135/135 137/137/137 136/136/136 
f 134/134/134 138/138/138 137/137/137 
f 137/137/137 138/138/138 139/139/139 
f 136/136/136 137/137/137 140/140/140 
f 139/139/139 140/140/140 137/137/137 
f 140/140/140 141/141/141 136/136/136 
f 142/142/142 141/141/141 140/140/140 
f 140/140/140 139/139/139 143/143/143 
f 140/140/140 144/144/144 142/142/142 
f 143/143/143 144/144/144 140/140/140 
f 145/145/145 142/142/142 144/144/144 
f 144/144/144 146/146/146 145/145/145 
f 146/146/146 144/144/144 143/143/143 
f 143/143/143 147/147/147 146/146/146 
f 148/148/148 150/150/150 149/149/149 
f 149/149/149 151/151/151 148/148/148 
f 152/152/152 148/148/148 151/151/151 
f 153/153/153 151/151/151 149/149/149 
f 149/149/149 154/154/154 153/153/153 
f 151/151/151 153/153/153 155/155/155 
f 155/155/155 156/156/156 151/151/151 
f 151/151/151 156/156/156 152/152/152 
f 156/156/156 155/155/155 157/157/157 
f 157/157/157 158/158/158 156/156/156 
f 152/152/152 156/156/156 158/158/158 
f 158/158/158 159/159/159 152/152/152 
f 160/160/160 162/162/162 161/161/161 
f 161/161/161 163/163/163 160/160/160 
f 164/164/164 160/160/160 163/163/163 
f 165/165/165 163/163/163 161/161/161 
f 161/161/161 166/166/166 165/165/165 
f 163/163/163 165/165/165 167/167/167 
f 163/163/163 168/168/168 164/164/164 
f 167/167/167 168/168/168 163/163/163 
f 169/169/169 164/164/164 168/168/168 
f 168/168/168 170/170/170 169/169/169 
f 170/170/170 168/168/168 167/167/167 
f 167/167/167 171/171/171 170/170/170 
f 172/172/172 174/174/174 173/173/173 
f 173/173/173 175/175/175 172/172/172 
f 176/176/176 172/172/172 175/175/175 
f 177/177/177 175/175/175 173/173/173 
f 173/173/173 178/178/178 177/177/177 
f 179/179/179 175/175/175 177/177/177 
f 175/175/175 179/179/179 176/176/176 
f 177/177/177 180/180/180 179/179/179 
f 179/179/179 180/180/180 181/181/181 
f 181/181/181 182/182/182 179/179/179 
f 176/176/176 179/179/179 182/182/182 
f 182/182/182 183/183/183 176/176/176 
f 184/184/184 186/186/186 185/185/185 
f 185/185/185 187/187/187 184/184/184 
f 184/184/184 187/187/187 188/188/188 
f 188/188/188 189/189/189 184/184/184 
f 190/190/190 188/188/188 187/187/187 
f 191/191/191 187/187/187 185/185/185 
f 187/187/187 191/191/191 190/190/190 
f 185/185/185 192/192/192 191/191/191 
f 193/193/193 190/190/190 191/191/191 
f 194/194/194 191/191/191 192/192/192 
f 191/191/191 194/194/194 193/193/193 
f 192/192/192 195/195/195 194/194/194 
f 194/194/194 195/195/195 196/196/196 
f 193/193/193 194/194/194 197/197/197 
f 196/196/196 197/197/197 194/194/194 
f 197/197/197 198/198/198 193/193/193 
f 199/199/199 198/198/198 197/197/197 
f 197/197/197 196/196/196 200/200/200 
f 197/197/197 201/201/201 199/199/199 
f 200/200/200 201/201/201 197/197/197 
f 202/202/202 199/199/199 201/201/201 
f 203/203/203 201/201/201 200/200/200 
f 201/201/201 203/203/203 202/202/202 
f 200/200/200 204/204/204 203/203/203 
f 203/203/203 204/204/204 205/205/205 
f 202/202/202 203/203/203 206/206/206 
f 205/205/205 206/206/206 203/203/203 
f 206/206/206 207/207/207 202/202/202 
f 208/208/208 207/207/207 206/206/206 
f 206/206/206 205/205/205 209/209/209 
f 206/206/206 210/210/210 208/208/208 
f 209/209/209 210/210/210 206/206/206 
f 211/211/211 208/208/208 210/210/210 
f 212/212/212 210/210/210 209/209/209 
f 210/210/210 212/212/212 211/211/211 
f 209/209/209 213/213/213 212/212/212 
f 212/212/212 213/213/213 214/214/214 
f 211/211/211 212/212/212 215/215/215 
f 214/214/214 215/215/215 212/212/212 
f 215/215/215 216/216/216 211/211/211 
f 215/215/215 214/214/214 217/217/217 
f 216/216/216 215/215/215 218/218/218 
f 217/217/217 218/218/218 215/215/215 
f 218/218/218 219/219/219 216/216/216 
f 218/218/218 217/217/217 220/220/220 
f 219/219/219 218/218/218 221/221/221 
f 220/220/220 221/221/221 218/218/218 
f 221/221/221 220/220/220 222/222/222 
f 221/221/221 223/223/223 219/219/219 
f 222/222/222 224/224/224 221/221/221 
f 223/223/223 221/221/221 224/224/224 
f 224/224/224 225/225/225 223/223/223 
f 226/226/226 228/228/228 227/227/227 
f 227/227/227 229/229/229 226/226/226 
f 230/230/230 226/226/226 229/229/229 
f 231/231/231 229/229/229 227/227/227 
f 227/227/227 232/232/232 231/231/231 
f 229/229/229 231/231/231 233/233/233 
f 229/229/229 234/234/234 230/230/230 
f 233/233/233 234/234/234 229/229/229 
f 235/235/235 230/230/230 234/234/234 
f 234/234/234 233/233/233 236/236/236 
f 234/234/234 237/237/237 235/235/235 
f 236/236/236 237/237/237 234/234/234 
