# exported by StudySceneExporter from mesh 'cover001'
mtllib materials.mtl
v 0.00650472 -0.00705213 4.15193E-05
v 0.00691584 -0.0071925 -9.71879E-05
v 0.00653422 -0.00724953 4.15193E-05
v 0.00688634 -0.0069951 -9.71879E-05
v 0.00718002 -0.00715301 -0.00048906
v 0.00415317 0.00868244 4.15167E-05
v 0.00715052 -0.00695562 -0.00048906
v 0.00737708 -0.00712356 -0.00106618
v 0.00453479 0.008739471 -9.71906E-05
v 0.00413566 0.00879958 4.15167E-05
v 0.00451729 0.008856609 -9.71906E-05
v 0.00479897 0.00877895 -0.000489063
v 0.00478147 0.008896089 -0.000489063
v 0.00734758 -0.00692616 -0.00106618
v 0.00746535 -0.00711037 -0.00174817
v 0.00499603 0.0088084 -0.00106619
v 0.00497853 0.00892555 -0.00106619
v 0.00743585 -0.00691297 -0.00174817
v 0.00737708 -0.00712356 -0.00243015
v 0.00508431 0.0088216 -0.00174817
v 0.0050668 0.00893874 -0.00174817
v 0.00734758 -0.00692617 -0.00243015
v 0.00718002 -0.00715301 -0.00300728
v 0.00499603 0.0088084 -0.00243015
v 0.00497853 0.00892555 -0.00243015
v 0.00715052 -0.00695562 -0.00300728
v 0.00691584 -0.0071925 -0.00339915
v 0.00479897 0.00877895 -0.00300728
v 0.00478147 0.008896089 -0.00300728
v 0.00688634 -0.0069951 -0.00339915
v 0.00653422 -0.00724953 -0.00353786
v 0.00650472 -0.00705213 -0.00353786
v 0.00453479 0.008739471 -0.00339915
v 0.00451729 0.008856609 -0.00339915
v 0.00415317 0.00868244 -0.00353786
v 0.00413566 0.00879958 -0.00353786
v 0.00445727 0.00884764 -0.00323151
v 0.00413883 0.00868029 -0.00334796
v 0.00412132 0.00879744 -0.00334796
v 0.00447477 0.0087305 -0.00323151
v 0.00468127 0.00888112 -0.00289314
v 0.00682632 -0.00700407 -0.0032315
v 0.00649037 -0.00705428 -0.00334796
v 0.00469878 0.00876398 -0.00289314
v 0.00486072 0.008907939 -0.00236662
v 0.00685582 -0.00720147 -0.0032315
v 0.00651988 -0.00725167 -0.00334796
v 0.00707983 -0.00716799 -0.00289313
v 0.00705032 -0.00697059 -0.00289313
v 0.00725928 -0.00714117 -0.00236661
v 0.00722978 -0.00694377 -0.00236661
v 0.00734045 -0.00712904 -0.00174817
v 0.00487823 0.008790799 -0.00236662
v 0.00494189 0.00892007 -0.00174817
v 0.00731095 -0.00693164 -0.00174817
v 0.00725928 -0.00714117 -0.00112972
v 0.0049594 0.00880293 -0.00174817
v 0.00486072 0.008907939 -0.00112972
v 0.00722978 -0.00694377 -0.00112972
v 0.00707982 -0.00716799 -0.000603201
v 0.00487823 0.008790799 -0.00112972
v 0.00468127 0.00888112 -0.000603204
v 0.00705032 -0.00697059 -0.000603201
v 0.00685582 -0.00720147 -0.000264831
v 0.00469878 0.00876398 -0.000603204
v 0.00445727 0.00884764 -0.000264833
v 0.00682632 -0.00700407 -0.000264831
v 0.00651988 -0.00725167 -0.000148376
v 0.00649037 -0.00705427 -0.000148376
v 0.00447477 0.0087305 -0.000264833
v 0.00412132 0.00879744 -0.000148378
v 0.00413883 0.0086803 -0.000148378
v -0.0071379 0.00699498 -0.000173594
v 0.00412132 0.00879744 -0.000148378
v -0.00715541 0.00711212 -0.000173594
v 0.00413883 0.0086803 -0.000148378
v -0.00478635 -0.00873959 -0.000173592
v 0.00649037 -0.00705427 -0.000148376
v -0.00475685 -0.00893699 -0.000173592
v 0.00651988 -0.00725167 -0.000148376
v -0.00488613 -0.0087545 -0.000173815
v -0.00485663 -0.0089519 -0.000173815
v -0.00723768 0.00698007 -0.000173818
v -0.0071379 0.00699498 -0.000173594
v -0.00501899 -0.00877436 -0.000174112
v -0.00498949 -0.00897176 -0.000174112
v -0.00737054 0.00696021 -0.000174115
v -0.00725518 0.00709721 -0.000173818
v -0.00715541 0.00711212 -0.000173594
v -0.007388039 0.00707735 -0.000174115
v -0.00725159 0.00709775 1.72539E-05
v -0.00736706 0.00696073 1.69706E-05
v -0.00738457 0.007077869 1.69706E-05
v -0.00723408 0.00698061 1.72539E-05
v -0.007151709 0.00711267 1.74667E-05
v -0.00488253 -0.00875397 1.72566E-05
v -0.00501551 -0.00877384 1.69733E-05
v -0.00713421 0.00699553 1.74667E-05
v -0.00485303 -0.00895137 1.72566E-05
v -0.00498601 -0.008971239 1.69733E-05
v -0.00478266 -0.008739039 1.74694E-05
v -0.00475316 -0.00893644 1.74694E-05
v 0.00653422 -0.00724953 4.15193E-05
v 0.00650472 -0.00705213 4.15193E-05
v 0.00415317 0.00868244 4.15167E-05
v 0.00413566 0.00879958 4.15167E-05
v -0.00485303 -0.00895137 1.72566E-05
v -0.00498782 -0.00897151 -8.26822E-05
v -0.00498601 -0.008971239 1.69733E-05
v -0.00485491 -0.00895165 -8.23916E-05
v -0.00498949 -0.00897176 -0.000174112
v -0.00485663 -0.0089519 -0.000173815
v -0.00475316 -0.00893644 1.74694E-05
v -0.00475508 -0.00893673 -8.21741E-05
v -0.00475685 -0.00893699 -0.000173592
v 0.00651988 -0.00725167 -0.000148376
v 0.00652674 -0.00725065 -5.75153E-05
v 0.00653422 -0.00724953 4.15193E-05
v 0.00691584 -0.0071925 -9.71879E-05
v 0.006884539 -0.00719717 -0.000184617
v 0.00685582 -0.00720147 -0.000264831
v 0.00707982 -0.00716799 -0.000603201
v 0.00712777 -0.00716082 -0.000548588
v 0.00718002 -0.00715301 -0.00048906
v 0.00737708 -0.00712356 -0.00106618
v 0.00725928 -0.00714117 -0.00112972
v 0.00731565 -0.00713274 -0.00109932
v 0.00746535 -0.00711037 -0.00174817
v 0.00740021 -0.00712011 -0.00174817
v 0.00734045 -0.00712904 -0.00174817
v 0.00725928 -0.00714117 -0.00236661
v 0.00731565 -0.00713275 -0.00239702
v 0.00737708 -0.00712356 -0.00243015
v 0.00718002 -0.00715301 -0.00300728
v 0.00707983 -0.00716799 -0.00289313
v 0.00712777 -0.00716082 -0.00294775
v 0.00691584 -0.0071925 -0.00339915
v 0.006884539 -0.00719718 -0.00331172
v 0.00685582 -0.00720147 -0.0032315
v 0.00651988 -0.00725167 -0.00334796
v 0.00652674 -0.00725065 -0.00343882
v 0.00653422 -0.00724953 -0.00353786
v -0.00475398 -0.00893656 -0.00353826
v -0.00475411 -0.008936579 -0.00334711
v -0.00475405 -0.00893657 -0.00343857
v -0.00485611 -0.00895183 -0.00353826
v -0.00485611 -0.00895183 -0.00343857
v -0.00485611 -0.00895183 -0.0033471
v -0.00488561 -0.008754429 -0.0033471
v -0.00475411 -0.008936579 -0.00334711
v -0.00485611 -0.00895183 -0.0033471
v -0.00478362 -0.00873918 -0.00334711
v -0.00723715 0.00698014 -0.0033471
v 0.00649037 -0.00705428 -0.00334796
v 0.00651988 -0.00725167 -0.00334796
v 0.00413883 0.00868029 -0.00334796
v -0.00713516 0.00699538 -0.00334711
v 0.00412132 0.00879744 -0.00334796
v -0.00715267 0.00711253 -0.00334711
v -0.00725466 0.00709728 -0.0033471
v -0.00488561 -0.008754429 -0.00353826
v -0.00485611 -0.00895183 -0.00343857
v -0.00485611 -0.00895183 -0.00353826
v -0.00488561 -0.008754429 -0.00343857
v -0.00723715 0.00698014 -0.00353826
v -0.00488561 -0.008754429 -0.0033471
v -0.00485611 -0.00895183 -0.0033471
v -0.00723715 0.00698014 -0.0033471
v -0.00723715 0.00698014 -0.00343857
v -0.00725466 0.00709728 -0.00353826
v -0.00725466 0.00709728 -0.00343857
v -0.00725466 0.00709728 -0.0033471
v -0.00501899 -0.00877436 -0.000174112
v -0.00498782 -0.00897151 -8.26822E-05
v -0.00498949 -0.00897176 -0.000174112
v -0.00501733 -0.00877411 -8.26822E-05
v -0.00737054 0.00696021 -0.000174115
v -0.00501551 -0.00877384 1.69733E-05
v -0.00498601 -0.008971239 1.69733E-05
v -0.00736887 0.00696046 -8.26856E-05
v -0.00736706 0.00696073 1.69706E-05
v -0.00738457 0.007077869 1.69706E-05
v -0.00738638 0.007077599 -8.26856E-05
v -0.007388039 0.00707735 -0.000174115
v -0.00725466 0.00709728 -0.00343857
v -0.00715267 0.00711253 -0.00334711
v -0.00725466 0.00709728 -0.0033471
v -0.00715261 0.00711254 -0.00343857
v -0.00715254 0.00711255 -0.00353826
v -0.00725466 0.00709728 -0.00353826
v 0.00413566 0.00879958 -0.00353786
v 0.00412818 0.00879846 -0.00343882
v 0.00412132 0.00879744 -0.00334796
v 0.00451729 0.008856609 -0.00339915
v 0.00448598 0.00885193 -0.00331172
v 0.00445727 0.00884764 -0.00323151
v 0.00468127 0.00888112 -0.00289314
v 0.00472921 0.00888828 -0.00294775
v 0.00478147 0.008896089 -0.00300728
v 0.00497853 0.00892555 -0.00243015
v 0.00486072 0.008907939 -0.00236662
v 0.00491709 0.00891636 -0.00239702
v 0.0050668 0.00893874 -0.00174817
v 0.00500166 0.008928999 -0.00174817
v 0.00494189 0.00892007 -0.00174817
v 0.00486072 0.008907939 -0.00112972
v 0.00491709 0.00891636 -0.00109932
v 0.00497853 0.00892555 -0.00106619
v 0.00478147 0.008896089 -0.000489063
v 0.00468127 0.00888112 -0.000603204
v 0.00472921 0.008888289 -0.00054859
v 0.00451729 0.008856609 -9.71906E-05
v 0.00448598 0.00885193 -0.00018462
v 0.00445727 0.00884764 -0.000264833
v 0.00412132 0.00879744 -0.000148378
v 0.00412818 0.00879846 -5.7518E-05
v 0.00413566 0.00879958 4.15167E-05
v -0.00715541 0.00711212 -0.000173594
v -0.00715364 0.00711238 -8.21768E-05
v -0.007151709 0.00711267 1.74667E-05
v -0.00725518 0.00709721 -0.000173818
v -0.00725346 0.00709746 -8.23949E-05
v -0.007388039 0.00707735 -0.000174115
v -0.00725159 0.00709775 1.72539E-05
v -0.00738638 0.007077599 -8.26856E-05
v -0.00738457 0.007077869 1.69706E-05
v -0.00723715 0.00698014 -0.00353826
v -0.00715254 0.00711255 -0.00353826
v -0.00725466 0.00709728 -0.00353826
v -0.00713503 0.0069954 -0.00353826
v -0.00488561 -0.008754429 -0.00353826
v 0.00415317 0.00868244 -0.00353786
v 0.00413566 0.00879958 -0.00353786
v 0.00650472 -0.00705213 -0.00353786
v -0.00478349 -0.00873917 -0.00353826
v -0.00485611 -0.00895183 -0.00353826
v 0.00653422 -0.00724953 -0.00353786
v -0.00475398 -0.00893656 -0.00353826
vt 0.146638 0.382733
vt 0.150049 0.381197
vt 0.146627 0.381217
vt 0.15006 0.382713
vt 0.153263 0.381177
vt 0.147533 0.503655
vt 0.153271 0.382697
vt 0.156982 0.381169
vt 0.150953 0.503635
vt 0.147539 0.504555
vt 0.15096 0.504534
vt 0.154165 0.503618
vt 0.15417 0.504515
vt 0.156987 0.382686
vt 0.160951 0.381157
vt 0.157882 0.503608
vt 0.157885 0.504508
vt 0.160957 0.382673
vt 0.164921 0.38114
vt 0.161852 0.503594
vt 0.161855 0.504495
vt 0.164928 0.382656
vt 0.168639 0.381121
vt 0.165823 0.503577
vt 0.165827 0.504477
vt 0.168648 0.382636
vt 0.171853 0.381098
vt 0.169542 0.503558
vt 0.169548 0.504459
vt 0.171864 0.382615
vt 0.175279 0.381074
vt 0.17529 0.382591
vt 0.172758 0.503536
vt 0.172765 0.504436
vt 0.176184 0.503512
vt 0.176191 0.504412
vt 0.149299 0.636027
vt 0.146316 0.63513
vt 0.146323 0.636034
vt 0.149292 0.635123
vt 0.151999 0.636018
vt 0.148396 0.514125
vt 0.145421 0.514132
vt 0.151995 0.635118
vt 0.155328 0.636025
vt 0.148385 0.512604
vt 0.14541 0.512611
vt 0.151085 0.512597
vt 0.151093 0.51412
vt 0.154403 0.5126
vt 0.154414 0.514115
vt 0.157912 0.512556
vt 0.155321 0.635114
vt 0.158864 0.635979
vt 0.157941 0.514069
vt 0.161419 0.512463
vt 0.158847 0.635067
vt 0.162397 0.635886
vt 0.161467 0.513978
vt 0.164726 0.512336
vt 0.162368 0.634977
vt 0.165722 0.635759
vt 0.164789 0.513855
vt 0.167418 0.512205
vt 0.165684 0.634854
vt 0.168412 0.635628
vt 0.167482 0.513726
vt 0.170405 0.512067
vt 0.170444 0.513603
vt 0.168373 0.634726
vt 0.171365 0.635491
vt 0.171341 0.634602
vt 0.269673 0.63384
vt 0.171365 0.635491
vt 0.269694 0.634747
vt 0.171341 0.634602
vt 0.268773 0.512838
vt 0.170444 0.513603
vt 0.268759 0.511316
vt 0.170405 0.512067
vt 0.269633 0.512803
vt 0.26962 0.511282
vt 0.27053 0.633797
vt 0.269673 0.63384
vt 0.270788 0.512774
vt 0.27077 0.511254
vt 0.271684 0.633771
vt 0.270551 0.634696
vt 0.269694 0.634747
vt 0.2717 0.634675
vt 0.0482779 0.505282
vt 0.0471125 0.50439
vt 0.0471191 0.50529
vt 0.0482713 0.504382
vt 0.0491477 0.505278
vt 0.0473768 0.383461
vt 0.046218 0.383468
vt 0.0491411 0.504378
vt 0.0473655 0.381944
vt 0.0462068 0.381952
vt 0.0482466 0.383457
vt 0.0482354 0.38194
vt 0.146627 0.381217
vt 0.146638 0.382733
vt 0.147533 0.503655
vt 0.147539 0.504555
vt 0.196418 0.666241
vt 0.195243 0.665672
vt 0.195258 0.66624
vt 0.196401 0.665673
vt 0.195228 0.665151
vt 0.196386 0.665153
vt 0.197289 0.666242
vt 0.197272 0.665675
vt 0.197256 0.665154
vt 0.295565 0.665298
vt 0.295625 0.665815
vt 0.29569 0.666379
vt 0.299017 0.665589
vt 0.298744 0.665091
vt 0.298494 0.664634
vt 0.300447 0.662707
vt 0.300865 0.663018
vt 0.30132 0.663357
vt 0.303038 0.66007
vt 0.302011 0.659708
vt 0.302503 0.659881
vt 0.303808 0.656185
vt 0.30324 0.656185
vt 0.302719 0.656185
vt 0.302011 0.652662
vt 0.302503 0.652489
vt 0.303038 0.6523
vt 0.30132 0.649012
vt 0.300447 0.649663
vt 0.300865 0.649351
vt 0.299017 0.64678
vt 0.298744 0.647278
vt 0.298494 0.647735
vt 0.295565 0.647072
vt 0.295625 0.646554
vt 0.29569 0.64599
vt 0.197281 0.645988
vt 0.19728 0.647077
vt 0.197281 0.646556
vt 0.196391 0.645988
vt 0.196391 0.646556
vt 0.196391 0.647077
vt 0.0462179 0.51485
vt 0.0470923 0.513327
vt 0.0462068 0.513329
vt 0.0471034 0.514848
vt 0.0471129 0.635848
vt 0.145421 0.514132
vt 0.14541 0.512611
vt 0.146316 0.63513
vt 0.0479983 0.635846
vt 0.146323 0.636034
vt 0.0480049 0.63675
vt 0.0471195 0.636752
vt 0.168231 0.643396
vt 0.16975 0.643898
vt 0.16975 0.643396
vt 0.168231 0.643898
vt 0.0471085 0.643396
vt 0.168231 0.644358
vt 0.16975 0.644358
vt 0.0471085 0.644358
vt 0.0471085 0.643898
vt 0.0462067 0.643396
vt 0.0462067 0.643898
vt 0.0462067 0.644358
vt 0.270788 0.512774
vt 0.271283 0.511234
vt 0.27077 0.511254
vt 0.271309 0.512754
vt 0.271684 0.633771
vt 0.271877 0.512743
vt 0.27185 0.511221
vt 0.272201 0.633752
vt 0.272768 0.633739
vt 0.27279 0.634639
vt 0.272222 0.634655
vt 0.2717 0.634675
vt 0.288391 0.637485
vt 0.287502 0.638006
vt 0.288391 0.638006
vt 0.287501 0.637485
vt 0.2875 0.636917
vt 0.288391 0.636917
vt 0.189092 0.636919
vt 0.189157 0.637483
vt 0.189217 0.638001
vt 0.185765 0.637709
vt 0.186037 0.638207
vt 0.186288 0.638664
vt 0.184335 0.640592
vt 0.183917 0.640281
vt 0.183461 0.639942
vt 0.181744 0.643229
vt 0.182771 0.643591
vt 0.182279 0.643418
vt 0.180974 0.647114
vt 0.181542 0.647114
vt 0.182063 0.647114
vt 0.182771 0.650637
vt 0.182279 0.65081
vt 0.181744 0.650999
vt 0.183461 0.654286
vt 0.184335 0.653636
vt 0.183917 0.653947
vt 0.185765 0.656518
vt 0.186037 0.65602
vt 0.186288 0.655563
vt 0.189217 0.656227
vt 0.189157 0.656744
vt 0.189092 0.657308
vt 0.287525 0.656083
vt 0.28751 0.656604
vt 0.287493 0.657171
vt 0.288395 0.656082
vt 0.28838 0.656603
vt 0.289554 0.65608
vt 0.288364 0.65717
vt 0.289539 0.656601
vt 0.289523 0.657169
vt 0.275478 0.502779
vt 0.274593 0.503685
vt 0.275485 0.503679
vt 0.274587 0.502785
vt 0.274584 0.381857
vt 0.176184 0.503512
vt 0.176191 0.504412
vt 0.17529 0.382591
vt 0.273692 0.381864
vt 0.274572 0.380341
vt 0.175279 0.381074
vt 0.273681 0.380347
vn 0.3345651 0.05000122 0.9410452
vn 0.6315634 0.09438795 0.7695575
vn 0.3345651 0.05000122 0.9410452
vn 0.6315634 0.09438795 0.7695575
vn 0.8869978 0.132563 0.4423369
vn 0.3345651 0.05000122 0.9410452
vn 0.8869978 0.132563 0.4423369
vn 0.9632951 0.143965 0.226576
vn 0.6315634 0.09438795 0.7695575
vn 0.3345651 0.05000122 0.9410452
vn 0.6315634 0.09438795 0.7695575
vn 0.8869978 0.132563 0.4423369
vn 0.8869978 0.132563 0.4423369
vn 0.9632951 0.143965 0.226576
vn 0.9890159 0.147809 0
vn 0.9632951 0.143965 0.226576
vn 0.9632951 0.143965 0.226576
vn 0.9890159 0.147809 0
vn 0.9632951 0.143965 -0.226576
vn 0.9890159 0.147809 0
vn 0.9890159 0.147809 0
vn 0.9632951 0.143965 -0.226576
vn 0.8869978 0.132563 -0.4423369
vn 0.9632951 0.143965 -0.226576
vn 0.9632951 0.143965 -0.226576
vn 0.8869978 0.132563 -0.4423369
vn 0.6315634 0.09438776 -0.7695575
vn 0.8869978 0.132563 -0.4423369
vn 0.8869978 0.132563 -0.4423369
vn 0.6315634 0.09438776 -0.7695575
vn 0.3345651 0.05000101 -0.9410452
vn 0.3345651 0.05000101 -0.9410452
vn 0.6315634 0.09438776 -0.7695575
vn 0.6315634 0.09438776 -0.7695575
vn 0.3345651 0.05000101 -0.9410452
vn 0.3345651 0.05000101 -0.9410452
vn -0.6309657 -0.09429825 0.7700585
vn -0.3207492 -0.04793612 0.9459503
vn -0.3207492 -0.04793612 0.9459503
vn -0.6309657 -0.09429825 0.7700585
vn -0.8887678 -0.132827 0.4386899
vn -0.6309657 -0.09429825 0.7700585
vn -0.3207492 -0.04793612 0.9459503
vn -0.8887678 -0.132827 0.4386899
vn -0.9631436 -0.1439429 0.2272329
vn -0.6309661 -0.09429832 0.7700581
vn -0.3207492 -0.04793612 0.9459503
vn -0.8887678 -0.132827 0.4386899
vn -0.8887678 -0.132827 0.4386899
vn -0.9631436 -0.1439429 0.2272329
vn -0.9631436 -0.1439429 0.2272329
vn -0.9890159 -0.147809 0
vn -0.9631436 -0.1439429 0.2272329
vn -0.9890159 -0.147809 0
vn -0.9890159 -0.147809 0
vn -0.9631433 -0.1439429 -0.2272338
vn -0.9890159 -0.147809 0
vn -0.9631433 -0.1439429 -0.2272338
vn -0.9631433 -0.1439429 -0.2272338
vn -0.8887678 -0.132827 -0.4386899
vn -0.9631433 -0.1439429 -0.2272338
vn -0.8887678 -0.132827 -0.4386899
vn -0.8887678 -0.132827 -0.4386899
vn -0.6309657 -0.09429854 -0.7700585
vn -0.8887678 -0.132827 -0.4386899
vn -0.6309661 -0.09429861 -0.7700581
vn -0.6309661 -0.09429861 -0.7700581
vn -0.3207492 -0.04793642 -0.9459503
vn -0.3207492 -0.04793642 -0.9459503
vn -0.6309661 -0.09429861 -0.7700581
vn -0.3207492 -0.04793642 -0.9459503
vn -0.3207492 -0.04793642 -0.9459503
vn 0.002187299 0.0003267289 -0.9999976
vn 0.002187299 0.0003267289 -0.9999976
vn 0.002187299 0.0003267289 -0.9999976
vn 0.002187299 0.0003267289 -0.9999976
vn 0.00218729 0.0003267279 -0.9999976
vn 0.00218729 0.0003267279 -0.9999976
vn 0.00218729 0.0003267279 -0.9999976
vn 0.00218729 0.0003267279 -0.9999976
vn 0.002187559 0.0003267679 -0.9999976
vn 0.002187559 0.0003267679 -0.9999976
vn 0.002187559 0.0003267609 -0.9999976
vn 0.002186649 0.0003266329 -0.9999976
vn 0.002187559 0.0003267679 -0.9999976
vn 0.002187559 0.0003267679 -0.9999976
vn 0.002187559 0.0003267609 -0.9999976
vn 0.002187559 0.0003267679 -0.9999976
vn 0.002186649 0.0003266329 -0.9999976
vn 0.002187559 0.0003267679 -0.9999976
vn -0.0020842 -0.00031132 0.9999979
vn -0.0020842 -0.00031132 0.9999979
vn -0.0020842 -0.00031132 0.9999979
vn -0.0020842 -0.00031132 0.9999979
vn -0.00208417 -0.000311316 0.9999979
vn -0.0020842 -0.000311321 0.9999979
vn -0.0020842 -0.000311321 0.9999979
vn -0.00208415 -0.000311303 0.9999979
vn -0.0020842 -0.000311321 0.9999979
vn -0.0020842 -0.000311321 0.9999979
vn -0.00208414 -0.000311312 0.9999979
vn -0.00208414 -0.000311312 0.9999979
vn -0.00208414 -0.000311312 0.9999979
vn -0.00208414 -0.000311312 0.9999979
vn -0.00208415 -0.000311303 0.9999979
vn -0.00208417 -0.000311316 0.9999979
vn 0.147809 -0.9890159 1.62921E-07
vn 0.147809 -0.9890159 1.62921E-07
vn 0.147809 -0.9890159 1.62921E-07
vn 0.147809 -0.9890159 1.62921E-07
vn 0.147809 -0.9890159 1.62921E-07
vn 0.147809 -0.9890159 1.62921E-07
vn 0.147809 -0.9890159 1.62921E-07
vn 0.147809 -0.9890159 1.62921E-07
vn 0.147809 -0.9890159 1.62921E-07
vn 0.147809 -0.9890159 1.62921E-07
vn 0.147809 -0.9890159 1.62921E-07
vn 0.147809 -0.9890159 1.62921E-07
vn 0.147809 -0.9890159 1.62921E-07
vn 0.147809 -0.9890159 1.62921E-07
vn 0.147809 -0.9890159 1.62921E-07
vn 0.147809 -0.9890159 1.62921E-07
vn 0.147809 -0.9890159 1.62921E-07
vn 0.147809 -0.9890159 1.62921E-07
vn 0.147809 -0.9890159 1.62921E-07
vn 0.147809 -0.9890159 1.62921E-07
vn 0.147809 -0.9890159 1.62921E-07
vn 0.147809 -0.9890159 1.62921E-07
vn 0.147809 -0.9890159 1.62921E-07
vn 0.147809 -0.9890159 1.62921E-07
vn 0.147809 -0.9890159 1.62921E-07
vn 0.147809 -0.9890159 1.62921E-07
vn 0.147809 -0.9890159 1.62921E-07
vn 0.147809 -0.9890159 1.62921E-07
vn 0.147809 -0.9890159 1.62921E-07
vn 0.147809 -0.9890159 1.62921E-07
vn 0.147809 -0.9890159 1.62921E-07
vn 0.147809 -0.9890159 1.62921E-07
vn 0.147809 -0.9890159 1.62921E-07
vn 0.147809 -0.9890159 1.62921E-07
vn 0.147809 -0.9890159 1.62921E-07
vn 0.147809 -0.9890159 1.62921E-07
vn 0.147809 -0.9890159 1.62921E-07
vn 0.147809 -0.9890159 1.62921E-07
vn 0.147809 -0.9890159 1.62921E-07
vn 0.147809 -0.9890159 1.62921E-07
vn 0.147809 -0.9890159 1.62921E-07
vn 0.147809 -0.9890159 1.62921E-07
vn 7.32415E-05 1.11107E-05 1
vn 7.32415E-05 1.11107E-05 1
vn 7.32415E-05 1.11107E-05 1
vn 7.32415E-05 1.11107E-05 1
vn 7.32415E-05 1.11107E-05 1
vn 7.39293E-05 1.12135E-05 1
vn 7.39293E-05 1.12135E-05 1
vn 7.39293E-05 1.12135E-05 1
vn 7.39293E-05 1.12135E-05 1
vn 7.39293E-05 1.12135E-05 1
vn 7.39293E-05 1.12135E-05 1
vn 7.32415E-05 1.11107E-05 1
vn -0.9890159 -0.147809 0
vn -0.9890159 -0.147809 0
vn -0.9890159 -0.147809 0
vn -0.9890159 -0.147809 0
vn -0.9890159 -0.147809 0
vn -0.9890159 -0.147809 0
vn -0.9890159 -0.147809 0
vn -0.9890159 -0.147809 0
vn -0.9890159 -0.147809 0
vn -0.9890159 -0.147809 0
vn -0.9890159 -0.147809 0
vn -0.9890159 -0.147809 0
vn -0.988849 -0.147784 0.0183708
vn -0.988849 -0.147784 0.0183708
vn -0.988849 -0.147784 0.0183708
vn -0.988849 -0.147784 0.0183708
vn -0.988849 -0.147784 0.0183708
vn -0.9888489 -0.147784 0.0183765
vn -0.9888489 -0.147784 0.0183765
vn -0.9888489 -0.147784 0.0183765
vn -0.9888489 -0.147784 0.0183765
vn -0.9888489 -0.147784 0.0183765
vn -0.9888489 -0.147784 0.0183765
vn -0.988849 -0.147784 0.0183708
vn -0.147809 0.9890159 -1.62921E-07
vn -0.147809 0.9890159 -1.62921E-07
vn -0.147809 0.9890159 -1.62921E-07
vn -0.147809 0.9890159 -1.62921E-07
vn -0.147809 0.9890159 -1.62921E-07
vn -0.147809 0.9890159 -1.62921E-07
vn -0.147809 0.9890159 -1.62921E-07
vn -0.147809 0.9890159 -1.62921E-07
vn -0.147809 0.9890159 -1.62921E-07
vn -0.147809 0.9890159 -1.62921E-07
vn -0.147809 0.9890159 -1.62921E-07
vn -0.147809 0.9890159 -1.62921E-07
vn -0.147809 0.9890159 -1.62921E-07
vn -0.147809 0.9890159 -1.62921E-07
vn -0.147809 0.9890159 -1.62921E-07
vn -0.147809 0.9890159 -1.62921E-07
vn -0.147809 0.9890159 -1.62921E-07
vn -0.147809 0.9890159 -1.62921E-07
vn -0.147809 0.9890159 -1.62921E-07
vn -0.147809 0.9890159 -1.62921E-07
vn -0.147809 0.9890159 -1.62921E-07
vn -0.147809 0.9890159 -1.62921E-07
vn -0.147809 0.9890159 -1.62921E-07
vn -0.147809 0.9890159 -1.62921E-07
vn -0.147809 0.9890159 -1.62921E-07
vn -0.147809 0.9890159 -1.62921E-07
vn -0.147809 0.9890159 -1.62921E-07
vn -0.147809 0.9890159 -1.62921E-07
vn -0.147809 0.9890159 -1.62921E-07
vn -0.147809 0.9890159 -1.62921E-07
vn -0.147809 0.9890159 -1.62921E-07
vn -0.147809 0.9890159 -1.62921E-07
vn -0.147809 0.9890159 -1.62921E-07
vn -0.147809 0.9890159 -1.68746E-07
vn -0.147809 0.9890159 -1.68743E-07
vn -0.147809 0.9890159 -1.68743E-07
vn -0.147809 0.9890159 -1.62921E-07
vn -0.147809 0.9890159 -1.62921E-07
vn -0.147809 0.9890159 -1.62921E-07
vn -0.147809 0.9890159 -1.62921E-07
vn -0.147809 0.9890159 -1.62921E-07
vn -0.147809 0.9890159 -1.62921E-07
vn 3.43931E-05 4.97535E-06 -1
vn 3.43931E-05 4.97535E-06 -1
vn 3.43931E-05 4.97535E-06 -1
vn 3.43931E-05 4.97535E-06 -1
vn 3.43931E-05 4.97535E-06 -1
vn 3.47476E-05 5.02834E-06 -1
vn 3.47476E-05 5.02834E-06 -1
vn 3.47476E-05 5.02834E-06 -1
vn 3.43931E-05 4.97535E-06 -1
vn 3.43931E-05 4.97535E-06 -1
vn 3.47476E-05 5.02834E-06 -1
vn 3.43931E-05 4.97535E-06 -1
usemtl cover
f 1/1/1 3/3/3 2/2/2 
f 2/2/2 4/4/4 1/1/1 
f 4/4/4 2/2/2 5/5/5 
f 6/6/6 1/1/1 4/4/4 
f 5/5/5 7/7/7 4/4/4 
f 7/7/7 5/5/5 8/8/8 
f 4/4/4 9/9/9 6/6/6 
f 9/9/9 4/4/4 7/7/7 
f 10/10/10 6/6/6 9/9/9 
f 9/9/9 11/11/11 10/10/10 
f 11/11/11 9/9/9 12/12/12 
f 7/7/7 12/12/12 9/9/9 
f 12/12/12 13/13/13 11/11/11 
f 8/8/8 14/14/14 7/7/7 
f 12/12/12 7/7/7 14/14/14 
f 14/14/14 8/8/8 15/15/15 
f 13/13/13 12/12/12 16/16/16 
f 14/14/14 16/16/16 12/12/12 
f 16/16/16 17/17/17 13/13/13 
f 15/15/15 18/18/18 14/14/14 
f 16/16/16 14/14/14 18/18/18 
f 18/18/18 15/15/15 19/19/19 
f 17/17/17 16/16/16 20/20/20 
f 18/18/18 20/20/20 16/16/16 
f 20/20/20 21/21/21 17/17/17 
f 19/19/19 22/22/22 18/18/18 
f 20/20/20 18/18/18 22/22/22 
f 22/22/22 19/19/19 23/23/23 
f 21/21/21 20/20/20 24/24/24 
f 22/22/22 24/24/24 20/20/20 
f 24/24/24 25/25/25 21/21/21 
f 23/23/23 26/26/26 22/22/22 
f 24/24/24 22/22/22 26/26/26 
f 26/26/26 23/23/23 27/27/27 
f 25/25/25 24/24/24 28/28/28 
f 26/26/26 28/28/28 24/24/24 
f 28/28/28 29/29/29 25/25/25 
f 27/27/27 30/30/30 26/26/26 
f 28/28/28 26/26/26 30/30/30 
f 30/30/30 27/27/27 31/31/31 
f 31/31/31 32/32/32 30/30/30 
f 29/29/29 28/28/28 33/33/33 
f 30/30/30 33/33/33 28/28/28 
f 33/33/33 30/30/30 32/32/32 
f 33/33/33 34/34/34 29/29/29 
f 32/32/32 35/35/35 33/33/33 
f 34/34/34 33/33/33 35/35/35 
f 35/35/35 36/36/36 34/34/34 
f 37/37/37 39/39/39 38/38/38 
f 38/38/38 40/40/40 37/37/37 
f 41/41/41 37/37/37 40/40/40 
f 42/42/42 40/40/40 38/38/38 
f 38/38/38 43/43/43 42/42/42 
f 40/40/40 44/44/44 41/41/41 
f 45/45/45 41/41/41 44/44/44 
f 46/46/46 42/42/42 43/43/43 
f 43/43/43 47/47/47 46/46/46 
f 42/42/42 46/46/46 48/48/48 
f 40/40/40 42/42/42 49/49/49 
f 48/48/48 49/49/49 42/42/42 
f 49/49/49 44/44/44 40/40/40 
f 49/49/49 48/48/48 50/50/50 
f 50/50/50 51/51/51 49/49/49 
f 44/44/44 49/49/49 51/51/51 
f 51/51/51 50/50/50 52/52/52 
f 44/44/44 53/53/53 45/45/45 
f 51/51/51 53/53/53 44/44/44 
f 54/54/54 45/45/45 53/53/53 
f 52/52/52 55/55/55 51/51/51 
f 53/53/53 51/51/51 55/55/55 
f 55/55/55 52/52/52 56/56/56 
f 53/53/53 57/57/57 54/54/54 
f 55/55/55 57/57/57 53/53/53 
f 58/58/58 54/54/54 57/57/57 
f 56/56/56 59/59/59 55/55/55 
f 57/57/57 55/55/55 59/59/59 
f 59/59/59 56/56/56 60/60/60 
f 57/57/57 61/61/61 58/58/58 
f 59/59/59 61/61/61 57/57/57 
f 62/62/62 58/58/58 61/61/61 
f 60/60/60 63/63/63 59/59/59 
f 61/61/61 59/59/59 63/63/63 
f 63/63/63 60/60/60 64/64/64 
f 61/61/61 65/65/65 62/62/62 
f 63/63/63 65/65/65 61/61/61 
f 66/66/66 62/62/62 65/65/65 
f 64/64/64 67/67/67 63/63/63 
f 65/65/65 63/63/63 67/67/67 
f 67/67/67 64/64/64 68/68/68 
f 68/68/68 69/69/69 67/67/67 
f 65/65/65 70/70/70 66/66/66 
f 67/67/67 70/70/70 65/65/65 
f 70/70/70 67/67/67 69/69/69 
f 71/71/71 66/66/66 70/70/70 
f 69/69/69 72/72/72 70/70/70 
f 70/70/70 72/72/72 71/71/71 
f 73/73/73 75/75/75 74/74/74 
f 74/74/74 76/76/76 73/73/73 
f 77/77/77 73/73/73 76/76/76 
f 76/76/76 78/78/78 77/77/77 
f 79/79/79 77/77/77 78/78/78 
f 78/78/78 80/80/80 79/79/79 
f 81/81/81 77/77/77 79/79/79 
f 79/79/79 82/82/82 81/81/81 
f 77/77/77 81/81/81 83/83/83 
f 83/83/83 84/84/84 77/77/77 
f 85/85/85 81/81/81 82/82/82 
f 83/83/83 81/81/81 85/85/85 
f 82/82/82 86/86/86 85/85/85 
f 85/85/85 87/87/87 83/83/83 
f 84/84/84 83/83/83 88/88/88 
f 88/88/88 83/83/83 87/87/87 
f 88/88/88 89/89/89 84/84/84 
f 87/87/87 90/90/90 88/88/88 
f 91/91/91 93/93/93 92/92/92 
f 92/92/92 94/94/94 91/91/91 
f 95/95/95 91/91/91 94/94/94 
f 96/96/96 94/94/94 92/92/92 
f 92/92/92 97/97/97 96/96/96 
f 94/94/94 98/98/98 95/95/95 
f 98/98/98 94/94/94 96/96/96 
f 99/99/99 96/96/96 97/97/97 
f 97/97/97 100/100/100 99/99/99 
f 101/101/101 96/96/96 99/99/99 
f 96/96/96 101/101/101 98/98/98 
f 99/99/99 102/102/102 101/101/101 
f 101/101/101 102/102/102 103/103/103 
f 103/103/103 104/104/104 101/101/101 
f 98/98/98 101/101/101 104/104/104 
f 104/104/104 105/105/105 98/98/98 
f 95/95/95 98/98/98 105/105/105 
f 105/105/105 106/106/106 95/95/95 
f 107/107/107 109/109/109 108/108/108 
f 108/108/108 110/110/110 107/107/107 
f 110/110/110 108/108/108 111/111/111 
f 111/111/111 112/112/112 110/110/110 
f 113/113/113 107/107/107 110/110/110 
f 114/114/114 110/110/110 112/112/112 
f 110/110/110 114/114/114 113/113/113 
f 112/112/112 115/115/115 114/114/114 
f 114/114/114 115/115/115 116/116/116 
f 113/113/113 114/114/114 117/117/117 
f 116/116/116 117/117/117 114/114/114 
f 117/117/117 118/118/118 113/113/113 
f 119/119/119 118/118/118 117/117/117 
f 120/120/120 117/117/117 116/116/116 
f 117/117/117 120/120/120 119/119/119 
f 116/116/116 121/121/121 120/120/120 
f 120/120/120 121/121/121 122/122/122 
f 119/119/119 120/120/120 123/123/123 
f 122/122/122 123/123/123 120/120/120 
f 123/123/123 124/124/124 119/119/119 
f 125/125/125 124/124/124 123/123/123 
f 123/123/123 122/122/122 126/126/126 
f 123/123/123 127/127/127 125/125/125 
f 126/126/126 127/127/127 123/123/123 
f 128/128/128 125/125/125 127/127/127 
f 129/129/129 127/127/127 126/126/126 
f 127/127/127 129/129/129 128/128/128 
f 126/126/126 130/130/130 129/129/129 
f 129/129/129 130/130/130 131/131/131 
f 128/128/128 129/129/129 132/132/132 
f 131/131/131 132/132/132 129/129/129 
f 132/132/132 133/133/133 128/128/128 
f 134/134/134 133/133/133 132/132/132 
f 132/132/132 131/131/131 135/135/135 
f 132/132/132 136/136/136 134/134/134 
f 135/135/135 136/136/136 132/132/132 
f 137/137/137 134/134/134 136/136/136 
f 138/138/138 136/136/136 135/135/135 
f 136/136/136 138/138/138 137/137/137 
f 135/135/135 139/139/139 138/138/138 
f 138/138/138 139/139/139 140/140/140 
f 137/137/137 138/138/138 141/141/141 
f 140/140/140 141/141/141 138/138/138 
f 141/141/141 142/142/142 137/137/137 
f 143/143/143 142/142/142 141/141/141 
f 141/141/141 140/140/140 144/144/144 
f 141/141/141 145/145/145 143/143/143 
f 144/144/144 145/145/145 141/141/141 
f 146/146/146 143/143/143 145/145/145 
f 145/145/145 147/147/147 146/146/146 
f 147/147/147 145/145/145 144/144/144 
f 144/144/144 148/148/148 147/147/147 
f 149/149/149 151/151/151 150/150/150 
f 150/150/150 152/152/152 149/149/149 
f 153/153/153 149/149/149 152/152/152 
f 154/154/154 152/152/152 150/150/150 
f 150/150/150 155/155/155 154/154/154 
f 152/152/152 154/154/154 156/156/156 
f 156/156/156 157/157/157 152/152/152 
f 152/152/152 157/157/157 153/153/153 
f 157/157/157 156/156/156 158/158/158 
f 158/158/158 159/159/159 157/157/157 
f 153/153/153 157/157/157 159/159/159 
f 159/159/159 160/160/160 153/153/153 
f 161/161/161 163/163/163 162/162/162 
f 162/162/162 164/164/164 161/161/161 
f 165/165/165 161/161/161 164/164/164 
f 166/166/166 164/164/164 162/162/162 
f 162/162/162 167/167/167 166/166/166 
f 164/164/164 166/166/166 168/168/168 
f 164/164/164 169/169/169 165/165/165 
f 168/168/168 169/169/169 164/164/164 
f 170/170/170 165/165/165 169/169/169 
f 169/169/169 171/171/171 170/170/170 
f 171/171/171 169/169/169 168/168/168 
f 168/168/168 172/172/172 171/171/171 
f 173/173/173 175/175/175 174/174/174 
f 174/174/174 176/176/176 173/173/173 
f 177/177/177 173/173/173 176/176/176 
f 178/178/178 176/176/176 174/174/174 
f 174/174/174 179/179/179 178/178/178 
f 180/180/180 176/176/176 178/178/178 
f 176/176/176 180/180/180 177/177/177 
f 178/178/178 181/181/181 180/180/180 
f 180/180/180 181/181/181 182/182/182 
f 182/182/182 183/183/183 180/180/180 
f 177/177/177 180/180/180 183/183/183 
f 183/183/183 184/184/184 177/177/177 
f 185/185/185 187/187/187 186/186/186 
f 186/186/186 188/188/188 185/185/185 
f 185/185/185 188/188/188 189/189/189 
f 189/189/189 190/190/190 185/185/185 
f 191/191/191 189/189/189 188/188/188 
f 192/192/192 188/188/188 186/186/186 
f 188/188/188 192/192/192 191/191/191 
f 186/186/186 193/193/193 192/192/192 
f 194/194/194 191/191/191 192/192/192 
f 195/195/195 192/192/192 193/193/193 
f 192/192/192 195/195/195 194/194/194 
f 193/193/193 196/196/196 195/195/195 
f 195/195/195 196/196/196 197/197/197 
f 194/194/194 195/195/195 198/198/198 
f 197/197/197 198/198/198 195/195/195 
f 198/198/198 199/199/199 194/194/194 
f 200/200/200 199/199/199 198/198/198 
f 198/198/198 197/197/197 201/201/201 
f 198/198/198 202/202/202 200/200/200 
f 201/201/201 202/202/202 198/198/198 
f 203/203/203 200/200/200 202/202/202 
f 204/204/204 202/202/202 201/201/201 
f 202/202/202 204/204/204 203/203/203 
f 201/201/201 205/205/205 204/204/204 
f 204/204/204 205/205/205 206/206/206 
f 203/203/203 204/204/204 207/207/207 
f 206/206/206 207/207/207 204/204/204 
f 207/207/207 208/208/208 203/203/203 
f 209/209/209 208/208/208 207/207/207 
f 207/207/207 206/206/206 210/210/210 
f 207/207/207 211/211/211 209/209/209 
f 210/210/210 211/211/211 207/207/207 
f 212/212/212 209/209/209 211/211/211 
f 213/213/213 211/211/211 210/210/210 
f 211/211/211 213/213/213 212/212/212 
f 210/210/210 214/214/214 213/213/213 
f 213/213/213 214/214/214 215/215/215 
f 212/212/212 213/213/213 216/216/216 
f 215/215/215 216/216/216 213/213/213 
f 216/216/216 217/217/217 212/212/212 
f 216/216/216 215/215/215 218/218/218 
f 217/217/217 216/216/216 219/219/219 
f 218/218/218 219/219/219 216/216/216 
f 219/219/219 220/220/220 217/217/217 
f 219/219/219 218/218/218 221/221/221 
f 220/220/220 219/219/219 222/222/222 
f 221/221/221 222/222/222 219/219/219 
f 222/222/222 221/221/221 223/223/223 
f 222/222/222 224/224/224 220/220/220 
f 223/223/223 225/225/225 222/222/222 
f 224/224/224 222/222/222 225/225/225 
f 225/225/225 226/226/226 224/224/224 
f 227/227/227 229/229/229 228/228/228 
f 228/228/228 230/230/230 227/227/227 
f 231/231/231 227/227/227 230/230/230 
f 232/232/232 230/230/230 228/228/228 
f 228/228/228 233/233/233 232/232/232 
f 230/230/230 232/232/232 234/234/234 
f 230/230/230 235/235/235 231/231/231 
f 234/234/234 235/235/235 230/230/230 
f 236/236/236 231/231/231 235/235/235 
f 235/235/235 234/234/234 237/237/237 
f 235/235/235 238/238/238 236/236/236 
f 237/237/237 238/238/238 235/235/235 
