# exported by StudySceneExporter from mesh 'Paper004'
mtllib materials.mtl
v 0.00351117 -0.00587961 0.00369489
v 0.00392923 -0.00591578 0.00402427
v 0.00376126 -0.00590125 0.00377877
v -0.00484751 -0.00515624 0.00576852
v -0.00474224 -0.00516535 0.0053498
v -0.00469508 -0.00516943 0.00485499
v -0.00474224 -0.00516535 0.00436018
v -0.00484751 -0.00515624 0.00394146
v -0.00496989 -0.00514565 0.0036949
v 0.00392923 -0.00591578 0.00572818
v 0.00412465 -0.0059327 0.00485499
v 0.00406379 -0.00592743 0.00440628
v 0.00406379 -0.00592743 0.0053037
v 0.00358255 -0.00588578 0.00603362
v 0.00376126 -0.00590125 0.00597368
v -0.00495801 -0.00514668 0.00603362
v 0.00448869 0.00541595 0.00369489
v -0.00386999 0.00613931 0.00394146
v -0.00399237 0.0061499 0.0036949
v -0.00376472 0.0061302 0.00436018
v -0.00371756 0.00612612 0.00485499
v 0.00456007 0.00540977 0.00603362
v -0.00376472 0.0061302 0.0053498
v -0.00386999 0.00613931 0.00576852
v -0.00398049 0.00614887 0.00603362
v 0.00510218 0.00536285 0.00485499
v 0.00490675 0.005379769 0.00402427
v 0.00473878 0.0053943 0.00377877
v 0.00504131 0.00536812 0.00440628
v 0.00490675 0.005379769 0.00572818
v 0.00473878 0.0053943 0.00597368
v 0.00504131 0.00536812 0.00530369
v -0.00386999 0.00613931 0.00394146
v -0.00496989 -0.00514565 0.0036949
v -0.00399237 0.0061499 0.0036949
v -0.00484751 -0.00515624 0.00394146
v -0.00474224 -0.00516535 0.00436018
v -0.00376472 0.0061302 0.00436018
v -0.00469508 -0.00516943 0.00485499
v -0.00371756 0.00612612 0.00485499
v -0.00474224 -0.00516535 0.0053498
v -0.00376472 0.0061302 0.0053498
v -0.00484751 -0.00515624 0.00576852
v -0.00386999 0.00613931 0.00576852
v -0.00495801 -0.00514668 0.00603362
v -0.00398049 0.00614887 0.00603362
vt 0.46042 0.168197
vt 0.700536 0.183038
vt 0.687898 0.171977
vt 0.0401854 0.261628
vt 0.0481058 0.242762
vt 0.0516536 0.220468
vt 0.0481058 0.198173
vt 0.0401854 0.179307
vt 0.0309776 0.168198
vt 0.700536 0.257897
vt 0.71524 0.220468
vt 0.71066 0.20025
vt 0.71066 0.240685
vt 0.674452 0.271659
vt 0.687898 0.268959
vt 0.0318714 0.271659
vt 0.0768405 0.286515
vt 0.702313 0.297755
vt 0.711461 0.286206
vt 0.694451 0.317366
vt 0.690941 0.340536
vt 0.0715844 0.394038
vt 0.694487 0.363703
vt 0.70238 0.383305
vt 0.710657 0.393726
vt 0.0309776 0.340858
vt 0.0455704 0.301954
vt 0.0581303 0.290452
vt 0.0355154 0.319846
vt 0.0456317 0.379748
vt 0.0582095 0.391238
vt 0.0355485 0.361866
vt 0.02 0.0342528
vt 0.98 0.0200001
vt 0.02 0.02
vt 0.98 0.0342528
vt 0.98 0.058372
vt 0.02 0.058372
vt 0.98 0.0868088
vt 0.02 0.0868088
vt 0.98 0.115167
vt 0.02 0.115166
vt 0.98 0.139109
vt 0.02 0.139109
vt 0.98 0.154231
vt 0.02 0.154231
vn -0.08621832 -0.9962763 0
vn -0.08621843 -0.9962763 1.974201E-07
vn -0.08621832 -0.9962763 0
vn -0.08621832 -0.9962763 2.164401E-06
vn -0.08621832 -0.9962763 0
vn -0.08621832 -0.9962763 0
vn -0.08621832 -0.9962763 0
vn -0.08621832 -0.9962763 0
vn -0.08621832 -0.9962763 0
vn -0.08621852 -0.9962763 7.333132E-07
vn -0.08621962 -0.9962763 2.533191E-07
vn -0.08621832 -0.9962763 0
vn -0.08622417 -0.9962758 -7.647398E-07
vn -0.08621823 -0.9962763 1.7151E-06
vn -0.08621753 -0.9962763 2.445081E-06
vn -0.08621832 -0.9962763 3.473311E-06
vn 0.08621832 0.9962763 0
vn 0.08621832 0.9962763 0
vn 0.08621832 0.9962763 0
vn 0.08621832 0.9962763 0
vn 0.08621832 0.9962763 0
vn 0.08621863 0.9962763 -1.76738E-07
vn 0.08621832 0.9962763 0
vn 0.08621832 0.9962763 0
vn 0.08621832 0.9962763 0
vn 0.08621832 0.9962763 0
vn 0.08621832 0.9962763 0
vn 0.08621832 0.9962763 0
vn 0.08621832 0.9962763 0
vn 0.08622001 0.9962761 6.066811E-07
vn 0.08621753 0.9962763 -2.445081E-06
vn 0.08621238 0.9962768 -8.400639E-07
vn -0.9349507 0.08091117 0.3454279
vn -0.8917333 0.07717112 0.4459331
vn -0.8917333 0.07717112 0.4459331
vn -0.9349511 0.0809112 0.3454271
vn -0.9817914 0.08496483 0.1699021
vn -0.9817914 0.08496483 0.1699021
vn -0.9962763 0.08621832 0
vn -0.9962763 0.08621832 0
vn -0.9817914 0.08496483 -0.1699021
vn -0.9817914 0.08496483 -0.1699021
vn -0.9454433 0.08181923 -0.3153451
vn -0.9454427 0.08181909 -0.3153469
vn -0.9190758 0.07953728 -0.3859709
vn -0.9190749 0.07953718 -0.3859729
usemtl paper
f 1/1/1 3/3/3 2/2/2 
f 1/1/1 2/2/2 4/4/4 
f 1/1/1 4/4/4 5/5/5 
f 1/1/1 5/5/5 6/6/6 
f 1/1/1 6/6/6 7/7/7 
f 1/1/1 7/7/7 8/8/8 
f 1/1/1 8/8/8 9/9/9 
f 2/2/2 10/10/10 4/4/4 
f 2/2/2 11/11/11 10/10/10 
f 2/2/2 12/12/12 11/11/11 
f 11/11/11 13/13/13 10/10/10 
f 10/10/10 14/14/14 4/4/4 
f 10/10/10 15/15/15 14/14/14 
f 14/14/14 16/16/16 4/4/4 
f 17/17/17 19/19/19 18/18/18 
f 17/17/17 18/18/18 20/20/20 
f 17/17/17 20/20/20 21/21/21 
f 17/17/17 21/21/21 22/22/22 
f 21/21/21 23/23/23 22/22/22 
f 23/23/23 24/24/24 22/22/22 
f 24/24/24 25/25/25 22/22/22 
f 17/17/17 22/22/22 26/26/26 
f 17/17/17 26/26/26 27/27/27 
f 17/17/17 27/27/27 28/28/28 
f 26/26/26 29/29/29 27/27/27 
f 22/22/22 30/30/30 26/26/26 
f 22/22/22 31/31/31 30/30/30 
f 30/30/30 32/32/32 26/26/26 
f 33/33/33 35/35/35 34/34/34 
f 34/34/34 36/36/36 33/33/33 
f 33/33/33 36/36/36 37/37/37 
f 37/37/37 38/38/38 33/33/33 
f 38/38/38 37/37/37 39/39/39 
f 39/39/39 40/40/40 38/38/38 
f 40/40/40 39/39/39 41/41/41 
f 41/41/41 42/42/42 40/40/40 
f 42/42/42 41/41/41 43/43/43 
f 43/43/43 44/44/44 42/42/42 
f 44/44/44 43/43/43 45/45/45 
f 45/45/45 46/46/46 44/44/44 
