# exported by StudySceneExporter from mesh 'Paper'
mtllib materials.mtl
v 0.00588881 -0.00822114 -0.00601487
v 0.006507359 -0.00822114 -0.00568576
v 0.006258829 -0.00822114 -0.00593105
v -0.00647855 -0.00822114 -0.00394296
v -0.0063228 -0.00822114 -0.00436134
v -0.00625303 -0.00822114 -0.00485573
v -0.0063228 -0.00822114 -0.00535012
v -0.00647855 -0.00822114 -0.0057685
v -0.00665963 -0.00822114 -0.00601485
v 0.006507359 -0.00822114 -0.00398327
v 0.00679651 -0.00822114 -0.00485573
v 0.00670646 -0.00822114 -0.00530407
v 0.00670646 -0.00822114 -0.0044074
v 0.00599442 -0.00822114 -0.00367808
v 0.006258829 -0.00822114 -0.00373798
v -0.00664205 -0.00822114 -0.00367808
v 0.00588881 0.00849159 -0.00601487
v -0.00647855 0.00849159 -0.0057685
v -0.00665963 0.00849159 -0.00601485
v -0.0063228 0.00849159 -0.00535012
v -0.00625303 0.00849159 -0.00485573
v 0.00599441 0.00849159 -0.00367808
v -0.0063228 0.00849159 -0.00436134
v -0.00647855 0.00849159 -0.00394296
v -0.00664205 0.00849159 -0.00367808
v 0.00679651 0.00849159 -0.00485573
v 0.006507359 0.00849159 -0.00568576
v 0.006258829 0.00849159 -0.005931059
v 0.00670646 0.00849159 -0.00530407
v 0.006507359 0.00849159 -0.00398327
v 0.006258829 0.00849159 -0.00373798
v 0.00670646 0.00849159 -0.0044074
v -0.00647855 0.00849159 -0.0057685
v -0.00665963 -0.00822114 -0.00601485
v -0.00665963 0.00849159 -0.00601485
v -0.00647855 -0.00822114 -0.0057685
v -0.0063228 -0.00822114 -0.00535012
v -0.0063228 0.00849159 -0.00535012
v -0.00625303 -0.00822114 -0.00485573
v -0.00625303 0.00849159 -0.00485573
v -0.0063228 -0.00822114 -0.00436134
v -0.0063228 0.00849159 -0.00436134
v -0.00647855 -0.00822114 -0.00394296
v -0.00647855 0.00849159 -0.00394296
v -0.00664205 -0.00822114 -0.00367808
v -0.00664205 0.00849159 -0.00367808
vt 0.46042 0.168197
vt 0.700536 0.183038
vt 0.687898 0.171977
vt 0.0401854 0.261628
vt 0.0481058 0.242762
vt 0.0516536 0.220468
vt 0.0481058 0.198173
vt 0.0401854 0.179307
vt 0.0309776 0.168198
vt 0.700536 0.257897
vt 0.71524 0.220468
vt 0.71066 0.20025
vt 0.71066 0.240685
vt 0.674452 0.271659
vt 0.687898 0.268959
vt 0.0318714 0.271659
vt 0.0768405 0.286515
vt 0.702313 0.297755
vt 0.711461 0.286206
vt 0.694451 0.317366
vt 0.690941 0.340536
vt 0.0715844 0.394038
vt 0.694487 0.363703
vt 0.70238 0.383305
vt 0.710657 0.393726
vt 0.0309776 0.340858
vt 0.0455704 0.301954
vt 0.0581303 0.290452
vt 0.0355154 0.319846
vt 0.0456317 0.379748
vt 0.0582095 0.391238
vt 0.0355485 0.361866
vt 0.02 0.0342528
vt 0.98 0.0200001
vt 0.02 0.02
vt 0.98 0.0342528
vt 0.98 0.058372
vt 0.02 0.058372
vt 0.98 0.0868088
vt 0.02 0.0868088
vt 0.98 0.115167
vt 0.02 0.115166
vt 0.98 0.139109
vt 0.02 0.139109
vt 0.98 0.154231
vt 0.02 0.154231
vn 0 -1 0
vn 0 -1 2.13818E-07
vn 0 -1 0
vn 0 -1 3.11571E-06
vn 0 -1 0
vn 0 -1 0
vn 0 -1 0
vn 0 -1 0
vn 0 -1 0
vn -2.17436E-07 -1 1.00442E-06
vn -1.26314E-06 -1 2.96286E-07
vn 0 -1 0
vn -5.89343E-06 -1 -1.20566E-06
vn 1.4893E-07 -1 2.45287E-06
vn 8.04469E-07 -1 3.52981E-06
vn 0 -1 5.04677E-06
vn 0 1 0
vn 0 1 0
vn 0 1 0
vn 0 1 0
vn 0 1 0
vn 2.3468E-07 1 -1.83305E-07
vn 0 1 0
vn 0 1 0
vn 0 1 0
vn 0 1 1.11121E-07
vn 0 1 0
vn 0 1 0
vn 0 1 0
vn 1.63121E-06 1 9.72478E-07
vn -8.04473E-07 1 -3.52981E-06
vn -5.89342E-06 1 -1.16192E-06
vn -0.8787866 0 0.4772148
vn -0.8057579 0 0.592245
vn -0.8057579 0 0.592245
vn -0.8787871 0 0.4772141
vn -0.9691412 0 0.2465061
vn -0.9691412 0 0.2465061
vn -1 0 0
vn -1 0 0
vn -0.9691412 0 -0.2465061
vn -0.9691412 0 -0.2465061
vn -0.8979037 0 -0.4401919
vn -0.8979027 0 -0.4401939
vn -0.8509468 0 -0.5252519
vn -0.8509449 0 -0.5252549
usemtl paper
f 1/1/1 3/3/3 2/2/2 
f 1/1/1 2/2/2 4/4/4 
f 1/1/1 4/4/4 5/5/5 
f 1/1/1 5/5/5 6/6/6 
f 1/1/1 6/6/6 7/7/7 
f 1/1/1 7/7/7 8/8/8 
f 1/1/1 8/8/8 9/9/9 
f 2/2/2 10/10/10 4/4/4 
f 2/2/2 11/11/11 10/10/10 
f 2/2/2 12/12/12 11/11/11 
f 11/11/11 13/13/13 10/10/10 
f 10/10/10 14/14/14 4/4/4 
f 10/10/10 15/15/15 14/14/14 
f 14/14/14 16/16/16 4/4/4 
f 17/17/17 19/19/19 18/18/18 
f 17/17/17 18/18/18 20/20/20 
f 17/17/17 20/20/20 21/21/21 
f 17/17/17 21/21/21 22/22/22 
f 21/21/21 23/23/23 22/22/22 
f 23/23/23 24/24/24 22/22/22 
f 24/24/24 25/25/25 22/22/22 
f 17/17/17 22/22/22 26/26/26 
f 17/17/17 26/26/26 27/27/27 
f 17/17/17 27/27/27 28/28/28 
f 26/26/26 29/29/29 27/27/27 
f 22/22/22 30/30/30 26/26/26 
f 22/22/22 31/31/31 30/30/30 
f 30/30/30 32/32/32 26/26/26 
f 33/33/33 35/35/35 34/34/34 
f 34/34/34 36/36/36 33/33/33 
f 33/33/33 36/36/36 37/37/37 
f 37/37/37 38/38/38 33/33/33 
f 38/38/38 37/37/37 39/39/39 
f 39/39/39 40/40/40 38/38/38 
f 40/40/40 39/39/39 41/41/41 
f 41/41/41 42/42/42 40/40/40 
f 42/42/42 41/41/41 43/43/43 
f 43/43/43 44/44/44 42/42/42 
f 44/44/44 43/43/43 45/45/45 
f 45/45/45 46/46/46 44/44/44 
