# exported by StudySceneExporter from mesh 'Screwdriver_L_Shaft_low'
mtllib materials.mtl
v 0.002770119 0.004060211 -0.06083641
v 0.001986809 0.003954086 -0.0608712
v 0.002585525 -0.0004212379 -0.06100655
v 0.003368874 -0.0003151131 -0.06097176
v 0.003949928 0.001702805 -0.05151726
v 0.003866692 -0.001008511 -0.05161903
v 0.002882919 -0.001833591 -0.05168785
v 0.003905144 -4.901886E-06 -0.0474987
v 0.002446365 -0.0008551597 -0.04758735
v -0.0003888321 -0.003944206 0.06091087
v -0.001847572 -0.004794445 0.06082222
v 4.001617E-05 -0.002310467 0.06098732
v 0.004333954 0.001628818 -0.04742226
v -0.0008122253 -0.0008503151 0.06100655
v 0.003481712 0.00308897 -0.04740303
v -0.002446327 -0.0004191208 0.06095741
v 0.001847572 0.003520164 -0.04745201
v 0.00314106 0.004293384 -0.051455
v 0.001733513 0.004794445 -0.05149269
v 0.001986809 0.003954086 -0.0608712
v -0.003905105 -0.001269321 0.06086876
v 0.001847572 0.003520164 -0.04745201
v -0.002446327 -0.0004191208 0.06095741
v 0.0003888321 0.002669983 -0.04754082
v -0.004333954 -0.002903023 0.06079231
v 0.001733513 0.004794445 -0.05149269
v -4.001617E-05 0.001036262 -0.04761711
v -0.003481674 -0.004363194 0.06077309
v 0.0007497024 0.003969421 -0.05156166
v 0.001986809 0.003954086 -0.0608712
v 0.000666542 0.001258011 -0.05166344
v 0.002585525 -0.0004212379 -0.06100655
v 0.0008122253 -0.0004239082 -0.04763649
v -0.001847572 -0.004794445 0.06082222
v 0.002446365 -0.0008551597 -0.04758735
v 0.001475334 -0.001332607 -0.05172554
v 0.002882919 -0.001833591 -0.05168785
v 0.003368874 -0.0003151131 -0.06097176
vt 0.6989374 0.4605936
vt 0.6989379 0.461937
vt 0.7064605 0.4619389
vt 0.7064614 0.4605956
vt 0.7027044 0.4446478
vt 0.7058439 0.4446719
vt 0.7078414 0.4447082
vt 0.7055748 0.4377253
vt 0.7084436 0.4377776
vt 0.7056067 0.253419
vt 0.708478 0.2534196
vt 0.7027349 0.2534186
vt 0.7027068 0.4376912
vt 0.6998639 0.2534183
vt 0.6998384 0.4377244
vt 0.6969934 0.253418
vt 0.696969 0.4377759
vt 0.6995647 0.4446707
vt 0.6971593 0.4447286
vt 0.6975956 0.4606668
vt 0.5252845 0.4879687
vt 0.7096434 0.4850986
vt 0.5252845 0.4850974
vt 0.7095916 0.4879675
vt 0.5252845 0.4908403
vt 0.7165742 0.4856992
vt 0.709558 0.4908354
vt 0.5252848 0.4937115
vt 0.716538 0.4876966
vt 0.7324617 0.4870756
vt 0.7165146 0.4908365
vt 0.732461 0.4946021
vt 0.7095916 0.4937038
vt 0.5252849 0.496582
vt 0.7096436 0.4965732
vt 0.716538 0.4939767
vt 0.7165964 0.496382
vt 0.7325344 0.4959435
vn 0.8197981 0.5292428 -0.2187085
vn -0.8461953 0.3959243 -0.3566476
vn -0.7984051 -0.5097013 -0.3205527
vn 0.8728742 -0.3714294 -0.3164345
vn 0.9893929 0.1369111 -0.0485501
vn 0.9233152 -0.3840369 0.002187571
vn 0.130755 -0.9913078 0.01456235
vn 0.8019912 -0.5972258 0.01146374
vn 0.1348977 -0.9906193 -0.02181538
vn 0.7958577 -0.6054087 0.009524301
vn 0.1355164 -0.9903019 -0.03061692
vn 0.9899842 0.1341189 0.04408539
vn 0.9901186 0.1342443 0.04053928
vn 0.6041908 0.795087 0.05282187
vn 0.6116135 0.7892811 0.05444368
vn -0.1355162 0.9903019 0.03061689
vn -0.1356127 0.9899767 0.03943826
vn 0.6946996 0.7189835 0.02133494
vn -0.1343148 0.9880224 0.07596751
vn -0.8461953 0.3959243 -0.3566476
vn -0.7958396 0.6054326 -0.009522502
vn -0.1356127 0.9899767 0.03943826
vn -0.1355162 0.9903019 0.03061689
vn -0.8020978 0.5971297 -0.008672995
vn -0.9899834 -0.1341236 -0.04408596
vn -0.1343148 0.9880224 0.07596751
vn -0.9898364 -0.1339968 -0.04763203
vn -0.6041884 -0.7950888 -0.05282254
vn -0.9217034 0.3855122 -0.04293272
vn -0.8461953 0.3959243 -0.3566476
vn -0.982069 -0.1301882 -0.1363508
vn -0.7984051 -0.5097013 -0.3205527
vn -0.611751 -0.7893803 -0.051376
vn 0.1355164 -0.9903019 -0.03061692
vn 0.1348977 -0.9906193 -0.02181538
vn -0.6921343 -0.7166539 -0.08577463
vn 0.130755 -0.9913078 0.01456235
vn 0.8728742 -0.3714294 -0.3164345
usemtl Mat_Tools
f 1/1/1 3/3/3 2/2/2 
f 1/1/1 4/4/4 3/3/3 
f 5/5/5 4/4/4 1/1/1 
f 5/5/5 6/6/6 4/4/4 
f 6/6/6 7/7/7 4/4/4 
f 8/8/8 7/7/7 6/6/6 
f 8/8/8 9/9/9 7/7/7 
f 10/10/10 9/9/9 8/8/8 
f 10/10/10 11/11/11 9/9/9 
f 12/12/12 10/10/10 8/8/8 
f 13/13/13 8/8/8 6/6/6 
f 12/12/12 8/8/8 13/13/13 
f 13/13/13 6/6/6 5/5/5 
f 14/14/14 12/12/12 13/13/13 
f 14/14/14 13/13/13 15/15/15 
f 15/15/15 13/13/13 5/5/5 
f 16/16/16 14/14/14 15/15/15 
f 16/16/16 15/15/15 17/17/17 
f 15/15/15 5/5/5 18/18/18 
f 17/17/17 15/15/15 18/18/18 
f 18/18/18 5/5/5 1/1/1 
f 17/17/17 18/18/18 19/19/19 
f 19/19/19 18/18/18 1/1/1 
f 19/19/19 1/1/1 20/20/20 
f 21/21/21 23/23/23 22/22/22 
f 21/21/21 22/22/22 24/24/24 
f 25/25/25 21/21/21 24/24/24 
f 24/24/24 22/22/22 26/26/26 
f 25/25/25 24/24/24 27/27/27 
f 28/28/28 25/25/25 27/27/27 
f 24/24/24 26/26/26 29/29/29 
f 27/27/27 24/24/24 29/29/29 
f 29/29/29 26/26/26 30/30/30 
f 31/31/31 29/29/29 30/30/30 
f 27/27/27 29/29/29 31/31/31 
f 31/31/31 30/30/30 32/32/32 
f 28/28/28 27/27/27 33/33/33 
f 33/33/33 27/27/27 31/31/31 
f 34/34/34 28/28/28 33/33/33 
f 34/34/34 33/33/33 35/35/35 
f 33/33/33 31/31/31 36/36/36 
f 35/35/35 33/33/33 36/36/36 
f 36/36/36 31/31/31 32/32/32 
f 35/35/35 36/36/36 37/37/37 
f 37/37/37 36/36/36 32/32/32 
f 37/37/37 32/32/32 38/38/38 
