# exported by StudySceneExporter from mesh 'Screwdriver_S_Shaft_low'
mtllib materials.mtl
v 0.00157835 -0.001546383 -0.01453094
v 0.0007405662 -0.002081852 0.02095261
v 0.001683216 -0.0007309532 0.02099533
v 0.002521 -0.0001955223 -0.01448837
v 0.001610928 -0.001525593 -0.01590958
v 0.001394482 0.0008912468 0.02101288
v 0.002038555 -0.0009238243 -0.01657288
v 0.0008941459 -0.0001405907 -0.02097473
v 0.002076282 -0.0003035164 -0.02094925
v 0.002222309 0.000312252 -0.02093658
v 0.002435856 0.0006794166 -0.01653915
v 0.001076221 0.0006871605 -0.02095795
v 0.002232304 0.001426716 -0.01447067
v 4.350662E-05 0.001834545 0.02099533
v 0.0008812904 0.002370014 -0.01448837
v -0.00157835 0.001546345 0.02095261
v -0.0007405662 0.002081814 -0.01453094
v -0.000707798 0.002102756 -0.01591873
v 0.002266636 0.00144865 -0.01592544
v 0.001660786 0.001892147 -0.01653915
v 0.001222553 0.001876507 -0.02093658
v 0.0005997657 0.002006664 -0.02094925
v 2.096176E-05 0.002232952 -0.01657288
v 0.0002485084 0.0008695411 -0.02097473
v -0.0007405662 0.002081814 -0.01453094
v -0.00157835 0.001546345 0.02095261
v -0.002521 0.0001954842 0.02091003
v -0.001683216 0.0007309151 -0.01457367
v -0.000707798 0.002102756 -0.01591873
v -0.002232304 -0.001426754 0.02089233
v -0.001100216 0.001516361 -0.01661011
v 0.0002485084 0.0008695411 -0.02097473
v -0.0009309578 0.001028309 -0.02100021
v -0.001074352 0.0004084587 -0.02101288
v -0.001479549 -0.0001149559 -0.01664368
v -5.664825E-06 -4.329681E-06 -0.0209938
v -0.001394482 -0.0008912849 -0.01459122
v -0.0008813285 -0.002370014 0.02091003
v -4.350662E-05 -0.001834583 -0.01457367
v 0.0007405662 -0.002081852 0.02095261
v 0.00157835 -0.001546383 -0.01453094
v 0.001610928 -0.001525593 -0.01590958
v -0.001361332 -0.0008701134 -0.01599533
v -0.0007044792 -0.001327686 -0.01664368
v -7.463455E-05 -0.001155758 -0.02101288
v 0.0009173775 -0.001640377 -0.01661011
v 0.0008941459 -0.0001405907 -0.02097473
v 0.0005455589 -0.001281834 -0.02100021
v 0.002222309 0.000312252 -0.02093658
v 0.0008941459 -0.0001405907 -0.02097473
v 0.002076282 -0.0003035164 -0.02094925
v 0.0005713463 0.0003644752 -0.02097473
v 0.0005455589 -0.001281834 -0.02100021
v -7.463455E-05 -0.001155758 -0.02101288
v -5.664825E-06 -4.329681E-06 -0.0209938
v 0.001076221 0.0006871605 -0.02095795
v -0.001074352 0.0004084587 -0.02101288
v 0.0005997657 0.002006664 -0.02094925
v 0.001222553 0.001876507 -0.02093658
v 0.0002485084 0.0008695411 -0.02097473
v -0.0009309578 0.001028309 -0.02100021
vt 0.9082122 0.09579837
vt 0.9081817 0.2432513
vt 0.9150267 0.2432501
vt 0.9150357 0.09584743
vt 0.9086199 0.09003299
vt 0.9218712 0.2432491
vt 0.9116011 0.08713657
vt 0.9094942 0.06806676
vt 0.9143414 0.06893221
vt 0.9169655 0.06897949
vt 0.9186363 0.08723086
vt 0.9219289 0.06831808
vt 0.9218488 0.09584159
vt 0.9287162 0.2432463
vt 0.9286549 0.09584922
vt 0.9355593 0.243243
vt 0.9354789 0.09580198
vt 0.9350388 0.09004033
vt 0.921833 0.08987409
vt 0.9249091 0.08724338
vt 0.9268479 0.06902234
vt 0.9294815 0.06900047
vt 0.932066 0.08717513
vt 0.9343195 0.0681825
vt 0.9454231 0.0957866
vt 0.9453759 0.2432488
vt 0.9522219 0.2432493
vt 0.9522457 0.09585401
vt 0.9458711 0.08998457
vt 0.9590676 0.2432491
vt 0.9488716 0.08714011
vt 0.9468608 0.06808431
vt 0.9516902 0.06897055
vt 0.9543264 0.06902841
vt 0.956007 0.08726615
vt 0.9590464 0.06845535
vt 0.959058 0.09585816
vt 0.9659131 0.2432479
vt 0.9658711 0.09584954
vt 0.9727561 0.2432467
vt 0.972697 0.09578431
vt 0.9722693 0.09001261
vt 0.9590464 0.0901078
vt 0.9622455 0.08726674
vt 0.9638023 0.06902236
vt 0.9692736 0.08713311
vt 0.9712679 0.06806079
vt 0.9664257 0.06895825
vt 0.9768384 0.04164484
vt 0.9747658 0.05011407
vt 0.9795725 0.04446992
vt 0.9710426 0.05011407
vt 0.9795725 0.05575821
vt 0.9768384 0.05858332
vt 0.9710426 0.05436912
vt 0.9710426 0.04639089
vt 0.9653077 0.05858332
vt 0.9625432 0.04446992
vt 0.9653077 0.04164484
vt 0.9673195 0.05011407
vt 0.962543 0.05575821
vn 0.8198858 -0.5724269 0.01070716
vn 0.8198789 -0.5724365 0.01071905
vn 0.9763782 -0.2151587 0.01980636
vn 0.9764544 -0.2149106 0.01871765
vn 0.7861215 -0.6159346 -0.05135732
vn 0.8422669 0.5383326 0.02801061
vn 0.8721699 -0.4768274 -0.109341
vn -0.08176056 -0.9846907 -0.1539456
vn 0.7771926 -0.6238161 -0.08261432
vn 0.9756881 0.209619 -0.06397366
vn 0.9942807 0.04161948 -0.09835535
vn 0.8355389 0.5315874 -0.1388868
vn 0.8422645 0.5383297 0.02813677
vn 0.2147845 0.9764606 0.01980602
vn 0.2149487 0.9764499 0.01851066
vn -0.1751964 0.9844752 0.01071907
vn -0.1751206 0.9844896 0.01063228
vn -0.2254367 0.9727939 -0.05338921
vn 0.8412052 0.5388792 -0.04452977
vn 0.4544558 0.8854234 -0.09744413
vn 0.6015327 0.796386 -0.06267139
vn -0.2249586 0.9710741 -0.08005541
vn -0.05387751 0.9925923 -0.1088932
vn -0.9267063 0.3427549 -0.1540602
vn -0.8199184 0.5723783 -0.01081029
vn -0.8198774 0.5724388 -0.01071862
vn -0.9763793 0.2151537 -0.01980639
vn -0.9763651 0.2150944 -0.0211065
vn -0.7852304 0.6149998 -0.07203128
vn -0.8422679 -0.5383309 -0.02801172
vn -0.872417 0.4694228 -0.1361279
vn 0.08459109 0.9891083 -0.120454
vn -0.7825724 0.6146998 -0.09861242
vn -0.9773394 -0.1795889 -0.1120509
vn -0.9892202 -0.03497779 -0.1421968
vn -0.8265116 -0.530433 -0.1884662
vn -0.8422705 -0.5383334 -0.02788476
vn -0.2147769 -0.9764623 -0.01980657
vn -0.2149192 -0.9764081 -0.02090365
vn 0.175195 -0.9844754 -0.01071858
vn 0.175185 -0.984477 -0.0107322
vn 0.2317293 -0.9702721 -0.06981113
vn -0.8394804 -0.5353045 -0.09339006
vn -0.4480338 -0.8824916 -0.1430883
vn -0.5715666 -0.8126733 -0.1134629
vn 0.07224698 -0.9880795 -0.1359382
vn 0.9344819 -0.3351294 -0.1201327
vn 0.2440926 -0.9645453 -0.1003553
vn 0.02358917 0.01531624 -0.9996044
vn 0.02360034 0.01524813 -0.9996052
vn 0.02359026 0.0153141 -0.9996044
vn 0.02354641 0.01515201 -0.999608
vn 0.02344657 0.0151273 -0.9996107
vn 0.02343445 0.01513189 -0.9996108
vn 0.02347179 0.01503358 -0.9996116
vn 0.02354415 0.01521361 -0.999607
vn 0.02358845 0.01502537 -0.9996088
vn 0.02353949 0.01517134 -0.9996079
vn 0.02353346 0.01516718 -0.999608
vn 0.0235993 0.01509679 -0.9996075
vn 0.02359032 0.01505047 -0.9996085
usemtl Mat_Tools
f 1/1/1 3/3/3 2/2/2 
f 1/1/1 4/4/4 3/3/3 
f 5/5/5 4/4/4 1/1/1 
f 4/4/4 6/6/6 3/3/3 
f 5/5/5 7/7/7 4/4/4 
f 8/8/8 7/7/7 5/5/5 
f 8/8/8 9/9/9 7/7/7 
f 10/10/10 7/7/7 9/9/9 
f 10/10/10 11/11/11 7/7/7 
f 7/7/7 11/11/11 4/4/4 
f 12/12/12 11/11/11 10/10/10 
f 4/4/4 13/13/13 6/6/6 
f 13/13/13 14/14/14 6/6/6 
f 13/13/13 15/15/15 14/14/14 
f 15/15/15 16/16/16 14/14/14 
f 15/15/15 17/17/17 16/16/16 
f 15/15/15 18/18/18 17/17/17 
f 4/4/4 11/11/11 19/19/19 
f 4/4/4 19/19/19 13/13/13 
f 19/19/19 11/11/11 12/12/12 
f 19/19/19 15/15/15 13/13/13 
f 12/12/12 20/20/20 19/19/19 
f 19/19/19 20/20/20 15/15/15 
f 12/12/12 21/21/21 20/20/20 
f 22/22/22 20/20/20 21/21/21 
f 15/15/15 23/23/23 18/18/18 
f 20/20/20 23/23/23 15/15/15 
f 22/22/22 23/23/23 20/20/20 
f 18/18/18 23/23/23 24/24/24 
f 24/24/24 23/23/23 22/22/22 
f 25/25/25 27/27/27 26/26/26 
f 25/25/25 28/28/28 27/27/27 
f 29/29/29 28/28/28 25/25/25 
f 28/28/28 30/30/30 27/27/27 
f 29/29/29 31/31/31 28/28/28 
f 32/32/32 31/31/31 29/29/29 
f 32/32/32 33/33/33 31/31/31 
f 34/34/34 31/31/31 33/33/33 
f 34/34/34 35/35/35 31/31/31 
f 31/31/31 35/35/35 28/28/28 
f 36/36/36 35/35/35 34/34/34 
f 28/28/28 37/37/37 30/30/30 
f 37/37/37 38/38/38 30/30/30 
f 37/37/37 39/39/39 38/38/38 
f 39/39/39 40/40/40 38/38/38 
f 39/39/39 41/41/41 40/40/40 
f 39/39/39 42/42/42 41/41/41 
f 28/28/28 35/35/35 43/43/43 
f 28/28/28 43/43/43 37/37/37 
f 43/43/43 35/35/35 36/36/36 
f 43/43/43 39/39/39 37/37/37 
f 36/36/36 44/44/44 43/43/43 
f 43/43/43 44/44/44 39/39/39 
f 36/36/36 45/45/45 44/44/44 
f 39/39/39 46/46/46 42/42/42 
f 44/44/44 46/46/46 39/39/39 
f 45/45/45 46/46/46 44/44/44 
f 42/42/42 46/46/46 47/47/47 
f 45/45/45 48/48/48 46/46/46 
f 47/47/47 46/46/46 48/48/48 
f 49/49/49 51/51/51 50/50/50 
f 49/49/49 50/50/50 52/52/52 
f 53/53/53 52/52/52 50/50/50 
f 54/54/54 52/52/52 53/53/53 
f 54/54/54 55/55/55 52/52/52 
f 56/56/56 49/49/49 52/52/52 
f 55/55/55 57/57/57 52/52/52 
f 58/58/58 56/56/56 52/52/52 
f 58/58/58 59/59/59 56/56/56 
f 60/60/60 58/58/58 52/52/52 
f 57/57/57 60/60/60 52/52/52 
f 57/57/57 61/61/61 60/60/60 
