# exported by StudySceneExporter from mesh 'Screwdriver_L_Shaft_low'
mtllib materials.mtl
v -0.005168972 -0.0607859 -0.0003956604
v -0.005168962 -0.06078583 0.0003956604
v -0.0007572079 -0.06102402 0.0003956604
v -0.0007572079 -0.06102402 -0.0003956604
v -0.002459421 -0.05157387 -0.001658325
v 0.0002135277 -0.05171806 -0.001207809
v 0.0008983898 -0.05175514 -0.000120163
v -0.0006799411 -0.04758751 -0.001562042
v -3.388405E-05 -0.04762238 0
v 0.005171242 0.06082077 -0.001562119
v 0.005817308 0.0607859 0
v 0.003611412 0.06090492 -0.002209091
v -0.00223978 -0.04750328 -0.002209091
v 0.002051582 0.06098915 -0.001562119
v -0.003799601 -0.04741913 -0.001562042
v 0.001405554 0.06102402 0
v -0.004445639 -0.04738426 0
v -0.005132522 -0.0514296 -0.001207809
v -0.005817308 -0.05139259 0.000120163
v -0.005168962 -0.06078583 0.0003956604
v 0.002051582 0.06098915 0.001562119
v -0.004445639 -0.04738426 0
v 0.001405554 0.06102402 0
v -0.00379961 -0.04741913 0.001562042
v 0.003611412 0.06090492 0.002209091
v -0.005817308 -0.05139259 0.000120163
v -0.00223978 -0.04750328 0.002209091
v 0.005171242 0.06082077 0.001562119
v -0.005132522 -0.0514296 0.001207809
v -0.005168962 -0.06078583 0.0003956604
v -0.002459469 -0.05157394 0.001658325
v -0.0007572079 -0.06102402 0.0003956604
v -0.0006799507 -0.04758751 0.001562042
v 0.005817308 0.0607859 0
v -3.388405E-05 -0.04762238 0
v 0.0002136707 -0.05171814 0.001207809
v 0.0008983898 -0.05175514 -0.000120163
v -0.0007572079 -0.06102402 -0.0003956604
vt 0.6989374 0.7105937
vt 0.6989379 0.711937
vt 0.7064605 0.7119389
vt 0.7064614 0.7105956
vt 0.7027044 0.6946478
vt 0.7058439 0.6946719
vt 0.7078414 0.6947083
vt 0.7055748 0.6877253
vt 0.7084436 0.6877775
vt 0.7056067 0.5034192
vt 0.708478 0.5034196
vt 0.7027349 0.5034187
vt 0.7027068 0.6876912
vt 0.6998639 0.5034182
vt 0.6998384 0.6877244
vt 0.6969934 0.503418
vt 0.696969 0.6877759
vt 0.6995647 0.6946707
vt 0.6971593 0.6947286
vt 0.6975956 0.7106667
vt 0.5252845 0.7379687
vt 0.7096434 0.7350986
vt 0.5252845 0.7350974
vt 0.7095916 0.7379675
vt 0.5252845 0.7408404
vt 0.7165742 0.7356992
vt 0.709558 0.7408354
vt 0.5252848 0.7437115
vt 0.716538 0.7376966
vt 0.7324617 0.7370756
vt 0.7165146 0.7408366
vt 0.732461 0.7446022
vt 0.7095916 0.7437038
vt 0.5252849 0.746582
vt 0.7096436 0.7465732
vt 0.716538 0.7439766
vt 0.7165964 0.746382
vt 0.7325344 0.7459435
vn -0.4203016 -0.2477462 -0.8729079
vn -0.5132985 -0.3098281 0.800332
vn 0.3912212 -0.2915394 0.8728979
vn 0.4769499 -0.3632688 -0.8003466
vn -0.004990939 -0.09243378 -0.9957063
vn 0.5035451 -0.04759787 -0.8626568
vn 0.9999591 -0.008586166 0.002861694
vn 0.6988256 -0.03631923 -0.7143694
vn 0.9989833 -0.04508004 0.0002589322
vn 0.7060787 -0.03811052 -0.707107
vn 0.9985467 -0.05389403 0
vn 2.013694E-07 -1.138296E-06 -1
vn -0.0001911419 -0.003544872 -0.9999937
vn -0.7060844 0.0381097 -0.7071013
vn -0.6992981 0.03928348 -0.7137499
vn -0.9985467 0.05389404 0
vn -0.9980322 0.06270357 -0.0002592568
vn -0.6193665 0.001113524 -0.7851012
vn -0.995074 0.09909308 -0.002897953
vn -0.5132985 -0.3098281 0.800332
vn -0.7060845 0.03810858 0.7071015
vn -0.9980322 0.06270357 -0.0002592568
vn -0.9985467 0.05389404 0
vn -0.6986808 0.03910922 0.7143638
vn 2.237438E-07 -1.138296E-06 1
vn -0.995074 0.09909308 -0.002897953
vn -0.0001911363 -0.003545322 0.9999937
vn 0.7060788 -0.0381094 0.707107
vn -0.5057497 0.006869982 0.862653
vn -0.5132985 -0.3098281 0.800332
vn -0.004992012 -0.09243676 0.9957061
vn 0.3912212 -0.2915394 0.8728979
vn 0.6994577 -0.03621237 0.713756
vn 0.9985467 -0.05389403 0
vn 0.9989833 -0.04508004 0.0002589322
vn 0.6158903 -0.06554665 0.7851005
vn 0.9999591 -0.008586166 0.002861694
vn 0.4769499 -0.3632688 -0.8003466
usemtl Mat_Tools
f 1/1/1 3/3/3 2/2/2 
f 1/1/1 4/4/4 3/3/3 
f 5/5/5 4/4/4 1/1/1 
f 5/5/5 6/6/6 4/4/4 
f 6/6/6 7/7/7 4/4/4 
f 8/8/8 7/7/7 6/6/6 
f 8/8/8 9/9/9 7/7/7 
f 10/10/10 9/9/9 8/8/8 
f 10/10/10 11/11/11 9/9/9 
f 12/12/12 10/10/10 8/8/8 
f 13/13/13 8/8/8 6/6/6 
f 12/12/12 8/8/8 13/13/13 
f 13/13/13 6/6/6 5/5/5 
f 14/14/14 12/12/12 13/13/13 
f 14/14/14 13/13/13 15/15/15 
f 15/15/15 13/13/13 5/5/5 
f 16/16/16 14/14/14 15/15/15 
f 16/16/16 15/15/15 17/17/17 
f 15/15/15 5/5/5 18/18/18 
f 17/17/17 15/15/15 18/18/18 
f 18/18/18 5/5/5 1/1/1 
f 17/17/17 18/18/18 19/19/19 
f 19/19/19 18/18/18 1/1/1 
f 19/19/19 1/1/1 20/20/20 
f 21/21/21 23/23/23 22/22/22 
f 21/21/21 22/22/22 24/24/24 
f 25/25/25 21/21/21 24/24/24 
f 24/24/24 22/22/22 26/26/26 
f 25/25/25 24/24/24 27/27/27 
f 28/28/28 25/25/25 27/27/27 
f 24/24/24 26/26/26 29/29/29 
f 27/27/27 24/24/24 29/29/29 
f 29/29/29 26/26/26 30/30/30 
f 31/31/31 29/29/29 30/30/30 
f 27/27/27 29/29/29 31/31/31 
f 31/31/31 30/30/30 32/32/32 
f 28/28/28 27/27/27 33/33/33 
f 33/33/33 27/27/27 31/31/31 
f 34/34/34 28/28/28 33/33/33 
f 34/34/34 33/33/33 35/35/35 
f 33/33/33 31/31/31 36/36/36 
f 35/35/35 33/33/33 36/36/36 
f 36/36/36 31/31/31 32/32/32 
f 35/35/35 36/36/36 37/37/37 
f 37/37/37 36/36/36 32/32/32 
f 37/37/37 32/32/32 38/38/38 
