# exported by StudySceneExporter from mesh 'Vice_Base_low'
mtllib materials.mtl
v -0.03512057 -0.07874443 -0.09591511
v -0.006023111 -0.0846746 -0.08664722
v -0.006023111 -0.0846746 -0.09591511
v -0.03512057 -0.07874443 -0.08664722
v -0.06096127 -0.06411247 -0.09591511
v -0.005845046 -0.08062866 -0.08664722
v -0.06096127 -0.06411247 -0.08664722
v -0.08101574 -0.04221145 -0.09591511
v -0.03370094 -0.07495132 -0.08664722
v -0.005845046 -0.08062866 -0.07443187
v -0.03370094 -0.07495132 -0.07443187
v -0.05843906 -0.06094398 -0.08664722
v -0.05843906 -0.06094398 -0.07443187
v -0.08101574 -0.04221145 -0.08664722
v -0.09332088 -0.01518524 -0.09591511
v -0.07763782 -0.03997734 -0.08664722
v -0.09332088 -0.01518524 -0.08664722
v -0.09667215 0.01432075 -0.09591511
v -0.07763782 -0.03997734 -0.07443187
v -0.0644426 -0.06125702 -0.07443187
v -0.09667215 0.01432075 -0.08664722
v -0.09064105 0.04406334 -0.09591511
v -0.09064105 0.04406334 -0.08664715
v -0.08941794 -0.01410461 -0.08664722
v -0.09262623 0.01414268 -0.08664722
v -0.08694874 0.04199859 -0.08664722
v -0.08155542 -0.04256828 -0.07443187
v -0.0644426 -0.06125702 -0.05905544
v -0.08155542 -0.04256828 -0.05905544
v -0.08941794 -0.01410461 -0.07443187
v -0.09262623 0.01414268 -0.07443187
v -0.08694874 0.04199859 -0.07443187
v -0.09394451 -0.01535805 -0.07443187
v -0.09394451 -0.01535805 -0.05905544
v -0.09731861 0.01434921 -0.07443187
v -0.09731861 0.01434921 -0.05905544
v -0.09134764 0.0436451 -0.07443187
v -0.09134764 0.0436451 -0.05905544
v -0.07294124 0.06673653 -0.07443187
v -0.07661608 0.06966163 -0.07443187
v -0.07661608 0.06966163 -0.05905544
v -0.05456581 0.08985306 -0.07443187
v -0.05456581 0.08985306 -0.05905544
v -0.05197475 0.08593544 -0.07443187
v -0.02735537 0.102242 -0.07443187
v -0.02735537 0.102242 -0.05905544
v -0.05197475 0.08593544 -0.08664722
v -0.07294124 0.06673653 -0.08664722
v -0.02610174 0.0977156 -0.07443187
v 0.002351708 0.1056159 -0.07443187
v 0.002351708 0.1056159 -0.05905544
v -0.05420887 0.08931305 -0.08664722
v -0.07660183 0.06883514 -0.08664722
v -0.02610174 0.0977156 -0.08664722
v 0.002145209 0.1009239 -0.07443187
v 0.03164754 0.09964531 -0.07443187
v 0.03164754 0.09964531 -0.05905544
v -0.05420887 0.08931305 -0.09591511
v -0.07660183 0.06883514 -0.09591511
v -0.02718266 0.1016186 -0.09591511
v -0.02718266 0.1016186 -0.08664722
v 0.002323275 0.1049698 -0.09591511
v 0.002323275 0.1049698 -0.08664722
v 0.03142071 0.09903938 -0.09591511
v 0.002145209 0.1009239 -0.08664722
v 0.03142071 0.09903938 -0.08664722
v 0.05726139 0.08440758 -0.09591511
v 0.0300011 0.09524635 -0.08664722
v 0.05726139 0.08440758 -0.08664722
v 0.07776874 0.06204117 -0.09591511
v 0.07776873 0.06204117 -0.08664722
v 0.05473918 0.08123886 -0.08664722
v 0.07393794 0.06027229 -0.08664722
v 0.0300011 0.09524635 -0.07443187
v 0.05473918 0.08123886 -0.07443187
v 0.07393794 0.06027229 -0.07443187
v 0.05766438 0.08491371 -0.07443187
v 0.05766438 0.08491371 -0.05905544
v 0.07785555 0.06286323 -0.07443187
v 0.07785555 0.06286323 -0.05905544
v 0.08571806 0.03439941 -0.07443187
v 0.09024463 0.03565315 -0.07443187
v 0.09024463 0.03565315 -0.05905544
v 0.09361879 0.005945968 -0.07443187
v 0.09361879 0.005945968 -0.05905544
v 0.08892639 0.00615242 -0.07443187
v 0.08764786 -0.02335014 -0.07443187
v 0.08764786 -0.02335014 -0.05905544
v 0.08892639 0.00615242 -0.08664722
v 0.08571806 0.03439941 -0.08664722
v 0.08324892 -0.02170387 -0.07443187
v 0.07291623 -0.04936668 -0.07443187
v 0.07291623 -0.04936668 -0.05905544
v 0.05422776 -0.06647972 -0.05905544
v 0.05422776 -0.06647972 -0.07443187
v 0.06924139 -0.04644157 -0.07443187
v 0.04827495 -0.06564049 -0.07443187
v 0.08324892 -0.02170387 -0.08664722
v 0.06924139 -0.04644157 -0.08664722
v 0.09297233 0.00597435 -0.08664722
v 0.08957748 0.03613182 -0.08664715
v 0.08704182 -0.02312317 -0.08664722
v 0.09297233 0.00597435 -0.09591511
v 0.08957748 0.03613182 -0.09591511
v 0.08704182 -0.02312317 -0.09591511
v 0.07240998 -0.04896385 -0.09591511
v 0.07240998 -0.04896385 -0.08664722
v 0.04827495 -0.06564049 -0.08664722
v 0.05050902 -0.0690184 -0.08664722
v 0.05050902 -0.0690184 -0.09591511
v 0.02348283 -0.08132347 -0.09591511
v 0.02348283 -0.08132347 -0.08664722
v -0.006023111 -0.0846746 -0.09591511
v -0.006023111 -0.0846746 -0.08664722
v 0.02240191 -0.07742042 -0.08664722
v 0.02240191 -0.07742042 -0.07443187
v -0.005845046 -0.08062866 -0.08664722
v -0.005845046 -0.08062866 -0.07443187
v -0.05843906 -0.06094398 -0.07443187
v -0.0644426 -0.06125702 -0.07443187
v -0.06555649 -0.08652031 -0.07443187
v -0.03370094 -0.07495132 -0.07443187
v -0.05064978 -0.08717636 -0.07443187
v -0.005845046 -0.08062866 -0.07443187
v 0.03821124 -0.09108718 -0.07443187
v 0.03587173 -0.1442452 -0.06738117
v -0.05298931 -0.1403344 -0.06738117
v 0.05311794 -0.09174324 -0.07443187
v 0.02240191 -0.07742042 -0.07443187
v 0.05422776 -0.06647972 -0.07443187
v 0.04827495 -0.06564049 -0.07443187
v 0.07393794 0.06027229 -0.08664722
v 0.07776873 0.06204117 -0.08664722
v 0.07393794 0.06027229 -0.07443187
v 0.1022222 0.07333267 -0.08664722
v 0.1022222 0.07333267 -0.09591511
v 0.07776874 0.06204117 -0.09591511
v 0.08952627 0.06374649 -0.08043423
v 0.1037157 0.0707119 -0.08675426
v 0.1022222 0.07333267 -0.09591511
v 0.103467 0.07059868 -0.09191509
v 0.08675293 0.06064056 -0.0789098
v 0.08692625 0.0564798 -0.07828327
v 0.09138576 0.04668548 -0.07828327
v 0.08571806 0.03439941 -0.07443187
v 0.09441008 0.04382324 -0.0789098
v 0.09857386 0.04387543 -0.0804343
v 0.1131437 0.05000427 -0.08675434
v 0.11414 0.04715751 -0.08664722
v 0.1128951 0.04989128 -0.09191509
v 0.11414 0.04715759 -0.09591511
v 0.08957748 0.03613182 -0.08664715
v 0.08571806 0.03439941 -0.08664722
v 0.08957748 0.03613182 -0.09591511
v 0.11414 0.04715759 -0.09591511
v -0.08694874 0.04199859 -0.08664722
v -0.09064105 0.04406334 -0.08664715
v -0.08694874 0.04199859 -0.07443187
v -0.11414 0.05720421 -0.08664722
v -0.11414 0.05720428 -0.09591511
v -0.09064105 0.04406334 -0.09591511
v -0.09892236 0.05256737 -0.0804343
v -0.1128974 0.05995247 -0.08675426
v -0.11414 0.05720428 -0.09591511
v -0.1126598 0.05981812 -0.09191509
v -0.09477927 0.05214966 -0.0789098
v -0.09151521 0.05473518 -0.07828327
v -0.0862125 0.06409973 -0.07828327
v -0.07294124 0.06673653 -0.07443187
v -0.08567434 0.06822906 -0.0789098
v -0.08816408 0.07156677 -0.08043423
v -0.1016867 0.07975174 -0.08675426
v -0.09996881 0.08223122 -0.08664722
v -0.1014489 0.07961716 -0.09191509
v -0.09996881 0.08223122 -0.09591511
v -0.07660183 0.06883514 -0.08664722
v -0.07294124 0.06673653 -0.08664722
v -0.07660183 0.06883514 -0.09591511
v -0.09996881 0.08223122 -0.09591511
v 0.11414 0.04715759 -0.09591511
v 0.103467 0.07059868 -0.09191509
v 0.1022222 0.07333267 -0.09591511
v 0.1128951 0.04989128 -0.09191509
v 0.08952446 0.06374802 -0.09191509
v 0.09857374 0.04387329 -0.09191509
v 0.0867513 0.06064155 -0.09191509
v 0.09440979 0.04382141 -0.09191509
v 0.09138618 0.04668465 -0.09191509
v 0.08692585 0.05648079 -0.09191509
v -0.09996881 0.08223122 -0.09591511
v -0.1126598 0.05981812 -0.09191509
v -0.11414 0.05720428 -0.09591511
v -0.1014489 0.07961716 -0.09191509
v -0.09892244 0.05256523 -0.09191509
v -0.08816215 0.07156815 -0.09191509
v -0.09477915 0.05214782 -0.09191509
v -0.08567262 0.06823006 -0.09191509
v -0.086212 0.06410072 -0.09191509
v -0.09151568 0.05473434 -0.09191509
v 0.1131437 0.05000427 -0.08675434
v 0.09857374 0.04387329 -0.09191509
v 0.1128951 0.04989128 -0.09191509
v 0.09857386 0.04387543 -0.0804343
v 0.09441008 0.04382324 -0.0789098
v 0.09440979 0.04382141 -0.09191509
v 0.09138576 0.04668548 -0.07828327
v 0.09138618 0.04668465 -0.09191509
v 0.08692585 0.05648079 -0.09191509
v 0.08692625 0.0564798 -0.07828327
v 0.08675293 0.06064056 -0.0789098
v 0.0867513 0.06064155 -0.09191509
v 0.08952627 0.06374649 -0.08043423
v 0.08952446 0.06374802 -0.09191509
v 0.1037157 0.0707119 -0.08675426
v 0.103467 0.07059868 -0.09191509
v -0.1128974 0.05995247 -0.08675426
v -0.1126598 0.05981812 -0.09191509
v -0.09892244 0.05256523 -0.09191509
v -0.09892236 0.05256737 -0.0804343
v -0.09477915 0.05214782 -0.09191509
v -0.09477927 0.05214966 -0.0789098
v -0.09151568 0.05473434 -0.09191509
v -0.09151521 0.05473518 -0.07828327
v -0.0862125 0.06409973 -0.07828327
v -0.086212 0.06410072 -0.09191509
v -0.08567262 0.06823006 -0.09191509
v -0.08567434 0.06822906 -0.0789098
v -0.08816215 0.07156815 -0.09191509
v -0.08816408 0.07156677 -0.08043423
v -0.1016867 0.07975174 -0.08675426
v -0.1014489 0.07961716 -0.09191509
v -0.04980894 -0.06807068 0.02861378
v -0.06436913 -0.05954162 0.04435749
v 0.05430529 -0.06476463 0.04435749
v 0.03905208 -0.07198158 0.02861378
v -0.04146971 0.1214111 0.0271114
v 0.04739131 0.1175003 0.0271114
v -0.04460651 0.05013733 -0.04949345
v 0.04425451 0.0462265 -0.04949345
v -0.05015994 -0.07604606 0.01318119
v 0.03870109 -0.07995697 0.01318119
v -0.05038399 -0.08113716 -0.001955528
v -0.05053339 -0.08453171 -0.01829319
v -0.05062212 -0.08654755 -0.03690899
v -0.05064978 -0.08717636 -0.04949345
v 0.03847703 -0.08504791 -0.001955528
v 0.03832763 -0.08844253 -0.01829319
v 0.03823892 -0.09045837 -0.03690899
v 0.03821124 -0.09108718 -0.04949345
v 0.03821124 -0.09108718 -0.04949345
v 0.03587173 -0.1442452 -0.04949345
v -0.05298931 -0.1403344 -0.04949345
v -0.05064978 -0.08717636 -0.04949345
v 0.04425451 0.0462265 -0.04949345
v -0.04460651 0.05013733 -0.04949345
v -0.0001760101 0.04818191 -0.05905544
v -0.04460651 0.05013733 -0.05905544
v 0.04425451 0.0462265 -0.05905544
v 0.03587173 -0.1442452 -0.04949345
v 0.03587173 -0.1442452 -0.06738117
v -0.05298931 -0.1403344 -0.06738117
v -0.05298931 -0.1403344 -0.04949345
v -0.05064978 -0.08717636 -0.07443187
v -0.05064978 -0.08717636 -0.04949345
v -0.05298931 -0.1403344 -0.04949345
v -0.05298931 -0.1403344 -0.06738117
v 0.03587173 -0.1442452 -0.06738117
v 0.03587173 -0.1442452 -0.04949345
v 0.03821124 -0.09108718 -0.04949345
v 0.03821124 -0.09108718 -0.07443187
v -0.05705483 0.1066523 0.03446461
v -0.05608023 0.1287971 0.03446461
v -0.06404915 0.1442452 0.03446461
v -0.0594507 0.05221382 0.03446461
v -0.0530587 0.1064764 0.03446461
v -0.05545457 0.05203796 0.03446461
v -0.06003175 0.03901146 0.03446461
v -0.07003191 0.008306656 0.03446461
v -0.0574237 0.007295684 0.03310017
v -0.05610575 0.03724197 0.03257862
v -0.07003191 0.008306656 0.05364345
v -0.0574237 0.007295684 0.03310017
v -0.0574237 0.007295684 0.04435756
v -0.06404915 0.1442452 0.05364345
v 0.06590672 0.002323914 0.05364345
v -0.0574237 0.007295684 0.04435756
v 0.05325845 0.002424469 0.04435756
v 0.07188947 0.1382625 0.05364345
v 0.07188947 0.1382625 0.03446461
v -0.06404915 0.1442452 0.03446461
v -0.05608023 0.1287971 0.03446461
v 0.06259421 0.1235741 0.03446461
v 0.04739131 0.1175003 0.0271114
v -0.04146971 0.1214111 0.0271114
v 0.06590672 0.002323914 0.03446461
v 0.07188947 0.1382625 0.03446461
v 0.05325845 0.002424469 0.03310017
v 0.05325845 0.002424469 0.04435756
v 0.05864268 0.03378853 0.03446461
v 0.05325845 0.002424469 0.03310017
v 0.05457642 0.03237091 0.03257862
v 0.05922372 0.04699096 0.03446461
v 0.06161959 0.1014294 0.03446461
v 0.06259421 0.1235741 0.03446461
v 0.05522759 0.04716675 0.03446461
v 0.05762346 0.1016052 0.03446461
v -0.07855251 -0.06639076 0.06597568
v 0.06781243 -0.07283241 0.06297558
v 0.06481533 -0.0727005 0.06597568
v -0.08154961 -0.06625885 0.06297558
v 0.06664039 -0.09946312 0.06297558
v -0.08272165 -0.09288948 0.06297558
v 0.06664039 -0.09946304 0.07528179
v -0.08272165 -0.09288941 0.07528179
v 0.06644285 -0.1039516 0.07528179
v -0.08291919 -0.097378 0.07528179
v 0.06644285 -0.1039516 0.09591511
v 0.06664039 -0.09946304 0.07528179
v -0.08291919 -0.097378 0.09591511
v -0.08272165 -0.09288941 0.07528179
v 0.06709042 -0.08923759 0.09591511
v 0.06709042 -0.08923759 0.09291553
v 0.06709042 -0.08923759 0.09591511
v 0.06781243 -0.07283241 0.06297558
v 0.06664039 -0.09946312 0.06297558
v 0.06781244 -0.07283234 0.09291553
v 0.06548949 -0.07273018 0.08443195
v 0.06481533 -0.0727005 0.06597568
v -0.08227161 -0.08266411 0.09591511
v 0.06709042 -0.08923759 0.09291553
v -0.08227161 -0.08266411 0.09291553
v 0.06781244 -0.07283234 0.09291553
v -0.08154961 -0.06625877 0.09291553
v 0.05922372 -0.07245438 0.08991504
v 0.06548949 -0.07273018 0.08443195
v -0.0729609 -0.06663681 0.08991504
v -0.07922667 -0.06636108 0.08443195
v -0.08227161 -0.08266411 0.09291553
v -0.08227161 -0.08266411 0.09591511
v -0.08154961 -0.06625885 0.06297558
v -0.08272165 -0.09288948 0.06297558
v -0.08154961 -0.06625877 0.09291553
v -0.07855251 -0.06639076 0.06597568
v -0.07922667 -0.06636108 0.08443195
v -0.04872455 -0.04455078 0.04918484
v 0.0355772 -0.04949074 0.04435741
v -0.04738842 -0.04583931 0.04435741
v 0.03702135 -0.04832451 0.04918484
v 0.03949372 -0.04874519 0.05389339
v -0.05122431 -0.04475265 0.05389339
v -0.05389842 -0.04603729 0.05777187
v 0.04204462 -0.05025993 0.05777187
v -0.05798742 -0.04871895 0.06180798
v 0.04588225 -0.05329033 0.06180798
v -0.06291115 -0.05304176 0.06450893
v 0.05040717 -0.05802894 0.06450893
v -0.06889265 -0.05821419 0.06597568
v 0.05591113 -0.06370674 0.06597568
v 0.06481533 -0.0727005 0.06597568
v -0.07855251 -0.06639076 0.06597568
v 0.03733189 -0.01266518 0.04435756
v 0.03437469 -0.01801781 0.0622388
v 0.03438934 -0.007930527 0.04435756
v 0.03841688 -0.02130615 0.06017849
v 0.0355772 -0.04949074 0.04435741
v 0.03538584 -0.02645279 0.07193904
v 0.03702135 -0.04832451 0.04918484
v 0.04025366 -0.02911392 0.06904773
v 0.03949372 -0.04874519 0.05389339
v 0.03756592 -0.03630432 0.07978839
v 0.04204462 -0.05025993 0.05777187
v 0.0436973 -0.03867447 0.07507503
v 0.04084213 -0.04568268 0.08512791
v 0.04588225 -0.05329033 0.06180798
v 0.04783324 -0.04848068 0.07943501
v 0.04570461 -0.05615165 0.08831485
v 0.05274704 -0.05728294 0.08155773
v 0.05040717 -0.05802894 0.06450893
v 0.05073211 -0.06376877 0.08961574
v 0.05591113 -0.06370674 0.06597568
v 0.05779758 -0.06405868 0.08357334
v 0.05922372 -0.07245438 0.08991504
v 0.06481533 -0.0727005 0.06597568
v 0.06548949 -0.07273018 0.08443195
v -0.06373907 -0.05873077 0.08961574
v -0.0729609 -0.06663681 0.08991504
v -0.07922667 -0.06636108 0.08443195
v -0.0708027 -0.05839889 0.08357334
v -0.07855251 -0.06639076 0.06597568
v -0.06889265 -0.05821419 0.06597568
v -0.05806185 -0.05158485 0.08831485
v -0.06291115 -0.05304176 0.06450893
v -0.06517643 -0.05209305 0.08155773
v -0.05229845 -0.04158348 0.08512791
v -0.05798742 -0.04871895 0.06180798
v -0.05950834 -0.04375648 0.07943501
v -0.048211 -0.03252922 0.07978839
v -0.05389842 -0.04603729 0.05777187
v -0.05452691 -0.03435158 0.07507503
v -0.04517389 -0.02290726 0.07193904
v -0.05122431 -0.04475265 0.05389339
v -0.05025564 -0.0250708 0.06909992
v -0.04342563 -0.01459373 0.0622388
v -0.04774108 -0.01751427 0.06017849
v -0.04872455 -0.04455078 0.04918484
v -0.04255405 -0.00454422 0.04435756
v -0.04738842 -0.04583931 0.04435741
v -0.04590236 -0.009031372 0.04435749
v 0.03437469 -0.01801781 0.0622388
v -0.04255405 -0.00454422 0.04435756
v 0.03438934 -0.007930527 0.04435756
v -0.04342563 -0.01459373 0.0622388
v -0.04517389 -0.02290726 0.07193904
v 0.03538584 -0.02645279 0.07193904
v 0.03756592 -0.03630432 0.07978839
v -0.048211 -0.03252922 0.07978839
v 0.04084213 -0.04568268 0.08512791
v -0.05229845 -0.04158348 0.08512791
v 0.04570461 -0.05615165 0.08831485
v -0.05806185 -0.05158485 0.08831485
v 0.05073211 -0.06376877 0.08961574
v -0.06373907 -0.05873077 0.08961574
v -0.0729609 -0.06663681 0.08991504
v 0.05922372 -0.07245438 0.08991504
v 0.04425451 0.0462265 -0.04949345
v 0.06259421 0.1235741 0.03446461
v 0.04739131 0.1175003 0.0271114
v 0.0591612 0.04557045 -0.04949345
v 0.05913065 0.0448761 -0.02570171
v 0.06161959 0.1014294 0.03446461
v 0.05762346 0.1016052 0.03446461
v 0.0591612 0.04557045 -0.05905544
v 0.04425451 0.0462265 -0.05905544
v 0.05857857 0.03233734 -0.05905544
v 0.05513452 0.04505211 -0.02570171
v 0.05522759 0.04716675 0.03446461
v 0.05922372 0.04699096 0.03446461
v 0.05864268 0.03378853 0.03446461
v 0.05457642 0.03237091 0.03257862
v 0.05451203 0.03091339 -0.05755321
v 0.05007676 -0.06984833 -0.005625648
v 0.05030119 -0.0647551 0.009517861
v 0.05325845 0.002424469 0.03310017
v 0.04993712 -0.07301163 -0.02154949
v 0.04985585 -0.07485786 -0.03771496
v 0.05026515 -0.0655423 -0.05819729
v 0.05404778 -0.07059463 -0.005625648
v 0.05426741 -0.06561073 0.009517784
v 0.05388967 -0.0741777 -0.02154957
v 0.05062347 -0.05743881 0.02471226
v 0.05108158 -0.04703796 0.04435756
v 0.05325845 0.002424469 0.04435756
v 0.05501656 -0.04860321 0.04435749
v 0.05458776 -0.05833817 0.02471218
v 0.05390355 -0.07389274 0.02911472
v 0.05430529 -0.06476463 0.04435749
v 0.03905208 -0.07198158 0.02861378
v 0.03870109 -0.07995697 0.01318119
v 0.05356164 -0.08166137 0.01353474
v 0.03847703 -0.08504791 -0.001955528
v 0.05334669 -0.08654548 -0.001749306
v 0.03832763 -0.08844253 -0.01829319
v 0.05321459 -0.08954712 -0.01818325
v 0.03823892 -0.09045837 -0.03690899
v 0.05313602 -0.09133224 -0.03685558
v 0.03821124 -0.09108718 -0.04949345
v 0.05382987 -0.07553612 -0.03771503
v 0.05311794 -0.09174324 -0.04949345
v 0.05311794 -0.09174324 -0.05905544
v 0.03821124 -0.09108718 -0.07443187
v 0.05311794 -0.09174324 -0.07443187
v 0.05422776 -0.06647972 -0.07443187
v 0.05422776 -0.06647972 -0.05905544
v 0.04987999 -0.0743084 -0.04826351
v 0.05384243 -0.07525001 -0.04868824
v 0.053998 -0.07170906 -0.055462
v 0.05002087 -0.07110161 -0.05477344
v -0.0644426 -0.06125702 -0.05905544
v -0.06555649 -0.08652031 -0.07443187
v -0.0644426 -0.06125702 -0.07443187
v -0.06555649 -0.08652031 -0.05905544
v -0.05064978 -0.08717636 -0.07443187
v -0.05064978 -0.08717636 -0.04949345
v -0.06467328 -0.06648628 -0.055462
v -0.06555649 -0.08652031 -0.04949345
v -0.0655384 -0.08610938 -0.03685558
v -0.05062212 -0.08654755 -0.03690899
v -0.05053339 -0.08453171 -0.01829319
v -0.06065815 -0.06623054 -0.05477344
v -0.06041294 -0.06067131 -0.05819729
v -0.06482971 -0.07002723 -0.04868824
v -0.06545983 -0.08432419 -0.01818325
v -0.05038399 -0.08113716 -0.001955528
v -0.06079988 -0.06943741 -0.04826351
v -0.06082476 -0.0699868 -0.03771496
v -0.06484301 -0.07031333 -0.03771503
v -0.0607437 -0.06814048 -0.02154949
v -0.05616965 0.03578445 -0.05755321
v -0.06532772 -0.08132255 -0.001749306
v -0.05015994 -0.07604606 0.01318119
v -0.06478342 -0.06895477 -0.02154957
v -0.06511277 -0.07643844 0.01353474
v -0.04980894 -0.06807068 0.02861378
v -0.06060448 -0.06497711 -0.005625572
v -0.06462572 -0.0653717 -0.005625648
v -0.06477087 -0.06866974 0.02911472
v -0.06436913 -0.05954162 0.04435749
v -0.06365786 -0.04338028 0.04435749
v -0.06038032 -0.05988403 0.009517861
v -0.06440637 -0.06038788 0.009517784
v -0.0640863 -0.05311523 0.02471218
v -0.05960058 -0.04216675 0.04435756
v -0.06005834 -0.05256775 0.02471226
v -0.0574237 0.007295684 0.03310017
v -0.0574237 0.007295684 0.04435756
v -0.05610575 0.03724197 0.03257862
v -0.06003175 0.03901146 0.03446461
v -0.06009537 0.03756035 -0.05905544
v -0.0594507 0.05221382 0.03446461
v -0.05954376 0.0500991 -0.02570171
v -0.05951321 0.05079345 -0.04949345
v -0.05951321 0.05079345 -0.05905544
v -0.04460651 0.05013733 -0.05905544
v -0.04460651 0.05013733 -0.04949345
v -0.04146971 0.1214111 0.0271114
v -0.05608023 0.1287971 0.03446461
v -0.05705483 0.1066523 0.03446461
v -0.05545457 0.05203796 0.03446461
v -0.05554764 0.04992325 -0.02570171
v -0.0530587 0.1064764 0.03446461
v -0.06009537 0.03756035 -0.05905544
v -0.05616965 0.03578445 -0.05755321
v -0.06041294 -0.06067131 -0.05819729
v -0.0644426 -0.06125702 -0.05905544
v -0.09134764 0.0436451 -0.05905544
v -0.07661608 0.06966163 -0.05905544
v -0.09731861 0.01434921 -0.05905544
v -0.09394451 -0.01535805 -0.05905544
v -0.08155542 -0.04256828 -0.05905544
v -0.05951321 0.05079345 -0.05905544
v -0.05456581 0.08985306 -0.05905544
v -0.04460651 0.05013733 -0.05905544
v -0.02735537 0.102242 -0.05905544
v -0.0001760101 0.04818191 -0.05905544
v 0.002351708 0.1056159 -0.05905544
v 0.03164754 0.09964531 -0.05905544
v 0.05766438 0.08491371 -0.05905544
v 0.04425451 0.0462265 -0.05905544
v 0.07785555 0.06286323 -0.05905544
v 0.0591612 0.04557045 -0.05905544
v 0.09024463 0.03565315 -0.05905544
v 0.05857857 0.03233734 -0.05905544
v 0.09361879 0.005945968 -0.05905544
v 0.05422776 -0.06647972 -0.05905544
v 0.05451203 0.03091339 -0.05755321
v 0.05026515 -0.0655423 -0.05819729
v 0.07291623 -0.04936668 -0.05905544
v 0.08764786 -0.02335014 -0.05905544
v -0.04255405 -0.00454422 0.04435756
v 0.05325845 0.002424469 0.04435756
v 0.03438934 -0.007930527 0.04435756
v 0.03733189 -0.01266518 0.04435756
v 0.05108158 -0.04703796 0.04435756
v -0.0574237 0.007295684 0.04435756
v -0.04590236 -0.009031372 0.04435749
v 0.0355772 -0.04949074 0.04435741
v -0.04738842 -0.04583931 0.04435741
v 0.05501656 -0.04860321 0.04435749
v 0.05430529 -0.06476463 0.04435749
v -0.06436913 -0.05954162 0.04435749
v -0.05960058 -0.04216675 0.04435756
v -0.06365786 -0.04338028 0.04435749
vt 0.655411 0.0184539
vt 0.69295 0.02494225
vt 0.6915405 0.01367468
vt 0.6573817 0.02956119
vt 0.6196887 0.02652055
vt 0.6927755 0.02985328
vt 0.6225904 0.03738049
vt 0.5852613 0.03759825
vt 0.6581993 0.03436106
vt 0.6947307 0.04461843
vt 0.6607639 0.04906228
vt 0.6238313 0.04207027
vt 0.627797 0.05619088
vt 0.5886989 0.04835501
vt 0.5514063 0.04885176
vt 0.5901711 0.05300692
vt 0.5549803 0.05958098
vt 0.5174778 0.06001297
vt 0.5947725 0.0672459
vt 0.6253257 0.06282532
vt 0.5212214 0.07066503
vt 0.48259 0.07204065
vt 0.4864177 0.08260223
vt 0.556496 0.06421572
vt 0.5228243 0.07529286
vt 0.4895712 0.08664843
vt 0.5966774 0.0726437
vt 0.6317177 0.08030242
vt 0.6028597 0.09032193
vt 0.561163 0.07843599
vt 0.5275114 0.08959079
vt 0.4943056 0.1002761
vt 0.5629205 0.08382222
vt 0.5688381 0.1016357
vt 0.5292117 0.09501746
vt 0.5347564 0.1129151
vt 0.4955621 0.1057303
vt 0.499753 0.123789
vt 0.4601702 0.1059736
vt 0.4607057 0.1115579
vt 0.462712 0.1300975
vt 0.4252381 0.1122655
vt 0.4257208 0.1311241
vt 0.4251519 0.1065675
vt 0.3896796 0.1123035
vt 0.3897565 0.1310758
vt 0.4251642 0.09153831
vt 0.4600169 0.09153494
vt 0.3896908 0.1066514
vt 0.354088 0.1122205
vt 0.3540624 0.1309594
vt 0.4252082 0.08669305
vt 0.4617027 0.08669835
vt 0.3897103 0.09172505
vt 0.3541267 0.1065809
vt 0.3185089 0.1121118
vt 0.3183952 0.130852
vt 0.4253007 0.07539952
vt 0.4619327 0.07544777
vt 0.3897398 0.07556495
vt 0.3897315 0.08685991
vt 0.3542298 0.07552999
vt 0.354216 0.08682296
vt 0.3186851 0.07536006
vt 0.3541858 0.09168327
vt 0.3186834 0.08666396
vt 0.2829872 0.07511079
vt 0.3186526 0.0915328
vt 0.2831523 0.08639836
vt 0.2460905 0.07541651
vt 0.246363 0.08664587
vt 0.2832002 0.09129381
vt 0.248061 0.09147203
vt 0.3185662 0.1064623
vt 0.2830956 0.1063296
vt 0.2482133 0.1058932
vt 0.2829797 0.1120108
vt 0.2825328 0.1307315
vt 0.247669 0.1114628
vt 0.2458947 0.1299142
vt 0.214039 0.10043
vt 0.2127699 0.1058953
vt 0.2087715 0.1241109
vt 0.178922 0.09528884
vt 0.1733716 0.1133248
vt 0.180653 0.08985558
vt 0.1452061 0.08404982
vt 0.1392616 0.1018741
vt 0.185444 0.07559851
vt 0.218487 0.08668718
vt 0.1470185 0.07868192
vt 0.1115106 0.07273951
vt 0.1053173 0.09046513
vt 0.07646012 0.08036563
vt 0.0829007 0.06291875
vt 0.1134279 0.06741622
vt 0.08044843 0.05628288
vt 0.1517744 0.06448853
vt 0.1181022 0.05319625
vt 0.1870252 0.07101518
vt 0.2216316 0.08262655
vt 0.1533304 0.05987024
vt 0.190699 0.0603317
vt 0.2254242 0.07203048
vt 0.1569015 0.0491454
vt 0.1230858 0.03776467
vt 0.1196226 0.04850546
vt 0.08450448 0.04203266
vt 0.08576806 0.03738862
vt 0.08869989 0.02645358
vt 0.05291508 0.01840949
vt 0.05101725 0.02948925
vt 0.01679846 0.01367188
vt 0.01537777 0.02484584
vt 0.05016767 0.0343031
vt 0.04751763 0.04891047
vt 0.01555731 0.02978939
vt 0.01367188 0.04439846
vt 0.9707527 0.9706413
vt 0.9780269 0.9699413
vt 0.9780335 0.939201
vt 0.9399633 0.9549482
vt 0.9598953 0.9391986
vt 0.9058313 0.9495375
vt 0.8517702 0.9391836
vt 0.8517793 0.8739362
vt 0.9599044 0.8739511
vt 0.8336319 0.9391811
vt 0.8716979 0.9549388
vt 0.8336301 0.9699214
vt 0.8409042 0.9706234
vt 0.8285568 0.06024926
vt 0.8267097 0.05546425
vt 0.8147041 0.06559693
vt 0.8149183 0.02491917
vt 0.8254285 0.02086191
vt 0.8372199 0.05140697
vt 0.8106993 0.0452471
vt 0.8112667 0.02456093
vt 0.8156469 0.01367657
vt 0.8116884 0.01829279
vt 0.8086584 0.05023611
vt 0.8039675 0.05228589
vt 0.7908855 0.05228405
vt 0.7801462 0.06559246
vt 0.7861955 0.05023306
vt 0.7841554 0.04524352
vt 0.7835933 0.02455771
vt 0.7799419 0.02491468
vt 0.7831742 0.01828946
vt 0.7792175 0.01367188
vt 0.7681479 0.05544449
vt 0.7662947 0.06024146
vt 0.7576386 0.05138458
vt 0.7694327 0.02085478
vt 0.8285617 0.06024895
vt 0.8267097 0.05545153
vt 0.814709 0.06559661
vt 0.814923 0.02491889
vt 0.8254332 0.02086156
vt 0.8372199 0.05139415
vt 0.8107046 0.04524673
vt 0.8112718 0.02456107
vt 0.8156503 0.01367628
vt 0.8116925 0.01829286
vt 0.8086634 0.05023578
vt 0.8039729 0.05228564
vt 0.7908909 0.05228432
vt 0.7801511 0.06559283
vt 0.7862005 0.05023338
vt 0.7841607 0.04524391
vt 0.7835983 0.02455765
vt 0.7799467 0.02491499
vt 0.7831782 0.01828938
vt 0.7792208 0.0136722
vt 0.7681479 0.05545724
vt 0.7662996 0.0602418
vt 0.7576387 0.05139733
vt 0.7694374 0.02085514
vt 0.4733739 0.01367188
vt 0.5046839 0.01853439
vt 0.5083356 0.01367191
vt 0.4770254 0.01853435
vt 0.5041279 0.03741026
vt 0.4775814 0.03740999
vt 0.502088 0.04204307
vt 0.4796216 0.04204283
vt 0.4843123 0.04394566
vt 0.497397 0.04394586
vt 0.4733739 0.01367193
vt 0.504684 0.01853448
vt 0.5083356 0.01367193
vt 0.4770256 0.01853436
vt 0.5041279 0.03741013
vt 0.4775816 0.03741037
vt 0.5020878 0.04204299
vt 0.4796215 0.0420431
vt 0.4843126 0.04394581
vt 0.4973971 0.04394569
vt 0.6335116 0.1714025
vt 0.6272333 0.1521867
vt 0.6272382 0.1710707
vt 0.6411917 0.1521867
vt 0.6430432 0.1471239
vt 0.6272333 0.1471251
vt 0.6438054 0.1420624
vt 0.6272358 0.1420624
vt 0.6272358 0.1289781
vt 0.6438054 0.1289805
vt 0.6430455 0.1239178
vt 0.6272358 0.1239166
vt 0.6411917 0.1188562
vt 0.6272358 0.118855
vt 0.633514 0.09963917
vt 0.6272405 0.099971
vt 0.6335117 0.09964008
vt 0.627241 0.09996957
vt 0.6272333 0.118854
vt 0.6411927 0.1188578
vt 0.6272333 0.1239163
vt 0.6430447 0.1239202
vt 0.6272333 0.1289777
vt 0.6438055 0.1289816
vt 0.6438055 0.142063
vt 0.6272333 0.142063
vt 0.6272333 0.1471253
vt 0.6430447 0.1471253
vt 0.6272333 0.1521867
vt 0.6411927 0.1521867
vt 0.6335079 0.1714016
vt 0.6272333 0.1710702
vt 0.03617597 0.2271583
vt 0.01477216 0.2090221
vt 0.0147865 0.3534238
vt 0.03618672 0.3352834
vt 0.2667427 0.2271354
vt 0.2667535 0.3352605
vt 0.1807485 0.1333381
vt 0.1807779 0.4290748
vt 0.02661867 0.2083229
vt 0.02663315 0.3541207
vt 0.02056822 0.1898747
vt 0.01659315 0.1699827
vt 0.01431734 0.1473346
vt 0.01367188 0.1320313
vt 0.02058639 0.3725701
vt 0.01661526 0.3924629
vt 0.01434396 0.4151114
vt 0.01370155 0.4304149
vt 0.7436813 0.08381259
vt 0.6789992 0.08381414
vt 0.6790019 0.1919393
vt 0.743684 0.1919377
vt 0.9107631 0.08380854
vt 0.9107657 0.1919337
vt 0.922388 0.1378708
vt 0.9223893 0.1919334
vt 0.9223867 0.08380824
vt 0.6789992 0.08381414
vt 0.6572547 0.08381468
vt 0.6572574 0.1919398
vt 0.6790019 0.1919393
vt 0.7436846 0.2222531
vt 0.743684 0.1919377
vt 0.6790019 0.1919393
vt 0.6790024 0.2136838
vt 0.6789988 0.06206965
vt 0.6789992 0.08381414
vt 0.7436813 0.08381259
vt 0.7436805 0.05349714
vt 0.8237175 0.5584427
vt 0.8506631 0.5584447
vt 0.8689988 0.5479426
vt 0.7574774 0.5584378
vt 0.8237172 0.5633051
vt 0.7574771 0.5633003
vt 0.741413 0.5584367
vt 0.7035902 0.5479305
vt 0.7030107 0.5633847
vt 0.7394521 0.5638046
vt 0.7035919 0.5246164
vt 0.6882142 0.549588
vt 0.6882152 0.5359033
vt 0.8690004 0.5246285
vt 0.703604 0.3592078
vt 0.6922914 0.5092497
vt 0.6923013 0.3745729
vt 0.8690125 0.3592199
vt 0.8923266 0.3592216
vt 0.8923145 0.5246302
vt 0.9106501 0.5141281
vt 0.9106607 0.3697264
vt 0.9227819 0.3878656
vt 0.922774 0.4959907
vt 0.7036057 0.3358938
vt 0.8690143 0.3359059
vt 0.68823 0.3342341
vt 0.6882289 0.3479187
vt 0.74143 0.3253931
vt 0.7030284 0.3204395
vt 0.7394699 0.3200249
vt 0.7574944 0.3253943
vt 0.8237346 0.3253991
vt 0.8506801 0.3254011
vt 0.7574947 0.3205318
vt 0.8237349 0.3205367
vt 0.4162181 0.9414619
vt 0.2381232 0.9377995
vt 0.2417698 0.9414468
vt 0.4198653 0.9378152
vt 0.238126 0.9053956
vt 0.4198681 0.9054112
vt 0.2381273 0.890436
vt 0.4198694 0.8904517
vt 0.2381278 0.8849744
vt 0.4198698 0.8849901
vt 0.23813 0.8598923
vt 0.2326662 0.8849739
vt 0.419872 0.859908
vt 0.4253314 0.8849906
vt 0.2202261 0.8598908
vt 0.2202258 0.8635371
vt 0.2381315 0.8419885
vt 0.2002611 0.8999307
vt 0.232665 0.8999335
vt 0.2002641 0.8635353
vt 0.1974367 0.8738478
vt 0.1966145 0.8962834
vt 0.4198735 0.8420042
vt 0.2381318 0.8383422
vt 0.4198739 0.8383579
vt 0.2381335 0.8183804
vt 0.4198756 0.8183961
vt 0.2485845 0.8147339
vt 0.240961 0.8080679
vt 0.4094253 0.8147478
vt 0.41705 0.8080832
vt 0.4377755 0.8635558
vt 0.4377759 0.8599095
vt 0.457734 0.8999529
vt 0.42533 0.8999501
vt 0.4577372 0.8635576
vt 0.4613811 0.8963063
vt 0.4605629 0.8738706
vt 0.9773415 0.3500929
vt 0.9834152 0.452854
vt 0.983404 0.3517857
vt 0.9773531 0.4545482
vt 0.9716105 0.4575773
vt 0.9715983 0.3470651
vt 0.9665791 0.3428921
vt 0.9665923 0.4617514
vt 0.9605594 0.3390557
vt 0.9605734 0.4655892
vt 0.9541349 0.3351852
vt 0.9541498 0.469461
vt 0.9472882 0.3263062
vt 0.9473051 0.4783415
vt 0.9368479 0.48965
vt 0.9368286 0.3150001
vt 0.4583277 0.04347694
vt 0.4400789 0.05732054
vt 0.4632283 0.04815286
vt 0.4376912 0.05094248
vt 0.4250938 0.01367807
vt 0.4248179 0.06036705
vt 0.4220698 0.01917505
vt 0.4232517 0.052921
vt 0.4172017 0.02342683
vt 0.4094698 0.06097329
vt 0.4112192 0.02592295
vt 0.4089114 0.05115205
vt 0.3960823 0.05932128
vt 0.4043206 0.02749991
vt 0.3951563 0.0478673
vt 0.3825487 0.05488503
vt 0.383419 0.04292393
vt 0.3970042 0.02643871
vt 0.3727144 0.05015588
vt 0.3868451 0.02223039
vt 0.373453 0.03897995
vt 0.3607938 0.0417695
vt 0.3741879 0.01367188
vt 0.3612338 0.03176808
vt 0.949531 0.5926673
vt 0.9579178 0.6045875
vt 0.9679192 0.604147
vt 0.9607067 0.5919281
vt 0.9860148 0.5911924
vt 0.9774559 0.5785356
vt 0.9448012 0.5828335
vt 0.9732474 0.5683768
vt 0.9567621 0.5819622
vt 0.9403635 0.569301
vt 0.9721867 0.5610605
vt 0.9518176 0.570225
vt 0.9387049 0.5559158
vt 0.9737656 0.5541622
vt 0.9485307 0.5564693
vt 0.9392973 0.540562
vt 0.976264 0.5481798
vt 0.9466854 0.5421175
vt 0.9423649 0.525299
vt 0.9487421 0.5276904
vt 0.9805156 0.5433093
vt 0.9515389 0.5021523
vt 0.9860119 0.5402845
vt 0.9562294 0.5070796
vt 0.7588265 0.2303926
vt 0.8529713 0.2054394
vt 0.7593474 0.2054412
vt 0.853493 0.2303908
vt 0.8551722 0.2459752
vt 0.757148 0.2459771
vt 0.7539743 0.2611893
vt 0.8583466 0.2611873
vt 0.7494944 0.2741467
vt 0.8628269 0.2741444
vt 0.74303 0.2871895
vt 0.8692918 0.287187
vt 0.7365175 0.2963094
vt 0.8758047 0.2963067
vt 0.8865817 0.3064074
vt 0.7257409 0.3064105
vt 0.06798425 0.6721894
vt 0.1674702 0.5808771
vt 0.145645 0.5789738
vt 0.0805791 0.6859652
vt 0.1104066 0.6841497
vt 0.1731416 0.6044824
vt 0.177409 0.6073887
vt 0.0685325 0.6894971
vt 0.0591681 0.6769779
vt 0.0703409 0.7007101
vt 0.1146087 0.6821981
vt 0.184806 0.6773631
vt 0.1846558 0.6823335
vt 0.184121 0.6984663
vt 0.1819324 0.7039165
vt 0.07201362 0.7058347
vt 0.1329833 0.8283782
vt 0.1513779 0.8228437
vt 0.1819439 0.7410967
vt 0.1138281 0.8325281
vt 0.09430754 0.8349153
vt 0.06973445 0.8248441
vt 0.1339376 0.8331202
vt 0.1526411 0.8275506
vt 0.1143989 0.8375292
vt 0.1699452 0.8149311
vt 0.1943444 0.8036759
vt 0.195807 0.7417886
vt 0.195823 0.8088861
vt 0.1715321 0.8196868
vt 0.1755771 0.8390698
vt 0.1949934 0.8293659
vt 0.1828285 0.8559114
vt 0.1624921 0.864278
vt 0.1564663 0.8471338
vt 0.1428451 0.8703562
vt 0.1383178 0.8524863
vt 0.1218358 0.8741966
vt 0.1187193 0.8562268
vt 0.09839636 0.876976
vt 0.09615186 0.8589048
vt 0.08274171 0.8782817
vt 0.09445357 0.8397907
vt 0.08082992 0.8600858
vt 0.06917959 0.8608737
vt 0.05214947 0.8808429
vt 0.05040112 0.8625221
vt 0.04744589 0.8311397
vt 0.06621838 0.8291674
vt 0.08182204 0.8348008
vt 0.08041272 0.8395683
vt 0.07134461 0.8353633
vt 0.07424796 0.8314971
vt 0.6685773 0.8725162
vt 0.635224 0.8883452
vt 0.6666628 0.8912837
vt 0.6369045 0.8695619
vt 0.6169135 0.8865774
vt 0.619499 0.8559935
vt 0.6623897 0.8673911
vt 0.6376909 0.8579092
vt 0.6388757 0.842585
vt 0.6208079 0.8403406
vt 0.6235977 0.8169002
vt 0.6662517 0.8644875
vt 0.6728922 0.8690008
vt 0.6581931 0.8583232
vt 0.6415658 0.8200151
vt 0.627453 0.7958887
vt 0.6629575 0.8569131
vt 0.6628548 0.8444262
vt 0.6579811 0.8442809
vt 0.6652544 0.8249044
vt 0.7915699 0.8667331
vt 0.6453226 0.8004144
vt 0.6335483 0.7762392
vt 0.6602558 0.824334
vt 0.6506944 0.7822636
vt 0.6419307 0.7559003
vt 0.6694244 0.8057471
vt 0.6646847 0.8047932
vt 0.6587791 0.7631502
vt 0.6685005 0.7437316
vt 0.6890098 0.7428988
vt 0.6749923 0.7873498
vt 0.6702837 0.786087
vt 0.678179 0.7671927
vt 0.6942294 0.7443767
vt 0.6829401 0.7687792
vt 0.7569595 0.7567638
vt 0.75626 0.7429011
vt 0.7942461 0.7567654
vt 0.7997627 0.7545708
vt 0.796632 0.8684107
vt 0.8161653 0.7539984
vt 0.8133642 0.82875
vt 0.8113274 0.8586038
vt 0.8076133 0.8702168
vt 0.8201207 0.880708
vt 0.8252255 0.871084
vt 0.9189193 0.794898
vt 0.9171202 0.7732357
vt 0.8935251 0.7674181
vt 0.821439 0.7538958
vt 0.8151875 0.8244974
vt 0.8907844 0.7632943
vt 0.2020358 0.5290805
vt 0.1968418 0.5310276
vt 0.1970675 0.6483962
vt 0.2020411 0.6493202
vt 0.2403145 0.5233588
vt 0.2238125 0.490977
vt 0.2460023 0.5592557
vt 0.2403191 0.5951533
vt 0.223821 0.6275372
vt 0.202035 0.5129787
vt 0.1981115 0.465279
vt 0.1838967 0.5129798
vt 0.1657272 0.448781
vt 0.1298342 0.5129831
vt 0.1298299 0.4430981
vt 0.09393314 0.4487854
vt 0.06155097 0.4652875
vt 0.07577169 0.5129865
vt 0.03585315 0.4909887
vt 0.05763334 0.5129877
vt 0.01935512 0.5233727
vt 0.05763465 0.5290895
vt 0.01367188 0.5592702
vt 0.05764437 0.6493292
vt 0.06282881 0.5310359
vt 0.06261784 0.6484046
vt 0.0358617 0.627549
vt 0.01935959 0.5951672
vt 0.7405762 0.9183713
vt 0.6245905 0.9047872
vt 0.6469523 0.9183713
vt 0.6431258 0.923964
vt 0.6245905 0.9649726
vt 0.7592673 0.9047872
vt 0.7444027 0.9239997
vt 0.6432884 0.9687799
vt 0.7442401 0.96878
vt 0.619728 0.9666631
vt 0.619728 0.9863281
vt 0.7641297 0.9863281
vt 0.7592673 0.9649726
vt 0.7641297 0.9666632
vn -0.35053 -0.9365515 0
vn -0.186663 -0.9159055 0.3553504
vn -0.1996979 -0.9798575 0
vn -0.3271333 -0.8740453 0.3592057
vn -0.6227894 -0.7823895 0
vn -0.1874044 -0.9194956 0.3455536
vn -0.5812228 -0.7301733 0.3592033
vn -0.8340795 -0.5516441 0
vn -0.3284445 -0.8775463 0.3493377
vn -0.1997078 -0.9798555 0
vn -0.3505308 -0.9365512 0
vn -0.5835492 -0.7331 0.3493348
vn -0.6195706 -0.7783509 -0.1014996
vn -0.7784133 -0.5148293 0.3591986
vn -0.9637245 -0.2668991 0
vn -0.78153 -0.516895 0.3493286
vn -0.8994062 -0.2490888 0.3591979
vn -0.9989786 0.04518479 0
vn -0.7698439 -0.5091659 -0.3848253
vn -0.669889 -0.6133991 -0.4183183
vn -0.9326877 0.04218482 0.3582095
vn -0.9800536 0.1987331 0
vn -0.9287985 0.1883382 0.3191585
vn -0.9030089 -0.2500884 0.3493289
vn -0.9352349 0.04115928 0.3516272
vn -0.9076995 0.1850015 0.3766381
vn -0.8102884 -0.5208184 -0.2686651
vn -0.7375205 -0.6753246 0
vn -0.8412174 -0.540697 0
vn -0.8840903 -0.2448466 -0.3980381
vn -0.9164814 0.04033612 -0.3980387
vn -0.7439779 0.1516342 -0.6507719
vn -0.9308371 -0.2577936 -0.2590071
vn -0.9637237 -0.2669016 0
vn -0.9649406 0.04246941 -0.2590093
vn -0.9990329 0.04396952 0
vn -0.9045895 0.3385737 -0.259009
vn -0.9365494 0.3505358 0
vn -0.5127649 0.5599739 -0.6507698
vn -0.7556912 0.6015355 -0.2590096
vn -0.7823907 0.622788 0
vn -0.5328227 0.8056149 -0.2590068
vn -0.5516476 0.8340773 0
vn -0.5060652 0.7651566 -0.3980369
vn -0.2577894 0.9308401 -0.2590006
vn -0.266896 0.9637253 0
vn -0.5164646 0.7808795 0.3514138
vn -0.625726 0.6833322 0.3761968
vn -0.2448498 0.8840938 -0.3980285
vn 0.04246655 0.9649435 -0.2589994
vn 0.04396666 0.999033 0
vn -0.5161653 0.7780896 0.3579807
vn -0.6396185 0.6994326 0.3188765
vn -0.250087 0.9030105 0.3493259
vn 0.04033747 0.9164875 -0.3980247
vn 0.3385685 0.9045927 -0.2590049
vn 0.3505297 0.9365516 0
vn -0.5527998 0.833314 0
vn -0.6748476 0.7379572 0
vn -0.2669066 0.9637224 0
vn -0.2490933 0.8994063 0.3591946
vn 0.04396858 0.9990329 0
vn 0.04103402 0.9323567 0.3592037
vn 0.3505313 0.936551 0
vn 0.0412001 0.9360934 0.3493306
vn 0.3271368 0.8740427 0.3592088
vn 0.6238701 0.7815281 1.084458E-07
vn 0.3284498 0.8775446 0.3493367
vn 0.5825246 0.7297301 0.3579933
vn 0.7370753 0.6758106 2.119405E-07
vn 0.698597 0.6405273 0.3188842
vn 0.5830645 0.7324842 0.3514294
vn 0.6833342 0.6257153 0.3762111
vn 0.3215694 0.8591638 -0.3980335
vn 0.5713245 0.7177415 -0.3980397
vn 0.5599745 0.5127658 -0.6507687
vn 0.6015366 0.7556905 -0.2590089
vn 0.62279 0.782389 0
vn 0.8056134 0.5328236 -0.25901
vn 0.8340776 0.5516472 0
vn 0.75442 0.0856898 -0.6507746
vn 0.9308357 0.2577957 -0.2590105
vn 0.9637234 0.2669033 0
vn 0.9649404 -0.04246775 -0.2590106
vn 0.999033 -0.0439682 0
vn 0.9164807 -0.04033498 -0.3980407
vn 0.9045904 -0.3385721 -0.2590077
vn 0.9365499 -0.3505343 0
vn 0.9352344 -0.04116157 0.3516282
vn 0.9204416 0.1045441 0.3766402
vn 0.8591617 -0.3215674 -0.3980396
vn 0.7614003 -0.5899901 -0.2686658
vn 0.7904628 -0.61251 0
vn 0.6753389 -0.7375076 0
vn 0.6134101 -0.669878 -0.4183199
vn 0.7221375 -0.5748275 -0.3848258
vn 0.5487974 -0.8297707 -0.1014992
vn 0.8775472 -0.3284499 0.3493301
vn 0.7330988 -0.5835528 0.349331
vn 0.9327871 -0.03991663 0.3582105
vn 0.9417533 0.1060141 0.319158
vn 0.8740453 -0.3271401 0.3591991
vn 0.9990857 -0.04275252 0
vn 0.9937233 0.1118652 0
vn 0.9365501 -0.3505339 0
vn 0.7823915 -0.622787 0
vn 0.7301748 -0.5812224 0.3592007
vn 0.5168919 -0.7815284 0.3493366
vn 0.514829 -0.7784104 0.3592053
vn 0.5516458 -0.8340784 0
vn 0.2668961 -0.9637253 0
vn 0.2490841 -0.8994043 0.3592061
vn 0.1128482 -0.9936122 0
vn 0.1054837 -0.9287636 0.3553468
vn 0.2500829 -0.9030074 0.3493367
vn 0.266897 -0.9637251 0
vn 0.1058996 -0.9324052 0.3455514
vn 0.1128507 -0.993612 0
vn 0 -2.589963E-06 -1
vn 0 -2.589962E-06 -1
vn 0 -2.34693E-07 -1
vn 0 5.777007E-06 -1
vn -0.005099642 -0.1158721 -0.993251
vn 0 7.506713E-06 -1
vn -0.00509964 -0.1158731 -0.9932509
vn -0.005775664 -0.1312337 -0.9913346
vn -0.005775664 -0.1312337 -0.9913346
vn 0 0 -1
vn 0 0 -1
vn 0 0 -1
vn 0 0 -1
vn -0.4192234 0.9078832 0
vn -0.4192212 0.9078841 -4.094228E-07
vn 0.02757131 0.6354229 0.7716719
vn -0.2407501 0.9344053 0.2625378
vn -0.4192219 0.9078838 -1.910208E-07
vn -0.4192219 0.9078838 -1.910208E-07
vn 0.323785 0.1735864 0.9300705
vn 0.509993 0.2644941 0.8185048
vn 0.8957029 0.4442501 -0.01892633
vn 0.8957029 0.44425 -0.01892633
vn 0.3212888 0.1630822 0.9328332
vn 0.3202694 0.1463563 0.9359527
vn 0.3206733 0.1454674 0.9359529
vn 0.4972963 -0.3960208 0.7719222
vn 0.3339351 0.1352422 0.9328434
vn 0.3435017 0.1302805 0.9300718
vn 0.5343286 0.2110515 0.8185049
vn 0.5467329 -0.7950657 0.2625903
vn 0.9231594 0.3839524 -0.01890528
vn 0.9231594 0.3839524 -0.01890528
vn 0.4095194 -0.9123014 -1.213248E-06
vn 0.4095247 -0.912299 0
vn 0.4095201 -0.912301 -3.439726E-06
vn 0.4095201 -0.9123011 -3.439726E-06
vn -0.4880771 -0.8728005 0
vn -0.4880806 -0.8727985 -6.687551E-07
vn -0.5301628 -0.3508051 0.7719218
vn -0.6144648 -0.7439619 0.2625902
vn -0.4880808 -0.8727984 -4.03743E-06
vn -0.4880808 -0.8727984 -4.037429E-06
vn -0.3307389 0.1599329 0.9300716
vn -0.5137274 0.2571557 0.8185079
vn -0.8858615 0.4635645 -0.01890327
vn -0.8858615 0.4635645 -0.01890327
vn -0.3207447 0.164042 0.9328521
vn -0.3066525 0.1730751 0.9359536
vn -0.306173 0.173924 0.9359533
vn 0.02835472 0.6353831 0.7716764
vn -0.3057109 0.1906462 0.9328423
vn -0.3072813 0.2013459 0.9300742
vn -0.4847825 0.3082656 0.8185098
vn 0.3219063 0.9096434 0.2625366
vn -0.853209 0.5212257 -0.0189238
vn -0.853209 0.5212257 -0.0189238
vn 0.4973548 0.8675472 9.849948E-07
vn 0.49735 0.8675501 0
vn 0.4973543 0.8675476 0
vn 0.4973543 0.8675476 0
vn 0.9101021 0.4143842 3.401789E-05
vn 0.3578495 0.1629347 0.9194542
vn 0.9101021 0.4143842 3.401788E-05
vn 0.3578456 0.1629329 0.919456
vn 0 3.430159E-07 1
vn 0 3.430001E-07 1
vn 0 3.257744E-06 1
vn 0 3.257778E-06 1
vn 0 1.666597E-05 1
vn 0 1.666597E-05 1
vn -0.8701811 0.492732 3.10094E-05
vn -0.3421513 0.19374 0.9194549
vn -0.8701811 0.4927319 3.10094E-05
vn -0.3421531 0.193741 0.919454
vn 0 0 1
vn 0 0 1
vn 0 0 1
vn 0 0 1
vn 0 0 1
vn 0 0 1
vn -0.3876834 0.9217924 -0.000585371
vn -0.2867523 0.9580047 -0.0004736579
vn -0.3876833 0.9217924 -0.0005853711
vn -0.247149 0.9689774 -0.0004293472
vn 0.4421438 0.8969442 -0.0001139952
vn 0.3799901 0.9249905 -0.0001227788
vn 0.8655112 0.5008895 -1.628821E-05
vn 0.8617121 0.5073975 -1.772082E-05
vn 0.9484864 0.3168181 -1.870733E-05
vn 0.9460717 0.3239573 -1.720388E-05
vn 0.9668365 -0.255396 -0.0001211575
vn 0.9471814 -0.3206982 -0.0001306866
vn 0.5685562 -0.8226442 -0.0004491733
vn 0.5342818 -0.8453063 -0.0004948318
vn 0.4407127 -0.897648 -0.0006098904
vn 0.4407127 -0.897648 -0.0006098904
vn 0.4671595 0.8841729 -0.0005832332
vn 0.4671595 0.8841729 -0.0005832332
vn 0.3698016 0.9291106 -0.000471885
vn 0.3313165 0.9435196 -0.0004277204
vn -0.2972814 0.9547899 -0.000123163
vn -0.3616613 0.9323096 -0.0001145686
vn -0.8138065 0.5811359 -1.88188E-05
vn -0.8181624 0.5749873 -1.737773E-05
vn -0.9139517 0.4058228 -1.773889E-05
vn -0.9169846 0.3989227 -1.920817E-05
vn -0.9716915 -0.2362532 -0.0001327644
vn -0.9855348 -0.1694731 -0.0001227154
vn -0.6064777 -0.7951003 -0.0004979969
vn -0.6386297 -0.769514 -0.0004526083
vn -0.5178655 -0.8554619 -0.0006123272
vn -0.5178654 -0.8554619 -0.0006123271
vn 0.2270786 -0.1632172 -0.9601018
vn -0.0393182 -0.8933628 0.4476124
vn -0.0393182 -0.8933628 0.4476124
vn -0.24054 -0.1426372 -0.9601015
vn 0.2225713 -0.01752409 -0.9747589
vn -0.2232501 0.00209685 -0.974759
vn 0.999033 -0.04396812 1.81536E-07
vn -0.999033 0.04396824 0
vn 0.999033 -0.04396756 0
vn -0.999033 0.04396753 -2.537609E-07
vn 0.999033 -0.04396804 7.094993E-07
vn 0.999033 -0.04396845 -5.976409E-07
vn 0.999033 -0.04396805 -7.140832E-07
vn 0.999033 -0.04396772 0
vn -0.999033 0.04396823 0
vn -0.999033 0.04396828 0
vn -0.999033 0.04396823 1.770566E-07
vn -0.999033 0.04396817 2.205421E-07
vn 0 -3.599133E-07 1
vn 0 -8.86609E-07 1
vn 0 -8.86609E-07 1
vn 0 -3.599133E-07 1
vn 0.0008675989 0.01971413 0.9998053
vn 0.0008675989 0.01971413 0.9998053
vn 0.04396856 0.9990329 0
vn 0.04396524 0.9990331 0
vn 0.04396524 0.9990331 0
vn -0.04396786 -0.999033 0
vn -0.04396786 -0.999033 0
vn -0.04396786 -0.999033 0
vn -0.04396786 -0.999033 0
vn -0.999033 0.04396806 0
vn -0.999033 0.04396806 0
vn -0.999033 0.04396806 0
vn -0.999033 0.04396806 0
vn 0.999033 -0.04396795 0
vn 0.999033 -0.04396794 0
vn 0.999033 -0.04396794 0
vn 0.999033 -0.04396795 0
vn -0.01631518 0.005313432 -0.9998528
vn -0.01782825 0.005806363 -0.9998242
vn -0.9881372 0.04422726 -0.1470677
vn -0.01631519 0.005313435 -0.9998528
vn 0 -1.750146E-06 -1
vn 0 -1.750146E-06 -1
vn -0.02620735 0.005766101 -0.9996399
vn -0.9100884 -0.02865441 -0.4134223
vn -0.02015296 0.005795233 -0.9997801
vn -0.4318032 0.003294324 -0.9019618
vn -0.1407722 -0.02466924 0.9897346
vn -0.07992644 -0.9968008 0
vn -0.07992645 -0.9968008 0
vn -0.1320174 0.1441726 0.9807067
vn 0.1380607 -0.0369409 0.9897346
vn -0.04391648 -0.9978324 0.04901033
vn -0.04391648 -0.9978324 0.04901033
vn 0.1441728 0.1320173 0.9807067
vn 0.03944291 0.8962088 -0.4418756
vn 0.03944291 0.8962088 -0.4418758
vn 0.004441957 0.1009299 -0.9948836
vn 0.004441957 0.1009299 -0.9948836
vn 0.03241979 0.7366404 -0.6755071
vn 0.03241979 0.7366403 -0.6755072
vn 0.9040525 -0.1084959 -0.4134221
vn 0.988202 -0.0427527 -0.1470676
vn -0.007942927 -0.9999685 0
vn -0.007942926 -0.9999685 0
vn 0.02661295 0.003442149 -0.9996399
vn 0.02058436 0.004003092 -0.9997801
vn 0.4304213 -0.0346534 -0.9019626
vn 0.01671888 0.003860363 -0.9998528
vn 0.01671906 0.003860404 -0.9998528
vn 0.01826958 0.004218417 -0.9998242
vn 0 0 -1
vn 0 0 -1
vn 0.04396888 0.9990329 0
vn 0.002420951 0.05500769 -0.998483
vn 0.04396888 0.9990329 0
vn 0.002420949 0.05500764 -0.998483
vn -0.01842944 -0.4187432 -0.9079177
vn -0.01842943 -0.4187429 -0.9079177
vn -0.04130215 -0.9384453 -0.3429496
vn -0.04130216 -0.9384456 -0.3429487
vn -0.0282912 -0.9766986 -0.2127429
vn -0.05762382 -0.9754075 -0.2127434
vn 0.003956633 -0.814236 0.5805206
vn 0.999033 -0.04396836 0
vn -0.07547311 -0.8107401 0.5805208
vn -0.9990329 0.0439686 7.151553E-07
vn 0.999033 -0.04396803 0
vn 0.999033 -0.04396818 0
vn 0.008774505 0.1993711 0.9798847
vn 0.9993289 0.03663154 -1.412766E-07
vn 0.999033 -0.04396843 0
vn 1 -1.559072E-05 -1.034317E-07
vn 0.04397086 0.9990329 -1.251013E-06
vn 0.04397086 0.9990329 -1.251013E-06
vn 0.008774501 0.199371 0.9798847
vn 0.007900711 0.1795186 0.9837229
vn 0.007900714 0.1795186 0.9837229
vn 0.001980343 0.04499967 0.998985
vn 0.001980438 0.04499967 0.998985
vn 0.04396789 0.999033 -1.271255E-05
vn 0.04395627 0.9990335 -8.753242E-06
vn 0.04396822 0.999033 -1.270777E-05
vn 0.04396782 0.999033 -8.585204E-06
vn -0.9990329 0.04396868 1.600349E-07
vn -0.9990329 0.04396902 0
vn -0.9922467 0.1242838 3.802693E-07
vn -0.9990329 0.04396878 8.256525E-07
vn -0.996135 0.08783577 -8.427E-07
vn 0.04397083 0.9990329 -1.536933E-06
vn 0.04397083 0.9990329 -1.536933E-06
vn -0.04389929 -0.9974461 0.05633982
vn -0.04261116 -0.968171 0.2466358
vn -0.04261116 -0.968171 0.2466358
vn -0.04389929 -0.9974461 0.05633989
vn -0.04263012 -0.9686239 -0.2448476
vn -0.04263011 -0.9686239 -0.2448478
vn -0.03755678 -0.8533213 -0.520031
vn -0.03755678 -0.8533213 -0.520031
vn -0.02628498 -0.5972525 -0.8016224
vn -0.02628495 -0.5972519 -0.8016229
vn -0.0141299 -0.3210683 -0.9469507
vn -0.01412989 -0.321068 -0.9469508
vn -0.001822342 -0.04140556 -0.9991407
vn -0.001822338 -0.04140547 -0.9991407
vn 0 2.645929E-06 -1
vn 0 2.645928E-06 -1
vn 0.9790362 0.2024714 0.02221713
vn 0.7189183 0.5973566 0.3554174
vn 0.7564005 0.5816637 0.2992085
vn 0.9845488 0.1709718 -0.0378461
vn 0.9910414 -0.02635443 -0.1309294
vn 0.6421706 0.5904344 0.4888805
vn 0.9866115 0.006183476 -0.162971
vn 0.9463644 0.3221909 -0.02423739
vn 0.9534246 0.1433391 -0.2653967
vn 0.636977 0.5467123 0.5434758
vn 0.9143271 0.2858685 -0.2868541
vn 0.900901 0.4333779 0.02368379
vn 0.6480116 0.5128439 0.5630916
vn 0.871918 0.426904 -0.2398166
vn 0.8485125 0.5167795 0.1138654
vn 0.6310151 0.5110371 0.5836616
vn 0.7864525 0.5997931 0.1474469
vn 0.8140061 0.5600187 -0.1541851
vn 0.578015 0.5534044 0.5997017
vn 0.7492802 0.658559 -0.06985115
vn 0.7249392 0.666005 0.1757854
vn 0.5556777 0.5591419 0.6152905
vn 0.7291694 0.682881 -0.04455934
vn 0.7204342 0.6841189 0.1138239
vn -0.5271571 0.6020536 0.5996972
vn -0.5044 0.6058062 0.6152883
vn -0.6575428 0.7447699 0.1138217
vn -0.6636224 0.7271215 0.1757825
vn -0.6663541 0.7443027 -0.04456175
vn -0.6885256 0.72184 -0.06985459
vn -0.5836824 0.5644953 0.5836609
vn -0.7616612 0.6293635 -0.1541878
vn -0.7307197 0.666565 0.1474436
vn -0.6004533 0.5677898 0.5630903
vn -0.8310449 0.5018498 -0.2398151
vn -0.7998343 0.5893213 0.1138658
vn -0.5849802 0.5999238 0.5457926
vn -0.8857504 0.3649311 -0.2868301
vn -0.8596753 0.5103106 0.0232692
vn -0.5842118 0.6457149 0.4916797
vn -0.9372118 0.2264541 -0.2652406
vn -0.9141359 0.404759 -0.022928
vn -0.6629696 0.6591826 0.3548938
vn -0.9656618 0.2569333 -0.03850647
vn -0.982241 0.09290533 -0.1630068
vn -0.7036254 0.6450174 0.2981001
vn -0.9895209 0.06082411 -0.1309531
vn -0.9575712 0.2873688 0.02183213
vn 0.03641861 0.8274954 0.5602902
vn 0.038303 0.8703181 0.4909984
vn 0.038303 0.8703181 0.4909984
vn 0.03641861 0.8274954 0.5602902
vn 0.03023495 0.6869815 0.7260457
vn 0.03023494 0.6869814 0.7260457
vn 0.02453474 0.5574684 0.8298355
vn 0.02453474 0.5574684 0.8298355
vn 0.016335 0.371153 0.928428
vn 0.016335 0.371153 0.928428
vn 0.009792586 0.2225041 0.9748825
vn 0.009792585 0.2225041 0.9748825
vn 0.003046268 0.06921163 0.9975973
vn 0.003046264 0.06921155 0.9975974
vn 0.001583773 0.03597759 0.9993513
vn 0.001583773 0.0359776 0.9993513
vn 0.03625621 0.7680347 -0.6393811
vn 0.6644683 0.5335644 -0.5232502
vn 0.03479654 0.7312225 -0.681251
vn 0.6106759 0.5979889 -0.5191187
vn 0.9977005 -0.04391168 0.05162889
vn 0.9853824 -0.142571 0.09324623
vn 0.9197639 -0.3042468 0.2479279
vn 0.8664726 0.4992245 -5.025197E-07
vn 0.04397118 0.9990329 0
vn 0.8415046 -0.5401913 0.00796779
vn 0.9594536 -0.04223004 0.2786852
vn 0.9951265 0.09847946 -0.005000802
vn 0.9786184 0.2054988 -0.008738361
vn 0.9584936 -0.2850879 0.003845638
vn 0.9899548 -0.1413758 0.001544168
vn 0.9895033 -0.1445014 0.001592483
vn 0.9996783 -0.02482101 -0.005227461
vn 0.9995885 -0.0279165 -0.006591005
vn 0.9990329 -0.04397051 -1.730742E-05
vn 0.9999529 0.005774016 -0.007809408
vn 0.9999559 -0.009262984 -0.001556563
vn 0.9992282 -0.03829875 0.008728509
vn 0.9837631 0.1700252 -0.05745923
vn 0.983829 0.1593453 -0.0817904
vn 0.9853059 0.1676876 -0.03244988
vn 0.9981658 0.04246929 -0.04314608
vn 0.9992449 0.02045586 -0.03303325
vn 0.9990329 -0.0439706 -1.071087E-05
vn 0.937969 0.2995121 -0.1746619
vn 0.9779807 0.1775097 -0.1097458
vn 0.7758824 -0.5631813 0.2843123
vn 0.9821921 -0.1714706 0.07678916
vn -0.121964 -0.8767416 0.4652407
vn -0.1146934 -0.9154791 0.3856729
vn 0.6616169 -0.696 0.2790109
vn -0.09753621 -0.9631408 0.250692
vn 0.6720303 -0.7186856 0.1785113
vn -0.07647121 -0.9866161 0.1440164
vn 0.6615027 -0.742707 0.1039254
vn -0.06039421 -0.9951826 0.07722737
vn 0.6595426 -0.7495906 0.05583611
vn -0.04737779 -0.9986938 0.01913616
vn 0.9859771 0.1666264 -0.009208736
vn 0.765079 -0.6436782 0.01823693
vn 0.7290761 -0.6844326 4.477687E-07
vn -0.04396933 -0.9990329 0
vn 0.763348 -0.6459875 0
vn 0.9990364 -0.0438876 0
vn 0.9985325 -0.009147141 0.05337664
vn 0.8563187 0.5036867 0.1140961
vn 0.9919482 0.1210784 0.03712891
vn 0.9761626 0.1427611 0.1634806
vn 0.8980956 0.3181321 0.3036712
vn -0.9954755 0.07861003 0.05337581
vn -0.8171466 -0.5764299 0
vn -0.9990294 0.0440487 0
vn -0.786383 -0.6177393 -4.363819E-06
vn -0.04396933 -0.9990329 0
vn -0.04054138 -0.9989946 0.01913474
vn -0.9598523 0.2279602 0.1634555
vn -0.8186537 -0.5739985 0.01821505
vn -0.722818 -0.6887798 0.05582724
vn -0.02726566 -0.9966407 0.07722723
vn -0.01050179 -0.9895196 0.1440166
vn -0.8666933 0.3957916 0.303631
vn -0.9987295 0.0496364 0.00869294
vn -0.9774825 0.2077289 0.03710369
vn -0.7241692 -0.6817456 0.1039319
vn 0.01254193 -0.9679852 0.2506939
vn -0.8087666 0.5769649 0.1140535
vn -0.996903 0.07862463 -0.001591977
vn -0.9675431 0.2525379 -0.009220728
vn -0.9955782 0.09360925 -0.00782346
vn -0.9983726 -0.05700548 0.001591477
vn -0.7325519 -0.6568841 0.1785247
vn 0.03382222 -0.9220135 0.3856776
vn -0.9667829 0.253532 -0.0324377
vn -0.7201912 -0.6351932 0.2790239
vn 0.04447094 -0.8840652 0.465243
vn -0.9979931 0.06310739 -0.005222942
vn -0.9650362 0.2557469 -0.05743533
vn -0.8223488 -0.4928502 0.2843254
vn -0.9934563 -0.08453246 0.07680395
vn -0.9080324 0.3807542 -0.1746527
vn -0.9981759 0.0600144 -0.006587581
vn -0.9660357 0.2451306 -0.08176859
vn -0.9586103 0.2627273 -0.1097303
vn -0.9935846 0.108163 -0.03302211
vn -0.9905759 0.1299977 -0.0431286
vn -0.999033 0.0439683 0
vn -0.999033 0.04396825 0
vn -0.9985476 -0.05385236 0.001546761
vn -0.9798331 -0.1997804 0.003845274
vn -0.8857125 -0.4641657 0.007967413
vn -0.9567808 0.2906787 -0.008738476
vn -0.9977006 0.04390611 0.05163001
vn -0.555782 0.6493245 -0.5191185
vn -0.8192656 0.5734141 0
vn 0.04397651 0.9990326 0
vn 0.03135524 0.7682501 -0.6393815
vn 0.02957417 0.7314519 -0.6812515
vn -0.6150265 0.5898747 -0.5232497
vn -0.9940975 -0.05545355 0.09324702
vn -0.9826275 0.1855216 -0.005000439
vn -0.9594542 0.04222597 0.2786838
vn -0.9429362 -0.2222681 0.2479278
vn -0.02701056 0.0008855305 0.9996347
vn -0.2831568 0.009293802 0.9590286
vn -0.2831568 0.009293802 0.9590286
vn -0.09218068 0.003024838 0.9957377
vn 0 -1.124053E-06 1
vn 0 -6.774728E-07 1
vn 0 -1.295692E-06 1
vn 0 7.983369E-07 1
vn 0 7.983369E-07 1
vn 0 -6.123589E-07 1
vn 0 -2.137703E-07 1
vn 0 -2.345185E-07 1
vn 0 0 1
vn 0 1.471593E-07 1
vn 0 0 1
vn 0 2.492243E-07 1
vn 0 3.484415E-07 1
vn 0 3.405756E-07 1
vn 0 -2.152263E-06 1
vn 0 -2.45998E-06 1
vn 0 -8.880098E-07 1
vn 0.02698478 -0.001490715 0.9996347
vn 0 0 1
vn 0.09209024 -0.005084461 0.9957377
vn 0.2828782 -0.01561819 0.9590287
vn 0.2828782 -0.01561819 0.9590287
vn 0 0 1
vn 0 0 1
vn -2.658142E-07 -9.349744E-06 1
vn -1.838669E-06 -5.40691E-06 1
vn 0 -7.929299E-06 1
vn -3.771785E-06 -1.40492E-06 1
vn -3.893046E-06 -3.043022E-06 1
vn 2.804769E-06 -6.043659E-06 1
vn 7.767671E-06 -1.383081E-06 1
vn -6.981478E-07 1.028556E-06 1
vn 1.690279E-06 1.605823E-06 1
vn -3.697548E-06 -4.940518E-06 1
vn -3.482433E-07 1.055387E-06 1
vn 6.172957E-07 1.598309E-06 1
vn 7.26384E-06 -7.278767E-07 1
vn 3.865393E-06 -2.591454E-06 1
usemtl Mat_Vice
f 1/1/1 3/3/3 2/2/2 
f 1/1/1 2/2/2 4/4/4 
f 5/5/5 1/1/1 4/4/4 
f 4/4/4 2/2/2 6/6/6 
f 5/5/5 4/4/4 7/7/7 
f 8/8/8 5/5/5 7/7/7 
f 4/4/4 6/6/6 9/9/9 
f 7/7/7 4/4/4 9/9/9 
f 9/9/9 6/6/6 10/10/10 
f 9/9/9 10/10/10 11/11/11 
f 12/12/12 9/9/9 11/11/11 
f 7/7/7 9/9/9 12/12/12 
f 12/12/12 11/11/11 13/13/13 
f 8/8/8 7/7/7 14/14/14 
f 14/14/14 7/7/7 12/12/12 
f 15/15/15 8/8/8 14/14/14 
f 16/16/16 12/12/12 13/13/13 
f 14/14/14 12/12/12 16/16/16 
f 15/15/15 14/14/14 17/17/17 
f 17/17/17 14/14/14 16/16/16 
f 18/18/18 15/15/15 17/17/17 
f 16/16/16 13/13/13 19/19/19 
f 19/19/19 13/13/13 20/20/20 
f 18/18/18 17/17/17 21/21/21 
f 22/22/22 18/18/18 21/21/21 
f 22/22/22 21/21/21 23/23/23 
f 17/17/17 16/16/16 24/24/24 
f 21/21/21 17/17/17 24/24/24 
f 24/24/24 16/16/16 19/19/19 
f 23/23/23 21/21/21 25/25/25 
f 21/21/21 24/24/24 25/25/25 
f 23/23/23 25/25/25 26/26/26 
f 19/19/19 20/20/20 27/27/27 
f 27/27/27 20/20/20 28/28/28 
f 27/27/27 28/28/28 29/29/29 
f 24/24/24 19/19/19 30/30/30 
f 25/25/25 24/24/24 30/30/30 
f 30/30/30 19/19/19 27/27/27 
f 26/26/26 25/25/25 31/31/31 
f 25/25/25 30/30/30 31/31/31 
f 26/26/26 31/31/31 32/32/32 
f 33/33/33 27/27/27 29/29/29 
f 30/30/30 27/27/27 33/33/33 
f 31/31/31 30/30/30 33/33/33 
f 33/33/33 29/29/29 34/34/34 
f 31/31/31 33/33/33 35/35/35 
f 35/35/35 33/33/33 34/34/34 
f 32/32/32 31/31/31 35/35/35 
f 35/35/35 34/34/34 36/36/36 
f 32/32/32 35/35/35 37/37/37 
f 37/37/37 35/35/35 36/36/36 
f 37/37/37 36/36/36 38/38/38 
f 39/39/39 32/32/32 37/37/37 
f 40/40/40 37/37/37 38/38/38 
f 39/39/39 37/37/37 40/40/40 
f 40/40/40 38/38/38 41/41/41 
f 42/42/42 40/40/40 41/41/41 
f 42/42/42 41/41/41 43/43/43 
f 44/44/44 39/39/39 40/40/40 
f 44/44/44 40/40/40 42/42/42 
f 45/45/45 42/42/42 43/43/43 
f 45/45/45 43/43/43 46/46/46 
f 47/47/47 39/39/39 44/44/44 
f 47/47/47 48/48/48 39/39/39 
f 49/49/49 44/44/44 42/42/42 
f 49/49/49 42/42/42 45/45/45 
f 50/50/50 45/45/45 46/46/46 
f 50/50/50 46/46/46 51/51/51 
f 52/52/52 48/48/48 47/47/47 
f 52/52/52 53/53/53 48/48/48 
f 54/54/54 47/47/47 44/44/44 
f 54/54/54 44/44/44 49/49/49 
f 55/55/55 49/49/49 45/45/45 
f 55/55/55 45/45/45 50/50/50 
f 56/56/56 50/50/50 51/51/51 
f 56/56/56 51/51/51 57/57/57 
f 58/58/58 53/53/53 52/52/52 
f 58/58/58 59/59/59 53/53/53 
f 60/60/60 58/58/58 52/52/52 
f 61/61/61 52/52/52 47/47/47 
f 60/60/60 52/52/52 61/61/61 
f 61/61/61 47/47/47 54/54/54 
f 62/62/62 60/60/60 61/61/61 
f 62/62/62 61/61/61 63/63/63 
f 63/63/63 61/61/61 54/54/54 
f 64/64/64 62/62/62 63/63/63 
f 63/63/63 54/54/54 65/65/65 
f 65/65/65 54/54/54 49/49/49 
f 65/65/65 49/49/49 55/55/55 
f 64/64/64 63/63/63 66/66/66 
f 66/66/66 63/63/63 65/65/65 
f 67/67/67 64/64/64 66/66/66 
f 68/68/68 65/65/65 55/55/55 
f 66/66/66 65/65/65 68/68/68 
f 67/67/67 66/66/66 69/69/69 
f 69/69/69 66/66/66 68/68/68 
f 70/70/70 67/67/67 69/69/69 
f 70/70/70 69/69/69 71/71/71 
f 71/71/71 69/69/69 72/72/72 
f 69/69/69 68/68/68 72/72/72 
f 71/71/71 72/72/72 73/73/73 
f 68/68/68 55/55/55 74/74/74 
f 72/72/72 68/68/68 74/74/74 
f 74/74/74 55/55/55 50/50/50 
f 74/74/74 50/50/50 56/56/56 
f 73/73/73 72/72/72 75/75/75 
f 72/72/72 74/74/74 75/75/75 
f 75/75/75 74/74/74 56/56/56 
f 73/73/73 75/75/75 76/76/76 
f 75/75/75 56/56/56 77/77/77 
f 76/76/76 75/75/75 77/77/77 
f 77/77/77 56/56/56 57/57/57 
f 77/77/77 57/57/57 78/78/78 
f 76/76/76 77/77/77 79/79/79 
f 79/79/79 77/77/77 78/78/78 
f 79/79/79 78/78/78 80/80/80 
f 81/81/81 76/76/76 79/79/79 
f 82/82/82 79/79/79 80/80/80 
f 81/81/81 79/79/79 82/82/82 
f 82/82/82 80/80/80 83/83/83 
f 84/84/84 82/82/82 83/83/83 
f 84/84/84 83/83/83 85/85/85 
f 86/86/86 81/81/81 82/82/82 
f 86/86/86 82/82/82 84/84/84 
f 87/87/87 84/84/84 85/85/85 
f 87/87/87 85/85/85 88/88/88 
f 89/89/89 81/81/81 86/86/86 
f 89/89/89 90/90/90 81/81/81 
f 91/91/91 86/86/86 84/84/84 
f 91/91/91 84/84/84 87/87/87 
f 92/92/92 87/87/87 88/88/88 
f 92/92/92 88/88/88 93/93/93 
f 94/94/94 92/92/92 93/93/93 
f 94/94/94 95/95/95 92/92/92 
f 96/96/96 87/87/87 92/92/92 
f 95/95/95 96/96/96 92/92/92 
f 96/96/96 91/91/91 87/87/87 
f 95/95/95 97/97/97 96/96/96 
f 98/98/98 86/86/86 91/91/91 
f 98/98/98 89/89/89 86/86/86 
f 99/99/99 91/91/91 96/96/96 
f 97/97/97 99/99/99 96/96/96 
f 99/99/99 98/98/98 91/91/91 
f 100/100/100 90/90/90 89/89/89 
f 100/100/100 101/101/101 90/90/90 
f 102/102/102 89/89/89 98/98/98 
f 102/102/102 100/100/100 89/89/89 
f 103/103/103 101/101/101 100/100/100 
f 103/103/103 104/104/104 101/101/101 
f 105/105/105 103/103/103 100/100/100 
f 105/105/105 100/100/100 102/102/102 
f 106/106/106 105/105/105 102/102/102 
f 107/107/107 102/102/102 98/98/98 
f 107/107/107 98/98/98 99/99/99 
f 106/106/106 102/102/102 107/107/107 
f 97/97/97 108/108/108 99/99/99 
f 108/108/108 107/107/107 99/99/99 
f 109/109/109 106/106/106 107/107/107 
f 108/108/108 109/109/109 107/107/107 
f 109/109/109 110/110/110 106/106/106 
f 111/111/111 110/110/110 109/109/109 
f 111/111/111 109/109/109 112/112/112 
f 112/112/112 109/109/109 108/108/108 
f 113/113/113 111/111/111 112/112/112 
f 113/113/113 112/112/112 114/114/114 
f 115/115/115 108/108/108 97/97/97 
f 112/112/112 108/108/108 115/115/115 
f 114/114/114 112/112/112 115/115/115 
f 115/115/115 97/97/97 116/116/116 
f 114/114/114 115/115/115 117/117/117 
f 117/117/117 115/115/115 116/116/116 
f 117/117/117 116/116/116 118/118/118 
f 119/119/119 121/121/121 120/120/120 
f 119/119/119 122/122/122 121/121/121 
f 122/122/122 123/123/123 121/121/121 
f 122/122/122 124/124/124 123/123/123 
f 125/125/125 123/123/123 124/124/124 
f 126/126/126 123/123/123 125/125/125 
f 126/126/126 127/127/127 123/123/123 
f 124/124/124 128/128/128 125/125/125 
f 124/124/124 129/129/129 128/128/128 
f 129/129/129 130/130/130 128/128/128 
f 129/129/129 131/131/131 130/130/130 
f 132/132/132 134/134/134 133/133/133 
f 133/133/133 134/134/134 135/135/135 
f 136/136/136 133/133/133 135/135/135 
f 136/136/136 137/137/137 133/133/133 
f 135/135/135 134/134/134 138/138/138 
f 135/135/135 138/138/138 139/139/139 
f 140/140/140 135/135/135 139/139/139 
f 140/140/140 139/139/139 141/141/141 
f 134/134/134 142/142/142 138/138/138 
f 134/134/134 143/143/143 142/142/142 
f 134/134/134 144/144/144 143/143/143 
f 134/134/134 145/145/145 144/144/144 
f 145/145/145 146/146/146 144/144/144 
f 145/145/145 147/147/147 146/146/146 
f 145/145/145 148/148/148 147/147/147 
f 145/145/145 149/149/149 148/148/148 
f 149/149/149 150/150/150 148/148/148 
f 149/149/149 151/151/151 150/150/150 
f 145/145/145 152/152/152 149/149/149 
f 145/145/145 153/153/153 152/152/152 
f 154/154/154 149/149/149 152/152/152 
f 154/154/154 155/155/155 149/149/149 
f 156/156/156 158/158/158 157/157/157 
f 157/157/157 158/158/158 159/159/159 
f 160/160/160 157/157/157 159/159/159 
f 160/160/160 161/161/161 157/157/157 
f 159/159/159 158/158/158 162/162/162 
f 159/159/159 162/162/162 163/163/163 
f 164/164/164 159/159/159 163/163/163 
f 164/164/164 163/163/163 165/165/165 
f 158/158/158 166/166/166 162/162/162 
f 158/158/158 167/167/167 166/166/166 
f 158/158/158 168/168/168 167/167/167 
f 158/158/158 169/169/169 168/168/168 
f 169/169/169 170/170/170 168/168/168 
f 169/169/169 171/171/171 170/170/170 
f 169/169/169 172/172/172 171/171/171 
f 169/169/169 173/173/173 172/172/172 
f 173/173/173 174/174/174 172/172/172 
f 173/173/173 175/175/175 174/174/174 
f 169/169/169 176/176/176 173/173/173 
f 169/169/169 177/177/177 176/176/176 
f 178/178/178 173/173/173 176/176/176 
f 178/178/178 179/179/179 173/173/173 
f 180/180/180 182/182/182 181/181/181 
f 180/180/180 181/181/181 183/183/183 
f 184/184/184 183/183/183 181/181/181 
f 184/184/184 185/185/185 183/183/183 
f 186/186/186 185/185/185 184/184/184 
f 186/186/186 187/187/187 185/185/185 
f 188/188/188 187/187/187 186/186/186 
f 188/188/188 186/186/186 189/189/189 
f 190/190/190 192/192/192 191/191/191 
f 190/190/190 191/191/191 193/193/193 
f 194/194/194 193/193/193 191/191/191 
f 194/194/194 195/195/195 193/193/193 
f 196/196/196 195/195/195 194/194/194 
f 196/196/196 197/197/197 195/195/195 
f 198/198/198 197/197/197 196/196/196 
f 198/198/198 196/196/196 199/199/199 
f 200/200/200 202/202/202 201/201/201 
f 200/200/200 201/201/201 203/203/203 
f 204/204/204 203/203/203 201/201/201 
f 204/204/204 201/201/201 205/205/205 
f 206/206/206 204/204/204 205/205/205 
f 206/206/206 205/205/205 207/207/207 
f 208/208/208 206/206/206 207/207/207 
f 208/208/208 209/209/209 206/206/206 
f 210/210/210 209/209/209 208/208/208 
f 210/210/210 208/208/208 211/211/211 
f 212/212/212 210/210/210 211/211/211 
f 212/212/212 211/211/211 213/213/213 
f 214/214/214 212/212/212 213/213/213 
f 214/214/214 213/213/213 215/215/215 
f 216/216/216 218/218/218 217/217/217 
f 216/216/216 219/219/219 218/218/218 
f 219/219/219 220/220/220 218/218/218 
f 219/219/219 221/221/221 220/220/220 
f 221/221/221 222/222/222 220/220/220 
f 221/221/221 223/223/223 222/222/222 
f 222/222/222 223/223/223 224/224/224 
f 222/222/222 224/224/224 225/225/225 
f 224/224/224 226/226/226 225/225/225 
f 224/224/224 227/227/227 226/226/226 
f 227/227/227 228/228/228 226/226/226 
f 227/227/227 229/229/229 228/228/228 
f 230/230/230 228/228/228 229/229/229 
f 230/230/230 231/231/231 228/228/228 
f 232/232/232 234/234/234 233/233/233 
f 232/232/232 235/235/235 234/234/234 
f 235/235/235 232/232/232 236/236/236 
f 235/235/235 236/236/236 237/237/237 
f 232/232/232 238/238/238 236/236/236 
f 239/239/239 235/235/235 237/237/237 
f 232/232/232 240/240/240 238/238/238 
f 239/239/239 241/241/241 235/235/235 
f 238/238/238 240/240/240 242/242/242 
f 238/238/238 242/242/242 243/243/243 
f 238/238/238 243/243/243 244/244/244 
f 238/238/238 244/244/244 245/245/245 
f 239/239/239 246/246/246 241/241/241 
f 239/239/239 247/247/247 246/246/246 
f 239/239/239 248/248/248 247/247/247 
f 249/249/249 248/248/248 239/239/239 
f 250/250/250 252/252/252 251/251/251 
f 250/250/250 253/253/253 252/252/252 
f 253/253/253 250/250/250 254/254/254 
f 253/253/253 254/254/254 255/255/255 
f 255/255/255 254/254/254 256/256/256 
f 255/255/255 256/256/256 257/257/257 
f 256/256/256 254/254/254 258/258/258 
f 259/259/259 261/261/261 260/260/260 
f 259/259/259 262/262/262 261/261/261 
f 263/263/263 265/265/265 264/264/264 
f 263/263/263 266/266/266 265/265/265 
f 267/267/267 269/269/269 268/268/268 
f 267/267/267 270/270/270 269/269/269 
f 271/271/271 273/273/273 272/272/272 
f 274/274/274 273/273/273 271/271/271 
f 274/274/274 271/271/271 275/275/275 
f 274/274/274 275/275/275 276/276/276 
f 277/277/277 273/273/273 274/274/274 
f 277/277/277 278/278/278 273/273/273 
f 278/278/278 277/277/277 279/279/279 
f 279/279/279 277/277/277 280/280/280 
f 281/281/281 273/273/273 278/278/278 
f 282/282/282 281/281/281 278/278/278 
f 282/282/282 283/283/283 281/281/281 
f 281/281/281 284/284/284 273/273/273 
f 285/285/285 284/284/284 281/281/281 
f 286/286/286 285/285/285 281/281/281 
f 286/286/286 287/287/287 285/285/285 
f 285/285/285 288/288/288 284/284/284 
f 284/284/284 288/288/288 289/289/289 
f 284/284/284 289/289/289 290/290/290 
f 289/289/289 291/291/291 290/290/290 
f 289/289/289 292/292/292 291/291/291 
f 293/293/293 291/291/291 292/292/292 
f 293/293/293 294/294/294 291/291/291 
f 295/295/295 288/288/288 285/285/285 
f 295/295/295 296/296/296 288/288/288 
f 285/285/285 297/297/297 295/295/295 
f 285/285/285 298/298/298 297/297/297 
f 295/295/295 299/299/299 296/296/296 
f 299/299/299 295/295/295 300/300/300 
f 299/299/299 300/300/300 301/301/301 
f 296/296/296 299/299/299 302/302/302 
f 296/296/296 302/302/302 303/303/303 
f 296/296/296 303/303/303 304/304/304 
f 303/303/303 302/302/302 305/305/305 
f 303/303/303 305/305/305 306/306/306 
f 307/307/307 309/309/309 308/308/308 
f 307/307/307 308/308/308 310/310/310 
f 310/310/310 308/308/308 311/311/311 
f 310/310/310 311/311/311 312/312/312 
f 312/312/312 311/311/311 313/313/313 
f 312/312/312 313/313/313 314/314/314 
f 314/314/314 313/313/313 315/315/315 
f 314/314/314 315/315/315 316/316/316 
f 316/316/316 315/315/315 317/317/317 
f 318/318/318 317/317/317 315/315/315 
f 316/316/316 317/317/317 319/319/319 
f 320/320/320 316/316/316 319/319/319 
f 318/318/318 321/321/321 317/317/317 
f 318/318/318 322/322/322 321/321/321 
f 323/323/323 319/319/319 317/317/317 
f 318/318/318 324/324/324 322/322/322 
f 318/318/318 325/325/325 324/324/324 
f 322/322/322 324/324/324 326/326/326 
f 324/324/324 327/327/327 326/326/326 
f 324/324/324 328/328/328 327/327/327 
f 323/323/323 329/329/329 319/319/319 
f 330/330/330 329/329/329 323/323/323 
f 330/330/330 331/331/331 329/329/329 
f 332/332/332 331/331/331 330/330/330 
f 332/332/332 333/333/333 331/331/331 
f 334/334/334 333/333/333 332/332/332 
f 332/332/332 335/335/335 334/334/334 
f 334/334/334 336/336/336 333/333/333 
f 337/337/337 333/333/333 336/336/336 
f 338/338/338 319/319/319 339/339/339 
f 338/338/338 320/320/320 319/319/319 
f 340/340/340 320/320/320 338/338/338 
f 340/340/340 341/341/341 320/320/320 
f 342/342/342 340/340/340 338/338/338 
f 343/343/343 340/340/340 342/342/342 
f 343/343/343 342/342/342 344/344/344 
f 345/345/345 347/347/347 346/346/346 
f 345/345/345 346/346/346 348/348/348 
f 345/345/345 348/348/348 349/349/349 
f 345/345/345 349/349/349 350/350/350 
f 351/351/351 350/350/350 349/349/349 
f 351/351/351 349/349/349 352/352/352 
f 353/353/353 351/351/351 352/352/352 
f 353/353/353 352/352/352 354/354/354 
f 355/355/355 353/353/353 354/354/354 
f 355/355/355 354/354/354 356/356/356 
f 357/357/357 355/355/355 356/356/356 
f 357/357/357 356/356/356 358/358/358 
f 357/357/357 358/358/358 359/359/359 
f 357/357/357 359/359/359 360/360/360 
f 361/361/361 363/363/363 362/362/362 
f 361/361/361 362/362/362 364/364/364 
f 365/365/365 361/361/361 364/364/364 
f 364/364/364 362/362/362 366/366/366 
f 365/365/365 364/364/364 367/367/367 
f 364/364/364 366/366/366 368/368/368 
f 368/368/368 367/367/367 364/364/364 
f 368/368/368 369/369/369 367/367/367 
f 368/368/368 366/366/366 370/370/370 
f 368/368/368 371/371/371 369/369/369 
f 368/368/368 370/370/370 372/372/372 
f 368/368/368 372/372/372 371/371/371 
f 372/372/372 370/370/370 373/373/373 
f 372/372/372 374/374/374 371/371/371 
f 372/372/372 373/373/373 375/375/375 
f 372/372/372 375/375/375 374/374/374 
f 376/376/376 375/375/375 373/373/373 
f 374/374/374 375/375/375 377/377/377 
f 376/376/376 377/377/377 375/375/375 
f 374/374/374 377/377/377 378/378/378 
f 377/377/377 376/376/376 379/379/379 
f 380/380/380 378/378/378 377/377/377 
f 377/377/377 379/379/379 381/381/381 
f 380/380/380 377/377/377 381/381/381 
f 381/381/381 379/379/379 382/382/382 
f 381/381/381 383/383/383 380/380/380 
f 381/381/381 382/382/382 384/384/384 
f 381/381/381 384/384/384 383/383/383 
f 385/385/385 387/387/387 386/386/386 
f 385/385/385 388/388/388 387/387/387 
f 388/388/388 389/389/389 387/387/387 
f 388/388/388 390/390/390 389/389/389 
f 391/391/391 388/388/388 385/385/385 
f 392/392/392 390/390/390 388/388/388 
f 391/391/391 393/393/393 388/388/388 
f 392/392/392 388/388/388 393/393/393 
f 393/393/393 391/391/391 394/394/394 
f 393/393/393 395/395/395 392/392/392 
f 393/393/393 394/394/394 396/396/396 
f 393/393/393 396/396/396 395/395/395 
f 397/397/397 396/396/396 394/394/394 
f 396/396/396 398/398/398 395/395/395 
f 397/397/397 399/399/399 396/396/396 
f 396/396/396 399/399/399 398/398/398 
f 400/400/400 399/399/399 397/397/397 
f 399/399/399 401/401/401 398/398/398 
f 400/400/400 402/402/402 399/399/399 
f 399/399/399 402/402/402 401/401/401 
f 403/403/403 402/402/402 400/400/400 
f 404/404/404 401/401/401 402/402/402 
f 403/403/403 404/404/404 402/402/402 
f 404/404/404 405/405/405 401/401/401 
f 404/404/404 403/403/403 406/406/406 
f 404/404/404 407/407/407 405/405/405 
f 404/404/404 406/406/406 408/408/408 
f 404/404/404 408/408/408 407/407/407 
f 409/409/409 411/411/411 410/410/410 
f 409/409/409 410/410/410 412/412/412 
f 409/409/409 412/412/412 413/413/413 
f 409/409/409 413/413/413 414/414/414 
f 415/415/415 414/414/414 413/413/413 
f 415/415/415 413/413/413 416/416/416 
f 417/417/417 415/415/415 416/416/416 
f 417/417/417 416/416/416 418/418/418 
f 419/419/419 417/417/417 418/418/418 
f 419/419/419 418/418/418 420/420/420 
f 420/420/420 421/421/421 419/419/419 
f 420/420/420 422/422/422 421/421/421 
f 421/421/421 422/422/422 423/423/423 
f 421/421/421 423/423/423 424/424/424 
f 425/425/425 427/427/427 426/426/426 
f 425/425/425 426/426/426 428/428/428 
f 429/429/429 428/428/428 426/426/426 
f 429/429/429 426/426/426 430/430/430 
f 429/429/429 430/430/430 431/431/431 
f 425/425/425 428/428/428 432/432/432 
f 429/429/429 432/432/432 428/428/428 
f 425/425/425 432/432/432 433/433/433 
f 429/429/429 434/434/434 432/432/432 
f 429/429/429 431/431/431 435/435/435 
f 436/436/436 435/435/435 431/431/431 
f 437/437/437 435/435/435 436/436/436 
f 437/437/437 429/429/429 435/435/435 
f 438/438/438 429/429/429 437/437/437 
f 438/438/438 434/434/434 429/429/429 
f 434/434/434 438/438/438 439/439/439 
f 434/434/434 439/439/439 440/440/440 
f 439/439/439 441/441/441 440/440/440 
f 439/439/439 442/442/442 441/441/441 
f 443/443/443 442/442/442 439/439/439 
f 440/440/440 441/441/441 444/444/444 
f 440/440/440 444/444/444 445/445/445 
f 440/440/440 445/445/445 446/446/446 
f 447/447/447 444/444/444 441/441/441 
f 448/448/448 441/441/441 442/442/442 
f 448/448/448 447/447/447 441/441/441 
f 449/449/449 445/445/445 444/444/444 
f 447/447/447 449/449/449 444/444/444 
f 443/443/443 450/450/450 442/442/442 
f 443/443/443 451/451/451 450/450/450 
f 443/443/443 452/452/452 451/451/451 
f 453/453/453 450/450/450 451/451/451 
f 454/454/454 442/442/442 450/450/450 
f 453/453/453 454/454/454 450/450/450 
f 454/454/454 448/448/448 442/442/442 
f 455/455/455 454/454/454 453/453/453 
f 455/455/455 453/453/453 456/456/456 
f 456/456/456 457/457/457 455/455/455 
f 455/455/455 457/457/457 458/458/458 
f 459/459/459 454/454/454 455/455/455 
f 455/455/455 458/458/458 459/459/459 
f 459/459/459 448/448/448 454/454/454 
f 459/459/459 458/458/458 460/460/460 
f 461/461/461 448/448/448 459/459/459 
f 459/459/459 460/460/460 461/461/461 
f 461/461/461 447/447/447 448/448/448 
f 461/461/461 460/460/460 462/462/462 
f 463/463/463 447/447/447 461/461/461 
f 461/461/461 462/462/462 463/463/463 
f 463/463/463 462/462/462 464/464/464 
f 463/463/463 449/449/449 447/447/447 
f 463/463/463 464/464/464 465/465/465 
f 465/465/465 449/449/449 463/463/463 
f 465/465/465 464/464/464 466/466/466 
f 465/465/465 467/467/467 449/449/449 
f 449/449/449 467/467/467 445/445/445 
f 465/465/465 466/466/466 468/468/468 
f 468/468/468 467/467/467 465/465/465 
f 468/468/468 466/466/466 469/469/469 
f 469/469/469 466/466/466 470/470/470 
f 469/469/469 470/470/470 471/471/471 
f 472/472/472 469/469/469 471/471/471 
f 472/472/472 473/473/473 469/469/469 
f 467/467/467 474/474/474 445/445/445 
f 446/446/446 445/445/445 474/474/474 
f 468/468/468 475/475/475 467/467/467 
f 469/469/469 475/475/475 468/468/468 
f 467/467/467 475/475/475 474/474/474 
f 473/473/473 476/476/476 469/469/469 
f 476/476/476 473/473/473 446/446/446 
f 469/469/469 476/476/476 475/475/475 
f 475/475/475 477/477/477 474/474/474 
f 446/446/446 474/474/474 477/477/477 
f 475/475/475 476/476/476 477/477/477 
f 476/476/476 446/446/446 477/477/477 
f 478/478/478 480/480/480 479/479/479 
f 478/478/478 479/479/479 481/481/481 
f 482/482/482 481/481/481 479/479/479 
f 482/482/482 483/483/483 481/481/481 
f 481/481/481 484/484/484 478/478/478 
f 481/481/481 483/483/483 485/485/485 
f 485/485/485 484/484/484 481/481/481 
f 483/483/483 486/486/486 485/485/485 
f 483/483/483 487/487/487 486/486/486 
f 486/486/486 487/487/487 488/488/488 
f 478/478/478 484/484/484 489/489/489 
f 478/478/478 489/489/489 490/490/490 
f 485/485/485 491/491/491 484/484/484 
f 486/486/486 491/491/491 485/485/485 
f 486/486/486 488/488/488 492/492/492 
f 492/492/492 488/488/488 493/493/493 
f 484/484/484 494/494/494 489/489/489 
f 484/484/484 491/491/491 494/494/494 
f 495/495/495 489/489/489 494/494/494 
f 495/495/495 490/490/490 489/489/489 
f 491/491/491 495/495/495 494/494/494 
f 486/486/486 496/496/496 491/491/491 
f 491/491/491 496/496/496 495/495/495 
f 492/492/492 496/496/496 486/486/486 
f 497/497/497 490/490/490 495/495/495 
f 496/496/496 497/497/497 495/495/495 
f 497/497/497 498/498/498 490/490/490 
f 492/492/492 493/493/493 499/499/499 
f 499/499/499 493/493/493 500/500/500 
f 492/492/492 501/501/501 496/496/496 
f 496/496/496 501/501/501 497/497/497 
f 499/499/499 501/501/501 492/492/492 
f 499/499/499 500/500/500 502/502/502 
f 502/502/502 500/500/500 503/503/503 
f 501/501/501 504/504/504 497/497/497 
f 504/504/504 498/498/498 497/497/497 
f 499/499/499 505/505/505 501/501/501 
f 501/501/501 505/505/505 504/504/504 
f 502/502/502 505/505/505 499/499/499 
f 502/502/502 503/503/503 506/506/506 
f 506/506/506 503/503/503 507/507/507 
f 508/508/508 506/506/506 507/507/507 
f 505/505/505 509/509/509 504/504/504 
f 509/509/509 498/498/498 504/504/504 
f 502/502/502 510/510/510 505/505/505 
f 506/506/506 510/510/510 502/502/502 
f 505/505/505 510/510/510 509/509/509 
f 508/508/508 511/511/511 506/506/506 
f 506/506/506 511/511/511 510/510/510 
f 511/511/511 508/508/508 512/512/512 
f 510/510/510 511/511/511 513/513/513 
f 511/511/511 512/512/512 513/513/513 
f 510/510/510 513/513/513 509/509/509 
f 514/514/514 513/513/513 512/512/512 
f 514/514/514 509/509/509 513/513/513 
f 514/514/514 512/512/512 515/515/515 
f 514/514/514 516/516/516 509/509/509 
f 509/509/509 516/516/516 498/498/498 
f 517/517/517 498/498/498 516/516/516 
f 517/517/517 518/518/518 498/498/498 
f 518/518/518 517/517/517 519/519/519 
f 518/518/518 519/519/519 520/520/520 
f 518/518/518 520/520/520 521/521/521 
f 518/518/518 521/521/521 522/522/522 
f 521/521/521 523/523/523 522/522/522 
f 521/521/521 524/524/524 523/523/523 
f 525/525/525 524/524/524 521/521/521 
f 525/525/525 521/521/521 526/526/526 
f 521/521/521 527/527/527 526/526/526 
f 521/521/521 520/520/520 527/527/527 
f 520/520/520 519/519/519 528/528/528 
f 527/527/527 520/520/520 529/529/529 
f 520/520/520 528/528/528 529/529/529 
f 527/527/527 529/529/529 530/530/530 
f 530/530/530 529/529/529 528/528/528 
f 531/531/531 533/533/533 532/532/532 
f 531/531/531 534/534/534 533/533/533 
f 535/535/535 534/534/534 531/531/531 
f 536/536/536 535/535/535 531/531/531 
f 535/535/535 537/537/537 534/534/534 
f 538/538/538 534/534/534 537/537/537 
f 538/538/538 539/539/539 534/534/534 
f 536/536/536 531/531/531 540/540/540 
f 541/541/541 536/536/536 540/540/540 
f 541/541/541 540/540/540 542/542/542 
f 543/543/543 541/541/541 542/542/542 
f 543/543/543 542/542/542 544/544/544 
f 545/545/545 543/543/543 544/544/544 
f 545/545/545 544/544/544 546/546/546 
f 547/547/547 546/546/546 544/544/544 
f 547/547/547 544/544/544 548/548/548 
f 549/549/549 547/547/547 548/548/548 
f 549/549/549 548/548/548 550/550/550 
f 551/551/551 549/549/549 550/550/550 
f 551/551/551 550/550/550 552/552/552 
f 553/553/553 551/551/551 552/552/552 
f 553/553/553 552/552/552 554/554/554 
f 554/554/554 552/552/552 555/555/555 
f 554/554/554 555/555/555 556/556/556 
f 557/557/557 553/553/553 554/554/554 
f 557/557/557 558/558/558 553/553/553 
f 559/559/559 561/561/561 560/560/560 
f 562/562/562 560/560/560 561/561/561 
f 562/562/562 563/563/563 560/560/560 
f 559/559/559 560/560/560 564/564/564 
f 565/565/565 559/559/559 564/564/564 
f 562/562/562 566/566/566 563/563/563 
f 567/567/567 565/565/565 564/564/564 
f 568/568/568 563/563/563 566/566/566 
f 568/568/568 566/566/566 569/569/569 
f 570/570/570 569/569/569 566/566/566 
f 570/570/570 566/566/566 567/567/567 
f 567/567/567 564/564/564 571/571/571 
f 572/572/572 570/570/570 567/567/567 
f 572/572/572 567/567/567 571/571/571 
