# exported by StudySceneExporter from mesh 'Hammer_Handle_low'
mtllib materials.mtl
v -0.005906219 0.03007652 0.101047
v 0.0007289505 0.03055977 0.08659828
v 0.0006653214 0.03140724 0.1007825
v -0.00584259 0.02922913 0.08686287
v 0.0006343079 0.02606254 0.07311943
v -0.007693481 0.02627281 0.101784
v -0.005936127 0.02478119 0.07353157
v 0.0005696106 0.01993965 0.04560677
v -0.007629852 0.02542534 0.08759987
v -0.005284042 0.01844566 0.04590202
v 0.0005611038 0.01343224 0.007747421
v -0.008266525 0.01074173 0.09043755
v -0.008171882 0.0152391 0.1039164
v -0.00672039 0.01129913 0.1046758
v -0.007720909 0.02109619 0.07462471
v -0.006009788 0.01211533 0.00800911
v 0.0005873108 0.007705002 -0.03039223
v -0.006815033 0.00680191 0.09119698
v -0.0002879333 0.009422226 0.1050314
v -0.0003825378 0.004924926 0.09155235
v -0.008205261 0.009925995 0.07678352
v -0.007233887 0.01432716 0.0466999
v -0.006752052 0.005963821 0.07716804
v -0.0003189087 0.00407753 0.07736824
v -0.007152328 0.00644371 -0.03010063
v 0.0005800629 0.001247177 -0.06813194
v -0.007795677 0.00834465 0.008739701
v -0.007605476 0.005757599 0.04835609
v -0.006019211 0.001490631 0.04917854
v -0.0003161621 -0.0004888153 0.04955467
v -0.007753906 4.425049E-06 -0.06788246
v 0.0005098725 -0.00611763 -0.1023107
v -0.007281875 -0.007383575 -0.1020585
v -0.00827816 -0.002782898 0.01089027
v -0.006825142 -0.006689606 0.01164314
v -0.0003921509 -0.00855278 0.01199608
v -0.008939361 0.002658386 -0.02945549
v -0.008104858 -0.0155246 -0.02585518
v -0.0005031585 -0.01744484 -0.02553185
v -0.009559173 -0.01163597 -0.02669304
v -0.009539642 -0.003766479 -0.06715187
v -0.008776168 -0.02357292 -0.06332603
v -0.0005801392 -0.02551025 -0.06296089
v -0.01022903 -0.01966614 -0.06407921
v -0.008240509 -0.02949287 -0.09778572
v -0.0005867005 -0.03140724 -0.09742347
v -0.009067765 -0.01115257 -0.1013192
v -0.009693527 -0.02558472 -0.09853004
v -0.008036575 -0.0119091 -0.1036694
v -0.008640823 -0.02584518 -0.1009762
v -0.007400894 -0.02918396 -0.1003365
v -0.0005444336 -0.03083382 -0.1000248
v -0.0005867005 -0.03140724 -0.09742347
v -0.0004407501 -0.02860672 -0.1014796
v -0.005434036 -0.02759514 -0.1016694
v 0.0003562164 -0.01022766 -0.1050314
v -0.006160622 -0.02564148 -0.102046
v -0.004710541 -0.01081238 -0.1049128
v 0.0004621124 -0.00761879 -0.1045112
v -0.006513366 -0.008686752 -0.1042977
v 0.0005098725 -0.00611763 -0.1023107
v -0.005599632 -0.01270225 -0.1045466
v 0.006283569 0.01075287 0.1047668
v -0.0003825378 0.004924926 0.09155235
v -0.0002879333 0.009422226 0.1050314
v 0.006188965 0.006255646 0.09128792
v -0.0003189087 0.00407753 0.07736824
v 0.008070869 0.01455681 0.1040298
v 0.006251907 0.005417557 0.07725899
v -0.0003161621 -0.0004888153 0.04955467
v 0.007976227 0.01005943 0.09055091
v 0.005537453 0.001005173 0.04925957
v -0.0003921509 -0.00855278 0.01199608
v 0.0086129 0.02474304 0.08771324
v 0.00854927 0.02559044 0.1018975
v 0.007097778 0.02953026 0.1011381
v 0.008037491 0.009243621 0.07689689
v 0.006178703 -0.00723587 0.01173439
v -0.0005031585 -0.01744484 -0.02553185
v 0.007161407 0.02868286 0.08695381
v 0.0006653214 0.03140724 0.1007825
v 0.0007289505 0.03055977 0.08659828
v 0.008521805 0.02041382 0.07473823
v 0.007487297 0.005123596 0.04846153
v 0.007067794 0.02423492 0.07362251
v 0.0006343079 0.02606254 0.07311943
v 0.007236557 -0.01616905 -0.02574776
v -0.0005801392 -0.02551025 -0.06296089
v 0.007964591 -0.003465195 0.01100365
v 0.007858886 0.01369316 0.04680549
v 0.006272621 0.0179602 0.04598289
v 0.0005696106 0.01993965 0.04560677
v 0.00775383 -0.02426735 -0.06321037
v -0.0005867005 -0.03140724 -0.09742347
v 0.007204971 -0.03014168 -0.09767769
v 0.008447074 0.007662354 0.008853226
v 0.006994095 0.01156906 0.008100204
v 0.0005611038 0.01343224 0.007747421
v 0.009023399 -0.01241661 -0.02656288
v 0.008189087 0.005799179 -0.02999321
v 0.0005873108 0.007705002 -0.03039223
v 0.009643211 0.001877747 -0.02932533
v 0.009539642 -0.0204966 -0.06394096
v 0.008776168 -0.0006900024 -0.0677668
v 0.0005800629 0.001247177 -0.06813194
v 0.01022903 -0.004596939 -0.06701362
v 0.008163681 -0.008032379 -0.1019505
v 0.0005098725 -0.00611763 -0.1023107
v 0.00899086 -0.02636963 -0.09839943
v 0.009616699 -0.01193741 -0.1011884
v 0.00795433 -0.02654228 -0.1008601
v 0.008558578 -0.01260628 -0.1035532
v 0.007318573 -0.009269103 -0.1042008
v 0.0004621124 -0.00761879 -0.1045112
v 0.0005098725 -0.00611763 -0.1023107
v 0.0003562164 -0.01022766 -0.1050314
v 0.005349502 -0.01123924 -0.1048417
v 0.006076164 -0.01319275 -0.1044649
v 0.004626007 -0.02802185 -0.1015983
v -0.0004407501 -0.02860672 -0.1014796
v -0.0005444336 -0.03083382 -0.1000248
v 0.006431045 -0.02976616 -0.1002396
v -0.0005867005 -0.03140724 -0.09742347
v 0.005515099 -0.02613197 -0.1019643
vt 0.2538822 0.06520087
vt 0.2694562 0.05619702
vt 0.2534267 0.05762905
vt 0.2694816 0.06355643
vt 0.2854666 0.0577485
vt 0.2538384 0.07002845
vt 0.2849576 0.06523311
vt 0.3166062 0.05936117
vt 0.2694906 0.06820729
vt 0.3166198 0.0661332
vt 0.3591387 0.0575067
vt 0.269502 0.08452964
vt 0.2537461 0.08272724
vt 0.2538331 0.08756363
vt 0.2845642 0.06996489
vt 0.3595037 0.064971
vt 0.4020805 0.05428338
vt 0.2695081 0.08917716
vt 0.253418 0.09514213
vt 0.2695138 0.09653482
vt 0.2846313 0.08270887
vt 0.3166438 0.07131496
vt 0.2850412 0.08743745
vt 0.2855886 0.0949187
vt 0.4024537 0.06303242
vt 0.4450781 0.05262414
vt 0.3595641 0.06969824
vt 0.3167025 0.08111101
vt 0.3167179 0.08629301
vt 0.3167587 0.09306461
vt 0.445132 0.06200369
vt 0.4842298 0.05371052
vt 0.4851537 0.06244138
vt 0.3596218 0.08236024
vt 0.359599 0.08708796
vt 0.3592947 0.09455508
vt 0.4026065 0.06774892
vt 0.4025455 0.08869907
vt 0.4022366 0.09743029
vt 0.4026636 0.0839811
vt 0.445159 0.06671071
vt 0.4452088 0.08942601
vt 0.4452205 0.09882674
vt 0.4451989 0.08471966
vt 0.4853641 0.0886859
vt 0.4844278 0.0974305
vt 0.4840446 0.06726214
vt 0.484148 0.08387926
vt 0.4869579 0.06784894
vt 0.4871166 0.08323285
vt 0.4886452 0.08671421
vt 0.4960545 0.08925283
vt 0.4951165 0.09220076
vt 0.496582 0.08610582
vt 0.4909751 0.08476263
vt 0.4962198 0.06473398
vt 0.4900575 0.08264288
vt 0.4907913 0.06623143
vt 0.4956372 0.06160119
vt 0.4884062 0.06434509
vt 0.494622 0.05868262
vt 0.4899168 0.06837396
vt 0.2538782 0.01602048
vt 0.2694509 0.007014517
vt 0.2534215 0.008448724
vt 0.2694774 0.01437391
vt 0.2854614 0.008563824
vt 0.253835 0.02084806
vt 0.2849536 0.0160485
vt 0.3166013 0.01017229
vt 0.2694869 0.01902478
vt 0.3166158 0.01694432
vt 0.3591336 0.008312076
vt 0.2695006 0.03534713
vt 0.2537444 0.03354685
vt 0.2538321 0.03838322
vt 0.2845608 0.02078032
vt 0.3594996 0.01577633
vt 0.4020751 0.005082974
vt 0.2695072 0.03999463
vt 0.253418 0.04596177
vt 0.269514 0.04735228
vt 0.2846295 0.0335243
vt 0.3166406 0.02212608
vt 0.2850401 0.03825281
vt 0.2855886 0.04573399
vt 0.4024494 0.01383196
vt 0.4450728 0.003417969
vt 0.3595607 0.02050356
vt 0.3167006 0.0319221
vt 0.3167167 0.03710409
vt 0.3167584 0.04387569
vt 0.445128 0.0127975
vt 0.4842271 0.004499147
vt 0.4851726 0.01322652
vt 0.3596201 0.03316553
vt 0.3595979 0.03789325
vt 0.3592945 0.04536042
vt 0.4026027 0.01854844
vt 0.4025445 0.0394986
vt 0.4022368 0.04822986
vt 0.4026619 0.03478059
vt 0.4451553 0.01750451
vt 0.4452075 0.04021978
vt 0.4452204 0.04962052
vt 0.4451971 0.03551343
vt 0.4853396 0.03947237
vt 0.4844251 0.04821895
vt 0.484044 0.0180508
vt 0.4841433 0.03466775
vt 0.4869565 0.01864525
vt 0.4871128 0.03403085
vt 0.4886149 0.03751086
vt 0.4959079 0.04011305
vt 0.4949512 0.0430517
vt 0.496429 0.03696916
vt 0.490977 0.03557885
vt 0.4900576 0.03345492
vt 0.4907844 0.01704516
vt 0.4963691 0.01559645
vt 0.4957808 0.01245947
vt 0.4884315 0.0151391
vt 0.4947846 0.009530846
vt 0.4899118 0.01918358
vn -0.5464244 0.8358682 -0.05238976
vn 0.04253329 0.9810141 -0.189215
vn 0.04231317 0.9973373 -0.05939513
vn -0.5086028 0.8455676 -0.1622917
vn 0.04235971 0.9658387 -0.2556582
vn -0.9919802 0.1258263 -0.0119668
vn -0.5594437 0.8000395 -0.2167017
vn 0.04253364 0.9809326 -0.1896371
vn -0.988798 0.1467841 -0.02707532
vn -0.560752 0.8130465 -0.1565651
vn 0.04254784 0.9871435 -0.1540696
vn -0.9979054 -0.06326248 0.01351755
vn -0.9990836 -0.03800108 0.01969391
vn -0.6150497 -0.7466469 0.2534411
vn -0.9887349 0.1421656 -0.04682039
vn -0.5285383 0.8401118 -0.1218993
vn 0.04255024 0.98674 -0.1566321
vn -0.5799409 -0.7996508 0.155651
vn -0.04202402 -0.9476649 0.3164891
vn -0.04253314 -0.9808764 0.1899274
vn -0.9977757 -0.06633919 -0.00652582
vn -0.987565 0.1545497 -0.02880555
vn -0.6276708 -0.7735571 0.08740085
vn -0.04251086 -0.9915439 0.1226113
vn -0.479864 0.8677052 -0.1296853
vn 0.04253679 0.981137 -0.1885757
vn -0.988586 0.1506578 -0.0001762547
vn -0.997353 -0.07118731 0.01481917
vn -0.6290863 -0.7631091 0.1480367
vn -0.04253569 -0.9809572 0.1895094
vn -0.4613701 0.8714056 -0.1667033
vn 0.04244304 0.9713002 -0.2340396
vn -0.4616619 0.8606149 -0.2149657
vn -0.9975836 -0.0568577 0.03992771
vn -0.5986879 -0.7779266 0.1907959
vn -0.04246973 -0.973472 0.2248299
vn -0.9908868 0.1346956 0.0006563404
vn -0.5526219 -0.8103914 0.1946145
vn -0.04247533 -0.9740528 0.2222991
vn -0.9985307 -0.04159852 0.03472661
vn -0.9918542 0.1254009 -0.02235392
vn -0.5350977 -0.829125 0.1619326
vn -0.04253361 -0.9807522 0.1905672
vn -0.9990902 -0.04148366 0.009897641
vn -0.5352584 -0.8370809 0.1131106
vn -0.04254154 -0.988559 0.1447116
vn -0.9914315 0.1144412 -0.06298204
vn -0.9984093 -0.04650136 -0.03188208
vn -0.7329591 -0.040892 -0.6790426
vn -0.7378018 -0.153643 -0.6572992
vn -0.4123302 -0.7623631 -0.4987848
vn -0.03331624 -0.8727128 -0.4870957
vn -0.04254154 -0.988559 0.1447116
vn -0.004019013 -0.2560273 -0.9666612
vn -0.04089966 -0.2592606 -0.9649411
vn 0.001809192 -0.122482 -0.9924691
vn -0.266762 -0.1889946 -0.9450497
vn -0.03473155 -0.1156695 -0.9926804
vn 0.03189634 0.6284534 -0.777193
vn -0.3553626 0.5539125 -0.7529266
vn 0.04244304 0.9713002 -0.2340396
vn -0.2652385 -0.1545711 -0.9517123
vn 0.5466697 -0.7954461 0.2615683
vn -0.04253314 -0.9808764 0.1899274
vn -0.04202402 -0.9476649 0.3164891
vn 0.5086124 -0.8453739 0.1632677
vn -0.04251086 -0.9915439 0.1226113
vn 0.9920042 -0.1216431 0.03362391
vn 0.5593041 -0.8234194 0.09570488
vn -0.04253569 -0.9809572 0.1895094
vn 0.9887981 -0.1467194 0.027416
vn 0.560748 -0.8130888 0.1563597
vn -0.04246973 -0.973472 0.2248299
vn 0.9979057 0.06332841 -0.01317774
vn 0.9991078 0.04218747 0.001962498
vn 0.6152765 0.7870678 -0.04426227
vn 0.9886906 -0.1497878 0.007370927
vn 0.5286228 -0.8252778 0.1986819
vn -0.04247533 -0.9740528 0.2222991
vn 0.5799386 0.7998415 -0.1546768
vn 0.04231317 0.9973373 -0.05939513
vn 0.04253329 0.9810141 -0.189215
vn 0.9977315 0.05871943 -0.0329233
vn 0.987565 -0.1545688 0.02870594
vn 0.6275367 0.7501784 -0.2083987
vn 0.04235971 0.9658387 -0.2556582
vn 0.4799404 -0.8537672 0.2018382
vn -0.04253361 -0.9807522 0.1905672
vn 0.988646 -0.1402928 0.05382362
vn 0.9973528 0.07116741 -0.01491886
vn 0.6290923 0.7630646 -0.1482407
vn 0.04253364 0.9809326 -0.1896371
vn 0.461363 -0.8709854 0.1689036
vn -0.04254154 -0.988559 0.1447116
vn 0.4615433 -0.8789511 0.1200948
vn 0.9976438 0.0672204 0.01372005
vn 0.5987819 0.7927554 -0.1140129
vn 0.04254784 0.9871435 -0.1540696
vn 0.9909418 -0.1251716 0.04864528
vn 0.5527083 0.8243281 -0.1224613
vn 0.04255024 0.98674 -0.1566321
vn 0.9985861 0.051123 0.01457527
vn 0.9918555 -0.1251195 0.02382688
vn 0.5351059 0.8295469 -0.1597298
vn 0.04253679 0.981137 -0.1885757
vn 0.9990919 0.04176708 -0.008424436
vn 0.5351618 0.8187408 -0.2080031
vn 0.04244304 0.9713002 -0.2340396
vn 0.9913403 -0.1300842 -0.01795794
vn 0.9983188 0.03085906 -0.04906455
vn 0.7314785 -0.2153036 -0.6469803
vn 0.7363172 -0.1025744 -0.6688165
vn 0.4109247 0.5215253 -0.7477649
vn 0.03189634 0.6284534 -0.777193
vn 0.04244304 0.9713002 -0.2340396
vn 0.001809192 -0.122482 -0.9924691
vn 0.03869391 -0.1188533 -0.9921576
vn 0.2646696 -0.1767599 -0.948001
vn 0.03252653 -0.2624372 -0.9644007
vn -0.004019013 -0.2560273 -0.9666612
vn -0.03331624 -0.8727128 -0.4870957
vn 0.3539658 -0.7946588 -0.4931791
vn -0.04254154 -0.988559 0.1447116
vn 0.2631377 -0.2111786 -0.9413618
usemtl Mat_Tools
f 1/1/1 3/3/3 2/2/2 
f 1/1/1 2/2/2 4/4/4 
f 4/4/4 2/2/2 5/5/5 
f 6/6/6 1/1/1 4/4/4 
f 4/4/4 5/5/5 7/7/7 
f 8/8/8 7/7/7 5/5/5 
f 6/6/6 4/4/4 9/9/9 
f 9/9/9 4/4/4 7/7/7 
f 8/8/8 10/10/10 7/7/7 
f 10/10/10 8/8/8 11/11/11 
f 6/6/6 9/9/9 12/12/12 
f 6/6/6 12/12/12 13/13/13 
f 14/14/14 13/13/13 12/12/12 
f 9/9/9 7/7/7 15/15/15 
f 10/10/10 15/15/15 7/7/7 
f 12/12/12 9/9/9 15/15/15 
f 10/10/10 11/11/11 16/16/16 
f 16/16/16 11/11/11 17/17/17 
f 14/14/14 12/12/12 18/18/18 
f 19/19/19 14/14/14 18/18/18 
f 19/19/19 18/18/18 20/20/20 
f 12/12/12 15/15/15 21/21/21 
f 18/18/18 12/12/12 21/21/21 
f 10/10/10 22/22/22 15/15/15 
f 22/22/22 10/10/10 16/16/16 
f 21/21/21 15/15/15 22/22/22 
f 20/20/20 18/18/18 23/23/23 
f 18/18/18 21/21/21 23/23/23 
f 20/20/20 23/23/23 24/24/24 
f 16/16/16 17/17/17 25/25/25 
f 25/25/25 17/17/17 26/26/26 
f 22/22/22 16/16/16 27/27/27 
f 27/27/27 16/16/16 25/25/25 
f 21/21/21 22/22/22 28/28/28 
f 28/28/28 23/23/23 21/21/21 
f 28/28/28 22/22/22 27/27/27 
f 29/29/29 24/24/24 23/23/23 
f 28/28/28 29/29/29 23/23/23 
f 29/29/29 30/30/30 24/24/24 
f 25/25/25 26/26/26 31/31/31 
f 31/31/31 26/26/26 32/32/32 
f 31/31/31 32/32/32 33/33/33 
f 28/28/28 27/27/27 34/34/34 
f 29/29/29 28/28/28 34/34/34 
f 30/30/30 29/29/29 35/35/35 
f 29/29/29 34/34/34 35/35/35 
f 30/30/30 35/35/35 36/36/36 
f 27/27/27 25/25/25 37/37/37 
f 37/37/37 25/25/25 31/31/31 
f 34/34/34 27/27/27 37/37/37 
f 36/36/36 35/35/35 38/38/38 
f 36/36/36 38/38/38 39/39/39 
f 35/35/35 34/34/34 40/40/40 
f 34/34/34 37/37/37 40/40/40 
f 35/35/35 40/40/40 38/38/38 
f 37/37/37 31/31/31 41/41/41 
f 40/40/40 37/37/37 41/41/41 
f 41/41/41 31/31/31 33/33/33 
f 39/39/39 38/38/38 42/42/42 
f 39/39/39 42/42/42 43/43/43 
f 38/38/38 40/40/40 44/44/44 
f 40/40/40 41/41/41 44/44/44 
f 38/38/38 44/44/44 42/42/42 
f 43/43/43 42/42/42 45/45/45 
f 43/43/43 45/45/45 46/46/46 
f 44/44/44 41/41/41 47/47/47 
f 41/41/41 33/33/33 47/47/47 
f 42/42/42 44/44/44 48/48/48 
f 42/42/42 48/48/48 45/45/45 
f 44/44/44 47/47/47 48/48/48 
f 49/49/49 47/47/47 33/33/33 
f 47/47/47 50/50/50 48/48/48 
f 47/47/47 49/49/49 50/50/50 
f 48/48/48 51/51/51 45/45/45 
f 48/48/48 50/50/50 51/51/51 
f 52/52/52 45/45/45 51/51/51 
f 52/52/52 53/53/53 45/45/45 
f 54/54/54 52/52/52 51/51/51 
f 54/54/54 51/51/51 55/55/55 
f 50/50/50 55/55/55 51/51/51 
f 56/56/56 54/54/54 55/55/55 
f 50/50/50 57/57/57 55/55/55 
f 49/49/49 57/57/57 50/50/50 
f 56/56/56 55/55/55 58/58/58 
f 58/58/58 55/55/55 57/57/57 
f 59/59/59 56/56/56 58/58/58 
f 49/49/49 33/33/33 60/60/60 
f 59/59/59 58/58/58 60/60/60 
f 61/61/61 60/60/60 33/33/33 
f 61/61/61 59/59/59 60/60/60 
f 49/49/49 62/62/62 57/57/57 
f 58/58/58 57/57/57 62/62/62 
f 62/62/62 60/60/60 58/58/58 
f 62/62/62 49/49/49 60/60/60 
f 63/63/63 65/65/65 64/64/64 
f 63/63/63 64/64/64 66/66/66 
f 66/66/66 64/64/64 67/67/67 
f 68/68/68 63/63/63 66/66/66 
f 66/66/66 67/67/67 69/69/69 
f 70/70/70 69/69/69 67/67/67 
f 68/68/68 66/66/66 71/71/71 
f 71/71/71 66/66/66 69/69/69 
f 70/70/70 72/72/72 69/69/69 
f 72/72/72 70/70/70 73/73/73 
f 68/68/68 71/71/71 74/74/74 
f 68/68/68 74/74/74 75/75/75 
f 76/76/76 75/75/75 74/74/74 
f 71/71/71 69/69/69 77/77/77 
f 72/72/72 77/77/77 69/69/69 
f 74/74/74 71/71/71 77/77/77 
f 72/72/72 73/73/73 78/78/78 
f 78/78/78 73/73/73 79/79/79 
f 76/76/76 74/74/74 80/80/80 
f 81/81/81 76/76/76 80/80/80 
f 81/81/81 80/80/80 82/82/82 
f 74/74/74 77/77/77 83/83/83 
f 80/80/80 74/74/74 83/83/83 
f 72/72/72 84/84/84 77/77/77 
f 84/84/84 72/72/72 78/78/78 
f 83/83/83 77/77/77 84/84/84 
f 82/82/82 80/80/80 85/85/85 
f 80/80/80 83/83/83 85/85/85 
f 82/82/82 85/85/85 86/86/86 
f 78/78/78 79/79/79 87/87/87 
f 87/87/87 79/79/79 88/88/88 
f 84/84/84 78/78/78 89/89/89 
f 89/89/89 78/78/78 87/87/87 
f 83/83/83 84/84/84 90/90/90 
f 90/90/90 85/85/85 83/83/83 
f 90/90/90 84/84/84 89/89/89 
f 91/91/91 86/86/86 85/85/85 
f 90/90/90 91/91/91 85/85/85 
f 91/91/91 92/92/92 86/86/86 
f 87/87/87 88/88/88 93/93/93 
f 93/93/93 88/88/88 94/94/94 
f 93/93/93 94/94/94 95/95/95 
f 90/90/90 89/89/89 96/96/96 
f 91/91/91 90/90/90 96/96/96 
f 92/92/92 91/91/91 97/97/97 
f 91/91/91 96/96/96 97/97/97 
f 92/92/92 97/97/97 98/98/98 
f 89/89/89 87/87/87 99/99/99 
f 99/99/99 87/87/87 93/93/93 
f 96/96/96 89/89/89 99/99/99 
f 98/98/98 97/97/97 100/100/100 
f 98/98/98 100/100/100 101/101/101 
f 97/97/97 96/96/96 102/102/102 
f 96/96/96 99/99/99 102/102/102 
f 97/97/97 102/102/102 100/100/100 
f 99/99/99 93/93/93 103/103/103 
f 102/102/102 99/99/99 103/103/103 
f 103/103/103 93/93/93 95/95/95 
f 101/101/101 100/100/100 104/104/104 
f 101/101/101 104/104/104 105/105/105 
f 100/100/100 102/102/102 106/106/106 
f 102/102/102 103/103/103 106/106/106 
f 100/100/100 106/106/106 104/104/104 
f 105/105/105 104/104/104 107/107/107 
f 105/105/105 107/107/107 108/108/108 
f 106/106/106 103/103/103 109/109/109 
f 103/103/103 95/95/95 109/109/109 
f 104/104/104 106/106/106 110/110/110 
f 104/104/104 110/110/110 107/107/107 
f 106/106/106 109/109/109 110/110/110 
f 111/111/111 109/109/109 95/95/95 
f 112/112/112 110/110/110 109/109/109 
f 112/112/112 109/109/109 111/111/111 
f 110/110/110 113/113/113 107/107/107 
f 110/110/110 112/112/112 113/113/113 
f 114/114/114 107/107/107 113/113/113 
f 114/114/114 115/115/115 107/107/107 
f 116/116/116 114/114/114 113/113/113 
f 112/112/112 117/117/117 113/113/113 
f 116/116/116 113/113/113 117/117/117 
f 112/112/112 118/118/118 117/117/117 
f 118/118/118 112/112/112 111/111/111 
f 119/119/119 116/116/116 117/117/117 
f 119/119/119 117/117/117 118/118/118 
f 119/119/119 120/120/120 116/116/116 
f 121/121/121 120/120/120 119/119/119 
f 111/111/111 95/95/95 122/122/122 
f 121/121/121 119/119/119 122/122/122 
f 123/123/123 122/122/122 95/95/95 
f 123/123/123 121/121/121 122/122/122 
f 118/118/118 111/111/111 124/124/124 
f 119/119/119 118/118/118 124/124/124 
f 124/124/124 122/122/122 119/119/119 
f 124/124/124 111/111/111 122/122/122 
