# exported by StudySceneExporter from mesh 'Screwdriver_S_Shaft_low'
mtllib materials.mtl
v -0.001289635 -0.002130871 -0.01448936
v -0.0009315491 -0.001557026 0.02100182
v 0.0006978225 -0.001802387 0.0209893
v 0.0003397751 -0.002376232 -0.01450172
v -0.00130352 -0.002153149 -0.0158683
v 0.002023315 -0.0008238792 0.02096001
v -0.0005975342 -0.002270527 -0.01655571
v -0.0005535507 -0.0009049797 -0.02096413
v -0.0001743698 -0.00203661 -0.02094963
v 0.0004423523 -0.001894245 -0.02095818
v 0.001015739 -0.001915226 -0.01657768
v 0.0002691269 -0.0007008552 -0.02097557
v 0.001665268 -0.001397724 -0.01453102
v 0.002268448 0.0008053398 0.02093132
v 0.001910362 0.0002314949 -0.01455986
v 0.001289635 0.002130871 0.02091972
v 0.0009315491 0.001557064 -0.0145713
v 0.0009175491 0.001534634 -0.0159594
v 0.001650581 -0.001421223 -0.0159861
v 0.001758156 -0.0006825447 -0.01660515
v 0.001399956 -0.0003042793 -0.02099342
v 0.001239929 0.0003115654 -0.02100182
v 0.001335068 0.0009382057 -0.01662712
v 6.484985E-05 0.0001218224 -0.02098686
v 0.0009315491 0.001557064 -0.0145713
v 0.001289635 0.002130871 0.02091972
v -0.0003397751 0.002376232 0.02093223
v -0.0006978607 0.001802425 -0.01455894
v 0.0009175491 0.001534634 -0.0159594
v -0.001665268 0.001397724 0.02096138
v 0.0001947784 0.001624966 -0.01662666
v 6.484985E-05 0.0001218224 -0.02098686
v -0.0003168869 0.001249256 -0.02100136
v -0.0009360886 0.001102734 -0.02099266
v -0.001435661 0.001241093 -0.01660408
v -0.0008311844 -3.816605E-05 -0.02097527
v -0.002023315 0.0008239174 -0.01452965
v -0.0019104 -0.0002314949 0.02099022
v -0.002268448 -0.0008053016 -0.01450096
v -0.0009315491 -0.001557026 0.02100182
v -0.001289635 -0.002130871 -0.01448936
v -0.00130352 -0.002153149 -0.0158683
v -0.002037506 0.0008012199 -0.01593407
v -0.002178116 8.411407E-06 -0.01657661
v -0.001893692 -0.0004872322 -0.02095726
v -0.001737785 -0.001583767 -0.01655525
v -0.0005535507 -0.0009049797 -0.02096413
v -0.001731186 -0.001098957 -0.02094902
v 0.0004423523 -0.001894245 -0.02095818
v -0.0005535507 -0.0009049797 -0.02096413
v -0.0001743698 -0.00203661 -0.02094963
v -0.0002443695 -0.0003915977 -0.02097542
v -0.001731186 -0.001098957 -0.02094902
v -0.001893692 -0.0004872322 -0.02095726
v -0.0008311844 -3.816605E-05 -0.02097527
v 0.0002691269 -0.0007008552 -0.02097557
v -0.0009360886 0.001102734 -0.02099266
v 0.001239929 0.0003115654 -0.02100182
v 0.001399956 -0.0003042793 -0.02099342
v 6.484985E-05 0.0001218224 -0.02098686
v -0.0003168869 0.001249256 -0.02100136
vt 0.9082122 0.3457984
vt 0.9081817 0.4932513
vt 0.9150267 0.4932501
vt 0.9150357 0.3458474
vt 0.9086199 0.3400331
vt 0.9218712 0.4932491
vt 0.9116011 0.3371365
vt 0.9094942 0.3180668
vt 0.9143414 0.3189322
vt 0.9169655 0.3189795
vt 0.9186363 0.3372309
vt 0.9219289 0.3183181
vt 0.9218488 0.3458416
vt 0.9287162 0.4932463
vt 0.9286549 0.3458493
vt 0.9355593 0.493243
vt 0.9354789 0.3458019
vt 0.9350388 0.3400403
vt 0.921833 0.339874
vt 0.9249091 0.3372433
vt 0.9268479 0.3190224
vt 0.9294815 0.3190005
vt 0.932066 0.3371751
vt 0.9343195 0.3181825
vt 0.9454231 0.3457866
vt 0.9453759 0.4932487
vt 0.9522219 0.4932493
vt 0.9522457 0.345854
vt 0.9458711 0.3399845
vt 0.9590676 0.4932491
vt 0.9488716 0.3371401
vt 0.9468608 0.3180843
vt 0.9516902 0.3189706
vt 0.9543264 0.3190284
vt 0.956007 0.3372662
vt 0.9590464 0.3184553
vt 0.959058 0.3458581
vt 0.9659131 0.493248
vt 0.9658711 0.3458495
vt 0.9727561 0.4932468
vt 0.972697 0.3457843
vt 0.9722693 0.3400126
vt 0.9590464 0.3401078
vt 0.9622455 0.3372667
vt 0.9638023 0.3190224
vt 0.9692736 0.3371332
vt 0.9712679 0.3180608
vt 0.9664257 0.3189583
vt 0.9768384 0.2916448
vt 0.9747658 0.300114
vt 0.9795725 0.29447
vt 0.9710426 0.300114
vt 0.9795725 0.3057582
vt 0.9768384 0.3085833
vt 0.9710426 0.3043691
vt 0.9710426 0.2963909
vt 0.9653077 0.3085833
vt 0.9625432 0.29447
vt 0.9653077 0.2916448
vt 0.9673195 0.300114
vt 0.962543 0.3057582
vn -0.1487342 -0.9887228 0.01747346
vn -0.1487451 -0.988721 0.01748732
vn 0.2409385 -0.9704498 0.01326021
vn 0.2411638 -0.9704081 0.01216292
vn -0.2047638 -0.9778766 -0.04276646
vn 0.8566247 -0.5159399 -0.0003009176
vn -0.04396278 -0.9933724 -0.1062003
vn -0.9234615 -0.363804 -0.1219246
vn -0.2168793 -0.9734186 -0.07361801
vn 0.6182315 -0.7815202 -0.08376186
vn 0.47482 -0.8727842 -0.1131095
vn 0.8419516 -0.5131227 -0.1668007
vn 0.8566301 -0.515931 -0.000174291
vn 0.9704791 0.2407968 -0.01368464
vn 0.9705003 0.240634 -0.01498011
vn 0.804398 0.5938267 -0.01771628
vn 0.8044409 0.5937658 -0.01780304
vn 0.7694541 0.6335824 -0.08070752
vn 0.8541866 -0.514847 -0.07278582
vn 0.9912378 -0.01461299 -0.1312784
vn 0.9779043 -0.1858394 -0.09574413
vn 0.7672418 0.6323072 -0.1073672
vn 0.861393 0.4885028 -0.1391654
vn -0.1091832 0.9823111 -0.152131
vn 0.1486685 0.988731 -0.01757388
vn 0.148743 0.9887213 -0.01748605
vn -0.2409614 0.9704442 -0.01325854
vn -0.2410591 0.9704013 -0.0145559
vn 0.2001806 0.9764434 -0.08053488
vn -0.8566227 0.5159432 0.000300556
vn 0.02892222 0.9898885 -0.1388681
vn 0.9192894 0.3628428 -0.152487
vn 0.2000852 0.9739016 -0.1071529
vn -0.5981327 0.7959736 -0.09307645
vn -0.4748371 0.870777 -0.127582
vn -0.8480599 0.505003 -0.1605194
vn -0.856624 0.515941 0.0004268757
vn -0.9704781 -0.2408008 0.01368352
vn -0.9705313 -0.2406459 0.01258719
vn -0.8043818 -0.5938486 0.01771609
vn -0.80439 -0.5938379 0.01770304
vn -0.7686568 -0.638244 -0.04255813
vn -0.8548992 0.5146819 -0.06518995
vn -0.9939621 0.009753797 -0.1092894
vn -0.9852039 0.1514672 -0.08019438
vn -0.8575652 -0.5033542 -0.1059086
vn 0.1101684 -0.9863613 -0.1222879
vn -0.759056 -0.6468719 -0.07342151
vn -0.01001444 -0.01603086 -0.9998214
vn -0.01006914 -0.01624032 -0.9998174
vn -0.01001979 -0.01604381 -0.9998211
vn -0.01007472 -0.01612888 -0.9998192
vn -0.01007849 -0.01609692 -0.9998197
vn -0.01006968 -0.01604986 -0.9998205
vn -0.01004891 -0.0160305 -0.999821
vn -0.0100476 -0.01591216 -0.9998229
vn -0.01012447 -0.01634838 -0.9998152
vn -0.01008643 -0.01596642 -0.9998217
vn -0.01008479 -0.01593198 -0.9998223
vn -0.01013038 -0.01640351 -0.9998142
vn -0.01013753 -0.01638542 -0.9998145
usemtl Mat_Tools
f 1/1/1 3/3/3 2/2/2 
f 1/1/1 4/4/4 3/3/3 
f 5/5/5 4/4/4 1/1/1 
f 4/4/4 6/6/6 3/3/3 
f 5/5/5 7/7/7 4/4/4 
f 8/8/8 7/7/7 5/5/5 
f 8/8/8 9/9/9 7/7/7 
f 10/10/10 7/7/7 9/9/9 
f 10/10/10 11/11/11 7/7/7 
f 7/7/7 11/11/11 4/4/4 
f 12/12/12 11/11/11 10/10/10 
f 4/4/4 13/13/13 6/6/6 
f 13/13/13 14/14/14 6/6/6 
f 13/13/13 15/15/15 14/14/14 
f 15/15/15 16/16/16 14/14/14 
f 15/15/15 17/17/17 16/16/16 
f 15/15/15 18/18/18 17/17/17 
f 4/4/4 11/11/11 19/19/19 
f 4/4/4 19/19/19 13/13/13 
f 19/19/19 11/11/11 12/12/12 
f 19/19/19 15/15/15 13/13/13 
f 12/12/12 20/20/20 19/19/19 
f 19/19/19 20/20/20 15/15/15 
f 12/12/12 21/21/21 20/20/20 
f 22/22/22 20/20/20 21/21/21 
f 15/15/15 23/23/23 18/18/18 
f 20/20/20 23/23/23 15/15/15 
f 22/22/22 23/23/23 20/20/20 
f 18/18/18 23/23/23 24/24/24 
f 24/24/24 23/23/23 22/22/22 
f 25/25/25 27/27/27 26/26/26 
f 25/25/25 28/28/28 27/27/27 
f 29/29/29 28/28/28 25/25/25 
f 28/28/28 30/30/30 27/27/27 
f 29/29/29 31/31/31 28/28/28 
f 32/32/32 31/31/31 29/29/29 
f 32/32/32 33/33/33 31/31/31 
f 34/34/34 31/31/31 33/33/33 
f 34/34/34 35/35/35 31/31/31 
f 31/31/31 35/35/35 28/28/28 
f 36/36/36 35/35/35 34/34/34 
f 28/28/28 37/37/37 30/30/30 
f 37/37/37 38/38/38 30/30/30 
f 37/37/37 39/39/39 38/38/38 
f 39/39/39 40/40/40 38/38/38 
f 39/39/39 41/41/41 40/40/40 
f 39/39/39 42/42/42 41/41/41 
f 28/28/28 35/35/35 43/43/43 
f 28/28/28 43/43/43 37/37/37 
f 43/43/43 35/35/35 36/36/36 
f 43/43/43 39/39/39 37/37/37 
f 36/36/36 44/44/44 43/43/43 
f 43/43/43 44/44/44 39/39/39 
f 36/36/36 45/45/45 44/44/44 
f 39/39/39 46/46/46 42/42/42 
f 44/44/44 46/46/46 39/39/39 
f 45/45/45 46/46/46 44/44/44 
f 42/42/42 46/46/46 47/47/47 
f 45/45/45 48/48/48 46/46/46 
f 47/47/47 46/46/46 48/48/48 
f 49/49/49 51/51/51 50/50/50 
f 49/49/49 50/50/50 52/52/52 
f 53/53/53 52/52/52 50/50/50 
f 54/54/54 52/52/52 53/53/53 
f 54/54/54 55/55/55 52/52/52 
f 56/56/56 49/49/49 52/52/52 
f 55/55/55 57/57/57 52/52/52 
f 58/58/58 56/56/56 52/52/52 
f 58/58/58 59/59/59 56/56/56 
f 60/60/60 58/58/58 52/52/52 
f 57/57/57 60/60/60 52/52/52 
f 57/57/57 61/61/61 60/60/60 
