# exported by StudySceneExporter from mesh 'Workbench_Group_5_low'
mtllib materials.mtl
v 0.2785638 -0.8490855 -0.4422544
v 0.2584909 -0.848374 -0.4406733
v 0.2354073 -0.8670784 -0.4430721
v 0.2787312 -0.9396028 -0.4427962
v 0.2814304 -0.85537 -0.4401964
v 0.2330762 -0.9293258 -0.4425804
v 0.2447637 -0.9498384 -0.4409918
v 0.2640116 -0.8484082 0.4409124
v 0.2812951 -0.8526124 0.4424489
v 0.241558 -0.8559228 0.4431014
v 0.2815857 -0.9398497 0.4424837
v 0.2358607 -0.9442686 0.44271
v 0.2805915 -0.9462466 0.4382788
v 0.259821 -0.9499404 0.4356316
v 0.2333734 -0.8787712 0.4425851
v 0.2311927 -0.9269015 0.4389794
v 0.271337 -0.8485702 -0.221805
v 0.2584909 -0.848374 -0.4406733
v 0.2680895 -0.8484384 -0.2877334
v 0.2640116 -0.8484082 0.4409124
v 0.2774808 -0.8486897 0.4388504
v 0.279614 -0.8498001 -0.1683507
v 0.2812951 -0.8526124 0.4424489
v 0.2384316 -0.8486221 0.1818155
v 0.2375839 -0.848759 0.4261155
v 0.241558 -0.8559228 0.4431014
v 0.2312122 -0.8624214 0.4350984
v 0.2333734 -0.8787712 0.4425851
v 0.2311927 -0.9269015 0.4389794
v 0.2311069 -0.8874817 -0.4308745
v 0.2315457 -0.8495517 0.2489506
v 0.2330396 -0.8541043 0.1621663
v 0.2399423 -0.8486497 0.08169397
v 0.2312904 -0.8650465 0.08065969
v 0.2311948 -0.8737593 -0.05936944
v 0.2368611 -0.8486966 -0.4193799
v 0.2354073 -0.8670784 -0.4430721
v 0.2352558 -0.852362 0.05845858
v 0.2380614 -0.8487858 -0.003345696
v 0.2314336 -0.8595935 -0.004136407
v 0.2329028 -0.8505086 -0.03323957
v 0.2330025 -0.8499095 -0.3347009
v 0.231453 -0.855656 -0.07874238
v 0.2314318 -0.8618519 -0.432969
v 0.2330762 -0.9293258 -0.4425804
v 0.2313739 -0.9412774 -0.4331342
v 0.2341809 -0.9491461 -0.4385346
v 0.2447637 -0.9498384 -0.4409918
v 0.231601 -0.9430352 0.4247921
v 0.2358607 -0.9442686 0.44271
v 0.2316825 -0.9439273 -0.3574652
v 0.2331863 -0.9497001 0.3818948
v 0.259821 -0.9499404 0.4356316
v 0.2385499 -0.94968 -0.3518851
v 0.269637 -0.9497066 0.08077078
v 0.276404 -0.9495791 -0.4338102
v 0.2787312 -0.9396028 -0.4427962
v 0.2814024 -0.9419082 -0.4387068
v 0.2814304 -0.85537 -0.4401964
v 0.2768772 -0.9495553 0.1327989
v 0.2781093 -0.9492474 0.4022032
v 0.2805915 -0.9462466 0.4382788
v 0.2810218 -0.9450186 0.068566
v 0.2815857 -0.9398497 0.4424837
v 0.2727731 -0.9498999 -0.05371145
v 0.2806621 -0.9484894 -0.1242343
v 0.2814977 -0.9400656 -0.02060499
v 0.281675 -0.9292738 -0.0729981
v 0.2818283 -0.9035637 -0.4254592
v 0.281805 -0.8874971 0.4361254
v 0.2812951 -0.8526124 0.4424489
v 0.2816253 -0.8651822 -0.2143291
v 0.279614 -0.8498001 -0.1683507
v 0.271337 -0.8485702 -0.221805
v 0.2803665 -0.8578195 -0.2664849
v 0.2680895 -0.8484384 -0.2877334
v 0.2792652 -0.849067 -0.3664503
v 0.2785638 -0.8490855 -0.4422544
v 0.2584909 -0.848374 -0.4406733
v 0.281602 -0.08054806 0.4398317
v 0.2785209 -0.08680017 0.4426024
v 0.2807118 0.01006536 0.442404
v 0.2351306 0.003152326 0.4431304
v 0.2320187 -0.08291434 0.4424875
v 0.2338538 0.01391275 0.439573
v 0.2315238 0.006736872 0.440311
v 0.2313862 0.006749251 -0.4426337
v 0.2683195 0.01342238 -0.4406109
v 0.2342765 0.01364304 -0.4393724
v 0.2784849 0.002613374 -0.4429436
v 0.2814408 0.001249525 -0.4390763
v 0.2803362 -0.08485045 -0.4421266
v 0.246182 -0.07243043 -0.4431748
v 0.231138 -0.06019458 -0.4368792
v 0.2544266 -0.08741029 -0.4358639
v 0.2381132 -0.07938774 -0.4419214
v -0.2803489 -0.0851235 0.4426667
v -0.2791431 0.01326742 0.4421728
v -0.2326725 0.01248223 0.4428458
v -0.2328446 -0.08563179 0.4424709
v -0.280548 -0.08693434 -0.4405913
v -0.2371875 -0.08723293 -0.4400669
v -0.231682 -0.08196382 -0.4425611
v -0.27761 -0.07858319 -0.4427442
v -0.2786403 0.004997313 -0.4427728
v -0.2382388 0.001597789 -0.4431771
v -0.2311291 -0.0230617 -0.4372901
v -0.2422733 0.01390352 -0.4390443
v -0.231318 0.0004871535 -0.4374605
v -0.2312488 0.0002068329 0.435794
v -0.231318 0.0004871535 -0.4374605
v -0.2311291 -0.0230617 -0.4372901
v -0.231156 -0.07106132 0.07149855
v -0.2312508 -0.07031704 -0.395738
v -0.231682 -0.08196382 -0.4425611
v -0.2323069 -0.08568966 -0.1125568
v -0.2371875 -0.08723293 -0.4400669
v -0.2407146 -0.0874844 0.06510996
v -0.2313693 -0.07760604 0.4377963
v -0.2326725 0.01248223 0.4428458
v -0.2328446 -0.08563179 0.4424709
v -0.2325681 -0.08594218 0.09274713
v -0.2520159 -0.08755886 -0.4229536
v -0.280548 -0.08693434 -0.4405913
v -0.2380962 -0.08745246 0.4381252
v -0.2639414 -0.08749437 0.06621741
v -0.2762076 -0.08731752 0.4389074
v -0.2803489 -0.0851235 0.4426667
v -0.277569 -0.08705181 0.1332937
v -0.2806725 -0.08431237 0.08267091
v -0.2707418 -0.08741938 -0.3426678
v -0.2667262 -0.08724809 -0.2736918
v -0.2812234 -0.07961462 -0.3405856
v -0.2818395 -0.0497523 -0.4373049
v -0.2786403 0.004997313 -0.4427728
v -0.2758647 -0.08582634 -0.30784
v -0.2817026 -0.07188362 -0.2743358
v -0.2730419 -0.08741024 -0.2211734
v -0.2788942 -0.08666139 0.01803938
v -0.2815292 -0.07279338 -0.2143364
v -0.2811377 -0.08256073 -0.165726
v -0.281605 -0.07463234 0.438348
v -0.2812517 0.008100083 0.4397218
v -0.2791431 0.01326742 0.4421728
v -0.2818281 -0.02416808 0.4129921
v -0.2815276 0.005513558 -0.3894636
v -0.2815298 0.002587361 0.2351839
v -0.2813255 0.006287861 0.3537027
v -0.2792847 0.01299071 0.3991833
v -0.2677333 0.0138993 0.36998
v -0.2808565 0.007710008 -0.4207877
v -0.2729008 0.01380119 -0.4312384
v -0.2422733 0.01390352 -0.4390443
v -0.2720434 0.01387549 0.3335102
v -0.238691 0.01382089 0.4338741
v -0.2326725 0.01248223 0.4428458
v -0.2370037 0.01370493 -0.4021089
v -0.2319762 0.01012938 -0.4189701
v -0.231318 0.0004871535 -0.4374605
v -0.2312488 0.0002068329 0.435794
v -0.2746579 0.01364069 -0.3548694
v -0.2747668 0.01352602 -0.02693525
v -0.2723258 0.01382471 0.2684139
v -0.280061 0.01304105 -0.2665932
v -0.2812555 0.007706554 -0.1420227
v -0.2809134 0.008834614 -0.002227761
v -0.2792816 0.01294517 0.1947633
v -0.2802728 0.01219373 0.02887003
v 0.2701016 0.8558304 -0.4431216
v 0.2815523 0.8575181 -0.4337066
v 0.2814568 0.9428531 -0.4424246
v 0.2818386 0.9006479 -0.4208341
v 0.2815342 0.9417955 0.4326558
v 0.2818395 0.8941188 0.4288613
v 0.2815842 0.8609102 0.3552889
v 0.2813742 0.8572528 -0.2705394
v 0.2813627 0.8560339 -0.2062883
v 0.2815232 0.8575212 0.3943345
v 0.2808043 0.8615633 0.4356652
v 0.2803427 0.9473357 0.4423302
v 0.2741731 0.9497091 0.4342699
v 0.2404502 0.9498308 0.4399575
v 0.2467601 0.9499404 -0.4097464
v 0.2381166 0.9496356 -0.2224548
v 0.2811864 0.943757 -0.09864935
v 0.2794779 0.9492479 0.1376639
v 0.273874 0.9497378 -0.04592008
v 0.2681311 0.9498607 -0.1084731
v 0.279967 0.9478218 -0.4148758
v 0.2729177 0.9497288 -0.4399064
v 0.2792408 0.9492825 -0.155854
v 0.2320528 0.9489077 -0.4395881
v 0.2355262 0.9495039 -0.196022
v 0.2358894 0.9494799 0.3792658
v 0.2317713 0.9440712 0.4078842
v 0.2324428 0.9365777 0.4427338
v 0.231033 0.9107962 0.4315083
v 0.2315404 0.8551733 0.4425645
v 0.2314799 0.9377567 0.3531527
v 0.2321618 0.947148 0.2298036
v 0.2323724 0.9471856 -0.1994074
v 0.2312855 0.9358778 -0.2642028
v 0.231447 0.8543521 -0.442359
v 0.231121 0.917381 -0.4273598
v 0.2313332 0.9362205 -0.3202911
v 0.2329737 0.8502718 0.4395118
v 0.2617259 0.8521746 0.4414117
v 0.2342795 0.8494655 -0.4402863
v 0.2548998 0.8484402 -0.4397717
v 0.2366225 0.8484373 0.4220758
v 0.2654455 0.8484694 0.434393
v 0.2385444 0.9496339 -0.3079653
v 0.2405687 0.9490498 -0.3346833
v 0.2314912 0.9422694 -0.3676562
v 0.2387424 0.9495233 -0.3811195
v 0.2773318 0.8527873 0.4312808
v 0.2718658 0.861194 0.4430572
v 0.2808043 0.8615633 0.4356652
v 0.2815232 0.8575212 0.3943345
v 0.2753808 0.8486674 0.3619138
v 0.2815842 0.8609102 0.3552889
v 0.2804483 0.8503972 0.3320069
v 0.2813627 0.8560339 -0.2062883
v 0.2782215 0.8494381 -0.1279331
v 0.2702844 0.8485498 -0.2062451
v 0.2738737 0.84904 -0.2584959
v 0.2813742 0.8572528 -0.2705394
v 0.2763841 0.8487024 -0.4234498
v 0.2701016 0.8558304 -0.4431216
v 0.2815523 0.8575181 -0.4337066
v 0.2791416 0.850374 -0.3019702
v 0.2808043 0.8615633 0.4356652
v 0.2718658 0.861194 0.4430572
v 0.2803427 0.9473357 0.4423302
v 0.2324428 0.9365777 0.4427338
v 0.2404502 0.9498308 0.4399575
v 0.2315404 0.8551733 0.4425645
v 0.2617259 0.8521746 0.4414117
v 0.2701016 0.8558304 -0.4431216
v 0.231447 0.8543521 -0.442359
v 0.2548998 0.8484402 -0.4397717
v 0.2343326 0.9442088 -0.4426073
v 0.2814568 0.9428531 -0.4424246
v 0.2320528 0.9489077 -0.4395881
v 0.2729177 0.9497288 -0.4399064
v -0.2418976 -0.8527208 0.4431418
v -0.2317147 -0.8650475 0.4399496
v -0.231108 -0.8951239 0.4408326
v -0.2343413 -0.9489825 0.4423513
v -0.2313711 -0.9389499 0.4396315
v -0.2804734 -0.9470497 0.4425789
v -0.2803588 -0.8494154 0.4423621
v -0.2330187 -0.8508659 -0.442587
v -0.2697413 -0.9472445 -0.4429347
v -0.2320998 -0.9464818 -0.4423537
v -0.2727071 -0.8600919 -0.4427339
v -0.2597058 -0.8484175 -0.4397272
v -0.281777 -0.9020771 -0.4414793
v -0.231108 -0.8951239 0.4408326
v -0.2311693 -0.9288382 -0.4189433
v -0.2313711 -0.9389499 0.4396315
v -0.2312533 -0.8574873 -0.4379939
v -0.2320998 -0.9464818 -0.4423537
v -0.2330187 -0.8508659 -0.442587
v -0.2312226 -0.8697647 0.1933748
v -0.2314028 -0.8581641 0.4057505
v -0.2317147 -0.8650475 0.4399496
v -0.2325822 -0.8549111 0.4247466
v -0.2418976 -0.8527208 0.4431418
v -0.2403008 -0.8487993 0.4097142
v -0.2582762 -0.8483452 0.4284709
v -0.2803588 -0.8494154 0.4423621
v -0.2327734 -0.8507282 -0.2635556
v -0.2313263 -0.8614233 -0.1988534
v -0.2374918 -0.8484614 -0.4370288
v -0.2597058 -0.8484175 -0.4397272
v -0.2325431 -0.8507831 0.1808971
v -0.2319713 -0.8527563 0.3701691
v -0.2422791 -0.8484414 0.3523828
v -0.2414367 -0.8485045 -0.2439312
v -0.2338262 -0.8491516 0.3280784
v -0.2365578 -0.8492328 0.1242443
v -0.2315621 -0.8588769 0.1248038
v -0.2369701 -0.8489805 -0.2194447
v -0.2324733 -0.8509479 -0.0969264
v -0.2687069 -0.8484448 -0.2771
v -0.2804596 -0.8491742 -0.421358
v -0.2727071 -0.8600919 -0.4427339
v -0.2817085 -0.8715233 -0.4371128
v -0.281777 -0.9020771 -0.4414793
v -0.2812267 -0.8569742 -0.2418144
v -0.2774862 -0.8487094 -0.1749808
v -0.2809427 -0.8519482 -0.1487797
v -0.2719304 -0.8484904 0.2520054
v -0.2817183 -0.8631314 0.4155236
v -0.2784791 -0.8490455 0.1886406
v -0.2813237 -0.8574217 0.2509257
v -0.27958 -0.8502298 0.3232265
v -0.2816553 -0.9362773 0.4376699
v -0.2804734 -0.9470497 0.4425789
v -0.2816588 -0.9325101 -0.4360085
v -0.2697413 -0.9472445 -0.4429347
v -0.2808328 -0.9458253 -0.3260149
v -0.280055 -0.9486246 -0.4256341
v -0.2361596 -0.9494134 -0.4382572
v -0.2320998 -0.9464818 -0.4423537
v -0.2743846 -0.949852 -0.3450634
v -0.2796369 -0.948123 -0.08994608
v -0.2766054 -0.9495534 0.438746
v -0.2343413 -0.9489825 0.4423513
v -0.25927 -0.9498651 0.4360889
v -0.2422637 -0.9497488 0.12134
v -0.2329408 -0.9478857 0.01925177
v -0.231327 -0.9381346 0.1539883
v -0.2311693 -0.9288382 -0.4189433
v -0.2313711 -0.9389499 0.4396315
v -0.2320529 -0.9472429 0.2302902
v -0.2760685 0.9444844 0.4431771
v -0.2324147 0.9496896 0.4412955
v -0.2326763 0.8493425 0.4427015
v -0.2750478 0.8539549 0.4428614
v -0.2818232 0.8969116 0.4408676
v -0.2816258 0.8584895 0.4303775
v -0.2818232 0.8969116 0.4408676
v -0.2750478 0.8539549 0.4428614
v -0.2818287 0.9081952 -0.4235563
v -0.2816386 0.8611628 -0.4386902
v -0.2814278 0.9425932 -0.4366995
v -0.2814624 0.9435557 0.4252903
v -0.2799899 0.9477981 -0.4374537
v -0.2787564 0.9493451 0.4323446
v -0.2760685 0.9444844 0.4431771
v -0.2767774 0.9497232 -0.4181188
v -0.2396484 0.9498866 -0.4412316
v -0.260101 0.9499235 0.4389288
v -0.2407621 0.9497178 -0.01501699
v -0.2324147 0.9496896 0.4412955
v -0.242716 0.9498366 0.2615379
v -0.2314025 0.9410055 0.155016
v -0.2338637 0.9493219 0.1892307
v -0.23133 0.938652 0.4393477
v -0.2311972 0.9255562 -0.440263
v -0.2311771 0.8562788 0.4341236
v -0.2326763 0.8493425 0.4427015
v -0.2364705 0.9490558 0.03196036
v -0.2326774 0.9434903 -0.03346563
v -0.2313895 0.9383462 -0.0434889
v -0.238559 0.9496667 -0.06838178
v -0.2317848 0.9442801 -0.1471021
v -0.2390945 0.9497545 -0.1589484
v -0.2321555 0.9476994 -0.433734
v -0.2388403 0.949711 -0.1192101
v -0.2386193 0.9497174 -0.1298017
v -0.2355266 0.9493741 -0.1611018
v -0.23642 0.9396203 -0.4428347
v -0.2402447 0.8486745 -0.4427988
v -0.2319186 0.8504105 -0.4358389
v -0.2349135 0.8489841 -0.130482
v -0.2746851 0.8484529 -0.434068
v -0.2311468 0.8781132 -0.4330341
v -0.2313691 0.8608862 -0.09548818
v -0.2434281 0.8485811 -0.07098317
v -0.2314193 0.8607181 0.01886351
v -0.2320804 0.8520697 0.0521678
v -0.247759 0.8485008 0.01152373
v -0.2489727 0.8484699 0.0625722
v -0.2531826 0.8484538 0.4365746
v -0.2377182 0.8485852 0.1543534
v -0.2750478 0.8539549 0.4428614
v -0.2761894 0.8499797 0.432683
v -0.2816258 0.8584895 0.4303775
v -0.2654497 0.8484256 0.4032926
v -0.2793491 0.8537421 0.377843
v -0.2630388 0.8484509 0.2181703
v -0.2811548 0.8544937 0.2362918
v -0.2816386 0.8611628 -0.4386902
v -0.2699428 0.8494864 0.2739289
v -0.2802763 0.8510307 -0.2937177
v -0.2771987 0.8491122 0.193735
v -0.2816386 0.8611628 -0.4386902
v -0.2792177 0.9383511 -0.4427502
v -0.2814278 0.9425932 -0.4366995
v -0.2799899 0.9477981 -0.4374537
v -0.2396484 0.9498866 -0.4412316
v -0.23642 0.9396203 -0.4428347
v -0.2402447 0.8486745 -0.4427988
v -0.2762567 0.858847 -0.4427405
v -0.2746851 0.8484529 -0.434068
v 0.281602 -0.08054806 0.4398317
v 0.2818375 -0.03630946 -0.4263656
v 0.2815998 -0.07512698 -0.4235257
v 0.2803362 -0.08485045 -0.4421266
v 0.2814408 0.001249525 -0.4390763
v 0.2816916 0.00154333 0.4383112
v 0.2807118 0.01006536 0.442404
v 0.281628 0.0005465138 -0.3465794
v 0.2799725 0.01290299 0.1124255
v 0.2816576 0.00208763 0.02880827
v 0.2779842 0.01352473 0.4396615
v 0.2338538 0.01391275 0.439573
v 0.2702586 0.01368747 0.0219137
v 0.2623127 0.01394236 0.4049217
v 0.2796272 0.01290775 -0.03127256
v 0.2805148 0.01075007 -0.2935948
v 0.2672035 0.01395085 -0.3916468
v 0.2770204 0.0130784 -0.3503647
v 0.2812966 0.007374155 -0.387201
v 0.2795714 0.01311867 -0.4240856
v 0.2683195 0.01342238 -0.4406109
v 0.2342765 0.01364304 -0.4393724
v 0.2485825 0.01391102 0.1653211
v 0.2334691 0.01161328 0.1557684
v 0.2315238 0.006736872 0.440311
v 0.2342237 0.01303792 -0.0670236
v 0.2313862 0.006749251 -0.4426337
v 0.2376618 0.01351827 0.04606699
v 0.2312467 -0.003207606 0.05814883
v 0.2314939 0.005405533 -0.04303079
v 0.231122 -0.02226307 0.4094269
v 0.231138 -0.06019458 -0.4368792
v 0.2312355 -0.07187661 0.4295262
v 0.2320187 -0.08291434 0.4424875
v 0.2313986 -0.07903316 -0.4167797
v 0.2381132 -0.07938774 -0.4419214
v 0.2314617 -0.07633933 0.1364815
v 0.2408491 -0.08720392 -0.3993986
v 0.2544266 -0.08741029 -0.4358639
v 0.2525976 -0.08760317 -0.2752225
v 0.2330846 -0.08752102 0.01790747
v 0.2313623 -0.07942583 0.1258571
v 0.2436087 -0.08745783 0.1366657
v 0.237629 -0.08731601 0.1718394
v 0.2325557 -0.0861202 0.3703628
v 0.2356009 -0.08712635 0.4398652
v 0.2785209 -0.08680017 0.4426024
v 0.2505173 -0.08753774 0.4308194
v 0.2751116 -0.08732558 0.3145545
v 0.281602 -0.08054806 0.4398317
v 0.2803663 -0.08495477 0.2773559
v 0.2815998 -0.07512698 -0.4235257
v 0.2777651 -0.08714306 -0.09193964
v 0.2808903 -0.08265939 -0.2229483
v 0.2803362 -0.08485045 -0.4421266
v 0.2725826 -0.08734884 -0.2088249
v 0.2788605 -0.08667895 -0.2765912
v 0.2733561 -0.08734953 -0.4387176
vt 0.7986966 0.770708
vt 0.8045251 0.7707405
vt 0.8109649 0.7650058
vt 0.7976002 0.7445441
vt 0.797597 0.7689365
vt 0.8109167 0.7469847
vt 0.8073064 0.741169
vt 0.9815964 0.5709321
vt 0.9766018 0.5722479
vt 0.9881022 0.5731674
vt 0.9766016 0.5974853
vt 0.989834 0.5987201
vt 0.9768549 0.5997041
vt 0.9828328 0.6011526
vt 0.9904953 0.5797698
vt 0.991587 0.5937043
vt 0.1380604 0.9016818
vt 0.0743183 0.8992116
vt 0.1188679 0.9011218
vt 0.3304503 0.8955891
vt 0.3297251 0.8995531
vt 0.153771 0.9038172
vt 0.3309626 0.9011243
vt 0.2573299 0.8898738
vt 0.3250498 0.8883054
vt 0.330467 0.8874024
vt 0.3276662 0.8838742
vt 0.3302329 0.8793684
vt 0.3297375 0.8649092
vt 0.07737508 0.8815732
vt 0.2765265 0.8878292
vt 0.2512677 0.8874045
vt 0.227431 0.8911466
vt 0.2266097 0.8848693
vt 0.1851283 0.8833875
vt 0.08117346 0.8930354
vt 0.07362804 0.8883125
vt 0.2203017 0.8893915
vt 0.2022185 0.8913175
vt 0.2015591 0.8872954
vt 0.1932111 0.8899257
vt 0.10582 0.891528
vt 0.1799167 0.8886011
vt 0.07708134 0.8888205
vt 0.07370737 0.8688541
vt 0.0767756 0.865843
vt 0.07567215 0.8636299
vt 0.07412449 0.8609508
vt 0.3251374 0.8602681
vt 0.3304518 0.8588444
vt 0.09815103 0.8648282
vt 0.3123096 0.8585903
vt 0.32822 0.8504919
vt 0.09953099 0.8621399
vt 0.2251185 0.8500009
vt 0.07711408 0.8518006
vt 0.0741936 0.8491163
vt 0.07571223 0.8492689
vt 0.07244317 0.8247862
vt 0.2401516 0.8476287
vt 0.3180705 0.8454463
vt 0.3286924 0.8440832
vt 0.2215297 0.8463446
vt 0.3298935 0.8421819
vt 0.1860133 0.8503464
vt 0.1649682 0.8486535
vt 0.1953478 0.8455995
vt 0.1793496 0.8427916
vt 0.07848704 0.8382322
vt 0.3272786 0.8268289
vt 0.3286045 0.8165255
vt 0.1390755 0.8252633
vt 0.1523103 0.8203492
vt 0.1365748 0.8196253
vt 0.123539 0.8236113
vt 0.1171005 0.8190011
vt 0.09405634 0.8221769
vt 0.07174274 0.8226814
vt 0.07196778 0.8164703
vt 0.9687333 0.6367168
vt 0.9699567 0.6385156
vt 0.9690689 0.6102906
vt 0.9821891 0.6123864
vt 0.9834853 0.6370963
vt 0.9827652 0.6091446
vt 0.9834784 0.611285
vt 0.9079686 0.57153
vt 0.9189754 0.5699515
vt 0.909027 0.5693406
vt 0.9213629 0.5732298
vt 0.9227808 0.5733349
vt 0.9227878 0.5978969
vt 0.9125757 0.5949403
vt 0.9077537 0.5914466
vt 0.9152105 0.5996865
vt 0.9102988 0.5970563
vt 0.8536329 0.7696404
vt 0.8535905 0.7411739
vt 0.8401437 0.7412574
vt 0.8398893 0.7696404
vt 0.9087372 0.6372875
vt 0.9214648 0.6371771
vt 0.9230757 0.6354546
vt 0.9096997 0.6347889
vt 0.9087419 0.6104912
vt 0.9203938 0.6114368
vt 0.9234105 0.6182987
vt 0.9194793 0.6076787
vt 0.9229708 0.6114303
vt 0.8066317 0.8168165
vt 0.5529882 0.8187808
vt 0.5530792 0.8256607
vt 0.7015188 0.8386384
vt 0.5653808 0.8392397
vt 0.5517114 0.8427639
vt 0.6471039 0.8430696
vt 0.5524589 0.8449939
vt 0.6996431 0.8450581
vt 0.8072497 0.8393578
vt 0.8087358 0.8132693
vt 0.8086465 0.8417146
vt 0.7079236 0.8427024
vt 0.557444 0.849245
vt 0.5522007 0.8566754
vt 0.8073101 0.8433372
vt 0.7003526 0.8515346
vt 0.807524 0.8546713
vt 0.8087024 0.8560582
vt 0.7197855 0.8554019
vt 0.7051893 0.8566459
vt 0.5811228 0.8545091
vt 0.6017144 0.853237
vt 0.5817626 0.8582904
vt 0.5537705 0.8669533
vt 0.5529757 0.8833366
vt 0.5914266 0.8559947
vt 0.6016048 0.8604421
vt 0.6176009 0.8548359
vt 0.6865461 0.8558772
vt 0.6196833 0.8601978
vt 0.6337813 0.8573729
vt 0.8073797 0.8591641
vt 0.8074395 0.8830249
vt 0.8083128 0.8846124
vt 0.799961 0.8739282
vt 0.5683862 0.8829342
vt 0.7472408 0.8817042
vt 0.7823896 0.8828173
vt 0.7956834 0.8845485
vt 0.7870671 0.8875643
vt 0.5594615 0.8835807
vt 0.5567438 0.8864606
vt 0.5538796 0.8953785
vt 0.776234 0.886359
vt 0.8054094 0.8960468
vt 0.8080097 0.8978451
vt 0.5647919 0.8968699
vt 0.5599591 0.8986657
vt 0.5543713 0.9014623
vt 0.8059988 0.9014604
vt 0.5790955 0.8861523
vt 0.6731308 0.8858782
vt 0.7574866 0.8863627
vt 0.6042357 0.8846752
vt 0.6397494 0.8832455
vt 0.6801394 0.8834177
vt 0.7356629 0.8846086
vt 0.6891388 0.8843514
vt 0.7356614 0.2728553
vt 0.7363138 0.2771653
vt 0.761241 0.2746451
vt 0.7489014 0.2808841
vt 0.7602268 0.5276384
vt 0.7462964 0.526439
vt 0.736654 0.5050648
vt 0.7360966 0.324296
vt 0.7356879 0.3428552
vt 0.7356338 0.5163676
vt 0.7367344 0.5283753
vt 0.7617878 0.530525
vt 0.763552 0.5280934
vt 0.7733985 0.529623
vt 0.7724054 0.2841455
vt 0.7741393 0.3397937
vt 0.761227 0.3741332
vt 0.762525 0.4428759
vt 0.7642719 0.3900311
vt 0.7658476 0.3711952
vt 0.7626894 0.2828161
vt 0.7648094 0.2754017
vt 0.7628499 0.3572924
vt 0.7757937 0.2751811
vt 0.774876 0.3474061
vt 0.7747024 0.5119358
vt 0.7765615 0.5202355
vt 0.7783694 0.5304473
vt 0.7863495 0.5272734
vt 0.8025798 0.5307233
vt 0.7785451 0.5043151
vt 0.7758986 0.4687333
vt 0.7759958 0.3464887
vt 0.7792036 0.3272436
vt 0.8028809 0.2742772
vt 0.7844782 0.2785705
vt 0.7790501 0.3105742
vt 0.8040165 0.5294865
vt 0.8125952 0.5309784
vt 0.8045067 0.275166
vt 0.8104912 0.2743807
vt 0.805203 0.5245839
vt 0.8135737 0.5284918
vt 0.7744148 0.3144227
vt 0.7740691 0.3063765
vt 0.7775155 0.2963395
vt 0.7746435 0.2924657
vt 0.817116 0.5277988
vt 0.816871 0.5321317
vt 0.8195947 0.5295228
vt 0.8192176 0.5170617
vt 0.8164508 0.5072032
vt 0.8210382 0.5052857
vt 0.8179765 0.4984026
vt 0.8190869 0.3433034
vt 0.8171092 0.3662587
vt 0.8148463 0.3433045
vt 0.8158166 0.3276205
vt 0.8193237 0.3239939
vt 0.816655 0.2796414
vt 0.8159556 0.2733929
vt 0.8196054 0.2764525
vt 0.8173648 0.3147463
vt 0.04223648 0.7636328
vt 0.04559267 0.7637183
vt 0.04341155 0.7387718
vt 0.05723438 0.7420355
vt 0.05497482 0.7380851
vt 0.05723983 0.7655869
vt 0.04849604 0.7664034
vt 0.9335811 0.6005017
vt 0.9334227 0.5891508
vt 0.9313587 0.5959681
vt 0.9590805 0.5901499
vt 0.9592345 0.6036438
vt 0.9605511 0.589121
vt 0.9612884 0.6010074
vt 0.9347405 0.6119377
vt 0.9316432 0.615495
vt 0.9315335 0.6242008
vt 0.9325268 0.6397845
vt 0.9313587 0.6368833
vt 0.9458733 0.6392381
vt 0.9458703 0.6109929
vt 0.7892462 0.7420899
vt 0.7783582 0.7698696
vt 0.7892506 0.7697523
vt 0.7777396 0.7446498
vt 0.7815043 0.7411659
vt 0.7749755 0.7567702
vt 0.269649 0.3498248
vt 0.2578347 0.1001045
vt 0.2567764 0.3494797
vt 0.2787377 0.09480864
vt 0.2527145 0.09310257
vt 0.2810158 0.09340335
vt 0.2762424 0.2762944
vt 0.2801146 0.3386486
vt 0.2787631 0.3489564
vt 0.281398 0.344209
vt 0.2841181 0.3497767
vt 0.2841221 0.3397753
vt 0.2894769 0.3455814
vt 0.295453 0.3496957
vt 0.2804539 0.1460728
vt 0.2778971 0.1637209
vt 0.2827414 0.09510657
vt 0.289263 0.09414025
vt 0.2817046 0.272602
vt 0.2815275 0.3279386
vt 0.2848651 0.3225512
vt 0.2826474 0.1512287
vt 0.2825222 0.315516
vt 0.282851 0.255812
vt 0.2793879 0.255932
vt 0.2815345 0.1579146
vt 0.2809637 0.1918849
vt 0.2920178 0.1413311
vt 0.2949487 0.1003149
vt 0.2963255 0.09317422
vt 0.3012241 0.09530596
vt 0.3101968 0.09319237
vt 0.2970832 0.1520559
vt 0.2944421 0.171514
vt 0.2956928 0.1788583
vt 0.2932546 0.2938292
vt 0.2990673 0.3417583
vt 0.2950096 0.2750376
vt 0.2976271 0.2936272
vt 0.2953932 0.3151608
vt 0.3205029 0.3481219
vt 0.3236772 0.3495645
vt 0.3191108 0.09578808
vt 0.3254246 0.09336613
vt 0.3230487 0.1272837
vt 0.323622 0.098829
vt 0.3362762 0.09452645
vt 0.3377187 0.09313434
vt 0.3253251 0.1217187
vt 0.3238446 0.1953427
vt 0.3250289 0.3483809
vt 0.3372018 0.3498029
vt 0.3301135 0.3477499
vt 0.3351066 0.2563756
vt 0.3376871 0.2263252
vt 0.3404118 0.2664708
vt 0.3428648 0.09993412
vt 0.3402297 0.3490272
vt 0.3379135 0.2888405
vt 0.02045341 0.741159
vt 0.007818043 0.7396104
vt 0.00781253 0.7686432
vt 0.02007468 0.7673478
vt 0.02217716 0.7549305
vt 0.9880471 0.6499466
vt 0.9914083 0.6612132
vt 0.9921875 0.6488131
vt 0.7402314 0.662886
vt 0.7351202 0.6491992
vt 0.7351346 0.6727856
vt 0.98544 0.6747044
vt 0.7349111 0.6743684
vt 0.9877672 0.6765455
vt 0.9909118 0.6766652
vt 0.7406225 0.6754971
vt 0.7336873 0.6863394
vt 0.9893498 0.6819355
vt 0.8569651 0.6867872
vt 0.990307 0.6890556
vt 0.9368043 0.6866664
vt 0.9064803 0.6911672
vt 0.9153876 0.6888453
vt 0.9895239 0.6921281
vt 0.7346797 0.6948059
vt 0.986929 0.7159978
vt 0.9898611 0.7178615
vt 0.8706 0.6880869
vt 0.852014 0.6900282
vt 0.8489478 0.6916674
vt 0.8414404 0.6873363
vt 0.8192071 0.689855
vt 0.8154924 0.6869839
vt 0.7359554 0.6885313
vt 0.8268757 0.6871443
vt 0.8238155 0.6871871
vt 0.8149048 0.6880203
vt 0.7326832 0.690636
vt 0.7344378 0.7188135
vt 0.7370014 0.7165735
vt 0.8233081 0.7174408
vt 0.7379538 0.7284949
vt 0.7377483 0.7087046
vt 0.8339374 0.7140051
vt 0.8410699 0.7197607
vt 0.8670722 0.7142192
vt 0.8772488 0.7167235
vt 0.865063 0.7206745
vt 0.8797004 0.721658
vt 0.9874271 0.723506
vt 0.9071646 0.7186545
vt 0.9892118 0.7300773
vt 0.986105 0.7302332
vt 0.9853969 0.7331933
vt 0.9777337 0.7271217
vt 0.9705584 0.7315632
vt 0.9253345 0.7259387
vt 0.9299799 0.7318492
vt 0.7369915 0.7331681
vt 0.940946 0.7282053
vt 0.7783071 0.730391
vt 0.9179957 0.7299169
vt 0.7410208 0.7411676
vt 0.7629706 0.7429414
vt 0.7643678 0.741165
vt 0.7659075 0.742005
vt 0.766859 0.7538689
vt 0.7638116 0.7551077
vt 0.7367449 0.7536107
vt 0.7404459 0.743128
vt 0.7366173 0.7426784
vt 0.81927 0.008930655
vt 0.8082098 0.2591214
vt 0.8195161 0.2581882
vt 0.8224235 0.2635763
vt 0.7972844 0.2629706
vt 0.7953714 0.009754427
vt 0.7928776 0.008585657
vt 0.7972988 0.2363666
vt 0.792909 0.1030062
vt 0.7961487 0.1277681
vt 0.7916487 0.009579608
vt 0.7793403 0.00888515
vt 0.7904965 0.1299617
vt 0.7872445 0.01924124
vt 0.7932225 0.1457779
vt 0.7943283 0.2209423
vt 0.7905557 0.2494983
vt 0.7932807 0.2374151
vt 0.7953276 0.2481867
vt 0.7939405 0.258705
vt 0.7915101 0.2636346
vt 0.7810771 0.2639558
vt 0.7837822 0.08858238
vt 0.7793522 0.09140905
vt 0.7772416 0.008717169
vt 0.7802565 0.156876
vt 0.7789211 0.2649136
vt 0.78088 0.1238755
vt 0.7752335 0.1203061
vt 0.7778592 0.150008
vt 0.7691853 0.01776822
vt 0.7593577 0.2634338
vt 0.7547404 0.01216636
vt 0.7516069 0.008404513
vt 0.7538634 0.2572243
vt 0.7523488 0.2647297
vt 0.7540702 0.09749055
vt 0.7501705 0.2521645
vt 0.7464252 0.2630665
vt 0.7463332 0.2162237
vt 0.7511349 0.1325404
vt 0.7531936 0.1006936
vt 0.7482843 0.09745164
vt 0.7500211 0.08681697
vt 0.7509352 0.02960939
vt 0.7499605 0.009424779
vt 0.7377557 0.0078125
vt 0.74581 0.01174851
vt 0.7388285 0.04557699
vt 0.735726 0.008698727
vt 0.7372281 0.05642861
vt 0.7356338 0.2594848
vt 0.7387426 0.1629516
vt 0.7374653 0.2013623
vt 0.7385846 0.2648634
vt 0.7403686 0.1970692
vt 0.7388266 0.2169058
vt 0.7408017 0.2637272
vn 0.03274243 0.01342967 -0.9993736
vn -0.06934169 0.2106328 -0.9751028
vn 0.009929661 0.006219245 -0.9999313
vn 0.003454957 -0.009025617 -0.9999533
vn 0.5917248 0.005918574 -0.8061183
vn -0.008708722 -0.01770315 -0.9998054
vn -0.02530387 -0.09151745 -0.9954818
vn -0.009943505 0.3069133 0.9516856
vn 0.01599254 0.005097749 0.9998591
vn 0.01066255 0.001582212 0.9999419
vn 0.01154835 -0.04173314 0.9990621
vn -0.006749797 -0.01975369 0.9997821
vn 0.05501329 -0.5787084 0.813677
vn 0.03774517 -0.7135689 0.6995675
vn -0.07695694 -0.001023324 0.997034
vn -0.6778134 -0.02433756 0.734831
vn 0.01969142 0.9998061 -9.15741E-05
vn -0.05287806 0.9977722 -0.040676
vn -0.1162949 0.9931847 0.007710884
vn 0.004253409 0.9999665 0.006992781
vn 0.2586612 0.9659522 0.005541145
vn 0.1560698 0.9877452 -0.001257825
vn 0.7111267 0.7029532 0.01247882
vn -0.02836775 0.9995968 -0.00128066
vn -0.3171961 0.9480463 0.02439257
vn -0.4553636 0.7342861 0.5034561
vn -0.9998558 0.01585345 0.00609999
vn -0.9279073 0.04671446 0.3698727
vn -0.9999931 -0.003582514 0.0009927357
vn -0.9999796 -0.001264432 -0.006267293
vn -0.8471509 0.5313012 -0.007367601
vn -0.961729 0.2739575 -0.004961433
vn -0.4662099 0.8846412 -0.007649492
vn -0.9911833 0.1324616 -0.003091313
vn -0.9998116 0.01933138 0.001785109
vn -0.1244434 0.9920396 -0.01927545
vn -0.7926236 0.3996199 -0.4604906
vn -0.871834 0.4892289 0.02367467
vn -0.4762162 0.8792194 0.01382778
vn -0.9870635 0.1601944 0.006596612
vn -0.6644402 0.7473412 0.000500622
vn -0.873248 0.4872718 -0.002036494
vn -0.9974157 0.07184325 0.0007844313
vn -0.9982071 0.05516135 -0.02323442
vn -0.9663145 -0.01282348 -0.2570444
vn -0.9999299 -0.01159901 -0.002367585
vn -0.4179295 -0.8913165 -0.1757553
vn 0.002761867 -0.9998897 -0.01459123
vn -0.9987559 -0.04967602 0.004347397
vn -0.3671617 -0.921666 0.1253957
vn -0.8616807 -0.50745 0.0009117543
vn -0.2694221 -0.9630216 0.001039128
vn -0.01784223 -0.9996703 0.0184635
vn -0.2892495 -0.9572531 -0.001167405
vn 0.0333881 -0.9994412 -0.001546951
vn 0.1580105 -0.9872865 -0.01726849
vn 0.6500567 -0.3124944 -0.6926568
vn 0.9953539 -0.09457996 -0.01803077
vn 0.9993436 0.03614024 -0.002495804
vn 0.293228 -0.9560413 -0.00148067
vn 0.2429185 -0.970044 0.002247478
vn 0.942354 -0.3343554 0.01324667
vn 0.8829252 -0.4695126 0.000957906
vn 0.9999545 -0.009546324 0.000185501
vn 0.5715985 -0.8204105 -0.01419783
vn 0.9018596 -0.4320107 0.004003702
vn 0.9892542 -0.1459513 -0.008611284
vn 0.9991382 -0.04103615 0.006232147
vn 0.9999956 -0.002202971 -0.001997406
vn 0.9999969 0.00228443 0.0009676134
vn 0.999881 0.01542147 0.0004014499
vn 0.9997038 0.02427991 -0.001653274
vn 0.989997 0.1410349 -0.003877653
vn 0.8358416 0.5486506 -0.01874851
vn 0.8585205 0.5127303 0.007084398
vn 0.4955109 0.8672375 0.04866393
vn 0.4583605 0.8887571 0.004083176
vn 0.2599089 0.9656295 -0.002640156
vn 0.03649538 0.9993334 -0.0008849663
vn 0.6841132 -0.01397921 0.7292419
vn 0.02672449 -0.00471882 0.9996318
vn 0.01658018 0.007961044 0.9998308
vn -0.05460142 0.02931753 0.9980778
vn -0.005047511 -0.007287568 0.9999608
vn -0.04258446 0.3090475 0.9500927
vn -0.5797661 0.05599179 0.8128568
vn -0.02588023 0.02913999 -0.9992403
vn 0.02137648 0.2429695 -0.9697983
vn -0.02985887 0.4376587 -0.8986453
vn 0.08111977 0.02962638 -0.9962639
vn 0.8029485 0.05822267 -0.593198
vn 0.02059854 -0.04101958 -0.998946
vn -0.04342654 -0.03998038 -0.9982563
vn -0.4302349 -0.06574113 -0.90032
vn -0.1208307 -0.4883088 -0.8642654
vn -0.07210338 -0.09523869 -0.9928397
vn -0.001053319 -0.001321015 0.9999986
vn -0.01439254 0.005197517 0.9998829
vn -0.009049076 0.002586255 0.9999558
vn 0.004081689 -0.003830253 0.9999844
vn -0.1266774 -0.2154429 -0.9682651
vn 0.007900928 -0.434577 -0.9006
vn 0.01424855 -0.0228197 -0.9996381
vn -0.06621961 -0.02926909 -0.9973757
vn -0.01051218 0.01049729 -0.9998896
vn 0.0553181 0.03914943 -0.997701
vn 0.7358475 0.05096127 -0.675227
vn 0.0629089 0.336209 -0.939684
vn 0.6431111 0.09904724 -0.7593405
vn 0.9999807 -0.0008921374 0.006150794
vn 0.9999678 0.008021782 -7.669947E-05
vn 0.9999942 0.003413682 -0.0003581773
vn 0.9998822 -0.01534476 3.363821E-06
vn 0.9999458 -0.01041949 -0.0002328216
vn 0.941447 -0.3371024 -0.006279134
vn 0.8813562 -0.472452 0.0006817452
vn 0.3376957 -0.9412419 -0.005024708
vn 0.4060392 -0.913833 0.006438158
vn 0.9997097 -0.0227554 0.007923853
vn 0.9795098 0.002882479 0.2013761
vn 0.8504651 -0.5251048 0.03120898
vn 0.8404041 -0.5419241 -0.006252029
vn 0.01049873 -0.9999428 -0.002065053
vn -0.8656082 -0.5006489 -0.008555708
vn 0.04970702 -0.9987418 0.006637525
vn -0.009864688 -0.9999509 0.000946137
vn -0.0635979 -0.9979262 0.009931872
vn -0.9441826 -0.3285355 0.02415999
vn -0.2062535 -0.9784976 -0.001424456
vn -0.9248399 -0.3803327 -0.004243614
vn -0.2056103 -0.978556 0.01235311
vn -0.1240633 -0.9922743 4.347695E-05
vn -0.9753964 -0.2204197 0.004113447
vn -0.9999127 0.00112803 -0.01316197
vn -0.9404317 0.2568658 -0.222729
vn -0.6552085 -0.7538152 0.04964346
vn -0.9614067 -0.2750615 0.006192524
vn -0.2826105 -0.9591213 -0.01475772
vn -0.2225694 -0.9749154 0.00166763
vn -0.9990789 -0.04279948 -0.003114744
vn -0.9684942 -0.2490008 -0.004175126
vn -0.9998009 -0.01913525 0.005662971
vn -0.9926923 0.05038033 0.1096539
vn -0.1174993 0.9922875 0.03949066
vn -0.9999975 -0.002100168 0.000856896
vn -0.999898 0.01428582 -0.0003136616
vn -0.9991984 0.03988964 0.003388448
vn -0.9875879 0.1570677 0.0002795998
vn -0.6153758 0.788004 -0.01903596
vn -0.007367573 0.9999716 -0.00160561
vn -0.9632783 0.2650682 -0.04282102
vn -0.01933284 0.9997442 -0.01173539
vn 0.006466903 0.9999567 -0.006685307
vn -0.205836 0.9785758 -0.004585317
vn 0.1005331 0.9949208 0.00507449
vn 0.928118 0.372254 0.004882364
vn 0.3335564 0.9427292 -0.001300704
vn 0.9874426 0.1578964 -0.005098289
vn 0.9922522 0.1210851 -0.02782121
vn 0.9933968 0.1147286 0.000486426
vn -0.4839218 0.8748126 -0.02286069
vn -0.3373488 0.9413773 -0.002103258
vn -0.7009109 0.7131879 0.009316807
vn -0.6484225 0.7612805 -0.0005024017
vn -0.836713 0.5473902 0.01659793
vn -0.9827885 0.1846911 -0.003983489
vn -0.649692 0.7601812 0.004972732
vn -0.742659 0.669669 -0.001040775
vn 0.6399834 -0.07738516 -0.7644821
vn 0.9994097 -0.009716358 -0.03295127
vn 0.9998384 0.0171969 -0.005249561
vn 0.9999987 0.00151887 -0.000522442
vn 0.9980178 0.06282017 0.003752122
vn 0.9999907 0.003563819 0.002443763
vn 0.9999704 -0.007691346 6.992904E-07
vn 0.9825426 -0.1860359 0.0007573337
vn 0.9997857 -0.02070043 -0.0002144272
vn 0.9998977 -0.01338814 0.005033957
vn 0.9992624 -0.025776 0.02846363
vn 0.9220568 0.3598564 0.1425297
vn 0.06782149 0.997691 0.003576476
vn -0.01466895 0.9998872 0.003222475
vn 0.0007183223 0.9999981 -0.001808168
vn -0.1053612 0.994402 -0.00797798
vn 0.8353239 0.5497516 -0.002675517
vn 0.7049609 0.7092461 0.0002833992
vn 0.2573953 0.9662814 -0.006909085
vn 0.02821038 0.999598 0.002844434
vn 0.6919718 0.7219131 -0.004076547
vn 0.05545177 0.9984124 -0.009892159
vn 0.4024611 0.9154352 0.00186851
vn -0.9302531 0.3666636 -0.01367442
vn -0.290965 0.9567334 -0.0007439884
vn -0.2838644 0.9588555 -0.004133963
vn -0.9767262 0.2136901 0.0185032
vn -0.9819468 0.175907 0.06954931
vn -0.9999776 -0.006090031 0.002801518
vn -0.9996018 -0.02808009 0.002809244
vn -0.9989567 0.04563441 0.001767667
vn -0.9446889 0.3279675 0.0003202453
vn -0.9827667 0.1848308 -0.002666276
vn -0.9995102 0.03129463 -0.000176655
vn -0.9990128 -0.04439963 -0.001389412
vn -0.999995 -0.002518758 -0.001908798
vn -0.9803987 0.1970092 -0.002391333
vn -0.9101778 -0.4129524 0.03235161
vn 0.07804437 -0.9066623 0.4145749
vn -0.2855085 -0.9583489 -0.007232005
vn -0.03607158 -0.9993321 -0.005839589
vn -0.077338 -0.9970035 0.001651728
vn 0.01296561 -0.9998766 0.008874035
vn -0.6359715 0.7716605 -0.00896621
vn -0.7943227 0.606523 0.03437121
vn -0.7880315 0.6144017 0.03894849
vn -0.4028631 0.9143765 0.04021066
vn 0.6336527 -0.7675799 0.09646349
vn 0.4706858 -0.6000589 0.6468264
vn 0.8477958 -0.4638734 0.2570286
vn 0.662965 -0.7454256 0.06941188
vn 0.1079108 -0.9941585 0.002045881
vn 0.9765121 -0.2147259 0.0178004
vn 0.8994113 -0.4370993 0.001885479
vn 0.6282923 -0.7778211 -0.01559732
vn 0.462734 -0.8864961 -0.001351578
vn 0.04879974 -0.9988079 -0.001165873
vn 0.5250403 -0.8510659 0.004442397
vn 0.8058015 -0.5909188 0.03871574
vn 0.2238707 -0.9744703 -0.01701703
vn 0.3549219 -0.8369398 -0.416608
vn 0.7899047 -0.5996891 -0.1281546
vn 0.7658941 -0.6429483 0.004868817
vn 0.6376669 -0.05626648 0.7682545
vn 0.1160415 -0.01389695 0.9931471
vn 0.02110154 0.01308159 0.9996917
vn -0.0005526539 0.01962706 0.9998073
vn -0.04344537 0.2299206 0.9722392
vn -0.01143996 -0.005205146 0.9999211
vn 0.01768745 -0.1986587 0.9799091
vn -0.01158259 -0.007090501 -0.9999079
vn -0.02145618 -0.008962597 -0.9997296
vn -0.002371033 -0.4087997 -0.9126211
vn -0.09466743 0.041086 -0.9946608
vn 0.004460918 0.02033137 -0.9997833
vn -0.4137141 0.341507 -0.8439275
vn 0.01265569 0.3666762 -0.9302626
vn -0.00050637 0.0001528673 0.9999999
vn 0.3366502 0.03441745 0.9410006
vn 0.2603666 0.01258599 0.9654278
vn 0.01499407 -0.007693127 0.999858
vn 0.7169838 -0.023398 0.6966971
vn -0.0006163379 -0.005716408 0.9999835
vn -0.02007613 0.002243972 0.999796
vn 0.004668833 0.009193092 -0.9999468
vn 0.00743099 -0.001172038 -0.9999717
vn 0.01547869 -0.002291473 -0.9998776
vn -0.003611641 0.01163039 -0.9999259
vn -0.07153068 0.3227372 -0.9437818
vn -0.12766 -0.002059861 -0.9918159
vn 0.9999926 -0.003853684 0.0003031479
vn 0.999999 0.0007261644 -0.001242525
vn 0.999982 -0.006006802 0.0001642397
vn 0.9999421 0.009422127 -0.005204237
vn 0.9992353 -0.007626141 -0.03834803
vn 0.8646086 0.4971512 -0.07274932
vn 0.9998486 0.01739451 -0.0003059566
vn 0.9989358 0.04599181 0.003494729
vn 0.9913977 0.1132894 0.06554361
vn 0.7823473 0.6125257 0.112893
vn 0.3132212 0.9283357 0.2002128
vn 0.2260327 0.9737204 0.02788885
vn -0.01032304 0.9996458 0.02452751
vn -0.5997887 0.7994623 0.03337039
vn 0.8272313 0.561837 0.00523591
vn 0.9553623 0.2951123 -0.01384497
vn 0.03234683 0.999471 -0.003370997
vn -0.008947527 0.9999211 -0.008815622
vn 0.9468312 0.321725 -0.001948014
vn 0.8872507 0.4612791 0.002772687
vn 0.01766725 0.9998425 0.001681802
vn 0.0948964 -0.9954853 -0.00193073
vn 0.3455952 0.9383827 0.001357827
vn 0.4185842 0.9081779 0.0003534221
vn 0.9874167 0.1581389 0.0004577993
vn 0.431345 0.9020996 0.01256485
vn 0.8963081 0.4434317 -0.000351117
vn -0.1168951 0.9931218 0.00668115
vn -0.7624348 0.6466543 -0.02305125
vn -0.6567968 0.4971103 -0.5670091
vn -0.9997808 0.01213593 -0.01705934
vn -0.9999964 -0.0009602883 -0.002510131
vn -0.7921826 0.6096933 -0.02684779
vn -0.09332564 0.9956329 -0.002331048
vn -0.9927024 0.1205891 -0.0006221319
vn -0.1087617 0.9940677 -0.0006656899
vn -0.9999921 0.003773774 0.001265627
vn -0.6690912 0.7431715 0.003613933
vn -0.944051 0.3297957 0.001566252
vn -0.8449194 0.5348898 -0.001967438
vn -0.9998129 -0.01900311 0.003631177
vn -0.9640253 -0.2654913 0.01302165
vn -0.9996964 -0.01409539 -0.02021076
vn -0.2990265 -0.8994258 -0.3187732
vn -0.9840176 -0.178069 -0.0008665047
vn -0.4660099 -0.8838798 -0.03989119
vn 0.1873638 -0.9821071 -0.01898243
vn 0.964206 -0.2648527 -0.01263679
vn -0.01278491 -0.9999182 -0.0002190708
vn -0.5328318 -0.8462209 -0.0005766473
vn -0.1373026 -0.9904755 0.01031439
vn 0.2695023 -0.9629889 0.004579278
vn 0.002138941 -0.999995 0.002362934
vn 0.06724151 -0.9977319 0.003073363
vn 0.7235676 -0.6902497 0.002268938
vn 0.967636 -0.2517651 -0.01716926
vn 0.9986524 -0.05189516 -0.0005671989
vn 0.9613013 -0.275389 0.007792924
vn 0.7788383 -0.6272118 -0.004029758
vn 0.02879592 0.009818696 0.9995371
vn 0.04140452 0.01388949 0.9990459
vn 0.01566822 0.002148524 0.9998749
vn -0.001177555 -0.003499096 0.9999932
vn -0.3225123 -0.006936153 0.9465399
vn -0.9999546 -0.006895915 0.006584483
vn -0.9999975 0.001657805 0.001542916
vn -0.8956646 -0.1214131 0.4278362
vn -0.9999963 0.002696129 -0.000475328
vn -0.999992 -0.003997624 -0.0001378876
vn -0.9983373 0.0576421 -0.0003288473
vn -0.9974563 0.071224 0.002861079
vn -0.8899742 0.4557899 -0.0141888
vn -0.1723541 0.9849595 0.0121957
vn -0.8596859 0.3370926 0.3838082
vn -0.06733584 0.9977295 -0.001306109
vn 0.01240312 0.9999157 -0.003826144
vn -0.02029309 0.9996585 0.01646177
vn 0.05673181 0.9983884 -0.001467429
vn 0.5032917 0.8640984 0.005615127
vn 0.197651 0.9802126 -0.01083664
vn 0.9956874 0.09272742 -0.00285124
vn 0.3421838 0.93919 0.02885038
vn 0.9999743 0.006473891 0.003090758
vn 0.9997531 0.007271325 -0.02099884
vn 0.9999632 -0.008424215 0.001681171
vn 0.2868123 -0.9578261 0.01754667
vn 0.7001366 0.7140077 -0.001249184
vn 0.8893268 0.4572524 0.004249178
vn 0.996466 0.08398124 0.001586222
vn 0.5865881 0.8098317 0.009330172
vn 0.9751257 0.2215534 0.006615636
vn 0.05408314 0.9985365 0.0003084943
vn 0.9531363 0.302417 -0.008672715
vn 0.6027938 0.7978936 -0.002310375
vn 0.5998224 0.7997609 0.02440356
vn 0.6215046 0.7833909 0.005540545
vn 0.6788777 0.1467101 -0.719445
vn 0.07579601 -0.9958447 -0.05048197
vn 0.9282553 -0.3664015 -0.06396931
vn 0.5023314 -0.8646644 0.00428465
vn -0.1516812 -0.988422 -0.003851352
vn 0.9999905 -0.004156401 -0.00133087
vn 0.9739031 -0.2258997 0.0219577
vn 0.1711212 -0.9852479 0.002052708
vn 0.984639 -0.1743128 -0.01005212
vn 0.928965 -0.3700455 -0.009505474
vn 0.6162392 -0.7875419 -0.005179483
vn 0.02174973 -0.9997619 -0.001793301
vn 0.02356252 -0.9992519 0.03066396
vn 0.2562371 -0.9666106 0.002576021
vn -0.2570192 -0.8839673 0.3905675
vn -0.4092681 -0.9083725 0.08578598
vn -0.8662674 -0.498538 0.03225777
vn -0.0840266 -0.9964414 -0.006635793
vn -0.5592605 -0.8289824 0.003983075
vn -0.03951189 -0.9991983 0.006455814
vn -0.9545475 -0.2980591 0.000159297
vn -0.8960104 -0.4434576 -0.0225973
vn -0.3096637 -0.9508445 -0.001757036
vn -0.8781747 -0.478339 -0.001022614
vn -0.2962243 -0.9551138 0.002974345
vn -0.6357414 -0.07292619 -0.7684495
vn -0.1655943 0.04675861 -0.985085
vn -0.931098 0.03305857 -0.363268
vn -0.1412994 0.4753175 -0.8683937
vn -0.02071669 0.200012 -0.9795744
vn -0.002378616 0.01357146 -0.9999051
vn -0.009251701 -0.02665549 -0.9996019
vn -0.09430791 -0.07590267 -0.9926454
vn -0.2128501 -0.6447429 -0.7341672
vn 0.9999993 -0.001156724 0.0002489257
vn 0.9999913 -0.002984499 -0.002923032
vn 0.9999791 -0.006246363 -0.001669526
vn 0.9980006 -0.01063718 -0.06230396
vn 0.9975478 0.06000348 -0.03602799
vn 0.9999868 0.004763595 0.001980024
vn 0.9550099 0.2942365 0.03716359
vn 0.9998969 0.01435492 -0.0004175658
vn 0.7602189 0.649665 -0.001637066
vn 0.9215232 0.3881005 -0.01315447
vn 0.3562866 0.9330587 0.04961227
vn -0.4221063 0.9065434 0.002299376
vn 0.170612 0.9853294 0.004176329
vn 0.01191751 0.999929 0.0002846849
vn 0.5831054 0.8123925 0.002568377
vn 0.9533669 0.3018059 -0.002161975
vn 0.001238989 0.9999993 0.0002180348
vn 0.2601614 0.9655636 -0.001773695
vn 0.8542294 0.519896 -0.0004583407
vn 0.3984428 0.9162568 -0.04143231
vn 0.1508788 0.9849229 -0.08463104
vn -0.2690205 0.9631342 -0.0007711949
vn -0.05376707 0.9985507 -0.002343405
vn -0.8295004 0.5584976 -0.003102256
vn -0.9961876 0.08721553 0.001939176
vn -0.4599141 0.8879609 0.002140346
vn -0.9998345 0.01818723 -0.0001580105
vn -0.729167 0.6843078 0.006199125
vn -0.9967552 0.08043608 -0.003008732
vn -0.9908749 0.1346539 0.005938197
vn -0.9999987 0.001555596 0.0005223712
vn -0.9999989 0.0001060427 -0.001471372
vn -0.999935 -0.01111509 0.00253434
vn -0.9863847 -0.1527823 0.06085147
vn -0.995427 -0.09531444 -0.006344532
vn -0.6719509 -0.7139637 -0.1968192
vn -0.9896719 -0.1432472 0.005447389
vn -0.4621191 -0.8867243 -0.01288037
vn -0.06496648 -0.9975677 -0.02526062
vn -0.005849691 -0.9999827 -0.0006100716
vn -0.5742713 -0.8186649 0.0005009885
vn -0.9200992 -0.3912019 0.01945266
vn -0.08162097 -0.9966629 -0.001020678
vn -0.5349814 -0.8447767 -0.01213198
vn -0.8306022 -0.5568632 -0.001799755
vn -0.1403768 -0.9867097 0.08184388
vn 0.2214959 -0.9751544 0.003660318
vn -0.001867067 -0.9999905 0.003949109
vn 0.042207 -0.999108 0.001249754
vn 0.8954949 -0.4446615 -0.0191102
vn 0.8780295 -0.4786064 -7.262847E-05
vn 0.9919696 -0.1264706 -0.00121723
vn 0.1785546 -0.9839298 -0.0007018591
vn 0.9751332 -0.2215736 0.004513605
vn 0.7121199 -0.701948 -0.01241706
vn 0.1577078 -0.9874794 -0.003539956
vn 0.4552998 -0.8903362 0.001854123
vn 0.1156478 -0.9930598 -0.02139928
usemtl Mat_Workbench
f 1/1/1 3/3/3 2/2/2 
f 4/4/4 3/3/3 1/1/1 
f 5/5/5 4/4/4 1/1/1 
f 6/6/6 3/3/3 4/4/4 
f 6/6/6 4/4/4 7/7/7 
f 8/8/8 10/10/10 9/9/9 
f 9/9/9 10/10/10 11/11/11 
f 12/12/12 11/11/11 10/10/10 
f 11/11/11 12/12/12 13/13/13 
f 13/13/13 12/12/12 14/14/14 
f 10/10/10 15/15/15 12/12/12 
f 15/15/15 16/16/16 12/12/12 
f 17/17/17 19/19/19 18/18/18 
f 17/17/17 18/18/18 20/20/20 
f 20/20/20 21/21/21 17/17/17 
f 21/21/21 22/22/22 17/17/17 
f 23/23/23 22/22/22 21/21/21 
f 21/21/21 20/20/20 23/23/23 
f 18/18/18 24/24/24 20/20/20 
f 24/24/24 25/25/25 20/20/20 
f 20/20/20 25/25/25 26/26/26 
f 25/25/25 27/27/27 26/26/26 
f 27/27/27 28/28/28 26/26/26 
f 27/27/27 29/29/29 28/28/28 
f 29/29/29 27/27/27 30/30/30 
f 24/24/24 31/31/31 25/25/25 
f 27/27/27 25/25/25 31/31/31 
f 31/31/31 24/24/24 32/32/32 
f 32/32/32 27/27/27 31/31/31 
f 18/18/18 33/33/33 24/24/24 
f 32/32/32 24/24/24 33/33/33 
f 32/32/32 34/34/34 27/27/27 
f 33/33/33 34/34/34 32/32/32 
f 30/30/30 27/27/27 35/35/35 
f 34/34/34 35/35/35 27/27/27 
f 18/18/18 36/36/36 33/33/33 
f 37/37/37 36/36/36 18/18/18 
f 33/33/33 38/38/38 34/34/34 
f 33/33/33 39/39/39 38/38/38 
f 36/36/36 39/39/39 33/33/33 
f 38/38/38 40/40/40 34/34/34 
f 34/34/34 40/40/40 35/35/35 
f 39/39/39 40/40/40 38/38/38 
f 40/40/40 41/41/41 35/35/35 
f 39/39/39 41/41/41 40/40/40 
f 42/42/42 39/39/39 36/36/36 
f 41/41/41 39/39/39 42/42/42 
f 43/43/43 35/35/35 41/41/41 
f 41/41/41 42/42/42 43/43/43 
f 30/30/30 35/35/35 43/43/43 
f 42/42/42 36/36/36 44/44/44 
f 43/43/43 42/42/42 44/44/44 
f 37/37/37 44/44/44 36/36/36 
f 44/44/44 30/30/30 43/43/43 
f 37/37/37 30/30/30 44/44/44 
f 45/45/45 30/30/30 37/37/37 
f 45/45/45 46/46/46 30/30/30 
f 29/29/29 30/30/30 46/46/46 
f 47/47/47 46/46/46 45/45/45 
f 48/48/48 47/47/47 45/45/45 
f 29/29/29 46/46/46 49/49/49 
f 29/29/29 49/49/49 50/50/50 
f 47/47/47 51/51/51 46/46/46 
f 46/46/46 51/51/51 49/49/49 
f 49/49/49 52/52/52 50/50/50 
f 51/51/51 52/52/52 49/49/49 
f 53/53/53 50/50/50 52/52/52 
f 54/54/54 51/51/51 47/47/47 
f 52/52/52 51/51/51 54/54/54 
f 47/47/47 48/48/48 54/54/54 
f 54/54/54 53/53/53 52/52/52 
f 48/48/48 53/53/53 54/54/54 
f 55/55/55 53/53/53 48/48/48 
f 48/48/48 56/56/56 55/55/55 
f 57/57/57 56/56/56 48/48/48 
f 56/56/56 57/57/57 58/58/58 
f 59/59/59 58/58/58 57/57/57 
f 55/55/55 60/60/60 53/53/53 
f 53/53/53 60/60/60 61/61/61 
f 61/61/61 62/62/62 53/53/53 
f 63/63/63 61/61/61 60/60/60 
f 61/61/61 63/63/63 62/62/62 
f 63/63/63 60/60/60 55/55/55 
f 62/62/62 63/63/63 64/64/64 
f 56/56/56 65/65/65 55/55/55 
f 65/65/65 63/63/63 55/55/55 
f 56/56/56 58/58/58 66/66/66 
f 56/56/56 66/66/66 65/65/65 
f 65/65/65 67/67/67 63/63/63 
f 64/64/64 63/63/63 67/67/67 
f 68/68/68 65/65/65 66/66/66 
f 65/65/65 68/68/68 67/67/67 
f 58/58/58 68/68/68 66/66/66 
f 67/67/67 68/68/68 64/64/64 
f 69/69/69 68/68/68 58/58/58 
f 68/68/68 69/69/69 64/64/64 
f 59/59/59 69/69/69 58/58/58 
f 64/64/64 69/69/69 70/70/70 
f 71/71/71 64/64/64 70/70/70 
f 72/72/72 70/70/70 69/69/69 
f 71/71/71 70/70/70 72/72/72 
f 59/59/59 72/72/72 69/69/69 
f 73/73/73 71/71/71 72/72/72 
f 72/72/72 74/74/74 73/73/73 
f 75/75/75 74/74/74 72/72/72 
f 75/75/75 72/72/72 59/59/59 
f 74/74/74 75/75/75 76/76/76 
f 75/75/75 59/59/59 77/77/77 
f 77/77/77 76/76/76 75/75/75 
f 59/59/59 78/78/78 77/77/77 
f 79/79/79 76/76/76 77/77/77 
f 77/77/77 78/78/78 79/79/79 
f 80/80/80 82/82/82 81/81/81 
f 81/81/81 82/82/82 83/83/83 
f 81/81/81 83/83/83 84/84/84 
f 83/83/83 82/82/82 85/85/85 
f 86/86/86 84/84/84 83/83/83 
f 86/86/86 83/83/83 85/85/85 
f 87/87/87 89/89/89 88/88/88 
f 88/88/88 90/90/90 87/87/87 
f 91/91/91 90/90/90 88/88/88 
f 92/92/92 90/90/90 91/91/91 
f 93/93/93 87/87/87 90/90/90 
f 92/92/92 93/93/93 90/90/90 
f 93/93/93 94/94/94 87/87/87 
f 92/92/92 95/95/95 93/93/93 
f 96/96/96 94/94/94 93/93/93 
f 95/95/95 96/96/96 93/93/93 
f 97/97/97 99/99/99 98/98/98 
f 100/100/100 99/99/99 97/97/97 
f 101/101/101 103/103/103 102/102/102 
f 104/104/104 103/103/103 101/101/101 
f 101/101/101 105/105/105 104/104/104 
f 103/103/103 104/104/104 106/106/106 
f 104/104/104 105/105/105 106/106/106 
f 107/107/107 103/103/103 106/106/106 
f 108/108/108 106/106/106 105/105/105 
f 106/106/106 109/109/109 107/107/107 
f 109/109/109 106/106/106 108/108/108 
f 110/110/110 112/112/112 111/111/111 
f 112/112/112 110/110/110 113/113/113 
f 114/114/114 112/112/112 113/113/113 
f 114/114/114 115/115/115 112/112/112 
f 116/116/116 115/115/115 114/114/114 
f 113/113/113 116/116/116 114/114/114 
f 117/117/117 115/115/115 116/116/116 
f 118/118/118 117/117/117 116/116/116 
f 113/113/113 118/118/118 116/116/116 
f 119/119/119 113/113/113 110/110/110 
f 120/120/120 119/119/119 110/110/110 
f 119/119/119 120/120/120 121/121/121 
f 122/122/122 113/113/113 119/119/119 
f 118/118/118 113/113/113 122/122/122 
f 122/122/122 119/119/119 121/121/121 
f 123/123/123 117/117/117 118/118/118 
f 123/123/123 124/124/124 117/117/117 
f 122/122/122 125/125/125 118/118/118 
f 121/121/121 125/125/125 122/122/122 
f 118/118/118 125/125/125 123/123/123 
f 125/125/125 126/126/126 123/123/123 
f 125/125/125 121/121/121 127/127/127 
f 125/125/125 127/127/127 126/126/126 
f 127/127/127 121/121/121 128/128/128 
f 127/127/127 129/129/129 126/126/126 
f 129/129/129 127/127/127 128/128/128 
f 126/126/126 129/129/129 130/130/130 
f 129/129/129 128/128/128 130/130/130 
f 124/124/124 123/123/123 131/131/131 
f 126/126/126 132/132/132 123/123/123 
f 131/131/131 123/123/123 132/132/132 
f 131/131/131 133/133/133 124/124/124 
f 133/133/133 134/134/134 124/124/124 
f 135/135/135 124/124/124 134/134/134 
f 133/133/133 131/131/131 136/136/136 
f 136/136/136 131/131/131 132/132/132 
f 137/137/137 133/133/133 136/136/136 
f 136/136/136 132/132/132 137/137/137 
f 137/137/137 134/134/134 133/133/133 
f 126/126/126 138/138/138 132/132/132 
f 138/138/138 137/137/137 132/132/132 
f 126/126/126 130/130/130 139/139/139 
f 126/126/126 139/139/139 138/138/138 
f 137/137/137 138/138/138 140/140/140 
f 140/140/140 134/134/134 137/137/137 
f 141/141/141 138/138/138 139/139/139 
f 139/139/139 130/130/130 141/141/141 
f 141/141/141 140/140/140 138/138/138 
f 142/142/142 141/141/141 130/130/130 
f 141/141/141 142/142/142 140/140/140 
f 140/140/140 142/142/142 134/134/134 
f 128/128/128 142/142/142 130/130/130 
f 142/142/142 128/128/128 143/143/143 
f 144/144/144 143/143/143 128/128/128 
f 142/142/142 145/145/145 134/134/134 
f 142/142/142 143/143/143 145/145/145 
f 145/145/145 146/146/146 134/134/134 
f 147/147/147 146/146/146 145/145/145 
f 148/148/148 145/145/145 143/143/143 
f 148/148/148 147/147/147 145/145/145 
f 143/143/143 144/144/144 149/149/149 
f 143/143/143 149/149/149 148/148/148 
f 150/150/150 149/149/149 144/144/144 
f 149/149/149 150/150/150 148/148/148 
f 151/151/151 134/134/134 146/146/146 
f 135/135/135 134/134/134 151/151/151 
f 151/151/151 152/152/152 135/135/135 
f 153/153/153 135/135/135 152/152/152 
f 153/153/153 152/152/152 150/150/150 
f 148/148/148 154/154/154 147/147/147 
f 150/150/150 154/154/154 148/148/148 
f 150/150/150 152/152/152 154/154/154 
f 150/150/150 144/144/144 155/155/155 
f 153/153/153 150/150/150 155/155/155 
f 156/156/156 155/155/155 144/144/144 
f 157/157/157 153/153/153 155/155/155 
f 157/157/157 155/155/155 156/156/156 
f 153/153/153 157/157/157 158/158/158 
f 156/156/156 158/158/158 157/157/157 
f 153/153/153 158/158/158 159/159/159 
f 160/160/160 158/158/158 156/156/156 
f 159/159/159 158/158/158 160/160/160 
f 151/151/151 161/161/161 152/152/152 
f 161/161/161 162/162/162 152/152/152 
f 151/151/151 146/146/146 161/161/161 
f 152/152/152 163/163/163 154/154/154 
f 163/163/163 152/152/152 162/162/162 
f 154/154/154 163/163/163 147/147/147 
f 161/161/161 146/146/146 164/164/164 
f 162/162/162 161/161/161 164/164/164 
f 164/164/164 146/146/146 165/165/165 
f 162/162/162 164/164/164 165/165/165 
f 166/166/166 165/165/165 146/146/146 
f 146/146/146 147/147/147 166/166/166 
f 162/162/162 165/165/165 166/166/166 
f 147/147/147 163/163/163 167/167/167 
f 167/167/167 163/163/163 162/162/162 
f 168/168/168 166/166/166 147/147/147 
f 167/167/167 168/168/168 147/147/147 
f 168/168/168 167/167/167 162/162/162 
f 162/162/162 166/166/166 168/168/168 
f 169/169/169 171/171/171 170/170/170 
f 172/172/172 170/170/170 171/171/171 
f 171/171/171 173/173/173 172/172/172 
f 174/174/174 170/170/170 172/172/172 
f 172/172/172 173/173/173 174/174/174 
f 175/175/175 170/170/170 174/174/174 
f 176/176/176 170/170/170 175/175/175 
f 176/176/176 175/175/175 177/177/177 
f 178/178/178 175/175/175 174/174/174 
f 179/179/179 178/178/178 174/174/174 
f 173/173/173 179/179/179 174/174/174 
f 173/173/173 180/180/180 179/179/179 
f 173/173/173 181/181/181 180/180/180 
f 182/182/182 180/180/180 181/181/181 
f 182/182/182 181/181/181 183/183/183 
f 183/183/183 184/184/184 182/182/182 
f 173/173/173 171/171/171 185/185/185 
f 173/173/173 186/186/186 181/181/181 
f 185/185/185 186/186/186 173/173/173 
f 186/186/186 187/187/187 181/181/181 
f 185/185/185 187/187/187 186/186/186 
f 181/181/181 187/187/187 188/188/188 
f 188/188/188 183/183/183 181/181/181 
f 187/187/187 185/185/185 188/188/188 
f 189/189/189 185/185/185 171/171/171 
f 190/190/190 189/189/189 171/171/171 
f 183/183/183 188/188/188 190/190/190 
f 188/188/188 185/185/185 191/191/191 
f 191/191/191 185/185/185 189/189/189 
f 188/188/188 191/191/191 190/190/190 
f 191/191/191 189/189/189 190/190/190 
f 190/190/190 192/192/192 183/183/183 
f 182/182/182 184/184/184 193/193/193 
f 182/182/182 193/193/193 194/194/194 
f 195/195/195 182/182/182 194/194/194 
f 182/182/182 195/195/195 196/196/196 
f 195/195/195 197/197/197 196/196/196 
f 198/198/198 196/196/196 197/197/197 
f 199/199/199 195/195/195 194/194/194 
f 199/199/199 197/197/197 195/195/195 
f 194/194/194 193/193/193 200/200/200 
f 199/199/199 194/194/194 200/200/200 
f 193/193/193 201/201/201 200/200/200 
f 193/193/193 184/184/184 201/201/201 
f 200/200/200 202/202/202 199/199/199 
f 201/201/201 202/202/202 200/200/200 
f 197/197/197 199/199/199 202/202/202 
f 201/201/201 184/184/184 202/202/202 
f 197/197/197 203/203/203 198/198/198 
f 197/197/197 202/202/202 204/204/204 
f 197/197/197 204/204/204 203/203/203 
f 203/203/203 204/204/204 192/192/192 
f 202/202/202 205/205/205 204/204/204 
f 205/205/205 202/202/202 184/184/184 
f 192/192/192 204/204/204 205/205/205 
f 198/198/198 203/203/203 206/206/206 
f 207/207/207 198/198/198 206/206/206 
f 203/203/203 208/208/208 206/206/206 
f 203/203/203 209/209/209 208/208/208 
f 210/210/210 206/206/206 208/208/208 
f 210/210/210 207/207/207 206/206/206 
f 208/208/208 209/209/209 210/210/210 
f 211/211/211 207/207/207 210/210/210 
f 210/210/210 209/209/209 211/211/211 
f 184/184/184 212/212/212 205/205/205 
f 212/212/212 184/184/184 183/183/183 
f 205/205/205 212/212/212 213/213/213 
f 213/213/213 212/212/212 183/183/183 
f 214/214/214 192/192/192 205/205/205 
f 205/205/205 213/213/213 214/214/214 
f 192/192/192 215/215/215 183/183/183 
f 214/214/214 215/215/215 192/192/192 
f 214/214/214 213/213/213 215/215/215 
f 213/213/213 183/183/183 215/215/215 
f 211/211/211 216/216/216 207/207/207 
f 216/216/216 217/217/217 207/207/207 
f 217/217/217 216/216/216 218/218/218 
f 216/216/216 219/219/219 218/218/218 
f 219/219/219 216/216/216 211/211/211 
f 220/220/220 219/219/219 211/211/211 
f 221/221/221 219/219/219 220/220/220 
f 220/220/220 222/222/222 221/221/221 
f 221/221/221 222/222/222 223/223/223 
f 222/222/222 220/220/220 224/224/224 
f 224/224/224 220/220/220 211/211/211 
f 223/223/223 222/222/222 224/224/224 
f 225/225/225 224/224/224 211/211/211 
f 223/223/223 224/224/224 225/225/225 
f 211/211/211 209/209/209 225/225/225 
f 226/226/226 223/223/223 225/225/225 
f 223/223/223 226/226/226 227/227/227 
f 225/225/225 209/209/209 228/228/228 
f 228/228/228 226/226/226 225/225/225 
f 209/209/209 229/229/229 228/228/228 
f 230/230/230 228/228/228 229/229/229 
f 231/231/231 230/230/230 227/227/227 
f 226/226/226 231/231/231 227/227/227 
f 228/228/228 230/230/230 231/231/231 
f 228/228/228 231/231/231 226/226/226 
f 232/232/232 234/234/234 233/233/233 
f 235/235/235 233/233/233 234/234/234 
f 236/236/236 235/235/235 234/234/234 
f 235/235/235 237/237/237 233/233/233 
f 238/238/238 233/233/233 237/237/237 
f 239/239/239 241/241/241 240/240/240 
f 242/242/242 239/239/239 240/240/240 
f 242/242/242 243/243/243 239/239/239 
f 244/244/244 242/242/242 240/240/240 
f 242/242/242 245/245/245 243/243/243 
f 242/242/242 244/244/244 245/245/245 
f 246/246/246 248/248/248 247/247/247 
f 249/249/249 248/248/248 246/246/246 
f 250/250/250 248/248/248 249/249/249 
f 246/246/246 251/251/251 249/249/249 
f 252/252/252 251/251/251 246/246/246 
f 253/253/253 255/255/255 254/254/254 
f 253/253/253 254/254/254 256/256/256 
f 256/256/256 257/257/257 253/253/253 
f 254/254/254 258/258/258 256/256/256 
f 259/259/259 261/261/261 260/260/260 
f 260/260/260 262/262/262 259/259/259 
f 263/263/263 262/262/262 260/260/260 
f 263/263/263 264/264/264 262/262/262 
f 265/265/265 259/259/259 262/262/262 
f 265/265/265 266/266/266 259/259/259 
f 266/266/266 267/267/267 259/259/259 
f 268/268/268 267/267/267 266/266/266 
f 267/267/267 268/268/268 269/269/269 
f 268/268/268 270/270/270 269/269/269 
f 270/270/270 268/268/268 266/266/266 
f 271/271/271 269/269/269 270/270/270 
f 269/269/269 271/271/271 272/272/272 
f 273/273/273 262/262/262 264/264/264 
f 274/274/274 265/265/265 262/262/262 
f 262/262/262 273/273/273 274/274/274 
f 264/264/264 275/275/275 273/273/273 
f 276/276/276 275/275/275 264/264/264 
f 275/275/275 276/276/276 271/271/271 
f 277/277/277 266/266/266 265/265/265 
f 270/270/270 266/266/266 278/278/278 
f 277/277/277 278/278/278 266/266/266 
f 279/279/279 270/270/270 278/278/278 
f 271/271/271 270/270/270 279/279/279 
f 271/271/271 279/279/279 275/275/275 
f 273/273/273 275/275/275 280/280/280 
f 280/280/280 275/275/275 279/279/279 
f 279/279/279 278/278/278 281/281/281 
f 281/281/281 278/278/278 277/277/277 
f 279/279/279 281/281/281 282/282/282 
f 279/279/279 282/282/282 280/280/280 
f 281/281/281 277/277/277 282/282/282 
f 277/277/277 265/265/265 283/283/283 
f 265/265/265 274/274/274 283/283/283 
f 282/282/282 277/277/277 283/283/283 
f 273/273/273 280/280/280 284/284/284 
f 273/273/273 284/284/284 274/274/274 
f 280/280/280 282/282/282 284/284/284 
f 283/283/283 285/285/285 282/282/282 
f 274/274/274 285/285/285 283/283/283 
f 284/284/284 285/285/285 274/274/274 
f 284/284/284 282/282/282 285/285/285 
f 276/276/276 286/286/286 271/271/271 
f 287/287/287 286/286/286 276/276/276 
f 287/287/287 276/276/276 288/288/288 
f 288/288/288 289/289/289 287/287/287 
f 289/289/289 288/288/288 290/290/290 
f 291/291/291 286/286/286 287/287/287 
f 287/287/287 289/289/289 291/291/291 
f 292/292/292 271/271/271 286/286/286 
f 286/286/286 291/291/291 292/292/292 
f 291/291/291 289/289/289 293/293/293 
f 292/292/292 291/291/291 293/293/293 
f 292/292/292 294/294/294 271/271/271 
f 272/272/272 271/271/271 294/294/294 
f 295/295/295 289/289/289 290/290/290 
f 293/293/293 289/289/289 295/295/295 
f 296/296/296 292/292/292 293/293/293 
f 296/296/296 294/294/294 292/292/292 
f 296/296/296 293/293/293 297/297/297 
f 294/294/294 296/296/296 297/297/297 
f 297/297/297 293/293/293 295/295/295 
f 297/297/297 298/298/298 294/294/294 
f 298/298/298 272/272/272 294/294/294 
f 297/297/297 295/295/295 298/298/298 
f 295/295/295 272/272/272 298/298/298 
f 272/272/272 295/295/295 299/299/299 
f 299/299/299 295/295/295 290/290/290 
f 299/299/299 300/300/300 272/272/272 
f 290/290/290 301/301/301 299/299/299 
f 301/301/301 290/290/290 302/302/302 
f 299/299/299 301/301/301 303/303/303 
f 300/300/300 299/299/299 303/303/303 
f 302/302/302 304/304/304 301/301/301 
f 301/301/301 304/304/304 303/303/303 
f 305/305/305 304/304/304 302/302/302 
f 302/302/302 306/306/306 305/305/305 
f 307/307/307 303/303/303 304/304/304 
f 307/307/307 304/304/304 305/305/305 
f 308/308/308 300/300/300 303/303/303 
f 303/303/303 307/307/307 308/308/308 
f 309/309/309 300/300/300 308/308/308 
f 309/309/309 308/308/308 307/307/307 
f 300/300/300 309/309/309 310/310/310 
f 311/311/311 309/309/309 307/307/307 
f 310/310/310 309/309/309 311/311/311 
f 312/312/312 311/311/311 307/307/307 
f 307/307/307 305/305/305 312/312/312 
f 312/312/312 310/310/310 311/311/311 
f 313/313/313 305/305/305 306/306/306 
f 313/313/313 312/312/312 305/305/305 
f 314/314/314 313/313/313 306/306/306 
f 313/313/313 314/314/314 312/312/312 
f 315/315/315 314/314/314 306/306/306 
f 315/315/315 316/316/316 314/314/314 
f 310/310/310 317/317/317 316/316/316 
f 310/310/310 312/312/312 317/317/317 
f 317/317/317 314/314/314 316/316/316 
f 312/312/312 314/314/314 317/317/317 
f 318/318/318 320/320/320 319/319/319 
f 320/320/320 318/318/318 321/321/321 
f 318/318/318 322/322/322 321/321/321 
f 323/323/323 325/325/325 324/324/324 
f 326/326/326 323/323/323 324/324/324 
f 326/326/326 327/327/327 323/323/323 
f 328/328/328 327/327/327 326/326/326 
f 329/329/329 328/328/328 326/326/326 
f 326/326/326 324/324/324 329/329/329 
f 330/330/330 328/328/328 329/329/329 
f 329/329/329 324/324/324 331/331/331 
f 331/331/331 330/330/330 329/329/329 
f 331/331/331 324/324/324 332/332/332 
f 330/330/330 331/331/331 333/333/333 
f 330/330/330 333/333/333 334/334/334 
f 331/331/331 332/332/332 335/335/335 
f 335/335/335 333/333/333 331/331/331 
f 334/334/334 333/333/333 335/335/335 
f 334/334/334 335/335/335 336/336/336 
f 335/335/335 332/332/332 337/337/337 
f 338/338/338 336/336/336 335/335/335 
f 335/335/335 337/337/337 338/338/338 
f 339/339/339 338/338/338 337/337/337 
f 336/336/336 338/338/338 340/340/340 
f 339/339/339 340/340/340 338/338/338 
f 339/339/339 337/337/337 341/341/341 
f 341/341/341 342/342/342 339/339/339 
f 342/342/342 341/341/341 343/343/343 
f 341/341/341 337/337/337 344/344/344 
f 344/344/344 343/343/343 341/341/341 
f 340/340/340 345/345/345 336/336/336 
f 340/340/340 339/339/339 345/345/345 
f 339/339/339 346/346/346 345/345/345 
f 336/336/336 345/345/345 346/346/346 
f 339/339/339 342/342/342 347/347/347 
f 339/339/339 347/347/347 346/346/346 
f 346/346/346 348/348/348 336/336/336 
f 349/349/349 346/346/346 347/347/347 
f 346/346/346 349/349/349 348/348/348 
f 350/350/350 336/336/336 348/348/348 
f 336/336/336 350/350/350 334/334/334 
f 347/347/347 342/342/342 351/351/351 
f 349/349/349 347/347/347 351/351/351 
f 348/348/348 349/349/349 352/352/352 
f 352/352/352 350/350/350 348/348/348 
f 353/353/353 352/352/352 349/349/349 
f 350/350/350 352/352/352 353/353/353 
f 353/353/353 349/349/349 354/354/354 
f 350/350/350 353/353/353 354/354/354 
f 350/350/350 354/354/354 334/334/334 
f 354/354/354 349/349/349 351/351/351 
f 351/351/351 334/334/334 354/354/354 
f 355/355/355 334/334/334 351/351/351 
f 342/342/342 355/355/355 351/351/351 
f 342/342/342 356/356/356 355/355/355 
f 356/356/356 342/342/342 357/357/357 
f 356/356/356 357/357/357 358/358/358 
f 358/358/358 359/359/359 356/356/356 
f 360/360/360 357/357/357 342/342/342 
f 342/342/342 343/343/343 360/360/360 
f 357/357/357 361/361/361 358/358/358 
f 361/361/361 357/357/357 360/360/360 
f 358/358/358 361/361/361 362/362/362 
f 359/359/359 358/358/358 362/362/362 
f 363/363/363 361/361/361 360/360/360 
f 343/343/343 363/363/363 360/360/360 
f 362/362/362 361/361/361 363/363/363 
f 364/364/364 363/363/363 343/343/343 
f 362/362/362 363/363/363 365/365/365 
f 363/363/363 364/364/364 365/365/365 
f 365/365/365 366/366/366 362/362/362 
f 365/365/365 364/364/364 366/366/366 
f 362/362/362 366/366/366 359/359/359 
f 359/359/359 366/366/366 367/367/367 
f 368/368/368 364/364/364 343/343/343 
f 368/368/368 366/366/366 364/364/364 
f 367/367/367 366/366/366 368/368/368 
f 368/368/368 343/343/343 344/344/344 
f 367/367/367 368/368/368 344/344/344 
f 344/344/344 369/369/369 367/367/367 
f 369/369/369 370/370/370 367/367/367 
f 370/370/370 369/369/369 371/371/371 
f 367/367/367 370/370/370 372/372/372 
f 370/370/370 371/371/371 373/373/373 
f 372/372/372 370/370/370 373/373/373 
f 372/372/372 374/374/374 367/367/367 
f 359/359/359 367/367/367 374/374/374 
f 373/373/373 371/371/371 375/375/375 
f 371/371/371 376/376/376 375/375/375 
f 373/373/373 377/377/377 372/372/372 
f 377/377/377 374/374/374 372/372/372 
f 375/375/375 377/377/377 373/373/373 
f 375/375/375 374/374/374 377/377/377 
f 378/378/378 376/376/376 359/359/359 
f 376/376/376 378/378/378 375/375/375 
f 374/374/374 375/375/375 379/379/379 
f 374/374/374 379/379/379 359/359/359 
f 379/379/379 378/378/378 359/359/359 
f 379/379/379 375/375/375 378/378/378 
f 380/380/380 382/382/382 381/381/381 
f 383/383/383 381/381/381 382/382/382 
f 381/381/381 383/383/383 384/384/384 
f 384/384/384 385/385/385 381/381/381 
f 386/386/386 381/381/381 385/385/385 
f 387/387/387 380/380/380 381/381/381 
f 386/386/386 387/387/387 381/381/381 
f 388/388/388 380/380/380 387/387/387 
f 388/388/388 387/387/387 386/386/386 
f 389/389/389 391/391/391 390/390/390 
f 390/390/390 391/391/391 392/392/392 
f 392/392/392 393/393/393 390/390/390 
f 394/394/394 389/389/389 390/390/390 
f 394/394/394 395/395/395 389/389/389 
f 390/390/390 393/393/393 396/396/396 
f 390/390/390 396/396/396 394/394/394 
f 395/395/395 394/394/394 397/397/397 
f 398/398/398 394/394/394 396/396/396 
f 394/394/394 398/398/398 397/397/397 
f 395/395/395 397/397/397 399/399/399 
f 399/399/399 400/400/400 395/395/395 
f 399/399/399 397/397/397 401/401/401 
f 398/398/398 401/401/401 397/397/397 
f 400/400/400 399/399/399 402/402/402 
f 402/402/402 399/399/399 401/401/401 
f 401/401/401 398/398/398 403/403/403 
f 396/396/396 404/404/404 398/398/398 
f 403/403/403 398/398/398 404/404/404 
f 403/403/403 405/405/405 401/401/401 
f 402/402/402 401/401/401 405/405/405 
f 406/406/406 403/403/403 404/404/404 
f 404/404/404 396/396/396 406/406/406 
f 406/406/406 405/405/405 403/403/403 
f 407/407/407 406/406/406 396/396/396 
f 407/407/407 396/396/396 393/393/393 
f 407/407/407 405/405/405 406/406/406 
f 407/407/407 393/393/393 408/408/408 
f 408/408/408 405/405/405 407/407/407 
f 409/409/409 408/408/408 393/393/393 
f 409/409/409 410/410/410 408/408/408 
f 408/408/408 410/410/410 405/405/405 
f 410/410/410 402/402/402 405/405/405 
f 411/411/411 400/400/400 402/402/402 
f 402/402/402 410/410/410 411/411/411 
f 411/411/411 412/412/412 400/400/400 
f 412/412/412 413/413/413 400/400/400 
f 411/411/411 410/410/410 414/414/414 
f 414/414/414 410/410/410 415/415/415 
f 411/411/411 416/416/416 412/412/412 
f 414/414/414 416/416/416 411/411/411 
f 412/412/412 416/416/416 417/417/417 
f 417/417/417 413/413/413 412/412/412 
f 414/414/414 418/418/418 416/416/416 
f 414/414/414 415/415/415 418/418/418 
f 416/416/416 418/418/418 417/417/417 
f 415/415/415 417/417/417 418/418/418 
f 419/419/419 417/417/417 415/415/415 
f 419/419/419 413/413/413 417/417/417 
f 420/420/420 419/419/419 415/415/415 
f 413/413/413 419/419/419 421/421/421 
f 420/420/420 421/421/421 419/419/419 
f 421/421/421 422/422/422 413/413/413 
f 420/420/420 423/423/423 421/421/421 
f 424/424/424 423/423/423 420/420/420 
f 421/421/421 425/425/425 422/422/422 
f 425/425/425 421/421/421 423/423/423 
f 426/426/426 423/423/423 424/424/424 
f 427/427/427 426/426/426 424/424/424 
f 426/426/426 427/427/427 428/428/428 
f 426/426/426 428/428/428 429/429/429 
f 426/426/426 429/429/429 423/423/423 
f 430/430/430 423/423/423 429/429/429 
f 425/425/425 423/423/423 430/430/430 
f 431/431/431 430/430/430 429/429/429 
f 428/428/428 431/431/431 429/429/429 
f 432/432/432 425/425/425 430/430/430 
f 431/431/431 432/432/432 430/430/430 
f 422/422/422 425/425/425 433/433/433 
f 433/433/433 425/425/425 432/432/432 
f 422/422/422 433/433/433 434/434/434 
f 432/432/432 434/434/434 433/433/433 
f 422/422/422 434/434/434 435/435/435 
f 436/436/436 432/432/432 431/431/431 
f 434/434/434 432/432/432 436/436/436 
f 436/436/436 435/435/435 434/434/434 
f 431/431/431 428/428/428 436/436/436 
f 436/436/436 437/437/437 435/435/435 
f 437/437/437 436/436/436 428/428/428 
f 437/437/437 438/438/438 435/435/435 
f 437/437/437 439/439/439 438/438/438 
f 438/438/438 439/439/439 440/440/440 
f 439/439/439 437/437/437 441/441/441 
f 437/437/437 428/428/428 441/441/441 
f 440/440/440 439/439/439 442/442/442 
f 441/441/441 442/442/442 439/439/439 
f 443/443/443 440/440/440 442/442/442 
f 444/444/444 441/441/441 428/428/428 
f 442/442/442 441/441/441 444/444/444 
f 445/445/445 443/443/443 442/442/442 
f 444/444/444 445/445/445 442/442/442 
f 428/428/428 446/446/446 444/444/444 
f 444/444/444 446/446/446 445/445/445 
f 446/446/446 443/443/443 445/445/445 
f 428/428/428 427/427/427 446/446/446 
f 446/446/446 427/427/427 443/443/443 
