# exported by StudySceneExporter from mesh 'bowl03'
mtllib materials.mtl
v -0.02589199 -0.105048 -2.861023E-08
v 1.248551E-08 -0.1081918 -2.861023E-08
v 0.02589185 -0.105048 -3.814697E-08
v 0.05027913 -0.09579916 -3.814697E-08
v -0.05027923 -0.0957991 -3.814697E-08
v 0.07174437 -0.08098283 -2.861023E-08
v -0.07174443 -0.08098271 -2.861023E-08
v 0.08904006 -0.06146004 -2.861023E-08
v -0.08904012 -0.06145993 -2.861023E-08
v 0.1011611 -0.03836544 -1.430511E-08
v -0.1011611 -0.03836532 -1.907349E-08
v 0.107403 -0.01304116 -1.430511E-08
v -0.107403 -0.01304107 -9.536743E-09
v 0.107403 0.01304102 -9.536743E-09
v -0.107403 0.01304111 -9.536743E-09
v 0.1011612 0.03836529 -4.768371E-09
v -0.1011611 0.03836536 -4.768371E-09
v 0.08904016 0.06145994 4.768371E-09
v -0.08904012 0.06146 4.768371E-09
v 0.07174452 0.08098274 4.768371E-09
v -0.07174443 0.08098278 4.768371E-09
v 0.05027931 0.09579914 9.536743E-09
v -0.05027921 0.09579916 9.536743E-09
v 0.02589206 0.105048 9.536743E-09
v -0.02589196 0.105048 9.536743E-09
v 4.773868E-08 0.1081918 9.536743E-09
v 1.487736E-08 -0.1390254 0.02569989
v 1.248551E-08 -0.1081918 -2.861023E-08
v -0.02589199 -0.105048 -2.861023E-08
v -0.03327094 -0.1349856 0.0256999
v -0.05027923 -0.0957991 -3.814697E-08
v -0.03826984 -0.1552669 0.0598509
v 1.665305E-08 -0.1599137 0.05985089
v 1.751482E-08 -0.1727203 0.1048454
v -0.06460831 -0.1231008 0.0256999
v -0.07174443 -0.08098271 -2.861023E-08
v -0.09219088 -0.104062 0.0256999
v -0.08904012 -0.06145993 -2.861023E-08
v -0.07431558 -0.1415965 0.0598509
v -0.04133465 -0.1677014 0.1048454
v -0.1144156 -0.07897538 0.0256999
v -0.1011611 -0.03836532 -1.907349E-08
v -0.04335169 -0.1758848 0.1504291
v 1.826113E-08 -0.1811486 0.1504291
v -0.08418397 -0.1603992 0.1504291
v -0.08026712 -0.1529362 0.1048454
v -0.1201238 -0.1355917 0.1504291
v -0.1060424 -0.1196971 0.0598509
v -0.1145347 -0.129283 0.1048454
v -0.1490824 -0.1029041 0.1504291
v -0.129991 -0.04929906 0.02569992
v -0.107403 -0.01304107 -9.536743E-09
v -0.1316064 -0.0908413 0.05985091
v -0.142146 -0.09811628 0.1048454
v -0.169377 -0.06423618 0.1504292
v -0.1380117 -0.01675764 0.02569991
v -0.107403 0.01304111 -9.536743E-09
v -0.1495219 -0.05670616 0.05985092
v -0.1614963 -0.06124742 0.1048454
v -0.1798279 -0.02183504 0.1504292
v -0.1380117 0.0167577 0.02569992
v -0.1011611 0.03836536 -4.768371E-09
v -0.1587477 -0.01927544 0.05985092
v -0.171461 -0.02081911 0.1048454
v -0.1798279 0.02183508 0.1504292
v -0.129991 0.04929911 0.02569993
v -0.08904012 0.06146 4.768371E-09
v -0.1587477 0.01927549 0.05985093
v -0.171461 0.02081916 0.1048454
v -0.169377 0.06423622 0.1504292
v -0.1144156 0.07897545 0.02569994
v -0.07174443 0.08098278 4.768371E-09
v -0.1495219 0.0567062 0.05985094
v -0.1614963 0.0612475 0.1048454
v -0.1490824 0.1029042 0.1504292
v -0.09219088 0.1040621 0.02569994
v -0.05027921 0.09579916 9.536743E-09
v -0.1316064 0.09084135 0.05985095
v -0.142146 0.09811634 0.1048454
v -0.1201238 0.1355918 0.1504292
v -0.06460829 0.1231009 0.02569994
v -0.02589196 0.105048 9.536743E-09
v -0.1060424 0.1196971 0.05985096
v -0.1145347 0.129283 0.1048454
v -0.08418393 0.1603992 0.1504292
v -0.03327091 0.1349856 0.02569995
v 4.773868E-08 0.1081918 9.536743E-09
v -0.07431556 0.1415966 0.05985096
v -0.08026709 0.1529363 0.1048454
v -0.04335165 0.1758849 0.1504292
v 6.017754E-08 0.1390254 0.02569995
v 0.02589206 0.105048 9.536743E-09
v -0.0382698 0.1552669 0.05985096
v -0.04133461 0.1677014 0.1048454
v 7.72868E-08 0.1811487 0.1504292
v 0.03327103 0.1349856 0.02569995
v 0.05027931 0.09579914 9.536743E-09
v 6.875971E-08 0.1599137 0.05985097
v 7.379418E-08 0.1727203 0.1048454
v 0.04335181 0.1758849 0.1504292
v 0.0646084 0.1231009 0.02569994
v 0.07174452 0.08098274 4.768371E-09
v 0.03826993 0.1552669 0.05985096
v 0.04133477 0.1677014 0.1048454
v 0.08418407 0.1603992 0.1504292
v 0.09219096 0.104062 0.02569994
v 0.08904016 0.06145994 4.768371E-09
v 0.07431569 0.1415965 0.05985096
v 0.08026723 0.1529362 0.1048454
v 0.1201239 0.1355917 0.1504292
v 0.1144157 0.07897537 0.02569994
v 0.1011612 0.03836529 -4.768371E-09
v 0.1060425 0.1196971 0.05985096
v 0.1145348 0.129283 0.1048454
v 0.1490825 0.1029041 0.1504292
v 0.129991 0.04929901 0.02569993
v 0.107403 0.01304102 -9.536743E-09
v 0.1316064 0.09084127 0.05985095
v 0.1421461 0.09811624 0.1048454
v 0.169377 0.06423609 0.1504292
v 0.1380118 0.01675756 0.02569992
v 0.107403 -0.01304116 -1.430511E-08
v 0.149522 0.0567061 0.05985094
v 0.1614964 0.06124737 0.1048454
v 0.1798279 0.02183491 0.1504292
v 0.1380117 -0.01675777 0.02569992
v 0.1011611 -0.03836544 -1.430511E-08
v 0.1587478 0.01927535 0.05985093
v 0.171461 0.020819 0.1048454
v 0.1798279 -0.02183521 0.1504292
v 0.129991 -0.0492992 0.02569992
v 0.08904006 -0.06146004 -2.861023E-08
v 0.1587477 -0.0192756 0.05985092
v 0.171461 -0.02081927 0.1048454
v 0.1693769 -0.06423637 0.1504292
v 0.1144156 -0.07897554 0.0256999
v 0.07174437 -0.08098283 -2.861023E-08
v 0.1495218 -0.05670631 0.05985092
v 0.1614962 -0.06124761 0.1048454
v 0.1490823 -0.1029043 0.1504291
v 0.09219077 -0.1040621 0.0256999
v 0.05027913 -0.09579916 -3.814697E-08
v 0.1316063 -0.09084146 0.05985091
v 0.1421459 -0.09811648 0.1048454
v 0.1201236 -0.1355918 0.1504291
v 0.06460816 -0.1231009 0.02569989
v 0.02589185 -0.105048 -3.814697E-08
v 0.1060422 -0.1196972 0.0598509
v 0.1145346 -0.1292831 0.1048454
v 0.08418376 -0.1603993 0.1504291
v 0.03327077 -0.1349856 0.02569988
v 1.248551E-08 -0.1081918 -2.861023E-08
v 1.487736E-08 -0.1390254 0.02569989
v 1.665305E-08 -0.1599137 0.05985089
v 0.07431541 -0.1415966 0.0598509
v 0.08026692 -0.1529363 0.1048454
v 0.04335146 -0.1758849 0.1504291
v 0.03826963 -0.1552669 0.0598509
v 0.04133444 -0.1677014 0.1048454
v 1.751482E-08 -0.1727203 0.1048454
v 1.826113E-08 -0.1811486 0.1504291
v -0.04018828 -0.1630504 0.1504291
v 1.795091E-08 -0.1400982 0.06926212
v 1.759454E-08 -0.1679301 0.1504291
v -0.03352769 -0.1360273 0.06926212
v 1.600656E-08 -0.1163043 0.0363605
v -0.078041 -0.1486947 0.1504291
v -0.02783343 -0.1129247 0.0363605
v -0.06510689 -0.1240508 0.06926212
v -0.1113583 -0.1256975 0.1504291
v -0.0540493 -0.1029824 0.0363605
v -0.09290233 -0.104865 0.06926212
v -0.1382038 -0.09539514 0.1504292
v -0.07712403 -0.08705501 0.0363605
v -0.1152986 -0.07958484 0.06926212
v -0.1570174 -0.05954883 0.1504292
v -0.09571657 -0.06606836 0.03636051
v -0.1309942 -0.0496795 0.06926214
v -0.1667057 -0.02024173 0.1504292
v -0.1087464 -0.04124207 0.03636052
v -0.1390768 -0.01688696 0.06926214
v -0.1667057 0.02024174 0.1504292
v -0.1154563 -0.01401891 0.03636052
v -0.1390768 0.01688701 0.06926215
v -0.1570174 0.05954884 0.1504292
v -0.1154563 0.01401895 0.03636053
v -0.1309942 0.04967954 0.06926215
v -0.1382038 0.09539519 0.1504292
v -0.1087464 0.0412421 0.03636053
v -0.1152986 0.0795849 0.06926216
v -0.1113583 0.1256975 0.1504292
v -0.09571658 0.0660684 0.03636054
v -0.0929023 0.1048651 0.06926217
v -0.07804097 0.1486948 0.1504292
v -0.07712403 0.08705505 0.03636054
v -0.06510687 0.1240509 0.06926217
v -0.04018825 0.1630504 0.1504292
v -0.05404928 0.1029824 0.03636055
v -0.03352766 0.1360273 0.06926217
v 7.231288E-08 0.1679301 0.1504292
v -0.0278334 0.1129248 0.03636055
v 6.360078E-08 0.1400983 0.06926217
v 0.0401884 0.1630504 0.1504292
v 5.390346E-08 0.1163044 0.03636055
v 0.03352779 0.1360273 0.06926217
v 0.07804113 0.1486947 0.1504292
v 0.02783351 0.1129247 0.03636055
v 0.065107 0.1240509 0.06926217
v 0.1113583 0.1256975 0.1504292
v 0.0540494 0.1029824 0.03636055
v 0.0929024 0.104865 0.06926217
v 0.1382038 0.09539509 0.1504292
v 0.0771241 0.08705501 0.03636054
v 0.1152987 0.07958482 0.06926216
v 0.1570174 0.05954874 0.1504292
v 0.09571663 0.06606834 0.03636054
v 0.1309942 0.04967945 0.06926215
v 0.1667057 0.02024159 0.1504292
v 0.1087465 0.04124203 0.03636053
v 0.1390768 0.01688686 0.06926215
v 0.1667057 -0.0202419 0.1504292
v 0.1154564 0.01401886 0.03636053
v 0.1390768 -0.0168871 0.06926214
v 0.1570173 -0.05954902 0.1504292
v 0.1154563 -0.01401904 0.03636052
v 0.1309941 -0.04967964 0.06926214
v 0.1382037 -0.09539533 0.1504292
v 0.1087464 -0.04124218 0.03636052
v 0.1152985 -0.079585 0.06926212
v 0.1113581 -0.1256976 0.1504291
v 0.09571651 -0.06606849 0.03636051
v 0.0929022 -0.1048651 0.06926212
v 0.07804083 -0.1486948 0.1504291
v 0.07712394 -0.08705512 0.0363605
v 0.06510675 -0.1240509 0.06926212
v 0.04018809 -0.1630504 0.1504291
v 0.05404919 -0.1029824 0.0363605
v 0.03352752 -0.1360273 0.06926212
v 1.759454E-08 -0.1679301 0.1504291
v 0.02783329 -0.1129248 0.0363605
v 1.795091E-08 -0.1400982 0.06926212
v 1.600656E-08 -0.1163043 0.0363605
v 0.02783329 -0.1129248 0.0363605
v 1.600656E-08 -0.1163043 0.0363605
v -0.02783343 -0.1129247 0.0363605
v 0.05404919 -0.1029824 0.0363605
v -0.0540493 -0.1029824 0.0363605
v 0.07712394 -0.08705512 0.0363605
v -0.07712403 -0.08705501 0.0363605
v 0.09571651 -0.06606849 0.03636051
v -0.09571657 -0.06606836 0.03636051
v 0.1087464 -0.04124218 0.03636052
v -0.1087464 -0.04124207 0.03636052
v 0.1154563 -0.01401904 0.03636052
v -0.1154563 -0.01401891 0.03636052
v 0.1154564 0.01401886 0.03636053
v -0.1154563 0.01401895 0.03636053
v 0.1087465 0.04124203 0.03636053
v -0.1087464 0.0412421 0.03636053
v 0.09571663 0.06606834 0.03636054
v -0.09571658 0.0660684 0.03636054
v 0.0771241 0.08705501 0.03636054
v -0.07712403 0.08705505 0.03636054
v 0.0540494 0.1029824 0.03636055
v -0.05404928 0.1029824 0.03636055
v 0.02783351 0.1129247 0.03636055
v -0.0278334 0.1129248 0.03636055
v 5.390346E-08 0.1163044 0.03636055
v 0.1490823 -0.1029043 0.1504291
v 0.1382037 -0.09539533 0.1504292
v 0.1570173 -0.05954902 0.1504292
v 0.1693769 -0.06423637 0.1504292
v 0.1201236 -0.1355918 0.1504291
v 0.1667057 -0.0202419 0.1504292
v 0.1113581 -0.1256976 0.1504291
v 0.1798279 -0.02183521 0.1504292
v 0.08418376 -0.1603993 0.1504291
v 0.1667057 0.02024159 0.1504292
v 0.07804083 -0.1486948 0.1504291
v 0.1798279 0.02183491 0.1504292
v 0.04335146 -0.1758849 0.1504291
v 0.1570174 0.05954874 0.1504292
v 0.04018809 -0.1630504 0.1504291
v 0.169377 0.06423609 0.1504292
v 1.826113E-08 -0.1811486 0.1504291
v 0.1382038 0.09539509 0.1504292
v 1.759454E-08 -0.1679301 0.1504291
v 0.1490825 0.1029041 0.1504292
v -0.04335169 -0.1758848 0.1504291
v 0.1113583 0.1256975 0.1504292
v -0.04018828 -0.1630504 0.1504291
v 0.1201239 0.1355917 0.1504292
v -0.08418397 -0.1603992 0.1504291
v 0.07804113 0.1486947 0.1504292
v -0.078041 -0.1486947 0.1504291
v 0.08418407 0.1603992 0.1504292
v -0.1201238 -0.1355917 0.1504291
v 0.0401884 0.1630504 0.1504292
v -0.1113583 -0.1256975 0.1504291
v 0.04335181 0.1758849 0.1504292
v -0.1490824 -0.1029041 0.1504291
v 7.231288E-08 0.1679301 0.1504292
v -0.1382038 -0.09539514 0.1504292
v 7.72868E-08 0.1811487 0.1504292
v -0.169377 -0.06423618 0.1504292
v -0.04018825 0.1630504 0.1504292
v -0.1570174 -0.05954883 0.1504292
v -0.04335165 0.1758849 0.1504292
v -0.1798279 -0.02183504 0.1504292
v -0.07804097 0.1486948 0.1504292
v -0.1667057 -0.02024173 0.1504292
v -0.08418393 0.1603992 0.1504292
v -0.1798279 0.02183508 0.1504292
v -0.1113583 0.1256975 0.1504292
v -0.1667057 0.02024174 0.1504292
v -0.1201238 0.1355918 0.1504292
v -0.169377 0.06423622 0.1504292
v -0.1382038 0.09539519 0.1504292
v -0.1570174 0.05954884 0.1504292
v -0.1490824 0.1029042 0.1504292
vt 0.7476387 0.7830359
vt 0.7476387 0.760038
vt 0.742135 0.7377084
vt 0.7314474 0.7173447
vt 0.7421348 0.8053655
vt 0.716197 0.7001304
vt 0.7314471 0.8257291
vt 0.6972702 0.6870661
vt 0.7161967 0.8429433
vt 0.6757668 0.6789109
vt 0.6972698 0.8560075
vt 0.6529366 0.6761388
vt 0.6757664 0.8641625
vt 0.6301065 0.6789109
vt 0.6529362 0.8669345
vt 0.6086032 0.687066
vt 0.6301062 0.8641623
vt 0.5896763 0.7001302
vt 0.6086027 0.8560071
vt 0.5744259 0.7173443
vt 0.5896759 0.8429428
vt 0.5637382 0.7377078
vt 0.5744255 0.8257285
vt 0.5582344 0.7600374
vt 0.563738 0.8053649
vt 0.5582343 0.7830353
vt 0.1358084 0.3495952
vt 0.17666 0.3532769
vt 0.1811834 0.3271061
vt 0.1425453 0.3173162
vt 0.1893315 0.3019873
vt 0.1060504 0.3060933
vt 0.09600302 0.342695
vt 0.05099758 0.3299944
vt 0.1530751 0.2873262
vt 0.2004582 0.278255
vt 0.1666887 0.2595568
vt 0.2141679 0.2561457
vt 0.1191344 0.2727215
vt 0.06402641 0.2911763
vt 0.183079 0.2339254
vt 0.2301615 0.235866
vt 0.02146909 0.2742911
vt 0.006735636 0.3155906
vt 0.03917862 0.2343477
vt 0.07966903 0.2544275
vt 0.0602995 0.1963244
vt 0.135181 0.2416723
vt 0.09834423 0.2198921
vt 0.08492222 0.1607399
vt 0.2019837 0.2105325
vt 0.2481732 0.2176054
vt 0.1541006 0.2129848
vt 0.1201167 0.1877939
vt 0.1129184 0.1280582
vt 0.2231421 0.1895389
vt 0.2679428 0.2015354
vt 0.1757191 0.1868013
vt 0.1448724 0.1584118
vt 0.1440219 0.09868217
vt 0.2462794 0.1711175
vt 0.2892058 0.1878064
vt 0.1998025 0.1633147
vt 0.1723829 0.1320299
vt 0.1778807 0.07295173
vt 0.2711033 0.1554302
vt 0.3116891 0.1765434
vt 0.2260706 0.1427271
vt 0.2023447 0.1089119
vt 0.2140873 0.0511463
vt 0.2973048 0.1426157
vt 0.3351113 0.1678439
vt 0.2542076 0.1252253
vt 0.2344042 0.08928762
vt 0.2521984 0.03348654
vt 0.324562 0.1327829
vt 0.3591849 0.1617756
vt 0.2838717 0.1109681
vt 0.2681739 0.07334536
vt 0.2917476 0.02013586
vt 0.3525431 0.1260071
vt 0.3836185 0.1583756
vt 0.3147022 0.1000787
vt 0.3032436 0.06122805
vt 0.3322544 0.01120158
vt 0.3809119 0.1223283
vt 0.4081205 0.1576497
vt 0.3463263 0.09264163
vt 0.339189 0.05303159
vt 0.3732315 0.006735663
vt 0.4093309 0.1217505
vt 0.432402 0.1595727
vt 0.3783647 0.0887005
vt 0.3755789 0.04880416
vt 0.4141924 0.006735636
vt 0.4374661 0.1242417
vt 0.4561801 0.1640889
vt 0.4104371 0.08825787
vt 0.4119818 0.04854633
vt 0.4546565 0.01114598
vt 0.4649907 0.1297348
vt 0.4791808 0.1711134
vt 0.4421673 0.09127541
vt 0.4479704 0.05221181
vt 0.4941553 0.01985948
vt 0.491589 0.1381289
vt 0.501142 0.1805332
vt 0.4731877 0.09767501
vt 0.4831285 0.05970875
vt 0.5322386 0.0327193
vt 0.5169599 0.1492916
vt 0.5218157 0.1922095
vt 0.5031435 0.1073404
vt 0.517055 0.07090165
vt 0.5684797 0.0495216
vt 0.5408196 0.1630618
vt 0.5409688 0.2059805
vt 0.5316978 0.1201197
vt 0.5493695 0.08561371
vt 0.6024812 0.07001839
vt 0.5629046 0.1792536
vt 0.5583838 0.2216637
vt 0.5585346 0.1358283
vt 0.5797175 0.1036302
vt 0.633881 0.09392082
vt 0.5829725 0.1976619
vt 0.5738555 0.2390603
vt 0.5833636 0.1542539
vt 0.6077758 0.1247023
vt 0.6623602 0.1209028
vt 0.6008022 0.2180704
vt 0.5871842 0.2579596
vt 0.6059238 0.1751623
vt 0.6332589 0.148553
vt 0.6876521 0.1506051
vt 0.6161897 0.2402642
vt 0.59816 0.2781434
vt 0.6259874 0.1983076
vt 0.6559275 0.1748848
vt 0.7095577 0.1826389
vt 0.6289374 0.2640496
vt 0.6065338 0.2993889
vt 0.6433635 0.223448
vt 0.6756011 0.2033924
vt 0.7279728 0.2165902
vt 0.6388266 0.2892834
vt 0.6119691 0.3214594
vt 0.6579015 0.2503746
vt 0.6921778 0.2337855
vt 0.7429404 0.2520249
vt 0.645542 0.3159068
vt 0.613872 0.3440818
vt 0.648809 0.3443895
vt 0.6836822 0.3414803
vt 0.6694931 0.2789682
vt 0.7056695 0.265833
vt 0.7547581 0.2884972
vt 0.6780704 0.3093258
vt 0.7162609 0.299453
vt 0.7242161 0.3346661
vt 0.7641108 0.3258866
vt 0.7058923 0.5974266
vt 0.644994 0.6545582
vt 0.7182539 0.6317204
vt 0.6358347 0.626303
vt 0.6097611 0.6626666
vt 0.6904571 0.5644985
vt 0.6024576 0.6387937
vt 0.623952 0.5996887
vt 0.6719791 0.5332544
vt 0.5922381 0.6158316
vt 0.6094448 0.5746262
vt 0.6505779 0.5039793
vt 0.5795637 0.5940265
vt 0.5924955 0.5512196
vt 0.6264285 0.4769422
vt 0.5646914 0.5735787
vt 0.5732945 0.5296363
vt 0.5997456 0.452397
vt 0.5478231 0.5546847
vt 0.5520421 0.5100589
vt 0.570776 0.4305781
vt 0.5291469 0.5375293
vt 0.5289508 0.4926657
vt 0.5397921 0.4116967
vt 0.5088539 0.5222812
vt 0.5042462 0.4776203
vt 0.5070884 0.3959371
vt 0.4871442 0.5090902
vt 0.4781679 0.4650675
vt 0.4729773 0.3834547
vt 0.4642287 0.4980864
vt 0.4509668 0.4551297
vt 0.4377858 0.3743736
vt 0.4403286 0.4893788
vt 0.422905 0.447905
vt 0.4018521 0.3687854
vt 0.4156743 0.4830543
vt 0.3942525 0.443466
vt 0.3655219 0.3667482
vt 0.3905031 0.4791768
vt 0.3652855 0.4418586
vt 0.3291455 0.3682858
vt 0.3650576 0.4777867
vt 0.3362832 0.4431017
vt 0.293074 0.3733877
vt 0.3395831 0.4789003
vt 0.3075253 0.4471866
vt 0.2576558 0.3820087
vt 0.3143257 0.48251
vt 0.27929 0.4540773
vt 0.2232337 0.3940696
vt 0.2895295 0.488584
vt 0.2518498 0.4637107
vt 0.1901409 0.4094578
vt 0.2654343 0.4970667
vt 0.2254703 0.4759976
vt 0.158698 0.4280278
vt 0.2422738 0.5078797
vt 0.2004064 0.4908236
vt 0.1292094 0.4496025
vt 0.2202732 0.5209221
vt 0.1768995 0.508051
vt 0.101959 0.4739739
vt 0.1996471 0.5360728
vt 0.1551747 0.5275221
vt 0.07720535 0.5009036
vt 0.180599 0.5531917
vt 0.135437 0.5490652
vt 0.05517353 0.5301225
vt 0.1633212 0.5721235
vt 0.1178681 0.5725054
vt 0.03603949 0.5613279
vt 0.1479986 0.5927019
vt 0.1026226 0.5976884
vt 0.0198988 0.5941794
vt 0.1348199 0.6147576
vt 0.08982898 0.6245325
vt 0.006735636 0.6280845
vt 0.1240058 0.6381279
vt 0.07963508 0.6531535
vt 0.1158761 0.6626675
vt 0.541783 0.7534
vt 0.5330164 0.7302844
vt 0.5189726 0.7099383
vt 0.544763 0.7779421
vt 0.5004677 0.6935443
vt 0.5417831 0.8024842
vt 0.4785773 0.6820553
vt 0.5330164 0.8255999
vt 0.4545733 0.6761388
vt 0.5189726 0.845946
vt 0.429851 0.6761388
vt 0.5004678 0.8623399
vt 0.4058471 0.6820553
vt 0.4785773 0.8738289
vt 0.3839568 0.6935442
vt 0.4545734 0.8797454
vt 0.3654518 0.7099381
vt 0.4298512 0.8797455
vt 0.3514079 0.7302842
vt 0.4058473 0.8738291
vt 0.3426412 0.7534
vt 0.3839566 0.86234
vt 0.3396612 0.7779421
vt 0.3654517 0.845946
vt 0.3426411 0.8024843
vt 0.3514078 0.8256
vt 0.307894 0.9089309
vt 0.2975736 0.9035144
vt 0.2772959 0.9328917
vt 0.28602 0.9406207
vt 0.3215484 0.8729271
vt 0.2505768 0.9565626
vt 0.3102317 0.8701378
vt 0.2571978 0.9661549
vt 0.3261899 0.8347017
vt 0.2189694 0.9731514
vt 0.3145345 0.8347017
vt 0.2231025 0.9840494
vt 0.3215486 0.7964764
vt 0.1843105 0.9816939
vt 0.3102318 0.7992657
vt 0.1857154 0.9932644
vt 0.3078943 0.7604728
vt 0.1486144 0.9816938
vt 0.2975739 0.7658893
vt 0.1472094 0.9932644
vt 0.2860204 0.728783
vt 0.1139555 0.9731512
vt 0.2772962 0.7365119
vt 0.1098224 0.9840491
vt 0.2571983 0.7032487
vt 0.0823482 0.9565623
vt 0.2505773 0.7128409
vt 0.07572714 0.9661545
vt 0.223103 0.6853541
vt 0.05562935 0.9328912
vt 0.2189699 0.696252
vt 0.04690511 0.9406202
vt 0.185716 0.6761389
vt 0.0353517 0.9035138
vt 0.1843111 0.6877093
vt 0.0250313 0.9089304
vt 0.14721 0.6761388
vt 0.02269373 0.8701372
vt 0.1486149 0.6877093
vt 0.01137696 0.8729265
vt 0.109823 0.6853539
vt 0.01839105 0.8347013
vt 0.113956 0.6962519
vt 0.006735636 0.8347013
vt 0.07572763 0.7032484
vt 0.02269381 0.7992654
vt 0.08234865 0.7128407
vt 0.01137705 0.7964761
vt 0.04690546 0.7287825
vt 0.0353519 0.7658889
vt 0.05562969 0.7365115
vt 0.02503153 0.7604723
vn -0.08692143 -0.3526541 -0.931708
vn -2.166143E-07 -0.3632078 -0.9317081
vn 0.08692092 -0.3526538 -0.9317081
vn 0.1687909 -0.321605 -0.931708
vn -0.1687915 -0.3216049 -0.9317079
vn 0.2408516 -0.2718656 -0.9317079
vn -0.2408517 -0.271865 -0.931708
vn 0.2989142 -0.2063257 -0.9317081
vn -0.2989145 -0.2063257 -0.931708
vn 0.3396052 -0.1287955 -0.9317081
vn -0.3396058 -0.1287953 -0.9317079
vn 0.36056 -0.04378013 -0.931708
vn -0.36056 -0.04377963 -0.931708
vn 0.3605601 0.04377978 -0.931708
vn -0.36056 0.04378 -0.931708
vn 0.3396059 0.1287954 -0.9317079
vn -0.3396057 0.1287957 -0.9317079
vn 0.2989148 0.2063257 -0.9317079
vn -0.2989145 0.206326 -0.9317079
vn 0.2408519 0.2718652 -0.9317079
vn -0.2408515 0.2718652 -0.931708
vn 0.1687914 0.3216052 -0.9317078
vn -0.1687912 0.3216051 -0.9317079
vn 0.08692139 0.3526542 -0.931708
vn -0.08692118 0.3526542 -0.9317079
vn 1.32517E-07 0.3632081 -0.931708
vn -4.362005E-07 -0.7620091 -0.6475664
vn -2.166143E-07 -0.3632078 -0.9317081
vn -0.08692143 -0.3526541 -0.931708
vn -0.1823609 -0.7398666 -0.6475661
vn -0.1687915 -0.3216049 -0.9317079
vn -0.2195771 -0.8908572 -0.3976925
vn -3.549803E-07 -0.9175187 -0.3976926
vn -1.271583E-07 -0.9738391 -0.2272388
vn -0.3541236 -0.6747257 -0.6475661
vn -0.2408517 -0.271865 -0.931708
vn -0.5053058 -0.5703719 -0.6475661
vn -0.2989145 -0.2063257 -0.931708
vn -0.4263924 -0.8124225 -0.3976924
vn -0.2330554 -0.945541 -0.2272388
vn -0.6271214 -0.4328705 -0.6475662
vn -0.3396058 -0.1287953 -0.9317079
vn -0.1892625 -0.767867 0.612013
vn 0 -0.7908474 0.6120135
vn -0.3675252 -0.7002606 0.6120133
vn -0.4525657 -0.8622916 -0.2272388
vn -0.524429 -0.5919581 0.6120129
vn -0.6084276 -0.6867726 -0.3976924
vn -0.6457747 -0.728929 -0.2272389
vn -0.6508547 -0.4492529 0.612013
vn -0.7124911 -0.2702122 -0.647566
vn -0.36056 -0.04377963 -0.931708
vn -0.7551032 -0.5212099 -0.3976925
vn -0.8014538 -0.5532036 -0.2272388
vn -0.7394553 -0.2804388 0.6120129
vn -0.7564533 -0.09184989 -0.6475662
vn -0.36056 0.04378 -0.931708
vn -0.8578949 -0.3253568 -0.3976924
vn -0.9105553 -0.3453281 -0.2272389
vn -0.7850813 -0.09532607 0.6120133
vn -0.7564533 0.09185022 -0.6475662
vn -0.3396057 0.1287957 -0.9317079
vn -0.9108291 -0.1105946 -0.3976923
vn -0.9667388 -0.1173831 -0.2272387
vn -0.7850814 0.09532589 0.6120132
vn -0.7124912 0.2702124 -0.647566
vn -0.2989145 0.206326 -0.9317079
vn -0.9108291 0.1105948 -0.3976922
vn -0.9667388 0.1173832 -0.2272387
vn -0.7394555 0.2804382 0.6120131
vn -0.6271214 0.4328707 -0.647566
vn -0.2408515 0.2718652 -0.931708
vn -0.857895 0.3253567 -0.3976923
vn -0.9105554 0.345328 -0.227239
vn -0.6508546 0.4492527 0.6120134
vn -0.5053056 0.5703722 -0.647566
vn -0.1687912 0.3216051 -0.9317079
vn -0.7551032 0.52121 -0.3976923
vn -0.8014538 0.5532037 -0.227239
vn -0.5244287 0.5919582 0.6120131
vn -0.3541233 0.6747258 -0.647566
vn -0.08692118 0.3526542 -0.9317079
vn -0.6084276 0.6867728 -0.3976921
vn -0.6457745 0.7289293 -0.2272388
vn -0.367525 0.7002608 0.6120132
vn -0.1823604 0.7398669 -0.6475661
vn 1.32517E-07 0.3632081 -0.931708
vn -0.4263921 0.8124229 -0.397692
vn -0.4525653 0.8622919 -0.2272388
vn -0.1892622 0.7678669 0.6120133
vn 1.803287E-07 0.7620092 -0.6475662
vn 0.08692139 0.3526542 -0.931708
vn -0.2195764 0.8908576 -0.3976921
vn -0.2330548 0.9455411 -0.2272387
vn 0 0.7908473 0.6120136
vn 0.1823609 0.7398667 -0.647566
vn 0.1687914 0.3216052 -0.9317078
vn 1.62902E-07 0.917519 -0.3976921
vn 1.031661E-07 0.9738391 -0.2272388
vn 0.1892624 0.7678666 0.6120135
vn 0.3541238 0.6747257 -0.647566
vn 0.2408519 0.2718652 -0.9317079
vn 0.219577 0.8908573 -0.3976923
vn 0.2330552 0.945541 -0.227239
vn 0.3675259 0.7002603 0.6120132
vn 0.5053061 0.5703719 -0.647566
vn 0.2989148 0.2063257 -0.9317079
vn 0.4263927 0.8124223 -0.3976924
vn 0.4525663 0.8622912 -0.227239
vn 0.5244291 0.591957 0.6120139
vn 0.6271217 0.4328701 -0.6475661
vn 0.3396059 0.1287954 -0.9317079
vn 0.6084279 0.6867724 -0.3976924
vn 0.6457753 0.7289287 -0.2272388
vn 0.6508548 0.4492519 0.6120138
vn 0.7124911 0.2702118 -0.6475662
vn 0.3605601 0.04377978 -0.931708
vn 0.7551035 0.5212097 -0.3976925
vn 0.8014541 0.5532033 -0.2272387
vn 0.7394555 0.2804375 0.6120135
vn 0.7564535 0.09184954 -0.6475661
vn 0.36056 -0.04378013 -0.931708
vn 0.8578952 0.3253559 -0.3976925
vn 0.9105557 0.3453271 -0.2272388
vn 0.7850813 0.09532511 0.6120135
vn 0.7564532 -0.09185068 -0.6475662
vn 0.3396052 -0.1287955 -0.9317081
vn 0.9108291 0.110594 -0.3976923
vn 0.9667388 0.1173824 -0.2272387
vn 0.785081 -0.09532711 0.6120135
vn 0.7124907 -0.2702128 -0.6475663
vn 0.2989142 -0.2063257 -0.9317081
vn 0.9108291 -0.1105955 -0.3976922
vn 0.9667387 -0.1173843 -0.2272387
vn 0.7394552 -0.2804392 0.6120129
vn 0.6271209 -0.432871 -0.6475663
vn 0.2408516 -0.2718656 -0.9317079
vn 0.8578947 -0.3253576 -0.3976922
vn 0.910555 -0.345329 -0.2272388
vn 0.6508546 -0.4492533 0.612013
vn 0.5053051 -0.5703726 -0.6475661
vn 0.1687909 -0.321605 -0.931708
vn 0.7551028 -0.5212107 -0.3976924
vn 0.8014533 -0.5532044 -0.2272389
vn 0.5244283 -0.5919585 0.6120131
vn 0.3541226 -0.6747262 -0.6475661
vn 0.08692092 -0.3526538 -0.9317081
vn 0.6084266 -0.6867734 -0.3976925
vn 0.6457738 -0.7289298 -0.227239
vn 0.3675241 -0.7002614 0.6120131
vn 0.18236 -0.7398668 -0.6475663
vn -2.166143E-07 -0.3632078 -0.9317081
vn -4.362005E-07 -0.7620091 -0.6475664
vn -3.549803E-07 -0.9175187 -0.3976926
vn 0.4263913 -0.8124231 -0.3976924
vn 0.4525644 -0.8622923 -0.227239
vn 0.1892614 -0.7678672 0.6120133
vn 0.2195759 -0.8908575 -0.3976925
vn 0.2330543 -0.9455412 -0.2272388
vn -1.271583E-07 -0.9738391 -0.2272388
vn 0 -0.7908474 0.6120135
vn 0.1316457 0.5341076 0.8351039
vn 0 0.8901628 0.4556426
vn 0 0.5500925 0.8351038
vn 0.2130298 0.8642964 0.4556426
vn 0 0.4818427 0.8762577
vn 0.2556409 0.4870828 0.8351036
vn 0.1153126 0.4678416 0.8762575
vn 0.4136795 0.7882 0.4556426
vn 0.364779 0.4117499 0.8351038
vn 0.2239238 0.4266507 0.8762575
vn 0.5902874 0.6662962 0.4556425
vn 0.4527173 0.3124879 0.8351038
vn 0.3195212 0.3606645 0.8762575
vn 0.7325897 0.5056702 0.4556426
vn 0.5143453 0.1950651 0.8351038
vn 0.3965489 0.2737179 0.8762577
vn 0.8323167 0.315656 0.4556425
vn 0.5460818 0.0663059 0.8351037
vn 0.450531 0.1708638 0.8762577
vn 0.8836725 0.1072969 0.4556425
vn 0.546082 -0.06630619 0.8351036
vn 0.4783298 0.05807939 0.8762577
vn 0.8836725 -0.107297 0.4556424
vn 0.5143455 -0.1950655 0.8351036
vn 0.4783298 -0.05807972 0.8762577
vn 0.8323167 -0.315656 0.4556425
vn 0.4527174 -0.3124883 0.8351036
vn 0.4505309 -0.1708639 0.8762577
vn 0.7325895 -0.5056704 0.4556426
vn 0.3647788 -0.4117503 0.8351036
vn 0.3965488 -0.2737182 0.8762575
vn 0.5902871 -0.6662966 0.4556425
vn 0.2556405 -0.487083 0.8351036
vn 0.3195209 -0.3606647 0.8762577
vn 0.4136791 -0.7882002 0.4556425
vn 0.1316457 -0.5341083 0.8351034
vn 0.2239235 -0.4266508 0.8762575
vn 0.2130298 -0.8642964 0.4556425
vn 0 -0.5500932 0.8351033
vn 0.1153125 -0.4678418 0.8762575
vn -2.046216E-07 -0.8901628 0.4556425
vn -0.1316459 -0.5341085 0.8351033
vn -2.630694E-07 -0.4818431 0.8762575
vn -0.2130301 -0.8642962 0.4556427
vn -0.2556411 -0.4870827 0.8351036
vn -0.1153126 -0.4678411 0.8762578
vn -0.4136798 -0.7881997 0.4556427
vn -0.3647793 -0.4117502 0.8351034
vn -0.2239238 -0.4266507 0.8762575
vn -0.5902878 -0.6662959 0.4556426
vn -0.4527179 -0.3124885 0.8351032
vn -0.3195213 -0.3606645 0.8762575
vn -0.7325899 -0.5056698 0.4556425
vn -0.5143457 -0.1950653 0.8351036
vn -0.3965491 -0.2737179 0.8762575
vn -0.8323169 -0.3156555 0.4556426
vn -0.5460822 -0.06630593 0.8351035
vn -0.4505311 -0.1708636 0.8762575
vn -0.8836727 -0.1072964 0.4556425
vn -0.546082 0.06630667 0.8351035
vn -0.4783298 -0.05807946 0.8762575
vn -0.8836725 0.107298 0.4556426
vn -0.5143452 0.1950658 0.8351038
vn -0.4783298 0.05808002 0.8762575
vn -0.8323165 0.3156567 0.4556426
vn -0.4527166 0.3124887 0.8351038
vn -0.4505308 0.1708641 0.8762577
vn -0.732589 0.5056708 0.4556427
vn -0.3647783 0.4117507 0.8351037
vn -0.3965487 0.2737182 0.8762577
vn -0.5902864 0.6662971 0.4556427
vn -0.2556401 0.487083 0.8351038
vn -0.3195207 0.3606649 0.8762575
vn -0.4136782 0.7882006 0.4556426
vn -0.1316451 0.5341079 0.8351038
vn -0.2239232 0.4266511 0.8762575
vn -0.2130287 0.8642966 0.4556426
vn 0 0.5500925 0.8351038
vn -0.1153119 0.4678415 0.8762577
vn 0 0.8901628 0.4556426
vn 0 0.4818427 0.8762577
vn -0.1153119 0.4678415 0.8762577
vn 0 0.4818427 0.8762577
vn 0.1153126 0.4678416 0.8762575
vn -0.2239232 0.4266511 0.8762575
vn 0.2239238 0.4266507 0.8762575
vn -0.3195207 0.3606649 0.8762575
vn 0.3195212 0.3606645 0.8762575
vn -0.3965487 0.2737182 0.8762577
vn 0.3965489 0.2737179 0.8762577
vn -0.4505308 0.1708641 0.8762577
vn 0.450531 0.1708638 0.8762577
vn -0.4783298 0.05808002 0.8762575
vn 0.4783298 0.05807939 0.8762577
vn -0.4783298 -0.05807946 0.8762575
vn 0.4783298 -0.05807972 0.8762577
vn -0.4505311 -0.1708636 0.8762575
vn 0.4505309 -0.1708639 0.8762577
vn -0.3965491 -0.2737179 0.8762575
vn 0.3965488 -0.2737182 0.8762575
vn -0.3195213 -0.3606645 0.8762575
vn 0.3195209 -0.3606647 0.8762577
vn -0.2239238 -0.4266507 0.8762575
vn 0.2239235 -0.4266508 0.8762575
vn -0.1153126 -0.4678411 0.8762578
vn 0.1153125 -0.4678418 0.8762575
vn -2.630694E-07 -0.4818431 0.8762575
vn 0.6508546 -0.4492533 0.612013
vn -0.4527166 0.3124887 0.8351038
vn -0.5143452 0.1950658 0.8351038
vn 0.7394552 -0.2804392 0.6120129
vn 0.5244283 -0.5919585 0.6120131
vn -0.546082 0.06630667 0.8351035
vn -0.3647783 0.4117507 0.8351037
vn 0.785081 -0.09532711 0.6120135
vn 0.3675241 -0.7002614 0.6120131
vn -0.5460822 -0.06630593 0.8351035
vn -0.2556401 0.487083 0.8351038
vn 0.7850813 0.09532511 0.6120135
vn 0.1892614 -0.7678672 0.6120133
vn -0.5143457 -0.1950653 0.8351036
vn -0.1316451 0.5341079 0.8351038
vn 0.7394555 0.2804375 0.6120135
vn 0 -0.7908474 0.6120135
vn -0.4527179 -0.3124885 0.8351032
vn 0 0.5500925 0.8351038
vn 0.6508548 0.4492519 0.6120138
vn -0.1892625 -0.767867 0.612013
vn -0.3647793 -0.4117502 0.8351034
vn 0.1316457 0.5341076 0.8351039
vn 0.5244291 0.591957 0.6120139
vn -0.3675252 -0.7002606 0.6120133
vn -0.2556411 -0.4870827 0.8351036
vn 0.2556409 0.4870828 0.8351036
vn 0.3675259 0.7002603 0.6120132
vn -0.524429 -0.5919581 0.6120129
vn -0.1316459 -0.5341085 0.8351033
vn 0.364779 0.4117499 0.8351038
vn 0.1892624 0.7678666 0.6120135
vn -0.6508547 -0.4492529 0.612013
vn 0 -0.5500932 0.8351033
vn 0.4527173 0.3124879 0.8351038
vn 0 0.7908473 0.6120136
vn -0.7394553 -0.2804388 0.6120129
vn 0.1316457 -0.5341083 0.8351034
vn 0.5143453 0.1950651 0.8351038
vn -0.1892622 0.7678669 0.6120133
vn -0.7850813 -0.09532607 0.6120133
vn 0.2556405 -0.487083 0.8351036
vn 0.5460818 0.0663059 0.8351037
vn -0.367525 0.7002608 0.6120132
vn -0.7850814 0.09532589 0.6120132
vn 0.3647788 -0.4117503 0.8351036
vn 0.546082 -0.06630619 0.8351036
vn -0.5244287 0.5919582 0.6120131
vn -0.7394555 0.2804382 0.6120131
vn 0.4527174 -0.3124883 0.8351036
vn 0.5143455 -0.1950655 0.8351036
vn -0.6508546 0.4492527 0.6120134
usemtl bowl03
f 1/1/1 3/3/3 2/2/2 
f 3/3/3 1/1/1 4/4/4 
f 4/4/4 1/1/1 5/5/5 
f 4/4/4 5/5/5 6/6/6 
f 6/6/6 5/5/5 7/7/7 
f 6/6/6 7/7/7 8/8/8 
f 8/8/8 7/7/7 9/9/9 
f 8/8/8 9/9/9 10/10/10 
f 10/10/10 9/9/9 11/11/11 
f 10/10/10 11/11/11 12/12/12 
f 12/12/12 11/11/11 13/13/13 
f 12/12/12 13/13/13 14/14/14 
f 14/14/14 13/13/13 15/15/15 
f 14/14/14 15/15/15 16/16/16 
f 16/16/16 15/15/15 17/17/17 
f 16/16/16 17/17/17 18/18/18 
f 18/18/18 17/17/17 19/19/19 
f 18/18/18 19/19/19 20/20/20 
f 20/20/20 19/19/19 21/21/21 
f 20/20/20 21/21/21 22/22/22 
f 22/22/22 21/21/21 23/23/23 
f 22/22/22 23/23/23 24/24/24 
f 24/24/24 23/23/23 25/25/25 
f 24/24/24 25/25/25 26/26/26 
f 27/27/27 29/29/29 28/28/28 
f 27/27/27 30/30/30 29/29/29 
f 30/30/30 31/31/31 29/29/29 
f 32/32/32 30/30/30 27/27/27 
f 32/32/32 27/27/27 33/33/33 
f 34/34/34 32/32/32 33/33/33 
f 30/30/30 35/35/35 31/31/31 
f 32/32/32 35/35/35 30/30/30 
f 35/35/35 36/36/36 31/31/31 
f 35/35/35 37/37/37 36/36/36 
f 37/37/37 38/38/38 36/36/36 
f 32/32/32 39/39/39 35/35/35 
f 39/39/39 37/37/37 35/35/35 
f 34/34/34 40/40/40 32/32/32 
f 40/40/40 39/39/39 32/32/32 
f 37/37/37 41/41/41 38/38/38 
f 41/41/41 42/42/42 38/38/38 
f 34/34/34 43/43/43 40/40/40 
f 34/34/34 44/44/44 43/43/43 
f 40/40/40 43/43/43 45/45/45 
f 40/40/40 45/45/45 46/46/46 
f 40/40/40 46/46/46 39/39/39 
f 46/46/46 45/45/45 47/47/47 
f 39/39/39 48/48/48 37/37/37 
f 46/46/46 48/48/48 39/39/39 
f 48/48/48 41/41/41 37/37/37 
f 46/46/46 47/47/47 49/49/49 
f 46/46/46 49/49/49 48/48/48 
f 49/49/49 47/47/47 50/50/50 
f 41/41/41 51/51/51 42/42/42 
f 51/51/51 52/52/52 42/42/42 
f 48/48/48 53/53/53 41/41/41 
f 49/49/49 53/53/53 48/48/48 
f 53/53/53 51/51/51 41/41/41 
f 49/49/49 50/50/50 54/54/54 
f 49/49/49 54/54/54 53/53/53 
f 54/54/54 50/50/50 55/55/55 
f 51/51/51 56/56/56 52/52/52 
f 56/56/56 57/57/57 52/52/52 
f 53/53/53 58/58/58 51/51/51 
f 54/54/54 58/58/58 53/53/53 
f 58/58/58 56/56/56 51/51/51 
f 54/54/54 55/55/55 59/59/59 
f 54/54/54 59/59/59 58/58/58 
f 59/59/59 55/55/55 60/60/60 
f 56/56/56 61/61/61 57/57/57 
f 61/61/61 62/62/62 57/57/57 
f 58/58/58 63/63/63 56/56/56 
f 59/59/59 63/63/63 58/58/58 
f 63/63/63 61/61/61 56/56/56 
f 59/59/59 60/60/60 64/64/64 
f 59/59/59 64/64/64 63/63/63 
f 64/64/64 60/60/60 65/65/65 
f 61/61/61 66/66/66 62/62/62 
f 66/66/66 67/67/67 62/62/62 
f 63/63/63 68/68/68 61/61/61 
f 64/64/64 68/68/68 63/63/63 
f 68/68/68 66/66/66 61/61/61 
f 64/64/64 65/65/65 69/69/69 
f 64/64/64 69/69/69 68/68/68 
f 69/69/69 65/65/65 70/70/70 
f 66/66/66 71/71/71 67/67/67 
f 71/71/71 72/72/72 67/67/67 
f 68/68/68 73/73/73 66/66/66 
f 69/69/69 73/73/73 68/68/68 
f 73/73/73 71/71/71 66/66/66 
f 69/69/69 70/70/70 74/74/74 
f 69/69/69 74/74/74 73/73/73 
f 74/74/74 70/70/70 75/75/75 
f 71/71/71 76/76/76 72/72/72 
f 76/76/76 77/77/77 72/72/72 
f 73/73/73 78/78/78 71/71/71 
f 74/74/74 78/78/78 73/73/73 
f 78/78/78 76/76/76 71/71/71 
f 74/74/74 75/75/75 79/79/79 
f 74/74/74 79/79/79 78/78/78 
f 79/79/79 75/75/75 80/80/80 
f 76/76/76 81/81/81 77/77/77 
f 81/81/81 82/82/82 77/77/77 
f 78/78/78 83/83/83 76/76/76 
f 79/79/79 83/83/83 78/78/78 
f 83/83/83 81/81/81 76/76/76 
f 79/79/79 80/80/80 84/84/84 
f 79/79/79 84/84/84 83/83/83 
f 84/84/84 80/80/80 85/85/85 
f 81/81/81 86/86/86 82/82/82 
f 86/86/86 87/87/87 82/82/82 
f 83/83/83 88/88/88 81/81/81 
f 84/84/84 88/88/88 83/83/83 
f 88/88/88 86/86/86 81/81/81 
f 84/84/84 85/85/85 89/89/89 
f 84/84/84 89/89/89 88/88/88 
f 89/89/89 85/85/85 90/90/90 
f 86/86/86 91/91/91 87/87/87 
f 91/91/91 92/92/92 87/87/87 
f 88/88/88 93/93/93 86/86/86 
f 89/89/89 93/93/93 88/88/88 
f 93/93/93 91/91/91 86/86/86 
f 89/89/89 90/90/90 94/94/94 
f 89/89/89 94/94/94 93/93/93 
f 94/94/94 90/90/90 95/95/95 
f 91/91/91 96/96/96 92/92/92 
f 96/96/96 97/97/97 92/92/92 
f 93/93/93 98/98/98 91/91/91 
f 94/94/94 98/98/98 93/93/93 
f 98/98/98 96/96/96 91/91/91 
f 94/94/94 95/95/95 99/99/99 
f 94/94/94 99/99/99 98/98/98 
f 99/99/99 95/95/95 100/100/100 
f 96/96/96 101/101/101 97/97/97 
f 101/101/101 102/102/102 97/97/97 
f 98/98/98 103/103/103 96/96/96 
f 99/99/99 103/103/103 98/98/98 
f 103/103/103 101/101/101 96/96/96 
f 99/99/99 100/100/100 104/104/104 
f 99/99/99 104/104/104 103/103/103 
f 104/104/104 100/100/100 105/105/105 
f 101/101/101 106/106/106 102/102/102 
f 106/106/106 107/107/107 102/102/102 
f 103/103/103 108/108/108 101/101/101 
f 104/104/104 108/108/108 103/103/103 
f 108/108/108 106/106/106 101/101/101 
f 104/104/104 105/105/105 109/109/109 
f 104/104/104 109/109/109 108/108/108 
f 109/109/109 105/105/105 110/110/110 
f 106/106/106 111/111/111 107/107/107 
f 111/111/111 112/112/112 107/107/107 
f 108/108/108 113/113/113 106/106/106 
f 109/109/109 113/113/113 108/108/108 
f 113/113/113 111/111/111 106/106/106 
f 109/109/109 110/110/110 114/114/114 
f 109/109/109 114/114/114 113/113/113 
f 114/114/114 110/110/110 115/115/115 
f 111/111/111 116/116/116 112/112/112 
f 116/116/116 117/117/117 112/112/112 
f 113/113/113 118/118/118 111/111/111 
f 114/114/114 118/118/118 113/113/113 
f 118/118/118 116/116/116 111/111/111 
f 114/114/114 115/115/115 119/119/119 
f 114/114/114 119/119/119 118/118/118 
f 119/119/119 115/115/115 120/120/120 
f 116/116/116 121/121/121 117/117/117 
f 121/121/121 122/122/122 117/117/117 
f 118/118/118 123/123/123 116/116/116 
f 119/119/119 123/123/123 118/118/118 
f 123/123/123 121/121/121 116/116/116 
f 119/119/119 120/120/120 124/124/124 
f 119/119/119 124/124/124 123/123/123 
f 124/124/124 120/120/120 125/125/125 
f 121/121/121 126/126/126 122/122/122 
f 126/126/126 127/127/127 122/122/122 
f 123/123/123 128/128/128 121/121/121 
f 124/124/124 128/128/128 123/123/123 
f 128/128/128 126/126/126 121/121/121 
f 124/124/124 125/125/125 129/129/129 
f 124/124/124 129/129/129 128/128/128 
f 129/129/129 125/125/125 130/130/130 
f 126/126/126 131/131/131 127/127/127 
f 131/131/131 132/132/132 127/127/127 
f 128/128/128 133/133/133 126/126/126 
f 129/129/129 133/133/133 128/128/128 
f 133/133/133 131/131/131 126/126/126 
f 129/129/129 130/130/130 134/134/134 
f 129/129/129 134/134/134 133/133/133 
f 134/134/134 130/130/130 135/135/135 
f 131/131/131 136/136/136 132/132/132 
f 136/136/136 137/137/137 132/132/132 
f 133/133/133 138/138/138 131/131/131 
f 134/134/134 138/138/138 133/133/133 
f 138/138/138 136/136/136 131/131/131 
f 134/134/134 135/135/135 139/139/139 
f 134/134/134 139/139/139 138/138/138 
f 139/139/139 135/135/135 140/140/140 
f 136/136/136 141/141/141 137/137/137 
f 141/141/141 142/142/142 137/137/137 
f 138/138/138 143/143/143 136/136/136 
f 139/139/139 143/143/143 138/138/138 
f 143/143/143 141/141/141 136/136/136 
f 139/139/139 140/140/140 144/144/144 
f 139/139/139 144/144/144 143/143/143 
f 144/144/144 140/140/140 145/145/145 
f 141/141/141 146/146/146 142/142/142 
f 146/146/146 147/147/147 142/142/142 
f 143/143/143 148/148/148 141/141/141 
f 144/144/144 148/148/148 143/143/143 
f 148/148/148 146/146/146 141/141/141 
f 144/144/144 145/145/145 149/149/149 
f 144/144/144 149/149/149 148/148/148 
f 149/149/149 145/145/145 150/150/150 
f 146/146/146 151/151/151 147/147/147 
f 151/151/151 152/152/152 147/147/147 
f 151/151/151 153/153/153 152/152/152 
f 154/154/154 153/153/153 151/151/151 
f 148/148/148 155/155/155 146/146/146 
f 149/149/149 155/155/155 148/148/148 
f 155/155/155 151/151/151 146/146/146 
f 149/149/149 150/150/150 156/156/156 
f 149/149/149 156/156/156 155/155/155 
f 156/156/156 150/150/150 157/157/157 
f 155/155/155 158/158/158 151/151/151 
f 154/154/154 151/151/151 158/158/158 
f 156/156/156 158/158/158 155/155/155 
f 159/159/159 154/154/154 158/158/158 
f 156/156/156 159/159/159 158/158/158 
f 156/156/156 157/157/157 159/159/159 
f 159/159/159 160/160/160 154/154/154 
f 157/157/157 160/160/160 159/159/159 
f 157/157/157 161/161/161 160/160/160 
f 162/162/162 164/164/164 163/163/163 
f 162/162/162 163/163/163 165/165/165 
f 165/165/165 163/163/163 166/166/166 
f 167/167/167 162/162/162 165/165/165 
f 165/165/165 166/166/166 168/168/168 
f 167/167/167 165/165/165 169/169/169 
f 169/169/169 165/165/165 168/168/168 
f 170/170/170 167/167/167 169/169/169 
f 169/169/169 168/168/168 171/171/171 
f 170/170/170 169/169/169 172/172/172 
f 172/172/172 169/169/169 171/171/171 
f 173/173/173 170/170/170 172/172/172 
f 172/172/172 171/171/171 174/174/174 
f 173/173/173 172/172/172 175/175/175 
f 175/175/175 172/172/172 174/174/174 
f 176/176/176 173/173/173 175/175/175 
f 175/175/175 174/174/174 177/177/177 
f 176/176/176 175/175/175 178/178/178 
f 178/178/178 175/175/175 177/177/177 
f 179/179/179 176/176/176 178/178/178 
f 178/178/178 177/177/177 180/180/180 
f 179/179/179 178/178/178 181/181/181 
f 181/181/181 178/178/178 180/180/180 
f 182/182/182 179/179/179 181/181/181 
f 181/181/181 180/180/180 183/183/183 
f 182/182/182 181/181/181 184/184/184 
f 184/184/184 181/181/181 183/183/183 
f 185/185/185 182/182/182 184/184/184 
f 184/184/184 183/183/183 186/186/186 
f 185/185/185 184/184/184 187/187/187 
f 187/187/187 184/184/184 186/186/186 
f 188/188/188 185/185/185 187/187/187 
f 187/187/187 186/186/186 189/189/189 
f 188/188/188 187/187/187 190/190/190 
f 190/190/190 187/187/187 189/189/189 
f 191/191/191 188/188/188 190/190/190 
f 190/190/190 189/189/189 192/192/192 
f 191/191/191 190/190/190 193/193/193 
f 193/193/193 190/190/190 192/192/192 
f 194/194/194 191/191/191 193/193/193 
f 193/193/193 192/192/192 195/195/195 
f 194/194/194 193/193/193 196/196/196 
f 196/196/196 193/193/193 195/195/195 
f 197/197/197 194/194/194 196/196/196 
f 196/196/196 195/195/195 198/198/198 
f 197/197/197 196/196/196 199/199/199 
f 199/199/199 196/196/196 198/198/198 
f 200/200/200 197/197/197 199/199/199 
f 199/199/199 198/198/198 201/201/201 
f 200/200/200 199/199/199 202/202/202 
f 202/202/202 199/199/199 201/201/201 
f 203/203/203 200/200/200 202/202/202 
f 202/202/202 201/201/201 204/204/204 
f 203/203/203 202/202/202 205/205/205 
f 205/205/205 202/202/202 204/204/204 
f 206/206/206 203/203/203 205/205/205 
f 205/205/205 204/204/204 207/207/207 
f 206/206/206 205/205/205 208/208/208 
f 208/208/208 205/205/205 207/207/207 
f 209/209/209 206/206/206 208/208/208 
f 208/208/208 207/207/207 210/210/210 
f 209/209/209 208/208/208 211/211/211 
f 211/211/211 208/208/208 210/210/210 
f 212/212/212 209/209/209 211/211/211 
f 211/211/211 210/210/210 213/213/213 
f 212/212/212 211/211/211 214/214/214 
f 214/214/214 211/211/211 213/213/213 
f 215/215/215 212/212/212 214/214/214 
f 214/214/214 213/213/213 216/216/216 
f 215/215/215 214/214/214 217/217/217 
f 217/217/217 214/214/214 216/216/216 
f 218/218/218 215/215/215 217/217/217 
f 217/217/217 216/216/216 219/219/219 
f 218/218/218 217/217/217 220/220/220 
f 220/220/220 217/217/217 219/219/219 
f 221/221/221 218/218/218 220/220/220 
f 220/220/220 219/219/219 222/222/222 
f 221/221/221 220/220/220 223/223/223 
f 223/223/223 220/220/220 222/222/222 
f 224/224/224 221/221/221 223/223/223 
f 223/223/223 222/222/222 225/225/225 
f 224/224/224 223/223/223 226/226/226 
f 226/226/226 223/223/223 225/225/225 
f 227/227/227 224/224/224 226/226/226 
f 226/226/226 225/225/225 228/228/228 
f 227/227/227 226/226/226 229/229/229 
f 229/229/229 226/226/226 228/228/228 
f 230/230/230 227/227/227 229/229/229 
f 229/229/229 228/228/228 231/231/231 
f 230/230/230 229/229/229 232/232/232 
f 232/232/232 229/229/229 231/231/231 
f 233/233/233 230/230/230 232/232/232 
f 232/232/232 231/231/231 234/234/234 
f 233/233/233 232/232/232 235/235/235 
f 235/235/235 232/232/232 234/234/234 
f 236/236/236 233/233/233 235/235/235 
f 235/235/235 234/234/234 237/237/237 
f 236/236/236 235/235/235 238/238/238 
f 238/238/238 235/235/235 237/237/237 
f 239/239/239 236/236/236 238/238/238 
f 238/238/238 237/237/237 240/240/240 
f 239/239/239 238/238/238 241/241/241 
f 241/241/241 238/238/238 240/240/240 
f 241/241/241 240/240/240 242/242/242 
f 243/243/243 245/245/245 244/244/244 
f 245/245/245 243/243/243 246/246/246 
f 245/245/245 246/246/246 247/247/247 
f 247/247/247 246/246/246 248/248/248 
f 247/247/247 248/248/248 249/249/249 
f 249/249/249 248/248/248 250/250/250 
f 249/249/249 250/250/250 251/251/251 
f 251/251/251 250/250/250 252/252/252 
f 251/251/251 252/252/252 253/253/253 
f 253/253/253 252/252/252 254/254/254 
f 253/253/253 254/254/254 255/255/255 
f 255/255/255 254/254/254 256/256/256 
f 255/255/255 256/256/256 257/257/257 
f 257/257/257 256/256/256 258/258/258 
f 257/257/257 258/258/258 259/259/259 
f 259/259/259 258/258/258 260/260/260 
f 259/259/259 260/260/260 261/261/261 
f 261/261/261 260/260/260 262/262/262 
f 261/261/261 262/262/262 263/263/263 
f 263/263/263 262/262/262 264/264/264 
f 263/263/263 264/264/264 265/265/265 
f 265/265/265 264/264/264 266/266/266 
f 265/265/265 266/266/266 267/267/267 
f 267/267/267 266/266/266 268/268/268 
f 269/269/269 271/271/271 270/270/270 
f 269/269/269 272/272/272 271/271/271 
f 273/273/273 269/269/269 270/270/270 
f 272/272/272 274/274/274 271/271/271 
f 273/273/273 270/270/270 275/275/275 
f 272/272/272 276/276/276 274/274/274 
f 277/277/277 273/273/273 275/275/275 
f 276/276/276 278/278/278 274/274/274 
f 277/277/277 275/275/275 279/279/279 
f 276/276/276 280/280/280 278/278/278 
f 281/281/281 277/277/277 279/279/279 
f 280/280/280 282/282/282 278/278/278 
f 281/281/281 279/279/279 283/283/283 
f 280/280/280 284/284/284 282/282/282 
f 285/285/285 281/281/281 283/283/283 
f 284/284/284 286/286/286 282/282/282 
f 285/285/285 283/283/283 287/287/287 
f 284/284/284 288/288/288 286/286/286 
f 289/289/289 285/285/285 287/287/287 
f 288/288/288 290/290/290 286/286/286 
f 289/289/289 287/287/287 291/291/291 
f 288/288/288 292/292/292 290/290/290 
f 293/293/293 289/289/289 291/291/291 
f 292/292/292 294/294/294 290/290/290 
f 293/293/293 291/291/291 295/295/295 
f 292/292/292 296/296/296 294/294/294 
f 297/297/297 293/293/293 295/295/295 
f 296/296/296 298/298/298 294/294/294 
f 297/297/297 295/295/295 299/299/299 
f 296/296/296 300/300/300 298/298/298 
f 301/301/301 297/297/297 299/299/299 
f 300/300/300 302/302/302 298/298/298 
f 301/301/301 299/299/299 303/303/303 
f 300/300/300 304/304/304 302/302/302 
f 305/305/305 301/301/301 303/303/303 
f 304/304/304 306/306/306 302/302/302 
f 305/305/305 303/303/303 307/307/307 
f 304/304/304 308/308/308 306/306/306 
f 309/309/309 305/305/305 307/307/307 
f 308/308/308 310/310/310 306/306/306 
f 309/309/309 307/307/307 311/311/311 
f 308/308/308 312/312/312 310/310/310 
f 313/313/313 309/309/309 311/311/311 
f 312/312/312 314/314/314 310/310/310 
f 313/313/313 311/311/311 315/315/315 
f 312/312/312 316/316/316 314/314/314 
f 317/317/317 313/313/313 315/315/315 
f 316/316/316 318/318/318 314/314/314 
f 317/317/317 315/315/315 319/319/319 
f 316/316/316 320/320/320 318/318/318 
f 320/320/320 317/317/317 319/319/319 
f 320/320/320 319/319/319 318/318/318 
