# exported by StudySceneExporter from mesh 'Pegboard_Hook_General_low8'
mtllib materials.mtl
v 0.01125591 -0.001730194 0.02324234
v 0.01357052 -0.001730194 0.02740753
v 0.01357052 -0.001730194 0.02394623
v 0.008853874 -0.001730194 0.02573486
v 0.01357052 0.001731186 0.02740753
v 0.006895485 -0.001730194 0.02121094
v 0.0103569 -0.001730194 0.02121429
v 0.0103714 -0.001730194 -0.01813614
v 0.008853874 0.001731186 0.02573486
v 0.01357052 0.001731186 0.02394623
v 0.00690998 -0.001730194 -0.01813949
v 0.006954651 -0.001730194 -0.02491135
v 0.006895485 0.001731186 0.02121094
v 0.01125591 0.001731186 0.02324234
v 0.01357052 -0.001730194 0.02394623
v 0.01125591 -0.001730194 0.02324234
v 0.0103569 -0.001730194 0.02121429
v 0.0103569 0.001731186 0.02121429
v 0.004504852 -0.001730194 -0.02246582
v 0.0006245422 -0.001730194 -0.02740753
v 0.00690998 0.001731186 -0.01813949
v 0.0103714 0.001731186 -0.01813614
v 0.0103714 -0.001730194 -0.01813614
v 0.0006214905 -0.001730194 -0.02394592
v -0.005784569 -0.001730194 -0.02489944
v 0.004504852 0.001731186 -0.02246582
v 0.006954651 0.001731186 -0.02491135
v 0.006954651 -0.001730194 -0.02491135
v -0.003339004 -0.001730194 -0.02244965
v -0.01357052 -0.001730194 -0.01712906
v -0.01112389 -0.001731186 -0.01467819
v 0.0006214905 0.001731186 -0.02394592
v 0.0006245422 0.001731186 -0.02740753
v 0.0006245422 -0.001730194 -0.02740753
v -0.003339004 0.001731186 -0.02244965
v -0.01112274 0.001731186 -0.01467697
v -0.005784569 0.001731186 -0.02489944
v -0.005784569 -0.001730194 -0.02489944
v -0.0135704 0.001731186 -0.01712891
v -0.01357052 -0.001730194 -0.01712906
v -0.01234798 4.577637E-07 -0.01590408
v -0.0135704 0.001731186 -0.01712891
v -0.01112274 0.001731186 -0.01467697
v -0.01112389 -0.001731186 -0.01467819
v -0.01357052 -0.001730194 -0.01712906
vt 0.8102447 0.7735319
vt 0.8132851 0.7756918
vt 0.8119035 0.7735319
vt 0.8102447 0.7756918
vt 0.8132851 0.7778665
vt 0.8082453 0.7756918
vt 0.8082453 0.7735319
vt 0.783199 0.7735319
vt 0.8102447 0.7778665
vt 0.8116934 0.7798722
vt 0.783199 0.7756918
vt 0.7794609 0.7735319
vt 0.8082453 0.7778665
vt 0.8102447 0.7798722
vt 0.8116934 0.7821211
vt 0.8102446 0.7821211
vt 0.8082454 0.7821211
vt 0.8082453 0.7798723
vt 0.7794609 0.7756918
vt 0.7761834 0.773532
vt 0.783199 0.7778665
vt 0.783199 0.7798724
vt 0.783199 0.7821211
vt 0.7761834 0.7756918
vt 0.7728255 0.773532
vt 0.7794609 0.7778665
vt 0.7794609 0.7798722
vt 0.7794608 0.7821211
vt 0.7728255 0.7756919
vt 0.7658403 0.773532
vt 0.7658403 0.7756919
vt 0.7761834 0.7778667
vt 0.7761834 0.7798724
vt 0.7761834 0.7821211
vt 0.7728255 0.7778665
vt 0.7658403 0.7778665
vt 0.7728255 0.7798724
vt 0.7728255 0.7821211
vt 0.7658403 0.7798722
vt 0.7658404 0.7821211
vt 0.764703 0.7747828
vt 0.7635951 0.7735319
vt 0.7635951 0.7756918
vt 0.7658403 0.7756919
vt 0.7658403 0.773532
vn 0.286144 -0.8971202 -0.3365962
vn -0.2943904 -0.4735114 0.8301332
vn 0.1483525 -0.8602374 -0.4878353
vn -0.5973762 -0.4785905 0.6435005
vn -0.2943889 0.4735175 0.8301303
vn -0.7236676 -0.6894035 0.03206278
vn 0.6891454 -0.7244734 -0.01473105
vn 0.7271362 -0.6843948 -0.0536343
vn -0.5973749 0.4785935 0.6434994
vn 0.1483516 0.8602408 -0.4878294
vn -0.6805056 -0.7317957 0.03724749
vn 0.5857792 -0.5269051 -0.6158195
vn -0.7236675 0.6894037 0.03206281
vn 0.2861425 0.8971216 -0.3365938
vn 0.1483525 -0.8602374 -0.4878353
vn 0.286144 -0.8971202 -0.3365962
vn 0.6891454 -0.7244734 -0.01473105
vn 0.6891461 0.7244727 -0.01473104
vn -0.3689654 -0.8391579 0.3995979
vn -0.0007975723 -0.5205185 -0.8538501
vn -0.6805053 0.7317958 0.03724752
vn 0.7271367 0.6843942 -0.05363429
vn 0.7271362 -0.6843948 -0.0536343
vn 0.001093107 -0.847986 0.5300175
vn -0.4481899 -0.6449695 -0.6189832
vn -0.3689656 0.8391579 0.3995979
vn 0.5857792 0.5269051 -0.6158196
vn 0.5857792 -0.5269051 -0.6158195
vn 0.4022741 -0.7604997 0.5097213
vn -0.4994803 -0.7071075 -0.500518
vn 0.4994839 -0.7073112 0.5002266
vn 0.00109282 0.847986 0.5300175
vn -0.0007977559 0.5205185 -0.8538501
vn -0.0007975723 -0.5205185 -0.8538501
vn 0.4023097 0.7604328 0.5097929
vn 0.4996127 0.707097 0.5004007
vn -0.4481454 0.6450766 -0.6189038
vn -0.4481899 -0.6449695 -0.6189832
vn -0.4993937 0.707262 -0.5003862
vn -0.4994803 -0.7071075 -0.500518
vn -0.7077204 0 0.7064926
vn -0.7077659 7.957286E-05 0.7064471
vn -0.7076814 9.527171E-05 0.7065318
vn -0.7076749 -7.946118E-05 0.7065381
vn -0.7077595 -9.549187E-05 0.7064536
usemtl Mat_Pegboard
f 1/1/1 3/3/3 2/2/2 
f 1/1/1 2/2/2 4/4/4 
f 4/4/4 2/2/2 5/5/5 
f 6/6/6 1/1/1 4/4/4 
f 6/6/6 7/7/7 1/1/1 
f 8/8/8 7/7/7 6/6/6 
f 4/4/4 5/5/5 9/9/9 
f 9/9/9 5/5/5 10/10/10 
f 8/8/8 6/6/6 11/11/11 
f 12/12/12 8/8/8 11/11/11 
f 13/13/13 6/6/6 4/4/4 
f 13/13/13 4/4/4 9/9/9 
f 11/11/11 6/6/6 13/13/13 
f 9/9/9 10/10/10 14/14/14 
f 14/14/14 10/10/10 15/15/15 
f 14/14/14 15/15/15 16/16/16 
f 17/17/17 14/14/14 16/16/16 
f 18/18/18 9/9/9 14/14/14 
f 18/18/18 13/13/13 9/9/9 
f 17/17/17 18/18/18 14/14/14 
f 12/12/12 11/11/11 19/19/19 
f 20/20/20 12/12/12 19/19/19 
f 11/11/11 13/13/13 21/21/21 
f 21/21/21 13/13/13 18/18/18 
f 19/19/19 11/11/11 21/21/21 
f 22/22/22 18/18/18 17/17/17 
f 21/21/21 18/18/18 22/22/22 
f 22/22/22 17/17/17 23/23/23 
f 20/20/20 19/19/19 24/24/24 
f 25/25/25 20/20/20 24/24/24 
f 19/19/19 21/21/21 26/26/26 
f 26/26/26 21/21/21 22/22/22 
f 24/24/24 19/19/19 26/26/26 
f 27/27/27 22/22/22 23/23/23 
f 26/26/26 22/22/22 27/27/27 
f 27/27/27 23/23/23 28/28/28 
f 25/25/25 24/24/24 29/29/29 
f 30/30/30 25/25/25 29/29/29 
f 30/30/30 29/29/29 31/31/31 
f 24/24/24 26/26/26 32/32/32 
f 32/32/32 26/26/26 27/27/27 
f 29/29/29 24/24/24 32/32/32 
f 33/33/33 27/27/27 28/28/28 
f 32/32/32 27/27/27 33/33/33 
f 33/33/33 28/28/28 34/34/34 
f 31/31/31 29/29/29 35/35/35 
f 29/29/29 32/32/32 35/35/35 
f 35/35/35 32/32/32 33/33/33 
f 31/31/31 35/35/35 36/36/36 
f 37/37/37 33/33/33 34/34/34 
f 35/35/35 33/33/33 37/37/37 
f 36/36/36 35/35/35 37/37/37 
f 37/37/37 34/34/34 38/38/38 
f 36/36/36 37/37/37 39/39/39 
f 39/39/39 37/37/37 38/38/38 
f 39/39/39 38/38/38 40/40/40 
f 41/41/41 43/43/43 42/42/42 
f 41/41/41 44/44/44 43/43/43 
f 41/41/41 42/42/42 45/45/45 
f 41/41/41 45/45/45 44/44/44 
