# exported by StudySceneExporter from mesh 'Pliers_Jaw_Right_low'
mtllib materials.mtl
v 0.002972946 0.003264198 0.01903183
v 0.002972984 0.004555397 0.02511902
v 0.002972984 0.01167072 0.02511902
v 0.002972946 0.009648094 0.01330734
v 0.002972946 0.007829246 0.01330734
v 0.002972984 -0.0003967666 0.0114299
v 0.002972984 -0.0003967666 0.0198674
v 0.002972946 0.007829246 0.009552306
v 0.002972946 -0.004057655 0.01903183
v 0.002972946 0.006199989 0.006169128
v 0.002972946 -0.006993522 0.01669067
v 0.002972946 0.002777061 0.003568115
v 0.002972946 -0.00862278 0.01330734
v 0.002972946 -0.00862278 0.009552306
v 0.002972984 -0.001338463 0.002992248
v 0.002972946 -0.01016911 0.009552306
v 0.002972946 -0.004523964 0.001201477
v 0.002972946 -0.003098488 0.001781464
v 0.002972946 -0.005665092 0.0001690674
v 0.002972946 -0.009334679 -6.057739E-05
v 0.002972946 -0.006384315 -0.001191559
v 0.001873932 -0.01167072 -0.0001837158
v 0.002972946 -0.008327293 -0.01166534
v 0.002972946 -0.007184944 -0.02482422
v 0.002972946 -0.006594887 -0.002715912
v 0.002972946 -0.006271248 -0.004220428
v 0.002972946 -0.005707817 -0.01417313
v 0.002972946 -0.005046043 -0.01588043
v 0.002972946 -0.005300331 -0.02511902
v 0.002972946 -0.004064903 -0.0163533
v 0.002972946 -0.004826851 -0.01481354
v 0.002972946 -0.006054039 -0.01237503
v 0.002972946 -0.005301628 -0.01316254
v 0.002972946 -0.006073723 -0.01054413
v 0.002972946 -0.005473976 -0.01145325
v 0.002972946 -0.005766105 -0.008739166
v 0.002972946 -0.005338402 -0.009740753
v 0.002972946 -0.005141182 -0.007018127
v 0.002972946 -0.004899177 -0.008079986
v 0.002972946 -0.005452614 -0.005523682
v 0.002972946 -0.004160881 -0.006509399
v -0.002972984 -0.00862278 0.009552306
v -3.814697E-08 -0.00862278 0.009552459
v -0.002972984 -0.01016911 0.009552306
v 0.002972946 -0.01016911 0.009552306
v 0.002972946 -0.00862278 0.009552306
v 0.001873932 -0.01167072 -0.0001837158
v 0 -0.00862278 0.0133075
v -0.00187397 -0.01167072 -0.0001837158
v 0.002972946 -0.00862278 0.01330734
v 0.002972946 -0.007184944 -0.02482422
v -3.814697E-08 -0.006993522 0.01669067
v -0.002972984 -0.007184944 -0.02482422
v 0.002972946 -0.005300331 -0.02511902
v -0.002972984 -0.005300331 -0.02511887
v 0.002972946 -0.006993522 0.01669067
v 0 -0.004057655 0.01903198
v 0.002972946 -0.004057655 0.01903183
v 0 -0.0003967666 0.01986755
v 0.002972984 -0.0003967666 0.0198674
v 0 0.003264198 0.01903198
v 0.002972946 0.003264198 0.01903183
v -0.002972984 -0.005300331 -0.02511887
v 0.002972946 -0.005300331 -0.02511902
v 0.002972946 -0.004064903 -0.0163533
v -0.002972984 -0.004064903 -0.01635315
v 0.002972946 -0.005046043 -0.01588043
v -0.002972984 -0.005046043 -0.01588028
v 0.002972946 -0.004826851 -0.01481354
v -0.002972984 -0.004826851 -0.01481354
v 0.002972946 -0.005707817 -0.01417313
v -0.002972984 -0.005707817 -0.01417313
v 0.002972946 -0.005301628 -0.01316254
v -0.002972984 -0.005301628 -0.01316254
v 0.002972946 -0.006054039 -0.01237503
v -0.002972984 -0.006054039 -0.01237503
v 0.002972946 -0.005473976 -0.01145325
v -0.002972984 -0.005473976 -0.01145325
v 0.002972946 -0.006073723 -0.01054413
v -0.002972984 -0.006073723 -0.01054413
v 0.002972946 -0.005338402 -0.009740753
v -0.002972984 -0.005338402 -0.009740753
v 0.002972946 -0.005766105 -0.008739166
v -0.002972984 -0.005766105 -0.008739166
v 0.002972946 -0.004899177 -0.008079986
v -0.002972984 -0.004899177 -0.008079833
v 0.002972946 -0.005141182 -0.007018127
v -0.002972984 -0.005141182 -0.007017975
v 0.002972946 -0.004160881 -0.006509399
v -0.002316894 -0.004160881 -0.006509399
v -0.002972984 -0.004160881 -0.006509399
v -0.002316894 -0.002581139 -0.005825043
v 0.002972946 -0.005452614 -0.005523682
v -0.002316894 -0.005452614 -0.005523529
v 0.002972946 -0.006271248 -0.004220428
v -0.002316894 -0.006271248 -0.004220428
v 0.002972946 -0.006594887 -0.002715912
v -0.002316894 -0.006594887 -0.002715912
v 0.002972946 -0.006384315 -0.001191559
v -0.002316894 -0.006384315 -0.001191406
v 0.002972946 -0.005665092 0.0001690674
v -0.002316894 -0.005665092 0.0001690674
v 0.002972946 -0.004523964 0.001201477
v -0.002316894 -0.004523964 0.00120163
v 0.002972946 -0.003098488 0.001781464
v -0.002316894 -0.003098488 0.001781464
v 0.002972946 -0.001503563 0.001820373
v 0.002972984 -0.001338463 0.002992248
v -0.002316894 -0.001503563 0.001820526
v 0 -0.001338463 0.002992401
v 0.002972946 0.002777061 0.003568115
v -0.002972984 -0.001338463 0.002992401
v -0.002972984 -0.001503563 0.001820526
v -0.002972984 -0.003098488 0.001781464
v 0 0.002777061 0.003568268
v 0.002972946 0.006199989 0.006169128
v 0 0.006199989 0.006169281
v 0.002972946 0.007829246 0.009552306
v -3.814697E-08 0.007829246 0.009552459
v 0.002972946 0.007829246 0.01330734
v -3.814697E-08 0.007829246 0.0133075
v -0.002316894 -0.004160881 -0.006509399
v -0.002316894 -0.005452614 -0.005523529
v -0.002316894 -0.006271248 -0.004220428
v -0.002316894 -0.006594887 -0.002715912
v -0.002316894 -0.002581139 -0.005825043
v -0.002316894 -0.004523964 0.00120163
v -0.002316894 -0.001503563 0.001820526
v -0.002316894 -0.003098488 0.001781464
v -0.002316894 -0.005665092 0.0001690674
v -0.002316894 -0.006384315 -0.001191406
v -0.002316894 -0.001503563 0.001820526
v -0.002972984 -0.004160881 -0.006509399
v -0.002316894 -0.002581139 -0.005825043
v -0.002972984 -0.003098488 0.001781464
v -0.002972984 -0.003570595 0.003568115
v -0.002972984 -0.001503563 0.001820526
v -0.002972984 -0.001338463 0.002992401
v -0.002972984 -0.006993522 0.006169128
v -0.002972984 -0.00862278 0.009552306
v -0.002972984 -0.01016911 0.009552306
v -0.002972984 -0.005141182 -0.007017975
v -0.002972984 -0.008426399 -0.01052322
v -0.00187397 -0.01167072 -0.0001837158
v -0.002972984 -0.007184944 -0.02482422
v -0.002972984 -0.005766105 -0.008739166
v -0.002972984 -0.004899177 -0.008079833
v -0.002972984 -0.006073723 -0.01054413
v -0.002972984 -0.005338402 -0.009740753
v -0.002972984 -0.006054039 -0.01237503
v -0.002972984 -0.005473976 -0.01145325
v -0.002972984 -0.005707817 -0.01417313
v -0.002972984 -0.005301628 -0.01316254
v -0.002972984 -0.005046043 -0.01588028
v -0.002972984 -0.004826851 -0.01481354
v -0.002972984 -0.004064903 -0.01635315
v -0.002972984 -0.005300331 -0.02511887
v -3.814697E-08 0.007829246 0.0133075
v 0.002972946 0.007829246 0.01330734
v 0.002972946 0.009648094 0.01330734
v -0.002972984 0.009648094 0.0133075
v -0.002972984 0.007829246 0.0133075
v -0.002972984 0.01167072 0.02511902
v 0.002972984 0.01167072 0.02511902
v 0.002972946 0.009648094 0.01330734
v -0.002972984 0.006199989 0.01669067
v -3.814697E-08 0.007829246 0.0133075
v -3.814697E-08 0.006199989 0.01669067
v -0.002972984 0.003264198 0.01903198
v 0 0.003264198 0.01903198
v -0.002972984 0.004555397 0.02511902
v 0.002972984 0.01167072 0.02511902
v 0.002972984 0.004555397 0.02511902
v 0 0.003264198 0.01903198
v 0.002972984 0.004555397 0.02511902
v 0.002972946 0.003264198 0.01903183
v 0 -0.006993522 0.006169281
v -3.814697E-08 -0.00862278 0.009552459
v -0.002972984 -0.00862278 0.009552306
v -0.002972984 -0.006993522 0.006169128
v 0 -0.003570595 0.003568268
v -0.002972984 -0.003570595 0.003568115
v -0.002972984 -0.001338463 0.002992401
v 0 -0.001338463 0.002992401
v 0 -0.0003677749 0.01152542
v -3.814697E-08 -0.00862278 0.009552459
v 0 -0.006993522 0.006169281
v 0 -0.00862278 0.0133075
v 0 -0.003570595 0.003568268
v -3.814697E-08 -0.006993522 0.01669067
v 0 -0.001338463 0.002992401
v 0 -0.004057655 0.01903198
v 0 0.002777061 0.003568268
v 0 -0.0003967666 0.01986755
v 0 0.006199989 0.006169281
v 0 0.003264198 0.01903198
v -3.814697E-08 0.007829246 0.009552459
v -3.814697E-08 0.006199989 0.01669067
v -3.814697E-08 0.007829246 0.0133075
vt 0.3360543 0.6769445
vt 0.3474172 0.6787996
vt 0.3521883 0.6665292
vt 0.3304632 0.662097
vt 0.3292435 0.6652336
vt 0.3204899 0.6781604
vt 0.3350405 0.6838181
vt 0.322768 0.6627157
vt 0.3311447 0.6895709
vt 0.3158411 0.6632566
vt 0.3251386 0.693064
vt 0.3090605 0.6674154
vt 0.3182118 0.6936049
vt 0.3117362 0.6910872
vt 0.3053079 0.6741266
vt 0.3106993 0.6937537
vt 0.3000836 0.6784191
vt 0.3020395 0.6763496
vt 0.2975379 0.6796947
vt 0.2946814 0.6858687
vt 0.2947094 0.6800227
vt 0.292702 0.6902223
vt 0.2753446 0.6763501
vt 0.253418 0.6655567
vt 0.2919394 0.6793635
vt 0.2895618 0.6777968
vt 0.2727764 0.6701512
vt 0.270276 0.6678653
vt 0.2541735 0.6621091
vt 0.2701184 0.6658564
vt 0.2722627 0.6682029
vt 0.2756449 0.6719542
vt 0.2747915 0.6701286
vt 0.2787891 0.6732159
vt 0.2776234 0.671572
vt 0.2821081 0.6738956
vt 0.2806677 0.6724863
vt 0.2854952 0.6739721
vt 0.2838262 0.6728425
vt 0.2878635 0.6755111
vt 0.2870296 0.6726227
vt 0.3979899 0.6966443
vt 0.3979895 0.7021451
vt 0.400851 0.6966445
vt 0.4008502 0.7076461
vt 0.397989 0.7076459
vt 0.4190778 0.7056141
vt 0.3910415 0.7021446
vt 0.4190784 0.6986794
vt 0.3910412 0.7076454
vt 0.4654187 0.7076509
vt 0.3840936 0.7021441
vt 0.4654195 0.6966493
vt 0.4689482 0.7076511
vt 0.4689491 0.6966496
vt 0.3840933 0.7076449
vt 0.3771458 0.7021437
vt 0.3771453 0.7076445
vt 0.3701978 0.7021432
vt 0.3701973 0.707644
vt 0.3632498 0.7021427
vt 0.3632494 0.7076435
vt 0.3222772 0.6003343
vt 0.3228015 0.6113428
vt 0.3391911 0.6105622
vt 0.3386667 0.5995537
vt 0.3412075 0.6104662
vt 0.3406831 0.5994576
vt 0.3432239 0.6103702
vt 0.3426995 0.5993617
vt 0.3452404 0.6102741
vt 0.3447158 0.5992656
vt 0.3472569 0.6101781
vt 0.3467323 0.5991695
vt 0.3492734 0.6100821
vt 0.3487487 0.5990734
vt 0.35129 0.6099861
vt 0.350765 0.5989773
vt 0.3533065 0.6098901
vt 0.3527812 0.5988812
vt 0.3553232 0.6097941
vt 0.3547974 0.5987852
vt 0.35734 0.6096983
vt 0.3568134 0.5986891
vt 0.3593569 0.6096025
vt 0.3588295 0.5985929
vt 0.361374 0.6095066
vt 0.3608451 0.5984967
vt 0.3634199 0.6094096
vt 0.3629479 0.599614
vt 0.3628827 0.5983968
vt 0.3661437 0.5994648
vt 0.366431 0.609267
vt 0.3659639 0.5994734
vt 0.3692827 0.6091321
vt 0.3688269 0.5993371
vt 0.3721328 0.6089973
vt 0.3716753 0.5992005
vt 0.3749814 0.6088631
vt 0.3745252 0.5990633
vt 0.3778281 0.6087301
vt 0.3773769 0.5989251
vt 0.3806723 0.6085987
vt 0.3802311 0.5987849
vt 0.3835123 0.6084707
vt 0.3830895 0.5986416
vt 0.3862703 0.6075177
vt 0.3880169 0.6084259
vt 0.3860607 0.5984865
vt 0.3884703 0.6027935
vt 0.3956306 0.6091437
vt 0.3882339 0.5972376
vt 0.3860426 0.5972705
vt 0.3830857 0.5973141
vt 0.3961815 0.6036466
vt 0.4035525 0.6099494
vt 0.4041133 0.6044661
vt 0.410476 0.6106584
vt 0.4110377 0.6051764
vt 0.4173996 0.6113681
vt 0.4179616 0.6058862
vt 0.3894203 0.5061359
vt 0.390893 0.5087571
vt 0.393069 0.5105934
vt 0.3957421 0.5115747
vt 0.391082 0.5034182
vt 0.4034542 0.508792
vt 0.4053681 0.503418
vt 0.4048848 0.50633
vt 0.4012679 0.5106163
vt 0.3985895 0.5115826
vt 0.4845898 0.6398811
vt 0.481612 0.655829
vt 0.4845886 0.6541673
vt 0.4814348 0.6403642
vt 0.4801121 0.6372111
vt 0.4843475 0.6398841
vt 0.48435 0.6376944
vt 0.4731734 0.6333218
vt 0.4693211 0.6275396
vt 0.4664875 0.6279356
vt 0.4799459 0.6570121
vt 0.4748238 0.6642768
vt 0.4657874 0.6462629
vt 0.4807624 0.6901648
vt 0.4792416 0.660326
vt 0.4806615 0.658896
vt 0.4791405 0.6637125
vt 0.4802821 0.6620519
vt 0.4796455 0.6670625
vt 0.4804723 0.6652248
vt 0.4807407 0.6702685
vt 0.481226 0.6683128
vt 0.4823906 0.6732275
vt 0.4825189 0.6712165
vt 0.4843097 0.6738427
vt 0.4842913 0.6902218
vt 0.4339304 0.6607875
vt 0.4373211 0.6564503
vt 0.4346671 0.6543767
vt 0.4278835 0.6630472
vt 0.4305453 0.6651335
vt 0.4114056 0.6778822
vt 0.4040072 0.6697512
vt 0.4204657 0.6548847
vt 0.4293435 0.6719594
vt 0.4359356 0.6655785
vt 0.4350348 0.672226
vt 0.4302955 0.6789494
vt 0.4354665 0.6787777
vt 0.4214976 0.6861901
vt 0.40444 0.6864562
vt 0.4146245 0.6947479
vt 0.4338109 0.6832147
vt 0.4283884 0.6947455
vt 0.4372919 0.6874862
vt 0.4721467 0.510366
vt 0.4721463 0.503418
vt 0.4666455 0.5034183
vt 0.466646 0.5103662
vt 0.4721472 0.5183202
vt 0.4666464 0.5183206
vt 0.4666467 0.5225859
vt 0.4721475 0.5225856
vt 0.4466858 0.7253809
vt 0.4503355 0.7406552
vt 0.4565954 0.7376409
vt 0.4433875 0.7406549
vt 0.4614085 0.731308
vt 0.4371278 0.7376399
vt 0.4624741 0.7271779
vt 0.4327962 0.7322075
vt 0.4614091 0.719563
vt 0.4312506 0.7254338
vt 0.4565969 0.7132294
vt 0.432797 0.7186601
vt 0.4503372 0.7102144
vt 0.4371293 0.7132282
vt 0.4433893 0.7102141
vn 1 1.215093E-06 -1.492254E-06
vn 1 0 -6.605601E-06
vn 1 -1.648767E-06 -1.748021E-06
vn 1 -2.242084E-06 0
vn 1 -1.616628E-07 -6.633851E-07
vn 1 -1.182464E-07 1.043573E-06
vn 1 0 0
vn 1 4.407584E-06 0
vn 1 -6.655771E-06 -3.087477E-06
vn 1 3.461978E-06 2.863796E-06
vn 1 -3.534724E-06 -3.087381E-06
vn 1 6.099112E-06 3.421567E-06
vn 1 -4.407518E-06 0
vn 1 -3.83108E-06 -4.580988E-06
vn 1 -1.584613E-06 2.19321E-06
vn 0.9975792 -0.06927944 -0.006019528
vn 1 -5.679476E-06 5.275072E-06
vn 1 -7.922707E-06 0
vn 1 0 1.381453E-06
vn 0.9755905 -0.218775 -0.01899254
vn 1 0 -1.254608E-05
vn 0.9049895 -0.4238401 -0.0367923
vn 0.9576786 -0.2867608 -0.02490037
vn 0.9996446 -0.02655828 -0.00230721
vn 1 0 2.555145E-06
vn 1 0 3.108318E-06
vn 1 0 5.914034E-07
vn 1 0 5.91783E-07
vn 1 0 -1.787985E-06
vn 1 0 -1.787985E-06
vn 1 0 4.414231E-05
vn 1 0 -1.231952E-05
vn 1 0 0
vn 1 0 7.468552E-06
vn 1 0 0
vn 1 0 -1.167137E-06
vn 1 0 0
vn 1 0 9.541583E-06
vn 1 0 2.207116E-05
vn 1 0 4.956883E-06
vn 1 0 5.874406E-05
vn -5.132498E-05 0 1
vn 4.419506E-06 -0.6695105 0.7428026
vn -1.018784E-06 -0.9726825 0.2321398
vn 2.568529E-06 -0.9547575 0.2973856
vn 2.117014E-06 -0.8507878 0.5255095
vn 0 -0.9964908 -0.0837025
vn -4.143568E-06 -0.9749273 0.2225234
vn 0 -0.9964908 -0.0837025
vn -4.143826E-06 -0.9749305 0.2225096
vn -1.170578E-06 -0.9643463 -0.2646433
vn 1.033259E-05 -0.781832 0.6234891
vn -1.170578E-06 -0.9643463 -0.2646433
vn -1.261254E-05 -0.1545121 -0.9879909
vn -1.261254E-05 -0.154512 -0.9879909
vn 1.033259E-05 -0.7818319 0.6234891
vn 3.537528E-05 -0.4338644 0.9009782
vn 3.537497E-05 -0.4338688 0.9009761
vn 5.165076E-05 0 1
vn 5.165077E-05 0 1
vn 5.188254E-05 0.2225186 0.9749284
vn 5.188254E-05 0.2225186 0.9749284
vn -2.95315E-06 0.9902133 -0.1395618
vn -2.95315E-06 0.9902133 -0.1395618
vn 0 0.9996214 -0.02751644
vn 0 0.9996215 -0.02751143
vn 1.282594E-05 0.8962618 0.4435254
vn 1.282555E-05 0.8962697 0.4435092
vn -1.953773E-06 0.93239 0.3614542
vn -1.953773E-06 0.93239 0.3614542
vn 0 0.9610519 0.276368
vn 0 0.9610519 0.276368
vn 0 0.981964 0.189068
vn 0 0.981964 0.189068
vn 0 0.9949558 0.1003138
vn 0 0.9949558 0.1003138
vn 0 0.9999423 0.01074819
vn 0 0.9999423 0.01074819
vn 0 0.9968808 -0.07892241
vn 0 0.9968808 -0.07892241
vn 0 0.9857861 -0.1680052
vn 0 0.9857861 -0.1680052
vn -9.336713E-06 0.9667605 -0.2556836
vn -9.336713E-06 0.9667605 -0.2556836
vn -4.274962E-06 0.939959 -0.3412873
vn -4.27462E-06 0.9399647 -0.3412717
vn -3.452682E-06 0.9141166 -0.4054514
vn -7.191056E-07 0.9633389 -0.2682874
vn 1.454471E-06 0.9867786 0.162074
vn -1.751804E-06 0.9907677 -0.1355706
vn 0 0.42658 -0.9044499
vn 0 0.3976453 -0.9175392
vn 6.523169E-06 0.7351952 0.6778555
vn 6.523039E-06 0.7351985 0.6778519
vn 7.521791E-07 0.9262761 0.3768454
vn 7.521791E-07 0.9262761 0.3768454
vn 0 0.9993041 0.03730259
vn 0 0.9993041 0.03730259
vn -2.166494E-06 0.951791 -0.3067473
vn -2.166568E-06 0.9517891 -0.306753
vn -5.140278E-06 0.7895109 -0.6137365
vn -5.140278E-06 0.7895109 -0.6137365
vn -9.740927E-06 0.5319403 -0.8467818
vn -9.740998E-06 0.5319374 -0.8467836
vn 0.02100132 0.2006847 -0.9794307
vn -1.414449E-05 0.2007289 -0.9796468
vn 0.1112181 0.2915015 -0.9500828
vn 0.03784789 0.2665219 -0.9630854
vn -1.080804E-05 0.5757516 -0.8176247
vn -3.682731E-05 0.6194375 -0.785046
vn -4.410289E-05 0.3883472 -0.9215131
vn -1.034747E-06 0.9902215 -0.1395045
vn 0 0.5668947 -0.8237902
vn 0 0.02460065 -0.9996973
vn -4.410266E-05 0.3883538 -0.9215103
vn -3.250317E-05 0.7641034 -0.6450936
vn -3.250298E-05 0.7641115 -0.6450842
vn -1.687653E-05 0.9749265 -0.2225272
vn -1.687578E-05 0.9749298 -0.2225127
vn -5.318468E-06 1 0
vn -5.318469E-06 1 0
vn 1 0 -3.128247E-06
vn 1 0 0
vn 1 0 0
vn 1 0 -2.697429E-06
vn 1 0 -2.370987E-06
vn 1 0 5.293537E-07
vn 1 0 2.046899E-06
vn 1 0 2.046899E-06
vn 1 0 2.276591E-05
vn 1 0 2.276591E-05
vn -0.9186015 0.3916701 -0.05259113
vn -0.9895282 0.1430551 -0.01920859
vn -0.9186015 0.3916701 -0.05259113
vn -0.9942316 0.1063014 -0.01427352
vn -1 0 0
vn -1 0 0
vn -1 0 0
vn -1 0 0
vn -1 0 0
vn -0.9924675 -0.1220494 -0.01059507
vn -1 0 0
vn -0.947023 -0.3199623 -0.02777595
vn -0.9050045 -0.423808 -0.03679063
vn -0.9976938 -0.06761929 -0.005869477
vn -1 0 0
vn -1 0 0
vn -1 0 -1.787084E-05
vn -1 0 0
vn -1 0 8.988185E-07
vn -1 0 4.414231E-05
vn -1 0 2.744254E-06
vn -1 0 0
vn -1 0 3.84976E-06
vn -1 0 -1.103753E-05
vn -1 0 0
vn -1 0 0
vn -3.19606E-05 -8.785949E-05 -1
vn -3.421681E-05 -9.406176E-05 -1
vn -3.421681E-05 -9.406176E-05 -1
vn -0.3812447 0.8996269 -0.2128943
vn -0.9396566 -0.2736434 -0.2053403
vn -0.2528638 0.8884405 0.3830579
vn -7.645578E-06 0.9856533 -0.1687824
vn -7.645578E-06 0.9856533 -0.1687825
vn -0.9270335 -0.2931721 -0.2337928
vn 0 -0.9009665 -0.4338887
vn 0 -0.7818404 -0.6234785
vn -0.8278297 -0.516229 -0.2195581
vn 0 -0.6235276 -0.7818013
vn -0.4275707 -0.3835396 0.8185846
vn 0 0 1
vn 0 0 1
vn 1.159134E-05 -0.9782346 0.2075022
vn 1.374693E-05 -0.9782347 0.2075013
vn 1.374693E-05 -0.9782347 0.2075013
vn -3.276737E-05 0.7640991 0.6450988
vn -1.708552E-05 0.9009653 0.4338911
vn -1.708552E-05 0.9009653 0.4338912
vn -3.276801E-05 0.764092 0.6451073
vn -3.832758E-05 0.4897826 0.8718446
vn -3.832733E-05 0.4897782 0.8718472
vn -2.435192E-05 0.249809 0.9682952
vn -2.435192E-05 0.249809 0.9682952
vn -1 -6.303546E-07 -7.785511E-07
vn -1 4.398474E-06 0
vn -1 3.075266E-06 0
vn -1 0 0
vn -1 0 -9.20695E-07
vn -1 3.503091E-06 0
vn -1 0 -9.270661E-07
vn -1 4.703801E-06 3.095795E-06
vn -1 0 -5.377678E-06
vn -1 0 3.520119E-06
vn -1 -3.080771E-06 -5.745229E-06
vn -1 -4.696206E-06 3.899526E-07
vn -1 -5.639331E-06 0
vn -1 -6.777269E-06 -1.566693E-06
vn -1 -4.435502E-06 -1.540873E-06
usemtl Mat_Tools
f 1/1/1 3/3/3 2/2/2 
f 1/1/1 4/4/4 3/3/3 
f 1/1/1 5/5/5 4/4/4 
f 6/6/6 5/5/5 1/1/1 
f 1/1/1 7/7/7 6/6/6 
f 8/8/8 5/5/5 6/6/6 
f 7/7/7 9/9/9 6/6/6 
f 10/10/10 8/8/8 6/6/6 
f 9/9/9 11/11/11 6/6/6 
f 12/12/12 10/10/10 6/6/6 
f 11/11/11 13/13/13 6/6/6 
f 13/13/13 14/14/14 6/6/6 
f 15/15/15 12/12/12 6/6/6 
f 6/6/6 14/14/14 15/15/15 
f 15/15/15 14/14/14 16/16/16 
f 15/15/15 16/16/16 17/17/17 
f 15/15/15 17/17/17 18/18/18 
f 17/17/17 16/16/16 19/19/19 
f 19/19/19 16/16/16 20/20/20 
f 19/19/19 20/20/20 21/21/21 
f 22/22/22 20/20/20 16/16/16 
f 22/22/22 23/23/23 20/20/20 
f 24/24/24 23/23/23 22/22/22 
f 21/21/21 20/20/20 25/25/25 
f 25/25/25 20/20/20 23/23/23 
f 25/25/25 23/23/23 26/26/26 
f 27/27/27 23/23/23 24/24/24 
f 27/27/27 24/24/24 28/28/28 
f 28/28/28 24/24/24 29/29/29 
f 28/28/28 29/29/29 30/30/30 
f 27/27/27 28/28/28 31/31/31 
f 32/32/32 23/23/23 27/27/27 
f 32/32/32 27/27/27 33/33/33 
f 34/34/34 23/23/23 32/32/32 
f 34/34/34 32/32/32 35/35/35 
f 36/36/36 23/23/23 34/34/34 
f 26/26/26 23/23/23 36/36/36 
f 36/36/36 34/34/34 37/37/37 
f 26/26/26 36/36/36 38/38/38 
f 38/38/38 36/36/36 39/39/39 
f 26/26/26 38/38/38 40/40/40 
f 40/40/40 38/38/38 41/41/41 
f 42/42/42 44/44/44 43/43/43 
f 43/43/43 44/44/44 45/45/45 
f 43/43/43 45/45/45 46/46/46 
f 44/44/44 47/47/47 45/45/45 
f 48/48/48 43/43/43 46/46/46 
f 44/44/44 49/49/49 47/47/47 
f 48/48/48 46/46/46 50/50/50 
f 49/49/49 51/51/51 47/47/47 
f 52/52/52 48/48/48 50/50/50 
f 49/49/49 53/53/53 51/51/51 
f 53/53/53 54/54/54 51/51/51 
f 53/53/53 55/55/55 54/54/54 
f 52/52/52 50/50/50 56/56/56 
f 57/57/57 52/52/52 56/56/56 
f 57/57/57 56/56/56 58/58/58 
f 59/59/59 57/57/57 58/58/58 
f 59/59/59 58/58/58 60/60/60 
f 61/61/61 59/59/59 60/60/60 
f 61/61/61 60/60/60 62/62/62 
f 63/63/63 65/65/65 64/64/64 
f 63/63/63 66/66/66 65/65/65 
f 66/66/66 67/67/67 65/65/65 
f 66/66/66 68/68/68 67/67/67 
f 68/68/68 69/69/69 67/67/67 
f 68/68/68 70/70/70 69/69/69 
f 70/70/70 71/71/71 69/69/69 
f 70/70/70 72/72/72 71/71/71 
f 72/72/72 73/73/73 71/71/71 
f 72/72/72 74/74/74 73/73/73 
f 74/74/74 75/75/75 73/73/73 
f 74/74/74 76/76/76 75/75/75 
f 76/76/76 77/77/77 75/75/75 
f 76/76/76 78/78/78 77/77/77 
f 78/78/78 79/79/79 77/77/77 
f 78/78/78 80/80/80 79/79/79 
f 80/80/80 81/81/81 79/79/79 
f 80/80/80 82/82/82 81/81/81 
f 82/82/82 83/83/83 81/81/81 
f 82/82/82 84/84/84 83/83/83 
f 84/84/84 85/85/85 83/83/83 
f 84/84/84 86/86/86 85/85/85 
f 86/86/86 87/87/87 85/85/85 
f 86/86/86 88/88/88 87/87/87 
f 88/88/88 89/89/89 87/87/87 
f 88/88/88 90/90/90 89/89/89 
f 88/88/88 91/91/91 90/90/90 
f 90/90/90 91/91/91 92/92/92 
f 90/90/90 93/93/93 89/89/89 
f 90/90/90 94/94/94 93/93/93 
f 94/94/94 95/95/95 93/93/93 
f 94/94/94 96/96/96 95/95/95 
f 96/96/96 97/97/97 95/95/95 
f 96/96/96 98/98/98 97/97/97 
f 98/98/98 99/99/99 97/97/97 
f 98/98/98 100/100/100 99/99/99 
f 100/100/100 101/101/101 99/99/99 
f 100/100/100 102/102/102 101/101/101 
f 102/102/102 103/103/103 101/101/101 
f 102/102/102 104/104/104 103/103/103 
f 104/104/104 105/105/105 103/103/103 
f 104/104/104 106/106/106 105/105/105 
f 106/106/106 107/107/107 105/105/105 
f 108/108/108 105/105/105 107/107/107 
f 106/106/106 109/109/109 107/107/107 
f 107/107/107 110/110/110 108/108/108 
f 109/109/109 110/110/110 107/107/107 
f 110/110/110 111/111/111 108/108/108 
f 109/109/109 112/112/112 110/110/110 
f 112/112/112 109/109/109 113/113/113 
f 109/109/109 114/114/114 113/113/113 
f 110/110/110 115/115/115 111/111/111 
f 115/115/115 116/116/116 111/111/111 
f 115/115/115 117/117/117 116/116/116 
f 117/117/117 118/118/118 116/116/116 
f 117/117/117 119/119/119 118/118/118 
f 119/119/119 120/120/120 118/118/118 
f 119/119/119 121/121/121 120/120/120 
f 122/122/122 124/124/124 123/123/123 
f 122/122/122 125/125/125 124/124/124 
f 126/126/126 125/125/125 122/122/122 
f 126/126/126 127/127/127 125/125/125 
f 128/128/128 127/127/127 126/126/126 
f 128/128/128 129/129/129 127/127/127 
f 125/125/125 127/127/127 130/130/130 
f 125/125/125 130/130/130 131/131/131 
f 132/132/132 134/134/134 133/133/133 
f 132/132/132 133/133/133 135/135/135 
f 136/136/136 135/135/135 133/133/133 
f 136/136/136 137/137/137 135/135/135 
f 136/136/136 138/138/138 137/137/137 
f 136/136/136 133/133/133 139/139/139 
f 133/133/133 140/140/140 139/139/139 
f 133/133/133 141/141/141 140/140/140 
f 141/141/141 133/133/133 142/142/142 
f 141/141/141 142/142/142 143/143/143 
f 144/144/144 141/141/141 143/143/143 
f 144/144/144 143/143/143 145/145/145 
f 143/143/143 142/142/142 146/146/146 
f 146/146/146 142/142/142 147/147/147 
f 143/143/143 146/146/146 148/148/148 
f 148/148/148 146/146/146 149/149/149 
f 143/143/143 148/148/148 150/150/150 
f 150/150/150 148/148/148 151/151/151 
f 143/143/143 150/150/150 152/152/152 
f 143/143/143 152/152/152 145/145/145 
f 152/152/152 150/150/150 153/153/153 
f 145/145/145 152/152/152 154/154/154 
f 154/154/154 152/152/152 155/155/155 
f 145/145/145 154/154/154 156/156/156 
f 145/145/145 156/156/156 157/157/157 
f 158/158/158 160/160/160 159/159/159 
f 158/158/158 161/161/161 160/160/160 
f 161/161/161 158/158/158 162/162/162 
f 163/163/163 161/161/161 162/162/162 
f 161/161/161 163/163/163 164/164/164 
f 161/161/161 164/164/164 165/165/165 
f 163/163/163 162/162/162 166/166/166 
f 167/167/167 166/166/166 162/162/162 
f 167/167/167 168/168/168 166/166/166 
f 168/168/168 169/169/169 166/166/166 
f 169/169/169 163/163/163 166/166/166 
f 168/168/168 170/170/170 169/169/169 
f 163/163/163 169/169/169 171/171/171 
f 172/172/172 163/163/163 171/171/171 
f 172/172/172 171/171/171 173/173/173 
f 174/174/174 171/171/171 169/169/169 
f 175/175/175 171/171/171 174/174/174 
f 175/175/175 174/174/174 176/176/176 
f 177/177/177 179/179/179 178/178/178 
f 177/177/177 180/180/180 179/179/179 
f 181/181/181 180/180/180 177/177/177 
f 181/181/181 182/182/182 180/180/180 
f 183/183/183 182/182/182 181/181/181 
f 183/183/183 181/181/181 184/184/184 
f 185/185/185 187/187/187 186/186/186 
f 186/186/186 188/188/188 185/185/185 
f 185/185/185 189/189/189 187/187/187 
f 188/188/188 190/190/190 185/185/185 
f 191/191/191 189/189/189 185/185/185 
f 190/190/190 192/192/192 185/185/185 
f 193/193/193 191/191/191 185/185/185 
f 192/192/192 194/194/194 185/185/185 
f 195/195/195 193/193/193 185/185/185 
f 194/194/194 196/196/196 185/185/185 
f 197/197/197 195/195/195 185/185/185 
f 198/198/198 185/185/185 196/196/196 
f 199/199/199 197/197/197 185/185/185 
f 199/199/199 185/185/185 198/198/198 
