# exported by StudySceneExporter from mesh 'Box004'
mtllib materials.mtl
v -0.02953047 0.4130797 0.05427288
v -0.1081551 0.4130796 0.1385953
v -0.02953047 0.4130796 0.1385953
v -0.08275512 0.4130797 0.02887287
v -0.03588047 0.4130797 0.03522287
v -0.05493046 0.4130797 0.02887287
v -0.1018051 0.4130797 0.03522287
v -0.1081551 0.4130797 0.05427288
v -0.05493046 0.4446716 0.02887287
v -0.1018051 0.4446716 0.03522287
v -0.08275512 0.4446716 0.02887287
v -0.1081551 0.4446716 0.05427288
v -0.1081551 0.4446716 0.1385953
v -0.02953047 0.4446716 0.1385953
v -0.03588047 0.4446716 0.03522287
v -0.02953047 0.4446716 0.05427288
v -0.1081551 0.4130797 0.05427288
v -0.1081551 0.4446716 0.1385953
v -0.1081551 0.4130796 0.1385953
v -0.1081551 0.4446716 0.05427288
v -0.1018051 0.4130797 0.03522287
v -0.1018051 0.4446716 0.03522287
v -0.08275512 0.4130797 0.02887287
v -0.08275512 0.4446716 0.02887287
v -0.05493046 0.4130797 0.02887287
v -0.05493046 0.4446716 0.02887287
v -0.03588047 0.4130797 0.03522287
v -0.03588047 0.4446716 0.03522287
v -0.02953047 0.4130797 0.05427288
v -0.02953047 0.4446716 0.05427288
v -0.02953047 0.4130796 0.1385953
v -0.02953047 0.4446716 0.1385953
v -0.1081551 0.4130796 0.1385953
v -0.02953047 0.4446716 0.1385953
v -0.02953047 0.4130796 0.1385953
v -0.1081551 0.4446716 0.1385953
v -0.03363116 0.4256274 0.1816447
v -0.04399513 0.4315666 0.1850571
v -0.04398967 0.4256274 0.1816282
v -0.03295172 0.4315666 0.1850748
v -0.04400606 0.4315666 0.1919152
v -0.02629588 0.4256274 0.1786064
v -0.03159282 0.4315666 0.1919349
v -0.04401152 0.4256274 0.1953441
v -0.03091338 0.4256274 0.195365
v -0.02366798 0.4315666 0.1812294
v -0.02327118 0.4256274 0.1712655
v -0.01841219 0.4315666 0.1864755
v -0.0157843 0.4256274 0.1890985
v -0.01983984 0.4315666 0.1719386
v -0.02342952 0.4256274 0.1253154
v -0.01297716 0.4315666 0.1732847
v -0.009545813 0.4256274 0.1739578
v -0.02000288 0.4315666 0.1246242
v -0.02651857 0.4256274 0.1178996
v -0.0131496 0.4315666 0.1232417
v -0.009722953 0.4256274 0.1225504
v -0.02389607 0.4315666 0.1152777
v -0.0339337 0.4256274 0.1148091
v -0.01865106 0.4315666 0.110034
v -0.01602856 0.4256274 0.1074121
v -0.03324166 0.4315666 0.1113826
v -0.1026013 0.4256274 0.1145578
v -0.0318576 0.4315666 0.1045296
v -0.03116557 0.4256274 0.1011032
v -0.1032722 0.4315666 0.1111264
v -0.1099683 0.4256274 0.1175845
v -0.104614 0.4315666 0.1042634
v -0.1052849 0.4256274 0.1008319
v -0.1125857 0.4315666 0.1149527
v -0.1130355 0.4256274 0.1249347
v -0.1178204 0.4315666 0.1096891
v -0.1204378 0.4256274 0.1070573
v -0.1164632 0.4315666 0.124245
v -0.1131215 0.4256274 0.1715815
v -0.1233187 0.4315666 0.1228655
v -0.1267464 0.4256274 0.1221757
v -0.1165517 0.4315666 0.1722502
v -0.1100615 0.4256274 0.1790918
v -0.1234122 0.4315666 0.1735876
v -0.1268424 0.4256274 0.1742563
v -0.112708 0.4315666 0.181684
v -0.1026163 0.4256274 0.1823066
v -0.1180011 0.4315666 0.1868685
v -0.1206476 0.4256274 0.1894607
v -0.1033559 0.4315666 0.1857223
v -0.09033628 0.4256274 0.1825384
v -0.09040099 0.4315666 0.1859668
v -0.1048351 0.4315666 0.1925536
v -0.1055747 0.4256274 0.1959692
v -0.09053039 0.4315666 0.1928236
v -0.0905951 0.4256274 0.1962519
v -0.03091338 0.4256274 0.195365
v -0.04400606 0.4196882 0.1919152
v -0.04401152 0.4256274 0.1953441
v -0.03159282 0.4196882 0.1919349
v -0.04399513 0.4196882 0.1850571
v -0.0157843 0.4256274 0.1890985
v -0.03295172 0.4196882 0.1850748
v -0.04398967 0.4256274 0.1816282
v -0.03363116 0.4256274 0.1816447
v -0.01841219 0.4196882 0.1864755
v -0.009545813 0.4256274 0.1739578
v -0.02366798 0.4196882 0.1812294
v -0.02629588 0.4256274 0.1786064
v -0.01297716 0.4196882 0.1732847
v -0.009722953 0.4256274 0.1225504
v -0.01983984 0.4196882 0.1719386
v -0.02327118 0.4256274 0.1712655
v -0.0131496 0.4196882 0.1232417
v -0.01602856 0.4256274 0.1074121
v -0.02000288 0.4196882 0.1246242
v -0.02342952 0.4256274 0.1253154
v -0.01865106 0.4196882 0.110034
v -0.03116557 0.4256274 0.1011032
v -0.02389607 0.4196882 0.1152777
v -0.02651857 0.4256274 0.1178996
v -0.0318576 0.4196882 0.1045297
v -0.1052849 0.4256274 0.1008319
v -0.03324166 0.4196882 0.1113826
v -0.0339337 0.4256274 0.1148091
v -0.104614 0.4196882 0.1042634
v -0.1204378 0.4256274 0.1070573
v -0.1032722 0.4196882 0.1111264
v -0.1026013 0.4256274 0.1145578
v -0.1178204 0.4196882 0.1096891
v -0.1267464 0.4256274 0.1221757
v -0.1125857 0.4196882 0.1149527
v -0.1099683 0.4256274 0.1175845
v -0.1233187 0.4196882 0.1228655
v -0.1268424 0.4256274 0.1742563
v -0.1164632 0.4196882 0.124245
v -0.1130355 0.4256274 0.1249347
v -0.1234122 0.4196882 0.1735876
v -0.1206476 0.4256274 0.1894607
v -0.1165517 0.4196882 0.1722502
v -0.1131215 0.4256274 0.1715815
v -0.1180011 0.4196882 0.1868685
v -0.1055747 0.4256274 0.1959692
v -0.112708 0.4196882 0.181684
v -0.1100615 0.4256274 0.1790918
v -0.1048351 0.4196882 0.1925536
v -0.0905951 0.4256274 0.1962519
v -0.09053039 0.4196882 0.1928236
v -0.1033559 0.4196882 0.1857223
v -0.1026163 0.4256274 0.1823066
v -0.09040099 0.4196882 0.1859668
v -0.09033628 0.4256274 0.1825384
v -0.04399513 0.4196882 0.1850571
v -0.04401152 0.4256274 0.1953441
v -0.04400606 0.4196882 0.1919152
v -0.04398967 0.4256274 0.1816282
v -0.04399513 0.4315666 0.1850571
v -0.04400606 0.4315666 0.1919152
v -0.09040099 0.4315666 0.1859668
v -0.0905951 0.4256274 0.1962519
v -0.09053039 0.4315666 0.1928236
v -0.09033628 0.4256274 0.1825384
v -0.09040099 0.4196882 0.1859668
v -0.09053039 0.4196882 0.1928236
v -0.029187 0.4128411 0.1544115
v -0.1063448 0.4128411 0.2347963
v -0.029187 0.4128411 0.2347963
v -0.1063448 0.4128411 0.1544115
v -0.029187 0.4374846 0.1544114
v -0.1063448 0.4374846 0.2347963
v -0.1063448 0.4374846 0.1544114
v -0.029187 0.4374846 0.2347963
v -0.029187 0.4128411 0.1544115
v -0.1063448 0.4374846 0.1544114
v -0.1063448 0.4128411 0.1544115
v -0.029187 0.4374846 0.1544114
v -0.1063448 0.4128411 0.1544115
v -0.1063448 0.4374846 0.2347963
v -0.1063448 0.4128411 0.2347963
v -0.1063448 0.4374846 0.1544114
v -0.1063448 0.4128411 0.2347963
v -0.029187 0.4374846 0.2347963
v -0.029187 0.4128411 0.2347963
v -0.1063448 0.4374846 0.2347963
v -0.029187 0.4128411 0.2347963
v -0.029187 0.4374846 0.1544114
v -0.029187 0.4128411 0.1544115
v -0.029187 0.4374846 0.2347963
v 0.2242927 0.01128274 0.3765549
v 0.1552341 0.0049964 0.3917316
v 0.1552341 0.01128274 0.3765549
v 0.2234564 0.0049964 0.3917316
v 0.1552341 -0.01018029 0.3980179
v 0.2471763 0.00508467 0.3765549
v 0.2214375 -0.01018029 0.3980179
v 0.1552341 -0.02535688 0.3917315
v 0.2439157 -0.0005450249 0.3917316
v 0.2656554 -0.01339482 0.3765549
v 0.2194185 -0.02535688 0.3917315
v 0.1552341 -0.03164322 0.3765549
v 0.2185822 -0.03164322 0.3765549
v 0.2600256 -0.01665509 0.3917316
v 0.2718529 -0.03627782 0.3765549
v 0.2360439 -0.01413635 0.3980179
v 0.2281721 -0.02772762 0.3917315
v 0.2249115 -0.03335736 0.3765549
v 0.2655665 -0.03711396 0.3917316
v 0.2718529 -0.1270922 0.3765549
v 0.2464338 -0.02452626 0.3980179
v 0.2328421 -0.03239739 0.3917316
v 0.2272123 -0.03565771 0.3765549
v 0.2655665 -0.1262559 0.3917315
v 0.2595319 -0.1725828 0.3765549
v 0.2503899 -0.03913269 0.3980179
v 0.2352132 -0.04115136 0.3917316
v 0.2289269 -0.04198755 0.3765549
v 0.2539022 -0.1693223 0.3917315
v 0.2249716 -0.2071433 0.3765549
v 0.2503899 -0.124237 0.3980179
v 0.2352133 -0.1222181 0.3917315
v 0.2289269 -0.1213818 0.3765549
v 0.2217111 -0.2015135 0.3917315
v 0.1794809 -0.2194641 0.3765549
v 0.2403107 -0.1614508 0.3980179
v 0.2267192 -0.1535793 0.3917315
v 0.2210895 -0.1503188 0.3765549
v 0.1786446 -0.2131778 0.3917315
v -0.1935763 -0.2194642 0.3765549
v 0.2138395 -0.187922 0.3980179
v 0.205968 -0.1743305 0.3917315
v 0.2027075 -0.1687008 0.3765549
v -0.1927401 -0.2131778 0.3917315
v -0.239067 -0.2071432 0.3765549
v 0.1766257 -0.1980012 0.3980179
v 0.1746068 -0.1828245 0.3917315
v 0.1737706 -0.1765382 0.3765549
v -0.2358065 -0.2015135 0.3917315
v -0.2736275 -0.1725829 0.3765549
v -0.1907212 -0.1980012 0.3980179
v -0.1887023 -0.1828245 0.3917315
v -0.187866 -0.1765382 0.3765549
v -0.2679977 -0.1693224 0.3917315
v -0.2859484 -0.1270921 0.3765549
v -0.227935 -0.187922 0.3980179
v -0.2200635 -0.1743305 0.3917315
v -0.216803 -0.1687007 0.3765549
v -0.279662 -0.1262559 0.3917315
v -0.2859484 -0.0364484 0.3765549
v -0.2544063 -0.1614508 0.3980179
v -0.2408148 -0.1535792 0.3917315
v -0.2351851 -0.1503187 0.3765549
v -0.2796621 -0.03728459 0.3917316
v -0.2797509 -0.01356545 0.3765549
v -0.2644854 -0.1242369 0.3980179
v -0.2493088 -0.122218 0.3917315
v -0.2430224 -0.1213817 0.3765549
v -0.274121 -0.01682572 0.3917316
v -0.2612718 0.004914138 0.3765549
v -0.2644854 -0.03930327 0.3980179
v -0.2493088 -0.04132194 0.3917315
v -0.2430224 -0.04215813 0.3765549
v -0.2580112 -0.000715654 0.3917316
v -0.2383882 0.01111211 0.3765549
v -0.2605293 -0.02469685 0.3980179
v -0.2469376 -0.03256797 0.3917316
v -0.2413078 -0.03582829 0.3765549
v -0.2375519 0.004825674 0.3917316
v -0.1708049 0.01111211 0.3765549
v -0.1708049 0.004825771 0.3917316
v -0.2501394 -0.01430702 0.3980179
v -0.2422676 -0.02789825 0.3917316
v -0.239007 -0.03352794 0.3765549
v -0.235533 -0.01035097 0.3980179
v -0.1708049 -0.01035097 0.3980179
v -0.233514 -0.02552746 0.3917316
v -0.2326777 -0.0318138 0.3765549
v -0.1708049 -0.02552746 0.3917316
v -0.1708049 -0.03181385 0.3765549
v 0.2185822 -0.03164322 0.3765549
v 0.1552341 -0.02535688 0.3613783
v 0.1552341 -0.03164322 0.3765549
v 0.2194185 -0.02535688 0.3613783
v 0.1552341 -0.01018024 0.3550919
v 0.2249115 -0.03335736 0.3765549
v 0.2214375 -0.01018024 0.3550919
v 0.1552341 0.0049964 0.3613783
v 0.2281721 -0.02772762 0.3613783
v 0.2272123 -0.03565771 0.3765549
v 0.2234564 0.0049964 0.3613783
v 0.1552341 0.01128274 0.3765549
v 0.2242927 0.01128274 0.3765549
v 0.2328421 -0.03239739 0.3613783
v 0.2289269 -0.04198755 0.3765549
v 0.2360439 -0.0141363 0.3550919
v 0.2439157 -0.0005450249 0.3613783
v 0.2471763 0.00508467 0.3765549
v 0.2352132 -0.04115136 0.3613783
v 0.2289269 -0.1213818 0.3765549
v 0.2464338 -0.02452622 0.3550919
v 0.2600256 -0.01665509 0.3613783
v 0.2656554 -0.01339482 0.3765549
v 0.2352132 -0.1222181 0.3613783
v 0.2210895 -0.1503188 0.3765549
v 0.2503899 -0.03913269 0.3550919
v 0.2655665 -0.03711396 0.3613783
v 0.2718529 -0.03627782 0.3765549
v 0.2267192 -0.1535793 0.3613783
v 0.2027075 -0.1687008 0.3765549
v 0.2503899 -0.124237 0.3550919
v 0.2655665 -0.1262559 0.3613783
v 0.2718529 -0.1270922 0.3765549
v 0.205968 -0.1743305 0.3613782
v 0.1737706 -0.1765382 0.3765549
v 0.2403107 -0.1614508 0.3550919
v 0.2539022 -0.1693224 0.3613782
v 0.2595319 -0.1725828 0.3765549
v 0.1746068 -0.1828245 0.3613782
v -0.187866 -0.1765382 0.3765549
v 0.2138395 -0.187922 0.3550919
v 0.2217111 -0.2015135 0.3613782
v 0.2249716 -0.2071433 0.3765549
v -0.1887023 -0.1828245 0.3613782
v -0.216803 -0.1687007 0.3765549
v 0.1766257 -0.1980012 0.3550918
v 0.1786446 -0.2131778 0.3613782
v 0.1794809 -0.2194641 0.3765549
v -0.2200635 -0.1743305 0.3613782
v -0.2351851 -0.1503187 0.3765549
v -0.1907212 -0.1980012 0.3550918
v -0.1927401 -0.2131778 0.3613782
v -0.1935763 -0.2194642 0.3765549
v -0.2408148 -0.1535792 0.3613783
v -0.2430224 -0.1213817 0.3765549
v -0.227935 -0.187922 0.3550919
v -0.2358065 -0.2015135 0.3613782
v -0.239067 -0.2071432 0.3765549
v -0.2493088 -0.122218 0.3613783
v -0.2430224 -0.04215813 0.3765549
v -0.2544063 -0.1614508 0.3550919
v -0.2679977 -0.1693223 0.3613782
v -0.2736275 -0.1725829 0.3765549
v -0.2493088 -0.04132194 0.3613783
v -0.2413078 -0.03582829 0.3765549
v -0.2644854 -0.1242369 0.3550919
v -0.279662 -0.1262559 0.3613783
v -0.2859484 -0.1270921 0.3765549
v -0.2469376 -0.03256797 0.3613783
v -0.239007 -0.03352794 0.3765549
v -0.2644854 -0.03930327 0.3550919
v -0.2796621 -0.03728459 0.3613783
v -0.2859484 -0.0364484 0.3765549
v -0.2422676 -0.02789825 0.3613783
v -0.2326777 -0.0318138 0.3765549
v -0.2605293 -0.02469685 0.3550919
v -0.274121 -0.01682572 0.3613783
v -0.2797509 -0.01356545 0.3765549
v -0.233514 -0.02552746 0.3613783
v -0.1708049 -0.03181385 0.3765549
v -0.1708049 -0.02552746 0.3613783
v -0.2501394 -0.01430688 0.3550919
v -0.2580112 -0.000715654 0.3613783
v -0.2612718 0.004914138 0.3765549
v -0.235533 -0.01035082 0.3550919
v -0.1708049 -0.01035082 0.3550919
v -0.2375519 0.004825771 0.3613783
v -0.2383882 0.01111211 0.3765549
v -0.1708049 0.004825771 0.3613783
v -0.1708049 0.01111211 0.3765549
v 0.1552341 -0.01018024 0.3550919
v 0.1552341 -0.03164322 0.3765549
v 0.1552341 -0.02535688 0.3613783
v 0.1552341 0.0049964 0.3613783
v 0.1552341 0.01128274 0.3765549
v 0.1552341 0.0049964 0.3917316
v 0.1552341 -0.01018029 0.3980179
v 0.1552341 -0.02535688 0.3917315
v -0.1708049 -0.01035097 0.3980179
v -0.1708049 -0.03181385 0.3765549
v -0.1708049 -0.02552746 0.3917316
v -0.1708049 0.004825771 0.3917316
v -0.1708049 0.01111211 0.3765549
v -0.1708049 0.004825771 0.3613783
v -0.1708049 -0.01035082 0.3550919
v -0.1708049 -0.02552746 0.3613783
v 0.1621326 -0.03674325 0.3433689
v 0.2071679 -0.03674323 0.3799101
v 0.2071679 -0.03674325 0.3433689
v 0.1621326 -0.03674325 0.3799101
v 0.1621326 -0.02717242 0.3968136
v 0.2071679 -0.0271724 0.3968136
v 0.1621326 -0.01026895 0.4038154
v 0.2071679 -0.01026895 0.4038154
v 0.1621326 0.006634576 0.3968137
v 0.2071679 0.006634576 0.3968138
v 0.1621326 0.01533375 0.3799102
v 0.2071679 0.01533375 0.3799102
v 0.2071679 0.01533375 0.3433689
v 0.1621326 0.01533375 0.3433689
v 0.2071679 0.01533375 0.3433689
v 0.1621326 -0.03674325 0.3433689
v 0.2071679 -0.03674325 0.3433689
v 0.1621326 0.01533375 0.3433689
v 0.2071679 -0.03674325 0.3433689
v 0.2071679 0.01533375 0.3799102
v 0.2071679 0.01533375 0.3433689
v 0.2071679 -0.03674323 0.3799101
v 0.2071679 -0.0271724 0.3968136
v 0.2071679 0.006634576 0.3968138
v 0.2071679 -0.01026895 0.4038154
v 0.1621326 0.01533375 0.3799102
v 0.1621326 -0.03674325 0.3433689
v 0.1621326 0.01533375 0.3433689
v 0.1621326 -0.03674325 0.3799101
v 0.1621326 -0.02717242 0.3968136
v 0.1621326 0.006634576 0.3968137
v 0.1621326 -0.01026895 0.4038154
v -0.2219245 -0.03677493 0.3433689
v -0.1767611 -0.03677496 0.3799101
v -0.1767611 -0.03677493 0.3433689
v -0.2219245 -0.03677493 0.3799101
v -0.2219245 -0.0272041 0.3968136
v -0.1767611 -0.02720413 0.3968136
v -0.2219245 -0.01030063 0.4038153
v -0.1767611 -0.01030063 0.4038153
v -0.2219245 0.006602891 0.3968137
v -0.1767611 0.006602891 0.3968137
v -0.2219245 0.01530207 0.3799101
v -0.1767611 0.01530207 0.3799101
v -0.1767611 0.01530207 0.3433689
v -0.2219245 0.01530207 0.3433689
v -0.1767611 0.01530207 0.3433689
v -0.2219245 -0.03677493 0.3433689
v -0.1767611 -0.03677493 0.3433689
v -0.2219245 0.01530207 0.3433689
v -0.1767611 -0.03677493 0.3433689
v -0.1767611 0.01530207 0.3799101
v -0.1767611 0.01530207 0.3433689
v -0.1767611 -0.03677496 0.3799101
v -0.1767611 -0.02720413 0.3968136
v -0.1767611 0.006602891 0.3968137
v -0.1767611 -0.01030063 0.4038153
v -0.2219245 0.01530207 0.3799101
v -0.2219245 -0.03677493 0.3433689
v -0.2219245 0.01530207 0.3433689
v -0.2219245 -0.03677493 0.3799101
v -0.2219245 -0.0272041 0.3968136
v -0.2219245 0.006602891 0.3968137
v -0.2219245 -0.01030063 0.4038153
v -0.6903917 -0.4402595 0.2204672
v -0.8729785 -0.4314352 0.2204672
v -0.6903917 -0.4314352 0.2204672
v -0.8729785 -0.4402595 0.2204672
v -0.6903917 -0.4314352 0.06812021
v -0.8729785 -0.4402594 0.06812021
v -0.6903917 -0.4402594 0.06812021
v -0.8729785 -0.4314352 0.06812021
v -0.8729785 -0.4402595 0.1366517
v -0.6903917 -0.4427509 0.1383688
v -0.6903917 -0.4402595 0.1366517
v -0.8729785 -0.4427509 0.1383688
v -0.6903917 -0.4446716 0.1442937
v -0.8729785 -0.4446716 0.1442937
v -0.6903917 -0.4427509 0.1502186
v -0.8729785 -0.4427509 0.1502186
v -0.6903917 -0.4402595 0.1519357
v -0.8729785 -0.4402595 0.1519357
v -0.6903917 -0.4314352 0.2204672
v -0.6903917 -0.4402595 0.1519357
v -0.6903917 -0.4402595 0.2204672
v -0.6903917 -0.4314352 0.1519357
v -0.6903917 -0.4314352 0.1366517
v -0.6903917 -0.4402595 0.1366517
v -0.6903917 -0.4402594 0.06812021
v -0.6903917 -0.4314352 0.06812021
v -0.6903917 -0.4427509 0.1383688
v -0.6903917 -0.4427509 0.1502186
v -0.6903917 -0.4446716 0.1442937
v -0.8729785 -0.4402595 0.2204672
v -0.8729785 -0.4314352 0.1519357
v -0.8729785 -0.4314352 0.2204672
v -0.8729785 -0.4402595 0.1519357
v -0.8729785 -0.4314352 0.1366517
v -0.8729785 -0.4402595 0.1366517
v -0.8729785 -0.4314352 0.06812021
v -0.8729785 -0.4402594 0.06812021
v -0.8729785 -0.4427509 0.1383688
v -0.8729785 -0.4427509 0.1502186
v -0.8729785 -0.4446716 0.1442937
v -0.8729785 -0.4402595 0.1519357
v -0.6903917 -0.4402595 0.2204672
v -0.6903917 -0.4402595 0.1519357
v -0.8729785 -0.4402595 0.2204672
v -0.6903917 -0.4402595 0.1366517
v -0.8729785 -0.4402594 0.06812021
v -0.8729785 -0.4402595 0.1366517
v -0.6903917 -0.4402594 0.06812021
v 0.9468047 -0.4402595 0.2204672
v 0.7642179 -0.4314352 0.2204672
v 0.9468047 -0.4314352 0.2204672
v 0.7642179 -0.4402595 0.2204672
v 0.9468047 -0.4314352 0.06812021
v 0.7642179 -0.4402594 0.06812021
v 0.9468047 -0.4402594 0.06812021
v 0.7642179 -0.4314352 0.06812021
v 0.7642179 -0.4402595 0.1366517
v 0.9468047 -0.4427509 0.1383688
v 0.9468047 -0.4402595 0.1366517
v 0.7642179 -0.4427509 0.1383688
v 0.9468047 -0.4446716 0.1442937
v 0.7642179 -0.4446716 0.1442937
v 0.9468047 -0.4427509 0.1502186
v 0.7642179 -0.4427509 0.1502186
v 0.9468047 -0.4402595 0.1519357
v 0.7642179 -0.4402595 0.1519357
v 0.9468047 -0.4314352 0.2204672
v 0.9468047 -0.4402595 0.1519357
v 0.9468047 -0.4402595 0.2204672
v 0.9468047 -0.4314352 0.1519357
v 0.9468047 -0.4314352 0.1366517
v 0.9468047 -0.4427509 0.1383688
v 0.9468047 -0.4427509 0.1502186
v 0.9468047 -0.4446716 0.1442937
v 0.9468047 -0.4402595 0.1366517
v 0.9468047 -0.4402594 0.06812021
v 0.9468047 -0.4314352 0.06812021
v 0.7642179 -0.4402595 0.2204672
v 0.7642179 -0.4314352 0.1519357
v 0.7642179 -0.4314352 0.2204672
v 0.7642179 -0.4402595 0.1519357
v 0.7642179 -0.4427509 0.1383688
v 0.7642179 -0.4427509 0.1502186
v 0.7642179 -0.4446716 0.1442937
v 0.7642179 -0.4314352 0.1366517
v 0.7642179 -0.4402595 0.1366517
v 0.7642179 -0.4314352 0.06812021
v 0.7642179 -0.4402594 0.06812021
v 0.7642179 -0.4402595 0.1519357
v 0.9468047 -0.4402595 0.2204672
v 0.9468047 -0.4402595 0.1519357
v 0.7642179 -0.4402595 0.2204672
v 0.9468047 -0.4402595 0.1366517
v 0.7642179 -0.4402594 0.06812021
v 0.7642179 -0.4402595 0.1366517
v 0.9468047 -0.4402594 0.06812021
v 1.107826 0.382398 0.318868
v 1.094502 0.3940569 0.3305269
v 1.099498 0.3990536 0.3155368
v 1.099498 0.3790668 0.3355237
v 1.111157 0.3840636 0.2972155
v 1.101164 0.4007192 0.2972155
v 1.101164 0.4007192 -0.350517
v 1.111157 0.3607455 0.3205335
v 1.101164 0.3607455 0.3371893
v 1.111157 0.3840636 -0.350517
v 1.099498 0.3990536 -0.3688383
v 1.114488 0.3607455 0.2972155
v 1.111157 -0.3785033 0.3205335
v 1.101164 -0.3785033 0.3371893
v 1.099498 -0.3968246 0.3355237
v 1.107826 0.382398 -0.3721695
v 1.094502 0.3940569 -0.3838285
v 1.099498 0.3790668 -0.3888251
v 1.114488 -0.3785033 0.2972155
v 1.107826 -0.4001557 0.318868
v 1.094502 -0.4118147 0.3305269
v 1.099498 -0.4168114 0.3155369
v 1.111157 -0.4018213 0.2972155
v 1.101164 -0.418477 0.2972155
v 1.114488 0.3607455 -0.350517
v 1.111157 0.3607455 -0.373835
v 1.101164 0.3607455 -0.3904907
v 1.101164 -0.3785033 -0.3904907
v 1.114488 -0.3785033 -0.350517
v 1.111157 -0.4018213 -0.350517
v 1.101164 -0.418477 -0.350517
v 1.099498 -0.4168114 -0.3688384
v 1.111157 -0.3785033 -0.373835
v 1.099498 -0.3968246 -0.3888251
v 1.107826 -0.4001557 -0.3721695
v 1.094502 -0.4118147 -0.3838285
v -1.082843 0.382398 0.3438515
v -1.094502 0.3940569 0.3305269
v -1.079512 0.3990538 0.3355237
v -1.099498 0.3790668 0.3355237
v -1.06119 0.3840636 0.3471827
v -1.06119 0.4007192 0.3371893
v 1.06119 0.4007192 0.3371893
v -1.084508 0.3607455 0.3471827
v -1.101164 0.3607455 0.3371893
v 1.06119 0.3840636 0.3471827
v 1.079512 0.3990538 0.3355237
v -1.06119 0.3607455 0.3505139
v -1.084508 -0.3785033 0.3471827
v -1.101164 -0.3785033 0.3371893
v -1.099498 -0.3968246 0.3355237
v 1.082843 0.382398 0.3438515
v 1.094502 0.3940569 0.3305269
v 1.099498 0.3790668 0.3355237
v -1.06119 -0.3785033 0.3505139
v -1.082843 -0.4001557 0.3438515
v -1.094502 -0.4118147 0.3305269
v -1.079512 -0.4168114 0.3355237
v -1.06119 -0.4018213 0.3471827
v -1.06119 -0.418477 0.3371893
v 1.06119 0.3607455 0.3505139
v 1.084508 0.3607455 0.3471827
v 1.101164 0.3607455 0.3371893
v 1.101164 -0.3785033 0.3371893
v 1.06119 -0.3785033 0.3505139
v 1.06119 -0.4018213 0.3471827
v 1.06119 -0.418477 0.3371893
v 1.079512 -0.4168114 0.3355237
v 1.084508 -0.3785033 0.3471827
v 1.099498 -0.3968246 0.3355237
v 1.082843 -0.4001557 0.3438515
v 1.094502 -0.4118147 0.3305269
v -1.107826 0.382398 -0.3721694
v -1.094502 0.3940569 -0.3838285
v -1.099498 0.3990536 -0.3688383
v -1.099498 0.3790668 -0.3888251
v -1.111157 0.3840636 -0.350517
v -1.101164 0.4007192 -0.350517
v -1.101164 0.4007192 0.2972155
v -1.111157 0.3607455 -0.373835
v -1.101164 0.3607455 -0.3904907
v -1.111157 0.3840636 0.2972155
v -1.099498 0.3990536 0.3155368
v -1.114488 0.3607455 -0.350517
v -1.111157 -0.3785033 -0.373835
v -1.101164 -0.3785033 -0.3904907
v -1.099498 -0.3968246 -0.3888251
v -1.107826 0.382398 0.318868
v -1.094502 0.3940569 0.3305269
v -1.099498 0.3790668 0.3355237
v -1.114488 -0.3785033 -0.350517
v -1.107826 -0.4001557 -0.3721695
v -1.094502 -0.4118147 -0.3838285
v -1.099498 -0.4168114 -0.3688383
v -1.111157 -0.4018213 -0.350517
v -1.101164 -0.418477 -0.350517
v -1.114488 0.3607455 0.2972155
v -1.111157 0.3607455 0.3205335
v -1.101164 0.3607455 0.3371893
v -1.101164 -0.3785033 0.3371893
v -1.114488 -0.3785033 0.2972155
v -1.111157 -0.4018213 0.2972155
v -1.101164 -0.418477 0.2972155
v -1.099498 -0.4168114 0.3155369
v -1.111157 -0.3785033 0.3205335
v -1.099498 -0.3968246 0.3355237
v -1.107826 -0.4001557 0.318868
v -1.094502 -0.4118147 0.3305269
v 1.082843 0.382398 -0.397153
v 1.094502 0.3940569 -0.3838285
v 1.079512 0.3990538 -0.3888251
v 1.099498 0.3790668 -0.3888251
v 1.06119 0.3840636 -0.4004842
v 1.06119 0.4007192 -0.3904907
v -1.06119 0.4007192 -0.3904907
v 1.084508 0.3607455 -0.4004842
v 1.101164 0.3607455 -0.3904907
v -1.06119 0.3840636 -0.4004842
v -1.079512 0.3990538 -0.3888251
v 1.06119 0.3607455 -0.4038153
v 1.084508 -0.3785033 -0.4004842
v 1.101164 -0.3785033 -0.3904907
v 1.099498 -0.3968246 -0.3888251
v -1.082843 0.382398 -0.397153
v -1.094502 0.3940569 -0.3838285
v -1.099498 0.3790668 -0.3888251
v 1.06119 -0.3785033 -0.4038153
v 1.082843 -0.4001557 -0.397153
v 1.094502 -0.4118147 -0.3838285
v 1.079512 -0.4168114 -0.3888252
v 1.06119 -0.4018213 -0.4004842
v 1.06119 -0.418477 -0.3904907
v -1.06119 0.3607455 -0.4038153
v -1.084508 0.3607455 -0.4004842
v -1.101164 0.3607455 -0.3904907
v -1.101164 -0.3785033 -0.3904907
v -1.06119 -0.3785033 -0.4038153
v -1.06119 -0.4018213 -0.4004842
v -1.06119 -0.418477 -0.3904907
v -1.079512 -0.4168114 -0.3888251
v -1.084508 -0.3785033 -0.4004842
v -1.099498 -0.3968246 -0.3888251
v -1.082843 -0.4001557 -0.397153
v -1.094502 -0.4118147 -0.3838285
v 1.06119 0.4107127 0.3205335
v 1.079512 0.3990538 0.3355237
v 1.06119 0.4007192 0.3371893
v -1.06119 0.4007192 0.3371893
v 1.082843 0.4073815 0.318868
v 1.094502 0.3940569 0.3305269
v 1.099498 0.3990536 0.3155368
v -1.06119 0.4107127 0.3205335
v -1.079512 0.3990538 0.3355237
v 1.06119 0.4140438 0.2972155
v 1.084508 0.4107127 0.2972155
v 1.101164 0.4007192 0.2972155
v -1.082843 0.4073815 0.318868
v -1.094502 0.3940569 0.3305269
v -1.099498 0.3990536 0.3155368
v 1.084508 0.4107127 -0.350517
v 1.101164 0.4007192 -0.350517
v 1.099498 0.3990536 -0.3688383
v -1.06119 0.4140438 0.2972155
v -1.084508 0.4107127 0.2972155
v -1.101164 0.4007192 0.2972155
v -1.101164 0.4007192 -0.350517
v -1.084508 0.4107127 -0.350517
v -1.099498 0.3990536 -0.3688383
v 1.06119 0.4140438 -0.350517
v 1.082843 0.4073815 -0.3721695
v 1.094502 0.3940569 -0.3838285
v 1.079512 0.3990538 -0.3888251
v -1.06119 0.4140438 -0.350517
v -1.082843 0.4073815 -0.3721695
v -1.094502 0.3940569 -0.3838285
v -1.079512 0.3990538 -0.3888251
v 1.06119 0.4107127 -0.373835
v 1.06119 0.4007192 -0.3904907
v -1.06119 0.4107127 -0.373835
v -1.06119 0.4007192 -0.3904907
v -1.084508 -0.4284704 -0.350517
v -1.099498 -0.4168114 -0.3688383
v -1.101164 -0.418477 -0.350517
v -1.101164 -0.418477 0.2972155
v -1.082843 -0.4251392 -0.3721695
v -1.094502 -0.4118147 -0.3838285
v -1.079512 -0.4168114 -0.3888251
v -1.084508 -0.4284704 0.2972155
v -1.099498 -0.4168114 0.3155369
v -1.06119 -0.4318016 -0.350517
v -1.06119 -0.4284704 -0.373835
v -1.06119 -0.418477 -0.3904907
v -1.082843 -0.4251392 0.318868
v -1.094502 -0.4118147 0.3305269
v -1.079512 -0.4168114 0.3355237
v 1.06119 -0.4284704 -0.373835
v 1.06119 -0.418477 -0.3904907
v 1.079512 -0.4168114 -0.3888252
v -1.06119 -0.4318016 0.2972155
v -1.06119 -0.4284704 0.3205335
v -1.06119 -0.418477 0.3371893
v 1.06119 -0.418477 0.3371893
v 1.06119 -0.4284704 0.3205335
v 1.079512 -0.4168114 0.3355237
v 1.06119 -0.4318016 -0.350517
v 1.082843 -0.4251392 -0.3721695
v 1.094502 -0.4118147 -0.3838285
v 1.099498 -0.4168114 -0.3688384
v 1.06119 -0.4318016 0.2972155
v 1.082843 -0.4251392 0.318868
v 1.094502 -0.4118147 0.3305269
v 1.099498 -0.4168114 0.3155369
v 1.084508 -0.4284704 -0.350517
v 1.101164 -0.418477 -0.350517
v 1.084508 -0.4284704 0.2972155
v 1.101164 -0.418477 0.2972155
vt 0.7421194 0.8324011
vt 0.7173342 0.8589827
vt 0.7421194 0.8589827
vt 0.7253411 0.824394
vt 0.7401178 0.8263957
vt 0.7341124 0.8243936
vt 0.7193358 0.826396
vt 0.717334 0.8324012
vt 0.7811985 0.6149291
vt 0.795975 0.6169311
vt 0.7899697 0.6149291
vt 0.7979769 0.6229364
vt 0.7979769 0.649518
vt 0.7731916 0.649518
vt 0.7751931 0.6169311
vt 0.7731913 0.6229364
vt 0.8385217 0.5637267
vt 0.8651021 0.5736874
vt 0.8651028 0.5637287
vt 0.8385214 0.5736855
vt 0.8321913 0.5637268
vt 0.8321918 0.5736856
vt 0.8258609 0.5637273
vt 0.8258622 0.5736862
vt 0.817089 0.5637287
vt 0.8170913 0.573688
vt 0.8107585 0.5637305
vt 0.8107613 0.5736898
vt 0.8044279 0.5637327
vt 0.8044314 0.5736919
vt 0.777846 0.5637426
vt 0.7778497 0.5737018
vt 0.7731913 0.6521673
vt 0.7979767 0.6621263
vt 0.7979767 0.6521673
vt 0.7731913 0.6621262
vt 0.9482061 0.02699616
vt 0.9480546 0.03091579
vt 0.9499051 0.02979098
vt 0.946175 0.02790246
vt 0.9462757 0.03205859
vt 0.9474965 0.02462369
vt 0.9442142 0.02882506
vt 0.9444087 0.03323758
vt 0.9422243 0.02970374
vt 0.9452682 0.0246887
vt 0.9480565 0.02222009
vt 0.9428958 0.02475305
vt 0.9407628 0.02481259
vt 0.9460129 0.02144875
vt 0.9550768 0.009524467
vt 0.943997 0.02061035
vt 0.9419453 0.01982913
vt 0.9533104 0.008179058
vt 0.956835 0.007741717
vt 0.9515917 0.00694885
vt 0.9497986 0.005619289
vt 0.9556983 0.00582079
vt 0.9592435 0.007058698
vt 0.9544977 0.003790796
vt 0.9534051 0.001944721
vt 0.9589146 0.004865289
vt 0.9809458 0.007012709
vt 0.9586668 0.002765093
vt 0.9583646 0.0005491613
vt 0.9812566 0.004853141
vt 0.9833269 0.007684568
vt 0.9814942 0.002681223
vt 0.9818004 0.0005
vt 0.9844575 0.005770064
vt 0.9850649 0.009447392
vt 0.9856653 0.0037229
vt 0.9867545 0.001876785
vt 0.9868089 0.008130143
vt 0.9921814 0.02236675
vt 0.9885951 0.006869426
vt 0.9903535 0.005546784
vt 0.9942627 0.02158537
vt 0.9927663 0.0248314
vt 0.9962205 0.02078385
vt 0.9983007 0.01997253
vt 0.9950005 0.02488328
vt 0.9920666 0.02726679
vt 0.9973627 0.02493553
vt 0.9995 0.0249814
vt 0.9941082 0.02814818
vt 0.9900876 0.03060563
vt 0.9919521 0.03171064
vt 0.9960779 0.02904847
vt 0.9980815 0.02990606
vt 0.9937512 0.0328242
vt 0.9956374 0.03397836
vt 0.8445847 0.6068462
vt 0.8405432 0.6092161
vt 0.8424145 0.6103876
vt 0.8425917 0.6059752
vt 0.83876 0.6080806
vt 0.8460274 0.6019503
vt 0.8406277 0.6050605
vt 0.8369055 0.6069632
vt 0.8385932 0.6041621
vt 0.8438944 0.6018988
vt 0.8448273 0.5969714
vt 0.841522 0.6018434
vt 0.8392933 0.6017873
vt 0.8427777 0.59776
vt 0.8369156 0.5827823
vt 0.8407644 0.5986066
vt 0.8387232 0.5993863
vt 0.8351254 0.5841184
vt 0.8332987 0.579116
vt 0.8334092 0.5853552
vt 0.8316453 0.5867082
vt 0.8322095 0.5809654
vt 0.8283349 0.5777278
vt 0.8310117 0.5830001
vt 0.8298777 0.584927
vt 0.8280348 0.5799459
vt 0.8048761 0.5776911
vt 0.8277889 0.582049
vt 0.8274619 0.5842463
vt 0.8051828 0.579873
vt 0.7999253 0.5790666
vt 0.8054198 0.5820458
vt 0.8057302 0.5842074
vt 0.8010123 0.580912
vt 0.7963278 0.582728
vt 0.8022179 0.5829595
vt 0.8033454 0.5848756
vt 0.7980817 0.5840517
vt 0.7883637 0.5971152
vt 0.7998638 0.5853142
vt 0.801603 0.5866338
vt 0.7904392 0.5979297
vt 0.7871555 0.602116
vt 0.7923933 0.5987341
vt 0.7944701 0.5995185
vt 0.7892903 0.6020744
vt 0.7885622 0.607038
vt 0.7916501 0.6020269
vt 0.7938821 0.6019796
vt 0.7905653 0.6061854
vt 0.7909951 0.6111109
vt 0.7928816 0.6099619
vt 0.7925348 0.6052905
vt 0.7945763 0.6044143
vt 0.7946811 0.6088535
vt 0.7965456 0.6077538
vt 0.9258881 0.5741172
vt 0.9240159 0.57736
vt 0.9258881 0.5762792
vt 0.9240159 0.5730363
vt 0.9221437 0.5741172
vt 0.9221437 0.5762792
vt 0.8979595 0.6253197
vt 0.8960875 0.6285626
vt 0.8979595 0.6274818
vt 0.8960875 0.6242387
vt 0.8942151 0.6253197
vt 0.8942151 0.6274818
vt 0.7437204 0.6345991
vt 0.7680445 0.6092593
vt 0.7437211 0.6092587
vt 0.7680437 0.6345999
vt 0.7437215 0.57615
vt 0.7680445 0.6014906
vt 0.7680447 0.5761501
vt 0.7437215 0.60149
vt 0.7437215 0.5683815
vt 0.7680447 0.5761501
vt 0.7680448 0.5683817
vt 0.7437215 0.57615
vt 0.7758133 0.5761501
vt 0.7680445 0.6014906
vt 0.7758131 0.6014907
vt 0.7680447 0.5761501
vt 0.7680445 0.6092593
vt 0.7437215 0.60149
vt 0.7437211 0.6092587
vt 0.7680445 0.6014906
vt 0.735953 0.60149
vt 0.7437215 0.57615
vt 0.735953 0.57615
vt 0.7437215 0.60149
vt 0.7008349 0.9228773
vt 0.7153511 0.9059243
vt 0.7106752 0.9035247
vt 0.7055934 0.924779
vt 0.7199372 0.9082932
vt 0.6987149 0.9299671
vt 0.71021 0.9269238
vt 0.7244849 0.9105831
vt 0.7036204 0.9305699
vt 0.69894 0.9379426
vt 0.7151415 0.9292427
vt 0.7291478 0.9128713
vt 0.720324 0.9308534
vt 0.7037141 0.9370082
vt 0.7014365 0.9449348
vt 0.7085853 0.9313536
vt 0.7142819 0.9323561
vt 0.7198511 0.9328481
vt 0.7061251 0.9426937
vt 0.7160037 0.9696709
vt 0.7087521 0.9359351
vt 0.7144086 0.9347134
vt 0.7198706 0.933872
vt 0.7202511 0.9665977
vt 0.7257215 0.9809453
vt 0.7106213 0.9402793
vt 0.715395 0.9377674
vt 0.7204739 0.9358301
vt 0.7289778 0.9769167
vt 0.7389963 0.9885664
vt 0.7245139 0.9636154
vt 0.7288138 0.9606526
vt 0.7330804 0.9575831
vt 0.7407411 0.9838086
vt 0.7536355 0.9913018
vt 0.7323059 0.9729501
vt 0.735849 0.9688543
vt 0.7392697 0.9647096
vt 0.7541304 0.9859986
vt 0.8716962 0.9915226
vt 0.7425593 0.9788077
vt 0.7444464 0.9736372
vt 0.746263 0.9687595
vt 0.871206 0.9862784
vt 0.8863383 0.9888496
vt 0.7545368 0.9808503
vt 0.7549508 0.9757369
vt 0.7554798 0.9704954
vt 0.884517 0.9840052
vt 0.8996069 0.9812775
vt 0.8708258 0.9810816
vt 0.8704634 0.9759212
vt 0.8699586 0.970723
vt 0.8963968 0.9773722
vt 0.9093527 0.9700758
vt 0.8827876 0.9791324
vt 0.881055 0.9740157
vt 0.8792157 0.968981
vt 0.9050772 0.9669901
vt 0.9237019 0.9455932
vt 0.8930125 0.9732749
vt 0.8895128 0.9690337
vt 0.886239 0.9650112
vt 0.9191285 0.943419
vt 0.9261855 0.9387653
vt 0.9008482 0.9640033
vt 0.8965895 0.9610291
vt 0.8923849 0.9579754
vt 0.9215059 0.9378245
vt 0.9264598 0.9309268
vt 0.914691 0.941022
vt 0.909986 0.9385184
vt 0.9049821 0.9365724
vt 0.9216319 0.9314892
vt 0.924423 0.9239353
vt 0.9165497 0.9367458
vt 0.9109766 0.93551
vt 0.9055911 0.9346436
vt 0.9197264 0.925775
vt 0.9150718 0.9052155
vt 0.9104506 0.907546
vt 0.9167386 0.932232
vt 0.9111157 0.9331854
vt 0.905617 0.933633
vt 0.9151655 0.9278563
vt 0.9059181 0.9098474
vt 0.910288 0.9301094
vt 0.9051649 0.9316615
vt 0.9014211 0.9120699
vt 0.8968086 0.9142886
vt 0.719979 0.6004666
vt 0.7239417 0.6204149
vt 0.7285391 0.6181953
vt 0.7148854 0.6020105
vt 0.7194562 0.6226377
vt 0.7195271 0.5985078
vt 0.7100179 0.6042531
vt 0.7149314 0.6249384
vt 0.7140684 0.598945
vt 0.7195525 0.5975053
vt 0.7054586 0.6063321
vt 0.7103177 0.6272689
vt 0.7007629 0.6081744
vt 0.7142186 0.5966303
vt 0.7201556 0.5955982
vt 0.7084526 0.5998805
vt 0.7035535 0.6006167
vt 0.6987149 0.6011819
vt 0.7152354 0.5936467
vt 0.7330871 0.5741304
vt 0.7086544 0.5953671
vt 0.7036871 0.5942679
vt 0.6989746 0.5933185
vt 0.7288069 0.5709741
vt 0.7393569 0.5669945
vt 0.710544 0.5910962
vt 0.7061108 0.5886618
vt 0.7014761 0.5864079
vt 0.7359444 0.5628227
vt 0.7463699 0.5629506
vt 0.7245451 0.5679747
vt 0.7203133 0.564962
vt 0.7161022 0.5618801
vt 0.7445715 0.5580657
vt 0.7555706 0.5612509
vt 0.7324272 0.5587116
vt 0.7290477 0.5546008
vt 0.7258405 0.5506883
vt 0.7550792 0.5560744
vt 0.8699824 0.5615644
vt 0.7427034 0.5528667
vt 0.740977 0.5479746
vt 0.7391578 0.5431152
vt 0.8705146 0.5563267
vt 0.8791919 0.5633036
vt 0.7547088 0.5509048
vt 0.7543266 0.5457027
vt 0.7538389 0.5404528
vt 0.8810093 0.558431
vt 0.8861772 0.5673519
vt 0.8709324 0.5512176
vt 0.8713417 0.5460734
vt 0.8718408 0.5407742
vt 0.8895959 0.5632131
vt 0.8923572 0.574471
vt 0.8828976 0.5532666
vt 0.8847174 0.5482718
vt 0.8864642 0.5435202
vt 0.8966192 0.571407
vt 0.9049094 0.5961501
vt 0.8931368 0.5591236
vt 0.8964629 0.5551636
vt 0.899718 0.5511423
vt 0.9099819 0.5942178
vt 0.905511 0.5981057
vt 0.9009145 0.5684499
vt 0.9051727 0.5654735
vt 0.9094157 0.562407
vt 0.9109657 0.5972678
vt 0.9055301 0.5991279
vt 0.9147498 0.5917114
vt 0.9192402 0.5893027
vt 0.9239229 0.5870668
vt 0.9110912 0.5996216
vt 0.9050567 0.6011195
vt 0.9166144 0.5960496
vt 0.9216452 0.5949801
vt 0.9264125 0.5940492
vt 0.9102315 0.6027303
vt 0.8964565 0.6186575
vt 0.9011126 0.6209408
vt 0.9167796 0.6006246
vt 0.9217366 0.6014088
vt 0.926634 0.6020125
vt 0.9151564 0.6050476
vt 0.9056526 0.6232276
vt 0.9197652 0.6071898
vt 0.9245144 0.6090899
vt 0.9102286 0.6255947
vt 0.9148945 0.6279919
vt 0.8239466 0.5940744
vt 0.8168728 0.6005179
vt 0.8217439 0.5987611
vt 0.8221899 0.5892029
vt 0.8175033 0.5870005
vt 0.8126318 0.5887573
vt 0.8104293 0.5934441
vt 0.8121861 0.5983154
vt 0.972898 0.01624194
vt 0.9664658 0.02332588
vt 0.971149 0.02111597
vt 0.9706881 0.01155853
vt 0.9658142 0.009809532
vt 0.961131 0.0120192
vt 0.9593819 0.01689334
vt 0.9615917 0.02157678
vt 0.712912 0.871084
vt 0.6987152 0.8595648
vt 0.6987153 0.8710842
vt 0.7129118 0.8595648
vt 0.7129118 0.8534412
vt 0.6987149 0.8534414
vt 0.7129118 0.8476737
vt 0.6987149 0.8476735
vt 0.7129118 0.841906
vt 0.6987149 0.8419057
vt 0.712912 0.835913
vt 0.6987152 0.8359128
vt 0.6987152 0.8243936
vt 0.712912 0.8243936
vt 0.7319316 0.796516
vt 0.7178075 0.8129957
vt 0.7320043 0.8129323
vt 0.7177348 0.7965791
vt 0.7320043 0.8129323
vt 0.7434503 0.7964651
vt 0.7319316 0.796516
vt 0.7435231 0.8128809
vt 0.7488379 0.8098403
vt 0.7487907 0.7991836
vt 0.7510215 0.8045022
vt 0.7062155 0.7966298
vt 0.7178075 0.8129957
vt 0.7177348 0.7965791
vt 0.7062882 0.8130468
vt 0.700946 0.8100532
vt 0.7008988 0.7993956
vt 0.6987149 0.8047341
vt 0.8727013 0.6243579
vt 0.8581033 0.6132997
vt 0.8584715 0.6248132
vt 0.8723334 0.6128443
vt 0.8721375 0.6067238
vt 0.8579077 0.6071795
vt 0.8719529 0.600959
vt 0.8577232 0.6014152
vt 0.8717681 0.5951943
vt 0.8575382 0.5956504
vt 0.8715761 0.5892044
vt 0.8573462 0.5896606
vt 0.856977 0.5781474
vt 0.871207 0.5776911
vt 0.7320179 0.7685693
vt 0.71776 0.7849677
vt 0.731997 0.7849858
vt 0.7177809 0.7685511
vt 0.731997 0.7849858
vt 0.7435371 0.7685841
vt 0.7320179 0.7685693
vt 0.743516 0.7850006
vt 0.7488483 0.7819904
vt 0.7488621 0.7713333
vt 0.7510623 0.7766646
vt 0.7062614 0.7685364
vt 0.71776 0.7849677
vt 0.7177809 0.7685511
vt 0.7062407 0.7849532
vt 0.7009156 0.7819296
vt 0.7009291 0.7712723
vt 0.6987149 0.7765982
vt 0.9328436 0.106063
vt 0.9356284 0.1636895
vt 0.9356284 0.106063
vt 0.9328455 0.1636895
vt 0.935629 0.05802203
vt 0.932858 0.0005
vt 0.9328486 0.05802161
vt 0.9356381 0.0005005695
vt 0.6987175 0.6691107
vt 0.7562601 0.6701161
vt 0.7562608 0.6691115
vt 0.6987165 0.6701152
vt 0.7562601 0.6720791
vt 0.6987163 0.672078
vt 0.7562598 0.6740422
vt 0.6987163 0.6740407
vt 0.7562588 0.6750469
vt 0.6987156 0.675045
vt 0.9356284 0.106063
vt 0.9328441 0.0844361
vt 0.9328436 0.106063
vt 0.9356281 0.0844361
vt 0.9356273 0.07961614
vt 0.9328455 0.07961589
vt 0.9328486 0.05802161
vt 0.935629 0.05802203
vt 0.9320595 0.08015731
vt 0.9320587 0.08389442
vt 0.9314532 0.08202591
vt 0.9328455 0.1636895
vt 0.9356267 0.185285
vt 0.9356284 0.1636895
vt 0.9328467 0.1852849
vt 0.9356255 0.1900986
vt 0.9328468 0.1900982
vt 0.9356217 0.2116759
vt 0.9328431 0.2116753
vt 0.9320624 0.1895574
vt 0.9320621 0.1858257
vt 0.9314572 0.1876916
vt 0.6987156 0.675045
vt 0.7562582 0.6966451
vt 0.7562588 0.6750469
vt 0.6987149 0.6966432
vt 0.7562608 0.6691115
vt 0.6987177 0.6475125
vt 0.6987175 0.6691107
vt 0.7562613 0.6475133
vt 0.9328394 0.3293473
vt 0.9356308 0.3869221
vt 0.9356213 0.3293473
vt 0.9328449 0.3869229
vt 0.9356323 0.2813703
vt 0.9328861 0.2239288
vt 0.932856 0.2813689
vt 0.935662 0.2239301
vt 0.6987175 0.7296227
vt 0.7562599 0.7306282
vt 0.7562611 0.7296236
vt 0.6987165 0.7306271
vt 0.7562599 0.7325911
vt 0.6987165 0.73259
vt 0.7562598 0.7345543
vt 0.6987165 0.7345528
vt 0.756259 0.735559
vt 0.6987156 0.7355571
vt 0.9356213 0.3293473
vt 0.9328421 0.3077478
vt 0.9328394 0.3293473
vt 0.9356225 0.3077484
vt 0.9356228 0.3029341
vt 0.9320591 0.3034737
vt 0.9320574 0.3072066
vt 0.9314532 0.30534
vt 0.9328449 0.3029328
vt 0.932856 0.2813689
vt 0.9356323 0.2813703
vt 0.9328449 0.3869229
vt 0.9356438 0.4085806
vt 0.9356308 0.3869221
vt 0.9328546 0.4085824
vt 0.9320702 0.412872
vt 0.9320673 0.4091259
vt 0.9314617 0.4109997
vt 0.9356479 0.4134121
vt 0.9328583 0.4134146
vt 0.9356685 0.4350767
vt 0.9328789 0.4350793
vt 0.6987156 0.7355571
vt 0.7562582 0.7571572
vt 0.756259 0.735559
vt 0.6987149 0.7571553
vt 0.7562611 0.7296236
vt 0.6987177 0.7080245
vt 0.6987175 0.7296227
vt 0.7562613 0.7080255
vt 0.7052599 0.5237322
vt 0.7005874 0.5283591
vt 0.7057634 0.5296422
vt 0.6993561 0.5231694
vt 0.7121018 0.5242867
vt 0.7118612 0.5303758
vt 0.9164732 0.5303751
vt 0.7048097 0.516899
vt 0.6987161 0.5171093
vt 0.9162302 0.5242861
vt 0.9225732 0.5296409
vt 0.7121406 0.5169153
vt 0.7048069 0.2839544
vt 0.6987149 0.2837478
vt 0.6993463 0.2776887
vt 0.9230729 0.5237309
vt 0.9277498 0.5283531
vt 0.9289762 0.5231627
vt 0.7121367 0.2839372
vt 0.70525 0.2771206
vt 0.700573 0.2724981
vt 0.7057496 0.2712106
vt 0.7120925 0.2765657
vt 0.7118496 0.2704766
vt 0.9161859 0.5169147
vt 0.9235156 0.5168974
vt 0.9296077 0.5171039
vt 0.9296061 0.2837431
vt 0.9161821 0.2839368
vt 0.9162209 0.2765655
vt 0.9164617 0.2704764
vt 0.9225596 0.2712103
vt 0.9235129 0.2839531
vt 0.9289666 0.2776833
vt 0.9230629 0.2771203
vt 0.9277354 0.2724937
vt 0.007084072 0.5191225
vt 0.002435444 0.5237646
vt 0.007626273 0.52503
vt 0.001177888 0.5185728
vt 0.01392728 0.5196116
vt 0.01371027 0.5256987
vt 0.6831227 0.5256205
vt 0.006602318 0.5122778
vt 0.0005153671 0.5124906
vt 0.6829103 0.5195342
vt 0.6892031 0.5249586
vt 0.01394795 0.5122644
vt 0.006586612 0.2793107
vt 0.0005 0.2790938
vt 0.001168131 0.2730096
vt 0.6897528 0.5190528
vt 0.6943943 0.5237021
vt 0.695659 0.5185115
vt 0.01393159 0.2793299
vt 0.00707513 0.2724679
vt 0.00243269 0.2678188
vt 0.007624506 0.2665623
vt 0.01391959 0.2719865
vt 0.01370717 0.2659002
vt 0.6828985 0.5121906
vt 0.6902415 0.51221
vt 0.6963273 0.5124271
vt 0.6963202 0.2790303
vt 0.6828851 0.2792561
vt 0.6829059 0.2719088
vt 0.6831229 0.2658216
vt 0.6892093 0.2664905
vt 0.6902326 0.2792426
vt 0.6956581 0.2729481
vt 0.6897511 0.2723978
vt 0.6944008 0.2677562
vt 0.7052596 0.2537558
vt 0.7005872 0.2583826
vt 0.7057631 0.2596657
vt 0.699356 0.253193
vt 0.7121016 0.2543103
vt 0.7118608 0.2603994
vt 0.916473 0.2603988
vt 0.7048097 0.2469227
vt 0.6987161 0.2471329
vt 0.91623 0.2543097
vt 0.9225728 0.2596645
vt 0.7121406 0.246939
vt 0.7048069 0.01397804
vt 0.6987149 0.01377138
vt 0.6993463 0.00771234
vt 0.9230726 0.2537546
vt 0.9277496 0.2583769
vt 0.9289761 0.2531863
vt 0.7121367 0.01396075
vt 0.7052499 0.007144147
vt 0.7005728 0.002521697
vt 0.7057496 0.001234223
vt 0.7120926 0.006589306
vt 0.7118496 0.00050017
vt 0.9161859 0.2469383
vt 0.9235156 0.246921
vt 0.9296077 0.2471276
vt 0.9296061 0.01376664
vt 0.9161821 0.01396032
vt 0.9162209 0.006589076
vt 0.916462 0.0005
vt 0.9225594 0.001233891
vt 0.9235129 0.01397674
vt 0.9289665 0.007706849
vt 0.9230628 0.007143789
vt 0.9277354 0.002517303
vt 0.007084819 0.2538029
vt 0.002435988 0.258445
vt 0.007626784 0.259711
vt 0.00117867 0.253253
vt 0.01392799 0.2542924
vt 0.01371085 0.26038
vt 0.6831232 0.2602972
vt 0.006603101 0.246958
vt 0.0005161831 0.2471707
vt 0.682911 0.2542116
vt 0.6892036 0.2596357
vt 0.01394883 0.2469448
vt 0.006586612 0.0139906
vt 0.0005 0.0137738
vt 0.001168199 0.007689552
vt 0.6897534 0.2537307
vt 0.6943947 0.2583801
vt 0.6956598 0.2531895
vt 0.01393159 0.01400994
vt 0.007075164 0.007147733
vt 0.002432656 0.002498663
vt 0.007624574 0.001242077
vt 0.01391966 0.006666397
vt 0.01370717 0.000579989
vt 0.6828992 0.2468687
vt 0.6902422 0.2468883
vt 0.6963282 0.2471053
vt 0.6963204 0.01370868
vt 0.6828849 0.0139344
vt 0.682906 0.006587241
vt 0.6831229 0.0005
vt 0.689209 0.001168947
vt 0.6902326 0.01392114
vt 0.6956579 0.007626401
vt 0.6897511 0.007076379
vt 0.6944005 0.002434526
vt 0.01386778 0.9887734
vt 0.007521831 0.9941257
vt 0.01361402 0.9948587
vt 0.6830415 0.994853
vt 0.007027907 0.988216
vt 0.002346029 0.9928313
vt 0.001125191 0.9876379
vt 0.6828566 0.9887666
vt 0.6891218 0.9942251
vt 0.01392843 0.9814135
vt 0.006592426 0.9813796
vt 0.0005 0.9815729
vt 0.6897028 0.9883187
vt 0.6943223 0.9929862
vt 0.6956093 0.987797
vt 0.006587903 0.7772694
vt 0.0005027879 0.7770359
vt 0.001190297 0.7709461
vt 0.6828681 0.9814246
vt 0.6902145 0.9814721
vt 0.6962996 0.9817064
vt 0.6963037 0.7771685
vt 0.6902111 0.7773612
vt 0.6956802 0.7711033
vt 0.01393387 0.7773162
vt 0.007097195 0.7704226
vt 0.002476105 0.7657564
vt 0.007676999 0.7645162
vt 0.6828746 0.7773271
vt 0.6897769 0.7705242
vt 0.6944603 0.7659096
vt 0.6892837 0.7646146
vt 0.01394455 0.7699741
vt 0.01375946 0.7638878
vt 0.6829357 0.7699671
vt 0.6831897 0.7638817
vt 0.006587768 0.5445279
vt 0.001190841 0.5382035
vt 0.0005026179 0.5442938
vt 0.0005 0.7488313
vt 0.007097875 0.5376814
vt 0.002477737 0.5330139
vt 0.007678699 0.5317751
vt 0.006592324 0.7486385
vt 0.001124987 0.7548963
vt 0.01393401 0.544576
vt 0.01394526 0.5372348
vt 0.01376055 0.5311486
vt 0.007027703 0.7554749
vt 0.002345621 0.7600897
vt 0.007521424 0.7613845
vt 0.682937 0.5372286
vt 0.6831912 0.5311433
vt 0.6892852 0.5318767
vt 0.01392843 0.748673
vt 0.01386754 0.7560326
vt 0.01361354 0.7621179
vt 0.6830415 0.7621125
vt 0.682857 0.7560263
vt 0.6891213 0.7614862
vt 0.6828757 0.5445883
vt 0.6897783 0.5377864
vt 0.6944616 0.5331724
vt 0.6956813 0.538366
vt 0.6828691 0.7486851
vt 0.6897031 0.7555801
vt 0.6943216 0.7602487
vt 0.6956099 0.7550594
vt 0.6902124 0.544623
vt 0.6963047 0.5444308
vt 0.6902155 0.7487338
vt 0.6963006 0.7489687
vn 0 -1 -6.627207E-07
vn 0 -1 -1.010949E-06
vn 0 -1 -1.149081E-06
vn 0 -1 -7.282339E-07
vn 0 -1 0
vn 0 -1 0
vn -6.868539E-07 -1 -9.795144E-07
vn -3.447242E-06 -1 -1.149081E-06
vn 0 1 0
vn 0 1 0
vn 0 1 0
vn 0 1 0
vn 0 1 0
vn 0 1 0
vn 0 1 0
vn 0 1 0
vn -0.9870875 0 -0.1601822
vn -1 0 0
vn -1 0 0
vn -0.9870875 0 -0.1601823
vn -0.7071068 0 -0.7071068
vn -0.7071068 0 -0.7071068
vn -0.1601823 0 -0.9870875
vn -0.1601823 0 -0.9870875
vn 0.1601823 0 -0.9870875
vn 0.1601823 0 -0.9870875
vn 0.7071068 0 -0.7071068
vn 0.7071068 0 -0.7071068
vn 0.9870875 0 -0.1601822
vn 0.9870875 0 -0.1601823
vn 1 0 0
vn 1 0 0
vn 0 0 1
vn 0 0 1
vn 0 0 1
vn 0 0 1
vn -0.1943038 0 -0.9809414
vn 0.0007966533 0.8660255 -0.4999991
vn 0.001593202 -5.805581E-07 -0.9999988
vn -0.08676629 0.8947589 -0.4380391
vn -0.0007961747 0.8660254 0.4999993
vn -0.7077605 3.410323E-07 -0.7064525
vn 0.1049974 0.8414254 0.5300745
vn -0.001592321 0 0.9999988
vn 0.1943057 0 0.980941
vn -0.2699928 0.9243795 -0.269493
vn -0.9812995 0 -0.1924876
vn 0.4010481 0.8239635 0.4003054
vn 0.7077619 0 0.7064511
vn -0.4381997 0.8947584 -0.08595502
vn -0.9802514 -6.2513E-07 0.1977551
vn 0.5302673 0.8414259 0.1040146
vn 0.9812996 0 0.1924867
vn -0.4381825 0.8945289 0.08839796
vn -0.7071754 -7.552957E-07 0.7070382
vn 0.5294467 0.8415927 -0.1068078
vn 0.9802524 0 -0.1977503
vn -0.2705355 0.9239327 0.270479
vn -0.1979569 0 0.9802107
vn 0.4005133 0.8241643 -0.4004277
vn 0.707185 0 -0.7070286
vn -0.08849022 0.8945284 0.438165
vn 0.1918805 6.513163E-07 0.9814183
vn 0.1069218 0.8415924 -0.5294244
vn 0.1979625 -4.170626E-07 -0.9802096
vn 0.08570797 0.8946975 0.4383726
vn 0.7051589 5.351162E-07 0.7090493
vn -0.1036738 0.8414699 -0.5302643
vn -0.1918805 -6.438626E-07 -0.9814183
vn 0.2692022 0.924261 0.2706876
vn 0.9803475 0 0.1972786
vn -0.3995188 0.8240166 -0.4017228
vn -0.7051588 -4.906722E-07 -0.7090495
vn 0.4378942 0.8946976 0.08811843
vn 0.9815232 -4.360752E-07 -0.191343
vn -0.5296857 0.8414699 -0.1065898
vn -0.9803477 0 -0.1972772
vn 0.4391204 0.8943407 -0.08560419
vn 0.7143902 -1.033046E-06 -0.6997476
vn -0.5299248 0.841729 0.1033057
vn -0.9815236 3.453302E-07 0.1913409
vn 0.2739247 0.9235669 -0.2683085
vn 0.2116307 0 -0.9773497
vn -0.4044239 0.8243304 0.3961322
vn -0.7143936 2.987012E-07 0.699744
vn 0.09468079 0.8943406 -0.4372534
vn 0.01886978 3.943414E-07 -0.999822
vn 0.009434372 0.8660254 -0.4999109
vn -0.1142603 0.8417292 0.5276709
vn -0.2116314 0 0.9773496
vn -0.009435024 0.8660254 0.4999109
vn -0.01887017 -3.286177E-07 0.999822
vn 0.1943057 0 0.980941
vn -0.00079616 -0.8660254 0.4999994
vn -0.001592321 0 0.9999988
vn 0.1049973 -0.8414254 0.5300745
vn 0.0007973233 -0.8660253 -0.4999997
vn 0.7077619 0 0.7064511
vn -0.08676682 -0.8947589 -0.438039
vn 0.001593202 -5.805581E-07 -0.9999988
vn -0.1943038 0 -0.9809414
vn 0.4010481 -0.8239636 0.4003054
vn 0.9812996 0 0.1924867
vn -0.2699925 -0.9243796 -0.2694931
vn -0.7077605 3.410323E-07 -0.7064525
vn 0.5302675 -0.8414257 0.1040149
vn 0.9802524 0 -0.1977503
vn -0.4381993 -0.8947586 -0.08595521
vn -0.9812995 0 -0.1924876
vn 0.5294466 -0.8415928 -0.1068074
vn 0.707185 0 -0.7070286
vn -0.438183 -0.8945287 0.08839757
vn -0.9802514 -6.2513E-07 0.1977551
vn 0.400513 -0.8241648 -0.400427
vn 0.1979625 -4.170626E-07 -0.9802096
vn -0.2705364 -0.9239323 0.2704798
vn -0.7071754 -7.552957E-07 0.7070382
vn 0.1069214 -0.8415928 -0.5294235
vn -0.1918805 -6.438626E-07 -0.9814183
vn -0.08848996 -0.8945277 0.4381662
vn -0.1979569 0 0.9802107
vn -0.1036737 -0.8414704 -0.5302636
vn -0.7051588 -4.906722E-07 -0.7090495
vn 0.08570809 -0.8946971 0.4383732
vn 0.1918805 6.513163E-07 0.9814183
vn -0.3995189 -0.824017 -0.4017223
vn -0.9803477 0 -0.1972772
vn 0.2692025 -0.9242609 0.2706878
vn 0.7051589 5.351162E-07 0.7090493
vn -0.5296856 -0.84147 -0.1065897
vn -0.9815236 3.453302E-07 0.1913409
vn 0.4378944 -0.8946975 0.08811834
vn 0.9803475 0 0.1972786
vn -0.5299248 -0.8417291 0.1033055
vn -0.7143936 2.987012E-07 0.699744
vn 0.4391206 -0.8943406 -0.08560394
vn 0.9815232 -4.360752E-07 -0.191343
vn -0.4044234 -0.8243306 0.3961323
vn -0.2116314 0 0.9773496
vn 0.2739246 -0.9235671 -0.2683083
vn 0.7143902 -1.033046E-06 -0.6997476
vn -0.11426 -0.8417292 0.527671
vn -0.01887017 -3.286177E-07 0.999822
vn -0.009435538 -0.8660253 0.4999112
vn 0.0946804 -0.8943406 -0.4372533
vn 0.2116307 0 -0.9773497
vn 0.009434897 -0.8660257 -0.4999105
vn 0.01886978 3.943414E-07 -0.999822
vn -0.9999988 0 -0.001592989
vn -0.9999988 0 -0.001592988
vn -0.9999988 0 -0.001592985
vn -0.9999988 0 -0.00159299
vn -0.9999988 0 -0.001592989
vn -0.9999988 0 -0.001592985
vn 0.999822 0 0.01886928
vn 0.999822 0 0.01886904
vn 0.999822 -1.096238E-06 0.01886856
vn 0.999822 0 0.01886951
vn 0.999822 0 0.01886928
vn 0.999822 1.096238E-06 0.01886856
vn 0 -1 0
vn 0 -1 0
vn 0 -1 0
vn 0 -1 0
vn 0 1 0
vn 0 1 0
vn 0 1 0
vn 0 1 0
vn 0 -9.829478E-07 -1
vn 0 -9.829478E-07 -1
vn 0 -9.829478E-07 -1
vn 0 -9.829478E-07 -1
vn -1 0 0
vn -1 0 0
vn -1 0 0
vn -1 0 0
vn 0 -9.829478E-07 1
vn 0 -9.829478E-07 1
vn 0 -9.829478E-07 1
vn 0 -9.829478E-07 1
vn 1 0 0
vn 1 0 0
vn 1 0 0
vn 1 0 0
vn 0.1318677 0.9912674 -4.496128E-07
vn 0 0.7071065 0.7071069
vn 0 1 -5.416354E-07
vn 0.0949968 0.7141052 0.6935628
vn 0 -2.43351E-06 1
vn 0.5011756 0.8653455 0
vn 0.004213 0.03166743 0.9994895
vn 0 -0.7071081 0.7071054
vn 0.3649227 0.63009 0.6854328
vn 0.8653551 0.5011593 0
vn -0.09071608 -0.6819741 0.7257286
vn 0 -1 -5.750065E-07
vn -0.1318557 -0.9912689 -8.528514E-07
vn 0.6300945 0.3649146 0.685433
vn 0.9912684 0.131859 -6.35612E-07
vn 0.03076955 0.05312989 0.9981134
vn -0.332357 -0.5738903 0.7484576
vn -0.5011224 -0.8653765 -5.978369E-06
vn 0.714105 0.09499159 0.6935637
vn 0.9912676 -0.131865 4.549649E-07
vn 0.05312975 0.03077127 0.9981134
vn -0.5738751 -0.332375 0.7484614
vn -0.8653196 -0.5012205 -7.126142E-06
vn 0.714106 -0.09499509 0.6935622
vn 0.8653497 -0.5011687 -3.607265E-07
vn 0.03167014 0.004212682 0.9994895
vn -0.6819683 -0.09072633 0.7257328
vn -0.9912658 -0.1318787 -1.936471E-06
vn 0.630093 -0.364919 0.685432
vn 0.5011685 -0.8653498 0
vn 0.03166949 -0.004212995 0.9994895
vn -0.681971 0.09071972 0.725731
vn -0.9912677 0.1318642 1.434796E-06
vn 0.3649191 -0.6300925 0.6854323
vn 0.1318641 -0.9912677 0
vn 0.05313037 -0.03077038 0.9981134
vn -0.573884 0.3323656 0.7484586
vn -0.8653502 0.5011677 -3.992234E-07
vn 0.09499419 -0.7141055 0.6935628
vn -0.1318643 -0.9912677 0
vn 0.0307702 -0.05313048 0.9981134
vn -0.3323657 0.5738834 0.748459
vn -0.5011685 0.8653498 0
vn -0.09499457 -0.714105 0.6935633
vn -0.5011684 -0.8653498 0
vn 0.004212348 -0.03166944 0.9994895
vn -0.09071972 0.681971 0.725731
vn -0.1318641 0.9912679 -6.521798E-07
vn -0.3649183 -0.6300925 0.6854329
vn -0.8653493 -0.5011692 -1.866124E-06
vn -0.004212569 -0.03166982 0.9994895
vn 0.09072014 0.6819707 0.7257312
vn 0.1318642 0.9912677 -6.92314E-07
vn -0.6300927 -0.3649195 0.685432
vn -0.9912677 -0.1318643 3.505905E-07
vn -0.03076973 -0.05313005 0.9981134
vn 0.3323654 0.573884 0.7484587
vn 0.5011678 0.8653501 0
vn -0.714106 -0.09499464 0.6935623
vn -0.9912683 0.1318605 -1.346159E-06
vn -0.05313054 -0.03077059 0.9981134
vn 0.5738838 0.3323655 0.7484588
vn 0.86535 0.5011681 0
vn -0.714106 0.09499113 0.6935627
vn -0.8653556 0.5011583 -2.786395E-06
vn -0.03166904 -0.004212804 0.9994895
vn 0.6819714 0.09071916 0.7257307
vn 0.991268 0.1318627 1.796004E-06
vn -0.6300951 0.3649133 0.685433
vn -0.5011756 0.8653455 -1.519604E-06
vn -0.03166714 0.004212122 0.9994895
vn 0.6819686 -0.09072593 0.7257324
vn 0.9912657 -0.1318802 9.832858E-07
vn -0.3649209 0.6300893 0.6854342
vn -0.1318656 0.9912676 1.390321E-06
vn -0.05312841 0.03076876 0.9981135
vn 0.5738725 -0.3323802 0.7484609
vn 0.8653198 -0.5012202 4.810645E-06
vn -0.09499495 0.7141042 0.6935641
vn -6.143197E-07 1 -6.571499E-07
vn -7.733964E-07 0.7071068 0.7071068
vn -0.03076892 0.05312661 0.9981136
vn 0.3323546 -0.5738949 0.7484551
vn 0.5011237 -0.8653758 4.102018E-06
vn -0.004212542 0.03166621 0.9994897
vn 0 -4.374162E-06 1
vn 0.09071654 -0.6819749 0.7257277
vn 0.1318555 -0.9912689 0
vn -3.268216E-07 -0.7071084 0.707105
vn -4.553565E-07 -1 -8.830466E-07
vn -0.1318557 -0.9912689 -8.528514E-07
vn 0 -0.7071069 -0.7071066
vn 0 -1 -5.750065E-07
vn -0.090716 -0.6819726 -0.7257299
vn 0 0 -1
vn -0.5011224 -0.8653765 -5.978369E-06
vn 0.004212806 0.03166926 -0.9994895
vn 0 0.7071071 -0.7071065
vn -0.3323535 -0.5738911 -0.7484586
vn -0.8653196 -0.5012205 -7.126142E-06
vn 0.09499646 0.7141058 -0.6935622
vn 0 1 -5.416354E-07
vn 0.1318677 0.9912674 -4.496128E-07
vn -0.5738752 -0.3323762 -0.7484606
vn -0.9912658 -0.1318787 -1.936471E-06
vn 0.0307696 0.05313097 -0.9981134
vn 0.3649224 0.6300906 -0.6854323
vn 0.5011756 0.8653455 0
vn -0.6819687 -0.09072432 -0.7257326
vn -0.9912677 0.1318642 1.434796E-06
vn 0.05312897 0.03077208 -0.9981134
vn 0.6300948 0.364915 -0.6854324
vn 0.8653551 0.5011593 0
vn -0.6819713 0.0907197 -0.7257307
vn -0.8653502 0.5011677 -3.992234E-07
vn 0.03166904 0.004213278 -0.9994895
vn 0.7141052 0.09499157 -0.6935634
vn 0.9912684 0.131859 -6.35612E-07
vn -0.5738835 0.3323655 -0.748459
vn -0.5011685 0.8653498 0
vn 0.03166965 -0.004212907 -0.9994895
vn 0.7141057 -0.09499487 -0.6935625
vn 0.9912676 -0.131865 4.549649E-07
vn -0.332365 0.5738834 -0.7484594
vn -0.1318641 0.9912679 -6.521798E-07
vn 0.05312955 -0.03076931 -0.9981135
vn 0.630092 -0.3649185 -0.685433
vn 0.8653497 -0.5011687 -3.607265E-07
vn -0.09071954 0.6819717 -0.7257304
vn 0.1318642 0.9912677 -6.92314E-07
vn 0.03077065 -0.05313003 -0.9981134
vn 0.364919 -0.6300923 -0.6854327
vn 0.5011685 -0.8653498 0
vn 0.09071981 0.6819713 -0.7257307
vn 0.5011678 0.8653501 0
vn 0.004213055 -0.03166951 -0.9994895
vn 0.09499443 -0.7141063 -0.693562
vn 0.1318641 -0.9912677 0
vn 0.3323649 0.5738838 -0.7484592
vn 0.86535 0.5011681 0
vn -0.004213205 -0.0316699 -0.9994895
vn -0.09499475 -0.7141058 -0.6935624
vn -0.1318643 -0.9912677 0
vn 0.5738832 0.3323652 -0.7484593
vn 0.991268 0.1318627 1.796004E-06
vn -0.03077038 -0.05312942 -0.9981134
vn -0.3649184 -0.630092 -0.6854331
vn -0.5011684 -0.8653498 0
vn 0.6819715 0.09071908 -0.7257307
vn 0.9912657 -0.1318802 9.832858E-07
vn -0.05313032 -0.03076999 -0.9981134
vn -0.6300909 -0.3649185 -0.6854342
vn -0.8653493 -0.5011692 -1.866124E-06
vn 0.6819683 -0.09072637 -0.7257326
vn 0.8653198 -0.5012202 4.810645E-06
vn -0.03166953 -0.004212846 -0.9994895
vn -0.7141057 -0.09499452 -0.6935626
vn -0.9912677 -0.1318643 3.505905E-07
vn 0.5738731 -0.3323786 -0.7484611
vn 0.5011237 -0.8653758 4.102018E-06
vn -0.03166978 0.004213416 -0.9994895
vn -0.7141058 0.09499338 -0.6935626
vn -0.9912683 0.1318605 -1.346159E-06
vn 0.3323565 -0.57389 -0.748458
vn 0.1318555 -0.9912689 0
vn -0.05313083 0.03077348 -0.9981133
vn -0.6300945 0.3649155 -0.6854324
vn -0.8653556 0.5011583 -2.786395E-06
vn 0.09071756 -0.6819719 -0.7257305
vn -4.553565E-07 -1 -8.830466E-07
vn 0 -0.7071059 -0.7071076
vn -0.03077076 0.05313337 -0.9981132
vn -0.3649238 0.6300883 -0.6854337
vn -0.5011756 0.8653455 -1.519604E-06
vn -0.00421331 0.03167044 -0.9994894
vn 0 3.696474E-07 -1
vn -0.09499612 0.7141056 -0.6935624
vn -0.1318656 0.9912676 1.390321E-06
vn 0 0.7071074 -0.7071061
vn -6.143197E-07 1 -6.571499E-07
vn -1 0 0
vn -1 0 0
vn -1 0 0
vn -1 0 0
vn -1 0 0
vn -1 0 0
vn -1 0 0
vn -1 0 0
vn 1 9.405061E-07 -9.404976E-07
vn 1 5.64306E-07 0
vn 1 0 0
vn 1 7.524059E-07 0
vn 1 5.643048E-07 0
vn 1 7.524065E-07 0
vn 1 9.405087E-07 9.405118E-07
vn 1 0 0
vn 3.044631E-07 -1 2.876674E-07
vn 3.627005E-07 -0.9670042 0.2547604
vn 0 -1 6.629031E-07
vn 5.201264E-07 -0.9670042 0.2547602
vn 3.563412E-07 -0.6624995 0.7490623
vn 2.742374E-07 -0.6624995 0.7490624
vn 0 -2.998252E-06 1
vn -4.057362E-07 -4.086657E-06 1
vn -3.921745E-07 0.6773121 0.7356958
vn -7.914241E-07 0.6773112 0.7356966
vn 0 0.9718953 0.2354136
vn 0 0.9718952 0.2354139
vn 0 1 0
vn 0 1 0
vn 0 0 -1
vn 0 0 -1
vn 0 0 -1
vn 0 0 -1
vn 1 0 0
vn 1 0 0
vn 1 0 0
vn 1 0 0
vn 1 0 0
vn 1 0 0
vn 1 0 0
vn -1 0 0
vn -1 0 0
vn -1 0 0
vn -1 0 0
vn -1 0 0
vn -1 0 0
vn -1 0 0
vn -3.040738E-07 -1 -2.870812E-07
vn -3.614266E-07 -0.9670044 0.25476
vn 0 -1 -6.629032E-07
vn -5.186514E-07 -0.9670042 0.2547602
vn -3.553301E-07 -0.6624984 0.7490633
vn -2.733914E-07 -0.6624985 0.7490633
vn 0 -1.683949E-06 1
vn 0 -1.488857E-06 1
vn 0 0.6773122 0.7356957
vn 0 0.6773123 0.7356956
vn 0 0.9718952 0.2354138
vn 0 0.9718952 0.2354138
vn 0 1 0
vn 0 1 0
vn 5.363486E-07 0 -1
vn 5.363486E-07 0 -1
vn 5.363486E-07 0 -1
vn 5.363486E-07 0 -1
vn 1 0 0
vn 1 0 0
vn 1 0 0
vn 1 0 0
vn 1 0 0
vn 1 0 0
vn 1 0 0
vn -1 0 0
vn -1 0 0
vn -1 0 0
vn -1 0 0
vn -1 0 0
vn -1 0 0
vn -1 0 0
vn 0 0 1
vn 0 0 1
vn 0 0 1
vn 0 0 1
vn 0 0 -1
vn 0 0 -1
vn 0 0 -1
vn 0 0 -1
vn 0 -0.5674925 -0.8233786
vn 0 -0.8018491 -0.5975267
vn 0 -0.5674927 -0.8233784
vn 0 -0.8018489 -0.5975267
vn 0 -1 0
vn 0 -1 0
vn 0 -0.8018491 0.5975265
vn 0 -0.8018483 0.5975277
vn 0 -0.5674929 0.8233783
vn 0 -0.56749 0.8233803
vn 1 0 0
vn 1 0 0
vn 1 0 0
vn 1 0 0
vn 1 0 0
vn 1 0 0
vn 1 0 0
vn 1 0 0
vn 1 0 0
vn 1 0 0
vn 1 0 0
vn -1 0 0
vn -1 0 0
vn -1 0 0
vn -1 0 0
vn -1 0 0
vn -1 0 0
vn -1 0 0
vn -1 0 0
vn -1 0 0
vn -1 0 0
vn -1 0 0
vn 0 -1 0
vn 0 -1 0
vn 0 -1 0
vn 0 -1 0
vn 0 -1 0
vn 0 -1 0
vn 0 -1 0
vn 0 -1 0
vn 0 0 1
vn 0 0 1
vn 0 0 1
vn 0 0 1
vn 0 0 -1
vn 0 0 -1
vn 0 0 -1
vn 0 0 -1
vn 0 -0.5674927 -0.8233784
vn 0 -0.8018491 -0.5975266
vn 0 -0.5674925 -0.8233785
vn 0 -0.8018489 -0.5975267
vn 0 -1 0
vn 0 -1 0
vn 0 -0.8018481 0.5975279
vn 0 -0.8018483 0.5975277
vn 0 -0.56749 0.8233804
vn 0 -0.5674903 0.8233801
vn 1 0 0
vn 1 0 0
vn 1 0 0
vn 1 0 0
vn 1 0 0
vn 1 0 0
vn 1 0 0
vn 1 0 0
vn 1 0 0
vn 1 0 0
vn 1 0 0
vn -1 0 0
vn -1 0 0
vn -1 0 0
vn -1 0 0
vn -1 0 0
vn -1 0 0
vn -1 0 0
vn -1 0 0
vn -1 0 0
vn -1 0 0
vn -1 0 0
vn 0 -1 0
vn 0 -1 0
vn 0 -1 0
vn 0 -1 0
vn 0 -1 0
vn 0 -1 0
vn 0 -1 0
vn 0 -1 0
vn 0.8955742 0.3146002 0.3146006
vn 0.5773531 0.5773486 0.5773492
vn 0.6806889 0.6806886 0.2707873
vn 0.6806892 0.2707863 0.6806886
vn 0.9409482 0.329497 0.0777697
vn 0.7056907 0.7056895 0.06326899
vn 0.7056907 0.7056895 -0.06326899
vn 0.9409484 0.07776955 0.3294965
vn 0.7056907 0.06326915 0.7056894
vn 0.9409482 0.3294971 -0.07776966
vn 0.6806888 0.6806886 -0.2707872
vn 0.9946444 0.07308425 0.07308444
vn 0.9409484 -0.07776939 0.3294965
vn 0.7056908 -0.06326886 0.7056894
vn 0.6806888 -0.2707872 0.6806886
vn 0.8955741 0.3146002 -0.3146009
vn 0.5773529 0.5773486 -0.5773492
vn 0.680689 0.2707863 -0.6806888
vn 0.9946444 -0.07308434 0.07308438
vn 0.8955744 -0.3146001 0.3146003
vn 0.5773518 -0.5773494 0.5773495
vn 0.6806886 -0.6806888 0.2707872
vn 0.9409484 -0.3294965 0.07776939
vn 0.7056905 -0.7056896 0.06326873
vn 0.9946444 0.07308424 -0.07308441
vn 0.9409484 0.07776948 -0.3294966
vn 0.7056908 0.06326915 -0.7056893
vn 0.7056908 -0.06326833 -0.7056895
vn 0.9946444 -0.07308432 -0.07308438
vn 0.9409484 -0.3294964 -0.07776931
vn 0.7056905 -0.7056896 -0.06326871
vn 0.6806886 -0.6806889 -0.270787
vn 0.9409485 -0.07776922 -0.3294964
vn 0.6806887 -0.2707869 -0.6806887
vn 0.8955746 -0.3146001 -0.3145998
vn 0.5773522 -0.5773492 -0.5773494
vn -0.3146026 0.3145997 0.8955737
vn -0.577353 0.5773486 0.5773493
vn -0.2707895 0.6806889 0.6806877
vn -0.680689 0.2707863 0.6806888
vn -0.07777017 0.329497 0.9409482
vn -0.06326648 0.7056904 0.70569
vn 0.06326648 0.7056899 0.7056905
vn -0.3294962 0.0777704 0.9409484
vn -0.7056908 0.06326915 0.7056893
vn 0.07777029 0.3294968 0.9409482
vn 0.2707895 0.6806889 0.6806877
vn -0.07308415 0.07308383 0.9946444
vn -0.3294962 -0.07777033 0.9409484
vn -0.7056907 -0.06326886 0.7056895
vn -0.6806889 -0.2707873 0.6806886
vn 0.3146026 0.3145997 0.8955737
vn 0.5773531 0.5773486 0.5773492
vn 0.6806892 0.2707863 0.6806886
vn -0.07308411 -0.07308392 0.9946444
vn -0.3146017 -0.3146004 0.8955737
vn -0.5773518 -0.5773494 0.5773495
vn -0.2707887 -0.6806885 0.6806883
vn -0.07777029 -0.3294964 0.9409483
vn -0.06326782 -0.7056902 0.7056901
vn 0.07308415 0.0730838 0.9946444
vn 0.3294963 0.07777043 0.9409484
vn 0.7056907 0.06326915 0.7056894
vn 0.7056908 -0.06326886 0.7056894
vn 0.07308411 -0.07308394 0.9946444
vn 0.07777017 -0.3294967 0.9409483
vn 0.06326783 -0.7056906 0.7056897
vn 0.2707887 -0.6806885 0.6806883
vn 0.3294962 -0.07777029 0.9409484
vn 0.6806888 -0.2707872 0.6806886
vn 0.3146017 -0.3146005 0.8955737
vn 0.5773518 -0.5773494 0.5773495
vn -0.8955742 0.3146002 -0.3146006
vn -0.5773531 0.5773486 -0.5773492
vn -0.6806889 0.6806886 -0.2707873
vn -0.6806892 0.2707863 -0.6806886
vn -0.9409482 0.329497 -0.0777697
vn -0.7056907 0.7056895 -0.06326899
vn -0.7056907 0.7056895 0.06326899
vn -0.9409484 0.07776955 -0.3294965
vn -0.7056907 0.06326915 -0.7056894
vn -0.9409482 0.3294971 0.07776966
vn -0.6806888 0.6806886 0.2707872
vn -0.9946444 0.07308425 -0.07308444
vn -0.9409484 -0.07776939 -0.3294965
vn -0.7056908 -0.06326886 -0.7056894
vn -0.6806888 -0.2707872 -0.6806886
vn -0.8955741 0.3146002 0.3146009
vn -0.577353 0.5773486 0.5773493
vn -0.680689 0.2707863 0.6806888
vn -0.9946444 -0.07308434 -0.07308438
vn -0.8955744 -0.3146001 -0.3146003
vn -0.5773518 -0.5773494 -0.5773495
vn -0.6806886 -0.6806888 -0.2707872
vn -0.9409484 -0.3294965 -0.07776939
vn -0.7056905 -0.7056896 -0.06326873
vn -0.9946444 0.07308424 0.07308441
vn -0.9409484 0.07776948 0.3294966
vn -0.7056908 0.06326915 0.7056893
vn -0.7056907 -0.06326886 0.7056895
vn -0.9946444 -0.07308434 0.07308439
vn -0.9409484 -0.3294964 0.07776938
vn -0.7056905 -0.7056896 0.06326873
vn -0.6806887 -0.6806887 0.2707872
vn -0.9409484 -0.07776936 0.3294965
vn -0.6806889 -0.2707873 0.6806886
vn -0.8955744 -0.3146001 0.3146003
vn -0.5773518 -0.5773494 0.5773495
vn 0.3146026 0.3145997 -0.8955737
vn 0.5773529 0.5773486 -0.5773492
vn 0.2707895 0.6806889 -0.6806877
vn 0.680689 0.2707863 -0.6806888
vn 0.07777017 0.329497 -0.9409482
vn 0.06326648 0.7056904 -0.70569
vn -0.06326648 0.7056899 -0.7056905
vn 0.3294962 0.0777704 -0.9409484
vn 0.7056908 0.06326915 -0.7056893
vn -0.07777029 0.3294968 -0.9409482
vn -0.2707895 0.6806889 -0.6806877
vn 0.07308415 0.07308383 -0.9946444
vn 0.3294961 -0.07777014 -0.9409485
vn 0.7056908 -0.06326833 -0.7056895
vn 0.6806887 -0.2707869 -0.6806887
vn -0.3146026 0.3145997 -0.8955737
vn -0.5773531 0.5773486 -0.5773492
vn -0.6806892 0.2707863 -0.6806886
vn 0.07308409 -0.07308391 -0.9946444
vn 0.3146012 -0.3145996 -0.8955742
vn 0.5773522 -0.5773492 -0.5773494
vn 0.2707894 -0.6806883 -0.6806883
vn 0.07777003 -0.3294962 -0.9409484
vn 0.06326716 -0.7056902 -0.7056901
vn -0.07308415 0.0730838 -0.9946444
vn -0.3294963 0.07777043 -0.9409484
vn -0.7056907 0.06326915 -0.7056894
vn -0.7056908 -0.06326886 -0.7056894
vn -0.07308411 -0.07308394 -0.9946444
vn -0.07777017 -0.3294967 -0.9409483
vn -0.06326783 -0.7056906 -0.7056897
vn -0.2707887 -0.6806885 -0.6806883
vn -0.3294962 -0.07777029 -0.9409484
vn -0.6806888 -0.2707872 -0.6806886
vn -0.3146017 -0.3146005 -0.8955737
vn -0.5773518 -0.5773494 -0.5773495
vn 0.07777015 0.9409487 0.3294958
vn 0.2707895 0.6806889 0.6806877
vn 0.06326648 0.7056899 0.7056905
vn -0.06326648 0.7056904 0.70569
vn 0.3146023 0.8955738 0.3145994
vn 0.5773531 0.5773486 0.5773492
vn 0.6806889 0.6806886 0.2707873
vn -0.07777027 0.9409487 0.3294956
vn -0.2707895 0.6806889 0.6806877
vn 0.07308348 0.9946445 0.07308331
vn 0.3294958 0.9409485 0.07777078
vn 0.7056907 0.7056895 0.06326899
vn -0.3146024 0.8955738 0.3145994
vn -0.577353 0.5773486 0.5773493
vn -0.6806888 0.6806886 0.2707872
vn 0.3294957 0.9409487 -0.07777076
vn 0.7056907 0.7056895 -0.06326899
vn 0.6806888 0.6806886 -0.2707872
vn -0.07308343 0.9946445 0.07308334
vn -0.3294957 0.9409487 0.07777076
vn -0.7056907 0.7056895 0.06326899
vn -0.7056907 0.7056895 -0.06326899
vn -0.3294958 0.9409485 -0.07777078
vn -0.6806889 0.6806886 -0.2707873
vn 0.07308343 0.9946445 -0.07308334
vn 0.3146024 0.8955738 -0.3145994
vn 0.5773529 0.5773486 -0.5773492
vn 0.2707895 0.6806889 -0.6806877
vn -0.07308348 0.9946445 -0.07308331
vn -0.3146023 0.8955738 -0.3145994
vn -0.5773531 0.5773486 -0.5773492
vn -0.2707895 0.6806889 -0.6806877
vn 0.07777027 0.9409487 -0.3294956
vn 0.06326648 0.7056904 -0.70569
vn -0.07777015 0.9409487 -0.3294958
vn -0.06326648 0.7056899 -0.7056905
vn -0.3294959 -0.9409487 -0.07777005
vn -0.6806886 -0.6806888 -0.2707872
vn -0.7056905 -0.7056896 -0.06326873
vn -0.7056905 -0.7056896 0.06326873
vn -0.3146013 -0.895574 -0.3146002
vn -0.5773518 -0.5773494 -0.5773495
vn -0.2707887 -0.6806885 -0.6806883
vn -0.3294959 -0.9409487 0.07777003
vn -0.6806887 -0.6806887 0.2707872
vn -0.07308398 -0.9946444 -0.07308389
vn -0.07777005 -0.9409484 -0.3294962
vn -0.06326783 -0.7056906 -0.7056897
vn -0.3146013 -0.895574 0.3146002
vn -0.5773518 -0.5773494 0.5773495
vn -0.2707887 -0.6806885 0.6806883
vn 0.07776985 -0.9409484 -0.3294963
vn 0.06326716 -0.7056902 -0.7056901
vn 0.2707894 -0.6806883 -0.6806883
vn -0.07308401 -0.9946444 0.07308385
vn -0.07776989 -0.9409484 0.3294965
vn -0.06326782 -0.7056902 0.7056901
vn 0.06326783 -0.7056906 0.7056897
vn 0.07777005 -0.9409484 0.3294962
vn 0.2707887 -0.6806885 0.6806883
vn 0.07308404 -0.9946444 -0.07308389
vn 0.3146012 -0.8955743 -0.3145995
vn 0.5773522 -0.5773492 -0.5773494
vn 0.6806886 -0.6806889 -0.270787
vn 0.07308398 -0.9946444 0.07308389
vn 0.3146013 -0.895574 0.3146002
vn 0.5773518 -0.5773494 0.5773495
vn 0.6806886 -0.6806888 0.2707872
vn 0.3294959 -0.9409487 -0.07777012
vn 0.7056905 -0.7056896 -0.06326871
vn 0.3294959 -0.9409487 0.07777005
vn 0.7056905 -0.7056896 0.06326873
usemtl toolbox
f 1/1/1 3/3/3 2/2/2 
f 1/1/1 2/2/2 4/4/4 
f 5/5/5 1/1/1 4/4/4 
f 6/6/6 5/5/5 4/4/4 
f 2/2/2 7/7/7 4/4/4 
f 2/2/2 8/8/8 7/7/7 
f 9/9/9 11/11/11 10/10/10 
f 9/9/9 10/10/10 12/12/12 
f 9/9/9 12/12/12 13/13/13 
f 9/9/9 13/13/13 14/14/14 
f 15/15/15 9/9/9 14/14/14 
f 16/16/16 15/15/15 14/14/14 
f 17/17/17 19/19/19 18/18/18 
f 18/18/18 20/20/20 17/17/17 
f 21/21/21 17/17/17 20/20/20 
f 20/20/20 22/22/22 21/21/21 
f 23/23/23 21/21/21 22/22/22 
f 22/22/22 24/24/24 23/23/23 
f 25/25/25 23/23/23 24/24/24 
f 24/24/24 26/26/26 25/25/25 
f 27/27/27 25/25/25 26/26/26 
f 26/26/26 28/28/28 27/27/27 
f 29/29/29 27/27/27 28/28/28 
f 28/28/28 30/30/30 29/29/29 
f 31/31/31 29/29/29 30/30/30 
f 30/30/30 32/32/32 31/31/31 
f 33/33/33 35/35/35 34/34/34 
f 34/34/34 36/36/36 33/33/33 
f 37/37/37 39/39/39 38/38/38 
f 38/38/38 40/40/40 37/37/37 
f 40/40/40 38/38/38 41/41/41 
f 42/42/42 37/37/37 40/40/40 
f 41/41/41 43/43/43 40/40/40 
f 43/43/43 41/41/41 44/44/44 
f 44/44/44 45/45/45 43/43/43 
f 40/40/40 46/46/46 42/42/42 
f 46/46/46 40/40/40 43/43/43 
f 47/47/47 42/42/42 46/46/46 
f 48/48/48 43/43/43 45/45/45 
f 43/43/43 48/48/48 46/46/46 
f 45/45/45 49/49/49 48/48/48 
f 46/46/46 50/50/50 47/47/47 
f 50/50/50 46/46/46 48/48/48 
f 51/51/51 47/47/47 50/50/50 
f 52/52/52 48/48/48 49/49/49 
f 48/48/48 52/52/52 50/50/50 
f 49/49/49 53/53/53 52/52/52 
f 50/50/50 54/54/54 51/51/51 
f 54/54/54 50/50/50 52/52/52 
f 55/55/55 51/51/51 54/54/54 
f 56/56/56 52/52/52 53/53/53 
f 52/52/52 56/56/56 54/54/54 
f 53/53/53 57/57/57 56/56/56 
f 54/54/54 58/58/58 55/55/55 
f 58/58/58 54/54/54 56/56/56 
f 59/59/59 55/55/55 58/58/58 
f 60/60/60 56/56/56 57/57/57 
f 56/56/56 60/60/60 58/58/58 
f 57/57/57 61/61/61 60/60/60 
f 58/58/58 62/62/62 59/59/59 
f 62/62/62 58/58/58 60/60/60 
f 63/63/63 59/59/59 62/62/62 
f 64/64/64 60/60/60 61/61/61 
f 60/60/60 64/64/64 62/62/62 
f 61/61/61 65/65/65 64/64/64 
f 62/62/62 66/66/66 63/63/63 
f 66/66/66 62/62/62 64/64/64 
f 67/67/67 63/63/63 66/66/66 
f 68/68/68 64/64/64 65/65/65 
f 64/64/64 68/68/68 66/66/66 
f 65/65/65 69/69/69 68/68/68 
f 66/66/66 70/70/70 67/67/67 
f 70/70/70 66/66/66 68/68/68 
f 71/71/71 67/67/67 70/70/70 
f 72/72/72 68/68/68 69/69/69 
f 68/68/68 72/72/72 70/70/70 
f 69/69/69 73/73/73 72/72/72 
f 70/70/70 74/74/74 71/71/71 
f 74/74/74 70/70/70 72/72/72 
f 75/75/75 71/71/71 74/74/74 
f 76/76/76 72/72/72 73/73/73 
f 72/72/72 76/76/76 74/74/74 
f 73/73/73 77/77/77 76/76/76 
f 74/74/74 78/78/78 75/75/75 
f 78/78/78 74/74/74 76/76/76 
f 79/79/79 75/75/75 78/78/78 
f 80/80/80 76/76/76 77/77/77 
f 76/76/76 80/80/80 78/78/78 
f 77/77/77 81/81/81 80/80/80 
f 78/78/78 82/82/82 79/79/79 
f 82/82/82 78/78/78 80/80/80 
f 83/83/83 79/79/79 82/82/82 
f 84/84/84 80/80/80 81/81/81 
f 80/80/80 84/84/84 82/82/82 
f 81/81/81 85/85/85 84/84/84 
f 82/82/82 86/86/86 83/83/83 
f 86/86/86 82/82/82 84/84/84 
f 87/87/87 83/83/83 86/86/86 
f 86/86/86 88/88/88 87/87/87 
f 89/89/89 84/84/84 85/85/85 
f 84/84/84 89/89/89 86/86/86 
f 88/88/88 86/86/86 89/89/89 
f 85/85/85 90/90/90 89/89/89 
f 89/89/89 91/91/91 88/88/88 
f 91/91/91 89/89/89 90/90/90 
f 90/90/90 92/92/92 91/91/91 
f 93/93/93 95/95/95 94/94/94 
f 94/94/94 96/96/96 93/93/93 
f 96/96/96 94/94/94 97/97/97 
f 98/98/98 93/93/93 96/96/96 
f 97/97/97 99/99/99 96/96/96 
f 99/99/99 97/97/97 100/100/100 
f 100/100/100 101/101/101 99/99/99 
f 96/96/96 102/102/102 98/98/98 
f 102/102/102 96/96/96 99/99/99 
f 103/103/103 98/98/98 102/102/102 
f 104/104/104 99/99/99 101/101/101 
f 99/99/99 104/104/104 102/102/102 
f 101/101/101 105/105/105 104/104/104 
f 102/102/102 106/106/106 103/103/103 
f 106/106/106 102/102/102 104/104/104 
f 107/107/107 103/103/103 106/106/106 
f 108/108/108 104/104/104 105/105/105 
f 104/104/104 108/108/108 106/106/106 
f 105/105/105 109/109/109 108/108/108 
f 106/106/106 110/110/110 107/107/107 
f 110/110/110 106/106/106 108/108/108 
f 111/111/111 107/107/107 110/110/110 
f 112/112/112 108/108/108 109/109/109 
f 108/108/108 112/112/112 110/110/110 
f 109/109/109 113/113/113 112/112/112 
f 110/110/110 114/114/114 111/111/111 
f 114/114/114 110/110/110 112/112/112 
f 115/115/115 111/111/111 114/114/114 
f 116/116/116 112/112/112 113/113/113 
f 112/112/112 116/116/116 114/114/114 
f 113/113/113 117/117/117 116/116/116 
f 114/114/114 118/118/118 115/115/115 
f 118/118/118 114/114/114 116/116/116 
f 119/119/119 115/115/115 118/118/118 
f 120/120/120 116/116/116 117/117/117 
f 116/116/116 120/120/120 118/118/118 
f 117/117/117 121/121/121 120/120/120 
f 118/118/118 122/122/122 119/119/119 
f 122/122/122 118/118/118 120/120/120 
f 123/123/123 119/119/119 122/122/122 
f 124/124/124 120/120/120 121/121/121 
f 120/120/120 124/124/124 122/122/122 
f 121/121/121 125/125/125 124/124/124 
f 122/122/122 126/126/126 123/123/123 
f 126/126/126 122/122/122 124/124/124 
f 127/127/127 123/123/123 126/126/126 
f 128/128/128 124/124/124 125/125/125 
f 124/124/124 128/128/128 126/126/126 
f 125/125/125 129/129/129 128/128/128 
f 126/126/126 130/130/130 127/127/127 
f 130/130/130 126/126/126 128/128/128 
f 131/131/131 127/127/127 130/130/130 
f 132/132/132 128/128/128 129/129/129 
f 128/128/128 132/132/132 130/130/130 
f 129/129/129 133/133/133 132/132/132 
f 130/130/130 134/134/134 131/131/131 
f 134/134/134 130/130/130 132/132/132 
f 135/135/135 131/131/131 134/134/134 
f 136/136/136 132/132/132 133/133/133 
f 132/132/132 136/136/136 134/134/134 
f 133/133/133 137/137/137 136/136/136 
f 134/134/134 138/138/138 135/135/135 
f 138/138/138 134/134/134 136/136/136 
f 139/139/139 135/135/135 138/138/138 
f 140/140/140 136/136/136 137/137/137 
f 136/136/136 140/140/140 138/138/138 
f 137/137/137 141/141/141 140/140/140 
f 138/138/138 142/142/142 139/139/139 
f 142/142/142 138/138/138 140/140/140 
f 143/143/143 139/139/139 142/142/142 
f 142/142/142 144/144/144 143/143/143 
f 145/145/145 140/140/140 141/141/141 
f 140/140/140 145/145/145 142/142/142 
f 144/144/144 142/142/142 145/145/145 
f 141/141/141 146/146/146 145/145/145 
f 145/145/145 147/147/147 144/144/144 
f 147/147/147 145/145/145 146/146/146 
f 146/146/146 148/148/148 147/147/147 
f 149/149/149 151/151/151 150/150/150 
f 152/152/152 149/149/149 150/150/150 
f 153/153/153 152/152/152 150/150/150 
f 154/154/154 153/153/153 150/150/150 
f 155/155/155 157/157/157 156/156/156 
f 155/155/155 156/156/156 158/158/158 
f 156/156/156 159/159/159 158/158/158 
f 156/156/156 160/160/160 159/159/159 
f 161/161/161 163/163/163 162/162/162 
f 162/162/162 164/164/164 161/161/161 
f 165/165/165 167/167/167 166/166/166 
f 166/166/166 168/168/168 165/165/165 
f 169/169/169 171/171/171 170/170/170 
f 170/170/170 172/172/172 169/169/169 
f 173/173/173 175/175/175 174/174/174 
f 174/174/174 176/176/176 173/173/173 
f 177/177/177 179/179/179 178/178/178 
f 178/178/178 180/180/180 177/177/177 
f 181/181/181 183/183/183 182/182/182 
f 182/182/182 184/184/184 181/181/181 
f 185/185/185 187/187/187 186/186/186 
f 186/186/186 188/188/188 185/185/185 
f 188/188/188 186/186/186 189/189/189 
f 190/190/190 185/185/185 188/188/188 
f 189/189/189 191/191/191 188/188/188 
f 191/191/191 189/189/189 192/192/192 
f 188/188/188 193/193/193 190/190/190 
f 193/193/193 188/188/188 191/191/191 
f 194/194/194 190/190/190 193/193/193 
f 192/192/192 195/195/195 191/191/191 
f 195/195/195 192/192/192 196/196/196 
f 196/196/196 197/197/197 195/195/195 
f 193/193/193 198/198/198 194/194/194 
f 199/199/199 194/194/194 198/198/198 
f 191/191/191 200/200/200 193/193/193 
f 200/200/200 191/191/191 195/195/195 
f 198/198/198 193/193/193 200/200/200 
f 201/201/201 195/195/195 197/197/197 
f 195/195/195 201/201/201 200/200/200 
f 197/197/197 202/202/202 201/201/201 
f 198/198/198 203/203/203 199/199/199 
f 204/204/204 199/199/199 203/203/203 
f 200/200/200 205/205/205 198/198/198 
f 205/205/205 200/200/200 201/201/201 
f 203/203/203 198/198/198 205/205/205 
f 206/206/206 201/201/201 202/202/202 
f 201/201/201 206/206/206 205/205/205 
f 202/202/202 207/207/207 206/206/206 
f 203/203/203 208/208/208 204/204/204 
f 209/209/209 204/204/204 208/208/208 
f 205/205/205 210/210/210 203/203/203 
f 210/210/210 205/205/205 206/206/206 
f 208/208/208 203/203/203 210/210/210 
f 211/211/211 206/206/206 207/207/207 
f 206/206/206 211/211/211 210/210/210 
f 207/207/207 212/212/212 211/211/211 
f 208/208/208 213/213/213 209/209/209 
f 214/214/214 209/209/209 213/213/213 
f 210/210/210 215/215/215 208/208/208 
f 215/215/215 210/210/210 211/211/211 
f 213/213/213 208/208/208 215/215/215 
f 216/216/216 211/211/211 212/212/212 
f 211/211/211 216/216/216 215/215/215 
f 212/212/212 217/217/217 216/216/216 
f 213/213/213 218/218/218 214/214/214 
f 219/219/219 214/214/214 218/218/218 
f 215/215/215 220/220/220 213/213/213 
f 220/220/220 215/215/215 216/216/216 
f 218/218/218 213/213/213 220/220/220 
f 221/221/221 216/216/216 217/217/217 
f 216/216/216 221/221/221 220/220/220 
f 217/217/217 222/222/222 221/221/221 
f 218/218/218 223/223/223 219/219/219 
f 224/224/224 219/219/219 223/223/223 
f 220/220/220 225/225/225 218/218/218 
f 225/225/225 220/220/220 221/221/221 
f 223/223/223 218/218/218 225/225/225 
f 226/226/226 221/221/221 222/222/222 
f 221/221/221 226/226/226 225/225/225 
f 222/222/222 227/227/227 226/226/226 
f 223/223/223 228/228/228 224/224/224 
f 229/229/229 224/224/224 228/228/228 
f 225/225/225 230/230/230 223/223/223 
f 230/230/230 225/225/225 226/226/226 
f 228/228/228 223/223/223 230/230/230 
f 231/231/231 226/226/226 227/227/227 
f 226/226/226 231/231/231 230/230/230 
f 227/227/227 232/232/232 231/231/231 
f 228/228/228 233/233/233 229/229/229 
f 234/234/234 229/229/229 233/233/233 
f 230/230/230 235/235/235 228/228/228 
f 235/235/235 230/230/230 231/231/231 
f 233/233/233 228/228/228 235/235/235 
f 236/236/236 231/231/231 232/232/232 
f 231/231/231 236/236/236 235/235/235 
f 232/232/232 237/237/237 236/236/236 
f 233/233/233 238/238/238 234/234/234 
f 239/239/239 234/234/234 238/238/238 
f 235/235/235 240/240/240 233/233/233 
f 240/240/240 235/235/235 236/236/236 
f 238/238/238 233/233/233 240/240/240 
f 241/241/241 236/236/236 237/237/237 
f 236/236/236 241/241/241 240/240/240 
f 237/237/237 242/242/242 241/241/241 
f 238/238/238 243/243/243 239/239/239 
f 244/244/244 239/239/239 243/243/243 
f 240/240/240 245/245/245 238/238/238 
f 245/245/245 240/240/240 241/241/241 
f 243/243/243 238/238/238 245/245/245 
f 246/246/246 241/241/241 242/242/242 
f 241/241/241 246/246/246 245/245/245 
f 242/242/242 247/247/247 246/246/246 
f 243/243/243 248/248/248 244/244/244 
f 249/249/249 244/244/244 248/248/248 
f 245/245/245 250/250/250 243/243/243 
f 250/250/250 245/245/245 246/246/246 
f 248/248/248 243/243/243 250/250/250 
f 251/251/251 246/246/246 247/247/247 
f 246/246/246 251/251/251 250/250/250 
f 247/247/247 252/252/252 251/251/251 
f 248/248/248 253/253/253 249/249/249 
f 254/254/254 249/249/249 253/253/253 
f 250/250/250 255/255/255 248/248/248 
f 255/255/255 250/250/250 251/251/251 
f 253/253/253 248/248/248 255/255/255 
f 256/256/256 251/251/251 252/252/252 
f 251/251/251 256/256/256 255/255/255 
f 252/252/252 257/257/257 256/256/256 
f 253/253/253 258/258/258 254/254/254 
f 259/259/259 254/254/254 258/258/258 
f 255/255/255 260/260/260 253/253/253 
f 260/260/260 255/255/255 256/256/256 
f 258/258/258 253/253/253 260/260/260 
f 261/261/261 256/256/256 257/257/257 
f 256/256/256 261/261/261 260/260/260 
f 257/257/257 262/262/262 261/261/261 
f 258/258/258 263/263/263 259/259/259 
f 264/264/264 259/259/259 263/263/263 
f 263/263/263 265/265/265 264/264/264 
f 260/260/260 266/266/266 258/258/258 
f 266/266/266 260/260/260 261/261/261 
f 263/263/263 258/258/258 266/266/266 
f 267/267/267 261/261/261 262/262/262 
f 261/261/261 267/267/267 266/266/266 
f 262/262/262 268/268/268 267/267/267 
f 265/265/265 263/263/263 269/269/269 
f 266/266/266 269/269/269 263/263/263 
f 269/269/269 266/266/266 267/267/267 
f 269/269/269 270/270/270 265/265/265 
f 271/271/271 267/267/267 268/268/268 
f 267/267/267 271/271/271 269/269/269 
f 270/270/270 269/269/269 271/271/271 
f 268/268/268 272/272/272 271/271/271 
f 271/271/271 273/273/273 270/270/270 
f 273/273/273 271/271/271 272/272/272 
f 272/272/272 274/274/274 273/273/273 
f 275/275/275 277/277/277 276/276/276 
f 276/276/276 278/278/278 275/275/275 
f 278/278/278 276/276/276 279/279/279 
f 280/280/280 275/275/275 278/278/278 
f 279/279/279 281/281/281 278/278/278 
f 281/281/281 279/279/279 282/282/282 
f 278/278/278 283/283/283 280/280/280 
f 283/283/283 278/278/278 281/281/281 
f 284/284/284 280/280/280 283/283/283 
f 282/282/282 285/285/285 281/281/281 
f 285/285/285 282/282/282 286/286/286 
f 286/286/286 287/287/287 285/285/285 
f 283/283/283 288/288/288 284/284/284 
f 289/289/289 284/284/284 288/288/288 
f 281/281/281 290/290/290 283/283/283 
f 290/290/290 281/281/281 285/285/285 
f 288/288/288 283/283/283 290/290/290 
f 291/291/291 285/285/285 287/287/287 
f 285/285/285 291/291/291 290/290/290 
f 287/287/287 292/292/292 291/291/291 
f 288/288/288 293/293/293 289/289/289 
f 294/294/294 289/289/289 293/293/293 
f 290/290/290 295/295/295 288/288/288 
f 295/295/295 290/290/290 291/291/291 
f 293/293/293 288/288/288 295/295/295 
f 296/296/296 291/291/291 292/292/292 
f 291/291/291 296/296/296 295/295/295 
f 292/292/292 297/297/297 296/296/296 
f 293/293/293 298/298/298 294/294/294 
f 299/299/299 294/294/294 298/298/298 
f 295/295/295 300/300/300 293/293/293 
f 300/300/300 295/295/295 296/296/296 
f 298/298/298 293/293/293 300/300/300 
f 301/301/301 296/296/296 297/297/297 
f 296/296/296 301/301/301 300/300/300 
f 297/297/297 302/302/302 301/301/301 
f 298/298/298 303/303/303 299/299/299 
f 304/304/304 299/299/299 303/303/303 
f 300/300/300 305/305/305 298/298/298 
f 305/305/305 300/300/300 301/301/301 
f 303/303/303 298/298/298 305/305/305 
f 306/306/306 301/301/301 302/302/302 
f 301/301/301 306/306/306 305/305/305 
f 302/302/302 307/307/307 306/306/306 
f 303/303/303 308/308/308 304/304/304 
f 309/309/309 304/304/304 308/308/308 
f 305/305/305 310/310/310 303/303/303 
f 310/310/310 305/305/305 306/306/306 
f 308/308/308 303/303/303 310/310/310 
f 311/311/311 306/306/306 307/307/307 
f 306/306/306 311/311/311 310/310/310 
f 307/307/307 312/312/312 311/311/311 
f 308/308/308 313/313/313 309/309/309 
f 314/314/314 309/309/309 313/313/313 
f 310/310/310 315/315/315 308/308/308 
f 315/315/315 310/310/310 311/311/311 
f 313/313/313 308/308/308 315/315/315 
f 316/316/316 311/311/311 312/312/312 
f 311/311/311 316/316/316 315/315/315 
f 312/312/312 317/317/317 316/316/316 
f 313/313/313 318/318/318 314/314/314 
f 319/319/319 314/314/314 318/318/318 
f 315/315/315 320/320/320 313/313/313 
f 320/320/320 315/315/315 316/316/316 
f 318/318/318 313/313/313 320/320/320 
f 321/321/321 316/316/316 317/317/317 
f 316/316/316 321/321/321 320/320/320 
f 317/317/317 322/322/322 321/321/321 
f 318/318/318 323/323/323 319/319/319 
f 324/324/324 319/319/319 323/323/323 
f 320/320/320 325/325/325 318/318/318 
f 325/325/325 320/320/320 321/321/321 
f 323/323/323 318/318/318 325/325/325 
f 326/326/326 321/321/321 322/322/322 
f 321/321/321 326/326/326 325/325/325 
f 322/322/322 327/327/327 326/326/326 
f 323/323/323 328/328/328 324/324/324 
f 329/329/329 324/324/324 328/328/328 
f 325/325/325 330/330/330 323/323/323 
f 330/330/330 325/325/325 326/326/326 
f 328/328/328 323/323/323 330/330/330 
f 331/331/331 326/326/326 327/327/327 
f 326/326/326 331/331/331 330/330/330 
f 327/327/327 332/332/332 331/331/331 
f 328/328/328 333/333/333 329/329/329 
f 334/334/334 329/329/329 333/333/333 
f 330/330/330 335/335/335 328/328/328 
f 335/335/335 330/330/330 331/331/331 
f 333/333/333 328/328/328 335/335/335 
f 336/336/336 331/331/331 332/332/332 
f 331/331/331 336/336/336 335/335/335 
f 332/332/332 337/337/337 336/336/336 
f 333/333/333 338/338/338 334/334/334 
f 339/339/339 334/334/334 338/338/338 
f 335/335/335 340/340/340 333/333/333 
f 340/340/340 335/335/335 336/336/336 
f 338/338/338 333/333/333 340/340/340 
f 341/341/341 336/336/336 337/337/337 
f 336/336/336 341/341/341 340/340/340 
f 337/337/337 342/342/342 341/341/341 
f 338/338/338 343/343/343 339/339/339 
f 344/344/344 339/339/339 343/343/343 
f 340/340/340 345/345/345 338/338/338 
f 345/345/345 340/340/340 341/341/341 
f 343/343/343 338/338/338 345/345/345 
f 346/346/346 341/341/341 342/342/342 
f 341/341/341 346/346/346 345/345/345 
f 342/342/342 347/347/347 346/346/346 
f 343/343/343 348/348/348 344/344/344 
f 349/349/349 344/344/344 348/348/348 
f 345/345/345 350/350/350 343/343/343 
f 350/350/350 345/345/345 346/346/346 
f 348/348/348 343/343/343 350/350/350 
f 351/351/351 346/346/346 347/347/347 
f 346/346/346 351/351/351 350/350/350 
f 347/347/347 352/352/352 351/351/351 
f 348/348/348 353/353/353 349/349/349 
f 354/354/354 349/349/349 353/353/353 
f 353/353/353 355/355/355 354/354/354 
f 350/350/350 356/356/356 348/348/348 
f 356/356/356 350/350/350 351/351/351 
f 353/353/353 348/348/348 356/356/356 
f 357/357/357 351/351/351 352/352/352 
f 351/351/351 357/357/357 356/356/356 
f 352/352/352 358/358/358 357/357/357 
f 355/355/355 353/353/353 359/359/359 
f 356/356/356 359/359/359 353/353/353 
f 359/359/359 356/356/356 357/357/357 
f 359/359/359 360/360/360 355/355/355 
f 361/361/361 357/357/357 358/358/358 
f 357/357/357 361/361/361 359/359/359 
f 360/360/360 359/359/359 361/361/361 
f 358/358/358 362/362/362 361/361/361 
f 361/361/361 363/363/363 360/360/360 
f 363/363/363 361/361/361 362/362/362 
f 362/362/362 364/364/364 363/363/363 
f 365/365/365 367/367/367 366/366/366 
f 368/368/368 365/365/365 366/366/366 
f 369/369/369 368/368/368 366/366/366 
f 370/370/370 369/369/369 366/366/366 
f 371/371/371 370/370/370 366/366/366 
f 372/372/372 371/371/371 366/366/366 
f 373/373/373 375/375/375 374/374/374 
f 373/373/373 374/374/374 376/376/376 
f 374/374/374 377/377/377 376/376/376 
f 374/374/374 378/378/378 377/377/377 
f 374/374/374 379/379/379 378/378/378 
f 374/374/374 380/380/380 379/379/379 
f 381/381/381 383/383/383 382/382/382 
f 382/382/382 384/384/384 381/381/381 
f 385/385/385 384/384/384 382/382/382 
f 382/382/382 386/386/386 385/385/385 
f 387/387/387 385/385/385 386/386/386 
f 386/386/386 388/388/388 387/387/387 
f 389/389/389 387/387/387 388/388/388 
f 388/388/388 390/390/390 389/389/389 
f 391/391/391 389/389/389 390/390/390 
f 390/390/390 392/392/392 391/391/391 
f 391/391/391 392/392/392 393/393/393 
f 393/393/393 394/394/394 391/391/391 
f 395/395/395 397/397/397 396/396/396 
f 396/396/396 398/398/398 395/395/395 
f 399/399/399 401/401/401 400/400/400 
f 400/400/400 402/402/402 399/399/399 
f 403/403/403 402/402/402 400/400/400 
f 400/400/400 404/404/404 403/403/403 
f 404/404/404 405/405/405 403/403/403 
f 406/406/406 408/408/408 407/407/407 
f 407/407/407 409/409/409 406/406/406 
f 406/406/406 409/409/409 410/410/410 
f 410/410/410 411/411/411 406/406/406 
f 410/410/410 412/412/412 411/411/411 
f 413/413/413 415/415/415 414/414/414 
f 414/414/414 416/416/416 413/413/413 
f 417/417/417 416/416/416 414/414/414 
f 414/414/414 418/418/418 417/417/417 
f 419/419/419 417/417/417 418/418/418 
f 418/418/418 420/420/420 419/419/419 
f 421/421/421 419/419/419 420/420/420 
f 420/420/420 422/422/422 421/421/421 
f 423/423/423 421/421/421 422/422/422 
f 422/422/422 424/424/424 423/423/423 
f 423/423/423 424/424/424 425/425/425 
f 425/425/425 426/426/426 423/423/423 
f 427/427/427 429/429/429 428/428/428 
f 428/428/428 430/430/430 427/427/427 
f 431/431/431 433/433/433 432/432/432 
f 432/432/432 434/434/434 431/431/431 
f 435/435/435 434/434/434 432/432/432 
f 432/432/432 436/436/436 435/435/435 
f 436/436/436 437/437/437 435/435/435 
f 438/438/438 440/440/440 439/439/439 
f 439/439/439 441/441/441 438/438/438 
f 438/438/438 441/441/441 442/442/442 
f 442/442/442 443/443/443 438/438/438 
f 442/442/442 444/444/444 443/443/443 
f 445/445/445 447/447/447 446/446/446 
f 446/446/446 448/448/448 445/445/445 
f 449/449/449 451/451/451 450/450/450 
f 450/450/450 452/452/452 449/449/449 
f 453/453/453 455/455/455 454/454/454 
f 454/454/454 456/456/456 453/453/453 
f 456/456/456 454/454/454 457/457/457 
f 457/457/457 458/458/458 456/456/456 
f 458/458/458 457/457/457 459/459/459 
f 459/459/459 460/460/460 458/458/458 
f 460/460/460 459/459/459 461/461/461 
f 461/461/461 462/462/462 460/460/460 
f 463/463/463 465/465/465 464/464/464 
f 464/464/464 466/466/466 463/463/463 
f 467/467/467 466/466/466 464/464/464 
f 464/464/464 468/468/468 467/467/467 
f 467/467/467 468/468/468 469/469/469 
f 469/469/469 470/470/470 467/467/467 
f 471/471/471 468/468/468 464/464/464 
f 464/464/464 472/472/472 471/471/471 
f 472/472/472 473/473/473 471/471/471 
f 474/474/474 476/476/476 475/475/475 
f 475/475/475 477/477/477 474/474/474 
f 477/477/477 475/475/475 478/478/478 
f 478/478/478 479/479/479 477/477/477 
f 479/479/479 478/478/478 480/480/480 
f 480/480/480 481/481/481 479/479/479 
f 477/477/477 479/479/479 482/482/482 
f 482/482/482 483/483/483 477/477/477 
f 482/482/482 484/484/484 483/483/483 
f 485/485/485 487/487/487 486/486/486 
f 486/486/486 488/488/488 485/485/485 
f 489/489/489 491/491/491 490/490/490 
f 490/490/490 492/492/492 489/489/489 
f 493/493/493 495/495/495 494/494/494 
f 494/494/494 496/496/496 493/493/493 
f 497/497/497 499/499/499 498/498/498 
f 498/498/498 500/500/500 497/497/497 
f 501/501/501 503/503/503 502/502/502 
f 502/502/502 504/504/504 501/501/501 
f 504/504/504 502/502/502 505/505/505 
f 505/505/505 506/506/506 504/504/504 
f 506/506/506 505/505/505 507/507/507 
f 507/507/507 508/508/508 506/506/506 
f 508/508/508 507/507/507 509/509/509 
f 509/509/509 510/510/510 508/508/508 
f 511/511/511 513/513/513 512/512/512 
f 512/512/512 514/514/514 511/511/511 
f 515/515/515 514/514/514 512/512/512 
f 515/515/515 512/512/512 516/516/516 
f 512/512/512 517/517/517 516/516/516 
f 517/517/517 518/518/518 516/516/516 
f 519/519/519 515/515/515 516/516/516 
f 515/515/515 519/519/519 520/520/520 
f 520/520/520 521/521/521 515/515/515 
f 522/522/522 524/524/524 523/523/523 
f 523/523/523 525/525/525 522/522/522 
f 526/526/526 525/525/525 523/523/523 
f 526/526/526 527/527/527 525/525/525 
f 526/526/526 528/528/528 527/527/527 
f 526/526/526 523/523/523 529/529/529 
f 530/530/530 526/526/526 529/529/529 
f 530/530/530 529/529/529 531/531/531 
f 531/531/531 532/532/532 530/530/530 
f 533/533/533 535/535/535 534/534/534 
f 534/534/534 536/536/536 533/533/533 
f 537/537/537 539/539/539 538/538/538 
f 538/538/538 540/540/540 537/537/537 
f 541/541/541 543/543/543 542/542/542 
f 542/542/542 544/544/544 541/541/541 
f 543/543/543 541/541/541 545/545/545 
f 545/545/545 546/546/546 543/543/543 
f 547/547/547 546/546/546 545/545/545 
f 548/548/548 541/541/541 544/544/544 
f 544/544/544 549/549/549 548/548/548 
f 545/545/545 550/550/550 547/547/547 
f 551/551/551 547/547/547 550/550/550 
f 552/552/552 545/545/545 541/541/541 
f 541/541/541 548/548/548 552/552/552 
f 550/550/550 545/545/545 552/552/552 
f 553/553/553 548/548/548 549/549/549 
f 549/549/549 554/554/554 553/553/553 
f 553/553/553 554/554/554 555/555/555 
f 550/550/550 556/556/556 551/551/551 
f 557/557/557 551/551/551 556/556/556 
f 556/556/556 558/558/558 557/557/557 
f 548/548/548 553/553/553 559/559/559 
f 559/559/559 552/552/552 548/548/548 
f 555/555/555 560/560/560 553/553/553 
f 559/559/559 553/553/553 560/560/560 
f 560/560/560 555/555/555 561/561/561 
f 561/561/561 562/562/562 560/560/560 
f 563/563/563 560/560/560 562/562/562 
f 560/560/560 563/563/563 559/559/559 
f 562/562/562 564/564/564 563/563/563 
f 556/556/556 550/550/550 565/565/565 
f 552/552/552 565/565/565 550/550/550 
f 558/558/558 556/556/556 566/566/566 
f 565/565/565 566/566/566 556/556/556 
f 566/566/566 567/567/567 558/558/558 
f 568/568/568 567/567/567 566/566/566 
f 552/552/552 559/559/559 569/569/569 
f 569/569/569 559/559/559 563/563/563 
f 569/569/569 565/565/565 552/552/552 
f 570/570/570 563/563/563 564/564/564 
f 563/563/563 570/570/570 569/569/569 
f 564/564/564 571/571/571 570/570/570 
f 570/570/570 571/571/571 572/572/572 
f 566/566/566 573/573/573 568/568/568 
f 573/573/573 566/566/566 565/565/565 
f 565/565/565 569/569/569 573/573/573 
f 574/574/574 568/568/568 573/573/573 
f 569/569/569 570/570/570 575/575/575 
f 572/572/572 575/575/575 570/570/570 
f 575/575/575 573/573/573 569/569/569 
f 573/573/573 575/575/575 574/574/574 
f 575/575/575 572/572/572 576/576/576 
f 576/576/576 574/574/574 575/575/575 
f 577/577/577 579/579/579 578/578/578 
f 578/578/578 580/580/580 577/577/577 
f 579/579/579 577/577/577 581/581/581 
f 581/581/581 582/582/582 579/579/579 
f 583/583/583 582/582/582 581/581/581 
f 584/584/584 577/577/577 580/580/580 
f 580/580/580 585/585/585 584/584/584 
f 581/581/581 586/586/586 583/583/583 
f 587/587/587 583/583/583 586/586/586 
f 588/588/588 581/581/581 577/577/577 
f 577/577/577 584/584/584 588/588/588 
f 586/586/586 581/581/581 588/588/588 
f 589/589/589 584/584/584 585/585/585 
f 585/585/585 590/590/590 589/589/589 
f 589/589/589 590/590/590 591/591/591 
f 586/586/586 592/592/592 587/587/587 
f 593/593/593 587/587/587 592/592/592 
f 592/592/592 594/594/594 593/593/593 
f 584/584/584 589/589/589 595/595/595 
f 595/595/595 588/588/588 584/584/584 
f 591/591/591 596/596/596 589/589/589 
f 595/595/595 589/589/589 596/596/596 
f 596/596/596 591/591/591 597/597/597 
f 597/597/597 598/598/598 596/596/596 
f 599/599/599 596/596/596 598/598/598 
f 596/596/596 599/599/599 595/595/595 
f 598/598/598 600/600/600 599/599/599 
f 592/592/592 586/586/586 601/601/601 
f 588/588/588 601/601/601 586/586/586 
f 594/594/594 592/592/592 602/602/602 
f 601/601/601 602/602/602 592/592/592 
f 602/602/602 603/603/603 594/594/594 
f 604/604/604 603/603/603 602/602/602 
f 588/588/588 595/595/595 605/605/605 
f 605/605/605 595/595/595 599/599/599 
f 605/605/605 601/601/601 588/588/588 
f 606/606/606 599/599/599 600/600/600 
f 599/599/599 606/606/606 605/605/605 
f 600/600/600 607/607/607 606/606/606 
f 606/606/606 607/607/607 608/608/608 
f 602/602/602 609/609/609 604/604/604 
f 609/609/609 602/602/602 601/601/601 
f 601/601/601 605/605/605 609/609/609 
f 610/610/610 604/604/604 609/609/609 
f 605/605/605 606/606/606 611/611/611 
f 608/608/608 611/611/611 606/606/606 
f 611/611/611 609/609/609 605/605/605 
f 609/609/609 611/611/611 610/610/610 
f 611/611/611 608/608/608 612/612/612 
f 612/612/612 610/610/610 611/611/611 
f 613/613/613 615/615/615 614/614/614 
f 614/614/614 616/616/616 613/613/613 
f 615/615/615 613/613/613 617/617/617 
f 617/617/617 618/618/618 615/615/615 
f 619/619/619 618/618/618 617/617/617 
f 620/620/620 613/613/613 616/616/616 
f 616/616/616 621/621/621 620/620/620 
f 617/617/617 622/622/622 619/619/619 
f 623/623/623 619/619/619 622/622/622 
f 624/624/624 617/617/617 613/613/613 
f 613/613/613 620/620/620 624/624/624 
f 622/622/622 617/617/617 624/624/624 
f 625/625/625 620/620/620 621/621/621 
f 621/621/621 626/626/626 625/625/625 
f 625/625/625 626/626/626 627/627/627 
f 622/622/622 628/628/628 623/623/623 
f 629/629/629 623/623/623 628/628/628 
f 628/628/628 630/630/630 629/629/629 
f 620/620/620 625/625/625 631/631/631 
f 631/631/631 624/624/624 620/620/620 
f 627/627/627 632/632/632 625/625/625 
f 631/631/631 625/625/625 632/632/632 
f 632/632/632 627/627/627 633/633/633 
f 633/633/633 634/634/634 632/632/632 
f 635/635/635 632/632/632 634/634/634 
f 632/632/632 635/635/635 631/631/631 
f 634/634/634 636/636/636 635/635/635 
f 628/628/628 622/622/622 637/637/637 
f 624/624/624 637/637/637 622/622/622 
f 630/630/630 628/628/628 638/638/638 
f 637/637/637 638/638/638 628/628/628 
f 638/638/638 639/639/639 630/630/630 
f 640/640/640 639/639/639 638/638/638 
f 624/624/624 631/631/631 641/641/641 
f 641/641/641 631/631/631 635/635/635 
f 641/641/641 637/637/637 624/624/624 
f 642/642/642 635/635/635 636/636/636 
f 635/635/635 642/642/642 641/641/641 
f 636/636/636 643/643/643 642/642/642 
f 642/642/642 643/643/643 644/644/644 
f 638/638/638 645/645/645 640/640/640 
f 645/645/645 638/638/638 637/637/637 
f 637/637/637 641/641/641 645/645/645 
f 646/646/646 640/640/640 645/645/645 
f 641/641/641 642/642/642 647/647/647 
f 644/644/644 647/647/647 642/642/642 
f 647/647/647 645/645/645 641/641/641 
f 645/645/645 647/647/647 646/646/646 
f 647/647/647 644/644/644 648/648/648 
f 648/648/648 646/646/646 647/647/647 
f 649/649/649 651/651/651 650/650/650 
f 650/650/650 652/652/652 649/649/649 
f 651/651/651 649/649/649 653/653/653 
f 653/653/653 654/654/654 651/651/651 
f 655/655/655 654/654/654 653/653/653 
f 656/656/656 649/649/649 652/652/652 
f 652/652/652 657/657/657 656/656/656 
f 653/653/653 658/658/658 655/655/655 
f 659/659/659 655/655/655 658/658/658 
f 660/660/660 653/653/653 649/649/649 
f 649/649/649 656/656/656 660/660/660 
f 658/658/658 653/653/653 660/660/660 
f 661/661/661 656/656/656 657/657/657 
f 657/657/657 662/662/662 661/661/661 
f 661/661/661 662/662/662 663/663/663 
f 658/658/658 664/664/664 659/659/659 
f 665/665/665 659/659/659 664/664/664 
f 664/664/664 666/666/666 665/665/665 
f 656/656/656 661/661/661 667/667/667 
f 667/667/667 660/660/660 656/656/656 
f 663/663/663 668/668/668 661/661/661 
f 667/667/667 661/661/661 668/668/668 
f 668/668/668 663/663/663 669/669/669 
f 669/669/669 670/670/670 668/668/668 
f 671/671/671 668/668/668 670/670/670 
f 668/668/668 671/671/671 667/667/667 
f 670/670/670 672/672/672 671/671/671 
f 664/664/664 658/658/658 673/673/673 
f 660/660/660 673/673/673 658/658/658 
f 666/666/666 664/664/664 674/674/674 
f 673/673/673 674/674/674 664/664/664 
f 674/674/674 675/675/675 666/666/666 
f 676/676/676 675/675/675 674/674/674 
f 660/660/660 667/667/667 677/677/677 
f 677/677/677 667/667/667 671/671/671 
f 677/677/677 673/673/673 660/660/660 
f 678/678/678 671/671/671 672/672/672 
f 671/671/671 678/678/678 677/677/677 
f 672/672/672 679/679/679 678/678/678 
f 678/678/678 679/679/679 680/680/680 
f 674/674/674 681/681/681 676/676/676 
f 681/681/681 674/674/674 673/673/673 
f 673/673/673 677/677/677 681/681/681 
f 682/682/682 676/676/676 681/681/681 
f 677/677/677 678/678/678 683/683/683 
f 680/680/680 683/683/683 678/678/678 
f 683/683/683 681/681/681 677/677/677 
f 681/681/681 683/683/683 682/682/682 
f 683/683/683 680/680/680 684/684/684 
f 684/684/684 682/682/682 683/683/683 
f 685/685/685 687/687/687 686/686/686 
f 688/688/688 687/687/687 685/685/685 
f 686/686/686 689/689/689 685/685/685 
f 689/689/689 686/686/686 690/690/690 
f 690/690/690 691/691/691 689/689/689 
f 685/685/685 692/692/692 688/688/688 
f 693/693/693 688/688/688 692/692/692 
f 694/694/694 685/685/685 689/689/689 
f 692/692/692 685/685/685 694/694/694 
f 695/695/695 689/689/689 691/691/691 
f 689/689/689 695/695/695 694/694/694 
f 691/691/691 696/696/696 695/695/695 
f 692/692/692 697/697/697 693/693/693 
f 698/698/698 693/693/693 697/697/697 
f 697/697/697 699/699/699 698/698/698 
f 700/700/700 695/695/695 696/696/696 
f 696/696/696 701/701/701 700/700/700 
f 700/700/700 701/701/701 702/702/702 
f 697/697/697 692/692/692 703/703/703 
f 694/694/694 703/703/703 692/692/692 
f 699/699/699 697/697/697 704/704/704 
f 703/703/703 704/704/704 697/697/697 
f 704/704/704 705/705/705 699/699/699 
f 706/706/706 705/705/705 704/704/704 
f 704/704/704 707/707/707 706/706/706 
f 707/707/707 704/704/704 703/703/703 
f 708/708/708 706/706/706 707/707/707 
f 709/709/709 694/694/694 695/695/695 
f 695/695/695 700/700/700 709/709/709 
f 702/702/702 710/710/710 700/700/700 
f 709/709/709 700/700/700 710/710/710 
f 710/710/710 702/702/702 711/711/711 
f 711/711/711 712/712/712 710/710/710 
f 713/713/713 703/703/703 694/694/694 
f 703/703/703 713/713/713 707/707/707 
f 694/694/694 709/709/709 713/713/713 
f 707/707/707 714/714/714 708/708/708 
f 714/714/714 707/707/707 713/713/713 
f 715/715/715 708/708/708 714/714/714 
f 714/714/714 716/716/716 715/715/715 
f 710/710/710 717/717/717 709/709/709 
f 717/717/717 710/710/710 712/712/712 
f 713/713/713 709/709/709 717/717/717 
f 712/712/712 718/718/718 717/717/717 
f 713/713/713 719/719/719 714/714/714 
f 716/716/716 714/714/714 719/719/719 
f 717/717/717 719/719/719 713/713/713 
f 719/719/719 717/717/717 718/718/718 
f 719/719/719 720/720/720 716/716/716 
f 718/718/718 720/720/720 719/719/719 
f 721/721/721 723/723/723 722/722/722 
f 724/724/724 723/723/723 721/721/721 
f 722/722/722 725/725/725 721/721/721 
f 725/725/725 722/722/722 726/726/726 
f 726/726/726 727/727/727 725/725/725 
f 721/721/721 728/728/728 724/724/724 
f 729/729/729 724/724/724 728/728/728 
f 730/730/730 721/721/721 725/725/725 
f 728/728/728 721/721/721 730/730/730 
f 731/731/731 725/725/725 727/727/727 
f 725/725/725 731/731/731 730/730/730 
f 727/727/727 732/732/732 731/731/731 
f 728/728/728 733/733/733 729/729/729 
f 734/734/734 729/729/729 733/733/733 
f 733/733/733 735/735/735 734/734/734 
f 736/736/736 731/731/731 732/732/732 
f 732/732/732 737/737/737 736/736/736 
f 736/736/736 737/737/737 738/738/738 
f 733/733/733 728/728/728 739/739/739 
f 730/730/730 739/739/739 728/728/728 
f 735/735/735 733/733/733 740/740/740 
f 739/739/739 740/740/740 733/733/733 
f 740/740/740 741/741/741 735/735/735 
f 742/742/742 741/741/741 740/740/740 
f 740/740/740 743/743/743 742/742/742 
f 743/743/743 740/740/740 739/739/739 
f 744/744/744 742/742/742 743/743/743 
f 745/745/745 730/730/730 731/731/731 
f 731/731/731 736/736/736 745/745/745 
f 738/738/738 746/746/746 736/736/736 
f 745/745/745 736/736/736 746/746/746 
f 746/746/746 738/738/738 747/747/747 
f 747/747/747 748/748/748 746/746/746 
f 749/749/749 739/739/739 730/730/730 
f 739/739/739 749/749/749 743/743/743 
f 730/730/730 745/745/745 749/749/749 
f 743/743/743 750/750/750 744/744/744 
f 750/750/750 743/743/743 749/749/749 
f 751/751/751 744/744/744 750/750/750 
f 750/750/750 752/752/752 751/751/751 
f 746/746/746 753/753/753 745/745/745 
f 753/753/753 746/746/746 748/748/748 
f 749/749/749 745/745/745 753/753/753 
f 748/748/748 754/754/754 753/753/753 
f 749/749/749 755/755/755 750/750/750 
f 752/752/752 750/750/750 755/755/755 
f 753/753/753 755/755/755 749/749/749 
f 755/755/755 753/753/753 754/754/754 
f 755/755/755 756/756/756 752/752/752 
f 754/754/754 756/756/756 755/755/755 
