# exported by StudySceneExporter from mesh 'Hammer_Head_low'
mtllib materials.mtl
v -0.009839382 0.02312103 0.0107872
v 8.966446E-05 0.02677247 0.01378189
v -5.422592E-05 0.02379287 0.0164592
v -0.007957668 0.02622871 0.009162597
v -0.00985178 0.02097707 -0.0003094482
v 0.000348072 0.03251543 0.01132858
v -0.007967891 0.02446552 3.662109E-05
v -7.917404E-05 0.01949434 -0.005789337
v 6.921768E-05 0.02324609 -0.004470062
v -0.006557216 0.03204882 0.007364807
v 0.0005686379 0.03775395 0.01125076
v -0.00656599 0.03053585 -0.0004660034
v 0.0003305244 0.02948946 -0.004333191
v -0.0071311 0.03723366 0.006830902
v 0.0008024788 0.04361776 0.01303818
v -0.007140865 0.03554661 -0.00190094
v 0.0005491066 0.03437987 -0.006212921
v -0.004960766 0.04618639 0.0109436
v 0.001423397 0.05793799 0.01027069
v -0.004453487 0.05788589 0.008682556
v -0.009380016 0.04292972 0.007193298
v -0.008759098 0.05724996 0.004425812
v -0.01084707 0.04450108 0.0009020996
v -0.01033979 0.05620057 -0.001358948
v -0.009392948 0.0406987 -0.004354096
v -0.00877203 0.05501893 -0.007121582
v -0.004983158 0.04232216 -0.009057007
v 0.0007766151 0.03915571 -0.01005646
v -0.004475879 0.05402165 -0.01131805
v 0.001397533 0.05347594 -0.01282394
v -7.917404E-05 0.01949434 -0.005789337
v -0.00985178 0.02097707 -0.0003094482
v -0.01010328 0.01468787 -0.005861053
v -0.0003177452 0.01093487 -0.02308533
v -0.01021017 0.009329214 -0.02276413
v -0.01119822 -0.01345876 -0.01836014
v -0.001470623 -0.01565435 -0.01794693
v -0.01126551 -0.01260418 -0.00361084
v -0.001537914 -0.01479978 -0.003197479
v -0.01142317 -0.01563758 0.0007128906
v -0.001677456 -0.01746655 0.0007380676
v -0.001803417 -0.02030698 0.001683197
v -0.01160833 -0.01989511 0.001614685
v -0.003195858 -0.02757337 0.002461548
v -0.002093792 -0.02710176 0.002394562
v -0.003888454 -0.0287913 0.002603912
v -0.01195616 -0.02803368 0.002466583
v -0.01225019 -0.03526111 0.001096191
v -0.004317226 -0.03559435 0.001151733
v -0.005172329 -0.04252013 -0.001645813
v -0.0125226 -0.04221135 -0.001697388
v -0.01277464 -0.04892547 -0.005988006
v -0.005970783 -0.04921128 -0.005940399
v -0.006787281 -0.05798299 -0.01232574
v -0.01309935 -0.05771784 -0.01237
v -0.01298502 -0.0530189 -0.0004977417
v -0.01316072 -0.05893447 -0.01090225
v -0.01309935 -0.05771784 -0.01237
v -0.01277464 -0.04892547 -0.005988006
v -0.0125226 -0.04221135 -0.001697388
v -0.01279989 -0.04725087 0.007674103
v -0.01246458 -0.03805864 0.01493957
v -0.01225019 -0.03526111 0.001096191
v -0.01195616 -0.02803368 0.002466583
v -0.01210836 -0.02876091 0.01985168
v -0.0116593 -0.01760555 0.02264389
v -0.01160833 -0.01989511 0.001614685
v -0.01133047 -0.009727631 0.02294815
v -0.01142317 -0.01563758 0.0007128906
v -0.01007727 0.01917481 0.01736267
v -0.01126551 -0.01260418 -0.00361084
v -0.01010328 0.01468787 -0.005861053
v -0.01021017 0.009329214 -0.02276413
v -0.01119822 -0.01345876 -0.01836014
v -0.00985178 0.02097707 -0.0003094482
v -0.009839382 0.02312103 0.0107872
v -0.01316072 -0.05893447 -0.01090225
v -0.006787281 -0.05798299 -0.01232574
v -0.01309935 -0.05771784 -0.01237
v -0.006848659 -0.05919961 -0.01085815
v -0.01298502 -0.0530189 -0.0004977417
v -0.006181164 -0.05330471 -0.0004501343
v -0.005970783 -0.04921128 -0.005940399
v -0.01279989 -0.04725087 0.007674103
v -0.005449619 -0.04755965 0.007725677
v -0.005172329 -0.04252013 -0.001645813
v -0.01246458 -0.03805864 0.01493957
v -0.004378719 -0.0383983 0.01499603
v -0.004317226 -0.03559435 0.001151733
v -0.01210836 -0.02876091 0.01985168
v -0.002303448 -0.02917278 0.0199202
v -0.003888454 -0.0287913 0.002603912
v -0.003195858 -0.02757337 0.002461548
v -0.002093792 -0.02710176 0.002394562
v -0.0116593 -0.01760555 0.02264389
v -0.001854382 -0.01801744 0.02271255
v -0.01133047 -0.009727631 0.02294815
v -0.001525555 -0.01013952 0.02301681
v -0.01007727 0.01917481 0.01736267
v -0.0002723503 0.01876294 0.01743118
v -5.422592E-05 0.02379287 0.0164592
v -0.009839382 0.02312103 0.0107872
v 0.009718265 0.02229946 0.01092407
v -5.422592E-05 0.02379287 0.0164592
v 8.966446E-05 0.02677247 0.01378189
v 0.008126736 0.02555303 0.009275055
v 0.009705868 0.02015552 -0.0001724243
v 0.000348072 0.03251543 0.01132858
v 0.008116513 0.02378984 0.0001490784
v -7.917404E-05 0.01949434 -0.005789337
v 6.921768E-05 0.02324609 -0.004470062
v 0.007244587 0.03146904 0.007461395
v 0.0005686379 0.03775395 0.01125076
v 0.007235813 0.02995607 -0.0003695679
v 0.0003305244 0.02948946 -0.004333191
v 0.00825861 0.03658719 0.006938782
v 0.0008024788 0.04361776 0.01303818
v 0.008248844 0.03490014 -0.00179306
v 0.0005491066 0.03437987 -0.006212921
v 0.006789493 0.04569281 0.0110257
v 0.001423397 0.05793799 0.01027069
v 0.00729681 0.05739228 0.008764648
v 0.01097204 0.04207477 0.007335663
v 0.01159296 0.05639501 0.004568329
v 0.01265345 0.04351388 0.001066589
v 0.01316072 0.05521337 -0.001194305
v 0.01095911 0.03984375 -0.004211578
v 0.01158003 0.05416398 -0.006979065
v 0.006767139 0.04182856 -0.008974914
v 0.0007766151 0.03915571 -0.01005646
v 0.007274418 0.05352805 -0.01123596
v 0.001397533 0.05347594 -0.01282394
v -7.917404E-05 0.01949434 -0.005789337
v 0.00950655 0.0138641 -0.005723877
v 0.009705868 0.02015552 -0.0001724243
v -0.0003177452 0.01093487 -0.02308533
v 0.009399738 0.008505449 -0.02262695
v 0.008411655 -0.01428253 -0.01822296
v -0.001470623 -0.01565435 -0.01794693
v 0.008344364 -0.01342795 -0.003473663
v -0.001537914 -0.01479978 -0.003197479
v 0.008186664 -0.01646135 0.0008500671
v -0.001677456 -0.01746655 0.0007380676
v -0.001803417 -0.02030698 0.001683197
v 0.008001499 -0.02071886 0.001751862
v -0.001036205 -0.0276641 0.002476654
v -0.002093792 -0.02710176 0.002394562
v -0.0004502678 -0.02893575 0.002628021
v 0.007653675 -0.02885745 0.00260376
v 0.007359676 -0.03608487 0.001233368
v -0.0005733299 -0.03575161 0.001177978
v -0.0002630425 -0.04272635 -0.001611633
v 0.007087269 -0.04303512 -0.001560211
v 0.006835232 -0.04974923 -0.00585083
v 3.137588E-05 -0.04946342 -0.005898437
v 0.0001984978 -0.05827645 -0.01227692
v 0.006510525 -0.05854159 -0.01223282
v 0.006624851 -0.05384265 -0.0003605652
v 0.006510525 -0.05854159 -0.01223282
v 0.006449146 -0.05975823 -0.01076508
v 0.006835232 -0.04974923 -0.00585083
v 0.007087269 -0.04303512 -0.001560211
v 0.006809978 -0.04807464 0.007811279
v 0.007145328 -0.03888241 0.01507675
v 0.007359676 -0.03608487 0.001233368
v 0.007653675 -0.02885745 0.00260376
v 0.007501507 -0.02958466 0.01998871
v 0.00795061 -0.01842931 0.02278107
v 0.008001499 -0.02071886 0.001751862
v 0.008279362 -0.01055139 0.02308533
v 0.008186664 -0.01646135 0.0008500671
v 0.009532566 0.01835104 0.01749985
v 0.008344364 -0.01342795 -0.003473663
v 0.00950655 0.0138641 -0.005723877
v 0.009705868 0.02015552 -0.0001724243
v 0.009718265 0.02229946 0.01092407
v 0.009399738 0.008505449 -0.02262695
v 0.008411655 -0.01428253 -0.01822296
v 0.006449146 -0.05975823 -0.01076508
v 0.006510525 -0.05854159 -0.01223282
v 0.0001984978 -0.05827645 -0.01227692
v 0.0001371193 -0.05949307 -0.01080933
v 0.006624851 -0.05384265 -0.0003605652
v -0.0001789665 -0.05355685 -0.0004081726
v 3.137588E-05 -0.04946342 -0.005898437
v 0.006809978 -0.04807464 0.007811279
v -0.0005402946 -0.04776587 0.007759857
v -0.0002630425 -0.04272635 -0.001611633
v 0.007145328 -0.03888241 0.01507675
v -0.0009405327 -0.03854273 0.01502029
v -0.0005733299 -0.03575161 0.001177978
v 0.007501507 -0.02958466 0.01998871
v -0.002303448 -0.02917278 0.0199202
v -0.0004502678 -0.02893575 0.002628021
v -0.001036205 -0.0276641 0.002476654
v -0.002093792 -0.02710176 0.002394562
v 0.00795061 -0.01842931 0.02278107
v -0.001854382 -0.01801744 0.02271255
v 0.008279362 -0.01055139 0.02308533
v -0.001525555 -0.01013952 0.02301681
v 0.009532566 0.01835104 0.01749985
v -0.0002723503 0.01876294 0.01743118
v -5.422592E-05 0.02379287 0.0164592
v 0.009718265 0.02229946 0.01092407
v -0.004475879 0.05402165 -0.01131805
v 0.001397533 0.05347594 -0.01282394
v 0.001503849 0.05641158 -0.01039703
v 0.007274418 0.05352805 -0.01123596
v -0.002901325 0.05682088 -0.009267425
v -0.00877203 0.05501893 -0.007121582
v 0.005911693 0.05645066 -0.009205933
v 0.01158003 0.05416398 -0.006979065
v -0.006123562 0.05756884 -0.006119995
v -0.01033979 0.05620057 -0.001358948
v 0.001513576 0.0580849 -0.001736145
v 0.009141025 0.05692763 -0.006013183
v -0.007299442 0.05845511 -0.001797943
v 0.01316072 0.05521337 -0.001194305
v -0.008759098 0.05724996 0.004425812
v 0.01032656 0.05771468 -0.001674499
v 0.01159296 0.05639501 0.004568329
v -0.006113872 0.05924218 0.002540741
v -0.004453487 0.05788589 0.008682556
v 0.009150715 0.05860095 0.002647705
v 0.00729681 0.05739228 0.008764648
v -0.00288454 0.05971915 0.00573349
v 0.001423397 0.05793799 0.01027069
v 0.005928478 0.05934893 0.005795135
v 0.001523304 0.05975823 0.006924591
vt 0.437904 0.1703974
vt 0.4437134 0.1802369
vt 0.4397397 0.1823133
vt 0.4422169 0.1699898
vt 0.4378908 0.1587144
vt 0.4498152 0.1790323
vt 0.4423302 0.1591614
vt 0.4401791 0.1464965
vt 0.4441137 0.1485804
vt 0.4495287 0.1695868
vt 0.4551122 0.1803278
vt 0.4496795 0.1596351
vt 0.4502773 0.1502664
vt 0.455723 0.1699488
vt 0.4614666 0.183367
vt 0.4558231 0.1593923
vt 0.4554607 0.1492704
vt 0.4652584 0.1773567
vt 0.4779696 0.1854333
vt 0.4785898 0.178557
vt 0.4629146 0.1707796
vt 0.4791318 0.171758
vt 0.465883 0.16482
vt 0.4792502 0.1649278
vt 0.4630384 0.1587938
vt 0.47926 0.1581059
vt 0.4655184 0.1523052
vt 0.4618129 0.1462646
vt 0.478827 0.1512863
vt 0.4782965 0.1444011
vt 0.4140955 0.1065568
vt 0.4255561 0.1012867
vt 0.4258088 0.1106505
vt 0.4113884 0.1279268
vt 0.422359 0.1301391
vt 0.4225554 0.1560665
vt 0.4116178 0.158179
vt 0.4252902 0.1723281
vt 0.4143525 0.1744406
vt 0.4256399 0.1782152
vt 0.414678 0.1797389
vt 0.4146798 0.1830831
vt 0.4256332 0.183077
vt 0.4158907 0.1912975
vt 0.4146838 0.1907151
vt 0.4166056 0.1926974
vt 0.4256383 0.1922185
vt 0.4256719 0.2004353
vt 0.4168098 0.2004735
vt 0.4174969 0.2088367
vt 0.4257081 0.2088013
vt 0.4257464 0.2176989
vt 0.4181457 0.2177317
vt 0.4187474 0.2298606
vt 0.4257987 0.2298302
vt 0.3453628 0.180649
vt 0.3328745 0.1853954
vt 0.3314642 0.1838008
vt 0.3400086 0.175189
vt 0.3458908 0.1685129
vt 0.3553634 0.1756827
vt 0.3649508 0.166781
vt 0.350162 0.1613194
vt 0.3529112 0.153576
vt 0.3719606 0.1573592
vt 0.3769507 0.1455236
vt 0.3533654 0.1444458
vt 0.3786355 0.1368794
vt 0.3530999 0.1395913
vt 0.3774252 0.1040164
vt 0.3488508 0.1355015
vt 0.3510432 0.1049881
vt 0.3314831 0.1080056
vt 0.3324374 0.1339162
vt 0.3582432 0.09899592
vt 0.3708489 0.09853163
vt 0.2599744 0.2119455
vt 0.2674081 0.2100664
vt 0.2612637 0.2138261
vt 0.2657679 0.2089621
vt 0.2557355 0.1984325
vt 0.2633368 0.1966763
vt 0.2709047 0.1984366
vt 0.2538627 0.1870035
vt 0.2619721 0.1860417
vt 0.273258 0.1894385
vt 0.253418 0.1734963
vt 0.2625287 0.1733279
vt 0.2763588 0.1813083
vt 0.2537303 0.1615615
vt 0.2648169 0.1617275
vt 0.2801086 0.1743706
vt 0.2812052 0.1732398
vt 0.2820293 0.1721791
vt 0.2539933 0.1486834
vt 0.2649849 0.1488646
vt 0.2541479 0.1398576
vt 0.2651257 0.1400411
vt 0.2547006 0.1069058
vt 0.2656763 0.1070895
vt 0.2657722 0.1013549
vt 0.2534444 0.09841645
vt 0.4287221 0.1270843
vt 0.430558 0.1390002
vt 0.4345315 0.1369239
vt 0.433035 0.1266767
vt 0.4287088 0.1154014
vt 0.4406333 0.1357192
vt 0.4331483 0.1158484
vt 0.4309973 0.1031834
vt 0.4349319 0.1052674
vt 0.4403468 0.1262737
vt 0.4459305 0.1370147
vt 0.4404976 0.116322
vt 0.4410954 0.1069533
vt 0.4465411 0.1266357
vt 0.4522847 0.140054
vt 0.4466412 0.1160792
vt 0.4462788 0.1059573
vt 0.4560764 0.1340435
vt 0.4687879 0.1421201
vt 0.469408 0.1352439
vt 0.4537327 0.1274665
vt 0.46995 0.1284449
vt 0.4567012 0.1215068
vt 0.4700683 0.1216147
vt 0.4538567 0.1154807
vt 0.4700781 0.1147928
vt 0.4563365 0.1089921
vt 0.4526309 0.1029516
vt 0.469645 0.1079732
vt 0.4691147 0.101088
vt 0.4848391 0.1016832
vt 0.4965522 0.1057776
vt 0.4963 0.09641373
vt 0.4821308 0.123053
vt 0.4931012 0.125266
vt 0.4932964 0.1511934
vt 0.4823585 0.1533053
vt 0.4960301 0.1674551
vt 0.4850923 0.169567
vt 0.4963794 0.1733422
vt 0.4854174 0.1748653
vt 0.485419 0.1782095
vt 0.4963725 0.1782041
vt 0.4866296 0.1864242
vt 0.4854228 0.1858416
vt 0.4873445 0.187824
vt 0.4963772 0.1873456
vt 0.4964105 0.1955624
vt 0.4875484 0.1956002
vt 0.4882351 0.2039634
vt 0.4964463 0.2039284
vt 0.4964843 0.2128259
vt 0.4888835 0.2128583
vt 0.4894848 0.2249873
vt 0.496536 0.2249572
vt 0.295071 0.1784282
vt 0.2811724 0.1815799
vt 0.2825827 0.1831746
vt 0.2897169 0.1729681
vt 0.2955989 0.1662921
vt 0.3050716 0.1734618
vt 0.314659 0.1645601
vt 0.2998703 0.1590985
vt 0.3026195 0.1513552
vt 0.3216689 0.1551383
vt 0.326659 0.1433027
vt 0.3030736 0.142225
vt 0.3283437 0.1346586
vt 0.3028082 0.1373704
vt 0.3271334 0.1017955
vt 0.2985591 0.1332807
vt 0.3007514 0.1027673
vt 0.3079515 0.09677505
vt 0.3205571 0.09631076
vt 0.2811913 0.1057847
vt 0.2821456 0.1316953
vt 0.3883123 0.2128012
vt 0.3896017 0.2146817
vt 0.3957461 0.2109221
vt 0.3941059 0.2098178
vt 0.3840735 0.1992881
vt 0.3916748 0.1975319
vt 0.3992426 0.1992922
vt 0.3822007 0.1878592
vt 0.39031 0.1868973
vt 0.401596 0.1902941
vt 0.3817559 0.1743519
vt 0.3908666 0.1741836
vt 0.4046967 0.1821639
vt 0.3820683 0.1624171
vt 0.3931549 0.1625831
vt 0.4084466 0.1752262
vt 0.4095432 0.1740954
vt 0.4103673 0.1730348
vt 0.3823311 0.149539
vt 0.3933228 0.1497202
vt 0.3824859 0.1407133
vt 0.3934636 0.1408966
vt 0.3830385 0.1077614
vt 0.3940141 0.1079451
vt 0.3941101 0.1022105
vt 0.3817823 0.09927204
vt 0.2915547 0.1390356
vt 0.285269 0.1352902
vt 0.2841276 0.1394477
vt 0.2779521 0.135301
vt 0.2885004 0.1419801
vt 0.2951174 0.1453781
vt 0.2790748 0.1393922
vt 0.2716503 0.1389352
vt 0.2909985 0.1463824
vt 0.2950252 0.1526322
vt 0.2815493 0.1488387
vt 0.2746791 0.1419019
vt 0.2909569 0.151439
vt 0.2680255 0.1452194
vt 0.2913284 0.1588534
vt 0.2721328 0.1462709
vt 0.2680275 0.1524561
vt 0.2883967 0.1557916
vt 0.2850397 0.1623899
vt 0.2721116 0.1513205
vt 0.2716288 0.1587079
vt 0.2840089 0.1582822
vt 0.2778522 0.1623047
vt 0.2746126 0.1557024
vt 0.2789608 0.1582668
vn -0.9302421 0.3305255 0.1593821
vn 0.01640857 0.5316046 0.8468336
vn 0.02029715 0.6144928 0.7886612
vn -0.7917338 0.4750868 0.3839924
vn -0.9296206 0.2568157 -0.2642937
vn 0.002752559 0.2277315 0.9737201
vn -0.7931432 0.2966523 -0.5319034
vn 0.03950421 0.8539873 -0.5187919
vn 0.01420443 0.1741619 -0.9846146
vn -0.86238 0.169288 0.4771189
vn -0.01511269 -0.196305 0.9804264
vn -0.8634792 -0.02027147 -0.5039769
vn 0.0005552678 -0.1513572 -0.988479
vn -0.8377293 -0.2454871 0.4877968
vn -0.01016265 -0.07593995 0.9970606
vn -0.8008037 -0.423248 -0.4237626
vn -0.01621189 -0.5276082 -0.849333
vn -0.4983427 0.07276908 0.8639208
vn 0.007341664 0.3316716 0.9433663
vn -0.4869457 0.3272948 0.8097913
vn -0.9032621 -0.09293079 0.4189049
vn -0.8490778 0.2738038 0.4517725
vn -0.9974552 -0.06931552 0.01669094
vn -0.982021 0.1855455 -0.03475126
vn -0.7966893 -0.2818259 -0.5346591
vn -0.8501611 0.08616132 -0.519425
vn -0.5039369 -0.2535086 -0.8257003
vn -0.006520888 -0.3132055 -0.949663
vn -0.488823 0.002286165 -0.87238
vn 0.005147677 -0.0436044 -0.9990356
vn 0.03950421 0.8539873 -0.5187919
vn -0.9296206 0.2568157 -0.2642937
vn -0.9766763 0.1982531 -0.08245627
vn 0.02425016 0.4267342 -0.9040519
vn -0.7992049 0.2161865 -0.5608342
vn -0.8299615 -0.3068203 -0.4658597
vn -0.02318828 -0.6748321 -0.7376069
vn -0.9968177 -0.07763632 -0.01808193
vn -0.04085737 -0.9922092 -0.1176928
vn -0.9984263 0.001125088 -0.05606817
vn -0.01960363 -0.5998629 -0.7998626
vn -0.0005092195 -0.1760574 -0.9843798
vn -0.9730795 0.001054273 -0.2304673
vn 0.1349719 -0.2499674 -0.9588007
vn -0.00436308 -0.2644576 -0.9643875
vn 0.7957547 -0.09853102 -0.5975501
vn -0.9599339 0.05823582 -0.2741085
vn -0.9081738 0.1526245 -0.389777
vn 0.9088389 0.004567364 -0.4171224
vn 0.8776627 0.1344661 -0.4600294
vn -0.8568131 0.2613369 -0.4444934
vn -0.6801681 0.4319712 -0.5922603
vn 0.7196391 0.339939 -0.6054429
vn 0.5704926 0.3300831 -0.7520528
vn -0.5425187 0.3915727 -0.7431987
vn -0.6722356 -0.6199616 0.4046565
vn -0.6095864 -0.7335421 0.3005334
vn -0.5425187 0.3915727 -0.7431987
vn -0.6801681 0.4319712 -0.5922603
vn -0.8568131 0.2613369 -0.4444934
vn -0.7685297 -0.4433426 0.4613128
vn -0.8089719 -0.2983738 0.5064955
vn -0.9081738 0.1526245 -0.389777
vn -0.9599339 0.05823582 -0.2741085
vn -0.8403407 -0.1588391 0.518264
vn -0.8423785 -0.05282791 0.5362907
vn -0.9730795 0.001054273 -0.2304673
vn -0.9264798 0.09224224 0.3648652
vn -0.9984263 0.001125088 -0.05606817
vn -0.9292923 0.1331704 0.3445019
vn -0.9968177 -0.07763632 -0.01808193
vn -0.9766763 0.1982531 -0.08245627
vn -0.7992049 0.2161865 -0.5608342
vn -0.8299615 -0.3068203 -0.4658597
vn -0.9296206 0.2568157 -0.2642937
vn -0.9302421 0.3305255 0.1593821
vn -0.6095864 -0.7335421 0.3005334
vn 0.5704926 0.3300831 -0.7520528
vn -0.5425187 0.3915727 -0.7431987
vn 0.525594 -0.7980562 0.2947156
vn -0.6722356 -0.6199616 0.4046565
vn 0.6022751 -0.6966422 0.3898132
vn 0.7196391 0.339939 -0.6054429
vn -0.7685297 -0.4433426 0.4613128
vn 0.7092102 -0.5440082 0.4484149
vn 0.8776627 0.1344661 -0.4600294
vn -0.8089719 -0.2983738 0.5064955
vn 0.7538126 -0.4338591 0.4934906
vn 0.9088389 0.004567364 -0.4171224
vn -0.8403407 -0.1588391 0.518264
vn -0.02284512 -0.3906603 0.9202514
vn 0.7957547 -0.09853102 -0.5975501
vn 0.1349719 -0.2499674 -0.9588007
vn -0.00436308 -0.2644576 -0.9643875
vn -0.8423785 -0.05282791 0.5362907
vn -0.01362437 -0.1600283 0.9870184
vn -0.9264798 0.09224224 0.3648652
vn -0.0009518945 0.142174 0.9898412
vn -0.9292923 0.1331704 0.3445019
vn 0.0011005 0.1897003 0.9818414
vn 0.02029715 0.6144928 0.7886612
vn -0.9302421 0.3305255 0.1593821
vn 0.9523677 0.2514359 0.1725565
vn 0.02029715 0.6144928 0.7886612
vn 0.01640857 0.5316046 0.8468336
vn 0.8233553 0.4072275 0.3952871
vn 0.9514862 0.1777932 -0.2511249
vn 0.002752559 0.2277315 0.9737201
vn 0.8225775 0.2287771 -0.5206029
vn 0.03950421 0.8539873 -0.5187919
vn 0.01420443 0.1741619 -0.9846146
vn 0.8667927 0.0966406 0.4892146
vn -0.01511269 -0.196305 0.9804264
vn 0.8656904 -0.09288789 -0.4918863
vn 0.0005552678 -0.1513572 -0.988479
vn 0.8072928 -0.3145733 0.4993216
vn -0.01016265 -0.07593995 0.9970606
vn 0.7683366 -0.4891578 -0.4127755
vn -0.01621189 -0.5276082 -0.849333
vn 0.49057 0.03124005 0.8708416
vn 0.007341664 0.3316716 0.9433663
vn 0.5013165 0.285771 0.8167109
vn 0.8863457 -0.168107 0.4314295
vn 0.86265 0.2018991 0.4637582
vn 0.9877979 -0.1527102 0.03057792
vn 0.9945108 0.1025208 -0.02092209
vn 0.7776393 -0.3479757 -0.5236316
vn 0.8615699 0.01425774 -0.5074388
vn 0.4923925 -0.2953696 -0.8187224
vn -0.006520888 -0.3132055 -0.949663
vn 0.4994366 -0.03922963 -0.8654617
vn 0.005147677 -0.0436044 -0.9990356
vn 0.03950421 0.8539873 -0.5187919
vn 0.990918 0.1155991 -0.06869026
vn 0.9514862 0.1777932 -0.2511249
vn 0.02425016 0.4267342 -0.9040519
vn 0.8222738 0.1480743 -0.5494905
vn 0.8077325 -0.3756156 -0.454402
vn -0.02318828 -0.6748321 -0.7376069
vn 0.9869505 -0.1609692 -0.004202772
vn -0.04085737 -0.9922092 -0.1176928
vn 0.9956889 -0.08264282 -0.04211724
vn -0.01960363 -0.5998629 -0.7998626
vn -0.0005092195 -0.1760574 -0.9843798
vn 0.9728628 -0.08070029 -0.2168535
vn -0.1420529 -0.2383488 -0.9607346
vn -0.00436308 -0.2644576 -0.9643875
vn -0.792793 -0.03181381 -0.60866
vn 0.9651701 -0.02263857 -0.2606421
vn 0.9231278 0.07570133 -0.3769672
vn -0.8993422 0.08052786 -0.429766
vn -0.8567783 0.207337 -0.4721675
vn 0.881835 0.1883065 -0.4323283
vn 0.7222052 0.3730608 -0.5824478
vn -0.6800665 0.3987381 -0.6152377
vn -0.5302383 0.3763262 -0.7597539
vn 0.5837731 0.3442655 -0.7353164
vn 0.6121543 -0.6739198 0.4136414
vn 0.5837731 0.3442655 -0.7353164
vn 0.5416617 -0.7819049 0.3085891
vn 0.7222052 0.3730608 -0.5824478
vn 0.881835 0.1883065 -0.4323283
vn 0.7221189 -0.5059701 0.4717399
vn 0.7739444 -0.3648742 0.5175683
vn 0.9231278 0.07570133 -0.3769672
vn 0.9651701 -0.02263857 -0.2606421
vn 0.8167426 -0.2284441 0.5298535
vn 0.827408 -0.1229659 0.5479738
vn 0.9728628 -0.08070029 -0.2168535
vn 0.9257647 0.01443363 0.3778244
vn 0.9956889 -0.08264282 -0.04211724
vn 0.9322842 0.05496743 0.357526
vn 0.9869505 -0.1609692 -0.004202772
vn 0.990918 0.1155991 -0.06869026
vn 0.9514862 0.1777932 -0.2511249
vn 0.9523677 0.2514359 0.1725565
vn 0.8222738 0.1480743 -0.5494905
vn 0.8077325 -0.3756156 -0.454402
vn 0.5416617 -0.7819049 0.3085891
vn 0.5837731 0.3442655 -0.7353164
vn -0.5302383 0.3763262 -0.7597539
vn -0.5947356 -0.7509944 0.2868744
vn 0.6121543 -0.6739198 0.4136414
vn -0.6639571 -0.6434561 0.380953
vn -0.6800665 0.3987381 -0.6152377
vn 0.7221189 -0.5059701 0.4717399
vn -0.7585317 -0.4823537 0.4381376
vn -0.8567783 0.207337 -0.4721675
vn 0.7739444 -0.3648742 0.5175683
vn -0.7943519 -0.3688335 0.4826663
vn -0.8993422 0.08052786 -0.429766
vn 0.8167426 -0.2284441 0.5298535
vn -0.02284512 -0.3906603 0.9202514
vn -0.792793 -0.03181381 -0.60866
vn -0.1420529 -0.2383488 -0.9607346
vn -0.00436308 -0.2644576 -0.9643875
vn 0.827408 -0.1229659 0.5479738
vn -0.01362437 -0.1600283 0.9870184
vn 0.9257647 0.01443363 0.3778244
vn -0.0009518945 0.142174 0.9898412
vn 0.9322842 0.05496743 0.357526
vn 0.0011005 0.1897003 0.9818414
vn 0.02029715 0.6144928 0.7886612
vn 0.9523677 0.2514359 0.1725565
vn -0.488823 0.002286165 -0.87238
vn 0.005147677 -0.0436044 -0.9990356
vn 0.03873685 0.8296149 -0.5569906
vn 0.4994366 -0.03922963 -0.8654617
vn -0.1557447 0.8476869 -0.5071199
vn -0.8501611 0.08616132 -0.519425
vn 0.2333594 0.8313405 -0.5043971
vn 0.8615699 0.01425774 -0.5074388
vn -0.2980039 0.8807147 -0.3681512
vn -0.982021 0.1855455 -0.03475126
vn 0.04253398 0.980945 -0.1895728
vn 0.3759449 0.8523961 -0.3634368
vn -0.3499298 0.9198388 -0.1773294
vn 0.9945108 0.1025208 -0.02092209
vn -0.8490778 0.2738038 0.4517725
vn 0.4282778 0.8871502 -0.1718794
vn 0.86265 0.2018991 0.4637582
vn -0.29759 0.9545878 0.01422633
vn -0.4869457 0.3272948 0.8097913
vn 0.3763681 0.9262764 0.01894953
vn 0.5013165 0.285771 0.8167109
vn -0.1550068 0.9756478 0.1551915
vn 0.007341664 0.3316716 0.9433663
vn 0.2341018 0.9593003 0.157922
vn 0.03960629 0.9773727 0.2077836
usemtl Mat_Tools
f 1/1/1 3/3/3 2/2/2 
f 1/1/1 2/2/2 4/4/4 
f 5/5/5 1/1/1 4/4/4 
f 6/6/6 4/4/4 2/2/2 
f 5/5/5 4/4/4 7/7/7 
f 8/8/8 5/5/5 7/7/7 
f 8/8/8 7/7/7 9/9/9 
f 6/6/6 10/10/10 4/4/4 
f 10/10/10 7/7/7 4/4/4 
f 11/11/11 10/10/10 6/6/6 
f 12/12/12 9/9/9 7/7/7 
f 10/10/10 12/12/12 7/7/7 
f 12/12/12 13/13/13 9/9/9 
f 11/11/11 14/14/14 10/10/10 
f 14/14/14 12/12/12 10/10/10 
f 15/15/15 14/14/14 11/11/11 
f 16/16/16 13/13/13 12/12/12 
f 14/14/14 16/16/16 12/12/12 
f 16/16/16 17/17/17 13/13/13 
f 15/15/15 18/18/18 14/14/14 
f 19/19/19 18/18/18 15/15/15 
f 19/19/19 20/20/20 18/18/18 
f 18/18/18 21/21/21 14/14/14 
f 20/20/20 21/21/21 18/18/18 
f 21/21/21 16/16/16 14/14/14 
f 20/20/20 22/22/22 21/21/21 
f 22/22/22 23/23/23 21/21/21 
f 21/21/21 23/23/23 16/16/16 
f 22/22/22 24/24/24 23/23/23 
f 23/23/23 25/25/25 16/16/16 
f 24/24/24 25/25/25 23/23/23 
f 25/25/25 17/17/17 16/16/16 
f 24/24/24 26/26/26 25/25/25 
f 25/25/25 27/27/27 17/17/17 
f 26/26/26 27/27/27 25/25/25 
f 27/27/27 28/28/28 17/17/17 
f 26/26/26 29/29/29 27/27/27 
f 29/29/29 28/28/28 27/27/27 
f 29/29/29 30/30/30 28/28/28 
f 31/31/31 33/33/33 32/32/32 
f 33/33/33 31/31/31 34/34/34 
f 33/33/33 34/34/34 35/35/35 
f 34/34/34 36/36/36 35/35/35 
f 34/34/34 37/37/37 36/36/36 
f 37/37/37 38/38/38 36/36/36 
f 37/37/37 39/39/39 38/38/38 
f 39/39/39 40/40/40 38/38/38 
f 39/39/39 41/41/41 40/40/40 
f 40/40/40 41/41/41 42/42/42 
f 40/40/40 42/42/42 43/43/43 
f 42/42/42 44/44/44 43/43/43 
f 42/42/42 45/45/45 44/44/44 
f 43/43/43 44/44/44 46/46/46 
f 43/43/43 46/46/46 47/47/47 
f 48/48/48 47/47/47 46/46/46 
f 48/48/48 46/46/46 49/49/49 
f 48/48/48 49/49/49 50/50/50 
f 48/48/48 50/50/50 51/51/51 
f 52/52/52 51/51/51 50/50/50 
f 52/52/52 50/50/50 53/53/53 
f 52/52/52 53/53/53 54/54/54 
f 52/52/52 54/54/54 55/55/55 
f 56/56/56 58/58/58 57/57/57 
f 56/56/56 59/59/59 58/58/58 
f 56/56/56 60/60/60 59/59/59 
f 56/56/56 61/61/61 60/60/60 
f 62/62/62 60/60/60 61/61/61 
f 62/62/62 63/63/63 60/60/60 
f 64/64/64 63/63/63 62/62/62 
f 64/64/64 62/62/62 65/65/65 
f 66/66/66 64/64/64 65/65/65 
f 66/66/66 67/67/67 64/64/64 
f 68/68/68 67/67/67 66/66/66 
f 68/68/68 69/69/69 67/67/67 
f 70/70/70 69/69/69 68/68/68 
f 70/70/70 71/71/71 69/69/69 
f 71/71/71 70/70/70 72/72/72 
f 71/71/71 72/72/72 73/73/73 
f 71/71/71 73/73/73 74/74/74 
f 75/75/75 72/72/72 70/70/70 
f 75/75/75 70/70/70 76/76/76 
f 77/77/77 79/79/79 78/78/78 
f 77/77/77 78/78/78 80/80/80 
f 80/80/80 81/81/81 77/77/77 
f 78/78/78 82/82/82 80/80/80 
f 80/80/80 82/82/82 81/81/81 
f 78/78/78 83/83/83 82/82/82 
f 84/84/84 81/81/81 82/82/82 
f 83/83/83 85/85/85 82/82/82 
f 84/84/84 82/82/82 85/85/85 
f 83/83/83 86/86/86 85/85/85 
f 85/85/85 87/87/87 84/84/84 
f 86/86/86 88/88/88 85/85/85 
f 85/85/85 88/88/88 87/87/87 
f 86/86/86 89/89/89 88/88/88 
f 90/90/90 87/87/87 88/88/88 
f 89/89/89 91/91/91 88/88/88 
f 90/90/90 88/88/88 91/91/91 
f 89/89/89 92/92/92 91/91/91 
f 91/91/91 92/92/92 93/93/93 
f 91/91/91 93/93/93 94/94/94 
f 91/91/91 95/95/95 90/90/90 
f 91/91/91 96/96/96 95/95/95 
f 96/96/96 97/97/97 95/95/95 
f 96/96/96 98/98/98 97/97/97 
f 98/98/98 99/99/99 97/97/97 
f 98/98/98 100/100/100 99/99/99 
f 99/99/99 100/100/100 101/101/101 
f 102/102/102 99/99/99 101/101/101 
f 103/103/103 105/105/105 104/104/104 
f 103/103/103 106/106/106 105/105/105 
f 107/107/107 106/106/106 103/103/103 
f 108/108/108 105/105/105 106/106/106 
f 107/107/107 109/109/109 106/106/106 
f 110/110/110 109/109/109 107/107/107 
f 110/110/110 111/111/111 109/109/109 
f 108/108/108 106/106/106 112/112/112 
f 112/112/112 106/106/106 109/109/109 
f 113/113/113 108/108/108 112/112/112 
f 114/114/114 109/109/109 111/111/111 
f 112/112/112 109/109/109 114/114/114 
f 114/114/114 111/111/111 115/115/115 
f 113/113/113 112/112/112 116/116/116 
f 116/116/116 112/112/112 114/114/114 
f 117/117/117 113/113/113 116/116/116 
f 118/118/118 114/114/114 115/115/115 
f 116/116/116 114/114/114 118/118/118 
f 118/118/118 115/115/115 119/119/119 
f 117/117/117 116/116/116 120/120/120 
f 121/121/121 117/117/117 120/120/120 
f 121/121/121 120/120/120 122/122/122 
f 120/120/120 116/116/116 123/123/123 
f 122/122/122 120/120/120 123/123/123 
f 123/123/123 116/116/116 118/118/118 
f 122/122/122 123/123/123 124/124/124 
f 124/124/124 123/123/123 125/125/125 
f 123/123/123 118/118/118 125/125/125 
f 124/124/124 125/125/125 126/126/126 
f 125/125/125 118/118/118 127/127/127 
f 126/126/126 125/125/125 127/127/127 
f 127/127/127 118/118/118 119/119/119 
f 126/126/126 127/127/127 128/128/128 
f 127/127/127 119/119/119 129/129/129 
f 128/128/128 127/127/127 129/129/129 
f 129/129/129 119/119/119 130/130/130 
f 128/128/128 129/129/129 131/131/131 
f 131/131/131 129/129/129 130/130/130 
f 131/131/131 130/130/130 132/132/132 
f 133/133/133 135/135/135 134/134/134 
f 134/134/134 136/136/136 133/133/133 
f 134/134/134 137/137/137 136/136/136 
f 136/136/136 137/137/137 138/138/138 
f 136/136/136 138/138/138 139/139/139 
f 139/139/139 138/138/138 140/140/140 
f 139/139/139 140/140/140 141/141/141 
f 141/141/141 140/140/140 142/142/142 
f 141/141/141 142/142/142 143/143/143 
f 142/142/142 144/144/144 143/143/143 
f 142/142/142 145/145/145 144/144/144 
f 144/144/144 145/145/145 146/146/146 
f 144/144/144 146/146/146 147/147/147 
f 145/145/145 148/148/148 146/146/146 
f 145/145/145 149/149/149 148/148/148 
f 150/150/150 148/148/148 149/149/149 
f 150/150/150 151/151/151 148/148/148 
f 150/150/150 152/152/152 151/151/151 
f 150/150/150 153/153/153 152/152/152 
f 154/154/154 152/152/152 153/153/153 
f 154/154/154 155/155/155 152/152/152 
f 154/154/154 156/156/156 155/155/155 
f 154/154/154 157/157/157 156/156/156 
f 158/158/158 160/160/160 159/159/159 
f 158/158/158 159/159/159 161/161/161 
f 158/158/158 161/161/161 162/162/162 
f 158/158/158 162/162/162 163/163/163 
f 164/164/164 163/163/163 162/162/162 
f 164/164/164 162/162/162 165/165/165 
f 166/166/166 164/164/164 165/165/165 
f 166/166/166 167/167/167 164/164/164 
f 168/168/168 167/167/167 166/166/166 
f 168/168/168 166/166/166 169/169/169 
f 170/170/170 168/168/168 169/169/169 
f 170/170/170 169/169/169 171/171/171 
f 171/171/171 172/172/172 170/170/170 
f 173/173/173 172/172/172 171/171/171 
f 172/172/172 173/173/173 174/174/174 
f 175/175/175 172/172/172 174/174/174 
f 175/175/175 176/176/176 172/172/172 
f 173/173/173 177/177/177 174/174/174 
f 173/173/173 178/178/178 177/177/177 
f 179/179/179 181/181/181 180/180/180 
f 179/179/179 182/182/182 181/181/181 
f 182/182/182 179/179/179 183/183/183 
f 181/181/181 182/182/182 184/184/184 
f 182/182/182 183/183/183 184/184/184 
f 181/181/181 184/184/184 185/185/185 
f 186/186/186 184/184/184 183/183/183 
f 185/185/185 184/184/184 187/187/187 
f 186/186/186 187/187/187 184/184/184 
f 185/185/185 187/187/187 188/188/188 
f 187/187/187 186/186/186 189/189/189 
f 188/188/188 187/187/187 190/190/190 
f 187/187/187 189/189/189 190/190/190 
f 188/188/188 190/190/190 191/191/191 
f 192/192/192 190/190/190 189/189/189 
f 191/191/191 190/190/190 193/193/193 
f 192/192/192 193/193/193 190/190/190 
f 191/191/191 193/193/193 194/194/194 
f 193/193/193 195/195/195 194/194/194 
f 193/193/193 196/196/196 195/195/195 
f 193/193/193 192/192/192 197/197/197 
f 193/193/193 197/197/197 198/198/198 
f 198/198/198 197/197/197 199/199/199 
f 198/198/198 199/199/199 200/200/200 
f 200/200/200 199/199/199 201/201/201 
f 200/200/200 201/201/201 202/202/202 
f 201/201/201 203/203/203 202/202/202 
f 204/204/204 203/203/203 201/201/201 
f 205/205/205 207/207/207 206/206/206 
f 208/208/208 206/206/206 207/207/207 
f 205/205/205 209/209/209 207/207/207 
f 210/210/210 209/209/209 205/205/205 
f 208/208/208 207/207/207 211/211/211 
f 212/212/212 208/208/208 211/211/211 
f 210/210/210 213/213/213 209/209/209 
f 214/214/214 213/213/213 210/210/210 
f 207/207/207 209/209/209 215/215/215 
f 207/207/207 215/215/215 211/211/211 
f 209/209/209 213/213/213 215/215/215 
f 211/211/211 215/215/215 216/216/216 
f 212/212/212 211/211/211 216/216/216 
f 213/213/213 217/217/217 215/215/215 
f 214/214/214 217/217/217 213/213/213 
f 218/218/218 212/212/212 216/216/216 
f 219/219/219 217/217/217 214/214/214 
f 218/218/218 216/216/216 220/220/220 
f 216/216/216 215/215/215 220/220/220 
f 221/221/221 218/218/218 220/220/220 
f 219/219/219 222/222/222 217/217/217 
f 217/217/217 222/222/222 215/215/215 
f 223/223/223 222/222/222 219/219/219 
f 221/221/221 220/220/220 224/224/224 
f 220/220/220 215/215/215 224/224/224 
f 225/225/225 221/221/221 224/224/224 
f 223/223/223 226/226/226 222/222/222 
f 222/222/222 226/226/226 215/215/215 
f 227/227/227 226/226/226 223/223/223 
f 225/225/225 224/224/224 228/228/228 
f 224/224/224 215/215/215 228/228/228 
f 227/227/227 225/225/225 228/228/228 
f 227/227/227 229/229/229 226/226/226 
f 226/226/226 229/229/229 215/215/215 
f 227/227/227 228/228/228 229/229/229 
f 228/228/228 215/215/215 229/229/229 
