# exported by StudySceneExporter from mesh 'Paper001'
mtllib materials.mtl
v 0.00642756 -0.00661751 -0.00334709
v 0.00698508 -0.00653418 -0.0028931
v 0.00676108 -0.00656766 -0.00323147
v -0.0047196 -0.00828346 -0.000489026
v -0.00457921 -0.00826248 -0.00106615
v -0.00451632 -0.00825308 -0.00174813
v -0.00457921 -0.00826248 -0.00243012
v -0.0047196 -0.00828346 -0.00300724
v -0.0048828 -0.00830785 -0.00334707
v 0.00698509 -0.00653418 -0.000544633
v 0.00724571 -0.00649523 -0.00174814
v 0.00716454 -0.006507359 -0.00236658
v 0.00716454 -0.006507359 -0.00112969
v 0.00652275 -0.00660328 -0.000123646
v 0.00676108 -0.00656766 -0.000206263
v -0.00486696 -0.00830548 -0.000123646
v 0.00417627 0.00844629 -0.00334709
v -0.00697089 0.00678033 -0.00300724
v -0.0071341 0.00675594 -0.00334707
v -0.00683051 0.00680131 -0.00243012
v -0.00676762 0.00681071 -0.00174813
v 0.00427145 0.00846051 -0.000123646
v -0.00683051 0.00680131 -0.00106615
v -0.00697089 0.00678033 -0.000489026
v -0.00711826 0.00675831 -0.000123646
v 0.00499441 0.00856856 -0.00174814
v 0.00473379 0.00852961 -0.0028931
v 0.00450978 0.00849613 -0.00323147
v 0.00491324 0.008556429 -0.00236658
v 0.00473379 0.00852961 -0.000544634
v 0.00450978 0.00849613 -0.000206263
v 0.00491324 0.008556429 -0.00112969
v -0.00697089 0.00678033 -0.00300724
v -0.0048828 -0.00830785 -0.00334707
v -0.0071341 0.00675594 -0.00334707
v -0.0047196 -0.00828346 -0.00300724
v -0.00457921 -0.00826248 -0.00243012
v -0.00683051 0.00680131 -0.00243012
v -0.00451632 -0.00825308 -0.00174813
v -0.00676762 0.00681071 -0.00174813
v -0.00457921 -0.00826248 -0.00106615
v -0.00683051 0.00680131 -0.00106615
v -0.0047196 -0.00828346 -0.000489026
v -0.00697089 0.00678033 -0.000489026
v -0.00486696 -0.00830548 -0.000123646
v -0.00711826 0.00675831 -0.000123646
vt 0.46042 0.168197
vt 0.700536 0.183038
vt 0.687898 0.171977
vt 0.0401854 0.261628
vt 0.0481058 0.242762
vt 0.0516536 0.220468
vt 0.0481058 0.198173
vt 0.0401854 0.179307
vt 0.0309776 0.168198
vt 0.700536 0.257897
vt 0.71524 0.220468
vt 0.71066 0.20025
vt 0.71066 0.240685
vt 0.674452 0.271659
vt 0.687898 0.268959
vt 0.0318714 0.271659
vt 0.0768405 0.286515
vt 0.702313 0.297755
vt 0.711461 0.286206
vt 0.694451 0.317366
vt 0.690941 0.340536
vt 0.0715844 0.394038
vt 0.694487 0.363703
vt 0.70238 0.383305
vt 0.710657 0.393726
vt 0.0309776 0.340858
vt 0.0455704 0.301954
vt 0.0581303 0.290452
vt 0.0355154 0.319846
vt 0.0456317 0.379748
vt 0.0582095 0.391238
vt 0.0355485 0.361866
vt 0.02 0.0342528
vt 0.98 0.0200001
vt 0.02 0.02
vt 0.98 0.0342528
vt 0.98 0.058372
vt 0.02 0.058372
vt 0.98 0.0868088
vt 0.02 0.0868088
vt 0.98 0.115167
vt 0.02 0.115166
vt 0.98 0.139109
vt 0.02 0.139109
vt 0.98 0.154231
vt 0.02 0.154231
vn 0.147809 -0.9890159 0
vn 0.147809 -0.9890159 1.96547E-07
vn 0.147809 -0.9890159 0
vn 0.147809 -0.9890159 2.11373E-06
vn 0.147809 -0.9890159 0
vn 0.147809 -0.9890159 0
vn 0.147809 -0.9890159 0
vn 0.147809 -0.9890159 0
vn 0.147809 -0.9890159 0
vn 0.147809 -0.9890159 7.188739E-07
vn 0.147808 -0.9890161 2.510311E-07
vn 0.147809 -0.9890159 0
vn 0.1478039 -0.9890167 -7.412568E-07
vn 0.14781 -0.9890158 1.67581E-06
vn 0.14781 -0.9890158 2.387309E-06
vn 0.147809 -0.9890159 3.38952E-06
vn -0.147809 0.9890159 0
vn -0.147809 0.9890159 0
vn -0.147809 0.9890159 0
vn -0.147809 0.9890159 0
vn -0.147809 0.9890159 0
vn -0.147809 0.9890159 -1.76388E-07
vn -0.147809 0.9890159 0
vn -0.147809 0.9890159 0
vn -0.147809 0.9890159 0
vn -0.147809 0.9890159 0
vn -0.147809 0.9890159 0
vn -0.147809 0.9890159 0
vn -0.147809 0.9890159 0
vn -0.147808 0.9890161 5.871991E-07
vn -0.14781 0.9890158 -2.387309E-06
vn -0.147815 0.989015 -8.229231E-07
vn -0.9309177 -0.139127 0.3376919
vn -0.8896677 -0.132962 0.4368209
vn -0.8896677 -0.132962 0.4368209
vn -0.9309177 -0.139127 0.3376919
vn -0.9753405 -0.1457661 0.1657201
vn -0.9753404 -0.145766 0.1657211
vn -0.9890159 -0.147809 0
vn -0.9890159 -0.147809 0
vn -0.9753404 -0.145766 -0.1657211
vn -0.9753404 -0.145766 -0.1657211
vn -0.9408948 -0.140618 -0.308129
vn -0.9408944 -0.1406181 -0.3081301
vn -0.9157942 -0.136866 -0.3776091
vn -0.9157934 -0.1368661 -0.3776112
usemtl paper
f 1/1/1 3/3/3 2/2/2 
f 1/1/1 2/2/2 4/4/4 
f 1/1/1 4/4/4 5/5/5 
f 1/1/1 5/5/5 6/6/6 
f 1/1/1 6/6/6 7/7/7 
f 1/1/1 7/7/7 8/8/8 
f 1/1/1 8/8/8 9/9/9 
f 2/2/2 10/10/10 4/4/4 
f 2/2/2 11/11/11 10/10/10 
f 2/2/2 12/12/12 11/11/11 
f 11/11/11 13/13/13 10/10/10 
f 10/10/10 14/14/14 4/4/4 
f 10/10/10 15/15/15 14/14/14 
f 14/14/14 16/16/16 4/4/4 
f 17/17/17 19/19/19 18/18/18 
f 17/17/17 18/18/18 20/20/20 
f 17/17/17 20/20/20 21/21/21 
f 17/17/17 21/21/21 22/22/22 
f 21/21/21 23/23/23 22/22/22 
f 23/23/23 24/24/24 22/22/22 
f 24/24/24 25/25/25 22/22/22 
f 17/17/17 22/22/22 26/26/26 
f 17/17/17 26/26/26 27/27/27 
f 17/17/17 27/27/27 28/28/28 
f 26/26/26 29/29/29 27/27/27 
f 22/22/22 30/30/30 26/26/26 
f 22/22/22 31/31/31 30/30/30 
f 30/30/30 32/32/32 26/26/26 
f 33/33/33 35/35/35 34/34/34 
f 34/34/34 36/36/36 33/33/33 
f 33/33/33 36/36/36 37/37/37 
f 37/37/37 38/38/38 33/33/33 
f 38/38/38 37/37/37 39/39/39 
f 39/39/39 40/40/40 38/38/38 
f 40/40/40 39/39/39 41/41/41 
f 41/41/41 42/42/42 40/40/40 
f 42/42/42 41/41/41 43/43/43 
f 43/43/43 44/44/44 42/42/42 
f 44/44/44 43/43/43 45/45/45 
f 45/45/45 46/46/46 44/44/44 
