# exported by StudySceneExporter from mesh 'Paper002'
mtllib materials.mtl
v 0.00176039 -0.00902072 0.000121225
v 0.0022735 -0.0092548 0.000336054
v 0.00206734 -0.00916075 0.000175934
v -0.00849887 -0.00434052 0.00147368
v -0.00836966 -0.00439947 0.00120058
v -0.00831179 -0.00442587 0.000877863
v -0.00836966 -0.00439947 0.000555143
v -0.00849887 -0.00434052 0.000282044
v -0.00864908 -0.004272 0.000121234
v 0.0022735 -0.0092548 0.00144737
v 0.00251337 -0.00936423 0.000877861
v 0.00243866 -0.00933015 0.000585207
v 0.00243866 -0.00933015 0.00117051
v 0.00184799 -0.009060689 0.00164658
v 0.00206734 -0.00916075 0.00160749
v -0.008634499 -0.00427865 0.00164658
v 0.00808502 0.0048432 0.000121224
v -0.00217424 0.0095234 0.000282042
v -0.00232445 0.00959193 0.000121233
v -0.00204504 0.009464459 0.000555141
v -0.00198716 0.009438059 0.000877861
v 0.00817262 0.00480324 0.00164658
v -0.00204504 0.009464459 0.00120058
v -0.00217424 0.0095234 0.00147368
v -0.00230987 0.00958528 0.00164658
v 0.00883799 0.0044997 0.0008778599
v 0.008598129 0.00460912 0.000336052
v 0.00839197 0.00470317 0.000175933
v 0.00876329 0.00453378 0.000585206
v 0.008598129 0.00460912 0.00144737
v 0.00839197 0.00470317 0.00160749
v 0.00876329 0.00453378 0.00117051
v -0.00217424 0.0095234 0.000282042
v -0.00864908 -0.004272 0.000121234
v -0.00232445 0.00959193 0.000121233
v -0.00849887 -0.00434052 0.000282044
v -0.00836966 -0.00439947 0.000555143
v -0.00204504 0.009464459 0.000555141
v -0.00831179 -0.00442587 0.000877863
v -0.00198716 0.009438059 0.000877861
v -0.00836966 -0.00439947 0.00120058
v -0.00204504 0.009464459 0.00120058
v -0.00849887 -0.00434052 0.00147368
v -0.00217424 0.0095234 0.00147368
v -0.008634499 -0.00427865 0.00164658
v -0.00230987 0.00958528 0.00164658
vt 0.46042 0.168197
vt 0.700536 0.183038
vt 0.687898 0.171977
vt 0.0401854 0.261628
vt 0.0481058 0.242762
vt 0.0516536 0.220468
vt 0.0481058 0.198173
vt 0.0401854 0.179307
vt 0.0309776 0.168198
vt 0.700536 0.257897
vt 0.71524 0.220468
vt 0.71066 0.20025
vt 0.71066 0.240685
vt 0.674452 0.271659
vt 0.687898 0.268959
vt 0.0318714 0.271659
vt 0.0768405 0.286515
vt 0.702313 0.297755
vt 0.711461 0.286206
vt 0.694451 0.317366
vt 0.690941 0.340536
vt 0.0715844 0.394038
vt 0.694487 0.363703
vt 0.70238 0.383305
vt 0.710657 0.393726
vt 0.0309776 0.340858
vt 0.0455704 0.301954
vt 0.0581303 0.290452
vt 0.0355154 0.319846
vt 0.0456317 0.379748
vt 0.0582095 0.391238
vt 0.0355485 0.361866
vt 0.02 0.0342528
vt 0.98 0.0200001
vt 0.02 0.02
vt 0.98 0.0342528
vt 0.98 0.058372
vt 0.02 0.058372
vt 0.98 0.0868088
vt 0.02 0.0868088
vt 0.98 0.115167
vt 0.02 0.115166
vt 0.98 0.139109
vt 0.02 0.139109
vt 0.98 0.154231
vt 0.02 0.154231
vn -0.415045 -0.909801 0
vn -0.415045 -0.909801 2.34015E-07
vn -0.415045 -0.909801 0
vn -0.415045 -0.909801 4.28743E-06
vn -0.415045 -0.909801 0
vn -0.415045 -0.909801 0
vn -0.415045 -0.909801 0
vn -0.415045 -0.909801 0
vn -0.415045 -0.909801 0
vn -0.415045 -0.909801 1.33835E-06
vn -0.4150462 -0.9098004 3.492082E-07
vn -0.415045 -0.909801 0
vn -0.4150502 -0.9097985 -1.748741E-06
vn -0.415045 -0.909801 3.36155E-06
vn -0.4150442 -0.9098013 4.865841E-06
vn -0.415045 -0.909801 6.984749E-06
vn 0.415045 0.909801 0
vn 0.415045 0.909801 0
vn 0.415045 0.909801 0
vn 0.415045 0.909801 0
vn 0.415045 0.909801 0
vn 0.415045 0.909801 -1.91394E-07
vn 0.415045 0.909801 0
vn 0.415045 0.909801 0
vn 0.415045 0.909801 0
vn 0.415045 0.909801 2.19864E-07
vn 0.415045 0.909801 0
vn 0.415045 0.909801 0
vn 0.415045 0.909801 0
vn 0.4150462 0.9098004 1.423021E-06
vn 0.4150442 0.9098013 -4.865841E-06
vn 0.41504 0.9098032 -1.55833E-06
vn -0.7248644 0.3306782 0.6043373
vn -0.6348019 0.2895919 0.7163539
vn -0.6348019 0.2895919 0.7163539
vn -0.7248648 0.3306779 0.6043368
vn -0.8573001 0.3910951 0.334785
vn -0.8573001 0.3910951 0.334785
vn -0.909801 0.415045 0
vn -0.909801 0.415045 0
vn -0.8573002 0.3910941 -0.3347861
vn -0.8573005 0.3910942 -0.3347852
vn -0.7506658 0.3424479 -0.5650048
vn -0.7506649 0.342448 -0.565006
vn -0.6890497 0.3143399 -0.6529937
vn -0.689048 0.314339 -0.6529959
usemtl paper
f 1/1/1 3/3/3 2/2/2 
f 1/1/1 2/2/2 4/4/4 
f 1/1/1 4/4/4 5/5/5 
f 1/1/1 5/5/5 6/6/6 
f 1/1/1 6/6/6 7/7/7 
f 1/1/1 7/7/7 8/8/8 
f 1/1/1 8/8/8 9/9/9 
f 2/2/2 10/10/10 4/4/4 
f 2/2/2 11/11/11 10/10/10 
f 2/2/2 12/12/12 11/11/11 
f 11/11/11 13/13/13 10/10/10 
f 10/10/10 14/14/14 4/4/4 
f 10/10/10 15/15/15 14/14/14 
f 14/14/14 16/16/16 4/4/4 
f 17/17/17 19/19/19 18/18/18 
f 17/17/17 18/18/18 20/20/20 
f 17/17/17 20/20/20 21/21/21 
f 17/17/17 21/21/21 22/22/22 
f 21/21/21 23/23/23 22/22/22 
f 23/23/23 24/24/24 22/22/22 
f 24/24/24 25/25/25 22/22/22 
f 17/17/17 22/22/22 26/26/26 
f 17/17/17 26/26/26 27/27/27 
f 17/17/17 27/27/27 28/28/28 
f 26/26/26 29/29/29 27/27/27 
f 22/22/22 30/30/30 26/26/26 
f 22/22/22 31/31/31 30/30/30 
f 30/30/30 32/32/32 26/26/26 
f 33/33/33 35/35/35 34/34/34 
f 34/34/34 36/36/36 33/33/33 
f 33/33/33 36/36/36 37/37/37 
f 37/37/37 38/38/38 33/33/33 
f 38/38/38 37/37/37 39/39/39 
f 39/39/39 40/40/40 38/38/38 
f 40/40/40 39/39/39 41/41/41 
f 41/41/41 42/42/42 40/40/40 
f 42/42/42 41/41/41 43/43/43 
f 43/43/43 44/44/44 42/42/42 
f 44/44/44 43/43/43 45/45/45 
f 45/45/45 46/46/46 44/44/44 
