# exported by StudySceneExporter from mesh 'Screwdriver_L_Handle_low'
mtllib materials.mtl
v -0.006470236 -0.05510608 0.01236626
v -0.002984743 -0.04274471 0.01102135
v -0.003660116 -0.05525776 0.01102135
v -0.006060662 -0.04751766 0.01236626
v -0.01101577 -0.0548608 0.01041847
v -0.0106062 -0.04727238 0.01041847
v -0.01426826 -0.05468517 0.006694717
v -0.01385869 -0.04709675 0.006694717
v -0.01386198 -0.05470714 0.003606644
v -0.0131873 -0.04220692 0.003606644
v -0.01600626 -0.05459141 0.001342163
v -0.008881564 -0.04073154 0.008533325
v -0.008002209 -0.03345982 0.007864151
v -0.002499623 -0.03375675 0.009654617
v -0.01559669 -0.04700298 0.001342163
v -0.01556181 -0.05461536 -0.003593216
v -0.01515223 -0.04702694 -0.003593216
v -0.01302733 -0.05475216 -0.007844925
v -0.01261775 -0.04716373 -0.007844925
v -0.009964451 -0.05491749 -0.008411407
v -0.009289145 -0.04240566 -0.008411407
v -0.008480363 -0.0549976 -0.01115311
v -0.01258234 -0.04053181 -0.002873077
v -0.01140295 -0.03327625 -0.002617493
v -0.008002209 -0.03345982 -0.007305069
v -0.008070788 -0.04740925 -0.01115311
v -0.003660116 -0.05525776 -0.01225288
v -0.003250537 -0.04766933 -0.01225288
v -0.002893529 -0.04105473 -0.009922638
v -0.002499623 -0.03375675 -0.009095535
v -0.01140295 -0.03327625 0.003176575
v -0.006702266 -0.02306377 -0.01092667
v -0.002105727 -0.02645878 -0.01046226
v -0.006968531 -0.01887714 -0.01297073
v -0.001711845 -0.0191608 -0.01409348
v -0.00345819 0.04616108 -0.01297073
v 0.00179852 0.04587734 -0.01409348
v -0.002967391 0.04613461 -0.01092667
v -0.004074626 0.05420673 -0.008411407
v -0.008410162 -0.02611805 -0.008411178
v -0.007368293 0.04637211 -0.007722091
v -0.01110343 -0.02283085 -0.007722091
v -0.009160971 0.04646892 -0.008821258
v -0.01230697 -0.02590816 -0.003039856
v -0.01267131 -0.01856937 -0.008821258
v -0.01185115 0.04661411 -0.004161987
v -0.01536149 -0.01842411 -0.004161987
v -0.01240993 0.04664417 0.001187973
v -0.01592027 -0.01839397 0.001187973
v -0.01030212 0.04653042 0.001362534
v -0.01403844 -0.02269474 0.001362534
v -0.007972216 0.05441555 0.003606644
v -0.0123071 -0.02590267 0.003604126
v -0.008640933 0.04644077 0.00655159
v -0.01237461 -0.02273517 0.00655159
v -0.01023262 0.04652676 0.007902222
v -0.008410449 -0.02611858 0.008969879
v -0.01374296 -0.01851147 0.007902222
v -0.006637473 0.04633266 0.0119075
v -0.01014781 -0.01870563 0.0119075
v -0.001726012 0.04606754 0.01409348
v -0.005236373 -0.01897068 0.01409348
v -0.0009221601 0.04602421 0.01214996
v -0.004657168 -0.02317646 0.01214996
v 0.002229733 0.05386669 0.01102135
v -0.002105727 -0.02645878 0.01102135
v 0.001163855 -0.05551815 -0.0111512
v -0.003250537 -0.04766933 -0.01225288
v -0.003660116 -0.05525776 -0.01225288
v 0.001573434 -0.04792972 -0.0111512
v 0.002651415 -0.05559841 -0.008409195
v -0.002893529 -0.04105473 -0.009922638
v 0.003326173 -0.04309704 -0.008409195
v 0.005710053 -0.05576343 -0.007841949
v -0.002499623 -0.03375675 -0.009095535
v 0.006119637 -0.04817509 -0.007841949
v 0.008241596 -0.05590015 -0.003593216
v 0.008651176 -0.04831173 -0.003593216
v 0.008686581 -0.05592418 0.001338501
v 0.00909616 -0.04833576 0.001338501
v 0.00654119 -0.05580829 0.003598862
v 0.007216554 -0.04329548 0.003598862
v 0.00694972 -0.05583042 0.00669136
v 0.006795258 -0.04157764 -0.002873077
v 0.003002944 -0.03405377 -0.007305069
v -0.002105727 -0.02645878 -0.01046226
v 0.00640367 -0.03423733 -0.002617493
v 0.007359309 -0.04824192 0.00669136
v 0.003695545 -0.05565472 0.01041847
v 0.004105124 -0.04806629 0.01041847
v -0.0008499908 -0.05540943 0.01236626
v -0.0004404116 -0.047821 0.01236626
v -0.003660116 -0.05525776 0.01102135
v -0.002984743 -0.04274471 0.01102135
v 0.003094478 -0.04137791 0.008533325
v 0.003002944 -0.03405377 0.007864151
v -0.002499623 -0.03375675 0.009654617
v 0.00640367 -0.03423733 0.003176575
v 0.004198975 -0.02679905 0.008969879
v 0.008495021 -0.02388775 0.006538772
v 0.0007841683 -0.02347011 0.01214996
v -0.002105727 -0.02645878 0.01102135
v 0.004519181 0.04573048 0.01214996
v 0.002229733 0.05386669 0.01102135
v 0.005323052 0.04568714 0.01409348
v 0.001812687 -0.01935108 0.01409348
v 0.01023449 0.0454221 0.0119075
v 0.006724148 -0.01961613 0.0119075
v 0.01382771 0.04522808 0.007906036
v 0.01031734 -0.01981014 0.007906036
v 0.01223012 0.04531437 0.006538772
v 0.01243103 0.053316 0.003598862
v 0.008095584 -0.02700939 0.003598862
v 0.01391291 0.0452235 0.001356735
v 0.01017797 -0.02397572 0.001356735
v 0.01600626 0.04511051 0.001192322
v 0.008095517 -0.02700939 -0.003039856
v 0.01249593 -0.01992763 0.001192322
v 0.01544819 0.04514065 -0.004161987
v 0.01193785 -0.01989757 -0.004161987
v 0.01275563 0.04528591 -0.008823699
v 0.009245281 -0.01975231 -0.008823699
v 0.01097958 0.04538181 -0.007724991
v 0.007245774 -0.02379635 -0.007724991
v 0.008541169 0.05352443 -0.008409195
v 0.004203787 -0.02679439 -0.008409729
v 0.006566091 0.04562 -0.01091225
v 0.002829876 -0.02360287 -0.01091225
v 0.007052216 0.04559376 -0.01297234
v -0.001711845 -0.0191608 -0.01409348
v 0.00354187 -0.01944439 -0.01297234
v 0.00179852 0.04587734 -0.01409348
v 0.01546677 0.04958454 0.001253433
v 0.01544819 0.04514065 -0.004161987
v 0.01600626 0.04511051 0.001192322
v 0.01391291 0.0452235 0.001356735
v 0.014956 0.04961216 -0.00392395
v 0.01275563 0.04528591 -0.008823699
v 0.01426035 0.05166042 0.001356735
v 0.01243103 0.053316 0.003598862
v 0.01233082 0.04975384 -0.008412857
v 0.01313286 0.05296452 -0.003273773
v 0.01132613 0.05180256 -0.007724991
v 0.01097958 0.04538181 -0.007724991
v 0.008541169 0.05352443 -0.008409195
v 0.009959054 0.05473522 0.002772064
v 0.009959054 0.05473522 -0.002212982
v 0.00234076 0.05592418 0.000279541
v 0.007033181 0.05489323 0.006805114
v 0.007033181 0.05489323 -0.006246033
v 0.01257763 0.05175342 0.006538772
v 0.01223012 0.04531437 0.006538772
v 0.01382771 0.04522808 0.007906036
v 0.006914487 0.05207508 -0.01091225
v 0.006566091 0.04562 -0.01091225
v 0.00711163 0.05003551 -0.01221023
v 0.007052216 0.04559376 -0.01297234
v 0.00179852 0.04587734 -0.01409348
v 0.002037721 0.05030941 -0.01332329
v -0.00345819 0.04616108 -0.01297073
v 0.002212853 0.05355389 -0.01121918
v -0.003036361 0.05058323 -0.01221016
v -0.002619986 0.05257076 -0.01092667
v -0.002967391 0.04613461 -0.01092667
v -0.004074626 0.05420673 -0.008411407
v 0.002298913 0.05514874 -0.00778656
v -0.002435317 0.05540417 -0.006246033
v -0.007020717 0.05281193 -0.007722091
v -0.007368293 0.04637211 -0.007722091
v -0.008255477 0.05086498 -0.008412704
v -0.009160971 0.04646892 -0.008821258
v -0.01185115 0.04661411 -0.004161987
v -0.01088054 0.05100658 -0.00392395
v -0.01240993 0.04664417 0.001187973
v -0.008707175 0.05414326 -0.003273773
v -0.01139148 0.0510342 0.001252518
v -0.009953627 0.05298717 0.001362534
v -0.01030212 0.04653042 0.001362534
v -0.007972216 0.05441555 0.003606644
v -0.005361228 0.05556217 -0.002212982
v -0.005361228 0.05556217 0.002772064
v -0.008294463 0.05285984 0.00655159
v -0.008640933 0.04644077 0.00655159
v -0.009397979 0.05092655 0.007396927
v -0.01023262 0.04652676 0.007902222
v -0.006637473 0.04633266 0.0119075
v -0.005946192 0.05074032 0.01128441
v -0.001726012 0.04606754 0.01409348
v -0.00453609 0.05391819 0.009582214
v -0.002435317 0.05540417 0.006805114
v -0.001187873 0.05048351 0.01337082
v -0.0005746793 0.05246219 0.01214996
v -0.0009221601 0.04602421 0.01214996
v 0.002229733 0.05386669 0.01102135
v 0.002298913 0.05514874 0.008345566
v 0.004866662 0.05216846 0.01214996
v 0.004519181 0.04573048 0.01214996
v 0.008961777 0.05318966 0.009582214
v 0.005263314 0.05013531 0.01337074
v 0.005323052 0.04568714 0.01409348
v 0.01023449 0.0454221 0.0119075
v 0.01002165 0.04987843 0.01128441
v 0.01347302 0.04969219 0.007397766
v 0.001163855 -0.05551815 -0.0111512
v -0.003660116 -0.05525776 0.000279541
v 0.002651415 -0.05559841 -0.008409195
v -0.003660116 -0.05525776 -0.01225288
v 0.005710053 -0.05576343 -0.007841949
v -0.008480363 -0.0549976 -0.01115311
v 0.008241596 -0.05590015 -0.003593216
v -0.009964451 -0.05491749 -0.008411407
v 0.008686581 -0.05592418 0.001338501
v -0.01302733 -0.05475216 -0.007844925
v 0.00654119 -0.05580829 0.003598862
v -0.01556181 -0.05461536 -0.003593216
v 0.00694972 -0.05583042 0.00669136
v -0.01600626 -0.05459141 0.001342163
v 0.003695545 -0.05565472 0.01041847
v -0.01386198 -0.05470714 0.003606644
v -0.0008499908 -0.05540943 0.01236626
v -0.01426826 -0.05468517 0.006694717
v -0.003660116 -0.05525776 0.01102135
v -0.01101577 -0.0548608 0.01041847
v -0.006470236 -0.05510608 0.01236626
vt 0.6909966 0.7218182
vt 0.6688659 0.7222824
vt 0.6898956 0.7272911
vt 0.6781979 0.7193887
vt 0.6922448 0.7131467
vt 0.679359 0.711472
vt 0.6929793 0.7045162
vt 0.6799836 0.7034147
vt 0.6933646 0.6991212
vt 0.6712761 0.6979775
vt 0.6936076 0.6937304
vt 0.6671567 0.7100761
vt 0.6544303 0.7099185
vt 0.6541944 0.7213857
vt 0.6804388 0.6934423
vt 0.6937323 0.6851215
vt 0.6807079 0.6853337
vt 0.6934533 0.6765304
vt 0.6805468 0.6772499
vt 0.6931627 0.6711283
vt 0.6715527 0.6729987
vt 0.6927464 0.6657861
vt 0.6682999 0.6853666
vt 0.6553501 0.684773
vt 0.6558999 0.6725402
vt 0.6799188 0.667124
vt 0.6918588 0.657346
vt 0.6788976 0.6587679
vt 0.6676376 0.6618633
vt 0.6562982 0.6618258
vt 0.6549561 0.6974766
vt 0.6374631 0.6625776
vt 0.6447904 0.6573571
vt 0.6299689 0.6585999
vt 0.6316189 0.6497046
vt 0.5186381 0.6507487
vt 0.5191655 0.6414466
vt 0.5184321 0.6543758
vt 0.5045626 0.6584719
vt 0.6428503 0.6680255
vt 0.5181861 0.6644468
vt 0.636394 0.672122
vt 0.5179601 0.6681376
vt 0.6420966 0.6832743
vt 0.6282233 0.6744654
vt 0.5175556 0.6775484
vt 0.6283275 0.6821866
vt 0.5172943 0.6869922
vt 0.6275239 0.6898293
vt 0.517205 0.6907103
vt 0.6354575 0.6928854
vt 0.5034182 0.6955366
vt 0.6412362 0.6975636
vt 0.5171031 0.7007871
vt 0.6350801 0.7021227
vt 0.5170166 0.7044573
vt 0.6412296 0.7116923
vt 0.6271133 0.7049162
vt 0.5169469 0.7139003
vt 0.6275197 0.7127337
vt 0.5170224 0.7233946
vt 0.6270006 0.7205241
vt 0.5170709 0.7271123
vt 0.6350545 0.7231796
vt 0.503418 0.7326889
vt 0.6413283 0.7275074
vt 0.5044174 0.578872
vt 0.5183682 0.5718741
vt 0.5053163 0.5703373
vt 0.5172706 0.5801995
vt 0.503958 0.5842257
vt 0.5296401 0.5749738
vt 0.5256388 0.5860894
vt 0.5036196 0.5896437
vt 0.5410347 0.5749745
vt 0.5166588 0.5903332
vt 0.503418 0.5982568
vt 0.5164509 0.5984104
vt 0.5036067 0.6068518
vt 0.5166755 0.6065335
vt 0.5037832 0.6122506
vt 0.5258927 0.6110451
vt 0.5041016 0.6176615
vt 0.528873 0.5984592
vt 0.5413725 0.5856864
vt 0.5526086 0.5705585
vt 0.5418488 0.5979215
vt 0.5172091 0.616504
vt 0.5049307 0.6263033
vt 0.5177958 0.6245546
vt 0.5063212 0.6349427
vt 0.518907 0.6324816
vt 0.5073984 0.6404138
vt 0.528195 0.6353627
vt 0.5299577 0.6231703
vt 0.5426326 0.6230741
vt 0.5427935 0.6345453
vt 0.5421729 0.6106238
vt 0.5557897 0.6249195
vt 0.5619748 0.615374
vt 0.5618317 0.6364486
vt 0.5555338 0.640744
vt 0.6801002 0.6409948
vt 0.6937606 0.6466426
vt 0.6801674 0.6372777
vt 0.5699008 0.6338347
vt 0.6802084 0.6278188
vt 0.5694871 0.6260074
vt 0.6801057 0.6183503
vt 0.5699971 0.6182301
vt 0.6800392 0.6146531
vt 0.6937628 0.6094843
vt 0.5558695 0.610793
vt 0.6799965 0.6045732
vt 0.5617213 0.6061323
vt 0.6799297 0.6008818
vt 0.5551256 0.5964913
vt 0.5696061 0.6031406
vt 0.6796384 0.5914729
vt 0.5689025 0.5954473
vt 0.6792014 0.5820305
vt 0.5691166 0.5877486
vt 0.678998 0.5783641
vt 0.5610026 0.5853779
vt 0.6926286 0.5724556
vt 0.5545194 0.5812407
vt 0.6788054 0.5682964
vt 0.5598826 0.5758421
vt 0.678618 0.5646429
vt 0.5658447 0.562912
vt 0.5674543 0.5718834
vt 0.6781514 0.5554245
vt 0.5134976 0.5485461
vt 0.5036876 0.541581
vt 0.5063574 0.5514233
vt 0.5087273 0.554688
vt 0.5109937 0.5405092
vt 0.503418 0.5313835
vt 0.5176091 0.5479598
vt 0.5231946 0.549952
vt 0.5110836 0.5320926
vt 0.5172648 0.53959
vt 0.5151565 0.5314801
vt 0.5047436 0.5275986
vt 0.5199585 0.527968
vt 0.5268562 0.5463734
vt 0.5233407 0.538698
vt 0.536716 0.5367374
vt 0.5344493 0.5500627
vt 0.5245037 0.5303371
vt 0.5250614 0.5555781
vt 0.5181305 0.5643076
vt 0.5213431 0.5667527
vt 0.5201522 0.5220677
vt 0.5109839 0.5156747
vt 0.518311 0.5183009
vt 0.5133755 0.5123935
vt 0.5219069 0.5068216
vt 0.5251809 0.5134403
vt 0.5315169 0.503418
vt 0.5279919 0.5191221
vt 0.5332127 0.5109264
vt 0.5350688 0.5146395
vt 0.5355487 0.503509
vt 0.5398852 0.5180987
vt 0.5307171 0.5246239
vt 0.5390277 0.5231464
vt 0.5455711 0.516432
vt 0.5488007 0.5057626
vt 0.5485564 0.5135365
vt 0.5526406 0.5070119
vt 0.5605834 0.513401
vt 0.5553048 0.5185647
vt 0.5667921 0.5214794
vt 0.5507731 0.5229976
vt 0.5601813 0.5254233
vt 0.5571958 0.5283723
vt 0.5679653 0.5253692
vt 0.555431 0.534003
vt 0.5463824 0.5272888
vt 0.5503575 0.534735
vt 0.5588043 0.5389057
vt 0.5699117 0.5386853
vt 0.5624427 0.5408283
vt 0.5699117 0.542693
vt 0.5662857 0.5522286
vt 0.559745 0.5488017
vt 0.560513 0.5606337
vt 0.5541302 0.545861
vt 0.5486909 0.5430101
vt 0.5547256 0.555558
vt 0.5510368 0.5536447
vt 0.5571958 0.5629323
vt 0.5451076 0.5536796
vt 0.5428356 0.5490916
vt 0.5414861 0.5583739
vt 0.5451407 0.5689023
vt 0.5334196 0.5561159
vt 0.5407724 0.5624676
vt 0.5413018 0.5701473
vt 0.5311184 0.5696446
vt 0.5323567 0.5623651
vt 0.5243814 0.55968
vt 0.6003735 0.5052881
vt 0.5921721 0.5246935
vt 0.6029024 0.5099432
vt 0.5921721 0.503418
vt 0.6081026 0.5109061
vt 0.5839772 0.505285
vt 0.6124065 0.518119
vt 0.5814542 0.5099394
vt 0.613163 0.5264912
vt 0.576247 0.5109011
vt 0.6095155 0.5303285
vt 0.571938 0.518119
vt 0.6102102 0.5355785
vt 0.5711825 0.5264974
vt 0.6046777 0.5419056
vt 0.5748279 0.5303416
vt 0.5969498 0.5452123
vt 0.5741372 0.5355841
vt 0.5921721 0.5429292
vt 0.5796669 0.5419056
vt 0.5873947 0.5452123
vn -0.04396218 -0.4895946 0.8708412
vn 0.01165013 0.2158785 0.9763507
vn -0.03045587 -0.5643314 0.8249863
vn -0.04739993 0.1353689 0.9896607
vn -0.5102221 -0.550616 0.660678
vn -0.567229 0.2123006 0.7957259
vn -0.8477954 -0.446421 0.2862712
vn -0.9156443 0.1822649 0.3582943
vn -0.8137623 -0.5222283 0.2550853
vn -0.9154872 0.2659877 0.3018837
vn -0.8589343 -0.4458281 0.2519306
vn -0.5604143 0.2515802 0.7890775
vn -0.5891351 -0.03550819 0.8072541
vn -0.003023901 -0.05604992 0.9984233
vn -0.9496692 0.1841863 0.2533845
vn -0.8066356 -0.5345405 -0.2522012
vn -0.9241883 0.231622 -0.3036892
vn -0.5517741 -0.462212 -0.694194
vn -0.6178843 0.1661723 -0.7685087
vn -0.5146455 -0.538222 -0.6674258
vn -0.5613807 0.2468157 -0.7898948
vn -0.5233966 -0.4637453 -0.7148401
vn -0.9143615 0.2706691 -0.3011334
vn -0.9512073 -0.01562207 -0.3081567
vn -0.5890065 -0.02441395 -0.8077595
vn -0.5295339 0.1613994 -0.832793
vn -0.03094115 -0.5764219 -0.8165663
vn 0.01000849 0.1811955 -0.9833961
vn 0.01217281 0.2206678 -0.9752731
vn -0.003421239 -0.06683027 -0.9977585
vn -0.9510989 -0.004759266 0.3088502
vn -0.822459 -0.02550644 -0.5682522
vn -0.01648871 -0.3079565 -0.9512576
vn -0.7057637 0.006058139 -0.7084214
vn -0.00208357 -0.03642863 -0.999334
vn -0.5577959 0.0402682 -0.8290008
vn 0.0004383259 0.01086226 -0.999941
vn -0.9412643 0.05080259 -0.3338272
vn -0.5418985 0.2414855 -0.8050036
vn -0.5883048 0.006206273 -0.8086155
vn -0.02645527 0.001427666 -0.999649
vn -0.2908134 -0.05422681 -0.9552418
vn -0.6138977 0.04329342 -0.7881975
vn -0.9200406 -0.2591991 -0.2938386
vn -0.4565828 -0.007391812 -0.8896502
vn -0.9489915 0.06210587 -0.3091244
vn -0.9509767 0.01477002 -0.3089096
vn -0.9586554 0.06188982 0.2777581
vn -0.8910208 0.01604645 0.4536787
vn -0.6096616 0.03289548 0.7919789
vn -0.7981994 -0.02701285 0.6017874
vn -0.9251347 0.2615755 0.2751435
vn -0.9515069 0.02579932 0.3065437
vn -0.9571518 0.05166286 -0.2849411
vn -0.9995959 -0.01584994 -0.02359648
vn -0.9370817 0.06075028 0.3437839
vn -0.5748484 -0.2777362 0.769683
vn -0.9867876 0.02123851 0.1606212
vn -0.5864235 0.042527 0.8088875
vn -0.5885904 -0.004670606 0.8084179
vn -0.03412674 0.01200086 0.9993455
vn 0.1522413 -0.04025072 0.9875235
vn 0.5654837 -0.03052255 0.8241945
vn 0.3249232 -0.0874442 0.9416891
vn -0.01369898 0.212915 0.9769746
vn -0.001372484 -0.02547662 0.9996744
vn 0.4700482 -0.5175521 -0.7149785
vn 0.01000849 0.1811955 -0.9833961
vn -0.03094115 -0.5764219 -0.8165663
vn 0.5434934 0.1035822 -0.832998
vn 0.4538197 -0.5906374 -0.6672294
vn 0.01217281 0.2206678 -0.9752731
vn 0.5848314 0.1850048 -0.7897756
vn 0.4991325 -0.5191018 -0.6938301
vn -0.003421239 -0.06683027 -0.9977585
vn 0.6325341 0.0986988 -0.7682182
vn 0.7443778 -0.6183139 -0.2521696
vn 0.9437622 0.1307449 -0.303675
vn 0.8059357 -0.5354833 0.252439
vn 0.9638602 0.08078945 0.2538635
vn 0.7530068 -0.6066124 0.2549555
vn 0.9388713 0.1658362 0.3016935
vn 0.7951286 -0.5348878 0.2857715
vn 0.9381338 0.1706988 -0.3012751
vn 0.5832349 -0.08758125 -0.8075683
vn -0.01648871 -0.3079565 -0.9512576
vn 0.9439366 -0.1182543 -0.3082202
vn 0.9301382 0.08260994 0.3577967
vn 0.4481334 -0.6023052 0.6606095
vn 0.5869576 0.1500328 0.7955948
vn -0.008986763 -0.4914842 0.8708401
vn 0.06169575 0.1294773 0.9896612
vn -0.03045587 -0.5643314 0.8249863
vn 0.01165013 0.2158785 0.9763507
vn 0.584324 0.1898524 0.7890004
vn 0.5819944 -0.09860692 0.8071921
vn -0.003023901 -0.05604992 0.9984233
vn 0.9451624 -0.1072288 0.3084967
vn 0.5417053 -0.3380459 0.7695975
vn 0.9921096 -0.1234533 -0.02185668
vn -0.3324463 -0.05196119 0.9416897
vn -0.001372484 -0.02547662 0.9996744
vn -0.5654874 0.03052208 0.8241919
vn -0.01369898 0.212915 0.9769746
vn 0.03523153 0.008257403 0.999345
vn -0.1556924 -0.02363202 0.9875229
vn 0.5874477 -0.02082595 0.8089942
vn 0.5845451 -0.06804723 0.8085027
vn 0.9389337 -0.04051816 0.3417045
vn 0.9837062 -0.08512584 0.1583531
vn 0.9575148 -0.05168168 -0.2837155
vn 0.9314095 0.1618808 0.3259924
vn 0.9479442 -0.07671156 0.3090584
vn 0.6078367 -0.0328047 0.7933843
vn 0.7888668 -0.1124853 0.6041822
vn 0.9603485 -0.04167198 0.2756703
vn 0.8868331 -0.3566309 -0.293839
vn 0.8885857 -0.07999494 0.4516816
vn 0.950178 -0.040407 -0.3090775
vn 0.947066 -0.08755644 -0.3088684
vn 0.6166176 -0.0231093 -0.7869235
vn 0.4550335 -0.0565854 -0.8886747
vn 0.02528223 -0.001365768 -0.9996794
vn 0.2817026 -0.08501907 -0.9557276
vn 0.6029556 0.1801713 -0.7771633
vn 0.5835274 -0.05705344 -0.8100868
vn 0.9405845 -0.0507753 -0.3357417
vn 0.8133678 -0.1139786 -0.5704749
vn 0.5605903 -0.0201057 -0.8278491
vn -0.00208357 -0.03642863 -0.999334
vn 0.7038096 -0.0700308 -0.7069284
vn 0.0004383259 0.01086226 -0.999941
vn 0.9242519 0.2515316 0.2872111
vn 0.950178 -0.040407 -0.3090775
vn 0.9603485 -0.04167198 0.2756703
vn 0.6078367 -0.0328047 0.7933843
vn 0.9169015 0.2714457 -0.2925899
vn 0.6166176 -0.0231093 -0.7869235
vn 0.7931533 0.5674471 0.22116
vn 0.9314095 0.1618808 0.3259924
vn 0.5838755 0.2699591 -0.7656444
vn 0.673909 0.7202101 -0.1647545
vn 0.5366116 0.5536945 -0.6367655
vn 0.02528223 -0.001365768 -0.9996794
vn 0.6029556 0.1801713 -0.7771633
vn 0.3573824 0.9256869 0.1240223
vn 0.3714377 0.9262388 -0.06415311
vn 0.05389878 0.9985464 0
vn 0.2105565 0.9350608 0.2851794
vn 0.2637579 0.9307476 -0.2532597
vn 0.7920649 0.5402441 0.2841998
vn 0.9575148 -0.05168168 -0.2837155
vn 0.9389337 -0.04051816 0.3417045
vn 0.4771132 0.5849214 -0.6559192
vn 0.9405845 -0.0507753 -0.3357417
vn 0.5714676 0.270492 -0.7747636
vn 0.5605903 -0.0201057 -0.8278491
vn 0.0004383259 0.01086226 -0.999941
vn 0.01742053 0.3204705 -0.9470983
vn -0.5577959 0.0402682 -0.8290008
vn 0.07948721 0.751745 -0.6546459
vn -0.5370741 0.3304 -0.7761361
vn -0.4172585 0.605455 -0.6777313
vn -0.9412643 0.05080259 -0.3338272
vn -0.5418985 0.2414855 -0.8050036
vn 0.0886392 0.9417923 -0.3242999
vn -0.124253 0.9516864 -0.2808098
vn -0.4525051 0.6347405 -0.6263735
vn -0.02645527 0.001427666 -0.999649
vn -0.5495195 0.3310641 -0.7670885
vn -0.6138977 0.04329342 -0.7881975
vn -0.9489915 0.06210587 -0.3091244
vn -0.8821446 0.3690972 -0.2925548
vn -0.9586554 0.06188982 0.2777581
vn -0.5690526 0.7865812 -0.2397276
vn -0.8910815 0.3494172 0.2896229
vn -0.7505545 0.6240504 0.217322
vn -0.6096616 0.03289548 0.7919789
vn -0.9251347 0.2615755 0.2751435
vn -0.245164 0.9597927 -0.1367213
vn -0.269857 0.9595242 0.08056478
vn -0.7123804 0.6483364 0.2686521
vn -0.9571518 0.05166286 -0.2849411
vn -0.8862291 0.3493115 0.3042687
vn -0.9370817 0.06075028 0.3437839
vn -0.5864235 0.042527 0.8088875
vn -0.5386107 0.3499934 0.7664223
vn -0.03412674 0.01200086 0.9993455
vn -0.3753027 0.7767575 0.5057624
vn -0.1713219 0.955475 0.2402424
vn 0.008521807 0.3009304 0.953608
vn -0.003438798 0.5831484 0.8123584
vn 0.5654837 -0.03052255 0.8241945
vn -0.01369898 0.212915 0.9769746
vn 0.02774166 0.9434822 0.33026
vn 0.05779274 0.6071397 0.7924907
vn -0.5654874 0.03052208 0.8241919
vn 0.393024 0.7350111 0.5525312
vn 0.02391759 0.3001062 0.9536059
vn 0.03523153 0.008257403 0.999345
vn 0.5874477 -0.02082595 0.8089942
vn 0.5731881 0.290266 0.7662904
vn 0.9195076 0.2517644 0.3018617
vn 0.4700482 -0.5175521 -0.7149785
vn -0.05389124 -0.9985468 -1.112216E-06
vn 0.4538197 -0.5906374 -0.6672294
vn -0.03094115 -0.5764219 -0.8165663
vn 0.4991325 -0.5191018 -0.6938301
vn -0.5233966 -0.4637453 -0.7148401
vn 0.7443778 -0.6183139 -0.2521696
vn -0.5146455 -0.538222 -0.6674258
vn 0.8059357 -0.5354833 0.252439
vn -0.5517741 -0.462212 -0.694194
vn 0.7530068 -0.6066124 0.2549555
vn -0.8066356 -0.5345405 -0.2522012
vn 0.7951286 -0.5348878 0.2857715
vn -0.8589343 -0.4458281 0.2519306
vn 0.4481334 -0.6023052 0.6606095
vn -0.8137623 -0.5222283 0.2550853
vn -0.008986763 -0.4914842 0.8708401
vn -0.8477954 -0.446421 0.2862712
vn -0.03045587 -0.5643314 0.8249863
vn -0.5102221 -0.550616 0.660678
vn -0.04396218 -0.4895946 0.8708412
usemtl Mat_Tools
f 1/1/1 3/3/3 2/2/2 
f 1/1/1 2/2/2 4/4/4 
f 5/5/5 1/1/1 4/4/4 
f 5/5/5 4/4/4 6/6/6 
f 6/6/6 4/4/4 2/2/2 
f 7/7/7 5/5/5 6/6/6 
f 7/7/7 6/6/6 8/8/8 
f 9/9/9 7/7/7 8/8/8 
f 9/9/9 8/8/8 10/10/10 
f 11/11/11 9/9/9 10/10/10 
f 8/8/8 12/12/12 10/10/10 
f 8/8/8 6/6/6 12/12/12 
f 6/6/6 2/2/2 12/12/12 
f 13/13/13 12/12/12 2/2/2 
f 10/10/10 12/12/12 13/13/13 
f 13/13/13 2/2/2 14/14/14 
f 11/11/11 10/10/10 15/15/15 
f 16/16/16 11/11/11 15/15/15 
f 16/16/16 15/15/15 17/17/17 
f 17/17/17 15/15/15 10/10/10 
f 18/18/18 16/16/16 17/17/17 
f 18/18/18 17/17/17 19/19/19 
f 20/20/20 18/18/18 19/19/19 
f 20/20/20 19/19/19 21/21/21 
f 22/22/22 20/20/20 21/21/21 
f 19/19/19 17/17/17 23/23/23 
f 17/17/17 10/10/10 23/23/23 
f 19/19/19 23/23/23 21/21/21 
f 10/10/10 24/24/24 23/23/23 
f 21/21/21 23/23/23 24/24/24 
f 21/21/21 24/24/24 25/25/25 
f 22/22/22 21/21/21 26/26/26 
f 27/27/27 22/22/22 26/26/26 
f 27/27/27 26/26/26 28/28/28 
f 29/29/29 28/28/28 26/26/26 
f 29/29/29 26/26/26 21/21/21 
f 29/29/29 21/21/21 25/25/25 
f 29/29/29 25/25/25 30/30/30 
f 10/10/10 31/31/31 24/24/24 
f 10/10/10 13/13/13 31/31/31 
f 30/30/30 25/25/25 32/32/32 
f 30/30/30 32/32/32 33/33/33 
f 33/33/33 32/32/32 34/34/34 
f 33/33/33 34/34/34 35/35/35 
f 35/35/35 34/34/34 36/36/36 
f 35/35/35 36/36/36 37/37/37 
f 38/38/38 36/36/36 34/34/34 
f 38/38/38 34/34/34 32/32/32 
f 32/32/32 39/39/39 38/38/38 
f 32/32/32 40/40/40 39/39/39 
f 32/32/32 25/25/25 40/40/40 
f 40/40/40 41/41/41 39/39/39 
f 40/40/40 42/42/42 41/41/41 
f 25/25/25 42/42/42 40/40/40 
f 42/42/42 43/43/43 41/41/41 
f 25/25/25 44/44/44 42/42/42 
f 25/25/25 24/24/24 44/44/44 
f 42/42/42 45/45/45 43/43/43 
f 45/45/45 46/46/46 43/43/43 
f 42/42/42 47/47/47 45/45/45 
f 45/45/45 47/47/47 46/46/46 
f 42/42/42 44/44/44 47/47/47 
f 47/47/47 48/48/48 46/46/46 
f 47/47/47 49/49/49 48/48/48 
f 44/44/44 49/49/49 47/47/47 
f 50/50/50 48/48/48 49/49/49 
f 24/24/24 51/51/51 44/44/44 
f 44/44/44 51/51/51 49/49/49 
f 50/50/50 49/49/49 51/51/51 
f 51/51/51 52/52/52 50/50/50 
f 24/24/24 31/31/31 51/51/51 
f 51/51/51 53/53/53 52/52/52 
f 51/51/51 31/31/31 53/53/53 
f 53/53/53 54/54/54 52/52/52 
f 53/53/53 55/55/55 54/54/54 
f 31/31/31 55/55/55 53/53/53 
f 55/55/55 56/56/56 54/54/54 
f 31/31/31 57/57/57 55/55/55 
f 31/31/31 13/13/13 57/57/57 
f 55/55/55 58/58/58 56/56/56 
f 58/58/58 59/59/59 56/56/56 
f 55/55/55 60/60/60 58/58/58 
f 58/58/58 60/60/60 59/59/59 
f 55/55/55 57/57/57 60/60/60 
f 60/60/60 61/61/61 59/59/59 
f 60/60/60 62/62/62 61/61/61 
f 57/57/57 62/62/62 60/60/60 
f 63/63/63 61/61/61 62/62/62 
f 64/64/64 57/57/57 13/13/13 
f 57/57/57 64/64/64 62/62/62 
f 63/63/63 62/62/62 64/64/64 
f 64/64/64 13/13/13 14/14/14 
f 64/64/64 65/65/65 63/63/63 
f 66/66/66 64/64/64 14/14/14 
f 64/64/64 66/66/66 65/65/65 
f 67/67/67 69/69/69 68/68/68 
f 67/67/67 68/68/68 70/70/70 
f 71/71/71 67/67/67 70/70/70 
f 70/70/70 68/68/68 72/72/72 
f 71/71/71 70/70/70 73/73/73 
f 70/70/70 72/72/72 73/73/73 
f 74/74/74 71/71/71 73/73/73 
f 73/73/73 72/72/72 75/75/75 
f 74/74/74 73/73/73 76/76/76 
f 77/77/77 74/74/74 76/76/76 
f 77/77/77 76/76/76 78/78/78 
f 78/78/78 76/76/76 73/73/73 
f 79/79/79 77/77/77 78/78/78 
f 79/79/79 78/78/78 80/80/80 
f 81/81/81 79/79/79 80/80/80 
f 81/81/81 80/80/80 82/82/82 
f 83/83/83 81/81/81 82/82/82 
f 80/80/80 84/84/84 82/82/82 
f 80/80/80 78/78/78 84/84/84 
f 78/78/78 73/73/73 84/84/84 
f 73/73/73 75/75/75 85/85/85 
f 85/85/85 75/75/75 86/86/86 
f 87/87/87 84/84/84 73/73/73 
f 82/82/82 84/84/84 87/87/87 
f 87/87/87 73/73/73 85/85/85 
f 83/83/83 82/82/82 88/88/88 
f 89/89/89 83/83/83 88/88/88 
f 89/89/89 88/88/88 90/90/90 
f 90/90/90 88/88/88 82/82/82 
f 91/91/91 89/89/89 90/90/90 
f 91/91/91 90/90/90 92/92/92 
f 93/93/93 91/91/91 92/92/92 
f 93/93/93 92/92/92 94/94/94 
f 92/92/92 90/90/90 95/95/95 
f 92/92/92 95/95/95 94/94/94 
f 90/90/90 82/82/82 95/95/95 
f 94/94/94 95/95/95 96/96/96 
f 96/96/96 95/95/95 82/82/82 
f 94/94/94 96/96/96 97/97/97 
f 82/82/82 87/87/87 98/98/98 
f 96/96/96 82/82/82 98/98/98 
f 97/97/97 96/96/96 99/99/99 
f 100/100/100 96/96/96 98/98/98 
f 100/100/100 99/99/99 96/96/96 
f 97/97/97 99/99/99 101/101/101 
f 97/97/97 101/101/101 102/102/102 
f 102/102/102 101/101/101 103/103/103 
f 102/102/102 103/103/103 104/104/104 
f 101/101/101 105/105/105 103/103/103 
f 101/101/101 106/106/106 105/105/105 
f 106/106/106 107/107/107 105/105/105 
f 101/101/101 108/108/108 106/106/106 
f 106/106/106 108/108/108 107/107/107 
f 101/101/101 99/99/99 108/108/108 
f 108/108/108 109/109/109 107/107/107 
f 99/99/99 110/110/110 108/108/108 
f 108/108/108 110/110/110 109/109/109 
f 99/99/99 100/100/100 110/110/110 
f 111/111/111 109/109/109 110/110/110 
f 111/111/111 110/110/110 100/100/100 
f 100/100/100 112/112/112 111/111/111 
f 100/100/100 113/113/113 112/112/112 
f 113/113/113 114/114/114 112/112/112 
f 100/100/100 98/98/98 113/113/113 
f 113/113/113 115/115/115 114/114/114 
f 98/98/98 115/115/115 113/113/113 
f 115/115/115 116/116/116 114/114/114 
f 98/98/98 117/117/117 115/115/115 
f 98/98/98 87/87/87 117/117/117 
f 115/115/115 118/118/118 116/116/116 
f 118/118/118 119/119/119 116/116/116 
f 115/115/115 120/120/120 118/118/118 
f 118/118/118 120/120/120 119/119/119 
f 115/115/115 117/117/117 120/120/120 
f 120/120/120 121/121/121 119/119/119 
f 120/120/120 122/122/122 121/121/121 
f 117/117/117 122/122/122 120/120/120 
f 123/123/123 121/121/121 122/122/122 
f 124/124/124 117/117/117 87/87/87 
f 117/117/117 124/124/124 122/122/122 
f 123/123/123 122/122/122 124/124/124 
f 124/124/124 125/125/125 123/123/123 
f 124/124/124 87/87/87 85/85/85 
f 124/124/124 126/126/126 125/125/125 
f 124/124/124 85/85/85 126/126/126 
f 126/126/126 127/127/127 125/125/125 
f 85/85/85 128/128/128 126/126/126 
f 126/126/126 128/128/128 127/127/127 
f 85/85/85 86/86/86 128/128/128 
f 128/128/128 129/129/129 127/127/127 
f 128/128/128 86/86/86 130/130/130 
f 128/128/128 131/131/131 129/129/129 
f 128/128/128 130/130/130 131/131/131 
f 131/131/131 132/132/132 129/129/129 
f 131/131/131 130/130/130 132/132/132 
f 133/133/133 135/135/135 134/134/134 
f 136/136/136 135/135/135 133/133/133 
f 133/133/133 134/134/134 137/137/137 
f 137/137/137 134/134/134 138/138/138 
f 136/136/136 133/133/133 139/139/139 
f 139/139/139 133/133/133 137/137/137 
f 140/140/140 136/136/136 139/139/139 
f 137/137/137 138/138/138 141/141/141 
f 139/139/139 137/137/137 142/142/142 
f 142/142/142 137/137/137 141/141/141 
f 143/143/143 141/141/141 138/138/138 
f 142/142/142 141/141/141 143/143/143 
f 143/143/143 138/138/138 144/144/144 
f 144/144/144 145/145/145 143/143/143 
f 146/146/146 139/139/139 142/142/142 
f 146/146/146 140/140/140 139/139/139 
f 147/147/147 142/142/142 143/143/143 
f 147/147/147 143/143/143 145/145/145 
f 146/146/146 142/142/142 147/147/147 
f 146/146/146 147/147/147 148/148/148 
f 149/149/149 146/146/146 148/148/148 
f 140/140/140 146/146/146 149/149/149 
f 147/147/147 150/150/150 148/148/148 
f 147/147/147 145/145/145 150/150/150 
f 140/140/140 149/149/149 151/151/151 
f 152/152/152 140/140/140 151/151/151 
f 151/151/151 153/153/153 152/152/152 
f 154/154/154 150/150/150 145/145/145 
f 145/145/145 155/155/155 154/154/154 
f 155/155/155 156/156/156 154/154/154 
f 155/155/155 157/157/157 156/156/156 
f 156/156/156 157/157/157 158/158/158 
f 156/156/156 158/158/158 159/159/159 
f 154/154/154 156/156/156 159/159/159 
f 159/159/159 158/158/158 160/160/160 
f 150/150/150 154/154/154 161/161/161 
f 154/154/154 159/159/159 161/161/161 
f 159/159/159 160/160/160 162/162/162 
f 161/161/161 159/159/159 162/162/162 
f 163/163/163 162/162/162 160/160/160 
f 161/161/161 162/162/162 163/163/163 
f 163/163/163 160/160/160 164/164/164 
f 164/164/164 165/165/165 163/163/163 
f 150/150/150 161/161/161 166/166/166 
f 166/166/166 161/161/161 163/163/163 
f 166/166/166 163/163/163 165/165/165 
f 150/150/150 166/166/166 148/148/148 
f 166/166/166 165/165/165 167/167/167 
f 166/166/166 167/167/167 148/148/148 
f 168/168/168 167/167/167 165/165/165 
f 165/165/165 169/169/169 168/168/168 
f 169/169/169 170/170/170 168/168/168 
f 169/169/169 171/171/171 170/170/170 
f 170/170/170 171/171/171 172/172/172 
f 170/170/170 172/172/172 173/173/173 
f 168/168/168 170/170/170 173/173/173 
f 173/173/173 172/172/172 174/174/174 
f 167/167/167 168/168/168 175/175/175 
f 168/168/168 173/173/173 175/175/175 
f 173/173/173 174/174/174 176/176/176 
f 175/175/175 173/173/173 176/176/176 
f 177/177/177 176/176/176 174/174/174 
f 175/175/175 176/176/176 177/177/177 
f 177/177/177 174/174/174 178/178/178 
f 178/178/178 179/179/179 177/177/177 
f 167/167/167 175/175/175 180/180/180 
f 180/180/180 175/175/175 177/177/177 
f 167/167/167 180/180/180 148/148/148 
f 179/179/179 180/180/180 177/177/177 
f 179/179/179 181/181/181 180/180/180 
f 180/180/180 181/181/181 148/148/148 
f 181/181/181 179/179/179 182/182/182 
f 179/179/179 183/183/183 182/182/182 
f 183/183/183 184/184/184 182/182/182 
f 183/183/183 185/185/185 184/184/184 
f 184/184/184 185/185/185 186/186/186 
f 184/184/184 186/186/186 187/187/187 
f 182/182/182 184/184/184 187/187/187 
f 187/187/187 186/186/186 188/188/188 
f 181/181/181 182/182/182 189/189/189 
f 182/182/182 187/187/187 189/189/189 
f 181/181/181 190/190/190 148/148/148 
f 181/181/181 189/189/189 190/190/190 
f 187/187/187 188/188/188 191/191/191 
f 189/189/189 187/187/187 191/191/191 
f 192/192/192 191/191/191 188/188/188 
f 189/189/189 191/191/191 192/192/192 
f 190/190/190 189/189/189 192/192/192 
f 192/192/192 188/188/188 193/193/193 
f 193/193/193 194/194/194 192/192/192 
f 190/190/190 192/192/192 194/194/194 
f 190/190/190 195/195/195 148/148/148 
f 190/190/190 194/194/194 195/195/195 
f 195/195/195 149/149/149 148/148/148 
f 196/196/196 195/195/195 194/194/194 
f 194/194/194 197/197/197 196/196/196 
f 195/195/195 198/198/198 149/149/149 
f 195/195/195 196/196/196 198/198/198 
f 149/149/149 198/198/198 151/151/151 
f 197/197/197 199/199/199 196/196/196 
f 197/197/197 200/200/200 199/199/199 
f 199/199/199 200/200/200 201/201/201 
f 196/196/196 199/199/199 202/202/202 
f 199/199/199 201/201/201 202/202/202 
f 196/196/196 202/202/202 198/198/198 
f 202/202/202 201/201/201 153/153/153 
f 198/198/198 203/203/203 151/151/151 
f 198/198/198 202/202/202 203/203/203 
f 202/202/202 153/153/153 203/203/203 
f 151/151/151 203/203/203 153/153/153 
f 204/204/204 206/206/206 205/205/205 
f 207/207/207 204/204/204 205/205/205 
f 208/208/208 205/205/205 206/206/206 
f 209/209/209 207/207/207 205/205/205 
f 208/208/208 210/210/210 205/205/205 
f 209/209/209 205/205/205 211/211/211 
f 210/210/210 212/212/212 205/205/205 
f 213/213/213 211/211/211 205/205/205 
f 212/212/212 214/214/214 205/205/205 
f 215/215/215 213/213/213 205/205/205 
f 216/216/216 205/205/205 214/214/214 
f 217/217/217 215/215/215 205/205/205 
f 216/216/216 218/218/218 205/205/205 
f 217/217/217 205/205/205 219/219/219 
f 218/218/218 220/220/220 205/205/205 
f 221/221/221 219/219/219 205/205/205 
f 220/220/220 222/222/222 205/205/205 
f 223/223/223 221/221/221 205/205/205 
f 224/224/224 205/205/205 222/222/222 
f 224/224/224 223/223/223 205/205/205 
