# exported by StudySceneExporter from mesh 'Wrench_L_low'
mtllib materials.mtl
v -3.814697E-08 -0.006197738 -0.1571597
v 0.005928001 -0.006723556 -0.1551221
v 0.005928001 -0.01070167 -0.1390207
v -0.005928001 -0.01070167 -0.1390207
v -0.005928001 -0.006723556 -0.1551221
v 0.005928001 -0.009738235 -0.1349529
v -0.005928001 -0.009738235 -0.1349529
v 0.005928001 -0.00650856 -0.1320705
v -0.005928001 -0.00650856 -0.1320705
v 0.005928001 -0.001768417 -0.1297288
v -0.005928001 -0.001768417 -0.1297286
v 0.005928001 0.003966446 -0.1282366
v -0.005928001 0.003966446 -0.1282365
v 0.005928001 0.009242324 -0.1287832
v -0.005928001 0.009242324 -0.128783
v 0.005928001 0.01354347 -0.1307661
v -0.005928001 0.01354347 -0.130766
v -0.005928001 0.01554161 -0.1345218
v 0.005928001 0.01554161 -0.1345219
v 0 0.01950142 -0.1503397
v -0.005928001 0.0189756 -0.1483021
v 0.005928001 0.0189756 -0.1483022
v -3.814697E-08 -0.01011543 -0.1577168
v 0.005928001 -0.006723556 -0.1551221
v -3.814697E-08 -0.006197738 -0.1571597
v 0.005928001 -0.00934288 -0.155571
v 0 -0.01716972 -0.1517663
v 0.005928001 -0.01601356 -0.1499151
v 0 -0.024589 -0.1416619
v 0.005928001 -0.01070167 -0.1390207
v 0.005928001 -0.02300301 -0.1407435
v 0 -0.02723518 -0.1323565
v 0.005928001 -0.0249543 -0.1321233
v 0 -0.02498787 -0.1229735
v 0.005928001 -0.02305122 -0.123625
v 0.005928001 -0.009738235 -0.1349529
v 0.005928001 -0.0172744 -0.1161562
v -3.814697E-08 -0.01886803 -0.1150406
v 0.005928001 -0.00650856 -0.1320705
v -3.814697E-08 -0.01380043 -0.106952
v 0.005928001 -0.009041366 -0.111393
v 0.005928001 -0.001768417 -0.1297288
v 0.004380608 -0.01241524 -0.108153
v 0 -0.01072701 -0.09241989
v 0.004380608 -0.007484817 -0.1040805
v 0.005928001 0.001269913 -0.1093847
v 0.005928001 0.003966446 -0.1282366
v 0.00371788 -0.009611282 -0.09241997
v 0.00371788 -0.009611282 0.1090096
v 0.00371788 0.009914016 -0.09241997
v 0 -0.01072701 0.1090098
v 0.004380646 0.0002413177 -0.1026736
v 0.005928001 0.01098289 -0.1098063
v 0.005928001 0.009242324 -0.1287832
v 0.005928001 0.01888039 -0.1141589
v 0.005928001 0.01354347 -0.1307661
v 0.004380608 0.006206894 -0.1030455
v 0.004380646 0.01274178 -0.1053023
v 0.00439785 -0.01174614 0.1166007
v 0 -0.01259392 0.115768
v 0.005928001 -0.01387306 0.1222283
v 0 -0.01487282 0.1215118
v -3.814697E-08 -0.01947014 0.1283922
v 0.005928001 0.02426704 -0.1223903
v 0.005928001 0.01554161 -0.1345219
v 0.005928001 -0.01816399 0.1286501
v 0 -0.02108467 0.1365083
v 0.005928001 -0.01967079 0.1362252
v -3.814697E-08 -0.01947014 0.1446244
v 0.00592804 -0.01816414 0.1438003
v -3.814697E-08 -0.01487282 0.1515049
v 0.005928001 -0.01387306 0.1502221
v -3.814697E-08 -0.007992324 0.1561024
v 0.00592804 -0.007451401 0.154513
v 0 0.0001238251 0.1577168
v 0.00592804 0.0001238251 0.1560198
v -3.814697E-08 0.008239822 0.1561024
v 0.00592804 0.007698898 0.154513
v -3.814697E-08 0.01512032 0.1515049
v 0.00592804 0.01412056 0.1502221
v -3.814697E-08 0.01971779 0.1446244
v 0.005928001 0.01841164 0.1438003
v -3.814697E-08 0.02133217 0.1365083
v 0.005928001 0.01991844 0.1362252
v -3.814697E-08 0.01971779 0.1283922
v 0.00592804 0.01841164 0.1286501
v 0 0.01512032 0.1215118
v 0.005928001 0.01412056 0.1222283
v 0 0.01284157 0.115768
v 0.00439785 0.01199364 0.1166007
v 0 0.01158195 0.1090098
v 0.005928001 0.0001238251 0.1529977
v 0.005928001 0.006542282 0.151721
v 0.005928001 0.01198372 0.1480851
v 0.00592804 0.01561958 0.1426438
v 0.005928001 0.01689629 0.1362252
v 0.005928001 0.01561958 0.1298066
v 0.005928001 -0.006294785 0.151721
v 0.00592804 -0.01173622 0.1480851
v 0.00592804 -0.01537193 0.1426438
v 0.005928001 -0.01664879 0.1362252
v 0.005928001 -0.01537193 0.1298066
v 0.005928001 -0.01173622 0.1243653
v 0.004657669 -0.006294785 0.1517208
v 0.004657669 -0.01173622 0.1480851
v 0.004657669 -0.01537193 0.1426437
v 0.004657669 -0.01664879 0.136225
v 0.004657669 -0.01537193 0.1298066
v 0.004657669 -0.01173622 0.1243652
v 0.004657707 0.0001238251 0.1529977
v 0.004657669 0.006542282 0.1517208
v 0.004657669 0.01198372 0.1480851
v 0.004657669 0.01561958 0.1426437
v 0.004657707 0.01689629 0.136225
v 0.004657669 -0.005164871 0.148993
v 0.004657669 0.0001238251 0.1515578
v 0.004657669 -0.01071815 0.147067
v 0.004657669 0.005412521 0.148993
v 0.004657707 0.01096565 0.147067
v 0.004657707 -0.01264427 0.1415137
v 0.004657707 0.01289177 0.1415137
v 0.004657669 -0.01520897 0.136225
v 0.004657669 -0.01264427 0.1309365
v 0.004657707 -0.01071815 0.1253832
v 0.004657707 0.01545647 0.136225
v 0.004657669 -0.005164871 0.1234571
v 0.004657669 0.01561958 0.1298066
v 0.004657669 0.01289177 0.1309365
v 0.004657669 -0.006294785 0.1207293
v 0.004657669 0.0001238251 0.1208923
v 0.005928001 0.01198372 0.1243653
v 0.004657669 0.01198372 0.1243652
v 0.004657707 0.01096565 0.1253832
v 0.00592804 -0.006294785 0.1207294
v 0.004657707 0.0001238251 0.1194526
v 0.004657669 0.005412521 0.1234571
v 0.004657669 0.006542282 0.1207293
v 0.00592804 0.006542282 0.1207294
v 0.005928001 0.0001238251 0.1194527
v 0.005928001 -0.007451248 0.1179374
v 0.005928001 0.007698898 0.1179374
v 0.005928001 0.0001238251 0.1164306
v 0.00439785 -0.006300125 0.1130271
v 0.00439785 0.0001238251 0.1117721
v 0.00439785 0.006547775 0.1130271
v 0.00371788 0.009914016 0.1090096
v 0 0.01158195 -0.09241989
v -3.814697E-08 0.01468132 -0.1045923
v -3.814697E-08 0.02104988 -0.11297
v -3.814697E-08 0.02619621 -0.1211642
v 0 0.02723518 -0.1315642
v 0.005928001 0.02530159 -0.1315135
v 0 0.02567146 -0.1402307
v 0.005928001 0.02377739 -0.1398615
v 0 0.02312965 -0.1488743
v 0.005928001 0.02159218 -0.1473923
v 0.005928001 0.0189756 -0.1483022
v 0 0.01950142 -0.1503397
v -3.814697E-08 -0.01011543 -0.1577168
v -3.814697E-08 -0.006197738 -0.1571597
v -0.005928001 -0.006723556 -0.1551221
v -0.005928001 -0.00934288 -0.155571
v -0.005928001 -0.01070167 -0.1390207
v -0.005928001 -0.01601356 -0.1499149
v 0 -0.01716972 -0.1517663
v -0.005928001 -0.02300301 -0.1407435
v 0 -0.024589 -0.1416619
v -0.005928001 -0.0249543 -0.1321233
v -0.005928001 -0.009738235 -0.1349529
v 0 -0.02723518 -0.1323565
v -0.005928001 -0.02305122 -0.123625
v -0.005928001 -0.00650856 -0.1320705
v -0.005928001 -0.0172744 -0.1161562
v 0 -0.02498787 -0.1229735
v -3.814697E-08 -0.01886803 -0.1150406
v -0.005928001 -0.001768417 -0.1297286
v -3.814697E-08 -0.01380043 -0.106952
v -0.005928001 -0.009041366 -0.111393
v -0.005928001 0.003966446 -0.1282365
v -0.004380646 -0.01241524 -0.108153
v 0 -0.01072701 -0.09241989
v -0.00371788 -0.009611282 -0.09241989
v 0 -0.01072701 0.1090098
v -0.005928001 0.001269913 -0.1093847
v -0.005928001 0.009242324 -0.128783
v -0.004380646 -0.007484817 -0.1040804
v -0.005928001 0.01098289 -0.1098063
v -0.005928001 0.01354347 -0.130766
v -0.005928001 0.01888039 -0.1141589
v -0.005928001 0.01554161 -0.1345218
v -0.004380646 0.0002413177 -0.1026738
v -0.004380646 0.006206894 -0.1030456
v -0.00371788 -0.009611282 0.1090096
v -0.00371788 0.009914016 0.1090096
v -0.00371788 0.009914016 -0.09241989
v -0.004397812 -0.01174614 0.1166007
v 0 -0.01259392 0.115768
v -0.005928001 -0.01387306 0.1222283
v 0 -0.01487282 0.1215118
v -0.00439785 -0.006300125 0.113027
v -0.004380646 0.01274178 -0.1053023
v 0 0.01158195 -0.09241989
v -3.814697E-08 0.01468132 -0.1045923
v -3.814697E-08 0.02104988 -0.11297
v 0 0.01158195 0.1090098
v -0.005928001 0.02426704 -0.1223903
v -3.814697E-08 0.02619621 -0.1211642
v -0.005928001 0.02530159 -0.1315134
v 0 0.02723518 -0.1315642
v -0.005928001 0.02377739 -0.1398614
v 0 0.02567146 -0.1402307
v -0.005928001 0.0189756 -0.1483021
v -0.005928001 0.02159218 -0.1473923
v 0 0.02312965 -0.1488743
v 0 0.01950142 -0.1503397
v -0.004397812 0.01199364 0.1166007
v 0 0.01284157 0.115768
v -0.005928001 0.01412056 0.1222283
v 0 0.01512032 0.1215118
v -3.814697E-08 0.01971779 0.1283922
v -0.005928001 0.01841164 0.1286501
v -3.814697E-08 0.02133217 0.1365083
v -0.005928001 0.01991844 0.1362252
v -3.814697E-08 0.01971779 0.1446244
v -0.005928001 0.01841164 0.1438003
v -3.814697E-08 0.01512032 0.1515049
v -0.005928001 0.01412056 0.1502221
v -3.814697E-08 0.008239822 0.1561024
v -0.005928001 0.007698898 0.154513
v 0 0.0001238251 0.1577168
v -0.005928001 0.0001238251 0.1560197
v -3.814697E-08 -0.007992324 0.1561024
v -0.005928001 -0.007451401 0.154513
v -3.814697E-08 -0.01487282 0.1515049
v -0.005928001 -0.01387306 0.1502221
v -3.814697E-08 -0.01947014 0.1446244
v -0.005928001 -0.01816414 0.1438003
v 0 -0.02108467 0.1365083
v -0.005928001 -0.01967079 0.1362252
v -3.814697E-08 -0.01947014 0.1283922
v -0.005928001 -0.01816399 0.1286501
v -0.005928001 0.006542282 0.151721
v -0.005928001 0.0001238251 0.1529977
v -0.005928001 -0.006294785 0.151721
v -0.005928001 -0.01173622 0.1480851
v -0.005928001 -0.01537193 0.1426437
v -0.005928001 -0.01664879 0.1362252
v -0.005928001 -0.01537193 0.1298066
v -0.005928001 0.01198372 0.1480851
v -0.005928001 0.01561958 0.1426437
v -0.005928001 0.01689629 0.1362252
v -0.005928001 0.01561958 0.1298066
v -0.00592804 0.01198372 0.1243652
v -0.004657669 0.01198372 0.1480851
v -0.004657669 0.01561958 0.1426437
v -0.004657707 0.01689629 0.136225
v -0.004657669 0.01561958 0.1298066
v -0.004657707 0.01198372 0.1243652
v -0.004657669 0.006542282 0.151721
v -0.004657707 0.0001238251 0.1529977
v -0.004657669 -0.006294785 0.151721
v -0.004657669 -0.01173622 0.1480851
v -0.004657669 -0.01537193 0.1426437
v -0.004657669 -0.01664879 0.1362252
v -0.004657707 0.01096565 0.147067
v -0.004657669 0.005412521 0.148993
v -0.004657707 0.01289177 0.1415137
v -0.004657669 0.0001238251 0.151558
v -0.004657669 -0.005164871 0.148993
v -0.004657707 0.01545647 0.136225
v -0.004657707 -0.01071815 0.147067
v -0.004657669 0.01289177 0.1309365
v -0.004657707 -0.01264427 0.1415137
v -0.004657707 0.01096565 0.1253832
v -0.004657669 -0.01520897 0.1362252
v -0.004657669 0.005412521 0.1234573
v -0.004657669 -0.01537193 0.1298066
v -0.004657669 -0.01264427 0.1309365
v -0.004657669 0.006542282 0.1207293
v -0.004657669 0.0001238251 0.1208923
v -0.00592804 -0.01173622 0.1243652
v -0.004657707 -0.01173622 0.1243652
v -0.004657707 -0.01071815 0.1253832
v -0.005928001 0.006542282 0.1207294
v -0.004657707 0.0001238251 0.1194526
v -0.004657669 -0.005164871 0.1234573
v -0.004657669 -0.006294785 0.1207293
v -0.005928001 -0.007451248 0.1179374
v -0.005928001 -0.006294785 0.1207294
v -0.005928001 0.0001238251 0.1194526
v -0.005928001 0.007698898 0.1179374
v -0.00592804 0.0001238251 0.1164306
v -0.00439785 0.0001238251 0.1117721
v -0.00439785 0.006547775 0.113027
v -0.004657669 -0.005164871 0.148993
v 0.004657669 0.0001238251 0.1515578
v -0.004657669 0.0001238251 0.151558
v 0.004657669 -0.005164871 0.148993
v -0.004657707 -0.01071815 0.147067
v 0.004657669 -0.01071815 0.147067
v -0.004657707 -0.01264427 0.1415137
v 0.004657707 -0.01264427 0.1415137
v -0.004657669 -0.01520897 0.1362252
v 0.004657669 -0.01520897 0.136225
v -0.004657669 -0.01264427 0.1309365
v 0.004657669 -0.01264427 0.1309365
v -0.004657707 -0.01071815 0.1253832
v 0.004657707 -0.01071815 0.1253832
v -0.004657669 -0.005164871 0.1234573
v 0.004657669 -0.005164871 0.1234571
v -0.004657669 0.0001238251 0.1208923
v 0.004657669 0.0001238251 0.1208923
v -0.004657669 0.005412521 0.1234573
v 0.004657669 0.005412521 0.1234571
v -0.004657707 0.01096565 0.1253832
v 0.004657707 0.01096565 0.1253832
v -0.004657669 0.01289177 0.1309365
v 0.004657669 0.01289177 0.1309365
v -0.004657707 0.01545647 0.136225
v 0.004657707 0.01545647 0.136225
v -0.004657707 0.01289177 0.1415137
v 0.004657707 0.01289177 0.1415137
v -0.004657707 0.01096565 0.147067
v 0.004657707 0.01096565 0.147067
v -0.004657669 0.005412521 0.148993
v 0.004657669 0.005412521 0.148993
v -0.004657669 0.0001238251 0.151558
v 0.004657669 0.0001238251 0.1515578
vt 0.8711016 0.5430171
vt 0.869535 0.538609
vt 0.8572001 0.5386139
vt 0.8572035 0.5474311
vt 0.8695383 0.5474263
vt 0.8540914 0.538615
vt 0.854095 0.5474324
vt 0.850872 0.5386162
vt 0.8508754 0.5474336
vt 0.84694 0.5386178
vt 0.8469434 0.5474352
vt 0.8425329 0.5386195
vt 0.8425364 0.5474367
vt 0.8385882 0.5386209
vt 0.8385916 0.5474384
vt 0.8350661 0.5386221
vt 0.8350694 0.5474395
vt 0.8319056 0.5474408
vt 0.831902 0.5386235
vt 0.819777 0.5430367
vt 0.8213439 0.5474448
vt 0.8213403 0.5386275
vt 0.7546668 0.6136127
vt 0.7579556 0.6088943
vt 0.753418 0.6107529
vt 0.7582638 0.6108009
vt 0.7601349 0.6184776
vt 0.7631259 0.6148329
vt 0.7687647 0.6231191
vt 0.7707019 0.6094854
vt 0.7703161 0.6188123
vt 0.7764425 0.6243876
vt 0.776464 0.6197028
vt 0.783999 0.6225221
vt 0.7824421 0.6181612
vt 0.7738209 0.6085868
vt 0.7880163 0.6141269
vt 0.7905064 0.6180551
vt 0.7760479 0.6061916
vt 0.7961304 0.6139252
vt 0.7917378 0.6081283
vt 0.7778945 0.6027855
vt 0.7943416 0.6108434
vt 0.8063331 0.6111141
vt 0.7973547 0.6069593
vt 0.7931519 0.6004024
vt 0.7789421 0.5986378
vt 0.8061826 0.6082201
vt 0.9563329 0.6053255
vt 0.8058984 0.5936587
vt 0.9562654 0.6082234
vt 0.7982993 0.6010537
vt 0.7926147 0.5931723
vt 0.7783608 0.5948412
vt 0.7889712 0.5875518
vt 0.77671 0.591725
vt 0.797941 0.5965182
vt 0.7960935 0.5915351
vt 0.9623203 0.6072949
vt 0.9607983 0.6102567
vt 0.9669254 0.608705
vt 0.9650092 0.6127687
vt 0.9713337 0.6159755
vt 0.7828434 0.5838572
vt 0.773845 0.5901848
vt 0.9721735 0.6116111
vt 0.9785714 0.6168795
vt 0.977896 0.6124922
vt 0.9856818 0.6150522
vt 0.9834809 0.6111848
vt 0.9915762 0.6107064
vt 0.988132 0.6078713
vt 0.9953799 0.6045182
vt 0.9911656 0.6030548
vt 0.996572 0.5973998
vt 0.9922554 0.5974486
vt 0.9952221 0.590291
vt 0.9910526 0.5918504
vt 0.9912164 0.5841928
vt 0.98785 0.5871198
vt 0.9851816 0.5800287
vt 0.9830842 0.5839579
vt 0.9780233 0.578393
vt 0.9774597 0.5827951
vt 0.9707847 0.5794828
vt 0.9717391 0.5838219
vt 0.9644911 0.5828757
vt 0.966538 0.5868771
vt 0.9603086 0.5855644
vt 0.9619465 0.5884631
vt 0.9558518 0.5876356
vt 0.9900711 0.5974712
vt 0.9890566 0.5926803
vt 0.9862945 0.5886283
vt 0.9821837 0.5859286
vt 0.9773383 0.5849416
vt 0.9723964 0.585849
vt 0.9891381 0.6022696
vt 0.9865355 0.6064019
vt 0.9825354 0.6092362
vt 0.9777203 0.6103454
vt 0.9727635 0.6095704
vt 0.9683349 0.6070256
vt 0.9882903 0.6019481
vt 0.9858699 0.6057959
vt 0.9821401 0.6084307
vt 0.9776464 0.6094569
vt 0.9730186 0.6087234
vt 0.9689262 0.6063361
vt 0.9891655 0.5974849
vt 0.9882283 0.5930271
vt 0.985652 0.5892574
vt 0.9818125 0.5867486
vt 0.9772959 0.5858321
vt 0.9863064 0.6011951
vt 0.9881339 0.5974965
vt 0.9851139 0.6051025
vt 0.98629 0.5938311
vt 0.9849179 0.5899727
vt 0.9812279 0.6065465
vt 0.9809427 0.5886608
vt 0.9775686 0.6084445
vt 0.9736416 0.60675
vt 0.9696078 0.6055559
vt 0.9772463 0.5868464
vt 0.9680367 0.601589
vt 0.972687 0.5866859
vt 0.9733827 0.5886338
vt 0.9660864 0.6024849
vt 0.9660473 0.5978168
vt 0.9679992 0.5885204
vt 0.9686155 0.5891876
vt 0.9693198 0.589947
vt 0.9652562 0.6028711
vt 0.9650075 0.5978383
vt 0.9677837 0.5939589
vt 0.965837 0.5931268
vt 0.9650033 0.5927774
vt 0.9640973 0.5978591
vt 0.9632463 0.6037915
vt 0.9629822 0.5919352
vt 0.9619045 0.5979022
vt 0.9593616 0.6029266
vt 0.958313 0.5979753
vt 0.9591513 0.5929763
vt 0.9560289 0.590677
vt 0.8059442 0.5906196
vt 0.7974699 0.5881879
vt 0.7912712 0.583358
vt 0.7846701 0.5796559
vt 0.7765255 0.5783259
vt 0.7763317 0.5829519
vt 0.7696095 0.5789171
vt 0.770308 0.5836508
vt 0.7626433 0.5807754
vt 0.7647815 0.5847169
vt 0.7637084 0.5864575
vt 0.7603273 0.582885
vt 0.754667 0.5387044
vt 0.753418 0.5358448
vt 0.7579556 0.5339859
vt 0.7582638 0.5358922
vt 0.7707024 0.5345758
vt 0.7631264 0.539924
vt 0.7601354 0.5435688
vt 0.7703164 0.5439031
vt 0.7687652 0.54821
vt 0.776464 0.5447936
vt 0.7738216 0.5336769
vt 0.7764425 0.5494785
vt 0.7824414 0.5432525
vt 0.7760496 0.5312815
vt 0.7880149 0.5392187
vt 0.7839983 0.5476131
vt 0.790504 0.5431473
vt 0.7778978 0.5278753
vt 0.7961254 0.5390208
vt 0.7917378 0.5332212
vt 0.7789485 0.5237281
vt 0.7943389 0.5359377
vt 0.806324 0.5362206
vt 0.8061776 0.5333295
vt 0.9562576 0.533587
vt 0.7931578 0.525496
vt 0.7783699 0.519932
vt 0.7973542 0.5320568
vt 0.7926257 0.5182658
vt 0.77672 0.5168161
vt 0.7889831 0.5126445
vt 0.7738552 0.5152763
vt 0.7983046 0.5261513
vt 0.7979507 0.5216156
vt 0.9563291 0.5306859
vt 0.9560521 0.5160379
vt 0.8059134 0.5187662
vt 0.9623296 0.5326607
vt 0.9608059 0.5356228
vt 0.9669423 0.5340694
vt 0.9650283 0.5381355
vt 0.9593663 0.5282905
vt 0.7961066 0.5166306
vt 0.8059635 0.5157238
vt 0.7974851 0.513284
vt 0.7912836 0.508451
vt 0.9558802 0.5129998
vt 0.7828543 0.5089492
vt 0.7846808 0.5047479
vt 0.7763419 0.5080439
vt 0.7765353 0.503418
vt 0.770318 0.5087433
vt 0.7696192 0.5040097
vt 0.7637188 0.5115507
vt 0.7647917 0.50981
vt 0.7626531 0.5058688
vt 0.7603374 0.5079787
vt 0.9619575 0.5138283
vt 0.9603229 0.5109293
vt 0.9665418 0.5122447
vt 0.9644949 0.5082443
vt 0.9707747 0.5048448
vt 0.9717383 0.5091825
vt 0.9780016 0.5037411
vt 0.9774489 0.5081449
vt 0.9851573 0.5053606
vt 0.9830699 0.5092952
vt 0.9912 0.5095099
vt 0.9878416 0.5124464
vt 0.9952183 0.5156002
vt 0.9910531 0.5171708
vt 0.996582 0.5227054
vt 0.9922652 0.5227652
vt 0.9954047 0.5298275
vt 0.9911871 0.528374
vt 0.9916115 0.5360259
vt 0.9881608 0.5331995
vt 0.9857211 0.5403841
vt 0.9835126 0.536521
vt 0.9786098 0.5422236
vt 0.9779258 0.5378377
vt 0.9713645 0.5413333
vt 0.9721937 0.5369679
vt 0.9890585 0.5180085
vt 0.9900818 0.5227995
vt 0.9891562 0.5276004
vt 0.9865592 0.5317373
vt 0.9825602 0.5345793
vt 0.9777431 0.5356951
vt 0.9727867 0.5349216
vt 0.9862912 0.5139635
vt 0.9821799 0.5112736
vt 0.9773357 0.5102948
vt 0.9723938 0.5112042
vt 0.9680047 0.5138769
vt 0.9856458 0.51459
vt 0.9818053 0.512092
vt 0.9772878 0.5111842
vt 0.9726789 0.5120423
vt 0.9686167 0.5145473
vt 0.988229 0.5183522
vt 0.9891765 0.5228095
vt 0.9883094 0.5272765
vt 0.9858966 0.5311283
vt 0.9821689 0.533772
vt 0.9776745 0.5348059
vt 0.9849138 0.5153074
vt 0.9862933 0.5191623
vt 0.980938 0.5140048
vt 0.9881449 0.5228238
vt 0.9863241 0.5265278
vt 0.9772396 0.5121977
vt 0.9851387 0.5304369
vt 0.9733782 0.5139899
vt 0.9812536 0.5318884
vt 0.9693208 0.5153071
vt 0.9775958 0.5337927
vt 0.9677896 0.5193241
vt 0.9730473 0.5340755
vt 0.9736657 0.5321032
vt 0.9658446 0.5184975
vt 0.9660571 0.5231831
vt 0.9683487 0.5323793
vt 0.9689445 0.5316932
vt 0.9696264 0.5309131
vt 0.9650145 0.5181423
vt 0.9650176 0.5232056
vt 0.9680495 0.5269508
vt 0.9660957 0.5278499
vt 0.963258 0.5291569
vt 0.9652624 0.5282321
vt 0.9641068 0.5232217
vt 0.9629917 0.517298
vt 0.9619131 0.5232682
vt 0.9583225 0.5233378
vt 0.959166 0.5183399
vt 0.981369 0.6580539
vt 0.9849129 0.6636698
vt 0.9849126 0.6580538
vt 0.981369 0.6636698
vt 0.9778254 0.6580539
vt 0.9778256 0.6636701
vt 0.9742818 0.658054
vt 0.9742818 0.6636701
vt 0.9707382 0.6580541
vt 0.9707384 0.6636702
vt 0.9671946 0.6580541
vt 0.9671946 0.6636703
vt 0.9636509 0.6580544
vt 0.9636512 0.6636703
vt 0.9601073 0.6580544
vt 0.9601076 0.6636704
vt 0.9565637 0.6580545
vt 0.9565639 0.6636705
vt 0.9530201 0.6580546
vt 0.9530201 0.6636705
vt 0.9494765 0.6580546
vt 0.9494767 0.6636708
vt 0.9459329 0.6580547
vt 0.9459331 0.6636708
vt 0.9423895 0.6580548
vt 0.9423895 0.6636708
vt 0.9388459 0.6580548
vt 0.9388459 0.663671
vt 0.9353023 0.6580551
vt 0.9353023 0.663671
vt 0.9317586 0.6580551
vt 0.9317589 0.6636711
vt 0.928215 0.6580552
vt 0.928215 0.6636713
vn 8.162797E-07 0.9916168 -0.1292133
vn 0.7823343 0.6204725 -0.05446838
vn 0.7757578 0.6287203 0.05394866
vn -0.7757579 0.6287202 0.05394785
vn -0.7823369 0.6204697 -0.05446532
vn 0.9395564 0.2931701 -0.1768762
vn -0.9395565 0.2931696 -0.1768759
vn 0.9316542 0.1991927 -0.3038795
vn -0.931654 0.1991942 -0.3038791
vn 0.9245216 0.1309959 -0.3579104
vn -0.9245248 0.1309936 -0.3579032
vn 0.9304954 0.03134159 -0.3649601
vn -0.9304948 0.03134163 -0.3649618
vn 0.9251148 -0.09695341 -0.3671004
vn -0.9251167 -0.09695222 -0.3670956
vn 0.9283997 -0.2502427 -0.274686
vn -0.9284005 -0.2502423 -0.274684
vn -0.7090803 -0.6656719 -0.2325642
vn 0.7090783 -0.6656739 -0.2325643
vn -3.166949E-06 -0.7869841 -0.6169733
vn -0.7501701 -0.5331249 -0.391181
vn 0.7501657 -0.5331277 -0.3911858
vn -4.150449E-06 -0.4681749 -0.8836359
vn 0.7823343 0.6204725 -0.05446838
vn 8.162797E-07 0.9916168 -0.1292133
vn 0.8765927 -0.2208612 -0.4275577
vn -2.702904E-06 -0.7348388 -0.6782417
vn 0.8039365 -0.4420067 -0.3978896
vn -1.756143E-06 -0.8893291 -0.4572675
vn 0.7757578 0.6287203 0.05394866
vn 0.7441371 -0.5958046 -0.3021205
vn 0 -0.9998528 -0.01715967
vn 0.8570217 -0.5152669 -0.00372527
vn 0 -0.9031978 0.4292248
vn 0.8997342 -0.3922068 0.1914474
vn 0.9395564 0.2931701 -0.1768762
vn 0.9381032 -0.2780079 0.206577
vn -2.034894E-07 -0.8119277 0.5837581
vn 0.9316542 0.1991927 -0.3038795
vn 4.201702E-06 -0.938537 0.3451788
vn 0.997139 -0.03225765 0.0683621
vn 0.9245216 0.1309959 -0.3579104
vn 0.6798053 -0.645776 0.3476177
vn 2.13926E-06 -0.9998763 0.01573194
vn 0.9928772 -0.02989547 0.1153299
vn 0.9975618 -0.00503816 0.06960634
vn 0.9304954 0.03134159 -0.3649601
vn 0.9453132 -0.3260588 0.008288005
vn 0.9437371 -0.3306573 -0.005114543
vn 0.9498024 0.3127687 0.007146925
vn 0 -0.9999353 -0.01137627
vn 0.9938836 -0.00759335 0.1101711
vn 0.9963332 0.02798193 0.0808524
vn 0.9251148 -0.09695341 -0.3671004
vn 0.9096767 0.3356921 0.2445384
vn 0.9283997 -0.2502427 -0.274686
vn 0.9874009 0.02300348 0.1565571
vn 0.7418827 0.5619693 0.3657875
vn 0.61565 -0.6963604 -0.3688593
vn 7.994739E-07 -0.9435559 -0.3312135
vn 0.6343386 -0.6592839 -0.4036822
vn 6.211035E-07 -0.8719964 -0.4895123
vn -2.829138E-07 -0.9259695 -0.3775983
vn 0.8398117 0.5142317 0.1740175
vn 0.7090783 -0.6656739 -0.2325643
vn 0.5191667 -0.7878975 -0.3311847
vn -6.983225E-07 -0.9999824 0.005936845
vn 0.5299342 -0.8480254 -0.00476143
vn -1.788986E-06 -0.9217671 0.387744
vn 0.5404973 -0.7789496 0.3179625
vn 0 -0.7041457 0.7100555
vn 0.5493081 -0.5931907 0.5885451
vn -3.720709E-06 -0.3805834 0.9247465
vn 0.555119 -0.3199314 0.7677805
vn -5.137219E-06 0 1
vn 0.5571441 0 0.8304158
vn -3.572962E-06 0.3805829 0.9247469
vn 0.5551199 0.3199276 0.7677814
vn 1.265095E-07 0.7041422 0.7100589
vn 0.5493067 0.5931886 0.5885487
vn 0 0.9217667 0.3877448
vn 0.5404883 0.7789546 0.3179654
vn 3.62285E-07 0.9999824 0.005941475
vn 0.5299244 0.8480315 -0.004756459
vn 0 0.925967 -0.3776043
vn 0.5191612 0.7878981 -0.3311922
vn 1.410228E-06 0.8719929 -0.4895185
vn 0.634337 0.6592813 -0.4036887
vn 2.285776E-06 0.9503806 -0.3110893
vn 0.6284979 0.6916507 -0.3558226
vn 0 0.9999532 -0.009684903
vn 0.9459777 0 -0.3242315
vn 0.9459753 -0.1240835 -0.2995562
vn 0.9459706 -0.2292789 -0.2292836
vn 0.9459773 -0.2995499 -0.1240841
vn 0.9459769 -0.3242342 -5.153941E-06
vn 0.9459707 -0.2995713 0.1240824
vn 0.9459789 0.1240784 -0.299547
vn 0.945977 0.2292733 -0.2292626
vn 0.9459743 0.2995582 -0.1240865
vn 0.9459745 0.3242409 -7.096731E-06
vn 0.9459687 0.2995745 0.1240897
vn 0.9459696 0.2292879 0.2292782
vn 0.8186476 0.2197787 -0.5305783
vn 0.8186374 0.4061029 -0.406095
vn 0.8186334 0.5306041 -0.2197699
vn 0.8186192 0.5743365 1.003504E-05
vn 0.8186234 0.5306139 0.2197833
vn 0.8186264 0.4061105 0.4061097
vn 0.8186484 0 -0.5742952
vn 0.8186486 -0.2197824 -0.5305753
vn 0.8186451 -0.4060924 -0.4060902
vn 0.8186479 -0.5305839 -0.2197645
vn 0.8186396 -0.5743076 5.284024E-06
vn 0.227758 0.3726188 -0.8996007
vn 0.3279188 0 -0.944706
vn 0.3279243 0.6679986 -0.6680146
vn 0.2277542 -0.3726231 -0.8996
vn 0.3279273 -0.6680041 -0.6680077
vn 0.2277604 0.8995965 -0.3726275
vn 0.2277636 -0.8995994 -0.3726187
vn 0.3279126 0.944708 1.291559E-06
vn 0.2277544 0.899604 0.3726132
vn 0.3279296 0.6679928 0.6680178
vn 0.3279254 -0.9447036 -6.003003E-07
vn 0.2277672 0.3726057 0.8996038
vn 0.8186367 -0.5305961 0.2197766
vn 0.2277678 -0.8995964 0.3726231
vn 0.8186184 0.2197827 0.530622
vn 0.3279209 0 0.9447052
vn 0.9459674 -0.2292933 0.229282
vn 0.8186314 -0.4061029 0.4061074
vn 0.3279388 -0.6679973 0.6680088
vn 0.9459721 0.1240852 0.2995659
vn 0.8186109 0 0.5743484
vn 0.2277643 -0.3726107 0.8996026
vn 0.8186175 -0.2197872 0.5306212
vn 0.9459724 -0.1240858 0.2995647
vn 0.945972 0 0.3242485
vn 0.9715909 -0.1042836 -0.2124524
vn 0.9715912 0.1042851 -0.2124502
vn 0.9771451 -1.556828E-07 -0.2125733
vn 0.9659435 -0.08046055 -0.2459253
vn 0.9688842 0.004698672 -0.2474699
vn 0.9680899 0.05756474 -0.2439023
vn 0.9491107 0.3148976 -0.005317789
vn 2.325289E-06 0.9998605 0.01670163
vn -1.240953E-06 0.8948383 0.4463905
vn -2.884784E-07 0.8182806 0.574819
vn -1.877246E-06 0.9392598 0.3432069
vn 2.430274E-07 0.9996253 -0.02737231
vn 0.7191266 0.6946074 -0.01942707
vn 1.773895E-06 0.9734741 -0.2287971
vn 0.7836036 0.6046658 -0.142635
vn -1.443665E-06 0.8593959 -0.5113109
vn 0.8277264 0.4831197 -0.2854195
vn 0.7501657 -0.5331277 -0.3911858
vn -3.166949E-06 -0.7869841 -0.6169733
vn -4.150449E-06 -0.4681749 -0.8836359
vn 8.162797E-07 0.9916168 -0.1292133
vn -0.7823369 0.6204697 -0.05446532
vn -0.8765917 -0.220864 -0.4275582
vn -0.7757579 0.6287202 0.05394785
vn -0.803939 -0.4420057 -0.3978857
vn -2.702904E-06 -0.7348388 -0.6782417
vn -0.7441374 -0.5958029 -0.3021231
vn -1.756143E-06 -0.8893291 -0.4572675
vn -0.8570222 -0.515266 -0.003725897
vn -0.9395565 0.2931696 -0.1768759
vn 0 -0.9998528 -0.01715967
vn -0.8997356 -0.3922052 0.1914441
vn -0.931654 0.1991942 -0.3038791
vn -0.9381032 -0.2780079 0.2065769
vn 0 -0.9031978 0.4292248
vn -2.034894E-07 -0.8119277 0.5837581
vn -0.9245248 0.1309936 -0.3579032
vn 4.201702E-06 -0.938537 0.3451788
vn -0.9971392 -0.03225548 0.06835978
vn -0.9304948 0.03134163 -0.3649618
vn -0.6798079 -0.6457759 0.3476131
vn 2.13926E-06 -0.9998763 0.01573194
vn -0.9434041 -0.3315645 0.007323331
vn 0 -0.9999353 -0.01137627
vn -0.9975619 -0.005038172 0.06960543
vn -0.9251167 -0.09695222 -0.3670956
vn -0.9887285 -0.04592806 0.1425008
vn -0.9963332 0.02798129 0.08085167
vn -0.9284005 -0.2502423 -0.274684
vn -0.9096791 0.335687 0.2445365
vn -0.7090803 -0.6656719 -0.2325642
vn -0.9934753 -0.006375959 0.113869
vn -0.992828 0.01354503 0.1187823
vn -0.9441895 -0.329345 -0.00617208
vn -0.9487206 0.3160864 -0.004313779
vn -0.9504992 0.3106328 0.007650723
vn -0.6156512 -0.6963596 -0.3688587
vn 7.994739E-07 -0.9435559 -0.3312135
vn -0.6343359 -0.6592866 -0.4036819
vn 6.211035E-07 -0.8719964 -0.4895123
vn -0.9680219 -0.05771624 -0.2441362
vn -0.7418889 0.5619645 0.3657826
vn 2.325289E-06 0.9998605 0.01670163
vn -1.240953E-06 0.8948383 0.4463905
vn -2.884784E-07 0.8182806 0.574819
vn 0 0.9999532 -0.009684903
vn -0.8398146 0.5142277 0.1740155
vn -1.877246E-06 0.9392598 0.3432069
vn -0.719126 0.6946082 -0.01942822
vn 2.430274E-07 0.9996253 -0.02737231
vn -0.7836027 0.6046668 -0.1426353
vn 1.773895E-06 0.9734741 -0.2287971
vn -0.7501701 -0.5331249 -0.391181
vn -0.8277246 0.4831229 -0.2854196
vn -1.443665E-06 0.8593959 -0.5113109
vn -3.166949E-06 -0.7869841 -0.6169733
vn -0.6284999 0.6916489 -0.3558227
vn 2.285776E-06 0.9503806 -0.3110893
vn -0.6343367 0.6592839 -0.4036852
vn 1.410228E-06 0.8719929 -0.4895185
vn 0 0.925967 -0.3776043
vn -0.5191633 0.7878979 -0.3311893
vn 3.62285E-07 0.9999824 0.005941475
vn -0.5299296 0.8480282 -0.004756171
vn 0 0.9217667 0.3877448
vn -0.5404935 0.778951 0.3179655
vn 1.265095E-07 0.7041422 0.7100589
vn -0.5493142 0.5931833 0.588547
vn -3.572962E-06 0.3805829 0.9247469
vn -0.5551247 0.3199252 0.7677788
vn -5.137219E-06 0 1
vn -0.5571509 0 0.8304113
vn -3.720709E-06 -0.3805834 0.9247465
vn -0.5551232 -0.3199224 0.7677811
vn 0 -0.7041457 0.7100555
vn -0.5493191 -0.5931829 0.5885429
vn -1.788986E-06 -0.9217671 0.387744
vn -0.5405006 -0.7789482 0.3179606
vn -6.983225E-07 -0.9999824 0.005936845
vn -0.5299364 -0.848024 -0.004759283
vn -2.829138E-07 -0.9259695 -0.3775983
vn -0.5191652 -0.7878993 -0.3311831
vn -0.9459745 -0.1240856 -0.299558
vn -0.9459763 0 -0.324236
vn -0.9459758 0.124084 -0.2995546
vn -0.9459764 0.2292697 -0.2292688
vn -0.9459746 0.2995586 -0.1240829
vn -0.9459742 0.324242 2.1361E-06
vn -0.9459696 0.2995736 0.1240847
vn -0.9459725 -0.2292762 -0.2292781
vn -0.9459748 -0.299558 -0.124084
vn -0.9459763 -0.3242359 -5.036085E-06
vn -0.9459729 -0.299563 0.1240856
vn -0.945972 -0.2292779 0.2292784
vn -0.8186526 -0.4060851 -0.4060823
vn -0.8186551 -0.5305711 -0.2197684
vn -0.8186402 -0.5743067 5.283994E-06
vn -0.8186372 -0.5305983 0.2197697
vn -0.8186388 -0.4061046 0.4060906
vn -0.8186445 -0.2197822 -0.5305817
vn -0.818642 0 -0.5743042
vn -0.8186434 0.2197775 -0.5305853
vn -0.8186454 0.4060932 -0.4060887
vn -0.8186393 0.5305915 -0.219778
vn -0.8186214 0.5743337 -1.465233E-06
vn -0.32794 -0.6680012 -0.6680045
vn -0.2277655 -0.3726223 -0.8995975
vn -0.2277667 -0.899599 -0.3726179
vn -0.3279366 0 -0.9446998
vn -0.2277646 0.372618 -0.8995994
vn -0.3279254 -0.9447036 -6.003003E-07
vn -0.3279315 0.6679968 -0.6680129
vn -0.2277647 -0.8995976 0.3726223
vn -0.2277622 0.8995962 -0.3726275
vn -0.3279299 -0.6680006 0.66801
vn -0.327912 0.9447083 -8.476994E-06
vn -0.2277537 -0.3726116 0.8996048
vn -0.8186314 0.5306033 0.2197786
vn -0.2277516 0.8996044 0.3726137
vn -0.8186386 -0.2197791 0.5305923
vn -0.3279222 0 0.9447048
vn -0.9459737 0.2292774 0.2292719
vn -0.8186363 0.4061057 0.4060946
vn -0.3279283 0.6679925 0.6680186
vn -0.9459706 -0.1240883 0.2995692
vn -0.8186318 0 0.5743187
vn -0.2277557 0.3726068 0.8996063
vn -0.8186417 0.2197736 0.5305895
vn -0.9715911 -0.1042871 -0.2124499
vn -0.9459693 0.1240884 0.2995732
vn -0.9459743 0 0.3242417
vn -0.9715903 0.1042907 -0.2124515
vn -0.9771452 0 -0.2125732
vn -0.968858 -0.004705105 -0.247572
vn -0.9660356 0.08031344 -0.2456113
vn -0.2277646 0.372618 -0.8995994
vn 0.3279188 0 -0.944706
vn -0.3279366 0 -0.9446998
vn 0.227758 0.3726188 -0.8996007
vn -0.3279315 0.6679968 -0.6680129
vn 0.3279243 0.6679986 -0.6680146
vn -0.2277622 0.8995962 -0.3726275
vn 0.2277604 0.8995965 -0.3726275
vn -0.327912 0.9447083 -8.476994E-06
vn 0.3279126 0.944708 1.291559E-06
vn -0.2277516 0.8996044 0.3726137
vn 0.2277544 0.899604 0.3726132
vn -0.3279283 0.6679925 0.6680186
vn 0.3279296 0.6679928 0.6680178
vn -0.2277557 0.3726068 0.8996063
vn 0.2277672 0.3726057 0.8996038
vn -0.3279222 0 0.9447048
vn 0.3279209 0 0.9447052
vn -0.2277537 -0.3726116 0.8996048
vn 0.2277643 -0.3726107 0.8996026
vn -0.3279299 -0.6680006 0.66801
vn 0.3279388 -0.6679973 0.6680088
vn -0.2277647 -0.8995976 0.3726223
vn 0.2277678 -0.8995964 0.3726231
vn -0.3279254 -0.9447036 -6.003003E-07
vn 0.3279254 -0.9447036 -6.003003E-07
vn -0.2277667 -0.899599 -0.3726179
vn 0.2277636 -0.8995994 -0.3726187
vn -0.32794 -0.6680012 -0.6680045
vn 0.3279273 -0.6680041 -0.6680077
vn -0.2277655 -0.3726223 -0.8995975
vn 0.2277542 -0.3726231 -0.8996
vn -0.3279366 0 -0.9446998
vn 0.3279188 0 -0.944706
usemtl Mat_Tools
f 1/1/1 3/3/3 2/2/2 
f 1/1/1 4/4/4 3/3/3 
f 5/5/5 4/4/4 1/1/1 
f 6/6/6 3/3/3 4/4/4 
f 6/6/6 4/4/4 7/7/7 
f 8/8/8 6/6/6 7/7/7 
f 8/8/8 7/7/7 9/9/9 
f 10/10/10 8/8/8 9/9/9 
f 10/10/10 9/9/9 11/11/11 
f 12/12/12 10/10/10 11/11/11 
f 12/12/12 11/11/11 13/13/13 
f 14/14/14 12/12/12 13/13/13 
f 14/14/14 13/13/13 15/15/15 
f 16/16/16 14/14/14 15/15/15 
f 16/16/16 15/15/15 17/17/17 
f 18/18/18 16/16/16 17/17/17 
f 18/18/18 19/19/19 16/16/16 
f 18/18/18 20/20/20 19/19/19 
f 18/18/18 21/21/21 20/20/20 
f 19/19/19 20/20/20 22/22/22 
f 23/23/23 25/25/25 24/24/24 
f 23/23/23 24/24/24 26/26/26 
f 27/27/27 23/23/23 26/26/26 
f 28/28/28 26/26/26 24/24/24 
f 27/27/27 26/26/26 28/28/28 
f 29/29/29 27/27/27 28/28/28 
f 28/28/28 24/24/24 30/30/30 
f 29/29/29 28/28/28 31/31/31 
f 31/31/31 28/28/28 30/30/30 
f 32/32/32 29/29/29 31/31/31 
f 32/32/32 31/31/31 33/33/33 
f 33/33/33 31/31/31 30/30/30 
f 34/34/34 32/32/32 33/33/33 
f 35/35/35 33/33/33 30/30/30 
f 34/34/34 33/33/33 35/35/35 
f 35/35/35 30/30/30 36/36/36 
f 37/37/37 35/35/35 36/36/36 
f 38/38/38 34/34/34 35/35/35 
f 38/38/38 35/35/35 37/37/37 
f 37/37/37 36/36/36 39/39/39 
f 40/40/40 38/38/38 37/37/37 
f 41/41/41 37/37/37 39/39/39 
f 41/41/41 39/39/39 42/42/42 
f 40/40/40 37/37/37 43/43/43 
f 44/44/44 40/40/40 43/43/43 
f 37/37/37 45/45/45 43/43/43 
f 37/37/37 41/41/41 45/45/45 
f 46/46/46 41/41/41 42/42/42 
f 46/46/46 42/42/42 47/47/47 
f 44/44/44 43/43/43 48/48/48 
f 43/43/43 45/45/45 48/48/48 
f 44/44/44 48/48/48 49/49/49 
f 48/48/48 50/50/50 49/49/49 
f 45/45/45 50/50/50 48/48/48 
f 44/44/44 49/49/49 51/51/51 
f 41/41/41 52/52/52 45/45/45 
f 41/41/41 46/46/46 52/52/52 
f 45/45/45 52/52/52 50/50/50 
f 53/53/53 46/46/46 47/47/47 
f 53/53/53 47/47/47 54/54/54 
f 55/55/55 53/53/53 54/54/54 
f 55/55/55 54/54/54 56/56/56 
f 46/46/46 57/57/57 52/52/52 
f 46/46/46 53/53/53 57/57/57 
f 52/52/52 57/57/57 50/50/50 
f 53/53/53 58/58/58 57/57/57 
f 53/53/53 55/55/55 58/58/58 
f 57/57/57 58/58/58 50/50/50 
f 59/59/59 51/51/51 49/49/49 
f 59/59/59 60/60/60 51/51/51 
f 61/61/61 60/60/60 59/59/59 
f 61/61/61 62/62/62 60/60/60 
f 63/63/63 62/62/62 61/61/61 
f 64/64/64 55/55/55 56/56/56 
f 64/64/64 56/56/56 65/65/65 
f 63/63/63 61/61/61 66/66/66 
f 67/67/67 63/63/63 66/66/66 
f 67/67/67 66/66/66 68/68/68 
f 69/69/69 67/67/67 68/68/68 
f 69/69/69 68/68/68 70/70/70 
f 71/71/71 69/69/69 70/70/70 
f 71/71/71 70/70/70 72/72/72 
f 73/73/73 71/71/71 72/72/72 
f 73/73/73 72/72/72 74/74/74 
f 75/75/75 73/73/73 74/74/74 
f 75/75/75 74/74/74 76/76/76 
f 77/77/77 75/75/75 76/76/76 
f 77/77/77 76/76/76 78/78/78 
f 79/79/79 77/77/77 78/78/78 
f 79/79/79 78/78/78 80/80/80 
f 81/81/81 79/79/79 80/80/80 
f 81/81/81 80/80/80 82/82/82 
f 83/83/83 81/81/81 82/82/82 
f 83/83/83 82/82/82 84/84/84 
f 85/85/85 83/83/83 84/84/84 
f 85/85/85 84/84/84 86/86/86 
f 87/87/87 85/85/85 86/86/86 
f 87/87/87 86/86/86 88/88/88 
f 89/89/89 87/87/87 88/88/88 
f 89/89/89 88/88/88 90/90/90 
f 91/91/91 89/89/89 90/90/90 
f 78/78/78 76/76/76 92/92/92 
f 80/80/80 78/78/78 93/93/93 
f 78/78/78 92/92/92 93/93/93 
f 82/82/82 80/80/80 94/94/94 
f 80/80/80 93/93/93 94/94/94 
f 84/84/84 82/82/82 95/95/95 
f 82/82/82 94/94/94 95/95/95 
f 86/86/86 84/84/84 96/96/96 
f 84/84/84 95/95/95 96/96/96 
f 88/88/88 86/86/86 97/97/97 
f 86/86/86 96/96/96 97/97/97 
f 76/76/76 98/98/98 92/92/92 
f 76/76/76 74/74/74 98/98/98 
f 74/74/74 99/99/99 98/98/98 
f 74/74/74 72/72/72 99/99/99 
f 72/72/72 100/100/100 99/99/99 
f 72/72/72 70/70/70 100/100/100 
f 70/70/70 101/101/101 100/100/100 
f 70/70/70 68/68/68 101/101/101 
f 68/68/68 102/102/102 101/101/101 
f 68/68/68 66/66/66 102/102/102 
f 66/66/66 103/103/103 102/102/102 
f 66/66/66 61/61/61 103/103/103 
f 92/92/92 98/98/98 104/104/104 
f 98/98/98 99/99/99 105/105/105 
f 98/98/98 105/105/105 104/104/104 
f 99/99/99 100/100/100 106/106/106 
f 99/99/99 106/106/106 105/105/105 
f 100/100/100 101/101/101 107/107/107 
f 100/100/100 107/107/107 106/106/106 
f 101/101/101 102/102/102 108/108/108 
f 101/101/101 108/108/108 107/107/107 
f 102/102/102 103/103/103 109/109/109 
f 102/102/102 109/109/109 108/108/108 
f 92/92/92 104/104/104 110/110/110 
f 93/93/93 92/92/92 110/110/110 
f 93/93/93 110/110/110 111/111/111 
f 94/94/94 93/93/93 111/111/111 
f 94/94/94 111/111/111 112/112/112 
f 95/95/95 94/94/94 112/112/112 
f 95/95/95 112/112/112 113/113/113 
f 96/96/96 95/95/95 113/113/113 
f 96/96/96 113/113/113 114/114/114 
f 97/97/97 96/96/96 114/114/114 
f 110/110/110 104/104/104 115/115/115 
f 110/110/110 115/115/115 116/116/116 
f 111/111/111 110/110/110 116/116/116 
f 104/104/104 117/117/117 115/115/115 
f 111/111/111 116/116/116 118/118/118 
f 112/112/112 111/111/111 118/118/118 
f 104/104/104 105/105/105 117/117/117 
f 112/112/112 118/118/118 119/119/119 
f 113/113/113 112/112/112 119/119/119 
f 105/105/105 120/120/120 117/117/117 
f 113/113/113 119/119/119 121/121/121 
f 114/114/114 113/113/113 121/121/121 
f 105/105/105 106/106/106 120/120/120 
f 106/106/106 122/122/122 120/120/120 
f 106/106/106 107/107/107 122/122/122 
f 107/107/107 123/123/123 122/122/122 
f 107/107/107 108/108/108 123/123/123 
f 108/108/108 124/124/124 123/123/123 
f 108/108/108 109/109/109 124/124/124 
f 114/114/114 121/121/121 125/125/125 
f 109/109/109 126/126/126 124/124/124 
f 127/127/127 114/114/114 125/125/125 
f 97/97/97 114/114/114 127/127/127 
f 127/127/127 125/125/125 128/128/128 
f 109/109/109 129/129/129 126/126/126 
f 103/103/103 129/129/129 109/109/109 
f 129/129/129 130/130/130 126/126/126 
f 131/131/131 97/97/97 127/127/127 
f 88/88/88 97/97/97 131/131/131 
f 132/132/132 127/127/127 128/128/128 
f 131/131/131 127/127/127 132/132/132 
f 132/132/132 128/128/128 133/133/133 
f 103/103/103 134/134/134 129/129/129 
f 61/61/61 134/134/134 103/103/103 
f 129/129/129 135/135/135 130/130/130 
f 134/134/134 135/135/135 129/129/129 
f 135/135/135 136/136/136 130/130/130 
f 137/137/137 133/133/133 136/136/136 
f 137/137/137 132/132/132 133/133/133 
f 135/135/135 137/137/137 136/136/136 
f 138/138/138 131/131/131 132/132/132 
f 138/138/138 132/132/132 137/137/137 
f 139/139/139 137/137/137 135/135/135 
f 134/134/134 139/139/139 135/135/135 
f 139/139/139 138/138/138 137/137/137 
f 61/61/61 140/140/140 134/134/134 
f 140/140/140 139/139/139 134/134/134 
f 140/140/140 61/61/61 59/59/59 
f 141/141/141 131/131/131 138/138/138 
f 141/141/141 88/88/88 131/131/131 
f 142/142/142 138/138/138 139/139/139 
f 140/140/140 142/142/142 139/139/139 
f 142/142/142 141/141/141 138/138/138 
f 140/140/140 59/59/59 143/143/143 
f 142/142/142 140/140/140 143/143/143 
f 143/143/143 59/59/59 49/49/49 
f 142/142/142 143/143/143 144/144/144 
f 141/141/141 142/142/142 144/144/144 
f 144/144/144 143/143/143 49/49/49 
f 88/88/88 141/141/141 145/145/145 
f 141/141/141 144/144/144 145/145/145 
f 145/145/145 144/144/144 49/49/49 
f 88/88/88 145/145/145 90/90/90 
f 145/145/145 49/49/49 146/146/146 
f 90/90/90 145/145/145 146/146/146 
f 91/91/91 90/90/90 146/146/146 
f 50/50/50 146/146/146 49/49/49 
f 50/50/50 91/91/91 146/146/146 
f 50/50/50 147/147/147 91/91/91 
f 58/58/58 147/147/147 50/50/50 
f 58/58/58 148/148/148 147/147/147 
f 55/55/55 148/148/148 58/58/58 
f 55/55/55 149/149/149 148/148/148 
f 150/150/150 149/149/149 55/55/55 
f 150/150/150 55/55/55 64/64/64 
f 151/151/151 150/150/150 64/64/64 
f 151/151/151 64/64/64 152/152/152 
f 153/153/153 151/151/151 152/152/152 
f 152/152/152 64/64/64 65/65/65 
f 153/153/153 152/152/152 154/154/154 
f 154/154/154 152/152/152 65/65/65 
f 155/155/155 153/153/153 154/154/154 
f 156/156/156 154/154/154 65/65/65 
f 155/155/155 154/154/154 156/156/156 
f 156/156/156 65/65/65 157/157/157 
f 155/155/155 156/156/156 157/157/157 
f 155/155/155 157/157/157 158/158/158 
f 159/159/159 161/161/161 160/160/160 
f 159/159/159 162/162/162 161/161/161 
f 162/162/162 163/163/163 161/161/161 
f 164/164/164 162/162/162 159/159/159 
f 162/162/162 164/164/164 163/163/163 
f 164/164/164 159/159/159 165/165/165 
f 166/166/166 164/164/164 165/165/165 
f 164/164/164 166/166/166 163/163/163 
f 166/166/166 165/165/165 167/167/167 
f 166/166/166 168/168/168 163/163/163 
f 168/168/168 166/166/166 167/167/167 
f 168/168/168 169/169/169 163/163/163 
f 168/168/168 167/167/167 170/170/170 
f 168/168/168 171/171/171 169/169/169 
f 171/171/171 168/168/168 170/170/170 
f 171/171/171 172/172/172 169/169/169 
f 171/171/171 173/173/173 172/172/172 
f 171/171/171 170/170/170 174/174/174 
f 173/173/173 171/171/171 174/174/174 
f 173/173/173 174/174/174 175/175/175 
f 173/173/173 176/176/176 172/172/172 
f 173/173/173 175/175/175 177/177/177 
f 173/173/173 178/178/178 176/176/176 
f 178/178/178 179/179/179 176/176/176 
f 173/173/173 177/177/177 180/180/180 
f 178/178/178 173/173/173 180/180/180 
f 180/180/180 177/177/177 181/181/181 
f 180/180/180 181/181/181 182/182/182 
f 182/182/182 181/181/181 183/183/183 
f 178/178/178 184/184/184 179/179/179 
f 184/184/184 185/185/185 179/179/179 
f 178/178/178 180/180/180 186/186/186 
f 186/186/186 180/180/180 182/182/182 
f 184/184/184 178/178/178 186/186/186 
f 184/184/184 187/187/187 185/185/185 
f 187/187/187 188/188/188 185/185/185 
f 187/187/187 189/189/189 188/188/188 
f 189/189/189 190/190/190 188/188/188 
f 184/184/184 186/186/186 191/191/191 
f 187/187/187 184/184/184 191/191/191 
f 191/191/191 186/186/186 182/182/182 
f 187/187/187 191/191/191 192/192/192 
f 189/189/189 187/187/187 192/192/192 
f 192/192/192 191/191/191 182/182/182 
f 182/182/182 183/183/183 193/193/193 
f 182/182/182 193/193/193 194/194/194 
f 195/195/195 182/182/182 194/194/194 
f 192/192/192 182/182/182 195/195/195 
f 183/183/183 196/196/196 193/193/193 
f 183/183/183 197/197/197 196/196/196 
f 197/197/197 198/198/198 196/196/196 
f 197/197/197 199/199/199 198/198/198 
f 196/196/196 200/200/200 193/193/193 
f 200/200/200 194/194/194 193/193/193 
f 198/198/198 200/200/200 196/196/196 
f 201/201/201 192/192/192 195/195/195 
f 189/189/189 192/192/192 201/201/201 
f 202/202/202 201/201/201 195/195/195 
f 202/202/202 195/195/195 194/194/194 
f 202/202/202 203/203/203 201/201/201 
f 203/203/203 189/189/189 201/201/201 
f 203/203/203 204/204/204 189/189/189 
f 202/202/202 194/194/194 205/205/205 
f 206/206/206 189/189/189 204/204/204 
f 206/206/206 204/204/204 207/207/207 
f 189/189/189 206/206/206 190/190/190 
f 208/208/208 206/206/206 207/207/207 
f 206/206/206 208/208/208 190/190/190 
f 208/208/208 207/207/207 209/209/209 
f 208/208/208 210/210/210 190/190/190 
f 210/210/210 208/208/208 209/209/209 
f 210/210/210 209/209/209 211/211/211 
f 210/210/210 212/212/212 190/190/190 
f 213/213/213 210/210/210 211/211/211 
f 210/210/210 213/213/213 212/212/212 
f 213/213/213 211/211/211 214/214/214 
f 214/214/214 212/212/212 213/213/213 
f 214/214/214 215/215/215 212/212/212 
f 216/216/216 205/205/205 194/194/194 
f 216/216/216 217/217/217 205/205/205 
f 218/218/218 217/217/217 216/216/216 
f 218/218/218 219/219/219 217/217/217 
f 218/218/218 220/220/220 219/219/219 
f 218/218/218 221/221/221 220/220/220 
f 221/221/221 222/222/222 220/220/220 
f 221/221/221 223/223/223 222/222/222 
f 223/223/223 224/224/224 222/222/222 
f 223/223/223 225/225/225 224/224/224 
f 225/225/225 226/226/226 224/224/224 
f 225/225/225 227/227/227 226/226/226 
f 227/227/227 228/228/228 226/226/226 
f 227/227/227 229/229/229 228/228/228 
f 229/229/229 230/230/230 228/228/228 
f 229/229/229 231/231/231 230/230/230 
f 231/231/231 232/232/232 230/230/230 
f 231/231/231 233/233/233 232/232/232 
f 233/233/233 234/234/234 232/232/232 
f 233/233/233 235/235/235 234/234/234 
f 235/235/235 236/236/236 234/234/234 
f 235/235/235 237/237/237 236/236/236 
f 237/237/237 238/238/238 236/236/236 
f 237/237/237 239/239/239 238/238/238 
f 239/239/239 240/240/240 238/238/238 
f 239/239/239 241/241/241 240/240/240 
f 241/241/241 199/199/199 240/240/240 
f 241/241/241 198/198/198 199/199/199 
f 231/231/231 229/229/229 242/242/242 
f 233/233/233 231/231/231 243/243/243 
f 231/231/231 242/242/242 243/243/243 
f 235/235/235 233/233/233 244/244/244 
f 233/233/233 243/243/243 244/244/244 
f 237/237/237 235/235/235 245/245/245 
f 235/235/235 244/244/244 245/245/245 
f 239/239/239 237/237/237 246/246/246 
f 237/237/237 245/245/245 246/246/246 
f 241/241/241 239/239/239 247/247/247 
f 239/239/239 246/246/246 247/247/247 
f 198/198/198 241/241/241 248/248/248 
f 241/241/241 247/247/247 248/248/248 
f 229/229/229 249/249/249 242/242/242 
f 229/229/229 227/227/227 249/249/249 
f 227/227/227 250/250/250 249/249/249 
f 227/227/227 225/225/225 250/250/250 
f 225/225/225 251/251/251 250/250/250 
f 225/225/225 223/223/223 251/251/251 
f 223/223/223 252/252/252 251/251/251 
f 223/223/223 221/221/221 252/252/252 
f 221/221/221 253/253/253 252/252/252 
f 221/221/221 218/218/218 253/253/253 
f 242/242/242 249/249/249 254/254/254 
f 249/249/249 250/250/250 255/255/255 
f 249/249/249 255/255/255 254/254/254 
f 250/250/250 251/251/251 256/256/256 
f 250/250/250 256/256/256 255/255/255 
f 251/251/251 252/252/252 257/257/257 
f 251/251/251 257/257/257 256/256/256 
f 252/252/252 253/253/253 258/258/258 
f 252/252/252 258/258/258 257/257/257 
f 242/242/242 254/254/254 259/259/259 
f 243/243/243 242/242/242 259/259/259 
f 243/243/243 259/259/259 260/260/260 
f 244/244/244 243/243/243 260/260/260 
f 244/244/244 260/260/260 261/261/261 
f 245/245/245 244/244/244 261/261/261 
f 245/245/245 261/261/261 262/262/262 
f 246/246/246 245/245/245 262/262/262 
f 246/246/246 262/262/262 263/263/263 
f 247/247/247 246/246/246 263/263/263 
f 247/247/247 263/263/263 264/264/264 
f 248/248/248 247/247/247 264/264/264 
f 259/259/259 254/254/254 265/265/265 
f 259/259/259 265/265/265 266/266/266 
f 260/260/260 259/259/259 266/266/266 
f 254/254/254 267/267/267 265/265/265 
f 260/260/260 266/266/266 268/268/268 
f 261/261/261 260/260/260 268/268/268 
f 254/254/254 255/255/255 267/267/267 
f 261/261/261 268/268/268 269/269/269 
f 262/262/262 261/261/261 269/269/269 
f 255/255/255 270/270/270 267/267/267 
f 262/262/262 269/269/269 271/271/271 
f 255/255/255 256/256/256 270/270/270 
f 263/263/263 262/262/262 271/271/271 
f 256/256/256 272/272/272 270/270/270 
f 263/263/263 271/271/271 273/273/273 
f 256/256/256 257/257/257 272/272/272 
f 257/257/257 274/274/274 272/272/272 
f 264/264/264 263/263/263 273/273/273 
f 257/257/257 258/258/258 274/274/274 
f 264/264/264 273/273/273 275/275/275 
f 258/258/258 276/276/276 274/274/274 
f 277/277/277 264/264/264 275/275/275 
f 248/248/248 264/264/264 277/277/277 
f 277/277/277 275/275/275 278/278/278 
f 258/258/258 279/279/279 276/276/276 
f 253/253/253 279/279/279 258/258/258 
f 279/279/279 280/280/280 276/276/276 
f 281/281/281 248/248/248 277/277/277 
f 198/198/198 248/248/248 281/281/281 
f 282/282/282 277/277/277 278/278/278 
f 281/281/281 277/277/277 282/282/282 
f 282/282/282 278/278/278 283/283/283 
f 253/253/253 284/284/284 279/279/279 
f 218/218/218 284/284/284 253/253/253 
f 279/279/279 285/285/285 280/280/280 
f 284/284/284 285/285/285 279/279/279 
f 285/285/285 286/286/286 280/280/280 
f 287/287/287 283/283/283 286/286/286 
f 287/287/287 282/282/282 283/283/283 
f 285/285/285 287/287/287 286/286/286 
f 288/288/288 198/198/198 281/281/281 
f 198/198/198 288/288/288 200/200/200 
f 289/289/289 281/281/281 282/282/282 
f 289/289/289 282/282/282 287/287/287 
f 288/288/288 281/281/281 289/289/289 
f 290/290/290 287/287/287 285/285/285 
f 284/284/284 290/290/290 285/285/285 
f 290/290/290 289/289/289 287/287/287 
f 218/218/218 291/291/291 284/284/284 
f 291/291/291 290/290/290 284/284/284 
f 291/291/291 218/218/218 216/216/216 
f 292/292/292 289/289/289 290/290/290 
f 292/292/292 288/288/288 289/289/289 
f 291/291/291 292/292/292 290/290/290 
f 288/288/288 293/293/293 200/200/200 
f 288/288/288 292/292/292 293/293/293 
f 200/200/200 293/293/293 194/194/194 
f 294/294/294 216/216/216 194/194/194 
f 291/291/291 216/216/216 294/294/294 
f 292/292/292 291/291/291 294/294/294 
f 293/293/293 294/294/294 194/194/194 
f 292/292/292 294/294/294 293/293/293 
f 295/295/295 297/297/297 296/296/296 
f 295/295/295 296/296/296 298/298/298 
f 299/299/299 295/295/295 298/298/298 
f 299/299/299 298/298/298 300/300/300 
f 301/301/301 299/299/299 300/300/300 
f 301/301/301 300/300/300 302/302/302 
f 303/303/303 301/301/301 302/302/302 
f 303/303/303 302/302/302 304/304/304 
f 305/305/305 303/303/303 304/304/304 
f 305/305/305 304/304/304 306/306/306 
f 307/307/307 305/305/305 306/306/306 
f 307/307/307 306/306/306 308/308/308 
f 309/309/309 307/307/307 308/308/308 
f 309/309/309 308/308/308 310/310/310 
f 311/311/311 309/309/309 310/310/310 
f 311/311/311 310/310/310 312/312/312 
f 313/313/313 311/311/311 312/312/312 
f 313/313/313 312/312/312 314/314/314 
f 315/315/315 313/313/313 314/314/314 
f 315/315/315 314/314/314 316/316/316 
f 317/317/317 315/315/315 316/316/316 
f 317/317/317 316/316/316 318/318/318 
f 319/319/319 317/317/317 318/318/318 
f 319/319/319 318/318/318 320/320/320 
f 321/321/321 319/319/319 320/320/320 
f 321/321/321 320/320/320 322/322/322 
f 323/323/323 321/321/321 322/322/322 
f 323/323/323 322/322/322 324/324/324 
f 325/325/325 323/323/323 324/324/324 
f 325/325/325 324/324/324 326/326/326 
f 327/327/327 325/325/325 326/326/326 
f 327/327/327 326/326/326 328/328/328 
