# exported by StudySceneExporter from mesh 'flopy.002'
mtllib materials.mtl
v -0.007428846 0.006147784 0.009122339
v -0.007428846 0.006147784 0.006685409
v -0.007428846 0.006468237 0.006685409
v -0.007428846 0.006468237 0.00912029
v -0.007428846 0.006468237 0.01096069
v -0.007428846 0.006147784 0.01099725
v -0.007428846 0.006468237 0.01347611
v -0.007428846 0.006147784 0.01347611
vt 0.8183974 0.6526582
vt 0.8183975 0.7333341
vt 0.8460456 0.7333341
vt 0.8460455 0.6556453
vt 0.8460455 0.5969243
vt 0.8183974 0.5957578
vt 0.8460454 0.5166658
vt 0.8183974 0.5166658
vn -1 0 0
vn -1 0 0
vn -1 0 0
vn -1 0 0
vn -1 0 0
vn -1 0 0
vn -1 0 0
vn -1 0 0
usemtl vintage_1
f 1/1/1 3/3/3 2/2/2 
f 3/3/3 1/1/1 4/4/4 
f 4/4/4 1/1/1 5/5/5 
f 5/5/5 1/1/1 6/6/6 
f 5/5/5 6/6/6 7/7/7 
f 7/7/7 6/6/6 8/8/8 
