# exported by StudySceneExporter from mesh 'Tool_Cabinet_Body_low'
mtllib materials.mtl
v -0.1567334 -0.3130373 -0.265286
v -0.1567334 -0.3130373 0.2451859
v -0.1567334 -0.3130373 0.2553465
v -0.2123089 0.2783571 0.2553465
v -0.2123089 0.2783571 0.2451861
v -0.2123089 0.2783571 -0.2652859
v -0.1741611 -0.3377764 0.288286
v -0.2340404 0.2994162 0.288286
v 0.1741611 0.3377764 0.288286
v 0.2340404 -0.2994162 0.288286
v -0.1741611 -0.3377764 -0.288286
v -0.2340404 0.2994162 -0.2882859
v -0.2318885 0.2765171 -0.2652859
v -0.176313 -0.3148773 -0.265286
v -0.176313 -0.3148773 0.2553465
v -0.2318885 0.2765171 0.2553465
v -0.2340404 0.2994162 0.288286
v -0.1741611 -0.3377764 0.288286
v -0.08421591 -0.3222854 0.1577313
v 0.1427839 -0.3009533 0.1577313
v 0.1427839 -0.3009533 -0.1993583
v -0.08421591 -0.3222854 -0.1993583
v -0.1741611 -0.3377764 0.288286
v -0.1741611 -0.3377764 -0.288286
v -0.176313 -0.3148773 -0.265286
v -0.176313 -0.3148773 0.2553465
v -0.2318885 0.2765171 0.2553465
v -0.2318885 0.2765171 -0.2652859
v -0.2340404 0.2994162 -0.2882859
v -0.2340404 0.2994162 0.288286
v -0.1427839 0.3009534 -0.1993583
v 0.08421588 0.3222854 -0.1993583
v 0.08421588 0.3222854 0.1577313
v -0.1427839 0.3009534 0.1577313
v 0.1741611 0.3377764 0.288286
v 0.1741611 0.3377764 -0.2882859
v 0.2340404 -0.2994162 -0.288286
v 0.2340404 -0.2994162 0.288286
v -0.176313 -0.3148773 -0.265286
v -0.2318885 0.2765171 -0.2652859
v -0.2123089 0.2783571 -0.2652859
v -0.1567334 -0.3130373 -0.265286
v -0.1567334 -0.3130373 0.2553465
v -0.176313 -0.3148773 0.2553465
v -0.176313 -0.3148773 -0.265286
v -0.1567334 -0.3130373 -0.265286
v -0.1567334 -0.3130373 0.2553465
v -0.2123089 0.2783571 0.2553465
v -0.2318885 0.2765171 0.2553465
v -0.176313 -0.3148773 0.2553465
v -0.2123089 0.2783571 -0.2652859
v -0.2318885 0.2765171 -0.2652859
v -0.2318885 0.2765171 0.2553465
v -0.2123089 0.2783571 0.2553465
v -0.09849448 -0.3306657 0.1727313
v 0.1583738 -0.3065269 0.1727313
v 0.1427839 -0.3009533 0.1577313
v -0.08421591 -0.3222854 0.1577313
v -0.09849448 -0.3306657 0.1727313
v -0.08421591 -0.3222854 0.1577313
v -0.08421591 -0.3222854 -0.1993583
v -0.09849448 -0.3306657 -0.2143583
v -0.08421591 -0.3222854 -0.1993583
v 0.1427839 -0.3009533 -0.1993583
v 0.1583738 -0.3065269 -0.2143583
v -0.09849448 -0.3306657 -0.2143583
v 0.1583738 -0.3065269 -0.2143583
v 0.1427839 -0.3009533 -0.1993583
v 0.1427839 -0.3009533 0.1577313
v 0.1583738 -0.3065269 0.1727313
v -0.1427839 0.3009534 0.1577313
v 0.08421588 0.3222854 0.1577313
v 0.09849445 0.3306657 0.1727313
v -0.1583738 0.3065269 0.1727313
v 0.09849445 0.3306657 0.1727313
v 0.08421588 0.3222854 0.1577313
v 0.08421588 0.3222854 -0.1993583
v 0.09849445 0.3306657 -0.2143583
v -0.1583738 0.3065269 -0.2143583
v 0.09849445 0.3306657 -0.2143583
v 0.08421588 0.3222854 -0.1993583
v -0.1427839 0.3009534 -0.1993583
v -0.1583738 0.3065269 -0.2143583
v -0.1427839 0.3009534 -0.1993583
v -0.1427839 0.3009534 0.1577313
v -0.1583738 0.3065269 0.1727313
v 0.1741611 0.3377764 0.288286
v 0.09849445 0.3306657 -0.2143583
v 0.1741611 0.3377764 -0.2882859
v -0.2340404 0.2994162 -0.2882859
v 0.09849445 0.3306657 0.1727313
v -0.1583738 0.3065269 -0.2143583
v -0.1583738 0.3065269 0.1727313
v -0.2340404 0.2994162 0.288286
v -0.1741611 -0.3377764 0.288286
v -0.09849448 -0.3306657 -0.2143583
v -0.1741611 -0.3377764 -0.288286
v 0.2340404 -0.2994162 -0.288286
v -0.09849448 -0.3306657 0.1727313
v 0.1583738 -0.3065269 -0.2143583
v 0.1583738 -0.3065269 0.1727313
v 0.2340404 -0.2994162 0.288286
vt 0.4205449 0.02243681
vt 0.4206411 0.3451402
vt 0.4206429 0.3515636
vt 0.4414009 0.6673713
vt 0.44781 0.6673732
vt 0.7704875 0.6675639
vt 0.4113541 0.0410095
vt 0.007863239 0.04097663
vt 0.007842148 0.2994629
vt 0.411333 0.2994958
vt 0.7941871 0.8867167
vt 0.3906964 0.8866649
vt 0.4051951 0.9011673
vt 0.7796847 0.9012153
vt 0.3968553 0.02024152
vt 0.02236542 0.02021092
vt 0.007863239 0.04097663
vt 0.4113541 0.0410095
vt 0.5056376 0.2894226
vt 0.6490927 0.2894155
vt 0.6491448 0.06451224
vt 0.5056159 0.06456446
vt 0.4475534 0.3724029
vt 0.4474425 0.007896233
vt 0.4329449 0.02243845
vt 0.4330436 0.3515689
vt 0.4413946 0.6549691
vt 0.770498 0.6551635
vt 0.7850532 0.640669
vt 0.4205766 0.6404544
vt 0.728416 0.5825003
vt 0.7284779 0.4389565
vt 0.5035568 0.4389267
vt 0.5035727 0.5823695
vt 0.007842148 0.2994629
vt 0.0078125 0.6629652
vt 0.4113033 0.6629981
vt 0.411333 0.2994958
vt 0.7796847 0.9012153
vt 0.4051951 0.9011673
vt 0.4051935 0.9135657
vt 0.7796832 0.9136137
vt 0.4206429 0.3515636
vt 0.4330436 0.3515689
vt 0.4329449 0.02243845
vt 0.4205449 0.02243681
vt 0.3968563 0.007843032
vt 0.02236643 0.0078125
vt 0.02236542 0.02021092
vt 0.3968553 0.02024152
vt 0.7704875 0.6675639
vt 0.770498 0.6551635
vt 0.4413946 0.6549691
vt 0.4414009 0.6673713
vt 0.4954669 0.2994453
vt 0.6592876 0.2994784
vt 0.6490927 0.2894155
vt 0.5056376 0.2894226
vt 0.4954669 0.2994453
vt 0.5056376 0.2894226
vt 0.5056159 0.06456446
vt 0.4954115 0.05450868
vt 0.5056159 0.06456446
vt 0.6491448 0.06451224
vt 0.6593239 0.05448456
vt 0.4954115 0.05450868
vt 0.6593239 0.05448456
vt 0.6491448 0.06451224
vt 0.6490927 0.2894155
vt 0.6592876 0.2994784
vt 0.5035727 0.5823695
vt 0.5035568 0.4389267
vt 0.4935308 0.4287547
vt 0.4935127 0.5925614
vt 0.4935308 0.4287547
vt 0.5035568 0.4389267
vt 0.7284779 0.4389565
vt 0.7385442 0.4287548
vt 0.738433 0.592684
vt 0.7385442 0.4287548
vt 0.7284779 0.4389565
vt 0.728416 0.5825003
vt 0.738433 0.592684
vt 0.728416 0.5825003
vt 0.5035727 0.5823695
vt 0.4935127 0.5925614
vt 0.4205449 0.3808331
vt 0.7385442 0.4287548
vt 0.7852076 0.3807963
vt 0.7850532 0.640669
vt 0.4935308 0.4287547
vt 0.738433 0.592684
vt 0.4935127 0.5925614
vt 0.4205766 0.6404544
vt 0.4475534 0.3724029
vt 0.4954115 0.05450868
vt 0.4474425 0.007896233
vt 0.7072863 0.0078125
vt 0.4954669 0.2994453
vt 0.6593239 0.05448456
vt 0.6592876 0.2994784
vt 0.7072038 0.3724385
vn -0.09356148 0.9956135 0
vn -0.09356148 0.9956135 0
vn -0.09356148 0.9956135 0
vn 0.09356258 -0.9956133 0
vn 0.09356258 -0.9956133 0
vn 0.09356258 -0.9956133 0
vn 0 0 1
vn 0 0 1
vn 0 0 1
vn 0 0 1
vn -0.9956135 -0.09356137 0
vn -0.9956135 -0.09356136 0
vn -0.9956135 -0.09356136 0
vn -0.9956135 -0.09356136 0
vn -0.9956135 -0.0935615 0
vn -0.9956135 -0.0935615 0
vn -0.9956135 -0.09356149 0
vn -0.9956135 -0.09356149 0
vn 0.0935614 -0.9956135 0
vn 0.0935614 -0.9956135 0
vn 0.0935614 -0.9956135 0
vn 0.0935614 -0.9956135 0
vn -0.9956135 -0.09356132 0
vn -0.9956135 -0.09356131 0
vn -0.9956135 -0.09356132 0
vn -0.9956135 -0.09356132 0
vn -0.9956135 -0.09356146 0
vn -0.9956135 -0.09356146 0
vn -0.9956135 -0.09356147 0
vn -0.9956135 -0.09356146 0
vn -0.09356138 0.9956135 0
vn -0.09356138 0.9956135 0
vn -0.09356138 0.9956135 0
vn -0.09356138 0.9956135 0
vn 0.9956135 0.09356146 0
vn 0.9956135 0.09356146 0
vn 0.9956135 0.09356149 0
vn 0.9956135 0.09356146 0
vn 0 0 1
vn 0 0 1
vn 0 0 1
vn 0 0 1
vn -0.09356148 0.9956135 0
vn -0.09356148 0.9956135 0
vn -0.09356148 0.9956135 0
vn -0.09356148 0.9956135 0
vn 0 0 -1
vn 0 0 -1
vn 0 0 -1
vn 0 0 -1
vn 0.09356258 -0.9956133 0
vn 0.09356258 -0.9956133 0
vn 0.09356258 -0.9956133 0
vn 0.09356258 -0.9956133 0
vn 0.08476722 -0.9020299 -0.4232687
vn 0.08476723 -0.9020301 -0.4232687
vn 0.08476722 -0.9020299 -0.4232687
vn 0.08476722 -0.9020299 -0.4232687
vn 0.506178 -0.862429 0
vn 0.506178 -0.862429 0
vn 0.506178 -0.862429 0
vn 0.506178 -0.862429 0
vn 0.08476711 -0.9020302 0.4232682
vn 0.08476711 -0.9020302 0.4232682
vn 0.0847671 -0.9020302 0.4232682
vn 0.0847671 -0.9020302 0.4232682
vn -0.3366438 -0.9416322 0
vn -0.3366438 -0.9416322 0
vn -0.3366438 -0.9416322 0
vn -0.3366438 -0.9416322 0
vn -0.08476713 0.9020316 -0.4232652
vn -0.08476713 0.9020316 -0.4232652
vn -0.08476715 0.9020316 -0.4232652
vn -0.08476714 0.9020316 -0.4232652
vn -0.5061761 0.86243 0
vn -0.5061761 0.86243 0
vn -0.5061761 0.86243 0
vn -0.5061761 0.86243 0
vn -0.08476726 0.9020314 0.4232658
vn -0.08476727 0.9020314 0.4232658
vn -0.08476726 0.9020313 0.4232658
vn -0.08476726 0.9020313 0.4232658
vn 0.336639 0.9416338 0
vn 0.336639 0.9416338 0
vn 0.336639 0.9416338 0
vn 0.336639 0.9416338 0
vn -0.09356146 0.9956135 0
vn -0.09356033 0.9956136 0
vn -0.09356033 0.9956136 0
vn -0.09356149 0.9956135 0
vn -0.09356146 0.9956135 0
vn -0.09356148 0.9956135 0
vn -0.09356146 0.9956135 0
vn -0.09356146 0.9956135 0
vn 0.09356147 -0.9956135 0
vn 0.09356156 -0.9956135 0
vn 0.09356157 -0.9956135 0
vn 0.09356146 -0.9956135 0
vn 0.09356146 -0.9956135 0
vn 0.09356144 -0.9956135 0
vn 0.09356146 -0.9956135 0
vn 0.09356147 -0.9956135 0
usemtl Mat_Tool_Cabinet
f 1/1/1 3/3/3 2/2/2 
f 4/4/4 6/6/6 5/5/5 
f 7/7/7 9/9/9 8/8/8 
f 7/7/7 10/10/10 9/9/9 
f 11/11/11 13/13/13 12/12/12 
f 11/11/11 14/14/14 13/13/13 
f 15/15/15 17/17/17 16/16/16 
f 15/15/15 18/18/18 17/17/17 
f 19/19/19 21/21/21 20/20/20 
f 19/19/19 22/22/22 21/21/21 
f 23/23/23 25/25/25 24/24/24 
f 23/23/23 26/26/26 25/25/25 
f 27/27/27 29/29/29 28/28/28 
f 27/27/27 30/30/30 29/29/29 
f 31/31/31 33/33/33 32/32/32 
f 31/31/31 34/34/34 33/33/33 
f 35/35/35 37/37/37 36/36/36 
f 35/35/35 38/38/38 37/37/37 
f 39/39/39 41/41/41 40/40/40 
f 39/39/39 42/42/42 41/41/41 
f 43/43/43 45/45/45 44/44/44 
f 45/45/45 43/43/43 46/46/46 
f 47/47/47 49/49/49 48/48/48 
f 47/47/47 50/50/50 49/49/49 
f 51/51/51 53/53/53 52/52/52 
f 53/53/53 51/51/51 54/54/54 
f 55/55/55 57/57/57 56/56/56 
f 55/55/55 58/58/58 57/57/57 
f 59/59/59 61/61/61 60/60/60 
f 59/59/59 62/62/62 61/61/61 
f 63/63/63 65/65/65 64/64/64 
f 63/63/63 66/66/66 65/65/65 
f 67/67/67 69/69/69 68/68/68 
f 67/67/67 70/70/70 69/69/69 
f 71/71/71 73/73/73 72/72/72 
f 71/71/71 74/74/74 73/73/73 
f 75/75/75 77/77/77 76/76/76 
f 75/75/75 78/78/78 77/77/77 
f 79/79/79 81/81/81 80/80/80 
f 79/79/79 82/82/82 81/81/81 
f 83/83/83 85/85/85 84/84/84 
f 83/83/83 86/86/86 85/85/85 
f 87/87/87 89/89/89 88/88/88 
f 90/90/90 88/88/88 89/89/89 
f 87/87/87 88/88/88 91/91/91 
f 90/90/90 92/92/92 88/88/88 
f 93/93/93 87/87/87 91/91/91 
f 90/90/90 93/93/93 92/92/92 
f 93/93/93 94/94/94 87/87/87 
f 90/90/90 94/94/94 93/93/93 
f 95/95/95 97/97/97 96/96/96 
f 96/96/96 97/97/97 98/98/98 
f 95/95/95 96/96/96 99/99/99 
f 96/96/96 98/98/98 100/100/100 
f 95/95/95 99/99/99 101/101/101 
f 98/98/98 101/101/101 100/100/100 
f 95/95/95 101/101/101 102/102/102 
f 98/98/98 102/102/102 101/101/101 
