# exported by StudySceneExporter from mesh 'Workbench_Group_1_low'
mtllib materials.mtl
v -0.2600713 -1.075288 0.2221538
v -0.3113916 -1.086685 0.2224484
v -0.2322296 -1.096408 0.2225578
v -0.3018686 -0.2378722 0.2223017
v -0.3186627 -0.2882668 0.2227584
v -0.3212919 -1.088184 0.2239124
v -0.3224349 -0.2927255 0.2258135
v -0.3186203 -0.2235902 0.2275874
v -0.3229749 -0.2043505 0.2338898
v -0.3228788 -1.006299 0.2288067
v -0.3229359 -1.092751 0.2385271
v -0.3225877 -1.07573 0.2496397
v -0.3229924 0.6344061 0.2339642
v -0.3227796 1.089007 0.2474969
v -0.3194083 -0.1494325 0.2233672
v -0.3225726 -0.09059534 0.2278689
v -0.3215868 1.070535 0.2506245
v -0.3167228 -1.086574 0.2517219
v -0.3137493 1.095965 0.2518656
v -0.2739751 -1.087731 0.2521101
v -0.3134835 -0.08911681 0.2224976
v -0.3152457 1.096086 0.2273016
v -0.3226742 1.080229 0.2308322
v -0.2990458 1.095599 0.2222839
v -0.2620727 1.046358 0.2520884
v -0.2334238 -0.8868617 0.251872
v -0.2321271 1.090614 0.2518139
v -0.2349136 0.4153269 0.2518815
v -0.2336073 0.7529706 0.2517891
v -0.2366838 -0.9356572 0.2519007
v -0.222915 -1.083664 0.2513448
v -0.2214904 -0.9525725 0.2450342
v -0.2214719 -0.8796075 0.2436536
v -0.221523 -1.089333 0.2435748
v -0.2219419 -0.7980794 0.2251139
v -0.2216341 -1.094154 0.228044
v -0.2234408 -1.049562 0.2235682
v -0.2322296 -1.096408 0.2225578
v -0.2600713 -1.075288 0.2221538
v -0.2280113 -0.8988791 0.2225225
v -0.2458404 -0.8681225 0.2222699
v -0.2217227 -0.8041214 0.2509344
v -0.2307213 -0.1010513 0.251626
v -0.2215858 -0.3166482 0.2451074
v -0.2216735 -0.07250221 0.241214
v -0.221702 -0.164822 0.2486105
v -0.2216038 -0.3352518 0.2267945
v -0.2223784 0.1102613 0.2508181
v -0.2397881 -0.7885596 0.2223624
v -0.2419331 0.1261017 0.2223157
v -0.262974 1.090683 0.2221782
v -0.2412362 0.2696188 0.2223435
v -0.2345722 1.084823 0.2224212
v -0.2286518 -0.7541936 0.2225661
v -0.2350875 -0.3430872 0.2224237
v -0.2252924 -0.4082119 0.2231317
v -0.2216899 -0.0816472 0.2226277
v -0.2324449 0.1179697 0.2239139
v -0.2215287 0.1191279 0.233006
v -0.2216097 0.1915884 0.2490118
v -0.2220919 0.1799001 0.2308283
v -0.2281121 0.2465418 0.2256599
v -0.2240585 0.2817659 0.2512296
v -0.2217008 0.223288 0.2372984
v -0.2219754 0.3835994 0.2476353
v -0.2281652 0.3117645 0.2225953
v -0.221456 0.2746632 0.2328152
v -0.2236199 1.036095 0.223372
v -0.2214468 1.093789 0.2328339
v -0.2216593 0.4318443 0.2233912
v -0.2214083 0.7442867 0.2413608
v -0.2227918 0.4522881 0.2502027
v -0.2246715 0.6560607 0.2509653
v -0.2220147 0.8090992 0.2501107
v -0.2222938 1.079507 0.2505612
v -0.2273306 1.096087 0.2453175
v -0.262974 1.090683 0.2221782
v -0.2458404 -0.8681225 0.2222699
v -0.3137564 0.6379051 0.222478
v -0.3119348 0.4262268 0.2224782
v -0.3186468 1.003168 0.222788
v -0.3225567 0.7284373 0.2245184
v -0.3190907 0.5525993 0.2230061
v -0.3226681 0.4286297 0.2287408
v -0.3222204 0.3209592 0.223168
v -0.2321271 1.090614 0.2518139
v -0.3137493 1.095965 0.2518656
v -0.2273306 1.096087 0.2453175
v -0.2683043 1.096486 0.2320161
v -0.3152457 1.096086 0.2273016
v -0.2990458 1.095599 0.2222839
v -0.262974 1.090683 0.2221782
v -0.2306767 1.095708 0.2272377
v -0.2214468 1.093789 0.2328339
v -0.2345722 1.084823 0.2224212
v -0.02264864 -1.096107 0.2232134
v -0.0220231 -1.096111 0.2517473
v -0.01589791 -1.091335 0.2451779
v -0.112082 -1.096459 0.2415276
v -0.1159616 -1.095763 0.2231414
v -0.1077867 -1.092648 0.2517969
v -0.1170108 -1.088775 0.2451616
v -0.1168036 1.096039 0.2295751
v -0.07929424 1.09301 0.2222038
v -0.02784001 1.095427 0.2224192
v -0.1083233 1.074732 0.2224584
v -0.1016581 -0.7230437 0.2224198
v -0.08618726 -1.082567 0.2222042
v -0.1159616 -1.095763 0.2231414
v -0.1163813 -0.7189067 0.2284026
v -0.1170108 -1.088775 0.2451616
v -0.1110248 0.2936717 0.2226282
v -0.1132918 -0.6683859 0.2231654
v -0.1169798 -0.4008309 0.2301788
v -0.1170867 0.3489361 0.2327077
v -0.1164049 0.06232596 0.2232103
v -0.1164198 1.064825 0.2240327
v -0.1165833 0.4294177 0.224474
v -0.1170699 0.9707846 0.2317177
v -0.1168529 1.022537 0.2483332
v -0.1146547 1.095871 0.25127
v -0.1003472 1.039405 0.2519867
v -0.02769821 1.090541 0.2519326
v -0.1110184 0.9656083 0.2490871
v -0.1170622 0.9022647 0.2390952
v -0.1164312 0.8669217 0.2497725
v -0.1036929 0.9069055 0.251907
v -0.1167669 -0.1870674 0.2477202
v -0.1160526 0.05251943 0.251005
v -0.106207 -0.1894647 0.2518042
v -0.1164195 -0.9759527 0.2514014
v -0.1077867 -1.092648 0.2517969
v -0.06734565 -1.083227 0.2521283
v -0.0220231 -1.096111 0.2517473
v -0.02338944 -0.3700141 0.2517054
v -0.02300781 -0.4994023 0.2515448
v -0.01682522 -0.9765071 0.2503553
v -0.01589791 -1.091335 0.2451779
v -0.01552351 -1.085241 0.2326354
v -0.02264864 -1.096107 0.2232134
v -0.01598701 -0.5624715 0.2499153
v -0.01567255 -0.5371993 0.226151
v -0.01758461 -0.5066989 0.2395845
v -0.01559047 -0.4057705 0.2386168
v -0.0159519 -0.358386 0.2347192
v -0.02264755 -1.056702 0.2225451
v -0.01599889 -0.8333423 0.2238624
v -0.02262311 -0.6849213 0.2226727
v -0.01679077 -0.4043226 0.2227797
v -0.08618726 -1.082567 0.2222042
v -0.1159616 -1.095763 0.2231414
v -0.04068476 -0.3842013 0.2222343
v -0.07929424 1.09301 0.2222038
v -0.02887835 0.7270339 0.2223631
v -0.03310936 -0.3123582 0.2224374
v -0.02626365 0.3041882 0.222462
v -0.02784001 1.095427 0.2224192
v -0.02101392 -0.3742644 0.2259595
v -0.01563094 -0.3175775 0.2310889
v -0.01629967 0.9192551 0.2234728
v -0.0157086 1.091666 0.2295236
v -0.01751584 -0.2832251 0.2507043
v -0.01612131 0.7716181 0.2269006
v -0.01570466 -0.2343146 0.2474187
v -0.01580307 -0.252865 0.2257616
v -0.01643775 0.5227332 0.2503246
v -0.01555533 0.6097874 0.238062
v -0.01565884 0.3024614 0.23053
v -0.01570605 -0.001002455 0.2294248
v -0.01677123 -0.04154383 0.2229256
v -0.02458306 0.001157497 0.2225465
v -0.01709745 0.1428251 0.2235248
v -0.0222012 0.6016392 0.2515496
v -0.01673156 0.2756295 0.2237511
v -0.0231117 0.819502 0.2516792
v -0.01629841 0.3055487 0.2278665
v -0.01683722 0.3446456 0.2263603
v -0.01640242 0.4570852 0.2258612
v -0.02701227 0.4525135 0.2224618
v -0.01734402 0.6860401 0.2233809
v -0.01647346 1.062462 0.2503662
v -0.01578779 1.089779 0.2453371
v -0.01556121 0.8379124 0.2379575
v -0.01602331 0.8834592 0.2486175
v -0.0159407 0.6553997 0.2489148
v -0.01643993 0.772653 0.2502947
v 0.1735271 -1.08777 0.2519293
v 0.1895322 -1.096183 0.2342487
v 0.0967311 -1.096153 0.2516281
v 0.08826396 -1.096193 0.2330093
v 0.1883063 -1.095919 0.2231614
v 0.1056238 -1.092281 0.2222762
v 0.1884519 1.095345 0.2315825
v 0.1872309 1.082048 0.2502601
v 0.1663816 1.095255 0.2520078
v 0.08900179 1.095924 0.2500706
v 0.1247487 1.096011 0.2222132
v 0.09824043 1.095422 0.2224289
v 0.09824043 1.095422 0.2224289
v 0.1056238 -1.092281 0.2222762
v 0.1247487 1.096011 0.2222132
v 0.09997319 0.3723238 0.2225069
v 0.09642119 0.9189152 0.2226925
v 0.08840217 1.079679 0.22436
v 0.08900179 1.095924 0.2500706
v 0.08842529 0.955897 0.2487768
v 0.08821358 0.9063657 0.2336525
v 0.09738719 1.095331 0.2518405
v 0.1663816 1.095255 0.2520078
v 0.09358726 0.4064675 0.2229741
v 0.08833835 0.3715096 0.229489
v 0.08828143 0.761352 0.2230841
v 0.08833611 0.6055318 0.2430344
v 0.08864072 0.3888444 0.2500822
v 0.1000747 0.2733098 0.2224298
v 0.09060933 0.646834 0.2510776
v 0.112463 0.600611 0.2519308
v 0.126439 0.5310897 0.2520726
v 0.0890522 0.5348732 0.245853
v 0.0881667 0.2785738 0.2374499
v 0.08816753 -1.092761 0.2407475
v 0.08848406 0.1773839 0.2245779
v 0.09509051 -0.3827974 0.2227085
v 0.08915459 -1.06702 0.2235771
v 0.08826396 -1.096193 0.2330093
v 0.0967311 -1.096153 0.2516281
v 0.09329864 0.4790658 0.2518231
v 0.1037296 0.4235306 0.2519323
v 0.08901927 -0.3159882 0.250217
v 0.1046382 -1.030376 0.2520508
v 0.09043274 -0.897159 0.2512031
v 0.08820054 -0.9398376 0.2455103
v 0.0885255 -1.050278 0.2474649
v 0.1735271 -1.08777 0.2519293
v 0.1770494 0.9890933 0.2518629
v 0.1872309 1.082048 0.2502601
v 0.1817413 0.2012242 0.251612
v 0.1816775 -0.7879422 0.251689
v 0.1897595 1.048784 0.2401024
v 0.1884519 1.095345 0.2315825
v 0.1889302 -1.07251 0.2508921
v 0.1895322 -1.096183 0.2342487
v 0.1895234 -0.7582577 0.2470745
v 0.1895578 0.9826577 0.2426449
v 0.1863114 0.9607315 0.250651
v 0.1895224 0.8538175 0.2463968
v 0.179312 0.8523014 0.2517674
v 0.1860188 0.6925809 0.2511333
v 0.1885748 0.4053153 0.2496356
v 0.18679 1.082056 0.2226343
v 0.1247487 1.096011 0.2222132
v 0.1772087 0.8677294 0.2223488
v 0.1894247 0.1988568 0.2459215
v 0.1896716 -0.5614311 0.2440623
v 0.1885365 -0.3170141 0.2509943
v 0.1830178 -0.5630869 0.2515195
v 0.1890765 -0.6284571 0.2498525
v 0.1470982 -0.8407111 0.2221892
v 0.1779551 -0.7692431 0.2225773
v 0.1056238 -1.092281 0.2222762
v 0.179093 -0.8558629 0.2224012
v 0.1883063 -1.095919 0.2231614
v 0.1892891 -0.8108282 0.2235529
v 0.1867824 -0.7627786 0.2294945
v 0.1891059 -0.6565186 0.2414266
v 0.1893905 -0.5783382 0.2266546
v 0.1856177 -0.672007 0.2270594
v 0.1887307 -0.3454958 0.224519
v 0.1895134 -0.1879048 0.228875
v 0.1842495 -0.1815973 0.222709
v 0.1892494 0.5364065 0.2263202
v 0.1888558 -0.07827956 0.2243135
v 0.1822666 0.580308 0.2225139
v 0.1896254 0.7898055 0.2334396
v 0.1892773 0.6934791 0.2236256
v 0.1853408 0.78351 0.2232867
v 0.1890371 0.8648677 0.2265874
v 0.1894074 1.035636 0.226105
v 0.3218106 1.094683 0.3686842
v 0.3229862 1.090597 0.3170572
v 0.3226852 1.086302 0.359709
v 0.3228156 -1.092712 0.352292
v 0.3229924 -1.086709 0.2793484
v 0.3228243 1.093056 0.2391992
v 0.3227666 -1.096153 0.2400541
v 0.3216922 1.095661 0.2871513
v 0.3188767 1.095836 0.2200637
v 0.3224333 0.07000875 0.2277291
v 0.3223722 -0.6521108 0.2275696
v 0.3225248 -1.004714 0.2299106
v 0.3220656 -1.091892 0.224664
v 0.3201793 -1.074116 0.2208237
v 0.3146669 -1.093165 0.2216247
v 0.3105896 -1.085197 0.2196619
v 0.3190483 -1.001429 0.2202645
v 0.2956958 -1.088556 0.223919
v 0.2984215 -1.096398 0.2316318
v 0.2931508 -1.093353 0.2608739
v 0.2978373 -1.096515 0.3127758
v 0.321843 -0.9533686 0.223325
v 0.3147411 -0.9512376 0.2197104
v 0.3211108 -0.8458871 0.2197205
v 0.3133363 -0.6452116 0.2196836
v 0.2931165 -1.084429 0.3174599
v 0.2937259 -1.09583 0.3636763
v 0.3195718 -0.5258971 0.2198211
v 0.2959955 -0.5232301 0.2200539
v 0.3216334 -0.5013911 0.2213799
v 0.3175831 -0.069254 0.2197676
v 0.3192886 0.06530549 0.2200944
v 0.3149206 0.8610615 0.2196638
v 0.3207114 0.7408033 0.2205916
v 0.3217326 0.2805562 0.2216875
v 0.322394 0.8654115 0.2276089
v 0.3218924 1.087497 0.2228624
v 0.3223178 0.9369394 0.2250738
v 0.3202106 0.9630038 0.2200878
v 0.3113065 0.9321184 0.2195437
v 0.3060233 -0.4243822 0.2195717
v 0.3036448 -0.486 0.2196241
v 0.2937257 -0.4797625 0.2286114
v 0.3070233 1.080812 0.2196246
v 0.2936774 1.089982 0.2274841
v 0.295876 1.096274 0.2352576
v 0.2961294 0.9804558 0.2200802
v 0.2968666 0.2871813 0.2198643
v 0.300708 1.052916 0.2223721
v 0.2935051 1.045146 0.231902
v 0.2933374 1.090549 0.2381339
v 0.2931265 1.092909 0.2701591
v 0.2954046 1.094962 0.3100733
v 0.2933782 -0.2262391 0.2336067
v 0.2936899 -0.1248447 0.227821
v 0.2941974 0.820994 0.2235935
v 0.2948776 0.1995708 0.2213735
v 0.2930825 1.084822 0.3155369
v 0.2933804 1.093909 0.3569684
v 0.2967597 1.096049 0.3619444
v 0.3078252 0.1867207 0.2196173
v 0.3126617 -0.006861613 0.219648
v 0.2967392 0.06606581 0.2194563
v 0.2946 -0.06433384 0.2215005
v 0.3013463 -0.05094333 0.2195974
v 0.2993217 -0.1163619 0.220405
v 0.2975167 -0.2059876 0.2197262
v 0.2952704 -0.3482835 0.2203699
v 0.2945941 -0.2478362 0.2215659
v 0.2936427 -0.3805882 0.2281359
v 0.2935461 -0.8613533 0.2299697
v 0.2941729 -0.8183401 0.223064
v 0.2976654 -0.8876973 0.2198537
v 0.2934229 -1.059298 0.2330418
v 0.2940257 -0.999141 0.2271797
v 0.2965948 -1.066441 0.2195932
v 0.3011885 -0.9795356 0.2197194
v 0.2932836 -1.047986 0.3493429
v 0.2937717 -0.3851817 0.3665187
v 0.2938904 -0.6353534 0.3660562
v 0.2952158 -1.090797 0.3713662
v 0.2933264 -0.1868127 0.3526518
v 0.293672 0.6497868 0.3626851
v 0.2935463 1.011403 0.3614544
v 0.2948233 1.084385 0.3714144
v 0.3081203 1.09382 0.3718156
v 0.2975768 1.00001 0.3715529
v 0.2940316 0.983166 0.3674513
v 0.2957138 0.756299 0.3712885
v 0.3031955 0.6854061 0.3719216
v 0.3197842 1.077666 0.3715911
v 0.3218106 1.094683 0.3686842
v 0.3138486 0.5395801 0.3718937
v 0.3204023 -1.093333 0.3715186
v 0.3104367 0.1067446 0.3719334
v 0.3103597 -0.8424012 0.3719341
v 0.3222462 -1.095656 0.3658501
v 0.3226852 1.086302 0.359709
v 0.3228156 -1.092712 0.352292
v 0.3015582 0.6108336 0.3713549
v 0.2950886 0.561085 0.3709555
v 0.296708 -0.9305955 0.371767
v 0.2951174 -0.8889155 0.3697965
v 0.2960699 0.1515361 0.3716433
v 0.293696 -0.1592479 0.3648259
v 0.2942632 0.1147601 0.3681875
v 0.2952546 -0.7091537 0.371622
v 0.2999215 -0.6382127 0.3718512
v 0.2954946 -0.5518723 0.3716825
v 0.3026003 -0.3924721 0.3718158
v 0.295945 -0.4520363 0.3709446
v 0.2976521 -0.1938441 0.3717665
v 0.2950101 -0.164745 0.3705401
v 0.2959256 0.08634397 0.3714934
v 0.2935091 -0.2522636 0.3643147
v 0.3025522 -0.279305 0.3718512
v 0.2958287 -0.3475656 0.3709538
v 0.2967597 1.096049 0.3619444
v 0.3218106 1.094683 0.3686842
v 0.3081203 1.09382 0.3718156
v 0.3161008 1.09662 0.3279695
v 0.2954046 1.094962 0.3100733
v 0.3229862 1.090597 0.3170572
v 0.295876 1.096274 0.2352576
v 0.3216922 1.095661 0.2871513
v 0.3188767 1.095836 0.2200637
v 0.2937259 -1.09583 0.3636763
v 0.2952158 -1.090797 0.3713662
v 0.3204023 -1.093333 0.3715186
v 0.3222462 -1.095656 0.3658501
v 0.3133385 -1.09662 0.3382099
v 0.2978373 -1.096515 0.3127758
v 0.3228156 -1.092712 0.352292
v 0.2984215 -1.096398 0.2316318
v 0.3227666 -1.096153 0.2400541
v 0.3146669 -1.093165 0.2216247
v 0.3220656 -1.091892 0.224664
v -0.1223815 -0.9027737 -0.3710228
v -0.189526 -0.9035918 -0.368958
v -0.1209879 -0.9029174 -0.3490955
v -0.204508 -0.903469 -0.3512112
v -0.2214338 -0.9017489 -0.3631375
v -0.1770742 -0.8998155 -0.3465741
v -0.2145508 -0.8986071 -0.3470588
v -0.2201567 0.003831126 -0.3687603
v -0.2135752 0.008240021 -0.3716297
v -0.2193878 0.007206255 -0.3476386
v -0.1551309 0.00826175 -0.3575838
v -0.1461186 0.005967892 -0.3466958
v -0.1561484 0.002006155 -0.3718992
v -0.1191491 0.006984378 -0.3528173
v -0.1353805 0.007889931 -0.3636054
v -0.1202404 0.003713127 -0.3706636
v -0.1561484 0.002006155 -0.3718992
v -0.1234637 -0.2542971 -0.3714642
v -0.1202404 0.003713127 -0.3706636
v -0.1306567 -0.8891008 -0.3716462
v -0.1715341 -0.8951806 -0.3719341
v -0.1223815 -0.9027737 -0.3710228
v -0.189526 -0.9035918 -0.368958
v -0.2135752 0.008240021 -0.3716297
v -0.2104462 -0.896691 -0.3716144
v -0.2178949 -0.8080707 -0.3709608
v -0.2214338 -0.9017489 -0.3631375
v -0.2179255 -0.2888859 -0.3705704
v -0.2201567 0.003831126 -0.3687603
v -0.2201477 -0.8271096 -0.3619865
v -0.220502 -0.8676881 -0.3494376
v -0.2145508 -0.8986071 -0.3470588
v -0.2162699 -0.7760243 -0.3473502
v -0.1770742 -0.8998155 -0.3465741
v -0.2206553 -0.797868 -0.3568687
v -0.220421 -0.2417911 -0.368927
v -0.2206311 -0.2811468 -0.3591602
v -0.2203395 -0.3226432 -0.3697965
v -0.2207151 -0.03676951 -0.3546422
v -0.2193878 0.007206255 -0.3476386
v -0.2205498 -0.5793477 -0.3645095
v -0.2208731 -0.7655379 -0.3691326
v -0.2204673 -0.525417 -0.350857
v -0.2198937 -0.6673672 -0.3486513
v -0.2124456 -0.503819 -0.3469481
v -0.2128705 -0.04502114 -0.3470502
v -0.2202483 -0.1683335 -0.3483527
v -0.195006 -0.007199601 -0.3466374
v -0.1461186 0.005967892 -0.3466958
v -0.2127882 -0.3002577 -0.3470251
v -0.2204373 -0.3131308 -0.3538582
v -0.2187616 -0.3631013 -0.3479294
v -0.1254385 -0.8923894 -0.3469639
v -0.1209879 -0.9029174 -0.3490955
v -0.1272193 -0.1703576 -0.3470966
v -0.120133 -0.001939687 -0.3475794
v -0.1191491 0.006984378 -0.3528173
v -0.1192371 -0.1793167 -0.3508631
v -0.1207063 -0.2372984 -0.3478624
v -0.119128 -0.2559776 -0.3577567
v -0.1193415 -0.2352626 -0.3684672
v -0.1202404 0.003713127 -0.3706636
v -0.1234637 -0.2542971 -0.3714642
v -0.1192194 -0.8680577 -0.3550099
v -0.1195502 -0.7961571 -0.3488365
v -0.1192311 -0.8997555 -0.369126
v -0.1223815 -0.9027737 -0.3710228
v -0.1192301 -0.5183705 -0.3557669
v -0.1205197 -0.6129724 -0.3699355
v -0.1306567 -0.8891008 -0.3716462
v -0.1192352 -0.3440594 -0.3703021
v 0.02762745 0.008101908 -0.3589707
v 0.03705151 0.004240481 -0.3717687
v 0.1217687 0.007264093 -0.3702426
v 0.1223586 0.007273225 -0.3539445
v 0.07981986 0.006441736 -0.3477014
v 0.02298764 0.005588702 -0.3471781
v 0.1078373 0.002373792 -0.3467924
v 0.1174634 -0.8991278 -0.3715634
v 0.07226501 -0.9032978 -0.3701429
v 0.122407 -0.9034759 -0.3545938
v 0.02299092 -0.9030601 -0.3481689
v 0.02130867 -0.9025285 -0.3687981
v 0.1219355 -0.9029058 -0.3485718
v 0.03705151 0.004240481 -0.3717687
v 0.1161255 0.002841749 -0.3714197
v 0.1217687 0.007264093 -0.3702426
v 0.08770148 -0.00594381 -0.3718731
v 0.1174634 -0.8991278 -0.3715634
v 0.05475418 -0.8968005 -0.3719026
v 0.07226501 -0.9032978 -0.3701429
v 0.02130867 -0.9025285 -0.3687981
v 0.02693865 -0.2844285 -0.371406
v 0.02454385 -0.8951966 -0.3713095
v 0.02239582 -0.4391905 -0.3703671
v 0.02118031 -0.3022847 -0.365788
v 0.02097839 -0.4293877 -0.3633193
v 0.02110063 -0.004921756 -0.3674237
v 0.02127426 -0.1743534 -0.3520436
v 0.02762745 0.008101908 -0.3589707
v 0.02298764 0.005588702 -0.3471781
v 0.02514791 -0.06206789 -0.3713194
v 0.0220551 -0.2535464 -0.3699083
v 0.02101129 -0.8678649 -0.3547157
v 0.02299092 -0.9030601 -0.3481689
v 0.02119949 -0.03750118 -0.3483582
v 0.02432316 -0.192446 -0.3474217
v 0.02159453 -0.3271971 -0.3488845
v 0.02440614 -0.3597418 -0.3486629
v 0.03428201 -0.3695041 -0.3468062
v 0.02434452 -0.475626 -0.3533683
v 0.03922483 -0.486497 -0.3467523
v 0.02134109 -0.5585495 -0.3471915
v 0.02134632 -0.6382086 -0.3510174
v 0.02304596 -0.7677096 -0.3475768
v 0.03413806 -0.6301681 -0.3467993
v 0.03308892 -0.8911719 -0.3467171
v 0.06802218 -0.01236962 -0.3465444
v 0.1078373 0.002373792 -0.3467924
v 0.1139808 -0.9002414 -0.346794
v 0.1219355 -0.9029058 -0.3485718
v 0.1131661 -0.4372286 -0.3469379
v 0.1214699 -0.5478609 -0.3477761
v 0.1224714 -0.4341474 -0.3524105
v 0.122407 -0.9034759 -0.3545938
v 0.1217834 -0.03683108 -0.3470561
v 0.1223586 0.007273225 -0.3539445
v 0.1225183 -0.1791974 -0.3562046
v 0.1221461 -0.1291967 -0.3692088
v 0.1217687 0.007264093 -0.3702426
v 0.1188808 -0.1958688 -0.3709257
v 0.1161255 0.002841749 -0.3714197
v 0.1225415 -0.2911271 -0.3590474
v 0.1190615 -0.6313956 -0.3708123
v 0.1174634 -0.8991278 -0.3715634
v 0.1222326 -0.8198824 -0.370932
v 0.1224662 -0.5949492 -0.3626313
v 0.122394 -0.3712094 -0.3693317
v -0.01578779 1.089779 0.2453371
v -0.02769821 1.090541 0.2519326
v -0.02386507 1.096303 0.2414396
v -0.0157086 1.091666 0.2295236
v -0.1146547 1.095871 0.25127
v -0.02784001 1.095427 0.2224192
v -0.1168036 1.096039 0.2295751
v -0.2739751 -1.087731 0.2521101
v -0.222915 -1.083664 0.2513448
v -0.2389175 -1.096226 0.2505709
v -0.221523 -1.089333 0.2435748
v -0.2216341 -1.094154 0.228044
v -0.2322296 -1.096408 0.2225578
v -0.3153811 -1.096318 0.243418
v -0.3167228 -1.086574 0.2517219
v -0.3225877 -1.07573 0.2496397
v -0.3229359 -1.092751 0.2385271
v -0.3100169 -1.096236 0.2276428
v -0.3113916 -1.086685 0.2224484
v -0.3212919 -1.088184 0.2239124
vt 0.6270958 0.7181076
vt 0.6120291 0.7213024
vt 0.63525 0.72443
vt 0.6183346 0.4770645
vt 0.6132688 0.4917639
vt 0.6090859 0.7217138
vt 0.6118444 0.4930213
vt 0.6125259 0.4725538
vt 0.6100262 0.4666846
vt 0.6079274 0.698117
vt 0.6047031 0.7230034
vt 0.6015272 0.7180684
vt 0.6138458 0.2233602
vt 0.6118894 0.09223914
vt 0.6135687 0.450486
vt 0.612351 0.4332857
vt 0.6108276 0.09750012
vt 0.5996343 0.7212026
vt 0.6086656 0.08966004
vt 0.58697 0.7214932
vt 0.6156903 0.4328203
vt 0.6183918 0.08947498
vt 0.6166441 0.0946648
vt 0.6246033 0.08907899
vt 0.5932083 0.1035635
vt 0.5760404 0.6614438
vt 0.5851851 0.09092082
vt 0.583148 0.2827623
vt 0.5838741 0.1859278
vt 0.5766118 0.6761041
vt 0.5725746 0.720302
vt 0.5712004 0.6812388
vt 0.5711078 0.6590862
vt 0.5703518 0.7219702
vt 0.566349 0.635447
vt 0.5658014 0.723344
vt 0.5646124 0.7099785
vt 0.562233 0.7240233
vt 0.5536785 0.7177697
vt 0.5640321 0.6651483
vt 0.5592337 0.6559628
vt 0.5733973 0.6369982
vt 0.579721 0.4338223
vt 0.5750166 0.4961005
vt 0.575382 0.4251324
vt 0.5767884 0.4517099
vt 0.5694032 0.500859
vt 0.5781031 0.3720642
vt 0.5613381 0.6325576
vt 0.5650792 0.3674003
vt 0.5638812 0.0904455
vt 0.5655354 0.3252597
vt 0.572026 0.09223785
vt 0.5646152 0.6225514
vt 0.5648791 0.5031861
vt 0.5674563 0.5222152
vt 0.5699745 0.4277796
vt 0.5680996 0.3698744
vt 0.5726382 0.3696146
vt 0.5776951 0.3483353
vt 0.572182 0.3517473
vt 0.57008 0.332092
vt 0.579191 0.3219438
vt 0.5743826 0.3391042
vt 0.578698 0.2920468
vt 0.5695992 0.3129131
vt 0.573704 0.3235326
vt 0.5747846 0.1069372
vt 0.5776798 0.08959419
vt 0.5718983 0.2780034
vt 0.5783646 0.1884941
vt 0.5797407 0.2721501
vt 0.5809621 0.2144238
vt 0.5809929 0.1694919
vt 0.5824376 0.09432443
vt 0.582386 0.08921757
vt 0.6352379 0.09053207
vt 0.6321613 0.6580961
vt 0.6184551 0.2224174
vt 0.6183717 0.2842835
vt 0.6188481 0.1172754
vt 0.616639 0.1956674
vt 0.6166712 0.247582
vt 0.6139306 0.2838172
vt 0.6150743 0.3150142
vt 0.0658415 0.7418279
vt 0.06791687 0.7655957
vt 0.0682373 0.7403279
vt 0.07285041 0.752044
vt 0.07503176 0.7655946
vt 0.07620758 0.7608082
vt 0.07609314 0.7502174
vt 0.07340431 0.7413574
vt 0.07225806 0.738514
vt 0.07689041 0.7417037
vt 0.7547164 0.8038595
vt 0.7546119 0.7955339
vt 0.752354 0.7974448
vt 0.780509 0.7985967
vt 0.7819031 0.803863
vt 0.7795059 0.7954285
vt 0.7828664 0.7970181
vt 0.6439388 0.06824541
vt 0.6429749 0.08041544
vt 0.6451959 0.09588189
vt 0.6375289 0.07201306
vt 0.1198651 0.08178473
vt 0.01504654 0.08781878
vt 0.0109149 0.07983009
vt 0.1204335 0.07682678
vt 0.01226877 0.07379355
vt 0.4126375 0.07463747
vt 0.1358695 0.07811847
vt 0.2113105 0.07487723
vt 0.427972 0.07047033
vt 0.3455131 0.07430699
vt 0.6346735 0.06963352
vt 0.4514828 0.07237703
vt 0.6073662 0.06772034
vt 0.6228054 0.0629076
vt 0.6440066 0.06213383
vt 0.6271425 0.05795737
vt 0.6441221 0.03657352
vt 0.6060043 0.06177405
vt 0.5871222 0.06594028
vt 0.5762392 0.06319295
vt 0.5886247 0.05948421
vt 0.2723464 0.06878604
vt 0.3415926 0.06674206
vt 0.2719693 0.06515839
vt 0.04465697 0.07153233
vt 0.01064307 0.06969275
vt 0.01336911 0.05778986
vt 0.008582537 0.04465767
vt 0.2196885 0.04183502
vt 0.182024 0.04229802
vt 0.04302428 0.04260929
vt 0.009833485 0.04178121
vt 0.01221868 0.03796479
vt 0.009533717 0.03437917
vt 0.1641292 0.04079547
vt 0.1714798 0.03449979
vt 0.1800274 0.03835943
vt 0.2092711 0.03709452
vt 0.2233648 0.03541156
vt 0.02072496 0.03335958
vt 0.08547987 0.03502161
vt 0.1286617 0.03342712
vt 0.2104824 0.03214113
vt 0.01228709 0.01524912
vt 0.0078125 0.007927838
vt 0.2169076 0.02542966
vt 0.6434413 0.007812502
vt 0.537811 0.02414892
vt 0.238169 0.02733659
vt 0.4163382 0.02667108
vt 0.643712 0.02293904
vt 0.2193221 0.03212193
vt 0.2358664 0.03380599
vt 0.5929424 0.02669078
vt 0.6422695 0.02748992
vt 0.2452698 0.0397249
vt 0.5505326 0.02819715
vt 0.2597909 0.03845391
vt 0.2551027 0.03225243
vt 0.4786351 0.03590031
vt 0.5042577 0.03207956
vt 0.4162743 0.03129653
vt 0.3285673 0.03225952
vt 0.3166595 0.03071394
vt 0.3290063 0.02846464
vt 0.3703508 0.02994332
vt 0.5020042 0.03715269
vt 0.4086656 0.02946774
vt 0.5653388 0.03644404
vt 0.4170447 0.03038198
vt 0.428145 0.02978475
vt 0.4606894 0.02921101
vt 0.4589709 0.02583342
vt 0.5259755 0.02751795
vt 0.6353006 0.03348265
vt 0.6428648 0.03191738
vt 0.5697049 0.03109034
vt 0.5834396 0.03392294
vt 0.5174808 0.03498786
vt 0.551443 0.03480554
vt 0.8137903 0.780854
vt 0.8093995 0.786706
vt 0.8361375 0.7811281
vt 0.838697 0.7864631
vt 0.8098199 0.7899064
vt 0.833764 0.7898995
vt 0.8556631 0.8116162
vt 0.8546425 0.8181796
vt 0.8617897 0.8177925
vt 0.8841797 0.8181869
vt 0.8741919 0.8096936
vt 0.881853 0.8100817
vt 0.07200593 0.09705035
vt 0.0804112 0.7294049
vt 0.07987976 0.09678931
vt 0.07456917 0.3060453
vt 0.07211721 0.1484855
vt 0.06934202 0.1018915
vt 0.06223613 0.09591629
vt 0.06287843 0.1372651
vt 0.06736606 0.1521158
vt 0.05979162 0.0964038
vt 0.03969204 0.09604711
vt 0.07264948 0.2960314
vt 0.07021821 0.3060836
vt 0.07048821 0.1941043
vt 0.06540799 0.2387056
vt 0.06435311 0.3013213
vt 0.07490712 0.3347315
vt 0.06294364 0.2264606
vt 0.05683148 0.2400083
vt 0.0529117 0.2604775
vt 0.06485623 0.2592667
vt 0.06835973 0.3338959
vt 0.0704577 0.7290153
vt 0.07214546 0.3644101
vt 0.07538462 0.5247574
vt 0.07541192 0.7218937
vt 0.0726974 0.7305229
vt 0.0662092 0.7303244
vt 0.06285417 0.2757129
vt 0.05997241 0.2921167
vt 0.06620526 0.5057358
vt 0.06329292 0.710025
vt 0.06708235 0.6725269
vt 0.06882823 0.6849385
vt 0.06834543 0.7165053
vt 0.0431183 0.7280613
vt 0.03710902 0.1281627
vt 0.0336405 0.09985805
vt 0.03784853 0.3547668
vt 0.04031074 0.6402455
vt 0.03158754 0.1107052
vt 0.02769554 0.09640082
vt 0.03894222 0.7234828
vt 0.03442669 0.7310513
vt 0.03756487 0.6323134
vt 0.03208661 0.1304366
vt 0.03458005 0.1366678
vt 0.03341961 0.1673322
vt 0.03688854 0.1677493
vt 0.03537041 0.2135701
vt 0.03524929 0.2954468
vt 0.02612853 0.1009462
vt 0.008037806 0.09581198
vt 0.02420306 0.1628984
vt 0.03478986 0.355461
vt 0.03608102 0.5744963
vt 0.03736711 0.5039765
vt 0.03945613 0.57509
vt 0.03771269 0.5942671
vt 0.01923579 0.6558344
vt 0.02834606 0.6343753
vt 0.0078125 0.7316179
vt 0.02805942 0.6607885
vt 0.03131151 0.7312278
vt 0.03087181 0.6475901
vt 0.03194851 0.6330746
vt 0.03525418 0.6025581
vt 0.03122222 0.5796905
vt 0.03071123 0.6067603
vt 0.03005236 0.5123243
vt 0.03100336 0.465319
vt 0.02835137 0.4638437
vt 0.02863115 0.2566832
vt 0.02945685 0.4337757
vt 0.02607626 0.2447278
vt 0.03006011 0.1846696
vt 0.02769113 0.2122767
vt 0.02664077 0.186596
vt 0.02795327 0.1635774
vt 0.02749908 0.1143837
vt 0.5465196 0.09043001
vt 0.5316191 0.09157769
vt 0.5440189 0.09287491
vt 0.5450742 0.7238414
vt 0.5238842 0.7219893
vt 0.5089823 0.09154786
vt 0.5124785 0.7248805
vt 0.5229001 0.09028354
vt 0.5029092 0.09052921
vt 0.5073414 0.3864735
vt 0.5082821 0.5963984
vt 0.5094458 0.6981895
vt 0.5078351 0.7236971
vt 0.5066684 0.7183683
vt 0.5049808 0.7241338
vt 0.5038921 0.7214719
vt 0.5063471 0.6971993
vt 0.4990717 0.7223561
vt 0.4973339 0.725168
vt 0.488258 0.7239186
vt 0.4731885 0.7259018
vt 0.5075302 0.6831256
vt 0.5049788 0.6825207
vt 0.5065107 0.6521068
vt 0.5044731 0.5943857
vt 0.4718056 0.7220289
vt 0.4584354 0.7255095
vt 0.5056374 0.559286
vt 0.4992932 0.5586392
vt 0.5063434 0.5521118
vt 0.5045996 0.4266445
vt 0.5048926 0.3877707
vt 0.5025241 0.1591971
vt 0.5043079 0.1939794
vt 0.5053419 0.3257626
vt 0.5060927 0.1578654
vt 0.5041894 0.09311236
vt 0.5052377 0.1368524
vt 0.5037324 0.1292971
vt 0.5014725 0.138218
vt 0.5015376 0.5294636
vt 0.5007911 0.5476785
vt 0.4966405 0.5458125
vt 0.4993561 0.09534483
vt 0.4945716 0.09302326
vt 0.4927292 0.09062528
vt 0.4969635 0.1245556
vt 0.4981963 0.3238313
vt 0.4973104 0.1035114
vt 0.4933955 0.1058418
vt 0.4915335 0.09252398
vt 0.4822039 0.09185104
vt 0.4704404 0.09097745
vt 0.4947615 0.4722914
vt 0.4962203 0.4426011
vt 0.4960934 0.1701109
vt 0.497631 0.3491803
vt 0.4690208 0.09406398
vt 0.4569784 0.09179238
vt 0.4553419 0.0907235
vt 0.5014565 0.3528808
vt 0.5031114 0.4086256
vt 0.4985763 0.3876177
vt 0.4979466 0.4250257
vt 0.4999699 0.4212753
vt 0.4991226 0.4402291
vt 0.498953 0.4665076
vt 0.4985039 0.5073224
vt 0.4980534 0.478563
vt 0.4964997 0.5166816
vt 0.4968149 0.6562592
vt 0.4986742 0.6438937
vt 0.5000634 0.6639277
vt 0.4962634 0.7138359
vt 0.4979414 0.6963781
vt 0.5000026 0.7159171
vt 0.5010968 0.6907455
vt 0.4624855 0.7112268
vt 0.4564789 0.5200405
vt 0.4570364 0.5924658
vt 0.4561726 0.7243473
vt 0.4602185 0.4622231
vt 0.4561485 0.2194321
vt 0.4558493 0.1154447
vt 0.4531205 0.0944561
vt 0.4495013 0.09124098
vt 0.4526267 0.1186115
vt 0.4541981 0.1235562
vt 0.4534924 0.1885065
vt 0.4515449 0.2088679
vt 0.4461971 0.09584241
vt 0.4451463 0.09088919
vt 0.4486441 0.2519439
vt 0.4489672 0.7247399
vt 0.4502213 0.3773323
vt 0.4515432 0.6523287
vt 0.4472384 0.7253823
vt 0.4425382 0.09327707
vt 0.4432922 0.7244949
vt 0.4523236 0.2310151
vt 0.4539436 0.2457303
vt 0.4556167 0.6780132
vt 0.4562851 0.6659022
vt 0.4542352 0.3641837
vt 0.4567239 0.454192
vt 0.4553836 0.3749793
vt 0.4555542 0.6140882
vt 0.4542591 0.5931805
vt 0.4553784 0.5681412
vt 0.4531966 0.5220471
vt 0.4552142 0.5393422
vt 0.4543054 0.4641577
vt 0.4550799 0.4557281
vt 0.4543723 0.3832493
vt 0.4567865 0.4813631
vt 0.4530604 0.489307
vt 0.4550245 0.5090686
vt 0.7236404 0.6900544
vt 0.7164747 0.6922473
vt 0.7204515 0.6930733
vt 0.7177441 0.6803955
vt 0.7236448 0.6750804
vt 0.7149794 0.677335
vt 0.7230708 0.653451
vt 0.7158861 0.6686043
vt 0.7163385 0.649176
vt 0.870124 0.7438306
vt 0.8696715 0.7411755
vt 0.8623934 0.7416143
vt 0.8619019 0.7433967
vt 0.8646381 0.7513521
vt 0.8693911 0.7585502
vt 0.8615272 0.7473891
vt 0.870111 0.7820085
vt 0.8629861 0.7798426
vt 0.865492 0.7851683
vt 0.86326 0.7844582
vt 0.6433687 0.7273954
vt 0.6628786 0.7273986
vt 0.6431808 0.7210482
vt 0.6672152 0.722335
vt 0.6722742 0.725553
vt 0.6594331 0.7203903
vt 0.6702138 0.720661
vt 0.01395523 0.8554283
vt 0.01478234 0.853135
vt 0.0078125 0.8546951
vt 0.01099801 0.8361441
vt 0.007812768 0.8334913
vt 0.01554579 0.8364457
vt 0.009673327 0.8256838
vt 0.01271313 0.8304281
vt 0.01504928 0.8260267
vt 0.9765035 0.009440035
vt 0.9867567 0.0837231
vt 0.9869223 0.008832514
vt 0.9865745 0.2679804
vt 0.9747388 0.2694668
vt 0.9887537 0.2720624
vt 0.9693145 0.2719084
vt 0.9597986 0.0078125
vt 0.9634746 0.2694297
vt 0.9610531 0.2437134
vt 0.9594049 0.2713746
vt 0.9594741 0.09400378
vt 0.9577267 0.009106383
vt 0.9584479 0.24943
vt 0.9552613 0.2612511
vt 0.9536366 0.2704174
vt 0.9533213 0.234543
vt 0.9424614 0.2709327
vt 0.9565819 0.2408262
vt 0.9584758 0.08013976
vt 0.9557154 0.09171426
vt 0.9588615 0.1038608
vt 0.9537069 0.02097137
vt 0.9518583 0.008082055
vt 0.9583299 0.1783132
vt 0.9598538 0.2316212
vt 0.9542319 0.1627285
vt 0.9540181 0.2032547
vt 0.9514894 0.1563981
vt 0.9502715 0.023472
vt 0.9525606 0.05909577
vt 0.9449543 0.01237951
vt 0.9307005 0.008788705
vt 0.9510071 0.09758636
vt 0.9543677 0.1014807
vt 0.9528297 0.1159796
vt 0.9274928 0.268813
vt 0.9260886 0.27197
vt 0.9258025 0.06058562
vt 0.9233735 0.01187991
vt 0.9218528 0.009192675
vt 0.9231392 0.06326675
vt 0.9241498 0.08019397
vt 0.9213415 0.0855547
vt 0.9181657 0.07943341
vt 0.9166698 0.01018752
vt 0.9167649 0.08508101
vt 0.9242111 0.2614928
vt 0.9254826 0.2407246
vt 0.920075 0.2706227
vt 0.9190385 0.271621
vt 0.922659 0.160727
vt 0.9187723 0.1882944
vt 0.9166056 0.2676696
vt 0.9182065 0.1112316
vt 0.9546956 0.829842
vt 0.9586292 0.827247
vt 0.9585753 0.8026698
vt 0.9538544 0.8023455
vt 0.9518718 0.8147111
vt 0.9510295 0.8310412
vt 0.9510309 0.8065792
vt 0.3343485 0.44464
vt 0.3348771 0.457767
vt 0.3394356 0.4432798
vt 0.341175 0.4720482
vt 0.3352032 0.4725116
vt 0.3411849 0.4434237
vt 0.8753091 0.2816522
vt 0.8984979 0.2816626
vt 0.900133 0.2802948
vt 0.8901765 0.2843531
vt 0.8996608 0.543189
vt 0.8812649 0.5423819
vt 0.8863502 0.5444247
vt 0.871344 0.5439292
vt 0.8724973 0.3648294
vt 0.8725035 0.541763
vt 0.8714451 0.4103444
vt 0.8699799 0.3703338
vt 0.8693607 0.4073194
vt 0.870593 0.2848055
vt 0.8661297 0.3333743
vt 0.8694214 0.2802495
vt 0.864967 0.2807202
vt 0.8720749 0.3010044
vt 0.8710861 0.3558359
vt 0.8672786 0.533923
vt 0.8652946 0.5441486
vt 0.865431 0.2936495
vt 0.8644705 0.3387003
vt 0.8652942 0.3772824
vt 0.8645905 0.3866961
vt 0.8615957 0.3898731
vt 0.8659663 0.4211637
vt 0.8604395 0.4243585
vt 0.8649938 0.4452518
vt 0.8660104 0.4678424
vt 0.8650953 0.5052205
vt 0.8618946 0.4654219
vt 0.8623107 0.5406887
vt 0.8520303 0.2860655
vt 0.8403349 0.2820168
vt 0.8386446 0.543366
vt 0.8364461 0.5442492
vt 0.8390835 0.409894
vt 0.8366394 0.4424839
vt 0.835426 0.4090612
vt 0.8348204 0.5444193
vt 0.8367789 0.2936868
vt 0.8350124 0.2806829
vt 0.8345722 0.3344487
vt 0.8308439 0.3199142
vt 0.8306357 0.2806595
vt 0.8298336 0.3394634
vt 0.8290703 0.2819304
vt 0.8338386 0.3674012
vt 0.8297782 0.4659131
vt 0.8292931 0.5431191
vt 0.8305185 0.5204543
vt 0.8325682 0.4549606
vt 0.8308949 0.3903025
vt 0.8976017 0.7750585
vt 0.8959512 0.7788376
vt 0.899338 0.7776887
vt 0.9023035 0.7746044
vt 0.8985234 0.8039655
vt 0.904883 0.7781577
vt 0.9048786 0.8041247
vt 0.830645 0.7569003
vt 0.8315818 0.7421881
vt 0.8283898 0.7470613
vt 0.8283406 0.7416338
vt 0.8230658 0.7411703
vt 0.8204705 0.7442288
vt 0.8267719 0.768743
vt 0.8303511 0.7695331
vt 0.8315898 0.7729768
vt 0.8256547 0.7712612
vt 0.8222916 0.7673646
vt 0.8192349 0.7682745
vt 0.8207908 0.7711352
vn -0.005100296 -0.0008793194 -0.9999866
vn -0.032248 -0.0004011027 -0.9994798
vn -0.001154045 -0.02064339 -0.9997862
vn -0.008733026 0.0005436068 -0.9999617
vn -0.08687957 0.001809997 -0.9962172
vn -0.3342637 -0.003118619 -0.9424745
vn -0.9439154 0.001248413 -0.3301852
vn -0.4705287 -0.003404195 -0.8823782
vn -0.9999988 -0.001215752 -0.001037954
vn -0.9947096 -0.0003382112 -0.1027269
vn -0.9999969 -0.00208893 0.001342529
vn -0.7421698 -0.000132424 0.6702119
vn -0.9999679 -0.0001382577 -0.008018022
vn -0.9966516 0.04419564 0.06879183
vn -0.4602549 -0.01316307 -0.8876892
vn -0.9359044 -0.001060073 -0.3522525
vn -0.4425546 0.0003638359 0.8967415
vn -0.02369354 -6.34745E-05 0.9997192
vn -0.01515001 0.002921769 0.999881
vn -0.00621436 -0.0001768758 0.9999807
vn -0.1679101 -0.001426161 -0.9858013
vn -0.6547711 0.2309954 -0.7196637
vn -0.9711023 0.02657797 -0.237179
vn -0.009235189 0.001024641 -0.9999568
vn -0.002901688 0.0001210915 0.9999958
vn 0.01359116 -0.0002603747 0.9999076
vn 0.03660278 0.009238173 0.9992872
vn 0.01483464 -0.0005520515 0.9998899
vn 0.07616036 -0.002858259 0.9970915
vn 0.1554515 0.0004390784 0.9878434
vn 0.2004585 -0.001781696 0.9797006
vn 0.5627152 0.02951108 0.8261239
vn 0.9884804 -0.009632268 0.1510418
vn 0.9999341 0.000610997 0.01147125
vn 0.9834672 -0.002012168 -0.1810753
vn 0.9904916 -0.008838279 -0.1372893
vn 0.2717912 -0.004528916 -0.9623455
vn 0.1564876 -0.008054201 -0.9876471
vn 0.03622964 0.0008949069 -0.9993431
vn 0.1053305 0.001947626 -0.9944353
vn 0.0417925 0.01202318 -0.999054
vn 0.465631 -0.0003814918 0.8849789
vn 0.2196691 0.007335566 0.9755468
vn 0.8441468 0.006281929 0.5360754
vn 0.9712685 -0.009421424 0.2377998
vn 0.7737535 -0.0116361 0.6333799
vn 0.9807305 -0.001738071 -0.1953575
vn 0.2879347 -0.001179941 0.9576492
vn 0.03283493 -0.002951111 -0.9994565
vn 0.01642613 0.000268978 -0.9998651
vn 0.008550107 2.511051E-05 -0.9999635
vn 0.04289605 -0.004788869 -0.9990681
vn 0.03333178 0.004341094 -0.9994349
vn 0.1394241 -0.001281181 -0.9902319
vn 0.08760287 0.0003311982 -0.9961554
vn 0.334373 0.00183517 -0.942439
vn 0.494445 0.0002162036 -0.8692089
vn 0.428746 0.02004629 -0.9032026
vn 0.9615628 0.008481068 -0.2744544
vn 0.9833324 0.00420052 0.1817684
vn 0.8557814 -0.001994913 -0.5173337
vn 0.4513993 -0.0108724 -0.8922559
vn 0.6365334 -0.007294864 0.7712146
vn 0.993414 0.02603924 -0.111582
vn 0.9712679 0.003565562 0.2379618
vn 0.06180546 -0.002391681 -0.9980854
vn 0.952527 -0.01975256 -0.3038127
vn 0.5636438 0.002900203 -0.8260129
vn 0.9937563 0.03155008 -0.1070191
vn 0.8832722 8.725668E-06 -0.4688604
vn 0.9931977 0.002625797 0.1164108
vn 0.5335932 -0.001529378 0.8457399
vn 0.50411 0.004244791 0.863629
vn 0.7271719 -0.001059791 0.6864546
vn 0.8579439 0.00694081 0.5136966
vn 0.8016031 0.3874995 0.4552764
vn -0.002911662 7.291594E-06 -0.9999958
vn 0.007837624 2.170403E-05 -0.9999694
vn -0.06542746 -0.001141839 -0.9978567
vn -0.303719 0.005569411 -0.9527453
vn -0.2808848 0.004541411 -0.9597307
vn -0.8436965 -0.001739407 -0.5368177
vn -0.6802008 0.006009073 -0.7330011
vn -0.9216456 0.0009309435 -0.3880316
vn -0.5127316 0.000407517 -0.8585489
vn 0.04930253 0.745613 0.6645529
vn -0.004569498 0.9993613 0.03544079
vn 0.03635292 0.9716395 0.2336559
vn 0.01203936 0.9964238 -0.08363441
vn -0.008341854 0.9999638 -0.001690441
vn 0.01883353 0.9885753 -0.1495469
vn 0.02111601 0.8288616 -0.5590552
vn 0.1228077 0.9141011 -0.3864421
vn 0.3670685 0.8791128 -0.3040088
vn 0.137197 0.3593588 -0.9230591
vn 0.01490222 -0.9998821 -0.003690035
vn 0.03310281 -0.9994051 0.009673112
vn 0.6058786 -0.7954446 -0.01338033
vn -0.07976678 -0.993622 0.0797027
vn -0.02930898 -0.9990708 -0.03159834
vn -0.06523845 -0.9263346 0.3710098
vn -0.7344879 -0.6108889 0.2955375
vn -0.9615652 0.1129551 -0.250267
vn -0.01119147 0.02348468 -0.9996616
vn -0.03735084 0.8430722 -0.5365018
vn -0.01895202 0.003198233 -0.9998153
vn -0.04737047 0.0005658251 -0.9988772
vn -0.02981054 -0.0006832129 -0.9995553
vn -0.6420957 -0.0006225865 -0.7666242
vn -0.9147263 -0.001236907 -0.4040721
vn -0.9974455 -0.006086763 0.07117295
vn -0.2177842 0.003605023 -0.9759902
vn -0.2060146 -0.0006488215 -0.9785487
vn -0.9942145 -0.001265602 -0.1074061
vn -0.9999251 -0.0009581526 0.01219982
vn -0.7985616 -3.077042E-05 -0.6019131
vn -0.3382182 0.002530193 -0.9410642
vn -0.8487388 -0.0005863446 -0.5288121
vn -0.9999133 -0.004856626 -0.01223564
vn -0.9020677 -0.007419281 0.4315307
vn -0.3567601 0.01662683 0.9340481
vn -0.001349618 -2.254382E-07 0.9999992
vn 0.003042656 0.0007347122 0.9999951
vn -0.6758476 -0.006077475 0.7370163
vn -0.9938884 0.009194256 0.1100059
vn -0.6090192 0.002465503 0.7931517
vn -0.1673668 0.003434429 0.9858888
vn -0.4915034 -0.0002346918 0.8708757
vn -0.3074714 1.714945E-05 0.9515573
vn -0.249425 0.0008289309 0.9683937
vn -0.5595881 -9.477542E-05 0.8287709
vn -0.01603851 -0.0006680793 0.9998711
vn 0.0007702524 -0.0002932744 0.9999996
vn 0.01491054 -0.0003246523 0.9998888
vn 0.607024 -0.003778723 0.7946746
vn 0.8678011 0.009281831 0.4968249
vn 0.900922 -0.001306859 0.4339791
vn 0.9198582 -0.02906269 0.3911728
vn 0.9844238 -0.02839192 -0.1735042
vn 0.1213384 -0.03483135 -0.9919999
vn 0.9619802 0.001678168 0.273114
vn 0.979782 0.00121198 -0.2000646
vn 0.9666108 0.01101633 0.2560121
vn 0.9512677 0.003826149 0.3083424
vn 0.9873682 -0.03207937 0.155161
vn 0.07466182 -0.002546761 -0.9972057
vn 0.8037353 -0.0003706781 -0.594987
vn 0.9762313 0.01908631 0.2158892
vn 0.1605352 0.002816093 -0.9870262
vn 0.004924998 -0.00451956 -0.9999777
vn 0.0005045342 -0.07196545 -0.997407
vn 0.002962554 0.0002176959 -0.9999956
vn 0.003840014 0.0001186635 -0.9999926
vn 0.008366044 0.0005636265 -0.9999648
vn 0.08548533 -0.004255373 -0.9963303
vn 0.05712783 0.002415469 -0.9983639
vn 0.05369745 0.002847325 -0.9985532
vn 0.3319234 0.04318209 -0.9423175
vn 0.8498025 -0.009745458 -0.5270111
vn 0.3898468 -0.0001201143 -0.9208797
vn 0.906957 0.01445753 -0.4209752
vn 0.3700059 -0.005802744 0.9290113
vn 0.5711374 -0.01589787 -0.8207005
vn 0.9817531 -0.0008065588 0.1901584
vn 0.6929869 -0.01010225 -0.7208794
vn 0.8543704 0.0007841974 0.5196639
vn 0.9992566 -0.002365814 0.0384799
vn 0.9996327 0.0003122392 -0.02709768
vn 0.9982817 0.0004044259 -0.05859565
vn 0.4673709 0.00125157 -0.8840604
vn 0.1711862 -0.001010468 -0.9852383
vn 0.6109412 0.0003096286 -0.7916758
vn 0.5301617 0.01123802 0.8478221
vn 0.6109533 0.002546249 -0.7916625
vn 0.1630966 0.007418705 0.9865823
vn 0.6190863 0.02462403 -0.7849367
vn 0.549914 -0.0005645679 -0.8352211
vn 0.8523697 -0.003597735 -0.5229273
vn 0.3000607 -0.006661887 -0.9538968
vn 0.3651935 0.00122932 -0.9309308
vn 0.4274874 0.004277358 0.9040112
vn 0.9969441 0.01237137 0.07713093
vn 0.9941538 -0.01309449 0.1071767
vn 0.9023176 -0.005821265 0.4310326
vn 0.9553596 -0.004694598 0.2954079
vn 0.7628755 0.005040516 0.6465257
vn 0.09238566 -0.8640854 0.4947943
vn 0.034964 -0.9842101 0.1735163
vn 0.008648507 -0.9988149 0.0478944
vn -0.006392252 -0.9975465 -0.06971434
vn -0.001867278 -0.9989022 -0.04680624
vn -0.03620794 -0.9186456 -0.3934198
vn 0.1322104 0.9802094 0.1473436
vn 0.4856339 0.6968122 0.5278376
vn 0.06194121 0.9955264 0.07134797
vn 0.0009487509 0.9999905 0.004270183
vn 0.00567668 0.9999298 0.01040892
vn -0.02241912 0.9994196 -0.02565094
vn -0.01622215 0.003632255 -0.9998618
vn -0.1095601 -0.02464349 -0.9936746
vn -0.008137125 4.230485E-05 -0.999967
vn -0.2853106 -0.007345755 -0.958407
vn -0.532118 -0.009039385 -0.846622
vn -0.8935028 0.03277229 -0.44786
vn -0.9225552 0.04019612 0.3837659
vn -0.829094 0.003338687 0.5590993
vn -0.985705 0.006435785 -0.1683576
vn -0.01005816 0.005739675 0.999933
vn 0.0009798475 0.0004835913 0.9999994
vn -0.4239103 -0.006465424 -0.905681
vn -0.967912 -0.005971639 -0.2512185
vn -0.8098407 1.57353E-05 -0.5866498
vn -0.9817972 -0.009431747 0.1896981
vn -0.5048787 -0.0001714443 0.8631902
vn -0.5870957 0.02142779 -0.8092338
vn -0.2847766 -0.005041523 0.9585806
vn -0.07025678 -0.005018023 0.9975164
vn -0.003648882 0.0006331874 0.9999932
vn -0.2217294 0.02685578 0.9747384
vn -0.9996961 0.0003482676 -0.02464923
vn -0.9997118 -0.01128494 0.02118554
vn -0.930504 0.0007623197 -0.366281
vn -0.1219127 0.0002464777 -0.9925408
vn -0.7376009 -0.002875282 -0.6752308
vn -0.9974764 -0.01457276 -0.0694863
vn -0.09325226 -0.01557892 0.9955206
vn -0.2284799 0.01970354 0.9733492
vn -0.01381265 -0.0003437651 0.9999045
vn -0.6290364 0.0006324426 0.7773757
vn -0.003433827 -0.000409161 0.999994
vn -0.2042565 -0.0003030479 0.9789174
vn -0.9978276 0.0018958 0.0658519
vn -0.6837271 0.001898043 0.7297354
vn 0.005931692 -0.002652657 0.9999789
vn 0.03526089 0.001384723 0.9993772
vn 0.4295204 0.01220374 0.9029747
vn 0.1619619 1.123405E-05 0.986797
vn 0.1413697 0.002234423 0.9899544
vn 0.9789023 -0.02212445 0.2031279
vn 0.6345868 0.4283631 -0.6432766
vn 0.7841575 -0.01561729 0.6203653
vn 0.9995636 -0.02645072 -0.0131472
vn 0.9530303 -0.0006572827 0.3028744
vn 0.95314 0.02580356 0.3014272
vn 0.5641869 0.01331829 0.8255397
vn 0.8498615 -0.001558897 0.5270038
vn 0.2836714 0.001524736 0.9589203
vn 0.3470691 0.001380269 0.9378386
vn 0.8142082 -0.0005797578 0.5805727
vn 0.07239347 0.03408134 -0.9967937
vn 0.005106486 0.004134791 -0.9999784
vn 0.009905264 -6.779992E-05 -0.999951
vn 0.8849739 0.00145852 0.4656383
vn 0.9790292 -0.0003492181 0.2037196
vn 0.7003117 -7.043788E-05 0.7138373
vn 0.4661406 0.0005062543 0.8847106
vn 0.7135963 -0.001180657 0.7005562
vn -0.0003888323 8.174069E-06 -1
vn 0.02183345 0.0005640379 -0.9997615
vn 0.006309408 -0.001816298 -0.9999784
vn 0.03410413 0.0005226862 -0.9994181
vn 0.174913 -0.003194434 -0.9845786
vn 0.9560394 0.001000733 -0.2932367
vn 0.8950142 0.02419668 -0.4453809
vn 0.9931816 -0.01442209 -0.1156817
vn 0.7675376 -0.006797083 -0.6409678
vn 0.9340791 -0.01416582 -0.3567851
vn 0.7889179 -0.003272804 -0.6144899
vn 0.999177 0.0003561524 -0.04056
vn 0.09702239 -0.0008936998 -0.9952818
vn 0.9593 0.0008995478 -0.2823872
vn 0.7161356 0.0002263537 -0.697961
vn 0.141326 -0.003775936 -0.9899559
vn 0.9913819 -0.003783427 -0.1309485
vn 0.8609663 0.000800205 -0.5086614
vn 0.4419385 0.008792318 -0.8970022
vn 0.6983112 -0.00269733 -0.7157892
vn 0.9876155 0.002339091 -0.1568764
vn 0.9960813 0.08702116 0.01579308
vn 0.9999995 8.529794E-05 0.001002906
vn 0.9999746 0.0005432994 0.007113788
vn 0.999997 -4.96638E-05 0.002455699
vn 0.9999998 -0.0001903604 -0.0006272054
vn 0.9999919 0.002434787 -0.003206756
vn 0.9999794 -0.0001028166 -0.006422134
vn 0.9542342 0.2989943 0.00629029
vn 0.1696747 0.1445479 -0.9748418
vn 0.9979314 -0.0001875706 -0.06428849
vn 0.9849855 0.002269649 -0.1726225
vn 0.9973986 5.268461E-06 -0.07208394
vn 0.9902271 -0.01452941 -0.1387052
vn 0.5521725 -0.0006146614 -0.8337297
vn 0.07472395 -0.3512115 -0.9333096
vn -0.008244857 -0.07124352 -0.9974248
vn 0.542142 -0.006251544 -0.8402637
vn -0.9110535 -0.2009703 -0.3599895
vn -0.7453262 -0.6054578 -0.279123
vn -0.9999753 -0.006793207 -0.00178539
vn -0.9241076 -0.3819998 0.01006452
vn 0.9556408 -0.001794518 -0.2945292
vn 0.1459994 -0.004071073 -0.9892763
vn 0.5500692 0.0005858796 -0.8351188
vn 0.1065257 -0.001082744 -0.9943093
vn -0.9999967 -0.00255022 0.0004779473
vn -0.9960288 -0.008400915 0.08863554
vn 0.1618212 -0.005127797 -0.9868068
vn -0.6879694 0.003505682 -0.7257313
vn 0.9593761 0.0004065207 -0.2821301
vn 0.1213086 0.0002202948 -0.9926149
vn 0.7433816 0.001063591 -0.6688668
vn 0.2022125 0.003673289 -0.9793348
vn 0.630627 0.001236804 -0.7760851
vn 0.9494103 -0.0001729708 -0.3140385
vn 0.9946976 0.0003532365 -0.102843
vn 0.9837185 0.0109851 -0.1793806
vn 0.7439492 -0.02604673 -0.6677284
vn 0.4549986 -0.004677079 -0.8904798
vn -0.003294484 7.945218E-05 -0.9999946
vn -0.09859481 -0.001413209 -0.9951266
vn -0.2438881 0.0264028 -0.9694439
vn -0.9636998 0.01058881 -0.266778
vn -0.08700827 0.03189807 -0.9956968
vn -0.792957 0.2440769 -0.5582525
vn -0.6704634 0.6664035 -0.3261673
vn -0.53846 0.004040381 -0.8426414
vn -0.1299282 8.750243E-05 -0.9915234
vn -0.7178013 0.02654298 -0.695742
vn -0.9970969 0.003567622 -0.07606051
vn -0.9999697 0.002608352 -0.007337983
vn -0.9999921 0.00292792 -0.00268923
vn -0.9690341 0.2466074 0.01256673
vn -0.9999475 0.0002876499 -0.01024224
vn -0.9943082 0.0005719578 -0.1065403
vn -0.9835324 0.0002983818 -0.1807317
vn -0.9086646 -0.001531386 -0.417524
vn -0.9999956 0.0008345557 0.002845495
vn -0.9999577 0.003951294 0.008305568
vn -0.6230736 0.6512069 0.4332538
vn -0.02534462 0.001868376 -0.9996771
vn 1.32163E-05 -0.00422959 -0.9999911
vn -0.1542405 -0.0003122453 -0.9880333
vn -0.8462695 -0.004056624 -0.5327394
vn -0.09339948 0.007958733 -0.9955969
vn -0.2754523 -0.0007408513 -0.9613144
vn -0.1961107 -0.0008300953 -0.9805814
vn -0.4671427 -0.007710851 -0.8841484
vn -0.9643735 0.005928175 -0.2644781
vn -0.9207024 -0.04897984 -0.3871797
vn -0.9949309 -0.005031021 -0.100435
vn -0.9357533 -0.001449357 -0.3526524
vn -0.2528128 0.0009332485 -0.9675147
vn -0.9998327 -0.001407613 -0.01823462
vn -0.9277272 0.01320586 -0.3730251
vn -0.3789484 -0.01143746 -0.9253471
vn -0.4736814 -0.01078424 -0.8806303
vn -0.9999588 -7.673942E-05 0.009080914
vn -0.9980109 -0.0009160634 0.06303461
vn -0.8422818 -0.00491033 0.5390151
vn -0.6791297 -0.001903956 0.7340158
vn -0.997286 -0.002157056 0.07359414
vn -0.9941837 0.0004505825 0.1076967
vn -0.9915489 -0.006801292 0.1295547
vn -0.671738 0.03789816 0.7398187
vn -0.004978972 0.03362149 0.9994222
vn -0.1389821 0.002304504 0.9902923
vn -0.9532813 0.002871995 0.3020701
vn -0.6976661 -0.00286057 0.7164175
vn -0.08127911 -0.006781796 0.9966683
vn 0.5942422 0.0009711944 0.8042857
vn 0.987502 0.002648665 0.1575842
vn 0.02064114 0.0004360297 0.9997869
vn 0.8638831 -0.0006889061 0.503692
vn 0.01088502 0.0008009027 0.9999405
vn 0.009726234 -0.001870478 0.999951
vn 0.9930311 -0.0001195896 0.1178525
vn 0.9953147 7.187891E-05 0.09668773
vn 0.9991201 -8.297707E-05 0.0419422
vn -0.3016362 0.02320871 0.9531406
vn -0.86872 0.0009981365 0.4953025
vn -0.07666422 -0.0007183823 0.9970567
vn -0.4437976 0.01766101 0.895953
vn -0.225663 -0.0009362336 0.9742051
vn -0.9984132 -0.001214838 0.05629918
vn -0.8488522 -0.012096 0.5284919
vn -0.5153506 -0.001587341 0.856978
vn -0.6217433 0.01064607 0.7831487
vn -0.2882042 -0.0004511155 0.9575688
vn -0.04955259 0.001388217 0.9987705
vn -0.5107504 0.009769808 0.8596736
vn -0.3217693 0.003172041 0.9468128
vn -0.7393401 -0.01024028 0.6732542
vn -0.2400939 0.003641798 0.9707428
vn -0.952296 -0.01063708 0.3049904
vn -0.2905144 0.01721482 0.9567158
vn -0.5944523 0.002092233 0.8041282
vn 0.009820336 0.9994568 0.03145744
vn 0.07924811 0.9956742 0.04850415
vn -0.00877679 0.9731885 0.2298416
vn 0.1145362 0.9934028 -0.005684453
vn -0.08823088 0.9960524 0.009736019
vn 0.6999546 0.7125505 0.04832456
vn 0.007057154 0.9999613 -0.005271649
vn 0.1783815 0.9839606 0.001292113
vn 0.01634844 0.9998429 -0.006845969
vn -0.02209265 -0.9918939 0.1251331
vn -0.08652887 -0.8258276 0.5572446
vn -0.03697802 -0.9089895 0.4151754
vn 0.03196086 -0.9952905 0.09151585
vn 0.1499381 -0.9885345 0.01783602
vn -0.007457491 -0.9999721 0.0004028873
vn 0.4283556 -0.9028243 -0.03768019
vn 0.01741966 -0.9995652 -0.02378981
vn 0.0258759 -0.9995067 -0.0177976
vn 0.1062416 -0.9730842 -0.2044995
vn 0.2693547 -0.9248924 -0.2683695
vn 0.01195875 -0.9999018 -0.007314498
vn 0.0006251173 -0.9999897 0.004494527
vn 0.01058739 -0.9999089 0.008377217
vn -0.04573413 -0.9831932 0.1767472
vn -0.1299964 -0.9906412 0.04160517
vn -0.01258014 -0.7478999 0.6636923
vn -0.2359623 -0.8652264 0.4423857
vn -0.5851744 0.8037983 -0.1071409
vn -0.03855683 0.9992278 -0.007575111
vn -0.02617727 0.9985412 0.04722487
vn 0.02279021 0.9981773 -0.05588188
vn 0.01117581 0.9802847 0.1972738
vn 0.05384688 0.9090493 -0.4131947
vn 0.1013198 0.9941415 -0.03764341
vn 0.01923014 0.9625641 -0.2703714
vn 0.1116868 0.9416105 -0.3176411
vn 0.001116179 0.0004570365 -0.9999993
vn 0.01466169 0.0001723942 -0.9998925
vn 0.03426278 0.002672751 -0.9994093
vn 0.007263463 -0.0007885924 -0.9999733
vn -0.001250044 -0.00422682 -0.9999903
vn 0.00663257 -0.07672937 -0.9970299
vn -0.01843612 -0.3749105 -0.9268777
vn -0.01589847 0.0001850114 -0.9998736
vn -0.03477472 -0.01029133 -0.9993421
vn -0.1664569 -0.001486916 -0.9860476
vn -0.8654222 -0.1251949 -0.4851502
vn -0.4160046 0.004383184 -0.9093519
vn -0.7177191 0.007567496 -0.6962916
vn -0.9994329 0.03255158 -0.008618813
vn -0.8725832 0.002545063 0.488459
vn -0.1200061 -0.01393589 0.9926754
vn -0.1146474 -0.002906413 0.9934021
vn 0.004496552 -0.0002636652 0.9999899
vn -0.991001 -0.04522998 0.1259814
vn -0.9725826 -0.0003926238 -0.232557
vn -0.9632035 -0.02717514 0.2673957
vn -0.9231842 0.001093736 -0.3843563
vn -0.9938181 -0.002622098 0.1109893
vn -0.5928694 0.02394986 0.8049424
vn -0.9936973 -0.00167659 -0.1120838
vn -0.9762143 0.004902099 -0.2167524
vn -0.9641483 0.002284206 0.265354
vn -0.7596292 -1.165979E-05 0.6503564
vn -0.03461768 -0.000692613 0.9994004
vn -0.170844 0.004262656 0.9852889
vn -0.776508 -0.001360389 0.630106
vn -0.0007909708 0.001589981 0.9999985
vn 0.004682461 0.001198979 0.9999883
vn -0.1565113 0.003530145 0.9876699
vn -0.9580858 0.02474401 0.2854109
vn -0.6299161 0.003349666 0.776656
vn 0.01581674 -0.002070416 0.9998728
vn 0.7582101 -0.1210811 0.640669
vn 0.05918098 -0.0006520024 0.998247
vn 0.3035131 0.02199059 0.9525735
vn 0.9994666 0.03106627 0.01007769
vn 0.92434 0.003780484 0.3815511
vn 0.3086712 -0.0009796218 0.9511683
vn 0.9992688 0.003552018 0.03806923
vn 0.957187 -0.004003913 -0.2894427
vn 0.9979312 0.003163523 -0.06421249
vn 0.911706 0.00363022 -0.410827
vn 0.9654962 -0.01887257 0.2597322
vn 0.8991924 -0.001093833 0.4375521
vn 0.8748878 -0.03708947 -0.4829034
vn 0.2952098 -0.03133272 -0.9549186
vn 0.9994261 -0.001145151 0.03385331
vn 0.7247555 0.0007377383 -0.6890059
vn 0.083176 0.003120135 -0.99653
vn 0.9443086 -0.0005528028 -0.3290607
vn -0.0162533 0.9997278 -0.01673683
vn -0.02839656 0.9510108 -0.3078509
vn 0.006294635 0.9997439 -0.02173733
vn 0.01200334 0.999122 0.04013875
vn 0.003735341 0.9160426 0.4010637
vn -0.01262756 0.9756443 0.2189948
vn 0.08206936 0.7193658 0.6897661
vn 0.08008772 -0.9597368 -0.269242
vn -0.0005100475 -0.9998891 -0.01488128
vn 0.02753898 -0.9978855 -0.05887381
vn -0.01154933 -0.9998403 -0.01363909
vn -0.01573808 -0.9995765 -0.02447582
vn 0.001936907 -0.9955319 0.09440565
vn -0.008544707 0.003398487 -0.9999578
vn 0.01563794 0.007018578 -0.9998531
vn 0.008643801 0.2468873 -0.9690056
vn 0.004701923 0.0006456441 -0.9999888
vn 0.005498354 -0.000328518 -0.9999849
vn -0.0008579387 -0.003035208 -0.9999951
vn -0.007619055 -0.2804783 -0.9598301
vn -0.9670712 -0.03289098 -0.2523716
vn -0.04497544 -0.00123043 -0.9989873
vn -0.1054915 -0.00437326 -0.9944106
vn -0.6881085 0.001263959 -0.7256067
vn -0.8565775 0.008981226 -0.5159404
vn -0.9976645 -0.003573338 0.06821147
vn -0.8818445 0.08279035 -0.4642155
vn -0.9968881 -0.001136377 0.07882074
vn -0.7010065 0.6007457 -0.3843104
vn -0.05497794 0.005896277 0.9984701
vn -0.2477052 0.002680503 -0.9688317
vn -0.7548156 -0.002664235 -0.6559317
vn -0.9997292 -0.001329764 0.02323162
vn -0.546593 -0.0628773 0.8350345
vn -0.9869834 0.0009241926 0.1608192
vn -0.3486079 0.001212135 0.9372678
vn -0.973048 -0.003125467 0.2305814
vn -0.4139623 -0.02928906 0.9098228
vn -0.1496221 -0.01957549 0.9885494
vn -0.5487845 0.0253627 0.835579
vn -0.05972846 0.005759302 0.9981981
vn -0.6512573 0.00212349 0.758854
vn -0.9308146 0.00255827 0.3654827
vn -0.4267953 -0.000677183 0.904348
vn -0.1553265 -0.007228632 0.9878368
vn -0.003120973 -0.002404775 0.9999923
vn -0.00137216 0.0008890821 0.9999987
vn 0.01569372 0.003466254 0.9998709
vn 0.01188882 -0.004808962 0.9999177
vn 0.8073725 -0.01106069 0.5899383
vn 0.3010758 0.0007827814 0.9535998
vn 0.4608352 0.0009276689 0.8874852
vn 0.8317447 -0.002591056 0.5551524
vn 0.9996164 -0.01402388 -0.02388149
vn 0.4683063 0.001972034 0.883564
vn 0.9873072 0.02836196 0.1562693
vn 0.997507 -0.01004069 -0.06984907
vn 0.9810065 -0.001335479 -0.1939705
vn 0.9543005 0.002328363 -0.2988398
vn 0.7313839 -0.0002415973 -0.6819659
vn 0.2040462 0.0003915072 -0.9789612
vn 0.9978302 0.007901207 -0.06536284
vn 0.6527995 0.00706931 -0.7574978
vn 0.9463891 -0.05434017 -0.3184254
vn 0.9618256 -0.001026956 -0.2736615
vn 0.9911016 -0.003429967 -0.1330628
vn 0.9140322 0.0002559016 -0.4056415
vn 0.5078917 0.8076732 0.2995163
vn 0.06631164 0.8641688 0.4988136
vn 0.07393127 0.9869123 0.1433126
vn 0.4267636 0.9024295 -0.05910846
vn -0.001593494 0.9995698 0.02928556
vn 0.02503533 0.9983727 -0.0512371
vn -0.003060376 0.9999939 0.001691325
vn -0.06914195 -0.4736619 0.8779885
vn 0.2403436 -0.3616515 0.9008014
vn 0.03659613 -0.937268 0.3466835
vn 0.4659639 -0.8064761 0.3639697
vn 0.2750338 -0.9534957 0.1232985
vn 0.02470144 -0.9994774 -0.02085093
vn -0.1000086 -0.9518381 0.2898319
vn -0.2700859 -0.6457805 0.7141576
vn -0.7342914 -0.4185376 0.5344552
vn -0.5947717 -0.7766485 0.2075177
vn -0.06245881 -0.9199776 -0.3869627
vn -0.05789425 -0.4833697 -0.8734999
vn -0.3913036 -0.7766286 -0.4936896
usemtl Mat_Workbench
f 1/1/1 3/3/3 2/2/2 
f 2/2/2 4/4/4 1/1/1 
f 5/5/5 4/4/4 2/2/2 
f 5/5/5 2/2/2 6/6/6 
f 6/6/6 7/7/7 5/5/5 
f 5/5/5 8/8/8 4/4/4 
f 8/8/8 5/5/5 7/7/7 
f 7/7/7 9/9/9 8/8/8 
f 10/10/10 7/7/7 6/6/6 
f 9/9/9 7/7/7 10/10/10 
f 6/6/6 11/11/11 10/10/10 
f 11/11/11 9/9/9 10/10/10 
f 12/12/12 9/9/9 11/11/11 
f 13/13/13 9/9/9 12/12/12 
f 12/12/12 14/14/14 13/13/13 
f 9/9/9 15/15/15 8/8/8 
f 15/15/15 4/4/4 8/8/8 
f 16/16/16 15/15/15 9/9/9 
f 13/13/13 16/16/16 9/9/9 
f 17/17/17 14/14/14 12/12/12 
f 18/18/18 17/17/17 12/12/12 
f 18/18/18 19/19/19 17/17/17 
f 17/17/17 19/19/19 14/14/14 
f 20/20/20 19/19/19 18/18/18 
f 15/15/15 21/21/21 4/4/4 
f 16/16/16 21/21/21 15/15/15 
f 14/14/14 19/19/19 22/22/22 
f 22/22/22 23/23/23 14/14/14 
f 14/14/14 23/23/23 13/13/13 
f 23/23/23 22/22/22 24/24/24 
f 25/25/25 19/19/19 20/20/20 
f 26/26/26 25/25/25 20/20/20 
f 25/25/25 27/27/27 19/19/19 
f 28/28/28 25/25/25 26/26/26 
f 29/29/29 25/25/25 28/28/28 
f 27/27/27 25/25/25 29/29/29 
f 30/30/30 26/26/26 20/20/20 
f 31/31/31 30/30/30 20/20/20 
f 32/32/32 30/30/30 31/31/31 
f 32/32/32 26/26/26 30/30/30 
f 32/32/32 33/33/33 26/26/26 
f 34/34/34 32/32/32 31/31/31 
f 33/33/33 32/32/32 34/34/34 
f 34/34/34 35/35/35 33/33/33 
f 36/36/36 35/35/35 34/34/34 
f 37/37/37 35/35/35 36/36/36 
f 38/38/38 37/37/37 36/36/36 
f 37/37/37 38/38/38 39/39/39 
f 39/39/39 40/40/40 37/37/37 
f 40/40/40 35/35/35 37/37/37 
f 39/39/39 41/41/41 40/40/40 
f 41/41/41 35/35/35 40/40/40 
f 33/33/33 42/42/42 26/26/26 
f 26/26/26 42/42/42 43/43/43 
f 43/43/43 28/28/28 26/26/26 
f 44/44/44 42/42/42 33/33/33 
f 43/43/43 42/42/42 44/44/44 
f 45/45/45 44/44/44 33/33/33 
f 44/44/44 45/45/45 46/46/46 
f 43/43/43 44/44/44 46/46/46 
f 46/46/46 45/45/45 43/43/43 
f 33/33/33 35/35/35 47/47/47 
f 47/47/47 45/45/45 33/33/33 
f 48/48/48 28/28/28 43/43/43 
f 48/48/48 43/43/43 45/45/45 
f 41/41/41 49/49/49 35/35/35 
f 41/41/41 50/50/50 49/49/49 
f 51/51/51 50/50/50 41/41/41 
f 51/51/51 52/52/52 50/50/50 
f 51/51/51 53/53/53 52/52/52 
f 49/49/49 54/54/54 35/35/35 
f 49/49/49 55/55/55 54/54/54 
f 50/50/50 55/55/55 49/49/49 
f 56/56/56 35/35/35 54/54/54 
f 47/47/47 35/35/35 56/56/56 
f 54/54/54 55/55/55 56/56/56 
f 55/55/55 47/47/47 56/56/56 
f 57/57/57 47/47/47 55/55/55 
f 50/50/50 57/57/57 55/55/55 
f 57/57/57 45/45/45 47/47/47 
f 50/50/50 58/58/58 57/57/57 
f 50/50/50 52/52/52 58/58/58 
f 45/45/45 57/57/57 59/59/59 
f 58/58/58 59/59/59 57/57/57 
f 59/59/59 60/60/60 45/45/45 
f 45/45/45 60/60/60 48/48/48 
f 58/58/58 61/61/61 59/59/59 
f 59/59/59 61/61/61 60/60/60 
f 58/58/58 52/52/52 62/62/62 
f 58/58/58 62/62/62 61/61/61 
f 60/60/60 63/63/63 48/48/48 
f 63/63/63 28/28/28 48/48/48 
f 64/64/64 60/60/60 61/61/61 
f 63/63/63 60/60/60 64/64/64 
f 62/62/62 64/64/64 61/61/61 
f 64/64/64 65/65/65 63/63/63 
f 63/63/63 65/65/65 28/28/28 
f 66/66/66 62/62/62 52/52/52 
f 53/53/53 66/66/66 52/52/52 
f 62/62/62 67/67/67 64/64/64 
f 67/67/67 65/65/65 64/64/64 
f 53/53/53 68/68/68 66/66/66 
f 53/53/53 69/69/69 68/68/68 
f 66/66/66 70/70/70 62/62/62 
f 66/66/66 68/68/68 70/70/70 
f 62/62/62 70/70/70 67/67/67 
f 68/68/68 69/69/69 70/70/70 
f 69/69/69 67/67/67 70/70/70 
f 67/67/67 71/71/71 65/65/65 
f 67/67/67 69/69/69 71/71/71 
f 72/72/72 28/28/28 65/65/65 
f 65/65/65 71/71/71 72/72/72 
f 73/73/73 28/28/28 72/72/72 
f 72/72/72 71/71/71 73/73/73 
f 73/73/73 29/29/29 28/28/28 
f 71/71/71 29/29/29 73/73/73 
f 74/74/74 29/29/29 71/71/71 
f 71/71/71 69/69/69 74/74/74 
f 74/74/74 27/27/27 29/29/29 
f 69/69/69 75/75/75 74/74/74 
f 75/75/75 27/27/27 74/74/74 
f 76/76/76 75/75/75 69/69/69 
f 27/27/27 75/75/75 76/76/76 
f 77/77/77 78/78/78 1/1/1 
f 24/24/24 77/77/77 1/1/1 
f 4/4/4 24/24/24 1/1/1 
f 4/4/4 79/79/79 24/24/24 
f 80/80/80 79/79/79 4/4/4 
f 21/21/21 80/80/80 4/4/4 
f 81/81/81 24/24/24 79/79/79 
f 23/23/23 24/24/24 81/81/81 
f 23/23/23 81/81/81 82/82/82 
f 82/82/82 81/81/81 79/79/79 
f 23/23/23 82/82/82 13/13/13 
f 79/79/79 13/13/13 82/82/82 
f 13/13/13 79/79/79 83/83/83 
f 83/83/83 79/79/79 80/80/80 
f 13/13/13 83/83/83 84/84/84 
f 84/84/84 83/83/83 80/80/80 
f 13/13/13 84/84/84 16/16/16 
f 16/16/16 85/85/85 21/21/21 
f 85/85/85 80/80/80 21/21/21 
f 84/84/84 80/80/80 85/85/85 
f 84/84/84 85/85/85 16/16/16 
f 86/86/86 88/88/88 87/87/87 
f 88/88/88 89/89/89 87/87/87 
f 89/89/89 90/90/90 87/87/87 
f 90/90/90 89/89/89 91/91/91 
f 92/92/92 91/91/91 89/89/89 
f 93/93/93 89/89/89 88/88/88 
f 89/89/89 93/93/93 92/92/92 
f 88/88/88 94/94/94 93/93/93 
f 95/95/95 92/92/92 93/93/93 
f 94/94/94 95/95/95 93/93/93 
f 96/96/96 98/98/98 97/97/97 
f 99/99/99 96/96/96 97/97/97 
f 99/99/99 100/100/100 96/96/96 
f 101/101/101 99/99/99 97/97/97 
f 99/99/99 102/102/102 100/100/100 
f 101/101/101 102/102/102 99/99/99 
f 103/103/103 105/105/105 104/104/104 
f 104/104/104 106/106/106 103/103/103 
f 106/106/106 104/104/104 107/107/107 
f 107/107/107 104/104/104 108/108/108 
f 107/107/107 108/108/108 109/109/109 
f 110/110/110 107/107/107 109/109/109 
f 111/111/111 110/110/110 109/109/109 
f 112/112/112 106/106/106 107/107/107 
f 113/113/113 107/107/107 110/110/110 
f 113/113/113 112/112/112 107/107/107 
f 114/114/114 113/113/113 110/110/110 
f 110/110/110 111/111/111 114/114/114 
f 115/115/115 114/114/114 111/111/111 
f 114/114/114 116/116/116 113/113/113 
f 116/116/116 112/112/112 113/113/113 
f 115/115/115 116/116/116 114/114/114 
f 115/115/115 112/112/112 116/116/116 
f 112/112/112 117/117/117 106/106/106 
f 117/117/117 103/103/103 106/106/106 
f 118/118/118 117/117/117 112/112/112 
f 118/118/118 112/112/112 115/115/115 
f 119/119/119 117/117/117 118/118/118 
f 103/103/103 117/117/117 119/119/119 
f 115/115/115 119/119/119 118/118/118 
f 103/103/103 119/119/119 120/120/120 
f 121/121/121 103/103/103 120/120/120 
f 121/121/121 120/120/120 122/122/122 
f 123/123/123 121/121/121 122/122/122 
f 120/120/120 119/119/119 124/124/124 
f 122/122/122 120/120/120 124/124/124 
f 125/125/125 119/119/119 115/115/115 
f 124/124/124 119/119/119 125/125/125 
f 126/126/126 125/125/125 115/115/115 
f 111/111/111 126/126/126 115/115/115 
f 124/124/124 125/125/125 127/127/127 
f 122/122/122 124/124/124 127/127/127 
f 127/127/127 125/125/125 126/126/126 
f 128/128/128 126/126/126 111/111/111 
f 127/127/127 126/126/126 129/129/129 
f 129/129/129 126/126/126 128/128/128 
f 130/130/130 127/127/127 129/129/129 
f 129/129/129 128/128/128 130/130/130 
f 122/122/122 127/127/127 130/130/130 
f 131/131/131 128/128/128 111/111/111 
f 131/131/131 130/130/130 128/128/128 
f 132/132/132 131/131/131 111/111/111 
f 132/132/132 130/130/130 131/131/131 
f 132/132/132 122/122/122 130/130/130 
f 122/122/122 132/132/132 133/133/133 
f 133/133/133 123/123/123 122/122/122 
f 133/133/133 132/132/132 134/134/134 
f 134/134/134 123/123/123 133/133/133 
f 135/135/135 123/123/123 134/134/134 
f 136/136/136 135/135/135 134/134/134 
f 136/136/136 134/134/134 137/137/137 
f 137/137/137 134/134/134 138/138/138 
f 138/138/138 139/139/139 137/137/137 
f 140/140/140 139/139/139 138/138/138 
f 141/141/141 136/136/136 137/137/137 
f 139/139/139 141/141/141 137/137/137 
f 142/142/142 141/141/141 139/139/139 
f 143/143/143 136/136/136 141/141/141 
f 143/143/143 141/141/141 142/142/142 
f 144/144/144 136/136/136 143/143/143 
f 135/135/135 136/136/136 144/144/144 
f 144/144/144 143/143/143 142/142/142 
f 145/145/145 135/135/135 144/144/144 
f 145/145/145 144/144/144 142/142/142 
f 140/140/140 146/146/146 139/139/139 
f 147/147/147 142/142/142 139/139/139 
f 139/139/139 146/146/146 147/147/147 
f 147/147/147 148/148/148 142/142/142 
f 148/148/148 147/147/147 146/146/146 
f 149/149/149 142/142/142 148/148/148 
f 149/149/149 145/145/145 142/142/142 
f 146/146/146 149/149/149 148/148/148 
f 150/150/150 146/146/146 140/140/140 
f 151/151/151 150/150/150 140/140/140 
f 150/150/150 152/152/152 146/146/146 
f 146/146/146 152/152/152 149/149/149 
f 150/150/150 153/153/153 152/152/152 
f 152/152/152 153/153/153 154/154/154 
f 152/152/152 154/154/154 155/155/155 
f 154/154/154 156/156/156 155/155/155 
f 154/154/154 153/153/153 157/157/157 
f 152/152/152 158/158/158 149/149/149 
f 158/158/158 145/145/145 149/149/149 
f 155/155/155 158/158/158 152/152/152 
f 158/158/158 159/159/159 145/145/145 
f 155/155/155 159/159/159 158/158/158 
f 157/157/157 160/160/160 154/154/154 
f 157/157/157 161/161/161 160/160/160 
f 145/145/145 159/159/159 162/162/162 
f 162/162/162 135/135/135 145/145/145 
f 154/154/154 160/160/160 163/163/163 
f 160/160/160 161/161/161 163/163/163 
f 162/162/162 159/159/159 164/164/164 
f 155/155/155 165/165/165 159/159/159 
f 159/159/159 165/165/165 164/164/164 
f 162/162/162 166/166/166 135/135/135 
f 164/164/164 166/166/166 162/162/162 
f 167/167/167 166/166/166 164/164/164 
f 161/161/161 167/167/167 168/168/168 
f 164/164/164 165/165/165 169/169/169 
f 169/169/169 167/167/167 164/164/164 
f 168/168/168 167/167/167 169/169/169 
f 155/155/155 170/170/170 165/165/165 
f 165/165/165 170/170/170 169/169/169 
f 155/155/155 171/171/171 170/170/170 
f 171/171/171 169/169/169 170/170/170 
f 171/171/171 155/155/155 156/156/156 
f 172/172/172 169/169/169 171/171/171 
f 172/172/172 168/168/168 169/169/169 
f 171/171/171 156/156/156 172/172/172 
f 166/166/166 173/173/173 135/135/135 
f 167/167/167 173/173/173 166/166/166 
f 174/174/174 168/168/168 172/172/172 
f 156/156/156 174/174/174 172/172/172 
f 173/173/173 175/175/175 135/135/135 
f 175/175/175 123/123/123 135/135/135 
f 176/176/176 168/168/168 174/174/174 
f 156/156/156 176/176/176 174/174/174 
f 176/176/176 177/177/177 168/168/168 
f 177/177/177 176/176/176 156/156/156 
f 177/177/177 178/178/178 168/168/168 
f 178/178/178 161/161/161 168/168/168 
f 179/179/179 177/177/177 156/156/156 
f 177/177/177 179/179/179 178/178/178 
f 156/156/156 154/154/154 179/179/179 
f 154/154/154 180/180/180 179/179/179 
f 180/180/180 178/178/178 179/179/179 
f 180/180/180 154/154/154 163/163/163 
f 178/178/178 180/180/180 163/163/163 
f 178/178/178 163/163/163 161/161/161 
f 181/181/181 123/123/123 175/175/175 
f 181/181/181 182/182/182 123/123/123 
f 183/183/183 161/161/161 182/182/182 
f 161/161/161 183/183/183 167/167/167 
f 182/182/182 181/181/181 184/184/184 
f 184/184/184 181/181/181 175/175/175 
f 182/182/182 184/184/184 183/183/183 
f 184/184/184 175/175/175 183/183/183 
f 167/167/167 183/183/183 185/185/185 
f 167/167/167 185/185/185 173/173/173 
f 183/183/183 175/175/175 186/186/186 
f 173/173/173 186/186/186 175/175/175 
f 185/185/185 183/183/183 186/186/186 
f 186/186/186 173/173/173 185/185/185 
f 187/187/187 189/189/189 188/188/188 
f 188/188/188 189/189/189 190/190/190 
f 188/188/188 190/190/190 191/191/191 
f 191/191/191 190/190/190 192/192/192 
f 193/193/193 195/195/195 194/194/194 
f 195/195/195 193/193/193 196/196/196 
f 197/197/197 196/196/196 193/193/193 
f 198/198/198 196/196/196 197/197/197 
f 199/199/199 201/201/201 200/200/200 
f 202/202/202 199/199/199 200/200/200 
f 203/203/203 199/199/199 202/202/202 
f 204/204/204 199/199/199 203/203/203 
f 205/205/205 199/199/199 204/204/204 
f 206/206/206 205/205/205 204/204/204 
f 204/204/204 203/203/203 207/207/207 
f 206/206/206 204/204/204 207/207/207 
f 208/208/208 205/205/205 206/206/206 
f 208/208/208 209/209/209 205/205/205 
f 210/210/210 203/203/203 202/202/202 
f 211/211/211 210/210/210 202/202/202 
f 210/210/210 212/212/212 203/203/203 
f 207/207/207 203/203/203 212/212/212 
f 211/211/211 212/212/212 210/210/210 
f 207/207/207 212/212/212 211/211/211 
f 206/206/206 207/207/207 213/213/213 
f 211/211/211 213/213/213 207/207/207 
f 213/213/213 211/211/211 214/214/214 
f 211/211/211 202/202/202 215/215/215 
f 215/215/215 202/202/202 200/200/200 
f 216/216/216 208/208/208 206/206/206 
f 216/216/216 206/206/206 213/213/213 
f 217/217/217 208/208/208 216/216/216 
f 213/213/213 217/217/217 216/216/216 
f 208/208/208 217/217/217 218/218/218 
f 209/209/209 208/208/208 218/218/218 
f 219/219/219 217/217/217 213/213/213 
f 219/219/219 213/213/213 214/214/214 
f 218/218/218 217/217/217 219/219/219 
f 211/211/211 215/215/215 220/220/220 
f 214/214/214 211/211/211 220/220/220 
f 214/214/214 220/220/220 221/221/221 
f 220/220/220 215/215/215 222/222/222 
f 221/221/221 220/220/220 222/222/222 
f 215/215/215 200/200/200 223/223/223 
f 223/223/223 222/222/222 215/215/215 
f 224/224/224 223/223/223 200/200/200 
f 222/222/222 223/223/223 224/224/224 
f 200/200/200 225/225/225 224/224/224 
f 225/225/225 222/222/222 224/224/224 
f 221/221/221 222/222/222 225/225/225 
f 226/226/226 221/221/221 225/225/225 
f 227/227/227 218/218/218 219/219/219 
f 227/227/227 219/219/219 214/214/214 
f 218/218/218 227/227/227 228/228/228 
f 214/214/214 228/228/228 227/227/227 
f 229/229/229 214/214/214 221/221/221 
f 228/228/228 214/214/214 229/229/229 
f 218/218/218 228/228/228 230/230/230 
f 209/209/209 218/218/218 230/230/230 
f 231/231/231 228/228/228 229/229/229 
f 228/228/228 231/231/231 230/230/230 
f 232/232/232 229/229/229 221/221/221 
f 229/229/229 232/232/232 231/231/231 
f 232/232/232 221/221/221 233/233/233 
f 233/233/233 231/231/231 232/232/232 
f 226/226/226 233/233/233 221/221/221 
f 230/230/230 231/231/231 233/233/233 
f 230/230/230 233/233/233 226/226/226 
f 230/230/230 226/226/226 234/234/234 
f 230/230/230 234/234/234 209/209/209 
f 235/235/235 209/209/209 234/234/234 
f 236/236/236 209/209/209 235/235/235 
f 237/237/237 235/235/235 234/234/234 
f 238/238/238 237/237/237 234/234/234 
f 239/239/239 236/236/236 235/235/235 
f 240/240/240 236/236/236 239/239/239 
f 241/241/241 238/238/238 234/234/234 
f 241/241/241 234/234/234 242/242/242 
f 242/242/242 243/243/243 241/241/241 
f 241/241/241 243/243/243 238/238/238 
f 244/244/244 239/239/239 235/235/235 
f 245/245/245 244/244/244 235/235/235 
f 244/244/244 245/245/245 246/246/246 
f 247/247/247 245/245/245 235/235/235 
f 247/247/247 235/235/235 237/237/237 
f 246/246/246 245/245/245 247/247/247 
f 246/246/246 247/247/247 248/248/248 
f 247/247/247 237/237/237 248/248/248 
f 249/249/249 246/246/246 248/248/248 
f 249/249/249 244/244/244 246/246/246 
f 249/249/249 248/248/248 237/237/237 
f 250/250/250 240/240/240 239/239/239 
f 240/240/240 250/250/250 251/251/251 
f 252/252/252 251/251/251 250/250/250 
f 244/244/244 249/249/249 253/253/253 
f 253/253/253 249/249/249 237/237/237 
f 244/244/244 253/253/253 254/254/254 
f 255/255/255 253/253/253 237/237/237 
f 253/253/253 255/255/255 254/254/254 
f 255/255/255 237/237/237 256/256/256 
f 255/255/255 256/256/256 254/254/254 
f 238/238/238 256/256/256 237/237/237 
f 238/238/238 257/257/257 256/256/256 
f 254/254/254 256/256/256 257/257/257 
f 243/243/243 257/257/257 238/238/238 
f 251/251/251 252/252/252 258/258/258 
f 252/252/252 259/259/259 258/258/258 
f 260/260/260 251/251/251 258/258/258 
f 260/260/260 258/258/258 261/261/261 
f 260/260/260 261/261/261 262/262/262 
f 258/258/258 263/263/263 261/261/261 
f 263/263/263 262/262/262 261/261/261 
f 258/258/258 259/259/259 263/263/263 
f 262/262/262 263/263/263 242/242/242 
f 242/242/242 263/263/263 243/243/243 
f 263/263/263 264/264/264 243/243/243 
f 264/264/264 263/263/263 259/259/259 
f 265/265/265 257/257/257 243/243/243 
f 265/265/265 243/243/243 264/264/264 
f 257/257/257 265/265/265 266/266/266 
f 266/266/266 254/254/254 257/257/257 
f 267/267/267 265/265/265 264/264/264 
f 259/259/259 267/267/267 264/264/264 
f 266/266/266 265/265/265 267/267/267 
f 259/259/259 266/266/266 267/267/267 
f 268/268/268 254/254/254 266/266/266 
f 259/259/259 268/268/268 266/266/266 
f 269/269/269 254/254/254 268/268/268 
f 269/269/269 244/244/244 254/254/254 
f 259/259/259 270/270/270 268/268/268 
f 270/270/270 269/269/269 268/268/268 
f 252/252/252 270/270/270 259/259/259 
f 269/269/269 271/271/271 244/244/244 
f 269/269/269 270/270/270 272/272/272 
f 271/271/271 269/269/269 272/272/272 
f 270/270/270 273/273/273 272/272/272 
f 270/270/270 252/252/252 273/273/273 
f 272/272/272 273/273/273 271/271/271 
f 274/274/274 244/244/244 271/271/271 
f 239/239/239 244/244/244 274/274/274 
f 273/273/273 275/275/275 271/271/271 
f 275/275/275 274/274/274 271/271/271 
f 273/273/273 276/276/276 275/275/275 
f 252/252/252 276/276/276 273/273/273 
f 276/276/276 274/274/274 275/275/275 
f 252/252/252 277/277/277 276/276/276 
f 277/277/277 274/274/274 276/276/276 
f 252/252/252 250/250/250 277/277/277 
f 278/278/278 239/239/239 274/274/274 
f 278/278/278 274/274/274 277/277/277 
f 277/277/277 250/250/250 278/278/278 
f 250/250/250 239/239/239 278/278/278 
f 279/279/279 281/281/281 280/280/280 
f 280/280/280 281/281/281 282/282/282 
f 283/283/283 280/280/280 282/282/282 
f 280/280/280 283/283/283 284/284/284 
f 283/283/283 282/282/282 285/285/285 
f 285/285/285 284/284/284 283/283/283 
f 286/286/286 280/280/280 284/284/284 
f 286/286/286 284/284/284 287/287/287 
f 285/285/285 288/288/288 284/284/284 
f 285/285/285 289/289/289 288/288/288 
f 285/285/285 290/290/290 289/289/289 
f 285/285/285 291/291/291 290/290/290 
f 291/291/291 292/292/292 290/290/290 
f 292/292/292 291/291/291 293/293/293 
f 292/292/292 293/293/293 294/294/294 
f 292/292/292 294/294/294 295/295/295 
f 290/290/290 292/292/292 295/295/295 
f 296/296/296 294/294/294 293/293/293 
f 293/293/293 297/297/297 296/296/296 
f 296/296/296 297/297/297 298/298/298 
f 297/297/297 299/299/299 298/298/298 
f 295/295/295 300/300/300 290/290/290 
f 290/290/290 300/300/300 289/289/289 
f 301/301/301 300/300/300 295/295/295 
f 294/294/294 301/301/301 295/295/295 
f 300/300/300 301/301/301 302/302/302 
f 302/302/302 289/289/289 300/300/300 
f 303/303/303 302/302/302 301/301/301 
f 301/301/301 294/294/294 303/303/303 
f 289/289/289 302/302/302 303/303/303 
f 298/298/298 299/299/299 304/304/304 
f 304/304/304 299/299/299 305/305/305 
f 306/306/306 289/289/289 303/303/303 
f 307/307/307 303/303/303 294/294/294 
f 306/306/306 303/303/303 307/307/307 
f 306/306/306 308/308/308 289/289/289 
f 288/288/288 289/289/289 308/308/308 
f 309/309/309 308/308/308 306/306/306 
f 309/309/309 310/310/310 308/308/308 
f 308/308/308 310/310/310 288/288/288 
f 309/309/309 311/311/311 310/310/310 
f 310/310/310 311/311/311 312/312/312 
f 313/313/313 288/288/288 310/310/310 
f 313/313/313 310/310/310 312/312/312 
f 314/314/314 288/288/288 313/313/313 
f 314/314/314 313/313/313 312/312/312 
f 311/311/311 314/314/314 312/312/312 
f 314/314/314 284/284/284 288/288/288 
f 284/284/284 314/314/314 315/315/315 
f 287/287/287 284/284/284 315/315/315 
f 314/314/314 316/316/316 315/315/315 
f 311/311/311 316/316/316 314/314/314 
f 316/316/316 317/317/317 315/315/315 
f 315/315/315 317/317/317 287/287/287 
f 317/317/317 316/316/316 318/318/318 
f 311/311/311 318/318/318 316/316/316 
f 317/317/317 318/318/318 287/287/287 
f 309/309/309 306/306/306 319/319/319 
f 320/320/320 319/319/319 306/306/306 
f 320/320/320 306/306/306 307/307/307 
f 320/320/320 321/321/321 319/319/319 
f 321/321/321 320/320/320 307/307/307 
f 318/318/318 322/322/322 287/287/287 
f 322/322/322 323/323/323 287/287/287 
f 287/287/287 323/323/323 324/324/324 
f 322/322/322 318/318/318 325/325/325 
f 318/318/318 311/311/311 326/326/326 
f 325/325/325 318/318/318 326/326/326 
f 327/327/327 323/323/323 322/322/322 
f 322/322/322 325/325/325 327/327/327 
f 327/327/327 328/328/328 323/323/323 
f 325/325/325 328/328/328 327/327/327 
f 329/329/329 324/324/324 323/323/323 
f 329/329/329 323/323/323 328/328/328 
f 324/324/324 329/329/329 330/330/330 
f 324/324/324 330/330/330 331/331/331 
f 332/332/332 329/329/329 328/328/328 
f 330/330/330 329/329/329 332/332/332 
f 328/328/328 333/333/333 332/332/332 
f 298/298/298 330/330/330 332/332/332 
f 328/328/328 325/325/325 334/334/334 
f 333/333/333 328/328/328 334/334/334 
f 335/335/335 334/334/334 325/325/325 
f 326/326/326 335/335/335 325/325/325 
f 333/333/333 334/334/334 335/335/335 
f 331/331/331 330/330/330 336/336/336 
f 336/336/336 330/330/330 298/298/298 
f 336/336/336 337/337/337 331/331/331 
f 337/337/337 338/338/338 331/331/331 
f 326/326/326 339/339/339 335/335/335 
f 326/326/326 311/311/311 339/339/339 
f 340/340/340 339/339/339 311/311/311 
f 311/311/311 309/309/309 340/340/340 
f 339/339/339 341/341/341 335/335/335 
f 341/341/341 339/339/339 340/340/340 
f 341/341/341 342/342/342 335/335/335 
f 341/341/341 340/340/340 342/342/342 
f 342/342/342 333/333/333 335/335/335 
f 343/343/343 340/340/340 309/309/309 
f 342/342/342 340/340/340 343/343/343 
f 309/309/309 342/342/342 343/343/343 
f 333/333/333 342/342/342 344/344/344 
f 344/344/344 342/342/342 309/309/309 
f 333/333/333 344/344/344 345/345/345 
f 345/345/345 344/344/344 309/309/309 
f 332/332/332 333/333/333 345/345/345 
f 309/309/309 319/319/319 345/345/345 
f 345/345/345 319/319/319 346/346/346 
f 347/347/347 345/345/345 346/346/346 
f 332/332/332 345/345/345 347/347/347 
f 319/319/319 348/348/348 346/346/346 
f 348/348/348 347/347/347 346/346/346 
f 348/348/348 332/332/332 347/347/347 
f 348/348/348 319/319/319 321/321/321 
f 332/332/332 348/348/348 321/321/321 
f 321/321/321 349/349/349 332/332/332 
f 349/349/349 321/321/321 350/350/350 
f 321/321/321 307/307/307 350/350/350 
f 350/350/350 307/307/307 351/351/351 
f 351/351/351 349/349/349 350/350/350 
f 307/307/307 294/294/294 351/351/351 
f 349/349/349 352/352/352 332/332/332 
f 352/352/352 298/298/298 332/332/332 
f 351/351/351 353/353/353 349/349/349 
f 353/353/353 352/352/352 349/349/349 
f 296/296/296 298/298/298 352/352/352 
f 354/354/354 296/296/296 352/352/352 
f 296/296/296 354/354/354 294/294/294 
f 354/354/354 352/352/352 353/353/353 
f 351/351/351 294/294/294 355/355/355 
f 355/355/355 294/294/294 354/354/354 
f 353/353/353 355/355/355 354/354/354 
f 355/355/355 353/353/353 351/351/351 
f 304/304/304 336/336/336 298/298/298 
f 336/336/336 304/304/304 356/356/356 
f 336/336/336 356/356/356 337/337/337 
f 356/356/356 304/304/304 305/305/305 
f 305/305/305 357/357/357 356/356/356 
f 305/305/305 358/358/358 357/357/357 
f 358/358/358 305/305/305 359/359/359 
f 356/356/356 360/360/360 337/337/337 
f 356/356/356 357/357/357 360/360/360 
f 360/360/360 361/361/361 337/337/337 
f 362/362/362 337/337/337 361/361/361 
f 337/337/337 362/362/362 363/363/363 
f 338/338/338 337/337/337 363/363/363 
f 363/363/363 364/364/364 338/338/338 
f 365/365/365 363/363/363 362/362/362 
f 364/364/364 363/363/363 365/365/365 
f 362/362/362 361/361/361 366/366/366 
f 365/365/365 362/362/362 366/366/366 
f 365/365/365 366/366/366 367/367/367 
f 367/367/367 366/366/366 361/361/361 
f 365/365/365 367/367/367 368/368/368 
f 368/368/368 364/364/364 365/365/365 
f 367/367/367 361/361/361 368/368/368 
f 369/369/369 364/364/364 368/368/368 
f 369/369/369 370/370/370 364/364/364 
f 369/369/369 368/368/368 371/371/371 
f 370/370/370 369/369/369 372/372/372 
f 372/372/372 369/369/369 371/371/371 
f 373/373/373 372/372/372 371/371/371 
f 374/374/374 372/372/372 373/373/373 
f 375/375/375 370/370/370 372/372/372 
f 370/370/370 375/375/375 376/376/376 
f 376/376/376 375/375/375 377/377/377 
f 368/368/368 361/361/361 378/378/378 
f 371/371/371 368/368/368 378/378/378 
f 378/378/378 361/361/361 379/379/379 
f 379/379/379 371/371/371 378/378/378 
f 372/372/372 374/374/374 380/380/380 
f 372/372/372 380/380/380 359/359/359 
f 381/381/381 359/359/359 380/380/380 
f 381/381/381 380/380/380 374/374/374 
f 381/381/381 358/358/358 359/359/359 
f 382/382/382 373/373/373 371/371/371 
f 382/382/382 371/371/371 379/379/379 
f 383/383/383 379/379/379 361/361/361 
f 383/383/383 361/361/361 360/360/360 
f 382/382/382 379/379/379 384/384/384 
f 382/382/382 384/384/384 373/373/373 
f 383/383/383 384/384/384 379/379/379 
f 374/374/374 385/385/385 381/381/381 
f 385/385/385 358/358/358 381/381/381 
f 386/386/386 358/358/358 385/385/385 
f 374/374/374 386/386/386 385/385/385 
f 358/358/358 386/386/386 387/387/387 
f 386/386/386 374/374/374 387/387/387 
f 358/358/358 387/387/387 357/357/357 
f 387/387/387 374/374/374 388/388/388 
f 373/373/373 388/388/388 374/374/374 
f 357/357/357 387/387/387 389/389/389 
f 388/388/388 389/389/389 387/387/387 
f 357/357/357 389/389/389 388/388/388 
f 383/383/383 360/360/360 390/390/390 
f 383/383/383 391/391/391 384/384/384 
f 391/391/391 383/383/383 390/390/390 
f 392/392/392 384/384/384 391/391/391 
f 384/384/384 392/392/392 373/373/373 
f 391/391/391 390/390/390 392/392/392 
f 390/390/390 373/373/373 392/392/392 
f 357/357/357 393/393/393 360/360/360 
f 360/360/360 393/393/393 390/390/390 
f 394/394/394 373/373/373 390/390/390 
f 388/388/388 373/373/373 394/394/394 
f 393/393/393 394/394/394 390/390/390 
f 357/357/357 388/388/388 395/395/395 
f 393/393/393 357/357/357 395/395/395 
f 395/395/395 394/394/394 393/393/393 
f 394/394/394 395/395/395 388/388/388 
f 396/396/396 398/398/398 397/397/397 
f 399/399/399 396/396/396 397/397/397 
f 399/399/399 400/400/400 396/396/396 
f 399/399/399 397/397/397 401/401/401 
f 400/400/400 399/399/399 402/402/402 
f 399/399/399 401/401/401 403/403/403 
f 402/402/402 399/399/399 404/404/404 
f 404/404/404 399/399/399 403/403/403 
f 405/405/405 407/407/407 406/406/406 
f 407/407/407 405/405/405 408/408/408 
f 409/409/409 408/408/408 405/405/405 
f 410/410/410 409/409/409 405/405/405 
f 409/409/409 411/411/411 408/408/408 
f 410/410/410 412/412/412 409/409/409 
f 409/409/409 413/413/413 411/411/411 
f 409/409/409 412/412/412 413/413/413 
f 413/413/413 412/412/412 414/414/414 
f 413/413/413 414/414/414 415/415/415 
f 416/416/416 418/418/418 417/417/417 
f 419/419/419 417/417/417 418/418/418 
f 420/420/420 417/417/417 419/419/419 
f 418/418/418 421/421/421 419/419/419 
f 420/420/420 419/419/419 422/422/422 
f 419/419/419 421/421/421 422/422/422 
f 423/423/423 425/425/425 424/424/424 
f 426/426/426 424/424/424 425/425/425 
f 427/427/427 426/426/426 425/425/425 
f 424/424/424 426/426/426 428/428/428 
f 427/427/427 429/429/429 426/426/426 
f 428/428/428 426/426/426 430/430/430 
f 429/429/429 430/430/430 426/426/426 
f 430/430/430 431/431/431 428/428/428 
f 431/431/431 430/430/430 429/429/429 
f 432/432/432 434/434/434 433/433/433 
f 433/433/433 435/435/435 432/432/432 
f 436/436/436 432/432/432 435/435/435 
f 435/435/435 437/437/437 436/436/436 
f 437/437/437 438/438/438 436/436/436 
f 439/439/439 432/432/432 436/436/436 
f 436/436/436 438/438/438 440/440/440 
f 440/440/440 439/439/439 436/436/436 
f 441/441/441 439/439/439 440/440/440 
f 442/442/442 441/441/441 440/440/440 
f 440/440/440 438/438/438 442/442/442 
f 443/443/443 439/439/439 441/441/441 
f 439/439/439 443/443/443 444/444/444 
f 445/445/445 441/441/441 442/442/442 
f 446/446/446 445/445/445 442/442/442 
f 442/442/442 447/447/447 446/446/446 
f 447/447/447 448/448/448 446/446/446 
f 448/448/448 445/445/445 446/446/446 
f 449/449/449 448/448/448 447/447/447 
f 450/450/450 441/441/441 445/445/445 
f 448/448/448 450/450/450 445/445/445 
f 451/451/451 444/444/444 443/443/443 
f 443/443/443 452/452/452 451/451/451 
f 453/453/453 452/452/452 443/443/443 
f 453/453/453 443/443/443 441/441/441 
f 454/454/454 444/444/444 451/451/451 
f 452/452/452 454/454/454 451/451/451 
f 455/455/455 444/444/444 454/454/454 
f 453/453/453 441/441/441 456/456/456 
f 456/456/456 452/452/452 453/453/453 
f 441/441/441 450/450/450 457/457/457 
f 441/441/441 457/457/457 456/456/456 
f 450/450/450 456/456/456 457/457/457 
f 458/458/458 456/456/456 450/450/450 
f 452/452/452 456/456/456 458/458/458 
f 459/459/459 450/450/450 448/448/448 
f 459/459/459 458/458/458 450/450/450 
f 448/448/448 460/460/460 459/459/459 
f 460/460/460 458/458/458 459/459/459 
f 449/449/449 460/460/460 448/448/448 
f 455/455/455 454/454/454 461/461/461 
f 462/462/462 454/454/454 452/452/452 
f 461/461/461 454/454/454 462/462/462 
f 463/463/463 455/455/455 461/461/461 
f 463/463/463 460/460/460 449/449/449 
f 464/464/464 455/455/455 463/463/463 
f 464/464/464 463/463/463 449/449/449 
f 465/465/465 461/461/461 462/462/462 
f 463/463/463 461/461/461 465/465/465 
f 462/462/462 452/452/452 465/465/465 
f 460/460/460 463/463/463 465/465/465 
f 466/466/466 452/452/452 458/458/458 
f 466/466/466 465/465/465 452/452/452 
f 460/460/460 467/467/467 458/458/458 
f 466/466/466 458/458/458 467/467/467 
f 465/465/465 467/467/467 460/460/460 
f 465/465/465 466/466/466 467/467/467 
f 468/468/468 464/464/464 449/449/449 
f 469/469/469 468/468/468 449/449/449 
f 468/468/468 470/470/470 464/464/464 
f 471/471/471 464/464/464 470/470/470 
f 472/472/472 464/464/464 471/471/471 
f 473/473/473 471/471/471 470/470/470 
f 472/472/472 471/471/471 473/473/473 
f 473/473/473 470/470/470 474/474/474 
f 474/474/474 470/470/470 468/468/468 
f 475/475/475 472/472/472 473/473/473 
f 474/474/474 475/475/475 473/473/473 
f 476/476/476 472/472/472 475/475/475 
f 477/477/477 472/472/472 476/476/476 
f 477/477/477 476/476/476 478/478/478 
f 478/478/478 476/476/476 475/475/475 
f 479/479/479 468/468/468 469/469/469 
f 474/474/474 468/468/468 480/480/480 
f 479/479/479 480/480/480 468/468/468 
f 479/479/479 469/469/469 481/481/481 
f 481/481/481 480/480/480 479/479/479 
f 481/481/481 469/469/469 482/482/482 
f 480/480/480 483/483/483 474/474/474 
f 475/475/475 474/474/474 483/483/483 
f 481/481/481 483/483/483 480/480/480 
f 482/482/482 484/484/484 481/481/481 
f 484/484/484 483/483/483 481/481/481 
f 485/485/485 484/484/484 482/482/482 
f 478/478/478 484/484/484 485/485/485 
f 486/486/486 475/475/475 483/483/483 
f 486/486/486 478/478/478 475/475/475 
f 486/486/486 484/484/484 478/478/478 
f 483/483/483 484/484/484 486/486/486 
f 487/487/487 489/489/489 488/488/488 
f 489/489/489 487/487/487 490/490/490 
f 487/487/487 491/491/491 490/490/490 
f 491/491/491 487/487/487 492/492/492 
f 491/491/491 493/493/493 490/490/490 
f 491/491/491 492/492/492 493/493/493 
f 494/494/494 496/496/496 495/495/495 
f 495/495/495 496/496/496 497/497/497 
f 498/498/498 495/495/495 497/497/497 
f 496/496/496 499/499/499 497/497/497 
f 500/500/500 502/502/502 501/501/501 
f 503/503/503 500/500/500 501/501/501 
f 504/504/504 503/503/503 501/501/501 
f 505/505/505 503/503/503 504/504/504 
f 500/500/500 503/503/503 505/505/505 
f 506/506/506 505/505/505 504/504/504 
f 505/505/505 506/506/506 507/507/507 
f 508/508/508 500/500/500 505/505/505 
f 509/509/509 505/505/505 507/507/507 
f 509/509/509 508/508/508 505/505/505 
f 507/507/507 510/510/510 509/509/509 
f 510/510/510 508/508/508 509/509/509 
f 511/511/511 510/510/510 507/507/507 
f 510/510/510 511/511/511 508/508/508 
f 512/512/512 511/511/511 507/507/507 
f 512/512/512 513/513/513 511/511/511 
f 514/514/514 513/513/513 512/512/512 
f 513/513/513 515/515/515 500/500/500 
f 515/515/515 513/513/513 516/516/516 
f 517/517/517 500/500/500 508/508/508 
f 517/517/517 513/513/513 500/500/500 
f 511/511/511 518/518/518 508/508/508 
f 518/518/518 517/517/517 508/508/508 
f 513/513/513 517/517/517 518/518/518 
f 511/511/511 513/513/513 518/518/518 
f 519/519/519 512/512/512 507/507/507 
f 520/520/520 519/519/519 507/507/507 
f 521/521/521 513/513/513 514/514/514 
f 516/516/516 513/513/513 521/521/521 
f 522/522/522 521/521/521 514/514/514 
f 522/522/522 516/516/516 521/521/521 
f 514/514/514 512/512/512 523/523/523 
f 522/522/522 514/514/514 523/523/523 
f 524/524/524 522/522/522 523/523/523 
f 524/524/524 523/523/523 512/512/512 
f 525/525/525 522/522/522 524/524/524 
f 516/516/516 522/522/522 525/525/525 
f 525/525/525 524/524/524 526/526/526 
f 524/524/524 512/512/512 526/526/526 
f 527/527/527 516/516/516 525/525/525 
f 525/525/525 526/526/526 527/527/527 
f 526/526/526 512/512/512 528/528/528 
f 527/527/527 526/526/526 528/528/528 
f 529/529/529 512/512/512 519/519/519 
f 528/528/528 512/512/512 529/529/529 
f 530/530/530 529/529/529 519/519/519 
f 530/530/530 519/519/519 520/520/520 
f 531/531/531 528/528/528 529/529/529 
f 530/530/530 531/531/531 529/529/529 
f 527/527/527 528/528/528 531/531/531 
f 530/530/530 532/532/532 531/531/531 
f 532/532/532 530/530/530 520/520/520 
f 527/527/527 531/531/531 532/532/532 
f 533/533/533 516/516/516 527/527/527 
f 533/533/533 527/527/527 532/532/532 
f 533/533/533 534/534/534 516/516/516 
f 535/535/535 532/532/532 520/520/520 
f 533/533/533 532/532/532 535/535/535 
f 533/533/533 535/535/535 534/534/534 
f 535/535/535 520/520/520 536/536/536 
f 535/535/535 537/537/537 534/534/534 
f 536/536/536 538/538/538 535/535/535 
f 535/535/535 538/538/538 537/537/537 
f 539/539/539 538/538/538 536/536/536 
f 538/538/538 539/539/539 537/537/537 
f 536/536/536 540/540/540 539/539/539 
f 541/541/541 534/534/534 537/537/537 
f 537/537/537 539/539/539 541/541/541 
f 534/534/534 541/541/541 542/542/542 
f 542/542/542 541/541/541 539/539/539 
f 543/543/543 542/542/542 539/539/539 
f 543/543/543 539/539/539 540/540/540 
f 542/542/542 543/543/543 544/544/544 
f 544/544/544 545/545/545 542/542/542 
f 545/545/545 544/544/544 546/546/546 
f 546/546/546 544/544/544 543/543/543 
f 547/547/547 545/545/545 546/546/546 
f 543/543/543 540/540/540 548/548/548 
f 546/546/546 543/543/543 548/548/548 
f 549/549/549 547/547/547 546/546/546 
f 547/547/547 549/549/549 550/550/550 
f 540/540/540 550/550/550 551/551/551 
f 551/551/551 550/550/550 549/549/549 
f 552/552/552 540/540/540 551/551/551 
f 548/548/548 540/540/540 552/552/552 
f 549/549/549 552/552/552 551/551/551 
f 546/546/546 553/553/553 549/549/549 
f 546/546/546 548/548/548 553/553/553 
f 553/553/553 552/552/552 549/549/549 
f 548/548/548 552/552/552 553/553/553 
f 554/554/554 556/556/556 555/555/555 
f 556/556/556 554/554/554 557/557/557 
f 555/555/555 556/556/556 558/558/558 
f 559/559/559 556/556/556 557/557/557 
f 558/558/558 556/556/556 560/560/560 
f 556/556/556 559/559/559 560/560/560 
f 561/561/561 563/563/563 562/562/562 
f 563/563/563 564/564/564 562/562/562 
f 565/565/565 564/564/564 563/563/563 
f 565/565/565 563/563/563 566/566/566 
f 563/563/563 561/561/561 567/567/567 
f 566/566/566 563/563/563 567/567/567 
f 567/567/567 561/561/561 568/568/568 
f 568/568/568 569/569/569 567/567/567 
f 567/567/567 569/569/569 570/570/570 
f 567/567/567 571/571/571 566/566/566 
f 571/571/571 567/567/567 570/570/570 
f 572/572/572 566/566/566 571/571/571 
f 571/571/571 570/570/570 573/573/573 
f 573/573/573 572/572/572 571/571/571 
