# exported by StudySceneExporter from mesh 'Adjustable_Wrench_S_Wheel_low'
mtllib materials.mtl
v 0 -0.005993315 -0.0002941513
v -3.814697E-08 -0.00392153 -0.001073799
v 0 -0.005764639 -0.002711677
v 0.001903686 -0.005714676 0.0004000473
v 0.001903686 -0.003377783 -0.0004413223
v 0 -0.003338712 -0.001305351
v 0.002692223 -0.005011701 0.002168999
v 0.003461265 -0.002923178 -0.002298012
v 0 -0.00312243 -0.003761559
v 0.002692223 -0.003004956 0.00145916
v 0.001903686 -0.004308735 0.003938179
v 0.004894943 -0.001975378 0.001049919
v 0.001903686 -0.001318449 -0.001259575
v -3.814697E-08 -0.001279384 -0.00212368
v 0 -0.0006965679 -0.002355232
v 0.001903686 -0.002632388 0.003359413
v 0 -0.004017641 0.004671059
v 0.002692223 -0.0009456366 0.0006407547
v 0.001903686 -0.000735628 -0.001491203
v 0.003461265 -0.001027424 0.004397697
v 0 -0.002671439 0.004223442
v -0.001903686 -0.004308874 0.003938255
v 0.001903686 -0.0005730563 0.002541237
v 0 -0.000828411 0.005861321
v -0.001903686 -0.003292834 0.003621941
v -0.002692223 -0.005011834 0.002169151
v 0.003461227 -0.0002810198 -0.003347664
v 0 -0.0004802769 -0.004811363
v 0.002692223 -0.0003628176 0.0004092026
v -3.814697E-08 -0.0006121224 0.003405266
v -0.003461265 -0.001687962 0.004660225
v -0.002692223 -0.004326188 0.001983986
v -0.001903686 -0.005714804 0.0004000473
v 0.004894943 0.0006668478 -3.814697E-08
v 0.001903686 9.766221E-06 0.002309532
v -0.001903725 -0.00123352 0.002803612
v -0.004894943 -0.003296441 0.001574821
v -0.001903725 -0.005428909 0.000368309
v 0 -0.005993315 -0.0002941513
v 0 -0.005764639 -0.002711677
v -0.003461265 -0.004904849 -0.001510582
v -3.814697E-08 -0.00392153 -0.001073799
v -0.002692223 -0.002266867 0.001165733
v -0.001903686 -0.00329991 -0.0004721451
v -3.814697E-08 -2.928555E-05 0.003173561
v -0.001903725 -0.002717084 -0.0007036972
v 0 -0.003338712 -0.001305351
v 0 -0.00312243 -0.003761559
v -0.002692223 -0.001684048 0.0009341812
v -0.001903686 -0.0006506997 0.00257206
v -0.003461265 -0.00226272 -0.002560463
v -3.814697E-08 -0.001279384 -0.00212368
v -0.004894943 -0.0006543058 0.0005250167
v -0.003461265 0.0009540349 0.003610344
v 0 0.001813738 0.004811516
v -0.001903686 -0.0006577557 -0.001522026
v -0.002692223 0.0003753573 0.0001158524
v -0.001903725 -7.508933E-05 -0.001753578
v 0 -0.0006965679 -0.002355232
v 0 -0.0004802769 -0.004811363
v -0.002692223 0.0009581905 -0.0001156998
v -0.003461265 0.0003794223 -0.003610191
v 0 0.001362758 -0.003173485
v -0.001903725 0.00140863 0.001753807
v 0.003461227 0.001614726 0.003347893
v -0.001903686 0.001991445 0.001522255
v -0.001903725 0.001984236 -0.002571831
v -3.814697E-08 0.001945572 -0.003404961
v -0.004894943 0.001987837 -0.0005247879
v 0 0.002030042 0.002355309
v 0.001903686 0.00206909 0.00149128
v 0 0.002612849 0.002123756
v -0.003461265 0.003596176 0.002560463
v 0.001903686 0.002651928 0.001259727
v 0.002692184 0.001696511 -0.00040905
v -0.002692223 0.003017502 -0.0009339523
v 0 0.004455966 0.003761635
v 0.002692223 0.00227918 -0.0006406784
v 0.001903686 0.001323702 -0.002309456
v 0 0.001362758 -0.003173485
v -3.814697E-08 0.001945572 -0.003404961
v 0.001903648 0.001906524 -0.002541084
v 0.003461265 0.004256719 0.002298088
v -0.001903686 0.004050773 0.0007039261
v 0.003461227 0.002360969 -0.004397697
v -3.814697E-08 0.002161867 -0.005861321
v 0.004894943 0.003308857 -0.001049843
v 0 0.004672253 0.001305428
v 0.001903686 0.003965851 -0.003359261
v 0 0.004004906 -0.004223289
v 0.001903686 0.004296134 -0.003490562
v 0.002692223 0.004338512 -0.001458931
v 0.002692223 0.004999103 -0.001721382
v 0.001903686 0.004711326 0.0004413986
v 0.001903686 0.005702076 4.772186E-05
v -3.814697E-08 0.005993315 0.0007805252
v -0.001903686 0.005702076 4.787445E-05
v -0.002692223 0.004999117 -0.001721382
v -0.001903686 0.00429616 -0.003490486
v 0 0.004004906 -0.004223289
v -3.814697E-08 0.002161867 -0.005861321
vt 0.1585373 0.1714359
vt 0.1589029 0.1734415
vt 0.1606706 0.1720568
vt 0.1566767 0.1717383
vt 0.157042 0.1740103
vt 0.1590545 0.1740193
vt 0.1547442 0.1719265
vt 0.1571345 0.1761839
vt 0.1600069 0.1764075
vt 0.1549555 0.1738632
vt 0.1527496 0.1720403
vt 0.1548461 0.1759428
vt 0.1568668 0.1782058
vt 0.1588987 0.1784899
vt 0.158948 0.179074
vt 0.1528611 0.1736461
vt 0.1507078 0.1720912
vt 0.1546472 0.1779793
vt 0.1569084 0.1788159
vt 0.1526607 0.1756921
vt 0.1507716 0.1733729
vt 0.1486416 0.1720793
vt 0.1524256 0.1777036
vt 0.1504911 0.1754025
vt 0.1486873 0.1730409
vt 0.1465746 0.1719988
vt 0.1567886 0.1809986
vt 0.159651 0.1815361
vt 0.1547004 0.1785452
vt 0.1502059 0.177395
vt 0.1483209 0.1750637
vt 0.1466055 0.1726407
vt 0.1445059 0.1718507
vt 0.1544667 0.1805986
vt 0.152471 0.1782558
vt 0.1479868 0.1770519
vt 0.1461397 0.1746548
vt 0.1445139 0.1721129
vt 0.1426055 0.1714758
vt 0.1411175 0.173254
vt 0.143894 0.17409
vt 0.1415843 0.1757759
vt 0.145772 0.1766679
vt 0.1435899 0.1762356
vt 0.1502421 0.1779431
vt 0.1435853 0.1768479
vt 0.1415855 0.1763625
vt 0.1402988 0.1783236
vt 0.145792 0.1772348
vt 0.1480148 0.1776038
vt 0.1431584 0.1788623
vt 0.1409961 0.1807851
vt 0.1454762 0.1792712
vt 0.1477272 0.1796138
vt 0.1499702 0.179943
vt 0.1430347 0.1810468
vt 0.1452413 0.1813263
vt 0.143075 0.1816568
vt 0.1410438 0.1813686
vt 0.1399299 0.1834468
vt 0.1452943 0.1818928
vt 0.1428015 0.1836746
vt 0.1408767 0.1858363
vt 0.1474697 0.1816257
vt 0.1522137 0.1802671
vt 0.1475155 0.1821793
vt 0.1428872 0.1858448
vt 0.1410289 0.1864154
vt 0.1450919 0.1839287
vt 0.1496981 0.1819427
vt 0.1519262 0.1822764
vt 0.1497347 0.1824924
vt 0.1472797 0.1841961
vt 0.1519542 0.1828289
vt 0.1541523 0.1826329
vt 0.144972 0.1860076
vt 0.1494518 0.1844941
vt 0.1541722 0.183198
vt 0.1563651 0.1830106
vt 0.1583675 0.1835004
vt 0.1583708 0.1840904
vt 0.1563616 0.1836194
vt 0.1516244 0.1848242
vt 0.1470706 0.1862451
vt 0.1560601 0.185747
vt 0.1588271 0.1866285
vt 0.1538084 0.1852078
vt 0.1491718 0.186529
vt 0.1554399 0.1876795
vt 0.1572716 0.1884171
vt 0.1553852 0.1880009
vt 0.1533641 0.1872245
vt 0.1533336 0.1878691
vt 0.1512713 0.186852
vt 0.1512797 0.1878192
vt 0.1492358 0.187817
vt 0.1472135 0.1878545
vt 0.145227 0.1879427
vt 0.1432927 0.188112
vt 0.1414174 0.1884201
vt 0.1392512 0.187787
vn 0.6186821 -0.2711569 -0.7373645
vn 0.5797719 -0.2831939 -0.7639802
vn 1 1.909165E-05 0
vn 0.6976917 -0.245474 -0.6730296
vn 0.4640044 -0.839934 -0.2814442
vn 0.1053099 -0.9788543 -0.1753682
vn 0.9990472 -0.0157865 -0.04068526
vn 0.7071078 -0.2611153 -0.657128
vn 0.3894466 -0.2763421 -0.8786162
vn 0.7283027 -0.6663665 0.1597839
vn 0.7425715 0.2173755 0.6335104
vn 1 -2.766087E-05 -4.505174E-06
vn 0.4574811 0.6478388 -0.6091108
vn 0.3188529 0.5488916 -0.7726907
vn 0.1256563 -0.9666656 -0.2230879
vn 0.5586563 -0.5128827 0.6518086
vn 0.05711448 0.3150026 0.9473708
vn 0.5546121 0.8026291 -0.2195268
vn 0.3268821 -0.9374405 -0.1198066
vn 0.7071049 0.2611137 0.6571318
vn 0.1049769 -0.460823 0.8812615
vn -0.6609828 0.2264663 0.7154123
vn 0.3268272 0.9374622 0.1197857
vn 2.384307E-05 0.3692396 0.9293343
vn -0.3531913 -0.5429102 0.7619085
vn -0.9956962 0.03657185 0.08515646
vn 0.7071106 -0.2611295 -0.6571195
vn 0.3894613 -0.2763657 -0.8786023
vn 0.5546456 -0.8026055 0.2195286
vn -0.09237674 0.9733186 0.2100411
vn -0.7071101 0.2610802 0.6571395
vn -0.5706418 -0.7133821 0.4067605
vn -0.8188596 -0.09646447 -0.5658299
vn 1 -3.907612E-06 -6.712995E-06
vn 0.4575241 -0.6478 0.6091197
vn -0.4574797 0.8892185 -0.001634277
vn -0.9999975 0.0006366813 0.00216403
vn -0.4520592 -0.8911442 0.03879085
vn -0.278623 -0.9578379 -0.07011336
vn -0.3801732 -0.3968755 -0.8354389
vn -0.7089049 -0.2607446 -0.6553367
vn -0.1256028 0.5499649 -0.8256891
vn -0.5546011 0.7343996 -0.3912479
vn -0.3268461 0.5995762 -0.7305341
vn 0.09239196 -0.5637185 0.8207833
vn -0.4575058 -0.8892052 0.001634605
vn -0.318911 -0.9295048 -0.185247
vn -0.3894629 -0.4021208 -0.8286239
vn -0.5546194 -0.7343968 0.3912272
vn -0.3268456 -0.599574 0.730536
vn -0.7070913 -0.2611067 -0.6571491
vn -0.12561 0.5499249 -0.8257147
vn -1 1.44214E-05 4.267294E-06
vn -0.7071041 0.2611268 0.6571275
vn 3.701798E-06 0.3692826 0.9293171
vn -0.3268681 0.5995668 -0.730532
vn -0.5546206 0.7344004 -0.3912185
vn -0.4574946 -0.8892109 0.001634403
vn -0.3188755 -0.929516 -0.1852528
vn -0.3894601 -0.4020779 -0.828646
vn -0.5546223 -0.7343876 0.3912404
vn -0.7071143 -0.2611073 -0.6571242
vn -0.1052884 0.5915673 -0.7993513
vn -0.4574944 0.8892111 -0.001601662
vn 0.7070972 0.2611098 0.6571416
vn -0.3268485 -0.5995378 0.7305645
vn -0.4606848 0.4225498 -0.7805262
vn -0.5907662 -0.2979795 -0.7498024
vn -1 7.943599E-06 1.370207E-05
vn -0.09238676 0.9733143 0.2100566
vn 0.3268161 0.9374664 0.1197835
vn 0.09237778 -0.5636842 0.8208085
vn -0.7070999 0.2611346 0.6571289
vn 0.4574772 -0.6478286 0.6091245
vn 0.5545914 0.8026443 -0.2195234
vn -0.7279524 0.5928768 -0.3443577
vn -1.15419E-05 0.3693481 0.9292911
vn 0.5545962 -0.8026429 0.2195162
vn 0.4574766 0.6478233 -0.6091306
vn 0.3188575 0.5488889 -0.7726907
vn 0.1256096 -0.966678 -0.2230605
vn 0.3268279 -0.9374611 -0.1197929
vn 0.7071112 0.2610996 0.6571305
vn -0.5649664 0.8152226 0.1273773
vn 0.7070898 -0.2611223 -0.6571445
vn 0.3894356 -0.2763576 -0.8786162
vn 1 -1.881734E-05 -7.805212E-06
vn -0.1046686 0.9353613 0.3378516
vn 0.4403752 0.6849852 -0.5804006
vn 0.281934 0.6611221 -0.6952919
vn 0.8358026 -0.2027619 -0.5102173
vn 0.5689676 0.7974324 -0.2009412
vn 0.9946826 0.03800073 0.09572044
vn 0.3612943 0.9133856 0.1875987
vn 0.6567229 0.278457 0.7008401
vn -0.05168045 0.3687731 0.9280816
vn -0.7357557 0.2500898 0.6293795
vn -0.9994049 -0.01273808 -0.03205657
vn -0.7044769 -0.2621058 -0.6595551
vn -0.6235658 -0.2887159 -0.7265046
vn -1 1.919561E-05 0
usemtl Mat_Tools
f 1/1/1 3/3/3 2/2/2 
f 2/2/2 4/4/4 1/1/1 
f 2/2/2 5/5/5 4/4/4 
f 2/2/2 6/6/6 5/5/5 
f 5/5/5 7/7/7 4/4/4 
f 8/8/8 5/5/5 6/6/6 
f 8/8/8 6/6/6 9/9/9 
f 5/5/5 10/10/10 7/7/7 
f 10/10/10 11/11/11 7/7/7 
f 12/12/12 5/5/5 8/8/8 
f 12/12/12 10/10/10 5/5/5 
f 13/13/13 8/8/8 9/9/9 
f 13/13/13 9/9/9 14/14/14 
f 13/13/13 14/14/14 15/15/15 
f 10/10/10 16/16/16 11/11/11 
f 16/16/16 17/17/17 11/11/11 
f 18/18/18 8/8/8 13/13/13 
f 18/18/18 12/12/12 8/8/8 
f 13/13/13 15/15/15 19/19/19 
f 18/18/18 13/13/13 19/19/19 
f 20/20/20 10/10/10 12/12/12 
f 20/20/20 16/16/16 10/10/10 
f 16/16/16 21/21/21 17/17/17 
f 21/21/21 22/22/22 17/17/17 
f 23/23/23 12/12/12 18/18/18 
f 23/23/23 20/20/20 12/12/12 
f 24/24/24 16/16/16 20/20/20 
f 24/24/24 21/21/21 16/16/16 
f 21/21/21 25/25/25 22/22/22 
f 25/25/25 26/26/26 22/22/22 
f 27/27/27 19/19/19 15/15/15 
f 27/27/27 15/15/15 28/28/28 
f 18/18/18 19/19/19 29/29/29 
f 23/23/23 18/18/18 29/29/29 
f 30/30/30 20/20/20 23/23/23 
f 30/30/30 24/24/24 20/20/20 
f 31/31/31 21/21/21 24/24/24 
f 31/31/31 25/25/25 21/21/21 
f 25/25/25 32/32/32 26/26/26 
f 32/32/32 33/33/33 26/26/26 
f 34/34/34 19/19/19 27/27/27 
f 34/34/34 29/29/29 19/19/19 
f 23/23/23 29/29/29 35/35/35 
f 30/30/30 23/23/23 35/35/35 
f 36/36/36 24/24/24 30/30/30 
f 36/36/36 31/31/31 24/24/24 
f 37/37/37 25/25/25 31/31/31 
f 37/37/37 32/32/32 25/25/25 
f 32/32/32 38/38/38 33/33/33 
f 33/33/33 38/38/38 39/39/39 
f 40/40/40 39/39/39 38/38/38 
f 41/41/41 38/38/38 32/32/32 
f 40/40/40 38/38/38 41/41/41 
f 41/41/41 32/32/32 37/37/37 
f 42/42/42 40/40/40 41/41/41 
f 43/43/43 37/37/37 31/31/31 
f 43/43/43 31/31/31 36/36/36 
f 44/44/44 41/41/41 37/37/37 
f 42/42/42 41/41/41 44/44/44 
f 44/44/44 37/37/37 43/43/43 
f 36/36/36 30/30/30 45/45/45 
f 30/30/30 35/35/35 45/45/45 
f 42/42/42 44/44/44 46/46/46 
f 42/42/42 46/46/46 47/47/47 
f 48/48/48 47/47/47 46/46/46 
f 44/44/44 43/43/43 49/49/49 
f 44/44/44 49/49/49 46/46/46 
f 43/43/43 36/36/36 50/50/50 
f 36/36/36 45/45/45 50/50/50 
f 43/43/43 50/50/50 49/49/49 
f 48/48/48 46/46/46 51/51/51 
f 51/51/51 46/46/46 49/49/49 
f 52/52/52 48/48/48 51/51/51 
f 53/53/53 49/49/49 50/50/50 
f 51/51/51 49/49/49 53/53/53 
f 54/54/54 50/50/50 45/45/45 
f 53/53/53 50/50/50 54/54/54 
f 55/55/55 45/45/45 35/35/35 
f 54/54/54 45/45/45 55/55/55 
f 52/52/52 51/51/51 56/56/56 
f 56/56/56 51/51/51 53/53/53 
f 57/57/57 53/53/53 54/54/54 
f 56/56/56 53/53/53 57/57/57 
f 52/52/52 56/56/56 58/58/58 
f 52/52/52 58/58/58 59/59/59 
f 60/60/60 59/59/59 58/58/58 
f 56/56/56 61/61/61 58/58/58 
f 56/56/56 57/57/57 61/61/61 
f 60/60/60 58/58/58 62/62/62 
f 62/62/62 58/58/58 61/61/61 
f 63/63/63 60/60/60 62/62/62 
f 57/57/57 54/54/54 64/64/64 
f 64/64/64 54/54/54 55/55/55 
f 55/55/55 35/35/35 65/65/65 
f 65/65/65 35/35/35 29/29/29 
f 65/65/65 29/29/29 34/34/34 
f 57/57/57 66/66/66 61/61/61 
f 57/57/57 64/64/64 66/66/66 
f 63/63/63 62/62/62 67/67/67 
f 68/68/68 63/63/63 67/67/67 
f 62/62/62 61/61/61 69/69/69 
f 69/69/69 61/61/61 66/66/66 
f 67/67/67 62/62/62 69/69/69 
f 64/64/64 55/55/55 70/70/70 
f 70/70/70 55/55/55 65/65/65 
f 71/71/71 65/65/65 34/34/34 
f 70/70/70 65/65/65 71/71/71 
f 64/64/64 72/72/72 66/66/66 
f 64/64/64 70/70/70 72/72/72 
f 69/69/69 66/66/66 73/73/73 
f 73/73/73 66/66/66 72/72/72 
f 70/70/70 74/74/74 72/72/72 
f 70/70/70 71/71/71 74/74/74 
f 71/71/71 34/34/34 75/75/75 
f 75/75/75 34/34/34 27/27/27 
f 67/67/67 69/69/69 76/76/76 
f 76/76/76 69/69/69 73/73/73 
f 73/73/73 72/72/72 77/77/77 
f 77/77/77 72/72/72 74/74/74 
f 71/71/71 78/78/78 74/74/74 
f 71/71/71 75/75/75 78/78/78 
f 75/75/75 27/27/27 79/79/79 
f 79/79/79 27/27/27 28/28/28 
f 79/79/79 28/28/28 80/80/80 
f 79/79/79 80/80/80 81/81/81 
f 75/75/75 79/79/79 82/82/82 
f 79/79/79 81/81/81 82/82/82 
f 75/75/75 82/82/82 78/78/78 
f 83/83/83 74/74/74 78/78/78 
f 77/77/77 74/74/74 83/83/83 
f 84/84/84 73/73/73 77/77/77 
f 76/76/76 73/73/73 84/84/84 
f 85/85/85 82/82/82 81/81/81 
f 85/85/85 81/81/81 86/86/86 
f 87/87/87 78/78/78 82/82/82 
f 83/83/83 78/78/78 87/87/87 
f 87/87/87 82/82/82 85/85/85 
f 88/88/88 77/77/77 83/83/83 
f 84/84/84 77/77/77 88/88/88 
f 89/89/89 85/85/85 86/86/86 
f 89/89/89 86/86/86 90/90/90 
f 89/89/89 90/90/90 91/91/91 
f 92/92/92 85/85/85 89/89/89 
f 92/92/92 89/89/89 91/91/91 
f 92/92/92 87/87/87 85/85/85 
f 92/92/92 91/91/91 93/93/93 
f 94/94/94 83/83/83 87/87/87 
f 94/94/94 87/87/87 92/92/92 
f 94/94/94 92/92/92 93/93/93 
f 88/88/88 83/83/83 94/94/94 
f 94/94/94 93/93/93 95/95/95 
f 88/88/88 94/94/94 95/95/95 
f 88/88/88 95/95/95 96/96/96 
f 84/84/84 88/88/88 96/96/96 
f 84/84/84 96/96/96 97/97/97 
f 76/76/76 84/84/84 97/97/97 
f 76/76/76 97/97/97 98/98/98 
f 67/67/67 76/76/76 98/98/98 
f 67/67/67 98/98/98 99/99/99 
f 68/68/68 67/67/67 99/99/99 
f 68/68/68 99/99/99 100/100/100 
f 68/68/68 100/100/100 101/101/101 
