# exported by StudySceneExporter from mesh 'flopy.001'
mtllib materials.mtl
v -0.007428846 0.006468237 0.00912029
v -0.007428846 0.006468237 0.006685409
v -0.007428846 0.006147784 0.006685409
v -0.007428846 0.006147784 0.009122339
v -0.007428846 0.006468237 0.01096069
v -0.007428846 0.006147784 0.01099725
v -0.007428846 0.006468237 0.01347611
v -0.007428846 0.006147784 0.01347611
v -0.007477102 0.006197132 0.009122339
v -0.007477102 0.006197132 0.006685409
v -0.007477102 0.006517585 0.006685409
v -0.007477102 0.006517585 0.00912029
v -0.007477102 0.006517585 0.01096069
v -0.007477102 0.006197132 0.01099725
v -0.007477102 0.006517585 0.01347611
v -0.007477102 0.006197132 0.01347611
v -0.007428846 0.006147784 0.01099725
v -0.007477102 0.006197132 0.01347611
v -0.007428846 0.006147784 0.01347611
v -0.007477102 0.006197132 0.01099725
v -0.007428846 0.006147784 0.009122339
v -0.007477102 0.006197132 0.009122339
v -0.007428846 0.006147784 0.006685409
v -0.007477102 0.006197132 0.006685409
v -0.007428846 0.006468237 0.00912029
v -0.007477102 0.006517585 0.006685409
v -0.007428846 0.006468237 0.006685409
v -0.007477102 0.006517585 0.00912029
v -0.007428846 0.006468237 0.01096069
v -0.007477102 0.006517585 0.01096069
v -0.007428846 0.006468237 0.01347611
v -0.007477102 0.006517585 0.01347611
v -0.007428846 0.006468237 0.006685409
v -0.007477102 0.006517585 0.006685409
v -0.007477102 0.006197132 0.006685409
v -0.007428846 0.006147784 0.006685409
v -0.007428846 0.006147784 0.01347611
v -0.007477102 0.006197132 0.01347611
v -0.007477102 0.006517585 0.01347611
v -0.007428846 0.006468237 0.01347611
v -0.007512847 0.005071093 0.0126665
v -0.007512847 0.005071093 0.01234592
v -0.007512847 0.005391547 0.01234592
v -0.007512847 0.005391547 0.01267123
v -0.007512847 0.005071093 0.01290898
v -0.007512847 0.005391547 0.01290924
v -0.007512847 0.005071093 0.01322414
v -0.007512847 0.005391547 0.01322414
v -0.008047482 0.005391547 0.01267123
v -0.008047482 0.005391547 0.01234592
v -0.008047482 0.005071093 0.01234592
v -0.008047482 0.005071093 0.0126665
v -0.008047482 0.005071093 0.01290898
v -0.008047482 0.005391547 0.01290924
v -0.008047482 0.005071093 0.01322414
v -0.008047482 0.005391547 0.01322414
v -0.007512847 0.005071093 0.0126665
v -0.008047482 0.005071093 0.01234592
v -0.007512847 0.005071093 0.01234592
v -0.008047482 0.005071093 0.0126665
v -0.007512847 0.005071093 0.01290898
v -0.008047482 0.005071093 0.01290898
v -0.007512847 0.005071093 0.01322414
v -0.008047482 0.005071093 0.01322414
v -0.007512847 0.005391547 0.01290924
v -0.008047482 0.005391547 0.01322414
v -0.007512847 0.005391547 0.01322414
v -0.008047482 0.005391547 0.01290924
v -0.007512847 0.005391547 0.01267123
v -0.008047482 0.005391547 0.01267123
v -0.007512847 0.005391547 0.01234592
v -0.008047482 0.005391547 0.01234592
v -0.007512847 0.005391547 0.01322414
v -0.008047482 0.005391547 0.01322414
v -0.008047482 0.005071093 0.01322414
v -0.007512847 0.005071093 0.01322414
v -0.007512847 0.005071093 0.01234592
v -0.008047482 0.005071093 0.01234592
v -0.008047482 0.005391547 0.01234592
v -0.007512847 0.005391547 0.01234592
vt 0.8460455 0.6556453
vt 0.8460456 0.7333341
vt 0.8183975 0.7333341
vt 0.8183974 0.6526582
vt 0.8460455 0.5969243
vt 0.8183974 0.5957578
vt 0.8460454 0.5166658
vt 0.8183974 0.5166658
vt 0.8183974 0.6526582
vt 0.8183975 0.7333341
vt 0.8460456 0.7333341
vt 0.8460455 0.6556453
vt 0.8460455 0.5969243
vt 0.8183974 0.5957578
vt 0.8460454 0.5166658
vt 0.8183974 0.5166658
vt 0.8183974 0.5957578
vt 0.8183974 0.5166658
vt 0.8183974 0.5166658
vt 0.8183974 0.5957578
vt 0.8183974 0.6526582
vt 0.8183974 0.6526582
vt 0.8183975 0.7333341
vt 0.8183975 0.7333341
vt 0.8460455 0.6556453
vt 0.8460456 0.7333341
vt 0.8460456 0.7333341
vt 0.8460455 0.6556453
vt 0.8460455 0.5969243
vt 0.8460455 0.5969243
vt 0.8460454 0.5166658
vt 0.8460454 0.5166658
vt 0.8460456 0.7333341
vt 0.8460456 0.7333341
vt 0.8183975 0.7333341
vt 0.8183975 0.7333341
vt 0.8183974 0.5166658
vt 0.8183974 0.5166658
vt 0.8460454 0.5166658
vt 0.8460454 0.5166658
vt 0.8183974 0.5957578
vt 0.8183974 0.5166658
vt 0.8460454 0.5166658
vt 0.8460455 0.5969243
vt 0.8183974 0.6526582
vt 0.8460455 0.6556453
vt 0.8183975 0.7333341
vt 0.8460456 0.7333341
vt 0.8460455 0.5969243
vt 0.8460454 0.5166658
vt 0.8183974 0.5166658
vt 0.8183974 0.5957578
vt 0.8183974 0.6526582
vt 0.8460455 0.6556453
vt 0.8183975 0.7333341
vt 0.8460456 0.7333341
vt 0.8183974 0.5957578
vt 0.8183974 0.5166658
vt 0.8183974 0.5166658
vt 0.8183974 0.5957578
vt 0.8183974 0.6526582
vt 0.8183974 0.6526582
vt 0.8183975 0.7333341
vt 0.8183975 0.7333341
vt 0.8460455 0.6556453
vt 0.8460456 0.7333341
vt 0.8460456 0.7333341
vt 0.8460455 0.6556453
vt 0.8460455 0.5969243
vt 0.8460455 0.5969243
vt 0.8460454 0.5166658
vt 0.8460454 0.5166658
vt 0.8460456 0.7333341
vt 0.8460456 0.7333341
vt 0.8183975 0.7333341
vt 0.8183975 0.7333341
vt 0.8183974 0.5166658
vt 0.8183974 0.5166658
vt 0.8460454 0.5166658
vt 0.8460454 0.5166658
vn 1 0 0
vn 1 0 0
vn 1 0 0
vn 1 0 0
vn 1 0 0
vn 1 0 0
vn 1 0 0
vn 1 0 0
vn -1 0 0
vn -1 0 0
vn -1 0 0
vn -1 0 0
vn -1 0 0
vn -1 0 0
vn -1 0 0
vn -1 0 0
vn -0.7149777 -0.6991472 0
vn -0.7149777 -0.6991472 0
vn -0.7149777 -0.6991472 0
vn -0.7149777 -0.6991472 0
vn -0.7149776 -0.6991473 0
vn -0.7149776 -0.6991473 0
vn -0.7149802 -0.6991448 0
vn -0.7149802 -0.6991448 0
vn 0.7149752 0.6991497 0
vn 0.7149752 0.6991497 0
vn 0.7149752 0.6991497 0
vn 0.7149752 0.6991497 0
vn 0.7149785 0.6991464 0
vn 0.7149785 0.6991464 0
vn 0.7149785 0.6991464 0
vn 0.7149785 0.6991464 0
vn 0 0 -1
vn 0 0 -1
vn 0 0 -1
vn 0 0 -1
vn 0 0 1
vn 0 0 1
vn 0 0 1
vn 0 0 1
vn -1 0 0
vn -1 0 0
vn -1 0 0
vn -1 0 0
vn -1 0 0
vn -1 0 0
vn -1 0 0
vn -1 0 0
vn 1 0 0
vn 1 0 0
vn 1 0 0
vn 1 0 0
vn 1 0 0
vn 1 0 0
vn 1 0 0
vn 1 0 0
vn 0 1 0
vn 0 1 0
vn 0 1 0
vn 0 1 0
vn 0 1 0
vn 0 1 0
vn 0 1 0
vn 0 1 0
vn 0 -1 0
vn 0 -1 0
vn 0 -1 0
vn 0 -1 0
vn 0 -1 0
vn 0 -1 0
vn 0 -1 0
vn 0 -1 0
vn 0 0 -1
vn 0 0 -1
vn 0 0 -1
vn 0 0 -1
vn 0 0 1
vn 0 0 1
vn 0 0 1
vn 0 0 1
usemtl vintage_1
f 1/1/1 3/3/3 2/2/2 
f 3/3/3 1/1/1 4/4/4 
f 4/4/4 1/1/1 5/5/5 
f 4/4/4 5/5/5 6/6/6 
f 6/6/6 5/5/5 7/7/7 
f 6/6/6 7/7/7 8/8/8 
f 9/9/9 11/11/11 10/10/10 
f 11/11/11 9/9/9 12/12/12 
f 12/12/12 9/9/9 13/13/13 
f 13/13/13 9/9/9 14/14/14 
f 13/13/13 14/14/14 15/15/15 
f 15/15/15 14/14/14 16/16/16 
f 17/17/17 19/19/19 18/18/18 
f 17/17/17 18/18/18 20/20/20 
f 21/21/21 17/17/17 20/20/20 
f 21/21/21 20/20/20 22/22/22 
f 23/23/23 21/21/21 22/22/22 
f 23/23/23 22/22/22 24/24/24 
f 25/25/25 27/27/27 26/26/26 
f 25/25/25 26/26/26 28/28/28 
f 29/29/29 25/25/25 28/28/28 
f 29/29/29 28/28/28 30/30/30 
f 31/31/31 29/29/29 30/30/30 
f 31/31/31 30/30/30 32/32/32 
f 33/33/33 35/35/35 34/34/34 
f 33/33/33 36/36/36 35/35/35 
f 37/37/37 39/39/39 38/38/38 
f 37/37/37 40/40/40 39/39/39 
f 41/41/41 43/43/43 42/42/42 
f 43/43/43 41/41/41 44/44/44 
f 44/44/44 41/41/41 45/45/45 
f 44/44/44 45/45/45 46/46/46 
f 46/46/46 45/45/45 47/47/47 
f 46/46/46 47/47/47 48/48/48 
f 49/49/49 51/51/51 50/50/50 
f 51/51/51 49/49/49 52/52/52 
f 52/52/52 49/49/49 53/53/53 
f 53/53/53 49/49/49 54/54/54 
f 53/53/53 54/54/54 55/55/55 
f 55/55/55 54/54/54 56/56/56 
f 57/57/57 59/59/59 58/58/58 
f 57/57/57 58/58/58 60/60/60 
f 61/61/61 57/57/57 60/60/60 
f 61/61/61 60/60/60 62/62/62 
f 63/63/63 61/61/61 62/62/62 
f 63/63/63 62/62/62 64/64/64 
f 65/65/65 67/67/67 66/66/66 
f 65/65/65 66/66/66 68/68/68 
f 69/69/69 65/65/65 68/68/68 
f 69/69/69 68/68/68 70/70/70 
f 71/71/71 69/69/69 70/70/70 
f 71/71/71 70/70/70 72/72/72 
f 73/73/73 75/75/75 74/74/74 
f 73/73/73 76/76/76 75/75/75 
f 77/77/77 79/79/79 78/78/78 
f 77/77/77 80/80/80 79/79/79 
