# exported by StudySceneExporter from mesh 'Light_Fixture_Base_low'
mtllib materials.mtl
v 0.01988907 0.09997045 3.814697E-08
v 0.01988907 0.09997045 0.456389
v -0.01988907 0.09997045 0.456389
v -0.01988907 0.09997045 3.814697E-08
v -0.01988907 0.07997046 3.814697E-08
v -0.01988907 0.07997046 0.4268965
v -0.01988907 0.09997045 0.456389
v 0.01988907 0.09997045 0.456389
v 0.01988907 -0.09997045 0.456389
v -0.01988907 -0.09997045 0.456389
v -0.01988907 0.07997046 0.4268965
v -0.01988907 -0.07997046 0.4268965
v 0.01988907 -0.09997045 3.814697E-08
v 0.01988907 -0.09997045 -0.456389
v -0.01988907 -0.09997045 -0.456389
v -0.01988907 -0.09997045 3.814697E-08
v -0.01988907 -0.07997046 3.814697E-08
v -0.01988907 -0.07997046 -0.4268965
v 0.01988907 -0.09997045 -0.456389
v 0.01988907 0.09997045 -0.456389
v -0.01988907 0.09997045 -0.456389
v -0.01988907 -0.09997045 -0.456389
v -0.01988907 -0.07997046 -0.4268965
v -0.01988907 0.07997046 -0.4268965
v -0.01988907 0.09997045 -0.456389
v 0.01988907 0.09997045 -0.456389
v 0.01988907 0.09997045 3.814697E-08
v -0.01988907 0.09997045 3.814697E-08
v -0.01988907 0.07997046 3.814697E-08
v -0.01988907 0.07997046 -0.4268965
v 0.01988907 -0.09997045 0.456389
v 0.01988907 -0.09997045 3.814697E-08
v -0.01988907 -0.09997045 3.814697E-08
v -0.01988907 -0.09997045 0.456389
v -0.01988907 -0.07997046 3.814697E-08
v -0.01988907 -0.07997046 0.4268965
vt 0.9498899 0.474621
vt 0.4745595 0.4746921
vt 0.4745657 0.5161212
vt 0.9498961 0.5160501
vt 0.9498992 0.5368801
vt 0.5052853 0.5369467
vt 0.190281 0.922248
vt 0.1902773 0.963677
vt 0.3985163 0.9636958
vt 0.3985201 0.9222667
vt 0.2111138 0.8915333
vt 0.3776928 0.8915483
vt 0.4070266 0.9537984
vt 0.8823572 0.953727
vt 0.882351 0.912298
vt 0.4070204 0.9123693
vt 0.4070172 0.8915393
vt 0.8516314 0.8914725
vt 0.2160553 0.8211629
vt 0.007816225 0.8211441
vt 0.0078125 0.8625731
vt 0.2160515 0.8625919
vt 0.1952187 0.8933066
vt 0.02863979 0.8932915
vt 0.4831494 0.7920501
vt 0.4831431 0.750621
vt 0.0078125 0.7506922
vt 0.007818699 0.7921212
vt 0.007821798 0.8129514
vt 0.4524359 0.8128847
vt 0.3535945 0.8833527
vt 0.8289251 0.8832818
vt 0.8289189 0.8418527
vt 0.3535883 0.8419237
vt 0.8289158 0.8210227
vt 0.3843018 0.821089
vn 0 1 0
vn 0 1 0
vn -0.3178568 0.8684551 0.3804642
vn -0.4375068 0.899215 0
vn -1 0 0
vn -1 0 -2.918525E-07
vn -0.3178568 0.8684551 0.3804642
vn 0 0 1
vn 0 0 1
vn -0.3178569 -0.868455 0.3804641
vn -1 0 -2.918525E-07
vn -1 0 -2.918522E-07
vn 0 -1 0
vn 0 -1 0
vn -0.3178569 -0.8684551 -0.380464
vn -0.4375072 -0.8992149 0
vn -1 0 0
vn -1 0 2.918522E-07
vn 0 0 -1
vn 0 0 -1
vn -0.3178567 0.8684551 -0.380464
vn -0.3178569 -0.8684551 -0.380464
vn -1 0 2.918522E-07
vn -1 0 2.918524E-07
vn -0.3178567 0.8684551 -0.380464
vn 0 1 0
vn 0 1 0
vn -0.4375068 0.899215 0
vn -1 0 0
vn -1 0 2.918524E-07
vn 0 -1 0
vn 0 -1 0
vn -0.4375072 -0.8992149 0
vn -0.3178569 -0.868455 0.3804641
vn -1 0 0
vn -1 0 -2.918522E-07
usemtl Light_Fixture
f 1/1/1 3/3/3 2/2/2 
f 1/1/1 4/4/4 3/3/3 
f 3/3/3 4/4/4 5/5/5 
f 3/3/3 5/5/5 6/6/6 
f 7/7/7 9/9/9 8/8/8 
f 7/7/7 10/10/10 9/9/9 
f 10/10/10 7/7/7 11/11/11 
f 10/10/10 11/11/11 12/12/12 
f 13/13/13 15/15/15 14/14/14 
f 13/13/13 16/16/16 15/15/15 
f 15/15/15 16/16/16 17/17/17 
f 15/15/15 17/17/17 18/18/18 
f 19/19/19 21/21/21 20/20/20 
f 19/19/19 22/22/22 21/21/21 
f 21/21/21 22/22/22 23/23/23 
f 21/21/21 23/23/23 24/24/24 
f 25/25/25 27/27/27 26/26/26 
f 25/25/25 28/28/28 27/27/27 
f 29/29/29 28/28/28 25/25/25 
f 29/29/29 25/25/25 30/30/30 
f 31/31/31 33/33/33 32/32/32 
f 31/31/31 34/34/34 33/33/33 
f 35/35/35 33/33/33 34/34/34 
f 35/35/35 34/34/34 36/36/36 
