# exported by StudySceneExporter from mesh 'Pegboard_Frame_low'
mtllib materials.mtl
v 0.008766937 -0.6012089 -0.4935297
v 0.008766937 -0.5812089 -0.4735297
v 0.008766937 0.5812089 -0.4735297
v 0.008766937 0.6012089 -0.4935297
v -0.008766937 0.6012089 -0.4935297
v -0.008766937 -0.6012089 -0.4935297
v -0.008766937 -0.5812089 -0.4735297
v -0.008766937 0.5812089 -0.4735297
v 0.008766937 -0.5812089 -0.4735297
v 0.008766937 0.5812089 -0.4735297
v 0.008766937 0.6012089 -0.4935297
v 0.008766937 0.5812089 -0.4735297
v 0.008766937 0.5812089 0.4735297
v 0.008766937 0.6012089 0.4935297
v -0.008766937 0.6012089 0.4935297
v -0.008766937 0.6012089 -0.4935297
v -0.008766937 0.5812089 -0.4735297
v -0.008766937 0.5812089 0.4735297
v 0.008766937 0.5812089 -0.4735297
v 0.008766937 0.5812089 0.4735297
v 0.008766937 0.6012089 0.4935297
v 0.008766937 0.5812089 0.4735297
v 0.008766937 -0.5812089 0.4735297
v 0.008766937 -0.6012089 0.4935297
v -0.008766937 -0.6012089 0.4935297
v -0.008766937 0.6012089 0.4935297
v -0.008766937 0.5812089 0.4735297
v -0.008766937 -0.5812089 0.4735297
v 0.008766937 0.5812089 0.4735297
v 0.008766937 -0.5812089 0.4735297
v 0.008766937 -0.6012089 0.4935297
v 0.008766937 -0.5812089 0.4735297
v 0.008766937 -0.5812089 -0.4735297
v 0.008766937 -0.6012089 -0.4935297
v -0.008766937 -0.6012089 -0.4935297
v -0.008766937 -0.6012089 0.4935297
v -0.008766937 -0.5812089 0.4735297
v -0.008766937 -0.5812089 -0.4735297
v 0.008766937 -0.5812089 0.4735297
v 0.008766937 -0.5812089 -0.4735297
vt 0.9080835 0.8820972
vt 0.8932385 0.8672565
vt 0.0305577 0.8673797
vt 0.01571695 0.8822247
vt 0.01571883 0.8952374
vt 0.9080853 0.8951098
vt 0.8932446 0.9099548
vt 0.03056379 0.9100782
vt 0.8932465 0.9229675
vt 0.03056571 0.9230908
vt 0.01571747 0.7806413
vt 0.03056095 0.7954837
vt 0.7334151 0.7954552
vt 0.7482573 0.7806118
vt 0.7482567 0.7675991
vt 0.01571695 0.7676287
vt 0.03055921 0.7527852
vt 0.7334132 0.7527567
vt 0.0305587 0.7397726
vt 0.7334127 0.7397441
vt 0.01572382 0.9720539
vt 0.03056906 0.9868943
vt 0.8932499 0.9867553
vt 0.9080904 0.9719099
vt 0.9080882 0.9588974
vt 0.0157217 0.9590412
vt 0.03056222 0.944196
vt 0.893243 0.9440567
vt 0.0305601 0.9311832
vt 0.8932409 0.9310442
vt 0.748257 0.8183575
vt 0.7334127 0.8035159
vt 0.03055856 0.8035762
vt 0.01571695 0.8184204
vt 0.01571805 0.831433
vt 0.7482581 0.8313702
vt 0.7334165 0.8462142
vt 0.03056218 0.8462746
vt 0.7334176 0.8592269
vt 0.03056331 0.8592873
vn 0.4891599 0 -0.8721942
vn 1 0 1.129164E-06
vn 1 0 1.129164E-06
vn 0.4891599 0 -0.8721942
vn -0.4891599 0 -0.8721942
vn -0.4891599 0 -0.8721942
vn -0.8670644 0 0.498196
vn -0.8670644 0 0.498196
vn 0 0 1
vn 0 0 1
vn 0.4877852 0.8729637 0
vn 1 0 0
vn 1 0 0
vn 0.4877852 0.8729637 0
vn -0.4877852 0.8729637 0
vn -0.4877852 0.8729637 0
vn -0.8678893 -0.4967577 0
vn -0.8678893 -0.4967577 0
vn 0 -1 0
vn 0 -1 0
vn 0.4891599 0 0.8721942
vn 1 0 -1.129164E-06
vn 1 0 -1.129164E-06
vn 0.4891599 0 0.8721942
vn -0.4891599 0 0.8721942
vn -0.4891599 0 0.8721942
vn -0.8670644 0 -0.498196
vn -0.8670644 0 -0.498196
vn 0 0 -1
vn 0 0 -1
vn 0.4877847 -0.8729639 0
vn 1 0 0
vn 1 0 0
vn 0.4877847 -0.8729639 0
vn -0.4877847 -0.8729639 0
vn -0.4877847 -0.8729639 0
vn -0.8678891 0.4967581 0
vn -0.8678891 0.4967581 0
vn 0 1 0
vn 0 1 0
usemtl Pegboard
f 1/1/1 3/3/3 2/2/2 
f 1/1/1 4/4/4 3/3/3 
f 1/1/1 5/5/5 4/4/4 
f 1/1/1 6/6/6 5/5/5 
f 5/5/5 6/6/6 7/7/7 
f 5/5/5 7/7/7 8/8/8 
f 8/8/8 7/7/7 9/9/9 
f 8/8/8 9/9/9 10/10/10 
f 11/11/11 13/13/13 12/12/12 
f 11/11/11 14/14/14 13/13/13 
f 11/11/11 15/15/15 14/14/14 
f 11/11/11 16/16/16 15/15/15 
f 15/15/15 16/16/16 17/17/17 
f 15/15/15 17/17/17 18/18/18 
f 18/18/18 17/17/17 19/19/19 
f 18/18/18 19/19/19 20/20/20 
f 21/21/21 23/23/23 22/22/22 
f 21/21/21 24/24/24 23/23/23 
f 21/21/21 25/25/25 24/24/24 
f 21/21/21 26/26/26 25/25/25 
f 25/25/25 26/26/26 27/27/27 
f 25/25/25 27/27/27 28/28/28 
f 28/28/28 27/27/27 29/29/29 
f 28/28/28 29/29/29 30/30/30 
f 31/31/31 33/33/33 32/32/32 
f 31/31/31 34/34/34 33/33/33 
f 31/31/31 35/35/35 34/34/34 
f 31/31/31 36/36/36 35/35/35 
f 35/35/35 36/36/36 37/37/37 
f 35/35/35 37/37/37 38/38/38 
f 38/38/38 37/37/37 39/39/39 
f 38/38/38 39/39/39 40/40/40 
