# exported by StudySceneExporter from mesh 'Screwdriver_S_Shaft_low'
mtllib materials.mtl
v -0.00163084 -0.001405582 -0.01452568
v -0.00163084 -0.001405582 0.02097191
v -0.0001593208 -0.002147045 0.02097191
v -0.0001592827 -0.002147045 -0.01452568
v -0.00163084 -0.001405582 -0.01590477
v 0.001405582 -0.00163084 0.02097191
v -0.0009866905 -0.001729031 -0.01658699
v -0.0004544639 -0.000391674 -0.02097191
v -0.0004474068 -0.001585255 -0.02097191
v 0.000182972 -0.001642361 -0.02097191
v 0.0006571006 -0.001894779 -0.01658684
v 0.0003909111 -0.0004544258 -0.02097191
v 0.001405582 -0.00163084 -0.01452568
v 0.002147083 -0.0001593208 0.02097191
v 0.002147083 -0.0001593208 -0.01452568
v 0.00163084 0.001405582 0.02097191
v 0.001630878 0.001405582 -0.01452568
v 0.001630878 0.001405582 -0.01591392
v 0.001405582 -0.00163084 -0.01598091
v 0.001747265 -0.000955143 -0.01658684
v 0.001589184 -0.0004303932 -0.02097191
v 0.001629353 0.0002046776 -0.02097191
v 0.001851215 0.0007168388 -0.01658699
v 0.0004536247 0.0003909874 -0.02097191
v 0.001630878 0.001405582 -0.01452568
v 0.00163084 0.001405582 0.02097191
v 0.0001592827 0.002147045 0.02097191
v 0.0001593208 0.002147045 -0.01452568
v 0.001630878 0.001405582 -0.01591392
v -0.001405582 0.00163084 0.02097191
v 0.0009821892 0.00172514 -0.01658684
v 0.0004536247 0.0003909874 -0.02097191
v 0.0004429054 0.001581326 -0.02097191
v -0.0001911735 0.001635265 -0.02097191
v -0.0006868172 0.001869068 -0.01658699
v -0.0004476738 0.0005185509 -0.02097191
v -0.001405544 0.00163084 -0.01452553
v -0.002147083 0.0001593208 0.02097191
v -0.002147083 0.0001593208 -0.01452568
v -0.00163084 -0.001405582 0.02097191
v -0.00163084 -0.001405582 -0.01452568
v -0.00163084 -0.001405582 -0.01590477
v -0.001405544 0.00163084 -0.01593025
v -0.001777019 0.0009294701 -0.01658699
v -0.001597385 0.000423336 -0.02097191
v -0.001855717 -0.0007207298 -0.01658684
v -0.0004544639 -0.000391674 -0.02097191
v -0.001633892 -0.0002086067 -0.02097191
v 0.000182972 -0.001642361 -0.02097191
v -0.0004544639 -0.000391674 -0.02097191
v -0.0004474068 -0.001585255 -0.02097191
v -4.386902E-07 -3.623962E-07 -0.02097191
v -0.001633892 -0.0002086067 -0.02097191
v -0.001597385 0.000423336 -0.02097191
v -0.0004476738 0.0005185509 -0.02097191
v 0.0003909111 -0.0004544258 -0.02097191
v -0.0001911735 0.001635265 -0.02097191
v 0.001629353 0.0002046776 -0.02097191
v 0.001589184 -0.0004303932 -0.02097191
v 0.0004536247 0.0003909874 -0.02097191
v 0.0004429054 0.001581326 -0.02097191
vt 0.6582123 0.8457985
vt 0.6581815 0.9932513
vt 0.6650267 0.9932501
vt 0.6650358 0.8458474
vt 0.6586199 0.8400331
vt 0.6718712 0.9932489
vt 0.6616009 0.8371365
vt 0.6594942 0.8180668
vt 0.6643414 0.8189321
vt 0.6669655 0.8189795
vt 0.6686363 0.8372309
vt 0.6719289 0.8183181
vt 0.6718488 0.8458416
vt 0.6787162 0.9932463
vt 0.6786549 0.8458493
vt 0.6855593 0.993243
vt 0.6854789 0.8458018
vt 0.6850388 0.8400402
vt 0.671833 0.839874
vt 0.6749091 0.8372433
vt 0.6768479 0.8190224
vt 0.6794815 0.8190005
vt 0.682066 0.8371751
vt 0.6843195 0.8181825
vt 0.6954231 0.8457866
vt 0.6953759 0.9932487
vt 0.7022219 0.9932494
vt 0.7022457 0.845854
vt 0.6958711 0.8399844
vt 0.7090676 0.9932489
vt 0.6988716 0.8371401
vt 0.6968608 0.8180842
vt 0.7016902 0.8189707
vt 0.7043264 0.8190284
vt 0.706007 0.8372662
vt 0.7090464 0.8184552
vt 0.709058 0.8458581
vt 0.7159131 0.993248
vt 0.7158711 0.8458495
vt 0.7227561 0.9932468
vt 0.722697 0.8457842
vt 0.7222693 0.8400126
vt 0.7090464 0.8401079
vt 0.7122455 0.8372667
vt 0.7138023 0.8190224
vt 0.7192736 0.8371332
vt 0.7212679 0.8180609
vt 0.7164257 0.8189583
vt 0.7268384 0.7916448
vt 0.7247658 0.8001142
vt 0.7295725 0.7944698
vt 0.7210426 0.8001142
vt 0.7295725 0.8057582
vt 0.7268384 0.8085833
vt 0.7210426 0.804369
vt 0.7210426 0.796391
vt 0.7153077 0.8085833
vt 0.7125432 0.7944698
vt 0.7153077 0.7916448
vt 0.7173195 0.8001142
vt 0.712543 0.8057582
vn -0.4499615 -0.8930479 -1.375017E-05
vn -0.4499727 -0.8930423 0
vn -0.07397757 -0.9972599 1.102955E-07
vn -0.07374573 -0.9972765 -0.001093848
vn -0.4989308 -0.8645192 -0.060619
vn 0.6528401 -0.7574958 1.102962E-07
vn -0.3501133 -0.9286385 -0.1226829
vn -0.988975 -0.05595551 -0.1371036
vn -0.5085677 -0.8561436 -0.09152632
vn 0.3447753 -0.9343475 -0.09013762
vn 0.180498 -0.9759292 -0.1224039
vn 0.6422328 -0.7481951 -0.1665571
vn 0.6528408 -0.7574952 0.000126572
vn 0.9972591 -0.07398829 0
vn 0.9972484 -0.07412066 -0.001298468
vn 0.9496628 0.3132739 0
vn 0.9496863 0.3132027 -8.799158E-05
vn 0.9297915 0.3627073 -0.0627002
vn 0.651934 -0.7548032 -0.07248589
vn 0.9390324 -0.3216463 -0.1214987
vn 0.8724383 -0.4805787 -0.08885724
vn 0.9276827 0.3625138 -0.08937871
vn 0.9727305 0.1969174 -0.1225516
vn 0.2048956 0.9691021 -0.1373273
vn 0.4499108 0.8930735 -8.759919E-05
vn 0.4499777 0.8930398 4.076003E-07
vn 0.07398395 0.9972594 1.102949E-07
vn 0.07391179 0.9972639 -0.00129825
vn 0.4959468 0.8660852 -0.06271558
vn -0.6528394 0.7574964 -1.102959E-07
vn 0.3382986 0.9330245 -0.1225531
vn 0.9887313 0.05960473 -0.1373234
vn 0.4954411 0.8640313 -0.08937664
vn -0.3185671 0.9439701 -0.08622893
vn -0.1776256 0.9769657 -0.118268
vn -0.6457256 0.7464285 -0.1608819
vn -0.6528397 0.7574962 0.0001255355
vn -0.9972591 0.07398759 0
vn -0.9972461 0.07415489 -0.001094533
vn -0.9496604 -0.3132811 0
vn -0.9496641 -0.31327 -1.257107E-05
vn -0.9286744 -0.36591 -0.06061127
vn -0.6506426 0.7565551 -0.06548736
vn -0.9396166 0.3208202 -0.1191429
vn -0.8875064 0.4523774 -0.08767562
vn -0.9701416 -0.2092212 -0.1226853
vn -0.2012881 -0.9698906 -0.1370964
vn -0.9218085 -0.3766863 -0.091523
vn 0 -2.828896E-05 -1
vn 0 -2.255632E-05 -1
vn 0 -3.038406E-05 -1
vn 0 -4.492304E-05 -1
vn 0 -0.0001209471 -1
vn 0 -0.0001289657 -1
vn 0 -9.338691E-05 -1
vn 0 0 -1
vn 0 -8.271683E-05 -1
vn 0 1.151302E-05 -1
vn 0 0 -1
vn 0 -2.253087E-05 -1
vn 0 -9.102494E-05 -1
usemtl Mat_Tools
f 1/1/1 3/3/3 2/2/2 
f 1/1/1 4/4/4 3/3/3 
f 5/5/5 4/4/4 1/1/1 
f 4/4/4 6/6/6 3/3/3 
f 5/5/5 7/7/7 4/4/4 
f 8/8/8 7/7/7 5/5/5 
f 8/8/8 9/9/9 7/7/7 
f 10/10/10 7/7/7 9/9/9 
f 10/10/10 11/11/11 7/7/7 
f 7/7/7 11/11/11 4/4/4 
f 12/12/12 11/11/11 10/10/10 
f 4/4/4 13/13/13 6/6/6 
f 13/13/13 14/14/14 6/6/6 
f 13/13/13 15/15/15 14/14/14 
f 15/15/15 16/16/16 14/14/14 
f 15/15/15 17/17/17 16/16/16 
f 15/15/15 18/18/18 17/17/17 
f 4/4/4 11/11/11 19/19/19 
f 4/4/4 19/19/19 13/13/13 
f 19/19/19 11/11/11 12/12/12 
f 19/19/19 15/15/15 13/13/13 
f 12/12/12 20/20/20 19/19/19 
f 19/19/19 20/20/20 15/15/15 
f 12/12/12 21/21/21 20/20/20 
f 22/22/22 20/20/20 21/21/21 
f 15/15/15 23/23/23 18/18/18 
f 20/20/20 23/23/23 15/15/15 
f 22/22/22 23/23/23 20/20/20 
f 18/18/18 23/23/23 24/24/24 
f 24/24/24 23/23/23 22/22/22 
f 25/25/25 27/27/27 26/26/26 
f 25/25/25 28/28/28 27/27/27 
f 29/29/29 28/28/28 25/25/25 
f 28/28/28 30/30/30 27/27/27 
f 29/29/29 31/31/31 28/28/28 
f 32/32/32 31/31/31 29/29/29 
f 32/32/32 33/33/33 31/31/31 
f 34/34/34 31/31/31 33/33/33 
f 34/34/34 35/35/35 31/31/31 
f 31/31/31 35/35/35 28/28/28 
f 36/36/36 35/35/35 34/34/34 
f 28/28/28 37/37/37 30/30/30 
f 37/37/37 38/38/38 30/30/30 
f 37/37/37 39/39/39 38/38/38 
f 39/39/39 40/40/40 38/38/38 
f 39/39/39 41/41/41 40/40/40 
f 39/39/39 42/42/42 41/41/41 
f 28/28/28 35/35/35 43/43/43 
f 28/28/28 43/43/43 37/37/37 
f 43/43/43 35/35/35 36/36/36 
f 43/43/43 39/39/39 37/37/37 
f 36/36/36 44/44/44 43/43/43 
f 43/43/43 44/44/44 39/39/39 
f 36/36/36 45/45/45 44/44/44 
f 39/39/39 46/46/46 42/42/42 
f 44/44/44 46/46/46 39/39/39 
f 45/45/45 46/46/46 44/44/44 
f 42/42/42 46/46/46 47/47/47 
f 45/45/45 48/48/48 46/46/46 
f 47/47/47 46/46/46 48/48/48 
f 49/49/49 51/51/51 50/50/50 
f 49/49/49 50/50/50 52/52/52 
f 53/53/53 52/52/52 50/50/50 
f 54/54/54 52/52/52 53/53/53 
f 54/54/54 55/55/55 52/52/52 
f 56/56/56 49/49/49 52/52/52 
f 55/55/55 57/57/57 52/52/52 
f 58/58/58 56/56/56 52/52/52 
f 58/58/58 59/59/59 56/56/56 
f 60/60/60 58/58/58 52/52/52 
f 57/57/57 60/60/60 52/52/52 
f 57/57/57 61/61/61 60/60/60 
