# exported by StudySceneExporter from mesh 'Vice_Handle_low'
mtllib materials.mtl
v 0.0310147 0.004644241 0.1148744
v -0.03048678 0.007350998 -0.1148744
v -0.02646767 0.005414047 -0.1159731
v 0.0350338 0.002707443 0.1137757
v -0.02495753 0.001098404 -0.1164282
v 0.03654395 -0.0016082 0.1133206
v -0.02684096 -0.00306778 -0.1159731
v 0.03466051 -0.00577446 0.1137757
v -0.0310147 -0.004644165 -0.1148744
v 0.03048678 -0.007350845 0.1148744
v -0.03503381 -0.002707214 -0.1137758
v 0.02646767 -0.005413971 0.1159731
v -0.03654395 0.001608353 -0.1133207
v 0.02495752 -0.001098404 0.1164282
v -0.0346605 0.005774612 -0.1137758
v 0.02684096 0.003068008 0.1159731
v -0.03048678 0.007350998 -0.1148744
v 0.0310147 0.004644241 0.1148744
v -0.02988442 0.005564346 -0.128737
v -0.03293745 0.01179253 -0.1247404
v -0.03390354 0.007501297 -0.1276382
v -0.02601983 0.008458938 -0.1266315
v -0.02837427 0.001248856 -0.129192
v -0.03107212 0.01171059 -0.1177721
v -0.02342056 0.001030807 -0.1274149
v -0.03025771 -0.002917404 -0.128737
v -0.02415447 0.00837677 -0.1196633
v -0.03048678 0.007350998 -0.1148744
v -0.02646767 0.005414047 -0.1159731
v -0.02155523 0.0009487152 -0.1204465
v -0.02495753 0.001098404 -0.1164282
v -0.02666234 -0.006140137 -0.1266315
v -0.03443145 -0.004493866 -0.1276382
v -0.02479699 -0.006222153 -0.1196633
v -0.02684096 -0.00306778 -0.1159731
v -0.0338461 -0.008853301 -0.1247404
v -0.03845056 -0.002556915 -0.1265395
v -0.03198076 -0.00893547 -0.1177721
v -0.0310147 -0.004644165 -0.1148744
v -0.04076373 -0.005519486 -0.1228494
v -0.0399607 0.001758804 -0.1260844
v -0.03889841 -0.005601577 -0.1158811
v -0.03503381 -0.002707214 -0.1137758
v -0.04336299 0.001908493 -0.1220661
v -0.03807726 0.005925064 -0.1265395
v -0.04149766 0.001826401 -0.1150979
v -0.03654395 0.001608353 -0.1133207
v -0.04012123 0.009079437 -0.1228494
v -0.03390354 0.007501297 -0.1276382
v -0.03293745 0.01179253 -0.1247404
v -0.0382559 0.008997268 -0.1158811
v -0.0346605 0.005774612 -0.1137758
v -0.03107212 0.01171059 -0.1177721
v -0.03048678 0.007350998 -0.1148744
v 0.03025772 0.002917557 0.128737
v 0.0338461 0.008853378 0.1247404
v 0.03443145 0.004493942 0.1276382
v 0.02666233 0.006140289 0.1266315
v 0.02837428 -0.001248703 0.129192
v 0.03198077 0.00893547 0.1177721
v 0.02342058 -0.001030655 0.1274148
v 0.02988443 -0.00556427 0.128737
v 0.02479698 0.006222305 0.1196632
v 0.0310147 0.004644241 0.1148744
v 0.02684096 0.003068008 0.1159731
v 0.02155524 -0.0009485626 0.1204465
v 0.02495752 -0.001098404 0.1164282
v 0.02601982 -0.008458633 0.1266315
v 0.03390354 -0.00750122 0.1276382
v 0.02415447 -0.008376541 0.1196632
v 0.02646767 -0.005413971 0.1159731
v 0.03293747 -0.01179253 0.1247404
v 0.03807727 -0.005924911 0.1265395
v 0.03107212 -0.01171043 0.1177721
v 0.03048678 -0.007350845 0.1148744
v 0.04012125 -0.009079209 0.1228493
v 0.0399607 -0.001758652 0.1260844
v 0.0382559 -0.008997116 0.1158811
v 0.03466051 -0.00577446 0.1137757
v 0.04336299 -0.00190834 0.122066
v 0.03845056 0.002556992 0.1265395
v 0.04149765 -0.001826248 0.1150979
v 0.03654395 -0.0016082 0.1133206
v 0.04076376 0.005519638 0.1228493
v 0.03443145 0.004493942 0.1276382
v 0.0338461 0.008853378 0.1247404
v 0.03889842 0.00560173 0.1158811
v 0.0350338 0.002707443 0.1137757
v 0.03198077 0.00893547 0.1177721
v 0.0310147 0.004644241 0.1148744
v 0.03025772 0.002917557 0.128737
v 0.03416749 -0.001503677 0.1276382
v 0.02837428 -0.001248703 0.129192
v 0.03443145 0.004493942 0.1276382
v 0.02988443 -0.00556427 0.128737
v 0.03845056 0.002556992 0.1265395
v 0.03390354 -0.00750122 0.1276382
v 0.0399607 -0.001758652 0.1260844
v 0.03807727 -0.005924911 0.1265395
v -0.0399607 0.001758804 -0.1260844
v -0.03416749 0.001503677 -0.1276382
v -0.03807726 0.005925064 -0.1265395
v -0.03845056 -0.002556915 -0.1265395
v -0.03390354 0.007501297 -0.1276382
v -0.03443145 -0.004493866 -0.1276382
v -0.02988442 0.005564346 -0.128737
v -0.03025771 -0.002917404 -0.128737
v -0.02837427 0.001248856 -0.129192
vt 0.9359394 0.01367188
vt 0.9358904 0.3015007
vt 0.9414492 0.3012154
vt 0.9414868 0.01416308
vt 0.9470681 0.3004591
vt 0.9470903 0.01491755
vt 0.9527681 0.2998694
vt 0.9527802 0.01548535
vt 0.9585214 0.2996556
vt 0.9585295 0.01568842
vt 0.9642707 0.2998598
vt 0.9642828 0.01547474
vt 0.9699604 0.300428
vt 0.969983 0.01488501
vt 0.9755638 0.3011826
vt 0.9756019 0.01412851
vt 0.9811114 0.3016734
vt 0.9811605 0.013843
vt 0.8594473 0.03648246
vt 0.8486398 0.03045017
vt 0.8528595 0.0374118
vt 0.858245 0.03010016
vt 0.8670613 0.0363976
vt 0.8497086 0.01951329
vt 0.8668413 0.0302314
vt 0.874938 0.03632867
vt 0.8583221 0.0212236
vt 0.8544411 0.01367159
vt 0.8603097 0.01521618
vt 0.8666458 0.02142987
vt 0.8675083 0.01531656
vt 0.8750394 0.03016687
vt 0.8828232 0.03615852
vt 0.8747057 0.02125362
vt 0.8751334 0.01508546
vt 0.883074 0.02997636
vt 0.8906204 0.03592413
vt 0.8827013 0.02101743
vt 0.8829529 0.01483916
vt 0.8910626 0.02975392
vt 0.8982329 0.03572099
vt 0.8907456 0.02083992
vt 0.8908581 0.01468134
vt 0.899118 0.02960879
vt 0.905425 0.03585029
vt 0.898949 0.02080542
vt 0.8987477 0.01463933
vt 0.9074369 0.0298501
vt 0.9112853 0.03741959
vt 0.9160419 0.03159777
vt 0.9075473 0.02097305
vt 0.9063681 0.01458552
vt 0.9171543 0.02066433
vt 0.9129618 0.01368475
vt 0.9063506 0.01460315
vt 0.9171533 0.02064519
vt 0.9129393 0.01367967
vt 0.9075482 0.02098721
vt 0.8987361 0.0146809
vt 0.9160751 0.03158163
vt 0.8989524 0.02084778
vt 0.8908569 0.0147421
vt 0.9074631 0.02986427
vt 0.9113374 0.03741931
vt 0.90547 0.03587013
vt 0.8991409 0.02965104
vt 0.8982706 0.03576404
vt 0.8907536 0.02090217
vt 0.8829664 0.01490857
vt 0.8910829 0.02981505
vt 0.8906469 0.03598404
vt 0.8827148 0.02108814
vt 0.875164 0.01514502
vt 0.8830882 0.03004525
vt 0.882836 0.03622347
vt 0.8747227 0.02131449
vt 0.8675479 0.01535389
vt 0.875046 0.0302271
vt 0.8749374 0.03638563
vt 0.8666663 0.02146673
vt 0.8603526 0.01523338
vt 0.8668442 0.03026969
vt 0.8670521 0.03643613
vt 0.8583469 0.02123576
vt 0.8544894 0.01367188
vt 0.8497397 0.01950006
vt 0.858247 0.03011369
vt 0.8594338 0.0364998
vt 0.8486409 0.03043544
vt 0.8528422 0.03740979
vt 0.5221587 0.02320718
vt 0.5289009 0.02041423
vt 0.5221586 0.01762169
vt 0.5261084 0.02715658
vt 0.5261081 0.01367205
vt 0.5316939 0.02715646
vt 0.5316935 0.01367187
vt 0.5356433 0.02320676
vt 0.5356431 0.01762121
vt 0.526108 0.01367198
vt 0.5289009 0.0204142
vt 0.5316936 0.01367188
vt 0.5221586 0.0176216
vt 0.535643 0.0176213
vt 0.5221587 0.02320712
vt 0.5356433 0.02320678
vt 0.5261083 0.02715658
vt 0.5316938 0.02715642
vn 0.4098997 0.9067374 -0.09904251
vn 0.4098997 0.9067374 -0.0990425
vn 0.7134427 0.676392 -0.1830119
vn 0.7134421 0.6763927 -0.1830117
vn 0.9649918 -0.0424731 -0.2588182
vn 0.9649918 -0.0424728 -0.2588181
vn 0.6512581 -0.7364571 -0.1830135
vn 0.6512575 -0.7364575 -0.1830134
vn -0.04396064 -0.9990332 -7.253108E-07
vn -0.04396014 -0.9990333 -8.568481E-07
vn -0.713441 -0.6763935 0.1830132
vn -0.7134401 -0.6763946 0.1830129
vn -0.9649916 0.04247177 0.2588191
vn -0.9649916 0.04247176 0.2588191
vn -0.6512604 0.7364545 0.1830153
vn -0.6512594 0.7364555 0.183015
vn -0.3286533 0.9392431 0.09904284
vn -0.3286533 0.9392431 0.09904284
vn 0.193798 0.3945898 -0.8981877
vn 0.326112 0.8769568 -0.352984
vn 0.03906985 0.5531529 -0.8321632
vn 0.6092963 0.6512408 -0.4523755
vn 0.3370723 -0.01483511 -0.9413618
vn 0.4639969 0.8708857 0.1620651
vn 0.8502818 -0.03742536 -0.5249954
vn 0.1583911 -0.4100948 -0.8981841
vn 0.7576314 0.6447065 0.1017252
vn 0.4528068 0.5349196 0.7133211
vn 0.6188751 0.3758719 0.6897203
vn 0.9986095 -0.04395053 0.02910801
vn 0.7621378 -0.03354052 0.6465454
vn 0.5497294 -0.7022509 -0.4523729
vn -0.237574 -0.5596487 -0.7939472
vn 0.6980621 -0.7087744 0.101726
vn 0.583458 -0.4287893 0.6897221
vn -0.116286 -0.9537928 -0.2770503
vn -0.6188751 -0.3758784 -0.6897167
vn 0.03204453 -0.9603199 0.2770537
vn 0.1875053 -0.5783343 0.7939591
vn -0.7576342 -0.6447027 -0.1017293
vn -0.7621367 0.03354902 -0.6465462
vn -0.6093056 -0.651234 0.4523725
vn -0.193794 -0.3945825 0.8981919
vn -0.9986097 0.04395019 -0.02910675
vn -0.5834438 0.4288048 -0.6897244
vn -0.8502833 0.03742208 0.5249931
vn -0.3370638 0.0148358 0.9413649
vn -0.6980584 0.7087774 -0.1017294
vn -0.4040378 0.5726512 -0.7133191
vn -0.3857017 0.9082788 -0.1620611
vn -0.5497365 0.702245 0.4523735
vn -0.1583838 0.4100815 0.8981914
vn -0.2478404 0.9022103 0.3529755
vn 0.009653179 0.5544292 0.8321748
vn -0.1583969 0.410097 0.898182
vn -0.247828 0.9022149 0.3529722
vn 0.009653177 0.5544536 0.8321587
vn -0.5497361 0.7022488 0.4523681
vn -0.337082 0.01484407 0.9413582
vn -0.3856945 0.9082819 -0.1620607
vn -0.8502825 0.03742546 0.5249942
vn -0.1938155 -0.394583 0.8981869
vn -0.6980649 0.7087709 -0.1017313
vn -0.404043 0.5726435 -0.7133223
vn -0.5834516 0.4287887 -0.6897278
vn -0.9986097 0.04395138 -0.02910304
vn -0.7621345 0.03354094 -0.6465494
vn -0.6093056 -0.6512326 0.4523745
vn 0.1874921 -0.578342 0.7939568
vn -0.7576314 -0.6447061 -0.1017286
vn -0.618864 -0.3758716 -0.6897303
vn 0.03204601 -0.9603214 0.2770486
vn 0.5834622 -0.4287929 0.6897162
vn -0.1162782 -0.9537937 -0.2770504
vn -0.2375669 -0.5596294 -0.7939628
vn 0.6980646 -0.7087719 0.1017258
vn 0.7621428 -0.03354843 0.6465392
vn 0.5497333 -0.7022463 -0.4523753
vn 0.1583923 -0.4100876 -0.898187
vn 0.9986098 -0.04394696 0.02910746
vn 0.6188754 0.3758826 0.689714
vn 0.8502811 -0.03741768 -0.5249972
vn 0.3370775 -0.01483234 -0.9413601
vn 0.7576296 0.6447083 0.1017279
vn 0.4527976 0.5349475 0.713306
vn 0.4639992 0.8708854 0.1620602
vn 0.6092995 0.6512387 -0.452374
vn 0.1938056 0.3945996 -0.8981819
vn 0.3261282 0.8769537 -0.352977
vn 0.03908919 0.5531554 -0.8321605
vn 0.2585715 -0.01138269 0.965925
vn 0.2585712 -0.01138272 0.9659252
vn 0.2585699 -0.01137624 0.9659256
vn 0.2585738 -0.01138263 0.9659245
vn 0.2585705 -0.01136129 0.9659256
vn 0.2585702 -0.01139105 0.9659254
vn 0.25857 -0.01138092 0.9659255
vn 0.258571 -0.01139109 0.965925
vn 0.2585728 -0.01139585 0.9659245
vn -0.2585753 0.01137598 -0.965924
vn -0.2585725 0.01138363 -0.9659247
vn -0.2585688 0.01139848 -0.9659256
vn -0.2585738 0.01137234 -0.9659245
vn -0.2585708 0.01137985 -0.9659253
vn -0.2585656 0.01138744 -0.9659266
vn -0.2585701 0.0113725 -0.9659256
vn -0.2585775 0.01139121 -0.9659234
vn -0.2585784 0.01139125 -0.9659231
usemtl Mat_Vice
f 1/1/1 3/3/3 2/2/2 
f 1/1/1 4/4/4 3/3/3 
f 4/4/4 5/5/5 3/3/3 
f 4/4/4 6/6/6 5/5/5 
f 6/6/6 7/7/7 5/5/5 
f 6/6/6 8/8/8 7/7/7 
f 8/8/8 9/9/9 7/7/7 
f 8/8/8 10/10/10 9/9/9 
f 10/10/10 11/11/11 9/9/9 
f 10/10/10 12/12/12 11/11/11 
f 12/12/12 13/13/13 11/11/11 
f 12/12/12 14/14/14 13/13/13 
f 14/14/14 15/15/15 13/13/13 
f 14/14/14 16/16/16 15/15/15 
f 16/16/16 17/17/17 15/15/15 
f 16/16/16 18/18/18 17/17/17 
f 19/19/19 21/21/21 20/20/20 
f 19/19/19 20/20/20 22/22/22 
f 23/23/23 19/19/19 22/22/22 
f 22/22/22 20/20/20 24/24/24 
f 23/23/23 22/22/22 25/25/25 
f 26/26/26 23/23/23 25/25/25 
f 22/22/22 24/24/24 27/27/27 
f 25/25/25 22/22/22 27/27/27 
f 28/28/28 27/27/27 24/24/24 
f 28/28/28 29/29/29 27/27/27 
f 29/29/29 30/30/30 27/27/27 
f 25/25/25 27/27/27 30/30/30 
f 29/29/29 31/31/31 30/30/30 
f 26/26/26 25/25/25 32/32/32 
f 32/32/32 25/25/25 30/30/30 
f 33/33/33 26/26/26 32/32/32 
f 31/31/31 34/34/34 30/30/30 
f 32/32/32 30/30/30 34/34/34 
f 31/31/31 35/35/35 34/34/34 
f 33/33/33 32/32/32 36/36/36 
f 36/36/36 32/32/32 34/34/34 
f 37/37/37 33/33/33 36/36/36 
f 35/35/35 38/38/38 34/34/34 
f 36/36/36 34/34/34 38/38/38 
f 35/35/35 39/39/39 38/38/38 
f 37/37/37 36/36/36 40/40/40 
f 40/40/40 36/36/36 38/38/38 
f 41/41/41 37/37/37 40/40/40 
f 39/39/39 42/42/42 38/38/38 
f 40/40/40 38/38/38 42/42/42 
f 39/39/39 43/43/43 42/42/42 
f 41/41/41 40/40/40 44/44/44 
f 44/44/44 40/40/40 42/42/42 
f 45/45/45 41/41/41 44/44/44 
f 43/43/43 46/46/46 42/42/42 
f 44/44/44 42/42/42 46/46/46 
f 43/43/43 47/47/47 46/46/46 
f 45/45/45 44/44/44 48/48/48 
f 48/48/48 44/44/44 46/46/46 
f 49/49/49 45/45/45 48/48/48 
f 49/49/49 48/48/48 50/50/50 
f 47/47/47 51/51/51 46/46/46 
f 48/48/48 46/46/46 51/51/51 
f 50/50/50 48/48/48 51/51/51 
f 47/47/47 52/52/52 51/51/51 
f 50/50/50 51/51/51 53/53/53 
f 52/52/52 53/53/53 51/51/51 
f 52/52/52 54/54/54 53/53/53 
f 55/55/55 57/57/57 56/56/56 
f 55/55/55 56/56/56 58/58/58 
f 59/59/59 55/55/55 58/58/58 
f 60/60/60 58/58/58 56/56/56 
f 59/59/59 58/58/58 61/61/61 
f 62/62/62 59/59/59 61/61/61 
f 60/60/60 63/63/63 58/58/58 
f 63/63/63 61/61/61 58/58/58 
f 64/64/64 63/63/63 60/60/60 
f 64/64/64 65/65/65 63/63/63 
f 65/65/65 66/66/66 63/63/63 
f 63/63/63 66/66/66 61/61/61 
f 65/65/65 67/67/67 66/66/66 
f 62/62/62 61/61/61 68/68/68 
f 66/66/66 68/68/68 61/61/61 
f 69/69/69 62/62/62 68/68/68 
f 67/67/67 70/70/70 66/66/66 
f 66/66/66 70/70/70 68/68/68 
f 67/67/67 71/71/71 70/70/70 
f 69/69/69 68/68/68 72/72/72 
f 70/70/70 72/72/72 68/68/68 
f 73/73/73 69/69/69 72/72/72 
f 71/71/71 74/74/74 70/70/70 
f 70/70/70 74/74/74 72/72/72 
f 71/71/71 75/75/75 74/74/74 
f 73/73/73 72/72/72 76/76/76 
f 74/74/74 76/76/76 72/72/72 
f 77/77/77 73/73/73 76/76/76 
f 75/75/75 78/78/78 74/74/74 
f 74/74/74 78/78/78 76/76/76 
f 75/75/75 79/79/79 78/78/78 
f 77/77/77 76/76/76 80/80/80 
f 78/78/78 80/80/80 76/76/76 
f 81/81/81 77/77/77 80/80/80 
f 79/79/79 82/82/82 78/78/78 
f 78/78/78 82/82/82 80/80/80 
f 79/79/79 83/83/83 82/82/82 
f 81/81/81 80/80/80 84/84/84 
f 82/82/82 84/84/84 80/80/80 
f 85/85/85 81/81/81 84/84/84 
f 85/85/85 84/84/84 86/86/86 
f 83/83/83 87/87/87 82/82/82 
f 82/82/82 87/87/87 84/84/84 
f 87/87/87 86/86/86 84/84/84 
f 83/83/83 88/88/88 87/87/87 
f 87/87/87 89/89/89 86/86/86 
f 88/88/88 89/89/89 87/87/87 
f 88/88/88 90/90/90 89/89/89 
f 91/91/91 93/93/93 92/92/92 
f 94/94/94 91/91/91 92/92/92 
f 93/93/93 95/95/95 92/92/92 
f 96/96/96 94/94/94 92/92/92 
f 95/95/95 97/97/97 92/92/92 
f 98/98/98 96/96/96 92/92/92 
f 97/97/97 99/99/99 92/92/92 
f 99/99/99 98/98/98 92/92/92 
f 100/100/100 102/102/102 101/101/101 
f 103/103/103 100/100/100 101/101/101 
f 102/102/102 104/104/104 101/101/101 
f 105/105/105 103/103/103 101/101/101 
f 104/104/104 106/106/106 101/101/101 
f 107/107/107 105/105/105 101/101/101 
f 106/106/106 108/108/108 101/101/101 
f 108/108/108 107/107/107 101/101/101 
