# exported by StudySceneExporter from mesh 'mug02'
mtllib materials.mtl
v 9.498594E-09 -0.09718607 0.1964069
v -0.02349086 -0.0953062 0.203912
v 9.545452E-09 -0.09815848 0.203912
v -0.02325815 -0.09436204 0.1964069
v -0.009715647 -0.09562438 0.1924045
v -0.04561653 -0.08691502 0.203912
v -0.01563079 -0.09382012 0.1810259
v -0.04516462 -0.08605401 0.1964069
v -0.06509113 -0.07347268 0.203912
v -0.02244744 -0.09107287 0.1609143
v -0.01136974 -0.09295943 0.1665875
v 6.923196E-09 -0.0937985 0.1609143
v -0.02095441 -0.08501538 0.08028736
v 6.274181E-09 -0.08755971 0.08028736
v -0.01147923 -0.08573677 0.07547503
v -0.01647635 -0.0840152 0.06297304
v -0.04359033 -0.08305444 0.1609143
v -0.06444629 -0.07274482 0.1964069
v -0.08078286 -0.05576037 0.203912
v -0.02022453 -0.08205415 0.04608469
v -0.01348667 -0.08336993 0.05166563
v 6.211025E-09 -0.08450985 0.04608469
v -0.04069102 -0.07753026 0.08028736
v -0.06219991 -0.07020917 0.1609143
v -0.07998257 -0.05520798 0.1964069
v -0.09177979 -0.03480746 0.203912
v -0.01928961 -0.07826103 0.007024636
v 5.367014E-09 -0.08060322 0.007024641
v -0.03927369 -0.07482976 0.04608469
v -0.05806283 -0.06553937 0.08028736
v -0.07719465 -0.05328359 0.1609143
v -0.09087058 -0.03446264 0.1964069
v -0.09744281 -0.01183167 0.203912
v -0.01810919 -0.07347188 0.000113368
v 5.203451E-09 -0.07567073 0.0001133728
v -0.03516595 -0.06700309 0.0001133776
v -0.03745819 -0.0713706 0.007024641
v -0.05017898 -0.05664036 0.0001133728
v -0.05344982 -0.06033237 0.007024646
v -0.06227578 -0.04298587 0.0001133728
v -0.05604041 -0.06325653 0.04608468
v -0.06633514 -0.04578784 0.007024641
v -0.07075337 -0.02683319 0.0001133776
v -0.06955024 -0.04800706 0.04608469
v -0.07536532 -0.02858228 0.007024641
v -0.07511903 -0.009121074 0.0001133728
v -0.07206023 -0.04973957 0.08028736
v -0.0790181 -0.02996758 0.04608469
v -0.08001554 -0.009715623 0.007024641
v -0.07511903 0.009121122 0.0001133728
v -0.08186975 -0.03104909 0.08028736
v -0.08389369 -0.01018651 0.04608469
v -0.08001554 0.009715681 0.007024641
v -0.07075337 0.02683324 0.0001133728
v -0.08770312 -0.03326138 0.1609143
v -0.0869213 -0.01055413 0.08028736
v -0.08389369 0.01018657 0.04608469
v -0.07536532 0.02858233 0.007024641
v -0.06227579 0.0429859 0.0001133728
v -0.09311459 -0.01130613 0.1609143
v -0.0869213 0.01055418 0.08028736
v -0.0790181 0.02996764 0.04608469
v -0.06633514 0.04578788 0.007024641
v -0.05017898 0.05664041 0.0001133728
v -0.09647749 -0.01171447 0.1964069
v -0.09744281 0.01183173 0.203912
v -0.09311459 0.01130618 0.1609143
v -0.09647749 0.01171451 0.1964069
v -0.09177979 0.03480752 0.203912
v -0.08186975 0.03104913 0.08028736
v -0.06955025 0.0480071 0.04608469
v -0.05344982 0.0603324 0.007024641
v -0.03516593 0.06700315 0.0001133728
v -0.09087058 0.03446269 0.1964069
v -0.08078286 0.05576041 0.203912
v -0.08770312 0.03326142 0.1609143
v -0.07206023 0.04973962 0.08028736
v -0.03745817 0.07137063 0.007024641
v -0.01810917 0.07347192 0.0001133823
v -0.0560404 0.06325658 0.04608469
v -0.07998259 0.05520802 0.1964069
v -0.06509113 0.07347274 0.2039121
v -0.07719465 0.05328366 0.1609143
v -0.01928959 0.07826108 0.00702465
v 2.986021E-08 0.07567079 0.0001133823
v -0.05806282 0.06553943 0.08028736
v -0.03927368 0.07482979 0.04608469
v -0.06444629 0.07274488 0.1964069
v -0.04561651 0.0869151 0.2039121
v -0.06219989 0.07020921 0.1609143
v 3.163089E-08 0.08060326 0.00702465
v 0.01810923 0.07347192 0.0001133823
v -0.04069101 0.07753033 0.08028736
v -0.02022451 0.08205422 0.04608469
v -0.04516461 0.08605406 0.1964069
v -0.02349084 0.09530625 0.2039121
v -0.04359031 0.08305448 0.1609143
v 0.01928966 0.07826108 0.00702465
v 0.03516599 0.06700315 0.0001133728
v -0.02095439 0.08501546 0.08028736
v 3.374791E-08 0.08450989 0.04608469
v -0.02325813 0.09436209 0.1964069
v 4.152969E-08 0.09815854 0.2039121
v -0.02244742 0.09107293 0.1609143
v 0.03745823 0.07137063 0.007024641
v 0.05017904 0.05664037 0.0001133728
v 3.480466E-08 0.08755974 0.08028736
v 0.02022457 0.08205418 0.04608469
v 4.116589E-08 0.09718613 0.1964069
v 0.02349092 0.09530621 0.2039121
v 3.748658E-08 0.09379853 0.1609143
v 0.05344988 0.06033238 0.007024641
v 0.06227584 0.04298587 0.0001133728
v 0.02095445 0.08501542 0.08028736
v 0.03927374 0.07482976 0.04608469
v 0.0232582 0.09436207 0.1964069
v 0.04561659 0.08691506 0.203912
v 0.0224475 0.09107293 0.1609143
v 0.0663352 0.04578784 0.007024641
v 0.07075342 0.0268332 0.0001133728
v 0.04069108 0.07753029 0.08028736
v 0.05604046 0.06325654 0.04608469
v 0.04516469 0.08605403 0.1964069
v 0.06509119 0.0734727 0.2039121
v 0.04359038 0.08305444 0.1609143
v 0.07536536 0.02858228 0.007024641
v 0.07511905 0.009121065 0.0001133728
v 0.05806288 0.06553939 0.08028736
v 0.06955031 0.04800706 0.04608469
v 0.06444636 0.07274484 0.1964069
v 0.08078293 0.05576035 0.2039121
v 0.06219997 0.07020919 0.1609143
v 0.08001556 0.009715605 0.007024641
v 0.07511903 -0.009121151 0.0001133728
v 0.07206029 0.04973958 0.08028736
v 0.07901815 0.02996758 0.04608469
v 0.07998264 0.05520799 0.1964069
v 0.09177983 0.03480744 0.203912
v 0.0771947 0.05328359 0.1609143
v 0.08001554 -0.0097157 0.007024641
v 0.07075336 -0.02683327 0.0001133728
v 0.08186979 0.03104907 0.08028736
v 0.08389372 0.01018649 0.04608469
v 0.09087062 0.03446261 0.1964069
v 0.09744284 0.01183164 0.203912
v 0.08770315 0.03326137 0.1609143
v 0.0753653 -0.02858235 0.007024646
v 0.06227577 -0.04298593 0.0001133776
v 0.08692133 0.0105541 0.08028736
v 0.08389371 -0.0101866 0.04608469
v 0.09647752 0.01171443 0.1964069
v 0.09744283 -0.01183178 0.203912
v 0.09311462 0.0113061 0.1609143
v 0.06633512 -0.04578792 0.007024641
v 0.05017892 -0.05664041 0.0001133776
v 0.0869213 -0.01055423 0.08028736
v 0.07901809 -0.02996768 0.04608469
v 0.09647749 -0.01171456 0.1964069
v 0.09177978 -0.03480756 0.203912
v 0.09311459 -0.01130623 0.1609143
v 0.05344976 -0.06033244 0.007024646
v 0.03516586 -0.06700315 0.0001133776
v 0.08186974 -0.03104917 0.08028736
v 0.06955022 -0.04800715 0.04608469
v 0.09087055 -0.03446275 0.1964069
v 0.08078282 -0.05576047 0.203912
v 0.08770309 -0.03326148 0.1609143
v 0.0374581 -0.07137065 0.007024641
v 0.01810909 -0.0734719 0.0001133776
v 0.07206019 -0.04973967 0.08028736
v 0.05604034 -0.0632566 0.04608468
v 0.07998254 -0.05520809 0.1964069
v 0.06509105 -0.07347277 0.203912
v 0.0771946 -0.0532837 0.1609143
v 0.0192895 -0.07826106 0.007024641
v 5.203451E-09 -0.07567073 0.0001133728
v 5.367014E-09 -0.08060322 0.007024641
v 0.02022442 -0.08205418 0.04608469
v 6.211025E-09 -0.08450985 0.04608469
v 0.01186921 -0.08350915 0.05102434
v 0.01567534 -0.08415227 0.06341927
v 0.0392736 -0.07482982 0.04608469
v 0.05806277 -0.06553944 0.08028736
v 0.06219983 -0.07020924 0.1609143
v 0.04069093 -0.07753032 0.08028736
v 0.02095429 -0.08501542 0.08028736
v 0.01223429 -0.08565202 0.07555271
v 6.274181E-09 -0.08755971 0.08028736
v 0.02244732 -0.09107291 0.1609143
v 6.923196E-09 -0.0937985 0.1609143
v 0.011085 -0.09320451 0.1687928
v 0.01497559 -0.09387639 0.1807817
v 0.04359023 -0.08305449 0.1609143
v 0.06444623 -0.0727449 0.1964069
v 0.04561642 -0.0869151 0.203912
v 0.04516452 -0.08605406 0.1964069
v 0.02349074 -0.09530623 0.203912
v 0.02325802 -0.09436207 0.1964069
v 0.01093939 -0.09542698 0.1918931
v 9.545452E-09 -0.09815848 0.203912
v 9.498594E-09 -0.09718607 0.1964069
v -0.01810919 -0.07347188 0.000113368
v 5.203451E-09 -0.07567073 0.0001133728
v 0.01810909 -0.0734719 0.0001133776
v 0.03516586 -0.06700315 0.0001133776
v -0.03516595 -0.06700309 0.0001133776
v 0.05017892 -0.05664041 0.0001133776
v -0.05017898 -0.05664036 0.0001133728
v 0.06227577 -0.04298593 0.0001133776
v -0.06227578 -0.04298587 0.0001133728
v 0.07075336 -0.02683327 0.0001133728
v -0.07075337 -0.02683319 0.0001133776
v 0.07511903 -0.009121151 0.0001133728
v -0.07511903 -0.009121074 0.0001133728
v 0.07511905 0.009121065 0.0001133728
v -0.07511903 0.009121122 0.0001133728
v 0.07075342 0.0268332 0.0001133728
v -0.07075337 0.02683324 0.0001133728
v 0.06227584 0.04298587 0.0001133728
v -0.06227579 0.0429859 0.0001133728
v 0.05017904 0.05664037 0.0001133728
v -0.05017898 0.05664041 0.0001133728
v 0.03516599 0.06700315 0.0001133728
v -0.03516593 0.06700315 0.0001133728
v -0.01810917 0.07347192 0.0001133823
v 0.01810923 0.07347192 0.0001133823
v 2.986021E-08 0.07567079 0.0001133823
v -0.02172156 -0.08838952 0.203912
v 7.764588E-09 -0.07569836 0.01754186
v 9.114133E-09 -0.09103482 0.203912
v -0.01806217 -0.0734987 0.01754185
v 6.650784E-09 -0.06819143 0.01028995
v -0.04218075 -0.08060732 0.203912
v -0.01627096 -0.0662099 0.01028995
v -0.03507464 -0.06702756 0.01754186
v -0.06018854 -0.06814054 0.203912
v -0.03159632 -0.06038048 0.01028995
v -0.05004869 -0.05666102 0.01754186
v -0.0746984 -0.05171366 0.203912
v -0.04508542 -0.05104201 0.01028995
v -0.0621141 -0.04300155 0.01754186
v -0.08486705 -0.03228138 0.203912
v -0.05595432 -0.03873713 0.01028995
v -0.07056966 -0.02684299 0.01754186
v -0.09010354 -0.01097301 0.2039121
v -0.06357133 -0.02418099 0.01028995
v -0.07492397 -0.009124403 0.01754186
v -0.09010354 0.01097306 0.203912
v -0.06749383 -0.008219547 0.01028995
v -0.07492397 0.00912446 0.01754186
v -0.08486705 0.03228142 0.203912
v -0.06749383 0.008219595 0.01028995
v -0.07056966 0.02684304 0.01754186
v -0.0746984 0.05171372 0.2039121
v -0.06357133 0.02418103 0.01028995
v -0.0621141 0.0430016 0.01754186
v -0.06018854 0.06814057 0.2039121
v -0.05595432 0.03873717 0.01028995
v -0.05004869 0.05666108 0.01754186
v -0.04218073 0.08060738 0.203912
v -0.0450854 0.05104205 0.01028995
v -0.03507463 0.06702761 0.01754186
v -0.02172154 0.08838958 0.2039121
v -0.03159631 0.06038054 0.01028995
v -0.01806215 0.07349876 0.01754187
v 3.868915E-08 0.09103486 0.2039121
v -0.01627094 0.06620996 0.01028995
v 3.235732E-08 0.07569841 0.01754187
v 0.02172161 0.08838955 0.203912
v 2.880462E-08 0.06819146 0.01028995
v 0.01806222 0.07349873 0.01754187
v 0.0421808 0.08060738 0.2039121
v 0.016271 0.06620993 0.01028995
v 0.03507469 0.0670276 0.01754186
v 0.0601886 0.06814054 0.2039121
v 0.03159636 0.06038053 0.01028995
v 0.05004874 0.05666104 0.01754186
v 0.07469846 0.05171365 0.2039121
v 0.04508546 0.05104203 0.01028995
v 0.06211415 0.04300157 0.01754186
v 0.0848671 0.03228135 0.203912
v 0.05595435 0.03873713 0.01028995
v 0.0705697 0.02684299 0.01754186
v 0.09010357 0.01097298 0.203912
v 0.06357137 0.02418099 0.01028995
v 0.07492399 0.009124383 0.01754186
v 0.09010356 -0.0109731 0.203912
v 0.06749386 0.008219537 0.01028995
v 0.07492398 -0.009124479 0.01754186
v 0.08486704 -0.03228147 0.203912
v 0.06749385 -0.008219614 0.01028995
v 0.07056965 -0.02684306 0.01754186
v 0.07469836 -0.05171375 0.2039121
v 0.06357133 -0.02418107 0.01028995
v 0.06211407 -0.04300163 0.01754186
v 0.06018848 -0.06814062 0.203912
v 0.05595428 -0.0387372 0.01028995
v 0.05004865 -0.05666109 0.01754186
v 0.04218065 -0.08060738 0.203912
v 0.04508536 -0.05104207 0.01028995
v 0.03507456 -0.06702761 0.01754186
v 0.02172144 -0.08838955 0.203912
v 0.03159624 -0.06038054 0.01028995
v 0.01806207 -0.07349873 0.01754186
v 9.114133E-09 -0.09103482 0.203912
v 0.01627087 -0.06620993 0.01028996
v 7.764588E-09 -0.07569836 0.01754186
v 6.650784E-09 -0.06819143 0.01028995
v 0.01627087 -0.06620993 0.01028996
v 6.650784E-09 -0.06819143 0.01028995
v -0.01627096 -0.0662099 0.01028995
v 0.03159624 -0.06038054 0.01028995
v -0.03159632 -0.06038048 0.01028995
v 0.04508536 -0.05104207 0.01028995
v -0.04508542 -0.05104201 0.01028995
v 0.05595428 -0.0387372 0.01028995
v -0.05595432 -0.03873713 0.01028995
v 0.06357133 -0.02418107 0.01028995
v -0.06357133 -0.02418099 0.01028995
v 0.06749385 -0.008219614 0.01028995
v -0.06749383 -0.008219547 0.01028995
v 0.06749386 0.008219537 0.01028995
v -0.06749383 0.008219595 0.01028995
v 0.06357137 0.02418099 0.01028995
v -0.06357133 0.02418103 0.01028995
v 0.05595435 0.03873713 0.01028995
v -0.05595432 0.03873717 0.01028995
v 0.04508546 0.05104203 0.01028995
v -0.0450854 0.05104205 0.01028995
v 0.03159636 0.06038053 0.01028995
v -0.03159631 0.06038054 0.01028995
v 0.016271 0.06620993 0.01028995
v -0.01627094 0.06620996 0.01028995
v 2.880462E-08 0.06819146 0.01028995
v 2.435581E-08 -0.1019117 0.1641673
v 0.011085 -0.09320451 0.1687928
v 6.923196E-09 -0.0937985 0.1609143
v 0.0109637 -0.1021257 0.1687049
v 2.194543E-08 -0.1180186 0.1623124
v 0.01497559 -0.09387639 0.1807817
v 0.01096369 -0.1191083 0.1667224
v 2.037091E-08 -0.1272357 0.1589892
v 0.01550631 -0.1026422 0.1796564
v 0.01093939 -0.09542698 0.1918931
v 0.01096369 -0.1296612 0.1628301
v 1.814272E-08 -0.1317473 0.1547506
v 0.0109637 -0.1031586 0.190608
v 9.498594E-09 -0.09718607 0.1964069
v 0.0155063 -0.1217381 0.177366
v 0.01096369 -0.1355041 0.1573044
v 1.578997E-08 -0.1343153 0.1479843
v 0.0155063 -0.1355152 0.1721001
v 0.01096369 -0.1243679 0.1880096
v 2.525075E-08 -0.1033726 0.1951455
v 0.01096368 -0.1387401 0.1490121
v 1.446575E-08 -0.134992 0.1371288
v 0.0155063 -0.1445712 0.163468
v -0.01096365 -0.1031586 0.190608
v -0.009715647 -0.09562438 0.1924045
v 2.216895E-08 -0.1254575 0.1924196
v 0.01096369 -0.1413693 0.1813701
v 0.01096368 -0.139532 0.1369771
v 1.230915E-08 -0.1329965 0.1230654
v -0.01550626 -0.1026422 0.1796564
v -0.01563079 -0.09382012 0.1810259
v 0.01550629 -0.1494195 0.1514928
v -0.01096365 -0.1243679 0.1880096
v 1.825157E-08 -0.1437948 0.1852109
v 0.01096369 -0.1536383 0.1696316
v 0.01096368 -0.1374291 0.1220716
v 9.002083E-09 -0.1282257 0.1077748
v -0.01096365 -0.1021257 0.1687049
v -0.01136974 -0.09295943 0.1665875
v -0.01550626 -0.1217381 0.177366
v 0.01550629 -0.1504896 0.136611
v -0.01096365 -0.1413693 0.1813701
v 1.498758E-08 -0.1573951 0.1721854
v 0.01096368 -0.1600988 0.1539734
v 0.01096368 -0.1324348 0.1060664
v 6.8289E-09 -0.1210869 0.09358251
v 0.01550629 -0.1481271 0.1196731
v 0.01096368 -0.1614472 0.1362449
v 1.184815E-08 -0.1645236 0.1550012
v -0.01096366 -0.1536383 0.1696316
v 0.01096368 -0.1248893 0.09109715
v 4.706067E-09 -0.1125827 0.08303419
v 0.01550629 -0.1425936 0.1019431
v 0.01096368 -0.1588252 0.1172746
v 7.680187E-09 -0.1659872 0.1360932
v 0.01096367 -0.1155288 0.07957652
v 3.31665E-09 -0.1042688 0.07781339
v 0.01550629 -0.1340665 0.08509869
v 0.01096367 -0.1527524 0.09781981
v 0.01096367 -0.1054561 0.07342868
v 1.778513E-09 -0.09022886 0.07828244
v 0.01550628 -0.1226394 0.07123134
v 0.01096367 -0.0897518 0.07376494
v 6.274181E-09 -0.08755971 0.08028736
v 0.01223429 -0.08565202 0.07555271
v 0.01550628 -0.1083217 0.06284615
v 0.01550628 -0.08860045 0.0628619
v 0.01567534 -0.08415227 0.06341927
v 0.01096367 -0.1432437 0.07910024
v 4.344597E-09 -0.1632578 0.1162808
v 0.01096367 -0.12975 0.06288618
v 0.01096366 -0.1111874 0.05226359
v 0.01096366 -0.08744909 0.05195886
v 0.01186921 -0.08350915 0.05102434
v 2.159482E-09 -0.1569615 0.09611139
v -1.159519E-09 -0.1470461 0.07661489
v -4.528869E-09 -0.1326961 0.0594285
v -8.631637E-09 -0.1123747 0.0478789
v -1.258568E-08 -0.08697204 0.04744137
v 6.211025E-09 -0.08450985 0.04608469
v -0.01348667 -0.08336993 0.05166563
v -0.01096368 -0.08744909 0.05195887
v -0.01647635 -0.0840152 0.06297304
v -0.01096368 -0.1111874 0.0522636
v -0.01096367 -0.12975 0.06288619
v -0.01096367 -0.1432437 0.07910024
v -0.01550629 -0.08860045 0.06286191
v -0.01147923 -0.08573677 0.07547503
v -0.01550629 -0.1083217 0.06284615
v -0.01550628 -0.1226394 0.07123136
v -0.01096367 -0.0897518 0.07376494
v 6.274181E-09 -0.08755971 0.08028736
v 1.778513E-09 -0.09022886 0.07828244
v 3.31665E-09 -0.1042688 0.07781339
v -0.01096367 -0.1054561 0.07342868
v 4.706067E-09 -0.1125827 0.08303419
v -0.01096367 -0.1155288 0.07957652
v 6.8289E-09 -0.1210869 0.09358251
v -0.01096367 -0.1248893 0.09109715
v 9.002083E-09 -0.1282257 0.1077748
v -0.01550628 -0.1340665 0.08509869
v -0.01096366 -0.1324348 0.1060664
v 1.230915E-08 -0.1329965 0.1230654
v -0.01550628 -0.1425936 0.1019431
v -0.01096366 -0.137429 0.1220716
v 1.446575E-08 -0.134992 0.1371288
v -0.01096367 -0.1527524 0.09781981
v -0.01096365 -0.139532 0.1369771
v 1.578997E-08 -0.1343153 0.1479843
v -0.01550628 -0.1481271 0.1196731
v -0.01096367 -0.1588252 0.1172746
v -0.01096365 -0.1387401 0.1490121
v 1.814272E-08 -0.1317473 0.1547506
v -0.01550627 -0.1504896 0.136611
v -0.01096366 -0.1614472 0.1362449
v -0.01096366 -0.1355041 0.1573044
v 2.037091E-08 -0.1272357 0.1589892
v -0.01550627 -0.1494195 0.1514928
v -0.01096366 -0.1600988 0.1539734
v -0.01550627 -0.1445712 0.163468
v -0.01096365 -0.1296612 0.1628301
v 2.194543E-08 -0.1180186 0.1623124
v -0.01550627 -0.1355152 0.1721001
v -0.01096365 -0.1191082 0.1667224
v 2.435581E-08 -0.1019117 0.1641673
v 6.923196E-09 -0.0937985 0.1609143
v 0.02349092 0.09530621 0.2039121
v 0.02172161 0.08838955 0.203912
v 3.868915E-08 0.09103486 0.2039121
v 4.152969E-08 0.09815854 0.2039121
v 0.04561659 0.08691506 0.203912
v -0.02172154 0.08838958 0.2039121
v 0.0421808 0.08060738 0.2039121
v -0.02349084 0.09530625 0.2039121
v 0.06509119 0.0734727 0.2039121
v -0.04218073 0.08060738 0.203912
v 0.0601886 0.06814054 0.2039121
v -0.04561651 0.0869151 0.2039121
v 0.08078293 0.05576035 0.2039121
v -0.06018854 0.06814057 0.2039121
v 0.07469846 0.05171365 0.2039121
v -0.06509113 0.07347274 0.2039121
v 0.09177983 0.03480744 0.203912
v -0.0746984 0.05171372 0.2039121
v 0.0848671 0.03228135 0.203912
v -0.08078286 0.05576041 0.203912
v 0.09744284 0.01183164 0.203912
v -0.08486705 0.03228142 0.203912
v 0.09010357 0.01097298 0.203912
v -0.09177979 0.03480752 0.203912
v 0.09744283 -0.01183178 0.203912
v -0.09010354 0.01097306 0.203912
v 0.09010356 -0.0109731 0.203912
v -0.09744281 0.01183173 0.203912
v 0.09177978 -0.03480756 0.203912
v -0.09010354 -0.01097301 0.2039121
v 0.08486704 -0.03228147 0.203912
v -0.09744281 -0.01183167 0.203912
v 0.08078282 -0.05576047 0.203912
v -0.08486705 -0.03228138 0.203912
v 0.07469836 -0.05171375 0.2039121
v -0.09177979 -0.03480746 0.203912
v 0.06509105 -0.07347277 0.203912
v -0.0746984 -0.05171366 0.203912
v 0.06018848 -0.06814062 0.203912
v -0.08078286 -0.05576037 0.203912
v 0.04561642 -0.0869151 0.203912
v -0.06018854 -0.06814054 0.203912
v 0.04218065 -0.08060738 0.203912
v -0.06509113 -0.07347268 0.203912
v 0.02349074 -0.09530623 0.203912
v -0.04218075 -0.08060732 0.203912
v 0.02172144 -0.08838955 0.203912
v -0.04561653 -0.08691502 0.203912
v 9.545452E-09 -0.09815848 0.203912
v -0.02172156 -0.08838952 0.203912
v 9.114133E-09 -0.09103482 0.203912
v -0.02349086 -0.0953062 0.203912
vt 0.2783579 0.2457929
vt 0.2958047 0.2699743
vt 0.2869834 0.2428431
vt 0.2870862 0.2726876
vt 0.2774061 0.2585611
vt 0.3039394 0.2973404
vt 0.2665427 0.2697738
vt 0.2951505 0.2998397
vt 0.3114142 0.3249023
vt 0.2459238 0.2853833
vt 0.2483604 0.2703687
vt 0.2376349 0.2593581
vt 0.1527943 0.3138563
vt 0.1448333 0.2896658
vt 0.143671 0.3048344
vt 0.1312401 0.3156582
vt 0.2536677 0.3115848
vt 0.302566 0.3271904
vt 0.3182268 0.3526374
vt 0.11342 0.3267931
vt 0.1170558 0.3167962
vt 0.105082 0.3036197
vt 0.160258 0.3380964
vt 0.2608211 0.3379557
vt 0.3093261 0.3547119
vt 0.3243654 0.3805299
vt 0.06957727 0.342881
vt 0.06039262 0.3210691
vt 0.1210543 0.3500035
vt 0.1671222 0.3623331
vt 0.2673529 0.3644711
vt 0.3154171 0.3823862
vt 0.3298152 0.4085648
vt 0.05994794 0.3467021
vt 0.05090206 0.3259282
vt 0.06758654 0.3677584
vt 0.07726781 0.3644832
vt 0.07428753 0.3889935
vt 0.08402704 0.3861087
vt 0.0802191 0.4103861
vt 0.1279374 0.3731514
vt 0.09001899 0.4078358
vt 0.08545427 0.4319209
vt 0.1341027 0.3963098
vt 0.09531102 0.4296799
vt 0.09003091 0.4535813
vt 0.1733474 0.3865951
vt 0.1395781 0.4195157
vt 0.09993857 0.4516357
vt 0.09397142 0.4753504
vt 0.1789193 0.4109023
vt 0.1443827 0.4427849
vt 0.1039231 0.4736918
vt 0.0972899 0.497211
vt 0.2732393 0.3911145
vt 0.1838337 0.4352656
vt 0.1485293 0.4661212
vt 0.1072785 0.4958341
vt 0.09999558 0.5191464
vt 0.2784624 0.4178731
vt 0.1880895 0.459689
vt 0.1520262 0.4895215
vt 0.1100138 0.5180478
vt 0.1020946 0.5411401
vt 0.3208243 0.4101983
vt 0.3345616 0.4367271
vt 0.2830078 0.4447346
vt 0.325533 0.4381332
vt 0.3385917 0.4650002
vt 0.1916867 0.484171
vt 0.154879 0.5129784
vt 0.1121351 0.5403173
vt 0.1035908 0.5631753
vt 0.3295307 0.4661754
vt 0.3418947 0.493367
vt 0.2868645 0.4716866
vt 0.1946253 0.508706
vt 0.1136462 0.562627
vt 0.1044867 0.5852356
vt 0.1570912 0.5364817
vt 0.3328069 0.4943081
vt 0.3444619 0.5218092
vt 0.2900234 0.4987155
vt 0.1145496 0.5849606
vt 0.1047839 0.6073039
vt 0.1969049 0.5332851
vt 0.1586648 0.5600191
vt 0.3353533 0.5225139
vt 0.346287 0.5503083
vt 0.2924776 0.5258068
vt 0.1148466 0.6073019
vt 0.104483 0.6293632
vt 0.1985249 0.5578976
vt 0.1596008 0.5835772
vt 0.3371633 0.5507747
vt 0.3473654 0.5788451
vt 0.2942219 0.5529451
vt 0.1145377 0.6296341
vt 0.1035838 0.6513961
vt 0.1994844 0.5825307
vt 0.1598996 0.6071417
vt 0.3382326 0.5790721
vt 0.3476938 0.6074009
vt 0.2952521 0.5801142
vt 0.1136226 0.6519402
vt 0.1020853 0.6733845
vt 0.1997826 0.6071709
vt 0.1595605 0.6306977
vt 0.3385581 0.6073877
vt 0.3472709 0.6359566
vt 0.2955656 0.6072979
vt 0.1121 0.6742027
vt 0.0999856 0.6953098
vt 0.1994182 0.6318042
vt 0.1585826 0.6542298
vt 0.3381381 0.6357029
vt 0.3460965 0.6644936
vt 0.2951607 0.6344795
vt 0.1099676 0.6964031
vt 0.09728096 0.7171519
vt 0.19839 0.656416
vt 0.1569639 0.6777226
vt 0.3369725 0.6639996
vt 0.3441715 0.6929936
vt 0.2940367 0.6616424
vt 0.1072211 0.7185228
vt 0.09396552 0.7388898
vt 0.1966961 0.680992
vt 0.1547014 0.701161
vt 0.335062 0.6922598
vt 0.3414982 0.7214391
vt 0.2921938 0.6887706
vt 0.1038541 0.7405417
vt 0.09002982 0.7605001
vt 0.1943347 0.7055185
vt 0.1517906 0.7245301
vt 0.3324088 0.7204663
vt 0.3380801 0.7498128
vt 0.289633 0.7158484
vt 0.09985621 0.7624388
vt 0.08545889 0.7819565
vt 0.1913028 0.7299827
vt 0.1482249 0.7478161
vt 0.3290161 0.7486022
vt 0.333922 0.7780983
vt 0.2863567 0.7428609
vt 0.09521079 0.7841911
vt 0.08022869 0.8032273
vt 0.1875971 0.7543738
vt 0.1439943 0.7710071
vt 0.3248886 0.7766518
vt 0.32903 0.8062797
vt 0.2823679 0.769794
vt 0.08989079 0.805773
vt 0.074299 0.8242702
vt 0.1832134 0.7786835
vt 0.1390846 0.7940942
vt 0.3200321 0.8045995
vt 0.323412 0.8343418
vt 0.2776717 0.796635
vt 0.0838492 0.8271536
vt 0.06759703 0.8450173
vt 0.1781465 0.8029085
vt 0.1334742 0.8170742
vt 0.3144543 0.8324305
vt 0.3170773 0.8622696
vt 0.2722747 0.8233718
vt 0.07699519 0.848292
vt 0.05996975 0.8653283
vt 0.1723914 0.8270519
vt 0.1271314 0.8399538
vt 0.3081645 0.8601306
vt 0.3100362 0.890048
vt 0.2661862 0.8499936
vt 0.06912236 0.869127
vt 0.05090214 0.88498
vt 0.05973114 0.8898306
vt 0.1120426 0.8855468
vt 0.1031919 0.9084625
vt 0.1140048 0.8971441
vt 0.129726 0.8981117
vt 0.1200094 0.8627577
vt 0.1659444 0.8511281
vt 0.2594194 0.8764887
vt 0.1588072 0.8751687
vt 0.1509957 0.8992326
vt 0.1421222 0.9072185
vt 0.1426127 0.9232395
vt 0.2439295 0.9290375
vt 0.2352771 0.9550472
vt 0.2486111 0.945343
vt 0.263905 0.9456166
vt 0.2519919 0.9028434
vt 0.3011737 0.8876843
vt 0.3022982 0.9176605
vt 0.2934918 0.915074
vt 0.2938624 0.9450878
vt 0.2851205 0.9422711
vt 0.2751154 0.9547383
vt 0.2846875 0.9722856
vt 0.2760357 0.9692169
vt 0.667368 0.8673691
vt 0.6768845 0.8422759
vt 0.6801192 0.8156346
vt 0.6768844 0.7889931
vt 0.652123 0.8894557
vt 0.6673678 0.7638997
vt 0.6320354 0.907252
vt 0.6521224 0.7418132
vt 0.6082725 0.9197239
vt 0.6320346 0.7240168
vt 0.5822152 0.9261467
vt 0.6082715 0.7115449
vt 0.5553779 0.9261469
vt 0.5822143 0.7051223
vt 0.5293205 0.9197245
vt 0.5553769 0.7051224
vt 0.5055571 0.9072526
vt 0.5293197 0.7115449
vt 0.4854689 0.8894562
vt 0.5055565 0.7240168
vt 0.4702235 0.8673695
vt 0.4854687 0.7418131
vt 0.4607068 0.8422763
vt 0.4574719 0.8156347
vt 0.4702233 0.7638997
vt 0.4607067 0.7889932
vt 0.3409236 0.2328951
vt 0.382071 0.01838403
vt 0.3166157 0.2254764
vt 0.4023684 0.02461169
vt 0.3870242 0.00660809
vt 0.3660358 0.239943
vt 0.4060496 0.01269078
vt 0.4228376 0.02954835
vt 0.3914246 0.2464392
vt 0.4258891 0.01741003
vt 0.4434926 0.0338845
vt 0.4170858 0.2523749
vt 0.4462045 0.02155312
vt 0.4643628 0.03772224
vt 0.4430085 0.2577423
vt 0.466805 0.02525339
vt 0.4854138 0.0410915
vt 0.4691772 0.2625319
vt 0.487625 0.02855008
vt 0.5065549 0.04397653
vt 0.4954734 0.2667851
vt 0.5085687 0.03158054
vt 0.5275335 0.0480164
vt 0.5217765 0.2704213
vt 0.5294752 0.03536256
vt 0.5486419 0.05159561
vt 0.5480656 0.2734422
vt 0.550362 0.0389126
vt 0.569772 0.05469541
vt 0.5743231 0.2758495
vt 0.5712072 0.04201807
vt 0.5908911 0.05729719
vt 0.6005352 0.277645
vt 0.5920241 0.0446306
vt 0.6119885 0.05939008
vt 0.6266928 0.2788318
vt 0.6128064 0.04673746
vt 0.6330751 0.06096277
vt 0.6527895 0.2794157
vt 0.6335368 0.04829902
vt 0.654223 0.06201884
vt 0.6789098 0.2793286
vt 0.6542537 0.04916219
vt 0.6753888 0.06093387
vt 0.7051597 0.2786344
vt 0.6749343 0.04828847
vt 0.696515 0.05931754
vt 0.7315331 0.2773239
vt 0.6956844 0.04665809
vt 0.7176934 0.05716959
vt 0.7580204 0.2753909
vt 0.7165431 0.04446508
vt 0.7389363 0.05450564
vt 0.7846079 0.2728302
vt 0.7374924 0.04176243
vt 0.760219 0.05134073
vt 0.811278 0.2696365
vt 0.7585292 0.03859566
vt 0.7814525 0.04768115
vt 0.83793 0.2658844
vt 0.779615 0.03513025
vt 0.8028914 0.04518177
vt 0.8644216 0.2615322
vt 0.8009049 0.03239754
vt 0.8243278 0.04219731
vt 0.8907334 0.2565871
vt 0.8221186 0.02944557
vt 0.8456506 0.03874128
vt 0.9168485 0.2510547
vt 0.8431687 0.02607974
vt 0.8668173 0.03479985
vt 0.9427552 0.2449402
vt 0.8640401 0.02225626
vt 0.88781 0.03033919
vt 0.9684484 0.2382499
vt 0.8846672 0.01796008
vt 0.9086739 0.02525537
vt 0.9933921 0.2311502
vt 0.9048584 0.01303387
vt 0.9294671 0.01881853
vt 0.9243478 0.006607971
vt 0.9688622 0.8691849
vt 0.9720416 0.8430781
vt 0.9688624 0.8169714
vt 0.9595089 0.8937746
vt 0.9595091 0.7923817
vt 0.9445252 0.915418
vt 0.9445254 0.7707382
vt 0.924782 0.9328573
vt 0.9247822 0.753299
vt 0.9014266 0.9450788
vt 0.9014267 0.7410774
vt 0.8758163 0.9513726
vt 0.8758165 0.7347837
vt 0.8494395 0.9513725
vt 0.8494397 0.7347836
vt 0.8238292 0.9450788
vt 0.8238296 0.7410773
vt 0.8004738 0.9328573
vt 0.800474 0.7532989
vt 0.7807307 0.9154179
vt 0.7807307 0.7707381
vt 0.7657469 0.8937746
vt 0.7657471 0.7923815
vt 0.7563937 0.8691849
vt 0.7563937 0.8169711
vt 0.7532144 0.843078
vt 0.9534706 0.6116569
vt 0.9372159 0.6337011
vt 0.9610988 0.625878
vt 0.9323922 0.6179854
vt 0.9457921 0.5826368
vt 0.9148475 0.6394957
vt 0.9244221 0.5878838
vt 0.9421576 0.564453
vt 0.9120563 0.6238958
vt 0.893408 0.6428617
vt 0.9202938 0.5678149
vt 0.9412901 0.5528259
vt 0.8920916 0.6290429
vt 0.8714874 0.6424557
vt 0.9048805 0.5929065
vt 0.9195018 0.5533621
vt 0.941655 0.5390479
vt 0.900934 0.5711825
vt 0.8877148 0.595998
vt 0.8715374 0.6311859
vt 0.9198742 0.5375134
vt 0.9431551 0.5184449
vt 0.9000604 0.5535071
vt 0.8509778 0.6288759
vt 0.8518992 0.6428617
vt 0.8716574 0.5967752
vt 0.8854052 0.5729105
vt 0.9217769 0.5164853
vt 0.9449781 0.4922828
vt 0.830766 0.6240292
vt 0.8284072 0.6399914
vt 0.9008666 0.5354754
vt 0.8555828 0.5958269
vt 0.8718072 0.5730764
vt 0.8847724 0.5534624
vt 0.9237904 0.4906394
vt 0.9473556 0.4629057
vt 0.8096771 0.6177531
vt 0.8017107 0.633597
vt 0.8382991 0.5924955
vt 0.9029452 0.5143048
vt 0.8581973 0.5727087
vt 0.871962 0.5533525
vt 0.8855469 0.5342319
vt 0.9258924 0.4616308
vt 0.9492436 0.4329318
vt 0.9049447 0.4892041
vt 0.8869047 0.5128965
vt 0.8721261 0.5339803
vt 0.8591438 0.5532491
vt 0.9270563 0.4317455
vt 0.9513108 0.4066512
vt 0.9063965 0.4609594
vt 0.8882642 0.4882126
vt 0.8723131 0.5124933
vt 0.9284139 0.4039317
vt 0.9547689 0.387709
vt 0.9069346 0.4315145
vt 0.8889991 0.4605447
vt 0.9323632 0.3806878
vt 0.9669294 0.3626738
vt 0.9073386 0.4028256
vt 0.9452221 0.3497001
vt 0.9714334 0.3578219
vt 0.9499327 0.3410993
vt 0.9100979 0.3749874
vt 0.9223979 0.3393064
vt 0.926142 0.3312316
vt 0.8892919 0.4314678
vt 0.8725292 0.4877405
vt 0.8894586 0.4023621
vt 0.8909 0.3718281
vt 0.8995233 0.3293318
vt 0.9015712 0.3208584
vt 0.8727695 0.4602194
vt 0.8730255 0.4312081
vt 0.8732977 0.401844
vt 0.8736335 0.3708441
vt 0.8744739 0.3240635
vt 0.8746777 0.3183583
vt 0.843967 0.3189902
vt 0.8488646 0.3276986
vt 0.8217839 0.3280128
vt 0.8562608 0.3713771
vt 0.8571129 0.4020369
vt 0.8567532 0.4311724
vt 0.8250432 0.3371908
vt 0.7966837 0.3408141
vt 0.8368889 0.3741327
vt 0.8391942 0.4021682
vt 0.8019097 0.3485449
vt 0.7753266 0.3558519
vt 0.7799366 0.3610281
vt 0.7918829 0.3863072
vt 0.8145312 0.3795328
vt 0.7950976 0.4053144
vt 0.8180827 0.4029195
vt 0.796759 0.4316247
vt 0.8189729 0.4307951
vt 0.7981489 0.4616199
vt 0.839103 0.4309068
vt 0.8196282 0.4607071
vt 0.8000252 0.4910242
vt 0.8391325 0.4603705
vt 0.8212296 0.4897452
vt 0.8013973 0.5171971
vt 0.8565361 0.4602591
vt 0.8227899 0.5156149
vt 0.8025346 0.5377995
vt 0.8400941 0.4886377
vt 0.8567886 0.4879375
vt 0.8243116 0.5366682
vt 0.8026472 0.5515547
vt 0.8416529 0.5137684
vt 0.8577161 0.5126418
vt 0.8243805 0.5525239
vt 0.8015459 0.5631322
vt 0.8433546 0.534975
vt 0.8587003 0.5340002
vt 0.8438362 0.5530295
vt 0.8232896 0.5669715
vt 0.7974886 0.5811505
vt 0.8426442 0.5707213
vt 0.8186637 0.5870339
vt 0.788576 0.6097065
vt 0.780242 0.6236477
vt 0.4116839 0.8142573
vt 0.4230823 0.8141572
vt 0.4272811 0.7794735
vt 0.416238 0.7767516
vt 0.416238 0.8517629
vt 0.4396816 0.7468112
vt 0.427329 0.8488468
vt 0.4296354 0.7414256
vt 0.4296353 0.8870888
vt 0.459563 0.7180687
vt 0.4397745 0.8815261
vt 0.4510975 0.7103324
vt 0.4510974 0.918182
vt 0.4857698 0.6949164
vt 0.4596955 0.910296
vt 0.4793771 0.6852789
vt 0.479377 0.9432355
vt 0.516779 0.6786996
vt 0.4859343 0.9334845
vt 0.5128306 0.6677212
vt 0.5128306 0.9607933
vt 0.5507885 0.670361
vt 0.5169659 0.949744
vt 0.5495139 0.6586797
vt 0.5495138 0.9698349
vt 0.5858218 0.6703852
vt 0.5509869 0.9581293
vt 0.5872949 0.6586797
vt 0.587295 0.9698349
vt 0.6198428 0.6787707
vt 0.5860204 0.9581534
vt 0.6239782 0.6677213
vt 0.6239784 0.9607932
vt 0.6508744 0.6950301
vt 0.62003 0.9498148
vt 0.6574317 0.6852791
vt 0.657432 0.9432353
vt 0.6771132 0.7182185
vt 0.6510392 0.9335979
vt 0.6857112 0.7103326
vt 0.6857116 0.9181817
vt 0.6970342 0.7469884
vt 0.6772462 0.9104454
vt 0.7071733 0.7414257
vt 0.7071737 0.8870884
vt 0.7094797 0.7796676
vt 0.6971275 0.8817028
vt 0.7205707 0.7767515
vt 0.7205708 0.8517627
vt 0.7137265 0.814357
vt 0.7095277 0.8490408
vt 0.7251248 0.814257
vn 0.0002611592 -0.8716832 0.4900696
vn -0.1853008 -0.7517971 0.6328228
vn -2.787749E-07 -0.7742964 0.6328231
vn -0.237812 -0.9648426 -0.111912
vn -0.4748012 -0.8094134 0.3455631
vn -0.3598338 -0.6856053 0.6328229
vn -0.6375824 -0.7694445 -0.03799965
vn -0.461804 -0.8798936 -0.1119121
vn -0.5134542 -0.5795694 0.6328223
vn -0.2384263 -0.9673325 -0.08614308
vn -0.4304748 -0.8101332 -0.3979646
vn 0.0184018 -0.862515 -0.5056967
vn -0.2384913 -0.9675959 -0.08294685
vn -0.003601669 -0.9358308 0.352431
vn -0.4104497 -0.881274 0.2342798
vn -0.5533515 -0.8304177 -0.06487332
vn -0.4629957 -0.8821645 -0.0861431
vn -0.6589571 -0.7438084 -0.1119126
vn -0.6372342 -0.4398508 0.6328222
vn -0.2382529 -0.9666306 -0.09413133
vn -0.3942206 -0.866528 -0.3061363
vn -0.0001846205 -0.8623423 -0.5063257
vn -0.4631218 -0.8824046 -0.0829469
vn -0.6606578 -0.7457282 -0.08614302
vn -0.8178139 -0.5644962 -0.1119129
vn -0.7239807 -0.274569 0.6328221
vn -0.2245592 -0.9110723 -0.3457173
vn -2.339469E-07 -0.9383388 -0.3457171
vn -0.4626598 -0.8815244 -0.09413133
vn -0.6608377 -0.7459312 -0.08294693
vn -0.8199247 -0.5659531 -0.08614299
vn -0.9291426 -0.3523769 -0.1119126
vn -0.768652 -0.09333094 0.6328219
vn -0.1159957 -0.4706127 -0.8746821
vn 0 -0.4846972 -0.8746821
vn -0.2252502 -0.4291779 -0.874682
vn -0.4360679 -0.8308576 -0.3457172
vn -0.3214139 -0.3628011 -0.8746819
vn -0.6222339 -0.7023565 -0.3457172
vn -0.3988978 -0.2753392 -0.8746821
vn -0.6601784 -0.745187 -0.09413137
vn -0.7722377 -0.533037 -0.3457173
vn -0.4531998 -0.1718762 -0.874682
vn -0.8193297 -0.5655422 -0.0941314
vn -0.8773619 -0.3327398 -0.3457173
vn -0.4811636 -0.058424 -0.8746818
vn -0.8201479 -0.566107 -0.08294696
vn -0.9308646 -0.3530304 -0.09413129
vn -0.9314973 -0.1131044 -0.3457169
vn -0.4811636 0.05842395 -0.8746818
vn -0.9317942 -0.3533828 -0.08294688
vn -0.9883011 -0.1200014 -0.09413115
vn -0.9314973 0.1131045 -0.3457169
vn -0.4531997 0.1718762 -0.874682
vn -0.9315406 -0.3532866 -0.086143
vn -0.989288 -0.1201211 -0.08294689
vn -0.988301 0.1200014 -0.09413117
vn -0.8773618 0.3327399 -0.3457173
vn -0.3988981 0.2753394 -0.874682
vn -0.9890188 -0.1200884 -0.08614303
vn -0.989288 0.1201212 -0.08294688
vn -0.9308646 0.3530304 -0.09413129
vn -0.7722376 0.5330373 -0.3457172
vn -0.321414 0.3628016 -0.8746817
vn -0.9864727 -0.1197793 -0.1119127
vn -0.7686518 0.0933311 0.632822
vn -0.9890188 0.1200884 -0.08614302
vn -0.9864727 0.1197791 -0.1119127
vn -0.7239804 0.2745689 0.6328223
vn -0.9317942 0.3533828 -0.08294681
vn -0.8193296 0.5655425 -0.09413137
vn -0.6222337 0.7023568 -0.3457169
vn -0.22525 0.4291784 -0.8746818
vn -0.9291427 0.3523768 -0.1119122
vn -0.6372345 0.43985 0.6328223
vn -0.9315407 0.3532864 -0.08614308
vn -0.8201478 0.5661073 -0.08294692
vn -0.4360679 0.8308578 -0.3457171
vn -0.1159957 0.4706127 -0.8746821
vn -0.6601782 0.7451872 -0.09413152
vn -0.8178141 0.5644961 -0.1119121
vn -0.513454 0.5795687 0.6328232
vn -0.8199245 0.5659533 -0.08614313
vn -0.2245592 0.9110723 -0.3457173
vn 0 0.4846973 -0.874682
vn -0.6608375 0.7459314 -0.08294701
vn -0.4626601 0.8815242 -0.09413174
vn -0.6589569 0.7438087 -0.1119123
vn -0.3598336 0.6856054 0.6328229
vn -0.6606576 0.7457285 -0.08614314
vn 2.591026E-07 0.9383387 -0.3457173
vn 0.1159957 0.4706127 -0.8746821
vn -0.4631222 0.8824044 -0.08294704
vn -0.2382528 0.9666306 -0.09413166
vn -0.4618037 0.8798937 -0.1119125
vn -0.1853009 0.7517979 0.6328219
vn -0.462996 0.8821644 -0.08614315
vn 0.2245595 0.9110723 -0.345717
vn 0.2252502 0.4291783 -0.8746818
vn -0.2384906 0.9675961 -0.08294701
vn 7.265215E-07 0.9955597 -0.09413138
vn -0.237812 0.9648425 -0.1119123
vn 5.010414E-07 0.7742964 0.6328232
vn -0.2384259 0.9673327 -0.08614311
vn 0.4360682 0.8308576 -0.3457169
vn 0.3214141 0.362801 -0.8746819
vn 6.954909E-07 0.996554 -0.08294701
vn 0.2382535 0.9666305 -0.09413135
vn 2.338342E-07 0.9937181 -0.1119117
vn 0.185302 0.7517956 0.6328242
vn 2.411214E-07 0.9962828 -0.08614308
vn 0.6222341 0.7023564 -0.345717
vn 0.3988983 0.2753392 -0.8746819
vn 0.2384914 0.9675959 -0.08294716
vn 0.4626602 0.8815242 -0.09413143
vn 0.2378129 0.9648424 -0.1119116
vn 0.3598343 0.6856057 0.6328223
vn 0.2384266 0.9673324 -0.08614311
vn 0.772238 0.5330368 -0.345717
vn 0.4532005 0.171876 -0.8746815
vn 0.4631222 0.8824044 -0.08294719
vn 0.6601784 0.745187 -0.09413145
vn 0.4618045 0.8798933 -0.1119123
vn 0.513454 0.5795686 0.6328233
vn 0.4629962 0.8821643 -0.08614314
vn 0.8773624 0.332739 -0.3457168
vn 0.4811637 0.05842339 -0.8746818
vn 0.6608377 0.7459313 -0.08294711
vn 0.81933 0.565542 -0.09413145
vn 0.6589575 0.7438082 -0.1119123
vn 0.6372344 0.4398486 0.6328233
vn 0.6606579 0.7457281 -0.08614313
vn 0.9314975 0.1131034 -0.3457169
vn 0.4811633 -0.05842435 -0.874682
vn 0.8201483 0.5661065 -0.08294693
vn 0.9308649 0.3530295 -0.0941314
vn 0.8178146 0.5644953 -0.1119119
vn 0.7239804 0.274568 0.6328228
vn 0.8199251 0.5659524 -0.08614316
vn 0.931497 -0.1131052 -0.3457173
vn 0.4531996 -0.1718764 -0.874682
vn 0.9317945 0.353382 -0.08294681
vn 0.9883011 0.1200006 -0.09413121
vn 0.929143 0.3523761 -0.1119121
vn 0.7686516 0.09333058 0.6328224
vn 0.9315409 0.353286 -0.08614307
vn 0.8773616 -0.3327403 -0.3457173
vn 0.3988977 -0.2753398 -0.8746821
vn 0.9892881 0.1201203 -0.08294679
vn 0.9883009 -0.1200023 -0.09413122
vn 0.9864728 0.1197785 -0.1119125
vn 0.7686512 -0.09333217 0.6328226
vn 0.9890189 0.1200877 -0.08614304
vn 0.772237 -0.533038 -0.3457175
vn 0.321413 -0.3628013 -0.8746822
vn 0.9892879 -0.1201222 -0.08294678
vn 0.9308643 -0.3530312 -0.09413138
vn 0.9864726 -0.1197805 -0.1119125
vn 0.7239798 -0.2745696 0.6328229
vn 0.9890187 -0.1200896 -0.08614321
vn 0.6222326 -0.7023575 -0.3457175
vn 0.2252495 -0.4291783 -0.874682
vn 0.9317939 -0.3533836 -0.08294681
vn 0.8193289 -0.5655434 -0.09413137
vn 0.9291423 -0.352378 -0.1119119
vn 0.6372339 -0.4398505 0.6328228
vn 0.9315403 -0.3532874 -0.0861432
vn 0.4360667 -0.8308582 -0.3457174
vn 0.1159952 -0.4706129 -0.874682
vn 0.8201471 -0.5661082 -0.08294688
vn 0.6601771 -0.7451882 -0.09413133
vn 0.8178133 -0.5644972 -0.111912
vn 0.513453 -0.5795704 0.6328224
vn 0.819924 -0.5659541 -0.08614313
vn 0.2245583 -0.9110726 -0.3457172
vn 0 -0.4846972 -0.8746821
vn -2.339469E-07 -0.9383388 -0.3457171
vn 0.2382522 -0.9666308 -0.09413152
vn -0.0001846205 -0.8623423 -0.5063257
vn 0.406684 -0.8387623 -0.3620577
vn 0.6095679 -0.7895668 -0.07079013
vn 0.4626585 -0.8815251 -0.0941314
vn 0.6608365 -0.7459323 -0.08294693
vn 0.6606566 -0.7457293 -0.08614311
vn 0.4631206 -0.8824053 -0.082947
vn 0.2384897 -0.9675962 -0.08294706
vn 0.4015956 -0.8950882 0.1937479
vn -0.003601669 -0.9358308 0.352431
vn 0.2384249 -0.9673328 -0.08614305
vn 0.0184018 -0.862515 -0.5056967
vn 0.5052338 -0.754336 -0.4191849
vn 0.668257 -0.741366 -0.06171726
vn 0.4629946 -0.8821651 -0.0861431
vn 0.6589559 -0.7438096 -0.1119123
vn 0.3598327 -0.6856068 0.6328221
vn 0.4618028 -0.8798943 -0.1119126
vn 0.1853001 -0.7517974 0.6328226
vn 0.2378108 -0.9648429 -0.1119123
vn 0.4877992 -0.8199177 0.2996443
vn -2.787749E-07 -0.7742964 0.6328231
vn 0.0002611592 -0.8716832 0.4900696
vn -0.1159957 -0.4706127 -0.8746821
vn 0 -0.4846972 -0.8746821
vn 0.1159952 -0.4706129 -0.874682
vn 0.2252495 -0.4291783 -0.874682
vn -0.2252502 -0.4291779 -0.874682
vn 0.321413 -0.3628013 -0.8746822
vn -0.3214139 -0.3628011 -0.8746819
vn 0.3988977 -0.2753398 -0.8746821
vn -0.3988978 -0.2753392 -0.8746821
vn 0.4531996 -0.1718764 -0.874682
vn -0.4531998 -0.1718762 -0.874682
vn 0.4811633 -0.05842435 -0.874682
vn -0.4811636 -0.058424 -0.8746818
vn 0.4811637 0.05842339 -0.8746818
vn -0.4811636 0.05842395 -0.8746818
vn 0.4532005 0.171876 -0.8746815
vn -0.4531997 0.1718762 -0.874682
vn 0.3988983 0.2753392 -0.8746819
vn -0.3988981 0.2753394 -0.874682
vn 0.3214141 0.362801 -0.8746819
vn -0.321414 0.3628016 -0.8746817
vn 0.2252502 0.4291783 -0.8746818
vn -0.22525 0.4291784 -0.8746818
vn -0.1159957 0.4706127 -0.8746821
vn 0.1159957 0.4706127 -0.8746821
vn 0 0.4846973 -0.874682
vn 0.1553004 0.6282901 0.762321
vn 3.108587E-07 0.9084753 0.4179387
vn 2.997503E-07 0.6471831 0.7623345
vn 0.2179879 0.8819532 0.4178992
vn 0 0.3989927 0.916954
vn 0.3014599 0.5727535 0.7622829
vn 0.09578448 0.387359 0.9169397
vn 0.4231432 0.8039914 0.4177892
vn 0.429927 0.4839099 0.7622297
vn 0.185949 0.3531537 0.9168999
vn 0.6034623 0.6792753 0.4176342
vn 0.533266 0.3670421 0.7621729
vn 0.2652282 0.2984157 0.9168435
vn 0.7485084 0.5152221 0.4174701
vn 0.605572 0.2290113 0.7621263
vn 0.3290281 0.2263793 0.9167839
vn 0.8499956 0.3214647 0.4173342
vn 0.6427649 0.07782428 0.7621002
vn 0.3736869 0.1412637 0.9167348
vn 0.9021986 0.1092422 0.4172577
vn 0.6427654 -0.07782426 0.7620998
vn 0.3966653 0.04800859 0.9167071
vn 0.9021985 -0.1092422 0.4172578
vn 0.6055719 -0.2290114 0.7621262
vn 0.3966651 -0.04800857 0.9167071
vn 0.8499955 -0.3214648 0.4173344
vn 0.5332651 -0.3670423 0.7621734
vn 0.3736867 -0.1412636 0.9167349
vn 0.7485082 -0.5152223 0.4174704
vn 0.4299268 -0.4839107 0.7622292
vn 0.3290279 -0.2263792 0.916784
vn 0.6034621 -0.6792752 0.4176346
vn 0.3014601 -0.5727543 0.7622824
vn 0.2652279 -0.2984153 0.9168438
vn 0.4231431 -0.8039913 0.4177894
vn 0.1552999 -0.6282887 0.7623222
vn 0.1859489 -0.3531537 0.9168999
vn 0.2179874 -0.8819536 0.4178989
vn 0 -0.6471831 0.7623345
vn 0.09578415 -0.3873592 0.9169396
vn -4.388593E-07 -0.9084753 0.4179384
vn -0.1553002 -0.6282914 0.76232
vn -2.305147E-07 -0.398993 0.916954
vn -0.2179878 -0.8819534 0.417899
vn -0.3014603 -0.5727528 0.7622833
vn -0.09578435 -0.3873591 0.9169396
vn -0.4231436 -0.8039911 0.4177893
vn -0.429928 -0.48391 0.762229
vn -0.185949 -0.3531537 0.9168999
vn -0.6034628 -0.6792747 0.4176345
vn -0.5332659 -0.3670424 0.7621729
vn -0.2652284 -0.2984154 0.9168436
vn -0.7485086 -0.5152217 0.4174703
vn -0.6055725 -0.2290111 0.7621259
vn -0.329028 -0.2263789 0.9167842
vn -0.8499959 -0.3214642 0.4173342
vn -0.6427654 -0.07782355 0.7620997
vn -0.3736869 -0.1412635 0.9167348
vn -0.9021987 -0.1092416 0.4172575
vn -0.6427653 0.07782477 0.7620997
vn -0.3966656 -0.04800836 0.916707
vn -0.9021985 0.1092431 0.4172575
vn -0.6055717 0.2290119 0.7621263
vn -0.3966654 0.048009 0.916707
vn -0.8499953 0.3214658 0.4173341
vn -0.5332649 0.367043 0.7621732
vn -0.3736868 0.1412642 0.9167346
vn -0.7485078 0.5152229 0.4174701
vn -0.4299264 0.4839102 0.7622298
vn -0.3290277 0.2263796 0.916784
vn -0.6034615 0.6792759 0.4176344
vn -0.3014593 0.5727536 0.7622832
vn -0.2652277 0.2984158 0.9168436
vn -0.4231419 0.803992 0.4177893
vn -0.1552997 0.6282903 0.762321
vn -0.1859484 0.353154 0.9168999
vn -0.2179868 0.8819536 0.4178992
vn 2.997503E-07 0.6471831 0.7623345
vn -0.09578385 0.3873589 0.9169398
vn 3.108587E-07 0.9084753 0.4179387
vn 0 0.3989927 0.916954
vn -0.09578385 0.3873589 0.9169398
vn 0 0.3989927 0.916954
vn 0.09578448 0.387359 0.9169397
vn -0.1859484 0.353154 0.9168999
vn 0.185949 0.3531537 0.9168999
vn -0.2652277 0.2984158 0.9168436
vn 0.2652282 0.2984157 0.9168435
vn -0.3290277 0.2263796 0.916784
vn 0.3290281 0.2263793 0.9167839
vn -0.3736868 0.1412642 0.9167346
vn 0.3736869 0.1412637 0.9167348
vn -0.3966654 0.048009 0.916707
vn 0.3966653 0.04800859 0.9167071
vn -0.3966656 -0.04800836 0.916707
vn 0.3966651 -0.04800857 0.9167071
vn -0.3736869 -0.1412635 0.9167348
vn 0.3736867 -0.1412636 0.9167349
vn -0.329028 -0.2263789 0.9167842
vn 0.3290279 -0.2263792 0.916784
vn -0.2652284 -0.2984154 0.9168436
vn 0.2652279 -0.2984153 0.9168438
vn -0.185949 -0.3531537 0.9168999
vn 0.1859489 -0.3531537 0.9168999
vn -0.09578435 -0.3873591 0.9169396
vn 0.09578415 -0.3873592 0.9169396
vn -2.305147E-07 -0.398993 0.916954
vn 0.02347823 -0.07177456 -0.9971445
vn 0.5052338 -0.754336 -0.4191849
vn 0.0184018 -0.862515 -0.5056967
vn 0.7422519 0.009363324 -0.6700556
vn 0 0.2303633 -0.9731047
vn 0.668257 -0.741366 -0.06171726
vn 0.7211819 0.1612048 -0.6737281
vn -2.790019E-07 0.5248122 -0.851218
vn 0.9999723 0.005892683 0.004532668
vn 0.4877992 -0.8199177 0.2996443
vn 0.7331475 0.3586937 -0.5777833
vn -2.189862E-07 0.830396 -0.5571737
vn 0.715106 -0.09244992 0.6928756
vn 0.0002611592 -0.8716832 0.4900696
vn 0.9995535 -0.00836141 0.02868282
vn 0.7360532 0.5614415 -0.3781655
vn 4.201103E-07 0.9768668 -0.2138491
vn 0.998838 -0.0267585 0.04008288
vn 0.6918471 -0.1767289 0.7000818
vn 0.0002204527 -0.1518718 0.9884002
vn 0.7257844 0.6715071 -0.1493826
vn 3.019015E-07 0.9992648 0.03833909
vn 0.9986639 -0.0423636 0.0295921
vn -0.7152923 -0.08786685 0.6932794
vn -0.4748012 -0.8094134 0.3455631
vn 1.492737E-07 -0.245267 0.9694556
vn 0.6846427 -0.3921348 0.6144058
vn 0.7194883 0.6940245 0.02581855
vn -2.221501E-07 0.9755661 0.219706
vn -0.9996099 -0.01823697 0.0211579
vn -0.6375824 -0.7694445 -0.03799965
vn 0.9992762 -0.03670145 0.01000412
vn -0.691847 -0.1767288 0.7000819
vn 0 -0.5382353 0.8427947
vn 0.6833895 -0.6027308 0.41194
vn 0.7169591 0.6801146 0.1530156
vn 0 0.9270056 0.3750477
vn -0.7445061 -0.04361679 -0.6661893
vn -0.4304748 -0.8101332 -0.3979646
vn -0.9995536 -0.008361036 0.02868282
vn 0.9996722 -0.02560232 -0.0001950317
vn -0.6846427 -0.3921347 0.614406
vn 0 -0.825524 0.5643672
vn 0.6882943 -0.7056912 0.1680797
vn 0.7170738 0.6460553 0.2615679
vn 0 0.8400748 0.5424705
vn 0.9998007 -0.01951148 -0.004231648
vn 0.6941268 -0.7195147 -0.02205545
vn 1.510892E-07 -0.9726822 0.2321406
vn -0.6833896 -0.6027303 0.4119402
vn 0.7199315 0.5825515 0.3772693
vn -1.697516E-07 0.6613828 0.7500485
vn 0.9997954 -0.01868141 -0.007760448
vn 0.6970618 -0.6997384 -0.1564317
vn 0 -0.9995404 -0.03031361
vn 0.7273675 0.4514626 0.5168346
vn 0 0.2603521 0.9655137
vn 0.9996394 -0.02205225 -0.01532014
vn 0.6969149 -0.6643068 -0.2701965
vn 0.7471628 0.1732595 0.641661
vn -0.00451709 -0.300133 0.9538866
vn 0.9990861 -0.0261787 -0.03378895
vn 0.7229057 -0.2210637 0.6546282
vn -0.003601669 -0.9358308 0.352431
vn 0.4015956 -0.8950882 0.1937479
vn 0.9979343 -0.01718081 -0.06190286
vn 0.9944245 -0.1016487 -0.02806073
vn 0.6095679 -0.7895668 -0.07079013
vn 0.6933669 -0.6018931 -0.3961903
vn -2.732525E-07 -0.9759286 -0.2180901
vn 0.6855843 -0.4677707 -0.5578213
vn 0.680331 -0.1930688 -0.7070178
vn 0.7097502 -0.1445434 -0.6894649
vn 0.406684 -0.8387623 -0.3620577
vn 0 -0.9262728 -0.3768537
vn 0 -0.8350849 -0.5501211
vn -3.699482E-07 -0.642159 -0.7665715
vn -3.936421E-07 -0.263458 -0.9646708
vn -0.0001806079 -0.2192298 -0.9756732
vn -0.0001846205 -0.8623423 -0.5063257
vn -0.3942206 -0.866528 -0.3061363
vn -0.6670299 -0.2143666 -0.7135251
vn -0.5533515 -0.8304177 -0.06487332
vn -0.6803315 -0.1930689 -0.7070174
vn -0.6855848 -0.4677705 -0.5578209
vn -0.6933672 -0.6018932 -0.39619
vn -0.9864097 -0.1643033 0.0005517098
vn -0.4104497 -0.881274 0.2342798
vn -0.9979343 -0.01718083 -0.0619019
vn -0.9990861 -0.02617837 -0.0337879
vn -0.7249501 -0.2006812 0.6589191
vn -0.003601669 -0.9358308 0.352431
vn -0.00451709 -0.300133 0.9538866
vn 0 0.2603521 0.9655137
vn -0.7471623 0.1732596 0.6416615
vn -1.697516E-07 0.6613828 0.7500485
vn -0.7273673 0.4514627 0.5168349
vn 0 0.8400748 0.5424705
vn -0.7199312 0.5825519 0.3772695
vn 0 0.9270056 0.3750477
vn -0.9996395 -0.02205158 -0.01531948
vn -0.7170736 0.6460555 0.261568
vn -2.221501E-07 0.9755661 0.219706
vn -0.9997954 -0.01868074 -0.00775997
vn -0.716959 0.6801146 0.1530161
vn 3.019015E-07 0.9992648 0.03833909
vn -0.6969153 -0.6643066 -0.2701961
vn -0.7194881 0.6940247 0.0258187
vn 4.201103E-07 0.9768668 -0.2138491
vn -0.9998007 -0.01951109 -0.00423115
vn -0.6970623 -0.6997381 -0.1564315
vn -0.7257838 0.6715079 -0.1493825
vn -2.189862E-07 0.830396 -0.5571737
vn -0.9996722 -0.02560215 -0.000194708
vn -0.694127 -0.7195147 -0.02205526
vn -0.736053 0.5614421 -0.3781648
vn -2.790019E-07 0.5248122 -0.851218
vn -0.9992762 -0.03670051 0.01000419
vn -0.6882944 -0.7056911 0.1680798
vn -0.998664 -0.04236296 0.02959232
vn -0.7331476 0.3586936 -0.5777833
vn 0 0.2303633 -0.9731047
vn -0.998838 -0.02675794 0.04008285
vn -0.7211817 0.1612048 -0.6737284
vn 0.02347823 -0.07177456 -0.9971445
vn 0.0184018 -0.862515 -0.5056967
vn 0.185302 0.7517956 0.6328242
vn -0.1553002 -0.6282914 0.76232
vn 0 -0.6471831 0.7623345
vn 5.010414E-07 0.7742964 0.6328232
vn 0.3598343 0.6856057 0.6328223
vn 0.1552999 -0.6282887 0.7623222
vn -0.3014603 -0.5727528 0.7622833
vn -0.1853009 0.7517979 0.6328219
vn 0.513454 0.5795686 0.6328233
vn 0.3014601 -0.5727543 0.7622824
vn -0.429928 -0.48391 0.762229
vn -0.3598336 0.6856054 0.6328229
vn 0.6372344 0.4398486 0.6328233
vn 0.4299268 -0.4839107 0.7622292
vn -0.5332659 -0.3670424 0.7621729
vn -0.513454 0.5795687 0.6328232
vn 0.7239804 0.274568 0.6328228
vn 0.5332651 -0.3670423 0.7621734
vn -0.6055725 -0.2290111 0.7621259
vn -0.6372345 0.43985 0.6328223
vn 0.7686516 0.09333058 0.6328224
vn 0.6055719 -0.2290114 0.7621262
vn -0.6427654 -0.07782355 0.7620997
vn -0.7239804 0.2745689 0.6328223
vn 0.7686512 -0.09333217 0.6328226
vn 0.6427654 -0.07782426 0.7620998
vn -0.6427653 0.07782477 0.7620997
vn -0.7686518 0.0933311 0.632822
vn 0.7239798 -0.2745696 0.6328229
vn 0.6427649 0.07782428 0.7621002
vn -0.6055717 0.2290119 0.7621263
vn -0.768652 -0.09333094 0.6328219
vn 0.6372339 -0.4398505 0.6328228
vn 0.605572 0.2290113 0.7621263
vn -0.5332649 0.367043 0.7621732
vn -0.7239807 -0.274569 0.6328221
vn 0.513453 -0.5795704 0.6328224
vn 0.533266 0.3670421 0.7621729
vn -0.4299264 0.4839102 0.7622298
vn -0.6372342 -0.4398508 0.6328222
vn 0.3598327 -0.6856068 0.6328221
vn 0.429927 0.4839099 0.7622297
vn -0.3014593 0.5727536 0.7622832
vn -0.5134542 -0.5795694 0.6328223
vn 0.1853001 -0.7517974 0.6328226
vn 0.3014599 0.5727535 0.7622829
vn -0.1552997 0.6282903 0.762321
vn -0.3598338 -0.6856053 0.6328229
vn -2.787749E-07 -0.7742964 0.6328231
vn 0.1553004 0.6282901 0.762321
vn 2.997503E-07 0.6471831 0.7623345
vn -0.1853008 -0.7517971 0.6328228
usemtl mug02
f 1/1/1 3/3/3 2/2/2 
f 1/1/1 2/2/2 4/4/4 
f 4/4/4 5/5/5 1/1/1 
f 4/4/4 2/2/2 6/6/6 
f 7/7/7 5/5/5 4/4/4 
f 4/4/4 6/6/6 8/8/8 
f 8/8/8 6/6/6 9/9/9 
f 4/4/4 10/10/10 7/7/7 
f 10/10/10 11/11/11 7/7/7 
f 12/12/12 11/11/11 10/10/10 
f 12/12/12 10/10/10 13/13/13 
f 12/12/12 13/13/13 14/14/14 
f 13/13/13 15/15/15 14/14/14 
f 16/16/16 15/15/15 13/13/13 
f 4/4/4 17/17/17 10/10/10 
f 4/4/4 8/8/8 17/17/17 
f 8/8/8 9/9/9 18/18/18 
f 18/18/18 9/9/9 19/19/19 
f 13/13/13 20/20/20 16/16/16 
f 20/20/20 21/21/21 16/16/16 
f 22/22/22 21/21/21 20/20/20 
f 10/10/10 23/23/23 13/13/13 
f 10/10/10 17/17/17 23/23/23 
f 8/8/8 24/24/24 17/17/17 
f 8/8/8 18/18/18 24/24/24 
f 18/18/18 19/19/19 25/25/25 
f 25/25/25 19/19/19 26/26/26 
f 22/22/22 20/20/20 27/27/27 
f 22/22/22 27/27/27 28/28/28 
f 13/13/13 29/29/29 20/20/20 
f 13/13/13 23/23/23 29/29/29 
f 17/17/17 30/30/30 23/23/23 
f 17/17/17 24/24/24 30/30/30 
f 18/18/18 31/31/31 24/24/24 
f 18/18/18 25/25/25 31/31/31 
f 25/25/25 26/26/26 32/32/32 
f 32/32/32 26/26/26 33/33/33 
f 28/28/28 27/27/27 34/34/34 
f 28/28/28 34/34/34 35/35/35 
f 27/27/27 36/36/36 34/34/34 
f 27/27/27 37/37/37 36/36/36 
f 20/20/20 37/37/37 27/27/27 
f 37/37/37 38/38/38 36/36/36 
f 20/20/20 29/29/29 37/37/37 
f 37/37/37 39/39/39 38/38/38 
f 29/29/29 39/39/39 37/37/37 
f 39/39/39 40/40/40 38/38/38 
f 29/29/29 41/41/41 39/39/39 
f 23/23/23 41/41/41 29/29/29 
f 23/23/23 30/30/30 41/41/41 
f 39/39/39 42/42/42 40/40/40 
f 41/41/41 42/42/42 39/39/39 
f 42/42/42 43/43/43 40/40/40 
f 30/30/30 44/44/44 41/41/41 
f 41/41/41 44/44/44 42/42/42 
f 42/42/42 45/45/45 43/43/43 
f 44/44/44 45/45/45 42/42/42 
f 45/45/45 46/46/46 43/43/43 
f 30/30/30 47/47/47 44/44/44 
f 24/24/24 47/47/47 30/30/30 
f 24/24/24 31/31/31 47/47/47 
f 44/44/44 48/48/48 45/45/45 
f 47/47/47 48/48/48 44/44/44 
f 45/45/45 49/49/49 46/46/46 
f 48/48/48 49/49/49 45/45/45 
f 49/49/49 50/50/50 46/46/46 
f 31/31/31 51/51/51 47/47/47 
f 47/47/47 51/51/51 48/48/48 
f 48/48/48 52/52/52 49/49/49 
f 51/51/51 52/52/52 48/48/48 
f 49/49/49 53/53/53 50/50/50 
f 52/52/52 53/53/53 49/49/49 
f 53/53/53 54/54/54 50/50/50 
f 31/31/31 55/55/55 51/51/51 
f 25/25/25 55/55/55 31/31/31 
f 25/25/25 32/32/32 55/55/55 
f 51/51/51 56/56/56 52/52/52 
f 55/55/55 56/56/56 51/51/51 
f 52/52/52 57/57/57 53/53/53 
f 56/56/56 57/57/57 52/52/52 
f 53/53/53 58/58/58 54/54/54 
f 57/57/57 58/58/58 53/53/53 
f 58/58/58 59/59/59 54/54/54 
f 32/32/32 60/60/60 55/55/55 
f 55/55/55 60/60/60 56/56/56 
f 56/56/56 61/61/61 57/57/57 
f 60/60/60 61/61/61 56/56/56 
f 57/57/57 62/62/62 58/58/58 
f 61/61/61 62/62/62 57/57/57 
f 58/58/58 63/63/63 59/59/59 
f 62/62/62 63/63/63 58/58/58 
f 63/63/63 64/64/64 59/59/59 
f 32/32/32 65/65/65 60/60/60 
f 32/32/32 33/33/33 65/65/65 
f 65/65/65 33/33/33 66/66/66 
f 60/60/60 67/67/67 61/61/61 
f 65/65/65 67/67/67 60/60/60 
f 65/65/65 66/66/66 68/68/68 
f 65/65/65 68/68/68 67/67/67 
f 68/68/68 66/66/66 69/69/69 
f 61/61/61 70/70/70 62/62/62 
f 67/67/67 70/70/70 61/61/61 
f 62/62/62 71/71/71 63/63/63 
f 70/70/70 71/71/71 62/62/62 
f 63/63/63 72/72/72 64/64/64 
f 71/71/71 72/72/72 63/63/63 
f 72/72/72 73/73/73 64/64/64 
f 68/68/68 69/69/69 74/74/74 
f 74/74/74 69/69/69 75/75/75 
f 68/68/68 76/76/76 67/67/67 
f 67/67/67 76/76/76 70/70/70 
f 68/68/68 74/74/74 76/76/76 
f 70/70/70 77/77/77 71/71/71 
f 76/76/76 77/77/77 70/70/70 
f 72/72/72 78/78/78 73/73/73 
f 78/78/78 79/79/79 73/73/73 
f 71/71/71 80/80/80 72/72/72 
f 77/77/77 80/80/80 71/71/71 
f 80/80/80 78/78/78 72/72/72 
f 74/74/74 75/75/75 81/81/81 
f 81/81/81 75/75/75 82/82/82 
f 74/74/74 83/83/83 76/76/76 
f 76/76/76 83/83/83 77/77/77 
f 74/74/74 81/81/81 83/83/83 
f 78/78/78 84/84/84 79/79/79 
f 84/84/84 85/85/85 79/79/79 
f 77/77/77 86/86/86 80/80/80 
f 83/83/83 86/86/86 77/77/77 
f 80/80/80 87/87/87 78/78/78 
f 87/87/87 84/84/84 78/78/78 
f 86/86/86 87/87/87 80/80/80 
f 81/81/81 82/82/82 88/88/88 
f 88/88/88 82/82/82 89/89/89 
f 81/81/81 90/90/90 83/83/83 
f 83/83/83 90/90/90 86/86/86 
f 81/81/81 88/88/88 90/90/90 
f 84/84/84 91/91/91 85/85/85 
f 91/91/91 92/92/92 85/85/85 
f 86/86/86 93/93/93 87/87/87 
f 90/90/90 93/93/93 86/86/86 
f 87/87/87 94/94/94 84/84/84 
f 94/94/94 91/91/91 84/84/84 
f 93/93/93 94/94/94 87/87/87 
f 88/88/88 89/89/89 95/95/95 
f 95/95/95 89/89/89 96/96/96 
f 88/88/88 97/97/97 90/90/90 
f 90/90/90 97/97/97 93/93/93 
f 88/88/88 95/95/95 97/97/97 
f 91/91/91 98/98/98 92/92/92 
f 98/98/98 99/99/99 92/92/92 
f 93/93/93 100/100/100 94/94/94 
f 97/97/97 100/100/100 93/93/93 
f 94/94/94 101/101/101 91/91/91 
f 101/101/101 98/98/98 91/91/91 
f 100/100/100 101/101/101 94/94/94 
f 95/95/95 96/96/96 102/102/102 
f 102/102/102 96/96/96 103/103/103 
f 95/95/95 104/104/104 97/97/97 
f 97/97/97 104/104/104 100/100/100 
f 95/95/95 102/102/102 104/104/104 
f 98/98/98 105/105/105 99/99/99 
f 105/105/105 106/106/106 99/99/99 
f 100/100/100 107/107/107 101/101/101 
f 104/104/104 107/107/107 100/100/100 
f 101/101/101 108/108/108 98/98/98 
f 108/108/108 105/105/105 98/98/98 
f 107/107/107 108/108/108 101/101/101 
f 102/102/102 103/103/103 109/109/109 
f 109/109/109 103/103/103 110/110/110 
f 102/102/102 111/111/111 104/104/104 
f 104/104/104 111/111/111 107/107/107 
f 102/102/102 109/109/109 111/111/111 
f 105/105/105 112/112/112 106/106/106 
f 112/112/112 113/113/113 106/106/106 
f 107/107/107 114/114/114 108/108/108 
f 111/111/111 114/114/114 107/107/107 
f 108/108/108 115/115/115 105/105/105 
f 115/115/115 112/112/112 105/105/105 
f 114/114/114 115/115/115 108/108/108 
f 109/109/109 110/110/110 116/116/116 
f 116/116/116 110/110/110 117/117/117 
f 109/109/109 118/118/118 111/111/111 
f 111/111/111 118/118/118 114/114/114 
f 109/109/109 116/116/116 118/118/118 
f 112/112/112 119/119/119 113/113/113 
f 119/119/119 120/120/120 113/113/113 
f 114/114/114 121/121/121 115/115/115 
f 118/118/118 121/121/121 114/114/114 
f 115/115/115 122/122/122 112/112/112 
f 122/122/122 119/119/119 112/112/112 
f 121/121/121 122/122/122 115/115/115 
f 116/116/116 117/117/117 123/123/123 
f 123/123/123 117/117/117 124/124/124 
f 116/116/116 125/125/125 118/118/118 
f 118/118/118 125/125/125 121/121/121 
f 116/116/116 123/123/123 125/125/125 
f 119/119/119 126/126/126 120/120/120 
f 126/126/126 127/127/127 120/120/120 
f 121/121/121 128/128/128 122/122/122 
f 125/125/125 128/128/128 121/121/121 
f 122/122/122 129/129/129 119/119/119 
f 129/129/129 126/126/126 119/119/119 
f 128/128/128 129/129/129 122/122/122 
f 123/123/123 124/124/124 130/130/130 
f 130/130/130 124/124/124 131/131/131 
f 123/123/123 132/132/132 125/125/125 
f 125/125/125 132/132/132 128/128/128 
f 123/123/123 130/130/130 132/132/132 
f 126/126/126 133/133/133 127/127/127 
f 133/133/133 134/134/134 127/127/127 
f 128/128/128 135/135/135 129/129/129 
f 132/132/132 135/135/135 128/128/128 
f 129/129/129 136/136/136 126/126/126 
f 136/136/136 133/133/133 126/126/126 
f 135/135/135 136/136/136 129/129/129 
f 130/130/130 131/131/131 137/137/137 
f 137/137/137 131/131/131 138/138/138 
f 130/130/130 139/139/139 132/132/132 
f 132/132/132 139/139/139 135/135/135 
f 130/130/130 137/137/137 139/139/139 
f 133/133/133 140/140/140 134/134/134 
f 140/140/140 141/141/141 134/134/134 
f 135/135/135 142/142/142 136/136/136 
f 139/139/139 142/142/142 135/135/135 
f 136/136/136 143/143/143 133/133/133 
f 143/143/143 140/140/140 133/133/133 
f 142/142/142 143/143/143 136/136/136 
f 137/137/137 138/138/138 144/144/144 
f 144/144/144 138/138/138 145/145/145 
f 137/137/137 146/146/146 139/139/139 
f 139/139/139 146/146/146 142/142/142 
f 137/137/137 144/144/144 146/146/146 
f 140/140/140 147/147/147 141/141/141 
f 147/147/147 148/148/148 141/141/141 
f 142/142/142 149/149/149 143/143/143 
f 146/146/146 149/149/149 142/142/142 
f 143/143/143 150/150/150 140/140/140 
f 150/150/150 147/147/147 140/140/140 
f 149/149/149 150/150/150 143/143/143 
f 144/144/144 145/145/145 151/151/151 
f 151/151/151 145/145/145 152/152/152 
f 144/144/144 153/153/153 146/146/146 
f 146/146/146 153/153/153 149/149/149 
f 144/144/144 151/151/151 153/153/153 
f 147/147/147 154/154/154 148/148/148 
f 154/154/154 155/155/155 148/148/148 
f 149/149/149 156/156/156 150/150/150 
f 153/153/153 156/156/156 149/149/149 
f 150/150/150 157/157/157 147/147/147 
f 157/157/157 154/154/154 147/147/147 
f 156/156/156 157/157/157 150/150/150 
f 151/151/151 152/152/152 158/158/158 
f 158/158/158 152/152/152 159/159/159 
f 151/151/151 160/160/160 153/153/153 
f 153/153/153 160/160/160 156/156/156 
f 151/151/151 158/158/158 160/160/160 
f 154/154/154 161/161/161 155/155/155 
f 161/161/161 162/162/162 155/155/155 
f 156/156/156 163/163/163 157/157/157 
f 160/160/160 163/163/163 156/156/156 
f 157/157/157 164/164/164 154/154/154 
f 164/164/164 161/161/161 154/154/154 
f 163/163/163 164/164/164 157/157/157 
f 158/158/158 159/159/159 165/165/165 
f 165/165/165 159/159/159 166/166/166 
f 158/158/158 167/167/167 160/160/160 
f 160/160/160 167/167/167 163/163/163 
f 158/158/158 165/165/165 167/167/167 
f 161/161/161 168/168/168 162/162/162 
f 168/168/168 169/169/169 162/162/162 
f 163/163/163 170/170/170 164/164/164 
f 167/167/167 170/170/170 163/163/163 
f 164/164/164 171/171/171 161/161/161 
f 171/171/171 168/168/168 161/161/161 
f 170/170/170 171/171/171 164/164/164 
f 165/165/165 166/166/166 172/172/172 
f 172/172/172 166/166/166 173/173/173 
f 165/165/165 174/174/174 167/167/167 
f 167/167/167 174/174/174 170/170/170 
f 165/165/165 172/172/172 174/174/174 
f 168/168/168 175/175/175 169/169/169 
f 175/175/175 176/176/176 169/169/169 
f 175/175/175 177/177/177 176/176/176 
f 178/178/178 177/177/177 175/175/175 
f 178/178/178 179/179/179 177/177/177 
f 180/180/180 179/179/179 178/178/178 
f 178/178/178 181/181/181 180/180/180 
f 182/182/182 175/175/175 168/168/168 
f 182/182/182 178/178/178 175/175/175 
f 171/171/171 182/182/182 168/168/168 
f 170/170/170 183/183/183 171/171/171 
f 174/174/174 183/183/183 170/170/170 
f 183/183/183 182/182/182 171/171/171 
f 172/172/172 184/184/184 174/174/174 
f 174/174/174 184/184/184 183/183/183 
f 183/183/183 185/185/185 182/182/182 
f 185/185/185 178/178/178 182/182/182 
f 184/184/184 185/185/185 183/183/183 
f 186/186/186 181/181/181 178/178/178 
f 185/185/185 186/186/186 178/178/178 
f 181/181/181 186/186/186 187/187/187 
f 187/187/187 186/186/186 188/188/188 
f 189/189/189 188/188/188 186/186/186 
f 189/189/189 190/190/190 188/188/188 
f 191/191/191 190/190/190 189/189/189 
f 189/189/189 192/192/192 191/191/191 
f 193/193/193 186/186/186 185/185/185 
f 184/184/184 193/193/193 185/185/185 
f 193/193/193 189/189/189 186/186/186 
f 172/172/172 194/194/194 184/184/184 
f 194/194/194 193/193/193 184/184/184 
f 172/172/172 173/173/173 194/194/194 
f 194/194/194 173/173/173 195/195/195 
f 194/194/194 196/196/196 193/193/193 
f 194/194/194 195/195/195 196/196/196 
f 196/196/196 189/189/189 193/193/193 
f 196/196/196 195/195/195 197/197/197 
f 198/198/198 192/192/192 189/189/189 
f 196/196/196 198/198/198 189/189/189 
f 196/196/196 197/197/197 198/198/198 
f 192/192/192 198/198/198 199/199/199 
f 198/198/198 197/197/197 200/200/200 
f 199/199/199 198/198/198 201/201/201 
f 198/198/198 200/200/200 201/201/201 
f 202/202/202 204/204/204 203/203/203 
f 204/204/204 202/202/202 205/205/205 
f 205/205/205 202/202/202 206/206/206 
f 205/205/205 206/206/206 207/207/207 
f 207/207/207 206/206/206 208/208/208 
f 207/207/207 208/208/208 209/209/209 
f 209/209/209 208/208/208 210/210/210 
f 209/209/209 210/210/210 211/211/211 
f 211/211/211 210/210/210 212/212/212 
f 211/211/211 212/212/212 213/213/213 
f 213/213/213 212/212/212 214/214/214 
f 213/213/213 214/214/214 215/215/215 
f 215/215/215 214/214/214 216/216/216 
f 215/215/215 216/216/216 217/217/217 
f 217/217/217 216/216/216 218/218/218 
f 217/217/217 218/218/218 219/219/219 
f 219/219/219 218/218/218 220/220/220 
f 219/219/219 220/220/220 221/221/221 
f 221/221/221 220/220/220 222/222/222 
f 221/221/221 222/222/222 223/223/223 
f 223/223/223 222/222/222 224/224/224 
f 223/223/223 224/224/224 225/225/225 
f 223/223/223 225/225/225 226/226/226 
f 226/226/226 225/225/225 227/227/227 
f 228/228/228 230/230/230 229/229/229 
f 228/228/228 229/229/229 231/231/231 
f 231/231/231 229/229/229 232/232/232 
f 233/233/233 228/228/228 231/231/231 
f 231/231/231 232/232/232 234/234/234 
f 233/233/233 231/231/231 235/235/235 
f 235/235/235 231/231/231 234/234/234 
f 236/236/236 233/233/233 235/235/235 
f 235/235/235 234/234/234 237/237/237 
f 236/236/236 235/235/235 238/238/238 
f 238/238/238 235/235/235 237/237/237 
f 239/239/239 236/236/236 238/238/238 
f 238/238/238 237/237/237 240/240/240 
f 239/239/239 238/238/238 241/241/241 
f 241/241/241 238/238/238 240/240/240 
f 242/242/242 239/239/239 241/241/241 
f 241/241/241 240/240/240 243/243/243 
f 242/242/242 241/241/241 244/244/244 
f 244/244/244 241/241/241 243/243/243 
f 245/245/245 242/242/242 244/244/244 
f 244/244/244 243/243/243 246/246/246 
f 245/245/245 244/244/244 247/247/247 
f 247/247/247 244/244/244 246/246/246 
f 248/248/248 245/245/245 247/247/247 
f 247/247/247 246/246/246 249/249/249 
f 248/248/248 247/247/247 250/250/250 
f 250/250/250 247/247/247 249/249/249 
f 251/251/251 248/248/248 250/250/250 
f 250/250/250 249/249/249 252/252/252 
f 251/251/251 250/250/250 253/253/253 
f 253/253/253 250/250/250 252/252/252 
f 254/254/254 251/251/251 253/253/253 
f 253/253/253 252/252/252 255/255/255 
f 254/254/254 253/253/253 256/256/256 
f 256/256/256 253/253/253 255/255/255 
f 257/257/257 254/254/254 256/256/256 
f 256/256/256 255/255/255 258/258/258 
f 257/257/257 256/256/256 259/259/259 
f 259/259/259 256/256/256 258/258/258 
f 260/260/260 257/257/257 259/259/259 
f 259/259/259 258/258/258 261/261/261 
f 260/260/260 259/259/259 262/262/262 
f 262/262/262 259/259/259 261/261/261 
f 263/263/263 260/260/260 262/262/262 
f 262/262/262 261/261/261 264/264/264 
f 263/263/263 262/262/262 265/265/265 
f 265/265/265 262/262/262 264/264/264 
f 266/266/266 263/263/263 265/265/265 
f 265/265/265 264/264/264 267/267/267 
f 266/266/266 265/265/265 268/268/268 
f 268/268/268 265/265/265 267/267/267 
f 269/269/269 266/266/266 268/268/268 
f 268/268/268 267/267/267 270/270/270 
f 269/269/269 268/268/268 271/271/271 
f 271/271/271 268/268/268 270/270/270 
f 272/272/272 269/269/269 271/271/271 
f 271/271/271 270/270/270 273/273/273 
f 272/272/272 271/271/271 274/274/274 
f 274/274/274 271/271/271 273/273/273 
f 275/275/275 272/272/272 274/274/274 
f 274/274/274 273/273/273 276/276/276 
f 275/275/275 274/274/274 277/277/277 
f 277/277/277 274/274/274 276/276/276 
f 278/278/278 275/275/275 277/277/277 
f 277/277/277 276/276/276 279/279/279 
f 278/278/278 277/277/277 280/280/280 
f 280/280/280 277/277/277 279/279/279 
f 281/281/281 278/278/278 280/280/280 
f 280/280/280 279/279/279 282/282/282 
f 281/281/281 280/280/280 283/283/283 
f 283/283/283 280/280/280 282/282/282 
f 284/284/284 281/281/281 283/283/283 
f 283/283/283 282/282/282 285/285/285 
f 284/284/284 283/283/283 286/286/286 
f 286/286/286 283/283/283 285/285/285 
f 287/287/287 284/284/284 286/286/286 
f 286/286/286 285/285/285 288/288/288 
f 287/287/287 286/286/286 289/289/289 
f 289/289/289 286/286/286 288/288/288 
f 290/290/290 287/287/287 289/289/289 
f 289/289/289 288/288/288 291/291/291 
f 290/290/290 289/289/289 292/292/292 
f 292/292/292 289/289/289 291/291/291 
f 293/293/293 290/290/290 292/292/292 
f 292/292/292 291/291/291 294/294/294 
f 293/293/293 292/292/292 295/295/295 
f 295/295/295 292/292/292 294/294/294 
f 296/296/296 293/293/293 295/295/295 
f 295/295/295 294/294/294 297/297/297 
f 296/296/296 295/295/295 298/298/298 
f 298/298/298 295/295/295 297/297/297 
f 299/299/299 296/296/296 298/298/298 
f 298/298/298 297/297/297 300/300/300 
f 299/299/299 298/298/298 301/301/301 
f 301/301/301 298/298/298 300/300/300 
f 302/302/302 299/299/299 301/301/301 
f 301/301/301 300/300/300 303/303/303 
f 302/302/302 301/301/301 304/304/304 
f 304/304/304 301/301/301 303/303/303 
f 305/305/305 302/302/302 304/304/304 
f 304/304/304 303/303/303 306/306/306 
f 305/305/305 304/304/304 307/307/307 
f 307/307/307 304/304/304 306/306/306 
f 307/307/307 306/306/306 308/308/308 
f 309/309/309 311/311/311 310/310/310 
f 311/311/311 309/309/309 312/312/312 
f 311/311/311 312/312/312 313/313/313 
f 313/313/313 312/312/312 314/314/314 
f 313/313/313 314/314/314 315/315/315 
f 315/315/315 314/314/314 316/316/316 
f 315/315/315 316/316/316 317/317/317 
f 317/317/317 316/316/316 318/318/318 
f 317/317/317 318/318/318 319/319/319 
f 319/319/319 318/318/318 320/320/320 
f 319/319/319 320/320/320 321/321/321 
f 321/321/321 320/320/320 322/322/322 
f 321/321/321 322/322/322 323/323/323 
f 323/323/323 322/322/322 324/324/324 
f 323/323/323 324/324/324 325/325/325 
f 325/325/325 324/324/324 326/326/326 
f 325/325/325 326/326/326 327/327/327 
f 327/327/327 326/326/326 328/328/328 
f 327/327/327 328/328/328 329/329/329 
f 329/329/329 328/328/328 330/330/330 
f 329/329/329 330/330/330 331/331/331 
f 331/331/331 330/330/330 332/332/332 
f 331/331/331 332/332/332 333/333/333 
f 333/333/333 332/332/332 334/334/334 
f 335/335/335 337/337/337 336/336/336 
f 335/335/335 336/336/336 338/338/338 
f 338/338/338 339/339/339 335/335/335 
f 338/338/338 336/336/336 340/340/340 
f 338/338/338 341/341/341 339/339/339 
f 341/341/341 342/342/342 339/339/339 
f 338/338/338 340/340/340 343/343/343 
f 343/343/343 341/341/341 338/338/338 
f 343/343/343 340/340/340 344/344/344 
f 341/341/341 345/345/345 342/342/342 
f 345/345/345 346/346/346 342/342/342 
f 343/343/343 344/344/344 347/347/347 
f 348/348/348 347/347/347 344/344/344 
f 343/343/343 349/349/349 341/341/341 
f 349/349/349 345/345/345 341/341/341 
f 347/347/347 349/349/349 343/343/343 
f 345/345/345 350/350/350 346/346/346 
f 350/350/350 351/351/351 346/346/346 
f 349/349/349 352/352/352 345/345/345 
f 352/352/352 350/350/350 345/345/345 
f 347/347/347 353/353/353 349/349/349 
f 353/353/353 352/352/352 349/349/349 
f 348/348/348 354/354/354 347/347/347 
f 354/354/354 353/353/353 347/347/347 
f 350/350/350 355/355/355 351/351/351 
f 355/355/355 356/356/356 351/351/351 
f 352/352/352 357/357/357 350/350/350 
f 357/357/357 355/355/355 350/350/350 
f 348/348/348 358/358/358 354/354/354 
f 348/348/348 359/359/359 358/358/358 
f 354/354/354 360/360/360 353/353/353 
f 358/358/358 360/360/360 354/354/354 
f 353/353/353 361/361/361 352/352/352 
f 361/361/361 357/357/357 352/352/352 
f 360/360/360 361/361/361 353/353/353 
f 355/355/355 362/362/362 356/356/356 
f 362/362/362 363/363/363 356/356/356 
f 364/364/364 358/358/358 359/359/359 
f 364/364/364 359/359/359 365/365/365 
f 357/357/357 366/366/366 355/355/355 
f 366/366/366 362/362/362 355/355/355 
f 358/358/358 367/367/367 360/360/360 
f 364/364/364 367/367/367 358/358/358 
f 360/360/360 368/368/368 361/361/361 
f 367/367/367 368/368/368 360/360/360 
f 361/361/361 369/369/369 357/357/357 
f 369/369/369 366/366/366 357/357/357 
f 368/368/368 369/369/369 361/361/361 
f 362/362/362 370/370/370 363/363/363 
f 370/370/370 371/371/371 363/363/363 
f 372/372/372 364/364/364 365/365/365 
f 372/372/372 365/365/365 373/373/373 
f 364/364/364 374/374/374 367/367/367 
f 372/372/372 374/374/374 364/364/364 
f 366/366/366 375/375/375 362/362/362 
f 375/375/375 370/370/370 362/362/362 
f 367/367/367 376/376/376 368/368/368 
f 374/374/374 376/376/376 367/367/367 
f 368/368/368 377/377/377 369/369/369 
f 376/376/376 377/377/377 368/368/368 
f 369/369/369 378/378/378 366/366/366 
f 378/378/378 375/375/375 366/366/366 
f 377/377/377 378/378/378 369/369/369 
f 370/370/370 379/379/379 371/371/371 
f 379/379/379 380/380/380 371/371/371 
f 375/375/375 381/381/381 370/370/370 
f 381/381/381 379/379/379 370/370/370 
f 378/378/378 382/382/382 375/375/375 
f 382/382/382 381/381/381 375/375/375 
f 377/377/377 383/383/383 378/378/378 
f 383/383/383 382/382/382 378/378/378 
f 376/376/376 384/384/384 377/377/377 
f 384/384/384 383/383/383 377/377/377 
f 379/379/379 385/385/385 380/380/380 
f 385/385/385 386/386/386 380/380/380 
f 381/381/381 387/387/387 379/379/379 
f 387/387/387 385/385/385 379/379/379 
f 382/382/382 388/388/388 381/381/381 
f 388/388/388 387/387/387 381/381/381 
f 383/383/383 389/389/389 382/382/382 
f 389/389/389 388/388/388 382/382/382 
f 385/385/385 390/390/390 386/386/386 
f 390/390/390 391/391/391 386/386/386 
f 387/387/387 392/392/392 385/385/385 
f 392/392/392 390/390/390 385/385/385 
f 388/388/388 393/393/393 387/387/387 
f 393/393/393 392/392/392 387/387/387 
f 390/390/390 394/394/394 391/391/391 
f 394/394/394 395/395/395 391/391/391 
f 392/392/392 396/396/396 390/390/390 
f 396/396/396 394/394/394 390/390/390 
f 394/394/394 397/397/397 395/395/395 
f 398/398/398 395/395/395 397/397/397 
f 398/398/398 397/397/397 399/399/399 
f 400/400/400 397/397/397 394/394/394 
f 396/396/396 400/400/400 394/394/394 
f 401/401/401 399/399/399 397/397/397 
f 400/400/400 401/401/401 397/397/397 
f 401/401/401 402/402/402 399/399/399 
f 403/403/403 396/396/396 392/392/392 
f 393/393/393 403/403/403 392/392/392 
f 404/404/404 393/393/393 388/388/388 
f 389/389/389 404/404/404 388/388/388 
f 405/405/405 400/400/400 396/396/396 
f 403/403/403 405/405/405 396/396/396 
f 406/406/406 401/401/401 400/400/400 
f 405/405/405 406/406/406 400/400/400 
f 407/407/407 402/402/402 401/401/401 
f 406/406/406 407/407/407 401/401/401 
f 407/407/407 408/408/408 402/402/402 
f 409/409/409 403/403/403 393/393/393 
f 404/404/404 409/409/409 393/393/393 
f 410/410/410 405/405/405 403/403/403 
f 409/409/409 410/410/410 403/403/403 
f 411/411/411 406/406/406 405/405/405 
f 410/410/410 411/411/411 405/405/405 
f 412/412/412 407/407/407 406/406/406 
f 411/411/411 412/412/412 406/406/406 
f 413/413/413 408/408/408 407/407/407 
f 412/412/412 413/413/413 407/407/407 
f 413/413/413 414/414/414 408/408/408 
f 413/413/413 415/415/415 414/414/414 
f 413/413/413 416/416/416 415/415/415 
f 416/416/416 417/417/417 415/415/415 
f 418/418/418 413/413/413 412/412/412 
f 418/418/418 416/416/416 413/413/413 
f 419/419/419 412/412/412 411/411/411 
f 419/419/419 418/418/418 412/412/412 
f 420/420/420 411/411/411 410/410/410 
f 420/420/420 419/419/419 411/411/411 
f 416/416/416 421/421/421 417/417/417 
f 421/421/421 422/422/422 417/417/417 
f 423/423/423 416/416/416 418/418/418 
f 423/423/423 421/421/421 416/416/416 
f 424/424/424 418/418/418 419/419/419 
f 424/424/424 423/423/423 418/418/418 
f 421/421/421 425/425/425 422/422/422 
f 426/426/426 422/422/422 425/425/425 
f 426/426/426 425/425/425 427/427/427 
f 428/428/428 427/427/427 425/425/425 
f 429/429/429 425/425/425 421/421/421 
f 428/428/428 425/425/425 429/429/429 
f 429/429/429 421/421/421 423/423/423 
f 430/430/430 428/428/428 429/429/429 
f 431/431/431 429/429/429 423/423/423 
f 430/430/430 429/429/429 431/431/431 
f 431/431/431 423/423/423 424/424/424 
f 432/432/432 430/430/430 431/431/431 
f 432/432/432 431/431/431 433/433/433 
f 433/433/433 431/431/431 424/424/424 
f 434/434/434 432/432/432 433/433/433 
f 435/435/435 424/424/424 419/419/419 
f 433/433/433 424/424/424 435/435/435 
f 435/435/435 419/419/419 420/420/420 
f 434/434/434 433/433/433 436/436/436 
f 436/436/436 433/433/433 435/435/435 
f 437/437/437 434/434/434 436/436/436 
f 438/438/438 435/435/435 420/420/420 
f 436/436/436 435/435/435 438/438/438 
f 437/437/437 436/436/436 439/439/439 
f 439/439/439 436/436/436 438/438/438 
f 440/440/440 437/437/437 439/439/439 
f 438/438/438 420/420/420 441/441/441 
f 441/441/441 420/420/420 410/410/410 
f 441/441/441 410/410/410 409/409/409 
f 440/440/440 439/439/439 442/442/442 
f 443/443/443 440/440/440 442/442/442 
f 439/439/439 438/438/438 444/444/444 
f 444/444/444 438/438/438 441/441/441 
f 442/442/442 439/439/439 444/444/444 
f 445/445/445 441/441/441 409/409/409 
f 444/444/444 441/441/441 445/445/445 
f 445/445/445 409/409/409 404/404/404 
f 443/443/443 442/442/442 446/446/446 
f 447/447/447 443/443/443 446/446/446 
f 442/442/442 444/444/444 448/448/448 
f 448/448/448 444/444/444 445/445/445 
f 446/446/446 442/442/442 448/448/448 
f 449/449/449 445/445/445 404/404/404 
f 448/448/448 445/445/445 449/449/449 
f 449/449/449 404/404/404 389/389/389 
f 447/447/447 446/446/446 450/450/450 
f 451/451/451 447/447/447 450/450/450 
f 446/446/446 448/448/448 452/452/452 
f 452/452/452 448/448/448 449/449/449 
f 450/450/450 446/446/446 452/452/452 
f 453/453/453 449/449/449 389/389/389 
f 452/452/452 449/449/449 453/453/453 
f 453/453/453 389/389/389 383/383/383 
f 384/384/384 453/453/453 383/383/383 
f 454/454/454 452/452/452 453/453/453 
f 450/450/450 452/452/452 454/454/454 
f 454/454/454 453/453/453 384/384/384 
f 451/451/451 450/450/450 455/455/455 
f 455/455/455 450/450/450 454/454/454 
f 456/456/456 451/451/451 455/455/455 
f 457/457/457 454/454/454 384/384/384 
f 455/455/455 454/454/454 457/457/457 
f 457/457/457 384/384/384 376/376/376 
f 374/374/374 457/457/457 376/376/376 
f 456/456/456 455/455/455 458/458/458 
f 458/458/458 455/455/455 457/457/457 
f 458/458/458 457/457/457 374/374/374 
f 372/372/372 458/458/458 374/374/374 
f 459/459/459 456/456/456 458/458/458 
f 459/459/459 458/458/458 372/372/372 
f 459/459/459 372/372/372 373/373/373 
f 459/459/459 373/373/373 460/460/460 
f 461/461/461 463/463/463 462/462/462 
f 461/461/461 464/464/464 463/463/463 
f 465/465/465 461/461/461 462/462/462 
f 464/464/464 466/466/466 463/463/463 
f 465/465/465 462/462/462 467/467/467 
f 464/464/464 468/468/468 466/466/466 
f 469/469/469 465/465/465 467/467/467 
f 468/468/468 470/470/470 466/466/466 
f 469/469/469 467/467/467 471/471/471 
f 468/468/468 472/472/472 470/470/470 
f 473/473/473 469/469/469 471/471/471 
f 472/472/472 474/474/474 470/470/470 
f 473/473/473 471/471/471 475/475/475 
f 472/472/472 476/476/476 474/474/474 
f 477/477/477 473/473/473 475/475/475 
f 476/476/476 478/478/478 474/474/474 
f 477/477/477 475/475/475 479/479/479 
f 476/476/476 480/480/480 478/478/478 
f 481/481/481 477/477/477 479/479/479 
f 480/480/480 482/482/482 478/478/478 
f 481/481/481 479/479/479 483/483/483 
f 480/480/480 484/484/484 482/482/482 
f 485/485/485 481/481/481 483/483/483 
f 484/484/484 486/486/486 482/482/482 
f 485/485/485 483/483/483 487/487/487 
f 484/484/484 488/488/488 486/486/486 
f 489/489/489 485/485/485 487/487/487 
f 488/488/488 490/490/490 486/486/486 
f 489/489/489 487/487/487 491/491/491 
f 488/488/488 492/492/492 490/490/490 
f 493/493/493 489/489/489 491/491/491 
f 492/492/492 494/494/494 490/490/490 
f 493/493/493 491/491/491 495/495/495 
f 492/492/492 496/496/496 494/494/494 
f 497/497/497 493/493/493 495/495/495 
f 496/496/496 498/498/498 494/494/494 
f 497/497/497 495/495/495 499/499/499 
f 496/496/496 500/500/500 498/498/498 
f 501/501/501 497/497/497 499/499/499 
f 500/500/500 502/502/502 498/498/498 
f 501/501/501 499/499/499 503/503/503 
f 500/500/500 504/504/504 502/502/502 
f 505/505/505 501/501/501 503/503/503 
f 504/504/504 506/506/506 502/502/502 
f 505/505/505 503/503/503 507/507/507 
f 504/504/504 508/508/508 506/506/506 
f 509/509/509 505/505/505 507/507/507 
f 508/508/508 510/510/510 506/506/506 
f 509/509/509 507/507/507 511/511/511 
f 508/508/508 512/512/512 510/510/510 
f 512/512/512 509/509/509 511/511/511 
f 512/512/512 511/511/511 510/510/510 
