# exported by StudySceneExporter from mesh 'Light_Fixture_Plate_low'
mtllib materials.mtl
v 0.00897417 0.1021347 -0.4317389
v 0.01146807 0.1046286 0
v 0.01146807 0.1046286 -0.4317389
v 0.00897417 0.1021347 0
v 0.005053272 0.1041953 -0.4317389
v 0.005053272 0.1041953 0
v -0.002001629 0.1041953 -0.4317389
v -0.002001629 0.1041953 0
v -0.005938015 0.102912 -0.4317389
v -0.005938015 0.102912 0
v -0.007941112 0.09997042 -0.4317389
v -0.007941112 0.09997042 0
v -0.007941112 0.08580016 -0.4317389
v -0.007941112 0.08580016 0
v -0.00562212 0.08180274 -0.4317389
v -0.00562212 0.08180274 0
v 0.00897417 -0.1021348 0
v 0.01146807 -0.1046286 -0.4317389
v 0.01146807 -0.1046286 0
v 0.00897417 -0.1021348 -0.4317389
v 0.005053272 -0.1041953 0
v 0.005053272 -0.1041953 -0.4317389
v -0.002001629 -0.1041953 0
v -0.002001629 -0.1041953 -0.4317389
v -0.005938015 -0.1029121 0
v -0.005938015 -0.1029121 -0.4317389
v -0.007941112 -0.09997045 0
v -0.007941112 -0.09997045 -0.4317389
v -0.007941112 -0.08180272 0
v -0.007941112 -0.08180272 -0.4317389
v -0.00562212 -0.07580659 0
v -0.00562212 -0.07580659 -0.4317389
v 0.005053272 0.1077222 0
v 0.01146807 0.1046286 -0.4317389
v 0.01146807 0.1046286 0
v 0.005053272 0.1077222 -0.4317389
v 0.00897417 0.1021347 -0.4317389
v -0.002001629 0.1077222 0
v 0.005053272 0.1041953 -0.4317389
v -0.002001629 0.1077222 -0.4317389
v -0.008431911 0.105406 0
v -0.002001629 0.1041953 -0.4317389
v -0.008431911 0.105406 -0.4317389
v -0.01146807 0.09997042 0
v -0.005938015 0.102912 -0.4317389
v -0.01146807 0.09997042 -0.4317389
v -0.007941112 0.09997042 -0.4317389
v -0.01146807 0.08580016 0
v -0.007941112 0.08580016 -0.4317389
v -0.01146807 0.08580016 -0.4317389
v -0.009149075 0.08180274 0
v -0.00562212 0.08180274 -0.4317389
v -0.009149075 0.08180274 -0.4317389
v -0.009149075 0.02734324 0
v -0.009149075 0.02734324 -0.4317389
v -0.00562212 0.02734324 -0.4317389
v -0.01146807 0.02334582 0
v -0.007941112 0.02334582 -0.4317389
v -0.01146807 0.02334582 -0.4317389
v -0.01146807 -0.02334588 0
v -0.007941112 -0.02334588 -0.4317389
v -0.01146807 -0.02334588 -0.4317389
v -0.009149075 -0.0273433 0
v -0.00562212 -0.0273433 -0.4317389
v -0.009149075 -0.0273433 -0.4317389
v -0.009149075 -0.07580659 0
v -0.009149075 -0.07580659 -0.4317389
v -0.00562212 -0.07580659 -0.4317389
v -0.01146807 -0.08180272 0
v -0.007941112 -0.08180272 -0.4317389
v -0.01146807 -0.08180272 -0.4317389
v -0.01146807 -0.09997045 0
v -0.007941112 -0.09997045 -0.4317389
v -0.01146807 -0.09997045 -0.4317389
v -0.008431911 -0.105406 0
v -0.005938015 -0.1029121 -0.4317389
v -0.008431911 -0.105406 -0.4317389
v -0.002001629 -0.1077222 0
v -0.002001629 -0.1041953 -0.4317389
v -0.002001629 -0.1077222 -0.4317389
v 0.005053272 -0.1077222 0
v 0.005053272 -0.1041953 -0.4317389
v 0.005053272 -0.1077222 -0.4317389
v 0.01146807 -0.1046286 0
v 0.00897417 -0.1021348 -0.4317389
v 0.01146807 -0.1046286 -0.4317389
v -0.00562212 -0.07580659 0.4317389
v -0.00562212 -0.07580659 0
v -0.007941112 -0.08180272 0
v -0.007941112 -0.08180272 0.4317389
v -0.007941112 -0.09997045 0
v -0.007941112 -0.09997045 0.4317389
v -0.005938015 -0.1029121 0
v -0.005938015 -0.1029121 0.4317389
v -0.002001629 -0.1041953 0
v -0.002001629 -0.1041953 0.4317389
v 0.005053272 -0.1041953 0
v 0.005053272 -0.1041953 0.4317389
v 0.00897417 -0.1021348 0
v 0.00897417 -0.1021348 0.4317389
v 0.01146807 -0.1046286 0
v 0.01146807 -0.1046286 0.4317389
v 0.01146807 -0.1046286 0.4317389
v 0.01146807 -0.1046286 0
v 0.005053272 -0.1077222 0
v 0.005053272 -0.1077222 0.4317389
v 0.00897417 -0.1021348 0.4317389
v -0.002001629 -0.1077222 0
v 0.005053272 -0.1041953 0.4317389
v -0.002001629 -0.1077222 0.4317389
v -0.008431911 -0.105406 0
v -0.002001629 -0.1041953 0.4317389
v -0.008431911 -0.105406 0.4317389
v -0.01146807 -0.09997045 0
v -0.005938015 -0.1029121 0.4317389
v -0.01146807 -0.09997045 0.4317389
v -0.007941112 -0.09997045 0.4317389
v -0.01146807 -0.08180272 0
v -0.007941112 -0.08180272 0.4317389
v -0.01146807 -0.08180272 0.4317389
v -0.009149075 -0.07580659 0
v -0.00562212 -0.07580659 0.4317389
v -0.009149075 -0.07580659 0.4317389
v -0.009149075 -0.0273433 0
v -0.009149075 -0.0273433 0.4317389
v -0.00562212 -0.0273433 0.4317389
v -0.01146807 -0.02334588 0
v -0.007941112 -0.02334588 0.4317389
v -0.01146807 -0.02334588 0.4317389
v -0.01146807 0.02334582 0
v -0.007941112 0.02334582 0.4317389
v -0.01146807 0.02334582 0.4317389
v -0.009149075 0.02734324 0
v -0.00562212 0.02734324 0.4317389
v -0.009149075 0.02734324 0.4317389
v -0.009149075 0.08180274 0
v -0.009149075 0.08180274 0.4317389
v -0.00562212 0.08180274 0.4317389
v -0.01146807 0.08580016 0
v -0.007941112 0.08580016 0.4317389
v -0.01146807 0.08580016 0.4317389
v -0.01146807 0.09997042 0
v -0.01146807 0.09997042 0.4317389
v -0.007941112 0.09997042 0.4317389
v -0.008431911 0.105406 0
v -0.005938015 0.102912 0.4317389
v -0.008431911 0.105406 0.4317389
v -0.002001629 0.1077222 0
v -0.002001629 0.1041953 0.4317389
v -0.002001629 0.1077222 0.4317389
v 0.005053272 0.1077222 0
v 0.005053272 0.1041953 0.4317389
v 0.005053272 0.1077222 0.4317389
v 0.01146807 0.1046286 0
v 0.00897417 0.1021347 0.4317389
v 0.01146807 0.1046286 0.4317389
v 0.00897417 0.1021347 0
v 0.01146807 0.1046286 0.4317389
v 0.01146807 0.1046286 0
v 0.00897417 0.1021347 0.4317389
v 0.005053272 0.1041953 0
v 0.005053272 0.1041953 0.4317389
v -0.002001629 0.1041953 0
v -0.002001629 0.1041953 0.4317389
v -0.005938015 0.102912 0
v -0.005938015 0.102912 0.4317389
v -0.007941112 0.09997042 0
v -0.007941112 0.09997042 0.4317389
v -0.007941112 0.08580016 0
v -0.007941112 0.08580016 0.4317389
v -0.00562212 0.08180274 0
v -0.00562212 0.08180274 0.4317389
vt 0.941355 0.7511022
vt 0.491697 0.7547106
vt 0.9413544 0.7547754
vt 0.4916976 0.7510374
vt 0.9413556 0.7464889
vt 0.4916983 0.7464241
vt 0.9413567 0.7391412
vt 0.4916993 0.7390764
vt 0.9413573 0.7348291
vt 0.4916999 0.7347643
vt 0.9413578 0.7311226
vt 0.4917004 0.7310577
vt 0.9413599 0.7163642
vt 0.4917026 0.7162994
vt 0.9413606 0.711551
vt 0.4917033 0.7114862
vt 0.4745631 0.6062746
vt 0.9242207 0.6026376
vt 0.4745634 0.6026014
vt 0.9242204 0.6063108
vt 0.4745628 0.6108878
vt 0.9242201 0.6109239
vt 0.4745621 0.6182355
vt 0.9242194 0.6182716
vt 0.4745618 0.6225476
vt 0.9242191 0.6225837
vt 0.4745615 0.6262541
vt 0.9242188 0.6262903
vt 0.4745599 0.6451759
vt 0.9242173 0.6452121
vt 0.4745595 0.6518717
vt 0.9242167 0.6519078
vt 0.4305849 0.4625442
vt 0.4231914 0.01281214
vt 0.4231467 0.4625705
vt 0.4305469 0.01365262
vt 0.4254605 0.009428205
vt 0.4379583 0.4625135
vt 0.4303369 0.01023781
vt 0.4378633 0.01399704
vt 0.4451065 0.462477
vt 0.4390641 0.01052261
vt 0.4449348 0.01434197
vt 0.4516131 0.4624386
vt 0.4446408 0.01092267
vt 0.4513758 0.01403251
vt 0.4498643 0.01056365
vt 0.4663883 0.4623381
vt 0.4662243 0.009617706
vt 0.4660947 0.01301616
vt 0.4711973 0.4623024
vt 0.4709722 0.008495006
vt 0.4708431 0.01219314
vt 0.5277818 0.4624024
vt 0.5278033 0.01148757
vt 0.5275496 0.0078125
vt 0.5325918 0.4624237
vt 0.5322294 0.008590876
vt 0.5325741 0.01217523
vt 0.5812092 0.4622568
vt 0.5816603 0.008777034
vt 0.5813015 0.0123246
vt 0.5860122 0.4622335
vt 0.5863503 0.007956847
vt 0.5860822 0.01165707
vt 0.6364198 0.4622751
vt 0.6367211 0.01203533
vt 0.6366496 0.008361754
vt 0.6431193 0.4622963
vt 0.6434782 0.009295027
vt 0.6433606 0.01291878
vt 0.6621121 0.4623129
vt 0.6636388 0.01100676
vt 0.6621789 0.01436397
vt 0.6686258 0.4623174
vt 0.6688855 0.01130325
vt 0.6686104 0.01470503
vt 0.6757708 0.4623166
vt 0.6744611 0.01087702
vt 0.6756844 0.01434578
vt 0.6831399 0.4623102
vt 0.6831919 0.01055208
vt 0.6830035 0.0139693
vt 0.6905646 0.4623037
vt 0.6880703 0.009715049
vt 0.6903676 0.01308729
vt 0.4745595 0.5944079
vt 0.9242169 0.5944441
vt 0.9242175 0.5877483
vt 0.47456 0.5877121
vt 0.924219 0.5688266
vt 0.4745615 0.5687903
vt 0.9242194 0.56512
vt 0.4745618 0.5650839
vt 0.9242197 0.5608079
vt 0.4745622 0.5607717
vt 0.9242203 0.5534602
vt 0.4745628 0.553424
vt 0.9242206 0.5488471
vt 0.4745631 0.5488108
vt 0.9242209 0.5451738
vt 0.4745634 0.5451376
vt 0.2751729 0.4573186
vt 0.2751535 0.008415908
vt 0.2677147 0.008408457
vt 0.2678217 0.4564458
vt 0.2728893 0.4606927
vt 0.2603397 0.008406103
vt 0.2680184 0.4598617
vt 0.2605081 0.4560728
vt 0.2531891 0.008411139
vt 0.2593032 0.4595439
vt 0.2534394 0.4557139
vt 0.2466801 0.008421123
vt 0.25374 0.4591306
vt 0.2470021 0.4560404
vt 0.2485159 0.4594902
vt 0.2277475 0.00845778
vt 0.228217 0.4610468
vt 0.2281286 0.457525
vt 0.2210605 0.008474618
vt 0.2214145 0.4620723
vt 0.2214728 0.4583789
vt 0.1707314 0.00828144
vt 0.1707615 0.4591044
vt 0.1710445 0.4627824
vt 0.1659225 0.008251607
vt 0.1663398 0.4619977
vt 0.16599 0.4584125
vt 0.1173091 0.008332521
vt 0.1169059 0.4617453
vt 0.1172589 0.4581985
vt 0.1125052 0.008347332
vt 0.1122443 0.4625604
vt 0.1124786 0.4588619
vt 0.05587532 0.00808233
vt 0.05555968 0.4586683
vt 0.05570117 0.4623437
vt 0.05105874 0.008042961
vt 0.05095234 0.461242
vt 0.05081895 0.457844
vt 0.03625542 0.007949859
vt 0.03612889 0.4568107
vt 0.03461441 0.4602787
vt 0.02974541 0.007912844
vt 0.02939268 0.4599116
vt 0.0296917 0.4564922
vt 0.02260361 0.007877171
vt 0.02381156 0.4603035
vt 0.02261352 0.4568273
vt 0.01523646 0.007845223
vt 0.01507652 0.4605775
vt 0.01529058 0.4571619
vt 0.0078125 0.0078125
vt 0.01019304 0.4613853
vt 0.007920809 0.4580007
vt 0.9242173 0.6996812
vt 0.4745595 0.7032896
vt 0.9242169 0.7033545
vt 0.47456 0.6996163
vt 0.9242181 0.695068
vt 0.4745606 0.6950032
vt 0.924219 0.6877204
vt 0.4745617 0.6876554
vt 0.9242197 0.6834082
vt 0.4745623 0.6833433
vt 0.9242203 0.6797016
vt 0.4745629 0.6796368
vt 0.9242224 0.6649433
vt 0.474565 0.6648784
vt 0.9242231 0.6601301
vt 0.4745657 0.6600652
vn 0.06739349 -0.9977265 0
vn 0.7071057 -0.7071078 0
vn 0.7071057 -0.7071078 0
vn 0.0673935 -0.9977265 0
vn -0.1845157 -0.9828296 0
vn -0.1845157 -0.9828296 0
vn 0.1159663 -0.9932532 0
vn 0.1159663 -0.9932532 0
vn 0.5796355 -0.8148759 0
vn 0.5796355 -0.8148759 0
vn 0.9932182 -0.1162652 0
vn 0.9932182 -0.1162652 0
vn 0.9919518 0.1266164 0
vn 0.9919518 0.1266164 0
vn 0.8649853 0.5017971 0
vn 0.8649853 0.5017971 0
vn 0.06739786 0.9977261 0
vn 0.7070977 0.7071158 0
vn 0.7070977 0.7071158 0
vn 0.06739786 0.9977261 0
vn -0.1845084 0.9828309 0
vn -0.1845084 0.9828309 0
vn 0.1159638 0.9932535 0
vn 0.1159638 0.9932535 0
vn 0.5796381 0.814874 0
vn 0.579638 0.8148741 0
vn 0.995528 0.09446719 0
vn 0.995528 0.0944672 0
vn 0.9954266 -0.09553063 0
vn 0.9954266 -0.09553063 0
vn 0.9326779 -0.3607105 0
vn 0.9326779 -0.3607105 0
vn 0.2238421 0.9746255 0
vn 0.4343779 0.9007179 -0.00479875
vn 0.434383 0.9007283 0
vn 0.2238375 0.9746054 -0.006415881
vn 0 -2.032242E-05 -1
vn -0.1692791 0.9855682 0
vn 0 -1.00936E-05 -1
vn -0.1692754 0.9855469 -0.006568268
vn -0.6335548 0.7736979 0
vn 0 0 -1
vn -0.6335472 0.7736886 -0.004890903
vn -0.9882207 0.1530357 0
vn 0 0 -1
vn -0.9881959 0.1530319 -0.00707719
vn 0 0 -1
vn -0.9919518 -0.1266164 0
vn 0 -7.400682E-06 -1
vn -0.9919239 -0.1266129 -0.00750655
vn -0.9992141 -0.03963894 0
vn 0 -1.259858E-06 -1
vn -0.9991792 -0.03963758 -0.008349343
vn -0.9992141 0.03963894 0
vn -0.9991792 0.03963756 -0.008349343
vn 0 0 -1
vn -0.9989551 0.04570152 0
vn 0 0 -1
vn -0.9989236 0.04570008 -0.007945079
vn -0.9989551 -0.04570152 0
vn 0 -2.774588E-06 -1
vn -0.9989236 -0.04570009 -0.007945079
vn -0.9990244 -0.04416124 0
vn 0 -1.407628E-06 -1
vn -0.9989894 -0.04415972 -0.008369096
vn -0.9990946 0.04254346 0
vn -0.9990596 0.04254197 -0.008372669
vn 0 0 -1
vn -0.9954266 0.09553063 0
vn 0 0 -1
vn -0.9953973 0.09552783 -0.00765758
vn -0.9918281 -0.1275816 0
vn 0 0 -1
vn -0.9918019 -0.1275783 -0.007272268
vn -0.6335548 -0.7736979 0
vn 0 0 -1
vn -0.6335471 -0.7736887 -0.004890875
vn -0.1692771 -0.9855685 0
vn 0 0 -1
vn -0.1692734 -0.9855473 -0.006568225
vn 0.2238382 -0.9746264 0
vn 0 2.018745E-05 -1
vn 0.2238336 -0.9746062 -0.006415819
vn 0.4343765 -0.9007314 0
vn 0 4.064586E-05 -1
vn 0.4343716 -0.900721 -0.004798571
vn 0.9326779 -0.3607105 0
vn 0.9326779 -0.3607105 0
vn 0.9954266 -0.09553063 0
vn 0.9954266 -0.09553063 0
vn 0.995528 0.09446719 0
vn 0.995528 0.09446719 0
vn 0.5796381 0.814874 0
vn 0.5796381 0.814874 0
vn 0.1159638 0.9932535 0
vn 0.1159638 0.9932535 0
vn -0.1845084 0.9828309 0
vn -0.1845084 0.9828309 0
vn 0.06739786 0.9977261 0
vn 0.06739786 0.9977261 0
vn 0.7070977 0.7071158 0
vn 0.7070977 0.7071158 0
vn 0.4343715 -0.9007211 0.004798583
vn 0.4343765 -0.9007314 0
vn 0.2238382 -0.9746264 0
vn 0.2238336 -0.9746062 0.006415825
vn 0 -4.064566E-05 1
vn -0.1692771 -0.9855685 0
vn 0 -2.018737E-05 1
vn -0.1692735 -0.9855473 0.006568227
vn -0.6335548 -0.7736979 0
vn 0 -9.889746E-06 1
vn -0.6335472 -0.7736886 0.004890876
vn -0.9918281 -0.1275816 0
vn 0 -1.214178E-05 1
vn -0.9918019 -0.1275783 0.007272268
vn 0 0 1
vn -0.9954266 0.09553063 0
vn 0 5.223083E-06 1
vn -0.9953973 0.09552785 0.00765758
vn -0.9990946 0.04254346 0
vn 0 1.559789E-06 1
vn -0.9990596 0.042542 0.008372669
vn -0.9990244 -0.04416124 0
vn -0.9989894 -0.0441597 0.008369096
vn 0 0 1
vn -0.9989551 -0.04570152 0
vn 0 0 1
vn -0.9989236 -0.04570008 0.007945079
vn -0.9989551 0.04570152 0
vn 0 2.774588E-06 1
vn -0.9989236 0.04570009 0.007945079
vn -0.9992141 0.03963894 0
vn 0 1.259858E-06 1
vn -0.9991792 0.03963758 0.008349343
vn -0.9992141 -0.03963894 0
vn -0.9991792 -0.03963756 0.008349343
vn 0 0 1
vn -0.9919518 -0.1266164 0
vn 0 0 1
vn -0.9919239 -0.1266129 0.00750655
vn -0.9882207 0.1530357 0
vn -0.9881959 0.1530319 0.00707719
vn 0 0 1
vn -0.6335548 0.7736979 0
vn 0 0 1
vn -0.6335472 0.7736886 0.00489091
vn -0.1692791 0.9855682 0
vn 0 0 1
vn -0.1692755 0.9855469 0.006568277
vn 0.2238421 0.9746255 0
vn 0 0 1
vn 0.2238375 0.9746054 0.006415889
vn 0.434383 0.9007283 0
vn 0 0 1
vn 0.434378 0.9007179 0.004798764
vn 0.0673935 -0.9977265 0
vn 0.7071057 -0.7071078 0
vn 0.7071057 -0.7071078 0
vn 0.06739349 -0.9977265 0
vn -0.1845157 -0.9828296 0
vn -0.1845157 -0.9828296 0
vn 0.1159663 -0.9932532 0
vn 0.1159663 -0.9932532 0
vn 0.5796355 -0.8148759 0
vn 0.5796355 -0.8148759 0
vn 0.9932182 -0.1162652 0
vn 0.9932182 -0.1162652 0
vn 0.9919518 0.1266164 0
vn 0.9919518 0.1266164 0
vn 0.8649853 0.5017971 0
vn 0.8649853 0.5017971 0
usemtl Light_Fixture
f 1/1/1 3/3/3 2/2/2 
f 1/1/1 2/2/2 4/4/4 
f 4/4/4 5/5/5 1/1/1 
f 4/4/4 6/6/6 5/5/5 
f 6/6/6 7/7/7 5/5/5 
f 6/6/6 8/8/8 7/7/7 
f 8/8/8 9/9/9 7/7/7 
f 8/8/8 10/10/10 9/9/9 
f 10/10/10 11/11/11 9/9/9 
f 10/10/10 12/12/12 11/11/11 
f 12/12/12 13/13/13 11/11/11 
f 12/12/12 14/14/14 13/13/13 
f 14/14/14 15/15/15 13/13/13 
f 14/14/14 16/16/16 15/15/15 
f 17/17/17 19/19/19 18/18/18 
f 17/17/17 18/18/18 20/20/20 
f 21/21/21 17/17/17 20/20/20 
f 21/21/21 20/20/20 22/22/22 
f 23/23/23 21/21/21 22/22/22 
f 23/23/23 22/22/22 24/24/24 
f 25/25/25 23/23/23 24/24/24 
f 25/25/25 24/24/24 26/26/26 
f 27/27/27 25/25/25 26/26/26 
f 27/27/27 26/26/26 28/28/28 
f 29/29/29 27/27/27 28/28/28 
f 29/29/29 28/28/28 30/30/30 
f 31/31/31 29/29/29 30/30/30 
f 31/31/31 30/30/30 32/32/32 
f 33/33/33 35/35/35 34/34/34 
f 33/33/33 34/34/34 36/36/36 
f 36/36/36 34/34/34 37/37/37 
f 38/38/38 33/33/33 36/36/36 
f 36/36/36 37/37/37 39/39/39 
f 38/38/38 36/36/36 40/40/40 
f 40/40/40 36/36/36 39/39/39 
f 41/41/41 38/38/38 40/40/40 
f 40/40/40 39/39/39 42/42/42 
f 41/41/41 40/40/40 43/43/43 
f 43/43/43 40/40/40 42/42/42 
f 44/44/44 41/41/41 43/43/43 
f 43/43/43 42/42/42 45/45/45 
f 44/44/44 43/43/43 46/46/46 
f 46/46/46 43/43/43 45/45/45 
f 46/46/46 45/45/45 47/47/47 
f 48/48/48 44/44/44 46/46/46 
f 46/46/46 47/47/47 49/49/49 
f 48/48/48 46/46/46 50/50/50 
f 46/46/46 49/49/49 50/50/50 
f 51/51/51 48/48/48 50/50/50 
f 50/50/50 49/49/49 52/52/52 
f 51/51/51 50/50/50 53/53/53 
f 50/50/50 52/52/52 53/53/53 
f 54/54/54 51/51/51 53/53/53 
f 52/52/52 55/55/55 53/53/53 
f 54/54/54 53/53/53 55/55/55 
f 52/52/52 56/56/56 55/55/55 
f 57/57/57 54/54/54 55/55/55 
f 55/55/55 56/56/56 58/58/58 
f 57/57/57 55/55/55 59/59/59 
f 55/55/55 58/58/58 59/59/59 
f 60/60/60 57/57/57 59/59/59 
f 59/59/59 58/58/58 61/61/61 
f 60/60/60 59/59/59 62/62/62 
f 59/59/59 61/61/61 62/62/62 
f 63/63/63 60/60/60 62/62/62 
f 62/62/62 61/61/61 64/64/64 
f 63/63/63 62/62/62 65/65/65 
f 62/62/62 64/64/64 65/65/65 
f 66/66/66 63/63/63 65/65/65 
f 64/64/64 67/67/67 65/65/65 
f 66/66/66 65/65/65 67/67/67 
f 64/64/64 68/68/68 67/67/67 
f 69/69/69 66/66/66 67/67/67 
f 67/67/67 68/68/68 70/70/70 
f 69/69/69 67/67/67 71/71/71 
f 67/67/67 70/70/70 71/71/71 
f 72/72/72 69/69/69 71/71/71 
f 71/71/71 70/70/70 73/73/73 
f 72/72/72 71/71/71 74/74/74 
f 71/71/71 73/73/73 74/74/74 
f 75/75/75 72/72/72 74/74/74 
f 74/74/74 73/73/73 76/76/76 
f 75/75/75 74/74/74 77/77/77 
f 74/74/74 76/76/76 77/77/77 
f 78/78/78 75/75/75 77/77/77 
f 77/77/77 76/76/76 79/79/79 
f 78/78/78 77/77/77 80/80/80 
f 77/77/77 79/79/79 80/80/80 
f 81/81/81 78/78/78 80/80/80 
f 80/80/80 79/79/79 82/82/82 
f 81/81/81 80/80/80 83/83/83 
f 80/80/80 82/82/82 83/83/83 
f 84/84/84 81/81/81 83/83/83 
f 83/83/83 82/82/82 85/85/85 
f 84/84/84 83/83/83 86/86/86 
f 83/83/83 85/85/85 86/86/86 
f 87/87/87 89/89/89 88/88/88 
f 87/87/87 90/90/90 89/89/89 
f 90/90/90 91/91/91 89/89/89 
f 90/90/90 92/92/92 91/91/91 
f 92/92/92 93/93/93 91/91/91 
f 92/92/92 94/94/94 93/93/93 
f 94/94/94 95/95/95 93/93/93 
f 94/94/94 96/96/96 95/95/95 
f 96/96/96 97/97/97 95/95/95 
f 96/96/96 98/98/98 97/97/97 
f 98/98/98 99/99/99 97/97/97 
f 98/98/98 100/100/100 99/99/99 
f 100/100/100 101/101/101 99/99/99 
f 100/100/100 102/102/102 101/101/101 
f 103/103/103 105/105/105 104/104/104 
f 103/103/103 106/106/106 105/105/105 
f 106/106/106 103/103/103 107/107/107 
f 106/106/106 108/108/108 105/105/105 
f 106/106/106 107/107/107 109/109/109 
f 106/106/106 110/110/110 108/108/108 
f 110/110/110 106/106/106 109/109/109 
f 110/110/110 111/111/111 108/108/108 
f 110/110/110 109/109/109 112/112/112 
f 110/110/110 113/113/113 111/111/111 
f 113/113/113 110/110/110 112/112/112 
f 113/113/113 114/114/114 111/111/111 
f 113/113/113 112/112/112 115/115/115 
f 113/113/113 116/116/116 114/114/114 
f 116/116/116 113/113/113 115/115/115 
f 116/116/116 115/115/115 117/117/117 
f 116/116/116 118/118/118 114/114/114 
f 119/119/119 116/116/116 117/117/117 
f 116/116/116 120/120/120 118/118/118 
f 119/119/119 120/120/120 116/116/116 
f 120/120/120 121/121/121 118/118/118 
f 122/122/122 120/120/120 119/119/119 
f 120/120/120 123/123/123 121/121/121 
f 122/122/122 123/123/123 120/120/120 
f 123/123/123 124/124/124 121/121/121 
f 125/125/125 123/123/123 122/122/122 
f 123/123/123 125/125/125 124/124/124 
f 125/125/125 122/122/122 126/126/126 
f 125/125/125 127/127/127 124/124/124 
f 128/128/128 125/125/125 126/126/126 
f 125/125/125 129/129/129 127/127/127 
f 128/128/128 129/129/129 125/125/125 
f 129/129/129 130/130/130 127/127/127 
f 131/131/131 129/129/129 128/128/128 
f 129/129/129 132/132/132 130/130/130 
f 131/131/131 132/132/132 129/129/129 
f 132/132/132 133/133/133 130/130/130 
f 134/134/134 132/132/132 131/131/131 
f 132/132/132 135/135/135 133/133/133 
f 134/134/134 135/135/135 132/132/132 
f 135/135/135 136/136/136 133/133/133 
f 137/137/137 135/135/135 134/134/134 
f 135/135/135 137/137/137 136/136/136 
f 137/137/137 134/134/134 138/138/138 
f 137/137/137 139/139/139 136/136/136 
f 140/140/140 137/137/137 138/138/138 
f 137/137/137 141/141/141 139/139/139 
f 140/140/140 141/141/141 137/137/137 
f 141/141/141 142/142/142 139/139/139 
f 143/143/143 141/141/141 140/140/140 
f 141/141/141 143/143/143 142/142/142 
f 143/143/143 140/140/140 144/144/144 
f 143/143/143 145/145/145 142/142/142 
f 143/143/143 144/144/144 146/146/146 
f 143/143/143 147/147/147 145/145/145 
f 143/143/143 146/146/146 147/147/147 
f 147/147/147 148/148/148 145/145/145 
f 147/147/147 146/146/146 149/149/149 
f 147/147/147 150/150/150 148/148/148 
f 147/147/147 149/149/149 150/150/150 
f 150/150/150 151/151/151 148/148/148 
f 150/150/150 149/149/149 152/152/152 
f 150/150/150 153/153/153 151/151/151 
f 150/150/150 152/152/152 153/153/153 
f 153/153/153 154/154/154 151/151/151 
f 153/153/153 152/152/152 155/155/155 
f 153/153/153 156/156/156 154/154/154 
f 153/153/153 155/155/155 156/156/156 
f 157/157/157 159/159/159 158/158/158 
f 157/157/157 158/158/158 160/160/160 
f 160/160/160 161/161/161 157/157/157 
f 160/160/160 162/162/162 161/161/161 
f 162/162/162 163/163/163 161/161/161 
f 162/162/162 164/164/164 163/163/163 
f 164/164/164 165/165/165 163/163/163 
f 164/164/164 166/166/166 165/165/165 
f 166/166/166 167/167/167 165/165/165 
f 166/166/166 168/168/168 167/167/167 
f 168/168/168 169/169/169 167/167/167 
f 168/168/168 170/170/170 169/169/169 
f 170/170/170 171/171/171 169/169/169 
f 170/170/170 172/172/172 171/171/171 
