# exported by StudySceneExporter from mesh 'mug03'
mtllib materials.mtl
v 5.243109E-09 -0.08428761 0.1849545
v -0.01982605 -0.08043743 0.2081228
v 5.170349E-09 -0.08284475 0.2081228
v -0.02017135 -0.08183835 0.1849545
v -0.01261167 -0.08335342 0.1781807
v -0.03849988 -0.07335538 0.2081228
v -0.0176404 -0.08373783 0.166894
v -0.03917041 -0.07463297 0.1849545
v -0.05493625 -0.06201018 0.2081228
v -0.02101598 -0.08526516 0.1449194
v -0.01359959 -0.08535301 0.1541377
v 5.569145E-09 -0.08781694 0.1449194
v -0.05589303 -0.06309017 0.1849545
v -0.06817991 -0.04706118 0.2081228
v -0.04081058 -0.07775804 0.1449194
v -0.02201957 -0.0893369 0.09321009
v 5.393867E-09 -0.09201054 0.09321009
v -0.0219861 -0.08920112 0.0670518
v 5.179735E-09 -0.09187069 0.0670518
v -0.01252481 -0.08932665 0.06144468
v -0.01772202 -0.08627018 0.04815428
v -0.04275944 -0.08147129 0.09321009
v -0.05823343 -0.06573193 0.1449194
v -0.06936735 -0.04788079 0.1849545
v -0.07746121 -0.02937714 0.2081228
v -0.02027949 -0.0822771 0.0279755
v -0.01325203 -0.08451862 0.03558243
v 4.470039E-09 -0.08473945 0.0279755
v -0.04269445 -0.08134747 0.0670518
v -0.06101429 -0.06887088 0.09321009
v -0.07227195 -0.04988569 0.1449194
v -0.0788103 -0.02988878 0.1849545
v -0.08224073 -0.009985809 0.2081228
v -0.01686041 -0.06840537 -1.430511E-08
v 4.18111E-09 -0.07045258 -9.536743E-09
v -0.03274096 -0.06238267 -1.430511E-08
v -0.03938041 -0.07503307 0.0279755
v -0.04671872 -0.05273451 -9.536743E-09
v -0.05619268 -0.0634284 0.0279755
v -0.05798136 -0.04002163 -9.536743E-09
v -0.06092156 -0.0687662 0.0670518
v -0.06973922 -0.04813749 0.0279755
v -0.06587434 -0.02498281 -9.536743E-09
v -0.07560812 -0.05218848 0.0670518
v -0.0792328 -0.030049 0.0279755
v -0.06993893 -0.008492097 -9.536743E-09
v -0.07572322 -0.05226793 0.09321009
v -0.08590061 -0.03257778 0.0670518
v -0.08412164 -0.01021419 0.0279755
v -0.06993893 0.008492155 -9.536743E-09
v -0.08603138 -0.03262736 0.09321009
v -0.09120087 -0.01107376 0.0670518
v -0.08412164 0.01021425 0.0279755
v -0.06587434 0.02498287 -9.536743E-09
v -0.0821103 -0.0311403 0.1449194
v -0.0913397 -0.01109062 0.09321009
v -0.09120087 0.01107383 0.0670518
v -0.0792328 0.03004908 0.02797551
v -0.05798136 0.04002168 -9.536743E-09
v -0.08717668 -0.01058514 0.1449194
v -0.0913397 0.01109068 0.09321009
v -0.08590061 0.03257784 0.0670518
v -0.06973923 0.04813757 0.02797551
v -0.04671872 0.05273456 -9.536743E-09
v -0.08367305 -0.01015972 0.1849545
v -0.08224073 0.009985866 0.2081228
v -0.08717668 0.01058519 0.1449194
v -0.08367305 0.01015978 0.1849545
v -0.07746121 0.02937719 0.2081228
v -0.08603138 0.03262745 0.09321009
v -0.07560812 0.05218855 0.06705181
v -0.05619267 0.06342845 0.02797551
v -0.03274095 0.06238274 -9.536743E-09
v -0.0788103 0.02988884 0.1849545
v -0.06817991 0.04706121 0.2081228
v -0.0821103 0.03114036 0.1449195
v -0.07572322 0.05226801 0.0932101
v -0.0393804 0.07503315 0.02797551
v -0.0168604 0.06840542 -9.536743E-09
v -0.06092155 0.06876629 0.06705181
v -0.06936736 0.04788086 0.1849545
v -0.05493624 0.06201023 0.2081228
v -0.07227196 0.04988575 0.1449195
v -0.02027947 0.08227718 0.02797551
v 2.713748E-08 0.07045265 -9.536743E-09
v -0.04269444 0.08134754 0.06705181
v -0.06101429 0.06887095 0.0932101
v -0.05589303 0.06309021 0.1849545
v -0.03849987 0.07335544 0.2081228
v -0.05823342 0.065732 0.1449195
v 3.208172E-08 0.08473953 0.02797551
v 0.01686045 0.06840542 -9.536743E-09
v -0.04275943 0.08147137 0.09321009
v -0.02198608 0.08920118 0.0670518
v -0.0391704 0.07463302 0.1849545
v -0.01982603 0.0804375 0.2081228
v -0.04081057 0.07775812 0.1449195
v 0.02027953 0.08227714 0.02797551
v 0.032741 0.06238272 -9.536743E-09
v -0.02201955 0.08933697 0.0932101
v 3.511506E-08 0.0918708 0.06705181
v -0.02017133 0.08183841 0.1849545
v 3.216459E-08 0.08284481 0.2081228
v -0.02101595 0.08526521 0.1449194
v 0.03938046 0.07503313 0.02797551
v 0.04671877 0.05273455 -9.536743E-09
v 3.537474E-08 0.09201063 0.09321009
v 0.02198615 0.08920114 0.0670518
v 3.270752E-08 0.08428766 0.1849545
v 0.01982609 0.08043747 0.2081228
v 3.418359E-08 0.08781702 0.1449194
v 0.05619274 0.06342842 0.02797551
v 0.05798139 0.04002165 -9.536743E-09
v 0.02201962 0.08933697 0.0932101
v 0.04269451 0.08134752 0.06705181
v 0.02017139 0.08183841 0.1849545
v 0.03849993 0.07335541 0.2081228
v 0.02101602 0.08526521 0.1449194
v 0.06973929 0.04813751 0.02797551
v 0.06587437 0.02498281 -9.536743E-09
v 0.04275949 0.08147135 0.09321009
v 0.06092162 0.06876623 0.06705181
v 0.03917046 0.07463299 0.1849545
v 0.05493629 0.06201019 0.2081228
v 0.04081064 0.0777581 0.1449195
v 0.07923286 0.03004902 0.02797551
v 0.06993895 0.008492088 -9.536743E-09
v 0.06101435 0.0688709 0.0932101
v 0.07560818 0.05218851 0.06705181
v 0.05589308 0.06309021 0.1849545
v 0.06817996 0.04706118 0.2081228
v 0.05823348 0.06573197 0.1449195
v 0.08412168 0.01021418 0.0279755
v 0.06993894 -0.008492164 -9.536743E-09
v 0.07572327 0.05226795 0.0932101
v 0.08590066 0.03257778 0.0670518
v 0.0693674 0.04788082 0.1849545
v 0.07746124 0.02937714 0.2081228
v 0.072272 0.04988571 0.1449194
v 0.08412167 -0.01021427 0.0279755
v 0.06587432 -0.02498289 -9.536743E-09
v 0.08603141 0.03262735 0.0932101
v 0.09120093 0.01107375 0.0670518
v 0.07881033 0.02988878 0.1849545
v 0.08224075 0.00998578 0.2081228
v 0.08211034 0.03114029 0.1449194
v 0.07923279 -0.0300491 0.0279755
v 0.05798133 -0.0400217 -9.536743E-09
v 0.09133974 0.0110906 0.0932101
v 0.09120091 -0.01107386 0.0670518
v 0.0836731 0.0101597 0.1849545
v 0.08224073 -0.009985886 0.2081228
v 0.08717672 0.01058512 0.1449195
v 0.0697392 -0.04813759 0.0279755
v 0.04671866 -0.05273458 -9.536743E-09
v 0.09133973 -0.01109071 0.09321009
v 0.0859006 -0.03257788 0.0670518
v 0.08367307 -0.01015982 0.1849545
v 0.07746118 -0.02937722 0.2081228
v 0.0871767 -0.01058523 0.1449194
v 0.05619262 -0.06342848 0.0279755
v 0.03274088 -0.06238272 -9.536743E-09
v 0.08603135 -0.03262747 0.09321009
v 0.07560808 -0.05218859 0.0670518
v 0.07881027 -0.02988886 0.1849545
v 0.06817986 -0.04706125 0.2081228
v 0.08211027 -0.03114039 0.1449194
v 0.03938031 -0.07503314 0.02797551
v 0.01686032 -0.0684054 -1.430511E-08
v 0.02027937 -0.08227714 0.0279755
v 4.18111E-09 -0.07045258 -9.536743E-09
v 4.470039E-09 -0.08473945 0.0279755
v 0.01272976 -0.08458204 0.03558244
v 0.018131 -0.08630551 0.0486199
v 0.0693673 -0.0478809 0.1849545
v 0.05493617 -0.06201026 0.2081228
v 0.07572317 -0.05226803 0.09321009
v 0.07227191 -0.0498858 0.1449194
v 0.02198598 -0.08920116 0.0670518
v 0.01374032 -0.08924659 0.06181459
v 5.179735E-09 -0.09187069 0.0670518
v 0.05589296 -0.06309025 0.1849545
v 0.03849979 -0.07335544 0.2081228
v 0.06092149 -0.06876629 0.0670518
v 0.04269435 -0.08134753 0.0670518
v 0.06101422 -0.06887096 0.09321009
v 0.05823335 -0.06573201 0.1449194
v 0.04275934 -0.08147135 0.09321009
v 0.03917031 -0.07463302 0.1849545
v 0.01982594 -0.08043747 0.2081228
v 0.04081048 -0.07775811 0.1449194
v 0.02101586 -0.0852652 0.1449194
v 0.02201944 -0.08933694 0.09321009
v 5.393867E-09 -0.09201054 0.09321009
v 5.569145E-09 -0.08781694 0.1449194
v 0.0120473 -0.08548267 0.154805
v 0.01750638 -0.08377843 0.1666181
v 0.02017123 -0.0818384 0.1849545
v 5.170349E-09 -0.08284475 0.2081228
v 0.01278384 -0.08330663 0.1784745
v 5.243109E-09 -0.08428761 0.1849545
v -0.01686041 -0.06840537 -1.430511E-08
v 4.18111E-09 -0.07045258 -9.536743E-09
v 0.01686032 -0.0684054 -1.430511E-08
v 0.03274088 -0.06238272 -9.536743E-09
v -0.03274096 -0.06238267 -1.430511E-08
v 0.04671866 -0.05273458 -9.536743E-09
v -0.04671872 -0.05273451 -9.536743E-09
v 0.05798133 -0.0400217 -9.536743E-09
v -0.05798136 -0.04002163 -9.536743E-09
v 0.06587432 -0.02498289 -9.536743E-09
v -0.06587434 -0.02498281 -9.536743E-09
v 0.06993894 -0.008492164 -9.536743E-09
v -0.06993893 -0.008492097 -9.536743E-09
v 0.06993895 0.008492088 -9.536743E-09
v -0.06993893 0.008492155 -9.536743E-09
v 0.06587437 0.02498281 -9.536743E-09
v -0.06587434 0.02498287 -9.536743E-09
v 0.05798139 0.04002165 -9.536743E-09
v -0.05798136 0.04002168 -9.536743E-09
v 0.04671877 0.05273455 -9.536743E-09
v -0.04671872 0.05273456 -9.536743E-09
v 0.032741 0.06238272 -9.536743E-09
v -0.03274095 0.06238274 -9.536743E-09
v 0.01686045 0.06840542 -9.536743E-09
v -0.0168604 0.06840542 -9.536743E-09
v 2.713748E-08 0.07045265 -9.536743E-09
v -0.01811021 -0.07347601 0.2081228
v 5.488018E-09 -0.08585138 0.09136051
v 4.808734E-09 -0.07567497 0.2081228
v -0.02054558 -0.0833567 0.09136051
v -0.03516792 -0.06700686 0.2081228
v 3.966033E-09 -0.08090029 0.0437907
v -0.03989714 -0.07601762 0.09136051
v -0.0501818 -0.05664352 0.2081228
v -0.01936071 -0.07854948 0.0437907
v 1.058633E-09 -0.06286224 0.009674983
v -0.01504392 -0.06103558 0.009674988
v -0.03759625 -0.07163365 0.04379071
v -0.02921356 -0.05566175 0.009674988
v -0.05693001 -0.06426067 0.09136051
v -0.0622793 -0.04298828 0.2081228
v -0.05364683 -0.06055474 0.0437907
v -0.04168539 -0.04705307 0.009674988
v -0.07065432 -0.04876913 0.09136051
v -0.07075734 -0.0268347 0.2081228
v -0.06657965 -0.04595659 0.0437907
v -0.05173463 -0.03570981 0.009674992
v -0.08027245 -0.0304433 0.09136051
v -0.07512324 -0.009121589 0.2081228
v -0.07564311 -0.02868761 0.0437907
v -0.05877725 -0.02229124 0.009674983
v -0.08522545 -0.01034821 0.09136051
v -0.07512324 0.009121628 0.2081228
v -0.08031046 -0.009751434 0.0437907
v -0.06240394 -0.00757719 0.009674988
v -0.08522545 0.01034827 0.09136051
v -0.07075734 0.02683474 0.2081228
v -0.08031046 0.009751491 0.0437907
v -0.06240394 0.007577228 0.009674988
v -0.08027245 0.03044334 0.09136051
v -0.0622793 0.04298832 0.2081228
v -0.07564311 0.02868769 0.04379071
v -0.05877725 0.0222913 0.009674988
v -0.07065432 0.04876919 0.09136051
v -0.0501818 0.05664356 0.2081228
v -0.06657965 0.04595667 0.04379071
v -0.05173463 0.03570986 0.009674988
v -0.05693001 0.06426075 0.09136052
v -0.03516791 0.06700691 0.2081228
v -0.05364683 0.06055481 0.04379071
v -0.04168539 0.04705312 0.009674988
v -0.03989712 0.07601769 0.09136051
v -0.01811019 0.07347606 0.2081228
v -0.03759624 0.07163372 0.04379071
v -0.02921354 0.05566181 0.009674988
v -0.02054556 0.08335676 0.09136052
v 2.946681E-08 0.07567501 0.2081228
v -0.01936069 0.07854953 0.04379071
v -0.01504391 0.06103565 0.009674988
v 3.346197E-08 0.08585144 0.09136051
v 0.01811025 0.07347602 0.2081228
v 3.032676E-08 0.08090038 0.04379071
v 2.154176E-08 0.0628623 0.009674988
v 0.02054563 0.08335674 0.09136052
v 0.03516796 0.06700689 0.2081228
v 0.01936075 0.07854953 0.04379071
v 0.01504395 0.06103563 0.009674988
v 0.03989718 0.07601765 0.09136051
v 0.05018184 0.05664356 0.2081228
v 0.0375963 0.07163372 0.04379071
v 0.02921358 0.05566179 0.009674988
v 0.05693005 0.06426071 0.09136052
v 0.06227933 0.04298828 0.2081228
v 0.05364687 0.06055477 0.04379071
v 0.04168542 0.04705307 0.009674988
v 0.07065436 0.04876915 0.09136051
v 0.07075737 0.02683468 0.2081228
v 0.0665797 0.04595661 0.04379071
v 0.05173466 0.03570984 0.009674988
v 0.08027249 0.03044329 0.09136051
v 0.07512325 0.009121571 0.2081228
v 0.07564314 0.02868763 0.04379071
v 0.05877726 0.02229126 0.009674988
v 0.08522546 0.01034819 0.09136051
v 0.07512324 -0.009121675 0.2081228
v 0.08031046 0.009751415 0.0437907
v 0.06240394 0.00757719 0.009674988
v 0.08522545 -0.0103483 0.09136051
v 0.07075732 -0.02683478 0.2081228
v 0.08031046 -0.009751511 0.0437907
v 0.06240392 -0.007577247 0.009674988
v 0.08027242 -0.03044339 0.09136051
v 0.06227926 -0.04298836 0.2081228
v 0.07564309 -0.02868771 0.0437907
v 0.05877722 -0.02229131 0.009674988
v 0.07065427 -0.04876922 0.09136051
v 0.05018173 -0.0566436 0.2081228
v 0.06657961 -0.04595668 0.0437907
v 0.05173459 -0.03570988 0.009674988
v 0.05692993 -0.06426075 0.09136051
v 0.03516784 -0.06700691 0.2081228
v 0.05364676 -0.06055481 0.0437907
v 0.04168533 -0.04705312 0.009674988
v 0.03989704 -0.07601768 0.09136051
v 0.01811011 -0.07347602 0.2081228
v 0.03759615 -0.0716337 0.0437907
v 0.02921348 -0.05566179 0.009674988
v 0.02054546 -0.08335673 0.09136051
v 4.808734E-09 -0.07567497 0.2081228
v 5.488018E-09 -0.08585138 0.09136051
v 0.0193606 -0.07854951 0.0437907
v 0.01504384 -0.06103561 0.009674983
v 3.966033E-09 -0.08090029 0.0437907
v 1.058633E-09 -0.06286224 0.009674983
v 0.01504384 -0.06103561 0.009674983
v 1.058633E-09 -0.06286224 0.009674983
v -0.01504392 -0.06103558 0.009674988
v 0.02921348 -0.05566179 0.009674988
v -0.02921356 -0.05566175 0.009674988
v 0.04168533 -0.04705312 0.009674988
v -0.04168539 -0.04705307 0.009674988
v 0.05173459 -0.03570988 0.009674988
v -0.05173463 -0.03570981 0.009674992
v 0.05877722 -0.02229131 0.009674988
v -0.05877725 -0.02229124 0.009674983
v 0.06240392 -0.007577247 0.009674988
v -0.06240394 -0.00757719 0.009674988
v 0.06240394 0.00757719 0.009674988
v -0.06240394 0.007577228 0.009674988
v 0.05877726 0.02229126 0.009674988
v -0.05877725 0.0222913 0.009674988
v 0.05173466 0.03570984 0.009674988
v -0.05173463 0.03570986 0.009674988
v 0.04168542 0.04705307 0.009674988
v -0.04168539 0.04705312 0.009674988
v 0.02921358 0.05566179 0.009674988
v -0.02921354 0.05566181 0.009674988
v 0.01504395 0.06103563 0.009674988
v -0.01504391 0.06103565 0.009674988
v 2.154176E-08 0.0628623 0.009674988
v 1.475373E-08 -0.09296439 0.1506772
v 5.569145E-09 -0.08781694 0.1449194
v -0.01359959 -0.08535301 0.1541377
v -0.01126185 -0.09228774 0.155294
v -0.0176404 -0.08373783 0.166894
v -0.01126185 -0.1062915 0.1553294
v 1.330407E-08 -0.1053031 0.1507691
v -0.01592801 -0.09065464 0.1664368
v -0.01261167 -0.08335342 0.1781807
v -0.01592801 -0.1086768 0.1663357
v -0.01126185 -0.1147981 0.1515631
v 1.186198E-08 -0.1119887 0.1478374
v -0.01126185 -0.08902151 0.1775797
v 5.243109E-09 -0.08428761 0.1849545
v -0.01126185 -0.1110622 0.1773421
v -0.01592802 -0.1215787 0.160555
v -0.01126185 -0.1206496 0.1444126
v 1.116989E-08 -0.1166336 0.1420366
v -0.01126185 -0.1283592 0.1695468
v -0.01592802 -0.1303422 0.1501469
v -0.01126186 -0.1248376 0.133325
v 9.814812E-09 -0.1203294 0.1321211
v -0.01126186 -0.1400348 0.1558813
v -0.01592802 -0.1357182 0.1362305
v -0.01126186 -0.126996 0.1191515
v 7.452454E-09 -0.1223429 0.1188038
v -0.01126186 -0.1465988 0.1391361
v -0.01592802 -0.1382266 0.1199908
v -0.01126186 -0.126928 0.1035497
v 6.595055E-09 -0.1222758 0.1039105
v -0.01126186 -0.1494571 0.1208301
v -0.01592802 -0.1381562 0.1026791
v -0.01126186 -0.1246265 0.08829357
v 3.896693E-09 -0.1200944 0.08940411
v -0.01126186 -0.1493844 0.1018085
v -0.01592803 -0.1355648 0.08561325
v -0.01126186 -0.1202031 0.07520757
v 1.873249E-09 -0.1160283 0.07729186
v -0.01126187 -0.146503 0.08293293
v -0.01592803 -0.130279 0.07017709
v -0.01126187 -0.1140381 0.06588972
v -7.678011E-11 -0.1107829 0.06923289
v -0.01126187 -0.1403549 0.06514662
v -0.01592803 -0.1218945 0.05782094
v -0.01126187 -0.1061067 0.06070868
v -8.413377E-10 -0.1045863 0.06512021
v -0.01126187 -0.129751 0.04975215
v -0.01592804 -0.1097761 0.05006136
v -0.01126187 -0.09424482 0.0596803
v -2.478137E-09 -0.09473692 0.06432044
v -0.01252481 -0.08932665 0.06144468
v 5.179735E-09 -0.09187069 0.0670518
v -0.01772202 -0.08627018 0.04815428
v -0.01592804 -0.09305714 0.04848123
v -0.01325203 -0.08451862 0.03558243
v -0.01126187 -0.1134454 0.03941404
v -0.01126188 -0.09186945 0.03728216
v -1.219954E-08 -0.09137736 0.03264202
v 4.470039E-09 -0.08473945 0.0279755
v 0.01272976 -0.08458204 0.03558244
v -9.28756E-09 -0.1149658 0.0350025
v 0.01126185 -0.09186945 0.03728216
v -5.503335E-09 -0.1330062 0.04640898
v 0.01592802 -0.09305713 0.04848121
v 0.018131 -0.08630551 0.0486199
v 0.01126186 -0.1134454 0.03941403
v -2.904508E-09 -0.1445297 0.0630623
v 0.01126186 -0.09424482 0.05968029
v 0.01374032 -0.08924659 0.06181459
v 0.01126186 -0.129751 0.04975214
v 0.01592803 -0.1097761 0.05006135
v -3.791689E-10 -0.1510351 0.08182237
v -2.478137E-09 -0.09473692 0.06432044
v 5.179735E-09 -0.09187069 0.0670518
v 0.01126186 -0.1061067 0.06070868
v -8.413377E-10 -0.1045863 0.06512021
v 0.01126186 -0.1403549 0.0651466
v 0.01592803 -0.1218945 0.05782093
v 0.01126187 -0.1140381 0.06588972
v -7.678011E-11 -0.1107829 0.06923289
v 1.471253E-09 -0.1540366 0.1014478
v 0.01126187 -0.146503 0.08293292
v 0.01592803 -0.130279 0.07017708
v 0.01126187 -0.1202031 0.07520757
v 1.873249E-09 -0.1160283 0.07729186
v 5.16271E-09 -0.1541103 0.1211778
v 0.01126187 -0.1493844 0.1018085
v 0.01592803 -0.1355648 0.08561323
v 0.01126187 -0.1246265 0.08829356
v 3.896693E-09 -0.1200944 0.08940411
v 7.349135E-09 -0.151107 0.1403399
v 0.01126187 -0.1494571 0.12083
v 0.01592803 -0.1381562 0.1026791
v 0.01126187 -0.126928 0.1035497
v 6.595055E-09 -0.1222758 0.1039105
v 1.054284E-08 -0.1440507 0.1582573
v 0.01126187 -0.1465988 0.1391361
v 0.01592804 -0.1382266 0.1199908
v 0.01126187 -0.126996 0.1191515
v 7.452454E-09 -0.1223429 0.1188038
v 1.439954E-08 -0.1311686 0.1732725
v 0.01126188 -0.1400348 0.1558813
v 0.01592804 -0.1357182 0.1362305
v 0.01126188 -0.1248376 0.133325
v 9.814812E-09 -0.1203294 0.1321211
v 1.75063E-08 -0.1120505 0.1819024
v 0.01126188 -0.1283592 0.1695468
v 0.01592805 -0.1303422 0.1501469
v 0.01126188 -0.1206496 0.1444126
v 1.116989E-08 -0.1166336 0.1420366
v 2.060542E-08 -0.08834486 0.1821965
v 0.01126188 -0.1110622 0.1773421
v 0.01592804 -0.1215787 0.160555
v 0.01126188 -0.1147981 0.1515631
v 1.186198E-08 -0.1119887 0.1478374
v 0.01126189 -0.08902151 0.1775797
v 0.01278384 -0.08330663 0.1784745
v 0.01592804 -0.1086768 0.1663357
v 0.01126188 -0.1062915 0.1553294
v 1.330407E-08 -0.1053031 0.1507691
v 0.01592805 -0.09065464 0.1664368
v 0.01750638 -0.08377843 0.1666181
v 0.01126188 -0.09228775 0.155294
v 1.475373E-08 -0.09296439 0.1506772
v 0.0120473 -0.08548267 0.154805
v 5.569145E-09 -0.08781694 0.1449194
v -0.06817991 0.04706121 0.2081228
v -0.0622793 0.04298832 0.2081228
v -0.07075734 0.02683474 0.2081228
v -0.07746121 0.02937719 0.2081228
v -0.05493624 0.06201023 0.2081228
v -0.07512324 0.009121628 0.2081228
v -0.0501818 0.05664356 0.2081228
v -0.08224073 0.009985866 0.2081228
v -0.03849987 0.07335544 0.2081228
v -0.07512324 -0.009121589 0.2081228
v -0.03516791 0.06700691 0.2081228
v -0.08224073 -0.009985809 0.2081228
v -0.01982603 0.0804375 0.2081228
v -0.07075734 -0.0268347 0.2081228
v -0.01811019 0.07347606 0.2081228
v -0.07746121 -0.02937714 0.2081228
v 3.216459E-08 0.08284481 0.2081228
v -0.0622793 -0.04298828 0.2081228
v 2.946681E-08 0.07567501 0.2081228
v -0.06817991 -0.04706118 0.2081228
v 0.01982609 0.08043747 0.2081228
v -0.0501818 -0.05664352 0.2081228
v 0.01811025 0.07347602 0.2081228
v -0.05493625 -0.06201018 0.2081228
v 0.03849993 0.07335541 0.2081228
v -0.03516792 -0.06700686 0.2081228
v 0.03516796 0.06700689 0.2081228
v -0.03849988 -0.07335538 0.2081228
v 0.05493629 0.06201019 0.2081228
v -0.01811021 -0.07347601 0.2081228
v 0.05018184 0.05664356 0.2081228
v -0.01982605 -0.08043743 0.2081228
v 0.06817996 0.04706118 0.2081228
v 4.808734E-09 -0.07567497 0.2081228
v 0.06227933 0.04298828 0.2081228
v 5.170349E-09 -0.08284475 0.2081228
v 0.07746124 0.02937714 0.2081228
v 0.01811011 -0.07347602 0.2081228
v 0.07075737 0.02683468 0.2081228
v 0.01982594 -0.08043747 0.2081228
v 0.08224075 0.00998578 0.2081228
v 0.03516784 -0.06700691 0.2081228
v 0.07512325 0.009121571 0.2081228
v 0.03849979 -0.07335544 0.2081228
v 0.08224073 -0.009985886 0.2081228
v 0.05018173 -0.0566436 0.2081228
v 0.07512324 -0.009121675 0.2081228
v 0.05493617 -0.06201026 0.2081228
v 0.07746118 -0.02937722 0.2081228
v 0.06227926 -0.04298836 0.2081228
v 0.07075732 -0.02683478 0.2081228
v 0.06817986 -0.04706125 0.2081228
vt 0.8499407 0.316092
vt 0.8192406 0.355253
vt 0.8515274 0.3536528
vt 0.8171415 0.317712
vt 0.8289807 0.3061301
vt 0.7869188 0.3572902
vt 0.8200904 0.2882999
vt 0.7843829 0.3198068
vt 0.7545779 0.3596281
vt 0.8132276 0.2531928
vt 0.8258328 0.2673341
vt 0.8471833 0.2509008
vt 0.7517734 0.3222162
vt 0.7222192 0.3621292
vt 0.7797148 0.2559702
vt 0.8055688 0.1715463
vt 0.8410138 0.1668503
vt 0.7988968 0.1308265
vt 0.8341401 0.1236713
vt 0.8115177 0.1186513
vt 0.7968727 0.09937035
vt 0.7714128 0.1762792
vt 0.7467064 0.2589651
vt 0.719301 0.3247811
vt 0.6898407 0.3646686
vt 0.7832458 0.06855598
vt 0.7980555 0.07719208
vt 0.815241 0.05765207
vt 0.7650996 0.1370798
vt 0.7383088 0.1808127
vt 0.714119 0.2620051
vt 0.6869422 0.3273699
vt 0.6574409 0.3671396
vt 0.765743 0.01853834
vt 0.7931412 0.007786055
vt 0.7377211 0.0273311
vt 0.7517214 0.07731216
vt 0.7094489 0.03467529
vt 0.7210015 0.08446587
vt 0.6810864 0.04089783
vt 0.7325016 0.1426947
vt 0.6907916 0.09047288
vt 0.6527047 0.046213
vt 0.7007262 0.1476821
vt 0.6609289 0.0955869
vt 0.6243362 0.05076512
vt 0.7059827 0.1850317
vt 0.6695257 0.152085
vt 0.6313151 0.09996161
vt 0.595996 0.05465363
vt 0.6742277 0.1888828
vt 0.6387352 0.1559456
vt 0.6018868 0.1036955
vt 0.5676914 0.057948
vt 0.6818694 0.2649651
vt 0.6428916 0.1923419
vt 0.608243 0.1592971
vt 0.5726011 0.1068538
vt 0.539427 0.06069693
vt 0.6498838 0.2677547
vt 0.6118643 0.1953975
vt 0.5779716 0.1621637
vt 0.5434289 0.1094802
vt 0.5112062 0.06293444
vt 0.6546729 0.3298763
vt 0.6250201 0.3694547
vt 0.6181015 0.2703075
vt 0.6224717 0.3322159
vt 0.592581 0.3715443
vt 0.5810664 0.1980429
vt 0.5478663 0.164562
vt 0.5143496 0.1116037
vt 0.4830326 0.06468355
vt 0.5903219 0.3343232
vt 0.5601274 0.373355
vt 0.5864741 0.2725745
vt 0.5504403 0.2002736
vt 0.4853494 0.1132432
vt 0.4549106 0.06595883
vt 0.5178887 0.1665023
vt 0.5582111 0.3361475
vt 0.5276642 0.3748463
vt 0.5549647 0.2745189
vt 0.4564188 0.114409
vt 0.4268456 0.06676782
vt 0.4880107 0.1679903
vt 0.5199443 0.2020851
vt 0.5261307 0.3376506
vt 0.4951966 0.3759888
vt 0.523545 0.276113
vt 0.4275516 0.1151054
vt 0.3988447 0.06711188
vt 0.4895475 0.203473
vt 0.4582115 0.1690277
vt 0.4940746 0.3388046
vt 0.4627292 0.3767619
vt 0.4921933 0.2773361
vt 0.398744 0.1153303
vt 0.3709168 0.06698619
vt 0.4592267 0.2044323
vt 0.4284751 0.1696124
vt 0.4620386 0.3395894
vt 0.4302661 0.3771529
vt 0.460893 0.2781723
vt 0.3699934 0.1150758
vt 0.3430727 0.06637917
vt 0.428963 0.2049568
vt 0.3987882 0.1697393
vt 0.4300188 0.3399915
vt 0.3978101 0.377155
vt 0.4296296 0.27861
vt 0.3412977 0.1143272
vt 0.3153259 0.06527147
vt 0.3987406 0.2050398
vt 0.3691381 0.1693994
vt 0.3980112 0.3400036
vt 0.3653624 0.3767675
vt 0.3983903 0.278641
vt 0.3126546 0.113062
vt 0.2876934 0.06363337
vt 0.3685433 0.2046726
vt 0.3395113 0.1685795
vt 0.3660109 0.3396231
vt 0.3329227 0.3759953
vt 0.3671614 0.2782597
vt 0.2840605 0.1112469
vt 0.2601966 0.061422
vt 0.3383535 0.203845
vt 0.309891 0.1672614
vt 0.3340106 0.3388527
vt 0.3004885 0.3748495
vt 0.3359274 0.2774636
vt 0.255509 0.108835
vt 0.2328627 0.05857615
vt 0.3081499 0.2025443
vt 0.2802549 0.1654203
vt 0.3020009 0.3377007
vt 0.2680555 0.3733476
vt 0.3046688 0.2762529
vt 0.2269885 0.10576
vt 0.2057276 0.05500932
vt 0.277904 0.2007552
vt 0.2505716 0.1630233
vt 0.2699683 0.3361814
vt 0.2356167 0.3715158
vt 0.2733602 0.2746316
vt 0.1984797 0.1019282
vt 0.17884 0.05059908
vt 0.2475767 0.1984589
vt 0.2207956 0.1600263
vt 0.2378954 0.3343176
vt 0.203164 0.3693908
vt 0.2419682 0.2726084
vt 0.1699511 0.0972053
vt 0.1522694 0.04517099
vt 0.2171131 0.1956328
vt 0.1908597 0.1563714
vt 0.2057594 0.3321421
vt 0.1706872 0.3670228
vt 0.2104481 0.2701991
vt 0.1413518 0.09139565
vt 0.1261212 0.03847593
vt 0.1864353 0.1922512
vt 0.1606633 0.1519819
vt 0.1735316 0.329702
vt 0.1381762 0.3644797
vt 0.1787412 0.2674296
vt 0.1126026 0.08420424
vt 0.1005668 0.0301565
vt 0.08358645 0.07516495
vt 0.07610077 0.01977886
vt 0.05445543 0.06390897
vt 0.06868467 0.08230121
vt 0.06999119 0.1043287
vt 0.1411772 0.327063
vt 0.1056227 0.3618519
vt 0.1554311 0.1882862
vt 0.1467702 0.2643411
vt 0.0664001 0.1332924
vt 0.05656721 0.1221444
vt 0.03296714 0.1248491
vt 0.1086562 0.3243161
vt 0.07302326 0.3592579
vt 0.1300508 0.1467583
vt 0.09877329 0.1405753
vt 0.1239383 0.1837128
vt 0.114437 0.2609976
vt 0.09172215 0.1785203
vt 0.07592485 0.3215863
vt 0.04038623 0.35685
vt 0.0816219 0.257496
vt 0.048189 0.2539785
vt 0.05845177 0.1727403
vt 0.02370617 0.1665368
vt 0.01398458 0.2507196
vt 0.03254149 0.2688225
vt 0.04035629 0.2888296
vt 0.04294026 0.319044
vt 0.007786055 0.3548004
vt 0.03146429 0.3076573
vt 0.009884211 0.3168919
vt 0.4747249 0.8888375
vt 0.4808098 0.8641502
vt 0.4808098 0.838724
vt 0.4747248 0.8140364
vt 0.4629087 0.9113515
vt 0.4629086 0.7915225
vt 0.4460479 0.9303834
vt 0.4460478 0.7724906
vt 0.4251224 0.9448273
vt 0.4251223 0.7580468
vt 0.4013483 0.9538437
vt 0.4013483 0.7490305
vt 0.3761073 0.9569085
vt 0.3761073 0.7459656
vt 0.3508662 0.9538437
vt 0.3508663 0.7490305
vt 0.3270921 0.9448274
vt 0.3270922 0.7580468
vt 0.3061666 0.9303836
vt 0.3061667 0.7724906
vt 0.2893059 0.9113516
vt 0.2893059 0.7915224
vt 0.2774896 0.8888376
vt 0.2774897 0.8140364
vt 0.2714048 0.8641503
vt 0.2714048 0.8387239
vt 0.04103563 0.7146547
vt 0.007786055 0.5293069
vt 0.01204072 0.7150982
vt 0.04063875 0.5325055
vt 0.06988699 0.7145782
vt 0.0227095 0.451782
vt 0.07184648 0.5355106
vt 0.09858748 0.7147563
vt 0.05277491 0.4597243
vt 0.0463138 0.3927271
vt 0.06998974 0.4006751
vt 0.08162583 0.4657443
vt 0.09452414 0.4065476
vt 0.1019053 0.5381888
vt 0.1271465 0.7151053
vt 0.1097422 0.4703337
vt 0.1195314 0.4108872
vt 0.1311661 0.5405152
vt 0.155582 0.7155638
vt 0.1374266 0.4738669
vt 0.1449237 0.4140998
vt 0.1598788 0.5425048
vt 0.1839154 0.7160872
vt 0.1648646 0.4766033
vt 0.1706439 0.4164773
vt 0.1882201 0.5441877
vt 0.212169 0.7166435
vt 0.1921732 0.4787284
vt 0.1966493 0.4182313
vt 0.216315 0.545598
vt 0.2403635 0.7172101
vt 0.2194275 0.480378
vt 0.2229036 0.4195171
vt 0.2442528 0.5467693
vt 0.268518 0.7177712
vt 0.2466754 0.481653
vt 0.2493742 0.4204482
vt 0.2720973 0.5477316
vt 0.2966495 0.7183167
vt 0.2739471 0.4826285
vt 0.2760313 0.4211074
vt 0.2998951 0.548511
vt 0.3247727 0.7188395
vt 0.3012612 0.4833599
vt 0.3028477 0.4215536
vt 0.3276811 0.549129
vt 0.3529005 0.7193367
vt 0.328629 0.4838876
vt 0.3297982 0.4218279
vt 0.3554822 0.5496024
vt 0.3810441 0.7198072
vt 0.3560575 0.4842395
vt 0.3568602 0.4219572
vt 0.3833213 0.5499442
vt 0.4092138 0.7202531
vt 0.3835516 0.4844334
vt 0.3840129 0.4219561
vt 0.4112194 0.5501629
vt 0.4374189 0.7206786
vt 0.411116 0.4844777
vt 0.4112378 0.4218291
vt 0.4391983 0.5502636
vt 0.4656684 0.7210909
vt 0.4387563 0.4843727
vt 0.4385175 0.4215715
vt 0.4672827 0.5502476
vt 0.4939713 0.7215011
vt 0.4664814 0.4841101
vt 0.4658366 0.4211682
vt 0.4955032 0.5501132
vt 0.5223372 0.7219238
vt 0.4943048 0.4836728
vt 0.4931806 0.4205937
vt 0.5238991 0.5498556
vt 0.5507764 0.7223803
vt 0.522247 0.4830334
vt 0.5205365 0.4198094
vt 0.5525216 0.5494678
vt 0.5793 0.7228982
vt 0.5503389 0.4821529
vt 0.547893 0.418761
vt 0.5814396 0.5489414
vt 0.6079208 0.7235152
vt 0.5786261 0.4809769
vt 0.5752403 0.4173739
vt 0.6107445 0.5482686
vt 0.6366524 0.7242801
vt 0.6071766 0.479432
vt 0.6025703 0.4155469
vt 0.6405587 0.5474468
vt 0.6655087 0.7252572
vt 0.6360921 0.4774176
vt 0.6298768 0.4131428
vt 0.6710448 0.5464871
vt 0.6945033 0.7265294
vt 0.6655284 0.4747947
vt 0.6571521 0.4099749
vt 0.7024152 0.5454334
vt 0.723645 0.7282009
vt 0.6957325 0.4713624
vt 0.6843805 0.4057854
vt 0.7349431 0.5444046
vt 0.7527382 0.7303935
vt 0.7687809 0.5436386
vt 0.7271205 0.4668108
vt 0.7115193 0.400211
vt 0.7604325 0.4605609
vt 0.738452 0.3927271
vt 0.6738189 0.7956531
vt 0.6609313 0.7769823
vt 0.6439498 0.7619381
vt 0.681864 0.8168657
vt 0.6238616 0.7513949
vt 0.6845986 0.8393874
vt 0.6018338 0.7459656
vt 0.6818641 0.8619091
vt 0.5791468 0.7459657
vt 0.6738192 0.8831217
vt 0.557119 0.751395
vt 0.6609315 0.9017929
vt 0.5370307 0.7619382
vt 0.6439501 0.9168371
vt 0.5200492 0.7769824
vt 0.6238618 0.9273804
vt 0.5071615 0.7956533
vt 0.6018341 0.9328098
vt 0.4991166 0.816866
vt 0.579147 0.9328098
vt 0.4963819 0.8393875
vt 0.557119 0.9273804
vt 0.4991165 0.8619091
vt 0.5370306 0.9168373
vt 0.5071614 0.8831218
vt 0.5200491 0.9017929
vt 0.7943668 0.6505478
vt 0.7843531 0.6591668
vt 0.8084376 0.6755556
vt 0.8132616 0.6630606
vt 0.8289599 0.6870998
vt 0.8243089 0.6392921
vt 0.8041373 0.6316249
vt 0.8328681 0.6748781
vt 0.8496466 0.6945708
vt 0.8436612 0.6462454
vt 0.8278993 0.6232714
vt 0.8074051 0.6194985
vt 0.8532557 0.6844696
vt 0.8755618 0.6986744
vt 0.8605331 0.6502162
vt 0.8471962 0.6259423
vt 0.8293982 0.607602
vt 0.8086396 0.6067054
vt 0.8629155 0.6272317
vt 0.8480563 0.6073434
vt 0.8292356 0.5881172
vt 0.8089058 0.5883514
vt 0.8632357 0.607096
vt 0.8473819 0.5872138
vt 0.8287587 0.5653314
vt 0.8089179 0.5654997
vt 0.8628331 0.5866187
vt 0.8466752 0.5648326
vt 0.8288941 0.5409291
vt 0.8091683 0.5408953
vt 0.8624763 0.5645358
vt 0.8466352 0.5410531
vt 0.8290008 0.5166104
vt 0.8089665 0.5165857
vt 0.8624581 0.5412238
vt 0.8471255 0.5172355
vt 0.8292146 0.4941064
vt 0.8085256 0.4948358
vt 0.8630278 0.5177965
vt 0.8479282 0.494597
vt 0.828213 0.4749345
vt 0.8071412 0.4782383
vt 0.8637449 0.4951426
vt 0.8478857 0.4735103
vt 0.8242524 0.458236
vt 0.8040975 0.4657839
vt 0.8640323 0.473002
vt 0.8447087 0.4519918
vt 0.8147413 0.4373181
vt 0.7959526 0.450758
vt 0.8089634 0.4291463
vt 0.7906765 0.4463064
vt 0.8296075 0.4122133
vt 0.8346826 0.424272
vt 0.8508369 0.3996645
vt 0.8625942 0.4487055
vt 0.8554557 0.4134998
vt 0.8788775 0.4084061
vt 0.8789997 0.3927271
vt 0.9061202 0.4002284
vt 0.878538 0.4479823
vt 0.9021797 0.4139193
vt 0.8782761 0.4726613
vt 0.9230679 0.4247031
vt 0.9290612 0.4127763
vt 0.8944924 0.4490181
vt 0.8780033 0.4952433
vt 0.9433021 0.4383949
vt 0.9493429 0.4289275
vt 0.8925223 0.4733274
vt 0.9124507 0.4526874
vt 0.8777134 0.5179996
vt 0.9615885 0.4533944
vt 0.9671587 0.4493365
vt 0.9329294 0.4595137
vt 0.9527743 0.4678425
vt 0.8922662 0.4954964
vt 0.9087072 0.4742239
vt 0.9284062 0.4761877
vt 0.9493507 0.4801485
vt 0.8774093 0.5414073
vt 0.8924019 0.518174
vt 0.9081122 0.4953529
vt 0.9268538 0.4953645
vt 0.9475033 0.4966706
vt 0.8771045 0.5646479
vt 0.892361 0.5416138
vt 0.9083203 0.5180259
vt 0.9264615 0.5178793
vt 0.9464858 0.5183852
vt 0.8768149 0.5866846
vt 0.8917308 0.5649194
vt 0.9081858 0.5418571
vt 0.9259285 0.5421987
vt 0.9456532 0.5426782
vt 0.8765464 0.607343
vt 0.890792 0.586984
vt 0.9075201 0.565632
vt 0.925423 0.5666043
vt 0.9452677 0.5672927
vt 0.876295 0.6276072
vt 0.8898531 0.6074358
vt 0.9062181 0.5879869
vt 0.9243368 0.5893804
vt 0.9446843 0.5901635
vt 0.8760304 0.6512655
vt 0.8896641 0.6275533
vt 0.9050016 0.6080794
vt 0.9236276 0.6088565
vt 0.9444587 0.6085625
vt 0.8756609 0.6898483
vt 0.8915341 0.6505308
vt 0.9053577 0.6266611
vt 0.924641 0.6245408
vt 0.9453298 0.6214433
vt 0.8982328 0.6849166
vt 0.9016505 0.6953623
vt 0.9083669 0.646939
vt 0.9276689 0.6405876
vt 0.9481825 0.6337513
vt 0.9185991 0.675359
vt 0.9229187 0.6871982
vt 0.9376579 0.6638945
vt 0.95693 0.6534545
vt 0.9423866 0.6750804
vt 0.9671603 0.6624571
vt 0.08787026 0.7531108
vt 0.09167294 0.7631481
vt 0.1181927 0.7566214
vt 0.1169026 0.7459656
vt 0.06139143 0.7669963
vt 0.1455038 0.7566308
vt 0.06748579 0.7758319
vt 0.1468013 0.745976
vt 0.03900511 0.786815
vt 0.1720191 0.7631759
vt 0.04703681 0.7939355
vt 0.1758287 0.7531412
vt 0.02201213 0.8114153
vt 0.1961975 0.7758764
vt 0.03151452 0.8164067
vt 0.2022979 0.767045
vt 0.01140024 0.8393674
vt 0.2166339 0.7939941
vt 0.02182102 0.8419397
vt 0.2246705 0.7868792
vt 0.007786055 0.8690469
vt 0.2321406 0.8164761
vt 0.01851967 0.8690506
vt 0.2416465 0.8114912
vt 0.0113797 0.8987289
vt 0.2418165 0.8420157
vt 0.02180222 0.8961638
vt 0.252239 0.8394506
vt 0.02197218 0.9266883
vt 0.2450991 0.8691289
vt 0.03147806 0.9217035
vt 0.2558327 0.8691326
vt 0.03894814 0.9513004
vt 0.2417978 0.8962398
vt 0.04698476 0.9441855
vt 0.2522185 0.8988121
vt 0.06132077 0.9711347
vt 0.2321039 0.921773
vt 0.06742121 0.9623033
vt 0.2416063 0.9267644
vt 0.08778995 0.9850384
vt 0.2165817 0.9442442
vt 0.09159958 0.9750037
vt 0.2246134 0.9513646
vt 0.1168173 0.9922037
vt 0.1961328 0.9623477
vt 0.1181148 0.9815489
vt 0.2022271 0.9711834
vt 0.146716 0.992214
vt 0.1719456 0.9750315
vt 0.1454259 0.9815583
vt 0.1757483 0.9850689
vn -0.001393815 -0.9023408 0.4310212
vn -0.1701135 -0.690178 0.7033603
vn -3.149642E-07 -0.7108331 0.7033607
vn -0.2386405 -0.9682022 0.07506648
vn -0.4481015 -0.8068489 0.3849674
vn -0.3303408 -0.629412 0.7033601
vn -0.5500764 -0.8285519 0.1044876
vn -0.4634119 -0.8829578 0.07506639
vn -0.4713702 -0.5320662 0.7033604
vn -0.2384634 -0.9674855 0.08430289
vn -0.4539236 -0.8706017 -0.1897531
vn 0.007643791 -0.9680483 -0.2506472
vn -0.6612519 -0.7463986 0.07506637
vn -0.5850049 -0.4037989 0.7033602
vn -0.4630689 -0.882304 0.08430289
vn -0.2391457 -0.9702533 0.03765488
vn -5.469975E-07 -0.9992908 0.03765484
vn -0.2382964 -0.9668081 -0.09217942
vn -0.007220211 -0.938037 0.3464597
vn -0.4327653 -0.88951 0.1465816
vn -0.5442947 -0.822601 -0.1645324
vn -0.4643937 -0.884828 0.03765484
vn -0.6607621 -0.7458461 0.08430287
vn -0.8206619 -0.5664619 0.07506633
vn -0.6646416 -0.2520652 0.7033595
vn -0.2269537 -0.9207886 -0.3172385
vn -0.3817302 -0.8236871 -0.4193109
vn 0.002022719 -0.8262528 -0.5632958
vn -0.4627448 -0.881686 -0.09217951
vn -0.6626526 -0.7479798 0.03765468
vn -0.8200542 -0.5660423 0.08430284
vn -0.9323781 -0.3536043 0.07506651
vn -0.7056508 -0.08568151 0.7033602
vn -0.1316499 -0.5341257 -0.8350916
vn -4.100392E-07 -0.5501105 -0.8350919
vn -0.2556493 -0.4870988 -0.8350917
vn -0.4407185 -0.8397184 -0.3172383
vn -0.364791 -0.4117637 -0.8350917
vn -0.6288698 -0.7098469 -0.3172382
vn -0.4527324 -0.3124985 -0.8350917
vn -0.6602996 -0.7453237 -0.09217957
vn -0.7804735 -0.5387217 -0.3172382
vn -0.5143626 -0.195072 -0.8350916
vn -0.8194801 -0.5656459 -0.09217957
vn -0.8867189 -0.336288 -0.3172381
vn -0.5460998 -0.06630848 -0.8350916
vn -0.8224004 -0.5676616 0.03765467
vn -0.9310352 -0.3530951 -0.09217957
vn -0.9414315 -0.1143104 -0.3172381
vn -0.5460998 0.06630848 -0.8350917
vn -0.9343532 -0.3543533 0.03765465
vn -0.9884824 -0.1200234 -0.09217944
vn -0.9414315 0.1143104 -0.3172381
vn -0.5143626 0.1950719 -0.8350916
vn -0.9316877 -0.3533424 0.08430292
vn -0.9920048 -0.1204511 0.03765473
vn -0.9884824 0.1200234 -0.09217944
vn -0.8867189 0.336288 -0.3172381
vn -0.4527323 0.3124986 -0.8350916
vn -0.989175 -0.1201074 0.08430294
vn -0.9920048 0.120451 0.03765471
vn -0.9310353 0.3530949 -0.09217963
vn -0.7804734 0.5387219 -0.3172381
vn -0.3647907 0.4117637 -0.8350919
vn -0.989908 -0.1201963 0.07506651
vn -0.7056507 0.0856813 0.7033605
vn -0.989175 0.1201072 0.08430285
vn -0.989908 0.1201962 0.0750664
vn -0.6646405 0.252065 0.7033606
vn -0.9343532 0.3543533 0.03765455
vn -0.81948 0.5656459 -0.09217969
vn -0.6288697 0.709847 -0.3172383
vn -0.2556493 0.4870988 -0.8350917
vn -0.9323782 0.3536041 0.07506657
vn -0.5850041 0.4037997 0.7033605
vn -0.9316878 0.3533422 0.08430292
vn -0.8224003 0.5676618 0.03765462
vn -0.4407183 0.8397186 -0.3172384
vn -0.1316498 0.5341252 -0.8350919
vn -0.6602994 0.7453238 -0.09217955
vn -0.8206617 0.5664622 0.07506658
vn -0.4713702 0.5320672 0.7033595
vn -0.8200542 0.5660425 0.08430298
vn -0.2269538 0.9207886 -0.3172384
vn 3.018346E-07 0.5501108 -0.8350917
vn -0.4627446 0.8816862 -0.09217945
vn -0.6626523 0.7479799 0.03765482
vn -0.6612516 0.7463989 0.07506657
vn -0.3303416 0.6294124 0.7033594
vn -0.660762 0.7458462 0.08430307
vn 7.144332E-07 0.9483458 -0.3172385
vn 0.1316501 0.5341254 -0.8350918
vn -0.4643934 0.8848282 0.03765488
vn -0.238297 0.9668078 -0.09217952
vn -0.4634121 0.8829578 0.07506646
vn -0.1701138 0.6901777 0.7033605
vn -0.4630688 0.882304 0.0843031
vn 0.2269543 0.9207886 -0.3172383
vn 0.2556494 0.4870988 -0.8350916
vn -0.2391461 0.9702532 0.03765498
vn 7.000773E-07 0.9957424 -0.09217969
vn -0.2386402 0.9682024 0.07506632
vn 3.928587E-07 0.7108332 0.7033607
vn -0.2384637 0.9674855 0.08430306
vn 0.4407185 0.8397185 -0.3172383
vn 0.3647912 0.4117635 -0.8350917
vn 2.447095E-07 0.9992908 0.03765489
vn 0.2382974 0.9668077 -0.09217988
vn 3.150522E-07 0.9971786 0.07506652
vn 0.170114 0.6901777 0.7033604
vn 0 0.9964401 0.08430309
vn 0.6288702 0.7098466 -0.3172383
vn 0.4527324 0.3124983 -0.8350919
vn 0.2391464 0.9702532 0.03765463
vn 0.4627448 0.881686 -0.09217967
vn 0.238641 0.9682022 0.0750668
vn 0.330341 0.6294116 0.7033603
vn 0.2384641 0.9674852 0.08430315
vn 0.7804736 0.5387214 -0.3172383
vn 0.5143625 0.1950715 -0.8350919
vn 0.464394 0.8848279 0.03765463
vn 0.6603 0.7453233 -0.09217951
vn 0.4634123 0.8829576 0.07506683
vn 0.4713699 0.5320668 0.70336
vn 0.4630693 0.8823037 0.08430312
vn 0.886719 0.3362876 -0.3172385
vn 0.5460997 0.06630807 -0.8350919
vn 0.662653 0.7479793 0.03765473
vn 0.8194804 0.5656457 -0.09217937
vn 0.6612518 0.7463986 0.07506678
vn 0.5850043 0.4037998 0.7033602
vn 0.6607625 0.7458456 0.08430296
vn 0.9414315 0.1143098 -0.3172385
vn 0.5460996 -0.06630914 -0.8350919
vn 0.8224007 0.5676611 0.03765487
vn 0.9310355 0.3530947 -0.09217938
vn 0.8206623 0.5664612 0.07506666
vn 0.6646408 0.252065 0.7033603
vn 0.8200547 0.5660416 0.08430286
vn 0.9414311 -0.1143116 -0.3172384
vn 0.514362 -0.1950724 -0.8350919
vn 0.9343533 0.3543529 0.03765494
vn 0.9884824 0.1200229 -0.09217941
vn 0.9323784 0.3536038 0.07506675
vn 0.7056506 0.08568101 0.7033605
vn 0.931688 0.353342 0.08430297
vn 0.8867184 -0.3362891 -0.3172383
vn 0.4527319 -0.312499 -0.8350918
vn 0.9920049 0.1204507 0.03765497
vn 0.9884821 -0.1200248 -0.0921794
vn 0.989908 0.1201957 0.07506683
vn 0.7056506 -0.08568224 0.7033604
vn 0.989175 0.1201069 0.08430297
vn 0.7804727 -0.5387228 -0.3172382
vn 0.3647902 -0.4117642 -0.8350919
vn 0.9920047 -0.1204526 0.03765499
vn 0.9310348 -0.3530964 -0.09217951
vn 0.9899077 -0.1201978 0.07506666
vn 0.6646408 -0.252066 0.7033601
vn 0.9891748 -0.120109 0.08430296
vn 0.6288687 -0.7098479 -0.3172383
vn 0.2556486 -0.487099 -0.8350918
vn 0.9343527 -0.3543547 0.03765483
vn 0.8194793 -0.565647 -0.09217943
vn 0.9323778 -0.3536054 0.07506644
vn 0.5850042 -0.4037998 0.7033604
vn 0.9316873 -0.3533437 0.08430299
vn 0.4407173 -0.8397191 -0.3172382
vn 0.1316492 -0.5341259 -0.8350917
vn 0.2269526 -0.920789 -0.3172383
vn -4.100392E-07 -0.5501105 -0.8350919
vn 0.002022719 -0.8262528 -0.5632958
vn 0.3868029 -0.8129908 -0.4352348
vn 0.5237643 -0.834397 -0.1716181
vn 0.8206612 -0.5664628 0.07506643
vn 0.4713691 -0.5320669 0.7033605
vn 0.8223997 -0.5676626 0.03765479
vn 0.8200537 -0.5660432 0.08430289
vn 0.2382955 -0.9668083 -0.09217932
vn 0.3955938 -0.913581 0.09420969
vn -0.007220211 -0.938037 0.3464597
vn 0.6612507 -0.7463998 0.0750665
vn 0.3303398 -0.6294125 0.7033601
vn 0.6602983 -0.7453249 -0.09217938
vn 0.4627435 -0.8816866 -0.09217941
vn 0.6626513 -0.7479808 0.03765479
vn 0.6607611 -0.7458471 0.08430286
vn 0.4643924 -0.8848287 0.03765482
vn 0.4634106 -0.8829585 0.07506648
vn 0.1701128 -0.6901778 0.7033607
vn 0.4630676 -0.8823046 0.08430292
vn 0.2384621 -0.9674858 0.08430305
vn 0.2391444 -0.9702536 0.03765487
vn -5.469975E-07 -0.9992908 0.03765484
vn 0.007643791 -0.9680483 -0.2506472
vn 0.5021017 -0.8269721 -0.2530043
vn 0.5583006 -0.8257237 0.08050379
vn 0.2386392 -0.9682026 0.07506643
vn -3.149642E-07 -0.7108331 0.7033607
vn 0.4329168 -0.8209708 0.3722766
vn -0.001393815 -0.9023408 0.4310212
vn -0.1316499 -0.5341257 -0.8350916
vn -4.100392E-07 -0.5501105 -0.8350919
vn 0.1316492 -0.5341259 -0.8350917
vn 0.2556486 -0.487099 -0.8350918
vn -0.2556493 -0.4870988 -0.8350917
vn 0.3647902 -0.4117642 -0.8350919
vn -0.364791 -0.4117637 -0.8350917
vn 0.4527319 -0.312499 -0.8350918
vn -0.4527324 -0.3124985 -0.8350917
vn 0.514362 -0.1950724 -0.8350919
vn -0.5143626 -0.195072 -0.8350916
vn 0.5460996 -0.06630914 -0.8350919
vn -0.5460998 -0.06630848 -0.8350916
vn 0.5460997 0.06630807 -0.8350919
vn -0.5460998 0.06630848 -0.8350917
vn 0.5143625 0.1950715 -0.8350919
vn -0.5143626 0.1950719 -0.8350916
vn 0.4527324 0.3124983 -0.8350919
vn -0.4527323 0.3124986 -0.8350916
vn 0.3647912 0.4117635 -0.8350917
vn -0.3647907 0.4117637 -0.8350919
vn 0.2556494 0.4870988 -0.8350916
vn -0.2556493 0.4870988 -0.8350917
vn 0.1316501 0.5341254 -0.8350918
vn -0.1316498 0.5341252 -0.8350919
vn 3.018346E-07 0.5501108 -0.8350917
vn 0.1696858 0.6884419 0.7051628
vn 3.626104E-07 0.9999654 0.00832526
vn 1.959231E-07 0.7090464 0.7051619
vn 0.2393073 0.9709082 0.00832525
vn 0.3295102 0.6278287 0.7051625
vn 5.202962E-07 0.9579923 0.286794
vn 0.4647073 0.8854252 0.008325159
vn 0.4701841 0.5307286 0.7051624
vn 0.2292625 0.9301547 0.2867941
vn 3.768871E-07 0.5439815 0.8390973
vn 0.1301833 0.5281745 0.8390971
vn 0.4452012 0.84826 0.2867939
vn 0.2528008 0.4816719 0.8390971
vn 0.6630997 0.7484848 0.008325175
vn 0.5835326 0.4027843 0.7051627
vn 0.6352665 0.7170675 0.2867939
vn 0.3607267 0.4071761 0.839097
vn 0.8229554 0.5680449 0.00832518
vn 0.6629687 0.251431 0.7051631
vn 0.7884123 0.5442016 0.2867939
vn 0.4476882 0.3090167 0.8390971
vn 0.9349838 0.3545927 0.0083251
vn 0.7038757 0.08546581 0.7051629
vn 0.8957383 0.3397089 0.2867938
vn 0.5086316 0.1928987 0.8390971
vn 0.9926744 0.1205325 0.008325082
vn 0.7038761 -0.085466 0.7051624
vn 0.9510074 0.1154733 0.2867939
vn 0.5400155 0.06556977 0.8390971
vn 0.9926744 -0.1205326 0.008325062
vn 0.6629699 -0.251431 0.7051618
vn 0.9510074 -0.1154733 0.2867939
vn 0.5400153 -0.06556973 0.8390972
vn 0.9349838 -0.3545925 0.008325047
vn 0.583533 -0.4027836 0.7051628
vn 0.8957383 -0.3397087 0.2867939
vn 0.5086316 -0.1928986 0.8390971
vn 0.8229554 -0.568045 0.008325075
vn 0.470184 -0.5307277 0.7051631
vn 0.7884122 -0.5442016 0.286794
vn 0.4476879 -0.3090166 0.8390973
vn 0.6630997 -0.7484848 0.008325045
vn 0.3295095 -0.6278282 0.7051632
vn 0.6352664 -0.7170675 0.2867939
vn 0.3607266 -0.4071762 0.839097
vn 0.4647069 -0.8854254 0.00832517
vn 0.1696849 -0.6884424 0.7051625
vn 0.4452008 -0.8482602 0.286794
vn 0.2528006 -0.4816718 0.8390972
vn 0.2393072 -0.9709082 0.008325096
vn -6.012814E-07 -0.7090464 0.7051619
vn 0.2292625 -0.9301547 0.286794
vn 0.1301834 -0.5281748 0.839097
vn -5.318287E-07 -0.9999654 0.008325016
vn -0.169686 -0.6884421 0.7051625
vn -1.874054E-07 -0.9579923 0.2867939
vn 0 -0.5439814 0.8390973
vn -0.2393079 -0.9709081 0.008324881
vn -0.3295096 -0.6278288 0.7051628
vn -0.229263 -0.9301546 0.286794
vn -0.1301835 -0.5281744 0.8390972
vn -0.4647073 -0.8854252 0.008324991
vn -0.4701845 -0.5307279 0.7051627
vn -0.4452017 -0.8482597 0.286794
vn -0.2528012 -0.4816715 0.8390972
vn -0.6630999 -0.7484845 0.00832507
vn -0.5835339 -0.4027822 0.7051629
vn -0.635267 -0.717067 0.2867942
vn -0.3607266 -0.4071754 0.8390974
vn -0.8229558 -0.5680443 0.00832516
vn -0.6629696 -0.2514298 0.7051625
vn -0.7884124 -0.5442012 0.2867941
vn -0.4476882 -0.3090167 0.8390971
vn -0.9349843 -0.3545914 0.00832513
vn -0.703876 -0.0854652 0.7051626
vn -0.8957387 -0.3397077 0.286794
vn -0.5086318 -0.192898 0.8390971
vn -0.9926745 -0.1205315 0.008325158
vn -0.7038757 0.08546659 0.7051626
vn -0.9510075 -0.1154722 0.2867939
vn -0.5400156 -0.06556916 0.8390971
vn -0.9926744 0.1205333 0.008325161
vn -0.6629689 0.2514315 0.7051626
vn -0.9510074 0.1154739 0.2867939
vn -0.5400153 0.06557011 0.8390971
vn -0.9349834 0.3545935 0.008325163
vn -0.5835324 0.4027849 0.7051625
vn -0.895738 0.3397095 0.286794
vn -0.5086315 0.192899 0.8390971
vn -0.8229547 0.568046 0.008325202
vn -0.4701834 0.5307292 0.7051624
vn -0.7884116 0.5442026 0.2867941
vn -0.4476877 0.3090173 0.8390972
vn -0.6630987 0.7484857 0.008325235
vn -0.3295091 0.6278291 0.7051626
vn -0.6352654 0.7170684 0.2867939
vn -0.3607261 0.4071768 0.839097
vn -0.464706 0.885426 0.008325242
vn -0.1696847 0.6884428 0.705162
vn -0.4452001 0.8482606 0.286794
vn -0.2528002 0.481672 0.8390973
vn -0.2393061 0.9709085 0.008325225
vn 1.959231E-07 0.7090464 0.7051619
vn 3.626104E-07 0.9999654 0.00832526
vn -0.2292614 0.930155 0.286794
vn -0.1301827 0.5281748 0.839097
vn 5.202962E-07 0.9579923 0.286794
vn 3.768871E-07 0.5439815 0.8390973
vn -0.1301827 0.5281748 0.839097
vn 3.768871E-07 0.5439815 0.8390973
vn 0.1301833 0.5281745 0.8390971
vn -0.2528002 0.481672 0.8390973
vn 0.2528008 0.4816719 0.8390971
vn -0.3607261 0.4071768 0.839097
vn 0.3607267 0.4071761 0.839097
vn -0.4476877 0.3090173 0.8390972
vn 0.4476882 0.3090167 0.8390971
vn -0.5086315 0.192899 0.8390971
vn 0.5086316 0.1928987 0.8390971
vn -0.5400153 0.06557011 0.8390971
vn 0.5400155 0.06556977 0.8390971
vn -0.5400156 -0.06556916 0.8390971
vn 0.5400153 -0.06556973 0.8390972
vn -0.5086318 -0.192898 0.8390971
vn 0.5086316 -0.1928986 0.8390971
vn -0.4476882 -0.3090167 0.8390971
vn 0.4476879 -0.3090166 0.8390973
vn -0.3607266 -0.4071754 0.8390974
vn 0.3607266 -0.4071762 0.839097
vn -0.2528012 -0.4816715 0.8390972
vn 0.2528006 -0.4816718 0.8390972
vn -0.1301835 -0.5281744 0.8390972
vn 0.1301834 -0.5281748 0.839097
vn 0 -0.5439814 0.8390973
vn 0.0153457 -0.2871707 -0.9577565
vn 0.007643791 -0.9680483 -0.2506472
vn -0.4539236 -0.8706017 -0.1897531
vn -0.7295095 -0.2278556 -0.6449014
vn -0.5500764 -0.8285519 0.1044876
vn -0.7338848 0.1398223 -0.6647276
vn -1.095726E-07 0.203369 -0.9791021
vn -0.9883459 -0.1499423 0.02626153
vn -0.4481015 -0.8068489 0.3849674
vn -0.9987238 -0.01166194 0.04913961
vn -0.7379906 0.4088302 -0.5368686
vn -3.482832E-07 0.6074748 -0.794339
vn -0.6979337 -0.1514941 0.6999558
vn -0.001393815 -0.9023408 0.4310212
vn -0.683295 -0.1574429 0.7129654
vn -0.9985025 -0.03236992 0.04410094
vn -0.7269214 0.5947518 -0.3433008
vn -3.297971E-07 0.8680603 -0.4964588
vn -0.6821394 -0.4386981 0.585004
vn -0.9991893 -0.03378385 0.02189441
vn -0.7196856 0.6716408 -0.17593
vn 1.609679E-07 0.9677375 -0.2519606
vn -0.6872628 -0.6228371 0.3738231
vn -0.9996564 -0.02510032 0.007549156
vn -0.7165284 0.6956797 -0.05115466
vn 0 0.997332 -0.07300027
vn -0.693777 -0.695177 0.1881558
vn -0.9998165 -0.01908728 0.001647578
vn -0.7159418 0.6960887 0.05373999
vn -2.629261E-07 0.9970401 0.07688227
vn -0.6974459 -0.714593 0.05409228
vn -0.9998405 -0.01780097 -0.001442742
vn -0.7177273 0.6767152 0.1640859
vn 0 0.9720054 0.2349583
vn -0.6981313 -0.7138119 -0.05554511
vn -0.9997619 -0.02108416 -0.005618039
vn -0.7225608 0.6208817 0.3039934
vn 1.20338E-07 0.8992692 0.4373956
vn -0.6960474 -0.6970417 -0.1721946
vn -0.9994755 -0.02838243 -0.01559275
vn -0.7329081 0.4795825 0.4825416
vn 0 0.7078938 0.7063189
vn -0.6907048 -0.6453263 -0.3263144
vn -0.998787 -0.0332059 -0.03636002
vn -0.7395824 0.2197935 0.6361671
vn 0 0.3269063 0.9450567
vn -0.6837235 -0.5059081 -0.5259078
vn -0.9983301 -0.01877177 -0.05463334
vn -0.7323613 -0.1923943 0.6531702
vn -0.009799892 -0.2819749 0.9593717
vn -0.4327653 -0.88951 0.1465816
vn -0.007220211 -0.938037 0.3464597
vn -0.5442947 -0.822601 -0.1645324
vn -0.9866802 -0.160904 -0.02391938
vn -0.3817302 -0.8236871 -0.4193109
vn -0.6807309 -0.238613 -0.6925816
vn -0.6774037 -0.2047071 -0.7065545
vn 0.003098246 -0.325239 -0.9456268
vn 0.002022719 -0.8262528 -0.5632958
vn 0.3868029 -0.8129908 -0.4352348
vn -1.225506E-07 -0.3257298 -0.9454629
vn 0.6786847 -0.1928684 -0.7086529
vn -2.636312E-07 -0.6930375 -0.7209015
vn 0.9793324 -0.1947149 -0.05471793
vn 0.5237643 -0.834397 -0.1716181
vn 0.6807304 -0.2386129 -0.6925821
vn 0 -0.892175 -0.45169
vn 0.7189533 -0.2580426 0.6453837
vn 0.3955938 -0.913581 0.09420969
vn 0.6837232 -0.5059081 -0.5259084
vn 0.9983299 -0.01877169 -0.05463395
vn 0 -0.9707568 -0.2400654
vn -0.009799892 -0.2819749 0.9593717
vn -0.007220211 -0.938037 0.3464597
vn 0.7395828 0.2197939 0.6361666
vn 0 0.3269063 0.9450567
vn 0.6907046 -0.6453261 -0.3263148
vn 0.9987869 -0.03320603 -0.03636058
vn 0.7329081 0.4795824 0.4825415
vn 0 0.7078938 0.7063189
vn -2.934599E-07 -0.996983 -0.07762001
vn 0.6960473 -0.6970417 -0.1721948
vn 0.9994755 -0.02838271 -0.01559322
vn 0.7225611 0.6208814 0.3039931
vn 1.20338E-07 0.8992692 0.4373956
vn 0 -0.9971372 0.07561422
vn 0.698131 -0.7138121 -0.05554527
vn 0.9997619 -0.02108451 -0.005618424
vn 0.7177275 0.676715 0.1640856
vn 0 0.9720054 0.2349583
vn -2.120638E-07 -0.9651664 0.2616366
vn 0.6974458 -0.7145932 0.05409195
vn 0.9998405 -0.01780136 -0.001443032
vn 0.7159418 0.6960887 0.05373981
vn -2.629261E-07 0.9970401 0.07688227
vn -4.981833E-07 -0.8571733 0.5150282
vn 0.6937767 -0.6951772 0.1881556
vn 0.9998165 -0.01908741 0.001647305
vn 0.7165284 0.6956797 -0.05115474
vn 0 0.997332 -0.07300027
vn -2.10423E-07 -0.5998591 0.8001057
vn 0.6872624 -0.6228375 0.3738233
vn 0.9996564 -0.0251006 0.007548853
vn 0.7196858 0.6716406 -0.17593
vn 1.609679E-07 0.9677375 -0.2519606
vn 0 -0.2158188 0.9764335
vn 0.6821394 -0.438698 0.5850041
vn 0.9991893 -0.03378425 0.02189429
vn 0.7269217 0.5947515 -0.343301
vn -3.297971E-07 0.8680603 -0.4964588
vn 3.356036E-07 -0.3317374 0.9433718
vn 0.683295 -0.1574434 0.7129654
vn 0.9985025 -0.03237006 0.04410104
vn 0.7379901 0.4088304 -0.5368689
vn -3.482832E-07 0.6074748 -0.794339
vn 0.6988987 -0.1651953 0.6958815
vn 0.4329168 -0.8209708 0.3722766
vn 0.9987238 -0.01166219 0.04913951
vn 0.7338849 0.1398222 -0.6647274
vn -1.095726E-07 0.203369 -0.9791021
vn 0.9933203 -0.1153886 0.0004455879
vn 0.5583006 -0.8257237 0.08050379
vn 0.7360072 -0.1637347 -0.6568746
vn 0.0153457 -0.2871707 -0.9577565
vn 0.5021017 -0.8269721 -0.2530043
vn 0.007643791 -0.9680483 -0.2506472
vn -0.5850041 0.4037997 0.7033605
vn 0.583533 -0.4027836 0.7051628
vn 0.6629699 -0.251431 0.7051618
vn -0.6646405 0.252065 0.7033606
vn -0.4713702 0.5320672 0.7033595
vn 0.7038761 -0.085466 0.7051624
vn 0.470184 -0.5307277 0.7051631
vn -0.7056507 0.0856813 0.7033605
vn -0.3303416 0.6294124 0.7033594
vn 0.7038757 0.08546581 0.7051629
vn 0.3295095 -0.6278282 0.7051632
vn -0.7056508 -0.08568151 0.7033602
vn -0.1701138 0.6901777 0.7033605
vn 0.6629687 0.251431 0.7051631
vn 0.1696849 -0.6884424 0.7051625
vn -0.6646416 -0.2520652 0.7033595
vn 3.928587E-07 0.7108332 0.7033607
vn 0.5835326 0.4027843 0.7051627
vn -6.012814E-07 -0.7090464 0.7051619
vn -0.5850049 -0.4037989 0.7033602
vn 0.170114 0.6901777 0.7033604
vn 0.4701841 0.5307286 0.7051624
vn -0.169686 -0.6884421 0.7051625
vn -0.4713702 -0.5320662 0.7033604
vn 0.330341 0.6294116 0.7033603
vn 0.3295102 0.6278287 0.7051625
vn -0.3295096 -0.6278288 0.7051628
vn -0.3303408 -0.629412 0.7033601
vn 0.4713699 0.5320668 0.70336
vn 0.1696858 0.6884419 0.7051628
vn -0.4701845 -0.5307279 0.7051627
vn -0.1701135 -0.690178 0.7033603
vn 0.5850043 0.4037998 0.7033602
vn 1.959231E-07 0.7090464 0.7051619
vn -0.5835339 -0.4027822 0.7051629
vn -3.149642E-07 -0.7108331 0.7033607
vn 0.6646408 0.252065 0.7033603
vn -0.1696847 0.6884428 0.705162
vn -0.6629696 -0.2514298 0.7051625
vn 0.1701128 -0.6901778 0.7033607
vn 0.7056506 0.08568101 0.7033605
vn -0.3295091 0.6278291 0.7051626
vn -0.703876 -0.0854652 0.7051626
vn 0.3303398 -0.6294125 0.7033601
vn 0.7056506 -0.08568224 0.7033604
vn -0.4701834 0.5307292 0.7051624
vn -0.7038757 0.08546659 0.7051626
vn 0.4713691 -0.5320669 0.7033605
vn 0.6646408 -0.252066 0.7033601
vn -0.5835324 0.4027849 0.7051625
vn -0.6629689 0.2514315 0.7051626
vn 0.5850042 -0.4037998 0.7033604
usemtl mug03
f 1/1/1 3/3/3 2/2/2 
f 1/1/1 2/2/2 4/4/4 
f 5/5/5 1/1/1 4/4/4 
f 4/4/4 2/2/2 6/6/6 
f 7/7/7 5/5/5 4/4/4 
f 4/4/4 6/6/6 8/8/8 
f 8/8/8 6/6/6 9/9/9 
f 4/4/4 10/10/10 7/7/7 
f 10/10/10 11/11/11 7/7/7 
f 12/12/12 11/11/11 10/10/10 
f 8/8/8 9/9/9 13/13/13 
f 13/13/13 9/9/9 14/14/14 
f 4/4/4 8/8/8 15/15/15 
f 4/4/4 15/15/15 10/10/10 
f 12/12/12 10/10/10 16/16/16 
f 12/12/12 16/16/16 17/17/17 
f 17/17/17 16/16/16 18/18/18 
f 17/17/17 18/18/18 19/19/19 
f 18/18/18 20/20/20 19/19/19 
f 20/20/20 18/18/18 21/21/21 
f 10/10/10 22/22/22 16/16/16 
f 10/10/10 15/15/15 22/22/22 
f 8/8/8 23/23/23 15/15/15 
f 8/8/8 13/13/13 23/23/23 
f 13/13/13 14/14/14 24/24/24 
f 24/24/24 14/14/14 25/25/25 
f 21/21/21 18/18/18 26/26/26 
f 26/26/26 27/27/27 21/21/21 
f 28/28/28 27/27/27 26/26/26 
f 16/16/16 29/29/29 18/18/18 
f 16/16/16 22/22/22 29/29/29 
f 15/15/15 30/30/30 22/22/22 
f 15/15/15 23/23/23 30/30/30 
f 13/13/13 31/31/31 23/23/23 
f 13/13/13 24/24/24 31/31/31 
f 24/24/24 25/25/25 32/32/32 
f 32/32/32 25/25/25 33/33/33 
f 28/28/28 26/26/26 34/34/34 
f 28/28/28 34/34/34 35/35/35 
f 26/26/26 36/36/36 34/34/34 
f 26/26/26 37/37/37 36/36/36 
f 18/18/18 37/37/37 26/26/26 
f 37/37/37 38/38/38 36/36/36 
f 18/18/18 29/29/29 37/37/37 
f 37/37/37 39/39/39 38/38/38 
f 29/29/29 39/39/39 37/37/37 
f 39/39/39 40/40/40 38/38/38 
f 29/29/29 41/41/41 39/39/39 
f 22/22/22 41/41/41 29/29/29 
f 22/22/22 30/30/30 41/41/41 
f 39/39/39 42/42/42 40/40/40 
f 41/41/41 42/42/42 39/39/39 
f 42/42/42 43/43/43 40/40/40 
f 30/30/30 44/44/44 41/41/41 
f 41/41/41 44/44/44 42/42/42 
f 42/42/42 45/45/45 43/43/43 
f 44/44/44 45/45/45 42/42/42 
f 45/45/45 46/46/46 43/43/43 
f 30/30/30 47/47/47 44/44/44 
f 23/23/23 47/47/47 30/30/30 
f 23/23/23 31/31/31 47/47/47 
f 44/44/44 48/48/48 45/45/45 
f 47/47/47 48/48/48 44/44/44 
f 45/45/45 49/49/49 46/46/46 
f 48/48/48 49/49/49 45/45/45 
f 49/49/49 50/50/50 46/46/46 
f 31/31/31 51/51/51 47/47/47 
f 47/47/47 51/51/51 48/48/48 
f 48/48/48 52/52/52 49/49/49 
f 51/51/51 52/52/52 48/48/48 
f 49/49/49 53/53/53 50/50/50 
f 52/52/52 53/53/53 49/49/49 
f 53/53/53 54/54/54 50/50/50 
f 31/31/31 55/55/55 51/51/51 
f 24/24/24 55/55/55 31/31/31 
f 24/24/24 32/32/32 55/55/55 
f 51/51/51 56/56/56 52/52/52 
f 55/55/55 56/56/56 51/51/51 
f 52/52/52 57/57/57 53/53/53 
f 56/56/56 57/57/57 52/52/52 
f 53/53/53 58/58/58 54/54/54 
f 57/57/57 58/58/58 53/53/53 
f 58/58/58 59/59/59 54/54/54 
f 32/32/32 60/60/60 55/55/55 
f 55/55/55 60/60/60 56/56/56 
f 56/56/56 61/61/61 57/57/57 
f 60/60/60 61/61/61 56/56/56 
f 57/57/57 62/62/62 58/58/58 
f 61/61/61 62/62/62 57/57/57 
f 58/58/58 63/63/63 59/59/59 
f 62/62/62 63/63/63 58/58/58 
f 63/63/63 64/64/64 59/59/59 
f 32/32/32 65/65/65 60/60/60 
f 32/32/32 33/33/33 65/65/65 
f 65/65/65 33/33/33 66/66/66 
f 60/60/60 67/67/67 61/61/61 
f 65/65/65 67/67/67 60/60/60 
f 65/65/65 66/66/66 68/68/68 
f 65/65/65 68/68/68 67/67/67 
f 68/68/68 66/66/66 69/69/69 
f 61/61/61 70/70/70 62/62/62 
f 67/67/67 70/70/70 61/61/61 
f 62/62/62 71/71/71 63/63/63 
f 70/70/70 71/71/71 62/62/62 
f 63/63/63 72/72/72 64/64/64 
f 71/71/71 72/72/72 63/63/63 
f 72/72/72 73/73/73 64/64/64 
f 68/68/68 69/69/69 74/74/74 
f 74/74/74 69/69/69 75/75/75 
f 68/68/68 76/76/76 67/67/67 
f 67/67/67 76/76/76 70/70/70 
f 68/68/68 74/74/74 76/76/76 
f 70/70/70 77/77/77 71/71/71 
f 76/76/76 77/77/77 70/70/70 
f 72/72/72 78/78/78 73/73/73 
f 78/78/78 79/79/79 73/73/73 
f 71/71/71 80/80/80 72/72/72 
f 77/77/77 80/80/80 71/71/71 
f 80/80/80 78/78/78 72/72/72 
f 74/74/74 75/75/75 81/81/81 
f 81/81/81 75/75/75 82/82/82 
f 74/74/74 83/83/83 76/76/76 
f 76/76/76 83/83/83 77/77/77 
f 74/74/74 81/81/81 83/83/83 
f 78/78/78 84/84/84 79/79/79 
f 84/84/84 85/85/85 79/79/79 
f 80/80/80 86/86/86 78/78/78 
f 86/86/86 84/84/84 78/78/78 
f 77/77/77 87/87/87 80/80/80 
f 83/83/83 87/87/87 77/77/77 
f 87/87/87 86/86/86 80/80/80 
f 81/81/81 82/82/82 88/88/88 
f 88/88/88 82/82/82 89/89/89 
f 81/81/81 90/90/90 83/83/83 
f 83/83/83 90/90/90 87/87/87 
f 81/81/81 88/88/88 90/90/90 
f 84/84/84 91/91/91 85/85/85 
f 91/91/91 92/92/92 85/85/85 
f 87/87/87 93/93/93 86/86/86 
f 90/90/90 93/93/93 87/87/87 
f 86/86/86 94/94/94 84/84/84 
f 94/94/94 91/91/91 84/84/84 
f 93/93/93 94/94/94 86/86/86 
f 88/88/88 89/89/89 95/95/95 
f 95/95/95 89/89/89 96/96/96 
f 88/88/88 97/97/97 90/90/90 
f 90/90/90 97/97/97 93/93/93 
f 88/88/88 95/95/95 97/97/97 
f 91/91/91 98/98/98 92/92/92 
f 98/98/98 99/99/99 92/92/92 
f 93/93/93 100/100/100 94/94/94 
f 97/97/97 100/100/100 93/93/93 
f 94/94/94 101/101/101 91/91/91 
f 101/101/101 98/98/98 91/91/91 
f 100/100/100 101/101/101 94/94/94 
f 95/95/95 96/96/96 102/102/102 
f 102/102/102 96/96/96 103/103/103 
f 95/95/95 104/104/104 97/97/97 
f 97/97/97 104/104/104 100/100/100 
f 95/95/95 102/102/102 104/104/104 
f 98/98/98 105/105/105 99/99/99 
f 105/105/105 106/106/106 99/99/99 
f 100/100/100 107/107/107 101/101/101 
f 104/104/104 107/107/107 100/100/100 
f 101/101/101 108/108/108 98/98/98 
f 108/108/108 105/105/105 98/98/98 
f 107/107/107 108/108/108 101/101/101 
f 102/102/102 103/103/103 109/109/109 
f 109/109/109 103/103/103 110/110/110 
f 102/102/102 111/111/111 104/104/104 
f 104/104/104 111/111/111 107/107/107 
f 102/102/102 109/109/109 111/111/111 
f 105/105/105 112/112/112 106/106/106 
f 112/112/112 113/113/113 106/106/106 
f 107/107/107 114/114/114 108/108/108 
f 111/111/111 114/114/114 107/107/107 
f 108/108/108 115/115/115 105/105/105 
f 115/115/115 112/112/112 105/105/105 
f 114/114/114 115/115/115 108/108/108 
f 109/109/109 110/110/110 116/116/116 
f 116/116/116 110/110/110 117/117/117 
f 109/109/109 118/118/118 111/111/111 
f 111/111/111 118/118/118 114/114/114 
f 109/109/109 116/116/116 118/118/118 
f 112/112/112 119/119/119 113/113/113 
f 119/119/119 120/120/120 113/113/113 
f 114/114/114 121/121/121 115/115/115 
f 118/118/118 121/121/121 114/114/114 
f 115/115/115 122/122/122 112/112/112 
f 122/122/122 119/119/119 112/112/112 
f 121/121/121 122/122/122 115/115/115 
f 116/116/116 117/117/117 123/123/123 
f 123/123/123 117/117/117 124/124/124 
f 116/116/116 125/125/125 118/118/118 
f 118/118/118 125/125/125 121/121/121 
f 116/116/116 123/123/123 125/125/125 
f 119/119/119 126/126/126 120/120/120 
f 126/126/126 127/127/127 120/120/120 
f 121/121/121 128/128/128 122/122/122 
f 125/125/125 128/128/128 121/121/121 
f 122/122/122 129/129/129 119/119/119 
f 129/129/129 126/126/126 119/119/119 
f 128/128/128 129/129/129 122/122/122 
f 123/123/123 124/124/124 130/130/130 
f 130/130/130 124/124/124 131/131/131 
f 123/123/123 132/132/132 125/125/125 
f 125/125/125 132/132/132 128/128/128 
f 123/123/123 130/130/130 132/132/132 
f 126/126/126 133/133/133 127/127/127 
f 133/133/133 134/134/134 127/127/127 
f 128/128/128 135/135/135 129/129/129 
f 132/132/132 135/135/135 128/128/128 
f 129/129/129 136/136/136 126/126/126 
f 136/136/136 133/133/133 126/126/126 
f 135/135/135 136/136/136 129/129/129 
f 130/130/130 131/131/131 137/137/137 
f 137/137/137 131/131/131 138/138/138 
f 130/130/130 139/139/139 132/132/132 
f 132/132/132 139/139/139 135/135/135 
f 130/130/130 137/137/137 139/139/139 
f 133/133/133 140/140/140 134/134/134 
f 140/140/140 141/141/141 134/134/134 
f 135/135/135 142/142/142 136/136/136 
f 139/139/139 142/142/142 135/135/135 
f 136/136/136 143/143/143 133/133/133 
f 143/143/143 140/140/140 133/133/133 
f 142/142/142 143/143/143 136/136/136 
f 137/137/137 138/138/138 144/144/144 
f 144/144/144 138/138/138 145/145/145 
f 137/137/137 146/146/146 139/139/139 
f 139/139/139 146/146/146 142/142/142 
f 137/137/137 144/144/144 146/146/146 
f 140/140/140 147/147/147 141/141/141 
f 147/147/147 148/148/148 141/141/141 
f 142/142/142 149/149/149 143/143/143 
f 146/146/146 149/149/149 142/142/142 
f 143/143/143 150/150/150 140/140/140 
f 150/150/150 147/147/147 140/140/140 
f 149/149/149 150/150/150 143/143/143 
f 144/144/144 145/145/145 151/151/151 
f 151/151/151 145/145/145 152/152/152 
f 144/144/144 153/153/153 146/146/146 
f 146/146/146 153/153/153 149/149/149 
f 144/144/144 151/151/151 153/153/153 
f 147/147/147 154/154/154 148/148/148 
f 154/154/154 155/155/155 148/148/148 
f 149/149/149 156/156/156 150/150/150 
f 153/153/153 156/156/156 149/149/149 
f 150/150/150 157/157/157 147/147/147 
f 157/157/157 154/154/154 147/147/147 
f 156/156/156 157/157/157 150/150/150 
f 151/151/151 152/152/152 158/158/158 
f 158/158/158 152/152/152 159/159/159 
f 151/151/151 160/160/160 153/153/153 
f 153/153/153 160/160/160 156/156/156 
f 151/151/151 158/158/158 160/160/160 
f 154/154/154 161/161/161 155/155/155 
f 161/161/161 162/162/162 155/155/155 
f 156/156/156 163/163/163 157/157/157 
f 160/160/160 163/163/163 156/156/156 
f 157/157/157 164/164/164 154/154/154 
f 164/164/164 161/161/161 154/154/154 
f 163/163/163 164/164/164 157/157/157 
f 158/158/158 159/159/159 165/165/165 
f 165/165/165 159/159/159 166/166/166 
f 158/158/158 167/167/167 160/160/160 
f 160/160/160 167/167/167 163/163/163 
f 158/158/158 165/165/165 167/167/167 
f 161/161/161 168/168/168 162/162/162 
f 168/168/168 169/169/169 162/162/162 
f 168/168/168 170/170/170 169/169/169 
f 170/170/170 171/171/171 169/169/169 
f 170/170/170 172/172/172 171/171/171 
f 173/173/173 172/172/172 170/170/170 
f 170/170/170 174/174/174 173/173/173 
f 165/165/165 166/166/166 175/175/175 
f 175/175/175 166/166/166 176/176/176 
f 167/167/167 177/177/177 163/163/163 
f 163/163/163 177/177/177 164/164/164 
f 165/165/165 178/178/178 167/167/167 
f 165/165/165 175/175/175 178/178/178 
f 167/167/167 178/178/178 177/177/177 
f 179/179/179 174/174/174 170/170/170 
f 174/174/174 179/179/179 180/180/180 
f 180/180/180 179/179/179 181/181/181 
f 175/175/175 176/176/176 182/182/182 
f 182/182/182 176/176/176 183/183/183 
f 177/177/177 184/184/184 164/164/164 
f 164/164/164 184/184/184 161/161/161 
f 184/184/184 168/168/168 161/161/161 
f 185/185/185 170/170/170 168/168/168 
f 184/184/184 185/185/185 168/168/168 
f 185/185/185 179/179/179 170/170/170 
f 177/177/177 186/186/186 184/184/184 
f 186/186/186 185/185/185 184/184/184 
f 178/178/178 186/186/186 177/177/177 
f 175/175/175 187/187/187 178/178/178 
f 178/178/178 187/187/187 186/186/186 
f 175/175/175 182/182/182 187/187/187 
f 186/186/186 188/188/188 185/185/185 
f 188/188/188 179/179/179 185/185/185 
f 187/187/187 188/188/188 186/186/186 
f 182/182/182 183/183/183 189/189/189 
f 189/189/189 183/183/183 190/190/190 
f 182/182/182 191/191/191 187/187/187 
f 187/187/187 191/191/191 188/188/188 
f 182/182/182 189/189/189 191/191/191 
f 189/189/189 192/192/192 191/191/191 
f 188/188/188 193/193/193 179/179/179 
f 191/191/191 193/193/193 188/188/188 
f 191/191/191 192/192/192 193/193/193 
f 193/193/193 181/181/181 179/179/179 
f 193/193/193 194/194/194 181/181/181 
f 192/192/192 194/194/194 193/193/193 
f 192/192/192 195/195/195 194/194/194 
f 196/196/196 195/195/195 192/192/192 
f 192/192/192 197/197/197 196/196/196 
f 189/189/189 190/190/190 198/198/198 
f 189/189/189 198/198/198 192/192/192 
f 198/198/198 197/197/197 192/192/192 
f 198/198/198 190/190/190 199/199/199 
f 197/197/197 198/198/198 200/200/200 
f 198/198/198 199/199/199 201/201/201 
f 200/200/200 198/198/198 201/201/201 
f 202/202/202 204/204/204 203/203/203 
f 204/204/204 202/202/202 205/205/205 
f 205/205/205 202/202/202 206/206/206 
f 205/205/205 206/206/206 207/207/207 
f 207/207/207 206/206/206 208/208/208 
f 207/207/207 208/208/208 209/209/209 
f 209/209/209 208/208/208 210/210/210 
f 209/209/209 210/210/210 211/211/211 
f 211/211/211 210/210/210 212/212/212 
f 211/211/211 212/212/212 213/213/213 
f 213/213/213 212/212/212 214/214/214 
f 213/213/213 214/214/214 215/215/215 
f 215/215/215 214/214/214 216/216/216 
f 215/215/215 216/216/216 217/217/217 
f 217/217/217 216/216/216 218/218/218 
f 217/217/217 218/218/218 219/219/219 
f 219/219/219 218/218/218 220/220/220 
f 219/219/219 220/220/220 221/221/221 
f 221/221/221 220/220/220 222/222/222 
f 221/221/221 222/222/222 223/223/223 
f 223/223/223 222/222/222 224/224/224 
f 223/223/223 224/224/224 225/225/225 
f 225/225/225 224/224/224 226/226/226 
f 225/225/225 226/226/226 227/227/227 
f 228/228/228 230/230/230 229/229/229 
f 228/228/228 229/229/229 231/231/231 
f 232/232/232 228/228/228 231/231/231 
f 231/231/231 229/229/229 233/233/233 
f 232/232/232 231/231/231 234/234/234 
f 235/235/235 232/232/232 234/234/234 
f 231/231/231 233/233/233 236/236/236 
f 234/234/234 231/231/231 236/236/236 
f 236/236/236 233/233/233 237/237/237 
f 236/236/236 237/237/237 238/238/238 
f 239/239/239 236/236/236 238/238/238 
f 234/234/234 236/236/236 239/239/239 
f 239/239/239 238/238/238 240/240/240 
f 235/235/235 234/234/234 241/241/241 
f 241/241/241 234/234/234 239/239/239 
f 242/242/242 235/235/235 241/241/241 
f 243/243/243 239/239/239 240/240/240 
f 241/241/241 239/239/239 243/243/243 
f 243/243/243 240/240/240 244/244/244 
f 242/242/242 241/241/241 245/245/245 
f 245/245/245 241/241/241 243/243/243 
f 246/246/246 242/242/242 245/245/245 
f 247/247/247 243/243/243 244/244/244 
f 245/245/245 243/243/243 247/247/247 
f 247/247/247 244/244/244 248/248/248 
f 246/246/246 245/245/245 249/249/249 
f 249/249/249 245/245/245 247/247/247 
f 250/250/250 246/246/246 249/249/249 
f 251/251/251 247/247/247 248/248/248 
f 249/249/249 247/247/247 251/251/251 
f 251/251/251 248/248/248 252/252/252 
f 250/250/250 249/249/249 253/253/253 
f 253/253/253 249/249/249 251/251/251 
f 254/254/254 250/250/250 253/253/253 
f 255/255/255 251/251/251 252/252/252 
f 253/253/253 251/251/251 255/255/255 
f 255/255/255 252/252/252 256/256/256 
f 254/254/254 253/253/253 257/257/257 
f 257/257/257 253/253/253 255/255/255 
f 258/258/258 254/254/254 257/257/257 
f 259/259/259 255/255/255 256/256/256 
f 257/257/257 255/255/255 259/259/259 
f 259/259/259 256/256/256 260/260/260 
f 258/258/258 257/257/257 261/261/261 
f 261/261/261 257/257/257 259/259/259 
f 262/262/262 258/258/258 261/261/261 
f 263/263/263 259/259/259 260/260/260 
f 261/261/261 259/259/259 263/263/263 
f 263/263/263 260/260/260 264/264/264 
f 262/262/262 261/261/261 265/265/265 
f 265/265/265 261/261/261 263/263/263 
f 266/266/266 262/262/262 265/265/265 
f 267/267/267 263/263/263 264/264/264 
f 265/265/265 263/263/263 267/267/267 
f 267/267/267 264/264/264 268/268/268 
f 266/266/266 265/265/265 269/269/269 
f 269/269/269 265/265/265 267/267/267 
f 270/270/270 266/266/266 269/269/269 
f 271/271/271 267/267/267 268/268/268 
f 269/269/269 267/267/267 271/271/271 
f 271/271/271 268/268/268 272/272/272 
f 270/270/270 269/269/269 273/273/273 
f 273/273/273 269/269/269 271/271/271 
f 274/274/274 270/270/270 273/273/273 
f 275/275/275 271/271/271 272/272/272 
f 273/273/273 271/271/271 275/275/275 
f 275/275/275 272/272/272 276/276/276 
f 274/274/274 273/273/273 277/277/277 
f 277/277/277 273/273/273 275/275/275 
f 278/278/278 274/274/274 277/277/277 
f 279/279/279 275/275/275 276/276/276 
f 277/277/277 275/275/275 279/279/279 
f 279/279/279 276/276/276 280/280/280 
f 278/278/278 277/277/277 281/281/281 
f 281/281/281 277/277/277 279/279/279 
f 282/282/282 278/278/278 281/281/281 
f 283/283/283 279/279/279 280/280/280 
f 281/281/281 279/279/279 283/283/283 
f 283/283/283 280/280/280 284/284/284 
f 282/282/282 281/281/281 285/285/285 
f 285/285/285 281/281/281 283/283/283 
f 286/286/286 282/282/282 285/285/285 
f 287/287/287 283/283/283 284/284/284 
f 285/285/285 283/283/283 287/287/287 
f 287/287/287 284/284/284 288/288/288 
f 286/286/286 285/285/285 289/289/289 
f 289/289/289 285/285/285 287/287/287 
f 290/290/290 286/286/286 289/289/289 
f 291/291/291 287/287/287 288/288/288 
f 289/289/289 287/287/287 291/291/291 
f 291/291/291 288/288/288 292/292/292 
f 290/290/290 289/289/289 293/293/293 
f 293/293/293 289/289/289 291/291/291 
f 294/294/294 290/290/290 293/293/293 
f 295/295/295 291/291/291 292/292/292 
f 293/293/293 291/291/291 295/295/295 
f 295/295/295 292/292/292 296/296/296 
f 294/294/294 293/293/293 297/297/297 
f 297/297/297 293/293/293 295/295/295 
f 298/298/298 294/294/294 297/297/297 
f 299/299/299 295/295/295 296/296/296 
f 297/297/297 295/295/295 299/299/299 
f 299/299/299 296/296/296 300/300/300 
f 298/298/298 297/297/297 301/301/301 
f 301/301/301 297/297/297 299/299/299 
f 302/302/302 298/298/298 301/301/301 
f 303/303/303 299/299/299 300/300/300 
f 301/301/301 299/299/299 303/303/303 
f 303/303/303 300/300/300 304/304/304 
f 302/302/302 301/301/301 305/305/305 
f 305/305/305 301/301/301 303/303/303 
f 306/306/306 302/302/302 305/305/305 
f 307/307/307 303/303/303 304/304/304 
f 305/305/305 303/303/303 307/307/307 
f 307/307/307 304/304/304 308/308/308 
f 306/306/306 305/305/305 309/309/309 
f 309/309/309 305/305/305 307/307/307 
f 310/310/310 306/306/306 309/309/309 
f 311/311/311 307/307/307 308/308/308 
f 309/309/309 307/307/307 311/311/311 
f 311/311/311 308/308/308 312/312/312 
f 310/310/310 309/309/309 313/313/313 
f 313/313/313 309/309/309 311/311/311 
f 314/314/314 310/310/310 313/313/313 
f 315/315/315 311/311/311 312/312/312 
f 313/313/313 311/311/311 315/315/315 
f 315/315/315 312/312/312 316/316/316 
f 314/314/314 313/313/313 317/317/317 
f 317/317/317 313/313/313 315/315/315 
f 318/318/318 314/314/314 317/317/317 
f 319/319/319 315/315/315 316/316/316 
f 317/317/317 315/315/315 319/319/319 
f 319/319/319 316/316/316 320/320/320 
f 318/318/318 317/317/317 321/321/321 
f 321/321/321 317/317/317 319/319/319 
f 322/322/322 318/318/318 321/321/321 
f 323/323/323 319/319/319 320/320/320 
f 321/321/321 319/319/319 323/323/323 
f 323/323/323 320/320/320 324/324/324 
f 322/322/322 321/321/321 325/325/325 
f 325/325/325 321/321/321 323/323/323 
f 326/326/326 322/322/322 325/325/325 
f 327/327/327 323/323/323 324/324/324 
f 325/325/325 323/323/323 327/327/327 
f 327/327/327 324/324/324 328/328/328 
f 326/326/326 325/325/325 329/329/329 
f 329/329/329 325/325/325 327/327/327 
f 330/330/330 326/326/326 329/329/329 
f 330/330/330 329/329/329 331/331/331 
f 332/332/332 327/327/327 328/328/328 
f 329/329/329 327/327/327 332/332/332 
f 331/331/331 329/329/329 332/332/332 
f 332/332/332 328/328/328 333/333/333 
f 331/331/331 332/332/332 334/334/334 
f 334/334/334 332/332/332 333/333/333 
f 334/334/334 333/333/333 335/335/335 
f 336/336/336 338/338/338 337/337/337 
f 338/338/338 336/336/336 339/339/339 
f 338/338/338 339/339/339 340/340/340 
f 340/340/340 339/339/339 341/341/341 
f 340/340/340 341/341/341 342/342/342 
f 342/342/342 341/341/341 343/343/343 
f 342/342/342 343/343/343 344/344/344 
f 344/344/344 343/343/343 345/345/345 
f 344/344/344 345/345/345 346/346/346 
f 346/346/346 345/345/345 347/347/347 
f 346/346/346 347/347/347 348/348/348 
f 348/348/348 347/347/347 349/349/349 
f 348/348/348 349/349/349 350/350/350 
f 350/350/350 349/349/349 351/351/351 
f 350/350/350 351/351/351 352/352/352 
f 352/352/352 351/351/351 353/353/353 
f 352/352/352 353/353/353 354/354/354 
f 354/354/354 353/353/353 355/355/355 
f 354/354/354 355/355/355 356/356/356 
f 356/356/356 355/355/355 357/357/357 
f 356/356/356 357/357/357 358/358/358 
f 358/358/358 357/357/357 359/359/359 
f 358/358/358 359/359/359 360/360/360 
f 360/360/360 359/359/359 361/361/361 
f 362/362/362 364/364/364 363/363/363 
f 362/362/362 365/365/365 364/364/364 
f 365/365/365 366/366/366 364/364/364 
f 362/362/362 367/367/367 365/365/365 
f 362/362/362 368/368/368 367/367/367 
f 365/365/365 369/369/369 366/366/366 
f 369/369/369 370/370/370 366/366/366 
f 365/365/365 367/367/367 371/371/371 
f 365/365/365 371/371/371 369/369/369 
f 368/368/368 372/372/372 367/367/367 
f 368/368/368 373/373/373 372/372/372 
f 369/369/369 374/374/374 370/370/370 
f 374/374/374 375/375/375 370/370/370 
f 369/369/369 371/371/371 376/376/376 
f 369/369/369 376/376/376 374/374/374 
f 367/367/367 377/377/377 371/371/371 
f 367/367/367 372/372/372 377/377/377 
f 373/373/373 378/378/378 372/372/372 
f 373/373/373 379/379/379 378/378/378 
f 371/371/371 380/380/380 376/376/376 
f 371/371/371 377/377/377 380/380/380 
f 372/372/372 381/381/381 377/377/377 
f 372/372/372 378/378/378 381/381/381 
f 379/379/379 382/382/382 378/378/378 
f 379/379/379 383/383/383 382/382/382 
f 377/377/377 384/384/384 380/380/380 
f 377/377/377 381/381/381 384/384/384 
f 378/378/378 385/385/385 381/381/381 
f 378/378/378 382/382/382 385/385/385 
f 383/383/383 386/386/386 382/382/382 
f 383/383/383 387/387/387 386/386/386 
f 381/381/381 388/388/388 384/384/384 
f 381/381/381 385/385/385 388/388/388 
f 382/382/382 389/389/389 385/385/385 
f 382/382/382 386/386/386 389/389/389 
f 387/387/387 390/390/390 386/386/386 
f 387/387/387 391/391/391 390/390/390 
f 385/385/385 392/392/392 388/388/388 
f 385/385/385 389/389/389 392/392/392 
f 386/386/386 393/393/393 389/389/389 
f 386/386/386 390/390/390 393/393/393 
f 391/391/391 394/394/394 390/390/390 
f 391/391/391 395/395/395 394/394/394 
f 389/389/389 396/396/396 392/392/392 
f 389/389/389 393/393/393 396/396/396 
f 390/390/390 397/397/397 393/393/393 
f 390/390/390 394/394/394 397/397/397 
f 395/395/395 398/398/398 394/394/394 
f 395/395/395 399/399/399 398/398/398 
f 393/393/393 400/400/400 396/396/396 
f 393/393/393 397/397/397 400/400/400 
f 394/394/394 401/401/401 397/397/397 
f 394/394/394 398/398/398 401/401/401 
f 399/399/399 402/402/402 398/398/398 
f 399/399/399 403/403/403 402/402/402 
f 397/397/397 404/404/404 400/400/400 
f 397/397/397 401/401/401 404/404/404 
f 398/398/398 405/405/405 401/401/401 
f 398/398/398 402/402/402 405/405/405 
f 403/403/403 406/406/406 402/402/402 
f 403/403/403 407/407/407 406/406/406 
f 401/401/401 408/408/408 404/404/404 
f 401/401/401 405/405/405 408/408/408 
f 402/402/402 409/409/409 405/405/405 
f 402/402/402 406/406/406 409/409/409 
f 407/407/407 410/410/410 406/406/406 
f 407/407/407 411/411/411 410/410/410 
f 411/411/411 412/412/412 410/410/410 
f 411/411/411 413/413/413 412/412/412 
f 410/410/410 412/412/412 414/414/414 
f 406/406/406 410/410/410 415/415/415 
f 410/410/410 414/414/414 415/415/415 
f 406/406/406 415/415/415 409/409/409 
f 415/415/415 414/414/414 416/416/416 
f 405/405/405 409/409/409 417/417/417 
f 405/405/405 417/417/417 408/408/408 
f 409/409/409 415/415/415 418/418/418 
f 415/415/415 416/416/416 418/418/418 
f 409/409/409 418/418/418 417/417/417 
f 418/418/418 416/416/416 419/419/419 
f 417/417/417 418/418/418 419/419/419 
f 419/419/419 416/416/416 420/420/420 
f 421/421/421 419/419/419 420/420/420 
f 408/408/408 417/417/417 422/422/422 
f 417/417/417 419/419/419 422/422/422 
f 423/423/423 419/419/419 421/421/421 
f 422/422/422 419/419/419 423/423/423 
f 408/408/408 422/422/422 424/424/424 
f 404/404/404 408/408/408 424/424/424 
f 425/425/425 423/423/423 421/421/421 
f 425/425/425 421/421/421 426/426/426 
f 422/422/422 423/423/423 427/427/427 
f 424/424/424 422/422/422 427/427/427 
f 427/427/427 423/423/423 425/425/425 
f 404/404/404 424/424/424 428/428/428 
f 400/400/400 404/404/404 428/428/428 
f 429/429/429 425/425/425 426/426/426 
f 429/429/429 426/426/426 430/430/430 
f 424/424/424 427/427/427 431/431/431 
f 428/428/428 424/424/424 431/431/431 
f 427/427/427 425/425/425 432/432/432 
f 432/432/432 425/425/425 429/429/429 
f 431/431/431 427/427/427 432/432/432 
f 400/400/400 428/428/428 433/433/433 
f 396/396/396 400/400/400 433/433/433 
f 434/434/434 429/429/429 430/430/430 
f 434/434/434 430/430/430 435/435/435 
f 436/436/436 429/429/429 434/434/434 
f 432/432/432 429/429/429 436/436/436 
f 436/436/436 434/434/434 437/437/437 
f 428/428/428 431/431/431 438/438/438 
f 433/433/433 428/428/428 438/438/438 
f 431/431/431 432/432/432 439/439/439 
f 439/439/439 432/432/432 436/436/436 
f 438/438/438 431/431/431 439/439/439 
f 440/440/440 436/436/436 437/437/437 
f 439/439/439 436/436/436 440/440/440 
f 440/440/440 437/437/437 441/441/441 
f 396/396/396 433/433/433 442/442/442 
f 392/392/392 396/396/396 442/442/442 
f 433/433/433 438/438/438 443/443/443 
f 442/442/442 433/433/433 443/443/443 
f 438/438/438 439/439/439 444/444/444 
f 444/444/444 439/439/439 440/440/440 
f 443/443/443 438/438/438 444/444/444 
f 445/445/445 440/440/440 441/441/441 
f 444/444/444 440/440/440 445/445/445 
f 445/445/445 441/441/441 446/446/446 
f 392/392/392 442/442/442 447/447/447 
f 388/388/388 392/392/392 447/447/447 
f 442/442/442 443/443/443 448/448/448 
f 447/447/447 442/442/442 448/448/448 
f 443/443/443 444/444/444 449/449/449 
f 449/449/449 444/444/444 445/445/445 
f 448/448/448 443/443/443 449/449/449 
f 450/450/450 445/445/445 446/446/446 
f 449/449/449 445/445/445 450/450/450 
f 450/450/450 446/446/446 451/451/451 
f 388/388/388 447/447/447 452/452/452 
f 384/384/384 388/388/388 452/452/452 
f 447/447/447 448/448/448 453/453/453 
f 452/452/452 447/447/447 453/453/453 
f 448/448/448 449/449/449 454/454/454 
f 454/454/454 449/449/449 450/450/450 
f 453/453/453 448/448/448 454/454/454 
f 455/455/455 450/450/450 451/451/451 
f 454/454/454 450/450/450 455/455/455 
f 455/455/455 451/451/451 456/456/456 
f 384/384/384 452/452/452 457/457/457 
f 380/380/380 384/384/384 457/457/457 
f 452/452/452 453/453/453 458/458/458 
f 457/457/457 452/452/452 458/458/458 
f 453/453/453 454/454/454 459/459/459 
f 459/459/459 454/454/454 455/455/455 
f 458/458/458 453/453/453 459/459/459 
f 460/460/460 455/455/455 456/456/456 
f 459/459/459 455/455/455 460/460/460 
f 460/460/460 456/456/456 461/461/461 
f 380/380/380 457/457/457 462/462/462 
f 376/376/376 380/380/380 462/462/462 
f 457/457/457 458/458/458 463/463/463 
f 462/462/462 457/457/457 463/463/463 
f 458/458/458 459/459/459 464/464/464 
f 464/464/464 459/459/459 460/460/460 
f 463/463/463 458/458/458 464/464/464 
f 465/465/465 460/460/460 461/461/461 
f 464/464/464 460/460/460 465/465/465 
f 465/465/465 461/461/461 466/466/466 
f 376/376/376 462/462/462 467/467/467 
f 374/374/374 376/376/376 467/467/467 
f 462/462/462 463/463/463 468/468/468 
f 467/467/467 462/462/462 468/468/468 
f 463/463/463 464/464/464 469/469/469 
f 469/469/469 464/464/464 465/465/465 
f 468/468/468 463/463/463 469/469/469 
f 470/470/470 465/465/465 466/466/466 
f 469/469/469 465/465/465 470/470/470 
f 470/470/470 466/466/466 471/471/471 
f 374/374/374 467/467/467 472/472/472 
f 375/375/375 374/374/374 472/472/472 
f 467/467/467 468/468/468 473/473/473 
f 472/472/472 467/467/467 473/473/473 
f 468/468/468 469/469/469 474/474/474 
f 474/474/474 469/469/469 470/470/470 
f 473/473/473 468/468/468 474/474/474 
f 475/475/475 470/470/470 471/471/471 
f 474/474/474 470/470/470 475/475/475 
f 475/475/475 471/471/471 476/476/476 
f 375/375/375 472/472/472 477/477/477 
f 472/472/472 473/473/473 477/477/477 
f 477/477/477 478/478/478 375/375/375 
f 473/473/473 474/474/474 479/479/479 
f 479/479/479 474/474/474 475/475/475 
f 477/477/477 473/473/473 479/479/479 
f 480/480/480 475/475/475 476/476/476 
f 479/479/479 475/475/475 480/480/480 
f 480/480/480 476/476/476 481/481/481 
f 482/482/482 478/478/478 477/477/477 
f 477/477/477 479/479/479 482/482/482 
f 482/482/482 479/479/479 480/480/480 
f 482/482/482 483/483/483 478/478/478 
f 484/484/484 480/480/480 481/481/481 
f 482/482/482 480/480/480 484/484/484 
f 484/484/484 483/483/483 482/482/482 
f 484/484/484 481/481/481 485/485/485 
f 484/484/484 486/486/486 483/483/483 
f 485/485/485 486/486/486 484/484/484 
f 485/485/485 487/487/487 486/486/486 
f 488/488/488 490/490/490 489/489/489 
f 488/488/488 491/491/491 490/490/490 
f 492/492/492 488/488/488 489/489/489 
f 491/491/491 493/493/493 490/490/490 
f 492/492/492 489/489/489 494/494/494 
f 491/491/491 495/495/495 493/493/493 
f 496/496/496 492/492/492 494/494/494 
f 495/495/495 497/497/497 493/493/493 
f 496/496/496 494/494/494 498/498/498 
f 495/495/495 499/499/499 497/497/497 
f 500/500/500 496/496/496 498/498/498 
f 499/499/499 501/501/501 497/497/497 
f 500/500/500 498/498/498 502/502/502 
f 499/499/499 503/503/503 501/501/501 
f 504/504/504 500/500/500 502/502/502 
f 503/503/503 505/505/505 501/501/501 
f 504/504/504 502/502/502 506/506/506 
f 503/503/503 507/507/507 505/505/505 
f 508/508/508 504/504/504 506/506/506 
f 507/507/507 509/509/509 505/505/505 
f 508/508/508 506/506/506 510/510/510 
f 507/507/507 511/511/511 509/509/509 
f 512/512/512 508/508/508 510/510/510 
f 511/511/511 513/513/513 509/509/509 
f 512/512/512 510/510/510 514/514/514 
f 511/511/511 515/515/515 513/513/513 
f 516/516/516 512/512/512 514/514/514 
f 515/515/515 517/517/517 513/513/513 
f 516/516/516 514/514/514 518/518/518 
f 515/515/515 519/519/519 517/517/517 
f 520/520/520 516/516/516 518/518/518 
f 519/519/519 521/521/521 517/517/517 
f 520/520/520 518/518/518 522/522/522 
f 519/519/519 523/523/523 521/521/521 
f 524/524/524 520/520/520 522/522/522 
f 523/523/523 525/525/525 521/521/521 
f 524/524/524 522/522/522 526/526/526 
f 523/523/523 527/527/527 525/525/525 
f 528/528/528 524/524/524 526/526/526 
f 527/527/527 529/529/529 525/525/525 
f 528/528/528 526/526/526 530/530/530 
f 527/527/527 531/531/531 529/529/529 
f 532/532/532 528/528/528 530/530/530 
f 531/531/531 533/533/533 529/529/529 
f 532/532/532 530/530/530 534/534/534 
f 531/531/531 535/535/535 533/533/533 
f 536/536/536 532/532/532 534/534/534 
f 535/535/535 537/537/537 533/533/533 
f 536/536/536 534/534/534 538/538/538 
f 535/535/535 539/539/539 537/537/537 
f 539/539/539 536/536/536 538/538/538 
f 539/539/539 538/538/538 537/537/537 
