# exported by StudySceneExporter from mesh 'Tool_Cabinet_Wheel_Front_low'
mtllib materials.mtl
v -0.007980972 0.02591265 0.05920671
v -0.007102618 0.02252588 0.05054362
v -0.006034312 0.02510706 0.05920671
v -0.00904922 0.02333155 0.05054362
v -0.01597007 0.006609668 0.07087682
v -0.007102656 0.02252581 -0.01865012
v -0.007980972 0.02591265 0.07087682
v 0.004707684 0.02863794 0.07087682
v 0.004707684 0.02863794 0.05920671
v 0.01690773 0.02358866 0.05920671
v 0.01690773 0.02358866 0.07087682
v 0.02395915 0.01269335 0.05920671
v 0.02395915 0.01269335 0.07087682
v 0.01597006 -0.00660963 0.07087682
v -0.009049277 0.02333147 -0.01865012
v -0.009639448 0.02190554 -0.0259763
v -0.007692828 0.02109987 -0.0259763
v -0.009541545 0.01663302 -0.03365543
v -0.01597009 0.006609668 -0.01865012
v -0.01148818 0.01743868 -0.03365543
v -0.01371402 0.01206064 -0.03701584
v -0.0117674 0.01125498 -0.03701584
v -0.01402345 0.005804005 -0.03796554
v -0.01597009 0.006609668 -0.03796554
v -0.0189553 -0.0006031608 -0.03622607
v -0.01700866 -0.001408825 -0.03622607
v -0.01921615 -0.006742458 -0.03179671
v -0.02116277 -0.005936794 -0.03179671
v -0.02244789 -0.009041805 -0.0259763
v -0.02050125 -0.009847469 -0.0259763
v -0.02087009 -0.01073866 -0.01865012
v -0.02281673 -0.009932995 -0.01865012
v -0.02087009 -0.01073866 0.05055498
v -0.02281673 -0.009932995 0.05055498
v -0.02201257 -0.01349913 0.05920671
v -0.02395919 -0.01269346 0.05920671
v -0.02395919 -0.01269346 0.07087682
v -0.01690773 -0.02358866 0.05920671
v -0.01690773 -0.02358866 0.07087682
v -0.004707694 -0.02863798 0.07087682
v -0.004707694 -0.02863798 0.05920671
v 0.007980961 -0.02591276 0.07087682
v 0.007980961 -0.02591276 0.05920671
v 0.007980961 -0.02591276 0.05920671
v 0.007980961 -0.02591276 0.07087682
v 0.009123445 -0.02315233 0.05055498
v 0.006034322 -0.0251071 0.05920671
v 0.007176804 -0.02234663 0.05055498
v 0.007176804 -0.02234663 -0.01865012
v 0.009123445 -0.02315233 -0.01865012
v 0.009492287 -0.0222611 -0.0259763
v 0.007545657 -0.02145544 -0.0259763
v 0.008830743 -0.01835043 -0.03179671
v 0.01597008 -0.00660963 -0.01865012
v 0.01077738 -0.01915609 -0.03179671
v 0.01298485 -0.01382246 -0.03622607
v 0.01103822 -0.0130168 -0.03622607
v 0.01402344 -0.005803966 -0.03796554
v 0.01597008 -0.00660963 -0.03796554
v 0.01822613 -0.001158657 -0.03701584
v 0.01627949 -0.000352993 -0.03701584
v 0.01850535 0.005025043 -0.03365543
v 0.02045199 0.004219379 -0.03365543
v 0.02230071 0.008686237 -0.0259763
v 0.02035407 0.009491901 -0.0259763
v 0.02094426 0.01091783 -0.01865012
v 0.02289089 0.01011217 -0.01865012
v 0.02094427 0.01091791 0.05054362
v 0.0228909 0.01011225 0.05054362
v 0.02201255 0.01349909 0.05920671
v 0.02201255 0.01349909 0.05920671
v 0.02395915 0.01269335 0.05920671
v 0.01690773 0.02358866 0.05920671
v 0.004707684 0.02863794 0.05920671
v -0.006034312 0.02510706 0.05920671
v -0.007980972 0.02591265 0.05920671
v -0.01402343 0.005804005 0.05920671
v 0.01402344 -0.005803966 0.05920671
v 0.02094427 0.01091791 0.05054362
v -0.007102618 0.02252588 0.05054362
v 0.02094426 0.01091783 -0.01865012
v -0.007102656 0.02252581 -0.01865012
v 0.01402344 -0.005803966 -0.01865012
v 0.02035407 0.009491901 -0.0259763
v 0.01850535 0.005025043 -0.03365543
v 0.01627949 -0.000352993 -0.03701584
v 0.01402344 -0.005803966 -0.03796554
v 0.01103822 -0.0130168 -0.03622607
v 0.008830743 -0.01835043 -0.03179671
v 0.007545657 -0.02145544 -0.0259763
v 0.007176804 -0.02234663 -0.01865012
v 0.007176804 -0.02234663 0.05055498
v 0.006034322 -0.0251071 0.05920671
v -0.01402345 0.005804005 -0.01865012
v -0.007692828 0.02109987 -0.0259763
v -0.009541545 0.01663302 -0.03365543
v -0.0117674 0.01125498 -0.03701584
v -0.01402345 0.005804005 -0.03796554
v -0.01700866 -0.001408825 -0.03622607
v -0.01921615 -0.006742458 -0.03179671
v -0.02050125 -0.009847469 -0.0259763
v -0.02087009 -0.01073866 -0.01865012
v -0.02087009 -0.01073866 0.05055498
v -0.02201257 -0.01349913 0.05920671
v -0.01690773 -0.02358866 0.05920671
v -0.02395919 -0.01269346 0.05920671
v -0.004707694 -0.02863798 0.05920671
v 0.007980961 -0.02591276 0.05920671
v -0.01385984 0.005736256 -0.07087682
v 0.01385984 -0.005736294 -0.07087682
v 0.01986308 0.008768559 -0.06839049
v -0.007856593 0.02024111 -0.06839049
v 0.02527865 0.0218535 -0.06117489
v -0.00244102 0.03332613 -0.06117489
v 0.02957652 0.03223795 -0.04993631
v 0.001856828 0.0437105 -0.04993631
v 0.03233588 0.03890505 -0.03577488
v 0.004616208 0.0503776 -0.03577489
v 0.0332867 0.04120241 -0.02007682
v 0.005567031 0.05267496 -0.02007682
v 0.03233588 0.03890505 -0.004378757
v 0.004616208 0.0503776 -0.004378757
v 0.02957652 0.03223795 0.009782672
v 0.001856828 0.0437105 0.009782672
v 0.02527869 0.02185358 0.02102125
v -0.002441001 0.0333262 0.02102125
v 0.01986307 0.008768559 0.02823686
v -0.007856612 0.02024111 0.02823686
v 0.01385984 -0.005736294 0.03072319
v -0.01385984 0.005736256 0.03072319
v 0.007856583 -0.02024115 0.02823686
v -0.01986309 -0.008768597 0.02823686
v 0.002440991 -0.03332617 0.02102126
v -0.02527868 -0.02185362 0.02102126
v -0.001856837 -0.0437105 0.009782681
v -0.02957653 -0.03223791 0.009782681
v -0.004616199 -0.0503776 -0.004378753
v -0.03233588 -0.03890505 -0.004378753
v -0.005567031 -0.05267496 -0.02007682
v -0.0332867 -0.04120241 -0.02007682
v -0.004616199 -0.0503776 -0.03577489
v -0.03233588 -0.03890505 -0.03577489
v -0.001856837 -0.0437105 -0.04993633
v -0.02957653 -0.03223791 -0.04993633
v 0.002440991 -0.03332617 -0.06117491
v -0.02527868 -0.02185362 -0.06117491
v 0.007856603 -0.02024115 -0.06839053
v -0.01986309 -0.008768597 -0.06839053
v -0.01385984 0.005736256 -0.07087682
v 0.01385984 -0.005736294 -0.07087682
v -0.007856593 0.02024111 -0.06839049
v -0.01385984 0.005736256 -0.02007682
v -0.01385984 0.005736256 -0.07087682
v -0.00244102 0.03332613 -0.06117489
v -0.01986309 -0.008768597 -0.06839053
v 0.001856828 0.0437105 -0.04993631
v -0.02527868 -0.02185362 -0.06117491
v 0.004616208 0.0503776 -0.03577489
v -0.02957653 -0.03223791 -0.04993633
v 0.005567031 0.05267496 -0.02007682
v -0.03233588 -0.03890505 -0.03577489
v 0.004616208 0.0503776 -0.004378757
v -0.0332867 -0.04120241 -0.02007682
v 0.001856828 0.0437105 0.009782672
v -0.03233588 -0.03890505 -0.004378753
v -0.002441001 0.0333262 0.02102125
v -0.02957653 -0.03223791 0.009782681
v -0.007856612 0.02024111 0.02823686
v -0.02527868 -0.02185362 0.02102126
v -0.01385984 0.005736256 0.03072319
v -0.01986309 -0.008768597 0.02823686
v 0.01385984 -0.005736294 -0.07087682
v 0.01385984 -0.005736294 -0.02007682
v 0.01986308 0.008768559 -0.06839049
v 0.007856603 -0.02024115 -0.06839053
v 0.02527865 0.0218535 -0.06117489
v 0.002440991 -0.03332617 -0.06117491
v 0.02957652 0.03223795 -0.04993631
v -0.001856837 -0.0437105 -0.04993633
v 0.03233588 0.03890505 -0.03577488
v -0.004616199 -0.0503776 -0.03577489
v 0.0332867 0.04120241 -0.02007682
v -0.005567031 -0.05267496 -0.02007682
v 0.03233588 0.03890505 -0.004378757
v -0.004616199 -0.0503776 -0.004378753
v 0.02957652 0.03223795 0.009782672
v -0.001856837 -0.0437105 0.009782681
v 0.02527869 0.02185358 0.02102125
v 0.002440991 -0.03332617 0.02102126
v 0.01986307 0.008768559 0.02823686
v 0.007856583 -0.02024115 0.02823686
v 0.01385984 -0.005736294 0.03072319
v -0.01985837 0.01488733 -0.0163417
v -0.01323955 0.01214792 -0.0163417
v -0.01563133 0.006368961 -0.01273075
v -0.01985837 0.01488733 -0.0235636
v -0.01323955 0.01214792 -0.0235636
v -0.02225015 0.009108371 -0.01273075
v -0.0180231 0.0005900001 -0.0163417
v -0.02225013 0.009108371 -0.02717455
v -0.01563133 0.006368961 -0.02717455
v -0.02225015 0.009108371 -0.01995265
v -0.02464193 0.00332941 -0.0163417
v -0.0180231 0.0005900001 -0.0235636
v -0.02464193 0.00332941 -0.0235636
v 0.02004716 -0.01516645 -0.0163417
v 0.01342835 -0.01242704 -0.0163417
v 0.01582013 -0.006648083 -0.01273075
v 0.02004716 -0.01516645 -0.0235636
v 0.01342835 -0.01242704 -0.0235636
v 0.02243894 -0.009387493 -0.01273075
v 0.01821189 -0.0008691215 -0.0163417
v 0.02243893 -0.009387493 -0.02717455
v 0.01582013 -0.006648083 -0.02717455
v 0.02243894 -0.009387493 -0.01995265
v 0.02483073 -0.003608532 -0.0163417
v 0.0182119 -0.0008691215 -0.0235636
v 0.02483073 -0.003608532 -0.0235636
vt 0.8627972 0.5089415
vt 0.8630487 0.5031415
vt 0.8615282 0.5086503
vt 0.8643773 0.5032765
vt 0.8757393 0.5160413
vt 0.8640352 0.4593586
vt 0.8628854 0.5163041
vt 0.854721 0.5164644
vt 0.8545842 0.5091011
vt 0.8462461 0.5092641
vt 0.8463969 0.516627
vt 0.8380331 0.5094255
vt 0.8382324 0.5167854
vt 0.8253778 0.5170223
vt 0.8653492 0.459524
vt 0.8665211 0.4549956
vt 0.8653191 0.454391
vt 0.8688031 0.4494169
vt 0.8767306 0.4600089
vt 0.86966 0.4503653
vt 0.8732367 0.4483511
vt 0.8727946 0.4470714
vt 0.8769051 0.4465133
vt 0.8768408 0.4477944
vt 0.8815968 0.44895
vt 0.8821617 0.4477273
vt 0.8860816 0.4507846
vt 0.8851436 0.4516574
vt 0.8872251 0.4552568
vt 0.8884664 0.4547503
vt 0.8893192 0.4597373
vt 0.8879969 0.4598369
vt 0.8887708 0.5036191
vt 0.8874408 0.5037115
vt 0.8901941 0.509203
vt 0.8889058 0.5094611
vt 0.8885236 0.5168164
vt 0.8971082 0.5099589
vt 0.8966715 0.5173108
vt 0.904985 0.5178152
vt 0.9054297 0.5104638
vt 0.9131597 0.5183113
vt 0.9136055 0.5109599
vt 0.8119731 0.5109643
vt 0.812601 0.518303
vt 0.8132069 0.5051619
vt 0.8106753 0.5107571
vt 0.811874 0.5051227
vt 0.8096044 0.4612981
vt 0.8109294 0.4613461
vt 0.8115205 0.4567373
vt 0.8102602 0.4562798
vt 0.8124889 0.4522221
vt 0.8221946 0.4610721
vt 0.81346 0.4530578
vt 0.8168989 0.450213
vt 0.8162869 0.4490131
vt 0.8214926 0.4475941
vt 0.8216065 0.4488718
vt 0.8252295 0.4492868
vt 0.8256217 0.447991
vt 0.8297014 0.4501783
vt 0.828882 0.4511592
vt 0.8321989 0.455662
vt 0.8333765 0.455011
vt 0.8348547 0.4599236
vt 0.8335474 0.4601396
vt 0.837554 0.5036407
vt 0.8362327 0.5038281
vt 0.8392897 0.5090849
vt 0.2487745 0.8947176
vt 0.2501027 0.8947175
vt 0.2433675 0.8900716
vt 0.2350432 0.8900728
vt 0.2296376 0.8947203
vt 0.2283094 0.8947205
vt 0.2296394 0.9078911
vt 0.2487763 0.9078884
vt 0.2542364 0.896478
vt 0.2241762 0.8964822
vt 0.2978599 0.896472
vt 0.1805526 0.8964883
vt 0.2978615 0.9078816
vt 0.3024789 0.8974443
vt 0.3073206 0.9004914
vt 0.3094397 0.9041607
vt 0.310039 0.9078799
vt 0.308943 0.9128015
vt 0.306151 0.9164411
vt 0.3024818 0.9185602
vt 0.2978631 0.9191689
vt 0.2542324 0.919175
vt 0.2487781 0.9210593
vt 0.1805542 0.9078979
vt 0.175934 0.8974619
vt 0.171093 0.9005104
vt 0.1689749 0.9041802
vt 0.1683767 0.9078996
vt 0.1694741 0.9128209
vt 0.1722671 0.9164597
vt 0.1759369 0.9185778
vt 0.1805558 0.9191853
vt 0.2241865 0.9191793
vt 0.2296413 0.9210619
vt 0.2350482 0.9257079
vt 0.228313 0.9210621
vt 0.2433725 0.9257067
vt 0.2501064 0.9210591
vt 0.8769106 0.007814174
vt 0.8579969 0.0078125
vt 0.8579961 0.01783279
vt 0.8769097 0.01783443
vt 0.8579953 0.02785308
vt 0.8769089 0.02785478
vt 0.8579944 0.03787337
vt 0.876908 0.03787501
vt 0.8579935 0.04789366
vt 0.8769072 0.0478953
vt 0.8579926 0.05791395
vt 0.8769063 0.05791559
vt 0.8579917 0.06793418
vt 0.8769054 0.06793582
vt 0.8579909 0.07795446
vt 0.8769045 0.0779561
vt 0.85799 0.08797476
vt 0.8769037 0.0879764
vt 0.8579891 0.09799504
vt 0.8769028 0.09799668
vt 0.8579882 0.1080153
vt 0.8769019 0.108017
vt 0.8579874 0.1180356
vt 0.876901 0.1180373
vt 0.8579866 0.1280559
vt 0.8769001 0.1280576
vt 0.8579857 0.1380762
vt 0.8768992 0.1380778
vt 0.8579848 0.1480964
vt 0.8768984 0.1480981
vt 0.8579839 0.1581167
vt 0.8768975 0.1581184
vt 0.857983 0.168137
vt 0.8768967 0.1681387
vt 0.8579821 0.1781573
vt 0.8768958 0.1781589
vt 0.8579813 0.1881776
vt 0.8768949 0.1881792
vt 0.8579804 0.1981979
vt 0.876894 0.1981995
vt 0.8768932 0.2082198
vt 0.8579795 0.2082182
vt 0.4337815 0.9250304
vt 0.4192415 0.9535668
vt 0.441888 0.9309202
vt 0.4242516 0.921934
vt 0.4477779 0.9390268
vt 0.4142314 0.9219339
vt 0.4508743 0.9485567
vt 0.4047015 0.9250305
vt 0.4508743 0.9585769
vt 0.3965949 0.9309202
vt 0.4477779 0.9681067
vt 0.3907052 0.9390268
vt 0.4418881 0.9762134
vt 0.3876087 0.9485566
vt 0.4337815 0.9821032
vt 0.3876087 0.9585769
vt 0.4242516 0.9851996
vt 0.3907052 0.9681067
vt 0.4142314 0.9851996
vt 0.3965949 0.9762133
vt 0.4047015 0.9821032
vt 0.836846 0.8478491
vt 0.8052139 0.8428342
vt 0.8337481 0.8573784
vt 0.8368475 0.8378288
vt 0.8278571 0.8654842
vt 0.8337525 0.8282984
vt 0.8197497 0.8713727
vt 0.8278639 0.820191
vt 0.8102193 0.8744677
vt 0.8197582 0.8143
vt 0.8001991 0.8744662
vt 0.8102288 0.8112022
vt 0.7906697 0.8713683
vt 0.8002086 0.8112006
vt 0.782564 0.8654773
vt 0.7906782 0.8142956
vt 0.7766754 0.8573699
vt 0.7825707 0.8201842
vt 0.7735804 0.8478396
vt 0.7766798 0.8282899
vt 0.7735819 0.8378193
vt 0.8873689 0.2192897
vt 0.883711 0.2177845
vt 0.8837488 0.2260336
vt 0.8913507 0.2175355
vt 0.8908634 0.2136071
vt 0.886892 0.2236211
vt 0.8908985 0.2301402
vt 0.8948652 0.2201207
vt 0.8980321 0.2177511
vt 0.8908812 0.2218758
vt 0.890397 0.2262119
vt 0.8980311 0.2260055
vt 0.8943867 0.2244531
vt 0.8063711 0.3584853
vt 0.8095155 0.3560857
vt 0.8023732 0.3519582
vt 0.8058778 0.3628083
vt 0.8095158 0.3643686
vt 0.8028713 0.3558891
vt 0.7952214 0.356061
vt 0.801873 0.3645394
vt 0.8023221 0.368469
vt 0.8023666 0.360214
vt 0.7988665 0.3576092
vt 0.7951948 0.3643054
vt 0.7983732 0.3619414
vn -0.6582155 0.7526078 -0.01827188
vn 0.3821671 0.9233972 -0.03585746
vn 0.3639219 0.8794177 -0.3068962
vn -0.8941365 0.4477872 -0.002576555
vn -0.9239886 0.3824201 2.528467E-07
vn 0.3823404 0.9238015 -0.02016495
vn -0.5958129 0.8031232 0
vn 0.09297261 0.9956686 0
vn 0.09297261 0.9956686 0
vn 0.6378598 0.7701525 0
vn 0.6378598 0.7701525 0
vn 0.9975643 0.06731796 -0.01827154
vn 0.9891132 0.1471566 0
vn 0.9239891 -0.3824187 2.443139E-07
vn -0.8776188 0.4793542 -0.00216377
vn -0.8047511 0.5852904 -0.09904961
vn 0.3519469 0.8503717 -0.3911539
vn 0.2751578 0.6648457 -0.6944554
vn -0.9239885 0.3824202 2.053322E-07
vn -0.8217834 0.540928 -0.1790779
vn -0.8651937 0.4478534 -0.2255375
vn 0.1319922 0.3189242 -0.9385443
vn -0.02199984 -0.05315616 -0.9983438
vn -0.9018865 0.3582144 -0.2414191
vn -0.9344807 0.2764934 -0.2242701
vn -0.1581725 -0.3821839 -0.9104487
vn -0.2855176 -0.6898628 -0.6652586
vn -0.9658671 0.2004205 -0.1641111
vn -0.985941 0.1470565 -0.07933965
vn -0.3632684 -0.877712 -0.3125024
vn -0.3823833 -0.9239179 -0.01260169
vn -0.9599482 0.2801741 -0.001363911
vn -0.3821315 -0.9233121 -0.0383437
vn -0.9492342 0.3145581 -0.002776148
vn -0.3614657 -0.8733878 -0.3263988
vn -0.9975193 -0.06762423 -0.01955445
vn -0.9891129 -0.1471585 0
vn -0.6378577 -0.7701542 0
vn -0.6378577 -0.7701542 0
vn -0.09297527 -0.9956684 0
vn -0.09297527 -0.9956684 0
vn 0.2099845 -0.9777048 0
vn 0.2099845 -0.9777048 0
vn 0.8855237 -0.4635607 -0.03096984
vn 0.92399 -0.3824165 0
vn 0.8938929 -0.448272 -0.00277641
vn -0.361464 -0.873388 -0.3264003
vn -0.3821471 -0.9233056 -0.03834364
vn -0.3823995 -0.9239112 -0.0126019
vn 0.8771739 -0.4801709 -0.001363833
vn 0.8014947 -0.5927157 -0.07933716
vn -0.363257 -0.8777158 -0.3125049
vn -0.2855123 -0.6898679 -0.6652557
vn 0.9239891 -0.3824188 2.288796E-07
vn 0.8249995 -0.5407807 -0.16411
vn 0.8565538 -0.4647783 -0.2242696
vn -0.1581785 -0.3821841 -0.9104475
vn -0.0220001 -0.05315599 -0.9983438
vn 0.8912469 -0.3839207 -0.2414207
vn 0.9286318 -0.2945758 -0.2255392
vn 0.1319982 0.3189229 -0.9385439
vn 0.2751721 0.6648405 -0.6944548
vn 0.9636956 -0.1980449 -0.1790779
vn 0.9829963 -0.1546182 -0.09905247
vn 0.3519544 0.8503677 -0.3911557
vn 0.382338 0.9238025 -0.02016487
vn 0.9596855 -0.2810679 -0.002163894
vn 0.3821753 0.9233939 -0.03585766
vn 0.9490633 -0.3150751 -0.002576382
vn 0.3640105 0.879382 -0.3068939
vn -0.04946102 0.02047064 -0.9985663
vn 0 -6.141969E-06 -1
vn 0 2.835091E-07 -1
vn 0 2.964321E-07 -1
vn 0.04946096 -0.02047079 -0.9985663
vn 0 0 -1
vn 0.5619257 -0.2325691 -0.7938206
vn -0.5619252 0.2325691 -0.793821
vn -0.9239882 0.3824208 -1.36723E-07
vn 0.9239892 -0.3824184 -1.12386E-07
vn -0.9239882 0.3824209 0
vn 0.9239892 -0.3824185 -2.715487E-07
vn -0.9239887 0.3824197 0
vn -0.9239897 0.3824176 0
vn -0.9239881 0.3824212 -5.105985E-07
vn -0.9239877 0.3824222 7.75858E-07
vn -0.9239895 0.3824179 0
vn -0.9239897 0.3824173 0
vn -0.9239901 0.3824163 0
vn -0.9239902 0.382416 -1.413896E-06
vn -0.9239892 0.3824186 -1.270107E-07
vn -0.9239892 0.3824186 0
vn -0.048592 0.02011096 -0.9986162
vn 0.9239889 -0.3824192 -1.252685E-07
vn 0.9239894 -0.3824179 0
vn 0.9239878 -0.382422 -2.069287E-07
vn 0.9239877 -0.3824223 -1.55172E-06
vn 0.9239897 -0.3824173 0
vn 0.9239882 -0.3824209 6.552585E-07
vn 0.9239885 -0.3824203 7.607758E-07
vn 0.9239901 -0.3824162 1.413895E-06
vn 0.9239887 -0.3824199 0
vn 0.9239886 -0.3824199 -4.359009E-07
vn 0.04859177 -0.0201111 -0.9986162
vn 0 0 -1
vn 0 6.141704E-06 -1
vn 0 0 -1
vn 0 0 -1
vn 0.05982346 0.1445436 -0.9876884
vn 0.05982348 0.1445436 -0.9876884
vn 0.1181745 0.2855283 -0.9510565
vn 0.1181744 0.2855283 -0.9510565
vn 0.2247801 0.5431058 -0.8090179
vn 0.2247803 0.5431063 -0.8090176
vn 0.3093837 0.7475222 -0.5877859
vn 0.3093837 0.7475222 -0.5877859
vn 0.363702 0.878766 -0.3090163
vn 0.363702 0.878766 -0.3090163
vn 0.3824183 0.9239893 0
vn 0.3824182 0.9239893 0
vn 0.3637035 0.8787655 0.309016
vn 0.3637035 0.8787655 0.309016
vn 0.3093857 0.7475228 0.5877841
vn 0.3093857 0.7475227 0.5877842
vn 0.2247803 0.543106 0.8090178
vn 0.2247805 0.5431064 0.8090174
vn 0.1181737 0.2855284 0.9510565
vn 0.1181737 0.2855284 0.9510565
vn 0 2.497782E-07 1
vn 0 1.692044E-07 1
vn -0.1181739 -0.285528 0.9510565
vn -0.118174 -0.2855281 0.9510565
vn -0.2247811 -0.5431076 0.8090165
vn -0.2247811 -0.5431076 0.8090165
vn -0.3093835 -0.7475237 0.5877842
vn -0.3093834 -0.7475237 0.5877842
vn -0.3637006 -0.8787665 0.3090171
vn -0.3637005 -0.8787665 0.3090171
vn -0.3824175 -0.9239897 0
vn -0.3824175 -0.9239897 0
vn -0.3637004 -0.8787665 -0.309017
vn -0.3637004 -0.8787665 -0.3090171
vn -0.3093833 -0.7475237 -0.5877842
vn -0.3093834 -0.7475237 -0.5877843
vn -0.2247809 -0.5431075 -0.8090166
vn -0.2247809 -0.5431075 -0.8090166
vn -0.1181735 -0.2855274 -0.9510568
vn -0.1181736 -0.2855276 -0.9510568
vn -0.05982268 -0.1445417 -0.9876887
vn -0.05982267 -0.1445417 -0.9876887
vn -0.9239888 0.3824194 -4.783564E-07
vn -0.9239892 0.3824186 0
vn -0.9239885 0.3824204 0
vn -0.9239897 0.3824172 -4.783539E-07
vn -0.9239891 0.3824187 -4.783547E-07
vn -0.9239897 0.3824173 9.567092E-07
vn -0.9239891 0.3824187 -4.783536E-07
vn -0.9239893 0.3824182 9.5671E-07
vn -0.9239889 0.3824191 0
vn -0.9239891 0.3824187 0
vn -0.9239891 0.3824187 1.913421E-06
vn -0.9239893 0.3824182 -9.56709E-07
vn -0.9239893 0.3824182 0
vn -0.9239894 0.382418 -9.56708E-07
vn -0.9239891 0.3824188 -1.913421E-06
vn -0.9239897 0.3824172 -2.39176E-07
vn -0.923989 0.382419 0
vn -0.9239892 0.3824186 -2.391774E-07
vn -0.9239892 0.3824185 4.783543E-07
vn -0.9239886 0.3824199 0
vn -0.9239891 0.3824187 4.783544E-07
vn 0.9239887 -0.3824198 0
vn 0.9239891 -0.3824186 0
vn 0.9239889 -0.3824192 0
vn 0.923989 -0.3824189 4.783547E-07
vn 0.9239894 -0.3824182 4.783549E-07
vn 0.9239894 -0.3824182 0
vn 0.9239889 -0.3824191 4.783544E-07
vn 0.9239892 -0.3824184 -4.783566E-07
vn 0.9239893 -0.3824183 0
vn 0.923989 -0.3824191 0
vn 0.9239897 -0.3824175 0
vn 0.9239892 -0.3824184 0
vn 0.9239893 -0.3824183 0
vn 0.923989 -0.3824188 4.783552E-07
vn 0.9239892 -0.3824185 -4.783553E-07
vn 0.9239897 -0.3824172 9.56707E-07
vn 0.9239885 -0.3824202 -4.783564E-07
vn 0.92399 -0.3824168 4.783522E-07
vn 0.9239885 -0.3824202 0
vn 0.923989 -0.3824189 0
vn 0.9239891 -0.3824188 0
vn 0.01959484 0.8803323 0.4739526
vn 0.3311855 0.8001968 0.5000012
vn 0 -1.524528E-06 1
vn 0.01959416 0.8803321 -0.4739531
vn 0.3311855 0.8001969 -0.5000011
vn -0.294338 0.1218212 0.9479055
vn -0.331188 -0.8001966 0.5
vn -0.2943371 0.1218205 -0.9479058
vn -7.728507E-07 -1.588049E-06 -1
vn -0.9239895 0.3824179 0
vn -0.6082724 -0.6366894 0.4739528
vn -0.3311886 -0.8001963 -0.5000001
vn -0.6082723 -0.6366894 -0.4739529
vn -0.01959445 -0.8803322 0.4739527
vn -0.3311883 -0.8001958 0.500001
vn 1.651573E-06 2.477359E-06 1
vn -0.01959344 -0.8803322 -0.473953
vn -0.33119 -0.8001956 -0.5000002
vn 0.2943394 -0.1218209 0.9479051
vn 0.3311912 0.8001957 0.4999993
vn 0.2943372 -0.1218226 -0.9479055
vn -1.588053E-06 1.588053E-06 -1
vn 0.9239892 -0.3824185 -1.407593E-06
vn 0.6082746 0.6366881 0.4739517
vn 0.3311904 0.8001966 -0.4999982
vn 0.6082736 0.6366886 -0.4739522
usemtl Mat_Tool_Cabinet
f 1/1/1 3/3/3 2/2/2 
f 1/1/1 2/2/2 4/4/4 
f 5/5/5 1/1/1 4/4/4 
f 6/6/6 4/4/4 2/2/2 
f 7/7/7 1/1/1 5/5/5 
f 8/8/8 1/1/1 7/7/7 
f 8/8/8 9/9/9 1/1/1 
f 8/8/8 10/10/10 9/9/9 
f 8/8/8 11/11/11 10/10/10 
f 11/11/11 12/12/12 10/10/10 
f 11/11/11 13/13/13 12/12/12 
f 13/13/13 14/14/14 12/12/12 
f 6/6/6 15/15/15 4/4/4 
f 15/15/15 5/5/5 4/4/4 
f 6/6/6 16/16/16 15/15/15 
f 6/6/6 17/17/17 16/16/16 
f 16/16/16 17/17/17 18/18/18 
f 15/15/15 16/16/16 19/19/19 
f 15/15/15 19/19/19 5/5/5 
f 19/19/19 16/16/16 20/20/20 
f 16/16/16 18/18/18 20/20/20 
f 18/18/18 21/21/21 20/20/20 
f 19/19/19 20/20/20 21/21/21 
f 18/18/18 22/22/22 21/21/21 
f 21/21/21 22/22/22 23/23/23 
f 21/21/21 23/23/23 24/24/24 
f 19/19/19 21/21/21 24/24/24 
f 23/23/23 25/25/25 24/24/24 
f 19/19/19 24/24/24 25/25/25 
f 23/23/23 26/26/26 25/25/25 
f 25/25/25 26/26/26 27/27/27 
f 25/25/25 27/27/27 28/28/28 
f 19/19/19 25/25/25 28/28/28 
f 27/27/27 29/29/29 28/28/28 
f 19/19/19 28/28/28 29/29/29 
f 27/27/27 30/30/30 29/29/29 
f 29/29/29 30/30/30 31/31/31 
f 19/19/19 29/29/29 32/32/32 
f 29/29/29 31/31/31 32/32/32 
f 32/32/32 31/31/31 33/33/33 
f 32/32/32 5/5/5 19/19/19 
f 32/32/32 33/33/33 34/34/34 
f 32/32/32 34/34/34 5/5/5 
f 35/35/35 34/34/34 33/33/33 
f 35/35/35 36/36/36 34/34/34 
f 36/36/36 5/5/5 34/34/34 
f 5/5/5 36/36/36 37/37/37 
f 37/37/37 36/36/36 38/38/38 
f 37/37/37 38/38/38 39/39/39 
f 40/40/40 39/39/39 38/38/38 
f 40/40/40 38/38/38 41/41/41 
f 42/42/42 40/40/40 41/41/41 
f 42/42/42 41/41/41 43/43/43 
f 14/14/14 45/45/45 44/44/44 
f 44/44/44 46/46/46 14/14/14 
f 47/47/47 46/46/46 44/44/44 
f 47/47/47 48/48/48 46/46/46 
f 49/49/49 46/46/46 48/48/48 
f 49/49/49 50/50/50 46/46/46 
f 14/14/14 46/46/46 50/50/50 
f 51/51/51 50/50/50 49/49/49 
f 51/51/51 49/49/49 52/52/52 
f 53/53/53 51/51/51 52/52/52 
f 54/54/54 50/50/50 51/51/51 
f 14/14/14 50/50/50 54/54/54 
f 54/54/54 51/51/51 55/55/55 
f 53/53/53 55/55/55 51/51/51 
f 56/56/56 55/55/55 53/53/53 
f 54/54/54 55/55/55 56/56/56 
f 56/56/56 53/53/53 57/57/57 
f 58/58/58 56/56/56 57/57/57 
f 58/58/58 59/59/59 56/56/56 
f 54/54/54 56/56/56 59/59/59 
f 60/60/60 59/59/59 58/58/58 
f 54/54/54 59/59/59 60/60/60 
f 60/60/60 58/58/58 61/61/61 
f 62/62/62 60/60/60 61/61/61 
f 62/62/62 63/63/63 60/60/60 
f 54/54/54 60/60/60 63/63/63 
f 64/64/64 63/63/63 62/62/62 
f 54/54/54 63/63/63 64/64/64 
f 64/64/64 62/62/62 65/65/65 
f 66/66/66 64/64/64 65/65/65 
f 67/67/67 54/54/54 64/64/64 
f 66/66/66 67/67/67 64/64/64 
f 14/14/14 54/54/54 67/67/67 
f 67/67/67 66/66/66 68/68/68 
f 14/14/14 67/67/67 69/69/69 
f 67/67/67 68/68/68 69/69/69 
f 14/14/14 69/69/69 12/12/12 
f 12/12/12 69/69/69 68/68/68 
f 12/12/12 68/68/68 70/70/70 
f 71/71/71 73/73/73 72/72/72 
f 71/71/71 74/74/74 73/73/73 
f 71/71/71 75/75/75 74/74/74 
f 74/74/74 75/75/75 76/76/76 
f 71/71/71 77/77/77 75/75/75 
f 78/78/78 77/77/77 71/71/71 
f 71/71/71 79/79/79 78/78/78 
f 75/75/75 77/77/77 80/80/80 
f 78/78/78 79/79/79 81/81/81 
f 82/82/82 80/80/80 77/77/77 
f 78/78/78 81/81/81 83/83/83 
f 81/81/81 84/84/84 83/83/83 
f 83/83/83 84/84/84 85/85/85 
f 83/83/83 85/85/85 86/86/86 
f 83/83/83 86/86/86 87/87/87 
f 83/83/83 87/87/87 88/88/88 
f 83/83/83 88/88/88 89/89/89 
f 83/83/83 89/89/89 90/90/90 
f 83/83/83 90/90/90 91/91/91 
f 78/78/78 83/83/83 91/91/91 
f 78/78/78 91/91/91 92/92/92 
f 78/78/78 92/92/92 93/93/93 
f 82/82/82 77/77/77 94/94/94 
f 82/82/82 94/94/94 95/95/95 
f 94/94/94 96/96/96 95/95/95 
f 94/94/94 97/97/97 96/96/96 
f 94/94/94 98/98/98 97/97/97 
f 94/94/94 99/99/99 98/98/98 
f 94/94/94 100/100/100 99/99/99 
f 94/94/94 101/101/101 100/100/100 
f 94/94/94 102/102/102 101/101/101 
f 102/102/102 94/94/94 77/77/77 
f 102/102/102 77/77/77 103/103/103 
f 77/77/77 104/104/104 103/103/103 
f 78/78/78 104/104/104 77/77/77 
f 104/104/104 78/78/78 93/93/93 
f 93/93/93 105/105/105 104/104/104 
f 104/104/104 105/105/105 106/106/106 
f 93/93/93 107/107/107 105/105/105 
f 93/93/93 108/108/108 107/107/107 
f 109/109/109 111/111/111 110/110/110 
f 109/109/109 112/112/112 111/111/111 
f 112/112/112 113/113/113 111/111/111 
f 112/112/112 114/114/114 113/113/113 
f 114/114/114 115/115/115 113/113/113 
f 114/114/114 116/116/116 115/115/115 
f 116/116/116 117/117/117 115/115/115 
f 116/116/116 118/118/118 117/117/117 
f 118/118/118 119/119/119 117/117/117 
f 118/118/118 120/120/120 119/119/119 
f 120/120/120 121/121/121 119/119/119 
f 120/120/120 122/122/122 121/121/121 
f 122/122/122 123/123/123 121/121/121 
f 122/122/122 124/124/124 123/123/123 
f 124/124/124 125/125/125 123/123/123 
f 124/124/124 126/126/126 125/125/125 
f 126/126/126 127/127/127 125/125/125 
f 126/126/126 128/128/128 127/127/127 
f 128/128/128 129/129/129 127/127/127 
f 128/128/128 130/130/130 129/129/129 
f 130/130/130 131/131/131 129/129/129 
f 130/130/130 132/132/132 131/131/131 
f 132/132/132 133/133/133 131/131/131 
f 132/132/132 134/134/134 133/133/133 
f 134/134/134 135/135/135 133/133/133 
f 134/134/134 136/136/136 135/135/135 
f 136/136/136 137/137/137 135/135/135 
f 136/136/136 138/138/138 137/137/137 
f 138/138/138 139/139/139 137/137/137 
f 138/138/138 140/140/140 139/139/139 
f 140/140/140 141/141/141 139/139/139 
f 140/140/140 142/142/142 141/141/141 
f 142/142/142 143/143/143 141/141/141 
f 142/142/142 144/144/144 143/143/143 
f 144/144/144 145/145/145 143/143/143 
f 144/144/144 146/146/146 145/145/145 
f 146/146/146 147/147/147 145/145/145 
f 146/146/146 148/148/148 147/147/147 
f 147/147/147 148/148/148 149/149/149 
f 147/147/147 149/149/149 150/150/150 
f 151/151/151 153/153/153 152/152/152 
f 154/154/154 151/151/151 152/152/152 
f 153/153/153 155/155/155 152/152/152 
f 156/156/156 154/154/154 152/152/152 
f 155/155/155 157/157/157 152/152/152 
f 158/158/158 156/156/156 152/152/152 
f 157/157/157 159/159/159 152/152/152 
f 160/160/160 158/158/158 152/152/152 
f 159/159/159 161/161/161 152/152/152 
f 162/162/162 160/160/160 152/152/152 
f 161/161/161 163/163/163 152/152/152 
f 164/164/164 162/162/162 152/152/152 
f 163/163/163 165/165/165 152/152/152 
f 166/166/166 164/164/164 152/152/152 
f 165/165/165 167/167/167 152/152/152 
f 168/168/168 166/166/166 152/152/152 
f 167/167/167 169/169/169 152/152/152 
f 170/170/170 168/168/168 152/152/152 
f 169/169/169 171/171/171 152/152/152 
f 171/171/171 170/170/170 152/152/152 
f 172/172/172 174/174/174 173/173/173 
f 175/175/175 172/172/172 173/173/173 
f 174/174/174 176/176/176 173/173/173 
f 177/177/177 175/175/175 173/173/173 
f 176/176/176 178/178/178 173/173/173 
f 179/179/179 177/177/177 173/173/173 
f 178/178/178 180/180/180 173/173/173 
f 181/181/181 179/179/179 173/173/173 
f 180/180/180 182/182/182 173/173/173 
f 183/183/183 181/181/181 173/173/173 
f 182/182/182 184/184/184 173/173/173 
f 185/185/185 183/183/183 173/173/173 
f 184/184/184 186/186/186 173/173/173 
f 187/187/187 185/185/185 173/173/173 
f 186/186/186 188/188/188 173/173/173 
f 189/189/189 187/187/187 173/173/173 
f 188/188/188 190/190/190 173/173/173 
f 191/191/191 189/189/189 173/173/173 
f 190/190/190 192/192/192 173/173/173 
f 192/192/192 191/191/191 173/173/173 
f 193/193/193 195/195/195 194/194/194 
f 196/196/196 193/193/193 194/194/194 
f 196/196/196 194/194/194 197/197/197 
f 193/193/193 198/198/198 195/195/195 
f 198/198/198 199/199/199 195/195/195 
f 200/200/200 196/196/196 197/197/197 
f 200/200/200 197/197/197 201/201/201 
f 193/193/193 196/196/196 202/202/202 
f 198/198/198 193/193/193 202/202/202 
f 196/196/196 200/200/200 202/202/202 
f 198/198/198 203/203/203 199/199/199 
f 203/203/203 198/198/198 202/202/202 
f 203/203/203 204/204/204 199/199/199 
f 205/205/205 201/201/201 204/204/204 
f 205/205/205 200/200/200 201/201/201 
f 200/200/200 205/205/205 202/202/202 
f 203/203/203 205/205/205 204/204/204 
f 205/205/205 203/203/203 202/202/202 
f 206/206/206 208/208/208 207/207/207 
f 209/209/209 206/206/206 207/207/207 
f 209/209/209 207/207/207 210/210/210 
f 206/206/206 211/211/211 208/208/208 
f 211/211/211 212/212/212 208/208/208 
f 213/213/213 209/209/209 210/210/210 
f 213/213/213 210/210/210 214/214/214 
f 206/206/206 209/209/209 215/215/215 
f 211/211/211 206/206/206 215/215/215 
f 209/209/209 213/213/213 215/215/215 
f 211/211/211 216/216/216 212/212/212 
f 216/216/216 211/211/211 215/215/215 
f 216/216/216 217/217/217 212/212/212 
f 218/218/218 214/214/214 217/217/217 
f 218/218/218 213/213/213 214/214/214 
f 213/213/213 218/218/218 215/215/215 
f 216/216/216 218/218/218 217/217/217 
f 218/218/218 216/216/216 215/215/215 
