# exported by StudySceneExporter from mesh 'mug01'
mtllib materials.mtl
v 0.009193052 -0.1260509 0.1028933
v 2.929736E-08 -0.1259598 0.09865595
v 2.509476E-08 -0.1437231 0.09615611
v 0.009193043 -0.1451373 0.1000917
v 0.01300202 -0.1262705 0.1131201
v 2.264189E-08 -0.1495784 0.09217347
v 0.01300202 -0.1485505 0.1095902
v 0.009193052 -0.1264903 0.123347
v 0.009193043 -0.1527499 0.09452077
v 2.045969E-08 -0.1503839 0.08585177
v 0.009193043 -0.1519637 0.1190888
v 2.974818E-08 -0.1265813 0.1275843
v 0.01300201 -0.1604045 0.100186
v 0.009193039 -0.154192 0.08575773
v 1.686857E-08 -0.1471404 0.07361713
v 2.317537E-08 -0.1533779 0.1230244
v -0.009192992 -0.1264903 0.123347
v 0.009193039 -0.168059 0.1058513
v 0.01300201 -0.1633827 0.08553077
v 0.009193036 -0.150615 0.07188052
v 1.278937E-08 -0.1392497 0.06005645
v -0.009192996 -0.1519637 0.1190888
v -0.01300197 -0.1262705 0.1131201
v 1.485254E-08 -0.1712306 0.1081986
v 0.009193029 -0.1725735 0.08530381
v 0.013002 -0.159001 0.06768919
v 0.009193031 -0.1420301 0.05715938
v 9.342024E-09 -0.1297513 0.05156801
v -0.01300197 -0.1485505 0.1095902
v -0.009192992 -0.1260508 0.1028933
v -0.009193004 -0.168059 0.1058513
v 6.259346E-09 -0.1763815 0.08520977
v 0.009193024 -0.167387 0.06349786
v 0.013002 -0.1487405 0.05016731
v 0.009193026 -0.13101 0.04756759
v 6.68077E-09 -0.1208449 0.05088398
v 0.009193024 -0.1195239 0.04690847
v 0.01300199 -0.134048 0.03791252
v 0.01300198 -0.1163357 0.03731359
v 0.009193015 -0.1554509 0.04317524
v 0.00919301 -0.1370859 0.02825747
v 0.009193001 -0.1131475 0.02771869
v -9.252251E-10 -0.1708616 0.06176126
v -7.621434E-09 -0.1582313 0.0402782
v -1.494949E-08 -0.1383447 0.02425706
v -2.306422E-08 -0.1118265 0.02374321
v -0.009193013 -0.1725735 0.08530382
v -0.00919302 -0.167387 0.06349786
v -0.009193026 -0.1554509 0.04317526
v -0.009193031 -0.1370859 0.02825749
v -0.009193039 -0.1131475 0.02771871
v -0.01300198 -0.1604045 0.100186
v -0.01300198 -0.1633827 0.08553077
v -0.01300199 -0.159001 0.06768921
v -0.01300199 -0.1487405 0.05016733
v -0.013002 -0.134048 0.03791255
v -0.013002 -0.1163357 0.03731361
v -0.009192995 -0.1451373 0.1000917
v 2.929736E-08 -0.1259598 0.09865595
v 2.509476E-08 -0.1437231 0.09615611
v -0.009192999 -0.1527499 0.09452077
v 2.264189E-08 -0.1495784 0.09217347
v -0.009193001 -0.154192 0.08575773
v 2.045969E-08 -0.1503839 0.08585177
v -0.009193007 -0.150615 0.07188053
v 1.686857E-08 -0.1471404 0.07361713
v -0.009193012 -0.14203 0.05715941
v 1.278937E-08 -0.1392497 0.06005645
v -0.009193013 -0.13101 0.04756761
v 9.342024E-09 -0.1297513 0.05156801
v -0.009193017 -0.1195239 0.0469085
v 6.68077E-09 -0.1208449 0.05088398
v -0.009192992 -0.1264903 0.123347
v 1.066567E-08 -0.1248855 0.1323217
v 2.974818E-08 -0.1265813 0.1275843
v -0.01025607 -0.1236402 0.1269028
v -0.01300197 -0.1262705 0.1131201
v -0.02988706 -0.1212566 0.1323217
v -0.01585495 -0.1229604 0.1138638
v -0.02988706 -0.1212566 0.0943679
v -0.009192992 -0.1260508 0.1028933
v -0.05803721 -0.1105806 0.1323217
v -0.01188485 -0.1234424 0.1010277
v 2.929736E-08 -0.1259598 0.09865595
v 1.066567E-08 -0.1248855 0.0943679
v -0.0287856 -0.1167878 0.05437668
v 1.064064E-08 -0.120283 0.05437667
v -0.05803721 -0.1105806 0.09436791
v -0.08281443 -0.09347815 0.1323217
v -0.0558983 -0.1065053 0.05437667
v -0.08281443 -0.09347815 0.09436791
v -0.1027788 -0.07094305 0.1323217
v -0.07976239 -0.0900331 0.05437668
v -0.1027788 -0.07094305 0.09436791
v -0.11677 -0.04428499 0.1323217
v -0.09899097 -0.0683285 0.05437668
v -0.11677 -0.04428499 0.09436791
v -0.123975 -0.01505326 0.1323217
v -0.1124666 -0.04265292 0.05437668
v -0.123975 -0.01505325 0.09436791
v -0.123975 0.01505332 0.1323217
v -0.119406 -0.01449849 0.05437668
v -0.123975 0.01505333 0.09436791
v -0.11677 0.04428507 0.1323217
v -0.119406 0.01449855 0.05437668
v -0.11677 0.04428507 0.09436791
v -0.1027788 0.07094312 0.1323217
v -0.1124666 0.04265298 0.05437668
v -0.1027788 0.07094312 0.09436792
v -0.08281443 0.09347823 0.1323217
v -0.09899098 0.06832858 0.05437668
v -0.08281443 0.09347823 0.09436791
v -0.05803719 0.1105807 0.1323217
v -0.07976238 0.09003317 0.05437668
v -0.05803719 0.1105807 0.09436791
v -0.02988703 0.1212567 0.1323217
v -0.05589828 0.1065054 0.05437669
v -0.02988703 0.1212567 0.09436792
v 5.135835E-08 0.1248856 0.1323217
v -0.02878557 0.1167879 0.05437669
v 5.135835E-08 0.1248856 0.09436792
v 0.02988713 0.1212567 0.1323217
v 4.983389E-08 0.1202831 0.05437668
v 0.02988713 0.1212567 0.09436792
v 0.05803728 0.1105807 0.1323217
v 0.02878567 0.1167878 0.05437668
v 0.05803728 0.1105807 0.09436792
v 0.08281451 0.09347819 0.1323217
v 0.05589838 0.1065053 0.05437668
v 0.08281451 0.09347819 0.09436791
v 0.1027789 0.07094306 0.1323217
v 0.07976246 0.09003314 0.05437669
v 0.1027789 0.07094306 0.09436792
v 0.1167701 0.04428497 0.1323217
v 0.09899103 0.0683285 0.05437669
v 0.1167701 0.04428497 0.09436791
v 0.123975 0.01505321 0.1323217
v 0.1124666 0.0426529 0.05437668
v 0.123975 0.01505321 0.09436791
v 0.123975 -0.01505338 0.1323217
v 0.119406 0.01449844 0.05437668
v 0.123975 -0.01505338 0.09436791
v 0.11677 -0.04428513 0.1323217
v 0.119406 -0.01449861 0.05437668
v 0.11677 -0.04428513 0.09436791
v 0.1027787 -0.07094318 0.1323217
v 0.1124665 -0.04265304 0.05437668
v 0.1027787 -0.07094318 0.09436791
v 0.08281433 -0.09347827 0.1323217
v 0.09899092 -0.06832863 0.05437668
v 0.08281433 -0.09347825 0.09436791
v 0.05803707 -0.1105807 0.1323217
v 0.07976229 -0.0900332 0.05437668
v 0.05803707 -0.1105807 0.09436791
v 0.0298869 -0.1212566 0.1323217
v 0.05589816 -0.1065054 0.05437667
v 0.1002361 -0.03801465 0.02282018
v 0.08822596 -0.06089811 0.02282018
v 0.0710884 -0.08024238 0.02282018
v 0.04981942 -0.09492324 0.02282018
v 0.02565512 -0.1040875 0.02282018
v 0.02878544 -0.1167878 0.05437667
v 0.0298869 -0.1212566 0.0943679
v 0.106421 -0.01292192 0.02282018
v 0.106421 0.01292178 0.02282018
v 0.1002362 0.03801453 0.02282019
v 0.08822607 0.06089801 0.02282018
v 0.07108855 0.08024232 0.02282019
v 0.0498196 0.09492322 0.02282019
v 0.02565532 0.1040876 0.02282019
v 4.449916E-08 0.1072027 0.02282019
v -0.02565523 0.1040876 0.02282019
v -0.04981952 0.09492326 0.02282019
v -0.07108848 0.08024237 0.02282019
v -0.08822602 0.06089807 0.02282019
v -0.1002362 0.03801461 0.02282019
v -0.106421 0.0129219 0.02282018
v -0.106421 -0.01292182 0.02282018
v -0.1002362 -0.03801455 0.02282018
v -0.08822602 -0.06089799 0.02282018
v -0.07108849 -0.08024228 0.02282018
v -0.04981954 -0.09492318 0.02282018
v -0.06865893 0.04739187 4.768371E-09
v -0.07800545 0.02958358 4.768371E-09
v -0.05532221 0.06244592 4.768371E-09
v -0.08281854 0.01005603 0
v -0.03877036 0.07387084 2.384186E-09
v -0.08281854 -0.01005597 2.384186E-09
v -0.01996532 0.08100265 2.384186E-09
v -0.07800545 -0.02958353 -2.384186E-09
v 3.490741E-08 0.08342685 2.384186E-09
v -0.06865893 -0.04739181 2.384186E-09
v 0.01996539 0.08100262 2.384186E-09
v -0.05532221 -0.06244585 2.384186E-09
v 0.03877043 0.0738708 7.152557E-09
v 0.05532226 0.06244588 4.768371E-09
v 0.06865896 0.04739182 4.768371E-09
v 0.07800548 0.02958352 4.768371E-09
v 0.08281856 0.01005595 2.384186E-09
v 0.08281854 -0.01005605 -2.384186E-09
v 0.07800541 -0.02958362 0
v 0.06865888 -0.0473919 -2.384186E-09
v 0.05532215 -0.06244593 2.384186E-09
v 0.03877028 -0.07387082 2.384186E-09
v 0.01996523 -0.08100259 2.384186E-09
v 7.723851E-09 -0.0834268 2.384186E-09
v 9.56816E-09 -0.1072026 0.02282018
v 0.01097631 -0.1091316 0.0306893
v -2.306422E-08 -0.1118265 0.02374321
v 0.009193001 -0.1131475 0.02771869
v 0.0136092 -0.1124187 0.03939068
v 0.01300198 -0.1163357 0.03731359
v 0.009888049 -0.1172342 0.04991803
v 0.009193024 -0.1195239 0.04690847
v 1.064064E-08 -0.120283 0.05437667
v 6.68077E-09 -0.1208449 0.05088398
v 1.066567E-08 -0.1248855 0.0943679
v 0.0116179 -0.1234749 0.1029964
v 2.929736E-08 -0.1259598 0.09865595
v 0.009193052 -0.1260509 0.1028933
v 0.01584971 -0.122961 0.1137545
v 0.01300202 -0.1262705 0.1131201
v 0.01089845 -0.1235622 0.1261049
v 1.066567E-08 -0.1248855 0.1323217
v 0.009193052 -0.1264903 0.123347
v 2.974818E-08 -0.1265813 0.1275843
v -0.01996534 -0.08100258 2.384186E-09
v 7.723851E-09 -0.0834268 2.384186E-09
v 0.01996523 -0.08100259 2.384186E-09
v 0.03877028 -0.07387082 2.384186E-09
v -0.03877037 -0.07387077 2.384186E-09
v 0.05532215 -0.06244593 2.384186E-09
v -0.05532221 -0.06244585 2.384186E-09
v 0.06865888 -0.0473919 -2.384186E-09
v -0.06865893 -0.04739181 2.384186E-09
v 0.07800541 -0.02958362 0
v -0.07800545 -0.02958353 -2.384186E-09
v 0.08281854 -0.01005605 -2.384186E-09
v -0.08281854 -0.01005597 2.384186E-09
v 0.08281856 0.01005595 2.384186E-09
v -0.08281854 0.01005603 0
v 0.07800548 0.02958352 4.768371E-09
v -0.07800545 0.02958358 4.768371E-09
v 0.06865896 0.04739182 4.768371E-09
v -0.06865893 0.04739187 4.768371E-09
v 0.05532226 0.06244588 4.768371E-09
v -0.05532221 0.06244592 4.768371E-09
v 0.03877043 0.0738708 7.152557E-09
v -0.03877036 0.07387084 2.384186E-09
v 0.01996539 0.08100262 2.384186E-09
v -0.01996532 0.08100265 2.384186E-09
v 3.490741E-08 0.08342685 2.384186E-09
v 9.56816E-09 -0.1072026 0.02282018
v 7.723851E-09 -0.0834268 2.384186E-09
v -0.01996534 -0.08100258 2.384186E-09
v -0.02565526 -0.1040875 0.02282018
v -0.03877037 -0.07387077 2.384186E-09
v -0.01091307 -0.1088342 0.02995319
v -2.306422E-08 -0.1118265 0.02374321
v -0.009193039 -0.1131475 0.02771871
v -0.01369265 -0.1121396 0.03874165
v -0.013002 -0.1163357 0.03731361
v -0.009359105 -0.1170003 0.04919876
v -0.009193017 -0.1195239 0.0469085
v 6.68077E-09 -0.1208449 0.05088398
v -0.02770618 -0.1124084 0.1323217
v 1.193809E-08 -0.1080299 0.06150113
v 1.020612E-08 -0.1157725 0.1323217
v -0.02585324 -0.1048907 0.06150113
v 1.043895E-08 -0.08968236 0.03228623
v -0.05380219 -0.1025115 0.1323217
v -0.02146239 -0.08707636 0.03228623
v -0.05020399 -0.09565571 0.06150113
v -0.07677142 -0.08665698 0.1323217
v -0.04167747 -0.07940979 0.03228623
v -0.07163708 -0.08086152 0.06150113
v -0.09527894 -0.06576628 0.1323217
v -0.05947042 -0.0671282 0.03228623
v -0.08890686 -0.06136794 0.06150113
v -0.1082492 -0.04105349 0.1323217
v -0.07380715 -0.05094537 0.03228623
v -0.1010097 -0.03830791 0.06150113
v -0.1149284 -0.01395481 0.1323217
v -0.08385448 -0.03180179 0.03228623
v -0.1072422 -0.01302154 0.06150113
v -0.1149284 0.01395486 0.1323217
v -0.08902849 -0.01080998 0.03228623
v -0.1072422 0.0130216 0.06150113
v -0.1082492 0.04105355 0.1323217
v -0.08902849 0.01081004 0.03228624
v -0.1010097 0.03830796 0.06150113
v -0.09527895 0.06576634 0.1323217
v -0.08385448 0.03180183 0.03228624
v -0.08890687 0.06136801 0.06150114
v -0.07677141 0.08665705 0.1323217
v -0.07380716 0.05094542 0.03228624
v -0.07163707 0.08086161 0.06150113
v -0.05380217 0.1025116 0.1323217
v -0.05947042 0.06712825 0.03228624
v -0.05020398 0.09565578 0.06150113
v -0.02770615 0.1124085 0.1323217
v -0.04167746 0.07940985 0.03228624
v -0.02585321 0.1048908 0.06150113
v 4.792934E-08 0.1157726 0.1323217
v -0.02146237 0.08707644 0.03228623
v 4.713888E-08 0.10803 0.06150113
v 0.02770625 0.1124085 0.1323217
v 3.966123E-08 0.08968244 0.03228625
v 0.0258533 0.1048908 0.06150113
v 0.05380227 0.1025115 0.1323217
v 0.02146244 0.0870764 0.03228623
v 0.05020407 0.09565575 0.06150114
v 0.07677148 0.08665702 0.1323217
v 0.04167754 0.07940982 0.03228624
v 0.07163713 0.08086154 0.06150113
v 0.09527901 0.06576628 0.1323217
v 0.05947047 0.06712823 0.03228624
v 0.08890692 0.06136794 0.06150114
v 0.1082493 0.04105347 0.1323217
v 0.07380719 0.05094537 0.03228624
v 0.1010098 0.03830789 0.06150113
v 0.1149285 0.01395476 0.1323217
v 0.08385451 0.03180178 0.03228624
v 0.1072423 0.0130215 0.06150113
v 0.1149284 -0.01395493 0.1323217
v 0.08902851 0.01080996 0.03228624
v 0.1072422 -0.01302165 0.06150113
v 0.1082492 -0.04105362 0.1323217
v 0.08902849 -0.01081009 0.03228623
v 0.1010097 -0.03830801 0.06150113
v 0.09527889 -0.0657664 0.1323217
v 0.08385445 -0.03180188 0.03228623
v 0.08890681 -0.06136806 0.06150113
v 0.07677131 -0.08665708 0.1323217
v 0.07380711 -0.05094547 0.03228623
v 0.07163698 -0.08086161 0.06150113
v 0.05380206 -0.1025116 0.1323217
v 0.05947034 -0.06712828 0.03228623
v 0.05020388 -0.09565578 0.06150113
v 0.02770603 -0.1124085 0.1323217
v 0.04167738 -0.07940985 0.03228623
v 0.0258531 -0.1048908 0.06150113
v 1.020612E-08 -0.1157725 0.1323217
v 0.02146227 -0.08707639 0.03228623
v 1.193809E-08 -0.1080299 0.06150113
v 1.043895E-08 -0.08968236 0.03228623
v 0.02146227 -0.08707639 0.03228623
v 1.043895E-08 -0.08968236 0.03228623
v -0.02146239 -0.08707636 0.03228623
v 0.04167738 -0.07940985 0.03228623
v -0.04167747 -0.07940979 0.03228623
v 0.05947034 -0.06712828 0.03228623
v -0.05947042 -0.0671282 0.03228623
v 0.07380711 -0.05094547 0.03228623
v -0.07380715 -0.05094537 0.03228623
v 0.08385445 -0.03180188 0.03228623
v -0.08385448 -0.03180179 0.03228623
v 0.08902849 -0.01081009 0.03228623
v -0.08902849 -0.01080998 0.03228623
v 0.08902851 0.01080996 0.03228624
v -0.08902849 0.01081004 0.03228624
v 0.08385451 0.03180178 0.03228624
v -0.08385448 0.03180183 0.03228624
v 0.07380719 0.05094537 0.03228624
v -0.07380716 0.05094542 0.03228624
v 0.05947047 0.06712823 0.03228624
v -0.05947042 0.06712825 0.03228624
v 0.04167754 0.07940982 0.03228624
v -0.04167746 0.07940985 0.03228624
v 0.02146244 0.0870764 0.03228623
v -0.02146237 0.08707644 0.03228623
v 3.966123E-08 0.08968244 0.03228625
v 0.1027787 -0.07094318 0.1323217
v 0.09527889 -0.0657664 0.1323217
v 0.1082492 -0.04105362 0.1323217
v 0.11677 -0.04428513 0.1323217
v 0.08281433 -0.09347827 0.1323217
v 0.1149284 -0.01395493 0.1323217
v 0.07677131 -0.08665708 0.1323217
v 0.123975 -0.01505338 0.1323217
v 0.05803707 -0.1105807 0.1323217
v 0.1149285 0.01395476 0.1323217
v 0.05380206 -0.1025116 0.1323217
v 0.123975 0.01505321 0.1323217
v 0.0298869 -0.1212566 0.1323217
v 0.1082493 0.04105347 0.1323217
v 0.02770603 -0.1124085 0.1323217
v 0.1167701 0.04428497 0.1323217
v 1.066567E-08 -0.1248855 0.1323217
v 0.09527901 0.06576628 0.1323217
v 1.020612E-08 -0.1157725 0.1323217
v 0.1027789 0.07094306 0.1323217
v -0.02988706 -0.1212566 0.1323217
v 0.07677148 0.08665702 0.1323217
v -0.02770618 -0.1124084 0.1323217
v 0.08281451 0.09347819 0.1323217
v -0.05803721 -0.1105806 0.1323217
v 0.05380227 0.1025115 0.1323217
v -0.05380219 -0.1025115 0.1323217
v 0.05803728 0.1105807 0.1323217
v -0.08281443 -0.09347815 0.1323217
v 0.02770625 0.1124085 0.1323217
v -0.07677142 -0.08665698 0.1323217
v 0.02988713 0.1212567 0.1323217
v -0.1027788 -0.07094305 0.1323217
v 4.792934E-08 0.1157726 0.1323217
v -0.09527894 -0.06576628 0.1323217
v 5.135835E-08 0.1248856 0.1323217
v -0.11677 -0.04428499 0.1323217
v -0.02770615 0.1124085 0.1323217
v -0.1082492 -0.04105349 0.1323217
v -0.02988703 0.1212567 0.1323217
v -0.123975 -0.01505326 0.1323217
v -0.05380217 0.1025116 0.1323217
v -0.1149284 -0.01395481 0.1323217
v -0.05803719 0.1105807 0.1323217
v -0.123975 0.01505332 0.1323217
v -0.07677141 0.08665705 0.1323217
v -0.1149284 0.01395486 0.1323217
v -0.08281443 0.09347823 0.1323217
v -0.11677 0.04428507 0.1323217
v -0.09527895 0.06576634 0.1323217
v -0.1082492 0.04105355 0.1323217
v -0.1027788 0.07094312 0.1323217
vt 0.9241921 0.8389463
vt 0.9385334 0.8324474
vt 0.9282872 0.8064961
vt 0.9140584 0.8119223
vt 0.9093402 0.8464755
vt 0.9253188 0.7959431
vt 0.9002058 0.8171769
vt 0.8938071 0.8526922
vt 0.9101126 0.7984113
vt 0.9254469 0.7861767
vt 0.8883899 0.8201844
vt 0.878215 0.855252
vt 0.8968017 0.7999796
vt 0.9101769 0.7849891
vt 0.9279553 0.7668179
vt 0.8783985 0.8209216
vt 0.8626512 0.8525258
vt 0.8869221 0.8010144
vt 0.8975939 0.7836497
vt 0.9133054 0.7644976
vt 0.9311882 0.7420713
vt 0.8684154 0.8200777
vt 0.8471854 0.8461434
vt 0.8785019 0.8015713
vt 0.887701 0.7826968
vt 0.900227 0.762365
vt 0.9157308 0.7395924
vt 0.9342474 0.7212985
vt 0.8566324 0.8169441
vt 0.8324147 0.838456
vt 0.870088 0.8009244
vt 0.8786047 0.7823217
vt 0.8889551 0.7608645
vt 0.9016783 0.7374191
vt 0.9183344 0.7165714
vt 0.9398649 0.707839
vt 0.9258651 0.6990458
vt 0.9028298 0.7126697
vt 0.9116428 0.6869893
vt 0.8895939 0.7359779
vt 0.8899598 0.7103832
vt 0.8957465 0.6774555
vt 0.8787227 0.7602233
vt 0.8788559 0.7353215
vt 0.8789948 0.7093135
vt 0.8791827 0.6741372
vt 0.869505 0.7825995
vt 0.8684841 0.7607551
vt 0.8681114 0.7358631
vt 0.8680189 0.710266
vt 0.8625844 0.6772783
vt 0.8602201 0.7997842
vt 0.8596023 0.7834467
vt 0.8571969 0.7621351
vt 0.8560123 0.7371751
vt 0.8551252 0.7124149
vt 0.8465871 0.6866417
vt 0.8428367 0.8115417
vt 0.8181438 0.8318042
vt 0.8286667 0.8059638
vt 0.8469267 0.7980737
vt 0.8317477 0.7954432
vt 0.8470058 0.7846515
vt 0.831724 0.785676
vt 0.8440965 0.7641278
vt 0.8294225 0.7662914
vt 0.8419372 0.7391981
vt 0.8264542 0.7415116
vt 0.8395798 0.7161506
vt 0.8236172 0.7207074
vt 0.8322369 0.6985455
vt 0.8181438 0.7071886
vt 0.9320477 0.143209
vt 0.9505834 0.1466612
vt 0.9465153 0.1407595
vt 0.9335752 0.1501028
vt 0.9180755 0.1352482
vt 0.9162031 0.1752615
vt 0.9139609 0.1405846
vt 0.8785681 0.1339605
vt 0.9108786 0.1207289
vt 0.8830401 0.2049804
vt 0.9045588 0.1219944
vt 0.9145439 0.1064083
vt 0.9097522 0.1022571
vt 0.8366901 0.09265751
vt 0.8663583 0.06132554
vt 0.8469912 0.1634807
vt 0.8489294 0.2334161
vt 0.8085464 0.1229331
vt 0.8151814 0.1909957
vt 0.8135582 0.2599496
vt 0.7800978 0.1497921
vt 0.7825944 0.2162087
vt 0.776829 0.284142
vt 0.7508658 0.1737695
vt 0.7489934 0.2389501
vt 0.7387926 0.3056882
vt 0.7206724 0.1950994
vt 0.7143337 0.2590951
vt 0.6995896 0.3243789
vt 0.6895002 0.2138648
vt 0.6786852 0.276544
vt 0.6594115 0.3400732
vt 0.6574214 0.2300787
vt 0.6421847 0.2912184
vt 0.6184769 0.3526798
vt 0.6245611 0.2437256
vt 0.605007 0.3030616
vt 0.5770178 0.3621454
vt 0.5910755 0.2547837
vt 0.5673481 0.3120376
vt 0.535272 0.3684465
vt 0.5571388 0.2632362
vt 0.5294145 0.3181303
vt 0.4934776 0.3715849
vt 0.5229353 0.2690761
vt 0.4914174 0.3213429
vt 0.4518707 0.3715846
vt 0.4886539 0.272309
vt 0.453568 0.3216963
vt 0.4106824 0.3684897
vt 0.4544841 0.2729542
vt 0.4160743 0.3192282
vt 0.3701368 0.3623633
vt 0.4206137 0.2710442
vt 0.379139 0.3139924
vt 0.3304493 0.3532866
vt 0.3872262 0.2666244
vt 0.3429567 0.3060578
vt 0.2918236 0.3413581
vt 0.354499 0.259752
vt 0.3077113 0.2955067
vt 0.2544484 0.3266942
vt 0.322601 0.2504938
vt 0.2735723 0.2824341
vt 0.2184932 0.3094298
vt 0.2916906 0.2389239
vt 0.2406888 0.2669452
vt 0.1841 0.2897208
vt 0.2619112 0.2251181
vt 0.2091815 0.2491526
vt 0.1513716 0.2677488
vt 0.2333869 0.2091471
vt 0.1791272 0.2291719
vt 0.1203494 0.2437308
vt 0.2062135 0.1910626
vt 0.1505347 0.2071131
vt 0.09097683 0.2179382
vt 0.1804434 0.1708737
vt 0.1233006 0.1830665
vt 0.06303208 0.1907327
vt 0.1560584 0.148504
vt 0.09713545 0.1570785
vt 0.03601353 0.1626355
vt 0.1329136 0.1237078
vt 0.228725 0.1595998
vt 0.2055496 0.1412359
vt 0.1839664 0.1207541
vt 0.1641351 0.09784837
vt 0.1462808 0.07183407
vt 0.1106058 0.09590197
vt 0.07143597 0.1291154
vt 0.2533552 0.1759637
vt 0.2793081 0.1903484
vt 0.306449 0.202725
vt 0.3346379 0.2130405
vt 0.3637283 0.2212328
vt 0.3935667 0.2272398
vt 0.4239939 0.231004
vt 0.4548449 0.2324755
vt 0.4859505 0.2316146
vt 0.5171379 0.2283921
vt 0.5482326 0.2227903
vt 0.5790599 0.2148016
vt 0.6094471 0.2044277
vt 0.6392253 0.1916752
vt 0.6682332 0.1765486
vt 0.6963192 0.1590359
vt 0.7233456 0.1390818
vt 0.7491904 0.1165309
vt 0.7737482 0.091005
vt 0.5663504 0.1725605
vt 0.5934369 0.1629363
vt 0.5388262 0.1800471
vt 0.6199193 0.1511832
vt 0.5110281 0.1853937
vt 0.6456259 0.1373116
vt 0.4831179 0.1886061
vt 0.6703731 0.1213271
vt 0.4552555 0.1896998
vt 0.6939509 0.1032204
vt 0.4275986 0.1886999
vt 0.7160915 0.08295093
vt 0.400302 0.1856418
vt 0.3735175 0.18057
vt 0.3473944 0.1735374
vt 0.3220793 0.1646027
vt 0.2977203 0.1538284
vt 0.2744696 0.1412749
vt 0.252494 0.1269933
vt 0.2319923 0.1110122
vt 0.2132291 0.09331762
vt 0.1966008 0.07382291
vt 0.1827741 0.05233242
vt 0.1727536 0.02900364
vt 0.1332441 0.04203673
vt 0.1274904 0.05889832
vt 0.1276257 0.04128515
vt 0.1235789 0.05273607
vt 0.1168046 0.06816518
vt 0.1142628 0.06280597
vt 0.1005418 0.07297413
vt 0.1018512 0.06805465
vt 0.0873659 0.06693609
vt 0.09026517 0.06396964
vt 0.04663506 0.09941036
vt 0.04734809 0.1182821
vt 0.04187189 0.102434
vt 0.04374007 0.1152176
vt 0.04016349 0.1324008
vt 0.0367098 0.1276419
vt 0.02373133 0.1395944
vt 0.007934352 0.1358832
vt 0.0241473 0.1338832
vt 0.01177191 0.1310145
vt 0.8022751 0.7939985
vt 0.8022751 0.7682115
vt 0.7961039 0.7431739
vt 0.7841201 0.7203405
vt 0.7961038 0.8190363
vt 0.7670202 0.7010386
vt 0.7841198 0.8418697
vt 0.7457979 0.6863899
vt 0.7670199 0.8611715
vt 0.7216865 0.6772456
vt 0.7457975 0.8758202
vt 0.6960874 0.6741372
vt 0.7216861 0.8849645
vt 0.6704882 0.6772454
vt 0.696087 0.8880727
vt 0.6463768 0.6863897
vt 0.670488 0.8849643
vt 0.6251543 0.7010384
vt 0.6463766 0.8758201
vt 0.6080543 0.7203403
vt 0.6251543 0.8611713
vt 0.5960705 0.7431735
vt 0.6080543 0.8418694
vt 0.5898992 0.7682112
vt 0.5960704 0.8190361
vt 0.5898992 0.7939984
vt 0.814909 0.02693895
vt 0.7681358 0.007934352
vt 0.7541944 0.03548194
vt 0.7969226 0.06159094
vt 0.7363995 0.0604258
vt 0.8190019 0.04709492
vt 0.8217136 0.02683877
vt 0.8249164 0.04106365
vt 0.8309914 0.05914288
vt 0.835281 0.05351784
vt 0.8502036 0.0654292
vt 0.8494891 0.06023744
vt 0.8634676 0.05759634
vt 0.8596573 0.5338184
vt 0.8267651 0.6283945
vt 0.8881794 0.5575633
vt 0.802384 0.6055753
vt 0.7928734 0.6582685
vt 0.8301769 0.5115279
vt 0.7728285 0.6382725
vt 0.7773165 0.5852391
vt 0.7996773 0.490867
vt 0.750671 0.6201327
vt 0.7512721 0.566895
vt 0.7681612 0.47193
vt 0.7270871 0.6036031
vt 0.7242505 0.5503196
vt 0.7356721 0.4547823
vt 0.7023727 0.588567
vt 0.6963167 0.5354289
vt 0.7022794 0.4394791
vt 0.6767155 0.5750009
vt 0.6675574 0.5222024
vt 0.6680695 0.4260693
vt 0.650252 0.5629193
vt 0.6380668 0.5106478
vt 0.6331388 0.4145969
vt 0.623094 0.55235
vt 0.6079412 0.5007854
vt 0.5975915 0.405101
vt 0.5953419 0.5433242
vt 0.5772773 0.4926393
vt 0.561536 0.3976146
vt 0.5670909 0.5358711
vt 0.5461734 0.486233
vt 0.5250841 0.392165
vt 0.5384338 0.5300162
vt 0.5147284 0.4815871
vt 0.4883502 0.3887732
vt 0.5094633 0.5257809
vt 0.4830417 0.4787182
vt 0.4514498 0.3874536
vt 0.4802718 0.5231813
vt 0.451214 0.4776378
vt 0.4144995 0.3882143
vt 0.4509524 0.5222287
vt 0.4193461 0.4783523
vt 0.3776164 0.3910564
vt 0.4215982 0.5229294
vt 0.3875387 0.4808626
vt 0.3409177 0.3959748
vt 0.3923025 0.5252842
vt 0.3558929 0.4851642
vt 0.3045202 0.4029569
vt 0.3631586 0.5292892
vt 0.3245082 0.491247
vt 0.2685395 0.4119835
vt 0.3342595 0.5349354
vt 0.2934834 0.4990962
vt 0.2330898 0.4230276
vt 0.3056976 0.5422094
vt 0.262914 0.5086923
vt 0.1982828 0.4360536
vt 0.2775648 0.5510942
vt 0.2328913 0.5200129
vt 0.1642255 0.4510155
vt 0.249953 0.5615703
vt 0.203498 0.5330365
vt 0.1310171 0.4678531
vt 0.2229546 0.5736195
vt 0.1748033 0.5477486
vt 0.0987418 0.4864843
vt 0.1966659 0.5872297
vt 0.1468497 0.5641578
vt 0.06745316 0.5067912
vt 0.1711936 0.6024069
vt 0.1196321 0.5823289
vt 0.03714184 0.5285911
vt 0.1466712 0.6191962
vt 0.09305203 0.6024577
vt 0.007934352 0.5512973
vt 0.1232971 0.6377234
vt 0.06686649 0.6250872
vt 0.1014239 0.6582685
vt 0.5608593 0.8417248
vt 0.5706891 0.8158057
vt 0.5740305 0.7882872
vt 0.5451121 0.8645387
vt 0.5706893 0.7607688
vt 0.5243629 0.8829209
vt 0.5608593 0.7348494
vt 0.4998173 0.8958034
vt 0.5451123 0.7120358
vt 0.4729021 0.9024373
vt 0.524363 0.6936536
vt 0.4451813 0.9024373
vt 0.4998176 0.6807712
vt 0.4182661 0.8958033
vt 0.4729026 0.6741372
vt 0.3937206 0.8829209
vt 0.4451819 0.6741372
vt 0.3729716 0.8645387
vt 0.4182667 0.6807712
vt 0.3572246 0.8417251
vt 0.3937212 0.6936535
vt 0.3473947 0.8158057
vt 0.372972 0.7120357
vt 0.3440535 0.7882872
vt 0.3572248 0.7348493
vt 0.3473949 0.7607686
vt 0.1487036 0.9920523
vt 0.150116 0.9804535
vt 0.1153738 0.9718776
vt 0.1112266 0.9828013
vt 0.1873056 0.9920656
vt 0.08369346 0.9552365
vt 0.1859012 0.9804658
vt 0.07705259 0.9648504
vt 0.2247893 0.9828404
vt 0.0569161 0.9314973
vt 0.2206497 0.9719138
vt 0.04816749 0.9392425
vt 0.2589759 0.9649128
vt 0.03659799 0.9020398
vt 0.2523417 0.9552945
vt 0.02625005 0.9074662
vt 0.2878785 0.9393252
vt 0.02391998 0.8685758
vt 0.2791353 0.9315739
vt 0.01257408 0.8713682
vt 0.3098179 0.9075639
vt 0.0196188 0.8330502
vt 0.2994736 0.9021303
vt 0.007934352 0.8330461
vt 0.3235187 0.8714752
vt 0.02394448 0.7975274
vt 0.3121747 0.868675
vt 0.0126005 0.7947273
vt 0.3281848 0.8331563
vt 0.03664561 0.7640722
vt 0.3165004 0.8331523
vt 0.02630144 0.7586385
vt 0.323545 0.7948344
vt 0.05698405 0.7346287
vt 0.3121991 0.7976267
vt 0.04824082 0.7268775
vt 0.3098691 0.7587364
vt 0.08377768 0.7109081
vt 0.2995211 0.7641628
vt 0.07714348 0.7012898
vt 0.2879516 0.7269601
vt 0.1154694 0.694289
vt 0.2792031 0.7347053
vt 0.1113298 0.6833624
vt 0.2590665 0.7013524
vt 0.1502179 0.685737
vt 0.2524257 0.7109662
vt 0.1488134 0.6741372
vt 0.2248924 0.6834015
vt 0.186003 0.6857493
vt 0.2207453 0.6943252
vt 0.1874154 0.6741505
vn 0.6916673 -0.4056893 -0.5975055
vn 0.03139274 -0.5249743 -0.850539
vn 0 0.3733219 -0.9277019
vn 0.7580225 0.2485474 -0.6030141
vn 0.9225185 -0.3859472 -0.002118188
vn 4.946614E-07 0.8572579 -0.5148873
vn 0.998283 -0.03048607 0.05001519
vn 0.663196 -0.5147349 0.5433407
vn 0.7716656 0.5436041 -0.330192
vn 1.146161E-06 0.9984763 0.0551824
vn 0.6985059 -0.2985813 0.6503374
vn 0.006651859 -0.6492823 0.7605184
vn 0.9965167 -0.0749823 0.03649664
vn 0.7308068 0.6819082 0.03037238
vn 1.274242E-06 0.9253265 0.3791712
vn 0 -0.4115016 0.9114091
vn -0.6747929 -0.5068276 0.5364517
vn 0.6805429 -0.6260821 0.3806345
vn 0.9985689 -0.05342007 0.002557837
vn 0.7267678 0.6354743 0.2607317
vn 1.064064E-06 0.7756529 0.6311597
vn -0.6985058 -0.2985811 0.6503376
vn -0.9142069 -0.4049667 0.01509169
vn 0 -0.8495851 0.5274516
vn 0.6800711 -0.7331249 -0.005577257
vn 0.9993831 -0.03372138 -0.009811226
vn 0.7365935 0.5213873 0.4307959
vn 1.417898E-06 0.391424 0.9202104
vn -0.998283 -0.03048557 0.05001553
vn -0.6911184 -0.4651624 -0.5531539
vn -0.6805431 -0.6260818 0.3806348
vn 3.218621E-07 -0.9999712 -0.007593627
vn 0.6924481 -0.6696054 -0.2685967
vn 0.9991805 -0.03249538 -0.0241314
vn 0.7713599 0.2405514 0.5891848
vn -0.0198859 -0.5491658 0.8354768
vn 0.8043178 -0.3255897 0.4970555
vn 0.9972839 -0.02782263 -0.06819504
vn 0.9899133 -0.1045608 -0.09559511
vn 0.6964728 -0.5446237 -0.4672372
vn 0.6931457 -0.249054 -0.6764032
vn 0.6912198 0.01354671 -0.7225176
vn 0 -0.9269457 -0.3751954
vn -8.344197E-07 -0.7549734 -0.6557555
vn -8.957788E-07 -0.339675 -0.9405429
vn 0.008834409 0.03086435 -0.9994845
vn -0.6800714 -0.7331247 -0.005576572
vn -0.6924487 -0.6696051 -0.2685961
vn -0.696474 -0.544623 -0.4672363
vn -0.6931469 -0.249054 -0.6764019
vn -0.6890447 -0.01970141 -0.7244511
vn -0.9965167 -0.07498177 0.03649726
vn -0.9985689 -0.05341944 0.002558729
vn -0.9993832 -0.03371996 -0.009810038
vn -0.9991805 -0.03249493 -0.02413042
vn -0.9972841 -0.02782266 -0.06819329
vn -0.9925805 -0.1004916 -0.06844921
vn -0.7580225 0.2485479 -0.6030139
vn 0.03139274 -0.5249743 -0.850539
vn 0 0.3733219 -0.9277019
vn -0.7716654 0.5436048 -0.3301912
vn 4.946614E-07 0.8572579 -0.5148873
vn -0.7308059 0.6819091 0.03037369
vn 1.146161E-06 0.9984763 0.0551824
vn -0.7267666 0.6354752 0.2607327
vn 1.274242E-06 0.9253265 0.3791712
vn -0.7365925 0.5213881 0.430797
vn 1.064064E-06 0.7756529 0.6311597
vn -0.7713588 0.2405516 0.5891864
vn 1.417898E-06 0.391424 0.9202104
vn -0.8036194 -0.2669837 0.5318981
vn -0.0198859 -0.5491658 0.8354768
vn -0.6747929 -0.5068276 0.5364517
vn 0.00367349 -0.5997676 0.8001658
vn 0.006651859 -0.6492823 0.7605184
vn -0.2616302 -0.9519441 0.1592233
vn -0.9142069 -0.4049667 0.01509169
vn -0.1752564 -0.7110442 0.6809562
vn -0.3838517 -0.9231964 0.01913842
vn -0.2389263 -0.9693626 -0.05701136
vn -0.6911184 -0.4651624 -0.5531539
vn -0.3403279 -0.6484409 0.6809561
vn -0.2801763 -0.9515759 -0.126509
vn 0.03139274 -0.5249743 -0.850539
vn 0.01128095 -0.9773965 -0.2111136
vn -0.2318087 -0.9404846 -0.2485024
vn -0.008454207 -0.9995454 0.02893966
vn -0.4639673 -0.8840158 -0.05701141
vn -0.4856207 -0.5481523 0.6809563
vn -0.4501454 -0.8576804 -0.2485025
vn -0.6620442 -0.7472932 -0.05701144
vn -0.6026908 -0.4160075 0.6809563
vn -0.6423216 -0.7250308 -0.2485024
vn -0.8216453 -0.5671409 -0.05701148
vn -0.6847348 -0.2596859 0.6809563
vn -0.797168 -0.5502452 -0.2485025
vn -0.9334955 -0.3540281 -0.05701142
vn -0.7269846 -0.08827188 0.6809563
vn -0.9056859 -0.3434815 -0.2485025
vn -0.9910943 -0.1203405 -0.05701135
vn -0.7269846 0.08827196 0.6809563
vn -0.9615688 -0.1167555 -0.2485025
vn -0.9910943 0.1203406 -0.05701141
vn -0.6847349 0.2596857 0.6809563
vn -0.9615688 0.1167555 -0.2485026
vn -0.9334955 0.354028 -0.0570115
vn -0.6026909 0.4160074 0.6809564
vn -0.9056859 0.3434813 -0.2485027
vn -0.8216453 0.5671408 -0.05701149
vn -0.4856204 0.5481524 0.6809565
vn -0.7971679 0.5502452 -0.2485026
vn -0.6620442 0.7472932 -0.05701151
vn -0.3403279 0.6484406 0.6809565
vn -0.6423214 0.7250308 -0.2485026
vn -0.4639671 0.884016 -0.05701147
vn -0.1752564 0.7110436 0.6809568
vn -0.4501451 0.8576806 -0.2485026
vn -0.238926 0.9693627 -0.05701137
vn 0 0.7323242 0.6809561
vn -0.2318084 0.9404846 -0.2485025
vn 0 0.9983735 -0.05701137
vn 0.1752566 0.7110443 0.6809561
vn 0 0.9686312 -0.2485025
vn 0.2389268 0.9693625 -0.05701155
vn 0.3403285 0.6484402 0.6809566
vn 0.2318092 0.9404843 -0.2485026
vn 0.4639677 0.8840156 -0.05701159
vn 0.4856215 0.5481519 0.6809562
vn 0.4501458 0.8576801 -0.2485027
vn 0.6620446 0.7472928 -0.05701154
vn 0.6026914 0.4160068 0.6809562
vn 0.6423218 0.7250304 -0.2485027
vn 0.8216459 0.5671401 -0.05701153
vn 0.6847352 0.2596847 0.6809563
vn 0.7971683 0.5502446 -0.2485027
vn 0.9334958 0.3540272 -0.0570115
vn 0.7269847 0.08827111 0.6809563
vn 0.9056861 0.3434808 -0.2485027
vn 0.9910944 0.1203396 -0.05701138
vn 0.7269844 -0.08827268 0.6809563
vn 0.9615689 0.1167547 -0.2485027
vn 0.9910942 -0.1203416 -0.05701139
vn 0.6847346 -0.2596865 0.6809564
vn 0.9615687 -0.1167566 -0.2485026
vn 0.9334951 -0.3540291 -0.05701147
vn 0.6026904 -0.4160083 0.6809563
vn 0.9056857 -0.3434823 -0.2485026
vn 0.8216445 -0.5671418 -0.05701147
vn 0.48562 -0.5481532 0.6809561
vn 0.7971673 -0.5502461 -0.2485026
vn 0.6620432 -0.7472942 -0.05701147
vn 0.3403272 -0.6484411 0.6809563
vn 0.6423204 -0.7250317 -0.2485024
vn 0.4639662 -0.8840165 -0.05701148
vn 0.1752559 -0.7110439 0.6809566
vn 0.4501443 -0.857681 -0.2485025
vn 0.7765725 -0.294516 -0.5569519
vn 0.6835245 -0.4718038 -0.5569519
vn 0.5507522 -0.6216725 -0.5569518
vn 0.3859724 -0.7354114 -0.5569519
vn 0.1987616 -0.8064107 -0.5569519
vn 0.2318077 -0.9404848 -0.2485025
vn 0.2389253 -0.9693629 -0.05701141
vn 0.824489 -0.100112 -0.556952
vn 0.8244891 0.1001103 -0.556952
vn 0.7765731 0.2945148 -0.5569519
vn 0.6835253 0.4718026 -0.5569519
vn 0.5507535 0.6216713 -0.5569519
vn 0.3859738 0.7354106 -0.556952
vn 0.1987628 0.8064104 -0.5569519
vn 1.307562E-07 0.8305447 -0.556952
vn -0.1987622 0.8064107 -0.5569519
vn -0.3859732 0.735411 -0.5569519
vn -0.550753 0.6216717 -0.5569519
vn -0.683525 0.4718031 -0.5569519
vn -0.7765728 0.2945152 -0.5569519
vn -0.8244891 0.1001111 -0.5569521
vn -0.8244891 -0.100111 -0.5569519
vn -0.7765729 -0.2945153 -0.5569518
vn -0.683525 -0.4718032 -0.5569518
vn -0.5507532 -0.6216716 -0.5569519
vn -0.3859736 -0.7354108 -0.5569518
vn -0.3270254 0.2257293 -0.9176605
vn -0.3715433 0.1409077 -0.9176604
vn -0.263502 0.2974322 -0.9176605
vn -0.3944681 0.04789701 -0.9176605
vn -0.1846649 0.3518498 -0.9176605
vn -0.3944681 -0.04789698 -0.9176605
vn -0.0950957 0.3858189 -0.9176604
vn -0.3715434 -0.1409077 -0.9176604
vn 1.423404E-07 0.397365 -0.9176606
vn -0.3270253 -0.2257294 -0.9176605
vn 0.09509595 0.3858187 -0.9176605
vn -0.263502 -0.2974322 -0.9176605
vn 0.1846651 0.3518495 -0.9176605
vn 0.2635022 0.2974321 -0.9176605
vn 0.3270255 0.225729 -0.9176605
vn 0.3715434 0.1409075 -0.9176604
vn 0.3944683 0.04789675 -0.9176604
vn 0.3944681 -0.04789752 -0.9176605
vn 0.371543 -0.1409081 -0.9176605
vn 0.3270251 -0.2257295 -0.9176605
vn 0.2635018 -0.2974328 -0.9176604
vn 0.1846644 -0.3518499 -0.9176605
vn 0.09509537 -0.3858186 -0.9176606
vn -2.199806E-07 -0.3973652 -0.9176606
vn 0.005277446 -0.5294489 -0.8483255
vn 0.5124095 -0.6503088 -0.5608342
vn 0.008834409 0.03086435 -0.9994845
vn 0.6912198 0.01354671 -0.7225176
vn 0.5883617 -0.7527621 -0.295262
vn 0.9899133 -0.1045608 -0.09559511
vn 0.3550568 -0.9266344 -0.1236258
vn 0.8043178 -0.3255897 0.4970555
vn -0.008454207 -0.9995454 0.02893966
vn -0.0198859 -0.5491658 0.8354768
vn 0.01128095 -0.9773965 -0.2111136
vn 0.3554211 -0.9214206 -0.1570344
vn 0.03139274 -0.5249743 -0.850539
vn 0.6916673 -0.4056893 -0.5975055
vn 0.3888365 -0.9212753 0.007609792
vn 0.9225185 -0.3859472 -0.002118188
vn 0.2802818 -0.9470451 0.1566768
vn 0.00367349 -0.5997676 0.8001658
vn 0.663196 -0.5147349 0.5433407
vn 0.006651859 -0.6492823 0.7605184
vn -0.09509579 -0.3858187 -0.9176605
vn -2.199806E-07 -0.3973652 -0.9176606
vn 0.09509537 -0.3858186 -0.9176606
vn 0.1846644 -0.3518499 -0.9176605
vn -0.184665 -0.3518496 -0.9176605
vn 0.2635018 -0.2974328 -0.9176604
vn -0.263502 -0.2974322 -0.9176605
vn 0.3270251 -0.2257295 -0.9176605
vn -0.3270253 -0.2257294 -0.9176605
vn 0.371543 -0.1409081 -0.9176605
vn -0.3715434 -0.1409077 -0.9176604
vn 0.3944681 -0.04789752 -0.9176605
vn -0.3944681 -0.04789698 -0.9176605
vn 0.3944683 0.04789675 -0.9176604
vn -0.3944681 0.04789701 -0.9176605
vn 0.3715434 0.1409075 -0.9176604
vn -0.3715433 0.1409077 -0.9176604
vn 0.3270255 0.225729 -0.9176605
vn -0.3270254 0.2257293 -0.9176605
vn 0.2635022 0.2974321 -0.9176605
vn -0.263502 0.2974322 -0.9176605
vn 0.1846651 0.3518495 -0.9176605
vn -0.1846649 0.3518498 -0.9176605
vn 0.09509595 0.3858187 -0.9176605
vn -0.0950957 0.3858189 -0.9176604
vn 1.423404E-07 0.397365 -0.9176606
vn 0.005277446 -0.5294489 -0.8483255
vn -2.199806E-07 -0.3973652 -0.9176606
vn -0.09509579 -0.3858187 -0.9176605
vn -0.1987623 -0.8064107 -0.5569518
vn -0.184665 -0.3518496 -0.9176605
vn -0.478923 -0.6691193 -0.5682536
vn 0.008834409 0.03086435 -0.9994845
vn -0.6890447 -0.01970141 -0.7244511
vn -0.5901558 -0.7478303 -0.3040823
vn -0.9925805 -0.1004916 -0.06844921
vn -0.4069156 -0.9106447 -0.07173457
vn -0.8036194 -0.2669837 0.5318981
vn -0.0198859 -0.5491658 0.8354768
vn 0.1524768 0.6186231 0.7707504
vn 3.161226E-07 0.9462648 0.3233928
vn 1.574823E-07 0.6371377 0.7707501
vn 0.2264559 0.9187681 0.3233928
vn 2.378731E-07 0.5113065 0.8593984
vn 0.2960926 0.5641571 0.7707503
vn 0.1223637 0.496449 0.8593984
vn 0.4397512 0.837876 0.3233927
vn 0.4225001 0.4769041 0.7707504
vn 0.2376159 0.4527396 0.8593984
vn 0.6274898 0.7082893 0.3233926
vn 0.5243538 0.3619354 0.7707502
vn 0.3390592 0.3827184 0.8593982
vn 0.7787607 0.5375398 0.3233928
vn 0.5957338 0.2259317 0.7707503
vn 0.4207969 0.2904552 0.8593984
vn 0.884773 0.3355502 0.3233928
vn 0.632492 0.07679823 0.7707502
vn 0.47808 0.1813118 0.8593984
vn 0.9393656 0.1140593 0.3233927
vn 0.632492 -0.0767981 0.7707502
vn 0.5075786 0.06163098 0.8593984
vn 0.9393656 -0.1140594 0.3233927
vn 0.5957339 -0.2259318 0.7707502
vn 0.5075787 -0.06163108 0.8593982
vn 0.8847731 -0.3355499 0.3233927
vn 0.5243541 -0.3619353 0.7707501
vn 0.47808 -0.1813117 0.8593984
vn 0.7787608 -0.5375396 0.3233928
vn 0.4225005 -0.4769038 0.7707503
vn 0.420797 -0.2904552 0.8593984
vn 0.6274897 -0.7082894 0.323393
vn 0.2960924 -0.5641576 0.7707499
vn 0.3390589 -0.3827182 0.8593985
vn 0.4397511 -0.837876 0.323393
vn 0.1524768 -0.6186242 0.7707497
vn 0.237616 -0.4527394 0.8593985
vn 0.2264559 -0.9187681 0.3233927
vn 0 -0.6371373 0.7707503
vn 0.1223637 -0.4964491 0.8593982
vn -1.269469E-07 -0.9462648 0.3233928
vn -0.1524773 -0.618623 0.7707504
vn -1.355323E-07 -0.5113065 0.8593984
vn -0.2264564 -0.918768 0.323393
vn -0.2960928 -0.5641571 0.7707502
vn -0.1223639 -0.4964485 0.8593985
vn -0.439752 -0.8378754 0.3233929
vn -0.4225001 -0.4769039 0.7707504
vn -0.2376165 -0.4527391 0.8593984
vn -0.6274904 -0.7082887 0.323393
vn -0.5243539 -0.361935 0.7707503
vn -0.3390594 -0.3827181 0.8593984
vn -0.7787611 -0.537539 0.3233928
vn -0.5957338 -0.2259319 0.7707502
vn -0.4207971 -0.2904549 0.8593985
vn -0.8847733 -0.3355494 0.3233928
vn -0.632492 -0.07679781 0.7707502
vn -0.4780801 -0.1813115 0.8593984
vn -0.9393656 -0.1140586 0.3233927
vn -0.6324919 0.07679895 0.7707503
vn -0.5075787 -0.06163071 0.8593982
vn -0.9393654 0.1140605 0.3233927
vn -0.5957336 0.2259324 0.7707503
vn -0.5075786 0.06163168 0.8593982
vn -0.8847727 0.3355508 0.3233926
vn -0.5243531 0.3619359 0.7707503
vn -0.4780799 0.1813122 0.8593982
vn -0.77876 0.5375407 0.3233928
vn -0.4224997 0.4769045 0.7707503
vn -0.4207967 0.2904558 0.8593982
vn -0.6274888 0.7082902 0.3233927
vn -0.2960916 0.5641575 0.7707503
vn -0.3390585 0.3827189 0.8593984
vn -0.4397501 0.8378764 0.3233927
vn -0.1524759 0.6186239 0.77075
vn -0.2376155 0.45274 0.8593982
vn -0.2264546 0.9187685 0.3233927
vn 1.574823E-07 0.6371377 0.7707501
vn -0.122363 0.4964491 0.8593984
vn 3.161226E-07 0.9462648 0.3233928
vn 2.378731E-07 0.5113065 0.8593984
vn -0.122363 0.4964491 0.8593984
vn 2.378731E-07 0.5113065 0.8593984
vn 0.1223637 0.496449 0.8593984
vn -0.2376155 0.45274 0.8593982
vn 0.2376159 0.4527396 0.8593984
vn -0.3390585 0.3827189 0.8593984
vn 0.3390592 0.3827184 0.8593982
vn -0.4207967 0.2904558 0.8593982
vn 0.4207969 0.2904552 0.8593984
vn -0.4780799 0.1813122 0.8593982
vn 0.47808 0.1813118 0.8593984
vn -0.5075786 0.06163168 0.8593982
vn 0.5075786 0.06163098 0.8593984
vn -0.5075787 -0.06163071 0.8593982
vn 0.5075787 -0.06163108 0.8593982
vn -0.4780801 -0.1813115 0.8593984
vn 0.47808 -0.1813117 0.8593984
vn -0.4207971 -0.2904549 0.8593985
vn 0.420797 -0.2904552 0.8593984
vn -0.3390594 -0.3827181 0.8593984
vn 0.3390589 -0.3827182 0.8593985
vn -0.2376165 -0.4527391 0.8593984
vn 0.237616 -0.4527394 0.8593985
vn -0.1223639 -0.4964485 0.8593985
vn 0.1223637 -0.4964491 0.8593982
vn -1.355323E-07 -0.5113065 0.8593984
vn 0.6026904 -0.4160083 0.6809563
vn -0.5243531 0.3619359 0.7707503
vn -0.5957336 0.2259324 0.7707503
vn 0.6847346 -0.2596865 0.6809564
vn 0.48562 -0.5481532 0.6809561
vn -0.6324919 0.07679895 0.7707503
vn -0.4224997 0.4769045 0.7707503
vn 0.7269844 -0.08827268 0.6809563
vn 0.3403272 -0.6484411 0.6809563
vn -0.632492 -0.07679781 0.7707502
vn -0.2960916 0.5641575 0.7707503
vn 0.7269847 0.08827111 0.6809563
vn 0.1752559 -0.7110439 0.6809566
vn -0.5957338 -0.2259319 0.7707502
vn -0.1524759 0.6186239 0.77075
vn 0.6847352 0.2596847 0.6809563
vn 0.00367349 -0.5997676 0.8001658
vn -0.5243539 -0.361935 0.7707503
vn 1.574823E-07 0.6371377 0.7707501
vn 0.6026914 0.4160068 0.6809562
vn -0.1752564 -0.7110442 0.6809562
vn -0.4225001 -0.4769039 0.7707504
vn 0.1524768 0.6186231 0.7707504
vn 0.4856215 0.5481519 0.6809562
vn -0.3403279 -0.6484409 0.6809561
vn -0.2960928 -0.5641571 0.7707502
vn 0.2960926 0.5641571 0.7707503
vn 0.3403285 0.6484402 0.6809566
vn -0.4856207 -0.5481523 0.6809563
vn -0.1524773 -0.618623 0.7707504
vn 0.4225001 0.4769041 0.7707504
vn 0.1752566 0.7110443 0.6809561
vn -0.6026908 -0.4160075 0.6809563
vn 0 -0.6371373 0.7707503
vn 0.5243538 0.3619354 0.7707502
vn 0 0.7323242 0.6809561
vn -0.6847348 -0.2596859 0.6809563
vn 0.1524768 -0.6186242 0.7707497
vn 0.5957338 0.2259317 0.7707503
vn -0.1752564 0.7110436 0.6809568
vn -0.7269846 -0.08827188 0.6809563
vn 0.2960924 -0.5641576 0.7707499
vn 0.632492 0.07679823 0.7707502
vn -0.3403279 0.6484406 0.6809565
vn -0.7269846 0.08827196 0.6809563
vn 0.4225005 -0.4769038 0.7707503
vn 0.632492 -0.0767981 0.7707502
vn -0.4856204 0.5481524 0.6809565
vn -0.6847349 0.2596857 0.6809563
vn 0.5243541 -0.3619353 0.7707501
vn 0.5957339 -0.2259318 0.7707502
vn -0.6026909 0.4160074 0.6809564
usemtl mug01
f 1/1/1 3/3/3 2/2/2 
f 1/1/1 4/4/4 3/3/3 
f 5/5/5 4/4/4 1/1/1 
f 4/4/4 6/6/6 3/3/3 
f 5/5/5 7/7/7 4/4/4 
f 8/8/8 7/7/7 5/5/5 
f 4/4/4 9/9/9 6/6/6 
f 7/7/7 9/9/9 4/4/4 
f 9/9/9 10/10/10 6/6/6 
f 8/8/8 11/11/11 7/7/7 
f 12/12/12 11/11/11 8/8/8 
f 7/7/7 13/13/13 9/9/9 
f 11/11/11 13/13/13 7/7/7 
f 9/9/9 14/14/14 10/10/10 
f 13/13/13 14/14/14 9/9/9 
f 14/14/14 15/15/15 10/10/10 
f 12/12/12 16/16/16 11/11/11 
f 17/17/17 16/16/16 12/12/12 
f 11/11/11 18/18/18 13/13/13 
f 16/16/16 18/18/18 11/11/11 
f 13/13/13 19/19/19 14/14/14 
f 18/18/18 19/19/19 13/13/13 
f 14/14/14 20/20/20 15/15/15 
f 19/19/19 20/20/20 14/14/14 
f 20/20/20 21/21/21 15/15/15 
f 17/17/17 22/22/22 16/16/16 
f 23/23/23 22/22/22 17/17/17 
f 16/16/16 24/24/24 18/18/18 
f 22/22/22 24/24/24 16/16/16 
f 18/18/18 25/25/25 19/19/19 
f 24/24/24 25/25/25 18/18/18 
f 19/19/19 26/26/26 20/20/20 
f 25/25/25 26/26/26 19/19/19 
f 20/20/20 27/27/27 21/21/21 
f 26/26/26 27/27/27 20/20/20 
f 27/27/27 28/28/28 21/21/21 
f 23/23/23 29/29/29 22/22/22 
f 30/30/30 29/29/29 23/23/23 
f 22/22/22 31/31/31 24/24/24 
f 29/29/29 31/31/31 22/22/22 
f 24/24/24 32/32/32 25/25/25 
f 31/31/31 32/32/32 24/24/24 
f 25/25/25 33/33/33 26/26/26 
f 32/32/32 33/33/33 25/25/25 
f 26/26/26 34/34/34 27/27/27 
f 33/33/33 34/34/34 26/26/26 
f 27/27/27 35/35/35 28/28/28 
f 34/34/34 35/35/35 27/27/27 
f 35/35/35 36/36/36 28/28/28 
f 35/35/35 37/37/37 36/36/36 
f 38/38/38 37/37/37 35/35/35 
f 34/34/34 38/38/38 35/35/35 
f 38/38/38 39/39/39 37/37/37 
f 33/33/33 40/40/40 34/34/34 
f 40/40/40 38/38/38 34/34/34 
f 41/41/41 39/39/39 38/38/38 
f 40/40/40 41/41/41 38/38/38 
f 41/41/41 42/42/42 39/39/39 
f 32/32/32 43/43/43 33/33/33 
f 43/43/43 40/40/40 33/33/33 
f 44/44/44 41/41/41 40/40/40 
f 43/43/43 44/44/44 40/40/40 
f 45/45/45 42/42/42 41/41/41 
f 44/44/44 45/45/45 41/41/41 
f 45/45/45 46/46/46 42/42/42 
f 47/47/47 43/43/43 32/32/32 
f 31/31/31 47/47/47 32/32/32 
f 48/48/48 44/44/44 43/43/43 
f 47/47/47 48/48/48 43/43/43 
f 49/49/49 45/45/45 44/44/44 
f 48/48/48 49/49/49 44/44/44 
f 50/50/50 46/46/46 45/45/45 
f 49/49/49 50/50/50 45/45/45 
f 50/50/50 51/51/51 46/46/46 
f 52/52/52 47/47/47 31/31/31 
f 29/29/29 52/52/52 31/31/31 
f 53/53/53 48/48/48 47/47/47 
f 52/52/52 53/53/53 47/47/47 
f 54/54/54 49/49/49 48/48/48 
f 53/53/53 54/54/54 48/48/48 
f 55/55/55 50/50/50 49/49/49 
f 54/54/54 55/55/55 49/49/49 
f 56/56/56 51/51/51 50/50/50 
f 55/55/55 56/56/56 50/50/50 
f 56/56/56 57/57/57 51/51/51 
f 58/58/58 52/52/52 29/29/29 
f 30/30/30 58/58/58 29/29/29 
f 59/59/59 58/58/58 30/30/30 
f 59/59/59 60/60/60 58/58/58 
f 58/58/58 61/61/61 52/52/52 
f 60/60/60 61/61/61 58/58/58 
f 61/61/61 53/53/53 52/52/52 
f 60/60/60 62/62/62 61/61/61 
f 61/61/61 63/63/63 53/53/53 
f 62/62/62 63/63/63 61/61/61 
f 63/63/63 54/54/54 53/53/53 
f 62/62/62 64/64/64 63/63/63 
f 63/63/63 65/65/65 54/54/54 
f 64/64/64 65/65/65 63/63/63 
f 65/65/65 55/55/55 54/54/54 
f 64/64/64 66/66/66 65/65/65 
f 65/65/65 67/67/67 55/55/55 
f 66/66/66 67/67/67 65/65/65 
f 67/67/67 56/56/56 55/55/55 
f 66/66/66 68/68/68 67/67/67 
f 67/67/67 69/69/69 56/56/56 
f 68/68/68 69/69/69 67/67/67 
f 69/69/69 57/57/57 56/56/56 
f 68/68/68 70/70/70 69/69/69 
f 69/69/69 71/71/71 57/57/57 
f 70/70/70 71/71/71 69/69/69 
f 70/70/70 72/72/72 71/71/71 
f 73/73/73 75/75/75 74/74/74 
f 73/73/73 74/74/74 76/76/76 
f 77/77/77 73/73/73 76/76/76 
f 76/76/76 74/74/74 78/78/78 
f 77/77/77 76/76/76 79/79/79 
f 78/78/78 79/79/79 76/76/76 
f 80/80/80 79/79/79 78/78/78 
f 81/81/81 77/77/77 79/79/79 
f 80/80/80 78/78/78 82/82/82 
f 81/81/81 79/79/79 83/83/83 
f 83/83/83 79/79/79 80/80/80 
f 84/84/84 81/81/81 83/83/83 
f 84/84/84 83/83/83 85/85/85 
f 80/80/80 85/85/85 83/83/83 
f 85/85/85 80/80/80 86/86/86 
f 85/85/85 86/86/86 87/87/87 
f 80/80/80 82/82/82 88/88/88 
f 88/88/88 82/82/82 89/89/89 
f 80/80/80 90/90/90 86/86/86 
f 80/80/80 88/88/88 90/90/90 
f 88/88/88 89/89/89 91/91/91 
f 91/91/91 89/89/89 92/92/92 
f 88/88/88 93/93/93 90/90/90 
f 88/88/88 91/91/91 93/93/93 
f 91/91/91 92/92/92 94/94/94 
f 94/94/94 92/92/92 95/95/95 
f 91/91/91 96/96/96 93/93/93 
f 91/91/91 94/94/94 96/96/96 
f 94/94/94 95/95/95 97/97/97 
f 97/97/97 95/95/95 98/98/98 
f 94/94/94 99/99/99 96/96/96 
f 94/94/94 97/97/97 99/99/99 
f 97/97/97 98/98/98 100/100/100 
f 100/100/100 98/98/98 101/101/101 
f 97/97/97 102/102/102 99/99/99 
f 97/97/97 100/100/100 102/102/102 
f 100/100/100 101/101/101 103/103/103 
f 103/103/103 101/101/101 104/104/104 
f 100/100/100 105/105/105 102/102/102 
f 100/100/100 103/103/103 105/105/105 
f 103/103/103 104/104/104 106/106/106 
f 106/106/106 104/104/104 107/107/107 
f 103/103/103 108/108/108 105/105/105 
f 103/103/103 106/106/106 108/108/108 
f 106/106/106 107/107/107 109/109/109 
f 109/109/109 107/107/107 110/110/110 
f 106/106/106 111/111/111 108/108/108 
f 106/106/106 109/109/109 111/111/111 
f 109/109/109 110/110/110 112/112/112 
f 112/112/112 110/110/110 113/113/113 
f 109/109/109 114/114/114 111/111/111 
f 109/109/109 112/112/112 114/114/114 
f 112/112/112 113/113/113 115/115/115 
f 115/115/115 113/113/113 116/116/116 
f 112/112/112 117/117/117 114/114/114 
f 112/112/112 115/115/115 117/117/117 
f 115/115/115 116/116/116 118/118/118 
f 118/118/118 116/116/116 119/119/119 
f 115/115/115 120/120/120 117/117/117 
f 115/115/115 118/118/118 120/120/120 
f 118/118/118 119/119/119 121/121/121 
f 121/121/121 119/119/119 122/122/122 
f 118/118/118 123/123/123 120/120/120 
f 118/118/118 121/121/121 123/123/123 
f 121/121/121 122/122/122 124/124/124 
f 124/124/124 122/122/122 125/125/125 
f 121/121/121 126/126/126 123/123/123 
f 121/121/121 124/124/124 126/126/126 
f 124/124/124 125/125/125 127/127/127 
f 127/127/127 125/125/125 128/128/128 
f 124/124/124 129/129/129 126/126/126 
f 124/124/124 127/127/127 129/129/129 
f 127/127/127 128/128/128 130/130/130 
f 130/130/130 128/128/128 131/131/131 
f 127/127/127 132/132/132 129/129/129 
f 127/127/127 130/130/130 132/132/132 
f 130/130/130 131/131/131 133/133/133 
f 133/133/133 131/131/131 134/134/134 
f 130/130/130 135/135/135 132/132/132 
f 130/130/130 133/133/133 135/135/135 
f 133/133/133 134/134/134 136/136/136 
f 136/136/136 134/134/134 137/137/137 
f 133/133/133 138/138/138 135/135/135 
f 133/133/133 136/136/136 138/138/138 
f 136/136/136 137/137/137 139/139/139 
f 139/139/139 137/137/137 140/140/140 
f 136/136/136 141/141/141 138/138/138 
f 136/136/136 139/139/139 141/141/141 
f 139/139/139 140/140/140 142/142/142 
f 142/142/142 140/140/140 143/143/143 
f 139/139/139 144/144/144 141/141/141 
f 139/139/139 142/142/142 144/144/144 
f 142/142/142 143/143/143 145/145/145 
f 145/145/145 143/143/143 146/146/146 
f 142/142/142 147/147/147 144/144/144 
f 142/142/142 145/145/145 147/147/147 
f 145/145/145 146/146/146 148/148/148 
f 148/148/148 146/146/146 149/149/149 
f 145/145/145 150/150/150 147/147/147 
f 145/145/145 148/148/148 150/150/150 
f 148/148/148 149/149/149 151/151/151 
f 151/151/151 149/149/149 152/152/152 
f 148/148/148 153/153/153 150/150/150 
f 148/148/148 151/151/151 153/153/153 
f 151/151/151 152/152/152 154/154/154 
f 154/154/154 152/152/152 155/155/155 
f 151/151/151 156/156/156 153/153/153 
f 151/151/151 154/154/154 156/156/156 
f 144/144/144 147/147/147 157/157/157 
f 147/147/147 150/150/150 158/158/158 
f 147/147/147 158/158/158 157/157/157 
f 150/150/150 153/153/153 159/159/159 
f 150/150/150 159/159/159 158/158/158 
f 153/153/153 156/156/156 160/160/160 
f 153/153/153 160/160/160 159/159/159 
f 156/156/156 161/161/161 160/160/160 
f 154/154/154 162/162/162 156/156/156 
f 156/156/156 162/162/162 161/161/161 
f 154/154/154 155/155/155 163/163/163 
f 154/154/154 163/163/163 162/162/162 
f 144/144/144 157/157/157 164/164/164 
f 141/141/141 144/144/144 164/164/164 
f 141/141/141 164/164/164 165/165/165 
f 138/138/138 141/141/141 165/165/165 
f 138/138/138 165/165/165 166/166/166 
f 135/135/135 138/138/138 166/166/166 
f 135/135/135 166/166/166 167/167/167 
f 132/132/132 135/135/135 167/167/167 
f 132/132/132 167/167/167 168/168/168 
f 129/129/129 132/132/132 168/168/168 
f 129/129/129 168/168/168 169/169/169 
f 126/126/126 129/129/129 169/169/169 
f 126/126/126 169/169/169 170/170/170 
f 123/123/123 126/126/126 170/170/170 
f 123/123/123 170/170/170 171/171/171 
f 120/120/120 123/123/123 171/171/171 
f 120/120/120 171/171/171 172/172/172 
f 117/117/117 120/120/120 172/172/172 
f 117/117/117 172/172/172 173/173/173 
f 114/114/114 117/117/117 173/173/173 
f 114/114/114 173/173/173 174/174/174 
f 111/111/111 114/114/114 174/174/174 
f 111/111/111 174/174/174 175/175/175 
f 108/108/108 111/111/111 175/175/175 
f 108/108/108 175/175/175 176/176/176 
f 105/105/105 108/108/108 176/176/176 
f 105/105/105 176/176/176 177/177/177 
f 102/102/102 105/105/105 177/177/177 
f 102/102/102 177/177/177 178/178/178 
f 99/99/99 102/102/102 178/178/178 
f 99/99/99 178/178/178 179/179/179 
f 96/96/96 99/99/99 179/179/179 
f 96/96/96 179/179/179 180/180/180 
f 93/93/93 96/96/96 180/180/180 
f 93/93/93 180/180/180 181/181/181 
f 90/90/90 93/93/93 181/181/181 
f 90/90/90 181/181/181 182/182/182 
f 86/86/86 90/90/90 182/182/182 
f 176/176/176 175/175/175 183/183/183 
f 176/176/176 183/183/183 184/184/184 
f 177/177/177 176/176/176 184/184/184 
f 175/175/175 185/185/185 183/183/183 
f 177/177/177 184/184/184 186/186/186 
f 175/175/175 174/174/174 185/185/185 
f 178/178/178 177/177/177 186/186/186 
f 174/174/174 187/187/187 185/185/185 
f 178/178/178 186/186/186 188/188/188 
f 174/174/174 173/173/173 187/187/187 
f 179/179/179 178/178/178 188/188/188 
f 173/173/173 189/189/189 187/187/187 
f 179/179/179 188/188/188 190/190/190 
f 173/173/173 172/172/172 189/189/189 
f 180/180/180 179/179/179 190/190/190 
f 172/172/172 191/191/191 189/189/189 
f 180/180/180 190/190/190 192/192/192 
f 172/172/172 171/171/171 191/191/191 
f 181/181/181 180/180/180 192/192/192 
f 171/171/171 193/193/193 191/191/191 
f 181/181/181 192/192/192 194/194/194 
f 171/171/171 170/170/170 193/193/193 
f 170/170/170 195/195/195 193/193/193 
f 170/170/170 169/169/169 195/195/195 
f 169/169/169 196/196/196 195/195/195 
f 169/169/169 168/168/168 196/196/196 
f 168/168/168 197/197/197 196/196/196 
f 168/168/168 167/167/167 197/197/197 
f 167/167/167 198/198/198 197/197/197 
f 167/167/167 166/166/166 198/198/198 
f 166/166/166 199/199/199 198/198/198 
f 166/166/166 165/165/165 199/199/199 
f 165/165/165 200/200/200 199/199/199 
f 165/165/165 164/164/164 200/200/200 
f 164/164/164 201/201/201 200/200/200 
f 164/164/164 157/157/157 201/201/201 
f 157/157/157 202/202/202 201/201/201 
f 157/157/157 158/158/158 202/202/202 
f 158/158/158 203/203/203 202/202/202 
f 158/158/158 159/159/159 203/203/203 
f 159/159/159 204/204/204 203/203/203 
f 159/159/159 160/160/160 204/204/204 
f 160/160/160 205/205/205 204/204/204 
f 160/160/160 161/161/161 205/205/205 
f 161/161/161 206/206/206 205/205/205 
f 161/161/161 207/207/207 206/206/206 
f 208/208/208 207/207/207 161/161/161 
f 209/209/209 207/207/207 208/208/208 
f 209/209/209 208/208/208 210/210/210 
f 161/161/161 211/211/211 208/208/208 
f 210/210/210 208/208/208 211/211/211 
f 210/210/210 211/211/211 212/212/212 
f 162/162/162 211/211/211 161/161/161 
f 212/212/212 211/211/211 213/213/213 
f 211/211/211 162/162/162 213/213/213 
f 212/212/212 213/213/213 214/214/214 
f 213/213/213 162/162/162 215/215/215 
f 214/214/214 213/213/213 215/215/215 
f 214/214/214 215/215/215 216/216/216 
f 163/163/163 215/215/215 162/162/162 
f 163/163/163 217/217/217 215/215/215 
f 163/163/163 218/218/218 217/217/217 
f 219/219/219 217/217/217 218/218/218 
f 219/219/219 218/218/218 220/220/220 
f 218/218/218 163/163/163 221/221/221 
f 220/220/220 218/218/218 221/221/221 
f 155/155/155 221/221/221 163/163/163 
f 220/220/220 221/221/221 222/222/222 
f 221/221/221 155/155/155 223/223/223 
f 222/222/222 221/221/221 223/223/223 
f 223/223/223 155/155/155 224/224/224 
f 222/222/222 223/223/223 225/225/225 
f 225/225/225 223/223/223 224/224/224 
f 225/225/225 224/224/224 226/226/226 
f 227/227/227 229/229/229 228/228/228 
f 229/229/229 227/227/227 230/230/230 
f 230/230/230 227/227/227 231/231/231 
f 230/230/230 231/231/231 232/232/232 
f 232/232/232 231/231/231 233/233/233 
f 232/232/232 233/233/233 234/234/234 
f 234/234/234 233/233/233 235/235/235 
f 234/234/234 235/235/235 236/236/236 
f 236/236/236 235/235/235 237/237/237 
f 236/236/236 237/237/237 238/238/238 
f 238/238/238 237/237/237 239/239/239 
f 238/238/238 239/239/239 240/240/240 
f 240/240/240 239/239/239 241/241/241 
f 240/240/240 241/241/241 242/242/242 
f 242/242/242 241/241/241 243/243/243 
f 242/242/242 243/243/243 244/244/244 
f 244/244/244 243/243/243 245/245/245 
f 244/244/244 245/245/245 246/246/246 
f 246/246/246 245/245/245 247/247/247 
f 246/246/246 247/247/247 248/248/248 
f 248/248/248 247/247/247 249/249/249 
f 248/248/248 249/249/249 250/250/250 
f 250/250/250 249/249/249 251/251/251 
f 250/250/250 251/251/251 252/252/252 
f 253/253/253 255/255/255 254/254/254 
f 253/253/253 256/256/256 255/255/255 
f 256/256/256 257/257/257 255/255/255 
f 253/253/253 258/258/258 256/256/256 
f 259/259/259 258/258/258 253/253/253 
f 259/259/259 260/260/260 258/258/258 
f 260/260/260 261/261/261 258/258/258 
f 256/256/256 258/258/258 261/261/261 
f 260/260/260 262/262/262 261/261/261 
f 256/256/256 182/182/182 257/257/257 
f 182/182/182 194/194/194 257/257/257 
f 182/182/182 181/181/181 194/194/194 
f 86/86/86 182/182/182 256/256/256 
f 86/86/86 256/256/256 261/261/261 
f 262/262/262 263/263/263 261/261/261 
f 261/261/261 263/263/263 86/86/86 
f 262/262/262 264/264/264 263/263/263 
f 86/86/86 263/263/263 87/87/87 
f 264/264/264 87/87/87 263/263/263 
f 264/264/264 265/265/265 87/87/87 
f 266/266/266 268/268/268 267/267/267 
f 266/266/266 267/267/267 269/269/269 
f 269/269/269 267/267/267 270/270/270 
f 271/271/271 266/266/266 269/269/269 
f 269/269/269 270/270/270 272/272/272 
f 271/271/271 269/269/269 273/273/273 
f 273/273/273 269/269/269 272/272/272 
f 274/274/274 271/271/271 273/273/273 
f 273/273/273 272/272/272 275/275/275 
f 274/274/274 273/273/273 276/276/276 
f 276/276/276 273/273/273 275/275/275 
f 277/277/277 274/274/274 276/276/276 
f 276/276/276 275/275/275 278/278/278 
f 277/277/277 276/276/276 279/279/279 
f 279/279/279 276/276/276 278/278/278 
f 280/280/280 277/277/277 279/279/279 
f 279/279/279 278/278/278 281/281/281 
f 280/280/280 279/279/279 282/282/282 
f 282/282/282 279/279/279 281/281/281 
f 283/283/283 280/280/280 282/282/282 
f 282/282/282 281/281/281 284/284/284 
f 283/283/283 282/282/282 285/285/285 
f 285/285/285 282/282/282 284/284/284 
f 286/286/286 283/283/283 285/285/285 
f 285/285/285 284/284/284 287/287/287 
f 286/286/286 285/285/285 288/288/288 
f 288/288/288 285/285/285 287/287/287 
f 289/289/289 286/286/286 288/288/288 
f 288/288/288 287/287/287 290/290/290 
f 289/289/289 288/288/288 291/291/291 
f 291/291/291 288/288/288 290/290/290 
f 292/292/292 289/289/289 291/291/291 
f 291/291/291 290/290/290 293/293/293 
f 292/292/292 291/291/291 294/294/294 
f 294/294/294 291/291/291 293/293/293 
f 295/295/295 292/292/292 294/294/294 
f 294/294/294 293/293/293 296/296/296 
f 295/295/295 294/294/294 297/297/297 
f 297/297/297 294/294/294 296/296/296 
f 298/298/298 295/295/295 297/297/297 
f 297/297/297 296/296/296 299/299/299 
f 298/298/298 297/297/297 300/300/300 
f 300/300/300 297/297/297 299/299/299 
f 301/301/301 298/298/298 300/300/300 
f 300/300/300 299/299/299 302/302/302 
f 301/301/301 300/300/300 303/303/303 
f 303/303/303 300/300/300 302/302/302 
f 304/304/304 301/301/301 303/303/303 
f 303/303/303 302/302/302 305/305/305 
f 304/304/304 303/303/303 306/306/306 
f 306/306/306 303/303/303 305/305/305 
f 307/307/307 304/304/304 306/306/306 
f 306/306/306 305/305/305 308/308/308 
f 307/307/307 306/306/306 309/309/309 
f 309/309/309 306/306/306 308/308/308 
f 310/310/310 307/307/307 309/309/309 
f 309/309/309 308/308/308 311/311/311 
f 310/310/310 309/309/309 312/312/312 
f 312/312/312 309/309/309 311/311/311 
f 313/313/313 310/310/310 312/312/312 
f 312/312/312 311/311/311 314/314/314 
f 313/313/313 312/312/312 315/315/315 
f 315/315/315 312/312/312 314/314/314 
f 316/316/316 313/313/313 315/315/315 
f 315/315/315 314/314/314 317/317/317 
f 316/316/316 315/315/315 318/318/318 
f 318/318/318 315/315/315 317/317/317 
f 319/319/319 316/316/316 318/318/318 
f 318/318/318 317/317/317 320/320/320 
f 319/319/319 318/318/318 321/321/321 
f 321/321/321 318/318/318 320/320/320 
f 322/322/322 319/319/319 321/321/321 
f 321/321/321 320/320/320 323/323/323 
f 322/322/322 321/321/321 324/324/324 
f 324/324/324 321/321/321 323/323/323 
f 325/325/325 322/322/322 324/324/324 
f 324/324/324 323/323/323 326/326/326 
f 325/325/325 324/324/324 327/327/327 
f 327/327/327 324/324/324 326/326/326 
f 328/328/328 325/325/325 327/327/327 
f 327/327/327 326/326/326 329/329/329 
f 328/328/328 327/327/327 330/330/330 
f 330/330/330 327/327/327 329/329/329 
f 331/331/331 328/328/328 330/330/330 
f 330/330/330 329/329/329 332/332/332 
f 331/331/331 330/330/330 333/333/333 
f 333/333/333 330/330/330 332/332/332 
f 334/334/334 331/331/331 333/333/333 
f 333/333/333 332/332/332 335/335/335 
f 334/334/334 333/333/333 336/336/336 
f 336/336/336 333/333/333 335/335/335 
f 337/337/337 334/334/334 336/336/336 
f 336/336/336 335/335/335 338/338/338 
f 337/337/337 336/336/336 339/339/339 
f 339/339/339 336/336/336 338/338/338 
f 340/340/340 337/337/337 339/339/339 
f 339/339/339 338/338/338 341/341/341 
f 340/340/340 339/339/339 342/342/342 
f 342/342/342 339/339/339 341/341/341 
f 343/343/343 340/340/340 342/342/342 
f 342/342/342 341/341/341 344/344/344 
f 343/343/343 342/342/342 345/345/345 
f 345/345/345 342/342/342 344/344/344 
f 345/345/345 344/344/344 346/346/346 
f 347/347/347 349/349/349 348/348/348 
f 349/349/349 347/347/347 350/350/350 
f 349/349/349 350/350/350 351/351/351 
f 351/351/351 350/350/350 352/352/352 
f 351/351/351 352/352/352 353/353/353 
f 353/353/353 352/352/352 354/354/354 
f 353/353/353 354/354/354 355/355/355 
f 355/355/355 354/354/354 356/356/356 
f 355/355/355 356/356/356 357/357/357 
f 357/357/357 356/356/356 358/358/358 
f 357/357/357 358/358/358 359/359/359 
f 359/359/359 358/358/358 360/360/360 
f 359/359/359 360/360/360 361/361/361 
f 361/361/361 360/360/360 362/362/362 
f 361/361/361 362/362/362 363/363/363 
f 363/363/363 362/362/362 364/364/364 
f 363/363/363 364/364/364 365/365/365 
f 365/365/365 364/364/364 366/366/366 
f 365/365/365 366/366/366 367/367/367 
f 367/367/367 366/366/366 368/368/368 
f 367/367/367 368/368/368 369/369/369 
f 369/369/369 368/368/368 370/370/370 
f 369/369/369 370/370/370 371/371/371 
f 371/371/371 370/370/370 372/372/372 
f 373/373/373 375/375/375 374/374/374 
f 373/373/373 376/376/376 375/375/375 
f 377/377/377 373/373/373 374/374/374 
f 376/376/376 378/378/378 375/375/375 
f 377/377/377 374/374/374 379/379/379 
f 376/376/376 380/380/380 378/378/378 
f 381/381/381 377/377/377 379/379/379 
f 380/380/380 382/382/382 378/378/378 
f 381/381/381 379/379/379 383/383/383 
f 380/380/380 384/384/384 382/382/382 
f 385/385/385 381/381/381 383/383/383 
f 384/384/384 386/386/386 382/382/382 
f 385/385/385 383/383/383 387/387/387 
f 384/384/384 388/388/388 386/386/386 
f 389/389/389 385/385/385 387/387/387 
f 388/388/388 390/390/390 386/386/386 
f 389/389/389 387/387/387 391/391/391 
f 388/388/388 392/392/392 390/390/390 
f 393/393/393 389/389/389 391/391/391 
f 392/392/392 394/394/394 390/390/390 
f 393/393/393 391/391/391 395/395/395 
f 392/392/392 396/396/396 394/394/394 
f 397/397/397 393/393/393 395/395/395 
f 396/396/396 398/398/398 394/394/394 
f 397/397/397 395/395/395 399/399/399 
f 396/396/396 400/400/400 398/398/398 
f 401/401/401 397/397/397 399/399/399 
f 400/400/400 402/402/402 398/398/398 
f 401/401/401 399/399/399 403/403/403 
f 400/400/400 404/404/404 402/402/402 
f 405/405/405 401/401/401 403/403/403 
f 404/404/404 406/406/406 402/402/402 
f 405/405/405 403/403/403 407/407/407 
f 404/404/404 408/408/408 406/406/406 
f 409/409/409 405/405/405 407/407/407 
f 408/408/408 410/410/410 406/406/406 
f 409/409/409 407/407/407 411/411/411 
f 408/408/408 412/412/412 410/410/410 
f 413/413/413 409/409/409 411/411/411 
f 412/412/412 414/414/414 410/410/410 
f 413/413/413 411/411/411 415/415/415 
f 412/412/412 416/416/416 414/414/414 
f 417/417/417 413/413/413 415/415/415 
f 416/416/416 418/418/418 414/414/414 
f 417/417/417 415/415/415 419/419/419 
f 416/416/416 420/420/420 418/418/418 
f 421/421/421 417/417/417 419/419/419 
f 420/420/420 422/422/422 418/418/418 
f 421/421/421 419/419/419 423/423/423 
f 420/420/420 424/424/424 422/422/422 
f 424/424/424 421/421/421 423/423/423 
f 424/424/424 423/423/423 422/422/422 
