# exported by StudySceneExporter from mesh 'SM_Jar_002.001'
mtllib materials.mtl
v 2.383566E-08 -0.03657555 0.2343666
v 1.763143E-08 -0.02705524 0.1979337
v -0.01585053 -0.0219051 0.1979337
v -0.02144643 -0.0296072 0.2343666
v -0.02564671 -0.008421831 0.1979337
v -0.03470108 -0.01136376 0.2343666
v -0.02564672 0.008244414 0.1979337
v -0.03470109 0.01118637 0.2343666
v -0.01585056 0.02172769 0.1979337
v -0.02144647 0.02942982 0.2343666
v -1.751584E-08 0.02687786 0.1979337
v -2.372008E-08 0.03639821 0.2343666
v 0.02144643 0.02942985 0.2343666
v 0.01585053 0.02172772 0.1979337
v 0.03470108 0.01118641 0.2343666
v 0.02564671 0.008244447 0.1979337
v 0.03470109 -0.01136372 0.2343666
v 0.02564672 -0.008421797 0.1979337
v 0.02144647 -0.02960716 0.2343666
v 0.01585056 -0.02190508 0.1979337
v 0.01585056 -0.02190508 0.1979337
v 1.763143E-08 -0.02705524 0.1979337
v 2.383566E-08 -0.03657555 0.2343666
v 0.02144647 -0.02960716 0.2343666
v 2.428671E-08 -0.0385344 0.1999491
v -0.02000589 -0.02753579 0.2029718
v 2.145161E-08 -0.0340361 0.2029718
v 1.665836E-08 -0.02643092 0.2029719
v -0.0155357 -0.02138307 0.2029719
v -0.02264993 -0.031175 0.1999491
v 2.650741E-08 -0.04210443 0.1941574
v -0.03237025 -0.01051775 0.2029718
v -0.02513731 -0.008167608 0.2029719
v -0.02474834 -0.03406322 0.1941574
v 2.42867E-08 -0.03853439 0.1883657
v -0.03237026 0.01051771 0.2029718
v -0.02513731 0.008167601 0.2029719
v -0.02000594 0.02753577 0.2029718
v -0.01553572 0.02138308 0.2029719
v -0.0366484 0.01190776 0.1999491
v -0.03664839 -0.0119078 0.1999491
v -0.04004369 -0.01301101 0.1941574
v -0.02264993 -0.031175 0.1883657
v -2.290987E-08 0.0340361 0.2029718
v -1.77908E-08 0.02643094 0.2029719
v 0.0155357 0.02138309 0.2029719
v -0.02264997 0.03117497 0.1999491
v -0.02000589 -0.02753579 0.1853429
v 2.145161E-08 -0.0340361 0.1853429
v -0.0400437 0.01301095 0.1941574
v -0.03664838 -0.0119078 0.1883657
v 0.02000589 0.02753579 0.2029718
v 0.02513731 0.008167635 0.2029719
v -0.02000589 -0.02753579 0.1749318
v 2.202114E-08 -0.03415735 0.1749317
v -0.03237025 -0.01051775 0.1853429
v -0.02085226 -0.02870072 0.170788
v 2.315562E-08 -0.0356437 0.1707825
v -0.0366484 0.01190775 0.1883657
v -0.03237025 -0.01051775 0.1749318
v -0.02289557 -0.03151309 0.1679468
v 2.55125E-08 -0.03914865 0.1679281
v -0.03237026 0.01051771 0.1853429
v -0.02264997 0.03117496 0.1883657
v -0.03374 -0.01096281 0.1707878
v -0.03638244 -0.05007619 0.1589861
v 4.033756E-08 -0.06189754 0.1589861
v -0.03237026 0.01051771 0.1749318
v -0.03704689 -0.01203729 0.1679464
v -0.02474839 0.03406319 0.1941574
v -2.842826E-08 0.04210443 0.1941574
v -0.02000594 0.02753577 0.1853429
v -0.04312193 -0.05935233 0.1326696
v 4.780972E-08 -0.07336348 0.1326696
v -0.03374012 0.0109628 0.1707878
v -2.593769E-08 0.0385344 0.1999491
v 0.02264993 0.031175 0.1999491
v -0.04312193 -0.05935233 0.01225593
v 4.780972E-08 -0.07336348 0.01225593
v 4.514503E-08 -0.06958908 0.00358969
v -0.04090339 -0.05629877 0.00358969
v -0.0697728 -0.0226706 0.01225593
v -0.06618313 -0.02150425 0.00358969
v -0.06618316 0.02150416 0.00358969
v -0.0697728 -0.0226706 0.1326696
v -0.06977283 0.02267052 0.01225593
v -0.04090347 0.05629871 0.00358969
v -0.04312201 0.05935227 0.01225593
v -4.514503E-08 0.06958908 0.00358969
v -0.05886806 -0.01912743 0.1589861
v -0.06977283 0.02267052 0.1326696
v -0.03704724 0.01203735 0.1679463
v -0.05886809 0.01912736 0.1589861
v -0.04312201 0.05935227 0.1326696
v -4.780972E-08 0.07336348 0.01225593
v -0.0363825 0.05007615 0.1589861
v -4.033756E-08 0.06189754 0.1589861
v -0.02289626 0.03151396 0.1679464
v 0.04312193 0.05935233 0.01225593
v 0.04090339 0.05629877 0.00358969
v -4.780972E-08 0.07336348 0.1326696
v -0.02085249 0.02870095 0.1707878
v 0.0697728 0.0226706 0.01225593
v 0.06618313 0.02150425 0.00358969
v 0.06618316 -0.02150416 0.00358969
v 0.04312193 0.05935233 0.1326696
v 0.06977283 -0.02267052 0.01225593
v 0.04090347 -0.05629871 0.00358969
v 0.0697728 0.0226706 0.1326696
v 0.04312201 -0.05935227 0.01225593
v 4.514503E-08 -0.06958908 0.00358969
v 4.780972E-08 -0.07336348 0.01225593
v 0.06977283 -0.02267052 0.1326696
v 0.05886809 -0.01912736 0.1589861
v 0.04312201 -0.05935227 0.1326696
v 4.780972E-08 -0.07336348 0.1326696
v 4.033756E-08 -0.06189754 0.1589861
v 0.0363825 -0.05007615 0.1589861
v 2.55125E-08 -0.03914865 0.1679281
v 0.02301037 -0.03167102 0.1679286
v 2.315562E-08 -0.0356437 0.1707825
v 0.02095068 -0.02883609 0.1707826
v 2.202114E-08 -0.03415735 0.1749317
v 0.03723121 -0.01209712 0.1679287
v 0.02007721 -0.02763387 0.1749317
v 2.145161E-08 -0.0340361 0.1853429
v 0.03389879 -0.01101436 0.1707827
v 0.03723153 0.01209728 0.1679286
v 0.03389887 0.01101443 0.1707826
v 0.05886806 0.01912743 0.1589861
v 0.03638244 0.05007619 0.1589861
v 0.02301098 0.03167194 0.1679281
v 0.02095082 0.02883638 0.1707825
v -2.538455E-08 0.03895231 0.1679468
v -2.320642E-08 0.03547602 0.170788
v 0.02007717 0.0276339 0.1749317
v -0.02000594 0.02753577 0.1749318
v -2.241937E-08 0.0340361 0.1749318
v 0.02000589 0.02753579 0.1853429
v 0.03248557 0.01055522 0.1749317
v -2.290987E-08 0.0340361 0.1853429
v -2.593769E-08 0.03853439 0.1883657
v 0.02474834 0.03406322 0.1941574
v 0.02264993 0.031175 0.1883657
v 0.04004369 0.01301101 0.1941574
v 0.03664838 0.0119078 0.1883657
v 0.03237025 0.01051775 0.1853429
v 0.03248559 -0.01055518 0.1749317
v 0.03237026 -0.01051771 0.1853429
v 0.0366484 -0.01190775 0.1883657
v 0.02264996 -0.03117496 0.1883657
v 0.02000594 -0.02753577 0.1853429
v 2.42867E-08 -0.03853439 0.1883657
v 2.650741E-08 -0.04210443 0.1941574
v 0.0400437 -0.01301095 0.1941574
v 0.02474839 -0.03406319 0.1941574
v 0.02264997 -0.03117497 0.1999491
v 2.428671E-08 -0.0385344 0.1999491
v 2.145161E-08 -0.0340361 0.2029718
v 0.0366484 -0.01190776 0.1999491
v 0.02000594 -0.02753577 0.2029718
v 1.665836E-08 -0.02643092 0.2029719
v 0.01553572 -0.02138305 0.2029719
v 0.03237026 -0.01051771 0.2029718
v 0.02513731 -0.008167574 0.2029719
v 0.03237025 0.01051775 0.2029718
v 0.03664839 0.0119078 0.1999491
v -1.284764E-10 -8.867522E-05 0.2343666
v 0.03470109 -0.01136372 0.2343666
v 0.02144647 -0.02960716 0.2343666
v 0.03470108 0.01118641 0.2343666
v 2.383566E-08 -0.03657555 0.2343666
v 0.02144643 0.02942985 0.2343666
v -0.02144643 -0.0296072 0.2343666
v -2.372008E-08 0.03639821 0.2343666
v -0.03470108 -0.01136376 0.2343666
v -0.02144647 0.02942982 0.2343666
v -0.03470109 0.01118637 0.2343666
v 0.06618316 -0.02150416 0.00358969
v 0.06618313 0.02150425 0.00358969
v 0.05751689 0.01868841 1.490116E-08
v 0.04090339 0.05629877 0.00358969
v 0.05751692 -0.01868834 1.490116E-08
v 0.04090347 -0.05629871 0.00358969
v 2.135945E-10 1.391959E-16 0
v 0.03554738 0.04892682 1.490116E-08
v 0.03554744 -0.04892678 1.490116E-08
v -3.886512E-08 0.06047685 1.490116E-08
v -4.514503E-08 0.06958908 0.00358969
v -0.04090347 0.05629871 0.00358969
v 3.886512E-08 -0.06047685 1.490116E-08
v 4.514503E-08 -0.06958908 0.00358969
v -0.04090339 -0.05629877 0.00358969
v -0.03554744 0.04892678 1.490116E-08
v -0.05751692 0.01868834 1.490116E-08
v -0.06618316 0.02150416 0.00358969
v -0.05751689 -0.01868841 1.490116E-08
v -0.06618313 -0.02150425 0.00358969
v -0.03554738 -0.04892682 1.490116E-08
vt 0.757548 0.8827668
vt 0.7575479 0.9285421
vt 0.7813838 0.9285421
vt 0.7813839 0.8827668
vt 0.8052197 0.9285421
vt 0.8052197 0.8827668
vt 0.8290555 0.9285421
vt 0.8290555 0.8827668
vt 0.8528913 0.9285421
vt 0.8528914 0.8827668
vt 0.8767272 0.9285421
vt 0.8767272 0.8827668
vt 0.9005631 0.8827668
vt 0.900563 0.9285421
vt 0.9243989 0.8827668
vt 0.9243988 0.9285421
vt 0.9482347 0.8827668
vt 0.9482347 0.9285421
vt 0.9720706 0.8827668
vt 0.9720706 0.9285421
vt 0.9720706 0.9285421
vt 0.9959064 0.9285421
vt 0.9959065 0.8827668
vt 0.9720706 0.8827668
vt 0.7033607 0.6707767
vt 0.6699437 0.6771195
vt 0.7033607 0.6771195
vt 0.7033607 0.6860203
vt 0.6699437 0.6860203
vt 0.6699437 0.6707767
vt 0.7033607 0.6628141
vt 0.6365403 0.6771195
vt 0.6365403 0.6860203
vt 0.6699437 0.6628141
vt 0.7033607 0.6548517
vt 0.6031367 0.6771194
vt 0.6031367 0.6860202
vt 0.5697333 0.6771194
vt 0.5697333 0.6860202
vt 0.6031367 0.6707767
vt 0.6365403 0.6707767
vt 0.6365403 0.6628141
vt 0.6699437 0.6548517
vt 0.5363298 0.6771194
vt 0.5363298 0.6860202
vt 0.5029128 0.6860202
vt 0.5697333 0.6707767
vt 0.6699437 0.6485089
vt 0.7033607 0.6485089
vt 0.6031367 0.6628141
vt 0.6365403 0.6548517
vt 0.5029128 0.6771194
vt 0.4694824 0.6860202
vt 0.6699437 0.6363238
vt 0.7033607 0.6363238
vt 0.6365403 0.6485089
vt 0.6699437 0.6311787
vt 0.7033607 0.6311787
vt 0.6031367 0.6548516
vt 0.6365403 0.6363238
vt 0.6699437 0.6259079
vt 0.7033607 0.6259079
vt 0.6031367 0.6485088
vt 0.5697333 0.6548516
vt 0.6365403 0.6311787
vt 0.6699437 0.5972
vt 0.7033607 0.5972
vt 0.6031367 0.6363238
vt 0.6365403 0.6259079
vt 0.5697333 0.6628141
vt 0.5363298 0.6628141
vt 0.5697333 0.6485088
vt 0.6699437 0.5636042
vt 0.7033607 0.5636042
vt 0.6031367 0.6311787
vt 0.5363298 0.6707767
vt 0.5029128 0.6707767
vt 0.6699437 0.4226787
vt 0.7033607 0.4226787
vt 0.7033607 0.4116159
vt 0.6699437 0.4116159
vt 0.6365403 0.4226787
vt 0.6365403 0.4116159
vt 0.6031367 0.4116159
vt 0.6365403 0.5636042
vt 0.6031367 0.4226787
vt 0.5697333 0.4116159
vt 0.5697333 0.4226787
vt 0.5363298 0.4116159
vt 0.6365403 0.5972
vt 0.6031367 0.5636042
vt 0.6031367 0.6259078
vt 0.6031367 0.5971999
vt 0.5697333 0.5636042
vt 0.5363298 0.4226787
vt 0.5697333 0.5971999
vt 0.5363298 0.5971999
vt 0.5697333 0.6259078
vt 0.5029128 0.4226787
vt 0.5029128 0.4116159
vt 0.5363298 0.5636042
vt 0.5697333 0.6311787
vt 0.4694825 0.4226787
vt 0.4694825 0.4116159
vt 0.4360521 0.4116159
vt 0.5029128 0.5636042
vt 0.4360521 0.4226787
vt 0.4026218 0.4116159
vt 0.4694825 0.5636042
vt 0.4026218 0.4226787
vt 0.3691914 0.4116159
vt 0.3691914 0.4226787
vt 0.4360521 0.5636042
vt 0.4360521 0.5971999
vt 0.4026218 0.5636042
vt 0.3691914 0.5636042
vt 0.3691914 0.5971999
vt 0.4026218 0.5971999
vt 0.3691914 0.6259078
vt 0.4026218 0.6259078
vt 0.3691914 0.6311787
vt 0.4026218 0.6311787
vt 0.3691913 0.6363238
vt 0.4360521 0.6259078
vt 0.4026218 0.6363238
vt 0.3691913 0.6485088
vt 0.4360521 0.6311787
vt 0.4694825 0.6259078
vt 0.4694825 0.6311787
vt 0.4694825 0.5971999
vt 0.5029128 0.5971999
vt 0.5029128 0.6259078
vt 0.5029128 0.6311787
vt 0.5363298 0.6259078
vt 0.5363298 0.6311787
vt 0.5029128 0.6363238
vt 0.5697333 0.6363238
vt 0.5363298 0.6363238
vt 0.5029128 0.6485088
vt 0.4694824 0.6363238
vt 0.5363298 0.6485088
vt 0.5363298 0.6548516
vt 0.5029128 0.6628141
vt 0.5029128 0.6548516
vt 0.4694824 0.6628141
vt 0.4694824 0.6548516
vt 0.4694824 0.6485088
vt 0.4360521 0.6363238
vt 0.4360521 0.6485088
vt 0.4360521 0.6548516
vt 0.4026218 0.6548516
vt 0.4026218 0.6485088
vt 0.3691913 0.6548516
vt 0.3691913 0.6628141
vt 0.4360521 0.6628141
vt 0.4026218 0.6628141
vt 0.4026218 0.6707767
vt 0.3691913 0.6707767
vt 0.3691913 0.6771194
vt 0.4360521 0.6707767
vt 0.4026218 0.6771194
vt 0.3691913 0.6860202
vt 0.4026218 0.6860202
vt 0.4360521 0.6771194
vt 0.4360521 0.6860202
vt 0.4694824 0.6771194
vt 0.4694824 0.6707767
vt 0.5624034 0.9056621
vt 0.5265132 0.9317225
vt 0.5486856 0.9478412
vt 0.5180498 0.9056496
vt 0.5760976 0.9478487
vt 0.5265279 0.8795816
vt 0.598279 0.9317426
vt 0.5487092 0.8634754
vt 0.606757 0.9056745
vt 0.5761213 0.8634831
vt 0.5982936 0.8796018
vt 0.03288442 0.7634735
vt 0.003906307 0.8033585
vt 0.0146268 0.806798
vt 0.003906303 0.8526591
vt 0.03953582 0.7725576
vt 0.07977206 0.7482389
vt 0.07977193 0.8280088
vt 0.01460116 0.8491403
vt 0.07981366 0.7594976
vt 0.03946846 0.883411
vt 0.03288441 0.8925441
vt 0.07977192 0.9077787
vt 0.1200755 0.7726066
vt 0.1266596 0.7634735
vt 0.1556377 0.8033586
vt 0.07973032 0.89652
vt 0.1200082 0.88346
vt 0.1266596 0.8925441
vt 0.1449172 0.8492196
vt 0.1556377 0.8526591
vt 0.1449429 0.8068773
vn 6.697667E-07 -0.9675129 -0.2528213
vn 9.567193E-07 -0.967513 -0.2528212
vn -0.5686891 -0.7827349 -0.2528215
vn -0.5686895 -0.7827346 -0.2528215
vn -0.9201592 -0.2989785 -0.2528218
vn -0.9201593 -0.2989783 -0.2528217
vn -0.9201596 0.2989773 -0.2528221
vn -0.9201596 0.2989773 -0.2528219
vn -0.5686904 0.7827338 -0.2528222
vn -0.5686905 0.7827338 -0.2528221
vn -5.304581E-07 0.9675127 -0.2528223
vn -4.604648E-07 0.9675128 -0.2528223
vn 0.5686893 0.7827346 -0.2528222
vn 0.5686892 0.7827346 -0.2528222
vn 0.9201592 0.2989786 -0.252822
vn 0.9201592 0.2989785 -0.2528221
vn 0.9201598 -0.2989769 -0.2528216
vn 0.9201596 -0.2989773 -0.2528217
vn 0.5686907 -0.7827339 -0.2528214
vn 0.5686907 -0.7827339 -0.2528213
vn 0.5686907 -0.7827339 -0.2528213
vn 9.567193E-07 -0.967513 -0.2528212
vn 6.697667E-07 -0.9675129 -0.2528213
vn 0.5686907 -0.7827339 -0.2528214
vn 5.095224E-07 -0.7398657 0.6727545
vn -0.2015673 -0.2774354 0.9393616
vn -8.699653E-07 -0.3429289 0.9393614
vn -4.221672E-07 -1.959344E-06 1
vn -3.861117E-07 -1.585144E-06 1
vn -0.4348809 -0.5985644 0.672755
vn 8.255828E-07 -1 -1.031979E-07
vn -0.3261438 -0.1059708 0.9393617
vn -1.970604E-06 -6.054717E-07 1
vn -0.587784 -0.809018 1.019079E-06
vn 3.319616E-07 -0.7398652 -0.6727551
vn -0.3261465 0.1059704 0.9393607
vn -1.77037E-06 6.054713E-07 1
vn -0.2015674 0.2774352 0.9393617
vn -1.548438E-06 1.585146E-06 1
vn -0.703655 0.2286298 0.672754
vn -0.7036543 -0.2286314 0.6727542
vn -0.9510565 -0.3090172 3.22493E-07
vn -0.4348812 -0.5985639 -0.6727552
vn 4.477015E-07 0.3429289 0.9393614
vn 0 1.959351E-06 1
vn 5.489656E-06 1.585149E-06 1
vn -0.4348803 0.5985643 0.6727555
vn -0.5044016 -0.6942508 -0.5134149
vn -0.00100017 -0.8606054 -0.5092713
vn -0.9510567 0.3090164 8.900815E-07
vn -0.7036538 -0.2286313 -0.6727549
vn 0.2015684 0.2774354 0.9393614
vn -5.335384E-07 6.054742E-07 1
vn -0.5804234 -0.7957506 0.1728869
vn -0.003185152 -0.9831825 0.1825974
vn -0.8161398 -0.265181 -0.513415
vn -0.4726377 -0.6459566 0.5994611
vn -0.00294708 -0.796793 0.6042451
vn -0.7036538 0.2286309 -0.6727551
vn -0.936864 -0.3044091 0.1721071
vn -0.2839708 -0.3881434 0.8767583
vn -0.001018141 -0.480478 0.8770062
vn -0.816141 0.2651796 -0.5134138
vn -0.4348835 0.598563 -0.6727546
vn -0.7611076 -0.2473077 0.5996284
vn -0.4287586 -0.5898059 0.6843208
vn 4.897861E-07 -0.729655 0.6838155
vn -0.9368635 0.3044046 0.172118
vn -0.4570554 -0.1485098 0.8769522
vn -0.5877852 0.809017 9.932796E-07
vn -8.900813E-07 1 0
vn -0.5044038 0.69425 -0.5134137
vn -0.5763351 -0.7932584 0.1964152
vn 6.551702E-07 -0.9805207 0.1964152
vn -0.7610992 0.2472955 0.5996441
vn -5.558425E-07 0.7398657 0.6727546
vn 0.4348815 0.5985641 0.6727548
vn -0.5763425 -0.7932683 -0.1963533
vn 6.921383E-07 -0.9805334 -0.1963526
vn 5.67635E-07 -0.7299179 -0.6835348
vn -0.4290344 -0.5905158 -0.6835354
vn -0.9325424 -0.3030019 -0.1963525
vn -0.694193 -0.2255576 -0.6835347
vn -0.6941934 0.2255566 -0.6835348
vn -0.9325305 -0.3029982 0.196415
vn -0.9325429 0.303001 -0.1963525
vn -0.4290354 0.5905153 -0.6835352
vn -0.5763434 0.7932678 -0.196353
vn -5.732001E-07 0.7299179 -0.6835348
vn -0.693344 -0.2252816 0.6844869
vn -0.9325309 0.3029971 0.1964151
vn -0.4570505 0.1485045 0.8769557
vn -0.6933441 0.2252807 0.6844872
vn -0.5763363 0.7932577 0.1964151
vn -6.921383E-07 0.9805334 -0.1963526
vn -0.4285106 0.5897933 0.684487
vn -0.0001946367 0.729181 0.6843209
vn -0.2824749 0.3887969 0.8769521
vn 0.5763425 0.7932683 -0.1963533
vn 0.4290344 0.5905158 -0.6835354
vn -6.551702E-07 0.9805207 0.1964152
vn -0.4703871 0.6474429 0.5996279
vn 0.9325424 0.3030019 -0.1963525
vn 0.694193 0.2255576 -0.6835347
vn 0.6941934 -0.2255566 -0.6835348
vn 0.5763351 0.7932584 0.1964152
vn 0.9325429 -0.303001 -0.1963525
vn 0.4290354 -0.5905153 -0.6835352
vn 0.9325305 0.3029982 0.196415
vn 0.5763434 -0.7932678 -0.196353
vn 5.67635E-07 -0.7299179 -0.6835348
vn 6.921383E-07 -0.9805334 -0.1963526
vn 0.9325309 -0.3029971 0.1964151
vn 0.6939434 -0.2254754 0.6838153
vn 0.5763363 -0.7932577 0.1964151
vn 6.551702E-07 -0.9805207 0.1964152
vn 4.897861E-07 -0.729655 0.6838155
vn 0.428881 -0.590303 0.6838153
vn -0.001018141 -0.480478 0.8770062
vn 0.2828066 -0.3892464 0.8766456
vn -0.00294708 -0.796793 0.6042451
vn 0.4685217 -0.6448568 0.6038602
vn -0.003185152 -0.9831825 0.1825974
vn 0.4575956 -0.1486814 0.8766414
vn 0.5778833 -0.7953853 0.1827927
vn -0.00100017 -0.8606054 -0.5092713
vn 0.75809 -0.246318 0.6038436
vn 0.4575873 0.1486777 0.8766463
vn 0.7580777 0.2463114 0.6038617
vn 0.6939433 0.2254763 0.6838152
vn 0.4288801 0.5903036 0.6838154
vn 0.2815943 0.3893134 0.8770061
vn 0.4659593 0.6463514 0.6042449
vn -0.001593457 0.4809291 0.876758
vn -0.002689948 0.8003998 0.5994608
vn 0.5753227 0.797284 0.1825974
vn -0.5790129 0.7969461 0.172107
vn -0.001843099 0.98494 0.1728869
vn 0.5050418 0.6968327 -0.5092712
vn 0.9350324 0.303811 0.1827927
vn -2.456794E-07 0.858141 -0.5134142
vn -2.290277E-07 0.7398654 -0.6727549
vn 0.5877848 0.8090174 4.256913E-07
vn 0.4348817 0.598564 -0.672755
vn 0.9510561 0.3090181 -1.160975E-07
vn 0.703653 0.2286318 -0.6727554
vn 0.8189289 0.2660872 -0.5084811
vn 0.9350343 -0.3038108 0.1827837
vn 0.8189299 -0.2660857 -0.5084801
vn 0.7036531 -0.2286309 -0.6727557
vn 0.4348829 -0.5985632 -0.6727548
vn 0.5061277 -0.6966225 -0.50848
vn 3.319616E-07 -0.7398652 -0.6727551
vn 8.255828E-07 -1 -1.031979E-07
vn 0.9510567 -0.3090163 -5.80488E-07
vn 0.5877856 -0.8090168 1.289974E-07
vn 0.434881 -0.5985638 0.6727555
vn 5.095224E-07 -0.7398657 0.6727545
vn -8.699653E-07 -0.3429289 0.9393614
vn 0.7036554 -0.2286299 0.6727536
vn 0.2015672 -0.2774352 0.9393617
vn -4.221672E-07 -1.959344E-06 1
vn 1.371413E-06 -1.585141E-06 1
vn 0.3261461 -0.1059704 0.939361
vn 1.355378E-06 -6.054687E-07 1
vn 0.3261424 0.1059709 0.9393622
vn 0.7036537 0.2286319 0.6727547
vn 0 0 1
vn 0 0 1
vn -1.338938E-06 0 1
vn 5.950836E-07 0 1
vn 0 0 1
vn 4.463127E-07 0 1
vn 1.338938E-06 0 1
vn 0 0 1
vn 0 0 1
vn -4.463127E-07 0 1
vn -5.950837E-07 0 1
vn 0.6941934 -0.2255566 -0.6835348
vn 0.694193 0.2255576 -0.6835347
vn 0.2111231 0.0685983 -0.9750494
vn 0.4290344 0.5905158 -0.6835354
vn 0.2111233 -0.06859805 -0.9750494
vn 0.4290354 -0.5905153 -0.6835352
vn 0 0 -1
vn 0.1304814 0.1795923 -0.9750494
vn 0.1304816 -0.1795924 -0.9750493
vn -1.915424E-07 0.2219884 -0.9750493
vn -5.732001E-07 0.7299179 -0.6835348
vn -0.4290354 0.5905153 -0.6835352
vn 1.927624E-07 -0.2219884 -0.9750493
vn 5.67635E-07 -0.7299179 -0.6835348
vn -0.4290344 -0.5905158 -0.6835354
vn -0.1304816 0.1795924 -0.9750493
vn -0.2111233 0.06859805 -0.9750494
vn -0.6941934 0.2255566 -0.6835348
vn -0.2111231 -0.0685983 -0.9750494
vn -0.694193 -0.2255576 -0.6835347
vn -0.1304814 -0.1795923 -0.9750494
usemtl M_Jar
f 1/1/1 3/3/3 2/2/2 
f 1/1/1 4/4/4 3/3/3 
f 4/4/4 5/5/5 3/3/3 
f 4/4/4 6/6/6 5/5/5 
f 6/6/6 7/7/7 5/5/5 
f 6/6/6 8/8/8 7/7/7 
f 8/8/8 9/9/9 7/7/7 
f 8/8/8 10/10/10 9/9/9 
f 10/10/10 11/11/11 9/9/9 
f 10/10/10 12/12/12 11/11/11 
f 11/11/11 12/12/12 13/13/13 
f 11/11/11 13/13/13 14/14/14 
f 14/14/14 13/13/13 15/15/15 
f 14/14/14 15/15/15 16/16/16 
f 16/16/16 15/15/15 17/17/17 
f 16/16/16 17/17/17 18/18/18 
f 18/18/18 17/17/17 19/19/19 
f 18/18/18 19/19/19 20/20/20 
f 21/21/21 23/23/23 22/22/22 
f 21/21/21 24/24/24 23/23/23 
f 25/25/25 27/27/27 26/26/26 
f 26/26/26 27/27/27 28/28/28 
f 26/26/26 28/28/28 29/29/29 
f 25/25/25 26/26/26 30/30/30 
f 30/30/30 31/31/31 25/25/25 
f 32/32/32 26/26/26 29/29/29 
f 30/30/30 26/26/26 32/32/32 
f 32/32/32 29/29/29 33/33/33 
f 30/30/30 34/34/34 31/31/31 
f 34/34/34 35/35/35 31/31/31 
f 36/36/36 32/32/32 33/33/33 
f 36/36/36 33/33/33 37/37/37 
f 38/38/38 36/36/36 37/37/37 
f 38/38/38 37/37/37 39/39/39 
f 40/40/40 32/32/32 36/36/36 
f 40/40/40 36/36/36 38/38/38 
f 30/30/30 32/32/32 41/41/41 
f 40/40/40 41/41/41 32/32/32 
f 30/30/30 41/41/41 42/42/42 
f 30/30/30 42/42/42 34/34/34 
f 40/40/40 42/42/42 41/41/41 
f 34/34/34 43/43/43 35/35/35 
f 42/42/42 43/43/43 34/34/34 
f 44/44/44 38/38/38 39/39/39 
f 44/44/44 39/39/39 45/45/45 
f 44/44/44 45/45/45 46/46/46 
f 40/40/40 38/38/38 47/47/47 
f 47/47/47 38/38/38 44/44/44 
f 48/48/48 35/35/35 43/43/43 
f 48/48/48 49/49/49 35/35/35 
f 40/40/40 50/50/50 42/42/42 
f 47/47/47 50/50/50 40/40/40 
f 42/42/42 51/51/51 43/43/43 
f 48/48/48 43/43/43 51/51/51 
f 50/50/50 51/51/51 42/42/42 
f 44/44/44 46/46/46 52/52/52 
f 52/52/52 46/46/46 53/53/53 
f 54/54/54 49/49/49 48/48/48 
f 54/54/54 55/55/55 49/49/49 
f 48/48/48 51/51/51 56/56/56 
f 54/54/54 48/48/48 56/56/56 
f 57/57/57 55/55/55 54/54/54 
f 57/57/57 58/58/58 55/55/55 
f 50/50/50 59/59/59 51/51/51 
f 56/56/56 51/51/51 59/59/59 
f 54/54/54 56/56/56 60/60/60 
f 57/57/57 54/54/54 60/60/60 
f 61/61/61 58/58/58 57/57/57 
f 61/61/61 62/62/62 58/58/58 
f 56/56/56 59/59/59 63/63/63 
f 60/60/60 56/56/56 63/63/63 
f 50/50/50 64/64/64 59/59/59 
f 63/63/63 59/59/59 64/64/64 
f 57/57/57 60/60/60 65/65/65 
f 61/61/61 57/57/57 65/65/65 
f 66/66/66 62/62/62 61/61/61 
f 66/66/66 67/67/67 62/62/62 
f 60/60/60 63/63/63 68/68/68 
f 65/65/65 60/60/60 68/68/68 
f 61/61/61 65/65/65 69/69/69 
f 66/66/66 61/61/61 69/69/69 
f 50/50/50 70/70/70 64/64/64 
f 47/47/47 70/70/70 50/50/50 
f 47/47/47 71/71/71 70/70/70 
f 71/71/71 64/64/64 70/70/70 
f 63/63/63 64/64/64 72/72/72 
f 68/68/68 63/63/63 72/72/72 
f 73/73/73 67/67/67 66/66/66 
f 73/73/73 74/74/74 67/67/67 
f 65/65/65 68/68/68 75/75/75 
f 69/69/69 65/65/65 75/75/75 
f 47/47/47 76/76/76 71/71/71 
f 47/47/47 44/44/44 76/76/76 
f 76/76/76 44/44/44 52/52/52 
f 76/76/76 52/52/52 77/77/77 
f 77/77/77 71/71/71 76/76/76 
f 74/74/74 73/73/73 78/78/78 
f 74/74/74 78/78/78 79/79/79 
f 78/78/78 80/80/80 79/79/79 
f 78/78/78 81/81/81 80/80/80 
f 82/82/82 81/81/81 78/78/78 
f 73/73/73 82/82/82 78/78/78 
f 82/82/82 83/83/83 81/81/81 
f 82/82/82 84/84/84 83/83/83 
f 73/73/73 85/85/85 82/82/82 
f 85/85/85 73/73/73 66/66/66 
f 82/82/82 86/86/86 84/84/84 
f 85/85/85 86/86/86 82/82/82 
f 86/86/86 87/87/87 84/84/84 
f 86/86/86 88/88/88 87/87/87 
f 88/88/88 89/89/89 87/87/87 
f 85/85/85 66/66/66 90/90/90 
f 66/66/66 69/69/69 90/90/90 
f 85/85/85 91/91/91 86/86/86 
f 91/91/91 88/88/88 86/86/86 
f 90/90/90 69/69/69 92/92/92 
f 69/69/69 75/75/75 92/92/92 
f 85/85/85 90/90/90 93/93/93 
f 85/85/85 93/93/93 91/91/91 
f 90/90/90 92/92/92 93/93/93 
f 91/91/91 94/94/94 88/88/88 
f 94/94/94 91/91/91 93/93/93 
f 88/88/88 95/95/95 89/89/89 
f 94/94/94 95/95/95 88/88/88 
f 96/96/96 93/93/93 92/92/92 
f 94/94/94 93/93/93 96/96/96 
f 94/94/94 96/96/96 97/97/97 
f 96/96/96 92/92/92 98/98/98 
f 98/98/98 92/92/92 75/75/75 
f 97/97/97 96/96/96 98/98/98 
f 99/99/99 89/89/89 95/95/95 
f 99/99/99 100/100/100 89/89/89 
f 94/94/94 101/101/101 95/95/95 
f 94/94/94 97/97/97 101/101/101 
f 101/101/101 99/99/99 95/95/95 
f 98/98/98 75/75/75 102/102/102 
f 102/102/102 75/75/75 68/68/68 
f 103/103/103 100/100/100 99/99/99 
f 103/103/103 104/104/104 100/100/100 
f 103/103/103 105/105/105 104/104/104 
f 101/101/101 106/106/106 99/99/99 
f 106/106/106 101/101/101 97/97/97 
f 106/106/106 103/103/103 99/99/99 
f 103/103/103 107/107/107 105/105/105 
f 107/107/107 108/108/108 105/105/105 
f 106/106/106 109/109/109 103/103/103 
f 109/109/109 107/107/107 103/103/103 
f 107/107/107 110/110/110 108/108/108 
f 110/110/110 111/111/111 108/108/108 
f 110/110/110 112/112/112 111/111/111 
f 113/113/113 110/110/110 107/107/107 
f 109/109/109 113/113/113 107/107/107 
f 109/109/109 114/114/114 113/113/113 
f 115/115/115 112/112/112 110/110/110 
f 113/113/113 115/115/115 110/110/110 
f 115/115/115 113/113/113 114/114/114 
f 115/115/115 116/116/116 112/112/112 
f 115/115/115 117/117/117 116/116/116 
f 115/115/115 118/118/118 117/117/117 
f 115/115/115 114/114/114 118/118/118 
f 118/118/118 119/119/119 117/117/117 
f 118/118/118 120/120/120 119/119/119 
f 114/114/114 120/120/120 118/118/118 
f 121/121/121 119/119/119 120/120/120 
f 121/121/121 120/120/120 122/122/122 
f 123/123/123 121/121/121 122/122/122 
f 114/114/114 124/124/124 120/120/120 
f 122/122/122 120/120/120 124/124/124 
f 123/123/123 122/122/122 125/125/125 
f 125/125/125 126/126/126 123/123/123 
f 122/122/122 124/124/124 127/127/127 
f 125/125/125 122/122/122 127/127/127 
f 114/114/114 128/128/128 124/124/124 
f 129/129/129 127/127/127 124/124/124 
f 129/129/129 124/124/124 128/128/128 
f 114/114/114 130/130/130 128/128/128 
f 109/109/109 130/130/130 114/114/114 
f 109/109/109 131/131/131 130/130/130 
f 109/109/109 106/106/106 131/131/131 
f 106/106/106 97/97/97 131/131/131 
f 130/130/130 131/131/131 132/132/132 
f 130/130/130 132/132/132 128/128/128 
f 97/97/97 132/132/132 131/131/131 
f 133/133/133 128/128/128 132/132/132 
f 133/133/133 129/129/129 128/128/128 
f 97/97/97 134/134/134 132/132/132 
f 134/134/134 133/133/133 132/132/132 
f 97/97/97 98/98/98 134/134/134 
f 134/134/134 98/98/98 102/102/102 
f 134/134/134 135/135/135 133/133/133 
f 134/134/134 102/102/102 135/135/135 
f 136/136/136 129/129/129 133/133/133 
f 135/135/135 136/136/136 133/133/133 
f 135/135/135 102/102/102 137/137/137 
f 102/102/102 68/68/68 137/137/137 
f 68/68/68 72/72/72 137/137/137 
f 135/135/135 137/137/137 138/138/138 
f 135/135/135 138/138/138 136/136/136 
f 138/138/138 139/139/139 136/136/136 
f 136/136/136 140/140/140 129/129/129 
f 140/140/140 136/136/136 139/139/139 
f 140/140/140 127/127/127 129/129/129 
f 137/137/137 141/141/141 138/138/138 
f 137/137/137 72/72/72 141/141/141 
f 138/138/138 141/141/141 139/139/139 
f 72/72/72 142/142/142 141/141/141 
f 139/139/139 141/141/141 142/142/142 
f 72/72/72 64/64/64 142/142/142 
f 71/71/71 142/142/142 64/64/64 
f 143/143/143 142/142/142 71/71/71 
f 77/77/77 143/143/143 71/71/71 
f 143/143/143 144/144/144 142/142/142 
f 139/139/139 142/142/142 144/144/144 
f 145/145/145 144/144/144 143/143/143 
f 77/77/77 145/145/145 143/143/143 
f 139/139/139 144/144/144 146/146/146 
f 145/145/145 146/146/146 144/144/144 
f 140/140/140 139/139/139 147/147/147 
f 139/139/139 146/146/146 147/147/147 
f 140/140/140 148/148/148 127/127/127 
f 125/125/125 127/127/127 148/148/148 
f 140/140/140 149/149/149 148/148/148 
f 140/140/140 147/147/147 149/149/149 
f 125/125/125 148/148/148 149/149/149 
f 147/147/147 146/146/146 150/150/150 
f 147/147/147 150/150/150 149/149/149 
f 149/149/149 150/150/150 151/151/151 
f 125/125/125 149/149/149 152/152/152 
f 149/149/149 151/151/151 152/152/152 
f 125/125/125 152/152/152 126/126/126 
f 126/126/126 152/152/152 151/151/151 
f 126/126/126 151/151/151 153/153/153 
f 154/154/154 153/153/153 151/151/151 
f 155/155/155 150/150/150 146/146/146 
f 155/155/155 151/151/151 150/150/150 
f 155/155/155 146/146/146 145/145/145 
f 154/154/154 151/151/151 156/156/156 
f 155/155/155 156/156/156 151/151/151 
f 157/157/157 154/154/154 156/156/156 
f 157/157/157 156/156/156 155/155/155 
f 157/157/157 158/158/158 154/154/154 
f 157/157/157 159/159/159 158/158/158 
f 160/160/160 155/155/155 145/145/145 
f 157/157/157 155/155/155 160/160/160 
f 157/157/157 161/161/161 159/159/159 
f 160/160/160 161/161/161 157/157/157 
f 161/161/161 162/162/162 159/159/159 
f 161/161/161 163/163/163 162/162/162 
f 164/164/164 163/163/163 161/161/161 
f 160/160/160 164/164/164 161/161/161 
f 164/164/164 165/165/165 163/163/163 
f 166/166/166 165/165/165 164/164/164 
f 160/160/160 166/166/166 164/164/164 
f 166/166/166 53/53/53 165/165/165 
f 52/52/52 53/53/53 166/166/166 
f 77/77/77 52/52/52 166/166/166 
f 160/160/160 145/145/145 167/167/167 
f 77/77/77 167/167/167 145/145/145 
f 77/77/77 166/166/166 167/167/167 
f 160/160/160 167/167/167 166/166/166 
f 168/168/168 170/170/170 169/169/169 
f 168/168/168 169/169/169 171/171/171 
f 168/168/168 172/172/172 170/170/170 
f 168/168/168 171/171/171 173/173/173 
f 168/168/168 174/174/174 172/172/172 
f 168/168/168 173/173/173 175/175/175 
f 168/168/168 176/176/176 174/174/174 
f 168/168/168 175/175/175 177/177/177 
f 168/168/168 178/178/178 176/176/176 
f 168/168/168 177/177/177 178/178/178 
f 179/179/179 181/181/181 180/180/180 
f 182/182/182 180/180/180 181/181/181 
f 179/179/179 183/183/183 181/181/181 
f 184/184/184 183/183/183 179/179/179 
f 185/185/185 181/181/181 183/183/183 
f 185/185/185 186/186/186 181/181/181 
f 182/182/182 181/181/181 186/186/186 
f 185/185/185 183/183/183 187/187/187 
f 184/184/184 187/187/187 183/183/183 
f 182/182/182 186/186/186 188/188/188 
f 185/185/185 188/188/188 186/186/186 
f 182/182/182 188/188/188 189/189/189 
f 190/190/190 189/189/189 188/188/188 
f 184/184/184 191/191/191 187/187/187 
f 185/185/185 187/187/187 191/191/191 
f 184/184/184 192/192/192 191/191/191 
f 193/193/193 191/191/191 192/192/192 
f 190/190/190 188/188/188 194/194/194 
f 185/185/185 194/194/194 188/188/188 
f 190/190/190 194/194/194 195/195/195 
f 185/185/185 195/195/195 194/194/194 
f 190/190/190 195/195/195 196/196/196 
f 196/196/196 195/195/195 197/197/197 
f 185/185/185 197/197/197 195/195/195 
f 196/196/196 197/197/197 198/198/198 
f 193/193/193 198/198/198 197/197/197 
f 185/185/185 191/191/191 199/199/199 
f 193/193/193 199/199/199 191/191/191 
f 193/193/193 197/197/197 199/199/199 
f 185/185/185 199/199/199 197/197/197 
