# exported by StudySceneExporter from mesh 'bowl02'
mtllib materials.mtl
v 0.04744088 -0.1924763 0.106321
v 1.40441E-08 -0.1890133 0.07410312
v 1.486081E-08 -0.1982367 0.106321
v -0.04744114 -0.1924763 0.106321
v -0.04523383 -0.1835209 0.07410312
v -0.09212519 -0.1755298 0.106321
v -0.08783886 -0.1673629 0.07410312
v -0.1314553 -0.1483823 0.106321
v -0.125339 -0.1414785 0.07410312
v -0.1631456 -0.1126112 0.106321
v -0.1555549 -0.1073717 0.07410312
v -0.1853546 -0.07029565 0.106321
v -0.1767305 -0.06702499 0.07410312
v -0.1967913 -0.02389475 0.106321
v -0.1876352 -0.02278299 0.07410312
v -0.1967913 0.02389485 0.106321
v -0.1876352 0.02278309 0.07410312
v -0.1853546 0.07029577 0.106321
v -0.1767305 0.0670251 0.07410313
v -0.1631456 0.1126113 0.106321
v -0.1555549 0.1073718 0.07410312
v -0.1314553 0.1483824 0.106321
v -0.125339 0.1414786 0.07410312
v -0.09212516 0.17553 0.106321
v -0.08783883 0.1673631 0.07410313
v -0.0474411 0.1924764 0.106321
v -0.04523379 0.183521 0.07410313
v 7.945447E-08 0.1982368 0.106321
v 7.563239E-08 0.1890134 0.07410313
v 0.04744125 0.1924764 0.106321
v 0.04523395 0.183521 0.07410313
v 0.0921253 0.17553 0.106321
v 0.08783897 0.167363 0.07410313
v 0.1314554 0.1483823 0.106321
v 0.1253391 0.1414785 0.07410313
v 0.1631457 0.1126113 0.106321
v 0.155555 0.1073717 0.07410312
v 0.1853547 0.07029562 0.106321
v 0.1767306 0.06702495 0.07410312
v 0.1967914 0.02389467 0.106321
v 0.1876352 0.02278292 0.07410312
v 0.1967913 -0.02389494 0.106321
v 0.1876352 -0.02278317 0.07410312
v 0.1853545 -0.07029586 0.106321
v 0.1767304 -0.0670252 0.07410312
v 0.1631455 -0.1126115 0.106321
v 0.1555548 -0.107372 0.07410312
v 0.1314551 -0.1483824 0.106321
v 0.1253389 -0.1414786 0.07410312
v 0.09212497 -0.17553 0.106321
v 0.08783865 -0.1673631 0.07410312
v 0.04523359 -0.1835209 0.07410312
v 0.1737227 0.02109364 0.04230173
v 0.1737227 -0.02109389 0.04230173
v 0.1636265 -0.06205551 0.04230173
v 0.1440209 -0.09941068 0.04230172
v 0.1160454 -0.1309885 0.04230172
v 0.08132571 -0.1549536 0.04230172
v 0.04187967 -0.1699135 0.04230172
v 1.310103E-08 -0.1749986 0.04230172
v 0.03640925 -0.1477191 0.01816431
v 0.07070277 -0.1347133 0.01816431
v 0.1008873 -0.1138785 0.01816432
v 0.1252086 -0.08642544 0.01816432
v -0.0418799 -0.1699134 0.04230172
v 1.115784E-08 -0.1521399 0.01816432
v 0.1422532 -0.05394967 0.01816432
v -0.0813259 -0.1549536 0.04230172
v 0.1510306 -0.01833856 0.01816432
v -0.1160455 -0.1309883 0.04230172
v -0.144021 -0.0994105 0.04230172
v -0.1636265 -0.06205534 0.04230173
v -0.1737227 -0.02109371 0.04230173
v -0.1737227 0.0210938 0.04230173
v -0.1636265 0.06205539 0.04230173
v -0.144021 0.09941059 0.04230173
v -0.1160455 0.1309884 0.04230173
v -0.08132588 0.1549537 0.04230174
v -0.04187986 0.1699136 0.04230174
v 7.012301E-08 0.1749987 0.04230174
v 0.04188 0.1699135 0.04230174
v 0.08132602 0.1549536 0.04230174
v 0.1160456 0.1309883 0.04230174
v 0.1440211 0.09941051 0.04230173
v 0.1636266 0.0620553 0.04230173
v 0.1510306 0.01833834 0.01816432
v 0.1422533 0.05394949 0.01816433
v 0.1252088 0.08642527 0.01816433
v 0.1008875 0.1138783 0.01816433
v 0.07070302 0.1347132 0.01816433
v 0.03640953 0.147719 0.01816433
v 6.073127E-08 0.1521399 0.01816433
v -0.03640942 0.1477191 0.01816433
v -0.07070291 0.1347133 0.01816433
v -0.1008874 0.1138784 0.01816433
v -0.1252087 0.08642534 0.01816433
v -0.1422533 0.0539496 0.01816433
v -0.1510306 0.01833849 0.01816432
v -0.1510306 -0.01833841 0.01816433
v -0.1422533 -0.05394952 0.01816432
v -0.1252087 -0.08642527 0.01816432
v -0.1008874 -0.1138783 0.01816432
v -0.07070293 -0.1347132 0.01816433
v -0.03640945 -0.147719 0.01816432
v -0.1107038 0.04198444 9.536743E-09
v -0.1175345 0.01427131 9.536743E-09
v -0.1175345 -0.01427125 9.536743E-09
v -0.1107038 -0.04198439 4.768371E-09
v -0.09743943 -0.06725757 4.768371E-09
v -0.07851222 -0.08862196 9.536743E-09
v -0.05502217 -0.104836 9.536743E-09
v -0.02833443 -0.1149573 9.536743E-09
v 8.540368E-09 -0.1183977 0
v 0.02833427 -0.1149573 0
v 0.05502204 -0.1048361 0
v 0.07851213 -0.08862209 0
v 0.09743936 -0.06725767 9.536743E-09
v 0.1107038 -0.04198452 4.768371E-09
v 0.1175345 -0.01427135 9.536743E-09
v 0.1175345 0.0142712 9.536743E-09
v 0.1107039 0.04198437 9.536743E-09
v 0.09743948 0.06725755 1.430511E-08
v -0.09743943 0.06725764 1.430511E-08
v 0.0785123 0.08862197 1.430511E-08
v -0.07851221 0.08862206 1.430511E-08
v 0.05502224 0.104836 1.430511E-08
v -0.05502215 0.1048361 1.430511E-08
v 0.02833449 0.1149573 1.430511E-08
v -0.0283344 0.1149574 1.430511E-08
v 4.711904E-08 0.1183978 1.430511E-08
v -0.04510551 0.1830005 0.106321
v -0.0412306 0.1672794 0.06186059
v -0.08006509 0.1525514 0.06186059
v -0.08758971 0.1668884 0.106321
v 7.59749E-08 0.1884773 0.106321
v -0.1142465 0.1289577 0.06186059
v -0.1249835 0.1410773 0.106321
v 7.239592E-08 0.1722857 0.06186059
v 0.04510565 0.1830005 0.106321
v -0.1417883 0.09786943 0.06186059
v -0.1551137 0.1070673 0.106321
v 0.04123075 0.1672794 0.06186059
v 0.08758986 0.1668884 0.106321
v -0.1610899 0.06109337 0.06186059
v -0.1762293 0.066835 0.106321
v 0.08006523 0.1525514 0.06186059
v 0.1249836 0.1410773 0.106321
v -0.1710295 0.02076679 0.06186059
v -0.187103 0.02271847 0.106321
v 0.1142466 0.1289576 0.06186059
v 0.1551138 0.1070672 0.106321
v -0.1710295 -0.0207667 0.06186059
v -0.187103 -0.02271838 0.106321
v 0.1417884 0.09786934 0.06186059
v 0.1762294 0.06683489 0.106321
v -0.1610899 -0.06109329 0.06186058
v -0.1762293 -0.06683492 0.106321
v 0.1610899 0.06109325 0.06186059
v 0.1871031 0.0227183 0.106321
v -0.1417883 -0.09786934 0.06186059
v -0.1551137 -0.1070672 0.106321
v 0.1710295 0.02076663 0.06186059
v 0.187103 -0.02271857 0.106321
v -0.1142465 -0.1289576 0.06186058
v -0.1249835 -0.1410772 0.106321
v 0.1710294 -0.02076687 0.06186059
v 0.1762292 -0.06683511 0.106321
v -0.08006511 -0.1525513 0.06186058
v -0.08758974 -0.1668883 0.106321
v 0.1610898 -0.06109345 0.06186058
v 0.1551136 -0.1070674 0.106321
v -0.04123064 -0.1672793 0.06186058
v -0.04510554 -0.1830004 0.106321
v 0.1417882 -0.09786953 0.06186059
v 0.1249834 -0.1410774 0.106321
v 1.625807E-08 -0.1722856 0.06186059
v 1.456149E-08 -0.1884772 0.106321
v 0.1142464 -0.1289577 0.06186058
v 0.08758952 -0.1668884 0.106321
v 0.04123043 -0.1672793 0.06186058
v 0.04510531 -0.1830004 0.106321
v 0.08006494 -0.1525514 0.06186058
v -0.03246415 -0.1317122 0.02569907
v 1.332377E-08 -0.1356541 0.02569906
v 0.03246397 -0.1317123 0.02569907
v 0.06304146 -0.1201158 0.02569907
v -0.0630416 -0.1201157 0.02569907
v 0.0899552 -0.1015387 0.02569907
v -0.08995531 -0.1015385 0.02569907
v 0.1116411 -0.07706042 0.02569907
v -0.1116411 -0.07706027 0.02569908
v 0.1268387 -0.04810371 0.02569907
v -0.1268388 -0.04810359 0.02569907
v 0.134665 -0.01635141 0.02569907
v -0.134665 -0.01635125 0.02569907
v 0.1346651 0.01635122 0.02569907
v -0.134665 0.01635134 0.02569907
v 0.1268388 0.04810356 0.02569908
v -0.1268388 0.04810364 0.02569908
v 0.1116412 0.07706027 0.02569908
v -0.1116412 0.07706036 0.02569908
v 0.08995538 0.1015386 0.02569908
v -0.08995531 0.1015386 0.02569908
v 0.0630417 0.1201158 0.02569908
v -0.06304158 0.1201158 0.02569908
v 0.03246422 0.1317123 0.02569908
v -0.03246411 0.1317123 0.02569908
v 5.752566E-08 0.1356542 0.02569908
v 0.1631455 -0.1126115 0.106321
v 0.1551136 -0.1070674 0.106321
v 0.1762292 -0.06683511 0.106321
v 0.1853545 -0.07029586 0.106321
v 0.1314551 -0.1483824 0.106321
v 0.187103 -0.02271857 0.106321
v 0.1249834 -0.1410774 0.106321
v 0.1967913 -0.02389494 0.106321
v 0.09212497 -0.17553 0.106321
v 0.1871031 0.0227183 0.106321
v 0.08758952 -0.1668884 0.106321
v 0.1967914 0.02389467 0.106321
v 0.04744088 -0.1924763 0.106321
v 0.1762294 0.06683489 0.106321
v 0.04510531 -0.1830004 0.106321
v 0.1853547 0.07029562 0.106321
v 1.486081E-08 -0.1982367 0.106321
v 0.1551138 0.1070672 0.106321
v 1.456149E-08 -0.1884772 0.106321
v 0.1631457 0.1126113 0.106321
v -0.04744114 -0.1924763 0.106321
v 0.1249836 0.1410773 0.106321
v -0.04510554 -0.1830004 0.106321
v 0.1314554 0.1483823 0.106321
v -0.09212519 -0.1755298 0.106321
v 0.08758986 0.1668884 0.106321
v -0.08758974 -0.1668883 0.106321
v 0.0921253 0.17553 0.106321
v -0.1314553 -0.1483823 0.106321
v 0.04510565 0.1830005 0.106321
v -0.1249835 -0.1410772 0.106321
v 0.04744125 0.1924764 0.106321
v -0.1631456 -0.1126112 0.106321
v 7.59749E-08 0.1884773 0.106321
v -0.1551137 -0.1070672 0.106321
v 7.945447E-08 0.1982368 0.106321
v -0.1853546 -0.07029565 0.106321
v -0.04510551 0.1830005 0.106321
v -0.1762293 -0.06683492 0.106321
v -0.0474411 0.1924764 0.106321
v -0.1967913 -0.02389475 0.106321
v -0.08758971 0.1668884 0.106321
v -0.187103 -0.02271838 0.106321
v -0.09212516 0.17553 0.106321
v -0.1967913 0.02389485 0.106321
v -0.1249835 0.1410773 0.106321
v -0.187103 0.02271847 0.106321
v -0.1314553 0.1483824 0.106321
v -0.1853546 0.07029577 0.106321
v -0.1551137 0.1070673 0.106321
v -0.1762293 0.066835 0.106321
v -0.1631456 0.1126113 0.106321
vt 0.4859102 0.3760016
vt 0.4209128 0.4002515
vt 0.4522767 0.4276324
vt 0.405667 0.4687129
vt 0.3825093 0.4348769
vt 0.3510817 0.4971686
vt 0.3368267 0.4589697
vt 0.2914628 0.5117941
vt 0.2867401 0.4713696
vt 0.2301073 0.5118163
vt 0.2351598 0.4714426
vt 0.1704929 0.4972035
vt 0.185045 0.4591896
vt 0.116056 0.468753
vt 0.1392858 0.4353001
vt 0.06997298 0.4280799
vt 0.1005437 0.4011403
vt 0.03495211 0.3775424
vt 0.07109204 0.3586992
vt 0.01304701 0.3200755
vt 0.05265876 0.3104344
vt 0.005540532 0.259014
vt 0.04632179 0.2591415
vt 0.01288175 0.1979105
vt 0.05245692 0.2078062
vt 0.03465635 0.1403292
vt 0.07071515 0.159423
vt 0.06960417 0.08963609
vt 0.1000382 0.1168182
vt 0.1156893 0.0488001
vt 0.1387176 0.08248342
vt 0.1702162 0.02021153
vt 0.1844929 0.05842568
vt 0.2299923 0.005540532
vt 0.2346862 0.0460485
vt 0.2915158 0.005637431
vt 0.2863606 0.04606801
vt 0.3511844 0.02048129
vt 0.336494 0.05847064
vt 0.4055106 0.04918127
vt 0.3821602 0.08251438
vt 0.4513308 0.09003124
vt 0.4207032 0.1167743
vt 0.485995 0.1406141
vt 0.4498967 0.1592302
vt 0.5075244 0.1979493
vt 0.4680778 0.2073914
vt 0.5147284 0.2586697
vt 0.4742513 0.2584515
vt 0.50729 0.3192086
vt 0.4681647 0.3094891
vt 0.4503373 0.357824
vt 0.3611487 0.1134082
vt 0.392924 0.1417168
vt 0.4169801 0.1767875
vt 0.4319445 0.2165719
vt 0.4369893 0.2587642
vt 0.4318725 0.3009541
vt 0.4168843 0.3408263
vt 0.3926735 0.3759807
vt 0.3878025 0.3256724
vt 0.4001955 0.2933899
vt 0.4044632 0.2589807
vt 0.4004216 0.2245372
vt 0.360895 0.4043106
vt 0.3683438 0.354346
vt 0.3882734 0.1920587
vt 0.3232423 0.4241125
vt 0.3686972 0.1634263
vt 0.2818953 0.4343075
vt 0.2393129 0.434305
vt 0.19796 0.4241117
vt 0.160223 0.4043119
vt 0.1282895 0.3760412
vt 0.1040381 0.3409668
vt 0.08890445 0.3011122
vt 0.0837585 0.2587727
vt 0.0889026 0.216416
vt 0.1040434 0.1765143
vt 0.1283024 0.1413973
vt 0.1602662 0.1131164
vt 0.1980682 0.09332235
vt 0.2394988 0.08316801
vt 0.2821362 0.08324011
vt 0.32349 0.09352456
vt 0.3428171 0.140306
vt 0.3121307 0.1240516
vt 0.2784217 0.1156196
vt 0.243654 0.1155109
vt 0.2098569 0.1237397
vt 0.179004 0.139831
vt 0.1528971 0.1628492
vt 0.1330598 0.1914526
vt 0.1206477 0.2239724
vt 0.116381 0.2585108
vt 0.1205023 0.2930494
vt 0.1327578 0.3255559
vt 0.1525133 0.3541971
vt 0.178529 0.3773374
vt 0.2092759 0.3935585
vt 0.2429851 0.4019459
vt 0.2777208 0.4020151
vt 0.3114949 0.3937608
vt 0.3424228 0.3776653
vt 0.1642766 0.3090039
vt 0.1792551 0.33052
vt 0.1987372 0.3479669
vt 0.2218512 0.3602165
vt 0.247185 0.3665853
vt 0.2733081 0.3666767
vt 0.2986972 0.3604769
vt 0.3218695 0.3483436
vt 0.3414582 0.3309804
vt 0.3562999 0.3094355
vt 0.3656015 0.2849687
vt 0.3688349 0.2589912
vt 0.3659002 0.2330817
vt 0.3568168 0.2086208
vt 0.3421151 0.187048
vt 0.3226567 0.1696253
vt 0.2995733 0.1573694
vt 0.2742082 0.1509986
vt 0.1551038 0.2844549
vt 0.2480392 0.1508895
vt 0.1520555 0.2584242
vt 0.2225922 0.1570538
vt 0.1553176 0.2324183
vt 0.1993518 0.1691364
vt 0.1647051 0.2079478
vt 0.1796736 0.1864365
vt 0.01897527 0.6754788
vt 0.0690795 0.6939142
vt 0.0895825 0.6552219
vt 0.045261 0.6252145
vt 0.005540532 0.7304605
vt 0.1188116 0.6224311
vt 0.08288823 0.5826234
vt 0.05860151 0.7363864
vt 0.005540557 0.7869993
vt 0.1551041 0.5975234
vt 0.1296909 0.5502074
vt 0.05851404 0.7801096
vt 0.01895873 0.8420078
vt 0.1963482 0.5819576
vt 0.1829607 0.5298867
vt 0.06882039 0.8226567
vt 0.04519776 0.8923672
vt 0.2401484 0.5766957
vt 0.2396062 0.5228974
vt 0.08906366 0.8615768
vt 0.08287436 0.9350738
vt 0.2839445 0.5820653
vt 0.2963084 0.5296924
vt 0.118141 0.8945797
vt 0.1298154 0.9675083
vt 0.3251671 0.5977696
vt 0.3497282 0.5498995
vt 0.1543479 0.9196932
vt 0.18319 0.9876797
vt 0.3613969 0.6228902
vt 0.396714 0.5823379
vt 0.1955418 0.9353683
vt 0.2398046 0.9944593
vt 0.3905121 0.6559465
vt 0.4344998 0.6250893
vt 0.2393064 0.9407457
vt 0.2963193 0.9875244
vt 0.410817 0.6949865
vt 0.4608755 0.675621
vt 0.2830463 0.9355689
vt 0.349436 0.9673457
vt 0.4211459 0.7377051
vt 0.4743156 0.7309444
vt 0.3242137 0.9201185
vt 0.3961198 0.9351806
vt 0.4208767 0.7816131
vt 0.4740565 0.7877948
vt 0.3604167 0.89544
vt 0.4337389 0.8928628
vt 0.4101272 0.8241313
vt 0.460224 0.8428089
vt 0.3895809 0.8627976
vt 0.371966 0.7441952
vt 0.3717085 0.7762332
vt 0.3637209 0.8070407
vt 0.3487259 0.834841
vt 0.3645045 0.7130258
vt 0.3274378 0.8583366
vt 0.3498341 0.6845911
vt 0.3010202 0.8760293
vt 0.328741 0.660489
vt 0.2709064 0.8871565
vt 0.302453 0.6421353
vt 0.2389082 0.8908312
vt 0.2725035 0.6306089
vt 0.2069756 0.886805
vt 0.2406397 0.6265856
vt 0.1769143 0.8753759
vt 0.2087155 0.6302989
vt 0.150582 0.8569939
vt 0.1786023 0.6415257
vt 0.1295141 0.8328914
vt 0.1520455 0.6594874
vt 0.1148622 0.8044676
vt 0.1306123 0.6832337
vt 0.1075241 0.7735204
vt 0.1154988 0.7113383
vt 0.1077628 0.7421105
vt 0.7143947 0.9286469
vt 0.713182 0.9186592
vt 0.6663406 0.9186592
vt 0.6651279 0.9286469
vt 0.7622299 0.9168566
vt 0.6208603 0.9074492
vt 0.7586622 0.9074492
vt 0.6172926 0.9168566
vt 0.8058535 0.8939611
vt 0.5793843 0.8856809
vt 0.8001381 0.885681
vt 0.573669 0.8939611
vt 0.8427303 0.8612911
vt 0.5443231 0.8546194
vt 0.8351995 0.8546193
vt 0.5367922 0.8612912
vt 0.870717 0.8207455
vt 0.5177142 0.8160699
vt 0.8618084 0.8160698
vt 0.5088055 0.8207456
vt 0.8881873 0.7746803
vt 0.5011041 0.7722726
vt 0.8784186 0.7722725
vt 0.4913353 0.7746804
vt 0.8941259 0.7257727
vt 0.4954579 0.7257727
vt 0.8840647 0.7257727
vt 0.4853966 0.7257727
vt 0.8881874 0.676865
vt 0.501104 0.6792724
vt 0.8784187 0.6792728
vt 0.4913351 0.6768646
vt 0.8707172 0.6307996
vt 0.5177141 0.6354749
vt 0.8618085 0.6354753
vt 0.5088054 0.6307992
vt 0.8427305 0.5902535
vt 0.5443231 0.5969251
vt 0.8351995 0.5969254
vt 0.5367922 0.5902534
vt 0.8058535 0.5575833
vt 0.5793843 0.5658635
vt 0.8001381 0.5658635
vt 0.573669 0.5575834
vt 0.7622296 0.5346878
vt 0.6208602 0.5440953
vt 0.7586619 0.5440952
vt 0.6172924 0.5346879
vt 0.7143943 0.5228974
vt 0.6663403 0.5328853
vt 0.7131816 0.5328853
vt 0.6651275 0.5228975
vn 0.1959382 -0.794957 0.5741528
vn -2.620721E-07 -0.9410105 -0.3383774
vn -2.160428E-07 -0.818748 0.5741529
vn -0.1959395 -0.7949572 0.5741522
vn -0.2251989 -0.9136663 -0.3383775
vn -0.3804913 -0.7249654 0.5741528
vn -0.4373093 -0.8332234 -0.3383776
vn -0.5429307 -0.612842 0.5741526
vn -0.6240052 -0.7043565 -0.3383777
vn -0.6738164 -0.465102 0.5741527
vn -0.7744364 -0.5345548 -0.3383776
vn -0.7655433 -0.2903322 0.5741522
vn -0.8798601 -0.3336867 -0.3383777
vn -0.8127789 -0.09868889 0.5741525
vn -0.9341494 -0.113426 -0.3383776
vn -0.8127789 0.0986888 0.5741525
vn -0.9341494 0.113426 -0.3383775
vn -0.7655433 0.2903321 0.5741521
vn -0.8798601 0.3336867 -0.3383778
vn -0.6738167 0.4651026 0.5741522
vn -0.7744363 0.5345548 -0.3383779
vn -0.5429304 0.6128421 0.5741526
vn -0.6240053 0.7043564 -0.3383777
vn -0.3804911 0.7249657 0.5741526
vn -0.4373093 0.8332234 -0.3383777
vn -0.1959393 0.794957 0.5741524
vn -0.2251984 0.9136663 -0.3383778
vn 0 0.8187484 0.5741526
vn 0 0.9410103 -0.338378
vn 0.1959394 0.7949572 0.5741522
vn 0.2251987 0.9136661 -0.3383783
vn 0.3804921 0.7249652 0.5741528
vn 0.43731 0.8332227 -0.3383781
vn 0.542931 0.612841 0.5741531
vn 0.624006 0.7043559 -0.3383777
vn 0.6738169 0.4651013 0.5741529
vn 0.7744368 0.5345542 -0.3383776
vn 0.7655431 0.290331 0.574153
vn 0.8798603 0.333686 -0.3383777
vn 0.8127786 0.09868823 0.574153
vn 0.9341494 0.1134253 -0.3383778
vn 0.8127787 -0.09869014 0.5741525
vn 0.9341493 -0.1134272 -0.3383777
vn 0.7655427 -0.290333 0.5741525
vn 0.8798597 -0.3336878 -0.3383774
vn 0.6738162 -0.4651025 0.5741527
vn 0.7744359 -0.5345557 -0.3383775
vn 0.5429298 -0.6128423 0.5741529
vn 0.6240044 -0.7043573 -0.3383774
vn 0.3804902 -0.7249661 0.5741528
vn 0.4373081 -0.8332241 -0.3383774
vn 0.2251976 -0.9136667 -0.3383774
vn 0.8306358 0.1008567 -0.5476059
vn 0.8306358 -0.1008582 -0.5476056
vn 0.782362 -0.2967116 -0.5476056
vn 0.6886203 -0.4753211 -0.5476057
vn 0.5548581 -0.626307 -0.5476056
vn 0.3888498 -0.7408941 -0.5476055
vn 0.2002435 -0.8124229 -0.5476054
vn -2.861578E-07 -0.8367367 -0.5476055
vn 0.1472567 -0.5974462 -0.7882724
vn 0.2859557 -0.5448448 -0.7882724
vn 0.4080363 -0.4605788 -0.7882724
vn 0.5064031 -0.3495455 -0.7882726
vn -0.2002447 -0.8124225 -0.5476054
vn -3.446021E-07 -0.6153263 -0.7882726
vn 0.5753396 -0.2181982 -0.7882727
vn -0.3888509 -0.7408936 -0.5476054
vn 0.6108397 -0.07416984 -0.7882726
vn -0.554859 -0.6263064 -0.5476057
vn -0.6886206 -0.4753204 -0.5476056
vn -0.7823623 -0.2967108 -0.5476056
vn -0.830636 -0.1008574 -0.5476055
vn -0.830636 0.1008574 -0.5476055
vn -0.7823623 0.2967108 -0.5476058
vn -0.6886206 0.4753203 -0.5476059
vn -0.5548589 0.6263061 -0.547606
vn -0.3888508 0.7408934 -0.5476058
vn -0.200244 0.8124225 -0.5476058
vn 2.030008E-07 0.8367364 -0.5476058
vn 0.2002444 0.8124221 -0.5476062
vn 0.3888512 0.7408928 -0.5476062
vn 0.5548593 0.6263057 -0.547606
vn 0.6886209 0.4753199 -0.5476059
vn 0.7823623 0.2967101 -0.547606
vn 0.6108399 0.07416884 -0.7882726
vn 0.5753401 0.2181972 -0.7882727
vn 0.5064036 0.3495446 -0.7882727
vn 0.4080369 0.4605778 -0.7882727
vn 0.2859566 0.544844 -0.7882727
vn 0.1472574 0.5974457 -0.7882727
vn 2.742256E-07 0.6153259 -0.7882729
vn -0.1472569 0.5974457 -0.7882727
vn -0.2859562 0.5448442 -0.7882727
vn -0.4080367 0.4605781 -0.7882727
vn -0.5064034 0.3495449 -0.7882727
vn -0.57534 0.2181977 -0.7882726
vn -0.6108397 0.07416936 -0.7882726
vn -0.6108397 -0.07416927 -0.7882726
vn -0.5753401 -0.2181976 -0.7882726
vn -0.5064034 -0.3495451 -0.7882726
vn -0.4080368 -0.4605782 -0.7882726
vn -0.2859564 -0.5448443 -0.7882726
vn -0.1472574 -0.597446 -0.7882724
vn -0.2449076 0.09288123 -0.9650873
vn -0.2600189 0.03157197 -0.9650873
vn -0.260019 -0.03157189 -0.9650873
vn -0.2449078 -0.09288117 -0.9650873
vn -0.2155631 -0.1487925 -0.9650873
vn -0.1736908 -0.1960564 -0.9650873
vn -0.1217244 -0.2319264 -0.9650873
vn -0.06268375 -0.2543175 -0.9650873
vn -2.176115E-07 -0.2619286 -0.9650873
vn 0.06268329 -0.2543174 -0.9650873
vn 0.121724 -0.2319265 -0.9650873
vn 0.1736908 -0.1960568 -0.9650872
vn 0.2155629 -0.1487926 -0.9650873
vn 0.2449075 -0.09288142 -0.9650873
vn 0.2600189 -0.0315722 -0.9650873
vn 0.2600191 0.03157181 -0.9650873
vn 0.2449078 0.09288112 -0.9650872
vn 0.2155631 0.1487923 -0.9650873
vn -0.2155631 0.1487925 -0.9650873
vn 0.1736911 0.1960563 -0.9650873
vn -0.1736909 0.1960565 -0.9650873
vn 0.1217245 0.2319264 -0.9650872
vn -0.1217243 0.2319264 -0.9650873
vn 0.06268364 0.2543175 -0.9650873
vn -0.06268346 0.2543174 -0.9650873
vn 1.266327E-07 0.2619287 -0.9650873
vn 0.1298076 -0.5266507 0.8401125
vn 0.2025532 -0.8217908 0.5325713
vn 0.3933346 -0.7494369 0.5325713
vn 0.2520712 -0.4802817 0.8401129
vn 0 -0.542412 0.8401126
vn 0.5612571 -0.6335285 0.5325713
vn 0.3596856 -0.4060008 0.8401129
vn -1.363133E-07 -0.8463852 0.5325713
vn -0.1298079 -0.5266503 0.8401127
vn 0.6965613 -0.4808016 0.5325712
vn 0.4463958 -0.3081245 0.8401132
vn -0.2025536 -0.8217905 0.5325715
vn -0.2520715 -0.4802814 0.8401129
vn 0.7913842 -0.3001322 0.532571
vn 0.5071638 -0.1923417 0.8401128
vn -0.3933353 -0.7494363 0.5325716
vn -0.3596859 -0.4060009 0.8401127
vn 0.8402143 -0.1020203 0.532571
vn 0.5384572 -0.06538051 0.8401126
vn -0.5612576 -0.6335278 0.5325717
vn -0.4463965 -0.3081251 0.8401126
vn 0.8402142 0.1020202 0.532571
vn 0.5384573 0.06538041 0.8401126
vn -0.6965617 -0.480801 0.5325715
vn -0.5071643 -0.1923418 0.8401126
vn 0.791384 0.3001324 0.532571
vn 0.507164 0.1923419 0.8401126
vn -0.7913842 -0.3001316 0.5325713
vn -0.5384572 -0.06537988 0.8401126
vn 0.6965614 0.4808015 0.5325712
vn 0.4463963 0.308125 0.8401127
vn -0.8402142 -0.1020195 0.5325712
vn -0.5384572 0.06538098 0.8401126
vn 0.5612573 0.6335282 0.5325714
vn 0.3596856 0.4060011 0.8401127
vn -0.8402141 0.1020212 0.5325712
vn -0.5071638 0.1923421 0.8401127
vn 0.3933347 0.7494369 0.5325711
vn 0.2520712 0.4802821 0.8401126
vn -0.7913837 0.3001329 0.5325711
vn -0.4463955 0.3081256 0.8401128
vn 0.2025532 0.8217908 0.5325713
vn 0.1298075 0.5266502 0.8401129
vn -0.6965607 0.4808023 0.5325713
vn -0.3596849 0.4060017 0.8401126
vn 1.412701E-07 0.8463852 0.5325713
vn 1.301873E-07 0.5424117 0.8401128
vn -0.5612564 0.6335291 0.5325712
vn -0.2520707 0.4802822 0.8401127
vn -0.2025521 0.8217911 0.5325711
vn -0.129807 0.5266507 0.8401126
vn -0.3933338 0.7494375 0.532571
vn 0.09671615 0.3923929 0.9146987
vn 0 0.4041362 0.9146988
vn -0.09671555 0.3923928 0.9146988
vn -0.187811 0.3578452 0.9146988
vn 0.1878114 0.3578447 0.9146988
vn -0.2679916 0.3025006 0.9146988
vn 0.2679919 0.3025002 0.9146988
vn -0.3325974 0.2295759 0.9146988
vn 0.3325975 0.2295755 0.9146988
vn -0.3778735 0.143309 0.914699
vn 0.377874 0.1433088 0.9146987
vn -0.4011899 0.04871358 0.9146987
vn 0.4011897 0.0487131 0.9146988
vn -0.4011897 -0.04871286 0.9146988
vn 0.4011897 -0.04871317 0.9146988
vn -0.377874 -0.1433083 0.9146988
vn 0.3778739 -0.1433087 0.9146988
vn -0.3325975 -0.2295752 0.914699
vn 0.3325977 -0.2295756 0.9146987
vn -0.267992 -0.3025 0.9146988
vn 0.2679918 -0.3025002 0.9146988
vn -0.1878117 -0.3578446 0.9146988
vn 0.1878113 -0.3578447 0.9146988
vn -0.09671624 -0.392392 0.914699
vn 0.09671617 -0.3923928 0.9146988
vn -1.713697E-07 -0.4041362 0.9146988
vn 0.6738162 -0.4651025 0.5741527
vn -0.4463955 0.3081256 0.8401128
vn -0.5071638 0.1923421 0.8401127
vn 0.7655427 -0.290333 0.5741525
vn 0.5429298 -0.6128423 0.5741529
vn -0.5384572 0.06538098 0.8401126
vn -0.3596849 0.4060017 0.8401126
vn 0.8127787 -0.09869014 0.5741525
vn 0.3804902 -0.7249661 0.5741528
vn -0.5384572 -0.06537988 0.8401126
vn -0.2520707 0.4802822 0.8401127
vn 0.8127786 0.09868823 0.574153
vn 0.1959382 -0.794957 0.5741528
vn -0.5071643 -0.1923418 0.8401126
vn -0.129807 0.5266507 0.8401126
vn 0.7655431 0.290331 0.574153
vn -2.160428E-07 -0.818748 0.5741529
vn -0.4463965 -0.3081251 0.8401126
vn 1.301873E-07 0.5424117 0.8401128
vn 0.6738169 0.4651013 0.5741529
vn -0.1959395 -0.7949572 0.5741522
vn -0.3596859 -0.4060009 0.8401127
vn 0.1298075 0.5266502 0.8401129
vn 0.542931 0.612841 0.5741531
vn -0.3804913 -0.7249654 0.5741528
vn -0.2520715 -0.4802814 0.8401129
vn 0.2520712 0.4802821 0.8401126
vn 0.3804921 0.7249652 0.5741528
vn -0.5429307 -0.612842 0.5741526
vn -0.1298079 -0.5266503 0.8401127
vn 0.3596856 0.4060011 0.8401127
vn 0.1959394 0.7949572 0.5741522
vn -0.6738164 -0.465102 0.5741527
vn 0 -0.542412 0.8401126
vn 0.4463963 0.308125 0.8401127
vn 0 0.8187484 0.5741526
vn -0.7655433 -0.2903322 0.5741522
vn 0.1298076 -0.5266507 0.8401125
vn 0.507164 0.1923419 0.8401126
vn -0.1959393 0.794957 0.5741524
vn -0.8127789 -0.09868889 0.5741525
vn 0.2520712 -0.4802817 0.8401129
vn 0.5384573 0.06538041 0.8401126
vn -0.3804911 0.7249657 0.5741526
vn -0.8127789 0.0986888 0.5741525
vn 0.3596856 -0.4060008 0.8401129
vn 0.5384572 -0.06538051 0.8401126
vn -0.5429304 0.6128421 0.5741526
vn -0.7655433 0.2903321 0.5741521
vn 0.4463958 -0.3081245 0.8401132
vn 0.5071638 -0.1923417 0.8401128
vn -0.6738167 0.4651026 0.5741522
usemtl bowl02
f 1/1/1 3/3/3 2/2/2 
f 2/2/2 3/3/3 4/4/4 
f 2/2/2 4/4/4 5/5/5 
f 5/5/5 4/4/4 6/6/6 
f 5/5/5 6/6/6 7/7/7 
f 7/7/7 6/6/6 8/8/8 
f 7/7/7 8/8/8 9/9/9 
f 9/9/9 8/8/8 10/10/10 
f 9/9/9 10/10/10 11/11/11 
f 11/11/11 10/10/10 12/12/12 
f 11/11/11 12/12/12 13/13/13 
f 13/13/13 12/12/12 14/14/14 
f 13/13/13 14/14/14 15/15/15 
f 15/15/15 14/14/14 16/16/16 
f 15/15/15 16/16/16 17/17/17 
f 17/17/17 16/16/16 18/18/18 
f 17/17/17 18/18/18 19/19/19 
f 19/19/19 18/18/18 20/20/20 
f 19/19/19 20/20/20 21/21/21 
f 21/21/21 20/20/20 22/22/22 
f 21/21/21 22/22/22 23/23/23 
f 23/23/23 22/22/22 24/24/24 
f 23/23/23 24/24/24 25/25/25 
f 25/25/25 24/24/24 26/26/26 
f 25/25/25 26/26/26 27/27/27 
f 27/27/27 26/26/26 28/28/28 
f 27/27/27 28/28/28 29/29/29 
f 29/29/29 28/28/28 30/30/30 
f 29/29/29 30/30/30 31/31/31 
f 31/31/31 30/30/30 32/32/32 
f 31/31/31 32/32/32 33/33/33 
f 33/33/33 32/32/32 34/34/34 
f 33/33/33 34/34/34 35/35/35 
f 35/35/35 34/34/34 36/36/36 
f 35/35/35 36/36/36 37/37/37 
f 37/37/37 36/36/36 38/38/38 
f 37/37/37 38/38/38 39/39/39 
f 39/39/39 38/38/38 40/40/40 
f 39/39/39 40/40/40 41/41/41 
f 41/41/41 40/40/40 42/42/42 
f 41/41/41 42/42/42 43/43/43 
f 43/43/43 42/42/42 44/44/44 
f 43/43/43 44/44/44 45/45/45 
f 45/45/45 44/44/44 46/46/46 
f 45/45/45 46/46/46 47/47/47 
f 47/47/47 46/46/46 48/48/48 
f 47/47/47 48/48/48 49/49/49 
f 49/49/49 48/48/48 50/50/50 
f 49/49/49 50/50/50 51/51/51 
f 51/51/51 50/50/50 1/1/1 
f 51/51/51 1/1/1 52/52/52 
f 1/1/1 2/2/2 52/52/52 
f 39/39/39 41/41/41 53/53/53 
f 41/41/41 43/43/43 54/54/54 
f 41/41/41 54/54/54 53/53/53 
f 43/43/43 45/45/45 55/55/55 
f 43/43/43 55/55/55 54/54/54 
f 45/45/45 47/47/47 56/56/56 
f 45/45/45 56/56/56 55/55/55 
f 47/47/47 49/49/49 57/57/57 
f 47/47/47 57/57/57 56/56/56 
f 49/49/49 51/51/51 58/58/58 
f 49/49/49 58/58/58 57/57/57 
f 51/51/51 52/52/52 59/59/59 
f 51/51/51 59/59/59 58/58/58 
f 52/52/52 2/2/2 60/60/60 
f 52/52/52 60/60/60 59/59/59 
f 58/58/58 59/59/59 61/61/61 
f 60/60/60 61/61/61 59/59/59 
f 57/57/57 58/58/58 62/62/62 
f 58/58/58 61/61/61 62/62/62 
f 56/56/56 57/57/57 63/63/63 
f 57/57/57 62/62/62 63/63/63 
f 55/55/55 56/56/56 64/64/64 
f 56/56/56 63/63/63 64/64/64 
f 2/2/2 65/65/65 60/60/60 
f 2/2/2 5/5/5 65/65/65 
f 60/60/60 66/66/66 61/61/61 
f 65/65/65 66/66/66 60/60/60 
f 55/55/55 64/64/64 67/67/67 
f 54/54/54 55/55/55 67/67/67 
f 5/5/5 68/68/68 65/65/65 
f 5/5/5 7/7/7 68/68/68 
f 54/54/54 67/67/67 69/69/69 
f 53/53/53 54/54/54 69/69/69 
f 7/7/7 70/70/70 68/68/68 
f 7/7/7 9/9/9 70/70/70 
f 9/9/9 71/71/71 70/70/70 
f 9/9/9 11/11/11 71/71/71 
f 11/11/11 72/72/72 71/71/71 
f 11/11/11 13/13/13 72/72/72 
f 13/13/13 73/73/73 72/72/72 
f 13/13/13 15/15/15 73/73/73 
f 15/15/15 74/74/74 73/73/73 
f 15/15/15 17/17/17 74/74/74 
f 17/17/17 75/75/75 74/74/74 
f 17/17/17 19/19/19 75/75/75 
f 19/19/19 76/76/76 75/75/75 
f 19/19/19 21/21/21 76/76/76 
f 21/21/21 77/77/77 76/76/76 
f 21/21/21 23/23/23 77/77/77 
f 23/23/23 78/78/78 77/77/77 
f 23/23/23 25/25/25 78/78/78 
f 25/25/25 79/79/79 78/78/78 
f 25/25/25 27/27/27 79/79/79 
f 27/27/27 80/80/80 79/79/79 
f 27/27/27 29/29/29 80/80/80 
f 29/29/29 81/81/81 80/80/80 
f 29/29/29 31/31/31 81/81/81 
f 31/31/31 82/82/82 81/81/81 
f 31/31/31 33/33/33 82/82/82 
f 33/33/33 83/83/83 82/82/82 
f 33/33/33 35/35/35 83/83/83 
f 35/35/35 84/84/84 83/83/83 
f 35/35/35 37/37/37 84/84/84 
f 37/37/37 85/85/85 84/84/84 
f 37/37/37 39/39/39 85/85/85 
f 39/39/39 53/53/53 85/85/85 
f 85/85/85 53/53/53 86/86/86 
f 53/53/53 69/69/69 86/86/86 
f 84/84/84 85/85/85 87/87/87 
f 85/85/85 86/86/86 87/87/87 
f 83/83/83 84/84/84 88/88/88 
f 84/84/84 87/87/87 88/88/88 
f 82/82/82 83/83/83 89/89/89 
f 83/83/83 88/88/88 89/89/89 
f 81/81/81 82/82/82 90/90/90 
f 82/82/82 89/89/89 90/90/90 
f 81/81/81 90/90/90 91/91/91 
f 80/80/80 81/81/81 91/91/91 
f 80/80/80 91/91/91 92/92/92 
f 79/79/79 80/80/80 92/92/92 
f 79/79/79 92/92/92 93/93/93 
f 78/78/78 79/79/79 93/93/93 
f 78/78/78 93/93/93 94/94/94 
f 77/77/77 78/78/78 94/94/94 
f 77/77/77 94/94/94 95/95/95 
f 76/76/76 77/77/77 95/95/95 
f 76/76/76 95/95/95 96/96/96 
f 75/75/75 76/76/76 96/96/96 
f 75/75/75 96/96/96 97/97/97 
f 74/74/74 75/75/75 97/97/97 
f 74/74/74 97/97/97 98/98/98 
f 73/73/73 74/74/74 98/98/98 
f 73/73/73 98/98/98 99/99/99 
f 72/72/72 73/73/73 99/99/99 
f 72/72/72 99/99/99 100/100/100 
f 71/71/71 72/72/72 100/100/100 
f 71/71/71 100/100/100 101/101/101 
f 70/70/70 71/71/71 101/101/101 
f 70/70/70 101/101/101 102/102/102 
f 68/68/68 70/70/70 102/102/102 
f 68/68/68 102/102/102 103/103/103 
f 65/65/65 68/68/68 103/103/103 
f 65/65/65 103/103/103 104/104/104 
f 65/65/65 104/104/104 66/66/66 
f 98/98/98 97/97/97 105/105/105 
f 99/99/99 98/98/98 106/106/106 
f 98/98/98 105/105/105 106/106/106 
f 100/100/100 99/99/99 107/107/107 
f 99/99/99 106/106/106 107/107/107 
f 101/101/101 100/100/100 108/108/108 
f 100/100/100 107/107/107 108/108/108 
f 102/102/102 101/101/101 109/109/109 
f 101/101/101 108/108/108 109/109/109 
f 103/103/103 102/102/102 110/110/110 
f 102/102/102 109/109/109 110/110/110 
f 104/104/104 103/103/103 111/111/111 
f 103/103/103 110/110/110 111/111/111 
f 66/66/66 104/104/104 112/112/112 
f 104/104/104 111/111/111 112/112/112 
f 66/66/66 112/112/112 113/113/113 
f 61/61/61 66/66/66 113/113/113 
f 61/61/61 113/113/113 114/114/114 
f 112/112/112 114/114/114 113/113/113 
f 62/62/62 61/61/61 114/114/114 
f 114/114/114 112/112/112 115/115/115 
f 62/62/62 114/114/114 115/115/115 
f 115/115/115 112/112/112 111/111/111 
f 63/63/63 62/62/62 115/115/115 
f 115/115/115 111/111/111 116/116/116 
f 63/63/63 115/115/115 116/116/116 
f 116/116/116 111/111/111 110/110/110 
f 64/64/64 63/63/63 116/116/116 
f 116/116/116 110/110/110 117/117/117 
f 64/64/64 116/116/116 117/117/117 
f 117/117/117 110/110/110 109/109/109 
f 67/67/67 64/64/64 117/117/117 
f 117/117/117 109/109/109 118/118/118 
f 67/67/67 117/117/117 118/118/118 
f 118/118/118 109/109/109 108/108/108 
f 69/69/69 67/67/67 118/118/118 
f 118/118/118 108/108/108 119/119/119 
f 69/69/69 118/118/118 119/119/119 
f 119/119/119 108/108/108 107/107/107 
f 86/86/86 69/69/69 119/119/119 
f 119/119/119 107/107/107 120/120/120 
f 86/86/86 119/119/119 120/120/120 
f 120/120/120 107/107/107 106/106/106 
f 87/87/87 86/86/86 120/120/120 
f 120/120/120 106/106/106 121/121/121 
f 87/87/87 120/120/120 121/121/121 
f 88/88/88 87/87/87 121/121/121 
f 121/121/121 106/106/106 105/105/105 
f 88/88/88 121/121/121 122/122/122 
f 121/121/121 105/105/105 122/122/122 
f 89/89/89 88/88/88 122/122/122 
f 122/122/122 105/105/105 123/123/123 
f 97/97/97 123/123/123 105/105/105 
f 97/97/97 96/96/96 123/123/123 
f 89/89/89 122/122/122 124/124/124 
f 122/122/122 123/123/123 124/124/124 
f 90/90/90 89/89/89 124/124/124 
f 96/96/96 125/125/125 123/123/123 
f 124/124/124 123/123/123 125/125/125 
f 96/96/96 95/95/95 125/125/125 
f 90/90/90 124/124/124 126/126/126 
f 124/124/124 125/125/125 126/126/126 
f 91/91/91 90/90/90 126/126/126 
f 95/95/95 127/127/127 125/125/125 
f 126/126/126 125/125/125 127/127/127 
f 95/95/95 94/94/94 127/127/127 
f 91/91/91 126/126/126 128/128/128 
f 126/126/126 127/127/127 128/128/128 
f 92/92/92 91/91/91 128/128/128 
f 94/94/94 129/129/129 127/127/127 
f 128/128/128 127/127/127 129/129/129 
f 94/94/94 93/93/93 129/129/129 
f 92/92/92 128/128/128 130/130/130 
f 128/128/128 129/129/129 130/130/130 
f 93/93/93 130/130/130 129/129/129 
f 93/93/93 92/92/92 130/130/130 
f 131/131/131 133/133/133 132/132/132 
f 131/131/131 134/134/134 133/133/133 
f 135/135/135 131/131/131 132/132/132 
f 134/134/134 136/136/136 133/133/133 
f 134/134/134 137/137/137 136/136/136 
f 135/135/135 132/132/132 138/138/138 
f 139/139/139 135/135/135 138/138/138 
f 137/137/137 140/140/140 136/136/136 
f 137/137/137 141/141/141 140/140/140 
f 139/139/139 138/138/138 142/142/142 
f 143/143/143 139/139/139 142/142/142 
f 141/141/141 144/144/144 140/140/140 
f 141/141/141 145/145/145 144/144/144 
f 143/143/143 142/142/142 146/146/146 
f 147/147/147 143/143/143 146/146/146 
f 145/145/145 148/148/148 144/144/144 
f 145/145/145 149/149/149 148/148/148 
f 147/147/147 146/146/146 150/150/150 
f 151/151/151 147/147/147 150/150/150 
f 149/149/149 152/152/152 148/148/148 
f 149/149/149 153/153/153 152/152/152 
f 151/151/151 150/150/150 154/154/154 
f 155/155/155 151/151/151 154/154/154 
f 153/153/153 156/156/156 152/152/152 
f 153/153/153 157/157/157 156/156/156 
f 155/155/155 154/154/154 158/158/158 
f 159/159/159 155/155/155 158/158/158 
f 157/157/157 160/160/160 156/156/156 
f 157/157/157 161/161/161 160/160/160 
f 159/159/159 158/158/158 162/162/162 
f 163/163/163 159/159/159 162/162/162 
f 161/161/161 164/164/164 160/160/160 
f 161/161/161 165/165/165 164/164/164 
f 163/163/163 162/162/162 166/166/166 
f 167/167/167 163/163/163 166/166/166 
f 165/165/165 168/168/168 164/164/164 
f 165/165/165 169/169/169 168/168/168 
f 167/167/167 166/166/166 170/170/170 
f 171/171/171 167/167/167 170/170/170 
f 169/169/169 172/172/172 168/168/168 
f 169/169/169 173/173/173 172/172/172 
f 171/171/171 170/170/170 174/174/174 
f 175/175/175 171/171/171 174/174/174 
f 173/173/173 176/176/176 172/172/172 
f 173/173/173 177/177/177 176/176/176 
f 175/175/175 174/174/174 178/178/178 
f 179/179/179 175/175/175 178/178/178 
f 177/177/177 180/180/180 176/176/176 
f 177/177/177 181/181/181 180/180/180 
f 181/181/181 179/179/179 182/182/182 
f 179/179/179 178/178/178 182/182/182 
f 181/181/181 182/182/182 180/180/180 
f 168/168/168 172/172/172 183/183/183 
f 172/172/172 176/176/176 184/184/184 
f 172/172/172 184/184/184 183/183/183 
f 176/176/176 185/185/185 184/184/184 
f 176/176/176 180/180/180 185/185/185 
f 185/185/185 183/183/183 184/184/184 
f 180/180/180 186/186/186 185/185/185 
f 180/180/180 182/182/182 186/186/186 
f 183/183/183 185/185/185 186/186/186 
f 168/168/168 183/183/183 187/187/187 
f 183/183/183 186/186/186 187/187/187 
f 164/164/164 168/168/168 187/187/187 
f 182/182/182 188/188/188 186/186/186 
f 182/182/182 178/178/178 188/188/188 
f 187/187/187 186/186/186 188/188/188 
f 164/164/164 187/187/187 189/189/189 
f 187/187/187 188/188/188 189/189/189 
f 160/160/160 164/164/164 189/189/189 
f 178/178/178 190/190/190 188/188/188 
f 189/189/189 188/188/188 190/190/190 
f 178/178/178 174/174/174 190/190/190 
f 160/160/160 189/189/189 191/191/191 
f 189/189/189 190/190/190 191/191/191 
f 156/156/156 160/160/160 191/191/191 
f 174/174/174 192/192/192 190/190/190 
f 191/191/191 190/190/190 192/192/192 
f 174/174/174 170/170/170 192/192/192 
f 156/156/156 191/191/191 193/193/193 
f 191/191/191 192/192/192 193/193/193 
f 152/152/152 156/156/156 193/193/193 
f 170/170/170 194/194/194 192/192/192 
f 193/193/193 192/192/192 194/194/194 
f 170/170/170 166/166/166 194/194/194 
f 152/152/152 193/193/193 195/195/195 
f 193/193/193 194/194/194 195/195/195 
f 148/148/148 152/152/152 195/195/195 
f 166/166/166 196/196/196 194/194/194 
f 195/195/195 194/194/194 196/196/196 
f 166/166/166 162/162/162 196/196/196 
f 148/148/148 195/195/195 197/197/197 
f 195/195/195 196/196/196 197/197/197 
f 144/144/144 148/148/148 197/197/197 
f 162/162/162 198/198/198 196/196/196 
f 197/197/197 196/196/196 198/198/198 
f 162/162/162 158/158/158 198/198/198 
f 144/144/144 197/197/197 199/199/199 
f 197/197/197 198/198/198 199/199/199 
f 140/140/140 144/144/144 199/199/199 
f 158/158/158 200/200/200 198/198/198 
f 199/199/199 198/198/198 200/200/200 
f 158/158/158 154/154/154 200/200/200 
f 140/140/140 199/199/199 201/201/201 
f 199/199/199 200/200/200 201/201/201 
f 136/136/136 140/140/140 201/201/201 
f 154/154/154 202/202/202 200/200/200 
f 201/201/201 200/200/200 202/202/202 
f 154/154/154 150/150/150 202/202/202 
f 136/136/136 201/201/201 203/203/203 
f 201/201/201 202/202/202 203/203/203 
f 133/133/133 136/136/136 203/203/203 
f 150/150/150 204/204/204 202/202/202 
f 203/203/203 202/202/202 204/204/204 
f 150/150/150 146/146/146 204/204/204 
f 133/133/133 203/203/203 205/205/205 
f 203/203/203 204/204/204 205/205/205 
f 132/132/132 133/133/133 205/205/205 
f 146/146/146 206/206/206 204/204/204 
f 205/205/205 204/204/204 206/206/206 
f 146/146/146 142/142/142 206/206/206 
f 132/132/132 205/205/205 207/207/207 
f 205/205/205 206/206/206 207/207/207 
f 138/138/138 132/132/132 207/207/207 
f 142/142/142 208/208/208 206/206/206 
f 142/142/142 138/138/138 208/208/208 
f 207/207/207 206/206/206 208/208/208 
f 138/138/138 207/207/207 208/208/208 
f 209/209/209 211/211/211 210/210/210 
f 209/209/209 212/212/212 211/211/211 
f 213/213/213 209/209/209 210/210/210 
f 212/212/212 214/214/214 211/211/211 
f 213/213/213 210/210/210 215/215/215 
f 212/212/212 216/216/216 214/214/214 
f 217/217/217 213/213/213 215/215/215 
f 216/216/216 218/218/218 214/214/214 
f 217/217/217 215/215/215 219/219/219 
f 216/216/216 220/220/220 218/218/218 
f 221/221/221 217/217/217 219/219/219 
f 220/220/220 222/222/222 218/218/218 
f 221/221/221 219/219/219 223/223/223 
f 220/220/220 224/224/224 222/222/222 
f 225/225/225 221/221/221 223/223/223 
f 224/224/224 226/226/226 222/222/222 
f 225/225/225 223/223/223 227/227/227 
f 224/224/224 228/228/228 226/226/226 
f 229/229/229 225/225/225 227/227/227 
f 228/228/228 230/230/230 226/226/226 
f 229/229/229 227/227/227 231/231/231 
f 228/228/228 232/232/232 230/230/230 
f 233/233/233 229/229/229 231/231/231 
f 232/232/232 234/234/234 230/230/230 
f 233/233/233 231/231/231 235/235/235 
f 232/232/232 236/236/236 234/234/234 
f 237/237/237 233/233/233 235/235/235 
f 236/236/236 238/238/238 234/234/234 
f 237/237/237 235/235/235 239/239/239 
f 236/236/236 240/240/240 238/238/238 
f 241/241/241 237/237/237 239/239/239 
f 240/240/240 242/242/242 238/238/238 
f 241/241/241 239/239/239 243/243/243 
f 240/240/240 244/244/244 242/242/242 
f 245/245/245 241/241/241 243/243/243 
f 244/244/244 246/246/246 242/242/242 
f 245/245/245 243/243/243 247/247/247 
f 244/244/244 248/248/248 246/246/246 
f 249/249/249 245/245/245 247/247/247 
f 248/248/248 250/250/250 246/246/246 
f 249/249/249 247/247/247 251/251/251 
f 248/248/248 252/252/252 250/250/250 
f 253/253/253 249/249/249 251/251/251 
f 252/252/252 254/254/254 250/250/250 
f 253/253/253 251/251/251 255/255/255 
f 252/252/252 256/256/256 254/254/254 
f 257/257/257 253/253/253 255/255/255 
f 256/256/256 258/258/258 254/254/254 
f 257/257/257 255/255/255 259/259/259 
f 256/256/256 260/260/260 258/258/258 
f 260/260/260 257/257/257 259/259/259 
f 260/260/260 259/259/259 258/258/258 
