# exported by StudySceneExporter from mesh 'SM_Pot_003.001'
mtllib materials.mtl
v 0.2671726 1.702701E-07 0.03869615
v 0.2468354 -0.1022424 0.3234296
v 0.2671726 1.702701E-07 0.3234296
v 0.2468354 -0.1022424 0.03869615
v 0.1889197 -0.1889194 0.3234296
v 0.2361591 -0.09782016 0.0113338
v 0.2556167 1.627393E-07 0.0113338
v 0.1807485 -0.1807482 0.0113338
v 0.1889197 -0.1889194 0.03869615
v 0.1022427 -0.2468353 0.3234296
v 0.09782045 -0.236159 0.0113338
v 0.1022427 -0.2468353 0.03869615
v 1.750431E-07 -0.2671726 0.3234296
v 1.675123E-07 -0.2556167 0.0113338
v 1.750431E-07 -0.2671726 0.03869615
v -0.1022424 -0.2468354 0.3234296
v -0.09782015 -0.2361591 0.0113338
v -0.1022424 -0.2468354 0.03869615
v -0.1889194 -0.1889197 0.3234296
v -0.1807482 -0.1807485 0.0113338
v -0.1889194 -0.1889197 0.03869615
v -0.2468353 -0.1022427 0.3234296
v -0.236159 -0.09782046 0.0113338
v -0.2468353 -0.1022427 0.03869615
v -0.2671726 -1.779535E-07 0.3234296
v -0.2556167 -1.704227E-07 0.0113338
v -0.2671726 -1.779535E-07 0.03869615
v -0.2468354 0.1022424 0.3234296
v -0.2361591 0.09782014 0.0113338
v -0.2468354 0.1022424 0.03869615
v -0.1889197 0.1889194 0.3234296
v -0.1807485 0.1807482 0.0113338
v -0.1889197 0.1889194 0.03869615
v -0.1022427 0.2468353 0.3234296
v -0.09782045 0.236159 0.0113338
v -0.1022427 0.2468353 0.03869615
v -1.731805E-07 0.2671726 0.3234296
v -1.656497E-07 0.2556167 0.0113338
v -1.731805E-07 0.2671726 0.03869615
v 0.1022424 0.2468354 0.3234296
v 0.09782015 0.2361591 0.0113338
v 0.1022424 0.2468354 0.03869615
v 0.1889194 0.1889197 0.3234296
v 0.1807482 0.1807485 0.0113338
v 0.1889194 0.1889197 0.03869615
v 0.2468353 0.1022427 0.3234296
v 0.236159 0.09782044 0.0113338
v 0.2468353 0.1022427 0.03869615
v 0.2671726 1.702701E-07 0.3234296
v 0.2556167 1.627393E-07 0.0113338
v 0.2671726 1.702701E-07 0.03869615
v 0.2336279 -0.09677169 0.3234296
v 0.252877 1.609539E-07 0.05364635
v 0.252877 1.609539E-07 0.3234296
v 0.2336279 -0.09677169 0.05364635
v 0.2413211 1.535395E-07 0.02628403
v 0.1788112 -0.1788109 0.3234296
v 0.2229517 -0.09234946 0.02628403
v 0.1788112 -0.1788109 0.05364635
v 0.09677199 -0.2336278 0.3234296
v 0.1706399 -0.1706397 0.02628403
v 0.09677199 -0.2336278 0.05364635
v 1.657269E-07 -0.252877 0.3234296
v 0.09234974 -0.2229516 0.02628403
v 1.62006E-07 -0.252877 0.05364635
v -0.09677169 -0.2336279 0.3234296
v 1.54238E-07 -0.2413211 0.02628403
v -0.09677169 -0.2336279 0.05364635
v -0.1788109 -0.1788112 0.3234296
v -0.09234945 -0.2229517 0.02628403
v -0.1788109 -0.1788112 0.05364635
v -0.2336278 -0.096772 0.3234296
v -0.1706397 -0.1706399 0.02628403
v -0.2336278 -0.096772 0.05364635
v -0.252877 -1.686373E-07 0.3234296
v -0.2229515 -0.09234975 0.02628403
v -0.252877 -1.686373E-07 0.05364635
v -0.2336279 0.09677169 0.3234296
v -0.2413211 -1.612229E-07 0.02628403
v -0.2336279 0.09677169 0.05364635
v -0.1788112 0.1788109 0.3234296
v -0.2229517 0.09234944 0.02628403
v -0.1788112 0.1788109 0.05364635
v -0.09677199 0.2336278 0.3234296
v -0.1706399 0.1706397 0.02628403
v -0.096772 0.2336278 0.05364635
v -1.638643E-07 0.252877 0.3234296
v -0.09234975 0.2229516 0.02628403
v -1.675851E-07 0.252877 0.05364635
v 0.09677169 0.2336279 0.3234296
v -1.605826E-07 0.2413211 0.02628403
v 0.09677169 0.2336279 0.05364635
v 0.1788109 0.1788112 0.3234296
v 0.09234944 0.2229517 0.02628403
v 0.1788109 0.1788112 0.05364635
v 0.2336278 0.09677199 0.3234296
v 0.1706397 0.1706399 0.02628403
v 0.2336278 0.09677199 0.05364635
v 0.252877 1.609539E-07 0.3234296
v 0.2229515 0.09234975 0.02628403
v 0.252877 1.609539E-07 0.05364635
v 0.2413211 1.535395E-07 0.02628403
v 0.286719 -0.06094237 0.265721
v 0.2499051 -0.06128293 0.265721
v 0.2483614 -0.06819703 0.2534506
v 0.286719 -0.0680267 0.2534506
v 0.2939367 -0.05937686 0.2657209
v 0.2452741 -0.08202524 0.2534506
v 0.2974789 -0.06551208 0.2534505
v 0.2994047 -0.05441224 0.2657208
v 0.286719 -0.08219536 0.2534506
v 0.2437304 -0.08893934 0.265721
v 0.3055399 -0.0579544 0.2534504
v 0.3016578 -0.04737875 0.2657207
v 0.3045632 -0.07778251 0.2534505
v 0.286719 -0.0892797 0.265721
v 0.2452741 -0.08202524 0.2779915
v 0.286719 -0.08219536 0.2779915
v 0.2483614 -0.06819703 0.2779915
v 0.3081054 -0.08391772 0.2657209
v 0.3178103 -0.06503873 0.2534504
v 0.3087421 -0.04737875 0.2534503
v 0.286719 -0.06802671 0.2779915
v 0.2499051 -0.06128293 0.265721
v 0.286719 -0.06094237 0.265721
v 0.3045632 -0.07778251 0.2779914
v 0.2974789 -0.06551208 0.2779914
v 0.2939367 -0.05937686 0.2657209
v 0.3239455 -0.0685809 0.2657208
v 0.3055399 -0.0579544 0.2779912
v 0.2994047 -0.05441224 0.2657208
v 0.3178104 -0.06503873 0.2779912
v 0.3229108 -0.04737874 0.2534503
v 0.3087421 -0.04737875 0.2779911
v 0.3016578 -0.04737875 0.2657207
v 0.3016577 0.04737914 0.2657207
v 0.3299952 -0.04737873 0.2657207
v 0.3229108 -0.04737874 0.2779911
v 0.308742 0.04737914 0.2779911
v 0.2994046 0.05441262 0.2657208
v 0.3229107 0.04737915 0.2779911
v 0.3055398 0.0579548 0.2779912
v 0.2939366 0.05937725 0.2657209
v 0.329995 0.04737916 0.2657207
v 0.2974788 0.06551246 0.2779914
v 0.2867188 0.06094274 0.265721
v 0.3178102 0.06503913 0.2779912
v 0.3229107 0.04737915 0.2534503
v 0.2867188 0.06802707 0.2779915
v 0.249905 0.06128324 0.265721
v 0.2483613 0.06819735 0.2779915
v 0.3239454 0.0685813 0.2657208
v 0.3045631 0.07778288 0.2779914
v 0.2867188 0.08219574 0.2779915
v 0.2452739 0.08202554 0.2779915
v 0.308742 0.04737914 0.2534503
v 0.3016577 0.04737914 0.2657207
v 0.3178102 0.06503913 0.2534504
v 0.3081053 0.08391809 0.2657209
v 0.2867188 0.08928008 0.265721
v 0.2437303 0.08893964 0.265721
v 0.3055398 0.0579548 0.2534504
v 0.2994046 0.05441262 0.2657208
v 0.3045631 0.07778288 0.2534505
v 0.2867188 0.08219574 0.2534506
v 0.2452739 0.08202554 0.2534506
v 0.2974788 0.06551245 0.2534505
v 0.2939366 0.05937725 0.2657209
v 0.2867188 0.06802707 0.2534506
v 0.2483613 0.06819734 0.2534506
v 0.2867188 0.06094274 0.265721
v 0.249905 0.06128324 0.265721
v -0.2867188 -0.06094275 0.265721
v -0.2483614 -0.06819735 0.2534506
v -0.2499051 -0.06128326 0.265721
v -0.2867188 -0.06802709 0.2534506
v -0.2939366 -0.05937725 0.2657209
v -0.2452739 -0.08202557 0.2534506
v -0.2974787 -0.06551246 0.2534505
v -0.2994046 -0.05441263 0.2657208
v -0.2867188 -0.08219576 0.2534506
v -0.2437303 -0.08893967 0.265721
v -0.3055398 -0.0579548 0.2534504
v -0.3016577 -0.04737914 0.2657207
v -0.3045631 -0.0777829 0.2534505
v -0.2867188 -0.08928009 0.265721
v -0.2452739 -0.08202557 0.2779915
v -0.2867188 -0.08219576 0.2779915
v -0.2483614 -0.06819736 0.2779915
v -0.3081053 -0.08391811 0.2657209
v -0.3178102 -0.06503914 0.2534504
v -0.308742 -0.04737915 0.2534502
v -0.2867188 -0.06802709 0.2779915
v -0.2499051 -0.06128326 0.265721
v -0.2867188 -0.06094275 0.265721
v -0.3045631 -0.0777829 0.2779914
v -0.2974787 -0.06551247 0.2779914
v -0.2939366 -0.05937725 0.2657209
v -0.3239455 -0.06858131 0.2657208
v -0.3055398 -0.0579548 0.2779912
v -0.2994046 -0.05441263 0.2657208
v -0.3178102 -0.06503914 0.2779912
v -0.3229106 -0.04737916 0.2534502
v -0.308742 -0.04737915 0.2779911
v -0.3016577 -0.04737914 0.2657207
v -0.3016578 0.04737875 0.2657207
v -0.329995 -0.04737917 0.2657207
v -0.3229106 -0.04737916 0.2779911
v -0.3087422 0.04737874 0.2779911
v -0.2994047 0.05441223 0.2657208
v -0.3229108 0.04737873 0.2779911
v -0.3055399 0.05795439 0.2779912
v -0.2939367 0.05937685 0.2657209
v -0.3299952 0.04737872 0.2657207
v -0.2974789 0.06551207 0.2779914
v -0.286719 0.06094236 0.265721
v -0.3178104 0.06503871 0.2779912
v -0.3229108 0.04737873 0.2534502
v -0.286719 0.06802669 0.2779915
v -0.2499051 0.06128291 0.265721
v -0.2483614 0.06819702 0.2779915
v -0.3239455 0.06858088 0.2657208
v -0.3045632 0.0777825 0.2779914
v -0.286719 0.08219536 0.2779915
v -0.2452741 0.08202522 0.2779915
v -0.3087422 0.04737874 0.2534502
v -0.3016578 0.04737875 0.2657207
v -0.3178104 0.06503871 0.2534504
v -0.3081053 0.0839177 0.2657209
v -0.286719 0.08927969 0.265721
v -0.2437304 0.08893932 0.265721
v -0.3055399 0.05795439 0.2534504
v -0.2994047 0.05441223 0.2657208
v -0.3045632 0.0777825 0.2534505
v -0.286719 0.08219536 0.2534506
v -0.2452741 0.08202522 0.2534506
v -0.2974789 0.06551206 0.2534505
v -0.2939367 0.05937685 0.2657209
v -0.286719 0.06802668 0.2534506
v -0.2483614 0.06819701 0.2534506
v -0.286719 0.06094236 0.265721
v -0.2499051 0.06128291 0.265721
v 0.09234974 -0.2229516 0.02628403
v 0.08167347 -0.1971768 0.01495016
v 0.1509127 -0.1509126 0.01495016
v -6.519253E-09 -7.916245E-09 0.01495013
v 0.1706399 -0.1706397 0.02628403
v 1.54238E-07 -0.2413211 0.02628403
v 0.1971769 -0.08167324 0.01495016
v 0.2229517 -0.09234946 0.02628403
v 1.362899E-07 -0.2134227 0.01495016
v -0.09234945 -0.2229517 0.02628403
v 0.2134227 1.357079E-07 0.01495016
v 0.2413211 1.535395E-07 0.02628403
v -0.08167324 -0.1971769 0.01495016
v -0.1706397 -0.1706399 0.02628403
v 0.1971768 0.0816735 0.01495016
v 0.2229515 0.09234975 0.02628403
v -0.1509126 -0.1509127 0.01495016
v 0.1509126 0.1509127 0.01495016
v -0.1971768 -0.08167352 0.01495016
v -0.2229515 -0.09234975 0.02628403
v 0.1706397 0.1706399 0.02628403
v -0.2413211 -1.612229E-07 0.02628403
v 0.08167319 0.1971769 0.01495016
v 0.09234944 0.2229517 0.02628403
v -0.2134227 -1.433913E-07 0.01495016
v -0.2229517 0.09234944 0.02628403
v -1.428092E-07 0.2134227 0.01495016
v -1.605826E-07 0.2413211 0.02628403
v -0.1971769 0.08167323 0.01495016
v -0.1706399 0.1706397 0.02628403
v -0.08167352 0.1971768 0.01495016
v -0.09234975 0.2229516 0.02628403
v -0.1509127 0.1509126 0.01495016
v 0.1807485 -0.1807482 0.0113338
v 0.08714419 -0.2103842 -3.72529E-08
v 0.09782045 -0.236159 0.0113338
v 0.1610213 -0.1610211 -3.72529E-08
v 2.808042E-09 1.829953E-15 0
v 0.2361591 -0.09782016 0.0113338
v 1.493314E-07 -0.2277184 -3.72529E-08
v 1.675123E-07 -0.2556167 0.0113338
v 0.2103844 -0.08714393 -3.72529E-08
v 0.2556167 1.627393E-07 0.0113338
v -0.08714391 -0.2103844 -3.72529E-08
v -0.09782015 -0.2361591 0.0113338
v 0.2277184 1.445584E-07 -3.72529E-08
v 0.236159 0.09782044 0.0113338
v -0.1610211 -0.1610213 -3.72529E-08
v -0.1807482 -0.1807485 0.0113338
v 0.2103842 0.08714418 -3.72529E-08
v -0.2103842 -0.0871442 -3.72529E-08
v 0.1610211 0.1610213 -3.72529E-08
v 0.1807482 0.1807485 0.0113338
v -0.236159 -0.09782046 0.0113338
v 0.09782015 0.2361591 0.0113338
v -0.2277184 -1.522418E-07 -3.72529E-08
v -0.2556167 -1.704227E-07 0.0113338
v 0.08714391 0.2103844 -3.72529E-08
v -1.656497E-07 0.2556167 0.0113338
v -0.2103844 0.08714391 -3.72529E-08
v -0.2361591 0.09782014 0.0113338
v -1.474688E-07 0.2277184 -3.72529E-08
v -0.09782045 0.236159 0.0113338
v -0.1610213 0.1610211 -3.72529E-08
v -0.1807485 0.1807482 0.0113338
v -0.08714419 0.2103842 -3.72529E-08
v 0.1788112 -0.1788109 0.3234296
v 0.1889197 -0.1889194 0.3234296
v 0.1022427 -0.2468353 0.3234296
v 0.2336279 -0.09677169 0.3234296
v 0.09677199 -0.2336278 0.3234296
v 0.2468354 -0.1022424 0.3234296
v 1.750431E-07 -0.2671726 0.3234296
v 0.252877 1.609539E-07 0.3234296
v 1.657269E-07 -0.252877 0.3234296
v 0.2671726 1.702701E-07 0.3234296
v -0.1022424 -0.2468354 0.3234296
v 0.2336278 0.09677199 0.3234296
v -0.09677169 -0.2336279 0.3234296
v 0.2468353 0.1022427 0.3234296
v -0.1889194 -0.1889197 0.3234296
v 0.1788109 0.1788112 0.3234296
v -0.1788109 -0.1788112 0.3234296
v 0.1889194 0.1889197 0.3234296
v -0.2468353 -0.1022427 0.3234296
v 0.09677169 0.2336279 0.3234296
v -0.2336278 -0.096772 0.3234296
v 0.1022424 0.2468354 0.3234296
v -0.2671726 -1.779535E-07 0.3234296
v -1.638643E-07 0.252877 0.3234296
v -0.252877 -1.686373E-07 0.3234296
v -1.731805E-07 0.2671726 0.3234296
v -0.2468354 0.1022424 0.3234296
v -0.09677199 0.2336278 0.3234296
v -0.2336279 0.09677169 0.3234296
v -0.1022427 0.2468353 0.3234296
v -0.1889197 0.1889194 0.3234296
v -0.1788112 0.1788109 0.3234296
vt 0.9873474 0.08932228
vt 0.960216 0.1645121
vt 0.9873474 0.1645121
vt 0.960216 0.08932228
vt 0.9330846 0.1645121
vt 0.960216 0.08147866
vt 0.9873474 0.08147866
vt 0.9330846 0.08147866
vt 0.9330846 0.08932227
vt 0.9059533 0.1645121
vt 0.9059533 0.08147866
vt 0.9059533 0.08932227
vt 0.8788219 0.1645121
vt 0.8788219 0.08147866
vt 0.8788219 0.08932227
vt 0.8516905 0.1645121
vt 0.8516905 0.08147865
vt 0.8516905 0.08932226
vt 0.8245592 0.1645121
vt 0.8245592 0.08147865
vt 0.8245592 0.08932226
vt 0.7974278 0.1645121
vt 0.7974278 0.08147865
vt 0.7974278 0.08932226
vt 0.7702964 0.1645121
vt 0.7702964 0.08147864
vt 0.7702965 0.08932225
vt 0.7431651 0.1645121
vt 0.7431651 0.08147864
vt 0.7431651 0.08932225
vt 0.7160338 0.1645121
vt 0.7160338 0.08147864
vt 0.7160337 0.08932225
vt 0.6889023 0.1645121
vt 0.6889024 0.08147863
vt 0.6889024 0.08932225
vt 0.661771 0.1645121
vt 0.661771 0.08147863
vt 0.661771 0.08932225
vt 0.6346396 0.1645121
vt 0.6346396 0.08147863
vt 0.6346396 0.08932225
vt 0.6075082 0.1645121
vt 0.6075082 0.08147863
vt 0.6075083 0.08932224
vt 0.5803769 0.1645121
vt 0.5803769 0.08147863
vt 0.5803769 0.08932224
vt 0.5532455 0.1645121
vt 0.5532456 0.08147863
vt 0.5532456 0.08932224
vt 0.2359894 0.2455849
vt 0.2103234 0.1743219
vt 0.2103234 0.2455849
vt 0.2359894 0.1743219
vt 0.2103234 0.1664759
vt 0.2616554 0.2455849
vt 0.2359894 0.1664759
vt 0.2616554 0.1743219
vt 0.2873214 0.2455849
vt 0.2616554 0.1664759
vt 0.2873212 0.1743219
vt 0.3129872 0.2455849
vt 0.2873214 0.1664759
vt 0.3129872 0.1743219
vt 0.3386533 0.2455849
vt 0.3129872 0.1664759
vt 0.3386533 0.1743219
vt 0.3643193 0.2455849
vt 0.3386533 0.166476
vt 0.3643193 0.1743219
vt 0.3899853 0.2455849
vt 0.3643193 0.166476
vt 0.3899853 0.1743219
vt 0.4156512 0.2455849
vt 0.3899853 0.166476
vt 0.4156512 0.1743219
vt 0.4413172 0.2455849
vt 0.4156512 0.166476
vt 0.4413172 0.1743219
vt 0.4669832 0.2455849
vt 0.4413172 0.166476
vt 0.4669832 0.1743219
vt 0.4926491 0.2455849
vt 0.4669832 0.166476
vt 0.4926492 0.1743219
vt 0.5183151 0.2455849
vt 0.4926491 0.166476
vt 0.5183151 0.1743219
vt 0.5439811 0.2455849
vt 0.5183152 0.166476
vt 0.5439812 0.1743219
vt 0.5696471 0.2455849
vt 0.5439811 0.166476
vt 0.569647 0.1743219
vt 0.5953132 0.2455849
vt 0.5696471 0.1664761
vt 0.5953131 0.1743219
vt 0.6209791 0.2455849
vt 0.5953132 0.1664761
vt 0.620979 0.1743219
vt 0.6209791 0.1664761
vt 0.4088351 0.2698567
vt 0.4193869 0.2698567
vt 0.4193869 0.2661507
vt 0.4088351 0.2661508
vt 0.4048491 0.2698566
vt 0.4193869 0.2624449
vt 0.4048491 0.2661508
vt 0.4011371 0.2698566
vt 0.4088351 0.2624451
vt 0.4193869 0.2587391
vt 0.4011371 0.2661508
vt 0.3974251 0.2698566
vt 0.4048491 0.2624451
vt 0.4088351 0.2587392
vt 0.4193869 0.2550333
vt 0.4088351 0.2550333
vt 0.4193869 0.2513275
vt 0.4048491 0.2587392
vt 0.4011371 0.2624451
vt 0.397425 0.2661508
vt 0.4088351 0.2513275
vt 0.4193869 0.2476216
vt 0.4088351 0.2476216
vt 0.4048491 0.2550333
vt 0.4048491 0.2513275
vt 0.4048491 0.2476216
vt 0.4011371 0.2587392
vt 0.4011371 0.2513275
vt 0.4011371 0.2476216
vt 0.4011371 0.2550333
vt 0.397425 0.2624451
vt 0.397425 0.2513275
vt 0.3974251 0.2476216
vt 0.372641 0.2476216
vt 0.3974251 0.2587391
vt 0.397425 0.2550333
vt 0.372641 0.2513275
vt 0.3689289 0.2476216
vt 0.372641 0.2550333
vt 0.3689289 0.2513275
vt 0.3652169 0.2476216
vt 0.372641 0.2587391
vt 0.3652169 0.2513275
vt 0.3612309 0.2476216
vt 0.3689289 0.2550333
vt 0.372641 0.2624451
vt 0.361231 0.2513275
vt 0.3506791 0.2476216
vt 0.3506791 0.2513275
vt 0.3689289 0.2587392
vt 0.3652169 0.2550333
vt 0.361231 0.2550333
vt 0.3506791 0.2550333
vt 0.372641 0.2661508
vt 0.372641 0.2698567
vt 0.3689289 0.2624451
vt 0.3652169 0.2587392
vt 0.361231 0.2587392
vt 0.3506791 0.2587391
vt 0.3689289 0.2661508
vt 0.3689289 0.2698566
vt 0.3652169 0.2624451
vt 0.361231 0.2624451
vt 0.3506791 0.2624449
vt 0.3652169 0.2661508
vt 0.3652169 0.2698566
vt 0.361231 0.2661508
vt 0.3506791 0.2661507
vt 0.3612309 0.2698567
vt 0.3506791 0.2698567
vt 1.408835 0.2698567
vt 1.419387 0.2661507
vt 1.419387 0.2698567
vt 1.408835 0.2661508
vt 1.404849 0.2698566
vt 1.419387 0.2624449
vt 1.404849 0.2661508
vt 1.401137 0.2698566
vt 1.408835 0.2624451
vt 1.419387 0.2587391
vt 1.401137 0.2661508
vt 1.397425 0.2698566
vt 1.404849 0.2624451
vt 1.408835 0.2587392
vt 1.419387 0.2550333
vt 1.408835 0.2550333
vt 1.419387 0.2513275
vt 1.404849 0.2587392
vt 1.401137 0.2624451
vt 1.397425 0.2661508
vt 1.408835 0.2513275
vt 1.419387 0.2476216
vt 1.408835 0.2476216
vt 1.404849 0.2550333
vt 1.404849 0.2513275
vt 1.404849 0.2476216
vt 1.401137 0.2587392
vt 1.401137 0.2513275
vt 1.401137 0.2476216
vt 1.401137 0.2550333
vt 1.397425 0.2624451
vt 1.397425 0.2513275
vt 1.397425 0.2476216
vt 1.372641 0.2476216
vt 1.397425 0.2587391
vt 1.397425 0.2550333
vt 1.372641 0.2513275
vt 1.368929 0.2476216
vt 1.372641 0.2550333
vt 1.368929 0.2513275
vt 1.365217 0.2476216
vt 1.372641 0.2587391
vt 1.365217 0.2513275
vt 1.361231 0.2476216
vt 1.368929 0.2550333
vt 1.372641 0.2624451
vt 1.361231 0.2513275
vt 1.350679 0.2476216
vt 1.350679 0.2513275
vt 1.368929 0.2587392
vt 1.365217 0.2550333
vt 1.361231 0.2550333
vt 1.350679 0.2550333
vt 1.372641 0.2661508
vt 1.372641 0.2698567
vt 1.368929 0.2624451
vt 1.365217 0.2587392
vt 1.361231 0.2587392
vt 1.350679 0.2587391
vt 1.368929 0.2661508
vt 1.368929 0.2698566
vt 1.365217 0.2624451
vt 1.361231 0.2624451
vt 1.350679 0.2624449
vt 1.365217 0.2661508
vt 1.365217 0.2698566
vt 1.361231 0.2661508
vt 1.350679 0.2661507
vt 1.361231 0.2698567
vt 1.350679 0.2698567
vt 0.637165 0.5170805
vt 0.6437961 0.5214893
vt 0.6592352 0.5060602
vt 0.6902992 0.5525837
vt 0.6547961 0.4994494
vt 0.6276231 0.5401167
vt 0.6794037 0.497714
vt 0.6778321 0.4899076
vt 0.6354364 0.5416522
vt 0.6276231 0.5650507
vt 0.7012308 0.4977211
vt 0.7027662 0.4899076
vt 0.6354293 0.5634794
vt 0.637165 0.5880869
vt 0.7213936 0.5060806
vt 0.7258022 0.4994495
vt 0.6437756 0.5836477
vt 0.7368227 0.5215197
vt 0.6592047 0.5990869
vt 0.6547961 0.6057179
vt 0.7434335 0.5170805
vt 0.6778321 0.6152598
vt 0.7451689 0.5416881
vt 0.7529752 0.5401167
vt 0.6793676 0.6074464
vt 0.7027662 0.6152598
vt 0.7451617 0.5635153
vt 0.7529752 0.5650508
vt 0.7011947 0.6074535
vt 0.7258022 0.605718
vt 0.7368022 0.5836782
vt 0.7434335 0.5880869
vt 0.7213631 0.5991072
vt 0.4490182 0.8570511
vt 0.4290387 0.8403176
vt 0.4246294 0.8469476
vt 0.4505549 0.8492386
vt 0.4622209 0.7906939
vt 0.4754172 0.8570526
vt 0.4125744 0.8238419
vt 0.4059635 0.8282797
vt 0.473847 0.8492466
vt 0.4998071 0.8469514
vt 0.4036685 0.8023196
vt 0.3958623 0.8038899
vt 0.4953692 0.8403404
vt 0.5184749 0.8282854
vt 0.4036763 0.7790276
vt 0.3958635 0.7774911
vt 0.5118449 0.8238761
vt 0.4125973 0.7575114
vt 0.5207657 0.8023601
vt 0.5285785 0.8038965
vt 0.4059672 0.7531021
vt 0.5285797 0.7774976
vt 0.429073 0.7410471
vt 0.4246351 0.7344362
vt 0.5207739 0.7790679
vt 0.5184787 0.7531077
vt 0.4505953 0.732141
vt 0.449025 0.7243351
vt 0.5118678 0.7575458
vt 0.4998129 0.7344401
vt 0.4738874 0.732149
vt 0.4754238 0.7243364
vt 0.4954033 0.7410699
vt 0.1377764 0.8040571
vt 0.1414563 0.804789
vt 0.1414563 0.7774283
vt 0.1278661 0.8279827
vt 0.1377764 0.7781602
vt 0.1309858 0.8300672
vt 0.1309858 0.7521502
vt 0.1095543 0.8462944
vt 0.1278661 0.7542347
vt 0.1116388 0.8494141
vt 0.1116388 0.7328032
vt 0.08562866 0.8562047
vt 0.1095543 0.735923
vt 0.08636072 0.8598846
vt 0.08636073 0.7223328
vt 0.05973187 0.8562047
vt 0.08562867 0.7260128
vt 0.05899993 0.8598846
vt 0.05899993 0.7223328
vt 0.03580645 0.8462944
vt 0.05973206 0.7260128
vt 0.03372189 0.8494141
vt 0.0337219 0.7328032
vt 0.01749459 0.8279825
vt 0.03580645 0.735923
vt 0.01437488 0.8300672
vt 0.01437507 0.7521502
vt 0.007584486 0.8040571
vt 0.01749477 0.7542347
vt 0.003904376 0.804789
vt 0.003904377 0.7774283
vt 0.007584487 0.7781602
vn 0.9810328 6.210738E-07 -0.1938417
vn 0.9238797 -0.3826829 0
vn 1 6.577112E-07 0
vn 0.9063565 -0.3754245 -0.1938415
vn 0.7071072 -0.7071063 0
vn 0.6697046 -0.2774003 -0.6888722
vn 0.7248827 4.532992E-07 -0.6888723
vn 0.5125699 -0.5125691 -0.6888722
vn 0.6936954 -0.6936945 -0.1938414
vn 0.3826841 -0.9238792 0
vn 0.277401 -0.6697041 -0.6888724
vn 0.3754256 -0.9063559 -0.1938417
vn 5.996778E-07 -1 0
vn 4.398879E-07 -0.7248825 -0.6888725
vn 5.857281E-07 -0.9810327 -0.1938418
vn -0.3826829 -0.9238797 0
vn -0.2774002 -0.6697046 -0.6888722
vn -0.3754245 -0.9063565 -0.1938414
vn -0.7071063 -0.7071072 0
vn -0.5125693 -0.51257 -0.688872
vn -0.6936945 -0.6936954 -0.1938412
vn -0.9238792 -0.3826841 0
vn -0.6697042 -0.2774011 -0.6888722
vn -0.906356 -0.3754257 -0.1938415
vn -1 -6.577112E-07 0
vn -0.7248827 -4.318412E-07 -0.6888723
vn -0.9810328 -6.109751E-07 -0.1938417
vn -0.9238797 0.3826829 0
vn -0.6697046 0.2774002 -0.6888723
vn -0.9063565 0.3754245 -0.1938416
vn -0.7071072 0.7071062 0
vn -0.5125699 0.5125691 -0.6888723
vn -0.6936955 0.6936944 -0.1938415
vn -0.3826841 0.9238792 0
vn -0.277401 0.6697041 -0.6888724
vn -0.3754256 0.9063559 -0.1938417
vn -5.706611E-07 1 0
vn -4.398879E-07 0.7248825 -0.6888725
vn -5.705799E-07 0.9810327 -0.1938418
vn 0.3826829 0.9238797 0
vn 0.2774002 0.6697046 -0.6888722
vn 0.3754245 0.9063565 -0.1938414
vn 0.7071063 0.7071072 0
vn 0.5125693 0.51257 -0.688872
vn 0.6936945 0.6936954 -0.1938412
vn 0.9238793 0.3826841 0
vn 0.6697041 0.277401 -0.6888723
vn 0.906356 0.3754256 -0.1938416
vn 1 6.577112E-07 0
vn 0.7248827 4.532992E-07 -0.6888723
vn 0.9810328 6.210738E-07 -0.1938417
vn -0.9238798 0.3826828 0
vn -0.9810327 -6.362218E-07 0.1938417
vn -1 -5.900056E-07 0
vn -0.9063565 0.3754245 0.1938416
vn -0.724883 -5.149907E-07 0.688872
vn -0.7071072 0.7071062 0
vn -0.6697046 0.2774003 0.688872
vn -0.6936954 0.6936945 0.1938418
vn -0.3826841 0.9238793 0
vn -0.5125699 0.5125691 0.6888723
vn -0.3754256 0.906356 0.1938419
vn -6.383667E-07 1 0
vn -0.2774011 0.6697043 0.6888722
vn -6.261231E-07 0.9810328 0.1938416
vn 0.3826828 0.9238798 0
vn -4.801216E-07 0.7248831 0.6888719
vn 0.3754244 0.9063563 0.1938417
vn 0.7071063 0.7071072 0
vn 0.2774002 0.6697046 0.6888722
vn 0.6936945 0.6936954 0.1938419
vn 0.9238793 0.3826841 0
vn 0.5125691 0.51257 0.6888722
vn 0.906356 0.3754256 0.1938418
vn 1 5.706611E-07 0
vn 0.6697043 0.2774012 0.6888721
vn 0.9810327 6.261231E-07 0.1938417
vn 0.9238798 -0.3826828 0
vn 0.724883 5.042617E-07 0.6888721
vn 0.9063565 -0.3754244 0.1938418
vn 0.7071073 -0.7071062 0
vn 0.6697046 -0.2774002 0.6888721
vn 0.6936954 -0.6936945 0.1938421
vn 0.3826841 -0.9238793 0
vn 0.5125699 -0.5125691 0.6888723
vn 0.3754255 -0.9063559 0.193842
vn 6.190223E-07 -1 0
vn 0.2774011 -0.6697041 0.6888723
vn 5.85728E-07 -0.9810328 0.1938415
vn -0.3826829 -0.9238798 0
vn 4.345234E-07 -0.7248831 0.6888719
vn -0.3754244 -0.9063565 0.1938416
vn -0.7071062 -0.7071072 0
vn -0.2774002 -0.6697048 0.688872
vn -0.6936945 -0.6936954 0.1938418
vn -0.9238793 -0.382684 0
vn -0.5125692 -0.5125699 0.6888721
vn -0.906356 -0.3754256 0.1938418
vn -1 -5.900056E-07 0
vn -0.6697043 -0.2774011 0.688872
vn -0.9810327 -6.362218E-07 0.1938417
vn -0.724883 -5.149907E-07 0.688872
vn -0.1187104 0.9929289 1.655063E-06
vn -0.006796053 0.999977 -4.480102E-07
vn -0.003057084 0.4497985 -0.8931248
vn -0.05272437 0.4725159 -0.8797436
vn -0.4629091 0.8864058 -9.243235E-07
vn -0.003352919 -0.5544935 -0.8321812
vn -0.2027961 0.3821261 -0.9015838
vn -0.8440939 0.5361953 -6.439099E-07
vn 0.06569751 -0.5271921 -0.8472026
vn -0.0060462 -0.9999818 -5.853784E-07
vn -0.3666897 0.2295332 -0.9015837
vn -0.9875601 0.1572423 -3.060101E-06
vn 0.2694066 -0.4879179 -0.8302748
vn 0.114258 -0.9934511 2.973665E-07
vn -0.003352573 -0.5544937 0.8321812
vn 0.06570358 -0.5271903 0.8472032
vn -0.003057041 0.4497994 0.8931243
vn 0.4859526 -0.8739851 -9.683093E-07
vn 0.4772716 -0.2878457 -0.8302751
vn -0.459478 0.06639518 -0.8857041
vn -0.0527147 0.4725172 0.8797435
vn -0.006796053 0.999977 -4.480102E-07
vn -0.1187104 0.9929289 1.655063E-06
vn 0.2694159 -0.4879136 0.8302743
vn -0.2027819 0.3821346 0.9015835
vn -0.4629091 0.8864058 -9.243235E-07
vn 0.8578402 -0.5139165 -1.152166E-06
vn -0.3666827 0.2295476 0.901583
vn -0.8440939 0.5361953 -6.439099E-07
vn 0.4772773 -0.2878374 0.8302747
vn 0.5279593 -0.07777946 -0.8457005
vn -0.4594781 0.06640431 0.8857033
vn -0.9875601 0.1572423 -3.060101E-06
vn -0.9875599 -0.1572438 -3.259902E-06
vn 0.9910547 -0.1334563 -1.762784E-06
vn 0.527962 -0.07777428 0.8456994
vn -0.4594781 -0.06640498 0.8857033
vn -0.8440937 -0.5361958 -1.204734E-06
vn 0.5279623 0.07777481 0.8456991
vn -0.3666816 -0.2295479 0.9015832
vn -0.4629089 -0.8864058 -8.620091E-07
vn 0.9910545 0.1334579 -1.785824E-06
vn -0.2027817 -0.3821349 0.9015833
vn -0.1187095 -0.992929 2.005173E-06
vn 0.4772773 0.2878377 0.8302746
vn 0.527959 0.0777805 -0.8457006
vn -0.05271471 -0.4725168 0.8797437
vn -0.006794403 -0.999977 -5.70195E-07
vn -0.003056195 -0.449799 0.8931245
vn 0.8578398 0.5139171 -1.115395E-06
vn 0.2694153 0.4879135 0.8302746
vn 0.06570309 0.5271903 0.8472033
vn -0.003353337 0.554494 0.832181
vn -0.4594781 -0.06639621 -0.885704
vn -0.9875599 -0.1572438 -3.259902E-06
vn 0.4772713 0.2878463 -0.830275
vn 0.4859524 0.8739853 -7.231681E-07
vn 0.1142574 0.9934511 3.316781E-07
vn -0.006047552 0.9999818 -6.790387E-07
vn -0.3666896 -0.2295334 -0.9015837
vn -0.8440937 -0.5361958 -1.204734E-06
vn 0.2694057 0.4879175 -0.8302752
vn 0.06569695 0.5271922 -0.8472027
vn -0.003353717 0.5544937 -0.8321812
vn -0.2027965 -0.3821262 -0.9015836
vn -0.4629089 -0.8864058 -8.620091E-07
vn -0.05272391 -0.472516 -0.8797436
vn -0.003056516 -0.449798 -0.893125
vn -0.1187095 -0.992929 2.005173E-06
vn -0.006794403 -0.999977 -5.70195E-07
vn 0.1187094 0.992929 1.973345E-06
vn 0.003056094 0.4497983 -0.8931249
vn 0.006794787 0.999977 -5.905587E-07
vn 0.05272371 0.4725161 -0.8797435
vn 0.4629102 0.8864052 -6.750668E-07
vn 0.003353158 -0.5544935 -0.8321814
vn 0.2027976 0.3821263 -0.9015834
vn 0.8440939 0.5361953 -9.658658E-07
vn -0.06569714 -0.5271922 -0.8472027
vn 0.006047438 -0.9999818 -4.448866E-07
vn 0.3666903 0.2295323 -0.9015837
vn 0.9875599 0.1572438 -2.912881E-06
vn -0.2694052 -0.4879184 -0.830275
vn -0.1142572 -0.9934512 4.574871E-07
vn 0.003353339 -0.5544939 0.832181
vn -0.06570295 -0.5271903 0.8472033
vn 0.003056422 0.4497988 0.8931248
vn -0.4859522 -0.8739854 -4.657693E-07
vn -0.4772712 -0.2878463 -0.830275
vn 0.4594772 0.06639601 -0.8857044
vn 0.05271459 0.4725168 0.8797437
vn 0.006794787 0.999977 -5.905587E-07
vn 0.1187094 0.992929 1.973345E-06
vn -0.2694151 -0.4879133 0.8302748
vn 0.202782 0.3821353 0.9015831
vn 0.4629102 0.8864052 -6.750668E-07
vn -0.85784 -0.5139169 -4.902838E-07
vn 0.3666817 0.2295477 0.9015833
vn 0.8440939 0.5361953 -9.658658E-07
vn -0.4772772 -0.2878374 0.8302747
vn -0.5279583 -0.07777972 -0.845701
vn 0.4594765 0.06640477 0.885704
vn 0.9875599 0.1572438 -2.912881E-06
vn 0.98756 -0.1572427 -2.513279E-06
vn -0.9910546 -0.1334575 -9.332386E-07
vn -0.5279608 -0.07777467 0.8457
vn 0.4594772 -0.0664041 0.8857038
vn 0.8440937 -0.5361956 -2.180987E-07
vn -0.5279612 0.07777414 0.8456998
vn 0.366683 -0.2295473 0.9015828
vn 0.4629103 -0.8864052 -5.712104E-07
vn -0.9910547 0.1334565 -9.447604E-07
vn 0.2027822 -0.3821352 0.901583
vn 0.1187102 -0.9929289 1.708109E-06
vn -0.4772776 0.2878377 0.8302743
vn -0.5279592 0.07777984 -0.8457006
vn 0.05271473 -0.4725174 0.8797435
vn 0.006795806 -0.999977 -6.109242E-07
vn 0.003056818 -0.4497997 0.8931242
vn -0.8578399 0.513917 -5.393106E-07
vn -0.2694162 0.487914 0.830274
vn -0.06570359 0.5271904 0.8472032
vn 0.003352576 0.5544943 0.8321808
vn 0.4594772 -0.06639538 -0.8857045
vn 0.98756 -0.1572427 -2.513279E-06
vn -0.4772723 0.2878469 -0.8302742
vn -0.4859523 0.8739853 -6.128535E-07
vn -0.1142581 0.9934511 3.202408E-07
vn 0.006046085 0.9999818 -5.385487E-07
vn 0.3666905 -0.2295326 -0.9015835
vn 0.8440937 -0.5361956 -2.180987E-07
vn -0.2694066 0.4879188 -0.8302742
vn -0.06569784 0.5271921 -0.8472026
vn 0.003352367 0.5544937 -0.8321812
vn 0.2027974 -0.3821267 -0.9015833
vn 0.4629103 -0.8864052 -5.712104E-07
vn 0.05272397 -0.4725164 -0.8797433
vn 0.003056558 -0.4497993 -0.8931245
vn 0.1187102 -0.9929289 1.708109E-06
vn 0.006795806 -0.999977 -6.109242E-07
vn -0.2774011 0.6697043 0.6888722
vn -0.0821282 0.1982746 0.9766996
vn -0.1517529 0.1517528 0.9766997
vn 0 0 1
vn -0.5125699 0.5125691 0.6888723
vn -4.801216E-07 0.7248831 0.6888719
vn -0.1982747 0.08212799 0.9766996
vn -0.6697046 0.2774003 0.688872
vn -1.533289E-07 0.2146111 0.9766996
vn 0.2774002 0.6697046 0.6888722
vn -0.214611 -1.507133E-07 0.9766996
vn -0.724883 -5.149907E-07 0.688872
vn 0.08212801 0.1982748 0.9766996
vn 0.5125691 0.51257 0.6888722
vn -0.1982747 -0.08212826 0.9766996
vn -0.6697043 -0.2774011 0.688872
vn 0.1517529 0.151753 0.9766996
vn -0.1517528 -0.1517529 0.9766997
vn 0.1982747 0.0821283 0.9766996
vn 0.6697043 0.2774012 0.6888721
vn -0.5125692 -0.5125699 0.6888721
vn 0.724883 5.042617E-07 0.6888721
vn -0.0821279 -0.1982747 0.9766997
vn -0.2774002 -0.6697048 0.688872
vn 0.214611 1.458516E-07 0.9766996
vn 0.6697046 -0.2774002 0.6888721
vn 1.409899E-07 -0.214611 0.9766996
vn 4.345234E-07 -0.7248831 0.6888719
vn 0.1982748 -0.08212801 0.9766996
vn 0.5125699 -0.5125691 0.6888723
vn 0.0821283 -0.1982747 0.9766996
vn 0.2774011 -0.6697041 0.6888723
vn 0.151753 -0.1517529 0.9766996
vn 0.5125699 -0.5125691 -0.6888722
vn 0.08212794 -0.198274 -0.9766998
vn 0.277401 -0.6697041 -0.6888724
vn 0.1517525 -0.1517523 -0.9766998
vn 0 0 -1
vn 0.6697046 -0.2774003 -0.6888722
vn 1.38559E-07 -0.2146104 -0.9766998
vn 4.398879E-07 -0.7248825 -0.6888725
vn 0.1982742 -0.08212774 -0.9766998
vn 0.7248827 4.532992E-07 -0.6888723
vn -0.08212768 -0.1982741 -0.9766998
vn -0.2774002 -0.6697046 -0.6888722
vn 0.2146105 1.434207E-07 -0.9766997
vn 0.6697041 0.277401 -0.6888723
vn -0.1517523 -0.1517525 -0.9766998
vn -0.5125693 -0.51257 -0.688872
vn 0.1982741 0.08212797 -0.9766998
vn -0.1982741 -0.082128 -0.9766998
vn 0.1517523 0.1517525 -0.9766998
vn 0.5125693 0.51257 -0.688872
vn -0.6697042 -0.2774011 -0.6888722
vn 0.2774002 0.6697046 -0.6888722
vn -0.2146105 -1.361281E-07 -0.9766997
vn -0.7248827 -4.318412E-07 -0.6888723
vn 0.08212768 0.1982741 -0.9766998
vn -4.398879E-07 0.7248825 -0.6888725
vn -0.1982742 0.08212774 -0.9766998
vn -0.6697046 0.2774002 -0.6888723
vn -1.38559E-07 0.2146104 -0.9766998
vn -0.277401 0.6697041 -0.6888724
vn -0.1517526 0.1517523 -0.9766998
vn -0.5125699 0.5125691 -0.6888723
vn -0.08212794 0.198274 -0.9766998
vn -6.547003E-07 0 1
vn -6.547008E-07 0 1
vn -6.547005E-07 0 1
vn 1.309399E-06 0 1
vn -6.547004E-07 0 1
vn 1.3094E-06 0 1
vn 1.636747E-07 0 1
vn 0 0 1
vn 1.636747E-07 0 1
vn 0 0 1
vn 1.636748E-07 0 1
vn -1.309399E-06 0 1
vn 1.636747E-07 0 1
vn -1.309399E-06 0 1
vn 0 0 1
vn 0 0 1
vn 0 0 1
vn 0 0 1
vn 0 0 1
vn -1.636747E-07 0 1
vn 0 0 1
vn -1.636748E-07 0 1
vn 0 0 1
vn -1.636747E-07 0 1
vn 0 0 1
vn -1.636747E-07 0 1
vn 6.546998E-07 0 1
vn 6.547004E-07 0 1
vn 6.547003E-07 0 1
vn 6.547005E-07 0 1
vn 1.309401E-06 0 1
vn 1.3094E-06 0 1
usemtl M_Pot
f 1/1/1 3/3/3 2/2/2 
f 1/1/1 2/2/2 4/4/4 
f 4/4/4 2/2/2 5/5/5 
f 1/1/1 4/4/4 6/6/6 
f 1/1/1 6/6/6 7/7/7 
f 4/4/4 8/8/8 6/6/6 
f 4/4/4 5/5/5 9/9/9 
f 4/4/4 9/9/9 8/8/8 
f 9/9/9 5/5/5 10/10/10 
f 9/9/9 11/11/11 8/8/8 
f 9/9/9 10/10/10 12/12/12 
f 9/9/9 12/12/12 11/11/11 
f 12/12/12 10/10/10 13/13/13 
f 12/12/12 14/14/14 11/11/11 
f 12/12/12 13/13/13 15/15/15 
f 12/12/12 15/15/15 14/14/14 
f 15/15/15 13/13/13 16/16/16 
f 15/15/15 17/17/17 14/14/14 
f 15/15/15 16/16/16 18/18/18 
f 15/15/15 18/18/18 17/17/17 
f 18/18/18 16/16/16 19/19/19 
f 18/18/18 20/20/20 17/17/17 
f 18/18/18 19/19/19 21/21/21 
f 18/18/18 21/21/21 20/20/20 
f 21/21/21 19/19/19 22/22/22 
f 21/21/21 23/23/23 20/20/20 
f 21/21/21 22/22/22 24/24/24 
f 21/21/21 24/24/24 23/23/23 
f 24/24/24 22/22/22 25/25/25 
f 24/24/24 26/26/26 23/23/23 
f 24/24/24 25/25/25 27/27/27 
f 24/24/24 27/27/27 26/26/26 
f 27/27/27 25/25/25 28/28/28 
f 27/27/27 29/29/29 26/26/26 
f 27/27/27 28/28/28 30/30/30 
f 27/27/27 30/30/30 29/29/29 
f 30/30/30 28/28/28 31/31/31 
f 30/30/30 32/32/32 29/29/29 
f 30/30/30 31/31/31 33/33/33 
f 30/30/30 33/33/33 32/32/32 
f 33/33/33 31/31/31 34/34/34 
f 33/33/33 35/35/35 32/32/32 
f 33/33/33 34/34/34 36/36/36 
f 33/33/33 36/36/36 35/35/35 
f 36/36/36 34/34/34 37/37/37 
f 36/36/36 38/38/38 35/35/35 
f 36/36/36 37/37/37 39/39/39 
f 36/36/36 39/39/39 38/38/38 
f 39/39/39 37/37/37 40/40/40 
f 39/39/39 41/41/41 38/38/38 
f 39/39/39 40/40/40 42/42/42 
f 39/39/39 42/42/42 41/41/41 
f 42/42/42 40/40/40 43/43/43 
f 42/42/42 44/44/44 41/41/41 
f 42/42/42 43/43/43 45/45/45 
f 42/42/42 45/45/45 44/44/44 
f 45/45/45 43/43/43 46/46/46 
f 45/45/45 47/47/47 44/44/44 
f 45/45/45 46/46/46 48/48/48 
f 45/45/45 48/48/48 47/47/47 
f 48/48/48 46/46/46 49/49/49 
f 48/48/48 50/50/50 47/47/47 
f 48/48/48 49/49/49 51/51/51 
f 48/48/48 51/51/51 50/50/50 
f 52/52/52 54/54/54 53/53/53 
f 52/52/52 53/53/53 55/55/55 
f 55/55/55 53/53/53 56/56/56 
f 57/57/57 52/52/52 55/55/55 
f 55/55/55 56/56/56 58/58/58 
f 57/57/57 55/55/55 59/59/59 
f 59/59/59 55/55/55 58/58/58 
f 60/60/60 57/57/57 59/59/59 
f 59/59/59 58/58/58 61/61/61 
f 60/60/60 59/59/59 62/62/62 
f 62/62/62 59/59/59 61/61/61 
f 63/63/63 60/60/60 62/62/62 
f 62/62/62 61/61/61 64/64/64 
f 63/63/63 62/62/62 65/65/65 
f 65/65/65 62/62/62 64/64/64 
f 66/66/66 63/63/63 65/65/65 
f 65/65/65 64/64/64 67/67/67 
f 66/66/66 65/65/65 68/68/68 
f 68/68/68 65/65/65 67/67/67 
f 69/69/69 66/66/66 68/68/68 
f 68/68/68 67/67/67 70/70/70 
f 69/69/69 68/68/68 71/71/71 
f 71/71/71 68/68/68 70/70/70 
f 72/72/72 69/69/69 71/71/71 
f 71/71/71 70/70/70 73/73/73 
f 72/72/72 71/71/71 74/74/74 
f 74/74/74 71/71/71 73/73/73 
f 75/75/75 72/72/72 74/74/74 
f 74/74/74 73/73/73 76/76/76 
f 75/75/75 74/74/74 77/77/77 
f 77/77/77 74/74/74 76/76/76 
f 78/78/78 75/75/75 77/77/77 
f 77/77/77 76/76/76 79/79/79 
f 78/78/78 77/77/77 80/80/80 
f 80/80/80 77/77/77 79/79/79 
f 81/81/81 78/78/78 80/80/80 
f 80/80/80 79/79/79 82/82/82 
f 81/81/81 80/80/80 83/83/83 
f 83/83/83 80/80/80 82/82/82 
f 84/84/84 81/81/81 83/83/83 
f 83/83/83 82/82/82 85/85/85 
f 84/84/84 83/83/83 86/86/86 
f 86/86/86 83/83/83 85/85/85 
f 87/87/87 84/84/84 86/86/86 
f 86/86/86 85/85/85 88/88/88 
f 87/87/87 86/86/86 89/89/89 
f 89/89/89 86/86/86 88/88/88 
f 90/90/90 87/87/87 89/89/89 
f 89/89/89 88/88/88 91/91/91 
f 90/90/90 89/89/89 92/92/92 
f 92/92/92 89/89/89 91/91/91 
f 93/93/93 90/90/90 92/92/92 
f 92/92/92 91/91/91 94/94/94 
f 93/93/93 92/92/92 95/95/95 
f 95/95/95 92/92/92 94/94/94 
f 96/96/96 93/93/93 95/95/95 
f 95/95/95 94/94/94 97/97/97 
f 96/96/96 95/95/95 98/98/98 
f 98/98/98 95/95/95 97/97/97 
f 99/99/99 96/96/96 98/98/98 
f 98/98/98 97/97/97 100/100/100 
f 99/99/99 98/98/98 101/101/101 
f 101/101/101 98/98/98 100/100/100 
f 101/101/101 100/100/100 102/102/102 
f 103/103/103 105/105/105 104/104/104 
f 103/103/103 106/106/106 105/105/105 
f 107/107/107 106/106/106 103/103/103 
f 106/106/106 108/108/108 105/105/105 
f 107/107/107 109/109/109 106/106/106 
f 110/110/110 109/109/109 107/107/107 
f 106/106/106 111/111/111 108/108/108 
f 109/109/109 111/111/111 106/106/106 
f 111/111/111 112/112/112 108/108/108 
f 110/110/110 113/113/113 109/109/109 
f 114/114/114 113/113/113 110/110/110 
f 109/109/109 115/115/115 111/111/111 
f 113/113/113 115/115/115 109/109/109 
f 111/111/111 116/116/116 112/112/112 
f 115/115/115 116/116/116 111/111/111 
f 116/116/116 117/117/117 112/112/112 
f 116/116/116 118/118/118 117/117/117 
f 118/118/118 119/119/119 117/117/117 
f 115/115/115 120/120/120 116/116/116 
f 120/120/120 118/118/118 116/116/116 
f 113/113/113 121/121/121 115/115/115 
f 121/121/121 120/120/120 115/115/115 
f 114/114/114 122/122/122 113/113/113 
f 122/122/122 121/121/121 113/113/113 
f 118/118/118 123/123/123 119/119/119 
f 123/123/123 124/124/124 119/119/119 
f 123/123/123 125/125/125 124/124/124 
f 120/120/120 126/126/126 118/118/118 
f 126/126/126 123/123/123 118/118/118 
f 127/127/127 125/125/125 123/123/123 
f 126/126/126 127/127/127 123/123/123 
f 127/127/127 128/128/128 125/125/125 
f 121/121/121 129/129/129 120/120/120 
f 129/129/129 126/126/126 120/120/120 
f 130/130/130 128/128/128 127/127/127 
f 130/130/130 131/131/131 128/128/128 
f 132/132/132 127/127/127 126/126/126 
f 129/129/129 132/132/132 126/126/126 
f 132/132/132 130/130/130 127/127/127 
f 133/133/133 129/129/129 121/121/121 
f 122/122/122 133/133/133 121/121/121 
f 134/134/134 131/131/131 130/130/130 
f 134/134/134 135/135/135 131/131/131 
f 136/136/136 135/135/135 134/134/134 
f 137/137/137 132/132/132 129/129/129 
f 133/133/133 137/137/137 129/129/129 
f 138/138/138 130/130/130 132/132/132 
f 138/138/138 134/134/134 130/130/130 
f 137/137/137 138/138/138 132/132/132 
f 136/136/136 134/134/134 139/139/139 
f 139/139/139 134/134/134 138/138/138 
f 139/139/139 140/140/140 136/136/136 
f 141/141/141 138/138/138 137/137/137 
f 139/139/139 138/138/138 141/141/141 
f 139/139/139 142/142/142 140/140/140 
f 141/141/141 142/142/142 139/139/139 
f 142/142/142 143/143/143 140/140/140 
f 144/144/144 137/137/137 133/133/133 
f 141/141/141 137/137/137 144/144/144 
f 142/142/142 145/145/145 143/143/143 
f 145/145/145 146/146/146 143/143/143 
f 141/141/141 147/147/147 142/142/142 
f 144/144/144 147/147/147 141/141/141 
f 147/147/147 145/145/145 142/142/142 
f 144/144/144 133/133/133 148/148/148 
f 148/148/148 133/133/133 122/122/122 
f 145/145/145 149/149/149 146/146/146 
f 149/149/149 150/150/150 146/146/146 
f 149/149/149 151/151/151 150/150/150 
f 144/144/144 152/152/152 147/147/147 
f 148/148/148 152/152/152 144/144/144 
f 147/147/147 153/153/153 145/145/145 
f 153/153/153 149/149/149 145/145/145 
f 152/152/152 153/153/153 147/147/147 
f 154/154/154 151/151/151 149/149/149 
f 153/153/153 154/154/154 149/149/149 
f 154/154/154 155/155/155 151/151/151 
f 148/148/148 122/122/122 156/156/156 
f 156/156/156 122/122/122 114/114/114 
f 156/156/156 114/114/114 157/157/157 
f 148/148/148 158/158/158 152/152/152 
f 156/156/156 158/158/158 148/148/148 
f 152/152/152 159/159/159 153/153/153 
f 159/159/159 154/154/154 153/153/153 
f 158/158/158 159/159/159 152/152/152 
f 160/160/160 155/155/155 154/154/154 
f 159/159/159 160/160/160 154/154/154 
f 160/160/160 161/161/161 155/155/155 
f 157/157/157 162/162/162 156/156/156 
f 156/156/156 162/162/162 158/158/158 
f 157/157/157 163/163/163 162/162/162 
f 158/158/158 164/164/164 159/159/159 
f 164/164/164 160/160/160 159/159/159 
f 162/162/162 164/164/164 158/158/158 
f 165/165/165 161/161/161 160/160/160 
f 164/164/164 165/165/165 160/160/160 
f 165/165/165 166/166/166 161/161/161 
f 163/163/163 167/167/167 162/162/162 
f 162/162/162 167/167/167 164/164/164 
f 167/167/167 165/165/165 164/164/164 
f 163/163/163 168/168/168 167/167/167 
f 169/169/169 166/166/166 165/165/165 
f 167/167/167 169/169/169 165/165/165 
f 168/168/168 169/169/169 167/167/167 
f 169/169/169 170/170/170 166/166/166 
f 168/168/168 171/171/171 169/169/169 
f 171/171/171 170/170/170 169/169/169 
f 171/171/171 172/172/172 170/170/170 
f 173/173/173 175/175/175 174/174/174 
f 173/173/173 174/174/174 176/176/176 
f 177/177/177 173/173/173 176/176/176 
f 176/176/176 174/174/174 178/178/178 
f 177/177/177 176/176/176 179/179/179 
f 180/180/180 177/177/177 179/179/179 
f 176/176/176 178/178/178 181/181/181 
f 179/179/179 176/176/176 181/181/181 
f 181/181/181 178/178/178 182/182/182 
f 180/180/180 179/179/179 183/183/183 
f 184/184/184 180/180/180 183/183/183 
f 179/179/179 181/181/181 185/185/185 
f 183/183/183 179/179/179 185/185/185 
f 181/181/181 182/182/182 186/186/186 
f 185/185/185 181/181/181 186/186/186 
f 186/186/186 182/182/182 187/187/187 
f 186/186/186 187/187/187 188/188/188 
f 188/188/188 187/187/187 189/189/189 
f 185/185/185 186/186/186 190/190/190 
f 190/190/190 186/186/186 188/188/188 
f 183/183/183 185/185/185 191/191/191 
f 191/191/191 185/185/185 190/190/190 
f 184/184/184 183/183/183 192/192/192 
f 192/192/192 183/183/183 191/191/191 
f 188/188/188 189/189/189 193/193/193 
f 193/193/193 189/189/189 194/194/194 
f 193/193/193 194/194/194 195/195/195 
f 190/190/190 188/188/188 196/196/196 
f 196/196/196 188/188/188 193/193/193 
f 197/197/197 193/193/193 195/195/195 
f 196/196/196 193/193/193 197/197/197 
f 197/197/197 195/195/195 198/198/198 
f 191/191/191 190/190/190 199/199/199 
f 199/199/199 190/190/190 196/196/196 
f 200/200/200 197/197/197 198/198/198 
f 200/200/200 198/198/198 201/201/201 
f 202/202/202 196/196/196 197/197/197 
f 199/199/199 196/196/196 202/202/202 
f 202/202/202 197/197/197 200/200/200 
f 203/203/203 191/191/191 199/199/199 
f 192/192/192 191/191/191 203/203/203 
f 204/204/204 200/200/200 201/201/201 
f 204/204/204 201/201/201 205/205/205 
f 206/206/206 204/204/204 205/205/205 
f 207/207/207 199/199/199 202/202/202 
f 203/203/203 199/199/199 207/207/207 
f 208/208/208 202/202/202 200/200/200 
f 208/208/208 200/200/200 204/204/204 
f 207/207/207 202/202/202 208/208/208 
f 206/206/206 209/209/209 204/204/204 
f 209/209/209 208/208/208 204/204/204 
f 209/209/209 206/206/206 210/210/210 
f 211/211/211 207/207/207 208/208/208 
f 209/209/209 211/211/211 208/208/208 
f 209/209/209 210/210/210 212/212/212 
f 211/211/211 209/209/209 212/212/212 
f 212/212/212 210/210/210 213/213/213 
f 214/214/214 203/203/203 207/207/207 
f 211/211/211 214/214/214 207/207/207 
f 212/212/212 213/213/213 215/215/215 
f 215/215/215 213/213/213 216/216/216 
f 211/211/211 212/212/212 217/217/217 
f 214/214/214 211/211/211 217/217/217 
f 217/217/217 212/212/212 215/215/215 
f 214/214/214 218/218/218 203/203/203 
f 218/218/218 192/192/192 203/203/203 
f 215/215/215 216/216/216 219/219/219 
f 219/219/219 216/216/216 220/220/220 
f 219/219/219 220/220/220 221/221/221 
f 214/214/214 217/217/217 222/222/222 
f 218/218/218 214/214/214 222/222/222 
f 217/217/217 215/215/215 223/223/223 
f 223/223/223 215/215/215 219/219/219 
f 222/222/222 217/217/217 223/223/223 
f 224/224/224 219/219/219 221/221/221 
f 223/223/223 219/219/219 224/224/224 
f 224/224/224 221/221/221 225/225/225 
f 218/218/218 226/226/226 192/192/192 
f 226/226/226 184/184/184 192/192/192 
f 226/226/226 227/227/227 184/184/184 
f 218/218/218 222/222/222 228/228/228 
f 226/226/226 218/218/218 228/228/228 
f 222/222/222 223/223/223 229/229/229 
f 229/229/229 223/223/223 224/224/224 
f 228/228/228 222/222/222 229/229/229 
f 230/230/230 224/224/224 225/225/225 
f 229/229/229 224/224/224 230/230/230 
f 230/230/230 225/225/225 231/231/231 
f 227/227/227 226/226/226 232/232/232 
f 226/226/226 228/228/228 232/232/232 
f 227/227/227 232/232/232 233/233/233 
f 228/228/228 229/229/229 234/234/234 
f 234/234/234 229/229/229 230/230/230 
f 232/232/232 228/228/228 234/234/234 
f 235/235/235 230/230/230 231/231/231 
f 234/234/234 230/230/230 235/235/235 
f 235/235/235 231/231/231 236/236/236 
f 233/233/233 232/232/232 237/237/237 
f 232/232/232 234/234/234 237/237/237 
f 237/237/237 234/234/234 235/235/235 
f 233/233/233 237/237/237 238/238/238 
f 239/239/239 235/235/235 236/236/236 
f 237/237/237 235/235/235 239/239/239 
f 238/238/238 237/237/237 239/239/239 
f 239/239/239 236/236/236 240/240/240 
f 238/238/238 239/239/239 241/241/241 
f 241/241/241 239/239/239 240/240/240 
f 241/241/241 240/240/240 242/242/242 
f 243/243/243 245/245/245 244/244/244 
f 246/246/246 244/244/244 245/245/245 
f 243/243/243 247/247/247 245/245/245 
f 248/248/248 243/243/243 244/244/244 
f 247/247/247 249/249/249 245/245/245 
f 246/246/246 245/245/245 249/249/249 
f 247/247/247 250/250/250 249/249/249 
f 248/248/248 244/244/244 251/251/251 
f 246/246/246 251/251/251 244/244/244 
f 252/252/252 248/248/248 251/251/251 
f 250/250/250 253/253/253 249/249/249 
f 246/246/246 249/249/249 253/253/253 
f 250/250/250 254/254/254 253/253/253 
f 252/252/252 251/251/251 255/255/255 
f 246/246/246 255/255/255 251/251/251 
f 256/256/256 252/252/252 255/255/255 
f 254/254/254 257/257/257 253/253/253 
f 246/246/246 253/253/253 257/257/257 
f 254/254/254 258/258/258 257/257/257 
f 256/256/256 255/255/255 259/259/259 
f 246/246/246 259/259/259 255/255/255 
f 246/246/246 257/257/257 260/260/260 
f 258/258/258 260/260/260 257/257/257 
f 246/246/246 261/261/261 259/259/259 
f 262/262/262 256/256/256 259/259/259 
f 262/262/262 259/259/259 261/261/261 
f 258/258/258 263/263/263 260/260/260 
f 264/264/264 262/262/262 261/261/261 
f 263/263/263 265/265/265 260/260/260 
f 246/246/246 260/260/260 265/265/265 
f 263/263/263 266/266/266 265/265/265 
f 264/264/264 261/261/261 267/267/267 
f 246/246/246 267/267/267 261/261/261 
f 268/268/268 264/264/264 267/267/267 
f 266/266/266 269/269/269 265/265/265 
f 246/246/246 265/265/265 269/269/269 
f 266/266/266 270/270/270 269/269/269 
f 268/268/268 267/267/267 271/271/271 
f 246/246/246 271/271/271 267/267/267 
f 272/272/272 268/268/268 271/271/271 
f 270/270/270 273/273/273 269/269/269 
f 246/246/246 269/269/269 273/273/273 
f 270/270/270 274/274/274 273/273/273 
f 272/272/272 271/271/271 275/275/275 
f 246/246/246 275/275/275 271/271/271 
f 246/246/246 273/273/273 275/275/275 
f 274/274/274 275/275/275 273/273/273 
f 274/274/274 272/272/272 275/275/275 
f 276/276/276 278/278/278 277/277/277 
f 276/276/276 277/277/277 279/279/279 
f 280/280/280 279/279/279 277/277/277 
f 281/281/281 276/276/276 279/279/279 
f 278/278/278 282/282/282 277/277/277 
f 280/280/280 277/277/277 282/282/282 
f 278/278/278 283/283/283 282/282/282 
f 281/281/281 279/279/279 284/284/284 
f 280/280/280 284/284/284 279/279/279 
f 285/285/285 281/281/281 284/284/284 
f 283/283/283 286/286/286 282/282/282 
f 280/280/280 282/282/282 286/286/286 
f 283/283/283 287/287/287 286/286/286 
f 285/285/285 284/284/284 288/288/288 
f 280/280/280 288/288/288 284/284/284 
f 289/289/289 285/285/285 288/288/288 
f 287/287/287 290/290/290 286/286/286 
f 280/280/280 286/286/286 290/290/290 
f 287/287/287 291/291/291 290/290/290 
f 289/289/289 288/288/288 292/292/292 
f 280/280/280 292/292/292 288/288/288 
f 280/280/280 290/290/290 293/293/293 
f 291/291/291 293/293/293 290/290/290 
f 280/280/280 294/294/294 292/292/292 
f 295/295/295 289/289/289 292/292/292 
f 295/295/295 292/292/292 294/294/294 
f 291/291/291 296/296/296 293/293/293 
f 297/297/297 295/295/295 294/294/294 
f 296/296/296 298/298/298 293/293/293 
f 280/280/280 293/293/293 298/298/298 
f 296/296/296 299/299/299 298/298/298 
f 297/297/297 294/294/294 300/300/300 
f 280/280/280 300/300/300 294/294/294 
f 301/301/301 297/297/297 300/300/300 
f 299/299/299 302/302/302 298/298/298 
f 280/280/280 298/298/298 302/302/302 
f 299/299/299 303/303/303 302/302/302 
f 301/301/301 300/300/300 304/304/304 
f 280/280/280 304/304/304 300/300/300 
f 305/305/305 301/301/301 304/304/304 
f 303/303/303 306/306/306 302/302/302 
f 280/280/280 302/302/302 306/306/306 
f 303/303/303 307/307/307 306/306/306 
f 307/307/307 305/305/305 308/308/308 
f 305/305/305 304/304/304 308/308/308 
f 280/280/280 308/308/308 304/304/304 
f 307/307/307 308/308/308 306/306/306 
f 280/280/280 306/306/306 308/308/308 
f 309/309/309 311/311/311 310/310/310 
f 312/312/312 309/309/309 310/310/310 
f 309/309/309 313/313/313 311/311/311 
f 312/312/312 310/310/310 314/314/314 
f 313/313/313 315/315/315 311/311/311 
f 316/316/316 312/312/312 314/314/314 
f 313/313/313 317/317/317 315/315/315 
f 316/316/316 314/314/314 318/318/318 
f 317/317/317 319/319/319 315/315/315 
f 320/320/320 316/316/316 318/318/318 
f 317/317/317 321/321/321 319/319/319 
f 320/320/320 318/318/318 322/322/322 
f 321/321/321 323/323/323 319/319/319 
f 324/324/324 320/320/320 322/322/322 
f 321/321/321 325/325/325 323/323/323 
f 324/324/324 322/322/322 326/326/326 
f 325/325/325 327/327/327 323/323/323 
f 328/328/328 324/324/324 326/326/326 
f 325/325/325 329/329/329 327/327/327 
f 328/328/328 326/326/326 330/330/330 
f 329/329/329 331/331/331 327/327/327 
f 332/332/332 328/328/328 330/330/330 
f 329/329/329 333/333/333 331/331/331 
f 332/332/332 330/330/330 334/334/334 
f 333/333/333 335/335/335 331/331/331 
f 336/336/336 332/332/332 334/334/334 
f 333/333/333 337/337/337 335/335/335 
f 336/336/336 334/334/334 338/338/338 
f 337/337/337 339/339/339 335/335/335 
f 340/340/340 336/336/336 338/338/338 
f 337/337/337 340/340/340 339/339/339 
f 340/340/340 338/338/338 339/339/339 
