# exported by StudySceneExporter from mesh 'Sphere'
mtllib materials.mtl
v 0.2878271 -0.2878271 -0.2878271
v 0.2878271 0.2878271 -0.2878271
v -0.2878271 -0.2878271 -0.2878271
v -0.2878271 0.2878271 -0.2878271
v 0.2888354 -0.2888354 0.2879004
v 0.2888354 0.2888354 0.2879004
v -0.2888354 -0.2888354 0.2879004
v -0.2888354 0.2888354 0.2879004
v 0 0 -0.5
v 4.764297E-09 -4.768371E-09 0.5
v 0.5 -1.639128E-07 -4.764297E-09
v 8.19558E-08 0.5 -9.537071E-09
v -0.5 0 4.764297E-09
v -2.235174E-07 -0.5 3.274181E-13
v -5.340553E-08 -0.3525147 -0.3525147
v -0.3525147 0 -0.3525147
v 5.722046E-08 0.3525147 -0.3525147
v 0.3525147 3.814697E-08 -0.3525147
v 0.3536914 -1.144409E-07 0.3527881
v 5.722046E-08 0.3536914 0.3527881
v -0.3536914 0 0.3527881
v -1.573563E-07 -0.3536914 0.3527881
v 0.3535523 0.3535523 -3.128662E-11
v 0.3536914 -0.3536914 -0.0008836466
v -0.3535523 0.3535523 3.128662E-11
v -0.3536914 -0.3536914 -0.0008836116
v 0.2401929 -0.3089014 -0.3089014
v 0.1701416 -0.3313476 -0.3313476
v 0.0880603 -0.3469702 -0.3469702
v -0.2401929 -0.3089014 -0.3089014
v -0.1701416 -0.3313476 -0.3313476
v -0.0880603 -0.3469702 -0.3469702
v -0.3089014 -0.2401929 -0.3089014
v -0.3313476 -0.1701416 -0.3313476
v -0.3469702 -0.0880603 -0.3469702
v -0.3089014 0.2401929 -0.3089014
v -0.3313476 0.1701416 -0.3313476
v -0.3469702 0.0880603 -0.3469702
v -0.2401929 0.3089014 -0.3089014
v -0.1701416 0.3313476 -0.3313476
v -0.0880603 0.3469702 -0.3469702
v 0.2401929 0.3089014 -0.3089014
v 0.1701416 0.3313476 -0.3313476
v 0.0880603 0.3469702 -0.3469702
v 0.3089014 0.2401929 -0.3089014
v 0.3313476 0.1701416 -0.3313476
v 0.3469702 0.0880603 -0.3469702
v 0.3089014 -0.2401929 -0.3089014
v 0.3313476 -0.1701416 -0.3313476
v 0.3469702 -0.0880603 -0.3469702
v 0.3099512 -0.2409058 0.3090894
v 0.3324731 -0.1707129 0.3315698
v 0.3481274 -0.08835449 0.3472266
v 0.3099512 0.2409058 0.3090894
v 0.3324731 0.1707129 0.3315698
v 0.3481274 0.08835449 0.3472266
v 0.2409058 0.3099512 0.3090894
v 0.1707129 0.3324731 0.3315698
v 0.08835449 0.3481274 0.3472266
v -0.2409058 0.3099512 0.3090894
v -0.1707129 0.3324731 0.3315698
v -0.08835449 0.3481274 0.3472266
v -0.3099512 0.2409058 0.3090894
v -0.3324731 0.1707129 0.3315698
v -0.3481274 0.08835449 0.3472266
v -0.3099512 -0.2409058 0.3090894
v -0.3324731 -0.1707129 0.3315698
v -0.3481274 -0.08835449 0.3472266
v -0.2409058 -0.3099512 0.3090894
v -0.1707129 -0.3324731 0.3315698
v -0.08835449 -0.3481274 0.3472266
v 0.2409058 -0.3099512 0.3090894
v 0.1707129 -0.3324731 0.3315698
v 0.08835449 -0.3481274 0.3472266
v 0.3089014 0.3089014 -0.2401929
v 0.3313476 0.3313476 -0.1701416
v 0.3469702 0.3469702 -0.0880603
v 0.3099512 0.3099512 0.2401733
v 0.3324731 0.3324731 0.1698926
v 0.3481274 0.3481274 0.08750671
v 0.3099512 -0.3099512 0.2401733
v 0.3324731 -0.3324731 0.1698926
v 0.3481274 -0.3481274 0.08750671
v 0.3089014 -0.3089014 -0.2401929
v 0.3313476 -0.3313476 -0.1701416
v 0.3469702 -0.3469702 -0.0880603
v -0.3089014 0.3089014 -0.2401929
v -0.3313476 0.3313476 -0.1701416
v -0.3469702 0.3469702 -0.0880603
v -0.3099512 0.3099512 0.2401733
v -0.3324731 0.3324731 0.1698926
v -0.3481274 0.3481274 0.08750671
v -0.3089014 -0.3089014 -0.2401929
v -0.3313476 -0.3313476 -0.1701416
v -0.3469702 -0.3469702 -0.0880603
v -0.3099512 -0.3099512 0.2401733
v -0.3324731 -0.3324731 0.1698926
v -0.3481274 -0.3481274 0.08750671
v -1.811975E-08 -0.2801587 -0.4123633
v -3.91007E-08 -0.1956055 -0.4585547
v -1.182554E-08 -0.1007947 -0.4882324
v -0.2801587 1.907349E-08 -0.4123633
v -0.1956055 -3.814694E-10 -0.4585547
v -0.1007953 0 -0.4882324
v 4.768371E-08 0.2801587 -0.4123633
v -2.002722E-08 0.1956055 -0.4585547
v -2.136236E-08 0.1007947 -0.4882324
v 0.2801587 3.814697E-08 -0.4123633
v 0.1956055 1.945489E-08 -0.4585547
v 0.1007947 -9.536743E-09 -0.4882324
v 0.2811499 -9.059906E-08 0.4128613
v 0.1962756 -6.198883E-08 0.4591016
v 0.1011365 -3.218651E-08 0.4888574
v 4.768371E-08 0.2811499 0.4128613
v 3.099441E-08 0.1962756 0.4591016
v 1.549721E-08 0.1011359 0.4888574
v -0.2811499 0 0.4128613
v -0.1962756 0 0.4591016
v -0.1011359 0 0.4888574
v -1.239777E-07 -0.2811499 0.4128613
v -8.583068E-08 -0.1962756 0.4591016
v -4.410744E-08 -0.1011359 0.4888574
v 0.4123633 -3.814697E-08 -0.2801587
v 0.4585547 -7.667521E-08 -0.1956055
v 0.4882324 -3.814697E-08 -0.1007953
v 0.4157349 0.2777856 2.270099E-11
v 0.4619385 0.1913415 3.492459E-11
v 0.4903906 0.09754516 7.275958E-12
v 0.4137475 -1.335144E-07 0.2802221
v 0.4598437 -1.525879E-07 0.195459
v 0.4896582 -1.621246E-07 0.1002966
v 0.4137475 -0.2811499 -0.0008836472
v 0.4598437 -0.1962756 -0.0008836464
v 0.4896582 -0.1011359 -0.0008836508
v 6.67572E-08 0.4123633 -0.2801587
v 7.571769E-08 0.4585547 -0.1956055
v 8.038161E-08 0.4882324 -0.1007953
v -0.2777856 0.4157349 3.143213E-11
v -0.1913415 0.4619385 -8.076313E-12
v -0.09754516 0.4903906 3.588866E-11
v 6.67572E-08 0.4137475 0.2802221
v 7.629394E-08 0.4598437 0.195459
v 7.629394E-08 0.4896582 0.1002972
v 0.2777856 0.4157349 -3.143213E-11
v 0.1913415 0.4619385 8.076313E-12
v 0.09754516 0.4903906 -3.605237E-11
v -0.4123633 3.814697E-08 -0.2801587
v -0.4585547 3.852852E-08 -0.1956055
v -0.4882324 3.814697E-08 -0.1007947
v -0.4137475 -0.2811499 -0.0008836098
v -0.4598437 -0.1962756 -0.0008836057
v -0.4896582 -0.1011359 -0.000883606
v -0.4137475 0 0.2802221
v -0.4598437 0 0.195459
v -0.4896582 0 0.1002972
v -0.4157349 0.2777856 -2.313754E-11
v -0.4619385 0.1913415 -3.492459E-11
v -0.4903906 0.09754516 -7.275958E-12
v 2.593995E-08 -0.4123633 -0.2801587
v -8.392307E-09 -0.4585547 -0.1956055
v 3.356923E-08 -0.4882324 -0.1007953
v 0.2811499 -0.4137475 -0.0008836342
v 0.1962756 -0.4598437 -0.0008836379
v 0.1011359 -0.4896582 -0.0008836288
v -1.811981E-07 -0.4137475 0.2802221
v -2.098083E-07 -0.4598437 0.195459
v -2.193451E-07 -0.4896582 0.1002972
v -0.2811499 -0.4137475 -0.0008836147
v -0.1962756 -0.4598437 -0.0008836184
v -0.1011359 -0.4896582 -0.0008836251
v 0.2485034 -0.2485034 -0.3535864
v 0.1748779 -0.2637085 -0.3852368
v 0.0902124 -0.2754956 -0.4055811
v 0.2637085 -0.1748779 -0.3852368
v 0.1839429 -0.1839429 -0.4252783
v 0.09450744 -0.1919995 -0.4502636
v 0.2754956 -0.0902124 -0.4055811
v 0.1919995 -0.09450744 -0.4502636
v 0.09875244 -0.09875244 -0.4785693
v -0.2485034 -0.2485034 -0.3535864
v -0.2637085 -0.1748779 -0.3852368
v -0.2754956 -0.0902124 -0.4055811
v -0.1748779 -0.2637085 -0.3852368
v -0.1839429 -0.1839429 -0.4252783
v -0.1919995 -0.09450744 -0.4502636
v -0.0902124 -0.2754956 -0.4055811
v -0.09450744 -0.1919995 -0.4502636
v -0.09875244 -0.09875244 -0.4785693
v -0.2485034 0.2485034 -0.3535864
v -0.1748779 0.2637085 -0.3852368
v -0.0902124 0.2754956 -0.4055811
v -0.2637085 0.1748779 -0.3852368
v -0.1839429 0.1839429 -0.4252783
v -0.09450744 0.1919995 -0.4502636
v -0.2754956 0.0902124 -0.4055811
v -0.1919995 0.09450744 -0.4502636
v -0.09875244 0.09875244 -0.4785693
v 0.2485034 0.2485034 -0.3535864
v 0.2637085 0.1748779 -0.3852368
v 0.2754956 0.0902124 -0.4055811
v 0.1748779 0.2637085 -0.3852368
v 0.1839429 0.1839429 -0.4252783
v 0.1919995 0.09450744 -0.4502636
v 0.0902124 0.2754956 -0.4055811
v 0.09450744 0.1919995 -0.4502636
v 0.09875244 0.09875244 -0.4785693
v 0.2492358 -0.2492358 0.3538598
v 0.2646435 -0.1754565 0.3856372
v 0.2764746 -0.09051941 0.4060791
v 0.1754565 -0.2646435 0.3856372
v 0.1845666 -0.1845666 0.4257813
v 0.1926355 -0.09482116 0.4508106
v 0.09051941 -0.2764746 0.4060791
v 0.09482116 -0.1926355 0.4508106
v 0.09908752 -0.09908752 0.4791992
v 0.2492358 0.2492358 0.3538598
v 0.1754565 0.2646435 0.3856372
v 0.09051941 0.2764746 0.4060791
v 0.2646435 0.1754565 0.3856372
v 0.1845666 0.1845666 0.4257813
v 0.09482116 0.1926355 0.4508106
v 0.2764746 0.09051941 0.4060791
v 0.1926355 0.09482116 0.4508106
v 0.09908752 0.09908752 0.4791992
v -0.2492358 0.2492358 0.3538598
v -0.2646435 0.1754565 0.3856372
v -0.2764746 0.09051941 0.4060791
v -0.1754565 0.2646435 0.3856372
v -0.1845666 0.1845666 0.4257813
v -0.1926355 0.09482116 0.4508106
v -0.09051941 0.2764746 0.4060791
v -0.09482116 0.1926355 0.4508106
v -0.09908752 0.09908752 0.4791992
v -0.2492358 -0.2492358 0.3538598
v -0.1754565 -0.2646435 0.3856372
v -0.09051879 -0.2764746 0.4060791
v -0.2646435 -0.1754565 0.3856372
v -0.1845666 -0.1845666 0.4257813
v -0.09482116 -0.1926355 0.4508106
v -0.2764746 -0.09051941 0.4060791
v -0.1926355 -0.09482116 0.4508106
v -0.09908752 -0.09908752 0.4791992
v 0.3535864 -0.2485034 -0.2485034
v 0.3852368 -0.1748779 -0.2637085
v 0.4055811 -0.0902124 -0.2754956
v 0.3852368 -0.2637085 -0.1748791
v 0.4252783 -0.1839429 -0.1839429
v 0.4502636 -0.09450744 -0.1919995
v 0.4055811 -0.2754956 -0.0902124
v 0.4502636 -0.1919995 -0.09450744
v 0.4785693 -0.09875244 -0.09875244
v 0.3535864 0.2485034 -0.2485034
v 0.3852368 0.2637085 -0.1748791
v 0.4055811 0.2754956 -0.0902124
v 0.3852368 0.1748779 -0.2637085
v 0.4252783 0.1839429 -0.1839429
v 0.4502636 0.1919995 -0.09450744
v 0.4055811 0.0902124 -0.2754956
v 0.4502636 0.09450744 -0.1919995
v 0.4785693 0.09875244 -0.09875244
v 0.354751 0.2492358 0.2485034
v 0.3865088 0.1754565 0.2637475
v 0.4069678 0.09051941 0.2755518
v 0.3865088 0.2646435 0.1746521
v 0.4265039 0.1845666 0.1837427
v 0.4515527 0.09482116 0.191842
v 0.4069678 0.2764746 0.08967713
v 0.4515527 0.1926355 0.09398254
v 0.479956 0.09908752 0.09823791
v 0.354751 -0.2492358 0.2485034
v 0.3865088 -0.2646435 0.1746521
v 0.4069678 -0.2764746 0.08967713
v 0.3865088 -0.1754565 0.2637475
v 0.4265039 -0.1845666 0.1837427
v 0.4515527 -0.1926355 0.09398254
v 0.4069678 -0.09051879 0.2755518
v 0.4515527 -0.09482116 0.191842
v 0.479956 -0.09908752 0.09823791
v 0.2485034 0.3535864 -0.2485034
v 0.1748791 0.3852368 -0.2637085
v 0.09021179 0.4055811 -0.2754956
v 0.2637085 0.3852368 -0.1748791
v 0.1839429 0.4252783 -0.1839429
v 0.09450744 0.4502636 -0.1919995
v 0.2754956 0.4055811 -0.0902124
v 0.1919995 0.4502636 -0.09450744
v 0.09875244 0.4785693 -0.09875244
v -0.2485034 0.3535864 -0.2485034
v -0.2637085 0.3852368 -0.1748779
v -0.2754956 0.4055811 -0.0902124
v -0.1748779 0.3852368 -0.2637085
v -0.1839429 0.4252783 -0.1839429
v -0.1919995 0.4502636 -0.09450744
v -0.09021179 0.4055811 -0.2754956
v -0.09450744 0.4502636 -0.1919995
v -0.09875244 0.4785693 -0.09875244
v -0.2492358 0.354751 0.2485034
v -0.1754565 0.3865088 0.2637475
v -0.09051941 0.4069678 0.2755518
v -0.2646435 0.3865088 0.1746533
v -0.1845666 0.4265039 0.1837427
v -0.09482116 0.4515527 0.191842
v -0.2764746 0.4069678 0.08967713
v -0.1926355 0.4515527 0.09398254
v -0.09908752 0.479956 0.09823791
v 0.2492358 0.354751 0.2485034
v 0.2646435 0.3865088 0.1746533
v 0.2764746 0.4069678 0.08967713
v 0.1754565 0.3865088 0.2637475
v 0.1845666 0.4265039 0.1837427
v 0.1926355 0.4515527 0.09398254
v 0.09051941 0.4069678 0.2755518
v 0.09482116 0.4515527 0.191842
v 0.09908752 0.479956 0.09823791
v -0.3535864 0.2485034 -0.2485034
v -0.3852368 0.1748791 -0.2637085
v -0.4055811 0.0902124 -0.2754956
v -0.3852368 0.2637085 -0.1748779
v -0.4252783 0.1839429 -0.1839429
v -0.4502636 0.09450744 -0.1919995
v -0.4055811 0.2754956 -0.0902124
v -0.4502636 0.1919995 -0.09450744
v -0.4785693 0.09875244 -0.09875244
v -0.3535864 -0.2485034 -0.2485034
v -0.3852368 -0.2637085 -0.1748779
v -0.4055811 -0.2754956 -0.0902124
v -0.3852368 -0.1748779 -0.2637085
v -0.4252783 -0.1839429 -0.1839429
v -0.4502636 -0.1919995 -0.09450744
v -0.4055811 -0.0902124 -0.2754956
v -0.4502636 -0.09450744 -0.1919995
v -0.4785693 -0.09875244 -0.09875244
v -0.354751 -0.2492358 0.2485034
v -0.3865088 -0.1754565 0.2637475
v -0.4069678 -0.09051941 0.2755518
v -0.3865088 -0.2646435 0.1746533
v -0.4265039 -0.1845666 0.1837427
v -0.4515527 -0.09482116 0.191842
v -0.4069678 -0.2764746 0.08967713
v -0.4515527 -0.1926355 0.09398254
v -0.479956 -0.09908752 0.09823791
v -0.354751 0.2492358 0.2485034
v -0.3865088 0.2646435 0.1746533
v -0.4069678 0.2764746 0.08967713
v -0.3865088 0.1754565 0.2637475
v -0.4265039 0.1845666 0.1837427
v -0.4515527 0.1926355 0.09398254
v -0.4069678 0.09051941 0.2755518
v -0.4515527 0.09482116 0.191842
v -0.479956 0.09908752 0.09823791
v -0.2485034 -0.3535864 -0.2485034
v -0.1748791 -0.3852368 -0.2637085
v -0.0902124 -0.4055811 -0.2754956
v -0.2637085 -0.3852368 -0.1748779
v -0.1839429 -0.4252783 -0.1839429
v -0.09450744 -0.4502636 -0.1919995
v -0.2754956 -0.4055811 -0.0902124
v -0.1919995 -0.4502636 -0.09450744
v -0.09875244 -0.4785693 -0.09875244
v 0.2485034 -0.3535864 -0.2485034
v 0.2637085 -0.3852368 -0.1748791
v 0.2754956 -0.4055811 -0.0902124
v 0.1748779 -0.3852368 -0.2637085
v 0.1839429 -0.4252783 -0.1839429
v 0.1919995 -0.4502636 -0.09450744
v 0.0902124 -0.4055811 -0.2754956
v 0.09450744 -0.4502636 -0.1919995
v 0.09875244 -0.4785693 -0.09875244
v 0.2492358 -0.354751 0.2485034
v 0.1754565 -0.3865088 0.2637475
v 0.09051879 -0.4069678 0.2755518
v 0.2646435 -0.3865088 0.1746533
v 0.1845666 -0.4265039 0.1837427
v 0.09482116 -0.4515527 0.191842
v 0.2764746 -0.4069678 0.08967713
v 0.1926355 -0.4515527 0.09398254
v 0.09908752 -0.479956 0.09823791
v -0.2492358 -0.354751 0.2485034
v -0.2646435 -0.3865088 0.1746533
v -0.2764746 -0.4069678 0.08967713
v -0.1754565 -0.3865088 0.2637475
v -0.1845666 -0.4265039 0.1837427
v -0.1926355 -0.4515527 0.09398254
v -0.09051879 -0.4069678 0.2755518
v -0.09482116 -0.4515527 0.191842
v -0.09908752 -0.479956 0.09823791
v 0.1007947 -9.536743E-09 -0.4882324
v 0 0 -0.5
v 0 0 -0.5
v -0.3525147 0 -0.3525147
v -0.2801587 1.907349E-08 -0.4123633
v -0.1956055 -3.814694E-10 -0.4585547
v -0.1007953 0 -0.4882324
v 0 0 -0.5
v 0 0 -0.5
v 0 0 -0.5
v 0.1007947 -9.536743E-09 -0.4882324
v 4.764297E-09 -4.768371E-09 0.5
v 4.764297E-09 -4.768371E-09 0.5
v 4.764297E-09 -4.768371E-09 0.5
v 4.764297E-09 -4.768371E-09 0.5
v -0.3536914 0 0.3527881
v -0.2811499 0 0.4128613
v -0.1962756 0 0.4591016
v -0.1011359 0 0.4888574
v 4.764297E-09 -4.768371E-09 0.5
v 0.2878271 -0.2878271 -0.2878271
v 0.3089014 -0.2401929 -0.3089014
v 0.3313476 -0.1701416 -0.3313476
v 0.3469702 -0.0880603 -0.3469702
v 0.3525147 3.814697E-08 -0.3525147
v 0.3089014 0.2401929 -0.3089014
v 0.2878271 0.2878271 -0.2878271
v 0.3313476 0.1701416 -0.3313476
v 0.3469702 0.0880603 -0.3469702
v 0.2888354 0.2888354 0.2879004
v 0.3099512 0.2409058 0.3090894
v 0.3324731 0.1707129 0.3315698
v 0.3481274 0.08835449 0.3472266
v 0.3536914 -1.144409E-07 0.3527881
v 0.3099512 -0.2409058 0.3090894
v 0.2888354 -0.2888354 0.2879004
v 0.3324731 -0.1707129 0.3315698
v 0.3481274 -0.08835449 0.3472266
v 0.2878271 0.2878271 -0.2878271
v 0.3089014 0.3089014 -0.2401929
v 0.2401929 0.3089014 -0.3089014
v 0.1701416 0.3313476 -0.3313476
v 0.0880603 0.3469702 -0.3469702
v 5.722046E-08 0.3525147 -0.3525147
v 0.3313476 0.3313476 -0.1701416
v 0.3469702 0.3469702 -0.0880603
v 0.3535523 0.3535523 -3.128662E-11
v -0.2401929 0.3089014 -0.3089014
v -0.2878271 0.2878271 -0.2878271
v -0.1701416 0.3313476 -0.3313476
v -0.0880603 0.3469702 -0.3469702
v -0.2888354 0.2888354 0.2879004
v -0.2409058 0.3099512 0.3090894
v -0.1707129 0.3324731 0.3315698
v -0.08835449 0.3481274 0.3472266
v 5.722046E-08 0.3536914 0.3527881
v 0.2409058 0.3099512 0.3090894
v 0.3099512 0.3099512 0.2401733
v 0.2888354 0.2888354 0.2879004
v 0.3324731 0.3324731 0.1698926
v 0.3481274 0.3481274 0.08750671
v 0.1707129 0.3324731 0.3315698
v 0.08835449 0.3481274 0.3472266
v -0.2878271 0.2878271 -0.2878271
v -0.3089014 0.3089014 -0.2401929
v -0.3089014 0.2401929 -0.3089014
v -0.3313476 0.1701416 -0.3313476
v -0.3469702 0.0880603 -0.3469702
v -0.3525147 0 -0.3525147
v -0.3313476 0.3313476 -0.1701416
v -0.3469702 0.3469702 -0.0880603
v -0.3535523 0.3535523 3.128662E-11
v -0.3089014 -0.2401929 -0.3089014
v -0.2878271 -0.2878271 -0.2878271
v -0.3313476 -0.1701416 -0.3313476
v -0.3469702 -0.0880603 -0.3469702
v -0.3525147 0 -0.3525147
v -0.4123633 3.814697E-08 -0.2801587
v -0.4585547 3.852852E-08 -0.1956055
v -0.4882324 3.814697E-08 -0.1007947
v -0.5 0 4.764297E-09
v -0.2888354 -0.2888354 0.2879004
v -0.3099512 -0.2409058 0.3090894
v -0.3324731 -0.1707129 0.3315698
v -0.3481274 -0.08835449 0.3472266
v -0.3536914 0 0.3527881
v -0.3099512 0.2409058 0.3090894
v -0.3099512 0.3099512 0.2401733
v -0.2888354 0.2888354 0.2879004
v -0.3324731 0.3324731 0.1698926
v -0.3481274 0.3481274 0.08750671
v -0.3324731 0.1707129 0.3315698
v -0.3481274 0.08835449 0.3472266
v -0.3536914 0 0.3527881
v -0.4137475 0 0.2802221
v -0.4598437 0 0.195459
v -0.4896582 0 0.1002972
v -0.2878271 -0.2878271 -0.2878271
v -0.3089014 -0.3089014 -0.2401929
v -0.2401929 -0.3089014 -0.3089014
v -0.1701416 -0.3313476 -0.3313476
v -0.0880603 -0.3469702 -0.3469702
v -5.340553E-08 -0.3525147 -0.3525147
v -0.3313476 -0.3313476 -0.1701416
v -0.3469702 -0.3469702 -0.0880603
v -0.3536914 -0.3536914 -0.0008836116
v 0.2401929 -0.3089014 -0.3089014
v 0.3089014 -0.3089014 -0.2401929
v 0.2878271 -0.2878271 -0.2878271
v 0.3313476 -0.3313476 -0.1701416
v 0.3469702 -0.3469702 -0.0880603
v 0.3536914 -0.3536914 -0.0008836466
v 0.1701416 -0.3313476 -0.3313476
v 0.0880603 -0.3469702 -0.3469702
v 0.2888354 -0.2888354 0.2879004
v 0.3099512 -0.3099512 0.2401733
v 0.2409058 -0.3099512 0.3090894
v 0.1707129 -0.3324731 0.3315698
v 0.08835449 -0.3481274 0.3472266
v -1.573563E-07 -0.3536914 0.3527881
v 0.3324731 -0.3324731 0.1698926
v 0.3481274 -0.3481274 0.08750671
v -0.2409058 -0.3099512 0.3090894
v -0.3099512 -0.3099512 0.2401733
v -0.2888354 -0.2888354 0.2879004
v -0.3324731 -0.3324731 0.1698926
v -0.3481274 -0.3481274 0.08750671
v -0.1707129 -0.3324731 0.3315698
v -0.08835449 -0.3481274 0.3472266
vt 0.3737993 0.3181914
vt 0.6236131 0.3181914
vt 0.1239855 0.3181914
vt 0.8734268 0.3181914
vt 0.3737993 0.683609
vt 0.6236131 0.683609
vt 0.1239855 0.6836091
vt 0.8734268 0.683609
vt 0.3734581 0.02175571
vt 0.3847829 0.9717647
vt 0.4987062 0.5009002
vt 0.74852 0.5009002
vt 0.9983337 0.5009002
vt 0.2488924 0.5009002
vt 0.2488924 0.2771286
vt -0.0009213686 0.2771286
vt 0.74852 0.2771286
vt 0.4987062 0.2771286
vt 0.4987062 0.7246718
vt 0.74852 0.7246718
vt 0.9983337 0.7246718
vt 0.2488924 0.7246718
vt 0.6236131 0.5009002
vt 0.3737993 0.5009002
vt 0.8734268 0.5009002
vt 0.1239855 0.5009002
vt 0.3540024 0.3048138
vt 0.3243351 0.2905639
vt 0.2884209 0.2806473
vt 0.1437824 0.3048138
vt 0.1734497 0.2905639
vt 0.2093638 0.2806473
vt 0.1041886 0.3048139
vt 0.07452133 0.2905639
vt 0.03860712 0.2806473
vt 0.8932236 0.3048139
vt 0.922891 0.2905639
vt 0.9588053 0.2806473
vt 0.8536299 0.3048138
vt 0.8239627 0.2905639
vt 0.7880484 0.2806473
vt 0.6434099 0.3048138
vt 0.6730773 0.2905639
vt 0.7089914 0.2806473
vt 0.6038162 0.3048138
vt 0.5741488 0.2905639
vt 0.5382347 0.2806473
vt 0.3935962 0.3048138
vt 0.4232635 0.2905639
vt 0.4591776 0.2806473
vt 0.3935962 0.6969866
vt 0.4232635 0.7112365
vt 0.4591776 0.7211531
vt 0.6038162 0.6969866
vt 0.5741488 0.7112365
vt 0.5382347 0.7211531
vt 0.6434099 0.6969866
vt 0.6730773 0.7112365
vt 0.7089914 0.7211531
vt 0.8536299 0.6969866
vt 0.8239627 0.7112365
vt 0.7880484 0.7211531
vt 0.8932238 0.6969866
vt 0.922891 0.7112365
vt 0.9588053 0.7211531
vt 0.1041886 0.6969866
vt 0.07452133 0.7112365
vt 0.03860712 0.7211531
vt 0.1437824 0.6969866
vt 0.1734497 0.7112365
vt 0.2093638 0.7211531
vt 0.3540024 0.6969866
vt 0.3243351 0.7112365
vt 0.2884209 0.7211531
vt 0.6236131 0.348428
vt 0.6236131 0.3928966
vt 0.6236131 0.4450004
vt 0.6236131 0.6533725
vt 0.6236131 0.6089039
vt 0.6236131 0.5568
vt 0.3737993 0.6533725
vt 0.3737993 0.6089039
vt 0.3737993 0.5568
vt 0.3737993 0.348428
vt 0.3737993 0.3928966
vt 0.3737993 0.4450004
vt 0.8734268 0.348428
vt 0.8734268 0.3928966
vt 0.8734268 0.4450004
vt 0.8734268 0.6533725
vt 0.8734268 0.6089039
vt 0.8734268 0.5568
vt 0.1239855 0.348428
vt 0.1239855 0.3928966
vt 0.1239855 0.4450004
vt 0.1239855 0.6533725
vt 0.1239855 0.6089039
vt 0.1239855 0.5568
vt 0.2488924 0.233575
vt 0.2488924 0.1743396
vt 0.2488924 0.1020471
vt -0.0009213686 0.233575
vt -0.0009213686 0.1733436
vt -0.0009213686 0.1111187
vt 0.74852 0.233575
vt 0.74852 0.1743396
vt 0.74852 0.1046903
vt 0.4987062 0.233575
vt 0.4987062 0.1695687
vt 0.4987062 0.09756867
vt 0.4987062 0.7626636
vt 0.4987062 0.8162426
vt 0.4987062 0.9020402
vt 0.74852 0.7626636
vt 0.74852 0.8162426
vt 0.748657 0.9019565
vt 0.9983337 0.7626636
vt 0.9983337 0.8162426
vt 0.9978603 0.8990951
vt 0.2488924 0.7626636
vt 0.2488924 0.8162426
vt 0.2488924 0.9020402
vt 0.4987062 0.3230592
vt 0.4987062 0.3767318
vt 0.4987062 0.4369167
vt 0.5936133 0.5009002
vt 0.56283 0.5009002
vt 0.5310841 0.5009002
vt 0.4987062 0.6787412
vt 0.4987062 0.6250687
vt 0.4987062 0.5648838
vt 0.403799 0.5009002
vt 0.4345824 0.5009002
vt 0.4663283 0.5009002
vt 0.74852 0.3230592
vt 0.74852 0.3767318
vt 0.74852 0.4369167
vt 0.8434271 0.5009002
vt 0.8126438 0.5009002
vt 0.7808979 0.5009002
vt 0.74852 0.6787412
vt 0.74852 0.6250687
vt 0.74852 0.5648838
vt 0.6536129 0.5009002
vt 0.6843961 0.5009002
vt 0.7161421 0.5009002
vt 0.9983337 0.3230592
vt 0.9983337 0.3767318
vt 0.9983337 0.4369167
vt 0.09398577 0.5009002
vt 0.06320244 0.5009002
vt 0.03145653 0.5009002
vt -0.0009213686 0.6787412
vt -0.0009213686 0.6250687
vt -0.0009213686 0.5648838
vt 0.9034266 0.5009002
vt 0.9342099 0.5009002
vt 0.9659559 0.5009002
vt 0.2488924 0.3230592
vt 0.2488924 0.3767318
vt 0.2488924 0.4369167
vt 0.3437995 0.5009002
vt 0.3130162 0.5009002
vt 0.2812703 0.5009002
vt 0.2488924 0.6787412
vt 0.2488924 0.6250687
vt 0.2488924 0.5648838
vt 0.1539853 0.5009002
vt 0.1847686 0.5009002
vt 0.2165145 0.5009002
vt 0.3737993 0.2834
vt 0.3420187 0.2507943
vt 0.2992194 0.2378804
vt 0.4055798 0.2507943
vt 0.3737993 0.2142188
vt 0.3216372 0.1856271
vt 0.4483792 0.2378804
vt 0.4259613 0.1752676
vt 0.3725803 0.1336257
vt 0.1239855 0.2834
vt 0.09220496 0.2507943
vt 0.04940557 0.2378804
vt 0.155766 0.2507943
vt 0.1239855 0.2096534
vt 0.07182345 0.1859203
vt 0.1985654 0.2378804
vt 0.1761476 0.1848103
vt 0.1252045 0.1421715
vt 0.8734268 0.2834
vt 0.8416463 0.2507943
vt 0.798847 0.2378804
vt 0.9052075 0.2507943
vt 0.8734268 0.2096534
vt 0.8212647 0.1818529
vt 0.9480067 0.2378804
vt 0.925589 0.1859203
vt 0.8819596 0.1395283
vt 0.6236131 0.2834
vt 0.5918325 0.2507943
vt 0.5490332 0.2378804
vt 0.6553935 0.2507943
vt 0.6236131 0.2142188
vt 0.571451 0.1807698
vt 0.698193 0.2378804
vt 0.6757752 0.1830822
vt 0.6150803 0.1321084
vt 0.3737993 0.7253528
vt 0.4055798 0.7454442
vt 0.4483792 0.7583581
vt 0.3420188 0.7454442
vt 0.3737993 0.7708623
vt 0.4259613 0.8105438
vt 0.2992194 0.7583581
vt 0.3216372 0.8105438
vt 0.3737993 0.8706206
vt 0.6236131 0.7253528
vt 0.6553935 0.7454442
vt 0.698193 0.7583581
vt 0.5918325 0.7454442
vt 0.6236131 0.7708623
vt 0.6757752 0.8105438
vt 0.5490332 0.7583581
vt 0.5714509 0.8105438
vt 0.6236131 0.8706206
vt 0.8734268 0.7253528
vt 0.9052075 0.7454442
vt 0.9480069 0.7583581
vt 0.8416463 0.7454442
vt 0.8734268 0.7708623
vt 0.925589 0.8105438
vt 0.798847 0.7583581
vt 0.8212647 0.8105438
vt 0.8734268 0.8766438
vt 0.1239855 0.7253528
vt 0.155766 0.7454442
vt 0.1985654 0.7583581
vt 0.09220496 0.7454442
vt 0.1239855 0.7708623
vt 0.1761476 0.8105438
vt 0.04940557 0.7583581
vt 0.07182345 0.8105438
vt 0.1239855 0.8706206
vt 0.401279 0.3431527
vt 0.4309353 0.3335016
vt 0.4638988 0.3260186
vt 0.4032414 0.3898893
vt 0.4337836 0.3841356
vt 0.4658029 0.3790208
vt 0.4038135 0.4436346
vt 0.4346031 0.4409079
vt 0.4663434 0.4382135
vt 0.5961333 0.3431527
vt 0.5941709 0.3898893
vt 0.5935988 0.4436346
vt 0.566477 0.3335016
vt 0.5636287 0.3841356
vt 0.5628092 0.4409079
vt 0.5335135 0.3260186
vt 0.5316095 0.3790208
vt 0.531069 0.4382135
vt 0.5961334 0.6586478
vt 0.5664771 0.6682988
vt 0.5335135 0.6757817
vt 0.5941709 0.6119112
vt 0.5636287 0.6176648
vt 0.5316095 0.6227795
vt 0.5935988 0.5581658
vt 0.5628092 0.5608926
vt 0.531069 0.563587
vt 0.4012789 0.6586478
vt 0.4032414 0.6119112
vt 0.4038135 0.5581658
vt 0.4309353 0.6682988
vt 0.4337836 0.6176648
vt 0.4346031 0.5608926
vt 0.4638988 0.6757817
vt 0.4658029 0.6227795
vt 0.4663434 0.563587
vt 0.6510928 0.3431527
vt 0.6807491 0.3335016
vt 0.7137126 0.3260186
vt 0.6530552 0.3898893
vt 0.6835974 0.3841356
vt 0.7156168 0.3790208
vt 0.6536273 0.4436346
vt 0.684417 0.4409079
vt 0.7161572 0.4382135
vt 0.8459471 0.3431527
vt 0.8439847 0.3898893
vt 0.8434125 0.4436346
vt 0.8162909 0.3335016
vt 0.8134426 0.3841356
vt 0.8126229 0.4409079
vt 0.7833273 0.3260186
vt 0.7814232 0.3790208
vt 0.7808827 0.4382135
vt 0.8459472 0.6586478
vt 0.8162909 0.6682988
vt 0.7833273 0.6757817
vt 0.8439847 0.6119112
vt 0.8134426 0.6176648
vt 0.7814232 0.6227797
vt 0.8434125 0.5581658
vt 0.8126229 0.5608926
vt 0.7808827 0.563587
vt 0.6510928 0.6586478
vt 0.6530552 0.6119112
vt 0.6536273 0.5581658
vt 0.6807491 0.6682988
vt 0.6835974 0.6176648
vt 0.684417 0.5608926
vt 0.7137126 0.6757817
vt 0.7156168 0.6227797
vt 0.7161572 0.563587
vt 0.9009064 0.3431527
vt 0.9305627 0.3335016
vt 0.9635264 0.3260186
vt 0.902869 0.3898893
vt 0.9334112 0.3841356
vt 0.9654305 0.3790208
vt 0.9034411 0.4436346
vt 0.9342307 0.4409079
vt 0.965971 0.4382135
vt 0.09650582 0.3431527
vt 0.0945434 0.3898893
vt 0.09397122 0.4436346
vt 0.06684953 0.3335016
vt 0.06400123 0.3841356
vt 0.06318161 0.4409079
vt 0.03388602 0.3260186
vt 0.03198189 0.3790208
vt 0.03144142 0.4382135
vt 0.09650585 0.6586478
vt 0.06684953 0.6682988
vt 0.03388602 0.6757817
vt 0.0945434 0.6119112
vt 0.06400123 0.6176648
vt 0.03198189 0.6227797
vt 0.09397122 0.5581658
vt 0.06318161 0.5608926
vt 0.03144142 0.563587
vt 0.9009064 0.6586478
vt 0.902869 0.6119112
vt 0.9034411 0.5581658
vt 0.9305627 0.6682988
vt 0.9334112 0.6176648
vt 0.9342307 0.5608926
vt 0.9635264 0.6757817
vt 0.9654305 0.6227797
vt 0.965971 0.563587
vt 0.1514652 0.3431527
vt 0.1811215 0.3335016
vt 0.214085 0.3260186
vt 0.1534276 0.3898893
vt 0.1839698 0.3841356
vt 0.2159891 0.3790208
vt 0.1539998 0.4436346
vt 0.1847894 0.4409079
vt 0.2165296 0.4382135
vt 0.3463196 0.3431527
vt 0.3443572 0.3898893
vt 0.343785 0.4436346
vt 0.3166633 0.3335016
vt 0.313815 0.3841356
vt 0.3129954 0.4409079
vt 0.2836998 0.3260186
vt 0.2817956 0.3790208
vt 0.2812552 0.4382135
vt 0.3463196 0.6586478
vt 0.3166633 0.6682988
vt 0.2836998 0.6757817
vt 0.3443572 0.6119112
vt 0.313815 0.6176648
vt 0.2817956 0.6227797
vt 0.343785 0.5581658
vt 0.3129954 0.5608926
vt 0.2812552 0.563587
vt 0.1514652 0.6586478
vt 0.1534276 0.6119112
vt 0.1539998 0.5581658
vt 0.1811215 0.6682988
vt 0.1839698 0.6176648
vt 0.1847894 0.5608926
vt 0.214085 0.6757817
vt 0.2159891 0.6227797
vt 0.2165296 0.563587
vt 0.4987062 0.09756867
vt 0.3734581 0.02175571
vt 0.119418 0.02175571
vt 0.9983337 0.2771286
vt 0.9983337 0.233575
vt 0.9983337 0.1733436
vt 0.9983337 0.1035097
vt 0.8739171 0.02038012
vt 0.8739171 0.02038012
vt 0.6224174 0.01762898
vt 0.4987062 0.09756867
vt 0.3847829 0.9717647
vt 0.6197699 0.9758912
vt 0.8750802 0.9731402
vt 0.8750802 0.9731402
vt -0.0009213686 0.7246718
vt -0.0009213686 0.7626636
vt -0.0009213686 0.8162426
vt -0.0009213686 0.9020402
vt 0.1294726 0.9717647
vt 0.3737993 0.3181914
vt 0.3935962 0.3048138
vt 0.4232635 0.2905639
vt 0.4591776 0.2806473
vt 0.4987062 0.2771286
vt 0.6038162 0.3048138
vt 0.6236131 0.3181914
vt 0.5741488 0.2905639
vt 0.5382347 0.2806473
vt 0.6236131 0.683609
vt 0.6038162 0.6969866
vt 0.5741488 0.7112365
vt 0.5382347 0.7211531
vt 0.4987062 0.7246718
vt 0.3935962 0.6969866
vt 0.3737993 0.683609
vt 0.4232635 0.7112365
vt 0.4591776 0.7211531
vt 0.6236131 0.3181914
vt 0.6236131 0.348428
vt 0.6434099 0.3048138
vt 0.6730773 0.2905639
vt 0.7089914 0.2806473
vt 0.74852 0.2771286
vt 0.6236131 0.3928966
vt 0.6236131 0.4450004
vt 0.6236131 0.5009002
vt 0.8536299 0.3048138
vt 0.8734268 0.3181914
vt 0.8239627 0.2905639
vt 0.7880484 0.2806473
vt 0.8734268 0.683609
vt 0.8536299 0.6969866
vt 0.8239627 0.7112365
vt 0.7880484 0.7211531
vt 0.74852 0.7246718
vt 0.6434099 0.6969866
vt 0.6236131 0.6533725
vt 0.6236131 0.683609
vt 0.6236131 0.6089039
vt 0.6236131 0.5568
vt 0.6730773 0.7112365
vt 0.7089914 0.7211531
vt 0.8734268 0.3181914
vt 0.8734268 0.348428
vt 0.8932236 0.3048139
vt 0.922891 0.2905639
vt 0.9588053 0.2806473
vt 0.9983337 0.2771286
vt 0.8734268 0.3928966
vt 0.8734268 0.4450004
vt 0.8734268 0.5009002
vt 0.1041886 0.3048139
vt 0.1239855 0.3181914
vt 0.07452133 0.2905639
vt 0.03860712 0.2806473
vt -0.0009213686 0.2771286
vt -0.0009213686 0.3230592
vt -0.0009213686 0.3767318
vt -0.0009213686 0.4369167
vt -0.0009213686 0.5009002
vt 0.1239855 0.6836091
vt 0.1041886 0.6969866
vt 0.07452133 0.7112365
vt 0.03860712 0.7211531
vt -0.0009213686 0.7246718
vt 0.8932238 0.6969866
vt 0.8734268 0.6533725
vt 0.8734268 0.683609
vt 0.8734268 0.6089039
vt 0.8734268 0.5568
vt 0.922891 0.7112365
vt 0.9588053 0.7211531
vt 0.9983337 0.7246718
vt 0.9983337 0.6787412
vt 0.9983337 0.6250687
vt 0.9983337 0.5648838
vt 0.1239855 0.3181914
vt 0.1239855 0.348428
vt 0.1437824 0.3048138
vt 0.1734497 0.2905639
vt 0.2093638 0.2806473
vt 0.2488924 0.2771286
vt 0.1239855 0.3928966
vt 0.1239855 0.4450004
vt 0.1239855 0.5009002
vt 0.3540024 0.3048138
vt 0.3737993 0.348428
vt 0.3737993 0.3181914
vt 0.3737993 0.3928966
vt 0.3737993 0.4450004
vt 0.3737993 0.5009002
vt 0.3243351 0.2905639
vt 0.2884209 0.2806473
vt 0.3737993 0.683609
vt 0.3737993 0.6533725
vt 0.3540024 0.6969866
vt 0.3243351 0.7112365
vt 0.2884209 0.7211531
vt 0.2488924 0.7246718
vt 0.3737993 0.6089039
vt 0.3737993 0.5568
vt 0.1437824 0.6969866
vt 0.1239855 0.6533725
vt 0.1239855 0.6836091
vt 0.1239855 0.6089039
vt 0.1239855 0.5568
vt 0.1734497 0.7112365
vt 0.2093638 0.7211531
vn 0.5773503 -0.5773503 -0.5773503
vn 0.5773503 0.5773503 -0.5773503
vn -0.5773503 -0.5773503 -0.5773503
vn -0.5773503 0.5773503 -0.5773503
vn 0.5770534 -0.5770534 0.5779435
vn 0.5770534 0.5770534 0.5779435
vn -0.5770534 -0.5770534 0.5779435
vn -0.5770534 0.5770534 0.5779435
vn 0 0 -1
vn 0 0 1
vn 0.999975 -0.0009141061 -0.007027187
vn 0 0.999977 -0.006783585
vn -0.999975 -0.0009139705 -0.00702751
vn 0 -0.9999735 -0.007271087
vn 0 -0.7071068 -0.7071068
vn -0.7071068 0 -0.7071068
vn 0 0.7071069 -0.7071066
vn 0.7071068 0 -0.7071068
vn 0.7072056 0 0.707008
vn 0 0.7072056 0.707008
vn -0.7072056 0 0.707008
vn 0 -0.7072056 0.707008
vn 0.707078 0.707078 -0.009016315
vn 0.7070715 -0.7070715 -0.009976584
vn -0.707078 0.707078 -0.009016315
vn -0.7070716 -0.7070715 -0.009976553
vn 0.4805394 -0.6201137 -0.6201137
vn 0.3410981 -0.6647 -0.6647
vn 0.1769334 -0.6959506 -0.6959506
vn -0.48054 -0.6201128 -0.620114
vn -0.3410983 -0.664699 -0.6647008
vn -0.176933 -0.6959504 -0.695951
vn -0.6201137 -0.4805394 -0.6201137
vn -0.6647 -0.3410981 -0.6647
vn -0.6959506 -0.1769334 -0.6959506
vn -0.6201128 0.48054 -0.620114
vn -0.664699 0.3410983 -0.6647008
vn -0.6959504 0.176933 -0.695951
vn -0.4805394 0.6201137 -0.6201137
vn -0.3410979 0.6647002 -0.6646999
vn -0.1769333 0.6959509 -0.6959505
vn 0.48054 0.6201128 -0.620114
vn 0.3410981 0.6646991 -0.6647007
vn 0.1769328 0.6959507 -0.6959507
vn 0.6201137 0.4805394 -0.6201137
vn 0.6647 0.3410981 -0.6647
vn 0.6959507 0.1769334 -0.6959506
vn 0.6201137 -0.4805394 -0.6201137
vn 0.6647 -0.3410981 -0.6647
vn 0.6959506 -0.1769334 -0.6959507
vn 0.6199054 -0.4803619 0.6204594
vn 0.6645957 -0.3413944 0.6646522
vn 0.6960512 -0.176858 0.6958691
vn 0.6199054 0.4803619 0.6204594
vn 0.6645954 0.3413946 0.6646523
vn 0.6960511 0.1768581 0.6958694
vn 0.4803619 0.6199054 0.6204594
vn 0.3413946 0.6645954 0.6646523
vn 0.1768581 0.6960511 0.6958693
vn -0.4803619 0.6199054 0.6204594
vn -0.3413946 0.6645954 0.6646523
vn -0.1768581 0.6960511 0.6958694
vn -0.6199054 0.4803619 0.6204594
vn -0.6645954 0.3413946 0.6646523
vn -0.6960511 0.1768581 0.6958694
vn -0.6199054 -0.4803619 0.6204594
vn -0.6645954 -0.3413946 0.6646523
vn -0.6960511 -0.1768581 0.6958694
vn -0.4803619 -0.6199054 0.6204594
vn -0.3413942 -0.6645955 0.6646523
vn -0.1768579 -0.6960511 0.6958694
vn 0.4803619 -0.6199054 0.6204594
vn 0.3413944 -0.6645957 0.6646522
vn 0.1768579 -0.6960513 0.6958691
vn 0.6201131 0.6201131 -0.4805407
vn 0.6646999 0.6646998 -0.3410986
vn 0.6950383 0.6950383 -0.1839666
vn 0.6199811 0.6199798 0.4808831
vn 0.6646252 0.6646233 0.3413929
vn 0.6961852 0.6961846 0.1750802
vn 0.6199811 -0.6199798 0.4808831
vn 0.6646252 -0.6646233 0.3413929
vn 0.6959636 -0.695963 0.1768336
vn 0.6201131 -0.6201131 -0.4805407
vn 0.6646999 -0.6646998 -0.3410986
vn 0.694679 -0.694679 -0.1866611
vn -0.6201137 0.6201137 -0.4805394
vn -0.6647 0.6647 -0.3410981
vn -0.6950381 0.6950381 -0.1839675
vn -0.6199802 0.6199802 0.4808837
vn -0.6646242 0.6646242 0.3413932
vn -0.696185 0.696185 0.1750798
vn -0.6201137 -0.6201137 -0.4805394
vn -0.6647 -0.6647 -0.3410981
vn -0.6946788 -0.6946788 -0.186662
vn -0.6199802 -0.6199802 0.4808837
vn -0.6646242 -0.6646242 0.3413932
vn -0.6959634 -0.6959634 0.1768332
vn 0 -0.559617 -0.8287514
vn 0 -0.3889727 -0.9212493
vn 0 -0.2032574 -0.9791253
vn -0.559617 0 -0.8287514
vn -0.3889731 0 -0.9212492
vn -0.2032576 0 -0.9791253
vn 0 0.559617 -0.8287514
vn 0 0.3889727 -0.9212493
vn 0 0.2032574 -0.9791253
vn 0.559617 0 -0.8287514
vn 0.3889727 0 -0.9212493
vn 0.2032573 0 -0.9791253
vn 0.5594022 0 0.8288963
vn 0.3883412 0 0.9215156
vn 0.2014461 0 0.9794996
vn 0 0.5594022 0.8288963
vn 0 0.3883407 0.9215159
vn 0 0.2014458 0.9794996
vn -0.5594022 0 0.8288963
vn -0.3883408 0 0.9215159
vn -0.2014458 0 0.9794997
vn 0 -0.5594023 0.8288963
vn 0 -0.3883408 0.9215158
vn 0 -0.2014458 0.9794996
vn 0.8287514 0 -0.559617
vn 0.9212492 0 -0.3889731
vn 0.9782798 -0.0003374418 -0.2072886
vn 0.8306221 0.5567707 -0.008560009
vn 0.9230274 0.3846596 -0.007569675
vn 0.9804376 0.1967086 -0.006910108
vn 0.829181 0 0.5589803
vn 0.921612 0 0.3881125
vn 0.9797031 -0.0005754959 0.2004529
vn 0.8290441 -0.5591018 -0.009544022
vn 0.9214768 -0.3883391 -0.00855847
vn 0.9797992 -0.1998379 -0.007640349
vn 0 0.8287514 -0.559617
vn 0 0.921249 -0.3889733
vn 0 0.9782113 -0.2076114
vn -0.5567707 0.8306221 -0.008560009
vn -0.3846596 0.9230274 -0.007569675
vn -0.1967087 0.9804376 -0.006910208
vn 0 0.829181 0.5589803
vn 0 0.9216118 0.3881129
vn 0 0.9795892 0.2010102
vn 0.5567707 0.8306221 -0.008560009
vn 0.3846596 0.9230274 -0.007569675
vn 0.1967088 0.9804376 -0.006910203
vn -0.8287514 0 -0.559617
vn -0.9212493 0 -0.3889727
vn -0.9782799 -0.0003373459 -0.2072884
vn -0.8290441 -0.5591018 -0.009543983
vn -0.9214768 -0.3883391 -0.008558429
vn -0.9797992 -0.1998378 -0.007640469
vn -0.829181 0 0.5589803
vn -0.9216118 0 0.3881128
vn -0.9797031 -0.0005753229 0.2004532
vn -0.8306221 0.5567707 -0.008560009
vn -0.9230274 0.3846596 -0.007569675
vn -0.9804376 0.1967086 -0.006910289
vn 0 -0.8287514 -0.559617
vn 0 -0.9212492 -0.3889731
vn 0 -0.9783482 -0.2069658
vn 0.5591018 -0.8290441 -0.009544019
vn 0.388339 -0.9214768 -0.008558459
vn 0.1998378 -0.9797992 -0.007640359
vn 0 -0.8291808 0.5589804
vn 0 -0.9216118 0.388113
vn 0 -0.9798171 0.1998962
vn -0.5591018 -0.8290441 -0.009543994
vn -0.3883391 -0.9214768 -0.008558438
vn -0.199838 -0.9797992 -0.007640417
vn 0.4963527 -0.4963527 -0.7122274
vn 0.3492379 -0.5272623 -0.7746143
vn 0.1805437 -0.5508541 -0.8148397
vn 0.5272623 -0.3492379 -0.7746143
vn 0.3670194 -0.3670194 -0.8547476
vn 0.1887311 -0.3828188 -0.9043397
vn 0.5508541 -0.1805437 -0.8148397
vn 0.3828188 -0.1887311 -0.9043397
vn 0.1982114 -0.1982114 -0.9599085
vn -0.4963527 -0.4963527 -0.7122274
vn -0.5272623 -0.3492379 -0.7746143
vn -0.5508541 -0.1805437 -0.8148397
vn -0.3492379 -0.5272623 -0.7746143
vn -0.3670194 -0.3670194 -0.8547476
vn -0.382819 -0.1887314 -0.9043396
vn -0.1805437 -0.5508541 -0.8148397
vn -0.1887312 -0.3828188 -0.9043397
vn -0.1982115 -0.1982117 -0.9599085
vn -0.4963527 0.4963527 -0.7122274
vn -0.3492379 0.5272623 -0.7746143
vn -0.1805437 0.5508541 -0.8148397
vn -0.5272623 0.3492379 -0.7746143
vn -0.3670194 0.3670194 -0.8547476
vn -0.1887312 0.3828188 -0.9043397
vn -0.5508541 0.1805437 -0.8148397
vn -0.382819 0.1887314 -0.9043396
vn -0.1982115 0.1982117 -0.9599085
vn 0.4963527 0.4963527 -0.7122274
vn 0.5272623 0.3492379 -0.7746143
vn 0.5508541 0.1805437 -0.8148397
vn 0.3492379 0.5272623 -0.7746143
vn 0.3670194 0.3670194 -0.8547476
vn 0.3828188 0.1887311 -0.9043397
vn 0.1805438 0.5508541 -0.8148397
vn 0.1887311 0.3828188 -0.9043397
vn 0.1982114 0.1982114 -0.9599085
vn 0.4962236 -0.4962236 0.7124074
vn 0.5271254 -0.3495651 0.7745599
vn 0.5506793 -0.1804701 0.8149741
vn 0.3495651 -0.5271254 0.7745599
vn 0.3668588 -0.3668588 0.8548855
vn 0.3822528 -0.188532 0.9046206
vn 0.18047 -0.5506793 0.8149742
vn 0.1885317 -0.3822526 0.9046208
vn 0.1972087 -0.1972089 0.9603215
vn 0.4962236 0.4962236 0.7124074
vn 0.3495651 0.5271254 0.7745599
vn 0.1804701 0.5506793 0.8149741
vn 0.5271254 0.3495651 0.7745599
vn 0.3668588 0.3668588 0.8548855
vn 0.1885318 0.3822526 0.9046208
vn 0.5506793 0.18047 0.8149742
vn 0.3822529 0.188532 0.9046206
vn 0.1972087 0.1972089 0.9603215
vn -0.4962236 0.4962236 0.7124074
vn -0.5271254 0.3495651 0.7745599
vn -0.5506793 0.1804701 0.8149742
vn -0.3495651 0.5271254 0.7745599
vn -0.3668588 0.3668588 0.8548855
vn -0.3822526 0.1885318 0.9046208
vn -0.18047 0.5506793 0.8149742
vn -0.1885318 0.3822526 0.9046208
vn -0.1972086 0.1972086 0.9603216
vn -0.4962236 -0.4962236 0.7124074
vn -0.3495646 -0.5271254 0.7745602
vn -0.1804698 -0.5506793 0.8149742
vn -0.5271254 -0.3495651 0.7745599
vn -0.3668587 -0.3668591 0.8548855
vn -0.1885316 -0.3822529 0.9046206
vn -0.5506793 -0.18047 0.8149742
vn -0.3822526 -0.1885318 0.9046208
vn -0.1972086 -0.1972086 0.9603216
vn 0.7122266 -0.4963524 -0.4963542
vn 0.7746142 -0.3492372 -0.5272629
vn 0.8148397 -0.1805438 -0.5508541
vn 0.7746139 -0.5272623 -0.3492387
vn 0.8547479 -0.3670183 -0.3670197
vn 0.9043396 -0.1887314 -0.382819
vn 0.8134452 -0.549794 -0.189825
vn 0.9028698 -0.3821057 -0.1970319
vn 0.9590998 -0.1962021 -0.2040402
vn 0.7122266 0.4963524 -0.4963542
vn 0.7746139 0.5272623 -0.3492387
vn 0.8145636 0.5488426 -0.1877707
vn 0.7746142 0.3492371 -0.527263
vn 0.8547479 0.3670183 -0.3670197
vn 0.9037763 0.3803126 -0.1963431
vn 0.8148397 0.1805437 -0.550854
vn 0.9043396 0.1887314 -0.382819
vn 0.9593295 0.1947386 -0.204362
vn 0.7125368 0.4958554 0.4964059
vn 0.7749057 0.3491912 0.5268649
vn 0.8152629 0.1804915 0.5502449
vn 0.7750265 0.5265663 0.3493735
vn 0.8552524 0.3663428 0.3665192
vn 0.9047235 0.1886469 0.3819526
vn 0.8163346 0.5490147 0.1793894
vn 0.9055392 0.379903 0.1888714
vn 0.960723 0.1948826 0.1975649
vn 0.7125368 -0.4958554 0.4964059
vn 0.7750265 -0.5265662 0.3493734
vn 0.8153886 -0.5500622 0.1804795
vn 0.7749059 -0.3491908 0.526865
vn 0.8552524 -0.3663425 0.3665194
vn 0.9048201 -0.3817516 0.1885902
vn 0.8152629 -0.1804913 0.5502449
vn 0.9047233 -0.1886469 0.3819529
vn 0.9605871 -0.1965994 0.1965227
vn 0.4963539 0.7122259 -0.4963539
vn 0.3492374 0.7746141 -0.527263
vn 0.1805425 0.81484 -0.5508541
vn 0.5272629 0.7746139 -0.3492379
vn 0.3670184 0.8547482 -0.3670188
vn 0.1887308 0.9043397 -0.3828188
vn 0.5488426 0.8145636 -0.1877707
vn 0.3803126 0.9037763 -0.1963431
vn 0.1947386 0.9593295 -0.204362
vn -0.4963527 0.7122274 -0.4963527
vn -0.5272623 0.7746143 -0.3492379
vn -0.5488427 0.8145635 -0.1877716
vn -0.3492375 0.7746145 -0.5272624
vn -0.3670192 0.8547476 -0.3670197
vn -0.380313 0.903776 -0.1963435
vn -0.1805434 0.8148397 -0.5508541
vn -0.1887312 0.9043395 -0.3828192
vn -0.1947386 0.9593295 -0.204362
vn -0.495855 0.712536 0.4964073
vn -0.3491905 0.7749056 0.5268657
vn -0.1804915 0.8152629 0.5502449
vn -0.5265663 0.7750263 0.3493741
vn -0.3663416 0.8552527 0.3665195
vn -0.1886471 0.9047233 0.3819528
vn -0.5490147 0.8163348 0.1793885
vn -0.3799026 0.9055395 0.188871
vn -0.1948829 0.9607229 0.1975651
vn 0.495855 0.712536 0.4964073
vn 0.5265663 0.7750263 0.3493741
vn 0.5490148 0.8163348 0.1793885
vn 0.3491904 0.7749056 0.5268656
vn 0.3663416 0.8552527 0.3665195
vn 0.3799026 0.9055395 0.188871
vn 0.1804916 0.8152628 0.5502448
vn 0.1886472 0.9047233 0.3819528
vn 0.194883 0.9607229 0.1975651
vn -0.7122266 0.4963542 -0.4963524
vn -0.7746139 0.3492387 -0.5272623
vn -0.8148399 0.1805429 -0.5508541
vn -0.7746142 0.527263 -0.3492371
vn -0.8547479 0.3670197 -0.3670183
vn -0.90434 0.1887307 -0.3828184
vn -0.8145635 0.5488427 -0.1877716
vn -0.903776 0.380313 -0.1963435
vn -0.9593295 0.1947383 -0.2043618
vn -0.7122274 -0.4963527 -0.4963527
vn -0.7746143 -0.5272623 -0.3492379
vn -0.813445 -0.5497938 -0.1898259
vn -0.7746143 -0.3492379 -0.5272623
vn -0.8547476 -0.3670194 -0.3670194
vn -0.9028695 -0.382106 -0.1970323
vn -0.8148397 -0.1805437 -0.550854
vn -0.9043397 -0.1887311 -0.3828188
vn -0.9590999 -0.1962017 -0.2040401
vn -0.712536 -0.495855 0.4964073
vn -0.7749056 -0.3491905 0.5268657
vn -0.8152629 -0.1804915 0.5502449
vn -0.7750263 -0.5265663 0.3493741
vn -0.8552527 -0.3663416 0.3665195
vn -0.9047233 -0.1886472 0.3819528
vn -0.8153889 -0.5500622 0.1804786
vn -0.9048204 -0.3817511 0.1885898
vn -0.960587 -0.1965996 0.1965229
vn -0.712536 0.495855 0.4964073
vn -0.7750263 0.5265663 0.3493741
vn -0.8163348 0.5490148 0.1793885
vn -0.7749056 0.3491904 0.5268656
vn -0.8552527 0.3663416 0.3665195
vn -0.9055395 0.3799026 0.188871
vn -0.8152628 0.1804915 0.5502448
vn -0.9047233 0.1886472 0.3819528
vn -0.9607229 0.194883 0.1975651
vn -0.4963542 -0.7122266 -0.4963524
vn -0.3492387 -0.7746139 -0.5272623
vn -0.1805428 -0.8148399 -0.5508541
vn -0.527263 -0.7746142 -0.3492371
vn -0.3670197 -0.8547479 -0.3670183
vn -0.1887309 -0.9043399 -0.3828185
vn -0.5497938 -0.813445 -0.1898259
vn -0.382106 -0.9028695 -0.1970323
vn -0.196202 -0.9590998 -0.2040402
vn 0.4963524 -0.7122266 -0.4963542
vn 0.5272623 -0.7746139 -0.3492387
vn 0.549794 -0.8134452 -0.189825
vn 0.3492371 -0.7746142 -0.527263
vn 0.3670183 -0.8547479 -0.3670197
vn 0.3821056 -0.9028698 -0.1970319
vn 0.1805437 -0.8148397 -0.5508541
vn 0.1887314 -0.9043396 -0.382819
vn 0.196202 -0.9590998 -0.2040401
vn 0.495855 -0.712536 0.4964073
vn 0.3491899 -0.7749057 0.5268657
vn 0.1804911 -0.8152629 0.5502449
vn 0.5265663 -0.7750263 0.3493741
vn 0.3663414 -0.8552527 0.3665197
vn 0.188647 -0.9047232 0.3819531
vn 0.5500622 -0.8153889 0.1804786
vn 0.3817511 -0.9048204 0.1885898
vn 0.1965995 -0.960587 0.1965229
vn -0.495855 -0.712536 0.4964073
vn -0.5265663 -0.7750263 0.3493741
vn -0.5500622 -0.8153889 0.1804786
vn -0.3491899 -0.7749057 0.5268657
vn -0.3663414 -0.8552527 0.3665197
vn -0.3817512 -0.9048204 0.1885898
vn -0.1804913 -0.8152629 0.5502449
vn -0.1886472 -0.9047232 0.3819532
vn -0.1965997 -0.960587 0.1965229
vn 0.2032573 0 -0.9791253
vn 0 0 -1
vn 0 0 -1
vn -0.7071068 0 -0.7071068
vn -0.559617 0 -0.8287514
vn -0.3889731 0 -0.9212492
vn -0.2032576 0 -0.9791253
vn 0 0 -1
vn 0 0 -1
vn 0 0 -1
vn 0.2032573 0 -0.9791253
vn 0 0 1
vn 0 0 1
vn 0 0 1
vn 0 0 1
vn -0.7072056 0 0.707008
vn -0.5594022 0 0.8288963
vn -0.3883408 0 0.9215159
vn -0.2014458 0 0.9794997
vn 0 0 1
vn 0.5773503 -0.5773503 -0.5773503
vn 0.6201137 -0.4805394 -0.6201137
vn 0.6647 -0.3410981 -0.6647
vn 0.6959506 -0.1769334 -0.6959507
vn 0.7071068 0 -0.7071068
vn 0.6201137 0.4805394 -0.6201137
vn 0.5773503 0.5773503 -0.5773503
vn 0.6647 0.3410981 -0.6647
vn 0.6959507 0.1769334 -0.6959506
vn 0.5770534 0.5770534 0.5779435
vn 0.6199054 0.4803619 0.6204594
vn 0.6645954 0.3413946 0.6646523
vn 0.6960511 0.1768581 0.6958694
vn 0.7072056 0 0.707008
vn 0.6199054 -0.4803619 0.6204594
vn 0.5770534 -0.5770534 0.5779435
vn 0.6645957 -0.3413944 0.6646522
vn 0.6960512 -0.176858 0.6958691
vn 0.5773503 0.5773503 -0.5773503
vn 0.6201131 0.6201131 -0.4805407
vn 0.48054 0.6201128 -0.620114
vn 0.3410981 0.6646991 -0.6647007
vn 0.1769328 0.6959507 -0.6959507
vn 0 0.7071069 -0.7071066
vn 0.6646999 0.6646998 -0.3410986
vn 0.6950383 0.6950383 -0.1839666
vn 0.707078 0.707078 -0.009016315
vn -0.4805394 0.6201137 -0.6201137
vn -0.5773503 0.5773503 -0.5773503
vn -0.3410979 0.6647002 -0.6646999
vn -0.1769333 0.6959509 -0.6959505
vn -0.5770534 0.5770534 0.5779435
vn -0.4803619 0.6199054 0.6204594
vn -0.3413946 0.6645954 0.6646523
vn -0.1768581 0.6960511 0.6958694
vn 0 0.7072056 0.707008
vn 0.4803619 0.6199054 0.6204594
vn 0.6199811 0.6199798 0.4808831
vn 0.5770534 0.5770534 0.5779435
vn 0.6646252 0.6646233 0.3413929
vn 0.6961852 0.6961846 0.1750802
vn 0.3413946 0.6645954 0.6646523
vn 0.1768581 0.6960511 0.6958693
vn -0.5773503 0.5773503 -0.5773503
vn -0.6201137 0.6201137 -0.4805394
vn -0.6201128 0.48054 -0.620114
vn -0.664699 0.3410983 -0.6647008
vn -0.6959504 0.176933 -0.695951
vn -0.7071068 0 -0.7071068
vn -0.6647 0.6647 -0.3410981
vn -0.6950381 0.6950381 -0.1839675
vn -0.707078 0.707078 -0.009016315
vn -0.6201137 -0.4805394 -0.6201137
vn -0.5773503 -0.5773503 -0.5773503
vn -0.6647 -0.3410981 -0.6647
vn -0.6959506 -0.1769334 -0.6959506
vn -0.7071068 0 -0.7071068
vn -0.8287514 0 -0.559617
vn -0.9212493 0 -0.3889727
vn -0.9782799 -0.0003373459 -0.2072884
vn -0.999975 -0.0009139705 -0.00702751
vn -0.5770534 -0.5770534 0.5779435
vn -0.6199054 -0.4803619 0.6204594
vn -0.6645954 -0.3413946 0.6646523
vn -0.6960511 -0.1768581 0.6958694
vn -0.7072056 0 0.707008
vn -0.6199054 0.4803619 0.6204594
vn -0.6199802 0.6199802 0.4808837
vn -0.5770534 0.5770534 0.5779435
vn -0.6646242 0.6646242 0.3413932
vn -0.696185 0.696185 0.1750798
vn -0.6645954 0.3413946 0.6646523
vn -0.6960511 0.1768581 0.6958694
vn -0.7072056 0 0.707008
vn -0.829181 0 0.5589803
vn -0.9216118 0 0.3881128
vn -0.9797031 -0.0005753229 0.2004532
vn -0.5773503 -0.5773503 -0.5773503
vn -0.6201137 -0.6201137 -0.4805394
vn -0.48054 -0.6201128 -0.620114
vn -0.3410983 -0.664699 -0.6647008
vn -0.176933 -0.6959504 -0.695951
vn 0 -0.7071068 -0.7071068
vn -0.6647 -0.6647 -0.3410981
vn -0.6946788 -0.6946788 -0.186662
vn -0.7070716 -0.7070715 -0.009976553
vn 0.4805394 -0.6201137 -0.6201137
vn 0.6201131 -0.6201131 -0.4805407
vn 0.5773503 -0.5773503 -0.5773503
vn 0.6646999 -0.6646998 -0.3410986
vn 0.694679 -0.694679 -0.1866611
vn 0.7070715 -0.7070715 -0.009976584
vn 0.3410981 -0.6647 -0.6647
vn 0.1769334 -0.6959506 -0.6959506
vn 0.5770534 -0.5770534 0.5779435
vn 0.6199811 -0.6199798 0.4808831
vn 0.4803619 -0.6199054 0.6204594
vn 0.3413944 -0.6645957 0.6646522
vn 0.1768579 -0.6960513 0.6958691
vn 0 -0.7072056 0.707008
vn 0.6646252 -0.6646233 0.3413929
vn 0.6959636 -0.695963 0.1768336
vn -0.4803619 -0.6199054 0.6204594
vn -0.6199802 -0.6199802 0.4808837
vn -0.5770534 -0.5770534 0.5779435
vn -0.6646242 -0.6646242 0.3413932
vn -0.6959634 -0.6959634 0.1768332
vn -0.3413942 -0.6645955 0.6646523
vn -0.1768579 -0.6960511 0.6958694
usemtl TransluscentGreen
f 178/178/178 179/179/179 387/387/387 
f 175/175/175 179/179/179 178/178/178 
f 174/174/174 175/175/175 178/178/178 
f 174/174/174 178/178/178 177/177/177 
f 177/177/177 178/178/178 109/109/109 
f 178/178/178 110/110/110 109/109/109 
f 179/179/179 9/9/9 110/110/110 
f 206/206/206 109/109/109 110/110/110 
f 175/175/175 176/176/176 179/179/179 
f 176/176/176 101/101/101 179/179/179 
f 179/179/179 101/101/101 388/388/388 
f 171/171/171 175/175/175 174/174/174 
f 172/172/172 176/176/176 175/175/175 
f 171/171/171 172/172/172 175/175/175 
f 49/49/49 174/174/174 177/177/177 
f 48/48/48 174/174/174 49/49/49 
f 48/48/48 171/171/171 174/174/174 
f 1/1/1 171/171/171 48/48/48 
f 1/1/1 27/27/27 171/171/171 
f 27/27/27 172/172/172 171/171/171 
f 49/49/49 177/177/177 50/50/50 
f 27/27/27 28/28/28 172/172/172 
f 50/50/50 177/177/177 108/108/108 
f 50/50/50 108/108/108 18/18/18 
f 177/177/177 109/109/109 108/108/108 
f 28/28/28 173/173/173 172/172/172 
f 172/172/172 173/173/173 176/176/176 
f 28/28/28 29/29/29 173/173/173 
f 200/200/200 18/18/18 108/108/108 
f 200/200/200 47/47/47 18/18/18 
f 203/203/203 108/108/108 109/109/109 
f 203/203/203 200/200/200 108/108/108 
f 206/206/206 203/203/203 109/109/109 
f 173/173/173 100/100/100 176/176/176 
f 176/176/176 100/100/100 101/101/101 
f 29/29/29 99/99/99 173/173/173 
f 173/173/173 99/99/99 100/100/100 
f 29/29/29 15/15/15 99/99/99 
f 199/199/199 47/47/47 200/200/200 
f 199/199/199 46/46/46 47/47/47 
f 202/202/202 200/200/200 203/203/203 
f 202/202/202 199/199/199 200/200/200 
f 15/15/15 186/186/186 99/99/99 
f 15/15/15 32/32/32 186/186/186 
f 99/99/99 187/187/187 100/100/100 
f 99/99/99 186/186/186 187/187/187 
f 100/100/100 188/188/188 101/101/101 
f 100/100/100 187/187/187 188/188/188 
f 198/198/198 46/46/46 199/199/199 
f 198/198/198 45/45/45 46/46/46 
f 32/32/32 183/183/183 186/186/186 
f 32/32/32 31/31/31 183/183/183 
f 101/101/101 188/188/188 104/104/104 
f 101/101/101 104/104/104 389/389/389 
f 188/188/188 103/103/103 104/104/104 
f 188/188/188 185/185/185 103/103/103 
f 187/187/187 185/185/185 188/188/188 
f 185/185/185 102/102/102 103/103/103 
f 186/186/186 184/184/184 187/187/187 
f 187/187/187 184/184/184 185/185/185 
f 186/186/186 183/183/183 184/184/184 
f 185/185/185 182/182/182 102/102/102 
f 184/184/184 182/182/182 185/185/185 
f 182/182/182 16/16/16 102/102/102 
f 182/182/182 35/35/35 16/16/16 
f 184/184/184 181/181/181 182/182/182 
f 181/181/181 35/35/35 182/182/182 
f 183/183/183 181/181/181 184/184/184 
f 181/181/181 34/34/34 35/35/35 
f 183/183/183 180/180/180 181/181/181 
f 180/180/180 34/34/34 181/181/181 
f 31/31/31 180/180/180 183/183/183 
f 180/180/180 33/33/33 34/34/34 
f 31/31/31 30/30/30 180/180/180 
f 30/30/30 33/33/33 180/180/180 
f 30/30/30 3/3/3 33/33/33 
f 107/107/107 110/110/110 396/396/396 
f 197/197/197 107/107/107 395/395/395 
f 194/194/194 107/107/107 197/197/197 
f 194/194/194 106/106/106 107/107/107 
f 106/106/106 206/206/206 107/107/107 
f 107/107/107 206/206/206 397/397/397 
f 106/106/106 205/205/205 206/206/206 
f 205/205/205 203/203/203 206/206/206 
f 205/205/205 202/202/202 203/203/203 
f 105/105/105 205/205/205 106/106/106 
f 204/204/204 202/202/202 205/205/205 
f 105/105/105 204/204/204 205/205/205 
f 191/191/191 106/106/106 194/194/194 
f 191/191/191 105/105/105 106/106/106 
f 204/204/204 201/201/201 202/202/202 
f 201/201/201 199/199/199 202/202/202 
f 201/201/201 198/198/198 199/199/199 
f 17/17/17 204/204/204 105/105/105 
f 41/41/41 17/17/17 105/105/105 
f 41/41/41 105/105/105 191/191/191 
f 17/17/17 44/44/44 204/204/204 
f 44/44/44 201/201/201 204/204/204 
f 44/44/44 43/43/43 201/201/201 
f 43/43/43 198/198/198 201/201/201 
f 43/43/43 42/42/42 198/198/198 
f 42/42/42 45/45/45 198/198/198 
f 42/42/42 2/2/2 45/45/45 
f 40/40/40 41/41/41 191/191/191 
f 40/40/40 191/191/191 190/190/190 
f 39/39/39 40/40/40 190/190/190 
f 190/190/190 191/191/191 194/194/194 
f 39/39/39 190/190/190 189/189/189 
f 4/4/4 39/39/39 189/189/189 
f 4/4/4 189/189/189 36/36/36 
f 190/190/190 194/194/194 193/193/193 
f 189/189/189 190/190/190 193/193/193 
f 193/193/193 194/194/194 197/197/197 
f 36/36/36 189/189/189 192/192/192 
f 189/189/189 193/193/193 192/192/192 
f 36/36/36 192/192/192 37/37/37 
f 193/193/193 197/197/197 196/196/196 
f 192/192/192 193/193/193 196/196/196 
f 37/37/37 192/192/192 195/195/195 
f 192/192/192 196/196/196 195/195/195 
f 37/37/37 195/195/195 38/38/38 
f 196/196/196 197/197/197 393/393/393 
f 197/197/197 394/394/394 393/393/393 
f 196/196/196 393/393/393 392/392/392 
f 195/195/195 196/196/196 392/392/392 
f 195/195/195 392/392/392 391/391/391 
f 38/38/38 195/195/195 391/391/391 
f 38/38/38 391/391/391 390/390/390 
f 215/215/215 10/10/10 122/122/122 
f 214/214/214 215/215/215 122/122/122 
f 211/211/211 215/215/215 214/214/214 
f 211/211/211 212/212/212 215/215/215 
f 212/212/212 113/113/113 215/215/215 
f 215/215/215 113/113/113 398/398/398 
f 214/214/214 122/122/122 121/121/121 
f 210/210/210 211/211/211 214/214/214 
f 213/213/213 214/214/214 121/121/121 
f 210/210/210 214/214/214 213/213/213 
f 208/208/208 212/212/212 211/211/211 
f 207/207/207 211/211/211 210/210/210 
f 207/207/207 208/208/208 211/211/211 
f 73/73/73 210/210/210 213/213/213 
f 72/72/72 210/210/210 73/73/73 
f 72/72/72 207/207/207 210/210/210 
f 5/5/5 207/207/207 72/72/72 
f 5/5/5 51/51/51 207/207/207 
f 51/51/51 208/208/208 207/207/207 
f 73/73/73 213/213/213 74/74/74 
f 51/51/51 52/52/52 208/208/208 
f 74/74/74 213/213/213 120/120/120 
f 213/213/213 121/121/121 120/120/120 
f 74/74/74 120/120/120 22/22/22 
f 52/52/52 209/209/209 208/208/208 
f 208/208/208 209/209/209 212/212/212 
f 52/52/52 53/53/53 209/209/209 
f 236/236/236 22/22/22 120/120/120 
f 236/236/236 71/71/71 22/22/22 
f 239/239/239 120/120/120 121/121/121 
f 239/239/239 236/236/236 120/120/120 
f 209/209/209 112/112/112 212/212/212 
f 212/212/212 112/112/112 113/113/113 
f 53/53/53 111/111/111 209/209/209 
f 209/209/209 111/111/111 112/112/112 
f 53/53/53 19/19/19 111/111/111 
f 235/235/235 71/71/71 236/236/236 
f 235/235/235 70/70/70 71/71/71 
f 19/19/19 222/222/222 111/111/111 
f 19/19/19 56/56/56 222/222/222 
f 111/111/111 223/223/223 112/112/112 
f 111/111/111 222/222/222 223/223/223 
f 112/112/112 224/224/224 113/113/113 
f 112/112/112 223/223/223 224/224/224 
f 56/56/56 219/219/219 222/222/222 
f 56/56/56 55/55/55 219/219/219 
f 222/222/222 220/220/220 223/223/223 
f 222/222/222 219/219/219 220/220/220 
f 55/55/55 216/216/216 219/219/219 
f 55/55/55 54/54/54 216/216/216 
f 54/54/54 57/57/57 216/216/216 
f 54/54/54 6/6/6 57/57/57 
f 216/216/216 57/57/57 58/58/58 
f 219/219/219 216/216/216 217/217/217 
f 216/216/216 58/58/58 217/217/217 
f 219/219/219 217/217/217 220/220/220 
f 217/217/217 58/58/58 59/59/59 
f 217/217/217 59/59/59 218/218/218 
f 220/220/220 217/217/217 218/218/218 
f 218/218/218 59/59/59 20/20/20 
f 223/223/223 220/220/220 221/221/221 
f 220/220/220 218/218/218 221/221/221 
f 223/223/223 221/221/221 224/224/224 
f 218/218/218 20/20/20 114/114/114 
f 221/221/221 218/218/218 114/114/114 
f 62/62/62 114/114/114 20/20/20 
f 224/224/224 221/221/221 115/115/115 
f 221/221/221 114/114/114 115/115/115 
f 62/62/62 231/231/231 114/114/114 
f 231/231/231 115/115/115 114/114/114 
f 61/61/61 231/231/231 62/62/62 
f 224/224/224 115/115/115 116/116/116 
f 113/113/113 224/224/224 116/116/116 
f 113/113/113 116/116/116 399/399/399 
f 61/61/61 228/228/228 231/231/231 
f 60/60/60 228/228/228 61/61/61 
f 231/231/231 232/232/232 115/115/115 
f 232/232/232 116/116/116 115/115/115 
f 228/228/228 232/232/232 231/231/231 
f 60/60/60 225/225/225 228/228/228 
f 8/8/8 225/225/225 60/60/60 
f 8/8/8 63/63/63 225/225/225 
f 232/232/232 233/233/233 116/116/116 
f 233/233/233 400/400/400 116/116/116 
f 228/228/228 229/229/229 232/232/232 
f 225/225/225 229/229/229 228/228/228 
f 229/229/229 233/233/233 232/232/232 
f 63/63/63 226/226/226 225/225/225 
f 225/225/225 226/226/226 229/229/229 
f 63/63/63 64/64/64 226/226/226 
f 229/229/229 230/230/230 233/233/233 
f 226/226/226 230/230/230 229/229/229 
f 64/64/64 227/227/227 226/226/226 
f 226/226/226 227/227/227 230/230/230 
f 64/64/64 65/65/65 227/227/227 
f 230/230/230 119/119/119 233/233/233 
f 233/233/233 119/119/119 401/401/401 
f 230/230/230 118/118/118 119/119/119 
f 227/227/227 118/118/118 230/230/230 
f 227/227/227 117/117/117 118/118/118 
f 65/65/65 117/117/117 227/227/227 
f 65/65/65 21/21/21 117/117/117 
f 66/66/66 7/7/7 69/69/69 
f 66/66/66 69/69/69 234/234/234 
f 234/234/234 69/69/69 70/70/70 
f 67/67/67 66/66/66 234/234/234 
f 234/234/234 70/70/70 235/235/235 
f 67/67/67 234/234/234 237/237/237 
f 237/237/237 234/234/234 235/235/235 
f 68/68/68 67/67/67 237/237/237 
f 237/237/237 235/235/235 238/238/238 
f 238/238/238 235/235/235 236/236/236 
f 238/238/238 236/236/236 239/239/239 
f 68/68/68 237/237/237 240/240/240 
f 240/240/240 237/237/237 238/238/238 
f 402/402/402 68/68/68 240/240/240 
f 402/402/402 240/240/240 403/403/403 
f 240/240/240 238/238/238 241/241/241 
f 403/403/403 240/240/240 241/241/241 
f 241/241/241 238/238/238 239/239/239 
f 403/403/403 241/241/241 404/404/404 
f 241/241/241 239/239/239 242/242/242 
f 404/404/404 241/241/241 242/242/242 
f 242/242/242 239/239/239 121/121/121 
f 404/404/404 242/242/242 405/405/405 
f 242/242/242 121/121/121 122/122/122 
f 405/405/405 242/242/242 122/122/122 
f 405/405/405 122/122/122 406/406/406 
f 412/412/412 413/413/413 75/75/75 
f 412/412/412 75/75/75 252/252/252 
f 414/414/414 412/412/412 252/252/252 
f 252/252/252 75/75/75 76/76/76 
f 414/414/414 252/252/252 255/255/255 
f 415/415/415 414/414/414 255/255/255 
f 252/252/252 76/76/76 253/253/253 
f 255/255/255 252/252/252 253/253/253 
f 253/253/253 76/76/76 77/77/77 
f 415/415/415 255/255/255 258/258/258 
f 411/411/411 415/415/415 258/258/258 
f 253/253/253 77/77/77 254/254/254 
f 254/254/254 77/77/77 23/23/23 
f 255/255/255 253/253/253 256/256/256 
f 258/258/258 255/255/255 256/256/256 
f 256/256/256 253/253/253 254/254/254 
f 411/411/411 258/258/258 123/123/123 
f 410/410/410 411/411/411 123/123/123 
f 254/254/254 23/23/23 126/126/126 
f 80/80/80 126/126/126 23/23/23 
f 256/256/256 254/254/254 257/257/257 
f 257/257/257 254/254/254 126/126/126 
f 258/258/258 256/256/256 259/259/259 
f 123/123/123 258/258/258 259/259/259 
f 259/259/259 256/256/256 257/257/257 
f 410/410/410 123/123/123 245/245/245 
f 409/409/409 410/410/410 245/245/245 
f 80/80/80 267/267/267 126/126/126 
f 79/79/79 267/267/267 80/80/80 
f 123/123/123 259/259/259 124/124/124 
f 245/245/245 123/123/123 124/124/124 
f 257/257/257 126/126/126 127/127/127 
f 267/267/267 127/127/127 126/126/126 
f 259/259/259 257/257/257 260/260/260 
f 124/124/124 259/259/259 260/260/260 
f 260/260/260 257/257/257 127/127/127 
f 409/409/409 245/245/245 244/244/244 
f 408/408/408 409/409/409 244/244/244 
f 79/79/79 264/264/264 267/267/267 
f 78/78/78 264/264/264 79/79/79 
f 245/245/245 124/124/124 248/248/248 
f 244/244/244 245/245/245 248/248/248 
f 124/124/124 260/260/260 125/125/125 
f 248/248/248 124/124/124 125/125/125 
f 260/260/260 127/127/127 128/128/128 
f 125/125/125 260/260/260 128/128/128 
f 267/267/267 268/268/268 127/127/127 
f 264/264/264 268/268/268 267/267/267 
f 268/268/268 128/128/128 127/127/127 
f 408/408/408 244/244/244 243/243/243 
f 407/407/407 408/408/408 243/243/243 
f 407/407/407 243/243/243 84/84/84 
f 244/244/244 248/248/248 247/247/247 
f 243/243/243 244/244/244 247/247/247 
f 84/84/84 243/243/243 246/246/246 
f 243/243/243 247/247/247 246/246/246 
f 84/84/84 246/246/246 85/85/85 
f 248/248/248 125/125/125 251/251/251 
f 247/247/247 248/248/248 251/251/251 
f 125/125/125 128/128/128 11/11/11 
f 251/251/251 125/125/125 11/11/11 
f 268/268/268 269/269/269 128/128/128 
f 269/269/269 11/11/11 128/128/128 
f 85/85/85 246/246/246 249/249/249 
f 85/85/85 249/249/249 86/86/86 
f 246/246/246 247/247/247 250/250/250 
f 247/247/247 251/251/251 250/250/250 
f 246/246/246 250/250/250 249/249/249 
f 251/251/251 11/11/11 134/134/134 
f 250/250/250 251/251/251 134/134/134 
f 86/86/86 249/249/249 132/132/132 
f 86/86/86 132/132/132 24/24/24 
f 249/249/249 250/250/250 133/133/133 
f 250/250/250 134/134/134 133/133/133 
f 249/249/249 133/133/133 132/132/132 
f 131/131/131 134/134/134 11/11/11 
f 269/269/269 131/131/131 11/11/11 
f 265/265/265 269/269/269 268/268/268 
f 264/264/264 265/265/265 268/268/268 
f 272/272/272 24/24/24 132/132/132 
f 272/272/272 83/83/83 24/24/24 
f 275/275/275 132/132/132 133/133/133 
f 275/275/275 272/272/272 132/132/132 
f 278/278/278 133/133/133 134/134/134 
f 131/131/131 278/278/278 134/134/134 
f 278/278/278 275/275/275 133/133/133 
f 266/266/266 131/131/131 269/269/269 
f 265/265/265 266/266/266 269/269/269 
f 261/261/261 265/265/265 264/264/264 
f 78/78/78 261/261/261 264/264/264 
f 416/416/416 261/261/261 78/78/78 
f 416/416/416 417/417/417 261/261/261 
f 261/261/261 262/262/262 265/265/265 
f 417/417/417 262/262/262 261/261/261 
f 262/262/262 266/266/266 265/265/265 
f 417/417/417 418/418/418 262/262/262 
f 418/418/418 263/263/263 262/262/262 
f 262/262/262 263/263/263 266/266/266 
f 418/418/418 419/419/419 263/263/263 
f 266/266/266 130/130/130 131/131/131 
f 263/263/263 130/130/130 266/266/266 
f 130/130/130 278/278/278 131/131/131 
f 419/419/419 129/129/129 263/263/263 
f 263/263/263 129/129/129 130/130/130 
f 419/419/419 420/420/420 129/129/129 
f 130/130/130 277/277/277 278/278/278 
f 129/129/129 277/277/277 130/130/130 
f 277/277/277 275/275/275 278/278/278 
f 420/420/420 276/276/276 129/129/129 
f 129/129/129 276/276/276 277/277/277 
f 420/420/420 424/424/424 276/276/276 
f 277/277/277 274/274/274 275/275/275 
f 276/276/276 274/274/274 277/277/277 
f 274/274/274 272/272/272 275/275/275 
f 424/424/424 273/273/273 276/276/276 
f 276/276/276 273/273/273 274/274/274 
f 424/424/424 423/423/423 273/273/273 
f 274/274/274 271/271/271 272/272/272 
f 273/273/273 271/271/271 274/274/274 
f 271/271/271 83/83/83 272/272/272 
f 271/271/271 82/82/82 83/83/83 
f 423/423/423 270/270/270 273/273/273 
f 273/273/273 270/270/270 271/271/271 
f 270/270/270 82/82/82 271/271/271 
f 423/423/423 421/421/421 270/270/270 
f 270/270/270 81/81/81 82/82/82 
f 421/421/421 81/81/81 270/270/270 
f 421/421/421 422/422/422 81/81/81 
f 434/434/434 435/435/435 87/87/87 
f 434/434/434 87/87/87 288/288/288 
f 436/436/436 434/434/434 288/288/288 
f 288/288/288 87/87/87 88/88/88 
f 436/436/436 288/288/288 291/291/291 
f 437/437/437 436/436/436 291/291/291 
f 288/288/288 88/88/88 289/289/289 
f 291/291/291 288/288/288 289/289/289 
f 289/289/289 88/88/88 89/89/89 
f 437/437/437 291/291/291 294/294/294 
f 430/430/430 437/437/437 294/294/294 
f 289/289/289 89/89/89 290/290/290 
f 290/290/290 89/89/89 25/25/25 
f 291/291/291 289/289/289 292/292/292 
f 294/294/294 291/291/291 292/292/292 
f 292/292/292 289/289/289 290/290/290 
f 430/430/430 294/294/294 135/135/135 
f 429/429/429 430/430/430 135/135/135 
f 290/290/290 25/25/25 138/138/138 
f 92/92/92 138/138/138 25/25/25 
f 292/292/292 290/290/290 293/293/293 
f 293/293/293 290/290/290 138/138/138 
f 294/294/294 292/292/292 295/295/295 
f 135/135/135 294/294/294 295/295/295 
f 295/295/295 292/292/292 293/293/293 
f 429/429/429 135/135/135 281/281/281 
f 428/428/428 429/429/429 281/281/281 
f 92/92/92 303/303/303 138/138/138 
f 91/91/91 303/303/303 92/92/92 
f 135/135/135 295/295/295 136/136/136 
f 281/281/281 135/135/135 136/136/136 
f 293/293/293 138/138/138 139/139/139 
f 303/303/303 139/139/139 138/138/138 
f 295/295/295 293/293/293 296/296/296 
f 136/136/136 295/295/295 296/296/296 
f 296/296/296 293/293/293 139/139/139 
f 428/428/428 281/281/281 280/280/280 
f 427/427/427 428/428/428 280/280/280 
f 91/91/91 300/300/300 303/303/303 
f 90/90/90 300/300/300 91/91/91 
f 281/281/281 136/136/136 284/284/284 
f 280/280/280 281/281/281 284/284/284 
f 136/136/136 296/296/296 137/137/137 
f 284/284/284 136/136/136 137/137/137 
f 296/296/296 139/139/139 140/140/140 
f 137/137/137 296/296/296 140/140/140 
f 303/303/303 304/304/304 139/139/139 
f 300/300/300 304/304/304 303/303/303 
f 304/304/304 140/140/140 139/139/139 
f 427/427/427 280/280/280 279/279/279 
f 425/425/425 427/427/427 279/279/279 
f 425/425/425 279/279/279 426/426/426 
f 280/280/280 284/284/284 283/283/283 
f 279/279/279 280/280/280 283/283/283 
f 426/426/426 279/279/279 282/282/282 
f 279/279/279 283/283/283 282/282/282 
f 426/426/426 282/282/282 431/431/431 
f 284/284/284 137/137/137 287/287/287 
f 283/283/283 284/284/284 287/287/287 
f 137/137/137 140/140/140 12/12/12 
f 287/287/287 137/137/137 12/12/12 
f 304/304/304 305/305/305 140/140/140 
f 305/305/305 12/12/12 140/140/140 
f 431/431/431 282/282/282 285/285/285 
f 431/431/431 285/285/285 432/432/432 
f 282/282/282 283/283/283 286/286/286 
f 283/283/283 287/287/287 286/286/286 
f 282/282/282 286/286/286 285/285/285 
f 287/287/287 12/12/12 146/146/146 
f 286/286/286 287/287/287 146/146/146 
f 432/432/432 285/285/285 144/144/144 
f 432/432/432 144/144/144 433/433/433 
f 285/285/285 286/286/286 145/145/145 
f 286/286/286 146/146/146 145/145/145 
f 285/285/285 145/145/145 144/144/144 
f 143/143/143 146/146/146 12/12/12 
f 305/305/305 143/143/143 12/12/12 
f 301/301/301 305/305/305 304/304/304 
f 300/300/300 301/301/301 304/304/304 
f 308/308/308 433/433/433 144/144/144 
f 308/308/308 447/447/447 433/433/433 
f 311/311/311 144/144/144 145/145/145 
f 311/311/311 308/308/308 144/144/144 
f 314/314/314 145/145/145 146/146/146 
f 143/143/143 314/314/314 146/146/146 
f 314/314/314 311/311/311 145/145/145 
f 302/302/302 143/143/143 305/305/305 
f 301/301/301 302/302/302 305/305/305 
f 297/297/297 301/301/301 300/300/300 
f 90/90/90 297/297/297 300/300/300 
f 438/438/438 297/297/297 90/90/90 
f 438/438/438 439/439/439 297/297/297 
f 297/297/297 298/298/298 301/301/301 
f 439/439/439 298/298/298 297/297/297 
f 298/298/298 302/302/302 301/301/301 
f 439/439/439 440/440/440 298/298/298 
f 440/440/440 299/299/299 298/298/298 
f 298/298/298 299/299/299 302/302/302 
f 440/440/440 441/441/441 299/299/299 
f 302/302/302 142/142/142 143/143/143 
f 299/299/299 142/142/142 302/302/302 
f 142/142/142 314/314/314 143/143/143 
f 441/441/441 141/141/141 299/299/299 
f 299/299/299 141/141/141 142/142/142 
f 441/441/441 442/442/442 141/141/141 
f 142/142/142 313/313/313 314/314/314 
f 141/141/141 313/313/313 142/142/142 
f 313/313/313 311/311/311 314/314/314 
f 442/442/442 312/312/312 141/141/141 
f 141/141/141 312/312/312 313/313/313 
f 442/442/442 449/449/449 312/312/312 
f 313/313/313 310/310/310 311/311/311 
f 312/312/312 310/310/310 313/313/313 
f 310/310/310 308/308/308 311/311/311 
f 449/449/449 309/309/309 312/312/312 
f 312/312/312 309/309/309 310/310/310 
f 449/449/449 448/448/448 309/309/309 
f 310/310/310 307/307/307 308/308/308 
f 309/309/309 307/307/307 310/310/310 
f 307/307/307 447/447/447 308/308/308 
f 307/307/307 446/446/446 447/447/447 
f 448/448/448 306/306/306 309/309/309 
f 309/309/309 306/306/306 307/307/307 
f 306/306/306 446/446/446 307/307/307 
f 448/448/448 443/443/443 306/306/306 
f 306/306/306 444/444/444 446/446/446 
f 443/443/443 444/444/444 306/306/306 
f 443/443/443 445/445/445 444/444/444 
f 454/454/454 455/455/455 147/147/147 
f 454/454/454 147/147/147 317/317/317 
f 453/453/453 454/454/454 317/317/317 
f 317/317/317 147/147/147 148/148/148 
f 453/453/453 317/317/317 316/316/316 
f 452/452/452 453/453/453 316/316/316 
f 317/317/317 148/148/148 320/320/320 
f 316/316/316 317/317/317 320/320/320 
f 320/320/320 148/148/148 149/149/149 
f 452/452/452 316/316/316 315/315/315 
f 450/450/450 452/452/452 315/315/315 
f 450/450/450 315/315/315 451/451/451 
f 316/316/316 320/320/320 319/319/319 
f 315/315/315 316/316/316 319/319/319 
f 320/320/320 149/149/149 323/323/323 
f 319/319/319 320/320/320 323/323/323 
f 323/323/323 149/149/149 13/13/13 
f 451/451/451 315/315/315 318/318/318 
f 315/315/315 319/319/319 318/318/318 
f 451/451/451 318/318/318 456/456/456 
f 319/319/319 323/323/323 322/322/322 
f 318/318/318 319/319/319 322/322/322 
f 323/323/323 13/13/13 158/158/158 
f 322/322/322 323/323/323 158/158/158 
f 483/483/483 158/158/158 13/13/13 
f 456/456/456 318/318/318 321/321/321 
f 318/318/318 322/322/322 321/321/321 
f 456/456/456 321/321/321 457/457/457 
f 483/483/483 350/350/350 158/158/158 
f 482/482/482 350/350/350 483/483/483 
f 322/322/322 158/158/158 157/157/157 
f 321/321/321 322/322/322 157/157/157 
f 350/350/350 157/157/157 158/158/158 
f 457/457/457 321/321/321 156/156/156 
f 321/321/321 157/157/157 156/156/156 
f 457/457/457 156/156/156 458/458/458 
f 482/482/482 349/349/349 350/350/350 
f 481/481/481 349/349/349 482/482/482 
f 350/350/350 347/347/347 157/157/157 
f 347/347/347 156/156/156 157/157/157 
f 349/349/349 347/347/347 350/350/350 
f 344/344/344 458/458/458 156/156/156 
f 347/347/347 344/344/344 156/156/156 
f 344/344/344 477/477/477 458/458/458 
f 481/481/481 348/348/348 349/349/349 
f 480/480/480 348/348/348 481/481/481 
f 480/480/480 479/479/479 348/348/348 
f 349/349/349 346/346/346 347/347/347 
f 346/346/346 344/344/344 347/347/347 
f 348/348/348 346/346/346 349/349/349 
f 343/343/343 477/477/477 344/344/344 
f 346/346/346 343/343/343 344/344/344 
f 343/343/343 476/476/476 477/477/477 
f 479/479/479 345/345/345 348/348/348 
f 348/348/348 345/345/345 346/346/346 
f 345/345/345 343/343/343 346/346/346 
f 479/479/479 478/478/478 345/345/345 
f 342/342/342 476/476/476 343/343/343 
f 345/345/345 342/342/342 343/343/343 
f 478/478/478 342/342/342 345/345/345 
f 342/342/342 474/474/474 476/476/476 
f 478/478/478 473/473/473 342/342/342 
f 473/473/473 474/474/474 342/342/342 
f 473/473/473 475/475/475 474/474/474 
f 459/459/459 460/460/460 93/93/93 
f 459/459/459 93/93/93 324/324/324 
f 461/461/461 459/459/459 324/324/324 
f 324/324/324 93/93/93 94/94/94 
f 461/461/461 324/324/324 327/327/327 
f 462/462/462 461/461/461 327/327/327 
f 324/324/324 94/94/94 325/325/325 
f 327/327/327 324/324/324 325/325/325 
f 325/325/325 94/94/94 95/95/95 
f 462/462/462 327/327/327 330/330/330 
f 463/463/463 462/462/462 330/330/330 
f 463/463/463 330/330/330 464/464/464 
f 325/325/325 95/95/95 326/326/326 
f 326/326/326 95/95/95 26/26/26 
f 327/327/327 325/325/325 328/328/328 
f 330/330/330 327/327/327 328/328/328 
f 328/328/328 325/325/325 326/326/326 
f 464/464/464 330/330/330 331/331/331 
f 330/330/330 328/328/328 331/331/331 
f 464/464/464 331/331/331 465/465/465 
f 326/326/326 26/26/26 150/150/150 
f 98/98/98 150/150/150 26/26/26 
f 328/328/328 326/326/326 329/329/329 
f 331/331/331 328/328/328 329/329/329 
f 329/329/329 326/326/326 150/150/150 
f 465/465/465 331/331/331 332/332/332 
f 331/331/331 329/329/329 332/332/332 
f 465/465/465 332/332/332 466/466/466 
f 98/98/98 339/339/339 150/150/150 
f 97/97/97 339/339/339 98/98/98 
f 329/329/329 150/150/150 151/151/151 
f 332/332/332 329/329/329 151/151/151 
f 339/339/339 151/151/151 150/150/150 
f 466/466/466 332/332/332 152/152/152 
f 332/332/332 151/151/151 152/152/152 
f 466/466/466 152/152/152 467/467/467 
f 97/97/97 336/336/336 339/339/339 
f 96/96/96 336/336/336 97/97/97 
f 339/339/339 340/340/340 151/151/151 
f 340/340/340 152/152/152 151/151/151 
f 336/336/336 340/340/340 339/339/339 
f 341/341/341 467/467/467 152/152/152 
f 340/340/340 341/341/341 152/152/152 
f 341/341/341 155/155/155 467/467/467 
f 96/96/96 333/333/333 336/336/336 
f 468/468/468 333/333/333 96/96/96 
f 468/468/468 469/469/469 333/333/333 
f 336/336/336 337/337/337 340/340/340 
f 337/337/337 341/341/341 340/340/340 
f 333/333/333 337/337/337 336/336/336 
f 338/338/338 155/155/155 341/341/341 
f 337/337/337 338/338/338 341/341/341 
f 338/338/338 154/154/154 155/155/155 
f 469/469/469 334/334/334 333/333/333 
f 333/333/333 334/334/334 337/337/337 
f 334/334/334 338/338/338 337/337/337 
f 469/469/469 470/470/470 334/334/334 
f 335/335/335 154/154/154 338/338/338 
f 334/334/334 335/335/335 338/338/338 
f 470/470/470 335/335/335 334/334/334 
f 335/335/335 153/153/153 154/154/154 
f 470/470/470 471/471/471 335/335/335 
f 471/471/471 153/153/153 335/335/335 
f 471/471/471 472/472/472 153/153/153 
f 493/493/493 495/495/495 494/494/494 
f 493/493/493 494/494/494 360/360/360 
f 499/499/499 493/493/493 360/360/360 
f 360/360/360 494/494/494 496/496/496 
f 499/499/499 360/360/360 363/363/363 
f 500/500/500 499/499/499 363/363/363 
f 360/360/360 496/496/496 361/361/361 
f 363/363/363 360/360/360 361/361/361 
f 361/361/361 496/496/496 497/497/497 
f 500/500/500 363/363/363 366/366/366 
f 489/489/489 500/500/500 366/366/366 
f 361/361/361 497/497/497 362/362/362 
f 362/362/362 497/497/497 498/498/498 
f 363/363/363 361/361/361 364/364/364 
f 366/366/366 363/363/363 364/364/364 
f 364/364/364 361/361/361 362/362/362 
f 489/489/489 366/366/366 159/159/159 
f 488/488/488 489/489/489 159/159/159 
f 362/362/362 498/498/498 162/162/162 
f 508/508/508 162/162/162 498/498/498 
f 364/364/364 362/362/362 365/365/365 
f 365/365/365 362/362/362 162/162/162 
f 366/366/366 364/364/364 367/367/367 
f 159/159/159 366/366/366 367/367/367 
f 367/367/367 364/364/364 365/365/365 
f 488/488/488 159/159/159 353/353/353 
f 487/487/487 488/488/488 353/353/353 
f 508/508/508 375/375/375 162/162/162 
f 507/507/507 375/375/375 508/508/508 
f 159/159/159 367/367/367 160/160/160 
f 353/353/353 159/159/159 160/160/160 
f 365/365/365 162/162/162 163/163/163 
f 375/375/375 163/163/163 162/162/162 
f 367/367/367 365/365/365 368/368/368 
f 160/160/160 367/367/367 368/368/368 
f 368/368/368 365/365/365 163/163/163 
f 487/487/487 353/353/353 352/352/352 
f 486/486/486 487/487/487 352/352/352 
f 507/507/507 372/372/372 375/375/375 
f 502/502/502 372/372/372 507/507/507 
f 353/353/353 160/160/160 356/356/356 
f 352/352/352 353/353/353 356/356/356 
f 160/160/160 368/368/368 161/161/161 
f 356/356/356 160/160/160 161/161/161 
f 368/368/368 163/163/163 164/164/164 
f 161/161/161 368/368/368 164/164/164 
f 375/375/375 376/376/376 163/163/163 
f 372/372/372 376/376/376 375/375/375 
f 376/376/376 164/164/164 163/163/163 
f 486/486/486 352/352/352 351/351/351 
f 484/484/484 486/486/486 351/351/351 
f 484/484/484 351/351/351 485/485/485 
f 352/352/352 356/356/356 355/355/355 
f 351/351/351 352/352/352 355/355/355 
f 485/485/485 351/351/351 354/354/354 
f 351/351/351 355/355/355 354/354/354 
f 485/485/485 354/354/354 490/490/490 
f 356/356/356 161/161/161 359/359/359 
f 355/355/355 356/356/356 359/359/359 
f 161/161/161 164/164/164 14/14/14 
f 359/359/359 161/161/161 14/14/14 
f 376/376/376 377/377/377 164/164/164 
f 377/377/377 14/14/14 164/164/164 
f 490/490/490 354/354/354 357/357/357 
f 490/490/490 357/357/357 491/491/491 
f 354/354/354 355/355/355 358/358/358 
f 355/355/355 359/359/359 358/358/358 
f 354/354/354 358/358/358 357/357/357 
f 359/359/359 14/14/14 170/170/170 
f 358/358/358 359/359/359 170/170/170 
f 491/491/491 357/357/357 168/168/168 
f 491/491/491 168/168/168 492/492/492 
f 357/357/357 358/358/358 169/169/169 
f 358/358/358 170/170/170 169/169/169 
f 357/357/357 169/169/169 168/168/168 
f 167/167/167 170/170/170 14/14/14 
f 377/377/377 167/167/167 14/14/14 
f 373/373/373 377/377/377 376/376/376 
f 372/372/372 373/373/373 376/376/376 
f 380/380/380 492/492/492 168/168/168 
f 380/380/380 513/513/513 492/492/492 
f 383/383/383 168/168/168 169/169/169 
f 383/383/383 380/380/380 168/168/168 
f 386/386/386 169/169/169 170/170/170 
f 167/167/167 386/386/386 170/170/170 
f 386/386/386 383/383/383 169/169/169 
f 374/374/374 167/167/167 377/377/377 
f 373/373/373 374/374/374 377/377/377 
f 369/369/369 373/373/373 372/372/372 
f 502/502/502 369/369/369 372/372/372 
f 501/501/501 369/369/369 502/502/502 
f 501/501/501 503/503/503 369/369/369 
f 369/369/369 370/370/370 373/373/373 
f 503/503/503 370/370/370 369/369/369 
f 370/370/370 374/374/374 373/373/373 
f 503/503/503 504/504/504 370/370/370 
f 504/504/504 371/371/371 370/370/370 
f 370/370/370 371/371/371 374/374/374 
f 504/504/504 505/505/505 371/371/371 
f 374/374/374 166/166/166 167/167/167 
f 371/371/371 166/166/166 374/374/374 
f 166/166/166 386/386/386 167/167/167 
f 505/505/505 165/165/165 371/371/371 
f 371/371/371 165/165/165 166/166/166 
f 505/505/505 506/506/506 165/165/165 
f 166/166/166 385/385/385 386/386/386 
f 165/165/165 385/385/385 166/166/166 
f 385/385/385 383/383/383 386/386/386 
f 506/506/506 384/384/384 165/165/165 
f 165/165/165 384/384/384 385/385/385 
f 506/506/506 515/515/515 384/384/384 
f 385/385/385 382/382/382 383/383/383 
f 384/384/384 382/382/382 385/385/385 
f 382/382/382 380/380/380 383/383/383 
f 515/515/515 381/381/381 384/384/384 
f 384/384/384 381/381/381 382/382/382 
f 515/515/515 514/514/514 381/381/381 
f 382/382/382 379/379/379 380/380/380 
f 381/381/381 379/379/379 382/382/382 
f 379/379/379 513/513/513 380/380/380 
f 379/379/379 512/512/512 513/513/513 
f 514/514/514 378/378/378 381/381/381 
f 381/381/381 378/378/378 379/379/379 
f 378/378/378 512/512/512 379/379/379 
f 514/514/514 509/509/509 378/378/378 
f 378/378/378 510/510/510 512/512/512 
f 509/509/509 510/510/510 378/378/378 
f 509/509/509 511/511/511 510/510/510 
