# exported by StudySceneExporter from mesh 'Box'
mtllib materials.mtl
v -0.01 -0.009356937 -0.009356933
v -0.01 0.009356935 -0.009356933
v -0.009999996 0.009356935 0.009356939
v -0.009999996 -0.009356937 0.009356939
v -0.009356932 -0.009356937 0.01
v -0.009356932 0.009356935 0.01
v 0.009356941 -0.009356937 0.009999997
v -0.009356933 -0.01 0.009356939
v -0.009999996 -0.009356937 0.009356939
v 0.009356941 -0.01 0.009356934
v 0.01 -0.009356937 0.009356933
v 0.009356941 0.009356935 0.009999997
v 0.01 -0.009356937 0.009356933
v 0.01 0.009356935 0.009356933
v 0.009999999 0.009356935 -0.009356939
v 0.009999999 -0.009356937 -0.009356939
v 0.009356941 0.01 0.009356934
v 0.01 0.009356935 0.009356933
v -0.009356933 0.01 0.009356939
v -0.009999996 0.009356935 0.009356939
v -0.009356938 -0.01 -0.009356933
v -0.009999996 -0.009356937 0.009356939
v -0.01 -0.009356937 -0.009356933
v 0.009356936 0.01 -0.009356938
v 0.01 0.009356935 0.009356933
v 0.009999999 0.009356935 -0.009356939
v 0.009356936 -0.01 -0.009356938
v 0.009999999 -0.009356937 -0.009356939
v 0.01 -0.009356937 0.009356933
v -0.009356938 -0.009356937 -0.009999997
v -0.01 -0.009356937 -0.009356933
v 0.009356936 -0.009356937 -0.01
v 0.009999999 -0.009356937 -0.009356939
v -0.009356938 0.01 -0.009356933
v -0.01 0.009356935 -0.009356933
v -0.009999996 0.009356935 0.009356939
v 0.009356936 0.009356935 -0.01
v 0.009999999 0.009356935 -0.009356939
v -0.009356938 0.009356935 -0.009999997
v -0.01 0.009356935 -0.009356933
v -0.009356938 -0.009356937 -0.009999997
v -0.01 -0.009356937 -0.009356933
v -0.01 0.009356935 -0.009356933
v 0.009356936 -0.009356937 -0.01
v 0.009999999 0.009356935 -0.009356939
v 0.009999999 -0.009356937 -0.009356939
vt 0.1308565 0.2616271
vt 0.1308565 0.4999999
vt 0.3692294 0.4999999
vt 0.3692293 0.2616271
vt 0.3808135 0.2616271
vt 0.3808134 0.4999999
vt 0.6191864 0.2616272
vt 0.3808135 0.2500429
vt 0.3707813 0.255835
vt 0.6191864 0.2500431
vt 0.6292185 0.2558351
vt 0.6191863 0.5
vt 0.6307704 0.2616272
vt 0.6307704 0.5000001
vt 0.8691433 0.5000001
vt 0.8691433 0.2616272
vt 0.6191863 0.5115842
vt 0.6292185 0.5057921
vt 0.3808134 0.511584
vt 0.3707813 0.505792
vt 0.3808137 0.01167003
vt 0.3692294 0.2500429
vt 0.3692295 0.01167
vt 0.6191862 0.749957
vt 0.6307704 0.5115842
vt 0.6307703 0.749957
vt 0.6191865 0.01167013
vt 0.6307707 0.01167018
vt 0.6307706 0.2500431
vt 0.3808137 8.591625E-05
vt 0.3707816 0.005877956
vt 0.6191866 8.597734E-05
vt 0.6292188 0.005878094
vt 0.3808132 0.7499569
vt 0.3692291 0.7499569
vt 0.3692293 0.511584
vt 0.6191862 0.7615411
vt 0.6292182 0.7557491
vt 0.3808132 0.7615411
vt 0.3707811 0.755749
vt 0.3808132 0.9999139
vt 0.3692291 0.9999139
vt 0.3692291 0.7615411
vt 0.619186 0.9999141
vt 0.6307703 0.7615411
vt 0.6307701 0.9999141
vn -0.8755787 -0.3415864 -0.3415855
vn -0.875579 0.3415857 -0.3415855
vn -0.8755786 0.3415858 0.3415862
vn -0.8755785 -0.3415866 0.3415862
vn -0.3415855 -0.3415862 0.8755787
vn -0.3415856 0.3415855 0.875579
vn 0.3415864 -0.3415859 0.8755785
vn -0.3415855 -0.8755789 0.3415859
vn -0.8755785 -0.3415866 0.3415862
vn 0.3415864 -0.8755785 0.341586
vn 0.875579 -0.3415858 0.3415855
vn 0.3415866 0.3415851 0.8755788
vn 0.875579 -0.3415858 0.3415855
vn 0.8755792 0.341585 0.3415855
vn 0.8755791 0.3415852 -0.3415858
vn 0.8755788 -0.341586 -0.3415858
vn 0.341587 0.875578 0.3415866
vn 0.8755792 0.341585 0.3415855
vn -0.3415863 0.8755783 0.3415866
vn -0.8755786 0.3415858 0.3415862
vn -0.3415858 -0.8755791 -0.3415853
vn -0.8755785 -0.3415866 0.3415862
vn -0.8755787 -0.3415864 -0.3415855
vn 0.3415867 0.8755783 -0.341586
vn 0.8755792 0.341585 0.3415855
vn 0.8755791 0.3415852 -0.3415858
vn 0.341586 -0.8755789 -0.3415854
vn 0.8755788 -0.341586 -0.3415858
vn 0.875579 -0.3415858 0.3415855
vn -0.3415864 -0.3415866 -0.8755783
vn -0.8755787 -0.3415864 -0.3415855
vn 0.3415861 -0.3415866 -0.8755785
vn 0.8755788 -0.341586 -0.3415858
vn -0.3415865 0.8755785 -0.3415859
vn -0.875579 0.3415857 -0.3415855
vn -0.8755786 0.3415858 0.3415862
vn 0.3415862 0.3415858 -0.8755786
vn 0.8755791 0.3415852 -0.3415858
vn -0.3415865 0.3415858 -0.8755785
vn -0.875579 0.3415857 -0.3415855
vn -0.3415864 -0.3415866 -0.8755783
vn -0.8755787 -0.3415864 -0.3415855
vn -0.875579 0.3415857 -0.3415855
vn 0.3415861 -0.3415866 -0.8755785
vn 0.8755791 0.3415852 -0.3415858
vn 0.8755788 -0.341586 -0.3415858
usemtl Material_001
f 1/1/1 3/3/3 2/2/2 
f 1/1/1 4/4/4 3/3/3 
f 5/5/5 3/3/3 4/4/4 
f 5/5/5 6/6/6 3/3/3 
f 7/7/7 6/6/6 5/5/5 
f 8/8/8 7/7/7 5/5/5 
f 8/8/8 5/5/5 9/9/9 
f 8/8/8 10/10/10 7/7/7 
f 10/10/10 11/11/11 7/7/7 
f 7/7/7 12/12/12 6/6/6 
f 12/12/12 7/7/7 13/13/13 
f 12/12/12 13/13/13 14/14/14 
f 13/13/13 15/15/15 14/14/14 
f 13/13/13 16/16/16 15/15/15 
f 17/17/17 6/6/6 12/12/12 
f 17/17/17 12/12/12 18/18/18 
f 17/17/17 19/19/19 6/6/6 
f 6/6/6 19/19/19 20/20/20 
f 10/10/10 8/8/8 21/21/21 
f 21/21/21 8/8/8 22/22/22 
f 21/21/21 22/22/22 23/23/23 
f 19/19/19 17/17/17 24/24/24 
f 24/24/24 17/17/17 25/25/25 
f 24/24/24 25/25/25 26/26/26 
f 10/10/10 21/21/21 27/27/27 
f 10/10/10 27/27/27 28/28/28 
f 10/10/10 28/28/28 29/29/29 
f 27/27/27 21/21/21 30/30/30 
f 21/21/21 31/31/31 30/30/30 
f 27/27/27 30/30/30 32/32/32 
f 27/27/27 32/32/32 33/33/33 
f 19/19/19 24/24/24 34/34/34 
f 19/19/19 34/34/34 35/35/35 
f 19/19/19 35/35/35 36/36/36 
f 34/34/34 24/24/24 37/37/37 
f 24/24/24 38/38/38 37/37/37 
f 34/34/34 37/37/37 39/39/39 
f 34/34/34 39/39/39 40/40/40 
f 41/41/41 39/39/39 37/37/37 
f 39/39/39 41/41/41 42/42/42 
f 39/39/39 42/42/42 43/43/43 
f 41/41/41 37/37/37 44/44/44 
f 45/45/45 44/44/44 37/37/37 
f 45/45/45 46/46/46 44/44/44 
