# exported by StudySceneExporter from mesh 'Tool_Cabinet_Details_low'
mtllib materials.mtl
v -0.01385075 0.1519204 -0.008423194
v -0.01385075 0.1519204 0.009191628
v -0.01538147 0.1517766 0.009191628
v -0.01538147 0.1517766 -0.008423194
v -0.01385075 0.1519204 0.009191628
v -0.004792633 0.05553055 0.009191628
v -0.006323376 0.0553867 0.009191628
v -0.01538147 0.1517766 0.009191628
v -0.004792633 0.05553055 0.009191628
v -0.004792633 0.05553055 -0.008423194
v -0.006323376 0.0553867 -0.008423194
v -0.006323376 0.0553867 0.009191628
v -0.004792633 0.05553055 -0.008423194
v -0.01385075 0.1519204 -0.008423194
v -0.01538147 0.1517766 -0.008423194
v -0.006323376 0.0553867 -0.008423194
v -0.01538147 0.1517766 -0.008423194
v -0.01538147 0.1517766 0.009191628
v -0.006323376 0.0553867 0.009191628
v -0.006323376 0.0553867 -0.008423194
v 0.01394171 -0.136169 -0.008090172
v 0.009910793 -0.1424516 -0.009999962
v 0.01449165 -0.1420211 -0.01000004
v 0.009360847 -0.1365995 -0.008090096
v 0.01360182 -0.1325522 -0.003090172
v 0.009020958 -0.1329827 -0.003090095
v 0.01360182 -0.1325522 0.003090095
v 0.009020958 -0.1329827 0.003090172
v 0.01394171 -0.136169 0.008090096
v 0.009360847 -0.1365995 0.008090172
v 0.01449165 -0.1420211 0.009999962
v 0.009910793 -0.1424516 0.01000004
v 0.01504158 -0.1478731 0.008090172
v 0.01046072 -0.1483036 0.008090248
v 0.01538147 -0.1514899 0.003090095
v 0.01080061 -0.1519204 0.003090172
v 0.01538147 -0.1514899 -0.003090172
v 0.01080061 -0.1519204 -0.003090095
v 0.01504158 -0.1478731 -0.008090172
v 0.01046072 -0.1483036 -0.008090096
v 0.01449165 -0.1420211 -0.01000004
v 0.009910793 -0.1424516 -0.009999962
v 0.009360847 -0.1365995 -0.008090096
v 0.009910793 -0.1424516 3.814697E-08
v 0.009910793 -0.1424516 -0.009999962
v 0.009020958 -0.1329827 -0.003090095
v 0.01046072 -0.1483036 -0.008090096
v 0.009020958 -0.1329827 0.003090172
v 0.01080061 -0.1519204 -0.003090095
v 0.009360847 -0.1365995 0.008090172
v 0.01080061 -0.1519204 0.003090172
v 0.009910793 -0.1424516 0.01000004
v 0.01046072 -0.1483036 0.008090248
vt 0.8009277 0.9405392
vt 0.8009282 0.9296846
vt 0.794766 0.9296845
vt 0.7947656 0.940539
vt 0.7947662 0.9235224
vt 0.7351076 0.9235202
vt 0.7351075 0.9296824
vt 0.794766 0.9296845
vt 0.7289454 0.9296821
vt 0.728945 0.9405366
vt 0.7351071 0.9405369
vt 0.7351075 0.9296824
vt 0.7351069 0.946699
vt 0.7947654 0.946701
vt 0.7947656 0.940539
vt 0.7351071 0.9405369
vt 0.7947656 0.940539
vt 0.794766 0.9296845
vt 0.7351075 0.9296824
vt 0.7351071 0.9405369
vt 0.838062 0.9504977
vt 0.8327648 0.946555
vt 0.8327652 0.9504983
vt 0.8380617 0.9465543
vt 0.843359 0.9504972
vt 0.8433586 0.9465537
vt 0.8486557 0.9504963
vt 0.8486553 0.9465529
vt 0.8539525 0.9504957
vt 0.8539523 0.9465524
vt 0.8592495 0.9504951
vt 0.8592491 0.9465518
vt 0.8645465 0.9504945
vt 0.8645459 0.9465512
vt 0.8698432 0.9504941
vt 0.8698429 0.9465508
vt 0.8751401 0.9504937
vt 0.8751396 0.9465505
vt 0.8804371 0.9504932
vt 0.8804368 0.9465498
vt 0.8857337 0.9504927
vt 0.8857335 0.9465493
vt 0.8094569 0.9561989
vt 0.8163906 0.9511614
vt 0.8078201 0.9511613
vt 0.8137422 0.9593124
vt 0.8094569 0.9461237
vt 0.819039 0.9593124
vt 0.8137422 0.9430102
vt 0.8233243 0.9561989
vt 0.8190391 0.9430102
vt 0.8249611 0.9511613
vt 0.8233244 0.9461238
vn -0.09355671 0.9956139 0
vn -0.09355671 0.9956139 0
vn -0.09355671 0.9956139 0
vn -0.09355671 0.9956139 0
vn 0 2.562736E-06 1
vn 0 2.562736E-06 1
vn 0 2.562736E-06 1
vn 0 2.562736E-06 1
vn 0.09355538 -0.9956141 0
vn 0.09355538 -0.9956141 0
vn 0.09355538 -0.9956141 0
vn 0.09355538 -0.9956141 0
vn 0 2.562736E-06 -1
vn 0 2.562736E-06 -1
vn 0 2.562736E-06 -1
vn 0 2.562736E-06 -1
vn -0.9956135 -0.09356143 0
vn -0.9956135 -0.09356143 0
vn -0.9956135 -0.09356143 0
vn -0.9956135 -0.09356143 0
vn -0.05500796 0.5851998 -0.8090212
vn -1.655967E-05 -7.366186E-07 -1
vn -1.66475E-05 1.753868E-07 -1
vn -0.05500842 0.5852048 -0.8090175
vn -0.08898678 0.9468821 -0.3090239
vn -0.08898694 0.946884 -0.309018
vn -0.08897868 0.9468842 0.3090196
vn -0.0889785 0.9468822 0.3090256
vn -0.05498223 0.5852136 0.809013
vn -0.05498211 0.5852125 0.8090138
vn 1.652681E-05 1.517086E-05 1
vn 1.661349E-05 1.425892E-05 1
vn 0.05501074 -0.5852154 0.8090097
vn 0.05501051 -0.5852129 0.8090116
vn 0.0889922 -0.9468848 0.309014
vn 0.08899201 -0.9468828 0.3090199
vn 0.08898086 -0.9468827 -0.3090235
vn 0.08898104 -0.9468846 -0.3090175
vn 0.05498258 -0.5852033 -0.8090204
vn 0.05498293 -0.585207 -0.8090177
vn -1.66475E-05 1.753868E-07 -1
vn -1.655967E-05 -7.366186E-07 -1
vn -0.9956133 -0.09356332 -3.244981E-06
vn -0.9956135 -0.09356191 3.245053E-07
vn -0.9956135 -0.09356104 0
vn -0.9956132 -0.09356412 -3.24496E-06
vn -0.9956136 -0.09356085 1.622496E-06
vn -0.9956133 -0.09356306 3.244977E-06
vn -0.9956133 -0.09356275 1.622508E-06
vn -0.9956133 -0.09356225 3.244996E-06
vn -0.9956135 -0.09356125 0
vn -0.9956135 -0.09356105 0
vn -0.9956137 -0.09355935 0
usemtl Mat_Tool_Cabinet
f 1/1/1 3/3/3 2/2/2 
f 1/1/1 4/4/4 3/3/3 
f 5/5/5 7/7/7 6/6/6 
f 5/5/5 8/8/8 7/7/7 
f 9/9/9 11/11/11 10/10/10 
f 9/9/9 12/12/12 11/11/11 
f 13/13/13 15/15/15 14/14/14 
f 13/13/13 16/16/16 15/15/15 
f 17/17/17 19/19/19 18/18/18 
f 17/17/17 20/20/20 19/19/19 
f 21/21/21 23/23/23 22/22/22 
f 21/21/21 22/22/22 24/24/24 
f 25/25/25 21/21/21 24/24/24 
f 25/25/25 24/24/24 26/26/26 
f 27/27/27 25/25/25 26/26/26 
f 27/27/27 26/26/26 28/28/28 
f 29/29/29 27/27/27 28/28/28 
f 29/29/29 28/28/28 30/30/30 
f 31/31/31 29/29/29 30/30/30 
f 31/31/31 30/30/30 32/32/32 
f 33/33/33 31/31/31 32/32/32 
f 33/33/33 32/32/32 34/34/34 
f 35/35/35 33/33/33 34/34/34 
f 35/35/35 34/34/34 36/36/36 
f 37/37/37 35/35/35 36/36/36 
f 37/37/37 36/36/36 38/38/38 
f 39/39/39 37/37/37 38/38/38 
f 39/39/39 38/38/38 40/40/40 
f 41/41/41 39/39/39 40/40/40 
f 41/41/41 40/40/40 42/42/42 
f 43/43/43 45/45/45 44/44/44 
f 46/46/46 43/43/43 44/44/44 
f 45/45/45 47/47/47 44/44/44 
f 48/48/48 46/46/46 44/44/44 
f 47/47/47 49/49/49 44/44/44 
f 50/50/50 48/48/48 44/44/44 
f 49/49/49 51/51/51 44/44/44 
f 52/52/52 50/50/50 44/44/44 
f 51/51/51 53/53/53 44/44/44 
f 53/53/53 52/52/52 44/44/44 
