# exported by StudySceneExporter from mesh 'Adjustable_Wrench_S_Slide_low'
mtllib materials.mtl
v 0.003439159 -0.007585084 -0.01070034
v 0.003439159 -0.003780742 -0.01569889
v 0.003439159 -0.005298748 -0.01517101
v 0.003439159 0.002252893 -0.001897621
v 0.003439159 -0.008944351 -0.005619621
v 0.003439159 -0.009175353 -4.97055E-05
v 0.003439159 -0.008496463 0.005818214
v 0.003439159 -0.004628463 0.004148064
v 0.003439159 -0.009175353 -4.97055E-05
v 0.001831074 -0.009086763 0.006073112
v 0.003439159 -0.008496463 0.005818214
v 1.907349E-08 -0.01042955 9.464264E-05
v 1.907349E-08 -0.009843914 0.005568581
v -0.001831074 -0.009086768 0.006073036
v 0.003439159 -0.008944351 -0.005619621
v -0.003439159 -0.008496463 0.005818214
v 1.907349E-08 -0.01006626 -0.005649147
v 0.003439159 -0.007585084 -0.01070034
v -0.003439159 -0.009175353 -4.97055E-05
v 1.907349E-08 -0.008684008 -0.01091457
v 0.003439159 -0.005298748 -0.01517101
v -0.003439121 -0.004628463 0.004148064
v -0.001831074 -0.009086768 0.006073036
v -0.003439159 0.002252893 -0.001897697
v -0.001831074 -0.004628463 0.004148064
v -0.001831074 0.002252893 -0.001897774
v -0.003439121 -0.008944351 -0.005619621
v 1.907349E-08 -0.006190831 -0.01603107
v 0.003439159 -0.003780742 -0.01569889
v 1.907349E-08 -0.004278781 -0.01681675
v -0.003439159 -0.003780742 -0.01569904
v -0.003439121 -0.007585084 -0.01070034
v -0.003439121 -0.005298748 -0.01517109
v 1.907349E-08 -0.004278781 -0.01681675
v -0.001831074 0.002252893 -0.001897774
v 0.001831074 0.002252893 -0.001897545
v 0.003439159 -0.003780742 -0.01569889
v 0.003439159 0.002252893 -0.001897621
v 0.003439159 -0.008496463 0.005818214
v 0.001831074 -0.009086763 0.006073112
v 0.001831074 -0.004628463 0.004148216
v 0.003439159 -0.004628463 0.004148064
v 0.001831074 0.002252893 -0.001897545
v 0.003439159 0.002252893 -0.001897621
v 0.001848888 0.01467064 0.0001240158
v 0.001831074 0.002252893 -0.001897545
v 0.001831074 -0.004628463 0.004148216
v 0.001831074 -0.009086763 0.006073112
v 0.001835766 -0.01047777 0.00784977
v 0.001843319 -0.01334506 0.01065227
v 0.001848927 -0.01606937 0.01268475
v 0.002614727 -0.01537008 0.01439648
v 0.002614727 0.01536993 0.001835518
v 0.001848888 -0.01467071 0.0161079
v 0.001848888 0.01606922 0.003547096
v -1.907349E-08 -0.014381 0.01681675
v 1.907349E-08 0.01635901 0.004255943
v -0.001848888 -0.01467071 0.01610783
v -0.001848888 0.01606922 0.00354702
v -0.002614727 -0.01537008 0.01439632
v -0.002614727 0.01536993 0.001835518
v -0.001848888 0.01467064 0.0001240158
v -0.001848888 -0.01606937 0.01268482
v -0.001843281 -0.01334506 0.01065227
v -0.001835728 -0.01047777 0.007849617
v -0.001831074 -0.009086768 0.006073036
v -0.001831074 -0.004628463 0.004148064
v -0.001831074 0.002252893 -0.001897774
v 0.001831074 0.002252893 -0.001897545
v 0.001848888 0.01467064 0.0001240158
v 1.907349E-08 0.01635901 0.004255943
v -0.002614727 0.01536993 0.001835518
v -0.001848888 0.01606922 0.00354702
v 0.001848888 0.01606922 0.003547096
v 0.002614727 0.01536993 0.001835518
v 0.001835766 -0.01047777 0.00784977
v 0.001831074 -0.009086763 0.006073112
v 1.907349E-08 -0.009843914 0.005568581
v 1.907349E-08 -0.01104688 0.007203331
v -0.001831074 -0.009086768 0.006073036
v -0.001835728 -0.01047777 0.007849617
v -0.001843281 -0.01334506 0.01065227
v 1.907349E-08 -0.01385659 0.01006489
v 0.001843319 -0.01334506 0.01065227
v 0.001848927 -0.01606937 0.01268475
v 1.907349E-08 -0.01635901 0.01197582
v -1.907349E-08 -0.01537008 0.01439632
v -0.001848888 -0.01606937 0.01268482
v 0.002614727 -0.01537008 0.01439648
v -0.002614727 -0.01537008 0.01439632
v 0.001848888 -0.01467071 0.0161079
v -0.001848888 -0.01467071 0.01610783
v -1.907349E-08 -0.014381 0.01681675
vt 0.04244381 0.03099769
vt 0.039812 0.02627162
vt 0.03970484 0.02765149
vt 0.05278306 0.02627178
vt 0.04598369 0.03382281
vt 0.05029887 0.03592651
vt 0.05516306 0.03741506
vt 0.05517963 0.03378692
vt 0.1363422 0.1877661
vt 0.1347202 0.1932895
vt 0.1362232 0.1930977
vt 0.1331644 0.188067
vt 0.1329668 0.1928002
vt 0.1311496 0.1933093
vt 0.1359246 0.1824908
vt 0.1295684 0.1930662
vt 0.1329028 0.1831483
vt 0.1347887 0.1775318
vt 0.1300296 0.1880623
vt 0.1319917 0.1785845
vt 0.133104 0.1730284
vt 0.1261695 0.1915109
vt 0.12941 0.1945537
vt 0.1199433 0.1861446
vt 0.1253899 0.1926332
vt 0.1190381 0.1872183
vt 0.1298554 0.1834805
vt 0.1301724 0.1741251
vt 0.1326285 0.1716771
vt 0.1293474 0.1725653
vt 0.126402 0.1746585
vt 0.1289811 0.1792933
vt 0.1274739 0.1754224
vt 0.1243874 0.1722505
vt 0.1187356 0.1854188
vt 0.1159991 0.1837904
vt 0.1213054 0.1716771
vt 0.1148012 0.183082
vt 0.1800686 0.004802793
vt 0.1806222 0.003417969
vt 0.1764404 0.003418174
vt 0.1764405 0.004802973
vt 0.1685524 0.003418559
vt 0.1685525 0.004803359
vt 0.1459703 0.1419938
vt 0.1545862 0.135425
vt 0.1548792 0.1275424
vt 0.1563148 0.1236147
vt 0.1560272 0.121693
vt 0.1559721 0.1182406
vt 0.1563138 0.1153336
vt 0.1547071 0.1147103
vt 0.1443637 0.1413704
vt 0.1531005 0.114087
vt 0.142757 0.1407471
vt 0.1514938 0.1134636
vt 0.1411504 0.1401237
vt 0.1498871 0.1128403
vt 0.1395437 0.1395004
vt 0.1482805 0.1122169
vt 0.137937 0.138877
vt 0.1363304 0.1382537
vt 0.1466739 0.1115936
vt 0.1449655 0.1139704
vt 0.1425965 0.1164822
vt 0.1410881 0.1177071
vt 0.1394991 0.1215753
vt 0.1343992 0.1275929
vt 0.1312953 0.1281506
vt 0.1331962 0.1388169
vt 0.1354431 0.1423185
vt 0.137261 0.1397041
vt 0.1368935 0.1413878
vt 0.1337594 0.141951
vt 0.1328287 0.1405005
vt 0.2360654 0.0296917
vt 0.2341404 0.02970213
vt 0.2342062 0.03144656
vt 0.2359751 0.03144634
vt 0.2341409 0.03319101
vt 0.2360659 0.03320096
vt 0.2395023 0.0332039
vt 0.2394578 0.03144592
vt 0.2395019 0.02968793
vt 0.2425257 0.02984856
vt 0.2420789 0.0314456
vt 0.2442028 0.03144534
vt 0.2425261 0.03304254
vt 0.2441415 0.02917854
vt 0.244142 0.03371216
vt 0.2457663 0.02983506
vt 0.2457667 0.03305524
vt 0.2464416 0.03144507
vn 1 0 2.411465E-06
vn 1 0 8.645821E-06
vn 1 0 8.645821E-06
vn 1 0 1.086544E-07
vn 1 0 -6.810087E-06
vn 1 0 0
vn 1 0 0
vn 1 0 0
vn 0.3364688 -0.9415346 0.01736259
vn 0.3499018 -0.9309762 0.1041735
vn 0.3486582 -0.9313447 0.1050448
vn 1.630479E-06 -0.9998791 0.01554596
vn 5.246629E-06 -0.9943256 0.1063794
vn -0.3499041 -0.9309752 0.1041738
vn 0.3172014 -0.9369458 -0.1466824
vn -0.9228126 -0.2998815 0.2418427
vn 0 -0.9887648 -0.1494805
vn 0.3106112 -0.8881908 -0.3385818
vn -0.9176343 -0.3973584 0.007330931
vn 7.061699E-07 -0.9367797 -0.3499195
vn 0.3305058 -0.7512376 -0.5713212
vn -0.9573809 0.167232 0.2354894
vn 1.634816E-05 0.3964102 0.9180735
vn -0.6940765 0.7163039 -0.0718781
vn 1.733696E-05 0.5790232 0.815311
vn 1.754554E-05 0.6600424 0.7512283
vn -0.8792421 -0.4706412 -0.0736901
vn 3.2948E-06 -0.8006839 -0.5990871
vn 0.3226025 -0.3385018 -0.8839367
vn 1.171728E-05 -0.3576393 -0.9338598
vn -0.7082936 0.6050054 -0.363715
vn -0.9158848 -0.3751114 -0.1429907
vn -0.9489607 -0.2510499 -0.1909123
vn 1.846042E-06 0.916186 -0.4007534
vn 0.001006892 0.9161385 -0.4008608
vn -0.0009865023 0.9161385 -0.4008608
vn -0.001657479 0.9161949 -0.4007295
vn -0.001657478 0.9161949 -0.4007294
vn 5.088213E-05 0.3963983 0.9180787
vn 5.088212E-05 0.3963983 0.9180787
vn 5.354663E-05 0.5790042 0.8153246
vn 5.354669E-05 0.5790114 0.8153194
vn 5.399813E-05 0.6600287 0.7512403
vn 5.399813E-05 0.6600287 0.7512404
vn 0.9453364 -0.1234197 -0.3018385
vn 0.9999983 -0.001210333 -0.001380367
vn 0.9999946 -0.001527596 -0.002898256
vn 0.9999902 -0.001756422 -0.004052675
vn 0.9999875 -0.001938999 -0.00460726
vn 0.9999806 -0.002386162 -0.005773767
vn 0.9285958 -0.1403647 -0.3435222
vn 1 4.550398E-06 5.423395E-06
vn 1 -1.521912E-06 -9.425039E-06
vn 0.7070988 0.2674703 0.6545768
vn 0.7070909 0.2674734 0.6545842
vn -1.886533E-05 0.3782579 0.9257003
vn -2.211121E-05 0.3782579 0.9257003
vn -0.7071078 0.2674679 0.654568
vn -0.7071025 0.2674699 0.654573
vn -1 -1.081602E-07 0
vn -1 -3.229318E-06 -7.741092E-06
vn -0.712374 0.05563667 -0.6995912
vn -0.9285879 -0.1403748 -0.3435397
vn -0.9999804 -0.002388654 -0.005792814
vn -0.9999874 -0.001939858 -0.004655353
vn -0.9999907 -0.001749898 -0.00396058
vn -0.9999948 -0.001527579 -0.002858026
vn -0.8095037 0.09320842 -0.5796689
vn 3.070462E-05 0.1606865 -0.9870055
vn 3.037138E-05 0.3003211 -0.9538382
vn 2.100079E-06 0.9257052 -0.3782459
vn -4.893422E-05 0.9257079 -0.3782389
vn -4.893423E-05 0.9257079 -0.3782389
vn 5.67173E-05 0.9257054 -0.3782452
vn 5.671731E-05 0.9257054 -0.3782453
vn 0.415512 -0.6706696 -0.6144527
vn 0.4312235 -0.717909 -0.5464914
vn 2.140512E-05 -0.7956976 -0.6056942
vn 1.554086E-05 -0.7403229 -0.6722515
vn -0.4311672 -0.7179408 -0.5464941
vn -0.41548 -0.6706837 -0.6144589
vn -0.3955188 -0.6068967 -0.6893775
vn 2.741267E-06 -0.6607995 -0.7505624
vn 0.395524 -0.6068916 -0.689379
vn 0.2977766 -0.865266 -0.4032914
vn -9.121341E-06 -0.7802526 -0.6254646
vn -6.6052E-06 -0.925707 0.3782414
vn -0.2977928 -0.865268 -0.403275
vn -2.395456E-05 -0.9257059 0.3782442
vn 0 -0.9257036 0.3782496
vn -2.395522E-05 -0.9256916 0.3782791
vn 3.698917E-06 -0.9256933 0.3782748
vn -8.630706E-06 -0.9256955 0.3782695
usemtl Mat_Tools
f 1/1/1 3/3/3 2/2/2 
f 1/1/1 2/2/2 4/4/4 
f 5/5/5 1/1/1 4/4/4 
f 6/6/6 5/5/5 4/4/4 
f 7/7/7 6/6/6 4/4/4 
f 7/7/7 4/4/4 8/8/8 
f 9/9/9 11/11/11 10/10/10 
f 9/9/9 10/10/10 12/12/12 
f 12/12/12 10/10/10 13/13/13 
f 12/12/12 13/13/13 14/14/14 
f 12/12/12 15/15/15 9/9/9 
f 12/12/12 14/14/14 16/16/16 
f 12/12/12 17/17/17 15/15/15 
f 17/17/17 18/18/18 15/15/15 
f 12/12/12 16/16/16 19/19/19 
f 17/17/17 12/12/12 19/19/19 
f 17/17/17 20/20/20 18/18/18 
f 20/20/20 21/21/21 18/18/18 
f 19/19/19 16/16/16 22/22/22 
f 22/22/22 16/16/16 23/23/23 
f 19/19/19 22/22/22 24/24/24 
f 24/24/24 22/22/22 25/25/25 
f 22/22/22 23/23/23 25/25/25 
f 24/24/24 25/25/25 26/26/26 
f 17/17/17 19/19/19 27/27/27 
f 20/20/20 17/17/17 27/27/27 
f 27/27/27 19/19/19 24/24/24 
f 20/20/20 28/28/28 21/21/21 
f 28/28/28 29/29/29 21/21/21 
f 28/28/28 30/30/30 29/29/29 
f 31/31/31 30/30/30 28/28/28 
f 20/20/20 27/27/27 32/32/32 
f 28/28/28 20/20/20 32/32/32 
f 32/32/32 27/27/27 24/24/24 
f 28/28/28 32/32/32 33/33/33 
f 31/31/31 28/28/28 33/33/33 
f 33/33/33 32/32/32 24/24/24 
f 33/33/33 24/24/24 31/31/31 
f 34/34/34 31/31/31 24/24/24 
f 34/34/34 24/24/24 35/35/35 
f 34/34/34 35/35/35 36/36/36 
f 37/37/37 34/34/34 36/36/36 
f 37/37/37 36/36/36 38/38/38 
f 39/39/39 41/41/41 40/40/40 
f 39/39/39 42/42/42 41/41/41 
f 42/42/42 43/43/43 41/41/41 
f 42/42/42 44/44/44 43/43/43 
f 45/45/45 47/47/47 46/46/46 
f 48/48/48 47/47/47 45/45/45 
f 48/48/48 45/45/45 49/49/49 
f 49/49/49 45/45/45 50/50/50 
f 50/50/50 45/45/45 51/51/51 
f 52/52/52 51/51/51 45/45/45 
f 52/52/52 45/45/45 53/53/53 
f 54/54/54 52/52/52 53/53/53 
f 54/54/54 53/53/53 55/55/55 
f 56/56/56 54/54/54 55/55/55 
f 56/56/56 55/55/55 57/57/57 
f 58/58/58 56/56/56 57/57/57 
f 58/58/58 57/57/57 59/59/59 
f 60/60/60 58/58/58 59/59/59 
f 60/60/60 59/59/59 61/61/61 
f 62/62/62 60/60/60 61/61/61 
f 62/62/62 63/63/63 60/60/60 
f 62/62/62 64/64/64 63/63/63 
f 62/62/62 65/65/65 64/64/64 
f 66/66/66 65/65/65 62/62/62 
f 67/67/67 66/66/66 62/62/62 
f 62/62/62 68/68/68 67/67/67 
f 62/62/62 69/69/69 68/68/68 
f 62/62/62 70/70/70 69/69/69 
f 71/71/71 70/70/70 62/62/62 
f 71/71/71 62/62/62 72/72/72 
f 71/71/71 72/72/72 73/73/73 
f 74/74/74 70/70/70 71/71/71 
f 74/74/74 75/75/75 70/70/70 
f 76/76/76 78/78/78 77/77/77 
f 76/76/76 79/79/79 78/78/78 
f 79/79/79 80/80/80 78/78/78 
f 79/79/79 81/81/81 80/80/80 
f 82/82/82 81/81/81 79/79/79 
f 83/83/83 79/79/79 76/76/76 
f 82/82/82 79/79/79 83/83/83 
f 83/83/83 76/76/76 84/84/84 
f 85/85/85 83/83/83 84/84/84 
f 86/86/86 82/82/82 83/83/83 
f 85/85/85 86/86/86 83/83/83 
f 86/86/86 85/85/85 87/87/87 
f 86/86/86 88/88/88 82/82/82 
f 88/88/88 86/86/86 87/87/87 
f 85/85/85 89/89/89 87/87/87 
f 90/90/90 88/88/88 87/87/87 
f 89/89/89 91/91/91 87/87/87 
f 92/92/92 90/90/90 87/87/87 
f 91/91/91 93/93/93 87/87/87 
f 93/93/93 92/92/92 87/87/87 
