# exported by StudySceneExporter from mesh 'cover002'
mtllib materials.mtl
v 0.00158814 -0.00942738 0.00172474
v 0.00185649 -0.00976928 0.0016591
v 0.00150526 -0.00960906 0.00172474
v 0.00193937 -0.009587609 0.0016591
v 0.00209963 -0.0098802 0.00147367
v 0.0081944 0.005053889 0.00172474
v 0.0021825 -0.00969853 0.00147367
v 0.00228099 -0.00996294 0.00120057
v 0.008545619 0.00489366 0.0016591
v 0.008243579 0.0051617 0.00172474
v 0.00859481 0.00500147 0.0016591
v 0.00878876 0.00478275 0.00147366
v 0.00883794 0.00489056 0.00147366
v 0.00236387 -0.00978126 0.00120057
v 0.00236223 -0.01 0.000877846
v 0.00897013 0.00470001 0.00120056
v 0.00901931 0.00480782 0.00120056
v 0.00244511 -0.00981832 0.000877846
v 0.00228099 -0.00996294 0.000555126
v 0.00905137 0.00466295 0.000877844
v 0.00910055 0.00477076 0.000877844
v 0.00236387 -0.00978126 0.000555126
v 0.00209963 -0.0098802 0.000282027
v 0.00897013 0.00470001 0.000555123
v 0.00901931 0.00480782 0.000555123
v 0.0021825 -0.00969853 0.000282027
v 0.00185649 -0.00976928 9.65898E-05
v 0.00878876 0.00478275 0.000282024
v 0.00883794 0.00489056 0.000282024
v 0.00193937 -0.009587609 9.65898E-05
v 0.00150526 -0.00960906 3.09521E-05
v 0.00158814 -0.00942738 3.09521E-05
v 0.008545619 0.00489366 9.65871E-05
v 0.00859481 0.00500147 9.65871E-05
v 0.0081944 0.005053889 3.095E-05
v 0.008243579 0.0051617 3.09494E-05
v 0.00853957 0.00502667 0.000175917
v 0.008181199 0.00505991 0.00012081
v 0.00823038 0.005167719 0.00012081
v 0.00849038 0.00491886 0.000175917
v 0.00874573 0.00493262 0.000336036
v 0.00188413 -0.009562409 0.00017592
v 0.00157494 -0.00942136 0.000120812
v 0.00869655 0.00482481 0.000336036
v 0.00891089 0.00485728 0.000585191
v 0.00180125 -0.00974408 0.00017592
v 0.00149206 -0.00960304 0.000120812
v 0.00200741 -0.009838129 0.000336039
v 0.00209029 -0.00965646 0.000336039
v 0.00217257 -0.00991348 0.000585192
v 0.00225545 -0.009731799 0.000585192
v 0.00224727 -0.00994756 0.000877846
v 0.008861709 0.00474947 0.000585191
v 0.008985589 0.0048232 0.000877844
v 0.00233015 -0.00976588 0.000877846
v 0.00217257 -0.00991348 0.0011705
v 0.00893641 0.00471539 0.000877844
v 0.00891089 0.00485728 0.0011705
v 0.00225545 -0.009731799 0.0011705
v 0.00200741 -0.009838129 0.00141965
v 0.008861709 0.00474947 0.0011705
v 0.00874573 0.00493262 0.00141965
v 0.00209029 -0.00965646 0.00141965
v 0.00180125 -0.00974408 0.00157977
v 0.00869655 0.00482481 0.00141965
v 0.00853957 0.00502667 0.00157977
v 0.00188413 -0.009562409 0.00157977
v 0.00149206 -0.00960303 0.00163488
v 0.00157494 -0.00942136 0.00163488
v 0.00849038 0.00491886 0.00157977
v 0.00823038 0.005167719 0.00163488
v 0.008181199 0.00505991 0.00163488
v -0.00219731 0.00979452 0.00162295
v 0.00823038 0.005167719 0.00163488
v -0.00214812 0.00990233 0.00162295
v 0.008181199 0.00505991 0.00163488
v -0.00880356 -0.00468676 0.00162295
v 0.00157494 -0.00942136 0.00163488
v -0.00888644 -0.00486843 0.00162295
v 0.00149206 -0.00960303 0.00163488
v -0.00889539 -0.00464487 0.00162284
v -0.00897827 -0.00482654 0.00162284
v -0.00228914 0.00983641 0.00162284
v -0.00219731 0.00979452 0.00162295
v -0.00901767 -0.00458908 0.0016227
v -0.00910055 -0.00477076 0.0016227
v -0.00241141 0.00989219 0.0016227
v -0.00223995 0.00994422 0.00162284
v -0.00214812 0.00990233 0.00162295
v -0.00236223 0.01 0.0016227
v -0.00223664 0.009942709 0.00171326
v -0.00240822 0.00989073 0.00171312
v -0.00235903 0.00999854 0.00171312
v -0.00228582 0.0098349 0.00171326
v -0.00214473 0.009900779 0.00171336
v -0.00889208 -0.00464638 0.00171326
v -0.00901447 -0.00459054 0.00171313
v -0.00219391 0.00979297 0.00171336
v -0.00897496 -0.00482805 0.00171326
v -0.00909735 -0.00477222 0.00171313
v -0.008800169 -0.00468831 0.00171336
v -0.008883039 -0.00486998 0.00171336
v 0.00150526 -0.00960906 0.00172474
v 0.00158814 -0.00942738 0.00172474
v 0.0081944 0.005053889 0.00172474
v 0.008243579 0.0051617 0.00172474
v -0.00897496 -0.00482805 0.00171326
v -0.00909902 -0.00477146 0.00166597
v -0.00909735 -0.00477222 0.00171313
v -0.00897669 -0.00482726 0.00166611
v -0.00910055 -0.00477076 0.0016227
v -0.00897827 -0.00482654 0.00162284
v -0.008883039 -0.00486998 0.00171336
v -0.008884819 -0.00486917 0.00166621
v -0.00888644 -0.00486843 0.00162295
v 0.00149206 -0.00960303 0.00163488
v 0.00149838 -0.00960592 0.00167788
v 0.00150526 -0.00960906 0.00172474
v 0.00185649 -0.00976928 0.0016591
v 0.00182768 -0.009756139 0.00161773
v 0.00180125 -0.00974408 0.00157977
v 0.00200741 -0.009838129 0.00141965
v 0.00205153 -0.00985826 0.0014455
v 0.00209963 -0.0098802 0.00147367
v 0.00228099 -0.00996294 0.00120057
v 0.00217257 -0.00991348 0.0011705
v 0.00222445 -0.009937139 0.00118489
v 0.00236223 -0.01 0.000877846
v 0.00230228 -0.00997265 0.000877846
v 0.00224727 -0.00994756 0.000877846
v 0.00217257 -0.00991348 0.000585192
v 0.00222445 -0.009937139 0.000570807
v 0.00228099 -0.00996294 0.000555126
v 0.00209963 -0.0098802 0.000282027
v 0.00200741 -0.009838129 0.000336039
v 0.00205153 -0.00985826 0.000310196
v 0.00185649 -0.00976928 9.65898E-05
v 0.00182768 -0.009756139 0.000137962
v 0.00180125 -0.00974408 0.00017592
v 0.00149206 -0.00960304 0.000120812
v 0.00149838 -0.00960592 7.78161E-05
v 0.00150526 -0.00960906 3.09521E-05
v -0.008883799 -0.00486964 3.07628E-05
v -0.00888392 -0.00486958 0.000121216
v -0.00888387 -0.00486961 7.79363E-05
v -0.008977789 -0.00482676 3.07607E-05
v -0.008977789 -0.00482676 7.793699E-05
v -0.008977789 -0.00482676 0.000121219
v -0.00889491 -0.00464508 0.000121219
v -0.00888392 -0.00486958 0.000121216
v -0.008977789 -0.00482676 0.000121219
v -0.00880104 -0.00468791 0.000121216
v -0.00228866 0.009836189 0.000121216
v 0.00157494 -0.00942136 0.000120812
v 0.00149206 -0.00960304 0.000120812
v 0.008181199 0.00505991 0.00012081
v -0.00219479 0.009793369 0.000121213
v 0.00823038 0.005167719 0.00012081
v -0.00214561 0.00990118 0.000121213
v -0.00223947 0.009944 0.000121216
v -0.00889491 -0.00464508 3.07607E-05
v -0.008977789 -0.00482676 7.793699E-05
v -0.008977789 -0.00482676 3.07607E-05
v -0.00889491 -0.00464508 7.793699E-05
v -0.00228866 0.009836189 3.07581E-05
v -0.00889491 -0.00464508 0.000121219
v -0.008977789 -0.00482676 0.000121219
v -0.00228866 0.009836189 0.000121216
v -0.00228866 0.009836189 7.79343E-05
v -0.00223947 0.009944 3.07581E-05
v -0.00223947 0.009944 7.79343E-05
v -0.00223947 0.009944 0.000121216
v -0.00901767 -0.00458908 0.0016227
v -0.00909902 -0.00477146 0.00166597
v -0.00910055 -0.00477076 0.0016227
v -0.00901614 -0.00458978 0.00166597
v -0.00241141 0.00989219 0.0016227
v -0.00901447 -0.00459054 0.00171313
v -0.00909735 -0.00477222 0.00171313
v -0.00240988 0.00989149 0.00166596
v -0.00240822 0.00989073 0.00171312
v -0.00235903 0.00999854 0.00171312
v -0.0023607 0.0099993 0.00166596
v -0.00236223 0.01 0.0016227
v -0.00223947 0.009944 7.79343E-05
v -0.00214561 0.00990118 0.000121213
v -0.00223947 0.009944 0.000121216
v -0.00214555 0.009901149 7.79336E-05
v -0.00214549 0.009901119 3.07601E-05
v -0.00223947 0.009944 3.07581E-05
v 0.008243579 0.0051617 3.09494E-05
v 0.0082367 0.00516484 7.78134E-05
v 0.00823038 0.005167719 0.00012081
v 0.00859481 0.00500147 9.65871E-05
v 0.008566 0.00501462 0.000137959
v 0.00853957 0.00502667 0.000175917
v 0.00874573 0.00493262 0.000336036
v 0.008789849 0.0049125 0.000310193
v 0.00883794 0.00489056 0.000282024
v 0.00901931 0.00480782 0.000555123
v 0.00891089 0.00485728 0.000585191
v 0.00896277 0.00483361 0.000570804
v 0.00910055 0.00477076 0.000877844
v 0.0090406 0.00479811 0.000877844
v 0.008985589 0.0048232 0.000877844
v 0.00891089 0.00485728 0.0011705
v 0.00896277 0.00483361 0.00118488
v 0.00901931 0.00480782 0.00120056
v 0.00883794 0.00489056 0.00147366
v 0.00874573 0.00493262 0.00141965
v 0.008789849 0.0049125 0.00144549
v 0.00859481 0.00500147 0.0016591
v 0.008566 0.00501462 0.00161773
v 0.00853957 0.00502667 0.00157977
v 0.00823038 0.005167719 0.00163488
v 0.0082367 0.00516484 0.00167787
v 0.008243579 0.0051617 0.00172474
v -0.00214812 0.00990233 0.00162295
v -0.0021465 0.00990158 0.00166621
v -0.00214473 0.009900779 0.00171336
v -0.00223995 0.00994422 0.00162284
v -0.00223837 0.0099435 0.0016661
v -0.00236223 0.01 0.0016227
v -0.00223664 0.009942709 0.00171326
v -0.0023607 0.0099993 0.00166596
v -0.00235903 0.00999854 0.00171312
v -0.00228866 0.009836189 3.07581E-05
v -0.00214549 0.009901119 3.07601E-05
v -0.00223947 0.009944 3.07581E-05
v -0.00219467 0.009793309 3.07601E-05
v -0.00889491 -0.00464508 3.07607E-05
v 0.0081944 0.005053889 3.095E-05
v 0.008243579 0.0051617 3.09494E-05
v 0.00158814 -0.00942738 3.09521E-05
v -0.008800929 -0.00468796 3.07628E-05
v -0.008977789 -0.00482676 3.07607E-05
v 0.00150526 -0.00960906 3.09521E-05
v -0.008883799 -0.00486964 3.07628E-05
vt 0.146638 0.0547209
vt 0.150049 0.0531843
vt 0.146627 0.0532043
vt 0.15006 0.054701
vt 0.153263 0.053165
vt 0.147533 0.175642
vt 0.153271 0.054684
vt 0.156982 0.0531569
vt 0.150953 0.175622
vt 0.147539 0.176542
vt 0.15096 0.176522
vt 0.154165 0.175605
vt 0.15417 0.176502
vt 0.156987 0.0546735
vt 0.160951 0.0531441
vt 0.157882 0.175595
vt 0.157885 0.176495
vt 0.160957 0.0546601
vt 0.164921 0.0531271
vt 0.161852 0.175582
vt 0.161855 0.176482
vt 0.164928 0.054643
vt 0.168639 0.0531085
vt 0.165823 0.175564
vt 0.165827 0.176465
vt 0.168648 0.0546238
vt 0.171853 0.053086
vt 0.169542 0.175545
vt 0.169548 0.176446
vt 0.171864 0.0546024
vt 0.175279 0.0530619
vt 0.17529 0.0545785
vt 0.172758 0.175524
vt 0.172765 0.176424
vt 0.176184 0.1755
vt 0.176191 0.1764
vt 0.149299 0.308014
vt 0.146316 0.307118
vt 0.146323 0.308021
vt 0.149292 0.307111
vt 0.151999 0.308006
vt 0.148396 0.186113
vt 0.145421 0.186119
vt 0.151995 0.307105
vt 0.155328 0.308012
vt 0.148385 0.184591
vt 0.14541 0.184598
vt 0.151085 0.184584
vt 0.151093 0.186108
vt 0.154403 0.184588
vt 0.154414 0.186102
vt 0.157912 0.184544
vt 0.155321 0.307101
vt 0.158864 0.307967
vt 0.157941 0.186057
vt 0.161419 0.184451
vt 0.158847 0.307055
vt 0.162397 0.307873
vt 0.161467 0.185965
vt 0.164726 0.184323
vt 0.162368 0.306964
vt 0.165722 0.307747
vt 0.164789 0.185842
vt 0.167418 0.184192
vt 0.165684 0.306842
vt 0.168412 0.307615
vt 0.167482 0.185714
vt 0.170405 0.184055
vt 0.170444 0.185591
vt 0.168373 0.306713
vt 0.171365 0.307478
vt 0.171341 0.30659
vt 0.269673 0.305828
vt 0.171365 0.307478
vt 0.269694 0.306734
vt 0.171341 0.30659
vt 0.268773 0.184825
vt 0.170444 0.185591
vt 0.268759 0.183303
vt 0.170405 0.184055
vt 0.269633 0.18479
vt 0.26962 0.18327
vt 0.27053 0.305784
vt 0.269673 0.305828
vt 0.270788 0.184761
vt 0.27077 0.183241
vt 0.271684 0.305759
vt 0.270551 0.306684
vt 0.269694 0.306734
vt 0.2717 0.306663
vt 0.0482779 0.177269
vt 0.0471125 0.176377
vt 0.0471191 0.177277
vt 0.0482713 0.17637
vt 0.0491477 0.177266
vt 0.0473768 0.0554484
vt 0.046218 0.0554559
vt 0.0491411 0.176366
vt 0.0473655 0.0539317
vt 0.0462068 0.0539393
vt 0.0482466 0.0554445
vt 0.0482354 0.053928
vt 0.146627 0.0532043
vt 0.146638 0.0547209
vt 0.147533 0.175642
vt 0.147539 0.176542
vt 0.196418 0.338229
vt 0.195243 0.337659
vt 0.195258 0.338227
vt 0.196401 0.337661
vt 0.195228 0.337139
vt 0.196386 0.33714
vt 0.197289 0.33823
vt 0.197272 0.337662
vt 0.197256 0.337142
vt 0.295565 0.337285
vt 0.295625 0.337803
vt 0.29569 0.338367
vt 0.299017 0.337577
vt 0.298744 0.337079
vt 0.298494 0.336622
vt 0.300447 0.334694
vt 0.300865 0.335005
vt 0.30132 0.335345
vt 0.303038 0.332057
vt 0.302011 0.331695
vt 0.302503 0.331868
vt 0.303808 0.328172
vt 0.30324 0.328172
vt 0.302719 0.328172
vt 0.302011 0.324649
vt 0.302503 0.324476
vt 0.303038 0.324287
vt 0.30132 0.321
vt 0.300447 0.32165
vt 0.300865 0.321339
vt 0.299017 0.318768
vt 0.298744 0.319266
vt 0.298494 0.319723
vt 0.295565 0.319059
vt 0.295625 0.318542
vt 0.29569 0.317978
vt 0.197281 0.317975
vt 0.19728 0.319064
vt 0.197281 0.318543
vt 0.196391 0.317975
vt 0.196391 0.318543
vt 0.196391 0.319064
vt 0.0462179 0.186837
vt 0.0470923 0.185314
vt 0.0462068 0.185317
vt 0.0471034 0.186835
vt 0.0471129 0.307836
vt 0.145421 0.186119
vt 0.14541 0.184598
vt 0.146316 0.307118
vt 0.0479983 0.307834
vt 0.146323 0.308021
vt 0.0480049 0.308737
vt 0.0471195 0.30874
vt 0.168231 0.315384
vt 0.16975 0.315885
vt 0.16975 0.315384
vt 0.168231 0.315885
vt 0.0471085 0.315384
vt 0.168231 0.316345
vt 0.16975 0.316345
vt 0.0471085 0.316345
vt 0.0471085 0.315885
vt 0.0462067 0.315384
vt 0.0462067 0.315885
vt 0.0462067 0.316345
vt 0.270788 0.184761
vt 0.271283 0.183222
vt 0.27077 0.183241
vt 0.271309 0.184742
vt 0.271684 0.305759
vt 0.271877 0.18473
vt 0.27185 0.183208
vt 0.272201 0.305739
vt 0.272768 0.305726
vt 0.27279 0.306627
vt 0.272222 0.306643
vt 0.2717 0.306663
vt 0.288391 0.309472
vt 0.287502 0.309993
vt 0.288391 0.309993
vt 0.287501 0.309472
vt 0.2875 0.308904
vt 0.288391 0.308904
vt 0.189092 0.308907
vt 0.189157 0.309471
vt 0.189217 0.309988
vt 0.185765 0.309697
vt 0.186037 0.310195
vt 0.186288 0.310652
vt 0.184335 0.312579
vt 0.183917 0.312268
vt 0.183461 0.311929
vt 0.181744 0.315217
vt 0.182771 0.315578
vt 0.182279 0.315405
vt 0.180974 0.319101
vt 0.181542 0.319101
vt 0.182063 0.319101
vt 0.182771 0.322624
vt 0.182279 0.322797
vt 0.181744 0.322986
vt 0.183461 0.326274
vt 0.184335 0.325623
vt 0.183917 0.325935
vt 0.185765 0.328506
vt 0.186037 0.328008
vt 0.186288 0.327551
vt 0.189217 0.328214
vt 0.189157 0.328732
vt 0.189092 0.329296
vt 0.287525 0.328071
vt 0.28751 0.328591
vt 0.287493 0.329159
vt 0.288395 0.328069
vt 0.28838 0.32859
vt 0.289554 0.328068
vt 0.288364 0.329158
vt 0.289539 0.328588
vt 0.289523 0.329156
vt 0.275478 0.174766
vt 0.274593 0.175672
vt 0.275485 0.175666
vt 0.274587 0.174773
vt 0.274584 0.0538449
vt 0.176184 0.1755
vt 0.176191 0.1764
vt 0.17529 0.0545785
vt 0.273692 0.0538513
vt 0.274572 0.0523283
vt 0.175279 0.0530619
vt 0.273681 0.0523347
vn 0.1525 -0.06956909 0.9858518
vn 0.3323931 -0.1516351 0.9308714
vn 0.1525 -0.06956909 0.9858518
vn 0.3323931 -0.1516351 0.9308714
vn 0.6297177 -0.2872729 0.7217547
vn 0.1525 -0.06956909 0.9858518
vn 0.6297177 -0.2872729 0.7217547
vn 0.8164018 -0.3724369 0.4413379
vn 0.3323931 -0.1516351 0.9308714
vn 0.1525 -0.06956909 0.9858518
vn 0.3323931 -0.1516351 0.9308714
vn 0.6297177 -0.2872729 0.7217547
vn 0.6297177 -0.2872729 0.7217547
vn 0.8164018 -0.3724369 0.4413379
vn 0.909801 -0.415045 1.08065E-07
vn 0.8164018 -0.3724369 0.4413379
vn 0.8164018 -0.3724369 0.4413379
vn 0.909801 -0.415045 0
vn 0.8164018 -0.3724369 -0.4413379
vn 0.909801 -0.415045 0
vn 0.909801 -0.415045 0
vn 0.8164018 -0.3724369 -0.4413379
vn 0.6297171 -0.287273 -0.7217552
vn 0.8164018 -0.3724369 -0.4413379
vn 0.8164018 -0.3724369 -0.4413379
vn 0.6297177 -0.2872729 -0.7217547
vn 0.3323931 -0.1516361 -0.9308713
vn 0.6297177 -0.2872729 -0.7217547
vn 0.6297177 -0.2872729 -0.7217547
vn 0.3323931 -0.1516361 -0.9308713
vn 0.1525 -0.06956939 -0.9858518
vn 0.1525 -0.06956939 -0.9858518
vn 0.3323931 -0.1516361 -0.9308713
vn 0.3323931 -0.1516361 -0.9308713
vn 0.1525 -0.06956939 -0.9858518
vn 0.1525 -0.06956939 -0.9858518
vn -0.3319329 0.1514259 0.9310697
vn -0.145629 0.06643501 0.9871062
vn -0.145629 0.06643501 0.9871062
vn -0.3319329 0.1514259 0.9310697
vn -0.6330796 0.2888069 0.7181926
vn -0.3319329 0.1514259 0.9310697
vn -0.145629 0.06643501 0.9871062
vn -0.6330796 0.2888069 0.7181926
vn -0.8159145 0.3722148 0.4424248
vn -0.3319329 0.1514259 0.9310697
vn -0.145629 0.06643501 0.9871062
vn -0.6330796 0.2888069 0.7181926
vn -0.6330796 0.2888069 0.7181926
vn -0.8159145 0.3722148 0.4424248
vn -0.8159145 0.3722148 0.4424248
vn -0.909801 0.415045 -1.21638E-07
vn -0.8159145 0.3722148 0.4424248
vn -0.909801 0.415045 0
vn -0.909801 0.415045 -1.08123E-07
vn -0.8159148 0.3722139 -0.4424249
vn -0.909801 0.415045 0
vn -0.8159148 0.3722139 -0.4424249
vn -0.8159148 0.3722139 -0.4424249
vn -0.6330799 0.288806 -0.7181929
vn -0.8159148 0.3722139 -0.4424249
vn -0.6330799 0.288806 -0.7181929
vn -0.6330799 0.288806 -0.7181929
vn -0.3319329 0.151425 -0.9310699
vn -0.6330799 0.288806 -0.7181929
vn -0.3319329 0.1514259 -0.9310697
vn -0.3319329 0.1514259 -0.9310697
vn -0.145629 0.06643471 -0.9871062
vn -0.145629 0.06643471 -0.9871062
vn -0.3319329 0.1514259 -0.9310697
vn -0.145629 0.06643471 -0.9871062
vn -0.145629 0.06643471 -0.9871062
vn 0.0009516114 -0.0004342982 -0.9999995
vn 0.0009516114 -0.0004342982 -0.9999995
vn 0.0009516125 -0.0004342982 -0.9999995
vn 0.0009516125 -0.0004342982 -0.9999995
vn 0.0009516075 -0.0004342962 -0.9999995
vn 0.0009516075 -0.0004342962 -0.9999995
vn 0.0009516075 -0.0004342962 -0.9999995
vn 0.0009516075 -0.0004342962 -0.9999995
vn 0.0009517255 -0.0004343502 -0.9999995
vn 0.0009517255 -0.0004343502 -0.9999995
vn 0.0009517245 -0.0004343532 -0.9999995
vn 0.0009513315 -0.0004341702 -0.9999995
vn 0.0009517255 -0.0004343502 -0.9999995
vn 0.0009517255 -0.0004343502 -0.9999995
vn 0.0009517245 -0.0004343532 -0.9999995
vn 0.0009517255 -0.0004343502 -0.9999995
vn 0.0009513315 -0.0004341702 -0.9999995
vn 0.0009517255 -0.0004343502 -0.9999995
vn -0.0009067517 0.0004138328 0.9999995
vn -0.0009067517 0.0004138328 0.9999995
vn -0.0009067517 0.0004138328 0.9999995
vn -0.0009067517 0.0004138328 0.9999995
vn -0.0009067395 0.0004138272 0.9999995
vn -0.0009067517 0.0004138328 0.9999995
vn -0.0009067517 0.0004138328 0.9999995
vn -0.0009067305 0.0004138292 0.9999995
vn -0.0009067517 0.0004138328 0.9999995
vn -0.0009067517 0.0004138328 0.9999995
vn -0.0009067256 0.0004138208 0.9999995
vn -0.0009067256 0.0004138208 0.9999995
vn -0.0009067256 0.0004138208 0.9999995
vn -0.0009067256 0.0004138208 0.9999995
vn -0.0009067296 0.0004138288 0.9999995
vn -0.0009067386 0.0004138268 0.9999995
vn -0.415045 -0.909801 1.62921E-07
vn -0.415045 -0.909801 1.62921E-07
vn -0.415045 -0.909801 1.62921E-07
vn -0.415045 -0.909801 1.62921E-07
vn -0.415045 -0.909801 1.62921E-07
vn -0.415045 -0.909801 1.62921E-07
vn -0.415045 -0.909801 1.62921E-07
vn -0.415045 -0.909801 1.62921E-07
vn -0.415045 -0.909801 1.62921E-07
vn -0.415045 -0.909801 1.62921E-07
vn -0.415045 -0.909801 1.62921E-07
vn -0.415045 -0.909801 1.62921E-07
vn -0.415045 -0.909801 1.62921E-07
vn -0.415045 -0.909801 1.62921E-07
vn -0.415045 -0.909801 1.62921E-07
vn -0.415045 -0.909801 1.62921E-07
vn -0.415045 -0.909801 1.62921E-07
vn -0.415045 -0.909801 1.62921E-07
vn -0.415045 -0.909801 1.62921E-07
vn -0.415045 -0.909801 1.62921E-07
vn -0.415045 -0.909801 1.62921E-07
vn -0.415045 -0.909801 1.62921E-07
vn -0.415045 -0.909801 1.62921E-07
vn -0.415045 -0.909801 1.62921E-07
vn -0.415045 -0.909801 1.62921E-07
vn -0.415045 -0.909801 1.62921E-07
vn -0.415045 -0.909801 1.62921E-07
vn -0.415045 -0.909801 1.62921E-07
vn -0.415045 -0.909801 1.62921E-07
vn -0.415045 -0.909801 1.62921E-07
vn -0.415045 -0.909801 1.62921E-07
vn -0.415045 -0.909801 1.62921E-07
vn -0.415045 -0.909801 1.62921E-07
vn -0.415045 -0.909801 1.62921E-07
vn -0.415045 -0.909801 1.62921E-07
vn -0.415045 -0.909801 1.62921E-07
vn -0.415045 -0.909801 1.62921E-07
vn -0.415045 -0.909801 1.62921E-07
vn -0.415045 -0.909801 1.62921E-07
vn -0.415045 -0.909801 1.62921E-07
vn -0.415045 -0.909801 1.62921E-07
vn -0.415045 -0.909801 1.62921E-07
vn 3.19453E-05 -1.43941E-05 1
vn 3.19453E-05 -1.43941E-05 1
vn 3.19453E-05 -1.43941E-05 1
vn 3.19453E-05 -1.43941E-05 1
vn 3.19453E-05 -1.43941E-05 1
vn 3.22445E-05 -1.45307E-05 1
vn 3.22445E-05 -1.45307E-05 1
vn 3.22445E-05 -1.45307E-05 1
vn 3.22445E-05 -1.45307E-05 1
vn 3.22445E-05 -1.45307E-05 1
vn 3.22445E-05 -1.45307E-05 1
vn 3.19453E-05 -1.43941E-05 1
vn -0.909801 0.415045 0
vn -0.909801 0.415045 0
vn -0.909801 0.415045 0
vn -0.909801 0.415045 0
vn -0.909801 0.415045 0
vn -0.909801 0.415045 0
vn -0.909801 0.415045 0
vn -0.909801 0.415045 0
vn -0.909801 0.415045 0
vn -0.909801 0.415045 0
vn -0.909801 0.415045 0
vn -0.909801 0.415045 0
vn -0.9091152 0.4147321 0.03881771
vn -0.9091152 0.4147321 0.03881771
vn -0.9091152 0.4147321 0.03881771
vn -0.9091152 0.4147321 0.03881771
vn -0.9091152 0.4147321 0.03881781
vn -0.9091147 0.4147319 0.03882978
vn -0.9091147 0.4147319 0.03882978
vn -0.9091147 0.4147319 0.03882989
vn -0.9091147 0.4147319 0.03882989
vn -0.9091147 0.4147319 0.03882989
vn -0.9091147 0.4147319 0.03882989
vn -0.9091152 0.4147321 0.03881781
vn 0.415045 0.909801 -1.62921E-07
vn 0.415045 0.909801 -1.62921E-07
vn 0.415045 0.909801 -1.62921E-07
vn 0.415045 0.909801 -1.62921E-07
vn 0.415045 0.909801 -1.62921E-07
vn 0.415045 0.909801 -1.62921E-07
vn 0.415045 0.909801 -1.62921E-07
vn 0.415045 0.909801 -1.62921E-07
vn 0.415045 0.909801 -1.62921E-07
vn 0.415045 0.909801 -1.62921E-07
vn 0.415045 0.909801 -1.62921E-07
vn 0.415045 0.909801 -1.62921E-07
vn 0.415045 0.909801 -1.62921E-07
vn 0.415045 0.909801 -1.62921E-07
vn 0.415045 0.909801 -1.62921E-07
vn 0.415045 0.909801 -1.62921E-07
vn 0.415045 0.909801 -1.62921E-07
vn 0.415045 0.909801 -1.62921E-07
vn 0.415045 0.909801 -1.62921E-07
vn 0.415045 0.909801 -1.62921E-07
vn 0.415045 0.909801 -1.62921E-07
vn 0.415045 0.909801 -1.62921E-07
vn 0.415045 0.909801 -1.62921E-07
vn 0.415045 0.909801 -1.62921E-07
vn 0.415045 0.909801 -1.62921E-07
vn 0.415045 0.909801 -1.62921E-07
vn 0.415045 0.909801 -1.62921E-07
vn 0.415045 0.909801 -1.62921E-07
vn 0.415045 0.909801 -1.62921E-07
vn 0.415045 0.909801 -1.62921E-07
vn 0.415045 0.909801 -1.62921E-07
vn 0.415045 0.909801 -1.62921E-07
vn 0.415045 0.909801 -1.62921E-07
vn 0.415045 0.909801 -1.75236E-07
vn 0.415045 0.909801 -1.7523E-07
vn 0.415045 0.909801 -1.7523E-07
vn 0.415045 0.909801 -1.62921E-07
vn 0.415045 0.909801 -1.62921E-07
vn 0.415045 0.909801 -1.62921E-07
vn 0.415045 0.909801 -1.62921E-07
vn 0.415045 0.909801 -1.62921E-07
vn 0.415045 0.909801 -1.62921E-07
vn 1.48862E-05 -6.97007E-06 -1
vn 1.48862E-05 -6.97007E-06 -1
vn 1.48862E-05 -6.97007E-06 -1
vn 1.48862E-05 -6.97007E-06 -1
vn 1.48862E-05 -6.97007E-06 -1
vn 1.50405E-05 -7.04045E-06 -1
vn 1.50405E-05 -7.04045E-06 -1
vn 1.50405E-05 -7.04045E-06 -1
vn 1.48862E-05 -6.97007E-06 -1
vn 1.48862E-05 -6.97007E-06 -1
vn 1.50405E-05 -7.04045E-06 -1
vn 1.48862E-05 -6.97007E-06 -1
usemtl cover
f 1/1/1 3/3/3 2/2/2 
f 2/2/2 4/4/4 1/1/1 
f 4/4/4 2/2/2 5/5/5 
f 6/6/6 1/1/1 4/4/4 
f 5/5/5 7/7/7 4/4/4 
f 7/7/7 5/5/5 8/8/8 
f 4/4/4 9/9/9 6/6/6 
f 9/9/9 4/4/4 7/7/7 
f 10/10/10 6/6/6 9/9/9 
f 9/9/9 11/11/11 10/10/10 
f 11/11/11 9/9/9 12/12/12 
f 7/7/7 12/12/12 9/9/9 
f 12/12/12 13/13/13 11/11/11 
f 8/8/8 14/14/14 7/7/7 
f 12/12/12 7/7/7 14/14/14 
f 14/14/14 8/8/8 15/15/15 
f 13/13/13 12/12/12 16/16/16 
f 14/14/14 16/16/16 12/12/12 
f 16/16/16 17/17/17 13/13/13 
f 15/15/15 18/18/18 14/14/14 
f 16/16/16 14/14/14 18/18/18 
f 18/18/18 15/15/15 19/19/19 
f 17/17/17 16/16/16 20/20/20 
f 18/18/18 20/20/20 16/16/16 
f 20/20/20 21/21/21 17/17/17 
f 19/19/19 22/22/22 18/18/18 
f 20/20/20 18/18/18 22/22/22 
f 22/22/22 19/19/19 23/23/23 
f 21/21/21 20/20/20 24/24/24 
f 22/22/22 24/24/24 20/20/20 
f 24/24/24 25/25/25 21/21/21 
f 23/23/23 26/26/26 22/22/22 
f 24/24/24 22/22/22 26/26/26 
f 26/26/26 23/23/23 27/27/27 
f 25/25/25 24/24/24 28/28/28 
f 26/26/26 28/28/28 24/24/24 
f 28/28/28 29/29/29 25/25/25 
f 27/27/27 30/30/30 26/26/26 
f 28/28/28 26/26/26 30/30/30 
f 30/30/30 27/27/27 31/31/31 
f 31/31/31 32/32/32 30/30/30 
f 29/29/29 28/28/28 33/33/33 
f 30/30/30 33/33/33 28/28/28 
f 33/33/33 30/30/30 32/32/32 
f 33/33/33 34/34/34 29/29/29 
f 32/32/32 35/35/35 33/33/33 
f 34/34/34 33/33/33 35/35/35 
f 35/35/35 36/36/36 34/34/34 
f 37/37/37 39/39/39 38/38/38 
f 38/38/38 40/40/40 37/37/37 
f 41/41/41 37/37/37 40/40/40 
f 42/42/42 40/40/40 38/38/38 
f 38/38/38 43/43/43 42/42/42 
f 40/40/40 44/44/44 41/41/41 
f 45/45/45 41/41/41 44/44/44 
f 46/46/46 42/42/42 43/43/43 
f 43/43/43 47/47/47 46/46/46 
f 42/42/42 46/46/46 48/48/48 
f 40/40/40 42/42/42 49/49/49 
f 48/48/48 49/49/49 42/42/42 
f 49/49/49 44/44/44 40/40/40 
f 49/49/49 48/48/48 50/50/50 
f 50/50/50 51/51/51 49/49/49 
f 44/44/44 49/49/49 51/51/51 
f 51/51/51 50/50/50 52/52/52 
f 44/44/44 53/53/53 45/45/45 
f 51/51/51 53/53/53 44/44/44 
f 54/54/54 45/45/45 53/53/53 
f 52/52/52 55/55/55 51/51/51 
f 53/53/53 51/51/51 55/55/55 
f 55/55/55 52/52/52 56/56/56 
f 53/53/53 57/57/57 54/54/54 
f 55/55/55 57/57/57 53/53/53 
f 58/58/58 54/54/54 57/57/57 
f 56/56/56 59/59/59 55/55/55 
f 57/57/57 55/55/55 59/59/59 
f 59/59/59 56/56/56 60/60/60 
f 57/57/57 61/61/61 58/58/58 
f 59/59/59 61/61/61 57/57/57 
f 62/62/62 58/58/58 61/61/61 
f 60/60/60 63/63/63 59/59/59 
f 61/61/61 59/59/59 63/63/63 
f 63/63/63 60/60/60 64/64/64 
f 61/61/61 65/65/65 62/62/62 
f 63/63/63 65/65/65 61/61/61 
f 66/66/66 62/62/62 65/65/65 
f 64/64/64 67/67/67 63/63/63 
f 65/65/65 63/63/63 67/67/67 
f 67/67/67 64/64/64 68/68/68 
f 68/68/68 69/69/69 67/67/67 
f 65/65/65 70/70/70 66/66/66 
f 67/67/67 70/70/70 65/65/65 
f 70/70/70 67/67/67 69/69/69 
f 71/71/71 66/66/66 70/70/70 
f 69/69/69 72/72/72 70/70/70 
f 70/70/70 72/72/72 71/71/71 
f 73/73/73 75/75/75 74/74/74 
f 74/74/74 76/76/76 73/73/73 
f 77/77/77 73/73/73 76/76/76 
f 76/76/76 78/78/78 77/77/77 
f 79/79/79 77/77/77 78/78/78 
f 78/78/78 80/80/80 79/79/79 
f 81/81/81 77/77/77 79/79/79 
f 79/79/79 82/82/82 81/81/81 
f 77/77/77 81/81/81 83/83/83 
f 83/83/83 84/84/84 77/77/77 
f 85/85/85 81/81/81 82/82/82 
f 83/83/83 81/81/81 85/85/85 
f 82/82/82 86/86/86 85/85/85 
f 85/85/85 87/87/87 83/83/83 
f 84/84/84 83/83/83 88/88/88 
f 88/88/88 83/83/83 87/87/87 
f 88/88/88 89/89/89 84/84/84 
f 87/87/87 90/90/90 88/88/88 
f 91/91/91 93/93/93 92/92/92 
f 92/92/92 94/94/94 91/91/91 
f 95/95/95 91/91/91 94/94/94 
f 96/96/96 94/94/94 92/92/92 
f 92/92/92 97/97/97 96/96/96 
f 94/94/94 98/98/98 95/95/95 
f 98/98/98 94/94/94 96/96/96 
f 99/99/99 96/96/96 97/97/97 
f 97/97/97 100/100/100 99/99/99 
f 101/101/101 96/96/96 99/99/99 
f 96/96/96 101/101/101 98/98/98 
f 99/99/99 102/102/102 101/101/101 
f 101/101/101 102/102/102 103/103/103 
f 103/103/103 104/104/104 101/101/101 
f 98/98/98 101/101/101 104/104/104 
f 104/104/104 105/105/105 98/98/98 
f 95/95/95 98/98/98 105/105/105 
f 105/105/105 106/106/106 95/95/95 
f 107/107/107 109/109/109 108/108/108 
f 108/108/108 110/110/110 107/107/107 
f 110/110/110 108/108/108 111/111/111 
f 111/111/111 112/112/112 110/110/110 
f 113/113/113 107/107/107 110/110/110 
f 114/114/114 110/110/110 112/112/112 
f 110/110/110 114/114/114 113/113/113 
f 112/112/112 115/115/115 114/114/114 
f 114/114/114 115/115/115 116/116/116 
f 113/113/113 114/114/114 117/117/117 
f 116/116/116 117/117/117 114/114/114 
f 117/117/117 118/118/118 113/113/113 
f 119/119/119 118/118/118 117/117/117 
f 120/120/120 117/117/117 116/116/116 
f 117/117/117 120/120/120 119/119/119 
f 116/116/116 121/121/121 120/120/120 
f 120/120/120 121/121/121 122/122/122 
f 119/119/119 120/120/120 123/123/123 
f 122/122/122 123/123/123 120/120/120 
f 123/123/123 124/124/124 119/119/119 
f 125/125/125 124/124/124 123/123/123 
f 123/123/123 122/122/122 126/126/126 
f 123/123/123 127/127/127 125/125/125 
f 126/126/126 127/127/127 123/123/123 
f 128/128/128 125/125/125 127/127/127 
f 129/129/129 127/127/127 126/126/126 
f 127/127/127 129/129/129 128/128/128 
f 126/126/126 130/130/130 129/129/129 
f 129/129/129 130/130/130 131/131/131 
f 128/128/128 129/129/129 132/132/132 
f 131/131/131 132/132/132 129/129/129 
f 132/132/132 133/133/133 128/128/128 
f 134/134/134 133/133/133 132/132/132 
f 132/132/132 131/131/131 135/135/135 
f 132/132/132 136/136/136 134/134/134 
f 135/135/135 136/136/136 132/132/132 
f 137/137/137 134/134/134 136/136/136 
f 138/138/138 136/136/136 135/135/135 
f 136/136/136 138/138/138 137/137/137 
f 135/135/135 139/139/139 138/138/138 
f 138/138/138 139/139/139 140/140/140 
f 137/137/137 138/138/138 141/141/141 
f 140/140/140 141/141/141 138/138/138 
f 141/141/141 142/142/142 137/137/137 
f 143/143/143 142/142/142 141/141/141 
f 141/141/141 140/140/140 144/144/144 
f 141/141/141 145/145/145 143/143/143 
f 144/144/144 145/145/145 141/141/141 
f 146/146/146 143/143/143 145/145/145 
f 145/145/145 147/147/147 146/146/146 
f 147/147/147 145/145/145 144/144/144 
f 144/144/144 148/148/148 147/147/147 
f 149/149/149 151/151/151 150/150/150 
f 150/150/150 152/152/152 149/149/149 
f 153/153/153 149/149/149 152/152/152 
f 154/154/154 152/152/152 150/150/150 
f 150/150/150 155/155/155 154/154/154 
f 152/152/152 154/154/154 156/156/156 
f 156/156/156 157/157/157 152/152/152 
f 152/152/152 157/157/157 153/153/153 
f 157/157/157 156/156/156 158/158/158 
f 158/158/158 159/159/159 157/157/157 
f 153/153/153 157/157/157 159/159/159 
f 159/159/159 160/160/160 153/153/153 
f 161/161/161 163/163/163 162/162/162 
f 162/162/162 164/164/164 161/161/161 
f 165/165/165 161/161/161 164/164/164 
f 166/166/166 164/164/164 162/162/162 
f 162/162/162 167/167/167 166/166/166 
f 164/164/164 166/166/166 168/168/168 
f 164/164/164 169/169/169 165/165/165 
f 168/168/168 169/169/169 164/164/164 
f 170/170/170 165/165/165 169/169/169 
f 169/169/169 171/171/171 170/170/170 
f 171/171/171 169/169/169 168/168/168 
f 168/168/168 172/172/172 171/171/171 
f 173/173/173 175/175/175 174/174/174 
f 174/174/174 176/176/176 173/173/173 
f 177/177/177 173/173/173 176/176/176 
f 178/178/178 176/176/176 174/174/174 
f 174/174/174 179/179/179 178/178/178 
f 180/180/180 176/176/176 178/178/178 
f 176/176/176 180/180/180 177/177/177 
f 178/178/178 181/181/181 180/180/180 
f 180/180/180 181/181/181 182/182/182 
f 182/182/182 183/183/183 180/180/180 
f 177/177/177 180/180/180 183/183/183 
f 183/183/183 184/184/184 177/177/177 
f 185/185/185 187/187/187 186/186/186 
f 186/186/186 188/188/188 185/185/185 
f 185/185/185 188/188/188 189/189/189 
f 189/189/189 190/190/190 185/185/185 
f 191/191/191 189/189/189 188/188/188 
f 192/192/192 188/188/188 186/186/186 
f 188/188/188 192/192/192 191/191/191 
f 186/186/186 193/193/193 192/192/192 
f 194/194/194 191/191/191 192/192/192 
f 195/195/195 192/192/192 193/193/193 
f 192/192/192 195/195/195 194/194/194 
f 193/193/193 196/196/196 195/195/195 
f 195/195/195 196/196/196 197/197/197 
f 194/194/194 195/195/195 198/198/198 
f 197/197/197 198/198/198 195/195/195 
f 198/198/198 199/199/199 194/194/194 
f 200/200/200 199/199/199 198/198/198 
f 198/198/198 197/197/197 201/201/201 
f 198/198/198 202/202/202 200/200/200 
f 201/201/201 202/202/202 198/198/198 
f 203/203/203 200/200/200 202/202/202 
f 204/204/204 202/202/202 201/201/201 
f 202/202/202 204/204/204 203/203/203 
f 201/201/201 205/205/205 204/204/204 
f 204/204/204 205/205/205 206/206/206 
f 203/203/203 204/204/204 207/207/207 
f 206/206/206 207/207/207 204/204/204 
f 207/207/207 208/208/208 203/203/203 
f 209/209/209 208/208/208 207/207/207 
f 207/207/207 206/206/206 210/210/210 
f 207/207/207 211/211/211 209/209/209 
f 210/210/210 211/211/211 207/207/207 
f 212/212/212 209/209/209 211/211/211 
f 213/213/213 211/211/211 210/210/210 
f 211/211/211 213/213/213 212/212/212 
f 210/210/210 214/214/214 213/213/213 
f 213/213/213 214/214/214 215/215/215 
f 212/212/212 213/213/213 216/216/216 
f 215/215/215 216/216/216 213/213/213 
f 216/216/216 217/217/217 212/212/212 
f 216/216/216 215/215/215 218/218/218 
f 217/217/217 216/216/216 219/219/219 
f 218/218/218 219/219/219 216/216/216 
f 219/219/219 220/220/220 217/217/217 
f 219/219/219 218/218/218 221/221/221 
f 220/220/220 219/219/219 222/222/222 
f 221/221/221 222/222/222 219/219/219 
f 222/222/222 221/221/221 223/223/223 
f 222/222/222 224/224/224 220/220/220 
f 223/223/223 225/225/225 222/222/222 
f 224/224/224 222/222/222 225/225/225 
f 225/225/225 226/226/226 224/224/224 
f 227/227/227 229/229/229 228/228/228 
f 228/228/228 230/230/230 227/227/227 
f 231/231/231 227/227/227 230/230/230 
f 232/232/232 230/230/230 228/228/228 
f 228/228/228 233/233/233 232/232/232 
f 230/230/230 232/232/232 234/234/234 
f 230/230/230 235/235/235 231/231/231 
f 234/234/234 235/235/235 230/230/230 
f 236/236/236 231/231/231 235/235/235 
f 235/235/235 234/234/234 237/237/237 
f 235/235/235 238/238/238 236/236/236 
f 237/237/237 238/238/238 235/235/235 
