# exported by StudySceneExporter from mesh 'Light_Fixture_Fittings_low'
mtllib materials.mtl
v 0.01666882 0.02734322 0.4490729
v 0.03179119 0.02734322 0.4490729
v 0.03179119 0.02734322 0.4389543
v 0.01666882 0.02734322 0.4389543
v 0.01231081 0.02995129 0.4490729
v 0.01231081 0.02995129 0.4389543
v -0.007169552 0.02995129 0.4490729
v -0.007169552 0.02995129 0.4389543
v -0.01659183 0.03182548 0.4389543
v -0.01659183 0.03182548 0.4490729
v -0.0245797 0.03716286 0.4389543
v -0.0245797 0.03716286 0.4490729
v -0.02991699 0.04515064 0.4389543
v -0.02991699 0.04515064 0.4490729
v -0.03179119 0.05457294 0.4389543
v -0.03179119 0.05457294 0.4490729
v -0.02991699 0.06399524 0.4389543
v -0.02991699 0.06399524 0.4490729
v -0.02457968 0.07198311 0.4389543
v -0.02457968 0.07198311 0.4490729
v -0.01659183 0.0773204 0.4389543
v -0.01659183 0.0773204 0.4490729
v -0.007169533 0.0791946 0.4389543
v -0.007169533 0.0791946 0.4490729
v 0.01231083 0.0791946 0.4490729
v 0.01231083 0.0791946 0.4389543
v 0.01666885 0.08180271 0.4490729
v 0.01666885 0.08180271 0.4389543
v 0.03179119 0.08180271 0.4490729
v 0.03179119 0.08180271 0.4389543
v 0.01231081 0.02995129 0.4389543
v 0.01666882 0.02734322 0.4389543
v 0.03179119 0.02734322 0.4389543
v 0.01231083 0.0791946 0.4389543
v 0.03179119 0.08180271 0.4389543
v 0.01666885 0.08180271 0.4389543
v -0.007169552 0.02995129 0.4389543
v -0.007169533 0.0791946 0.4389543
v -0.02991699 0.04515064 0.4389543
v -0.01659183 0.03182548 0.4389543
v -0.0245797 0.03716286 0.4389543
v -0.02991699 0.06399524 0.4389543
v -0.03179119 0.05457294 0.4389543
v -0.02457968 0.07198311 0.4389543
v -0.01659183 0.0773204 0.4389543
v 0.01666882 0.02734322 0.4490729
v 0.01231081 0.02995129 0.4490729
v 0.03179119 0.02734322 0.4490729
v 0.03179119 0.08180271 0.4490729
v 0.01231083 0.0791946 0.4490729
v 0.01666885 0.08180271 0.4490729
v -0.007169533 0.0791946 0.4490729
v -0.007169552 0.02995129 0.4490729
v -0.02991699 0.06399524 0.4490729
v -0.01659183 0.0773204 0.4490729
v -0.02457968 0.07198311 0.4490729
v -0.02991699 0.04515064 0.4490729
v -0.03179119 0.05457294 0.4490729
v -0.0245797 0.03716286 0.4490729
v -0.01659183 0.03182548 0.4490729
v 0.01666882 -0.02734322 0.4490729
v 0.03179119 -0.02734322 0.4389543
v 0.03179119 -0.02734322 0.4490729
v 0.01666882 -0.02734322 0.4389543
v 0.01231081 -0.02995129 0.4490729
v 0.01231081 -0.02995129 0.4389543
v -0.007169552 -0.02995129 0.4490729
v -0.007169552 -0.02995129 0.4389543
v -0.01659183 -0.03182548 0.4389543
v -0.01659183 -0.03182548 0.4490729
v -0.0245797 -0.03716286 0.4389543
v -0.0245797 -0.03716286 0.4490729
v -0.02991699 -0.04515064 0.4389543
v -0.02991699 -0.04515064 0.4490729
v -0.03179119 -0.05457294 0.4389543
v -0.03179119 -0.05457294 0.4490729
v -0.02991699 -0.06399524 0.4389543
v -0.02991699 -0.06399524 0.4490729
v -0.02457968 -0.07198311 0.4389543
v -0.02457968 -0.07198311 0.4490729
v -0.01659183 -0.0773204 0.4389543
v -0.01659183 -0.0773204 0.4490729
v -0.007169533 -0.0791946 0.4389543
v -0.007169533 -0.0791946 0.4490729
v 0.01231083 -0.0791946 0.4490729
v 0.01231083 -0.0791946 0.4389543
v 0.01666885 -0.08180271 0.4490729
v 0.01666885 -0.08180271 0.4389543
v 0.03179119 -0.08180271 0.4490729
v 0.03179119 -0.08180271 0.4389543
v 0.01231081 -0.02995129 0.4389543
v 0.03179119 -0.02734322 0.4389543
v 0.01666882 -0.02734322 0.4389543
v 0.01231083 -0.0791946 0.4389543
v 0.03179119 -0.08180271 0.4389543
v 0.01666885 -0.08180271 0.4389543
v -0.007169552 -0.02995129 0.4389543
v -0.007169533 -0.0791946 0.4389543
v -0.02991699 -0.04515064 0.4389543
v -0.01659183 -0.03182548 0.4389543
v -0.0245797 -0.03716286 0.4389543
v -0.02991699 -0.06399524 0.4389543
v -0.03179119 -0.05457294 0.4389543
v -0.02457968 -0.07198311 0.4389543
v -0.01659183 -0.0773204 0.4389543
v 0.01666882 -0.02734322 0.4490729
v 0.03179119 -0.02734322 0.4490729
v 0.01231081 -0.02995129 0.4490729
v 0.03179119 -0.08180271 0.4490729
v 0.01231083 -0.0791946 0.4490729
v 0.01666885 -0.08180271 0.4490729
v -0.007169533 -0.0791946 0.4490729
v -0.007169552 -0.02995129 0.4490729
v -0.02991699 -0.06399524 0.4490729
v -0.01659183 -0.0773204 0.4490729
v -0.02457968 -0.07198311 0.4490729
v -0.02991699 -0.04515064 0.4490729
v -0.03179119 -0.05457294 0.4490729
v -0.0245797 -0.03716286 0.4490729
v -0.01659183 -0.03182548 0.4490729
v 0.01666882 0.02734322 -0.4490729
v 0.03179119 0.02734322 -0.4389543
v 0.03179119 0.02734322 -0.4490729
v 0.01666882 0.02734322 -0.4389543
v 0.01231081 0.02995129 -0.4490729
v 0.01231081 0.02995129 -0.4389543
v -0.007169552 0.02995129 -0.4490729
v -0.007169552 0.02995129 -0.4389543
v -0.01659183 0.03182548 -0.4389543
v -0.01659183 0.03182548 -0.4490729
v -0.0245797 0.03716286 -0.4389543
v -0.0245797 0.03716286 -0.4490729
v -0.02991699 0.04515064 -0.4389543
v -0.02991699 0.04515064 -0.4490729
v -0.03179119 0.05457294 -0.4389543
v -0.03179119 0.05457294 -0.4490729
v -0.02991699 0.06399524 -0.4389543
v -0.02991699 0.06399524 -0.4490729
v -0.02457968 0.07198311 -0.4389543
v -0.02457968 0.07198311 -0.4490729
v -0.01659183 0.0773204 -0.4389543
v -0.01659183 0.0773204 -0.4490729
v -0.007169533 0.0791946 -0.4389543
v -0.007169533 0.0791946 -0.4490729
v 0.01231083 0.0791946 -0.4490729
v 0.01231083 0.0791946 -0.4389543
v 0.01666885 0.08180271 -0.4490729
v 0.01666885 0.08180271 -0.4389543
v 0.03179119 0.08180271 -0.4490729
v 0.03179119 0.08180271 -0.4389543
v 0.01231081 0.02995129 -0.4389543
v 0.03179119 0.02734322 -0.4389543
v 0.01666882 0.02734322 -0.4389543
v 0.01231083 0.0791946 -0.4389543
v 0.03179119 0.08180271 -0.4389543
v 0.01666885 0.08180271 -0.4389543
v -0.007169552 0.02995129 -0.4389543
v -0.007169533 0.0791946 -0.4389543
v -0.02991699 0.04515064 -0.4389543
v -0.01659183 0.03182548 -0.4389543
v -0.0245797 0.03716286 -0.4389543
v -0.02991699 0.06399524 -0.4389543
v -0.03179119 0.05457294 -0.4389543
v -0.02457968 0.07198311 -0.4389543
v -0.01659183 0.0773204 -0.4389543
v 0.01666882 0.02734322 -0.4490729
v 0.03179119 0.02734322 -0.4490729
v 0.01231081 0.02995129 -0.4490729
v 0.03179119 0.08180271 -0.4490729
v 0.01231083 0.0791946 -0.4490729
v 0.01666885 0.08180271 -0.4490729
v -0.007169533 0.0791946 -0.4490729
v -0.007169552 0.02995129 -0.4490729
v -0.02991699 0.06399524 -0.4490729
v -0.01659183 0.0773204 -0.4490729
v -0.02457968 0.07198311 -0.4490729
v -0.02991699 0.04515064 -0.4490729
v -0.03179119 0.05457294 -0.4490729
v -0.0245797 0.03716286 -0.4490729
v -0.01659183 0.03182548 -0.4490729
v 0.01666882 -0.02734322 -0.4490729
v 0.03179119 -0.02734322 -0.4490729
v 0.03179119 -0.02734322 -0.4389543
v 0.01666882 -0.02734322 -0.4389543
v 0.01231081 -0.02995129 -0.4490729
v 0.01231081 -0.02995129 -0.4389543
v -0.007169552 -0.02995129 -0.4490729
v -0.007169552 -0.02995129 -0.4389543
v -0.01659183 -0.03182548 -0.4389543
v -0.01659183 -0.03182548 -0.4490729
v -0.0245797 -0.03716286 -0.4389543
v -0.0245797 -0.03716286 -0.4490729
v -0.02991699 -0.04515064 -0.4389543
v -0.02991699 -0.04515064 -0.4490729
v -0.03179119 -0.05457294 -0.4389543
v -0.03179119 -0.05457294 -0.4490729
v -0.02991699 -0.06399524 -0.4389543
v -0.02991699 -0.06399524 -0.4490729
v -0.02457968 -0.07198311 -0.4389543
v -0.02457968 -0.07198311 -0.4490729
v -0.01659183 -0.0773204 -0.4389543
v -0.01659183 -0.0773204 -0.4490729
v -0.007169533 -0.0791946 -0.4389543
v -0.007169533 -0.0791946 -0.4490729
v 0.01231083 -0.0791946 -0.4490729
v 0.01231083 -0.0791946 -0.4389543
v 0.01666885 -0.08180271 -0.4490729
v 0.01666885 -0.08180271 -0.4389543
v 0.03179119 -0.08180271 -0.4490729
v 0.03179119 -0.08180271 -0.4389543
v 0.01231081 -0.02995129 -0.4389543
v 0.01666882 -0.02734322 -0.4389543
v 0.03179119 -0.02734322 -0.4389543
v 0.01231083 -0.0791946 -0.4389543
v 0.03179119 -0.08180271 -0.4389543
v 0.01666885 -0.08180271 -0.4389543
v -0.007169552 -0.02995129 -0.4389543
v -0.007169533 -0.0791946 -0.4389543
v -0.02991699 -0.04515064 -0.4389543
v -0.01659183 -0.03182548 -0.4389543
v -0.0245797 -0.03716286 -0.4389543
v -0.02991699 -0.06399524 -0.4389543
v -0.03179119 -0.05457294 -0.4389543
v -0.02457968 -0.07198311 -0.4389543
v -0.01659183 -0.0773204 -0.4389543
v 0.01666882 -0.02734322 -0.4490729
v 0.01231081 -0.02995129 -0.4490729
v 0.03179119 -0.02734322 -0.4490729
v 0.03179119 -0.08180271 -0.4490729
v 0.01231083 -0.0791946 -0.4490729
v 0.01666885 -0.08180271 -0.4490729
v -0.007169533 -0.0791946 -0.4490729
v -0.007169552 -0.02995129 -0.4490729
v -0.02991699 -0.06399524 -0.4490729
v -0.01659183 -0.0773204 -0.4490729
v -0.02457968 -0.07198311 -0.4490729
v -0.02991699 -0.04515064 -0.4490729
v -0.03179119 -0.05457294 -0.4490729
v -0.0245797 -0.03716286 -0.4490729
v -0.01659183 -0.03182548 -0.4490729
vt 0.6386488 0.7922164
vt 0.6543988 0.7922173
vt 0.6543995 0.7816787
vt 0.6386494 0.7816778
vt 0.6333592 0.7922161
vt 0.6333598 0.7816776
vt 0.6130704 0.792215
vt 0.613071 0.7816765
vt 0.6030654 0.7816761
vt 0.6030648 0.7922145
vt 0.5930597 0.7816755
vt 0.5930591 0.792214
vt 0.5830541 0.7816749
vt 0.5830536 0.7922134
vt 0.5730485 0.7816744
vt 0.5730479 0.792213
vt 0.5630429 0.7816738
vt 0.5630423 0.7922124
vt 0.5530373 0.7816733
vt 0.5530367 0.7922119
vt 0.5430317 0.7816728
vt 0.5430311 0.7922114
vt 0.5330261 0.7816723
vt 0.5330255 0.7922108
vt 0.5127367 0.7922097
vt 0.5127373 0.7816712
vt 0.507447 0.7922094
vt 0.5074477 0.7816709
vt 0.491697 0.7922086
vt 0.4916978 0.7816701
vt 0.9297783 0.4322594
vt 0.9343174 0.4349755
vt 0.9500673 0.434975
vt 0.9297767 0.3809723
vt 0.9500654 0.3782553
vt 0.9343155 0.3782558
vt 0.9094895 0.43226
vt 0.9094878 0.380973
vt 0.8857974 0.4164306
vt 0.8996761 0.4303084
vt 0.8913565 0.4247497
vt 0.8857968 0.3968039
vt 0.8838452 0.4066173
vt 0.8913553 0.3884843
vt 0.8996745 0.3829253
vt 0.02356249 0.9582044
vt 0.02810133 0.9554881
vt 0.0078125 0.9582044
vt 0.0078125 0.9014846
vt 0.02810133 0.904201
vt 0.02356249 0.9014846
vt 0.04839021 0.904201
vt 0.04839021 0.9554881
vt 0.07208174 0.9200311
vt 0.05820352 0.906153
vt 0.0665229 0.9117118
vt 0.07208174 0.9396579
vt 0.07403374 0.9298445
vt 0.0665229 0.9479772
vt 0.05820352 0.953536
vt 0.5074478 0.7734763
vt 0.491697 0.7629388
vt 0.4916978 0.7734774
vt 0.5074471 0.7629378
vt 0.5127373 0.7734759
vt 0.5127367 0.7629374
vt 0.5330262 0.7734746
vt 0.5330255 0.7629361
vt 0.5430311 0.7629355
vt 0.5430318 0.773474
vt 0.5530368 0.7629347
vt 0.5530375 0.7734733
vt 0.5630423 0.7629341
vt 0.5630431 0.7734725
vt 0.5730479 0.7629335
vt 0.5730487 0.773472
vt 0.5830535 0.7629328
vt 0.5830542 0.7734714
vt 0.5930592 0.7629321
vt 0.5930599 0.7734706
vt 0.6030648 0.7629315
vt 0.6030655 0.7734699
vt 0.6130704 0.7629308
vt 0.613071 0.7734693
vt 0.63336 0.773468
vt 0.6333593 0.7629294
vt 0.6386496 0.7734675
vt 0.6386489 0.7629291
vt 0.6543996 0.7734665
vt 0.6543989 0.762928
vt 0.8361568 0.7832507
vt 0.8334405 0.7629619
vt 0.8334405 0.7787119
vt 0.8874438 0.7832509
vt 0.8901602 0.762962
vt 0.8901602 0.778712
vt 0.8361567 0.8035396
vt 0.8874438 0.8035398
vt 0.8519868 0.8272312
vt 0.8381087 0.813353
vt 0.8436675 0.8216724
vt 0.8716135 0.8272313
vt 0.8618001 0.8291832
vt 0.8799329 0.8216724
vt 0.8854917 0.8133531
vt 0.09816137 0.9014913
vt 0.08241136 0.9014913
vt 0.1027002 0.9042076
vt 0.08241136 0.9582111
vt 0.1027002 0.9554947
vt 0.09816134 0.9582111
vt 0.1229891 0.9554947
vt 0.1229891 0.9042076
vt 0.1466806 0.9396645
vt 0.1328024 0.9535427
vt 0.1411218 0.9479839
vt 0.1466806 0.9200378
vt 0.1486326 0.9298512
vt 0.1411218 0.9117185
vt 0.1328024 0.9061596
vt 0.9770704 0.1547644
vt 0.9665343 0.1705161
vt 0.9770728 0.1705144
vt 0.9665318 0.1547661
vt 0.9770695 0.1494748
vt 0.966531 0.1494765
vt 0.9770663 0.1291859
vt 0.9665278 0.1291876
vt 0.9665263 0.119182
vt 0.9770648 0.1191803
vt 0.9665247 0.1091763
vt 0.9770632 0.1091747
vt 0.9665231 0.09917074
vt 0.9770616 0.09916909
vt 0.9665216 0.08916512
vt 0.97706 0.08916347
vt 0.96652 0.07915951
vt 0.9770584 0.07915785
vt 0.9665184 0.06915386
vt 0.9770569 0.06915221
vt 0.9665169 0.05914826
vt 0.9770553 0.05914659
vt 0.9665152 0.04914264
vt 0.9770537 0.04914098
vt 0.9770506 0.02885211
vt 0.966512 0.02885377
vt 0.9770497 0.02356247
vt 0.9665112 0.02356413
vt 0.9770472 0.0078125
vt 0.9665087 0.007814159
vt 0.915223 0.8699157
vt 0.8949342 0.872632
vt 0.9106842 0.872632
vt 0.9152231 0.8186287
vt 0.8949342 0.8159122
vt 0.9106842 0.8159122
vt 0.9355119 0.8699157
vt 0.9355119 0.8186287
vt 0.9592034 0.8540856
vt 0.9453253 0.8679638
vt 0.9536446 0.8624048
vt 0.9592034 0.8344588
vt 0.9611554 0.8442721
vt 0.9536446 0.8261395
vt 0.9453253 0.8205807
vt 0.8532228 0.3245158
vt 0.8374729 0.3245177
vt 0.8577621 0.3272316
vt 0.8374798 0.3812374
vt 0.8577684 0.3785186
vt 0.8532298 0.3812355
vt 0.8780572 0.3785161
vt 0.8780509 0.3272291
vt 0.9017468 0.3626831
vt 0.8878703 0.376563
vt 0.896189 0.3710031
vt 0.9017444 0.3430564
vt 0.9036976 0.3528695
vt 0.8961846 0.3347377
vt 0.8878645 0.3291799
vt 0.9921857 0.4635279
vt 0.9921875 0.4477779
vt 0.981649 0.4477767
vt 0.9816472 0.4635267
vt 0.9921851 0.4688175
vt 0.9816465 0.4688163
vt 0.9921827 0.4891064
vt 0.9816442 0.4891051
vt 0.9816431 0.4991107
vt 0.9921815 0.499112
vt 0.9816419 0.5091164
vt 0.9921804 0.5091175
vt 0.9816408 0.5191219
vt 0.9921793 0.5191231
vt 0.9816396 0.5291275
vt 0.9921781 0.5291287
vt 0.9816384 0.5391331
vt 0.9921769 0.5391343
vt 0.9816373 0.5491387
vt 0.9921757 0.54914
vt 0.9816361 0.5591443
vt 0.9921746 0.5591456
vt 0.9816349 0.5691499
vt 0.9921734 0.5691512
vt 0.9921711 0.58944
vt 0.9816326 0.5894388
vt 0.9921705 0.5947296
vt 0.9816319 0.5947284
vt 0.9921687 0.6104796
vt 0.9816301 0.6104783
vt 0.2448413 0.8238292
vt 0.2403025 0.8211128
vt 0.2245525 0.8211128
vt 0.2448413 0.8751162
vt 0.2245525 0.8778326
vt 0.2403024 0.8778325
vt 0.2651302 0.8238291
vt 0.2651302 0.8751162
vt 0.2888217 0.8396593
vt 0.2749436 0.8257811
vt 0.2832629 0.83134
vt 0.2888217 0.859286
vt 0.2907737 0.8494727
vt 0.2832629 0.8676054
vt 0.2749436 0.8731642
vt 0.8374757 0.2666878
vt 0.8401928 0.2712262
vt 0.8374729 0.2509379
vt 0.8941926 0.2509277
vt 0.8914798 0.271217
vt 0.8941954 0.2666776
vt 0.8914835 0.2915059
vt 0.8401964 0.2915151
vt 0.8756576 0.3152003
vt 0.8895333 0.3013196
vt 0.883976 0.30964
vt 0.8560308 0.3152038
vt 0.8658445 0.317154
vt 0.8477106 0.3096465
vt 0.8421502 0.3013281
vn -0.1326976 -0.9911566 0
vn 0 -1 0
vn 0 -1 0
vn -0.1326976 -0.9911566 0
vn -0.1087564 -0.9940684 0
vn -0.1087564 -0.9940684 0
vn -0.06471004 -0.9979042 0
vn -0.06471004 -0.9979042 0
vn -0.3826894 -0.9238771 0
vn -0.3826894 -0.9238771 0
vn -0.7071088 -0.7071047 0
vn -0.7071088 -0.7071047 0
vn -0.923879 -0.3826846 0
vn -0.923879 -0.3826846 0
vn -1 0 0
vn -1 0 0
vn -0.9238796 0.3826832 0
vn -0.9238796 0.3826832 0
vn -0.7071057 0.7071078 0
vn -0.7071057 0.7071078 0
vn -0.3826787 0.9238815 0
vn -0.3826787 0.9238815 0
vn -0.06470839 0.9979042 0
vn -0.06470839 0.9979042 0
vn -0.1087596 0.994068 0
vn -0.1087596 0.994068 0
vn -0.1327013 0.9911561 0
vn -0.1327013 0.9911561 0
vn 0 1 0
vn 0 1 0
vn 0 6.82421E-07 -1
vn 0 -7.737693E-05 -1
vn 0 1.50064E-06 -1
vn 0 8.739599E-07 -1
vn 0 1.64023E-06 -1
vn 0 0 -1
vn 0 0 -1
vn 0 -5.224639E-07 -1
vn 0 0 -1
vn 0 0 -1
vn 0 0 -1
vn 0 -7.038099E-07 -1
vn 0 0 -1
vn 0 -4.491234E-05 -1
vn 0 -4.491234E-05 -1
vn 0 3.868846E-05 1
vn 0 -8.79813E-07 1
vn 0 -1.761159E-06 1
vn 0 -1.761158E-06 1
vn 0 -8.798136E-07 1
vn 0 3.86879E-05 1
vn 0 1.175542E-06 1
vn 0 7.836949E-07 1
vn 0 3.695E-06 1
vn 0 -1.12281E-05 1
vn 0 -1.12281E-05 1
vn 0 3.167149E-06 1
vn 0 0 1
vn 0 -4.49126E-05 1
vn 0 -4.49126E-05 1
vn -0.1326976 0.9911566 0
vn 0 1 0
vn 0 1 0
vn -0.1326976 0.9911566 0
vn -0.1087564 0.9940684 0
vn -0.1087564 0.9940684 0
vn -0.06471004 0.9979042 0
vn -0.06471004 0.9979042 0
vn -0.3826894 0.9238771 0
vn -0.3826894 0.9238771 0
vn -0.7071088 0.7071047 0
vn -0.7071088 0.7071047 0
vn -0.923879 0.3826846 0
vn -0.923879 0.3826846 0
vn -1 0 0
vn -1 0 0
vn -0.9238796 -0.3826832 0
vn -0.9238796 -0.3826832 0
vn -0.7071057 -0.7071078 0
vn -0.7071057 -0.7071078 0
vn -0.3826787 -0.9238815 0
vn -0.3826787 -0.9238815 0
vn -0.06470839 -0.9979042 0
vn -0.06470839 -0.9979042 0
vn -0.1087596 -0.994068 0
vn -0.1087596 -0.994068 0
vn -0.1327013 -0.9911561 0
vn -0.1327013 -0.9911561 0
vn 0 -1 0
vn 0 -1 0
vn 0 -2.282631E-06 -1
vn 0 -3.015839E-06 -1
vn 0 0 -1
vn 0 -2.282632E-06 -1
vn 0 -3.015839E-06 -1
vn 0 0 -1
vn 0 -1.549017E-06 -1
vn 0 -1.026551E-06 -1
vn 0 -1.765651E-06 -1
vn 0 0 -1
vn 0 0 -1
vn 0 -1.061837E-06 -1
vn 0 0 -1
vn 0 4.491254E-05 -1
vn 0 4.491253E-05 -1
vn 0 0 1
vn 0 3.015838E-06 1
vn 0 2.188945E-06 1
vn 0 3.015838E-06 1
vn 0 2.188946E-06 1
vn 0 0 1
vn 0 0 1
vn 0 5.505541E-07 1
vn 0 -2.350105E-06 1
vn 0 0 1
vn 0 0 1
vn 0 -1.646302E-06 1
vn 0 0 1
vn 0 4.491254E-05 1
vn 0 4.491254E-05 1
vn -0.1326968 -0.9911567 0
vn 0 -1 0
vn 0 -1 0
vn -0.1326968 -0.9911567 0
vn -0.1087566 -0.9940684 0
vn -0.1087566 -0.9940684 0
vn -0.06471004 -0.9979042 0
vn -0.06471004 -0.9979042 0
vn -0.3826881 -0.9238776 0
vn -0.3826881 -0.9238776 0
vn -0.7071077 -0.7071058 0
vn -0.7071077 -0.7071058 0
vn -0.9238794 -0.3826837 0
vn -0.9238794 -0.3826837 0
vn -1 0 0
vn -1 0 0
vn -0.92388 0.3826824 0
vn -0.92388 0.3826824 0
vn -0.7071088 0.7071047 0
vn -0.7071088 0.7071047 0
vn -0.3826829 0.9238797 0
vn -0.3826829 0.9238797 0
vn -0.06470873 0.9979042 0
vn -0.06470873 0.9979042 0
vn -0.1087597 0.994068 0
vn -0.1087597 0.994068 0
vn -0.1327005 0.9911561 0
vn -0.1327005 0.9911561 0
vn 0 1 0
vn 0 1 0
vn 0 0 1
vn 0 0 1
vn 0 0 1
vn 0 0 1
vn 0 0 1
vn 0 0 1
vn 0 1.933789E-07 1
vn 0 1.933789E-07 1
vn 0 2.204234E-07 1
vn 0 0 1
vn 0 0 1
vn 0 2.204234E-07 1
vn 0 0 1
vn 0 0 1
vn 0 0 1
vn 0 0 -1
vn 0 0 -1
vn 0 0 -1
vn 0 0 -1
vn 0 0 -1
vn 0 0 -1
vn 0 0 -1
vn 0 2.826201E-07 -1
vn 0 0 -1
vn 0 0 -1
vn 0 0 -1
vn 0 3.762812E-07 -1
vn 0 0 -1
vn 0 2.245627E-05 -1
vn 0 2.245627E-05 -1
vn -0.1326968 0.9911567 0
vn 0 1 0
vn 0 1 0
vn -0.1326968 0.9911567 0
vn -0.1087566 0.9940684 0
vn -0.1087566 0.9940684 0
vn -0.06471004 0.9979042 0
vn -0.06471004 0.9979042 0
vn -0.3826881 0.9238776 0
vn -0.3826881 0.9238776 0
vn -0.7071077 0.7071058 0
vn -0.7071077 0.7071058 0
vn -0.9238794 0.3826837 0
vn -0.9238794 0.3826837 0
vn -1 0 0
vn -1 0 0
vn -0.92388 -0.3826824 0
vn -0.92388 -0.3826824 0
vn -0.7071088 -0.7071047 0
vn -0.7071088 -0.7071047 0
vn -0.3826829 -0.9238797 0
vn -0.3826829 -0.9238797 0
vn -0.06470873 -0.9979042 0
vn -0.06470873 -0.9979042 0
vn -0.1087597 -0.994068 0
vn -0.1087597 -0.994068 0
vn -0.1327005 -0.9911561 0
vn -0.1327005 -0.9911561 0
vn 0 -1 0
vn 0 -1 0
vn 0 0 1
vn 0 -1.934423E-05 1
vn 0 1.368332E-07 1
vn 0 1.393877E-07 1
vn 0 2.06629E-07 1
vn 0 1.934395E-05 1
vn 0 -2.612329E-07 1
vn 0 0 1
vn 0 -3.519031E-07 1
vn 0 -2.245633E-05 1
vn 0 -2.245633E-05 1
vn 0 0 1
vn 0 0 1
vn 0 0 1
vn 0 0 1
vn 0 0 -1
vn 0 0 -1
vn 0 0 -1
vn 0 0 -1
vn 0 0 -1
vn 0 0 -1
vn 0 0 -1
vn 0 -1.306161E-07 -1
vn 0 0 -1
vn 0 -5.614052E-06 -1
vn 0 -5.614052E-06 -1
vn 0 -1.759511E-07 -1
vn 0 0 -1
vn 0 -1.122815E-05 -1
vn 0 -1.122815E-05 -1
usemtl Light_Fixture
f 1/1/1 3/3/3 2/2/2 
f 1/1/1 4/4/4 3/3/3 
f 5/5/5 4/4/4 1/1/1 
f 5/5/5 6/6/6 4/4/4 
f 7/7/7 6/6/6 5/5/5 
f 7/7/7 8/8/8 6/6/6 
f 9/9/9 8/8/8 7/7/7 
f 9/9/9 7/7/7 10/10/10 
f 11/11/11 9/9/9 10/10/10 
f 11/11/11 10/10/10 12/12/12 
f 13/13/13 11/11/11 12/12/12 
f 13/13/13 12/12/12 14/14/14 
f 15/15/15 13/13/13 14/14/14 
f 15/15/15 14/14/14 16/16/16 
f 17/17/17 15/15/15 16/16/16 
f 17/17/17 16/16/16 18/18/18 
f 19/19/19 17/17/17 18/18/18 
f 19/19/19 18/18/18 20/20/20 
f 21/21/21 19/19/19 20/20/20 
f 21/21/21 20/20/20 22/22/22 
f 23/23/23 21/21/21 22/22/22 
f 23/23/23 22/22/22 24/24/24 
f 23/23/23 24/24/24 25/25/25 
f 23/23/23 25/25/25 26/26/26 
f 26/26/26 25/25/25 27/27/27 
f 26/26/26 27/27/27 28/28/28 
f 28/28/28 27/27/27 29/29/29 
f 28/28/28 29/29/29 30/30/30 
f 31/31/31 33/33/33 32/32/32 
f 34/34/34 33/33/33 31/31/31 
f 34/34/34 35/35/35 33/33/33 
f 36/36/36 35/35/35 34/34/34 
f 34/34/34 31/31/31 37/37/37 
f 34/34/34 37/37/37 38/38/38 
f 38/38/38 37/37/37 39/39/39 
f 39/39/39 37/37/37 40/40/40 
f 39/39/39 40/40/40 41/41/41 
f 38/38/38 39/39/39 42/42/42 
f 42/42/42 39/39/39 43/43/43 
f 38/38/38 42/42/42 44/44/44 
f 38/38/38 44/44/44 45/45/45 
f 46/46/46 48/48/48 47/47/47 
f 47/47/47 48/48/48 49/49/49 
f 47/47/47 49/49/49 50/50/50 
f 50/50/50 49/49/49 51/51/51 
f 47/47/47 50/50/50 52/52/52 
f 47/47/47 52/52/52 53/53/53 
f 53/53/53 52/52/52 54/54/54 
f 54/54/54 52/52/52 55/55/55 
f 54/54/54 55/55/55 56/56/56 
f 53/53/53 54/54/54 57/57/57 
f 57/57/57 54/54/54 58/58/58 
f 53/53/53 57/57/57 59/59/59 
f 53/53/53 59/59/59 60/60/60 
f 61/61/61 63/63/63 62/62/62 
f 61/61/61 62/62/62 64/64/64 
f 65/65/65 61/61/61 64/64/64 
f 65/65/65 64/64/64 66/66/66 
f 67/67/67 65/65/65 66/66/66 
f 67/67/67 66/66/66 68/68/68 
f 69/69/69 67/67/67 68/68/68 
f 69/69/69 70/70/70 67/67/67 
f 71/71/71 70/70/70 69/69/69 
f 71/71/71 72/72/72 70/70/70 
f 73/73/73 72/72/72 71/71/71 
f 73/73/73 74/74/74 72/72/72 
f 75/75/75 74/74/74 73/73/73 
f 75/75/75 76/76/76 74/74/74 
f 77/77/77 76/76/76 75/75/75 
f 77/77/77 78/78/78 76/76/76 
f 79/79/79 78/78/78 77/77/77 
f 79/79/79 80/80/80 78/78/78 
f 81/81/81 80/80/80 79/79/79 
f 81/81/81 82/82/82 80/80/80 
f 83/83/83 82/82/82 81/81/81 
f 83/83/83 84/84/84 82/82/82 
f 83/83/83 85/85/85 84/84/84 
f 83/83/83 86/86/86 85/85/85 
f 86/86/86 87/87/87 85/85/85 
f 86/86/86 88/88/88 87/87/87 
f 88/88/88 89/89/89 87/87/87 
f 88/88/88 90/90/90 89/89/89 
f 91/91/91 93/93/93 92/92/92 
f 94/94/94 91/91/91 92/92/92 
f 94/94/94 92/92/92 95/95/95 
f 96/96/96 94/94/94 95/95/95 
f 94/94/94 97/97/97 91/91/91 
f 94/94/94 98/98/98 97/97/97 
f 98/98/98 99/99/99 97/97/97 
f 99/99/99 100/100/100 97/97/97 
f 99/99/99 101/101/101 100/100/100 
f 98/98/98 102/102/102 99/99/99 
f 102/102/102 103/103/103 99/99/99 
f 98/98/98 104/104/104 102/102/102 
f 98/98/98 105/105/105 104/104/104 
f 106/106/106 108/108/108 107/107/107 
f 108/108/108 109/109/109 107/107/107 
f 108/108/108 110/110/110 109/109/109 
f 110/110/110 111/111/111 109/109/109 
f 108/108/108 112/112/112 110/110/110 
f 108/108/108 113/113/113 112/112/112 
f 113/113/113 114/114/114 112/112/112 
f 114/114/114 115/115/115 112/112/112 
f 114/114/114 116/116/116 115/115/115 
f 113/113/113 117/117/117 114/114/114 
f 117/117/117 118/118/118 114/114/114 
f 113/113/113 119/119/119 117/117/117 
f 113/113/113 120/120/120 119/119/119 
f 121/121/121 123/123/123 122/122/122 
f 121/121/121 122/122/122 124/124/124 
f 125/125/125 121/121/121 124/124/124 
f 125/125/125 124/124/124 126/126/126 
f 127/127/127 125/125/125 126/126/126 
f 127/127/127 126/126/126 128/128/128 
f 129/129/129 127/127/127 128/128/128 
f 129/129/129 130/130/130 127/127/127 
f 131/131/131 130/130/130 129/129/129 
f 131/131/131 132/132/132 130/130/130 
f 133/133/133 132/132/132 131/131/131 
f 133/133/133 134/134/134 132/132/132 
f 135/135/135 134/134/134 133/133/133 
f 135/135/135 136/136/136 134/134/134 
f 137/137/137 136/136/136 135/135/135 
f 137/137/137 138/138/138 136/136/136 
f 139/139/139 138/138/138 137/137/137 
f 139/139/139 140/140/140 138/138/138 
f 141/141/141 140/140/140 139/139/139 
f 141/141/141 142/142/142 140/140/140 
f 143/143/143 142/142/142 141/141/141 
f 143/143/143 144/144/144 142/142/142 
f 143/143/143 145/145/145 144/144/144 
f 143/143/143 146/146/146 145/145/145 
f 146/146/146 147/147/147 145/145/145 
f 146/146/146 148/148/148 147/147/147 
f 148/148/148 149/149/149 147/147/147 
f 148/148/148 150/150/150 149/149/149 
f 151/151/151 153/153/153 152/152/152 
f 154/154/154 151/151/151 152/152/152 
f 154/154/154 152/152/152 155/155/155 
f 156/156/156 154/154/154 155/155/155 
f 154/154/154 157/157/157 151/151/151 
f 154/154/154 158/158/158 157/157/157 
f 158/158/158 159/159/159 157/157/157 
f 159/159/159 160/160/160 157/157/157 
f 159/159/159 161/161/161 160/160/160 
f 158/158/158 162/162/162 159/159/159 
f 162/162/162 163/163/163 159/159/159 
f 158/158/158 164/164/164 162/162/162 
f 158/158/158 165/165/165 164/164/164 
f 166/166/166 168/168/168 167/167/167 
f 168/168/168 169/169/169 167/167/167 
f 168/168/168 170/170/170 169/169/169 
f 170/170/170 171/171/171 169/169/169 
f 168/168/168 172/172/172 170/170/170 
f 168/168/168 173/173/173 172/172/172 
f 173/173/173 174/174/174 172/172/172 
f 174/174/174 175/175/175 172/172/172 
f 174/174/174 176/176/176 175/175/175 
f 173/173/173 177/177/177 174/174/174 
f 177/177/177 178/178/178 174/174/174 
f 173/173/173 179/179/179 177/177/177 
f 173/173/173 180/180/180 179/179/179 
f 181/181/181 183/183/183 182/182/182 
f 181/181/181 184/184/184 183/183/183 
f 185/185/185 184/184/184 181/181/181 
f 185/185/185 186/186/186 184/184/184 
f 187/187/187 186/186/186 185/185/185 
f 187/187/187 188/188/188 186/186/186 
f 189/189/189 188/188/188 187/187/187 
f 189/189/189 187/187/187 190/190/190 
f 191/191/191 189/189/189 190/190/190 
f 191/191/191 190/190/190 192/192/192 
f 193/193/193 191/191/191 192/192/192 
f 193/193/193 192/192/192 194/194/194 
f 195/195/195 193/193/193 194/194/194 
f 195/195/195 194/194/194 196/196/196 
f 197/197/197 195/195/195 196/196/196 
f 197/197/197 196/196/196 198/198/198 
f 199/199/199 197/197/197 198/198/198 
f 199/199/199 198/198/198 200/200/200 
f 201/201/201 199/199/199 200/200/200 
f 201/201/201 200/200/200 202/202/202 
f 203/203/203 201/201/201 202/202/202 
f 203/203/203 202/202/202 204/204/204 
f 203/203/203 204/204/204 205/205/205 
f 203/203/203 205/205/205 206/206/206 
f 206/206/206 205/205/205 207/207/207 
f 206/206/206 207/207/207 208/208/208 
f 208/208/208 207/207/207 209/209/209 
f 208/208/208 209/209/209 210/210/210 
f 211/211/211 213/213/213 212/212/212 
f 214/214/214 213/213/213 211/211/211 
f 214/214/214 215/215/215 213/213/213 
f 216/216/216 215/215/215 214/214/214 
f 214/214/214 211/211/211 217/217/217 
f 214/214/214 217/217/217 218/218/218 
f 218/218/218 217/217/217 219/219/219 
f 219/219/219 217/217/217 220/220/220 
f 219/219/219 220/220/220 221/221/221 
f 218/218/218 219/219/219 222/222/222 
f 222/222/222 219/219/219 223/223/223 
f 218/218/218 222/222/222 224/224/224 
f 218/218/218 224/224/224 225/225/225 
f 226/226/226 228/228/228 227/227/227 
f 227/227/227 228/228/228 229/229/229 
f 227/227/227 229/229/229 230/230/230 
f 230/230/230 229/229/229 231/231/231 
f 227/227/227 230/230/230 232/232/232 
f 227/227/227 232/232/232 233/233/233 
f 233/233/233 232/232/232 234/234/234 
f 234/234/234 232/232/232 235/235/235 
f 234/234/234 235/235/235 236/236/236 
f 233/233/233 234/234/234 237/237/237 
f 237/237/237 234/234/234 238/238/238 
f 233/233/233 237/237/237 239/239/239 
f 233/233/233 239/239/239 240/240/240 
