# exported by StudySceneExporter from mesh 'Light_Fixture_Ends_low'
mtllib materials.mtl
v -5.249023E-05 0.1010558 0.4500977
v 0.0004794312 0.1010558 0.4513818
v -0.009987984 0.1010558 0.4568542
v 0.001763534 0.1010558 0.4519137
v -0.009987984 0.1010558 0.4568542
v 0.00777813 0.1010558 0.4568542
v 0.00777813 0.1010558 0.455332
v 0.003047714 0.1010558 0.4513818
v 0.008310013 0.1010558 0.4540478
v 0.00777813 0.1010558 0.455332
v 0.01384392 -0.1000681 0.4566542
v 0.02260082 -0.09691948 0.4566542
v 0.008171921 -0.1000681 0.4566542
v -0.009987984 0.1008558 -0.4566542
v 0.00777813 0.1008558 -0.4566542
v 0.00777813 0.1004619 -0.4566542
v 0.01867016 -0.1008558 -0.4566542
v 0.01423771 -0.1004619 -0.4566542
v 0.01384392 -0.1000681 -0.4566542
v 0.01867016 -0.1008558 -0.4566542
v 0.01423771 -0.1008558 -0.4566542
v 0.01423771 -0.1004619 -0.4566542
v -0.009987984 0.1008558 -0.4566542
v 0.00777813 0.1004619 -0.4566542
v 0.008171921 0.1000681 -0.4566542
v 0.008171921 0.1000681 -0.4566542
v 0.01384392 0.1000681 -0.4566542
v 0.02260082 0.09691944 -0.4566542
v 0.02260082 0.1010558 0.4568542
v 0.01867016 0.1010558 0.4568542
v 0.01867016 0.1008558 0.4566542
v 0.02260082 0.1010558 0.4566543
v -0.02260082 0.1010558 0.4568542
v -0.02260082 -0.1010558 0.4568542
v -0.02259937 -0.1010558 0.4566543
v -0.02259937 0.1010558 0.4566543
v -0.009987984 0.1010558 0.4568542
v -0.02260082 0.1010558 0.4568542
v -0.02259937 0.1010558 0.4566543
v -0.009987984 0.1008558 0.4566542
v 0.01423771 0.1010558 0.4568542
v 0.01423771 0.1004619 0.4568542
v 0.01423771 0.1004619 0.4566542
v 0.01423771 0.1008558 0.4566542
v 0.01423771 0.1010558 0.455332
v 0.01423771 0.1008558 0.455332
v 0.01384392 0.1000681 0.4566542
v 0.01384392 0.1000681 0.4568542
v 0.008171921 0.1000681 0.4568542
v 0.008171921 0.1000681 0.4566542
v 0.00777813 0.1004619 0.4568542
v 0.00777813 0.1008558 0.4566542
v 0.00777813 0.1004619 0.4566542
v 0.00777813 0.1010558 0.4568542
v 0.00777813 0.1008558 0.455332
v 0.00777813 0.1010558 0.455332
v 0.00777813 0.1010558 0.455332
v 0.008310013 0.1010558 0.4540478
v 0.008310013 0.1008558 0.4540478
v 0.00777813 0.1008558 0.455332
v 0.008310013 0.1010558 0.4540478
v 0.009594193 0.1010558 0.4535159
v 0.009594193 0.1008558 0.4535159
v 0.008310013 0.1008558 0.4540478
v 0.009594193 0.1010558 0.4535159
v 0.01242168 0.1010558 0.4535159
v 0.01242168 0.1008558 0.4535159
v 0.009594193 0.1008558 0.4535159
v 0.01242168 0.1010558 0.4535159
v 0.01370579 0.1010558 0.4540478
v 0.01370579 0.1008558 0.4540478
v 0.01242168 0.1008558 0.4535159
v 0.01370579 0.1010558 0.4540478
v 0.01423771 0.1010558 0.455332
v 0.01423771 0.1008558 0.455332
v 0.01370579 0.1008558 0.4540478
v 0.01867016 0.1010558 0.4568542
v 0.01867016 0.1010558 0.4467114
v 0.01867016 0.1008558 0.4467114
v 0.01867016 0.1008558 0.4566542
v 0.01867016 0.1010558 0.4467114
v 0.003579597 0.1010558 0.4467114
v 0.003579597 0.1008558 0.4467114
v 0.01867016 0.1008558 0.4467114
v 0.003579597 0.1010558 0.4467114
v 0.003579597 0.1010558 0.4500977
v 0.003579597 0.1008558 0.4500977
v 0.003579597 0.1008558 0.4467114
v 0.003579597 0.1010558 0.4500977
v 0.003047714 0.1010558 0.4513818
v 0.003047714 0.1008558 0.4513818
v 0.003579597 0.1008558 0.4500977
v 0.003047714 0.1010558 0.4513818
v 0.001763534 0.1010558 0.4519137
v 0.001763534 0.1008558 0.4519137
v 0.003047714 0.1008558 0.4513818
v 0.001763534 0.1010558 0.4519137
v 0.0004794312 0.1010558 0.4513818
v 0.0004794312 0.1008558 0.4513818
v 0.001763534 0.1008558 0.4519137
v 0.0004794312 0.1010558 0.4513818
v -5.249023E-05 0.1010558 0.4500977
v -5.249023E-05 0.1008558 0.4500977
v 0.0004794312 0.1008558 0.4513818
v -5.249023E-05 0.1010558 0.4500977
v -5.249023E-05 0.1010558 0.4467114
v -5.249023E-05 0.1008558 0.4467114
v -5.249023E-05 0.1008558 0.4500977
v -5.249023E-05 0.1010558 0.4467114
v -0.009987984 0.1010558 0.4467114
v -0.009987984 0.1008558 0.4467114
v -5.249023E-05 0.1008558 0.4467114
v -0.009987984 0.1010558 0.4467114
v -0.009987984 0.1010558 0.4568542
v -0.009987984 0.1008558 0.4566542
v -0.009987984 0.1008558 0.4467114
v 0.01384392 0.1000681 0.4566542
v 0.01423771 0.1004619 0.4566542
v 0.01423771 0.1004619 0.4568542
v 0.01384392 0.1000681 0.4568542
v 0.00777813 0.1004619 0.4566542
v 0.008171921 0.1000681 0.4566542
v 0.008171921 0.1000681 0.4568542
v 0.00777813 0.1004619 0.4568542
v 0.02260082 0.1010558 0.4568542
v 0.02260082 -0.1010558 0.4568542
v 0.01867016 -0.1010558 0.4568542
v 0.01867016 0.1010558 0.4568542
v -0.009987984 0.1010558 0.4568542
v -0.009987984 -0.1010558 0.4568542
v -0.02260082 -0.1010558 0.4568542
v -0.02260082 0.1010558 0.4568542
v 0.01867016 0.1010558 0.4568542
v 0.01423771 0.1004619 0.4568542
v 0.01423771 0.1010558 0.4568542
v 0.01384392 0.1000681 0.4568542
v 0.008171921 -0.1000681 0.4568542
v 0.01384392 0.1000681 0.4568542
v 0.008171921 0.1000681 0.4568542
v 0.01384392 -0.1000681 0.4568542
v 0.01867016 -0.1010558 0.4568542
v 0.01423771 -0.1004619 0.4568542
v 0.01423771 -0.1010558 0.4568542
v -0.009987984 0.1010558 0.4568542
v 0.00777813 0.1004619 0.4568542
v 0.00777813 0.1010558 0.4568542
v -0.009987984 -0.1010558 0.4568542
v 0.00777813 -0.1004619 0.4568542
v 0.00777813 -0.1010558 0.4568542
v -0.009987984 0.1008558 0.4566542
v 0.00777813 0.1004619 0.4566542
v 0.00777813 0.1008558 0.4566542
v 0.008171921 0.1000681 0.4566542
v 0.02260082 0.09691944 0.4566542
v -0.01441723 0.09691948 0.4566543
v -0.02259937 0.1010558 0.4566543
v 0.01867016 0.1008558 0.4566542
v 0.02260082 0.1010558 0.4566543
v 0.01384392 0.1000681 0.4566542
v 0.02260082 0.09691944 0.4566542
v 0.008171921 0.1000681 0.4566542
v 0.01423771 0.1008558 0.455332
v 0.01423771 0.1008558 0.4566542
v 0.01867016 0.1008558 0.4566542
v 0.01370579 0.1008558 0.4540478
v 0.01867016 0.1008558 0.4467114
v 0.01242168 0.1008558 0.4535159
v 0.003579597 0.1008558 0.4467114
v 0.009594193 0.1008558 0.4535159
v 0.003579597 0.1008558 0.4500977
v 0.008310013 0.1008558 0.4540478
v 0.003047714 0.1008558 0.4513818
v 0.00777813 0.1008558 0.455332
v 0.001763534 0.1008558 0.4519137
v 0.00777813 0.1008558 0.4566542
v 0.0004794312 0.1008558 0.4513818
v -0.009987984 0.1008558 0.4566542
v -5.249023E-05 0.1008558 0.4500977
v -5.249023E-05 0.1008558 0.4467114
v -0.009987984 0.1008558 0.4467114
v 0.02260082 0.1010558 0.4566543
v 0.02260082 -0.1010558 0.4566543
v 0.02260082 -0.1010558 0.4568542
v 0.02260082 0.1010558 0.4568542
v 0.003047714 0.1010558 0.4513818
v 0.003579597 0.1010558 0.4500977
v 0.009594193 0.1010558 0.4535159
v 0.008310013 0.1010558 0.4540478
v 0.003579597 0.1010558 0.4500977
v 0.01242168 0.1010558 0.4535159
v 0.003579597 0.1010558 0.4467114
v 0.003579597 0.1010558 0.4467114
v 0.01867016 0.1010558 0.4467114
v 0.01370579 0.1010558 0.4540478
v 0.01242168 0.1010558 0.4535159
v 0.01867016 0.1010558 0.4467114
v 0.01423771 0.1010558 0.455332
v 0.01370579 0.1010558 0.4540478
v 0.01867016 0.1010558 0.4568542
v 0.01423771 0.1010558 0.4568542
v -0.009987984 0.1010558 0.4467114
v -5.249023E-05 0.1010558 0.4467114
v -5.249023E-05 0.1010558 0.4500977
v -0.009987984 0.1010558 0.4568542
v 0.01867016 0.1008558 0.4566542
v 0.01423771 0.1004619 0.4566542
v 0.01384392 0.1000681 0.4566542
v 0.01423771 0.1008558 0.4566542
v 0.02260082 -0.1010558 0.4568542
v 0.02260082 -0.1010558 0.4566543
v 0.01867016 -0.1008558 0.4566542
v 0.01867016 -0.1010558 0.4568542
v -0.009987984 -0.1010558 0.4568542
v -0.009987984 -0.1008558 0.4566542
v -0.02259937 -0.1010558 0.4566543
v -0.02260082 -0.1010558 0.4568542
v 0.01423771 -0.1010558 0.4568542
v 0.01423771 -0.1004619 0.4566542
v 0.01423771 -0.1004619 0.4568542
v 0.01423771 -0.1008558 0.4566542
v 0.01423771 -0.1010558 0.455332
v 0.01423771 -0.1008558 0.455332
v 0.01423771 -0.1010558 0.4568542
v 0.01384392 -0.1000681 0.4566542
v 0.008171921 -0.1000681 0.4566542
v 0.008171921 -0.1000681 0.4568542
v 0.01384392 -0.1000681 0.4568542
v 0.00777813 -0.1004619 0.4568542
v 0.00777813 -0.1004619 0.4566542
v 0.00777813 -0.1008558 0.4566542
v 0.00777813 -0.1010558 0.4568542
v 0.00777813 -0.1010558 0.4568542
v 0.00777813 -0.1008558 0.455332
v 0.00777813 -0.1010558 0.455332
v 0.00777813 -0.1010558 0.455332
v 0.00777813 -0.1008558 0.455332
v 0.008310013 -0.1008558 0.4540478
v 0.008310013 -0.1010558 0.4540478
v 0.008310013 -0.1010558 0.4540478
v 0.008310013 -0.1008558 0.4540478
v 0.009594193 -0.1008558 0.4535159
v 0.009594193 -0.1010558 0.4535159
v 0.009594193 -0.1010558 0.4535159
v 0.009594193 -0.1008558 0.4535159
v 0.01242168 -0.1008558 0.4535159
v 0.01242168 -0.1010558 0.4535159
v 0.01242168 -0.1010558 0.4535159
v 0.01242168 -0.1008558 0.4535159
v 0.01370579 -0.1008558 0.4540478
v 0.01370579 -0.1010558 0.4540478
v 0.01370579 -0.1010558 0.4540478
v 0.01370579 -0.1008558 0.4540478
v 0.01423771 -0.1008558 0.455332
v 0.01423771 -0.1010558 0.455332
v 0.01867016 -0.1010558 0.4568542
v 0.01867016 -0.1008558 0.4566542
v 0.01867016 -0.1008558 0.4467114
v 0.01867016 -0.1010558 0.4467114
v 0.01867016 -0.1010558 0.4467114
v 0.01867016 -0.1008558 0.4467114
v 0.003579597 -0.1008558 0.4467114
v 0.003579597 -0.1010558 0.4467114
v 0.003579597 -0.1010558 0.4467114
v 0.003579597 -0.1008558 0.4467114
v 0.003579597 -0.1008558 0.4500977
v 0.003579597 -0.1010558 0.4500977
v 0.003579597 -0.1010558 0.4500977
v 0.003579597 -0.1008558 0.4500977
v 0.003047714 -0.1008558 0.4513818
v 0.003047714 -0.1010558 0.4513818
v 0.003047714 -0.1010558 0.4513818
v 0.003047714 -0.1008558 0.4513818
v 0.001763534 -0.1008558 0.4519137
v 0.001763534 -0.1010558 0.4519137
v 0.001763534 -0.1010558 0.4519137
v 0.001763534 -0.1008558 0.4519137
v 0.0004794312 -0.1008558 0.4513818
v 0.0004794312 -0.1010558 0.4513818
v 0.0004794312 -0.1010558 0.4513818
v 0.0004794312 -0.1008558 0.4513818
v -5.249023E-05 -0.1008558 0.4500977
v -5.249023E-05 -0.1010558 0.4500977
v -5.249023E-05 -0.1010558 0.4500977
v -5.249023E-05 -0.1008558 0.4500977
v -5.249023E-05 -0.1008558 0.4467114
v -5.249023E-05 -0.1010558 0.4467114
v -5.249023E-05 -0.1010558 0.4467114
v -5.249023E-05 -0.1008558 0.4467114
v -0.009987984 -0.1008558 0.4467114
v -0.009987984 -0.1010558 0.4467114
v -0.009987984 -0.1010558 0.4467114
v -0.009987984 -0.1008558 0.4467114
v -0.009987984 -0.1008558 0.4566542
v -0.009987984 -0.1010558 0.4568542
v 0.01384392 -0.1000681 0.4566542
v 0.01384392 -0.1000681 0.4568542
v 0.01423771 -0.1004619 0.4568542
v 0.01423771 -0.1004619 0.4566542
v 0.00777813 -0.1004619 0.4566542
v 0.00777813 -0.1004619 0.4568542
v 0.008171921 -0.1000681 0.4568542
v 0.008171921 -0.1000681 0.4566542
v 0.01423771 -0.1008558 0.455332
v 0.01867016 -0.1008558 0.4566542
v 0.01423771 -0.1008558 0.4566542
v 0.01370579 -0.1008558 0.4540478
v 0.01867016 -0.1008558 0.4467114
v 0.01242168 -0.1008558 0.4535159
v 0.003579597 -0.1008558 0.4467114
v 0.009594193 -0.1008558 0.4535159
v 0.003579597 -0.1008558 0.4500977
v 0.008310013 -0.1008558 0.4540478
v 0.003047714 -0.1008558 0.4513818
v 0.00777813 -0.1008558 0.455332
v 0.001763534 -0.1008558 0.4519137
v 0.00777813 -0.1008558 0.4566542
v 0.0004794312 -0.1008558 0.4513818
v -0.009987984 -0.1008558 0.4566542
v -5.249023E-05 -0.1008558 0.4500977
v -5.249023E-05 -0.1008558 0.4467114
v -0.009987984 -0.1008558 0.4467114
v 0.003047714 -0.1010558 0.4513818
v 0.009594193 -0.1010558 0.4535159
v 0.003579597 -0.1010558 0.4500977
v 0.008310013 -0.1010558 0.4540478
v 0.001763534 -0.1010558 0.4519137
v 0.00777813 -0.1010558 0.455332
v 0.00777813 -0.1010558 0.4568542
v -0.009987984 -0.1010558 0.4568542
v 0.0004794312 -0.1010558 0.4513818
v -5.249023E-05 -0.1010558 0.4500977
v -0.009987984 -0.1010558 0.4467114
v -5.249023E-05 -0.1010558 0.4467114
v 0.003579597 -0.1010558 0.4500977
v 0.01242168 -0.1010558 0.4535159
v 0.003579597 -0.1010558 0.4467114
v 0.003579597 -0.1010558 0.4467114
v 0.01242168 -0.1010558 0.4535159
v 0.01370579 -0.1010558 0.4540478
v 0.01867016 -0.1010558 0.4467114
v 0.01867016 -0.1010558 0.4467114
v 0.01423771 -0.1010558 0.455332
v 0.01867016 -0.1010558 0.4568542
v 0.01423771 -0.1010558 0.4568542
v 0.01867016 -0.1008558 0.4566542
v 0.01423771 -0.1004619 0.4566542
v 0.01423771 -0.1008558 0.4566542
v 0.01384392 -0.1000681 0.4566542
v 0.02260082 -0.09691948 0.4566542
v 0.02260082 -0.1010558 0.4566543
v 0.008171921 -0.1000681 0.4566542
v -0.01441723 -0.09691944 0.4566543
v -0.009987984 -0.1008558 0.4566542
v -0.02259937 -0.1010558 0.4566543
v -0.009987984 -0.1008558 0.4566542
v 0.00777813 -0.1004619 0.4566542
v 0.008171921 -0.1000681 0.4566542
v 0.00777813 -0.1008558 0.4566542
v -0.02259937 -0.1010558 0.4566543
v -0.01441723 -0.09691944 0.4566543
v -0.01441723 0.09691948 0.4566543
v -0.02259937 0.1010558 0.4566543
v 0.02260082 0.1010558 -0.4568542
v 0.02260082 0.1010558 -0.4566543
v 0.01867016 0.1008558 -0.4566542
v 0.01867016 0.1010558 -0.4568542
v -0.02260082 0.1010558 -0.4568542
v -0.02259937 0.1010558 -0.4566543
v -0.02259937 -0.1010558 -0.4566543
v -0.02260082 -0.1010558 -0.4568542
v -0.009987984 0.1010558 -0.4568542
v -0.009987984 0.1008558 -0.4566542
v -0.02259937 0.1010558 -0.4566543
v -0.02260082 0.1010558 -0.4568542
v 0.01423771 0.1010558 -0.4568542
v 0.01423771 0.1004619 -0.4566542
v 0.01423771 0.1004619 -0.4568542
v 0.01423771 0.1008558 -0.4566542
v 0.01423771 0.1010558 -0.455332
v 0.01423771 0.1008558 -0.455332
v 0.01423771 0.1010558 -0.4568542
v 0.01384392 0.1000681 -0.4566542
v 0.008171921 0.1000681 -0.4566542
v 0.008171921 0.1000681 -0.4568542
v 0.01384392 0.1000681 -0.4568542
v 0.00777813 0.1004619 -0.4568542
v 0.00777813 0.1004619 -0.4566542
v 0.00777813 0.1008558 -0.4566542
v 0.00777813 0.1010558 -0.4568542
v 0.00777813 0.1010558 -0.4568542
v 0.00777813 0.1008558 -0.455332
v 0.00777813 0.1010558 -0.455332
v 0.00777813 0.1010558 -0.455332
v 0.00777813 0.1008558 -0.455332
v 0.008310013 0.1008558 -0.4540478
v 0.008310013 0.1010558 -0.4540478
v 0.008310013 0.1010558 -0.4540478
v 0.008310013 0.1008558 -0.4540478
v 0.009594193 0.1008558 -0.4535159
v 0.009594193 0.1010558 -0.4535159
v 0.009594193 0.1010558 -0.4535159
v 0.009594193 0.1008558 -0.4535159
v 0.01242168 0.1008558 -0.4535159
v 0.01242168 0.1010558 -0.4535159
v 0.01242168 0.1010558 -0.4535159
v 0.01242168 0.1008558 -0.4535159
v 0.01370579 0.1008558 -0.4540478
v 0.01370579 0.1010558 -0.4540478
v 0.01370579 0.1010558 -0.4540478
v 0.01370579 0.1008558 -0.4540478
v 0.01423771 0.1008558 -0.455332
v 0.01423771 0.1010558 -0.455332
v 0.01867016 0.1010558 -0.4568542
v 0.01867016 0.1008558 -0.4566542
v 0.01867016 0.1008558 -0.4467114
v 0.01867016 0.1010558 -0.4467114
v 0.01867016 0.1010558 -0.4467114
v 0.01867016 0.1008558 -0.4467114
v 0.003579597 0.1008558 -0.4467114
v 0.003579597 0.1010558 -0.4467114
v 0.003579597 0.1010558 -0.4467114
v 0.003579597 0.1008558 -0.4467114
v 0.003579597 0.1008558 -0.4500977
v 0.003579597 0.1010558 -0.4500977
v 0.003579597 0.1010558 -0.4500977
v 0.003579597 0.1008558 -0.4500977
v 0.003047714 0.1008558 -0.4513818
v 0.003047714 0.1010558 -0.4513818
v 0.003047714 0.1010558 -0.4513818
v 0.003047714 0.1008558 -0.4513818
v 0.001763534 0.1008558 -0.4519137
v 0.001763534 0.1010558 -0.4519137
v 0.001763534 0.1010558 -0.4519137
v 0.001763534 0.1008558 -0.4519137
v 0.0004794312 0.1008558 -0.4513818
v 0.0004794312 0.1010558 -0.4513818
v 0.0004794312 0.1010558 -0.4513818
v 0.0004794312 0.1008558 -0.4513818
v -5.249023E-05 0.1008558 -0.4500977
v -5.249023E-05 0.1010558 -0.4500977
v -5.249023E-05 0.1010558 -0.4500977
v -5.249023E-05 0.1008558 -0.4500977
v -5.249023E-05 0.1008558 -0.4467114
v -5.249023E-05 0.1010558 -0.4467114
v -5.249023E-05 0.1010558 -0.4467114
v -5.249023E-05 0.1008558 -0.4467114
v -0.009987984 0.1008558 -0.4467114
v -0.009987984 0.1010558 -0.4467114
v -0.009987984 0.1010558 -0.4467114
v -0.009987984 0.1008558 -0.4467114
v -0.009987984 0.1008558 -0.4566542
v -0.009987984 0.1010558 -0.4568542
v 0.01384392 0.1000681 -0.4566542
v 0.01384392 0.1000681 -0.4568542
v 0.01423771 0.1004619 -0.4568542
v 0.01423771 0.1004619 -0.4566542
v 0.00777813 0.1004619 -0.4566542
v 0.00777813 0.1004619 -0.4568542
v 0.008171921 0.1000681 -0.4568542
v 0.008171921 0.1000681 -0.4566542
v 0.02260082 0.1010558 -0.4568542
v 0.01867016 0.1010558 -0.4568542
v 0.01867016 -0.1010558 -0.4568542
v 0.02260082 -0.1010558 -0.4568542
v -0.009987984 0.1010558 -0.4568542
v -0.02260082 0.1010558 -0.4568542
v -0.02260082 -0.1010558 -0.4568542
v -0.009987984 -0.1010558 -0.4568542
v 0.01867016 0.1010558 -0.4568542
v 0.01423771 0.1010558 -0.4568542
v 0.01423771 0.1004619 -0.4568542
v 0.01384392 0.1000681 -0.4568542
v 0.01384392 -0.1000681 -0.4568542
v 0.01867016 -0.1010558 -0.4568542
v 0.008171921 0.1000681 -0.4568542
v -0.009987984 0.1010558 -0.4568542
v 0.00777813 0.1004619 -0.4568542
v 0.00777813 0.1010558 -0.4568542
v 0.008171921 -0.1000681 -0.4568542
v -0.009987984 -0.1010558 -0.4568542
v 0.00777813 -0.1004619 -0.4568542
v 0.00777813 -0.1010558 -0.4568542
v 0.01423771 -0.1004619 -0.4568542
v 0.01423771 -0.1010558 -0.4568542
v 0.01384392 -0.1000681 -0.4568542
v 0.001763534 0.1010558 -0.4519137
v 0.00777813 0.1010558 -0.4568542
v 0.00777813 0.1010558 -0.455332
v -0.009987984 0.1010558 -0.4568542
v 0.0004794312 0.1010558 -0.4513818
v -5.249023E-05 0.1010558 -0.4500977
v 0.00777813 0.1010558 -0.455332
v 0.008310013 0.1010558 -0.4540478
v 0.003047714 0.1010558 -0.4513818
v 0.009594193 0.1010558 -0.4535159
v 0.003579597 0.1010558 -0.4500977
v 0.003579597 0.1010558 -0.4500977
v 0.01242168 0.1010558 -0.4535159
v 0.003579597 0.1010558 -0.4467114
v 0.003579597 0.1010558 -0.4467114
v 0.01370579 0.1010558 -0.4540478
v 0.01867016 0.1010558 -0.4467114
v 0.01423771 0.1010558 -0.455332
v 0.01867016 0.1010558 -0.4568542
v 0.01423771 0.1010558 -0.4568542
v 0.01423771 0.1008558 -0.455332
v 0.01867016 0.1008558 -0.4566542
v 0.01423771 0.1008558 -0.4566542
v 0.01370579 0.1008558 -0.4540478
v 0.01867016 0.1008558 -0.4467114
v 0.01242168 0.1008558 -0.4535159
v 0.003579597 0.1008558 -0.4467114
v 0.009594193 0.1008558 -0.4535159
v 0.003579597 0.1008558 -0.4500977
v 0.008310013 0.1008558 -0.4540478
v 0.003047714 0.1008558 -0.4513818
v 0.00777813 0.1008558 -0.455332
v 0.001763534 0.1008558 -0.4519137
v 0.00777813 0.1008558 -0.4566542
v 0.0004794312 0.1008558 -0.4513818
v -0.009987984 0.1008558 -0.4566542
v -5.249023E-05 0.1008558 -0.4500977
v -5.249023E-05 0.1008558 -0.4467114
v -0.009987984 0.1008558 -0.4467114
v 0.02260082 0.1010558 -0.4566543
v 0.02260082 0.1010558 -0.4568542
v 0.02260082 -0.1010558 -0.4568542
v 0.02260082 -0.1010558 -0.4566543
v -0.009987984 0.1010558 -0.4467114
v -0.009987984 0.1010558 -0.4568542
v -5.249023E-05 0.1010558 -0.4500977
v -5.249023E-05 0.1010558 -0.4467114
v 0.01867016 0.1008558 -0.4566542
v 0.01423771 0.1004619 -0.4566542
v 0.01423771 0.1008558 -0.4566542
v 0.01384392 0.1000681 -0.4566542
v 0.02260082 0.09691944 -0.4566542
v 0.02260082 0.1010558 -0.4566543
v -0.009987984 0.1008558 -0.4566542
v 0.008171921 0.1000681 -0.4566542
v -0.01441723 0.09691948 -0.4566543
v -0.02259937 0.1010558 -0.4566543
v 0.02260082 -0.1010558 -0.4568542
v 0.01867016 -0.1010558 -0.4568542
v 0.01867016 -0.1008558 -0.4566542
v 0.02260082 -0.1010558 -0.4566543
v -0.009987984 -0.1010558 -0.4568542
v -0.02260082 -0.1010558 -0.4568542
v -0.02259937 -0.1010558 -0.4566543
v -0.009987984 -0.1008558 -0.4566542
v 0.01423771 -0.1010558 -0.4568542
v 0.01423771 -0.1004619 -0.4568542
v 0.01423771 -0.1004619 -0.4566542
v 0.01423771 -0.1008558 -0.4566542
v 0.01423771 -0.1010558 -0.455332
v 0.01423771 -0.1008558 -0.455332
v 0.01384392 -0.1000681 -0.4566542
v 0.01384392 -0.1000681 -0.4568542
v 0.008171921 -0.1000681 -0.4568542
v 0.008171921 -0.1000681 -0.4566542
v 0.00777813 -0.1004619 -0.4568542
v 0.00777813 -0.1008558 -0.4566542
v 0.00777813 -0.1004619 -0.4566542
v 0.00777813 -0.1010558 -0.4568542
v 0.00777813 -0.1008558 -0.455332
v 0.00777813 -0.1010558 -0.455332
v 0.00777813 -0.1010558 -0.455332
v 0.008310013 -0.1010558 -0.4540478
v 0.008310013 -0.1008558 -0.4540478
v 0.00777813 -0.1008558 -0.455332
v 0.008310013 -0.1010558 -0.4540478
v 0.009594193 -0.1010558 -0.4535159
v 0.009594193 -0.1008558 -0.4535159
v 0.008310013 -0.1008558 -0.4540478
v 0.009594193 -0.1010558 -0.4535159
v 0.01242168 -0.1010558 -0.4535159
v 0.01242168 -0.1008558 -0.4535159
v 0.009594193 -0.1008558 -0.4535159
v 0.01242168 -0.1010558 -0.4535159
v 0.01370579 -0.1010558 -0.4540478
v 0.01370579 -0.1008558 -0.4540478
v 0.01242168 -0.1008558 -0.4535159
v 0.01370579 -0.1010558 -0.4540478
v 0.01423771 -0.1010558 -0.455332
v 0.01423771 -0.1008558 -0.455332
v 0.01370579 -0.1008558 -0.4540478
v 0.01867016 -0.1010558 -0.4568542
v 0.01867016 -0.1010558 -0.4467114
v 0.01867016 -0.1008558 -0.4467114
v 0.01867016 -0.1008558 -0.4566542
v 0.01867016 -0.1010558 -0.4467114
v 0.003579597 -0.1010558 -0.4467114
v 0.003579597 -0.1008558 -0.4467114
v 0.01867016 -0.1008558 -0.4467114
v 0.003579597 -0.1010558 -0.4467114
v 0.003579597 -0.1010558 -0.4500977
v 0.003579597 -0.1008558 -0.4500977
v 0.003579597 -0.1008558 -0.4467114
v 0.003579597 -0.1010558 -0.4500977
v 0.003047714 -0.1010558 -0.4513818
v 0.003047714 -0.1008558 -0.4513818
v 0.003579597 -0.1008558 -0.4500977
v 0.003047714 -0.1010558 -0.4513818
v 0.001763534 -0.1010558 -0.4519137
v 0.001763534 -0.1008558 -0.4519137
v 0.003047714 -0.1008558 -0.4513818
v 0.001763534 -0.1010558 -0.4519137
v 0.0004794312 -0.1010558 -0.4513818
v 0.0004794312 -0.1008558 -0.4513818
v 0.001763534 -0.1008558 -0.4519137
v 0.0004794312 -0.1010558 -0.4513818
v -5.249023E-05 -0.1010558 -0.4500977
v -5.249023E-05 -0.1008558 -0.4500977
v 0.0004794312 -0.1008558 -0.4513818
v -5.249023E-05 -0.1010558 -0.4500977
v -5.249023E-05 -0.1010558 -0.4467114
v -5.249023E-05 -0.1008558 -0.4467114
v -5.249023E-05 -0.1008558 -0.4500977
v -5.249023E-05 -0.1010558 -0.4467114
v -0.009987984 -0.1010558 -0.4467114
v -0.009987984 -0.1008558 -0.4467114
v -5.249023E-05 -0.1008558 -0.4467114
v -0.009987984 -0.1010558 -0.4467114
v -0.009987984 -0.1010558 -0.4568542
v -0.009987984 -0.1008558 -0.4566542
v -0.009987984 -0.1008558 -0.4467114
v 0.01384392 -0.1000681 -0.4566542
v 0.01423771 -0.1004619 -0.4566542
v 0.01423771 -0.1004619 -0.4568542
v 0.01384392 -0.1000681 -0.4568542
v 0.00777813 -0.1004619 -0.4566542
v 0.008171921 -0.1000681 -0.4566542
v 0.008171921 -0.1000681 -0.4568542
v 0.00777813 -0.1004619 -0.4568542
v 0.001763534 -0.1010558 -0.4519137
v 0.00777813 -0.1010558 -0.455332
v 0.00777813 -0.1010558 -0.4568542
v -0.009987984 -0.1010558 -0.4568542
v 0.0004794312 -0.1010558 -0.4513818
v -5.249023E-05 -0.1010558 -0.4500977
v -0.009987984 -0.1010558 -0.4568542
v 0.003047714 -0.1010558 -0.4513818
v 0.008310013 -0.1010558 -0.4540478
v 0.00777813 -0.1010558 -0.455332
v -0.009987984 -0.1010558 -0.4467114
v -5.249023E-05 -0.1010558 -0.4500977
v -5.249023E-05 -0.1010558 -0.4467114
v 0.01423771 -0.1008558 -0.455332
v 0.01423771 -0.1008558 -0.4566542
v 0.01867016 -0.1008558 -0.4566542
v 0.01370579 -0.1008558 -0.4540478
v 0.01867016 -0.1008558 -0.4467114
v 0.01242168 -0.1008558 -0.4535159
v 0.003579597 -0.1008558 -0.4467114
v 0.009594193 -0.1008558 -0.4535159
v 0.003579597 -0.1008558 -0.4500977
v 0.008310013 -0.1008558 -0.4540478
v 0.003047714 -0.1008558 -0.4513818
v 0.00777813 -0.1008558 -0.455332
v 0.001763534 -0.1008558 -0.4519137
v 0.00777813 -0.1008558 -0.4566542
v 0.0004794312 -0.1008558 -0.4513818
v -0.009987984 -0.1008558 -0.4566542
v -5.249023E-05 -0.1008558 -0.4500977
v -5.249023E-05 -0.1008558 -0.4467114
v -0.009987984 -0.1008558 -0.4467114
v 0.003047714 -0.1010558 -0.4513818
v 0.003579597 -0.1010558 -0.4500977
v 0.009594193 -0.1010558 -0.4535159
v 0.008310013 -0.1010558 -0.4540478
v 0.003579597 -0.1010558 -0.4500977
v 0.01242168 -0.1010558 -0.4535159
v 0.003579597 -0.1010558 -0.4467114
v 0.003579597 -0.1010558 -0.4467114
v 0.01867016 -0.1010558 -0.4467114
v 0.01370579 -0.1010558 -0.4540478
v 0.01242168 -0.1010558 -0.4535159
v 0.01867016 -0.1010558 -0.4467114
v 0.01423771 -0.1010558 -0.455332
v 0.01370579 -0.1010558 -0.4540478
v 0.01867016 -0.1010558 -0.4568542
v 0.01423771 -0.1010558 -0.4568542
v -0.009987984 -0.1008558 -0.4566542
v 0.00777813 -0.1004619 -0.4566542
v 0.00777813 -0.1008558 -0.4566542
v 0.008171921 -0.1000681 -0.4566542
v -0.01441723 -0.09691944 -0.4566543
v -0.02259937 -0.1010558 -0.4566543
v 0.02260082 -0.09691948 -0.4566542
v 0.02260082 -0.1010558 -0.4566543
v 0.01867016 -0.1008558 -0.4566542
v 0.01384392 -0.1000681 -0.4566542
v 0.008171921 -0.1000681 -0.4566542
v -0.02259937 -0.1010558 -0.4566543
v -0.02259937 0.1010558 -0.4566543
v -0.01441723 0.09691948 -0.4566543
v -0.01441723 -0.09691944 -0.4566543
vt 0.9262475 0.01150254
vt 0.9254434 0.01278217
vt 0.9365401 0.01920533
vt 0.924008 0.01332955
vt 0.9365401 0.01920533
vt 0.9181284 0.01879811
vt 0.9179643 0.01720382
vt 0.922567 0.01275793
vt 0.9172388 0.01606849
vt 0.9179643 0.01720382
vt 0.9062423 0.2592731
vt 0.9030036 0.2503326
vt 0.9063458 0.2653246
vt 0.9477335 0.2522764
vt 0.9476839 0.2706541
vt 0.948087 0.2707339
vt 0.9265829 0.2943754
vt 0.9268863 0.2990527
vt 0.9272253 0.2995244
vt 0.9265829 0.2943754
vt 0.9264932 0.2989317
vt 0.9268863 0.2990527
vt 0.9477335 0.2522764
vt 0.948087 0.2707339
vt 0.9484705 0.2711917
vt 0.9484705 0.2711917
vt 0.9485745 0.2772439
vt 0.9518134 0.2861832
vt 0.9022543 0.02009244
vt 0.9062632 0.01896981
vt 0.9060904 0.01868319
vt 0.9020543 0.02002833
vt 0.9491425 0.02266161
vt 0.9494542 0.2282804
vt 0.9496521 0.2283487
vt 0.9493403 0.02259271
vt 0.9365401 0.01920533
vt 0.9491425 0.02266161
vt 0.9493403 0.02259271
vt 0.93672 0.01893955
vt 0.9106973 0.01918215
vt 0.9108893 0.01970623
vt 0.9110051 0.01954981
vt 0.9108906 0.01915587
vt 0.9109337 0.01773901
vt 0.9111095 0.0178201
vt 0.9114155 0.01991198
vt 0.9113643 0.02010704
vt 0.9173722 0.01976019
vt 0.9173142 0.01954458
vt 0.917883 0.01936804
vt 0.9179685 0.01879195
vt 0.9177786 0.01919751
vt 0.9181284 0.01879811
vt 0.9177721 0.01732702
vt 0.9179643 0.01720382
vt 0.9179643 0.01720382
vt 0.9172388 0.01606849
vt 0.9171137 0.01622923
vt 0.9177721 0.01732702
vt 0.9172388 0.01606849
vt 0.9158934 0.01564677
vt 0.9158595 0.01583569
vt 0.9171137 0.01622923
vt 0.9158934 0.01564677
vt 0.912973 0.01589527
vt 0.9130272 0.01607596
vt 0.9158595 0.01583569
vt 0.912973 0.01589527
vt 0.9116346 0.01650136
vt 0.9117801 0.01668567
vt 0.9130272 0.01607596
vt 0.9116346 0.01650136
vt 0.9109337 0.01773901
vt 0.9111095 0.0178201
vt 0.9117801 0.01668567
vt 0.9062632 0.01896981
vt 0.9068246 0.008672321
vt 0.9067054 0.008507297
vt 0.9060904 0.01868319
vt 0.9068246 0.008672321
vt 0.9211019 0.008406007
vt 0.9211742 0.008213446
vt 0.9067054 0.008507297
vt 0.9211019 0.008406007
vt 0.9217909 0.01144647
vt 0.921966 0.01133113
vt 0.9211742 0.008213446
vt 0.9217909 0.01144647
vt 0.922567 0.01275793
vt 0.9226776 0.01257986
vt 0.921966 0.01133113
vt 0.922567 0.01275793
vt 0.924008 0.01332955
vt 0.9240011 0.01311861
vt 0.9226776 0.01257986
vt 0.924008 0.01332955
vt 0.9254434 0.01278217
vt 0.9253231 0.01260679
vt 0.9240011 0.01311861
vt 0.9254434 0.01278217
vt 0.9262475 0.01150254
vt 0.9260858 0.01136218
vt 0.9253231 0.01260679
vt 0.9262475 0.01150254
vt 0.9280742 0.008014944
vt 0.9280395 0.0078125
vt 0.9260858 0.01136218
vt 0.9280742 0.008014944
vt 0.9369102 0.009473099
vt 0.9370642 0.00934169
vt 0.9280395 0.0078125
vt 0.9369102 0.009473099
vt 0.9365401 0.01920533
vt 0.93672 0.01893955
vt 0.9370642 0.00934169
vt 0.9114155 0.01991198
vt 0.9110051 0.01954981
vt 0.9108893 0.01970623
vt 0.9113643 0.02010704
vt 0.9177786 0.01919751
vt 0.9173142 0.01954458
vt 0.9173722 0.01976019
vt 0.917883 0.01936804
vt 0.9022543 0.02009244
vt 0.9021904 0.230578
vt 0.9061598 0.231686
vt 0.9062632 0.01896981
vt 0.9365401 0.01920533
vt 0.9363813 0.2316217
vt 0.9494542 0.2282804
vt 0.9491425 0.02266161
vt 0.9062632 0.01896981
vt 0.9108893 0.01970623
vt 0.9106973 0.01918215
vt 0.9113643 0.02010704
vt 0.9172729 0.2304964
vt 0.9113643 0.02010704
vt 0.9173722 0.01976019
vt 0.9112673 0.2304831
vt 0.9061598 0.231686
vt 0.9107999 0.2308847
vt 0.9106187 0.2314035
vt 0.9365401 0.01920533
vt 0.917883 0.01936804
vt 0.9181284 0.01879811
vt 0.9363813 0.2316217
vt 0.9177489 0.2309093
vt 0.917944 0.2314971
vt 0.9706266 0.1918589
vt 0.9701895 0.2102855
vt 0.9705903 0.2102849
vt 0.9697887 0.2106962
vt 0.9665122 0.2258455
vt 0.9665087 0.1872296
vt 0.9708233 0.1787036
vt 0.9705331 0.2218957
vt 0.9707878 0.2259168
vt 0.969824 0.2167451
vt 0.9665122 0.2258455
vt 0.9697887 0.2106962
vt 0.9718425 0.21733
vt 0.9705306 0.2174053
vt 0.9705331 0.2218957
vt 0.9731456 0.2166778
vt 0.9807457 0.221746
vt 0.9735748 0.2152595
vt 0.9808794 0.206147
vt 0.9737005 0.2122901
vt 0.97738 0.2060853
vt 0.9732145 0.2109317
vt 0.9760635 0.2055037
vt 0.9719388 0.2103412
vt 0.9755254 0.2041553
vt 0.9705903 0.2102849
vt 0.9760871 0.2028286
vt 0.9706266 0.1918589
vt 0.9774274 0.2022786
vt 0.9809571 0.2022949
vt 0.9810022 0.1919255
vt 0.9020543 0.02002833
vt 0.9019908 0.230644
vt 0.9021904 0.230578
vt 0.9022543 0.02009244
vt 0.922567 0.01275793
vt 0.9217909 0.01144647
vt 0.9158934 0.01564677
vt 0.9172388 0.01606849
vt 0.9217909 0.01144647
vt 0.912973 0.01589527
vt 0.9211019 0.008406007
vt 0.9211019 0.008406007
vt 0.9068246 0.008672321
vt 0.9116346 0.01650136
vt 0.912973 0.01589527
vt 0.9068246 0.008672321
vt 0.9109337 0.01773901
vt 0.9116346 0.01650136
vt 0.9062632 0.01896981
vt 0.9106973 0.01918215
vt 0.9369102 0.009473099
vt 0.9280742 0.008014944
vt 0.9262475 0.01150254
vt 0.9365401 0.01920533
vt 0.9705331 0.2218957
vt 0.9701754 0.2172319
vt 0.969824 0.2167451
vt 0.9705306 0.2174053
vt 0.9021904 0.230578
vt 0.9019908 0.230644
vt 0.9059916 0.2319755
vt 0.9061598 0.231686
vt 0.9363813 0.2316217
vt 0.9365441 0.2318996
vt 0.9496521 0.2283487
vt 0.9494542 0.2282804
vt 0.9106187 0.2314035
vt 0.910923 0.2310392
vt 0.9107999 0.2308847
vt 0.9108234 0.2314143
vt 0.9108381 0.2328537
vt 0.9110188 0.2327769
vt 0.9106187 0.2314035
vt 0.9113219 0.2306706
vt 0.9172229 0.2306902
vt 0.9172729 0.2304964
vt 0.9112673 0.2304831
vt 0.9177489 0.2309093
vt 0.9176292 0.2310905
vt 0.9177538 0.2315042
vt 0.917944 0.2314971
vt 0.917944 0.2314971
vt 0.9175329 0.2329715
vt 0.9177263 0.2330803
vt 0.9177263 0.2330803
vt 0.9175329 0.2329715
vt 0.9168782 0.2340781
vt 0.9169982 0.2342332
vt 0.9169982 0.2342332
vt 0.9168782 0.2340781
vt 0.9156444 0.2344753
vt 0.9156767 0.2346627
vt 0.9156767 0.2346627
vt 0.9156444 0.2344753
vt 0.9128714 0.234254
vt 0.912828 0.2344519
vt 0.912828 0.2344519
vt 0.9128714 0.234254
vt 0.9115824 0.2339137
vt 0.9114492 0.2340645
vt 0.9114492 0.2340645
vt 0.9115824 0.2339137
vt 0.9110188 0.2327769
vt 0.9108381 0.2328537
vt 0.9061598 0.231686
vt 0.9059916 0.2319755
vt 0.9067553 0.2420384
vt 0.9068728 0.2418716
vt 0.9068728 0.2418716
vt 0.9067553 0.2420384
vt 0.9207261 0.2420254
vt 0.9206567 0.2418315
vt 0.9206567 0.2418315
vt 0.9207261 0.2420254
vt 0.9215307 0.239007
vt 0.9213613 0.2388842
vt 0.9213613 0.2388842
vt 0.9215307 0.239007
vt 0.9222162 0.237784
vt 0.9221177 0.2375995
vt 0.9221177 0.2375995
vt 0.9222162 0.237784
vt 0.9234989 0.2372725
vt 0.9235221 0.2370629
vt 0.9235221 0.2370629
vt 0.9234989 0.2372725
vt 0.9247569 0.2378139
vt 0.9248917 0.2376491
vt 0.9248917 0.2376491
vt 0.9247569 0.2378139
vt 0.9254114 0.2390803
vt 0.9255846 0.2389543
vt 0.9255846 0.2389543
vt 0.9254114 0.2390803
vt 0.9270514 0.2427554
vt 0.9271036 0.2425568
vt 0.9271036 0.2425568
vt 0.9270514 0.2427554
vt 0.9361823 0.2417668
vt 0.9360389 0.2416241
vt 0.9360389 0.2416241
vt 0.9361823 0.2417668
vt 0.9365441 0.2318996
vt 0.9363813 0.2316217
vt 0.9113219 0.2306706
vt 0.9112673 0.2304831
vt 0.9107999 0.2308847
vt 0.910923 0.2310392
vt 0.9176292 0.2310905
vt 0.9177489 0.2309093
vt 0.9172729 0.2304964
vt 0.9172229 0.2306902
vt 0.9083673 0.2588868
vt 0.9070378 0.2542966
vt 0.9070348 0.2588588
vt 0.909662 0.2594604
vt 0.9172376 0.2542382
vt 0.9101759 0.2608211
vt 0.917502 0.2699205
vt 0.9103143 0.2638463
vt 0.9139942 0.2700413
vt 0.9098185 0.2652209
vt 0.912661 0.2706586
vt 0.9085126 0.2658249
vt 0.9121093 0.2720372
vt 0.9071324 0.2658623
vt 0.9126664 0.2733633
vt 0.9070823 0.2842401
vt 0.9140049 0.2739582
vt 0.9175419 0.2740491
vt 0.9173538 0.2844422
vt 0.9221177 0.2375995
vt 0.9156767 0.2346627
vt 0.9213613 0.2388842
vt 0.9169982 0.2342332
vt 0.9235221 0.2370629
vt 0.9177263 0.2330803
vt 0.917944 0.2314971
vt 0.9363813 0.2316217
vt 0.9248917 0.2376491
vt 0.9255846 0.2389543
vt 0.9360389 0.2416241
vt 0.9271036 0.2425568
vt 0.9213613 0.2388842
vt 0.912828 0.2344519
vt 0.9206567 0.2418315
vt 0.9206567 0.2418315
vt 0.912828 0.2344519
vt 0.9114492 0.2340645
vt 0.9068728 0.2418716
vt 0.9068728 0.2418716
vt 0.9108381 0.2328537
vt 0.9061598 0.231686
vt 0.9106187 0.2314035
vt 0.9070378 0.2542966
vt 0.906637 0.2588624
vt 0.9070348 0.2588588
vt 0.9062423 0.2592731
vt 0.9030036 0.2503326
vt 0.907248 0.2502311
vt 0.9063458 0.2653246
vt 0.9029989 0.288713
vt 0.9070823 0.2842401
vt 0.9073052 0.2971816
vt 0.9070823 0.2842401
vt 0.9067292 0.2657826
vt 0.9063458 0.2653246
vt 0.9071324 0.2658623
vt 0.9496521 0.2283487
vt 0.9582714 0.2240459
vt 0.9579653 0.02668872
vt 0.9493403 0.02259271
vt 0.837719 0.2306054
vt 0.8375193 0.2306707
vt 0.8415589 0.2320029
vt 0.8417327 0.2317138
vt 0.8845567 0.2280155
vt 0.8847551 0.228083
vt 0.885157 0.02256822
vt 0.8849596 0.02263743
vt 0.8719503 0.231513
vt 0.8721246 0.2317828
vt 0.8847551 0.228083
vt 0.8845567 0.2280155
vt 0.8461052 0.2316124
vt 0.8464565 0.2312577
vt 0.8463449 0.2311216
vt 0.8462815 0.2316279
vt 0.8462884 0.2330714
vt 0.8464614 0.2329921
vt 0.8461052 0.2316124
vt 0.8469088 0.2309648
vt 0.8528009 0.2308258
vt 0.8528438 0.2306238
vt 0.8468426 0.2307587
vt 0.8533294 0.2310328
vt 0.8532172 0.2312258
vt 0.8533489 0.2316473
vt 0.853532 0.231619
vt 0.853532 0.231619
vt 0.853107 0.2330745
vt 0.8532984 0.2331945
vt 0.8532984 0.2331945
vt 0.853107 0.2330745
vt 0.8524163 0.234133
vt 0.8525454 0.234321
vt 0.8525454 0.234321
vt 0.8524163 0.234133
vt 0.8511712 0.2346549
vt 0.8512163 0.2348479
vt 0.8512163 0.2348479
vt 0.8511712 0.2346549
vt 0.8483601 0.2346523
vt 0.8483227 0.2348282
vt 0.8483227 0.2348282
vt 0.8483601 0.2346523
vt 0.8470933 0.2341745
vt 0.8469577 0.2343348
vt 0.8469577 0.2343348
vt 0.8470933 0.2341745
vt 0.8464614 0.2329921
vt 0.8462884 0.2330714
vt 0.8417327 0.2317138
vt 0.8415589 0.2320029
vt 0.8421463 0.2423604
vt 0.8422651 0.2421952
vt 0.8422651 0.2421952
vt 0.8421463 0.2423604
vt 0.8566606 0.2421703
vt 0.8565857 0.2419786
vt 0.8565857 0.2419786
vt 0.8566606 0.2421703
vt 0.8573463 0.239062
vt 0.8571706 0.2389479
vt 0.8571706 0.2389479
vt 0.8573463 0.239062
vt 0.8580017 0.2378386
vt 0.8578938 0.2376591
vt 0.8578938 0.2376591
vt 0.8580017 0.2378386
vt 0.8592892 0.2373274
vt 0.8593024 0.237117
vt 0.8593024 0.237117
vt 0.8592892 0.2373274
vt 0.8605769 0.2378616
vt 0.8607041 0.2376908
vt 0.8607041 0.2376908
vt 0.8605769 0.2378616
vt 0.8612824 0.2391243
vt 0.8614497 0.2389904
vt 0.8614497 0.2389904
vt 0.8612824 0.2391243
vt 0.8630918 0.2427396
vt 0.8631347 0.2425386
vt 0.8631347 0.2425386
vt 0.8630918 0.2427396
vt 0.8721517 0.2414883
vt 0.8720026 0.2413513
vt 0.8720026 0.2413513
vt 0.8721517 0.2414883
vt 0.8721246 0.2317828
vt 0.8719503 0.231513
vt 0.8469088 0.2309648
vt 0.8468426 0.2307587
vt 0.8463449 0.2311216
vt 0.8464565 0.2312577
vt 0.8532172 0.2312258
vt 0.8533294 0.2310328
vt 0.8528438 0.2306238
vt 0.8528009 0.2308258
vt 0.837719 0.2306054
vt 0.8417327 0.2317138
vt 0.8416233 0.01883526
vt 0.8376732 0.02001587
vt 0.8719503 0.231513
vt 0.8845567 0.2280155
vt 0.8849596 0.02263743
vt 0.871902 0.01927294
vt 0.8417327 0.2317138
vt 0.8461052 0.2316124
vt 0.8463449 0.2311216
vt 0.8468426 0.2307587
vt 0.8467264 0.02001029
vt 0.8416233 0.01883526
vt 0.8528438 0.2306238
vt 0.8719503 0.231513
vt 0.8533294 0.2310328
vt 0.853532 0.231619
vt 0.85273 0.01970277
vt 0.871902 0.01927294
vt 0.8532429 0.01931436
vt 0.853493 0.01874709
vt 0.8462508 0.01960689
vt 0.8460609 0.01908319
vt 0.8467264 0.02001029
vt 0.8593024 0.237117
vt 0.853532 0.231619
vt 0.8532984 0.2331945
vt 0.8719503 0.231513
vt 0.8607041 0.2376908
vt 0.8614497 0.2389904
vt 0.8532984 0.2331945
vt 0.8525454 0.234321
vt 0.8578938 0.2376591
vt 0.8512163 0.2348479
vt 0.8571706 0.2389479
vt 0.8571706 0.2389479
vt 0.8483227 0.2348282
vt 0.8565857 0.2419786
vt 0.8565857 0.2419786
vt 0.8469577 0.2343348
vt 0.8422651 0.2421952
vt 0.8462884 0.2330714
vt 0.8417327 0.2317138
vt 0.8461052 0.2316124
vt 0.9464498 0.2776285
vt 0.9477789 0.2822193
vt 0.9477823 0.2776582
vt 0.945155 0.2770559
vt 0.9375797 0.2822792
vt 0.9446404 0.275695
vt 0.9373138 0.266596
vt 0.9445019 0.2726699
vt 0.9408219 0.2664752
vt 0.9449978 0.2712954
vt 0.9421551 0.2658578
vt 0.9463037 0.2706914
vt 0.9427068 0.2644792
vt 0.9476839 0.2706541
vt 0.9421496 0.2631532
vt 0.9477335 0.2522764
vt 0.9408111 0.2625583
vt 0.937274 0.2624673
vt 0.937462 0.2520742
vt 0.8375193 0.2306707
vt 0.837719 0.2306054
vt 0.8376732 0.02001587
vt 0.8374729 0.01995186
vt 0.8720026 0.2413513
vt 0.8719503 0.231513
vt 0.8614497 0.2389904
vt 0.8631347 0.2425386
vt 0.9477789 0.2822193
vt 0.9481799 0.2776545
vt 0.9477823 0.2776582
vt 0.9485745 0.2772439
vt 0.9518134 0.2861832
vt 0.9475688 0.2862847
vt 0.9477335 0.2522764
vt 0.9484705 0.2711917
vt 0.9518166 0.2478036
vt 0.9475102 0.2393351
vt 0.8376732 0.02001587
vt 0.8416233 0.01883526
vt 0.8414483 0.01855172
vt 0.8374729 0.01995186
vt 0.871902 0.01927294
vt 0.8849596 0.02263743
vt 0.885157 0.02256822
vt 0.8720778 0.01900345
vt 0.8460609 0.01908319
vt 0.8462508 0.01960689
vt 0.8463679 0.01945196
vt 0.8462545 0.01905844
vt 0.8463051 0.01764594
vt 0.8464808 0.01772801
vt 0.8467777 0.01981591
vt 0.8467264 0.02001029
vt 0.85273 0.01970277
vt 0.8526744 0.01948666
vt 0.8532429 0.01931436
vt 0.8533343 0.01873959
vt 0.8531415 0.01914312
vt 0.853493 0.01874709
vt 0.8531435 0.01727471
vt 0.8533373 0.01715334
vt 0.8533373 0.01715334
vt 0.8526119 0.01601438
vt 0.8524869 0.01617419
vt 0.8531435 0.01727471
vt 0.8526119 0.01601438
vt 0.8512678 0.01558547
vt 0.8512335 0.01577406
vt 0.8524869 0.01617419
vt 0.8512678 0.01558547
vt 0.8483505 0.01581938
vt 0.848404 0.01600001
vt 0.8512335 0.01577406
vt 0.8483505 0.01581938
vt 0.8470122 0.01641804
vt 0.8471579 0.01660234
vt 0.848404 0.01600001
vt 0.8470122 0.01641804
vt 0.8463051 0.01764594
vt 0.8464808 0.01772801
vt 0.8471579 0.01660234
vt 0.8416233 0.01883526
vt 0.8421978 0.008591282
vt 0.8420784 0.008426271
vt 0.8414483 0.01855172
vt 0.8421978 0.008591282
vt 0.8564587 0.008363006
vt 0.8565302 0.008170039
vt 0.8420784 0.008426271
vt 0.8564587 0.008363006
vt 0.8571512 0.01140961
vt 0.8573257 0.01129358
vt 0.8565302 0.008170039
vt 0.8571512 0.01140961
vt 0.8579268 0.01273242
vt 0.8580365 0.01255361
vt 0.8573257 0.01129358
vt 0.8579268 0.01273242
vt 0.8593661 0.01331828
vt 0.8593583 0.01310717
vt 0.8580365 0.01255361
vt 0.8593661 0.01331828
vt 0.8607972 0.01278216
vt 0.8606761 0.01260727
vt 0.8593583 0.01310717
vt 0.8607972 0.01278216
vt 0.8615977 0.01151038
vt 0.8614349 0.01137123
vt 0.8606761 0.01260727
vt 0.8615977 0.01151038
vt 0.8633921 0.008014631
vt 0.8633554 0.0078125
vt 0.8614349 0.01137123
vt 0.8633921 0.008014631
vt 0.8722456 0.009470128
vt 0.8723991 0.00933821
vt 0.8633554 0.0078125
vt 0.8722456 0.009470128
vt 0.871902 0.01927294
vt 0.8720778 0.01900345
vt 0.8723991 0.00933821
vt 0.8467777 0.01981591
vt 0.8463679 0.01945196
vt 0.8462508 0.01960689
vt 0.8467264 0.02001029
vt 0.8531415 0.01914312
vt 0.8526744 0.01948666
vt 0.85273 0.01970277
vt 0.8532429 0.01931436
vt 0.8593661 0.01331828
vt 0.8533373 0.01715334
vt 0.853493 0.01874709
vt 0.871902 0.01927294
vt 0.8607972 0.01278216
vt 0.8615977 0.01151038
vt 0.871902 0.01927294
vt 0.8579268 0.01273242
vt 0.8526119 0.01601438
vt 0.8533373 0.01715334
vt 0.8722456 0.009470128
vt 0.8615977 0.01151038
vt 0.8633921 0.008014631
vt 0.9251335 0.2989308
vt 0.9264932 0.2989317
vt 0.9265829 0.2943754
vt 0.9237832 0.2994878
vt 0.916176 0.2942805
vt 0.9232527 0.3008564
vt 0.9161401 0.3102045
vt 0.9232636 0.3038681
vt 0.9196664 0.3101934
vt 0.9237776 0.3052547
vt 0.9209827 0.3107652
vt 0.9250716 0.3058651
vt 0.921526 0.3121139
vt 0.9264324 0.3059103
vt 0.9209749 0.3134467
vt 0.926451 0.3242919
vt 0.9196347 0.3139982
vt 0.9161041 0.3139996
vt 0.9161042 0.3243333
vt 0.8579268 0.01273242
vt 0.8571512 0.01140961
vt 0.8512678 0.01558547
vt 0.8526119 0.01601438
vt 0.8571512 0.01140961
vt 0.8483505 0.01581938
vt 0.8564587 0.008363006
vt 0.8564587 0.008363006
vt 0.8421978 0.008591282
vt 0.8470122 0.01641804
vt 0.8483505 0.01581938
vt 0.8421978 0.008591282
vt 0.8463051 0.01764594
vt 0.8470122 0.01641804
vt 0.8416233 0.01883526
vt 0.8460609 0.01908319
vt 0.926451 0.3242919
vt 0.9268388 0.3059134
vt 0.9264324 0.3059103
vt 0.9272445 0.3055077
vt 0.9305477 0.3288801
vt 0.9262291 0.3373874
vt 0.9305528 0.2905117
vt 0.9263148 0.2903859
vt 0.9265829 0.2943754
vt 0.9272253 0.2995244
vt 0.9272445 0.3055077
vt 0.885157 0.02256822
vt 0.8847551 0.228083
vt 0.8933892 0.2238876
vt 0.8937731 0.02676068
vn 1.749516E-05 1 0
vn -2.082071E-05 1 0
vn 1.749516E-05 1 0
vn 0 1 0
vn 0 1 0
vn 0 1 0
vn 0 1 0
vn -1.512438E-06 1 0
vn -1.512438E-06 1 0
vn -1.512438E-06 1 0
vn 0 0 -1
vn 0 0 -1
vn 0 0 -1
vn 0 0 1
vn 0 0 1
vn 0 0 1
vn 0 0.0004797097 0.9999999
vn 0 0.0004797097 0.9999999
vn 0 0.0004797097 0.9999999
vn 0 0 1
vn 0 0 1
vn 0 0 1
vn 0 0.0004461173 0.9999999
vn 0 0.0004461173 0.9999999
vn 0 0.0004461173 0.9999999
vn 0 -8.543814E-05 1
vn 0 -8.543814E-05 1
vn 0 -8.543814E-05 1
vn -0.02274634 0.8941198 -0.4472497
vn -0.02274634 0.8941198 -0.4472497
vn -0.02274634 0.8941198 -0.4472497
vn -0.02274634 0.8941198 -0.4472497
vn -0.9999738 0 -0.007251491
vn -0.9999738 0 -0.007251491
vn -0.9999738 0 -0.007251491
vn -0.9999738 0 -0.007251491
vn 0.007092388 0.8942922 -0.4474273
vn 0.007092388 0.8942922 -0.4474274
vn 0.007092388 0.8942922 -0.4474274
vn 0.007092388 0.8942922 -0.4474273
vn -1 0 0
vn -1 0 0
vn -1 0 0
vn -1 0 0
vn -1 0 0
vn -1 0 0
vn 0 1 0
vn 0 1 0
vn 0 1 0
vn 0 1 0
vn 1 0 0
vn 1 0 0
vn 1 0 0
vn 1 0 0
vn 1 0 0
vn 1 0 0
vn 0.9238768 0 0.3826901
vn 0.9238768 0 0.3826901
vn 0.9238768 0 0.3826901
vn 0.9238768 0 0.3826901
vn 0.3826675 0 0.9238862
vn 0.3826675 0 0.9238862
vn 0.3826675 0 0.9238862
vn 0.3826675 0 0.9238862
vn 0 0 1
vn 0 0 1
vn 0 0 1
vn 0 0 1
vn -0.3826901 0 0.9238768
vn -0.3826901 0 0.9238768
vn -0.3826901 0 0.9238768
vn -0.3826901 0 0.9238768
vn -0.9238691 0 0.3827084
vn -0.9238691 0 0.3827084
vn -0.9238691 0 0.3827084
vn -0.9238691 0 0.3827084
vn 1 0 0
vn 1 0 0
vn 1 0 0
vn 1 0 0
vn 0 0 -1
vn 0 0 -1
vn 0 0 -1
vn 0 0 -1
vn -1 0 0
vn -1 0 0
vn -1 0 0
vn -1 0 0
vn -0.9238768 0 -0.3826901
vn -0.9238768 0 -0.3826901
vn -0.9238768 0 -0.3826901
vn -0.9238768 0 -0.3826901
vn -0.3826675 0 -0.9238862
vn -0.3826675 0 -0.9238862
vn -0.3826675 0 -0.9238862
vn -0.3826675 0 -0.9238862
vn 0.3826901 0 -0.9238768
vn 0.3826901 0 -0.9238768
vn 0.3826901 0 -0.9238768
vn 0.3826901 0 -0.9238768
vn 0.9238691 0 -0.3827084
vn 0.9238691 0 -0.3827084
vn 0.9238691 0 -0.3827084
vn 0.9238691 0 -0.3827084
vn 1 0 0
vn 1 0 0
vn 1 0 0
vn 1 0 0
vn 0 0 -1
vn 0 0 -1
vn 0 0 -1
vn 0 0 -1
vn -1 0 0
vn -1 0 0
vn -1 0 0
vn -1 0 0
vn -0.70708 0.7071335 0
vn -0.70708 0.7071335 0
vn -0.70708 0.7071335 0
vn -0.70708 0.7071335 0
vn 0.70708 0.7071335 0
vn 0.70708 0.7071335 0
vn 0.70708 0.7071335 0
vn 0.70708 0.7071335 0
vn 0 0 1
vn 0 0 1
vn 0 0 1
vn 0 0 1
vn 0 0 1
vn 0 0 1
vn 0 0 1
vn 0 0 1
vn 0 0 1
vn 0 0 1
vn 0 0 1
vn 0 0.001009463 0.9999995
vn 0 -2.649911E-07 1
vn 0 -2.649911E-07 1
vn 0 -2.649911E-07 1
vn 0 -2.649911E-07 1
vn 0 -2.649911E-07 1
vn 0 0 1
vn 0 0 1
vn 0 -2.649911E-07 1
vn 0 0 1
vn 0 0 1
vn 0 -2.649911E-07 1
vn 0 0 1
vn 0 0 1
vn 0 0 -1
vn 0 0 -1
vn 0 0 -1
vn 0 0 -1
vn 3.694324E-05 9.385156E-05 -1
vn -1.249109E-05 0 -1
vn -1.249109E-05 0 -1
vn 3.694323E-05 9.385154E-05 -1
vn 3.694323E-05 9.385156E-05 -1
vn 0 0 -1
vn 0 0 -1
vn 0 0 -1
vn 0 -1 0
vn 0 -1 0
vn 0 -1 0
vn 0 -1 0
vn 0 -1 0
vn 1.86997E-06 -1 0
vn 1.86997E-06 -1 0
vn 0 -1 0
vn 0 -1 0
vn -1.512438E-06 -1 0
vn -1.512438E-06 -1 0
vn 6.049313E-06 -1 0
vn 6.049313E-06 -1 0
vn 9.125153E-07 -1 0
vn 9.125152E-07 -1 0
vn -2.880517E-06 -1 0
vn -2.880516E-06 -1 0
vn -2.880516E-06 -1 0
vn -2.880516E-06 -1 0
vn 1 0 0
vn 1 0 0
vn 1 0 0
vn 1 0 0
vn 0 1 0
vn 0 1 0
vn 0 1 0
vn 0 1 0
vn 4.815843E-06 1 0
vn 4.815842E-06 1 0
vn 4.815843E-06 1 0
vn -3.324468E-06 1 0
vn -3.324468E-06 1 0
vn -3.324468E-06 1 0
vn -3.324468E-06 1 0
vn 0 1 0
vn 0 1 0
vn 0 1 0
vn 0 1 0
vn 0 1 0
vn -1.418971E-06 1 0
vn -1.418971E-06 1 0
vn -1.418971E-06 1 0
vn -1.418971E-06 1 0
vn 0 0 -1
vn 0 0 -1
vn 0 0 -1
vn 0 0 -1
vn -0.02273278 -0.8941201 -0.4472499
vn -0.02273278 -0.8941201 -0.4472499
vn -0.02273278 -0.8941201 -0.4472499
vn -0.02273278 -0.8941201 -0.4472499
vn 0.007088158 -0.8942922 -0.4474273
vn 0.007088159 -0.8942922 -0.4474273
vn 0.007088159 -0.8942922 -0.4474273
vn 0.007088159 -0.8942922 -0.4474273
vn -1 0 -0.0001206564
vn -1 0 -0.0001206564
vn -1 0 -0.0001206564
vn -1 0 -0.0001206564
vn -1 0 0
vn -1 0 0
vn -1 0 0
vn 0 -1 0
vn 0 -1 0
vn 0 -1 0
vn 0 -1 0
vn 1 0 -0.0001206564
vn 1 0 -0.0001206564
vn 1 0 -0.0001206564
vn 1 0 -0.0001206564
vn 1 0 0
vn 1 0 0
vn 1 0 0
vn 0.9238768 0 0.3826901
vn 0.9238768 0 0.3826901
vn 0.9238768 0 0.3826901
vn 0.9238768 0 0.3826901
vn 0.3826675 0 0.9238862
vn 0.3826675 0 0.9238862
vn 0.3826675 0 0.9238862
vn 0.3826675 0 0.9238862
vn 0 0 1
vn 0 0 1
vn 0 0 1
vn 0 0 1
vn -0.3826901 0 0.9238768
vn -0.3826901 0 0.9238768
vn -0.3826901 0 0.9238768
vn -0.3826901 0 0.9238768
vn -0.9238691 0 0.3827084
vn -0.9238691 0 0.3827084
vn -0.9238691 0 0.3827084
vn -0.9238691 0 0.3827084
vn 1 0 0
vn 1 0 0
vn 1 0 0
vn 1 0 0
vn 0 0 -1
vn 0 0 -1
vn 0 0 -1
vn 0 0 -1
vn -1 0 0
vn -1 0 0
vn -1 0 0
vn -1 0 0
vn -0.9238768 0 -0.3826901
vn -0.9238768 0 -0.3826901
vn -0.9238768 0 -0.3826901
vn -0.9238768 0 -0.3826901
vn -0.3826675 0 -0.9238862
vn -0.3826675 0 -0.9238862
vn -0.3826675 0 -0.9238862
vn -0.3826675 0 -0.9238862
vn 0.3826901 0 -0.9238768
vn 0.3826901 0 -0.9238768
vn 0.3826901 0 -0.9238768
vn 0.3826901 0 -0.9238768
vn 0.9238691 0 -0.3827084
vn 0.9238691 0 -0.3827084
vn 0.9238691 0 -0.3827084
vn 0.9238691 0 -0.3827084
vn 1 0 0
vn 1 0 0
vn 1 0 0
vn 1 0 0
vn 0 0 -1
vn 0 0 -1
vn 0 0 -1
vn 0 0 -1
vn -1 0 0
vn -1 0 0
vn -1 0 0
vn -1 0 0
vn -0.7071068 -0.7071068 0
vn -0.7071068 -0.7071068 0
vn -0.7071068 -0.7071068 0
vn -0.7071068 -0.7071068 0
vn 0.7071068 -0.7071068 0
vn 0.7071068 -0.7071068 0
vn 0.7071068 -0.7071068 0
vn 0.7071068 -0.7071068 0
vn 0 1 0
vn 0 1 0
vn 0 1 0
vn 0 1 0
vn 0 1 0
vn 0 1 0
vn 0 1 0
vn 0 1 0
vn 0 1 0
vn 1.209951E-05 1 0
vn 1.209951E-05 1 0
vn -2.419667E-05 1 0
vn -2.419667E-05 1 0
vn 0 1 0
vn 0 1 0
vn 0 1 0
vn 0 1 0
vn 0 1 0
vn 0 1 0
vn 0 -1 0
vn 0 -1 0
vn 0 -1 0
vn 0 -1 0
vn 0 -1 0
vn 0 -1 0
vn 0 -1 0
vn 0 -1 0
vn 0 -1 0
vn 0 -1 0
vn 0 -1 0
vn 0 -1 0
vn 9.631685E-06 -1 0
vn 9.631684E-06 -1 0
vn 9.631683E-06 -1 0
vn -6.648759E-06 -1 0
vn -6.648759E-06 -1 0
vn -6.648759E-06 -1 0
vn -6.648758E-06 -1 0
vn -1.381254E-05 -1 0
vn -1.381254E-05 -1 0
vn -1.381254E-05 -1 0
vn 0 -1 0
vn 0 0 -1
vn 0 0 -1
vn 0 0 -1
vn 0 0 -1
vn 3.694287E-05 -9.385156E-05 -1
vn 3.694288E-05 -9.385156E-05 -1
vn -3.135974E-06 6.373429E-05 -1
vn -1.249106E-05 -3.019825E-05 -1
vn -1.249106E-05 -3.019825E-05 -1
vn -1.249106E-05 -3.019825E-05 -1
vn 0 0 -1
vn 0 0 -1
vn 0 0 -1
vn 0 0 -1
vn 0 0 -1
vn 0 0 -1
vn 0 0 -1
vn 0 0 -1
vn -0.02274634 0.8941198 0.4472497
vn -0.02274634 0.8941198 0.4472497
vn -0.02274634 0.8941198 0.4472497
vn -0.02274634 0.8941198 0.4472497
vn -0.9999738 0 0.007251491
vn -0.9999738 0 0.007251491
vn -0.9999738 0 0.007251491
vn -0.9999738 0 0.007251491
vn 0.007088955 0.8944005 0.4472107
vn 0.007088955 0.8944005 0.4472107
vn 0.007088956 0.8944005 0.4472107
vn 0.007088956 0.8944005 0.4472107
vn -1 0 0.0001206637
vn -1 0 0.0001206637
vn -1 0 0.0001206637
vn -1 0 0.0001206637
vn -1 0 0
vn -1 0 0
vn -1 0 0
vn 0 1 0
vn 0 1 0
vn 0 1 0
vn 0 1 0
vn 1 0 0.0001206637
vn 1 0 0.0001206637
vn 1 0 0.0001206637
vn 1 0 0.0001206637
vn 1 0 0
vn 1 0 0
vn 1 0 0
vn 0.9238768 0 -0.3826901
vn 0.9238768 0 -0.3826901
vn 0.9238768 0 -0.3826901
vn 0.9238768 0 -0.3826901
vn 0.3826675 0 -0.9238862
vn 0.3826675 0 -0.9238862
vn 0.3826675 0 -0.9238862
vn 0.3826675 0 -0.9238862
vn 0 0 -1
vn 0 0 -1
vn 0 0 -1
vn 0 0 -1
vn -0.3826901 0 -0.9238768
vn -0.3826901 0 -0.9238768
vn -0.3826901 0 -0.9238768
vn -0.3826901 0 -0.9238768
vn -0.9238691 0 -0.3827084
vn -0.9238691 0 -0.3827084
vn -0.9238691 0 -0.3827084
vn -0.9238691 0 -0.3827084
vn 1 0 0
vn 1 0 0
vn 1 0 0
vn 1 0 0
vn 0 0 1
vn 0 0 1
vn 0 0 1
vn 0 0 1
vn -1 0 0
vn -1 0 0
vn -1 0 0
vn -1 0 0
vn -0.9238768 0 0.3826901
vn -0.9238768 0 0.3826901
vn -0.9238768 0 0.3826901
vn -0.9238768 0 0.3826901
vn -0.3826675 0 0.9238862
vn -0.3826675 0 0.9238862
vn -0.3826675 0 0.9238862
vn -0.3826675 0 0.9238862
vn 0.3826901 0 0.9238768
vn 0.3826901 0 0.9238768
vn 0.3826901 0 0.9238768
vn 0.3826901 0 0.9238768
vn 0.9238691 0 0.3827084
vn 0.9238691 0 0.3827084
vn 0.9238691 0 0.3827084
vn 0.9238691 0 0.3827084
vn 1 0 0
vn 1 0 0
vn 1 0 0
vn 1 0 0
vn 0 0 1
vn 0 0 1
vn 0 0 1
vn 0 0 1
vn -1 0 0
vn -1 0 0
vn -1 0 0
vn -1 0 0
vn -0.70708 0.7071335 0
vn -0.70708 0.7071335 0
vn -0.70708 0.7071335 0
vn -0.70708 0.7071335 0
vn 0.70708 0.7071335 0
vn 0.70708 0.7071335 0
vn 0.70708 0.7071335 0
vn 0.70708 0.7071335 0
vn 0 0 -1
vn 0 0 -1
vn 0 0 -1
vn 0 0 -1
vn 0 0 -1
vn 0 0 -1
vn 0 0 -1
vn 0 0 -1
vn 0 0 -1
vn 0 0 -1
vn 0 0 -1
vn 0 2.649909E-07 -1
vn 0 2.649909E-07 -1
vn 0 2.649909E-07 -1
vn 0 2.649909E-07 -1
vn 0 2.64991E-07 -1
vn 0 0 -1
vn 0 0 -1
vn 0 2.64991E-07 -1
vn 0 2.64991E-07 -1
vn 0 0 -1
vn 0 0 -1
vn 0 0 -1
vn 0 0 -1
vn 0 0 -1
vn 1.96776E-06 1 0
vn 1.96776E-06 1 0
vn 1.96776E-06 1 0
vn 1.96776E-06 1 0
vn -3.028835E-05 1 0
vn 2.332961E-05 1 0
vn 0 1 0
vn 0 1 0
vn 0 1 0
vn 0 1 0
vn 0 1 0
vn 4.815656E-06 1 0
vn 4.815657E-06 1 0
vn 4.815657E-06 1 0
vn -3.324513E-06 1 0
vn -3.324512E-06 1 0
vn -3.324513E-06 1 0
vn 0 1 0
vn 0 1 0
vn 0 1 0
vn 0 -1 0
vn 0 -1 0
vn 0 -1 0
vn 0 -1 0
vn 0 -1 0
vn 3.324513E-06 -1 0
vn 3.324513E-06 -1 0
vn 0 -1 0
vn 0 -1 0
vn -1.209892E-05 -1 0
vn -1.209892E-05 -1 0
vn 0 -1 0
vn 0 -1 0
vn 0 -1 0
vn 0 -1 0
vn -1.440258E-06 -1 0
vn -1.440258E-06 -1 0
vn -1.440258E-06 -1 0
vn -1.440258E-06 -1 0
vn 1 0 0
vn 1 0 0
vn 1 0 0
vn 1 0 0
vn 0 1 0
vn 0 1 0
vn 0 1 0
vn 0 1 0
vn 0 0 1
vn 0 0 1
vn 0 0 1
vn 0 0 1
vn 3.694315E-05 4.692567E-05 1
vn 3.694316E-05 4.692567E-05 1
vn -1.249109E-05 -6.03972E-05 1
vn -3.135968E-06 -1.593355E-05 1
vn -1.249109E-05 -6.03972E-05 1
vn -1.249109E-05 -6.03972E-05 1
vn -0.02273278 -0.8941201 0.4472499
vn -0.02273278 -0.8941201 0.4472499
vn -0.02273278 -0.8941201 0.4472499
vn -0.02273278 -0.8941201 0.4472499
vn 0.007084729 -0.8944006 0.4472108
vn 0.007084729 -0.8944005 0.4472108
vn 0.00708473 -0.8944006 0.4472108
vn 0.00708473 -0.8944006 0.4472108
vn -1 0 0
vn -1 0 0
vn -1 0 0
vn -1 0 0
vn -1 0 0
vn -1 0 0
vn 0 -1 0
vn 0 -1 0
vn 0 -1 0
vn 0 -1 0
vn 1 0 0
vn 1 0 0
vn 1 0 0
vn 1 0 0
vn 1 0 0
vn 1 0 0
vn 0.9238768 0 -0.3826901
vn 0.9238768 0 -0.3826901
vn 0.9238768 0 -0.3826901
vn 0.9238768 0 -0.3826901
vn 0.3826675 0 -0.9238862
vn 0.3826675 0 -0.9238862
vn 0.3826675 0 -0.9238862
vn 0.3826675 0 -0.9238862
vn 0 0 -1
vn 0 0 -1
vn 0 0 -1
vn 0 0 -1
vn -0.3826901 0 -0.9238768
vn -0.3826901 0 -0.9238768
vn -0.3826901 0 -0.9238768
vn -0.3826901 0 -0.9238768
vn -0.9238691 0 -0.3827084
vn -0.9238691 0 -0.3827084
vn -0.9238691 0 -0.3827084
vn -0.9238691 0 -0.3827084
vn 1 0 0
vn 1 0 0
vn 1 0 0
vn 1 0 0
vn 0 0 1
vn 0 0 1
vn 0 0 1
vn 0 0 1
vn -1 0 0
vn -1 0 0
vn -1 0 0
vn -1 0 0
vn -0.9238768 0 0.3826901
vn -0.9238768 0 0.3826901
vn -0.9238768 0 0.3826901
vn -0.9238768 0 0.3826901
vn -0.3826675 0 0.9238862
vn -0.3826675 0 0.9238862
vn -0.3826675 0 0.9238862
vn -0.3826675 0 0.9238862
vn 0.3826901 0 0.9238768
vn 0.3826901 0 0.9238768
vn 0.3826901 0 0.9238768
vn 0.3826901 0 0.9238768
vn 0.9238691 0 0.3827084
vn 0.9238691 0 0.3827084
vn 0.9238691 0 0.3827084
vn 0.9238691 0 0.3827084
vn 1 0 0
vn 1 0 0
vn 1 0 0
vn 1 0 0
vn 0 0 1
vn 0 0 1
vn 0 0 1
vn 0 0 1
vn -1 0 0
vn -1 0 0
vn -1 0 0
vn -1 0 0
vn -0.7071068 -0.7071068 0
vn -0.7071068 -0.7071068 0
vn -0.7071068 -0.7071068 0
vn -0.7071068 -0.7071068 0
vn 0.7071068 -0.7071068 0
vn 0.7071068 -0.7071068 0
vn 0.7071068 -0.7071068 0
vn 0.7071068 -0.7071068 0
vn 0 -1 0
vn 0 -1 0
vn 0 -1 0
vn 0 -1 0
vn 1.135796E-05 -1 0
vn -1.166446E-05 -1 0
vn -1.166446E-05 -1 0
vn 3.024803E-06 -1 0
vn 3.024803E-06 -1 0
vn 3.024804E-06 -1 0
vn 2.83791E-06 -1 0
vn 2.83791E-06 -1 0
vn 2.83791E-06 -1 0
vn 0 1 0
vn 0 1 0
vn 0 1 0
vn 5.264229E-06 1 0
vn 5.264229E-06 1 0
vn -2.908958E-06 1 0
vn -2.908958E-06 1 0
vn 0 1 0
vn 0 1 0
vn 2.117337E-05 1 0
vn 2.117336E-05 1 0
vn -1.209841E-05 1 0
vn -1.209841E-05 1 0
vn 9.125153E-07 1 0
vn 9.125154E-07 1 0
vn 0 1 0
vn 0 1 0
vn 0 1 0
vn 0 1 0
vn 0 -1 0
vn 0 -1 0
vn 0 -1 0
vn 0 -1 0
vn 9.631314E-06 -1 0
vn 9.631312E-06 -1 0
vn 9.631314E-06 -1 0
vn -6.648937E-06 -1 0
vn -6.648936E-06 -1 0
vn -6.648936E-06 -1 0
vn -6.648937E-06 -1 0
vn 0 -1 0
vn 0 -1 0
vn 0 -1 0
vn 0 -1 0
vn 0 -1 0
vn 0 -0.0004460987 0.9999999
vn 0 -0.0004460987 0.9999999
vn 0 0 1
vn 0 -0.0004460987 0.9999999
vn -1.249106E-05 6.039652E-05 1
vn -1.249106E-05 6.039652E-05 1
vn 3.69428E-05 -4.692567E-05 1
vn 3.69428E-05 -4.692567E-05 1
vn 3.69428E-05 -4.692567E-05 1
vn 0 -3.453262E-05 1
vn 0 8.543905E-05 1
vn 0 0 1
vn 0 0 1
vn 0 0 1
vn 0 0 1
usemtl Light_Fixture
f 1/1/1 3/3/3 2/2/2 
f 2/2/2 5/5/5 4/4/4 
f 4/4/4 5/5/5 6/6/6 
f 4/4/4 6/6/6 7/7/7 
f 4/4/4 9/9/9 8/8/8 
f 4/4/4 10/10/10 9/9/9 
f 11/11/11 13/13/13 12/12/12 
f 14/14/14 16/16/16 15/15/15 
f 17/17/17 19/19/19 18/18/18 
f 20/20/20 22/22/22 21/21/21 
f 23/23/23 25/25/25 24/24/24 
f 26/26/26 28/28/28 27/27/27 
f 29/29/29 31/31/31 30/30/30 
f 29/29/29 32/32/32 31/31/31 
f 33/33/33 35/35/35 34/34/34 
f 33/33/33 36/36/36 35/35/35 
f 37/37/37 39/39/39 38/38/38 
f 37/37/37 40/40/40 39/39/39 
f 41/41/41 43/43/43 42/42/42 
f 41/41/41 44/44/44 43/43/43 
f 45/45/45 44/44/44 41/41/41 
f 45/45/45 46/46/46 44/44/44 
f 47/47/47 49/49/49 48/48/48 
f 47/47/47 50/50/50 49/49/49 
f 51/51/51 53/53/53 52/52/52 
f 51/51/51 52/52/52 54/54/54 
f 54/54/54 52/52/52 55/55/55 
f 54/54/54 55/55/55 56/56/56 
f 57/57/57 59/59/59 58/58/58 
f 57/57/57 60/60/60 59/59/59 
f 61/61/61 63/63/63 62/62/62 
f 61/61/61 64/64/64 63/63/63 
f 65/65/65 67/67/67 66/66/66 
f 65/65/65 68/68/68 67/67/67 
f 69/69/69 71/71/71 70/70/70 
f 69/69/69 72/72/72 71/71/71 
f 73/73/73 75/75/75 74/74/74 
f 73/73/73 76/76/76 75/75/75 
f 77/77/77 79/79/79 78/78/78 
f 77/77/77 80/80/80 79/79/79 
f 81/81/81 83/83/83 82/82/82 
f 81/81/81 84/84/84 83/83/83 
f 85/85/85 87/87/87 86/86/86 
f 85/85/85 88/88/88 87/87/87 
f 89/89/89 91/91/91 90/90/90 
f 89/89/89 92/92/92 91/91/91 
f 93/93/93 95/95/95 94/94/94 
f 93/93/93 96/96/96 95/95/95 
f 97/97/97 99/99/99 98/98/98 
f 97/97/97 100/100/100 99/99/99 
f 101/101/101 103/103/103 102/102/102 
f 101/101/101 104/104/104 103/103/103 
f 105/105/105 107/107/107 106/106/106 
f 105/105/105 108/108/108 107/107/107 
f 109/109/109 111/111/111 110/110/110 
f 109/109/109 112/112/112 111/111/111 
f 113/113/113 115/115/115 114/114/114 
f 113/113/113 116/116/116 115/115/115 
f 117/117/117 119/119/119 118/118/118 
f 117/117/117 120/120/120 119/119/119 
f 121/121/121 123/123/123 122/122/122 
f 121/121/121 124/124/124 123/123/123 
f 125/125/125 127/127/127 126/126/126 
f 125/125/125 128/128/128 127/127/127 
f 129/129/129 131/131/131 130/130/130 
f 129/129/129 132/132/132 131/131/131 
f 133/133/133 135/135/135 134/134/134 
f 133/133/133 134/134/134 136/136/136 
f 137/137/137 133/133/133 138/138/138 
f 139/139/139 137/137/137 138/138/138 
f 140/140/140 133/133/133 137/137/137 
f 133/133/133 140/140/140 141/141/141 
f 141/141/141 140/140/140 142/142/142 
f 141/141/141 142/142/142 143/143/143 
f 144/144/144 137/137/137 139/139/139 
f 144/144/144 139/139/139 145/145/145 
f 144/144/144 145/145/145 146/146/146 
f 137/137/137 144/144/144 147/147/147 
f 147/147/147 148/148/148 137/137/137 
f 147/147/147 149/149/149 148/148/148 
f 150/150/150 152/152/152 151/151/151 
f 150/150/150 151/151/151 153/153/153 
f 150/150/150 153/153/153 154/154/154 
f 150/150/150 154/154/154 155/155/155 
f 156/156/156 150/150/150 155/155/155 
f 157/157/157 158/158/158 154/154/154 
f 159/159/159 157/157/157 160/160/160 
f 161/161/161 159/159/159 160/160/160 
f 162/162/162 164/164/164 163/163/163 
f 165/165/165 164/164/164 162/162/162 
f 165/165/165 166/166/166 164/164/164 
f 167/167/167 166/166/166 165/165/165 
f 167/167/167 168/168/168 166/166/166 
f 169/169/169 168/168/168 167/167/167 
f 169/169/169 170/170/170 168/168/168 
f 171/171/171 170/170/170 169/169/169 
f 171/171/171 172/172/172 170/170/170 
f 173/173/173 172/172/172 171/171/171 
f 173/173/173 174/174/174 172/172/172 
f 175/175/175 174/174/174 173/173/173 
f 175/175/175 176/176/176 174/174/174 
f 176/176/176 175/175/175 177/177/177 
f 177/177/177 178/178/178 176/176/176 
f 179/179/179 178/178/178 177/177/177 
f 179/179/179 177/177/177 180/180/180 
f 181/181/181 183/183/183 182/182/182 
f 181/181/181 184/184/184 183/183/183 
f 185/185/185 187/187/187 186/186/186 
f 185/185/185 188/188/188 187/187/187 
f 189/189/189 187/187/187 190/190/190 
f 189/189/189 190/190/190 191/191/191 
f 192/192/192 194/194/194 193/193/193 
f 192/192/192 195/195/195 194/194/194 
f 196/196/196 198/198/198 197/197/197 
f 196/196/196 197/197/197 199/199/199 
f 199/199/199 197/197/197 200/200/200 
f 201/201/201 203/203/203 202/202/202 
f 201/201/201 204/204/204 203/203/203 
f 205/205/205 207/207/207 206/206/206 
f 205/205/205 206/206/206 208/208/208 
f 209/209/209 211/211/211 210/210/210 
f 209/209/209 212/212/212 211/211/211 
f 213/213/213 215/215/215 214/214/214 
f 213/213/213 216/216/216 215/215/215 
f 217/217/217 219/219/219 218/218/218 
f 217/217/217 218/218/218 220/220/220 
f 221/221/221 220/220/220 222/222/222 
f 221/221/221 223/223/223 220/220/220 
f 224/224/224 226/226/226 225/225/225 
f 224/224/224 227/227/227 226/226/226 
f 228/228/228 230/230/230 229/229/229 
f 228/228/228 231/231/231 230/230/230 
f 232/232/232 233/233/233 230/230/230 
f 232/232/232 234/234/234 233/233/233 
f 235/235/235 237/237/237 236/236/236 
f 235/235/235 238/238/238 237/237/237 
f 239/239/239 241/241/241 240/240/240 
f 239/239/239 242/242/242 241/241/241 
f 243/243/243 245/245/245 244/244/244 
f 243/243/243 246/246/246 245/245/245 
f 247/247/247 249/249/249 248/248/248 
f 247/247/247 250/250/250 249/249/249 
f 251/251/251 253/253/253 252/252/252 
f 251/251/251 254/254/254 253/253/253 
f 255/255/255 257/257/257 256/256/256 
f 255/255/255 258/258/258 257/257/257 
f 259/259/259 261/261/261 260/260/260 
f 259/259/259 262/262/262 261/261/261 
f 263/263/263 265/265/265 264/264/264 
f 263/263/263 266/266/266 265/265/265 
f 267/267/267 269/269/269 268/268/268 
f 267/267/267 270/270/270 269/269/269 
f 271/271/271 273/273/273 272/272/272 
f 271/271/271 274/274/274 273/273/273 
f 275/275/275 277/277/277 276/276/276 
f 275/275/275 278/278/278 277/277/277 
f 279/279/279 281/281/281 280/280/280 
f 279/279/279 282/282/282 281/281/281 
f 283/283/283 285/285/285 284/284/284 
f 283/283/283 286/286/286 285/285/285 
f 287/287/287 289/289/289 288/288/288 
f 287/287/287 290/290/290 289/289/289 
f 291/291/291 293/293/293 292/292/292 
f 291/291/291 294/294/294 293/293/293 
f 295/295/295 297/297/297 296/296/296 
f 295/295/295 298/298/298 297/297/297 
f 299/299/299 301/301/301 300/300/300 
f 299/299/299 302/302/302 301/301/301 
f 303/303/303 305/305/305 304/304/304 
f 306/306/306 303/303/303 304/304/304 
f 306/306/306 304/304/304 307/307/307 
f 308/308/308 306/306/306 307/307/307 
f 308/308/308 307/307/307 309/309/309 
f 310/310/310 308/308/308 309/309/309 
f 310/310/310 309/309/309 311/311/311 
f 312/312/312 310/310/310 311/311/311 
f 312/312/312 311/311/311 313/313/313 
f 314/314/314 312/312/312 313/313/313 
f 314/314/314 313/313/313 315/315/315 
f 315/315/315 316/316/316 314/314/314 
f 317/317/317 316/316/316 315/315/315 
f 316/316/316 317/317/317 318/318/318 
f 318/318/318 317/317/317 319/319/319 
f 320/320/320 318/318/318 319/319/319 
f 320/320/320 321/321/321 318/318/318 
f 322/322/322 324/324/324 323/323/323 
f 322/322/322 323/323/323 325/325/325 
f 326/326/326 322/322/322 325/325/325 
f 326/326/326 325/325/325 327/327/327 
f 326/326/326 327/327/327 328/328/328 
f 326/326/326 328/328/328 329/329/329 
f 330/330/330 326/326/326 329/329/329 
f 331/331/331 330/330/330 329/329/329 
f 332/332/332 331/331/331 329/329/329 
f 332/332/332 333/333/333 331/331/331 
f 334/334/334 335/335/335 323/323/323 
f 334/334/334 336/336/336 335/335/335 
f 337/337/337 339/339/339 338/338/338 
f 337/337/337 340/340/340 339/339/339 
f 341/341/341 342/342/342 339/339/339 
f 341/341/341 343/343/343 342/342/342 
f 343/343/343 344/344/344 342/342/342 
f 345/345/345 347/347/347 346/346/346 
f 345/345/345 346/346/346 348/348/348 
f 345/345/345 348/348/348 349/349/349 
f 350/350/350 345/345/345 349/349/349 
f 351/351/351 352/352/352 349/349/349 
f 351/351/351 353/353/353 352/352/352 
f 353/353/353 354/354/354 352/352/352 
f 355/355/355 357/357/357 356/356/356 
f 355/355/355 356/356/356 358/358/358 
f 359/359/359 361/361/361 360/360/360 
f 359/359/359 362/362/362 361/361/361 
f 363/363/363 365/365/365 364/364/364 
f 363/363/363 366/366/366 365/365/365 
f 367/367/367 369/369/369 368/368/368 
f 367/367/367 370/370/370 369/369/369 
f 371/371/371 373/373/373 372/372/372 
f 371/371/371 374/374/374 373/373/373 
f 375/375/375 377/377/377 376/376/376 
f 375/375/375 376/376/376 378/378/378 
f 379/379/379 378/378/378 380/380/380 
f 379/379/379 381/381/381 378/378/378 
f 382/382/382 384/384/384 383/383/383 
f 382/382/382 385/385/385 384/384/384 
f 386/386/386 388/388/388 387/387/387 
f 386/386/386 389/389/389 388/388/388 
f 390/390/390 391/391/391 388/388/388 
f 390/390/390 392/392/392 391/391/391 
f 393/393/393 395/395/395 394/394/394 
f 393/393/393 396/396/396 395/395/395 
f 397/397/397 399/399/399 398/398/398 
f 397/397/397 400/400/400 399/399/399 
f 401/401/401 403/403/403 402/402/402 
f 401/401/401 404/404/404 403/403/403 
f 405/405/405 407/407/407 406/406/406 
f 405/405/405 408/408/408 407/407/407 
f 409/409/409 411/411/411 410/410/410 
f 409/409/409 412/412/412 411/411/411 
f 413/413/413 415/415/415 414/414/414 
f 413/413/413 416/416/416 415/415/415 
f 417/417/417 419/419/419 418/418/418 
f 417/417/417 420/420/420 419/419/419 
f 421/421/421 423/423/423 422/422/422 
f 421/421/421 424/424/424 423/423/423 
f 425/425/425 427/427/427 426/426/426 
f 425/425/425 428/428/428 427/427/427 
f 429/429/429 431/431/431 430/430/430 
f 429/429/429 432/432/432 431/431/431 
f 433/433/433 435/435/435 434/434/434 
f 433/433/433 436/436/436 435/435/435 
f 437/437/437 439/439/439 438/438/438 
f 437/437/437 440/440/440 439/439/439 
f 441/441/441 443/443/443 442/442/442 
f 441/441/441 444/444/444 443/443/443 
f 445/445/445 447/447/447 446/446/446 
f 445/445/445 448/448/448 447/447/447 
f 449/449/449 451/451/451 450/450/450 
f 449/449/449 452/452/452 451/451/451 
f 453/453/453 455/455/455 454/454/454 
f 453/453/453 456/456/456 455/455/455 
f 457/457/457 459/459/459 458/458/458 
f 457/457/457 460/460/460 459/459/459 
f 461/461/461 463/463/463 462/462/462 
f 461/461/461 464/464/464 463/463/463 
f 465/465/465 467/467/467 466/466/466 
f 465/465/465 468/468/468 467/467/467 
f 469/469/469 471/471/471 470/470/470 
f 469/469/469 472/472/472 471/471/471 
f 469/469/469 473/473/473 472/472/472 
f 473/473/473 469/469/469 474/474/474 
f 472/472/472 473/473/473 475/475/475 
f 473/473/473 476/476/476 475/475/475 
f 476/476/476 477/477/477 475/475/475 
f 476/476/476 478/478/478 477/477/477 
f 479/479/479 476/476/476 473/473/473 
f 476/476/476 479/479/479 480/480/480 
f 480/480/480 479/479/479 481/481/481 
f 480/480/480 481/481/481 482/482/482 
f 474/474/474 484/484/484 483/483/483 
f 474/474/474 483/483/483 485/485/485 
f 486/486/486 488/488/488 487/487/487 
f 486/486/486 487/487/487 489/489/489 
f 490/490/490 486/486/486 489/489/489 
f 491/491/491 490/490/490 489/489/489 
f 486/486/486 493/493/493 492/492/492 
f 486/486/486 494/494/494 493/493/493 
f 494/494/494 495/495/495 493/493/493 
f 494/494/494 496/496/496 495/495/495 
f 497/497/497 498/498/498 495/495/495 
f 497/497/497 499/499/499 498/498/498 
f 500/500/500 501/501/501 498/498/498 
f 500/500/500 502/502/502 501/501/501 
f 502/502/502 503/503/503 501/501/501 
f 502/502/502 504/504/504 503/503/503 
f 504/504/504 505/505/505 503/503/503 
f 506/506/506 508/508/508 507/507/507 
f 509/509/509 506/506/506 507/507/507 
f 509/509/509 507/507/507 510/510/510 
f 511/511/511 509/509/509 510/510/510 
f 511/511/511 510/510/510 512/512/512 
f 513/513/513 511/511/511 512/512/512 
f 513/513/513 512/512/512 514/514/514 
f 515/515/515 513/513/513 514/514/514 
f 515/515/515 514/514/514 516/516/516 
f 517/517/517 515/515/515 516/516/516 
f 517/517/517 516/516/516 518/518/518 
f 518/518/518 519/519/519 517/517/517 
f 520/520/520 519/519/519 518/518/518 
f 519/519/519 520/520/520 521/521/521 
f 521/521/521 520/520/520 522/522/522 
f 523/523/523 521/521/521 522/522/522 
f 523/523/523 524/524/524 521/521/521 
f 525/525/525 527/527/527 526/526/526 
f 525/525/525 528/528/528 527/527/527 
f 529/529/529 531/531/531 530/530/530 
f 529/529/529 532/532/532 531/531/531 
f 533/533/533 535/535/535 534/534/534 
f 533/533/533 534/534/534 536/536/536 
f 536/536/536 537/537/537 533/533/533 
f 533/533/533 537/537/537 538/538/538 
f 539/539/539 537/537/537 540/540/540 
f 539/539/539 541/541/541 537/537/537 
f 542/542/542 541/541/541 539/539/539 
f 543/543/543 545/545/545 544/544/544 
f 543/543/543 546/546/546 545/545/545 
f 547/547/547 549/549/549 548/548/548 
f 547/547/547 550/550/550 549/549/549 
f 551/551/551 553/553/553 552/552/552 
f 551/551/551 554/554/554 553/553/553 
f 555/555/555 554/554/554 551/551/551 
f 555/555/555 556/556/556 554/554/554 
f 557/557/557 559/559/559 558/558/558 
f 557/557/557 560/560/560 559/559/559 
f 561/561/561 563/563/563 562/562/562 
f 561/561/561 562/562/562 564/564/564 
f 564/564/564 562/562/562 565/565/565 
f 564/564/564 565/565/565 566/566/566 
f 567/567/567 569/569/569 568/568/568 
f 567/567/567 570/570/570 569/569/569 
f 571/571/571 573/573/573 572/572/572 
f 571/571/571 574/574/574 573/573/573 
f 575/575/575 577/577/577 576/576/576 
f 575/575/575 578/578/578 577/577/577 
f 579/579/579 581/581/581 580/580/580 
f 579/579/579 582/582/582 581/581/581 
f 583/583/583 585/585/585 584/584/584 
f 583/583/583 586/586/586 585/585/585 
f 587/587/587 589/589/589 588/588/588 
f 587/587/587 590/590/590 589/589/589 
f 591/591/591 593/593/593 592/592/592 
f 591/591/591 594/594/594 593/593/593 
f 595/595/595 597/597/597 596/596/596 
f 595/595/595 598/598/598 597/597/597 
f 599/599/599 601/601/601 600/600/600 
f 599/599/599 602/602/602 601/601/601 
f 603/603/603 605/605/605 604/604/604 
f 603/603/603 606/606/606 605/605/605 
f 607/607/607 609/609/609 608/608/608 
f 607/607/607 610/610/610 609/609/609 
f 611/611/611 613/613/613 612/612/612 
f 611/611/611 614/614/614 613/613/613 
f 615/615/615 617/617/617 616/616/616 
f 615/615/615 618/618/618 617/617/617 
f 619/619/619 621/621/621 620/620/620 
f 619/619/619 622/622/622 621/621/621 
f 623/623/623 625/625/625 624/624/624 
f 623/623/623 626/626/626 625/625/625 
f 627/627/627 629/629/629 628/628/628 
f 627/627/627 630/630/630 629/629/629 
f 631/631/631 633/633/633 632/632/632 
f 631/631/631 634/634/634 633/633/633 
f 635/635/635 637/637/637 636/636/636 
f 635/635/635 638/638/638 637/637/637 
f 639/639/639 638/638/638 635/635/635 
f 640/640/640 641/641/641 639/639/639 
f 635/635/635 643/643/643 642/642/642 
f 635/635/635 644/644/644 643/643/643 
f 645/645/645 641/641/641 646/646/646 
f 645/645/645 646/646/646 647/647/647 
f 648/648/648 650/650/650 649/649/649 
f 651/651/651 650/650/650 648/648/648 
f 651/651/651 652/652/652 650/650/650 
f 653/653/653 652/652/652 651/651/651 
f 653/653/653 654/654/654 652/652/652 
f 655/655/655 654/654/654 653/653/653 
f 655/655/655 656/656/656 654/654/654 
f 657/657/657 656/656/656 655/655/655 
f 657/657/657 658/658/658 656/656/656 
f 659/659/659 658/658/658 657/657/657 
f 659/659/659 660/660/660 658/658/658 
f 661/661/661 660/660/660 659/659/659 
f 661/661/661 662/662/662 660/660/660 
f 662/662/662 661/661/661 663/663/663 
f 663/663/663 664/664/664 662/662/662 
f 665/665/665 664/664/664 663/663/663 
f 665/665/665 663/663/663 666/666/666 
f 667/667/667 669/669/669 668/668/668 
f 667/667/667 670/670/670 669/669/669 
f 671/671/671 669/669/669 672/672/672 
f 671/671/671 672/672/672 673/673/673 
f 674/674/674 676/676/676 675/675/675 
f 674/674/674 677/677/677 676/676/676 
f 678/678/678 680/680/680 679/679/679 
f 678/678/678 679/679/679 681/681/681 
f 681/681/681 679/679/679 682/682/682 
f 683/683/683 685/685/685 684/684/684 
f 683/683/683 684/684/684 686/686/686 
f 686/686/686 687/687/687 683/683/683 
f 683/683/683 687/687/687 688/688/688 
f 686/686/686 689/689/689 687/687/687 
f 690/690/690 689/689/689 691/691/691 
f 691/691/691 689/689/689 692/692/692 
f 692/692/692 689/689/689 693/693/693 
f 694/694/694 696/696/696 695/695/695 
f 694/694/694 697/697/697 696/696/696 
