# exported by StudySceneExporter from mesh 'Paper003'
mtllib materials.mtl
v 0.00448821 -0.008177459 0.00186936
v 0.0050968 -0.00828804 0.00208789
v 0.00485228 -0.00824361 0.00192501
v -0.0076799 -0.00596642 0.0032451
v -0.00752665 -0.00599427 0.0029673
v -0.00745801 -0.00600674 0.00263903
v -0.00752665 -0.00599427 0.00231075
v -0.0076799 -0.00596642 0.00203295
v -0.007858059 -0.00593405 0.00186937
v 0.0050968 -0.00828804 0.00321833
v 0.005381289 -0.008339739 0.00263902
v 0.00529269 -0.00832364 0.00234133
v 0.00529269 -0.00832364 0.00293671
v 0.00459212 -0.00819634 0.00342098
v 0.00485228 -0.00824361 0.00338121
v -0.007840759 -0.00593719 0.00342098
v 0.00712589 0.0063386 0.00186936
v -0.00504222 0.00854964 0.00203295
v -0.00522038 0.00858201 0.00186937
v -0.00488898 0.00852179 0.00231075
v -0.00482033 0.00850932 0.00263902
v 0.00722979 0.00631972 0.00342098
v -0.00488898 0.00852179 0.0029673
v -0.00504222 0.00854964 0.0032451
v -0.00520309 0.00857887 0.00342098
v 0.00801897 0.006176319 0.00263902
v 0.00773448 0.00622802 0.00208789
v 0.00748995 0.00627245 0.00192501
v 0.00793037 0.00619242 0.00234133
v 0.00773448 0.00622802 0.00321833
v 0.00748995 0.00627245 0.00338121
v 0.00793037 0.00619242 0.00293671
v -0.00504222 0.00854964 0.00203295
v -0.007858059 -0.00593405 0.00186937
v -0.00522038 0.00858201 0.00186937
v -0.0076799 -0.00596642 0.00203295
v -0.00752665 -0.00599427 0.00231075
v -0.00488898 0.00852179 0.00231075
v -0.00745801 -0.00600674 0.00263903
v -0.00482033 0.00850932 0.00263902
v -0.00752665 -0.00599427 0.0029673
v -0.00488898 0.00852179 0.0029673
v -0.0076799 -0.00596642 0.0032451
v -0.00504222 0.00854964 0.0032451
v -0.007840759 -0.00593719 0.00342098
v -0.00520309 0.00857887 0.00342098
vt 0.46042 0.168197
vt 0.700536 0.183038
vt 0.687898 0.171977
vt 0.0401854 0.261628
vt 0.0481058 0.242762
vt 0.0516536 0.220468
vt 0.0481058 0.198173
vt 0.0401854 0.179307
vt 0.0309776 0.168198
vt 0.700536 0.257897
vt 0.71524 0.220468
vt 0.71066 0.20025
vt 0.71066 0.240685
vt 0.674452 0.271659
vt 0.687898 0.268959
vt 0.0318714 0.271659
vt 0.0768405 0.286515
vt 0.702313 0.297755
vt 0.711461 0.286206
vt 0.694451 0.317366
vt 0.690941 0.340536
vt 0.0715844 0.394038
vt 0.694487 0.363703
vt 0.70238 0.383305
vt 0.710657 0.393726
vt 0.0309776 0.340858
vt 0.0455704 0.301954
vt 0.0581303 0.290452
vt 0.0355154 0.319846
vt 0.0456317 0.379748
vt 0.0582095 0.391238
vt 0.0355485 0.361866
vt 0.02 0.0342528
vt 0.98 0.0200001
vt 0.02 0.02
vt 0.98 0.0342528
vt 0.98 0.058372
vt 0.02 0.058372
vt 0.98 0.0868088
vt 0.02 0.0868088
vt 0.98 0.115167
vt 0.02 0.115166
vt 0.98 0.139109
vt 0.02 0.139109
vt 0.98 0.154231
vt 0.02 0.154231
vn -0.17878 -0.9838891 0
vn -0.17878 -0.9838891 2.30589E-07
vn -0.17878 -0.9838891 0
vn -0.17878 -0.9838891 4.08867E-06
vn -0.17878 -0.9838891 0
vn -0.17878 -0.9838891 0
vn -0.17878 -0.9838891 0
vn -0.17878 -0.9838891 0
vn -0.17878 -0.9838891 0
vn -0.17878 -0.9838891 1.2817E-06
vn -0.178781 -0.9838889 3.402309E-07
vn -0.17878 -0.9838891 0
vn -0.178785 -0.9838882 -1.65662E-06
vn -0.17878 -0.9838891 3.20741E-06
vn -0.1787791 -0.9838892 4.639212E-06
vn -0.17878 -0.9838891 6.656021E-06
vn 0.17878 0.9838891 0
vn 0.17878 0.9838891 0
vn 0.17878 0.9838891 0
vn 0.17878 0.9838891 0
vn 0.17878 0.9838891 0
vn 0.17878 0.9838891 -1.90021E-07
vn 0.17878 0.9838891 0
vn 0.17878 0.9838891 0
vn 0.17878 0.9838891 0
vn 0.17878 0.9838891 2.01418E-07
vn 0.17878 0.9838891 0
vn 0.17878 0.9838891 0
vn 0.17878 0.9838891 0
vn 0.178781 0.9838889 1.3466E-06
vn 0.1787791 0.9838892 -4.639212E-06
vn 0.178775 0.9838901 -1.49109E-06
vn -0.7616182 0.138392 0.6330761
vn -0.6595479 0.119845 0.742047
vn -0.6595479 0.119845 0.742047
vn -0.7616182 0.138392 0.6330761
vn -0.918784 0.16695 0.35772
vn -0.918784 0.16695 0.35772
vn -0.9838891 0.17878 0
vn -0.9838891 0.17878 0
vn -0.918784 0.16695 -0.35772
vn -0.918784 0.16695 -0.35772
vn -0.7915248 0.1438259 -0.5939718
vn -0.7915239 0.143826 -0.593973
vn -0.7206149 0.130941 -0.6808589
vn -0.7206129 0.130941 -0.6808608
usemtl paper
f 1/1/1 3/3/3 2/2/2 
f 1/1/1 2/2/2 4/4/4 
f 1/1/1 4/4/4 5/5/5 
f 1/1/1 5/5/5 6/6/6 
f 1/1/1 6/6/6 7/7/7 
f 1/1/1 7/7/7 8/8/8 
f 1/1/1 8/8/8 9/9/9 
f 2/2/2 10/10/10 4/4/4 
f 2/2/2 11/11/11 10/10/10 
f 2/2/2 12/12/12 11/11/11 
f 11/11/11 13/13/13 10/10/10 
f 10/10/10 14/14/14 4/4/4 
f 10/10/10 15/15/15 14/14/14 
f 14/14/14 16/16/16 4/4/4 
f 17/17/17 19/19/19 18/18/18 
f 17/17/17 18/18/18 20/20/20 
f 17/17/17 20/20/20 21/21/21 
f 17/17/17 21/21/21 22/22/22 
f 21/21/21 23/23/23 22/22/22 
f 23/23/23 24/24/24 22/22/22 
f 24/24/24 25/25/25 22/22/22 
f 17/17/17 22/22/22 26/26/26 
f 17/17/17 26/26/26 27/27/27 
f 17/17/17 27/27/27 28/28/28 
f 26/26/26 29/29/29 27/27/27 
f 22/22/22 30/30/30 26/26/26 
f 22/22/22 31/31/31 30/30/30 
f 30/30/30 32/32/32 26/26/26 
f 33/33/33 35/35/35 34/34/34 
f 34/34/34 36/36/36 33/33/33 
f 33/33/33 36/36/36 37/37/37 
f 37/37/37 38/38/38 33/33/33 
f 38/38/38 37/37/37 39/39/39 
f 39/39/39 40/40/40 38/38/38 
f 40/40/40 39/39/39 41/41/41 
f 41/41/41 42/42/42 40/40/40 
f 42/42/42 41/41/41 43/43/43 
f 43/43/43 44/44/44 42/42/42 
f 44/44/44 43/43/43 45/45/45 
f 45/45/45 46/46/46 44/44/44 
