# exported by StudySceneExporter from mesh 'Screwdriver_L_Handle_low'
mtllib materials.mtl
v -0.009666729 0.003699341 -0.05570206
v -0.008449611 0.0006381035 -0.04321564
v -0.007954006 0.001092815 -0.05572876
v -0.009967327 0.003423595 -0.04811355
v -0.008355427 0.00846859 -0.05547684
v -0.008656025 0.008192844 -0.04788833
v -0.005110416 0.0121936 -0.05521301
v -0.005410976 0.01191786 -0.04762436
v -0.001998119 0.01220486 -0.05508926
v -0.002493229 0.01175064 -0.0425888
v -4.735947E-05 0.0146351 -0.05492355
v -0.006866092 0.006848926 -0.0412323
v -0.00642683 0.006192055 -0.03391968
v -0.007452602 0.0004948043 -0.03416733
v -0.0003479194 0.01435938 -0.04733505
v 0.004898891 0.01485628 -0.05471954
v 0.004598331 0.01458052 -0.04713104
v 0.009452038 0.01291294 -0.05460998
v 0.009151477 0.0126372 -0.04702148
v 0.01042852 0.009951324 -0.0546788
v 0.009932957 0.009496669 -0.0421669
v 0.01334421 0.008847217 -0.05460342
v 0.003923817 0.01204899 -0.04061615
v 0.003488331 0.0109705 -0.03335327
v 0.008590489 0.008226509 -0.03325104
v 0.01304365 0.008571472 -0.04701492
v 0.01508715 0.004214268 -0.05470276
v 0.01478659 0.003938522 -0.04711426
v 0.01221773 0.003385639 -0.04060226
v 0.01110983 0.003009529 -0.03334076
v -0.002247791 0.0101934 -0.03360885
v 0.01186243 0.007602405 -0.02267807
v 0.01217382 0.002927627 -0.02598251
v 0.01365461 0.008212166 -0.01841263
v 0.01547956 0.003149433 -0.01852432
v 0.01107851 0.005848846 0.04662628
v 0.01290342 0.0007861137 0.04651459
v 0.009121533 0.00508791 0.046521
v 0.006106243 0.005986004 0.05444672
v 0.009287624 0.008904914 -0.02587906
v 0.005351696 0.009022713 0.04651489
v 0.008092784 0.01153738 -0.0226889
v 0.006196651 0.01094799 0.04661819
v 0.003441219 0.01204914 -0.02599686
v 0.008772754 0.01331133 -0.01842087
v 0.001218853 0.01299108 0.04649536
v 0.003794994 0.01535442 -0.0185437
v -0.004153385 0.01282772 0.0462767
v -0.001577244 0.01519104 -0.01876236
v -0.004040012 0.0107139 0.04620422
v -0.001298046 0.01322937 -0.0230217
v -0.006320362 0.008239612 0.05403473
v -0.003136463 0.01115829 -0.02628418
v -0.008951664 0.008370514 0.04592468
v -0.006211681 0.01088419 -0.02325211
v -0.01050482 0.009767895 0.04591385
v -0.007919407 0.006574097 -0.02664597
v -0.007928714 0.01213123 -0.01912506
v -0.01398211 0.005665226 0.04562714
v -0.01140596 0.008028584 -0.01941177
v -0.01547956 0.0005012131 0.0453801
v -0.01290346 0.002864532 -0.01965897
v -0.01344637 -3.536224E-05 0.04544113
v -0.01070539 0.002479229 -0.02376037
v -0.01227633 -0.002872505 0.05339691
v -0.009094677 4.63295E-05 -0.02692947
v 0.01465124 -0.0007176399 -0.05489929
v 0.01478659 0.003938522 -0.04711426
v 0.01508715 0.004214268 -0.05470276
v 0.01435068 -0.0009933853 -0.04731079
v 0.01213854 -0.002560654 -0.05506591
v 0.01221773 0.003385639 -0.04060226
v 0.01164339 -0.003014927 -0.04256439
v 0.01199213 -0.005670109 -0.05518448
v 0.01110983 0.003009529 -0.03334076
v 0.01169157 -0.005945873 -0.04759598
v 0.008129482 -0.008750591 -0.05544937
v 0.007828922 -0.009026318 -0.04786087
v 0.00330759 -0.009853325 -0.05568054
v 0.00300703 -0.01012907 -0.04809204
v 0.0007786751 -0.008028812 -0.05571457
v 0.0002830696 -0.008483505 -0.04320145
v -0.002227421 -0.008848705 -0.05586334
v 0.006553745 -0.007168617 -0.04121033
v 0.01008409 -0.00268774 -0.03358841
v 0.01217382 0.002927627 -0.02598251
v 0.005905056 -0.006689091 -0.03389923
v -0.002527981 -0.00912445 -0.04827484
v -0.006358852 -0.006121273 -0.05592789
v -0.006659412 -0.006397037 -0.04833939
v -0.00890398 -0.001874485 -0.05587433
v -0.009204579 -0.00215023 -0.04828583
v -0.007954006 0.001092815 -0.05572876
v -0.008449611 0.0006381035 -0.04321564
v -0.005240726 -0.005028191 -0.04159958
v -0.004933224 -0.004722195 -0.03425705
v -0.007452602 0.0004948043 -0.03416733
v 0.0001689339 -0.007466183 -0.03415481
v -0.006208057 -0.005931186 -0.02703262
v -0.003365421 -0.00981184 -0.02391769
v -0.009966907 -0.002917194 -0.02392715
v -0.009094677 4.63295E-05 -0.02692947
v -0.01270788 -0.005431785 0.04527435
v -0.01227633 -0.002872505 0.05339691
v -0.01452288 -0.006489658 0.04516388
v -0.01194677 -0.004126339 -0.01987503
v -0.01169222 -0.01106737 0.04510986
v -0.009116115 -0.008704033 -0.0199292
v -0.007243137 -0.01409424 0.04517593
v -0.004667034 -0.01173092 -0.01986298
v -0.006106434 -0.01232647 0.04528534
v -0.003543644 -0.01199411 0.0534111
v -0.0003620338 -0.009075279 -0.02691498
v -0.0007478523 -0.0133004 0.04546219
v 0.001993084 -0.01078587 -0.02373794
v -0.0003009605 -0.01535442 0.04540512
v 0.006210232 -0.008184852 -0.02662247
v 0.002275143 -0.01299108 -0.01963379
v 0.004923916 -0.01408285 0.04565826
v 0.007500057 -0.01171953 -0.01938065
v 0.009173488 -0.0107873 0.04594635
v 0.01174963 -0.008423977 -0.01909271
v 0.007844791 -0.009173259 0.0459523
v 0.01058489 -0.006659489 -0.02322678
v 0.007816295 -0.006525917 0.05405823
v 0.01099787 -0.003605003 -0.02626144
v 0.01040113 -0.004368763 0.04622818
v 0.01314302 -0.001853371 -0.0229956
v 0.0125065 -0.004574566 0.04630417
v 0.01547956 0.003149433 -0.01852432
v 0.01508261 -0.002211246 -0.01873489
v 0.01290342 0.0007861137 0.04651459
v -0.0006427574 -0.01475136 0.0498584
v 0.004923916 -0.01408285 0.04565826
v -0.0003009605 -0.01535442 0.04540512
v -0.0007478523 -0.0133004 0.04546219
v 0.004413509 -0.01355043 0.05010239
v 0.009173488 -0.0107873 0.04594635
v -0.001002827 -0.0135343 0.05189911
v -0.003543644 -0.01199411 0.0534111
v 0.008501186 -0.01034489 0.05038071
v 0.003370113 -0.01177378 0.05337952
v 0.007590465 -0.009406585 0.0523732
v 0.007844791 -0.009173259 0.0459523
v 0.007816295 -0.006525917 0.05405823
v -0.003120785 -0.009409619 0.05480774
v 0.001814403 -0.008741055 0.05502747
v -0.001723576 -0.001506615 0.05592789
v -0.007510548 -0.007048778 0.05471954
v 0.005409908 -0.005298404 0.0552948
v -0.006361485 -0.01256044 0.05172439
v -0.006106434 -0.01232647 0.04528534
v -0.007243137 -0.01409424 0.04517593
v 0.01014547 -0.004603329 0.05268326
v 0.01040113 -0.004368763 0.04622818
v 0.01155218 -0.004659519 0.05070816
v 0.0125065 -0.004574566 0.04630417
v 0.01290342 0.0007861137 0.04651459
v 0.01196547 0.0005217743 0.05091278
v 0.01107851 0.005848846 0.04662628
v 0.009753857 0.0001216698 0.05406464
v 0.01017481 0.005404682 0.05101928
v 0.008866634 0.00485405 0.0529573
v 0.009121533 0.00508791 0.046521
v 0.006106243 0.005986004 0.05444672
v 0.006292438 -0.0003966522 0.05550812
v 0.004124851 0.004091892 0.05558517
v 0.005096645 0.0087887 0.05295471
v 0.005351696 0.009022713 0.04651489
v 0.005707073 0.01007139 0.05101181
v 0.006196651 0.01094799 0.04661819
v 0.001218853 0.01299108 0.04649536
v 0.0009069633 0.01207273 0.05089447
v -0.004153385 0.01282772 0.0462767
v 0.000405941 0.009885903 0.05404907
v -0.004287014 0.0118852 0.05068207
v -0.00429575 0.01047928 0.05266113
v -0.004040012 0.0107139 0.04620422
v -0.006320362 0.008239612 0.05403473
v -0.0002648735 0.006452732 0.05549728
v -0.005200061 0.005784149 0.0552774
v -0.009205951 0.008137264 0.05234375
v -0.008951664 0.008370514 0.04592468
v -0.01009935 0.009084129 0.05035004
v -0.01050482 0.009767895 0.04591385
v -0.01398211 0.005665226 0.04562714
v -0.01347944 0.005139465 0.05007278
v -0.01547956 0.0005012131 0.0453801
v -0.01175508 0.004025097 0.05335449
v -0.008795604 0.002341499 0.05500992
v -0.01489904 0.0001406288 0.0498349
v -0.01370138 -0.0002692986 0.05187927
v -0.01344637 -3.536224E-05 0.04544113
v -0.01227633 -0.002872505 0.05339691
v -0.009678135 -0.002560234 0.0547969
v -0.01296289 -0.005665722 0.05171234
v -0.01270788 -0.005431785 0.04527435
v -0.009923191 -0.009361362 0.05294067
v -0.01402346 -0.006257305 0.04963715
v -0.01452288 -0.006489658 0.04516388
v -0.01169222 -0.01106737 0.04510986
v -0.01131227 -0.01069654 0.04958313
v -0.006996098 -0.01359816 0.04964859
v 0.01465124 -0.0007176399 -0.05489929
v 0.002680225 0.002533455 -0.05525528
v 0.01213854 -0.002560654 -0.05506591
v 0.01508715 0.004214268 -0.05470276
v 0.01199213 -0.005670109 -0.05518448
v 0.01334421 0.008847217 -0.05460342
v 0.008129482 -0.008750591 -0.05544937
v 0.01042852 0.009951324 -0.0546788
v 0.00330759 -0.009853325 -0.05568054
v 0.009452038 0.01291294 -0.05460998
v 0.0007786751 -0.008028812 -0.05571457
v 0.004898891 0.01485628 -0.05471954
v -0.002227421 -0.008848705 -0.05586334
v -4.735947E-05 0.0146351 -0.05492355
v -0.006358852 -0.006121273 -0.05592789
v -0.001998119 0.01220486 -0.05508926
v -0.00890398 -0.001874485 -0.05587433
v -0.005110416 0.0121936 -0.05521301
v -0.007954006 0.001092815 -0.05572876
v -0.008355427 0.00846859 -0.05547684
v -0.009666729 0.003699341 -0.05570206
vt 0.6909966 0.4718182
vt 0.6688659 0.4722823
vt 0.6898956 0.4772911
vt 0.6781979 0.4693887
vt 0.6922448 0.4631467
vt 0.679359 0.461472
vt 0.6929793 0.4545162
vt 0.6799836 0.4534147
vt 0.6933646 0.4491212
vt 0.6712761 0.4479775
vt 0.6936076 0.4437305
vt 0.6671567 0.4600761
vt 0.6544303 0.4599185
vt 0.6541944 0.4713857
vt 0.6804388 0.4434425
vt 0.6937323 0.4351215
vt 0.6807079 0.4353338
vt 0.6934533 0.4265302
vt 0.6805468 0.42725
vt 0.6931627 0.4211283
vt 0.6715527 0.4229987
vt 0.6927464 0.4157861
vt 0.6682999 0.4353665
vt 0.6553501 0.434773
vt 0.6558999 0.4225402
vt 0.6799188 0.417124
vt 0.6918588 0.407346
vt 0.6788976 0.4087679
vt 0.6676376 0.4118633
vt 0.6562982 0.4118258
vt 0.6549561 0.4474766
vt 0.6374631 0.4125776
vt 0.6447904 0.4073571
vt 0.6299689 0.4085999
vt 0.6316189 0.3997046
vt 0.5186381 0.4007487
vt 0.5191655 0.3914466
vt 0.5184321 0.4043758
vt 0.5045626 0.4084719
vt 0.6428503 0.4180255
vt 0.5181861 0.4144468
vt 0.636394 0.4221219
vt 0.5179601 0.4181376
vt 0.6420966 0.4332744
vt 0.6282233 0.4244654
vt 0.5175556 0.4275484
vt 0.6283275 0.4321866
vt 0.5172943 0.4369922
vt 0.6275239 0.4398293
vt 0.517205 0.4407103
vt 0.6354575 0.4428854
vt 0.5034182 0.4455365
vt 0.6412362 0.4475636
vt 0.5171031 0.4507872
vt 0.6350801 0.4521227
vt 0.5170166 0.4544574
vt 0.6412296 0.4616922
vt 0.6271133 0.4549162
vt 0.5169469 0.4639003
vt 0.6275197 0.4627337
vt 0.5170224 0.4733946
vt 0.6270006 0.4705241
vt 0.5170709 0.4771122
vt 0.6350545 0.4731796
vt 0.503418 0.482689
vt 0.6413283 0.4775074
vt 0.5044174 0.328872
vt 0.5183682 0.3218741
vt 0.5053163 0.3203373
vt 0.5172706 0.3301996
vt 0.503958 0.3342257
vt 0.5296401 0.3249738
vt 0.5256388 0.3360894
vt 0.5036196 0.3396437
vt 0.5410347 0.3249745
vt 0.5166588 0.3403332
vt 0.503418 0.3482569
vt 0.5164509 0.3484105
vt 0.5036067 0.3568518
vt 0.5166755 0.3565335
vt 0.5037832 0.3622506
vt 0.5258927 0.3610451
vt 0.5041016 0.3676615
vt 0.528873 0.3484592
vt 0.5413725 0.3356864
vt 0.5526086 0.3205585
vt 0.5418488 0.3479215
vt 0.5172091 0.366504
vt 0.5049307 0.3763033
vt 0.5177958 0.3745545
vt 0.5063212 0.3849427
vt 0.518907 0.3824816
vt 0.5073984 0.3904138
vt 0.528195 0.3853627
vt 0.5299577 0.3731703
vt 0.5426326 0.3730741
vt 0.5427935 0.3845453
vt 0.5421729 0.3606238
vt 0.5557897 0.3749195
vt 0.5619748 0.365374
vt 0.5618317 0.3864486
vt 0.5555338 0.390744
vt 0.6801002 0.3909948
vt 0.6937606 0.3966426
vt 0.6801674 0.3872777
vt 0.5699008 0.3838347
vt 0.6802084 0.3778188
vt 0.5694871 0.3760074
vt 0.6801057 0.3683503
vt 0.5699971 0.3682301
vt 0.6800392 0.3646531
vt 0.6937628 0.3594843
vt 0.5558695 0.360793
vt 0.6799965 0.3545732
vt 0.5617213 0.3561323
vt 0.6799297 0.3508818
vt 0.5551256 0.3464913
vt 0.5696061 0.3531406
vt 0.6796384 0.341473
vt 0.5689025 0.3454473
vt 0.6792014 0.3320306
vt 0.5691166 0.3377486
vt 0.678998 0.3283643
vt 0.5610026 0.3353779
vt 0.6926286 0.3224557
vt 0.5545194 0.3312405
vt 0.6788054 0.3182964
vt 0.5598826 0.3258421
vt 0.678618 0.3146429
vt 0.5658447 0.312912
vt 0.5674543 0.3218834
vt 0.6781514 0.3054243
vt 0.5134976 0.2985461
vt 0.5036876 0.291581
vt 0.5063574 0.3014234
vt 0.5087273 0.304688
vt 0.5109937 0.2905092
vt 0.503418 0.2813835
vt 0.5176091 0.2979599
vt 0.5231946 0.299952
vt 0.5110836 0.2820925
vt 0.5172648 0.28959
vt 0.5151565 0.2814801
vt 0.5047436 0.2775986
vt 0.5199585 0.277968
vt 0.5268562 0.2963734
vt 0.5233407 0.288698
vt 0.536716 0.2867374
vt 0.5344493 0.3000627
vt 0.5245037 0.280337
vt 0.5250614 0.3055781
vt 0.5181305 0.3143076
vt 0.5213431 0.3167527
vt 0.5201522 0.2720677
vt 0.5109839 0.2656747
vt 0.518311 0.2683009
vt 0.5133755 0.2623934
vt 0.5219069 0.2568216
vt 0.5251809 0.2634403
vt 0.5315169 0.253418
vt 0.5279919 0.2691221
vt 0.5332127 0.2609264
vt 0.5350688 0.2646395
vt 0.5355487 0.253509
vt 0.5398852 0.2680987
vt 0.5307171 0.2746238
vt 0.5390277 0.2731464
vt 0.5455711 0.266432
vt 0.5488007 0.2557626
vt 0.5485564 0.2635365
vt 0.5526406 0.2570119
vt 0.5605834 0.263401
vt 0.5553048 0.2685648
vt 0.5667921 0.2714794
vt 0.5507731 0.2729977
vt 0.5601813 0.2754233
vt 0.5571958 0.2783723
vt 0.5679653 0.2753692
vt 0.555431 0.284003
vt 0.5463824 0.2772888
vt 0.5503575 0.284735
vt 0.5588043 0.2889057
vt 0.5699117 0.2886853
vt 0.5624427 0.2908283
vt 0.5699117 0.292693
vt 0.5662857 0.3022286
vt 0.559745 0.2988016
vt 0.560513 0.3106337
vt 0.5541302 0.2958609
vt 0.5486909 0.2930101
vt 0.5547256 0.305558
vt 0.5510368 0.3036446
vt 0.5571958 0.3129323
vt 0.5451076 0.3036796
vt 0.5428356 0.2990915
vt 0.5414861 0.3083739
vt 0.5451407 0.3189022
vt 0.5334196 0.3061159
vt 0.5407724 0.3124676
vt 0.5413018 0.3201473
vt 0.5311184 0.3196446
vt 0.5323567 0.3123651
vt 0.5243814 0.3096799
vt 0.6003735 0.2552882
vt 0.5921721 0.2746935
vt 0.6029024 0.2599432
vt 0.5921721 0.253418
vt 0.6081026 0.2609061
vt 0.5839772 0.2552849
vt 0.6124065 0.268119
vt 0.5814542 0.2599394
vt 0.613163 0.2764912
vt 0.576247 0.2609011
vt 0.6095155 0.2803285
vt 0.571938 0.268119
vt 0.6102102 0.2855784
vt 0.5711825 0.2764974
vt 0.6046777 0.2919057
vt 0.5748279 0.2803416
vt 0.5969498 0.2952123
vt 0.5741372 0.2855841
vt 0.5921721 0.2929292
vt 0.5796669 0.2919056
vt 0.5873947 0.2952123
vn -0.845055 -0.08163083 -0.5284111
vn -0.9751227 -0.1387863 0.1728412
vn -0.7943801 -0.09016524 -0.6006917
vn -0.9923976 -0.08343688 0.09047233
vn -0.6962608 0.4074924 -0.5909069
vn -0.8732414 0.4589432 0.1637693
vn -0.3754323 0.7939677 -0.4781902
vn -0.4851898 0.8623106 0.1449532
vn -0.3364417 0.7631412 -0.5517451
vn -0.4332424 0.8711544 0.231065
vn -0.3429491 0.8096091 -0.4763602
vn -0.8675916 0.4537555 0.2034469
vn -0.8759781 0.4748473 -0.08474887
vn -0.986203 -0.1318713 -0.1000679
vn -0.385958 0.9101223 0.1507114
vn 0.1672398 0.8238951 -0.541505
vn 0.1667101 0.9604011 0.2232432
vn 0.6353666 0.6318936 -0.4438692
vn 0.6707383 0.7181275 0.1854804
vn 0.6174093 0.5901755 -0.5200948
vn 0.6956579 0.6663974 0.2682809
vn 0.6596656 0.6065216 -0.4438161
vn 0.1636649 0.9509912 0.2623537
vn 0.1791059 0.9835339 -0.02412951
vn 0.7223604 0.6915123 -0.0024608
vn 0.7463669 0.6391311 0.1856014
vn 0.8312408 0.1303114 -0.5404236
vn 0.9664013 0.1250766 0.2245536
vn 0.9568006 0.1225173 0.2636705
vn 0.9904378 0.1360562 -0.02283973
vn -0.4322164 0.9008613 -0.04047134
vn 0.4542169 0.8906767 -0.0195408
vn 0.953946 0.1386359 -0.2660208
vn 0.6070367 0.7943996 0.02087701
vn 0.9907535 0.1354594 0.007624452
vn 0.7445256 0.6645387 0.06379774
vn 0.9894772 0.1338526 0.05493961
vn 0.2027333 0.9782639 0.04357749
vn 0.7134641 0.6490238 0.2640778
vn 0.721863 0.6914624 0.02817108
vn 0.9860431 0.1603265 0.0448807
vn 0.9094715 0.4153407 -0.01880773
vn 0.6965222 0.7147006 0.06371668
vn 0.1804824 0.9465572 -0.2673121
vn 0.8202748 0.5715758 0.02122271
vn 0.1767186 0.9828011 0.05359729
vn 0.1784613 0.983927 0.006264817
vn -0.405559 0.9136615 0.02728455
vn -0.5685751 0.8222609 -0.02468584
vn -0.8667966 0.4983979 -0.0162316
vn -0.7008119 0.7096968 -0.0720634
vn -0.4078428 0.8842291 0.2276028
vn -0.4314094 0.9021024 -0.009864885
vn 0.1521754 0.9874645 0.04190886
vn -0.1090342 0.9933103 -0.03802749
vn -0.46799 0.8834149 0.02373606
vn -0.8255461 0.4615796 -0.3246813
vn -0.2914378 0.9565492 -0.008808509
vn -0.8808848 0.4732817 -0.0068161
vn -0.8784987 0.4746847 -0.053984
vn -0.9944432 -0.1000138 -0.03286262
vn -0.9554648 -0.2839981 -0.08020021
vn -0.7391943 -0.6713501 -0.05367349
vn -0.8848934 -0.4497231 -0.1212967
vn -0.9789778 -0.1138086 0.1692633
vn -0.9886537 -0.1331452 -0.06954217
vn 0.7946544 -0.3787055 -0.474454
vn 0.9664013 0.1250766 0.2245536
vn 0.8312408 0.1303114 -0.5404236
vn 0.892195 -0.4250141 0.1528102
vn 0.7486191 -0.3702903 -0.5499587
vn 0.9568006 0.1225173 0.2636705
vn 0.8511021 -0.4703729 0.2331836
vn 0.777649 -0.4104204 -0.476253
vn 0.9904378 0.1360562 -0.02283973
vn 0.8401557 -0.5220014 0.1471494
vn 0.3777257 -0.7143242 -0.5891215
vn 0.4202186 -0.8921264 0.1659118
vn -0.1174963 -0.8415663 -0.5272199
vn -0.1267198 -0.987672 0.09190249
vn -0.123704 -0.7906767 -0.5996062
vn -0.181382 -0.9678699 0.1741507
vn -0.1519731 -0.8353286 -0.5283278
vn 0.4152204 -0.8861898 0.2055716
vn 0.8812616 -0.4710732 -0.03831371
vn 0.953946 0.1386359 -0.2660208
vn 0.4363941 -0.8959581 -0.08257991
vn -0.2341946 -0.9681664 0.0883563
vn -0.5661204 -0.542933 -0.6202672
vn -0.7164697 -0.6856961 0.1284213
vn -0.840311 -0.1163108 -0.52948
vn -0.9775898 -0.1916424 0.08712871
vn -0.7943801 -0.09016524 -0.6006917
vn -0.9751227 -0.1387863 0.1728412
vn -0.7121559 -0.6815203 0.1684162
vn -0.7169765 -0.6865959 -0.1205446
vn -0.986203 -0.1318713 -0.1000679
vn -0.1744952 -0.9796966 -0.09872124
vn -0.6739195 -0.6457379 -0.358964
vn 0.1595522 -0.9821851 -0.09927507
vn -0.974107 0.2022033 -0.1011407
vn -0.9886537 -0.1331452 -0.06954217
vn -0.8926913 0.450268 -0.01899663
vn -0.9789778 -0.1138086 0.1692633
vn -0.9850336 -0.1687737 -0.03498889
vn -0.9972634 0.02142827 -0.07075621
vn -0.7216695 -0.6909129 -0.04280854
vn -0.7193614 -0.6887784 -0.0900192
vn -0.2113249 -0.9768345 -0.03370661
vn -0.02176561 -0.9973696 -0.06913727
vn 0.4108232 -0.9115593 -0.01685079
vn -0.2062537 -0.9638019 0.1689532
vn -0.1761139 -0.9820042 -0.06820339
vn -0.7029403 -0.7092254 -0.05361381
vn -0.4877969 -0.8645802 -0.120646
vn -0.1430577 -0.9892146 -0.03145047
vn 0.4257087 -0.8453924 -0.3226202
vn -0.3250624 -0.9423743 -0.07915323
vn 0.4344364 -0.9006906 -0.004644176
vn 0.4360205 -0.8984438 -0.05181589
vn 0.8622503 -0.5058176 0.02594384
vn 0.9430302 -0.3326384 -0.006760339
vn 0.993098 0.1090041 0.04329547
vn 0.9876551 -0.1523966 -0.03623153
vn 0.8412663 -0.4900855 0.2282261
vn 0.8823638 -0.4705048 -0.00770495
vn 0.4600348 -0.8877898 -0.01404631
vn 0.6784325 -0.7313415 -0.06977858
vn 0.8951689 -0.4447534 0.02944492
vn 0.9907535 0.1354594 0.007624452
vn 0.7968707 -0.6037337 -0.02241808
vn 0.9894772 0.1338526 0.05493961
vn -0.1730036 -0.9499767 0.2600268
vn 0.4344364 -0.9006906 -0.004644176
vn -0.1430577 -0.9892146 -0.03145047
vn -0.7029403 -0.7092254 -0.05361381
vn 0.399084 -0.8645895 0.3053144
vn 0.8622503 -0.5058176 0.02594384
vn -0.139846 -0.8058167 0.5754151
vn -0.2062537 -0.9638019 0.1689532
vn 0.823117 -0.4711997 0.3169374
vn 0.2191576 -0.6333014 0.7422259
vn 0.6759562 -0.4367748 0.5935579
vn 0.993098 0.1090041 0.04329547
vn 0.8412663 -0.4900855 0.2282261
vn -0.1185101 -0.3548458 0.9273834
vn 0.06964958 -0.3435276 0.9365563
vn -0.03954812 -0.03628726 0.9985586
vn -0.2980308 -0.2308326 0.9262257
vn 0.2423016 -0.2113832 0.9468934
vn -0.2011562 -0.8136396 0.5454601
vn 0.4108232 -0.9115593 -0.01685079
vn -0.2113249 -0.9768345 -0.03370661
vn 0.6855048 -0.3747583 0.624211
vn 0.4600348 -0.8877898 -0.01404631
vn 0.8304651 -0.4576716 0.3175915
vn 0.8951689 -0.4447534 0.02944492
vn 0.9894772 0.1338526 0.05493961
vn 0.924939 0.1152528 0.362222
vn 0.7445256 0.6645387 0.06379774
vn 0.6234758 0.02192005 0.7815353
vn 0.6813582 0.6419092 0.3517152
vn 0.5870262 0.5147114 0.6248778
vn 0.2027333 0.9782639 0.04357749
vn 0.7134641 0.6490238 0.2640778
vn 0.2887693 -0.02819929 0.9569834
vn 0.2169167 0.1770781 0.9599951
vn 0.5301285 0.5432431 0.6510382
vn 0.9860431 0.1603265 0.0448807
vn 0.6707296 0.6530219 0.3516876
vn 0.6965222 0.7147006 0.06371668
vn 0.1767186 0.9828011 0.05359729
vn 0.1548597 0.9196078 0.3610261
vn -0.405559 0.9136615 0.02728455
vn 0.1247334 0.6094611 0.7829424
vn -0.4217626 0.8500437 0.3155032
vn -0.3443106 0.7252291 0.5962323
vn -0.8667966 0.4983979 -0.0162316
vn -0.4078428 0.8842291 0.2276028
vn 0.05778325 0.2776874 0.9589322
vn -0.1606085 0.273031 0.9485036
vn -0.3911779 0.6809219 0.6191326
vn 0.1521754 0.9874645 0.04190886
vn -0.4356121 0.8432724 0.3148548
vn -0.46799 0.8834149 0.02373606
vn -0.8808848 0.4732817 -0.0068161
vn -0.8468671 0.4368684 0.3032526
vn -0.9944432 -0.1000138 -0.03286262
vn -0.5870285 0.3173462 0.7447743
vn -0.3053579 0.1539125 0.9397168
vn -0.9569961 -0.1312108 0.2587318
vn -0.8319647 -0.09555158 0.5465388
vn -0.7391943 -0.6713501 -0.05367349
vn -0.9789778 -0.1138086 0.1692633
vn -0.367395 -0.0556352 0.9283994
vn -0.8052643 -0.1531413 0.5727977
vn -0.8926913 0.450268 -0.01899663
vn -0.5290398 -0.4509077 0.7188874
vn -0.9549133 -0.146443 0.2582535
vn -0.9850336 -0.1687737 -0.03498889
vn -0.7216695 -0.6909129 -0.04280854
vn -0.6958558 -0.6657191 0.2694489
vn -0.1881451 -0.947233 0.259521
vn 0.7946544 -0.3787055 -0.474454
vn 0.0395546 0.03628172 -0.9985585
vn 0.7486191 -0.3702903 -0.5499587
vn 0.8312408 0.1303114 -0.5404236
vn 0.777649 -0.4104204 -0.476253
vn 0.6596656 0.6065216 -0.4438161
vn 0.3777257 -0.7143242 -0.5891215
vn 0.6174093 0.5901755 -0.5200948
vn -0.1174963 -0.8415663 -0.5272199
vn 0.6353666 0.6318936 -0.4438692
vn -0.123704 -0.7906767 -0.5996062
vn 0.1672398 0.8238951 -0.541505
vn -0.1519731 -0.8353286 -0.5283278
vn -0.3429491 0.8096091 -0.4763602
vn -0.5661204 -0.542933 -0.6202672
vn -0.3364417 0.7631412 -0.5517451
vn -0.840311 -0.1163108 -0.52948
vn -0.3754323 0.7939677 -0.4781902
vn -0.7943801 -0.09016524 -0.6006917
vn -0.6962608 0.4074924 -0.5909069
vn -0.845055 -0.08163083 -0.5284111
usemtl Mat_Tools
f 1/1/1 3/3/3 2/2/2 
f 1/1/1 2/2/2 4/4/4 
f 5/5/5 1/1/1 4/4/4 
f 5/5/5 4/4/4 6/6/6 
f 6/6/6 4/4/4 2/2/2 
f 7/7/7 5/5/5 6/6/6 
f 7/7/7 6/6/6 8/8/8 
f 9/9/9 7/7/7 8/8/8 
f 9/9/9 8/8/8 10/10/10 
f 11/11/11 9/9/9 10/10/10 
f 8/8/8 12/12/12 10/10/10 
f 8/8/8 6/6/6 12/12/12 
f 6/6/6 2/2/2 12/12/12 
f 13/13/13 12/12/12 2/2/2 
f 10/10/10 12/12/12 13/13/13 
f 13/13/13 2/2/2 14/14/14 
f 11/11/11 10/10/10 15/15/15 
f 16/16/16 11/11/11 15/15/15 
f 16/16/16 15/15/15 17/17/17 
f 17/17/17 15/15/15 10/10/10 
f 18/18/18 16/16/16 17/17/17 
f 18/18/18 17/17/17 19/19/19 
f 20/20/20 18/18/18 19/19/19 
f 20/20/20 19/19/19 21/21/21 
f 22/22/22 20/20/20 21/21/21 
f 19/19/19 17/17/17 23/23/23 
f 17/17/17 10/10/10 23/23/23 
f 19/19/19 23/23/23 21/21/21 
f 10/10/10 24/24/24 23/23/23 
f 21/21/21 23/23/23 24/24/24 
f 21/21/21 24/24/24 25/25/25 
f 22/22/22 21/21/21 26/26/26 
f 27/27/27 22/22/22 26/26/26 
f 27/27/27 26/26/26 28/28/28 
f 29/29/29 28/28/28 26/26/26 
f 29/29/29 26/26/26 21/21/21 
f 29/29/29 21/21/21 25/25/25 
f 29/29/29 25/25/25 30/30/30 
f 10/10/10 31/31/31 24/24/24 
f 10/10/10 13/13/13 31/31/31 
f 30/30/30 25/25/25 32/32/32 
f 30/30/30 32/32/32 33/33/33 
f 33/33/33 32/32/32 34/34/34 
f 33/33/33 34/34/34 35/35/35 
f 35/35/35 34/34/34 36/36/36 
f 35/35/35 36/36/36 37/37/37 
f 38/38/38 36/36/36 34/34/34 
f 38/38/38 34/34/34 32/32/32 
f 32/32/32 39/39/39 38/38/38 
f 32/32/32 40/40/40 39/39/39 
f 32/32/32 25/25/25 40/40/40 
f 40/40/40 41/41/41 39/39/39 
f 40/40/40 42/42/42 41/41/41 
f 25/25/25 42/42/42 40/40/40 
f 42/42/42 43/43/43 41/41/41 
f 25/25/25 44/44/44 42/42/42 
f 25/25/25 24/24/24 44/44/44 
f 42/42/42 45/45/45 43/43/43 
f 45/45/45 46/46/46 43/43/43 
f 42/42/42 47/47/47 45/45/45 
f 45/45/45 47/47/47 46/46/46 
f 42/42/42 44/44/44 47/47/47 
f 47/47/47 48/48/48 46/46/46 
f 47/47/47 49/49/49 48/48/48 
f 44/44/44 49/49/49 47/47/47 
f 50/50/50 48/48/48 49/49/49 
f 24/24/24 51/51/51 44/44/44 
f 44/44/44 51/51/51 49/49/49 
f 50/50/50 49/49/49 51/51/51 
f 51/51/51 52/52/52 50/50/50 
f 24/24/24 31/31/31 51/51/51 
f 51/51/51 53/53/53 52/52/52 
f 51/51/51 31/31/31 53/53/53 
f 53/53/53 54/54/54 52/52/52 
f 53/53/53 55/55/55 54/54/54 
f 31/31/31 55/55/55 53/53/53 
f 55/55/55 56/56/56 54/54/54 
f 31/31/31 57/57/57 55/55/55 
f 31/31/31 13/13/13 57/57/57 
f 55/55/55 58/58/58 56/56/56 
f 58/58/58 59/59/59 56/56/56 
f 55/55/55 60/60/60 58/58/58 
f 58/58/58 60/60/60 59/59/59 
f 55/55/55 57/57/57 60/60/60 
f 60/60/60 61/61/61 59/59/59 
f 60/60/60 62/62/62 61/61/61 
f 57/57/57 62/62/62 60/60/60 
f 63/63/63 61/61/61 62/62/62 
f 64/64/64 57/57/57 13/13/13 
f 57/57/57 64/64/64 62/62/62 
f 63/63/63 62/62/62 64/64/64 
f 64/64/64 13/13/13 14/14/14 
f 64/64/64 65/65/65 63/63/63 
f 66/66/66 64/64/64 14/14/14 
f 64/64/64 66/66/66 65/65/65 
f 67/67/67 69/69/69 68/68/68 
f 67/67/67 68/68/68 70/70/70 
f 71/71/71 67/67/67 70/70/70 
f 70/70/70 68/68/68 72/72/72 
f 71/71/71 70/70/70 73/73/73 
f 70/70/70 72/72/72 73/73/73 
f 74/74/74 71/71/71 73/73/73 
f 73/73/73 72/72/72 75/75/75 
f 74/74/74 73/73/73 76/76/76 
f 77/77/77 74/74/74 76/76/76 
f 77/77/77 76/76/76 78/78/78 
f 78/78/78 76/76/76 73/73/73 
f 79/79/79 77/77/77 78/78/78 
f 79/79/79 78/78/78 80/80/80 
f 81/81/81 79/79/79 80/80/80 
f 81/81/81 80/80/80 82/82/82 
f 83/83/83 81/81/81 82/82/82 
f 80/80/80 84/84/84 82/82/82 
f 80/80/80 78/78/78 84/84/84 
f 78/78/78 73/73/73 84/84/84 
f 73/73/73 75/75/75 85/85/85 
f 85/85/85 75/75/75 86/86/86 
f 87/87/87 84/84/84 73/73/73 
f 82/82/82 84/84/84 87/87/87 
f 87/87/87 73/73/73 85/85/85 
f 83/83/83 82/82/82 88/88/88 
f 89/89/89 83/83/83 88/88/88 
f 89/89/89 88/88/88 90/90/90 
f 90/90/90 88/88/88 82/82/82 
f 91/91/91 89/89/89 90/90/90 
f 91/91/91 90/90/90 92/92/92 
f 93/93/93 91/91/91 92/92/92 
f 93/93/93 92/92/92 94/94/94 
f 92/92/92 90/90/90 95/95/95 
f 92/92/92 95/95/95 94/94/94 
f 90/90/90 82/82/82 95/95/95 
f 94/94/94 95/95/95 96/96/96 
f 96/96/96 95/95/95 82/82/82 
f 94/94/94 96/96/96 97/97/97 
f 82/82/82 87/87/87 98/98/98 
f 96/96/96 82/82/82 98/98/98 
f 97/97/97 96/96/96 99/99/99 
f 100/100/100 96/96/96 98/98/98 
f 100/100/100 99/99/99 96/96/96 
f 97/97/97 99/99/99 101/101/101 
f 97/97/97 101/101/101 102/102/102 
f 102/102/102 101/101/101 103/103/103 
f 102/102/102 103/103/103 104/104/104 
f 101/101/101 105/105/105 103/103/103 
f 101/101/101 106/106/106 105/105/105 
f 106/106/106 107/107/107 105/105/105 
f 101/101/101 108/108/108 106/106/106 
f 106/106/106 108/108/108 107/107/107 
f 101/101/101 99/99/99 108/108/108 
f 108/108/108 109/109/109 107/107/107 
f 99/99/99 110/110/110 108/108/108 
f 108/108/108 110/110/110 109/109/109 
f 99/99/99 100/100/100 110/110/110 
f 111/111/111 109/109/109 110/110/110 
f 111/111/111 110/110/110 100/100/100 
f 100/100/100 112/112/112 111/111/111 
f 100/100/100 113/113/113 112/112/112 
f 113/113/113 114/114/114 112/112/112 
f 100/100/100 98/98/98 113/113/113 
f 113/113/113 115/115/115 114/114/114 
f 98/98/98 115/115/115 113/113/113 
f 115/115/115 116/116/116 114/114/114 
f 98/98/98 117/117/117 115/115/115 
f 98/98/98 87/87/87 117/117/117 
f 115/115/115 118/118/118 116/116/116 
f 118/118/118 119/119/119 116/116/116 
f 115/115/115 120/120/120 118/118/118 
f 118/118/118 120/120/120 119/119/119 
f 115/115/115 117/117/117 120/120/120 
f 120/120/120 121/121/121 119/119/119 
f 120/120/120 122/122/122 121/121/121 
f 117/117/117 122/122/122 120/120/120 
f 123/123/123 121/121/121 122/122/122 
f 124/124/124 117/117/117 87/87/87 
f 117/117/117 124/124/124 122/122/122 
f 123/123/123 122/122/122 124/124/124 
f 124/124/124 125/125/125 123/123/123 
f 124/124/124 87/87/87 85/85/85 
f 124/124/124 126/126/126 125/125/125 
f 124/124/124 85/85/85 126/126/126 
f 126/126/126 127/127/127 125/125/125 
f 85/85/85 128/128/128 126/126/126 
f 126/126/126 128/128/128 127/127/127 
f 85/85/85 86/86/86 128/128/128 
f 128/128/128 129/129/129 127/127/127 
f 128/128/128 86/86/86 130/130/130 
f 128/128/128 131/131/131 129/129/129 
f 128/128/128 130/130/130 131/131/131 
f 131/131/131 132/132/132 129/129/129 
f 131/131/131 130/130/130 132/132/132 
f 133/133/133 135/135/135 134/134/134 
f 136/136/136 135/135/135 133/133/133 
f 133/133/133 134/134/134 137/137/137 
f 137/137/137 134/134/134 138/138/138 
f 136/136/136 133/133/133 139/139/139 
f 139/139/139 133/133/133 137/137/137 
f 140/140/140 136/136/136 139/139/139 
f 137/137/137 138/138/138 141/141/141 
f 139/139/139 137/137/137 142/142/142 
f 142/142/142 137/137/137 141/141/141 
f 143/143/143 141/141/141 138/138/138 
f 142/142/142 141/141/141 143/143/143 
f 143/143/143 138/138/138 144/144/144 
f 144/144/144 145/145/145 143/143/143 
f 146/146/146 139/139/139 142/142/142 
f 146/146/146 140/140/140 139/139/139 
f 147/147/147 142/142/142 143/143/143 
f 147/147/147 143/143/143 145/145/145 
f 146/146/146 142/142/142 147/147/147 
f 146/146/146 147/147/147 148/148/148 
f 149/149/149 146/146/146 148/148/148 
f 140/140/140 146/146/146 149/149/149 
f 147/147/147 150/150/150 148/148/148 
f 147/147/147 145/145/145 150/150/150 
f 140/140/140 149/149/149 151/151/151 
f 152/152/152 140/140/140 151/151/151 
f 151/151/151 153/153/153 152/152/152 
f 154/154/154 150/150/150 145/145/145 
f 145/145/145 155/155/155 154/154/154 
f 155/155/155 156/156/156 154/154/154 
f 155/155/155 157/157/157 156/156/156 
f 156/156/156 157/157/157 158/158/158 
f 156/156/156 158/158/158 159/159/159 
f 154/154/154 156/156/156 159/159/159 
f 159/159/159 158/158/158 160/160/160 
f 150/150/150 154/154/154 161/161/161 
f 154/154/154 159/159/159 161/161/161 
f 159/159/159 160/160/160 162/162/162 
f 161/161/161 159/159/159 162/162/162 
f 163/163/163 162/162/162 160/160/160 
f 161/161/161 162/162/162 163/163/163 
f 163/163/163 160/160/160 164/164/164 
f 164/164/164 165/165/165 163/163/163 
f 150/150/150 161/161/161 166/166/166 
f 166/166/166 161/161/161 163/163/163 
f 166/166/166 163/163/163 165/165/165 
f 150/150/150 166/166/166 148/148/148 
f 166/166/166 165/165/165 167/167/167 
f 166/166/166 167/167/167 148/148/148 
f 168/168/168 167/167/167 165/165/165 
f 165/165/165 169/169/169 168/168/168 
f 169/169/169 170/170/170 168/168/168 
f 169/169/169 171/171/171 170/170/170 
f 170/170/170 171/171/171 172/172/172 
f 170/170/170 172/172/172 173/173/173 
f 168/168/168 170/170/170 173/173/173 
f 173/173/173 172/172/172 174/174/174 
f 167/167/167 168/168/168 175/175/175 
f 168/168/168 173/173/173 175/175/175 
f 173/173/173 174/174/174 176/176/176 
f 175/175/175 173/173/173 176/176/176 
f 177/177/177 176/176/176 174/174/174 
f 175/175/175 176/176/176 177/177/177 
f 177/177/177 174/174/174 178/178/178 
f 178/178/178 179/179/179 177/177/177 
f 167/167/167 175/175/175 180/180/180 
f 180/180/180 175/175/175 177/177/177 
f 167/167/167 180/180/180 148/148/148 
f 179/179/179 180/180/180 177/177/177 
f 179/179/179 181/181/181 180/180/180 
f 180/180/180 181/181/181 148/148/148 
f 181/181/181 179/179/179 182/182/182 
f 179/179/179 183/183/183 182/182/182 
f 183/183/183 184/184/184 182/182/182 
f 183/183/183 185/185/185 184/184/184 
f 184/184/184 185/185/185 186/186/186 
f 184/184/184 186/186/186 187/187/187 
f 182/182/182 184/184/184 187/187/187 
f 187/187/187 186/186/186 188/188/188 
f 181/181/181 182/182/182 189/189/189 
f 182/182/182 187/187/187 189/189/189 
f 181/181/181 190/190/190 148/148/148 
f 181/181/181 189/189/189 190/190/190 
f 187/187/187 188/188/188 191/191/191 
f 189/189/189 187/187/187 191/191/191 
f 192/192/192 191/191/191 188/188/188 
f 189/189/189 191/191/191 192/192/192 
f 190/190/190 189/189/189 192/192/192 
f 192/192/192 188/188/188 193/193/193 
f 193/193/193 194/194/194 192/192/192 
f 190/190/190 192/192/192 194/194/194 
f 190/190/190 195/195/195 148/148/148 
f 190/190/190 194/194/194 195/195/195 
f 195/195/195 149/149/149 148/148/148 
f 196/196/196 195/195/195 194/194/194 
f 194/194/194 197/197/197 196/196/196 
f 195/195/195 198/198/198 149/149/149 
f 195/195/195 196/196/196 198/198/198 
f 149/149/149 198/198/198 151/151/151 
f 197/197/197 199/199/199 196/196/196 
f 197/197/197 200/200/200 199/199/199 
f 199/199/199 200/200/200 201/201/201 
f 196/196/196 199/199/199 202/202/202 
f 199/199/199 201/201/201 202/202/202 
f 196/196/196 202/202/202 198/198/198 
f 202/202/202 201/201/201 153/153/153 
f 198/198/198 203/203/203 151/151/151 
f 198/198/198 202/202/202 203/203/203 
f 202/202/202 153/153/153 203/203/203 
f 151/151/151 203/203/203 153/153/153 
f 204/204/204 206/206/206 205/205/205 
f 207/207/207 204/204/204 205/205/205 
f 208/208/208 205/205/205 206/206/206 
f 209/209/209 207/207/207 205/205/205 
f 208/208/208 210/210/210 205/205/205 
f 209/209/209 205/205/205 211/211/211 
f 210/210/210 212/212/212 205/205/205 
f 213/213/213 211/211/211 205/205/205 
f 212/212/212 214/214/214 205/205/205 
f 215/215/215 213/213/213 205/205/205 
f 216/216/216 205/205/205 214/214/214 
f 217/217/217 215/215/215 205/205/205 
f 216/216/216 218/218/218 205/205/205 
f 217/217/217 205/205/205 219/219/219 
f 218/218/218 220/220/220 205/205/205 
f 221/221/221 219/219/219 205/205/205 
f 220/220/220 222/222/222 205/205/205 
f 223/223/223 221/221/221 205/205/205 
f 224/224/224 205/205/205 222/222/222 
f 224/224/224 223/223/223 205/205/205 
