# exported by StudySceneExporter from mesh 'Workbench_Group_2_low'
mtllib materials.mtl
v 0.1374855 -0.02682493 -0.3120286
v 0.1202701 -0.9043045 -0.311818
v 0.1965899 -0.9020008 -0.3118091
v 0.1886405 -0.6251339 -0.3118717
v 0.2051084 0.002316134 -0.3115957
v 0.1124569 0.005786189 -0.3110692
v 0.2071805 -0.6382788 -0.3113811
v 0.2093123 -0.8529692 -0.310466
v 0.2098183 -0.9043098 -0.3096323
v 0.210809 -0.9028438 -0.2993032
v 0.2103535 -0.619495 -0.3094324
v 0.2107242 -0.743836 -0.2944861
v 0.2061671 -0.5156852 -0.3113849
v 0.2104821 -0.8880515 -0.288075
v 0.1925265 -0.901351 -0.2867455
v 0.2107789 -0.4891424 -0.3032666
v 0.2049887 -0.7408897 -0.287176
v 0.208388 -0.1298484 -0.3107287
v 0.2103271 -0.4699889 -0.3098113
v 0.2105746 -0.004568239 -0.3089907
v 0.2041678 0.006849018 -0.3081217
v 0.2038407 0.005978024 -0.2870237
v 0.2105663 -0.1113135 -0.3044182
v 0.2108003 -0.1891715 -0.2977238
v 0.2105142 -0.1352373 -0.2920067
v 0.2099902 -0.006690926 -0.2878631
v 0.2030845 -0.1875113 -0.2871022
v 0.2107992 -0.2545657 -0.296444
v 0.2071828 -0.2277702 -0.2888258
v 0.2079873 -0.2743269 -0.2876486
v 0.2103875 -0.4120286 -0.2901335
v 0.2102289 -0.700233 -0.2885923
v 0.1440444 0.0003202116 -0.2866327
v 0.1158854 0.006606298 -0.2918234
v 0.1235525 -0.903959 -0.2868406
v 0.1127048 -0.00608632 -0.2873046
v 0.108919 -0.000623309 -0.3037683
v 0.1124569 0.005786189 -0.3110692
v 0.1184576 -0.5556958 -0.2869886
v 0.1095613 -0.4226153 -0.2883436
v 0.1097808 -0.2428132 -0.3099975
v 0.115525 -0.285363 -0.311387
v 0.1374855 -0.02682493 -0.3120286
v 0.1093621 -0.302419 -0.3056798
v 0.1097942 -0.3948615 -0.309533
v 0.1093329 -0.5784786 -0.2919243
v 0.111858 -0.6616403 -0.287207
v 0.1092741 -0.8814769 -0.289499
v 0.1116292 -0.9012199 -0.2964376
v 0.1172872 -0.7394104 -0.3116859
v 0.1202701 -0.9043045 -0.311818
v 0.1097155 -0.8956836 -0.309839
v 0.1096708 -0.7686972 -0.3072845
v 0.1112607 -0.6621269 -0.3110043
v 0.2041678 0.006849018 -0.3081217
v 0.2038407 0.005978024 -0.2870237
v 0.1158854 0.006606298 -0.2918234
v 0.1124569 0.005786189 -0.3110692
v 0.2051084 0.002316134 -0.3115957
v 0.1202701 -0.9043045 -0.311818
v 0.1116292 -0.9012199 -0.2964376
v 0.1235525 -0.903959 -0.2868406
v 0.1773242 -0.9048923 -0.2970509
v 0.1925265 -0.901351 -0.2867455
v 0.2098183 -0.9043098 -0.3096323
v 0.1965899 -0.9020008 -0.3118091
v 0.210809 -0.9028438 -0.2993032
v -0.05275596 0.005409173 -0.3118481
v -0.03755866 0.006890529 -0.3039277
v -0.1291707 0.005782205 -0.3118348
v -0.1315832 0.006289648 -0.2929732
v -0.08226894 0.00673632 -0.2880885
v -0.03240082 0.004280908 -0.2972108
v -0.04334883 0.0003304045 -0.2869498
v -0.06761248 -0.9042973 -0.3119549
v -0.042475 -0.8999242 -0.3117178
v -0.05275596 0.005409173 -0.3118481
v -0.1291707 0.005782205 -0.3118348
v -0.1177781 -0.8977852 -0.3117972
v -0.1305973 -0.9041649 -0.3080377
v -0.1327226 -0.8707382 -0.3097147
v -0.1329066 0.002914529 -0.3093199
v -0.1315832 0.006289648 -0.2929732
v -0.1329694 -0.8811663 -0.2901492
v -0.1282696 -0.8983934 -0.2872191
v -0.1331334 -0.7155057 -0.3034784
v -0.1312711 -0.7014923 -0.2894084
v -0.1262832 -0.6986732 -0.2871076
v -0.101201 -0.9016075 -0.2866847
v -0.1332386 -0.6295824 -0.2890067
v -0.13316 -0.5327725 -0.29902
v -0.1302089 -0.4921786 -0.2876573
v -0.1267548 -0.2329887 -0.2872188
v -0.1326297 -0.4288567 -0.2880506
v -0.1328832 -0.173876 -0.2905003
v -0.1203757 -0.01455155 -0.2868199
v -0.1327917 -0.03891785 -0.2882251
v -0.1326207 -0.01435663 -0.2910711
v -0.1285199 0.002210185 -0.2870841
v -0.08226894 0.00673632 -0.2880885
v -0.04334883 0.0003304045 -0.2869498
v -0.06699769 -0.01182916 -0.2866903
v -0.0425663 -0.7998908 -0.2868683
v -0.03228849 -0.9036212 -0.2874834
v -0.03681489 -0.3672653 -0.287376
v -0.03192953 -0.02384352 -0.2886324
v -0.03240082 0.004280908 -0.2972108
v -0.03199511 -0.001965947 -0.3109787
v -0.03755866 0.006890529 -0.3039277
v -0.05275596 0.005409173 -0.3118481
v -0.03833666 -0.08801051 -0.311513
v -0.042475 -0.8999242 -0.3117178
v -0.03181451 -0.121384 -0.3044924
v -0.0317162 -0.2016915 -0.3067672
v -0.03852997 -0.2139381 -0.3115191
v -0.0319166 -0.380724 -0.2934064
v -0.03570731 -0.5010656 -0.3111986
v -0.03178969 -0.8931254 -0.3107506
v -0.03255504 -0.230485 -0.310312
v -0.03218991 -0.4721746 -0.3098457
v -0.03173871 -0.4970953 -0.3050858
v -0.03164287 -0.81173 -0.3002026
v -0.03150846 -0.7362829 -0.2885491
v -0.0341393 -0.4059793 -0.2876529
v -0.03737886 -0.8032061 -0.2873157
v -0.03230524 -0.8443103 -0.2884571
v -0.1564759 -1.097181 0.2828308
v -0.2437234 -1.097791 0.2846606
v -0.1560888 -1.097124 0.3079952
v -0.2517898 -1.097024 0.3113599
v -0.1580216 -1.092133 0.3115427
v -0.2557667 -1.094738 0.3090672
v -0.2558464 1.094938 0.2864582
v -0.2530029 1.093178 0.2824118
v -0.185613 1.094492 0.282163
v -0.1601543 1.095077 0.3013682
v -0.1547861 1.089445 0.2849974
v -0.1544436 1.08931 0.3013776
v -0.1548773 1.08311 0.3092785
v -0.1715761 1.094353 0.3111459
v -0.2381745 1.094499 0.3118773
v -0.2524512 1.090385 0.3107595
v -0.2424547 -1.090982 0.2823113
v -0.2437234 -1.097791 0.2846606
v -0.1564759 -1.097181 0.2828308
v -0.1961703 -1.082814 0.2821012
v -0.2407926 -0.6136931 0.2822667
v -0.2530029 1.093178 0.2824118
v -0.185613 1.094492 0.282163
v -0.1736099 -0.7470775 0.2822679
v -0.1755921 0.5720299 0.2822237
v -0.1590548 1.080408 0.2825607
v -0.1547861 1.089445 0.2849974
v -0.1586244 0.7886136 0.2833331
v -0.1545241 0.7885861 0.2921924
v -0.1544436 1.08931 0.3013776
v -0.1548049 0.6479326 0.2830996
v -0.1544701 0.5472201 0.2920214
v -0.1544309 0.4687206 0.2949831
v -0.1605859 0.5127172 0.2866215
v -0.1739731 0.468479 0.282234
v -0.155449 -0.7759324 0.2833486
v -0.1545947 -1.083586 0.2870202
v -0.1560888 -1.097124 0.3079952
v -0.1546467 -1.042301 0.3072573
v -0.1580216 -1.092133 0.3115427
v -0.15448 -0.7438778 0.2911577
v -0.1549564 -0.7463139 0.2896139
v -0.1544444 -0.6866345 0.2921149
v -0.1541314 -0.7275538 0.2910532
v -0.1646091 -0.6925496 0.2828188
v -0.1652776 -0.1269654 0.2824003
v -0.1548262 0.4253832 0.2832179
v -0.1548599 -0.1073381 0.2872568
v -0.1553621 -0.3123797 0.2824245
v -0.1546592 -0.6357641 0.2886661
v -0.1548073 -0.6683401 0.3060168
v -0.1544396 -0.5340276 0.2995442
v -0.1546299 0.1221567 0.3024445
v -0.1548106 0.333822 0.3095277
v -0.1548773 1.08311 0.3092785
v -0.1583868 1.083982 0.3114392
v -0.1715761 1.094353 0.3111459
v -0.2381745 1.094499 0.3118773
v -0.1579596 0.2438953 0.3112461
v -0.1717744 0.1410545 0.3118591
v -0.1835928 1.072913 0.3119947
v -0.2169705 -1.078841 0.3120286
v -0.1719566 -0.6302987 0.3118372
v -0.1619429 0.1517779 0.3101132
v -0.1607761 0.06013875 0.3104424
v -0.1551601 0.01159461 0.3107316
v -0.1546125 -0.5066537 0.3059968
v -0.1620994 -0.5010309 0.3115705
v -0.1612378 -0.5537729 0.3096731
v -0.1549916 -0.8225934 0.3112872
v -0.1644709 -1.011812 0.3117117
v -0.2517898 -1.097024 0.3113599
v -0.2456106 -0.02617032 0.3117526
v -0.2410821 0.1912993 0.3118137
v -0.2534667 -0.1770889 0.3109732
v -0.2557667 -1.094738 0.3090672
v -0.2480434 0.7522445 0.3115994
v -0.2524512 1.090385 0.3107595
v -0.255723 -0.1101822 0.3085516
v -0.2471951 0.07028508 0.3105795
v -0.2554822 -0.008627695 0.2996135
v -0.2557817 0.2007007 0.3035485
v -0.2558871 0.06868253 0.2935905
v -0.2557831 -0.4277096 0.2855798
v -0.2540386 0.237081 0.3109705
v -0.2558464 1.094938 0.2864582
v -0.2551373 0.5902255 0.3101422
v -0.2553129 0.7483815 0.3063295
v -0.2545966 0.8745985 0.3102666
v -0.25585 1.008694 0.3041296
v -0.2530029 1.093178 0.2824118
v -0.2558531 -0.5678172 0.2911358
v -0.2523389 -0.5357186 0.2828994
v -0.2407926 -0.6136931 0.2822667
v -0.2555688 -0.6799126 0.2850936
v -0.2479395 -0.9045078 0.2824688
v -0.2424547 -1.090982 0.2823113
v -0.2557553 -0.9682628 0.2880895
v -0.2556101 -1.055153 0.2832813
v -0.2533666 -1.091582 0.2901325
v -0.2437234 -1.097791 0.2846606
v 0.04660891 1.081117 0.3113736
v 0.01981044 1.094469 0.311952
v 0.05053024 1.097876 0.2879333
v 0.04810538 1.095096 0.2848611
v -0.04134928 1.094638 0.3113538
v -0.05026198 1.094314 0.2858176
v -0.03504029 1.09305 0.2822659
v 0.04996961 -1.088309 0.3105347
v 0.04994933 -1.096965 0.2836633
v 0.03632064 -1.097607 0.3115711
v -0.04290828 -1.097622 0.2859575
v -0.008887701 -1.097876 0.3066041
v -0.04977855 -1.096741 0.3111138
v -0.03504029 1.09305 0.2822659
v 0.03400878 1.091246 0.2821603
v 0.04810538 1.095096 0.2848611
v -0.03087747 -0.2585191 0.2822044
v 0.03753977 -1.090443 0.2822169
v -0.03263549 -1.092138 0.2822517
v 0.04994933 -1.096965 0.2836633
v -0.04290828 -1.097622 0.2859575
v -0.04994735 -1.044312 0.2833928
v -0.03948997 -0.6672857 0.28251
v -0.05093659 -1.0914 0.297796
v -0.04977855 -1.096741 0.3111138
v -0.04984055 -0.7201871 0.283731
v -0.04890027 -0.8839091 0.3101905
v -0.03560479 -1.090016 0.3119625
v -0.008887701 -1.097876 0.3066041
v 0.03632064 -1.097607 0.3115711
v 0.03934799 -0.9881967 0.3118082
v 0.04996961 -1.088309 0.3105347
v -0.05020593 -0.6328411 0.3105143
v -0.05060048 -0.6740712 0.28924
v -0.03410987 -0.3406677 0.2818846
v -0.04886799 -0.4440912 0.2853197
v -0.05096526 -0.3417738 0.2971849
v -0.05063389 -0.5325069 0.3031929
v -0.04104623 -0.4871629 0.3113837
v -0.04910035 -0.3006918 0.3108197
v -0.05041714 -0.2306127 0.2860829
v -0.03739544 -0.1165951 0.3116591
v -0.03542877 1.044154 0.3118684
v -0.0507293 -0.08712979 0.298712
v 0.01981044 1.094469 0.311952
v -0.04930472 0.03773782 0.3110067
v -0.04117341 0.378633 0.3115907
v -0.0506114 0.3861216 0.3076695
v -0.04553744 -0.2187639 0.2824449
v -0.0500769 0.4656619 0.2845052
v -0.04399654 0.6241435 0.2828712
v -0.04953298 0.4799543 0.3100123
v -0.05098456 0.8090994 0.2834855
v -0.05026198 1.094314 0.2858176
v -0.05124631 0.5898197 0.3032429
v -0.04764075 0.9980053 0.3112512
v -0.05033326 0.9773566 0.3076369
v -0.0504531 1.036198 0.3014819
v -0.04891678 1.080193 0.3112032
v -0.04134928 1.094638 0.3113538
v 0.04043247 0.4517163 0.3117197
v 0.04660891 1.081117 0.3113736
v 0.04842983 -0.3819457 0.3107341
v 0.05032266 -0.9304249 0.3099661
v 0.04692112 -0.9859256 0.3095537
v 0.0508079 -0.9793735 0.2938704
v 0.04994933 -1.096965 0.2836633
v 0.05076184 -0.2141643 0.2993639
v 0.05069703 -0.7094474 0.298255
v 0.05108319 0.1087017 0.3095655
v 0.05062284 0.425142 0.3037867
v 0.04676392 0.387409 0.3111839
v 0.05028443 -0.7978851 0.2845178
v 0.04426512 -0.7133229 0.2828549
v 0.03753977 -1.090443 0.2822169
v 0.0406471 -0.06738237 0.2824301
v 0.03400878 1.091246 0.2821603
v 0.04626103 0.5148087 0.3111727
v 0.04675373 1.048906 0.2828779
v 0.04810538 1.095096 0.2848611
v 0.05053024 1.097876 0.2879333
v 0.05019052 -0.555491 0.2845439
v 0.05014478 -0.2811248 0.2840612
v 0.04176263 -0.2574598 0.2824444
v 0.04262721 -0.2004179 0.2825729
v 0.04301283 -0.1434963 0.2829272
v 0.05022551 -0.05897362 0.2847252
v 0.04453804 -0.03913708 0.2826311
v 0.05021559 0.2529494 0.2838477
v 0.04589231 0.3088291 0.2828196
v 0.05077672 0.3025854 0.2981178
v 0.05047373 0.3633929 0.2847044
v 0.05073262 0.5238314 0.2994925
v 0.05016452 1.052385 0.3092982
v 0.05028218 0.5534806 0.3096674
v 0.2558531 -1.093977 0.2945599
v 0.2461563 -1.097628 0.2861206
v 0.248337 -1.097544 0.3116589
v 0.1588452 -1.097646 0.2888889
v 0.2293081 -1.096026 0.2821917
v 0.1627599 -1.092995 0.2824672
v 0.154572 -1.09729 0.3016326
v 0.1693925 -1.094569 0.3118357
v 0.1548928 1.09493 0.3038757
v 0.2549931 1.094665 0.3102429
v 0.2222375 1.091822 0.3119926
v 0.2518319 1.094705 0.2889587
v 0.1550016 1.093808 0.2836715
v 0.221901 1.09047 0.2821372
v 0.2445144 1.087533 0.2823792
v 0.221901 1.09047 0.2821372
v 0.2470411 0.8313371 0.2825214
v 0.2445144 1.087533 0.2823792
v 0.2293081 -1.096026 0.2821917
v 0.196229 -1.056872 0.2820906
v 0.1682742 1.088791 0.2822579
v 0.1627599 -1.092995 0.2824672
v 0.1550016 1.093808 0.2836715
v 0.1710305 -0.6176995 0.2822747
v 0.1705784 -1.030856 0.2822981
v 0.154517 -1.02479 0.2937864
v 0.1555438 -1.070643 0.2907404
v 0.1588452 -1.097646 0.2888889
v 0.154572 -1.09729 0.3016326
v 0.1570827 -0.6497966 0.2829264
v 0.1544652 -0.6068326 0.2862419
v 0.1560155 -0.9067003 0.2838884
v 0.1545119 -0.7460976 0.3075646
v 0.1646977 -0.3834583 0.2825494
v 0.1616099 -0.5437777 0.2824525
v 0.1546087 -0.4152381 0.2859741
v 0.1572342 -0.3486327 0.2829388
v 0.1551347 0.423822 0.2843525
v 0.1572094 0.7015973 0.283952
v 0.1544489 0.6883295 0.2900974
v 0.1544334 1.063143 0.2972006
v 0.1548928 1.09493 0.3038757
v 0.1545911 0.04534728 0.3042538
v 0.1543525 -0.4305479 0.2990495
v 0.1544339 -0.5605621 0.3059741
v 0.1598734 1.09199 0.311041
v 0.2222375 1.091822 0.3119926
v 0.1554596 -0.6705946 0.3101478
v 0.1559796 -0.4384338 0.3110768
v 0.1611674 -0.538337 0.3115515
v 0.1614005 -0.7510477 0.3115733
v 0.1693925 -1.094569 0.3118357
v 0.1651172 -0.3329676 0.3117195
v 0.1548183 -0.321347 0.3079031
v 0.1551948 -0.9734695 0.3102374
v 0.1570383 -1.085853 0.3110108
v 0.1565119 -0.2468201 0.3108798
v 0.1549489 0.01598404 0.3100182
v 0.1618592 0.06118739 0.311489
v 0.1608258 0.5366741 0.3115512
v 0.1554186 0.1715336 0.3096174
v 0.1548842 0.8154721 0.3103769
v 0.15449 0.9863478 0.3064271
v 0.1600376 1.028178 0.3111284
v 0.1649703 1.052805 0.3117154
v 0.1841115 1.085978 0.311961
v 0.2175541 -1.083689 0.3120158
v 0.248337 -1.097544 0.3116589
v 0.2477658 1.015982 0.3116734
v 0.2549931 1.094665 0.3102429
v 0.2525122 -1.011886 0.3110206
v 0.2557456 -1.09047 0.3098673
v 0.2558531 -1.093977 0.2945599
v 0.2558702 -0.9986241 0.2999945
v 0.2558149 -0.1878958 0.2905892
v 0.255506 -0.8869284 0.3091209
v 0.2558722 1.09202 0.301358
v 0.2518319 1.094705 0.2889587
v 0.2558132 -0.07556178 0.290208
v 0.2556514 1.039804 0.2839996
v 0.2445144 1.087533 0.2823792
v 0.2470411 0.8313371 0.2825214
v 0.2554376 0.8114909 0.285896
v 0.2557434 0.7116414 0.2885219
v 0.2531996 0.763827 0.2829496
v 0.2503912 0.3200143 0.2827086
v 0.2465162 -0.1814786 0.2824385
v 0.2293081 -1.096026 0.2821917
v 0.2557119 0.5025328 0.2849236
v 0.2557196 0.3943007 0.2874658
v 0.2550415 -0.02882726 0.2845998
v 0.2542414 0.2539386 0.2830733
v 0.2484812 -0.09788252 0.2825767
v 0.2444914 -0.9860157 0.2823802
v 0.2533866 -1.090132 0.2830597
v 0.2461563 -1.097628 0.2861206
v 0.2558871 -0.8320954 0.2843281
v 0.2463035 -0.7613341 0.2823913
v 0.255846 -0.7586117 0.2910362
v 0.2553283 -0.2688758 0.2831822
v 0.2554854 -0.733338 0.2862621
v -0.03448027 -0.9043787 -0.3004236
v -0.03228849 -0.9036212 -0.2874834
v -0.03178969 -0.8931254 -0.3107506
v -0.042475 -0.8999242 -0.3117178
v -0.06761248 -0.9042973 -0.3119549
v -0.1161755 -0.9048001 -0.2914889
v -0.101201 -0.9016075 -0.2866847
v -0.1305973 -0.9041649 -0.3080377
v -0.1282696 -0.8983934 -0.2872191
vt 0.838379 0.01773563
vt 0.8311314 0.2722996
vt 0.853436 0.2715858
vt 0.8517292 0.1906851
vt 0.8582796 0.009306011
vt 0.8310374 0.008186944
vt 0.8570269 0.1945263
vt 0.8571962 0.2572179
vt 0.8573 0.272229
vt 0.8602848 0.2717855
vt 0.8581401 0.1890546
vt 0.8620793 0.2248897
vt 0.8571918 0.1585108
vt 0.8633167 0.2670247
vt 0.8681265 0.2715314
vt 0.8603214 0.1505836
vt 0.8651531 0.2239532
vt 0.8588346 0.04696058
vt 0.8585377 0.1450966
vt 0.8598484 0.01147449
vt 0.859611 0.007812494
vt 0.8671771 0.007974061
vt 0.8609024 0.04160709
vt 0.8627237 0.06451692
vt 0.8644915 0.0484599
vt 0.8655297 0.01206625
vt 0.8669885 0.06387278
vt 0.8626946 0.08384307
vt 0.8655313 0.07598925
vt 0.8654252 0.08968677
vt 0.8641102 0.1291094
vt 0.8637726 0.2119679
vt 0.8846487 0.01070853
vt 0.8937753 0.009141081
vt 0.888289 0.2721685
vt 0.8937235 0.01313459
vt 0.898643 0.01151607
vt 0.9010557 0.009421697
vt 0.8904552 0.1714344
vt 0.8933879 0.1325569
vt 0.899935 0.08024519
vt 0.9014883 0.09243127
vt 0.908462 0.01899949
vt 0.8987007 0.09761214
vt 0.8994411 0.1246111
vt 0.8936872 0.1781267
vt 0.8920442 0.2022685
vt 0.8924354 0.2650736
vt 0.8939488 0.2712406
vt 0.9006257 0.2240534
vt 0.9008772 0.2723025
vt 0.8979175 0.2691967
vt 0.8978035 0.2328181
vt 0.8991734 0.2016668
vt 0.5028607 0.8176969
vt 0.5031349 0.8238002
vt 0.5285284 0.8216579
vt 0.5293573 0.8160586
vt 0.5025343 0.8160545
vt 0.4539468 0.8239191
vt 0.4566147 0.8194702
vt 0.4530918 0.8166676
vt 0.4375042 0.8194184
vt 0.4331191 0.8162435
vt 0.4280422 0.8229144
vt 0.4318493 0.8239191
vt 0.4277851 0.8198849
vt 0.4713611 0.8161395
vt 0.4668205 0.8181759
vt 0.4934181 0.8176199
vt 0.4937573 0.8231124
vt 0.4794286 0.8235922
vt 0.4651597 0.8201288
vt 0.468013 0.8235941
vt 0.0078125 0.9746314
vt 0.009079665 0.9820104
vt 0.2713164 0.9820299
vt 0.2713956 0.9596744
vt 0.0101836 0.9599385
vt 0.008300781 0.9557348
vt 0.01835462 0.9556448
vt 0.2703738 0.9583612
vt 0.2718262 0.9532649
vt 0.01536247 0.950213
vt 0.01019871 0.9486269
vt 0.06388259 0.9544676
vt 0.06817722 0.9502889
vt 0.06903318 0.948667
vt 0.009285063 0.940879
vt 0.08912137 0.9507933
vt 0.1169787 0.9538089
vt 0.1290538 0.9501459
vt 0.2028193 0.9500321
vt 0.1471708 0.9510071
vt 0.2198933 0.9522977
vt 0.2654803 0.9487248
vt 0.2584189 0.9522279
vt 0.2654527 0.9528627
vt 0.2700966 0.9515271
vt 0.2723374 0.938158
vt 0.2711764 0.9262268
vt 0.2671518 0.9331062
vt 0.03908777 0.9239383
vt 0.008530825 0.9213284
vt 0.1638285 0.9234592
vt 0.263842 0.9229978
vt 0.2720452 0.9209494
vt 0.2695092 0.9172568
vt 0.2727661 0.9176409
vt 0.2724281 0.9116683
vt 0.2453782 0.91563
vt 0.00943166 0.9120073
vt 0.2358016 0.9182803
vt 0.2123134 0.9175088
vt 0.2086489 0.9150923
vt 0.1598599 0.9209081
vt 0.1262071 0.9147684
vt 0.01162496 0.9147627
vt 0.2039488 0.9165442
vt 0.1346583 0.9159944
vt 0.1271569 0.9173837
vt 0.03544748 0.9176353
vt 0.05784404 0.9210895
vt 0.1524442 0.9226184
vt 0.03810909 0.9224448
vt 0.02584165 0.9210573
vt 0.7356338 0.7801338
vt 0.7357804 0.8053797
vt 0.7429146 0.7801321
vt 0.7434716 0.8078294
vt 0.7446855 0.7806929
vt 0.7427592 0.8091307
vt 0.8015231 0.7800284
vt 0.800706 0.7787447
vt 0.7810803 0.7787013
vt 0.77399 0.7842494
vt 0.7718432 0.7795846
vt 0.7717404 0.78451
vt 0.7710413 0.7874354
vt 0.7770658 0.7871149
vt 0.796281 0.7874368
vt 0.8006146 0.7872653
vt 0.7250391 0.8089795
vt 0.7271965 0.8093738
vt 0.7275037 0.7836159
vt 0.723049 0.7950675
vt 0.5874531 0.8078102
vt 0.09270208 0.809149
vt 0.09309999 0.7889073
vt 0.6279593 0.7881104
vt 0.2438821 0.7868927
vt 0.09709556 0.7817101
vt 0.09432409 0.7804936
vt 0.1817157 0.7817333
vt 0.1817187 0.7787673
vt 0.0942639 0.7764084
vt 0.2222716 0.7811
vt 0.2515047 0.7785355
vt 0.2753277 0.7781342
vt 0.2616875 0.781602
vt 0.2744808 0.7869213
vt 0.6362255 0.7832397
vt 0.7234403 0.7822992
vt 0.72751 0.7763114
vt 0.7115756 0.7765041
vt 0.7259059 0.7751753
vt 0.6267818 0.781126
vt 0.6275401 0.781631
vt 0.6104104 0.7809223
vt 0.6221301 0.7812296
vt 0.6117791 0.7853544
vt 0.4487023 0.7850521
vt 0.2881657 0.7815251
vt 0.4428932 0.7810391
vt 0.5018038 0.7826599
vt 0.5949031 0.7816378
vt 0.6049712 0.7768527
vt 0.5640754 0.7784601
vt 0.3747868 0.7773377
vt 0.312351 0.7752036
vt 0.09590383 0.7741616
vt 0.09561028 0.7729803
vt 0.09248079 0.7693083
vt 0.09239714 0.7492948
vt 0.3383945 0.7742551
vt 0.3696265 0.7703871
vt 0.0986219 0.7657201
vt 0.721963 0.758115
vt 0.5935887 0.7711739
vt 0.3660032 0.7737294
vt 0.3939787 0.7736974
vt 0.4081866 0.7752928
vt 0.5562835 0.776529
vt 0.5548434 0.773733
vt 0.5703724 0.774462
vt 0.6486338 0.7755328
vt 0.7026047 0.7731405
vt 0.727537 0.7479333
vt 0.4173434 0.7498753
vt 0.3518634 0.7500755
vt 0.4616283 0.7476355
vt 0.726919 0.7465841
vt 0.1916306 0.7471409
vt 0.09377283 0.7452149
vt 0.4425459 0.7467239
vt 0.3882192 0.7486613
vt 0.4123027 0.7440034
vt 0.3489286 0.7441581
vt 0.3889462 0.742119
vt 0.5325645 0.7404643
vt 0.3383542 0.7462703
vt 0.0927927 0.7380517
vt 0.2385343 0.7454925
vt 0.1929343 0.7442568
vt 0.1560135 0.7450597
vt 0.1177359 0.7431889
vt 0.09336041 0.736569
vt 0.5731435 0.741824
vt 0.5635834 0.7393336
vt 0.5872413 0.7361574
vt 0.6066509 0.7401615
vt 0.6718752 0.7376028
vt 0.7261504 0.7355189
vt 0.6903397 0.7404907
vt 0.7152428 0.7393311
vt 0.7256049 0.7401962
vt 0.7282574 0.7370417
vt 0.913655 0.7837806
vt 0.9222549 0.7827353
vt 0.9136554 0.7753677
vt 0.9146149 0.7743634
vt 0.9399198 0.783751
vt 0.9429899 0.7765533
vt 0.9386745 0.7751541
vt 0.06314087 0.8113545
vt 0.05502254 0.8122461
vt 0.0631212 0.8161415
vt 0.05584729 0.8391056
vt 0.06176281 0.8292287
vt 0.06313974 0.8410547
vt 0.4106235 0.09370627
vt 0.4307964 0.09458088
vt 0.4345096 0.09333974
vt 0.4115294 0.4836206
vt 0.4314122 0.7256293
vt 0.4111766 0.7254404
vt 0.434285 0.7276066
vt 0.4077677 0.7271975
vt 0.4064505 0.7121974
vt 0.4091225 0.6018993
vt 0.4025822 0.7254203
vt 0.399084 0.7278141
vt 0.4064288 0.6167744
vt 0.3991656 0.6664242
vt 0.3953825 0.725104
vt 0.3884444 0.7281227
vt 0.3755347 0.728081
vt 0.3734669 0.6949837
vt 0.3715464 0.7258526
vt 0.3994166 0.5936652
vt 0.4050215 0.6034822
vt 0.4105858 0.5075347
vt 0.4063123 0.5375115
vt 0.402913 0.5082412
vt 0.4008106 0.5635595
vt 0.3968192 0.5511677
vt 0.3990175 0.4974854
vt 0.4055548 0.4758729
vt 0.395716 0.4436623
vt 0.3949033 0.1079148
vt 0.4020567 0.4357713
vt 0.3787343 0.09275089
vt 0.3987952 0.3993479
vt 0.3966901 0.3002204
vt 0.3994144 0.299215
vt 0.4073006 0.4722566
vt 0.4061152 0.2755648
vt 0.4079807 0.2297406
vt 0.3991641 0.2711217
vt 0.4063129 0.1757021
vt 0.4057881 0.09290263
vt 0.4010634 0.2385466
vt 0.3984236 0.1211856
vt 0.3995895 0.1266088
vt 0.4011292 0.1098627
vt 0.3984936 0.09720369
vt 0.3966521 0.09288055
vt 0.37283 0.2787607
vt 0.370902 0.09619765
vt 0.3707775 0.5188299
vt 0.3704479 0.6786907
vt 0.3711253 0.6947901
vt 0.3662871 0.6935089
vt 0.3635507 0.728344
vt 0.3673017 0.4712242
vt 0.3670532 0.6152259
vt 0.3699143 0.3778611
vt 0.3684358 0.2869645
vt 0.3710439 0.2974759
vt 0.3634568 0.6412135
vt 0.3616707 0.6166837
vt 0.3599385 0.7266664
vt 0.3603734 0.4295539
vt 0.3579535 0.09367291
vt 0.3711942 0.2600262
vt 0.3616712 0.1063414
vt 0.3622939 0.09258607
vt 0.3634535 0.09180245
vt 0.3632796 0.5713421
vt 0.3631644 0.4914859
vt 0.3607891 0.4846091
vt 0.3610731 0.468016
vt 0.3612103 0.4514882
vt 0.3631093 0.4271746
vt 0.3614301 0.4210129
vt 0.3628516 0.337069
vt 0.361696 0.3203421
vt 0.3668551 0.3218931
vt 0.362962 0.3039241
vt 0.3671603 0.257742
vt 0.369719 0.1046332
vt 0.3699757 0.248835
vt 0.7356338 0.7686103
vt 0.7386781 0.7709931
vt 0.7379381 0.763615
vt 0.7639222 0.7698193
vt 0.7435721 0.7721385
vt 0.7628443 0.7721393
vt 0.765104 0.7661133
vt 0.7607869 0.7631005
vt 0.06847364 0.8024309
vt 0.06516999 0.7736024
vt 0.06485796 0.7831225
vt 0.07136577 0.7742046
vt 0.07431865 0.8021042
vt 0.07416302 0.7827219
vt 0.07431805 0.7761265
vt 0.7195923 0.009037022
vt 0.7277284 0.08384188
vt 0.7263125 0.009759384
vt 0.7274221 0.6412061
vt 0.7174927 0.6299396
vt 0.7037002 0.009840179
vt 0.7074847 0.6410516
vt 0.7002519 0.00841615
vt 0.7089382 0.5035235
vt 0.7096942 0.6225126
vt 0.7029757 0.6208751
vt 0.7040846 0.6344743
vt 0.7050951 0.6424801
vt 0.7009014 0.6424915
vt 0.7050412 0.512916
vt 0.7037011 0.5004593
vt 0.7053573 0.5866775
vt 0.6979298 0.5407727
vt 0.7064549 0.4355359
vt 0.7059188 0.4820226
vt 0.70318 0.4448617
vt 0.7041591 0.425558
vt 0.701919 0.2038307
vt 0.7017292 0.123323
vt 0.699658 0.127276
vt 0.6970254 0.01777656
vt 0.6946904 0.0078125
vt 0.6966216 0.3118509
vt 0.6995708 0.4493219
vt 0.6977582 0.487014
vt 0.6926994 0.009649273
vt 0.6744225 0.008563073
vt 0.6970915 0.5188609
vt 0.6962567 0.4515825
vt 0.6951143 0.480585
vt 0.6955505 0.5422992
vt 0.694021 0.6419796
vt 0.6934935 0.4211422
vt 0.6967312 0.4176617
vt 0.6979766 0.6065113
vt 0.6977153 0.6389006
vt 0.695604 0.3960127
vt 0.6952522 0.3206834
vt 0.6934351 0.3071223
vt 0.6928838 0.1687983
vt 0.6952425 0.2742907
vt 0.6938187 0.09001794
vt 0.6947007 0.04109691
vt 0.6927139 0.02836177
vt 0.6914393 0.02088532
vt 0.6857121 0.01080533
vt 0.6796663 0.6390518
vt 0.6705375 0.6432099
vt 0.6669832 0.03069696
vt 0.6646596 0.007922984
vt 0.6691542 0.6186372
vt 0.6684099 0.6408258
vt 0.6640164 0.6424165
vt 0.6654677 0.6148247
vt 0.662066 0.378316
vt 0.6679372 0.5820806
vt 0.6620221 0.008904162
vt 0.6575339 0.008081548
vt 0.6616169 0.3452502
vt 0.6573048 0.02450015
vt 0.6539998 0.01031853
vt 0.655751 0.08400964
vt 0.6583967 0.08998901
vt 0.6593536 0.1192108
vt 0.6575638 0.1040089
vt 0.6577939 0.232057
vt 0.6576471 0.3772769
vt 0.6542052 0.642161
vt 0.658853 0.1788096
vt 0.6597778 0.210089
vt 0.6597296 0.3317102
vt 0.6589974 0.2510732
vt 0.6578064 0.3526497
vt 0.6583574 0.610521
vt 0.6609089 0.6403316
vt 0.6594226 0.6428481
vt 0.6611462 0.5668904
vt 0.658431 0.5456442
vt 0.6627505 0.5449077
vt 0.6601958 0.4028304
vt 0.6613489 0.5371663
vt 0.4157664 0.8187368
vt 0.4195067 0.8178301
vt 0.4120553 0.8162985
vt 0.4121242 0.8203824
vt 0.4120484 0.8279251
vt 0.4176709 0.8421611
vt 0.419476 0.8379186
vt 0.412907 0.8464233
vt 0.4195058 0.8458793
vn 0.005229458 0.001742014 -0.9999849
vn 0.0001237786 -0.0002424603 -1
vn 0.002450257 -0.0003945683 -0.9999969
vn 0.01283375 -0.0002298886 -0.9999176
vn 0.01248317 0.001897333 -0.9999202
vn -0.004714982 0.02578834 -0.9996563
vn 0.119493 0.003534987 -0.9928288
vn 0.6804805 -0.004332251 -0.7327533
vn 0.6720636 -0.00539924 -0.7404737
vn 0.9943037 -0.08227155 0.0677608
vn 0.8760628 -0.002685636 -0.4821896
vn 0.9902409 0.003178692 0.1393302
vn 0.1169143 0.001537627 -0.9931409
vn 0.6096709 -0.03064035 0.7920622
vn 0.002172253 -0.00192128 0.9999958
vn 0.9994274 -0.004353475 -0.03355509
vn 0.1263255 0.0001450054 0.9919888
vn 0.7295357 0.002506189 -0.6839381
vn 0.8650877 -0.0009645761 -0.5016197
vn 0.9532911 0.04517542 -0.2986556
vn 0.8722802 0.4889587 0.006829118
vn 0.01237161 0.003225944 0.9999183
vn 0.9912122 -0.003340858 -0.132239
vn 0.99572 -0.0007033171 0.09241877
vn 0.8775111 -0.01318352 0.479375
vn 0.8447716 0.03319979 0.5340962
vn 0.3031869 -0.004505883 0.9529204
vn 0.9894118 0.007641908 0.1449345
vn 0.8532394 0.01853607 0.5211899
vn 0.3105811 0.001938575 0.950545
vn 0.9713108 0.001021213 0.2378115
vn 0.6982002 -0.001186471 0.7159016
vn -0.002621386 0.007484195 0.9999685
vn -0.376652 0.4444426 0.8127755
vn -0.006964707 -0.001311295 0.999975
vn -0.2578772 0.006148643 0.9661582
vn -0.9996772 0.02359272 0.009425681
vn -0.3333682 0.01784765 -0.9426278
vn -0.2707508 -0.009625565 0.9626014
vn -0.7009436 -0.0003824368 0.7132166
vn -0.7340677 -0.001892766 -0.6790736
vn -0.06338619 -0.00106578 -0.9979886
vn -0.03730231 0.000690108 -0.9993038
vn -0.995937 0.001121625 -0.09004585
vn -0.8721587 0.0002125266 -0.4892231
vn -0.9937438 0.003455849 0.1116305
vn -0.3449777 0.001749244 0.9386092
vn -0.6925087 -0.01395312 0.7212745
vn -0.8665181 -0.3479049 0.3579228
vn -0.08395405 -0.002480609 -0.9964665
vn -0.2265986 -0.07688809 -0.9709486
vn -0.6793923 -0.04719427 -0.7322558
vn -0.9829764 0.002729726 -0.1837113
vn -0.4147341 -0.0009151609 -0.9099422
vn 0.007102164 0.9844005 -0.1757988
vn 0.004881923 0.9991339 0.04132315
vn -0.008177266 0.999534 -0.0294079
vn -0.009931625 0.9986454 -0.05107754
vn 0.01836913 0.6106036 -0.7917233
vn -0.03358683 -0.9994123 0.006845373
vn -0.2597896 -0.9644973 0.04747958
vn -0.0332033 -0.998863 0.03420819
vn 0.01816029 -0.9967097 0.07899398
vn 0.07123181 -0.9727499 0.2206438
vn 0.03392259 -0.9993005 0.01574403
vn 0.01899057 -0.6261135 -0.7795007
vn 0.01471977 -0.9901659 0.139122
vn 0.004756693 0.9812557 -0.1926514
vn 0.04620319 0.9935916 0.1031541
vn -0.009394845 0.9994677 -0.03124433
vn -0.009509799 0.9995957 -0.02679414
vn 6.684764E-05 0.9999043 0.01383757
vn 0.1127537 0.9229844 0.3679491
vn 0.1295286 0.8711625 0.4736014
vn 0.0009709452 -0.0003176644 -0.9999995
vn 0.00943668 -3.680239E-05 -0.9999555
vn -0.0001175028 0.0001193471 -1
vn -0.02095937 0.0007010371 -0.9997801
vn -0.01652364 -0.006185034 -0.9998443
vn -0.7586625 -0.1944847 -0.6217773
vn -0.3277176 -0.003609656 -0.9447688
vn -0.7162708 0.01442062 -0.6976733
vn -0.8049215 0.4433856 0.3943483
vn -0.9259424 -0.02070645 0.3770966
vn -0.1013865 -0.01595595 0.9947191
vn -0.9999549 0.00123711 -0.009418539
vn -0.8726135 -0.007692837 0.4883509
vn -0.03305746 -0.0003983168 0.9994534
vn -0.000412057 -0.0009841713 0.9999994
vn -0.9123478 -0.001426892 0.4094135
vn -0.9993542 0.004452892 0.03565647
vn -0.4537705 -0.009293617 0.8910701
vn -0.190054 0.002928693 0.9817693
vn -0.9508021 -0.0006088483 0.309798
vn -0.9944872 -0.0008900355 0.1048535
vn -0.00667893 0.0004955016 0.9999776
vn -0.7842344 0.002970058 0.6204575
vn -0.8872636 0.02460739 0.4606059
vn -0.1627977 0.2956466 0.9413236
vn 0.0002215388 0.2145038 0.9767231
vn 0.03653125 0.007386213 0.9993052
vn 0.002208591 0.0006647739 0.9999974
vn 0.00681589 -0.0002788555 0.9999768
vn 0.2103888 -0.005359767 0.9776031
vn 0.3157756 -0.002381607 0.9488308
vn 0.6019486 0.006017845 0.7985122
vn 0.9325907 0.1853708 0.309697
vn 0.6025895 0.04489453 -0.7967876
vn 0.4282763 0.7120237 -0.5564186
vn 0.04294437 0.02593898 -0.9987407
vn 0.07212763 -0.00272034 -0.9973917
vn 0.08732343 -0.0002191482 -0.9961801
vn 0.9962745 0.001896962 -0.0862179
vn 0.9487974 0.001802757 -0.3158801
vn 0.2688814 0.01599046 -0.9630405
vn 0.9914022 0.003185147 0.1308112
vn 0.4170643 0.00192072 -0.908875
vn 0.4904838 -0.001744789 -0.8714486
vn 0.5585676 0.002369975 -0.8294556
vn 0.860642 -0.001754415 -0.5092075
vn 0.9503508 -0.001271825 -0.3111781
vn 0.9992456 0.002902291 0.03872643
vn 0.9678625 -0.0007608554 0.2514786
vn 0.7060086 0.004945751 0.7081859
vn 0.5416773 -0.0197455 0.8403545
vn 0.7815268 0.01722014 0.623634
vn 0.00704463 -0.9999729 0.002153303
vn -0.001571995 -0.999699 0.02448603
vn 0.009981572 -0.9881287 0.1533034
vn -0.02564684 -0.9992218 0.02996655
vn 0.02822963 -0.5718564 0.8198679
vn -0.4471014 -0.887749 -0.1095541
vn -0.02577541 0.9994571 -0.02052564
vn -0.01929437 0.9118605 -0.4100464
vn 0.01848049 0.998209 -0.05689663
vn 0.1543764 0.9877675 0.0219884
vn 0.2249115 0.9417064 -0.2502072
vn 0.6936858 0.6872531 0.2155998
vn 0.5082268 0.6195195 0.5982483
vn 0.05808318 0.9882997 0.1410316
vn -0.02424707 0.9990896 0.03509991
vn -0.2859451 0.9338415 0.2148847
vn -0.004903471 -0.01101238 -0.9999274
vn -0.01758071 -0.3231697 -0.9461777
vn 0.0695786 -0.005844527 -0.9975593
vn 0.003795679 -0.001709806 -0.9999914
vn -0.003058398 6.167803E-05 -0.9999954
vn -0.003688988 4.644034E-05 -0.9999932
vn -0.002478106 0.000140643 -0.9999969
vn 0.01335326 0.0006237306 -0.9999107
vn 0.04915864 -0.008148158 -0.9987577
vn 0.07505448 0.002976462 -0.997175
vn 0.989281 0.00998884 -0.1456825
vn 0.3791908 -0.001296409 -0.9253176
vn 0.9765179 0.0009196733 -0.2154341
vn 0.9999479 0.000258508 0.01020976
vn 0.5775926 -0.002114871 -0.8163224
vn 0.9296981 -0.001962586 -0.3683174
vn 0.9970986 0.006055737 -0.07588096
vn 0.4641444 -0.007171643 -0.8857304
vn 0.1343809 0.01286268 -0.9908462
vn 0.4544728 0.005481558 -0.8907438
vn 0.9872169 -0.01217485 -0.1589167
vn 0.9947753 -0.03939244 0.09418242
vn 0.9943245 0.001659982 0.1063767
vn 0.08544719 -0.004191191 0.9963338
vn 0.9926524 0.0001026545 -0.1210007
vn 0.4033612 0.1300326 -0.9057545
vn 0.9971625 -0.002531821 -0.07523606
vn 0.5052401 -0.04678752 -0.8617095
vn 0.15251 -0.003662183 -0.9882952
vn 0.102746 0.002418844 -0.9947047
vn 0.5498554 0.003308263 -0.8352534
vn 0.8090279 -0.002908879 -0.5877631
vn 0.4370018 -0.0005406116 -0.8994605
vn 0.8159457 -0.01135874 -0.578017
vn 0.7555153 0.01983749 0.6548305
vn 0.9999698 -0.002239083 0.007436809
vn 0.9772398 0.001586161 0.2121314
vn 0.946786 -0.0001599125 0.3218638
vn 0.9478859 0.001150635 0.318608
vn 0.08989973 0.003483707 0.9959448
vn 0.01279551 0.04453402 0.9989259
vn -0.00534542 0.0001882988 0.9999857
vn 0.1268628 -0.002101304 0.991918
vn 0.02531209 1.26704E-05 0.9996796
vn 0.002045547 0.0003417338 0.9999979
vn -0.0122312 -0.001574824 0.9999239
vn 0.01170162 -0.0001896339 0.9999316
vn 0.4531878 -0.02463261 0.8910747
vn 0.5380684 0.06195782 0.8406209
vn 0.4978638 0.0009023218 0.8672548
vn 0.9512171 -0.003846921 0.3084982
vn 0.2130895 -0.002440401 0.9770296
vn 0.6701919 0.003562142 0.7421793
vn 0.3661009 0.0009317358 0.9305747
vn 0.04651592 -0.001868229 0.9989158
vn -0.06882658 -0.000821113 0.9976283
vn -0.09736648 0.00526466 0.9952347
vn -0.03894182 -0.0001771514 0.9992415
vn -0.3070928 0.000344782 0.9516795
vn -0.701965 -0.01243004 0.712103
vn -0.1053204 -0.0005960005 0.9944382
vn -0.4042102 0.01102581 0.9145996
vn -0.9890898 0.004735806 0.1472376
vn -0.7580206 -0.006492975 0.6521984
vn -0.9747187 0.00278359 0.223418
vn -0.9955727 -0.004336007 0.09389467
vn -0.9985543 -0.00115416 0.05374011
vn -0.8618821 -0.0001772989 -0.5071087
vn -0.3874465 -0.002734235 0.9218882
vn -0.9141868 0.005963756 -0.4052493
vn -0.9699578 0.001120894 0.2432707
vn -0.9266198 0.002132829 0.3759939
vn -0.6514188 -0.0004957913 0.7587181
vn -0.9958274 0.001502873 0.09124426
vn -0.8139148 0.0002921758 -0.5809842
vn -0.9993652 -0.003690499 -0.03543572
vn -0.1093506 -0.001807967 -0.9940016
vn -0.2806277 0.02511624 -0.959488
vn -0.8410494 0.002412048 -0.540953
vn -0.2757568 -0.003649672 -0.9612205
vn -0.3214372 -0.0925116 -0.9424011
vn -0.9934634 0.005768367 -0.1140053
vn -0.7351398 -0.007324862 -0.6778759
vn -0.8787938 -0.2646924 -0.3970635
vn -0.6509205 -0.5474324 -0.5259471
vn 0.37324 0.7240125 0.5800843
vn 0.05906976 0.9919456 0.1120486
vn 0.1898194 0.9087416 0.3716951
vn -0.0685332 0.9957241 -0.06194107
vn -0.006889747 0.9999584 -0.005982547
vn -0.008131231 0.9997743 -0.01963207
vn -0.01102444 0.9261752 -0.3769322
vn 0.5576043 -0.7902506 0.2541288
vn 0.05418507 -0.9985248 0.003488529
vn 0.06485067 -0.9978592 0.008450856
vn -0.01050293 -0.9999253 0.006262369
vn 0.000854704 -0.9999056 -0.01371363
vn -0.02462646 -0.9992963 0.02829065
vn -0.0123275 0.0005154261 -0.9999239
vn -0.001372931 0.00348266 -0.999993
vn 0.01288152 0.5422549 -0.8401152
vn -0.002078738 4.932367E-05 -0.9999979
vn -0.0003892748 -0.002685938 -0.9999963
vn -0.005709743 -0.009555298 -0.999938
vn 0.0006887178 -0.2698081 -0.9629139
vn -0.5665693 -0.229414 -0.7914344
vn -0.5838742 -0.001804592 -0.811842
vn -0.1571103 -0.0004207652 -0.987581
vn -0.9982257 -0.04612719 -0.03765292
vn -0.6899557 -0.01584429 0.7236783
vn -0.9515485 0.002586357 -0.3074877
vn -0.6780318 -0.004287481 0.7350201
vn -0.0008371797 -0.002864623 0.9999956
vn -0.06315226 -0.6997328 0.7116079
vn 0.01244591 -0.007037897 0.9998978
vn 0.004036401 -4.735554E-05 0.9999919
vn 0.878862 -0.006656832 0.4770297
vn -0.5084071 -0.0002141753 0.8611168
vn -0.8455868 0.003429782 -0.5338268
vn -0.4846452 -0.00417419 -0.8747009
vn -0.6514897 0.004996207 -0.7586411
vn -0.9605579 0.001100015 -0.2780776
vn -0.9738963 0.01037315 0.2267564
vn -0.2813119 -0.00737879 0.959588
vn -0.6602955 0.0006935465 0.7510056
vn -0.9484456 -0.01042748 -0.3167684
vn -0.3872072 0.01228777 0.9219109
vn -0.005878782 -0.000240383 0.9999827
vn -0.9708671 -0.01259612 0.2392875
vn 0.0020306 0.0002530595 0.999998
vn -0.6427463 -0.002411929 0.7660753
vn -0.1527817 0.001544065 0.9882587
vn -0.9964777 0.0002734943 0.08385774
vn -0.1645605 -0.0008911969 -0.9863666
vn -0.7324955 0.002106023 -0.6807685
vn -0.27764 -0.00586432 -0.9606674
vn -0.6285182 -0.00423891 0.7777833
vn -0.8018116 0.001470442 -0.5975752
vn -0.5692223 0.02512753 -0.8217996
vn -0.9998245 0.0105499 0.01548585
vn -0.1091047 0.003863579 0.9940228
vn -0.9942003 0.001282477 0.1075362
vn -0.8998824 0.02085607 0.4356336
vn -0.8698744 0.0640016 0.4891034
vn -0.1141373 0.06238091 0.9915045
vn 0.02885578 -0.0008599359 0.9995832
vn 0.06787949 0.004823688 0.9976819
vn 0.4891655 0.001145006 0.8721902
vn 0.6331428 -0.001423359 0.7740336
vn 0.8540913 0.006276471 0.5200853
vn 0.999952 -0.003548843 0.009135959
vn 0.6560014 -0.004261531 -0.7547476
vn 0.9997407 0.005513059 0.02209381
vn 0.9973122 -0.001665965 -0.07325098
vn 0.9216835 0.000515729 0.387942
vn 0.9799517 0.01089018 0.1989377
vn 0.3795153 0.004124578 0.9251763
vn 0.8904995 0.002934954 -0.4549747
vn 0.3379611 0.001664379 -0.9411587
vn 0.1151135 -0.0003762253 -0.9933522
vn 0.0604357 -4.864843E-05 -0.998172
vn 0.08019967 0.007262622 -0.9967524
vn 0.322192 -0.0007172856 0.9466741
vn 0.254214 0.0009242464 -0.9671476
vn 0.3926422 0.02798093 -0.9192656
vn 0.9990879 0.007387792 -0.04205465
vn 0.9211873 -0.001124277 -0.3891178
vn 0.9010423 0.001146216 -0.4337298
vn 0.1033956 -0.0007215003 -0.9946401
vn 0.8280793 0.02281588 -0.5601465
vn 0.7616754 -0.04744762 -0.6462191
vn 0.9876281 -0.002160392 -0.1567992
vn 0.1381385 -0.0008688021 -0.9904125
vn 0.969097 0.0006248762 -0.2466793
vn 0.6663384 -0.009466736 -0.7455894
vn 0.9992912 0.002963797 -0.0375266
vn 0.7295324 -0.0007180243 -0.6839458
vn 0.9999853 -0.001661939 0.005157573
vn 0.9857435 0.001887159 0.1682447
vn 0.9149154 -0.0008447688 0.4036447
vn 0.374075 -0.9269476 -0.02891312
vn 0.01900329 -0.9997846 -0.008339959
vn 0.0144906 -0.9998173 0.01246622
vn -0.01035669 -0.9958819 -0.09006621
vn -0.0119597 -0.9358187 -0.3522786
vn -0.03882782 -0.7978838 -0.6015595
vn -0.01174751 -0.9963455 0.08460302
vn -0.03518532 -0.9517269 0.304923
vn -0.005326071 0.9991604 -0.04062136
vn 0.001611836 0.9998676 0.01619172
vn -0.03650269 0.7939721 0.6068572
vn 0.006011035 0.9983639 -0.05686218
vn -0.005592642 0.9977483 -0.0668354
vn 0.02851543 0.7883568 -0.614557
vn 0.08916883 0.6223472 -0.7776458
vn -0.001228105 6.00132E-05 -0.9999993
vn 0.01555234 2.623889E-05 -0.9998791
vn 0.01064619 -0.0004498785 -0.9999433
vn 0.002905851 -0.0002595629 -0.9999958
vn 0.002087137 -0.0001555295 -0.9999979
vn -0.007822266 0.001024979 -0.9999689
vn -0.1565081 -0.002447394 -0.9876737
vn -0.4859647 0.003908515 -0.8739697
vn -0.01197122 0.0003283534 -0.9999284
vn -0.101526 -0.0005382621 -0.9948328
vn -0.9475368 -0.01139077 -0.3194437
vn -0.9187346 -0.002095951 -0.3948701
vn -0.9151084 -0.08485512 -0.3941779
vn -0.9909463 -0.08512694 0.1038215
vn -0.1904214 0.001292162 -0.9817016
vn -0.9538528 -0.007137025 -0.3001898
vn -0.6437972 -0.005271507 -0.7651779
vn -0.9941366 -0.0004811791 0.10813
vn -0.05835776 -0.001542514 -0.9982945
vn -0.2299772 -0.000736186 -0.9731958
vn -0.9685389 0.001791411 -0.2488555
vn -0.2289686 -0.0003920958 -0.9734337
vn -0.5374226 0.001110986 -0.8433124
vn -0.6137505 -0.002685716 -0.7894955
vn -0.9979852 0.0005568237 -0.06344455
vn -0.999745 -0.002460381 0.02244934
vn -0.9152799 0.274663 0.2946575
vn -0.9997774 0.001165553 0.02106974
vn -0.9994892 -0.0009502685 0.03194376
vn -0.9846455 0.003815304 0.1745241
vn -0.3054865 0.3876619 0.8697104
vn 0.002168952 0.0007377166 0.9999974
vn -0.8597469 0.005788829 0.5106876
vn -0.689768 0.002370022 0.7240266
vn -0.153482 -0.004267509 0.9881422
vn -0.2524299 0.002125162 0.9676128
vn -0.006039489 -0.0008100327 0.9999815
vn -0.2101319 0.009416358 0.9776277
vn -0.9649149 -0.00295907 0.262546
vn -0.8880808 -0.0006909139 0.4596868
vn -0.3139884 -0.01818069 0.9492527
vn -0.3043915 -0.001286049 0.9525461
vn -0.7680703 0.002304787 0.6403613
vn -0.3924183 -0.009422527 0.9197387
vn -0.09267352 -0.0003566589 0.9956964
vn -0.7682561 -0.001216417 0.6401415
vn -0.829361 9.488014E-05 0.5587129
vn -0.994635 0.002314051 0.1034212
vn -0.3419417 0.01882262 0.9395326
vn -0.02472925 0.0006776665 0.999694
vn -0.002733336 0.0006661981 0.9999961
vn 0.002635209 -0.000199601 0.9999965
vn 0.01515912 -0.001561249 0.9998839
vn 0.05500523 0.0001007346 0.9984861
vn 0.9547389 0.002901976 0.2974311
vn 0.2484207 0.001971503 0.9686502
vn 0.8997844 -0.05390313 0.4329924
vn 0.9908808 -0.02908123 -0.1315651
vn 0.998792 -0.001939319 0.04910054
vn 0.8972411 0.02093894 -0.4410442
vn 0.9579234 -0.0001590113 0.2870237
vn 0.9966933 0.006224717 0.08101813
vn 0.8751334 0.1107531 -0.4710363
vn 0.9996958 -0.001327056 -0.02462999
vn 0.8441171 0.001545924 -0.5361565
vn 0.4508471 0.07500705 -0.8894441
vn 0.3344007 -0.006193456 -0.9424107
vn 0.9589385 0.005703804 -0.2835568
vn 0.9985443 0.0007661444 -0.05393114
vn 0.2064385 -0.001033978 -0.978459
vn 0.1335314 0.003539038 -0.9910382
vn 0.04800888 0.0007101835 -0.9988467
vn 0.03003427 -0.008721061 -0.9995109
vn 0.7101215 -0.001928575 -0.7040766
vn 0.9586082 -0.005822999 -0.284669
vn 0.8132415 -0.003079629 -0.5819182
vn 0.5822709 0.0005103072 -0.8129947
vn 0.5061435 -0.004225631 -0.8624389
vn 0.03158298 0.0006287447 -0.999501
vn 0.6989167 -0.02661553 -0.7147077
vn 0.2893713 -0.5876641 -0.7555892
vn 0.7940421 0.0001372815 -0.6078628
vn 0.2907256 0.00803167 -0.9567728
vn 0.9857228 0.001837347 -0.1683657
vn 0.6113347 0.000417331 -0.7913721
vn 0.7275497 -0.005248977 -0.6860349
vn 0.1677027 -0.9843708 -0.05375723
vn 0.06260241 -0.9963063 0.05877728
vn 0.6314779 -0.6008072 -0.4901697
vn 0.234176 -0.8363644 -0.4956372
vn 0.007790843 -0.9994015 -0.03370534
vn -0.05366665 -0.9907833 0.1243713
vn -0.02167274 -0.8002018 0.5993389
vn -0.06499694 -0.9977169 0.01834117
vn -0.3230503 -0.8652782 0.3833171
usemtl Mat_Workbench
f 1/1/1 3/3/3 2/2/2 
f 3/3/3 1/1/1 4/4/4 
f 1/1/1 5/5/5 4/4/4 
f 1/1/1 6/6/6 5/5/5 
f 3/3/3 4/4/4 7/7/7 
f 8/8/8 3/3/3 7/7/7 
f 3/3/3 8/8/8 9/9/9 
f 10/10/10 9/9/9 8/8/8 
f 7/7/7 11/11/11 8/8/8 
f 11/11/11 7/7/7 4/4/4 
f 11/11/11 10/10/10 8/8/8 
f 10/10/10 11/11/11 12/12/12 
f 11/11/11 4/4/4 13/13/13 
f 4/4/4 5/5/5 13/13/13 
f 10/10/10 12/12/12 14/14/14 
f 10/10/10 14/14/14 15/15/15 
f 12/12/12 11/11/11 16/16/16 
f 11/11/11 13/13/13 16/16/16 
f 17/17/17 15/15/15 14/14/14 
f 14/14/14 12/12/12 17/17/17 
f 5/5/5 18/18/18 13/13/13 
f 13/13/13 19/19/19 16/16/16 
f 18/18/18 19/19/19 13/13/13 
f 5/5/5 20/20/20 18/18/18 
f 21/21/21 20/20/20 5/5/5 
f 21/21/21 22/22/22 20/20/20 
f 18/18/18 23/23/23 19/19/19 
f 23/23/23 16/16/16 19/19/19 
f 18/18/18 20/20/20 23/23/23 
f 23/23/23 24/24/24 16/16/16 
f 23/23/23 20/20/20 25/25/25 
f 24/24/24 23/23/23 25/25/25 
f 20/20/20 26/26/26 25/25/25 
f 20/20/20 22/22/22 26/26/26 
f 26/26/26 27/27/27 25/25/25 
f 25/25/25 27/27/27 24/24/24 
f 27/27/27 26/26/26 22/22/22 
f 24/24/24 28/28/28 16/16/16 
f 28/28/28 12/12/12 16/16/16 
f 24/24/24 27/27/27 29/29/29 
f 24/24/24 29/29/29 28/28/28 
f 29/29/29 27/27/27 30/30/30 
f 28/28/28 29/29/29 30/30/30 
f 27/27/27 22/22/22 15/15/15 
f 30/30/30 27/27/27 15/15/15 
f 28/28/28 31/31/31 12/12/12 
f 31/31/31 28/28/28 30/30/30 
f 32/32/32 12/12/12 31/31/31 
f 31/31/31 30/30/30 32/32/32 
f 12/12/12 32/32/32 17/17/17 
f 32/32/32 30/30/30 17/17/17 
f 17/17/17 30/30/30 15/15/15 
f 22/22/22 33/33/33 15/15/15 
f 22/22/22 34/34/34 33/33/33 
f 15/15/15 33/33/33 35/35/35 
f 34/34/34 36/36/36 33/33/33 
f 35/35/35 33/33/33 36/36/36 
f 37/37/37 36/36/36 34/34/34 
f 34/34/34 38/38/38 37/37/37 
f 36/36/36 39/39/39 35/35/35 
f 36/36/36 37/37/37 40/40/40 
f 36/36/36 40/40/40 39/39/39 
f 41/41/41 37/37/37 38/38/38 
f 38/38/38 42/42/42 41/41/41 
f 42/42/42 38/38/38 43/43/43 
f 44/44/44 37/37/37 41/41/41 
f 44/44/44 40/40/40 37/37/37 
f 44/44/44 41/41/41 42/42/42 
f 40/40/40 44/44/44 45/45/45 
f 44/44/44 42/42/42 45/45/45 
f 39/39/39 40/40/40 46/46/46 
f 40/40/40 45/45/45 46/46/46 
f 35/35/35 39/39/39 47/47/47 
f 47/47/47 39/39/39 46/46/46 
f 35/35/35 47/47/47 48/48/48 
f 47/47/47 46/46/46 48/48/48 
f 35/35/35 48/48/48 49/49/49 
f 50/50/50 42/42/42 43/43/43 
f 50/50/50 43/43/43 51/51/51 
f 51/51/51 49/49/49 52/52/52 
f 49/49/49 48/48/48 52/52/52 
f 52/52/52 50/50/50 51/51/51 
f 48/48/48 46/46/46 53/53/53 
f 48/48/48 53/53/53 52/52/52 
f 53/53/53 46/46/46 45/45/45 
f 53/53/53 50/50/50 52/52/52 
f 54/54/54 45/45/45 42/42/42 
f 53/53/53 45/45/45 54/54/54 
f 54/54/54 42/42/42 50/50/50 
f 54/54/54 50/50/50 53/53/53 
f 55/55/55 57/57/57 56/56/56 
f 55/55/55 58/58/58 57/57/57 
f 59/59/59 58/58/58 55/55/55 
f 60/60/60 62/62/62 61/61/61 
f 62/62/62 60/60/60 63/63/63 
f 62/62/62 63/63/63 64/64/64 
f 63/63/63 60/60/60 65/65/65 
f 63/63/63 65/65/65 64/64/64 
f 60/60/60 66/66/66 65/65/65 
f 64/64/64 65/65/65 67/67/67 
f 68/68/68 70/70/70 69/69/69 
f 71/71/71 69/69/69 70/70/70 
f 72/72/72 69/69/69 71/71/71 
f 72/72/72 73/73/73 69/69/69 
f 73/73/73 72/72/72 74/74/74 
f 75/75/75 77/77/77 76/76/76 
f 75/75/75 78/78/78 77/77/77 
f 78/78/78 75/75/75 79/79/79 
f 75/75/75 80/80/80 79/79/79 
f 81/81/81 78/78/78 79/79/79 
f 81/81/81 79/79/79 80/80/80 
f 82/82/82 78/78/78 81/81/81 
f 83/83/83 78/78/78 82/82/82 
f 84/84/84 81/81/81 80/80/80 
f 84/84/84 80/80/80 85/85/85 
f 84/84/84 86/86/86 81/81/81 
f 86/86/86 82/82/82 81/81/81 
f 87/87/87 84/84/84 85/85/85 
f 84/84/84 87/87/87 86/86/86 
f 88/88/88 87/87/87 85/85/85 
f 89/89/89 88/88/88 85/85/85 
f 87/87/87 90/90/90 86/86/86 
f 87/87/87 88/88/88 90/90/90 
f 91/91/91 86/86/86 90/90/90 
f 82/82/82 86/86/86 91/91/91 
f 88/88/88 92/92/92 90/90/90 
f 90/90/90 92/92/92 91/91/91 
f 93/93/93 92/92/92 88/88/88 
f 92/92/92 94/94/94 91/91/91 
f 93/93/93 94/94/94 92/92/92 
f 95/95/95 91/91/91 94/94/94 
f 95/95/95 82/82/82 91/91/91 
f 93/93/93 95/95/95 94/94/94 
f 96/96/96 93/93/93 88/88/88 
f 89/89/89 96/96/96 88/88/88 
f 93/93/93 97/97/97 95/95/95 
f 97/97/97 82/82/82 95/95/95 
f 96/96/96 97/97/97 93/93/93 
f 97/97/97 98/98/98 82/82/82 
f 98/98/98 97/97/97 96/96/96 
f 98/98/98 83/83/83 82/82/82 
f 83/83/83 98/98/98 99/99/99 
f 96/96/96 99/99/99 98/98/98 
f 99/99/99 100/100/100 83/83/83 
f 100/100/100 99/99/99 101/101/101 
f 102/102/102 99/99/99 96/96/96 
f 102/102/102 96/96/96 89/89/89 
f 99/99/99 102/102/102 101/101/101 
f 103/103/103 102/102/102 89/89/89 
f 103/103/103 101/101/101 102/102/102 
f 89/89/89 104/104/104 103/103/103 
f 105/105/105 101/101/101 103/103/103 
f 106/106/106 101/101/101 105/105/105 
f 107/107/107 101/101/101 106/106/106 
f 108/108/108 107/107/107 106/106/106 
f 108/108/108 109/109/109 107/107/107 
f 108/108/108 110/110/110 109/109/109 
f 110/110/110 108/108/108 111/111/111 
f 110/110/110 111/111/111 112/112/112 
f 108/108/108 106/106/106 113/113/113 
f 111/111/111 108/108/108 113/113/113 
f 111/111/111 113/113/113 114/114/114 
f 115/115/115 111/111/111 114/114/114 
f 111/111/111 115/115/115 112/112/112 
f 113/113/113 106/106/106 116/116/116 
f 116/116/116 106/106/106 105/105/105 
f 114/114/114 113/113/113 116/116/116 
f 112/112/112 115/115/115 117/117/117 
f 112/112/112 117/117/117 118/118/118 
f 119/119/119 115/115/115 114/114/114 
f 117/117/117 115/115/115 119/119/119 
f 119/119/119 120/120/120 117/117/117 
f 119/119/119 114/114/114 120/120/120 
f 120/120/120 121/121/121 117/117/117 
f 117/117/117 121/121/121 118/118/118 
f 114/114/114 121/121/121 120/120/120 
f 118/118/118 121/121/121 122/122/122 
f 122/122/122 121/121/121 114/114/114 
f 118/118/118 122/122/122 104/104/104 
f 114/114/114 116/116/116 123/123/123 
f 122/122/122 114/114/114 123/123/123 
f 105/105/105 124/124/124 116/116/116 
f 116/116/116 124/124/124 123/123/123 
f 125/125/125 124/124/124 105/105/105 
f 123/123/123 124/124/124 125/125/125 
f 122/122/122 123/123/123 125/125/125 
f 125/125/125 105/105/105 103/103/103 
f 122/122/122 126/126/126 104/104/104 
f 122/122/122 125/125/125 126/126/126 
f 126/126/126 103/103/103 104/104/104 
f 103/103/103 126/126/126 125/125/125 
f 127/127/127 129/129/129 128/128/128 
f 130/130/130 128/128/128 129/129/129 
f 129/129/129 131/131/131 130/130/130 
f 132/132/132 128/128/128 130/130/130 
f 133/133/133 135/135/135 134/134/134 
f 135/135/135 133/133/133 136/136/136 
f 137/137/137 135/135/135 136/136/136 
f 138/138/138 137/137/137 136/136/136 
f 138/138/138 136/136/136 139/139/139 
f 140/140/140 139/139/139 136/136/136 
f 141/141/141 140/140/140 136/136/136 
f 136/136/136 133/133/133 141/141/141 
f 142/142/142 141/141/141 133/133/133 
f 143/143/143 145/145/145 144/144/144 
f 145/145/145 143/143/143 146/146/146 
f 147/147/147 146/146/146 143/143/143 
f 147/147/147 148/148/148 146/146/146 
f 148/148/148 149/149/149 146/146/146 
f 150/150/150 145/145/145 146/146/146 
f 149/149/149 150/150/150 146/146/146 
f 149/149/149 151/151/151 150/150/150 
f 149/149/149 152/152/152 151/151/151 
f 149/149/149 153/153/153 152/152/152 
f 154/154/154 152/152/152 153/153/153 
f 152/152/152 154/154/154 151/151/151 
f 154/154/154 153/153/153 155/155/155 
f 153/153/153 156/156/156 155/155/155 
f 157/157/157 154/154/154 155/155/155 
f 151/151/151 154/154/154 157/157/157 
f 155/155/155 158/158/158 157/157/157 
f 155/155/155 156/156/156 158/158/158 
f 151/151/151 157/157/157 158/158/158 
f 158/158/158 156/156/156 159/159/159 
f 160/160/160 151/151/151 158/158/158 
f 160/160/160 158/158/158 159/159/159 
f 161/161/161 151/151/151 160/160/160 
f 151/151/151 161/161/161 150/150/150 
f 161/161/161 160/160/160 159/159/159 
f 150/150/150 162/162/162 145/145/145 
f 162/162/162 163/163/163 145/145/145 
f 163/163/163 164/164/164 145/145/145 
f 163/163/163 165/165/165 164/164/164 
f 164/164/164 165/165/165 166/166/166 
f 162/162/162 167/167/167 163/163/163 
f 168/168/168 162/162/162 150/150/150 
f 162/162/162 168/168/168 167/167/167 
f 169/169/169 163/163/163 167/167/167 
f 163/163/163 169/169/169 165/165/165 
f 168/168/168 170/170/170 167/167/167 
f 150/150/150 170/170/170 168/168/168 
f 170/170/170 169/169/169 167/167/167 
f 171/171/171 170/170/170 150/150/150 
f 170/170/170 171/171/171 169/169/169 
f 150/150/150 161/161/161 172/172/172 
f 150/150/150 172/172/172 171/171/171 
f 161/161/161 159/159/159 173/173/173 
f 161/161/161 173/173/173 172/172/172 
f 172/172/172 173/173/173 174/174/174 
f 174/174/174 173/173/173 159/159/159 
f 171/171/171 172/172/172 175/175/175 
f 172/172/172 174/174/174 175/175/175 
f 171/171/171 175/175/175 176/176/176 
f 175/175/175 174/174/174 176/176/176 
f 176/176/176 169/169/169 171/171/171 
f 176/176/176 174/174/174 159/159/159 
f 169/169/169 176/176/176 177/177/177 
f 169/169/169 177/177/177 165/165/165 
f 176/176/176 159/159/159 178/178/178 
f 176/176/176 178/178/178 177/177/177 
f 159/159/159 156/156/156 178/178/178 
f 178/178/178 156/156/156 179/179/179 
f 179/179/179 156/156/156 180/180/180 
f 156/156/156 181/181/181 180/180/180 
f 180/180/180 181/181/181 182/182/182 
f 183/183/183 182/182/182 181/181/181 
f 182/182/182 183/183/183 184/184/184 
f 179/179/179 180/180/180 185/185/185 
f 180/180/180 182/182/182 185/185/185 
f 182/182/182 186/186/186 185/185/185 
f 184/184/184 187/187/187 182/182/182 
f 186/186/186 182/182/182 187/187/187 
f 188/188/188 187/187/187 184/184/184 
f 186/186/186 187/187/187 189/189/189 
f 189/189/189 187/187/187 188/188/188 
f 179/179/179 185/185/185 190/190/190 
f 190/190/190 185/185/185 186/186/186 
f 179/179/179 190/190/190 191/191/191 
f 191/191/191 190/190/190 186/186/186 
f 179/179/179 191/191/191 192/192/192 
f 192/192/192 191/191/191 186/186/186 
f 178/178/178 179/179/179 193/193/193 
f 179/179/179 192/192/192 193/193/193 
f 192/192/192 186/186/186 194/194/194 
f 193/193/193 192/192/192 194/194/194 
f 194/194/194 186/186/186 189/189/189 
f 178/178/178 193/193/193 195/195/195 
f 195/195/195 193/193/193 194/194/194 
f 189/189/189 195/195/195 194/194/194 
f 178/178/178 195/195/195 177/177/177 
f 195/195/195 189/189/189 177/177/177 
f 196/196/196 177/177/177 189/189/189 
f 165/165/165 177/177/177 196/196/196 
f 197/197/197 196/196/196 189/189/189 
f 196/196/196 197/197/197 165/165/165 
f 166/166/166 165/165/165 197/197/197 
f 197/197/197 189/189/189 188/188/188 
f 197/197/197 188/188/188 166/166/166 
f 166/166/166 188/188/188 198/198/198 
f 188/188/188 199/199/199 198/198/198 
f 200/200/200 199/199/199 188/188/188 
f 188/188/188 184/184/184 200/200/200 
f 198/198/198 199/199/199 201/201/201 
f 198/198/198 201/201/201 202/202/202 
f 184/184/184 203/203/203 200/200/200 
f 203/203/203 184/184/184 204/204/204 
f 199/199/199 205/205/205 201/201/201 
f 201/201/201 205/205/205 202/202/202 
f 200/200/200 206/206/206 199/199/199 
f 199/199/199 207/207/207 205/205/205 
f 206/206/206 207/207/207 199/199/199 
f 206/206/206 200/200/200 208/208/208 
f 207/207/207 206/206/206 209/209/209 
f 208/208/208 209/209/209 206/206/206 
f 205/205/205 207/207/207 210/210/210 
f 210/210/210 207/207/207 209/209/209 
f 200/200/200 203/203/203 211/211/211 
f 200/200/200 211/211/211 208/208/208 
f 209/209/209 208/208/208 212/212/212 
f 209/209/209 212/212/212 210/210/210 
f 211/211/211 213/213/213 208/208/208 
f 203/203/203 213/213/213 211/211/211 
f 208/208/208 213/213/213 212/212/212 
f 213/213/213 203/203/203 214/214/214 
f 214/214/214 212/212/212 213/213/213 
f 203/203/203 215/215/215 214/214/214 
f 203/203/203 204/204/204 215/215/215 
f 215/215/215 216/216/216 214/214/214 
f 215/215/215 204/204/204 216/216/216 
f 216/216/216 204/204/204 212/212/212 
f 214/214/214 216/216/216 212/212/212 
f 212/212/212 217/217/217 210/210/210 
f 205/205/205 210/210/210 218/218/218 
f 202/202/202 205/205/205 218/218/218 
f 210/210/210 217/217/217 219/219/219 
f 218/218/218 210/210/210 219/219/219 
f 217/217/217 220/220/220 219/219/219 
f 218/218/218 219/219/219 220/220/220 
f 218/218/218 220/220/220 221/221/221 
f 218/218/218 221/221/221 202/202/202 
f 221/221/221 220/220/220 222/222/222 
f 220/220/220 223/223/223 222/222/222 
f 224/224/224 221/221/221 222/222/222 
f 202/202/202 221/221/221 224/224/224 
f 224/224/224 222/222/222 225/225/225 
f 225/225/225 222/222/222 223/223/223 
f 202/202/202 224/224/224 225/225/225 
f 225/225/225 223/223/223 226/226/226 
f 202/202/202 225/225/225 226/226/226 
f 226/226/226 223/223/223 227/227/227 
f 226/226/226 227/227/227 202/202/202 
f 228/228/228 230/230/230 229/229/229 
f 229/229/229 230/230/230 231/231/231 
f 231/231/231 232/232/232 229/229/229 
f 233/233/233 232/232/232 231/231/231 
f 231/231/231 234/234/234 233/233/233 
f 235/235/235 237/237/237 236/236/236 
f 237/237/237 238/238/238 236/236/236 
f 237/237/237 239/239/239 238/238/238 
f 240/240/240 238/238/238 239/239/239 
f 241/241/241 243/243/243 242/242/242 
f 244/244/244 241/241/241 242/242/242 
f 244/244/244 242/242/242 245/245/245 
f 244/244/244 245/245/245 246/246/246 
f 245/245/245 247/247/247 246/246/246 
f 248/248/248 246/246/246 247/247/247 
f 249/249/249 246/246/246 248/248/248 
f 244/244/244 246/246/246 250/250/250 
f 249/249/249 250/250/250 246/246/246 
f 251/251/251 249/249/249 248/248/248 
f 248/248/248 252/252/252 251/251/251 
f 249/249/249 253/253/253 250/250/250 
f 251/251/251 253/253/253 249/249/249 
f 254/254/254 251/251/251 252/252/252 
f 255/255/255 254/254/254 252/252/252 
f 256/256/256 255/255/255 252/252/252 
f 255/255/255 256/256/256 257/257/257 
f 257/257/257 258/258/258 255/255/255 
f 257/257/257 259/259/259 258/258/258 
f 254/254/254 260/260/260 251/251/251 
f 251/251/251 260/260/260 253/253/253 
f 255/255/255 260/260/260 254/254/254 
f 253/253/253 261/261/261 250/250/250 
f 260/260/260 261/261/261 253/253/253 
f 262/262/262 244/244/244 250/250/250 
f 263/263/263 250/250/250 261/261/261 
f 263/263/263 262/262/262 250/250/250 
f 264/264/264 263/263/263 261/261/261 
f 264/264/264 262/262/262 263/263/263 
f 260/260/260 265/265/265 261/261/261 
f 265/265/265 264/264/264 261/261/261 
f 266/266/266 265/265/265 260/260/260 
f 255/255/255 266/266/266 260/260/260 
f 267/267/267 265/265/265 266/266/266 
f 265/265/265 267/267/267 264/264/264 
f 264/264/264 268/268/268 262/262/262 
f 268/268/268 244/244/244 262/262/262 
f 269/269/269 267/267/267 266/266/266 
f 255/255/255 269/269/269 266/266/266 
f 255/255/255 270/270/270 269/269/269 
f 271/271/271 264/264/264 267/267/267 
f 271/271/271 268/268/268 264/264/264 
f 269/269/269 271/271/271 267/267/267 
f 272/272/272 270/270/270 255/255/255 
f 272/272/272 255/255/255 258/258/258 
f 269/269/269 273/273/273 271/271/271 
f 269/269/269 274/274/274 273/273/273 
f 270/270/270 274/274/274 269/269/269 
f 273/273/273 275/275/275 271/271/271 
f 275/275/275 268/268/268 271/271/271 
f 274/274/274 275/275/275 273/273/273 
f 276/276/276 244/244/244 268/268/268 
f 275/275/275 277/277/277 268/268/268 
f 277/277/277 276/276/276 268/268/268 
f 278/278/278 244/244/244 276/276/276 
f 276/276/276 277/277/277 278/278/278 
f 278/278/278 241/241/241 244/244/244 
f 274/274/274 279/279/279 275/275/275 
f 279/279/279 277/277/277 275/275/275 
f 241/241/241 278/278/278 280/280/280 
f 280/280/280 281/281/281 241/241/241 
f 282/282/282 278/278/278 277/277/277 
f 280/280/280 278/278/278 282/282/282 
f 282/282/282 277/277/277 279/279/279 
f 282/282/282 281/281/281 280/280/280 
f 274/274/274 283/283/283 279/279/279 
f 283/283/283 282/282/282 279/279/279 
f 270/270/270 283/283/283 274/274/274 
f 283/283/283 284/284/284 282/282/282 
f 284/284/284 281/281/281 282/282/282 
f 283/283/283 285/285/285 284/284/284 
f 284/284/284 285/285/285 281/281/281 
f 270/270/270 285/285/285 283/283/283 
f 286/286/286 281/281/281 285/285/285 
f 270/270/270 286/286/286 285/285/285 
f 281/281/281 286/286/286 287/287/287 
f 287/287/287 286/286/286 270/270/270 
f 272/272/272 287/287/287 270/270/270 
f 288/288/288 272/272/272 258/258/258 
f 289/289/289 272/272/272 288/288/288 
f 290/290/290 288/288/288 258/258/258 
f 290/290/290 258/258/258 291/291/291 
f 292/292/292 291/291/291 258/258/258 
f 258/258/258 259/259/259 292/292/292 
f 293/293/293 292/292/292 259/259/259 
f 293/293/293 291/291/291 292/292/292 
f 259/259/259 294/294/294 293/293/293 
f 291/291/291 295/295/295 290/290/290 
f 295/295/295 291/291/291 296/296/296 
f 296/296/296 291/291/291 293/293/293 
f 290/290/290 295/295/295 297/297/297 
f 298/298/298 297/297/297 295/295/295 
f 299/299/299 290/290/290 297/297/297 
f 299/299/299 288/288/288 290/290/290 
f 298/298/298 299/299/299 297/297/297 
f 298/298/298 288/288/288 299/299/299 
f 294/294/294 300/300/300 293/293/293 
f 300/300/300 296/296/296 293/293/293 
f 301/301/301 300/300/300 294/294/294 
f 301/301/301 296/296/296 300/300/300 
f 302/302/302 301/301/301 294/294/294 
f 302/302/302 303/303/303 301/301/301 
f 302/302/302 304/304/304 303/303/303 
f 305/305/305 288/288/288 298/298/298 
f 289/289/289 288/288/288 305/305/305 
f 304/304/304 306/306/306 303/303/303 
f 304/304/304 307/307/307 306/306/306 
f 306/306/306 307/307/307 308/308/308 
f 309/309/309 296/296/296 301/301/301 
f 309/309/309 310/310/310 296/296/296 
f 301/301/301 310/310/310 309/309/309 
f 296/296/296 310/310/310 295/295/295 
f 311/311/311 310/310/310 301/301/301 
f 303/303/303 311/311/311 301/301/301 
f 312/312/312 310/310/310 311/311/311 
f 312/312/312 295/295/295 310/310/310 
f 303/303/303 312/312/312 311/311/311 
f 312/312/312 313/313/313 295/295/295 
f 303/303/303 313/313/313 312/312/312 
f 303/303/303 314/314/314 313/313/313 
f 295/295/295 313/313/313 314/314/314 
f 303/303/303 315/315/315 314/314/314 
f 303/303/303 306/306/306 315/315/315 
f 316/316/316 295/295/295 314/314/314 
f 314/314/314 315/315/315 316/316/316 
f 306/306/306 317/317/317 315/315/315 
f 317/317/317 316/316/316 315/315/315 
f 316/316/316 318/318/318 295/295/295 
f 317/317/317 318/318/318 316/316/316 
f 318/318/318 298/298/298 295/295/295 
f 317/317/317 306/306/306 319/319/319 
f 317/317/317 319/319/319 318/318/318 
f 319/319/319 298/298/298 318/318/318 
f 306/306/306 308/308/308 319/319/319 
f 319/319/319 320/320/320 298/298/298 
f 308/308/308 320/320/320 319/319/319 
f 298/298/298 320/320/320 305/305/305 
f 308/308/308 321/321/321 320/320/320 
f 289/289/289 321/321/321 308/308/308 
f 320/320/320 322/322/322 305/305/305 
f 289/289/289 305/305/305 322/322/322 
f 321/321/321 289/289/289 322/322/322 
f 320/320/320 321/321/321 322/322/322 
f 323/323/323 325/325/325 324/324/324 
f 324/324/324 325/325/325 326/326/326 
f 324/324/324 326/326/326 327/327/327 
f 328/328/328 327/327/327 326/326/326 
f 325/325/325 329/329/329 326/326/326 
f 329/329/329 325/325/325 330/330/330 
f 331/331/331 333/333/333 332/332/332 
f 331/331/331 332/332/332 334/334/334 
f 335/335/335 331/331/331 334/334/334 
f 334/334/334 336/336/336 335/335/335 
f 334/334/334 337/337/337 336/336/336 
f 338/338/338 340/340/340 339/339/339 
f 341/341/341 338/338/338 339/339/339 
f 342/342/342 338/338/338 341/341/341 
f 343/343/343 338/338/338 342/342/342 
f 342/342/342 341/341/341 344/344/344 
f 343/343/343 345/345/345 338/338/338 
f 346/346/346 343/343/343 342/342/342 
f 347/347/347 342/342/342 344/344/344 
f 347/347/347 346/346/346 342/342/342 
f 348/348/348 347/347/347 344/344/344 
f 349/349/349 348/348/348 344/344/344 
f 349/349/349 344/344/344 350/350/350 
f 351/351/351 349/349/349 350/350/350 
f 351/351/351 348/348/348 349/349/349 
f 347/347/347 352/352/352 346/346/346 
f 353/353/353 346/346/346 352/352/352 
f 354/354/354 353/353/353 352/352/352 
f 354/354/354 352/352/352 347/347/347 
f 348/348/348 354/354/354 347/347/347 
f 348/348/348 353/353/353 354/354/354 
f 351/351/351 355/355/355 348/348/348 
f 348/348/348 355/355/355 353/353/353 
f 343/343/343 346/346/346 356/356/356 
f 357/357/357 346/346/346 353/353/353 
f 357/357/357 356/356/356 346/346/346 
f 356/356/356 357/357/357 358/358/358 
f 358/358/358 357/357/357 353/353/353 
f 359/359/359 343/343/343 356/356/356 
f 359/359/359 356/356/356 358/358/358 
f 359/359/359 360/360/360 343/343/343 
f 358/358/358 360/360/360 359/359/359 
f 360/360/360 361/361/361 343/343/343 
f 345/345/345 343/343/343 361/361/361 
f 362/362/362 361/361/361 360/360/360 
f 362/362/362 345/345/345 361/361/361 
f 362/362/362 360/360/360 358/358/358 
f 363/363/363 345/345/345 362/362/362 
f 363/363/363 364/364/364 345/345/345 
f 362/362/362 358/358/358 365/365/365 
f 363/363/363 362/362/362 365/365/365 
f 366/366/366 365/365/365 358/358/358 
f 367/367/367 358/358/358 353/353/353 
f 366/366/366 358/358/358 367/367/367 
f 364/364/364 363/363/363 368/368/368 
f 364/364/364 368/368/368 369/369/369 
f 370/370/370 367/367/367 353/353/353 
f 370/370/370 353/353/353 355/355/355 
f 371/371/371 366/366/366 367/367/367 
f 370/370/370 372/372/372 367/367/367 
f 371/371/371 367/367/367 372/372/372 
f 370/370/370 355/355/355 373/373/373 
f 373/373/373 372/372/372 370/370/370 
f 372/372/372 373/373/373 374/374/374 
f 375/375/375 372/372/372 374/374/374 
f 372/372/372 375/375/375 371/371/371 
f 371/371/371 376/376/376 366/366/366 
f 375/375/375 376/376/376 371/371/371 
f 365/365/365 366/366/366 376/376/376 
f 377/377/377 373/373/373 355/355/355 
f 377/377/377 355/355/355 351/351/351 
f 378/378/378 373/373/373 377/377/377 
f 378/378/378 377/377/377 351/351/351 
f 378/378/378 351/351/351 374/374/374 
f 378/378/378 374/374/374 373/373/373 
f 375/375/375 379/379/379 376/376/376 
f 379/379/379 380/380/380 376/376/376 
f 380/380/380 365/365/365 376/376/376 
f 379/379/379 381/381/381 380/380/380 
f 375/375/375 381/381/381 379/379/379 
f 381/381/381 365/365/365 380/380/380 
f 382/382/382 381/381/381 375/375/375 
f 374/374/374 382/382/382 375/375/375 
f 383/383/383 365/365/365 381/381/381 
f 381/381/381 382/382/382 383/383/383 
f 384/384/384 365/365/365 383/383/383 
f 382/382/382 384/384/384 383/383/383 
f 384/384/384 385/385/385 365/365/365 
f 385/385/385 363/363/363 365/365/365 
f 386/386/386 385/385/385 384/384/384 
f 386/386/386 384/384/384 382/382/382 
f 386/386/386 363/363/363 385/385/385 
f 387/387/387 386/386/386 382/382/382 
f 387/387/387 363/363/363 386/386/386 
f 374/374/374 387/387/387 382/382/382 
f 387/387/387 368/368/368 363/363/363 
f 388/388/388 368/368/368 387/387/387 
f 388/388/388 387/387/387 374/374/374 
f 388/388/388 369/369/369 368/368/368 
f 389/389/389 388/388/388 374/374/374 
f 369/369/369 388/388/388 389/389/389 
f 390/390/390 389/389/389 374/374/374 
f 390/390/390 369/369/369 389/389/389 
f 390/390/390 391/391/391 369/369/369 
f 392/392/392 369/369/369 391/391/391 
f 393/393/393 391/391/391 390/390/390 
f 392/392/392 391/391/391 393/393/393 
f 393/393/393 390/390/390 394/394/394 
f 395/395/395 394/394/394 390/390/390 
f 396/396/396 393/393/393 394/394/394 
f 395/395/395 396/396/396 394/394/394 
f 397/397/397 396/396/396 395/395/395 
f 392/392/392 393/393/393 398/398/398 
f 396/396/396 398/398/398 393/393/393 
f 399/399/399 392/392/392 398/398/398 
f 399/399/399 398/398/398 396/396/396 
f 400/400/400 392/392/392 399/399/399 
f 401/401/401 396/396/396 397/397/397 
f 399/399/399 396/396/396 401/401/401 
f 400/400/400 399/399/399 402/402/402 
f 400/400/400 402/402/402 403/403/403 
f 404/404/404 403/403/403 402/402/402 
f 402/402/402 399/399/399 405/405/405 
f 404/404/404 402/402/402 405/405/405 
f 405/405/405 399/399/399 406/406/406 
f 406/406/406 399/399/399 401/401/401 
f 404/404/404 405/405/405 407/407/407 
f 407/407/407 405/405/405 406/406/406 
f 404/404/404 407/407/407 408/408/408 
f 404/404/404 408/408/408 409/409/409 
f 404/404/404 409/409/409 410/410/410 
f 407/407/407 406/406/406 411/411/411 
f 407/407/407 411/411/411 408/408/408 
f 411/411/411 406/406/406 412/412/412 
f 412/412/412 406/406/406 401/401/401 
f 408/408/408 411/411/411 412/412/412 
f 412/412/412 401/401/401 413/413/413 
f 408/408/408 412/412/412 414/414/414 
f 413/413/413 414/414/414 412/412/412 
f 415/415/415 413/413/413 401/401/401 
f 413/413/413 415/415/415 414/414/414 
f 408/408/408 414/414/414 415/415/415 
f 409/409/409 408/408/408 415/415/415 
f 415/415/415 401/401/401 397/397/397 
f 409/409/409 415/415/415 397/397/397 
f 409/409/409 416/416/416 410/410/410 
f 410/410/410 416/416/416 417/417/417 
f 410/410/410 417/417/417 418/418/418 
f 395/395/395 418/418/418 417/417/417 
f 416/416/416 419/419/419 417/417/417 
f 417/417/417 419/419/419 395/395/395 
f 409/409/409 420/420/420 416/416/416 
f 416/416/416 420/420/420 419/419/419 
f 421/421/421 395/395/395 419/419/419 
f 421/421/421 397/397/397 395/395/395 
f 420/420/420 421/421/421 419/419/419 
f 420/420/420 409/409/409 422/422/422 
f 422/422/422 409/409/409 397/397/397 
f 423/423/423 397/397/397 421/421/421 
f 421/421/421 420/420/420 423/423/423 
f 422/422/422 423/423/423 420/420/420 
f 422/422/422 397/397/397 423/423/423 
f 424/424/424 426/426/426 425/425/425 
f 426/426/426 424/424/424 427/427/427 
f 427/427/427 424/424/424 428/428/428 
f 424/424/424 425/425/425 429/429/429 
f 424/424/424 429/429/429 428/428/428 
f 425/425/425 430/430/430 429/429/429 
f 428/428/428 429/429/429 431/431/431 
f 432/432/432 429/429/429 430/430/430 
f 432/432/432 431/431/431 429/429/429 
