# exported by StudySceneExporter from mesh 'Light_Fixture_Bulbs_low'
mtllib materials.mtl
v 0.0183182 0.05457296 0.4218599
v 0.0183182 0.05457296 0.4392654
v 0.01692382 0.06158304 0.4392654
v 0.01692382 0.06158304 0.4218599
v 0.01295295 0.06752588 0.4392654
v 0.0199871 0.05457296 0.4192881
v 0.01295295 0.06752588 0.4218599
v 0.007010107 0.07149687 0.4392654
v 0.01846564 0.06222166 0.4192881
v 0.007010107 0.07149687 0.4218599
v -2.861023E-08 0.07289118 0.4392654
v 0.01846564 0.06222166 -3.814697E-08
v 0.0199871 0.05457296 -3.814697E-08
v 0.014133 0.068706 -3.814697E-08
v 0.014133 0.068706 0.4192881
v 0.007648726 0.07303865 -3.814697E-08
v 0.007648726 0.07303865 0.4192881
v -2.861023E-08 0.07456007 -3.814697E-08
v -2.861023E-08 0.07289118 0.4218599
v -0.007010088 0.07149687 0.4392654
v -2.861023E-08 0.07456007 0.4192881
v -0.007648745 0.07303865 -3.814697E-08
v -0.007010088 0.07149687 0.4218599
v -0.01295295 0.06752588 0.4392654
v -0.007648745 0.07303865 0.4192881
v -0.01413302 0.068706 -3.814697E-08
v -0.01295295 0.06752588 0.4218599
v -0.01692387 0.06158304 0.4392654
v -0.01413302 0.068706 0.4192881
v -0.01846568 0.06222166 -3.814697E-08
v -0.01692387 0.06158304 0.4218599
v -0.01831822 0.05457296 0.4392654
v -0.01846568 0.06222166 0.4192881
v -0.0199871 0.05457296 -3.814697E-08
v -0.01831822 0.05457296 0.4218599
v -0.01692384 0.04756289 0.4392654
v -0.0199871 0.05457296 0.4192881
v -0.01846568 0.04692427 -3.814697E-08
v -0.01692384 0.04756289 0.4218599
v -0.01295297 0.04162012 0.4392654
v -0.01846568 0.04692427 0.4192881
v -0.01413304 0.04044 -3.814697E-08
v -0.01295297 0.04162012 0.4218599
v -0.007010107 0.03764914 0.4392654
v -0.01413304 0.04044 0.4192881
v -0.007648745 0.03610735 -3.814697E-08
v -0.007010107 0.03764914 0.4218599
v -4.768371E-08 0.03625475 0.4392654
v -0.007648745 0.03610735 0.4192881
v -2.861023E-08 0.03458593 -3.814697E-08
v -4.768371E-08 0.03625475 0.4218599
v 0.007010069 0.0376491 0.4392654
v -2.861023E-08 0.03458593 0.4192881
v 0.007648726 0.03610727 -3.814697E-08
v 0.007010069 0.0376491 0.4218599
v 0.01295295 0.04162012 0.4392654
v 0.007648726 0.03610727 0.4192881
v 0.01413297 0.04044 -3.814697E-08
v 0.01295295 0.04162012 0.4218599
v 0.01692384 0.04756289 0.4392654
v 0.01413297 0.04044 0.4192881
v 0.01846564 0.04692427 -3.814697E-08
v 0.01692384 0.04756289 0.4218599
v 0.0183182 0.05457296 0.4392654
v 0.0183182 0.05457296 0.4218599
v 0.01846564 0.04692427 0.4192881
v 0.0199871 0.05457296 -3.814697E-08
v 0.0199871 0.05457296 0.4192881
v 0.0183182 0.05457296 -0.4218599
v 0.01692382 0.06158304 -0.4392654
v 0.0183182 0.05457296 -0.4392654
v 0.01692382 0.06158304 -0.4218599
v 0.01295295 0.06752588 -0.4392654
v 0.0199871 0.05457296 -0.4192881
v 0.01295295 0.06752588 -0.4218599
v 0.007010107 0.07149687 -0.4392654
v 0.01846564 0.06222166 -0.4192881
v 0.007010107 0.07149687 -0.4218599
v -2.861023E-08 0.07289118 -0.4392654
v 0.01846564 0.06222166 -3.814697E-08
v 0.0199871 0.05457296 -3.814697E-08
v 0.014133 0.068706 -3.814697E-08
v 0.014133 0.068706 -0.4192881
v 0.007648726 0.07303865 -3.814697E-08
v 0.007648726 0.07303865 -0.4192881
v -2.861023E-08 0.07456007 -3.814697E-08
v -2.861023E-08 0.07289118 -0.4218599
v -0.007010088 0.07149687 -0.4392654
v -2.861023E-08 0.07456007 -0.4192881
v -0.007648745 0.07303865 -3.814697E-08
v -0.007010088 0.07149687 -0.4218599
v -0.01295295 0.06752588 -0.4392654
v -0.007648745 0.07303865 -0.4192881
v -0.01413302 0.068706 -3.814697E-08
v -0.01295295 0.06752588 -0.4218599
v -0.01692387 0.06158304 -0.4392654
v -0.01413302 0.068706 -0.4192881
v -0.01846568 0.06222166 -3.814697E-08
v -0.01692387 0.06158304 -0.4218599
v -0.01831822 0.05457296 -0.4392654
v -0.01846568 0.06222166 -0.4192881
v -0.0199871 0.05457296 -3.814697E-08
v -0.01831822 0.05457296 -0.4218599
v -0.01692384 0.04756289 -0.4392654
v -0.0199871 0.05457296 -0.4192881
v -0.01846568 0.04692427 -3.814697E-08
v -0.01692384 0.04756289 -0.4218599
v -0.01295297 0.04162012 -0.4392654
v -0.01846568 0.04692427 -0.4192881
v -0.01413304 0.04044 -3.814697E-08
v -0.01295297 0.04162012 -0.4218599
v -0.007010107 0.03764914 -0.4392654
v -0.01413304 0.04044 -0.4192881
v -0.007648745 0.03610735 -3.814697E-08
v -0.007010107 0.03764914 -0.4218599
v -4.768371E-08 0.03625475 -0.4392654
v -0.007648745 0.03610735 -0.4192881
v -2.861023E-08 0.03458593 -3.814697E-08
v -4.768371E-08 0.03625475 -0.4218599
v 0.007010069 0.0376491 -0.4392654
v -2.861023E-08 0.03458593 -0.4192881
v 0.007648726 0.03610727 -3.814697E-08
v 0.007010069 0.0376491 -0.4218599
v 0.01295295 0.04162012 -0.4392654
v 0.007648726 0.03610727 -0.4192881
v 0.01413297 0.04044 -3.814697E-08
v 0.01295295 0.04162012 -0.4218599
v 0.01692384 0.04756289 -0.4392654
v 0.01413297 0.04044 -0.4192881
v 0.01846564 0.04692427 -3.814697E-08
v 0.01692384 0.04756289 -0.4218599
v 0.0183182 0.05457296 -0.4392654
v 0.0183182 0.05457296 -0.4218599
v 0.01846564 0.04692427 -0.4192881
v 0.0199871 0.05457296 -3.814697E-08
v 0.0199871 0.05457296 -0.4192881
v 0.0183182 -0.054573 0.4218599
v 0.01692382 -0.06158312 0.4392654
v 0.0183182 -0.054573 0.4392654
v 0.01692382 -0.06158312 0.4218599
v 0.01295295 -0.06752592 0.4392654
v 0.0199871 -0.054573 0.4192881
v 0.01295295 -0.06752592 0.4218599
v 0.007010107 -0.0714969 0.4392654
v 0.01846564 -0.0622217 0.4192881
v 0.007010107 -0.0714969 0.4218599
v -2.861023E-08 -0.07289121 0.4392654
v 0.01846564 -0.0622217 -3.814697E-08
v 0.0199871 -0.054573 -3.814697E-08
v 0.014133 -0.06870607 -3.814697E-08
v 0.014133 -0.06870607 0.4192881
v 0.007648726 -0.07303873 -3.814697E-08
v 0.007648726 -0.07303873 0.4192881
v -2.861023E-08 -0.07456007 -3.814697E-08
v -2.861023E-08 -0.07289121 0.4218599
v -0.007010088 -0.0714969 0.4392654
v -2.861023E-08 -0.07456007 0.4192881
v -0.007648745 -0.07303873 -3.814697E-08
v -0.007010088 -0.0714969 0.4218599
v -0.01295295 -0.06752592 0.4392654
v -0.007648745 -0.07303873 0.4192881
v -0.01413302 -0.06870607 -3.814697E-08
v -0.01295295 -0.06752592 0.4218599
v -0.01692387 -0.06158312 0.4392654
v -0.01413302 -0.06870607 0.4192881
v -0.01846568 -0.0622217 -3.814697E-08
v -0.01692387 -0.06158312 0.4218599
v -0.01831822 -0.054573 0.4392654
v -0.01846568 -0.0622217 0.4192881
v -0.0199871 -0.054573 -3.814697E-08
v -0.01831822 -0.054573 0.4218599
v -0.01692384 -0.04756296 0.4392654
v -0.0199871 -0.054573 0.4192881
v -0.01846568 -0.04692427 -3.814697E-08
v -0.01692384 -0.04756296 0.4218599
v -0.01295297 -0.04162016 0.4392654
v -0.01846568 -0.04692427 0.4192881
v -0.01413304 -0.04044 -3.814697E-08
v -0.01295297 -0.04162016 0.4218599
v -0.007010107 -0.03764921 0.4392654
v -0.01413304 -0.04044 0.4192881
v -0.007648745 -0.03610742 -3.814697E-08
v -0.007010107 -0.03764921 0.4218599
v -4.768371E-08 -0.03625479 0.4392654
v -0.007648745 -0.03610742 0.4192881
v -2.861023E-08 -0.03458593 -3.814697E-08
v -4.768371E-08 -0.03625479 0.4218599
v 0.007010069 -0.03764914 0.4392654
v -2.861023E-08 -0.03458593 0.4192881
v 0.007648726 -0.03610735 -3.814697E-08
v 0.007010069 -0.03764914 0.4218599
v 0.01295295 -0.04162016 0.4392654
v 0.007648726 -0.03610735 0.4192881
v 0.01413297 -0.04044 -3.814697E-08
v 0.01295295 -0.04162016 0.4218599
v 0.01692384 -0.04756296 0.4392654
v 0.01413297 -0.04044 0.4192881
v 0.01846564 -0.04692427 -3.814697E-08
v 0.01692384 -0.04756296 0.4218599
v 0.0183182 -0.054573 0.4392654
v 0.0183182 -0.054573 0.4218599
v 0.01846564 -0.04692427 0.4192881
v 0.0199871 -0.054573 -3.814697E-08
v 0.0199871 -0.054573 0.4192881
v 0.0183182 -0.054573 -0.4218599
v 0.0183182 -0.054573 -0.4392654
v 0.01692382 -0.06158312 -0.4392654
v 0.01692382 -0.06158312 -0.4218599
v 0.0199871 -0.054573 -0.4192881
v 0.01295295 -0.06752592 -0.4392654
v 0.01846564 -0.0622217 -0.4192881
v 0.0199871 -0.054573 -3.814697E-08
v 0.01846564 -0.0622217 -3.814697E-08
v 0.01295295 -0.06752592 -0.4218599
v 0.007010107 -0.0714969 -0.4392654
v 0.014133 -0.06870607 -0.4192881
v 0.014133 -0.06870607 -3.814697E-08
v 0.007010107 -0.0714969 -0.4218599
v -2.861023E-08 -0.07289121 -0.4392654
v 0.007648726 -0.07303873 -0.4192881
v 0.007648726 -0.07303873 -3.814697E-08
v -2.861023E-08 -0.07289121 -0.4218599
v -0.007010088 -0.0714969 -0.4392654
v -2.861023E-08 -0.07456007 -0.4192881
v -2.861023E-08 -0.07456007 -3.814697E-08
v -0.007010088 -0.0714969 -0.4218599
v -0.01295295 -0.06752592 -0.4392654
v -0.007648745 -0.07303873 -0.4192881
v -0.007648745 -0.07303873 -3.814697E-08
v -0.01295295 -0.06752592 -0.4218599
v -0.01692387 -0.06158312 -0.4392654
v -0.01413302 -0.06870607 -0.4192881
v -0.01413302 -0.06870607 -3.814697E-08
v -0.01692387 -0.06158312 -0.4218599
v -0.01831822 -0.054573 -0.4392654
v -0.01846568 -0.0622217 -0.4192881
v -0.01846568 -0.0622217 -3.814697E-08
v -0.01831822 -0.054573 -0.4218599
v -0.01692384 -0.04756296 -0.4392654
v -0.0199871 -0.054573 -0.4192881
v -0.0199871 -0.054573 -3.814697E-08
v -0.01692384 -0.04756296 -0.4218599
v -0.01295297 -0.04162016 -0.4392654
v -0.01846568 -0.04692427 -0.4192881
v -0.01846568 -0.04692427 -3.814697E-08
v -0.01295297 -0.04162016 -0.4218599
v -0.007010107 -0.03764921 -0.4392654
v -0.01413304 -0.04044 -0.4192881
v -0.01413304 -0.04044 -3.814697E-08
v -0.007010107 -0.03764921 -0.4218599
v -4.768371E-08 -0.03625479 -0.4392654
v -0.007648745 -0.03610742 -0.4192881
v -0.007648745 -0.03610742 -3.814697E-08
v -4.768371E-08 -0.03625479 -0.4218599
v 0.007010069 -0.03764914 -0.4392654
v -2.861023E-08 -0.03458593 -0.4192881
v -2.861023E-08 -0.03458593 -3.814697E-08
v 0.007010069 -0.03764914 -0.4218599
v 0.01295295 -0.04162016 -0.4392654
v 0.007648726 -0.03610735 -0.4192881
v 0.007648726 -0.03610735 -3.814697E-08
v 0.01295295 -0.04162016 -0.4218599
v 0.01692384 -0.04756296 -0.4392654
v 0.01413297 -0.04044 -0.4192881
v 0.01413297 -0.04044 -3.814697E-08
v 0.01692384 -0.04756296 -0.4218599
v 0.0183182 -0.054573 -0.4392654
v 0.0183182 -0.054573 -0.4218599
v 0.01846564 -0.04692427 -0.4192881
v 0.01846564 -0.04692427 -3.814697E-08
v 0.0199871 -0.054573 -0.4192881
v 0.0199871 -0.054573 -3.814697E-08
vt 0.02588156 0.6135188
vt 0.0078125 0.6147768
vt 0.008101001 0.6222494
vt 0.02626819 0.6211545
vt 0.008292943 0.629868
vt 0.02915994 0.6126752
vt 0.02643931 0.629045
vt 0.008410975 0.6376093
vt 0.02946487 0.6207754
vt 0.02653578 0.6370317
vt 0.008481398 0.645441
vt 0.46643 0.6204311
vt 0.4664214 0.6123019
vt 0.4664378 0.6285626
vt 0.02960549 0.628858
vt 0.4664441 0.6366958
vt 0.02969437 0.6369293
vt 0.4664487 0.6448299
vt 0.02659754 0.6450526
vt 0.008522674 0.6533352
vt 0.02975607 0.6449939
vt 0.4664515 0.6529647
vt 0.02663803 0.6530862
vt 0.008546144 0.6612712
vt 0.02979864 0.6530544
vt 0.4664524 0.6611
vt 0.02666333 0.6611252
vt 0.008558378 0.6692324
vt 0.02982619 0.6611124
vt 0.4664513 0.6692356
vt 0.02667695 0.6691667
vt 0.008562744 0.677206
vt 0.02984134 0.6691689
vt 0.4664482 0.6773712
vt 0.02668072 0.6772091
vt 0.00856027 0.6851804
vt 0.02984564 0.6772247
vt 0.4664431 0.6855068
vt 0.02667518 0.6852517
vt 0.00854972 0.6931437
vt 0.0298396 0.6852804
vt 0.466436 0.6936421
vt 0.02665976 0.6932933
vt 0.008527175 0.7010832
vt 0.0298228 0.6933368
vt 0.4664268 0.7017771
vt 0.02663258 0.701333
vt 0.00848484 0.7089828
vt 0.02979364 0.7013949
vt 0.4664158 0.7099113
vt 0.02659021 0.7093679
vt 0.008409336 0.7168218
vt 0.02974959 0.7094556
vt 0.4664028 0.7180446
vt 0.02652717 0.7173914
vt 0.008279741 0.7245734
vt 0.02968635 0.7175205
vt 0.4663883 0.7261765
vt 0.02643371 0.7253836
vt 0.008072823 0.7322083
vt 0.02959497 0.7255923
vt 0.4663722 0.7343058
vt 0.02628203 0.7332837
vt 0.007814556 0.7397403
vt 0.02592175 0.7409027
vt 0.02944759 0.7336757
vt 0.4663564 0.7424296
vt 0.02913523 0.7417793
vt 0.4483874 0.4756284
vt 0.4661672 0.4843606
vt 0.4664563 0.476888
vt 0.4480001 0.4832641
vt 0.4659745 0.4919791
vt 0.4451091 0.4747845
vt 0.4478284 0.4911545
vt 0.4658558 0.4997204
vt 0.4448034 0.4828846
vt 0.4477312 0.4991411
vt 0.4657847 0.5075521
vt 0.007838488 0.4825014
vt 0.007847816 0.4743723
vt 0.007829994 0.4906331
vt 0.4446621 0.4909672
vt 0.007822931 0.4987661
vt 0.4445725 0.4990385
vt 0.007817596 0.5069003
vt 0.4476687 0.5071621
vt 0.4657427 0.5154462
vt 0.44451 0.5071031
vt 0.00781408 0.515035
vt 0.4476275 0.5151957
vt 0.4657185 0.5233822
vt 0.4444668 0.5151637
vt 0.0078125 0.5231704
vt 0.4476015 0.5232347
vt 0.4657056 0.5313435
vt 0.4444385 0.5232216
vt 0.007812858 0.5313059
vt 0.4475871 0.5312762
vt 0.4657006 0.5393171
vt 0.4444227 0.5312781
vt 0.007815242 0.5394416
vt 0.4475826 0.5393186
vt 0.4657023 0.5472915
vt 0.4444177 0.5393338
vt 0.007819653 0.5475772
vt 0.4475874 0.5473612
vt 0.4657121 0.5552547
vt 0.444423 0.5473895
vt 0.00782603 0.5557125
vt 0.4476022 0.5554028
vt 0.465734 0.5631943
vt 0.4444391 0.555446
vt 0.007834435 0.5638475
vt 0.4476286 0.5634425
vt 0.4657756 0.5710939
vt 0.4444675 0.5635041
vt 0.007844806 0.5719818
vt 0.4476703 0.5714774
vt 0.4658504 0.5789329
vt 0.4445108 0.5715648
vt 0.007856965 0.5801151
vt 0.4477327 0.5795009
vt 0.4659793 0.5866845
vt 0.4445733 0.5796297
vt 0.007870853 0.5882469
vt 0.4478254 0.5874932
vt 0.4661855 0.5943195
vt 0.444664 0.5877014
vt 0.007886171 0.5963762
vt 0.4479763 0.5953932
vt 0.4664431 0.6018514
vt 0.4483359 0.6030123
vt 0.4448107 0.595785
vt 0.007901192 0.6045
vt 0.4451223 0.6038886
vt 0.4128473 0.448394
vt 0.4041128 0.4661728
vt 0.4115854 0.4664628
vt 0.4052115 0.4480058
vt 0.3964944 0.4659792
vt 0.4136915 0.4451159
vt 0.3973212 0.4478331
vt 0.388753 0.4658595
vt 0.4055915 0.4448092
vt 0.3893346 0.4477349
vt 0.3809214 0.4657874
vt 0.4060285 0.00784415
vt 0.4141576 0.007854491
vt 0.3978969 0.007834673
vt 0.3975087 0.4446668
vt 0.3897638 0.007826596
vt 0.3894376 0.4445762
vt 0.3816297 0.007820278
vt 0.3813136 0.4476714
vt 0.3730272 0.4657445
vt 0.381373 0.4445129
vt 0.3734949 0.007815719
vt 0.37328 0.4476292
vt 0.3650912 0.4657193
vt 0.3733124 0.4444685
vt 0.3653596 0.007813126
vt 0.3652409 0.4476022
vt 0.35713 0.4657055
vt 0.3652545 0.4444393
vt 0.3572239 0.0078125
vt 0.3571996 0.4475869
vt 0.3491563 0.4656993
vt 0.3571979 0.4444225
vt 0.3490883 0.007813871
vt 0.3491571 0.4475814
vt 0.341182 0.4657001
vt 0.3491423 0.4444165
vt 0.3409527 0.007817239
vt 0.3411146 0.4475853
vt 0.3332187 0.465709
vt 0.3410865 0.4444208
vt 0.3328173 0.007822663
vt 0.3330729 0.447599
vt 0.3252792 0.4657299
vt 0.33303 0.4444359
vt 0.3246824 0.007830054
vt 0.3250333 0.4476244
vt 0.3173796 0.4657705
vt 0.324972 0.4444633
vt 0.3165481 0.007839382
vt 0.3169983 0.4476651
vt 0.3095406 0.4658444
vt 0.3169112 0.4445057
vt 0.3084148 0.007850587
vt 0.3089748 0.4477264
vt 0.301789 0.4659723
vt 0.3088463 0.4445672
vt 0.3002831 0.007863492
vt 0.3009824 0.4478182
vt 0.2941539 0.4661776
vt 0.3007746 0.4446568
vt 0.2921537 0.007877827
vt 0.2930824 0.4479682
vt 0.286622 0.4664343
vt 0.2854633 0.4483268
vt 0.2926911 0.4448025
vt 0.2840299 0.007891834
vt 0.2845874 0.4451132
vt 0.8281873 0.02588107
vt 0.8269221 0.0078125
vt 0.8194495 0.008103305
vt 0.8205497 0.0262711
vt 0.8290348 0.02915863
vt 0.8118309 0.008296944
vt 0.8209296 0.02946826
vt 0.8294919 0.4664034
vt 0.8213682 0.4664123
vt 0.8126577 0.02644387
vt 0.8040894 0.008416065
vt 0.8128447 0.02961039
vt 0.8132388 0.4664227
vt 0.8046699 0.02654116
vt 0.7962576 0.008487227
vt 0.8047722 0.02969992
vt 0.8051072 0.4664322
vt 0.7966481 0.02660338
vt 0.7883632 0.008528936
vt 0.7967067 0.02976198
vt 0.7969739 0.4664402
vt 0.788614 0.02664415
vt 0.7804273 0.008552634
vt 0.7886456 0.02980481
vt 0.7888398 0.4664465
vt 0.7805746 0.02666965
vt 0.7724661 0.00856497
vt 0.7805873 0.02983254
vt 0.7807049 0.4664509
vt 0.7725329 0.02668343
vt 0.7644925 0.008569381
vt 0.7725305 0.02984783
vt 0.7725695 0.4664535
vt 0.7644903 0.02668727
vt 0.7565184 0.008566905
vt 0.7644747 0.02985227
vt 0.7644339 0.466454
vt 0.7564479 0.02668182
vt 0.7485552 0.008556319
vt 0.756419 0.02984635
vt 0.7562982 0.4664525
vt 0.7484064 0.02666644
vt 0.740616 0.008533773
vt 0.7483627 0.02982956
vt 0.7481627 0.4664491
vt 0.7403672 0.02663926
vt 0.7327169 0.008491538
vt 0.740305 0.02980042
vt 0.7400274 0.4664435
vt 0.7323329 0.02659689
vt 0.7248782 0.008416249
vt 0.7322449 0.02975638
vt 0.7318924 0.4664361
vt 0.7243102 0.02653391
vt 0.717127 0.008287183
vt 0.7241808 0.02969313
vt 0.7237582 0.4664267
vt 0.7163192 0.02644062
vt 0.7094922 0.00808126
vt 0.7161103 0.02960184
vt 0.715625 0.4664154
vt 0.7084208 0.02628946
vt 0.7019604 0.007824812
vt 0.7008038 0.02593089
vt 0.7080292 0.02945475
vt 0.7074934 0.4664025
vt 0.6999307 0.02914461
vt 0.6993641 0.4663883
vn 0.9768266 0.1943034 0.08975453
vn 0.9807854 0.1950897 0
vn 0.9238794 0.3826837 0
vn 0.9200037 0.3810793 0.09149753
vn 0.7071099 0.7071036 0
vn 0.9807787 0.1950927 0.003468371
vn 0.7041448 0.7041366 0.09149708
vn 0.3826834 0.9238795 0
vn 0.9238739 0.3826807 0.003536297
vn 0.3810783 0.9200041 0.09149719
vn 0 1 0
vn 0.9238795 0.3826834 0
vn 0.9807845 0.1950942 0
vn 0.7071092 0.7071043 0
vn 0.7071048 0.7070999 0.003536283
vn 0.3826818 0.9238801 0
vn 0.3826796 0.9238744 0.003536288
vn 0 1 0
vn -2.060243E-07 0.9958054 0.09149618
vn -0.3826856 0.9238786 0
vn 0 0.9999938 0.003536265
vn -0.3826828 0.9238798 0
vn -0.3810801 0.9200032 0.09149887
vn -0.7071083 0.7071052 0
vn -0.3826803 0.923874 0.003536341
vn -0.7071086 0.7071049 0
vn -0.7041442 0.704137 0.09149892
vn -0.9238792 0.3826843 0
vn -0.7071041 0.7071005 0.003536351
vn -0.92388 0.3826824 0
vn -0.9200047 0.3810767 0.0914987
vn -1 -2.340214E-06 0
vn -0.9238743 0.3826796 0.003536333
vn -1 0 0
vn -0.9958053 -2.000434E-06 0.09149794
vn -0.923879 -0.3826847 0
vn -0.9999938 0 0.00353633
vn -0.9238797 -0.382683 0
vn -0.9200037 -0.3810788 0.09149955
vn -0.7071068 -0.7071068 0
vn -0.9238739 -0.3826804 0.00353637
vn -0.7071062 -0.7071072 0
vn -0.7041394 -0.7041417 0.09149907
vn -0.3826883 -0.9238776 0
vn -0.7071013 -0.7071033 0.00353637
vn -0.3826824 -0.92388 0
vn -0.3810816 -0.9200028 0.09149641
vn -3.133238E-06 -1 0
vn -0.3826799 -0.9238742 0.003536271
vn -4.756463E-06 -1 0
vn -3.216637E-06 -0.9958055 0.09149447
vn 0.382685 -0.9238789 0
vn -5.676615E-06 -0.9999938 0.00353621
vn 0.3826829 -0.9238797 0
vn 0.3810802 -0.9200035 0.09149654
vn 0.7071068 -0.7071068 0
vn 0.3826805 -0.9238739 0.003536264
vn 0.7071093 -0.7071043 0
vn 0.7041425 -0.7041389 0.09149689
vn 0.9238793 -0.3826841 0
vn 0.7071048 -0.7070998 0.00353629
vn 0.923878 -0.3826872 0
vn 0.920004 -0.3810787 0.09149728
vn 0.9807858 -0.1950876 0
vn 0.9768271 -0.1943018 0.08975315
vn 0.9238722 -0.3826848 0.003536277
vn 0.9807844 -0.1950945 0
vn 0.9807785 -0.1950934 0.003468338
vn 0.9768267 0.194303 -0.08975445
vn 0.9238802 0.3826817 0
vn 0.9807854 0.1950901 0
vn 0.9200044 0.3810777 -0.09149764
vn 0.7071115 0.7071021 0
vn 0.9807786 0.1950933 -0.003468385
vn 0.704144 0.7041375 -0.09149754
vn 0.382683 0.9238797 0
vn 0.9238736 0.3826813 -0.003536317
vn 0.3810768 0.9200047 -0.09149794
vn 0 1 0
vn 0.9238795 0.3826834 0
vn 0.9807845 0.1950942 0
vn 0.7071092 0.7071043 0
vn 0.7071048 0.7070999 -0.003536315
vn 0.3826818 0.9238801 0
vn 0.3826795 0.9238744 -0.003536335
vn 0 1 0
vn 0 0.9958053 -0.09149706
vn -0.3826852 0.9238788 0
vn 0 0.9999938 -0.003536309
vn -0.3826828 0.9238798 0
vn -0.3810783 0.920004 -0.09149924
vn -0.7071091 0.7071044 0
vn -0.3826804 0.923874 -0.003536375
vn -0.7071086 0.7071049 0
vn -0.7041426 0.7041385 -0.0914994
vn -0.9238795 0.3826833 0
vn -0.7071041 0.7071005 -0.00353639
vn -0.92388 0.3826824 0
vn -0.9200041 0.3810778 -0.09149914
vn -1 -2.744516E-06 0
vn -0.9238741 0.3826802 -0.003536371
vn -1 0 0
vn -0.9958053 -1.66149E-06 -0.09149802
vn -0.9238795 -0.3826833 0
vn -0.9999938 0 -0.003536349
vn -0.9238797 -0.382683 0
vn -0.9200038 -0.3810786 -0.09149929
vn -0.7071083 -0.7071052 0
vn -0.9238739 -0.3826805 -0.003536366
vn -0.7071062 -0.7071072 0
vn -0.7041422 -0.704139 -0.09149896
vn -0.3826905 -0.9238766 0
vn -0.7071023 -0.7071024 -0.003536354
vn -0.3826824 -0.92388 0
vn -0.3810847 -0.9200015 -0.09149699
vn -3.125483E-06 -1 0
vn -0.38268 -0.9238742 -0.003536291
vn -4.756463E-06 -1 0
vn -3.209988E-06 -0.9958054 -0.09149554
vn 0.3826872 -0.923878 0
vn -3.803237E-06 -0.9999938 -0.003536265
vn 0.3826829 -0.9238797 0
vn 0.3810819 -0.9200026 -0.09149756
vn 0.7071068 -0.7071068 0
vn 0.3826805 -0.923874 -0.003536315
vn 0.7071093 -0.7071043 0
vn 0.704142 -0.7041393 -0.09149752
vn 0.9238788 -0.382685 0
vn 0.7071049 -0.7070998 -0.003536331
vn 0.923878 -0.3826872 0
vn 0.9200035 -0.3810795 -0.09149738
vn 0.980786 -0.1950868 0
vn 0.9768274 -0.1943003 -0.08975269
vn 0.9238722 -0.3826848 -0.003536294
vn 0.9807844 -0.1950945 0
vn 0.9807786 -0.1950933 -0.003468334
vn 0.9768271 -0.1943018 0.08975361
vn 0.9238799 -0.3826825 0
vn 0.9807858 -0.1950879 0
vn 0.9200041 -0.3810786 0.09149673
vn 0.7071083 -0.7071052 0
vn 0.9807785 -0.1950934 0.003468377
vn 0.7041436 -0.7041379 0.09149697
vn 0.3826807 -0.9238806 0
vn 0.9238742 -0.38268 0.003536271
vn 0.3810762 -0.9200048 0.0914982
vn 0 -1 0
vn 0.92388 -0.3826824 0
vn 0.9807844 -0.1950945 0
vn 0.7071107 -0.7071028 0
vn 0.7071058 -0.707099 0.003536255
vn 0.3826779 -0.9238819 0
vn 0.3826764 -0.9238757 0.003536311
vn 0 -1 0
vn 0 -0.9958053 0.0914968
vn -0.382683 -0.9238797 0
vn 0 -0.9999938 0.003536305
vn -0.3826787 -0.9238815 0
vn -0.381078 -0.9200041 0.09149957
vn -0.7071068 -0.7071068 0
vn -0.3826771 -0.9238753 0.003536354
vn -0.70711 -0.7071035 0
vn -0.7041434 -0.7041377 0.09150016
vn -0.9238796 -0.3826832 0
vn -0.7071052 -0.7070995 0.00353638
vn -0.9238805 -0.3826813 0
vn -0.9200051 -0.3810754 0.09149847
vn -1 2.355767E-06 0
vn -0.9238746 -0.3826789 0.003536329
vn -1 0 0
vn -0.9958051 2.013728E-06 0.09149814
vn -0.9238786 0.3826858 0
vn -0.9999938 0 0.003536327
vn -0.9238803 0.3826816 0
vn -0.9200031 0.38108 0.09150118
vn -0.7071083 0.7071052 0
vn -0.9238746 0.3826793 0.003536408
vn -0.7071034 0.70711 0
vn -0.7041398 0.7041413 0.09149985
vn -0.3826909 0.9238763 0
vn -0.7070994 0.7071052 0.003536402
vn -0.3826824 0.9238799 0
vn -0.3810837 0.9200019 0.09149673
vn -3.141013E-06 1 0
vn -0.3826799 0.9238742 0.003536301
vn -4.746997E-06 1 0
vn -3.475832E-06 0.9958054 0.09149569
vn 0.3826876 0.9238778 0
vn -3.793824E-06 0.9999938 0.003536231
vn 0.3826829 0.9238798 0
vn 0.3810829 0.9200022 0.09149744
vn 0.7071083 0.7071052 0
vn 0.3826805 0.923874 0.00353632
vn 0.7071064 0.7071071 0
vn 0.704143 0.7041382 0.0914984
vn 0.9238788 0.3826851 0
vn 0.7071019 0.7071028 0.003536362
vn 0.9238786 0.3826858 0
vn 0.9200031 0.3810803 0.09149929
vn 0.9807854 0.19509 0
vn 0.9768265 0.1943038 0.08975546
vn 0.9238727 0.3826835 0.003536332
vn 0.9807848 0.1950931 0
vn 0.9807788 0.195092 0.003468369
vn 0.9768271 -0.1943015 -0.08975374
vn 0.9807857 -0.1950884 0
vn 0.9238802 -0.3826817 0
vn 0.9200041 -0.3810785 -0.09149697
vn 0.9807786 -0.1950933 -0.003468385
vn 0.7071099 -0.7071037 0
vn 0.9238742 -0.3826799 -0.003536282
vn 0.9807844 -0.1950945 0
vn 0.92388 -0.3826824 0
vn 0.7041426 -0.7041389 -0.09149724
vn 0.382683 -0.9238797 0
vn 0.7071067 -0.7070979 -0.003536278
vn 0.7071107 -0.7071028 0
vn 0.3810773 -0.9200044 -0.09149878
vn 0 -1 0
vn 0.3826747 -0.9238763 -0.003536358
vn 0.3826779 -0.9238819 0
vn 1.661487E-07 -0.9958053 -0.09149724
vn -0.3826852 -0.9238788 0
vn 0 -0.9999938 -0.003536332
vn 0 -1 0
vn -0.3810787 -0.9200038 -0.09149955
vn -0.7071075 -0.7071061 0
vn -0.3826756 -0.923876 -0.00353638
vn -0.3826787 -0.9238815 0
vn -0.7041408 -0.7041402 -0.09149998
vn -0.9238795 -0.3826833 0
vn -0.7071061 -0.7070985 -0.003536392
vn -0.70711 -0.7071035 0
vn -0.9200038 -0.3810789 -0.09149843
vn -1 2.736741E-06 0
vn -0.9238746 -0.3826789 -0.003536334
vn -0.9238805 -0.3826813 0
vn -0.9958051 1.688073E-06 -0.09149813
vn -0.9238793 0.382684 0
vn -0.9999938 0 -0.003536341
vn -1 0 0
vn -0.9200035 0.3810787 -0.09150127
vn -0.7071083 0.7071052 0
vn -0.9238746 0.3826792 -0.003536424
vn -0.9238803 0.3826816 0
vn -0.7041417 0.7041393 -0.09150084
vn -0.3826905 0.9238766 0
vn -0.7070985 0.7071062 -0.003536429
vn -0.7071034 0.70711 0
vn -0.3810846 0.9200014 -0.0914979
vn -6.258741E-06 1 0
vn -0.38268 0.9238742 -0.003536339
vn -0.3826824 0.9238799 0
vn -6.127563E-06 0.9958054 -0.09149658
vn 0.3826872 0.923878 0
vn -5.686028E-06 0.9999938 -0.003536277
vn -4.746997E-06 1 0
vn 0.3810822 0.9200025 -0.09149777
vn 0.7071083 0.7071052 0
vn 0.3826805 0.923874 -0.003536338
vn 0.3826829 0.9238798 0
vn 0.704143 0.7041382 -0.0914984
vn 0.9238786 0.3826856 0
vn 0.707102 0.7071027 -0.003536375
vn 0.7071064 0.7071071 0
vn 0.9200029 0.3810805 -0.09149942
vn 0.9807857 0.1950885 0
vn 0.976827 0.1943016 -0.08975501
vn 0.9238727 0.3826834 -0.003536354
vn 0.9238786 0.3826858 0
vn 0.9807788 0.1950919 -0.003468374
vn 0.9807848 0.1950931 0
usemtl Light_Fixture
f 1/1/1 3/3/3 2/2/2 
f 1/1/1 4/4/4 3/3/3 
f 4/4/4 5/5/5 3/3/3 
f 6/6/6 4/4/4 1/1/1 
f 4/4/4 7/7/7 5/5/5 
f 7/7/7 8/8/8 5/5/5 
f 6/6/6 9/9/9 4/4/4 
f 9/9/9 7/7/7 4/4/4 
f 7/7/7 10/10/10 8/8/8 
f 10/10/10 11/11/11 8/8/8 
f 6/6/6 12/12/12 9/9/9 
f 6/6/6 13/13/13 12/12/12 
f 9/9/9 12/12/12 14/14/14 
f 9/9/9 15/15/15 7/7/7 
f 9/9/9 14/14/14 15/15/15 
f 15/15/15 10/10/10 7/7/7 
f 15/15/15 14/14/14 16/16/16 
f 15/15/15 16/16/16 17/17/17 
f 15/15/15 17/17/17 10/10/10 
f 17/17/17 16/16/16 18/18/18 
f 10/10/10 19/19/19 11/11/11 
f 17/17/17 19/19/19 10/10/10 
f 19/19/19 20/20/20 11/11/11 
f 17/17/17 18/18/18 21/21/21 
f 17/17/17 21/21/21 19/19/19 
f 21/21/21 18/18/18 22/22/22 
f 19/19/19 23/23/23 20/20/20 
f 21/21/21 23/23/23 19/19/19 
f 23/23/23 24/24/24 20/20/20 
f 21/21/21 22/22/22 25/25/25 
f 21/21/21 25/25/25 23/23/23 
f 25/25/25 22/22/22 26/26/26 
f 23/23/23 27/27/27 24/24/24 
f 25/25/25 27/27/27 23/23/23 
f 27/27/27 28/28/28 24/24/24 
f 25/25/25 26/26/26 29/29/29 
f 25/25/25 29/29/29 27/27/27 
f 29/29/29 26/26/26 30/30/30 
f 27/27/27 31/31/31 28/28/28 
f 29/29/29 31/31/31 27/27/27 
f 31/31/31 32/32/32 28/28/28 
f 29/29/29 30/30/30 33/33/33 
f 29/29/29 33/33/33 31/31/31 
f 33/33/33 30/30/30 34/34/34 
f 31/31/31 35/35/35 32/32/32 
f 33/33/33 35/35/35 31/31/31 
f 35/35/35 36/36/36 32/32/32 
f 33/33/33 34/34/34 37/37/37 
f 33/33/33 37/37/37 35/35/35 
f 37/37/37 34/34/34 38/38/38 
f 35/35/35 39/39/39 36/36/36 
f 37/37/37 39/39/39 35/35/35 
f 39/39/39 40/40/40 36/36/36 
f 37/37/37 38/38/38 41/41/41 
f 37/37/37 41/41/41 39/39/39 
f 41/41/41 38/38/38 42/42/42 
f 39/39/39 43/43/43 40/40/40 
f 41/41/41 43/43/43 39/39/39 
f 43/43/43 44/44/44 40/40/40 
f 41/41/41 42/42/42 45/45/45 
f 41/41/41 45/45/45 43/43/43 
f 45/45/45 42/42/42 46/46/46 
f 43/43/43 47/47/47 44/44/44 
f 45/45/45 47/47/47 43/43/43 
f 47/47/47 48/48/48 44/44/44 
f 45/45/45 46/46/46 49/49/49 
f 45/45/45 49/49/49 47/47/47 
f 49/49/49 46/46/46 50/50/50 
f 47/47/47 51/51/51 48/48/48 
f 49/49/49 51/51/51 47/47/47 
f 51/51/51 52/52/52 48/48/48 
f 49/49/49 50/50/50 53/53/53 
f 49/49/49 53/53/53 51/51/51 
f 53/53/53 50/50/50 54/54/54 
f 51/51/51 55/55/55 52/52/52 
f 53/53/53 55/55/55 51/51/51 
f 55/55/55 56/56/56 52/52/52 
f 53/53/53 54/54/54 57/57/57 
f 53/53/53 57/57/57 55/55/55 
f 57/57/57 54/54/54 58/58/58 
f 55/55/55 59/59/59 56/56/56 
f 57/57/57 59/59/59 55/55/55 
f 59/59/59 60/60/60 56/56/56 
f 57/57/57 58/58/58 61/61/61 
f 57/57/57 61/61/61 59/59/59 
f 61/61/61 58/58/58 62/62/62 
f 59/59/59 63/63/63 60/60/60 
f 61/61/61 63/63/63 59/59/59 
f 63/63/63 64/64/64 60/60/60 
f 63/63/63 65/65/65 64/64/64 
f 61/61/61 62/62/62 66/66/66 
f 61/61/61 66/66/66 63/63/63 
f 66/66/66 65/65/65 63/63/63 
f 66/66/66 62/62/62 67/67/67 
f 66/66/66 68/68/68 65/65/65 
f 66/66/66 67/67/67 68/68/68 
f 69/69/69 71/71/71 70/70/70 
f 69/69/69 70/70/70 72/72/72 
f 72/72/72 70/70/70 73/73/73 
f 74/74/74 69/69/69 72/72/72 
f 72/72/72 73/73/73 75/75/75 
f 75/75/75 73/73/73 76/76/76 
f 74/74/74 72/72/72 77/77/77 
f 77/77/77 72/72/72 75/75/75 
f 75/75/75 76/76/76 78/78/78 
f 78/78/78 76/76/76 79/79/79 
f 80/80/80 74/74/74 77/77/77 
f 80/80/80 81/81/81 74/74/74 
f 82/82/82 80/80/80 77/77/77 
f 77/77/77 75/75/75 83/83/83 
f 82/82/82 77/77/77 83/83/83 
f 83/83/83 75/75/75 78/78/78 
f 84/84/84 82/82/82 83/83/83 
f 84/84/84 83/83/83 85/85/85 
f 83/83/83 78/78/78 85/85/85 
f 86/86/86 84/84/84 85/85/85 
f 78/78/78 79/79/79 87/87/87 
f 85/85/85 78/78/78 87/87/87 
f 87/87/87 79/79/79 88/88/88 
f 86/86/86 85/85/85 89/89/89 
f 85/85/85 87/87/87 89/89/89 
f 90/90/90 86/86/86 89/89/89 
f 87/87/87 88/88/88 91/91/91 
f 89/89/89 87/87/87 91/91/91 
f 91/91/91 88/88/88 92/92/92 
f 90/90/90 89/89/89 93/93/93 
f 89/89/89 91/91/91 93/93/93 
f 94/94/94 90/90/90 93/93/93 
f 91/91/91 92/92/92 95/95/95 
f 93/93/93 91/91/91 95/95/95 
f 95/95/95 92/92/92 96/96/96 
f 94/94/94 93/93/93 97/97/97 
f 93/93/93 95/95/95 97/97/97 
f 98/98/98 94/94/94 97/97/97 
f 95/95/95 96/96/96 99/99/99 
f 97/97/97 95/95/95 99/99/99 
f 99/99/99 96/96/96 100/100/100 
f 98/98/98 97/97/97 101/101/101 
f 97/97/97 99/99/99 101/101/101 
f 102/102/102 98/98/98 101/101/101 
f 99/99/99 100/100/100 103/103/103 
f 101/101/101 99/99/99 103/103/103 
f 103/103/103 100/100/100 104/104/104 
f 102/102/102 101/101/101 105/105/105 
f 101/101/101 103/103/103 105/105/105 
f 106/106/106 102/102/102 105/105/105 
f 103/103/103 104/104/104 107/107/107 
f 105/105/105 103/103/103 107/107/107 
f 107/107/107 104/104/104 108/108/108 
f 106/106/106 105/105/105 109/109/109 
f 105/105/105 107/107/107 109/109/109 
f 110/110/110 106/106/106 109/109/109 
f 107/107/107 108/108/108 111/111/111 
f 109/109/109 107/107/107 111/111/111 
f 111/111/111 108/108/108 112/112/112 
f 110/110/110 109/109/109 113/113/113 
f 109/109/109 111/111/111 113/113/113 
f 114/114/114 110/110/110 113/113/113 
f 111/111/111 112/112/112 115/115/115 
f 113/113/113 111/111/111 115/115/115 
f 115/115/115 112/112/112 116/116/116 
f 114/114/114 113/113/113 117/117/117 
f 113/113/113 115/115/115 117/117/117 
f 118/118/118 114/114/114 117/117/117 
f 115/115/115 116/116/116 119/119/119 
f 117/117/117 115/115/115 119/119/119 
f 119/119/119 116/116/116 120/120/120 
f 118/118/118 117/117/117 121/121/121 
f 117/117/117 119/119/119 121/121/121 
f 122/122/122 118/118/118 121/121/121 
f 119/119/119 120/120/120 123/123/123 
f 121/121/121 119/119/119 123/123/123 
f 123/123/123 120/120/120 124/124/124 
f 122/122/122 121/121/121 125/125/125 
f 121/121/121 123/123/123 125/125/125 
f 126/126/126 122/122/122 125/125/125 
f 123/123/123 124/124/124 127/127/127 
f 125/125/125 123/123/123 127/127/127 
f 127/127/127 124/124/124 128/128/128 
f 126/126/126 125/125/125 129/129/129 
f 125/125/125 127/127/127 129/129/129 
f 130/130/130 126/126/126 129/129/129 
f 127/127/127 128/128/128 131/131/131 
f 129/129/129 127/127/127 131/131/131 
f 131/131/131 128/128/128 132/132/132 
f 131/131/131 132/132/132 133/133/133 
f 130/130/130 129/129/129 134/134/134 
f 129/129/129 131/131/131 134/134/134 
f 134/134/134 131/131/131 133/133/133 
f 135/135/135 130/130/130 134/134/134 
f 134/134/134 133/133/133 136/136/136 
f 135/135/135 134/134/134 136/136/136 
f 137/137/137 139/139/139 138/138/138 
f 137/137/137 138/138/138 140/140/140 
f 140/140/140 138/138/138 141/141/141 
f 142/142/142 137/137/137 140/140/140 
f 140/140/140 141/141/141 143/143/143 
f 143/143/143 141/141/141 144/144/144 
f 142/142/142 140/140/140 145/145/145 
f 145/145/145 140/140/140 143/143/143 
f 143/143/143 144/144/144 146/146/146 
f 146/146/146 144/144/144 147/147/147 
f 142/142/142 145/145/145 148/148/148 
f 142/142/142 148/148/148 149/149/149 
f 145/145/145 150/150/150 148/148/148 
f 145/145/145 143/143/143 151/151/151 
f 145/145/145 151/151/151 150/150/150 
f 151/151/151 143/143/143 146/146/146 
f 151/151/151 152/152/152 150/150/150 
f 151/151/151 153/153/153 152/152/152 
f 151/151/151 146/146/146 153/153/153 
f 153/153/153 154/154/154 152/152/152 
f 146/146/146 147/147/147 155/155/155 
f 153/153/153 146/146/146 155/155/155 
f 155/155/155 147/147/147 156/156/156 
f 153/153/153 157/157/157 154/154/154 
f 153/153/153 155/155/155 157/157/157 
f 157/157/157 158/158/158 154/154/154 
f 155/155/155 156/156/156 159/159/159 
f 157/157/157 155/155/155 159/159/159 
f 159/159/159 156/156/156 160/160/160 
f 157/157/157 161/161/161 158/158/158 
f 157/157/157 159/159/159 161/161/161 
f 161/161/161 162/162/162 158/158/158 
f 159/159/159 160/160/160 163/163/163 
f 161/161/161 159/159/159 163/163/163 
f 163/163/163 160/160/160 164/164/164 
f 161/161/161 165/165/165 162/162/162 
f 161/161/161 163/163/163 165/165/165 
f 165/165/165 166/166/166 162/162/162 
f 163/163/163 164/164/164 167/167/167 
f 165/165/165 163/163/163 167/167/167 
f 167/167/167 164/164/164 168/168/168 
f 165/165/165 169/169/169 166/166/166 
f 165/165/165 167/167/167 169/169/169 
f 169/169/169 170/170/170 166/166/166 
f 167/167/167 168/168/168 171/171/171 
f 169/169/169 167/167/167 171/171/171 
f 171/171/171 168/168/168 172/172/172 
f 169/169/169 173/173/173 170/170/170 
f 169/169/169 171/171/171 173/173/173 
f 173/173/173 174/174/174 170/170/170 
f 171/171/171 172/172/172 175/175/175 
f 173/173/173 171/171/171 175/175/175 
f 175/175/175 172/172/172 176/176/176 
f 173/173/173 177/177/177 174/174/174 
f 173/173/173 175/175/175 177/177/177 
f 177/177/177 178/178/178 174/174/174 
f 175/175/175 176/176/176 179/179/179 
f 177/177/177 175/175/175 179/179/179 
f 179/179/179 176/176/176 180/180/180 
f 177/177/177 181/181/181 178/178/178 
f 177/177/177 179/179/179 181/181/181 
f 181/181/181 182/182/182 178/178/178 
f 179/179/179 180/180/180 183/183/183 
f 181/181/181 179/179/179 183/183/183 
f 183/183/183 180/180/180 184/184/184 
f 181/181/181 185/185/185 182/182/182 
f 181/181/181 183/183/183 185/185/185 
f 185/185/185 186/186/186 182/182/182 
f 183/183/183 184/184/184 187/187/187 
f 185/185/185 183/183/183 187/187/187 
f 187/187/187 184/184/184 188/188/188 
f 185/185/185 189/189/189 186/186/186 
f 185/185/185 187/187/187 189/189/189 
f 189/189/189 190/190/190 186/186/186 
f 187/187/187 188/188/188 191/191/191 
f 189/189/189 187/187/187 191/191/191 
f 191/191/191 188/188/188 192/192/192 
f 189/189/189 193/193/193 190/190/190 
f 189/189/189 191/191/191 193/193/193 
f 193/193/193 194/194/194 190/190/190 
f 191/191/191 192/192/192 195/195/195 
f 193/193/193 191/191/191 195/195/195 
f 195/195/195 192/192/192 196/196/196 
f 193/193/193 197/197/197 194/194/194 
f 193/193/193 195/195/195 197/197/197 
f 197/197/197 198/198/198 194/194/194 
f 195/195/195 196/196/196 199/199/199 
f 197/197/197 195/195/195 199/199/199 
f 199/199/199 196/196/196 200/200/200 
f 199/199/199 200/200/200 201/201/201 
f 197/197/197 202/202/202 198/198/198 
f 197/197/197 199/199/199 202/202/202 
f 202/202/202 199/199/199 201/201/201 
f 202/202/202 203/203/203 198/198/198 
f 202/202/202 201/201/201 204/204/204 
f 202/202/202 204/204/204 203/203/203 
f 205/205/205 207/207/207 206/206/206 
f 205/205/205 208/208/208 207/207/207 
f 209/209/209 208/208/208 205/205/205 
f 208/208/208 210/210/210 207/207/207 
f 209/209/209 211/211/211 208/208/208 
f 212/212/212 211/211/211 209/209/209 
f 212/212/212 213/213/213 211/211/211 
f 208/208/208 214/214/214 210/210/210 
f 211/211/211 214/214/214 208/208/208 
f 214/214/214 215/215/215 210/210/210 
f 213/213/213 216/216/216 211/211/211 
f 211/211/211 216/216/216 214/214/214 
f 213/213/213 217/217/217 216/216/216 
f 214/214/214 218/218/218 215/215/215 
f 216/216/216 218/218/218 214/214/214 
f 218/218/218 219/219/219 215/215/215 
f 217/217/217 220/220/220 216/216/216 
f 216/216/216 220/220/220 218/218/218 
f 217/217/217 221/221/221 220/220/220 
f 218/218/218 222/222/222 219/219/219 
f 220/220/220 222/222/222 218/218/218 
f 222/222/222 223/223/223 219/219/219 
f 221/221/221 224/224/224 220/220/220 
f 220/220/220 224/224/224 222/222/222 
f 221/221/221 225/225/225 224/224/224 
f 222/222/222 226/226/226 223/223/223 
f 224/224/224 226/226/226 222/222/222 
f 226/226/226 227/227/227 223/223/223 
f 225/225/225 228/228/228 224/224/224 
f 224/224/224 228/228/228 226/226/226 
f 225/225/225 229/229/229 228/228/228 
f 226/226/226 230/230/230 227/227/227 
f 228/228/228 230/230/230 226/226/226 
f 230/230/230 231/231/231 227/227/227 
f 229/229/229 232/232/232 228/228/228 
f 228/228/228 232/232/232 230/230/230 
f 229/229/229 233/233/233 232/232/232 
f 230/230/230 234/234/234 231/231/231 
f 232/232/232 234/234/234 230/230/230 
f 234/234/234 235/235/235 231/231/231 
f 233/233/233 236/236/236 232/232/232 
f 232/232/232 236/236/236 234/234/234 
f 233/233/233 237/237/237 236/236/236 
f 234/234/234 238/238/238 235/235/235 
f 236/236/236 238/238/238 234/234/234 
f 238/238/238 239/239/239 235/235/235 
f 237/237/237 240/240/240 236/236/236 
f 236/236/236 240/240/240 238/238/238 
f 237/237/237 241/241/241 240/240/240 
f 238/238/238 242/242/242 239/239/239 
f 240/240/240 242/242/242 238/238/238 
f 242/242/242 243/243/243 239/239/239 
f 241/241/241 244/244/244 240/240/240 
f 240/240/240 244/244/244 242/242/242 
f 241/241/241 245/245/245 244/244/244 
f 242/242/242 246/246/246 243/243/243 
f 244/244/244 246/246/246 242/242/242 
f 246/246/246 247/247/247 243/243/243 
f 245/245/245 248/248/248 244/244/244 
f 244/244/244 248/248/248 246/246/246 
f 245/245/245 249/249/249 248/248/248 
f 246/246/246 250/250/250 247/247/247 
f 248/248/248 250/250/250 246/246/246 
f 250/250/250 251/251/251 247/247/247 
f 249/249/249 252/252/252 248/248/248 
f 248/248/248 252/252/252 250/250/250 
f 249/249/249 253/253/253 252/252/252 
f 250/250/250 254/254/254 251/251/251 
f 252/252/252 254/254/254 250/250/250 
f 254/254/254 255/255/255 251/251/251 
f 253/253/253 256/256/256 252/252/252 
f 252/252/252 256/256/256 254/254/254 
f 253/253/253 257/257/257 256/256/256 
f 254/254/254 258/258/258 255/255/255 
f 256/256/256 258/258/258 254/254/254 
f 258/258/258 259/259/259 255/255/255 
f 257/257/257 260/260/260 256/256/256 
f 256/256/256 260/260/260 258/258/258 
f 257/257/257 261/261/261 260/260/260 
f 258/258/258 262/262/262 259/259/259 
f 260/260/260 262/262/262 258/258/258 
f 262/262/262 263/263/263 259/259/259 
f 261/261/261 264/264/264 260/260/260 
f 260/260/260 264/264/264 262/262/262 
f 261/261/261 265/265/265 264/264/264 
f 262/262/262 266/266/266 263/263/263 
f 264/264/264 266/266/266 262/262/262 
f 266/266/266 267/267/267 263/263/263 
f 266/266/266 268/268/268 267/267/267 
f 265/265/265 269/269/269 264/264/264 
f 264/264/264 269/269/269 266/266/266 
f 269/269/269 268/268/268 266/266/266 
f 265/265/265 270/270/270 269/269/269 
f 269/269/269 271/271/271 268/268/268 
f 270/270/270 271/271/271 269/269/269 
f 270/270/270 272/272/272 271/271/271 
