# exported by StudySceneExporter from mesh 'Pliers_Jaw_Left_low'
mtllib materials.mtl
v -0.002972984 -0.01061207 0.01903198
v -0.002972984 -0.004555397 0.02511902
v -0.002972984 -0.01167072 0.02511902
v -0.002972984 -0.003264198 0.01903198
v -0.002972984 -0.007829246 0.0133075
v -0.002972984 -0.009648094 0.0133075
v -0.002972984 0.0003967666 0.0114299
v -0.002972984 0.0003967666 0.01986755
v -0.002972984 -0.007829246 0.009552306
v -0.002972984 0.004057655 0.01903198
v -0.002972984 -0.006199989 0.006169128
v -0.002972984 0.006993522 0.01669067
v -0.002972984 -0.002777061 0.003568115
v -0.002972984 0.00862278 0.0133075
v -0.002972984 0.00862278 0.009552306
v -0.002972984 0.001338463 0.002992401
v -0.002972984 0.01016911 0.009552306
v -0.002972984 0.003098488 0.001781464
v -0.002972984 0.001503563 0.001820526
v -0.002972984 0.008426475 -0.010522
v -0.002972984 0.007184944 -0.02482422
v -0.00187397 0.01167072 -0.0001837158
v -0.002972984 0.005141182 -0.007017975
v -0.002972984 0.004160881 -0.006509399
v -0.002316894 0.001503563 0.001820526
v -0.002316894 0.002581139 -0.005825043
v -0.002316894 0.004160881 -0.006509399
v -0.002972984 0.005766105 -0.008739166
v -0.002972984 0.004899177 -0.008079833
v -0.002972984 0.006073723 -0.01054413
v -0.002972984 0.005338402 -0.009740753
v -0.002972984 0.006054039 -0.01237503
v -0.002972984 0.005473976 -0.01145325
v -0.002972984 0.005707817 -0.01417313
v -0.002972984 0.005301628 -0.01316254
v -0.002972984 0.005046043 -0.01588028
v -0.002972984 0.004826851 -0.01481354
v -0.002972984 0.005300331 -0.02511887
v -0.002972984 0.004064903 -0.01635315
v 0.002972946 0.005046043 -0.01588043
v 0.002972946 0.004826851 -0.01481354
v 0.002972946 0.005707817 -0.01417313
v 0.002972946 0.008354378 -0.011353
v 0.002972946 0.006054039 -0.01237503
v 0.002972946 0.005301628 -0.01316254
v 0.002972946 0.007184944 -0.02482422
v 0.002972946 0.004064903 -0.0163533
v 0.002972946 0.005300331 -0.02511902
v 0.002972946 0.009334526 -6.149292E-05
v 0.001873932 0.01167072 -0.0001837158
v 0.002972946 0.01016911 0.009552306
v 0.002972946 0.006993522 0.006169128
v 0.002972946 0.00862278 0.009552306
v 0.002972946 0.003570595 0.003568115
v 0.002972946 0.006073723 -0.01054413
v 0.002972946 0.005473976 -0.01145325
v 0.002972946 0.005766105 -0.008739166
v 0.002972946 0.005338402 -0.009740753
v 0.002972946 0.006594887 -0.002715912
v 0.002972946 0.006271248 -0.004220428
v 0.002972946 0.006384315 -0.001191559
v 0.002972946 0.005665092 0.0001690674
v 0.002972946 0.004523964 0.001201477
v 0.002972946 0.003098488 0.001781464
v 0.002972984 0.001338463 0.002992248
v 0.002972946 0.001503563 0.001820373
v 0.002972946 0.005452614 -0.005523682
v 0.002972946 0.005141182 -0.007018127
v 0.002972946 0.004899177 -0.008079986
v 0.002972946 0.004160881 -0.006509399
v -0.002972984 -0.004555397 0.02511902
v 0.002972984 -0.01167072 0.02511902
v -0.002972984 -0.01167072 0.02511902
v 0.002972984 -0.004555397 0.02511902
v 0.002972946 -0.003264198 0.01903183
v 0 -0.003264198 0.01903198
v -0.002972984 -0.004555397 0.02511902
v -0.002972984 -0.003264198 0.01903198
v 0.002972946 -0.01061207 0.01903183
v -0.002972984 -0.01167072 0.02511902
v -0.002972984 -0.01061207 0.01903198
v 0.002972946 -0.009648094 0.01330734
v -0.002972984 -0.009648094 0.0133075
v 0.002972946 -0.007829246 0.01330734
v -0.002972984 -0.009648094 0.0133075
v -3.814697E-08 -0.007829246 0.0133075
v -0.002972984 -0.007829246 0.0133075
v 0.002972946 -0.006199989 0.01669067
v -3.814697E-08 -0.007829246 0.0133075
v -3.814697E-08 -0.006199989 0.01669067
v 0 -0.003264198 0.01903198
v -3.814697E-08 -0.007829246 0.009552459
v -0.002972984 -0.007829246 0.0133075
v -3.814697E-08 -0.007829246 0.0133075
v -0.002972984 -0.007829246 0.009552306
v 0 -0.006199989 0.006169281
v -0.002972984 -0.006199989 0.006169128
v 0 -0.002777061 0.003568268
v -0.002972984 -0.002777061 0.003568115
v 0 0.001338463 0.002992401
v -0.002972984 0.001338463 0.002992401
v -0.002316894 0.001503563 0.001820526
v -0.002972984 0.001503563 0.001820526
v -0.002972984 0.003098488 0.001781464
v 0.002972946 0.001503563 0.001820373
v 0.002972984 0.001338463 0.002992248
v 0.002972946 0.003098488 0.001781464
v -0.002316894 0.003098488 0.001781464
v 0.002972946 0.004523964 0.001201477
v -0.002316894 0.004523964 0.00120163
v 0.002972946 0.005665092 0.0001690674
v -0.002316894 0.005665092 0.0001690674
v 0.002972946 0.006384315 -0.001191559
v -0.002316894 0.006384315 -0.001191406
v 0.002972946 0.006594887 -0.002715912
v -0.002316894 0.006594887 -0.002715912
v 0.002972946 0.006271248 -0.004220428
v -0.002316894 0.006271248 -0.004220428
v 0.002972946 0.005452614 -0.005523682
v -0.002316894 0.005452614 -0.005523529
v 0.002972946 0.004160881 -0.006509399
v -0.002316894 0.004160881 -0.006509399
v 0.002972946 0.005141182 -0.007018127
v -0.002972984 0.005141182 -0.007017975
v -0.002972984 0.004160881 -0.006509399
v 0.002972946 0.004899177 -0.008079986
v -0.002972984 0.004899177 -0.008079833
v 0.002972946 0.005766105 -0.008739166
v -0.002972984 0.005766105 -0.008739166
v 0.002972946 0.005338402 -0.009740753
v -0.002972984 0.005338402 -0.009740753
v 0.002972946 0.006073723 -0.01054413
v -0.002972984 0.006073723 -0.01054413
v 0.002972946 0.005473976 -0.01145325
v -0.002972984 0.005473976 -0.01145325
v 0.002972946 0.006054039 -0.01237503
v -0.002972984 0.006054039 -0.01237503
v 0.002972946 0.005301628 -0.01316254
v -0.002972984 0.005301628 -0.01316254
v 0.002972946 0.005707817 -0.01417313
v -0.002972984 0.005707817 -0.01417313
v 0.002972946 0.004826851 -0.01481354
v -0.002972984 0.004826851 -0.01481354
v 0.002972946 0.005046043 -0.01588043
v -0.002972984 0.005046043 -0.01588028
v 0.002972946 0.004064903 -0.0163533
v -0.002972984 0.004064903 -0.01635315
v 0.002972946 0.005300331 -0.02511902
v -0.002972984 0.005300331 -0.02511887
v -0.002972984 0.005300331 -0.02511887
v 0.002972946 0.005300331 -0.02511902
v 0.002972946 0.007184944 -0.02482422
v -0.002972984 0.007184944 -0.02482422
v 0.001873932 0.01167072 -0.0001837158
v -0.00187397 0.01167072 -0.0001837158
v 0.002972946 0.01016911 0.009552306
v -0.002972984 0.01016911 0.009552306
v 0.002972946 0.00862278 0.009552306
v -3.814697E-08 0.00862278 0.009552459
v -0.002972984 0.00862278 0.009552306
v 0 0.00862278 0.0133075
v -0.002972984 0.00862278 0.0133075
v -3.814697E-08 0.006993522 0.01669067
v -0.002972984 0.006993522 0.01669067
v 0 0.004057655 0.01903198
v -0.002972984 0.004057655 0.01903198
v 0 0.0003967666 0.01986755
v -0.002972984 0.0003967666 0.01986755
v 0 -0.003264198 0.01903198
v -0.002972984 -0.003264198 0.01903198
v 0 0.006993522 0.006169281
v -3.814697E-08 0.00862278 0.009552459
v 0.002972946 0.00862278 0.009552306
v 0.002972946 0.006993522 0.006169128
v 0 0.003570595 0.003568268
v 0.002972946 0.003570595 0.003568115
v 0.002972984 0.001338463 0.002992248
v 0 0.001338463 0.002992401
v -0.002316894 0.006594887 -0.002715912
v -0.002316894 0.006271248 -0.004220428
v -0.002316894 0.005452614 -0.005523529
v -0.002316894 0.004160881 -0.006509399
v -0.002316894 0.004523964 0.00120163
v -0.002316894 0.002581139 -0.005825043
v -0.002316894 0.006384315 -0.001191406
v -0.002316894 0.005665092 0.0001690674
v -0.002316894 0.001503563 0.001820526
v -0.002316894 0.003098488 0.001781464
v 0 0.0003648758 0.01153473
v -3.814697E-08 0.00862278 0.009552459
v 0 0.006993522 0.006169281
v 0 0.00862278 0.0133075
v 0 0.003570595 0.003568268
v -3.814697E-08 0.006993522 0.01669067
v 0 0.001338463 0.002992401
v 0 0.004057655 0.01903198
v 0 -0.002777061 0.003568268
v 0 0.0003967666 0.01986755
v 0 -0.006199989 0.006169281
v 0 -0.003264198 0.01903198
v -3.814697E-08 -0.007829246 0.009552459
v -3.814697E-08 -0.006199989 0.01669067
v -3.814697E-08 -0.007829246 0.0133075
vt 0.486253 0.6177421
vt 0.4717255 0.6241753
vt 0.4839951 0.6289487
vt 0.4735825 0.6128128
vt 0.4852947 0.606004
vt 0.488431 0.6072242
vt 0.4723694 0.5972481
vt 0.4667091 0.6117976
vt 0.4878137 0.5995288
vt 0.4609568 0.6079009
vt 0.4872739 0.592602
vt 0.4574649 0.6018941
vt 0.4831164 0.5858206
vt 0.4569252 0.5949672
vt 0.4594443 0.5884922
vt 0.476406 0.5820668
vt 0.4567778 0.5874548
vt 0.4741833 0.5787981
vt 0.4769074 0.5799353
vt 0.4732497 0.5540079
vt 0.484985 0.5301783
vt 0.4603125 0.569458
vt 0.476564 0.5622542
vt 0.4779131 0.5637888
vt 0.4771426 0.579994
vt 0.4804277 0.5660906
vt 0.4789981 0.563244
vt 0.4766409 0.5588671
vt 0.4776938 0.5605854
vt 0.4773215 0.5555482
vt 0.4780505 0.5574269
vt 0.4785837 0.5524042
vt 0.4789655 0.5543828
vt 0.480387 0.549536
vt 0.4804094 0.5515511
vt 0.4826734 0.5470359
vt 0.4823356 0.5490227
vt 0.4884325 0.5309346
vt 0.4846823 0.5468788
vt 0.2839249 0.7241244
vt 0.2859361 0.7242508
vt 0.2868822 0.7224715
vt 0.2913663 0.7168946
vt 0.2900871 0.7213731
vt 0.2888385 0.7229548
vt 0.266986 0.7225132
vt 0.2833117 0.7260442
vt 0.2669324 0.7260423
vt 0.3118016 0.7121854
vt 0.3108727 0.707494
vt 0.3292006 0.7081757
vt 0.3238213 0.7148669
vt 0.3295996 0.7110088
vt 0.319939 0.7218094
vt 0.2934366 0.7208648
vt 0.2919257 0.722198
vt 0.2968232 0.7209625
vt 0.2950984 0.7220047
vt 0.307645 0.7178898
vt 0.3049719 0.7188711
vt 0.3104924 0.7178822
vt 0.3131707 0.7188489
vt 0.3153569 0.7206736
vt 0.3167872 0.7231355
vt 0.3194599 0.726048
vt 0.3172703 0.7260475
vt 0.3027955 0.7207072
vt 0.3001378 0.7216635
vt 0.2982547 0.7223809
vt 0.3013227 0.7233281
vt 0.3956454 0.6852286
vt 0.3787568 0.6878877
vt 0.3870249 0.695138
vt 0.3873208 0.6780038
vt 0.3804034 0.6688137
vt 0.3848474 0.6655178
vt 0.3961475 0.6714804
vt 0.3892763 0.6622386
vt 0.3714342 0.6790357
vt 0.3703954 0.6950135
vt 0.3631015 0.686301
vt 0.3643578 0.6712139
vt 0.3560952 0.6783807
vt 0.3662882 0.668582
vt 0.3553123 0.6650188
vt 0.3617537 0.6653652
vt 0.3572286 0.6622448
vt 0.3733945 0.6697192
vt 0.366756 0.6631979
vt 0.3735299 0.6640497
vt 0.3801048 0.6635914
vt 0.3397362 0.7162333
vt 0.3327885 0.710732
vt 0.3327883 0.716233
vt 0.3397365 0.7107325
vt 0.3466842 0.7162333
vt 0.3466843 0.7107325
vt 0.3546386 0.7162335
vt 0.3546387 0.7107327
vt 0.3623276 0.7162337
vt 0.3623277 0.7107329
vt 0.3645173 0.711947
vt 0.3645175 0.7107329
vt 0.3674693 0.7107329
vt 0.3645171 0.7217345
vt 0.3623275 0.7217345
vt 0.367469 0.7217345
vt 0.3674693 0.711947
vt 0.3703164 0.7217348
vt 0.3703166 0.711947
vt 0.3731638 0.7217348
vt 0.3731641 0.7119472
vt 0.3760113 0.721735
vt 0.3760115 0.7119472
vt 0.3788587 0.721735
vt 0.378859 0.7119474
vt 0.3817061 0.721735
vt 0.3817065 0.7119474
vt 0.3845536 0.721735
vt 0.3845539 0.7119474
vt 0.3875601 0.7217352
vt 0.3875604 0.7119474
vt 0.3896036 0.7217352
vt 0.3896039 0.7107337
vt 0.3875604 0.7107334
vt 0.3916187 0.7217352
vt 0.391619 0.7107337
vt 0.3936338 0.7217352
vt 0.3936341 0.7107337
vt 0.3956491 0.7217355
vt 0.3956493 0.7107339
vt 0.3976642 0.7217355
vt 0.3976645 0.7107339
vt 0.3996794 0.7217355
vt 0.3996797 0.7107339
vt 0.4016945 0.7217355
vt 0.4016948 0.7107339
vt 0.4037097 0.7217355
vt 0.40371 0.7107339
vt 0.4057249 0.7217355
vt 0.4057251 0.7107339
vt 0.40774 0.7217357
vt 0.4077404 0.7107341
vt 0.4097552 0.7217357
vt 0.4097555 0.7107341
vt 0.4117703 0.7217357
vt 0.4117706 0.7107341
vt 0.4281496 0.7217362
vt 0.4281499 0.7107346
vt 0.3601892 0.7061508
vt 0.36019 0.6951492
vt 0.3566606 0.6951489
vt 0.3566597 0.7061505
vt 0.3103194 0.6971788
vt 0.3103188 0.7041135
vt 0.2920921 0.6951439
vt 0.2920912 0.7061455
vt 0.2892309 0.6951437
vt 0.2892305 0.7006445
vt 0.2892301 0.7061453
vt 0.2822826 0.700644
vt 0.2822822 0.7061448
vt 0.2753347 0.7006435
vt 0.2753342 0.7061443
vt 0.2683868 0.7006428
vt 0.2683864 0.7061439
vt 0.2614388 0.7006423
vt 0.2614385 0.7061431
vt 0.254491 0.7006419
vt 0.2544906 0.7061427
vt 0.3385932 0.7209737
vt 0.3312811 0.7209744
vt 0.3312818 0.7267637
vt 0.338594 0.7267628
vt 0.3469645 0.7209725
vt 0.3469652 0.7267618
vt 0.351454 0.7267611
vt 0.3514533 0.7209721
vt 0.3799553 0.511575
vt 0.3826282 0.5105934
vt 0.3848041 0.5087569
vt 0.3862765 0.5061355
vt 0.3722428 0.508793
vt 0.3846145 0.503418
vt 0.3771079 0.5115832
vt 0.3744293 0.510617
vt 0.3703284 0.5034192
vt 0.3708119 0.5063312
vt 0.4811642 0.7233751
vt 0.4774963 0.7080956
vt 0.4712363 0.7111101
vt 0.4844441 0.7080956
vt 0.4664237 0.7174435
vt 0.4907041 0.7111101
vt 0.4653584 0.7215738
vt 0.495036 0.7165422
vt 0.4664237 0.7291884
vt 0.496582 0.723316
vt 0.4712363 0.7355218
vt 0.495036 0.7300897
vt 0.4774963 0.7385364
vt 0.4907041 0.7355218
vt 0.4844441 0.7385364
vn -1 0 -5.694213E-07
vn -1 0 -4.333019E-06
vn -1 0 -4.333019E-06
vn -1 0 9.258684E-07
vn -1 0 5.789205E-06
vn -1 0 7.269556E-06
vn -1 0 -1.763807E-07
vn -1 0 0
vn -1 0 0
vn -1 0 3.087365E-06
vn -1 0 -2.863884E-06
vn -1 0 3.087368E-06
vn -1 0 0
vn -1 0 0
vn -1 0 4.232061E-06
vn -1 0 -5.392443E-06
vn -0.9970668 0.07624906 -0.006617947
vn -0.9990965 -0.04211986 -0.005658721
vn -1 0 -1.582779E-05
vn -0.9615045 0.2737599 -0.02376393
vn -0.9976937 0.06762256 -0.005869779
vn -0.9049984 0.4238211 -0.03678963
vn -1 0 -6.696752E-07
vn -0.9624493 -0.2642956 -0.06196037
vn -0.9186049 -0.3916618 -0.05259537
vn -0.9171948 -0.3940014 -0.05930055
vn 0 -0.3976454 -0.9175392
vn -1 0 -6.050005E-06
vn -1 0 0
vn -1 0 -7.317649E-06
vn -1 0 0
vn -1 0 -4.173793E-07
vn -1 0 4.414231E-05
vn -1 0 8.083304E-07
vn -1 0 0
vn -1 0 1.980666E-06
vn -1 0 0
vn -1 0 0
vn -1 0 0
vn 1 0 -1.547098E-06
vn 1 0 3.310381E-05
vn 1 0 -2.038269E-06
vn 0.9397677 0.3405332 -0.02956119
vn 1 0 0
vn 1 0 0
vn 0.998869 0.04736885 -0.004112503
vn 1 0 0
vn 1 0 0
vn 0.9633861 0.2671135 -0.02318923
vn 0.9050038 0.4238095 -0.03679073
vn 0.9987023 0.0507386 -0.00441
vn 1 0 -5.414143E-06
vn 1 0 -5.790926E-06
vn 1 9.581598E-07 -2.724919E-06
vn 1 0 0
vn 1 0 0
vn 1 0 -6.269066E-07
vn 1 0 0
vn 1 0 -7.404838E-07
vn 1 0 -2.220423E-07
vn 1 0 6.787297E-06
vn 1 0 -2.66229E-06
vn 1 0 3.72989E-05
vn 1 8.09718E-06 1.158235E-05
vn 1 1.195109E-05 1.709504E-05
vn 1 1.195109E-05 1.709504E-05
vn 1 0 -7.200088E-06
vn 1 0 -4.273063E-06
vn 1 0 0
vn 1 0 2.937117E-05
vn 0 0 1
vn 0.6089228 -0.5623035 0.559489
vn 0 0 1
vn 0.6704252 0.3648713 0.6460643
vn 0.7740104 0.630785 -0.0549393
vn 1.038229E-06 0.9782345 0.2075028
vn 1.087678E-06 0.9782345 0.2075026
vn 0 0.9782336 0.207507
vn 0.6442287 -0.7538596 -0.1290934
vn 0 -0.9852113 -0.1713437
vn -4.548283E-06 -0.9856533 -0.1687825
vn 0.4018498 -0.8482362 -0.3449815
vn -9.389246E-06 -0.9861165 -0.1660552
vn 0.7525215 0.403899 -0.5201703
vn -2.111748E-05 5.805182E-05 -1
vn -3.19606E-05 8.785949E-05 -1
vn 0 0 -1
vn 0.7641165 0.5043411 -0.4022016
vn -8.079336E-06 0.900976 -0.4338689
vn -1.290613E-05 0.7818345 -0.623486
vn -1.708603E-05 0.6234691 -0.7818481
vn 3.133176E-06 -0.9749286 -0.2225183
vn -8.079625E-06 -1 0
vn -8.079625E-06 -1 0
vn 3.133849E-06 -0.9749255 -0.2225314
vn 2.784701E-05 -0.7640977 -0.6451005
vn 2.784757E-05 -0.7640905 -0.645109
vn 3.289035E-05 -0.3883481 -0.9215128
vn 3.289019E-05 -0.3883423 -0.9215153
vn 1.553651E-05 -0.6134995 -0.7896951
vn 2.425171E-05 -0.2360196 -0.9717484
vn -1.279921E-05 -0.3699341 -0.929058
vn 0 -0.5668947 -0.8237902
vn 0 -0.02460065 -0.9996973
vn -1.409736E-05 -0.4843472 -0.8748758
vn -5.411925E-06 -0.9902216 -0.1395035
vn -1.323441E-05 -0.2007289 -0.9796468
vn -1.323441E-05 -0.2007289 -0.9796468
vn -9.996521E-06 -0.5319403 -0.8467818
vn -9.996557E-06 -0.5319374 -0.8467836
vn -9.995953E-06 -0.7895109 -0.6137365
vn -9.995953E-06 -0.7895109 -0.6137365
vn -7.161669E-06 -0.951791 -0.3067473
vn -7.161831E-06 -0.9517891 -0.306753
vn -1.213987E-06 -0.9993041 0.03730259
vn -1.213987E-06 -0.9993041 0.03730259
vn 5.947733E-06 -0.9262761 0.3768454
vn 5.947733E-06 -0.9262761 0.3768454
vn 1.334877E-05 -0.7351952 0.6778555
vn 1.334873E-05 -0.7351985 0.6778519
vn 6.472535E-06 -0.9867786 0.162074
vn 3.105558E-06 -0.996524 -0.08330531
vn -4.211507E-06 -0.9141166 -0.4054514
vn -2.083406E-06 -0.9633389 -0.2682874
vn 0 -0.4606667 -0.8875732
vn -2.39518E-06 -0.939959 -0.3412873
vn -2.394979E-06 -0.9399647 -0.3412717
vn -5.418301E-06 -0.9667605 -0.2556836
vn -5.418301E-06 -0.9667605 -0.2556836
vn 0 -0.9857861 -0.1680052
vn 0 -0.9857861 -0.1680052
vn 0 -0.9968808 -0.07892241
vn 0 -0.9968808 -0.07892241
vn 0 -0.9999423 0.01074819
vn 0 -0.9999423 0.01074819
vn 0 -0.9949558 0.1003138
vn 0 -0.9949558 0.1003138
vn 0 -0.981964 0.189068
vn 0 -0.981964 0.189068
vn 0 -0.9610519 0.276368
vn 0 -0.9610519 0.276368
vn 0 -0.93239 0.3614542
vn 0 -0.93239 0.3614542
vn 1.544828E-05 -0.8962618 0.4435254
vn 1.544792E-05 -0.8962697 0.4435092
vn -3.923008E-06 -0.9996214 -0.02751644
vn -3.922865E-06 -0.9996215 -0.02751143
vn -7.093798E-06 -0.9902133 -0.1395618
vn -7.093796E-06 -0.9902133 -0.1395618
vn -1.314627E-05 0.154512 -0.9879909
vn -1.314628E-05 0.1545121 -0.9879909
vn -1.220111E-06 0.9643465 -0.264643
vn -1.220111E-06 0.9643465 -0.264643
vn 0 0.9964907 -0.08370361
vn 0 0.9964907 -0.08370361
vn 2.568569E-06 0.9547567 0.2973879
vn -1.018794E-06 0.9726825 0.2321398
vn 1.710833E-05 0.0001106386 1
vn -1.609174E-06 0.6695065 0.7428061
vn -2.708515E-05 0.9794526 0.2016746
vn -8.762445E-06 0.9749271 0.2225244
vn -8.762445E-06 0.9749271 0.2225244
vn 0 0.7818323 0.6234888
vn 0 0.7818324 0.6234887
vn 0 0.4339013 0.9009604
vn 0 0.433902 0.9009601
vn 0 0 1
vn 0 0 1
vn 0 -0.2225149 0.9749293
vn 0 -0.2225149 0.9749293
vn 3.276779E-05 -0.76411 0.6450858
vn 3.417082E-05 -0.9009708 0.4338798
vn 3.417082E-05 -0.9009708 0.4338797
vn 3.276768E-05 -0.764102 0.6450955
vn 3.722726E-05 -0.4897889 0.871841
vn 3.722758E-05 -0.4897837 0.8718441
vn 4.908671E-05 -0.2498124 0.9682943
vn 4.908671E-05 -0.2498123 0.9682943
vn 1 0 3.838024E-07
vn 1 0 -7.20129E-06
vn 1 0 -7.20129E-06
vn 1 0 -1.572942E-07
vn 1 0 5.287653E-07
vn 1 0 0
vn 1 0 3.035178E-05
vn 1 0 3.035178E-05
vn 1 0 0
vn 1 0 0
vn 1 -6.313647E-07 1.656613E-07
vn 1 4.397659E-06 0
vn 1 3.076151E-06 0
vn 1 0 0
vn 1 0 -9.19708E-07
vn 1 3.499871E-06 0
vn 1 0 -9.262358E-07
vn 1 4.704706E-06 0
vn 1 0 5.370116E-06
vn 1 0 8.036747E-07
vn 1 -3.082182E-06 0
vn 1 -4.696451E-06 -5.45913E-06
vn 1 -5.646394E-06 -6.239869E-06
vn 1 -6.776995E-06 0
vn 1 -4.438142E-06 6.162494E-06
usemtl Mat_Tools
f 1/1/1 3/3/3 2/2/2 
f 1/1/1 2/2/2 4/4/4 
f 5/5/5 1/1/1 4/4/4 
f 5/5/5 6/6/6 1/1/1 
f 4/4/4 7/7/7 5/5/5 
f 8/8/8 7/7/7 4/4/4 
f 5/5/5 7/7/7 9/9/9 
f 10/10/10 7/7/7 8/8/8 
f 9/9/9 7/7/7 11/11/11 
f 12/12/12 7/7/7 10/10/10 
f 11/11/11 7/7/7 13/13/13 
f 14/14/14 7/7/7 12/12/12 
f 15/15/15 7/7/7 14/14/14 
f 13/13/13 7/7/7 16/16/16 
f 16/16/16 7/7/7 15/15/15 
f 15/15/15 17/17/17 16/16/16 
f 18/18/18 16/16/16 17/17/17 
f 18/18/18 19/19/19 16/16/16 
f 18/18/18 17/17/17 20/20/20 
f 21/21/21 20/20/20 17/17/17 
f 21/21/21 17/17/17 22/22/22 
f 18/18/18 20/20/20 23/23/23 
f 18/18/18 23/23/23 24/24/24 
f 25/25/25 18/18/18 24/24/24 
f 25/25/25 24/24/24 26/26/26 
f 27/27/27 26/26/26 24/24/24 
f 23/23/23 20/20/20 28/28/28 
f 23/23/23 28/28/28 29/29/29 
f 28/28/28 20/20/20 30/30/30 
f 28/28/28 30/30/30 31/31/31 
f 30/30/30 20/20/20 32/32/32 
f 32/32/32 20/20/20 21/21/21 
f 30/30/30 32/32/32 33/33/33 
f 32/32/32 21/21/21 34/34/34 
f 32/32/32 34/34/34 35/35/35 
f 34/34/34 21/21/21 36/36/36 
f 34/34/34 36/36/36 37/37/37 
f 36/36/36 21/21/21 38/38/38 
f 36/36/36 38/38/38 39/39/39 
f 40/40/40 42/42/42 41/41/41 
f 43/43/43 42/42/42 40/40/40 
f 43/43/43 44/44/44 42/42/42 
f 42/42/42 44/44/44 45/45/45 
f 43/43/43 40/40/40 46/46/46 
f 46/46/46 40/40/40 47/47/47 
f 46/46/46 47/47/47 48/48/48 
f 49/49/49 43/43/43 46/46/46 
f 49/49/49 46/46/46 50/50/50 
f 51/51/51 49/49/49 50/50/50 
f 52/52/52 49/49/49 51/51/51 
f 52/52/52 51/51/51 53/53/53 
f 54/54/54 49/49/49 52/52/52 
f 43/43/43 55/55/55 44/44/44 
f 44/44/44 55/55/55 56/56/56 
f 43/43/43 57/57/57 55/55/55 
f 55/55/55 57/57/57 58/58/58 
f 43/43/43 49/49/49 59/59/59 
f 43/43/43 59/59/59 60/60/60 
f 43/43/43 60/60/60 57/57/57 
f 59/59/59 49/49/49 61/61/61 
f 61/61/61 49/49/49 62/62/62 
f 54/54/54 62/62/62 49/49/49 
f 54/54/54 63/63/63 62/62/62 
f 54/54/54 64/64/64 63/63/63 
f 65/65/65 64/64/64 54/54/54 
f 65/65/65 66/66/66 64/64/64 
f 57/57/57 60/60/60 67/67/67 
f 57/57/57 67/67/67 68/68/68 
f 57/57/57 68/68/68 69/69/69 
f 68/68/68 67/67/67 70/70/70 
f 71/71/71 73/73/73 72/72/72 
f 71/71/71 72/72/72 74/74/74 
f 72/72/72 75/75/75 74/74/74 
f 76/76/76 74/74/74 75/75/75 
f 76/76/76 77/77/77 74/74/74 
f 77/77/77 76/76/76 78/78/78 
f 72/72/72 79/79/79 75/75/75 
f 80/80/80 79/79/79 72/72/72 
f 80/80/80 81/81/81 79/79/79 
f 81/81/81 82/82/82 79/79/79 
f 81/81/81 83/83/83 82/82/82 
f 79/79/79 82/82/82 84/84/84 
f 85/85/85 84/84/84 82/82/82 
f 85/85/85 86/86/86 84/84/84 
f 86/86/86 85/85/85 87/87/87 
f 79/79/79 84/84/84 88/88/88 
f 75/75/75 79/79/79 88/88/88 
f 89/89/89 88/88/88 84/84/84 
f 89/89/89 90/90/90 88/88/88 
f 90/90/90 75/75/75 88/88/88 
f 90/90/90 91/91/91 75/75/75 
f 92/92/92 94/94/94 93/93/93 
f 92/92/92 93/93/93 95/95/95 
f 96/96/96 92/92/92 95/95/95 
f 96/96/96 95/95/95 97/97/97 
f 98/98/98 96/96/96 97/97/97 
f 98/98/98 97/97/97 99/99/99 
f 100/100/100 98/98/98 99/99/99 
f 100/100/100 99/99/99 101/101/101 
f 100/100/100 101/101/101 102/102/102 
f 101/101/101 103/103/103 102/102/102 
f 102/102/102 103/103/103 104/104/104 
f 100/100/100 102/102/102 105/105/105 
f 100/100/100 105/105/105 106/106/106 
f 102/102/102 107/107/107 105/105/105 
f 102/102/102 108/108/108 107/107/107 
f 108/108/108 109/109/109 107/107/107 
f 108/108/108 110/110/110 109/109/109 
f 110/110/110 111/111/111 109/109/109 
f 110/110/110 112/112/112 111/111/111 
f 112/112/112 113/113/113 111/111/111 
f 112/112/112 114/114/114 113/113/113 
f 114/114/114 115/115/115 113/113/113 
f 114/114/114 116/116/116 115/115/115 
f 116/116/116 117/117/117 115/115/115 
f 116/116/116 118/118/118 117/117/117 
f 118/118/118 119/119/119 117/117/117 
f 118/118/118 120/120/120 119/119/119 
f 120/120/120 121/121/121 119/119/119 
f 120/120/120 122/122/122 121/121/121 
f 122/122/122 123/123/123 121/121/121 
f 122/122/122 124/124/124 123/123/123 
f 122/122/122 125/125/125 124/124/124 
f 124/124/124 126/126/126 123/123/123 
f 124/124/124 127/127/127 126/126/126 
f 127/127/127 128/128/128 126/126/126 
f 127/127/127 129/129/129 128/128/128 
f 129/129/129 130/130/130 128/128/128 
f 129/129/129 131/131/131 130/130/130 
f 131/131/131 132/132/132 130/130/130 
f 131/131/131 133/133/133 132/132/132 
f 133/133/133 134/134/134 132/132/132 
f 133/133/133 135/135/135 134/134/134 
f 135/135/135 136/136/136 134/134/134 
f 135/135/135 137/137/137 136/136/136 
f 137/137/137 138/138/138 136/136/136 
f 137/137/137 139/139/139 138/138/138 
f 139/139/139 140/140/140 138/138/138 
f 139/139/139 141/141/141 140/140/140 
f 141/141/141 142/142/142 140/140/140 
f 141/141/141 143/143/143 142/142/142 
f 143/143/143 144/144/144 142/142/142 
f 143/143/143 145/145/145 144/144/144 
f 145/145/145 146/146/146 144/144/144 
f 145/145/145 147/147/147 146/146/146 
f 147/147/147 148/148/148 146/146/146 
f 147/147/147 149/149/149 148/148/148 
f 150/150/150 152/152/152 151/151/151 
f 150/150/150 153/153/153 152/152/152 
f 153/153/153 154/154/154 152/152/152 
f 153/153/153 155/155/155 154/154/154 
f 155/155/155 156/156/156 154/154/154 
f 155/155/155 157/157/157 156/156/156 
f 157/157/157 158/158/158 156/156/156 
f 157/157/157 159/159/159 158/158/158 
f 157/157/157 160/160/160 159/159/159 
f 161/161/161 159/159/159 160/160/160 
f 161/161/161 160/160/160 162/162/162 
f 163/163/163 161/161/161 162/162/162 
f 163/163/163 162/162/162 164/164/164 
f 165/165/165 163/163/163 164/164/164 
f 165/165/165 164/164/164 166/166/166 
f 167/167/167 165/165/165 166/166/166 
f 167/167/167 166/166/166 168/168/168 
f 169/169/169 167/167/167 168/168/168 
f 169/169/169 168/168/168 170/170/170 
f 171/171/171 173/173/173 172/172/172 
f 171/171/171 174/174/174 173/173/173 
f 175/175/175 174/174/174 171/171/171 
f 175/175/175 176/176/176 174/174/174 
f 177/177/177 176/176/176 175/175/175 
f 177/177/177 175/175/175 178/178/178 
f 179/179/179 181/181/181 180/180/180 
f 179/179/179 182/182/182 181/181/181 
f 183/183/183 182/182/182 179/179/179 
f 183/183/183 184/184/184 182/182/182 
f 183/183/183 179/179/179 185/185/185 
f 183/183/183 185/185/185 186/186/186 
f 187/187/187 184/184/184 183/183/183 
f 187/187/187 183/183/183 188/188/188 
f 189/189/189 191/191/191 190/190/190 
f 190/190/190 192/192/192 189/189/189 
f 189/189/189 193/193/193 191/191/191 
f 192/192/192 194/194/194 189/189/189 
f 195/195/195 193/193/193 189/189/189 
f 194/194/194 196/196/196 189/189/189 
f 197/197/197 195/195/195 189/189/189 
f 196/196/196 198/198/198 189/189/189 
f 199/199/199 197/197/197 189/189/189 
f 198/198/198 200/200/200 189/189/189 
f 201/201/201 199/199/199 189/189/189 
f 189/189/189 200/200/200 202/202/202 
f 203/203/203 201/201/201 189/189/189 
f 189/189/189 202/202/202 203/203/203 
