# exported by StudySceneExporter from mesh 'Tool_Cabinet_Wheel_Back_Lock_low'
mtllib materials.mtl
v -0.03217779 0.01675816 0.0447474
v -0.03977425 0.01593022 0.02815904
v -0.03218278 0.01588685 0.0440403
v -0.03976927 0.0168015 0.02815904
v -0.0409429 0.0159369 0.02699909
v -0.04636895 0.01683923 0.02560811
v -0.0428449 0.01681909 0.04474739
v -0.04093792 0.01680818 0.02699909
v -0.04292084 0.01594819 0.02608545
v -0.04291587 0.01681949 0.02608545
v -0.04637392 0.01596791 0.02560811
v -0.04955079 0.01598605 0.02560811
v -0.03236716 -0.01639657 0.0447474
v -0.03218278 0.01588685 0.0440403
v -0.0323622 -0.01552525 0.0440403
v -0.04303427 -0.01633565 0.04474739
v -0.05178546 0.0002922344 0.02648673
v -0.05169077 0.01686959 0.02648673
v -0.0508875 0.01686502 0.02584552
v -0.05169077 0.01686959 0.02648673
v -0.04954582 0.01685735 0.02560811
v -0.05089248 0.01599372 0.02584552
v -0.06041501 0.01691943 0.01555711
v -0.0508875 0.01686502 0.02584552
v -0.05961175 0.01691485 0.0149159
v -0.05970639 0.0003374767 0.01491586
v -0.05098219 0.0002876377 0.02584552
v -0.06050966 0.0003420544 0.01555707
v -0.05188014 -0.01628512 0.02648673
v -0.04655832 -0.01631553 0.02560811
v -0.03236716 -0.01639657 0.0447474
v -0.05098219 0.0002876377 0.02584552
v -0.0510719 -0.01541839 0.02584552
v -0.03995863 -0.01635322 0.02815904
v -0.0323622 -0.01552525 0.0440403
v -0.03995366 -0.0154819 0.02815904
v -0.04112729 -0.01634654 0.02699909
v -0.04112231 -0.01547522 0.02699909
v -0.04310523 -0.01633525 0.02608545
v -0.04310026 -0.01546391 0.02608545
v -0.04655335 -0.01544419 0.02560811
v -0.04973519 -0.01629737 0.02560811
v -0.04973021 -0.01542605 0.02560811
v -0.05107687 -0.0162897 0.02584552
v -0.0510719 -0.01541839 0.02584552
v -0.05098219 0.0002876377 0.02584552
v -0.0510719 -0.01541839 0.02584552
v -0.04268648 -0.01546628 0.0440403
v -0.04250705 0.01594583 0.0440403
v -0.05089248 0.01599372 0.02584552
v -0.05970639 0.0003374767 0.01491586
v -0.05961175 0.01691485 0.0149159
v -0.0508875 0.01686502 0.02584552
v -0.0323622 -0.01552525 0.0440403
v -0.03218278 0.01588685 0.0440403
v -0.03977425 0.01593022 0.02815904
v -0.04655335 -0.01544419 0.02560811
v -0.03995366 -0.0154819 0.02815904
v -0.04973021 -0.01542605 0.02560811
v -0.0510719 -0.01541839 0.02584552
v -0.04310026 -0.01546391 0.02608545
v -0.04112231 -0.01547522 0.02699909
v -0.04637392 0.01596791 0.02560811
v -0.04292084 0.01594819 0.02608545
v -0.0409429 0.0159369 0.02699909
v -0.04955079 0.01598605 0.02560811
v -0.05089248 0.01599372 0.02584552
v -0.02325468 0.0177369 0.04604413
v -0.02325983 0.01683532 0.03604414
v -0.02325983 0.01683532 0.04533703
v -0.02325468 0.0177369 0.03604414
v -0.0368476 0.01691293 0.03604414
v -0.03899657 0.01782683 0.03801393
v -0.0390721 0.01782725 0.04115791
v -0.03684245 0.01781451 0.03604414
v -0.03840098 0.0169218 0.03659019
v -0.03839583 0.01782338 0.03659019
v -0.03900172 0.01692523 0.03801393
v -0.03907725 0.01692567 0.04115791
v -0.039889 0.0169303 0.04278599
v -0.03988384 0.01783189 0.04278599
v -0.04130517 0.01693839 0.04346138
v -0.04130001 0.01783998 0.04346138
v -0.04587429 0.01696448 0.04349914
v -0.04586913 0.01786607 0.04349914
v -0.04753578 0.01697396 0.04406558
v -0.04753063 0.01787557 0.04406558
v -0.04832876 0.0169785 0.04519843
v -0.04832362 0.01788011 0.04519843
v -0.04832362 0.01788011 0.04604413
v -0.0234556 -0.01744288 0.04604413
v -0.02345045 -0.0165413 0.04533702
v -0.02325983 0.01683532 0.04533703
v -0.04845217 -0.004627638 0.04604413
v -0.04852455 -0.01729968 0.04604413
v -0.04845217 -0.004627638 0.0452962
v -0.04832876 0.0169785 0.04519843
v -0.05307528 -0.004601221 0.04604413
v -0.05307528 -0.004601221 0.0452962
v -0.05769839 -0.004574804 0.04625512
v -0.05769839 -0.004574804 0.04550719
v -0.0623215 -0.004548407 0.04706155
v -0.0623215 -0.004548407 0.04631361
v -0.06238872 -0.0163189 0.04706155
v -0.06238872 -0.0163189 0.04621585
v -0.05776562 -0.01634532 0.04625512
v -0.05776562 -0.01634532 0.04540941
v -0.0531425 -0.0163717 0.04604413
v -0.0531425 -0.0163717 0.04519843
v -0.04851941 -0.01639812 0.04604413
v -0.04851941 -0.01639812 0.04519843
v -0.04851941 -0.01639812 0.04519843
v -0.04852455 -0.01729968 0.04519843
v -0.04772641 -0.01640265 0.04406558
v -0.04773157 -0.01730422 0.04406558
v -0.04606491 -0.01641215 0.04349914
v -0.04607007 -0.01731372 0.04349914
v -0.04149579 -0.01643825 0.04346138
v -0.04150094 -0.01733981 0.04346138
v -0.04007963 -0.01644633 0.04278599
v -0.04008478 -0.0173479 0.04278599
v -0.03926788 -0.01645097 0.04115791
v -0.03927304 -0.01735253 0.04115791
v -0.03919234 -0.01645139 0.03801393
v -0.0391975 -0.01735297 0.03801393
v -0.03859161 -0.01645482 0.03659019
v -0.0234556 -0.01744288 0.03604414
v -0.02345045 -0.0165413 0.04533702
v -0.02345045 -0.0165413 0.03604414
v -0.03704337 -0.01736525 0.03604414
v -0.03703821 -0.01646369 0.03604414
v -0.03859677 -0.01735641 0.03659019
v -0.05776562 -0.01634532 0.04540941
v -0.0623215 -0.004548407 0.04631361
v -0.06238872 -0.0163189 0.04621585
v -0.05769839 -0.004574804 0.04550719
v -0.0531425 -0.0163717 0.04519843
v -0.05307528 -0.004601221 0.0452962
v -0.04851941 -0.01639812 0.04519843
v -0.04845217 -0.004627638 0.0452962
v -0.02345045 -0.0165413 0.04533702
v -0.04832876 0.0169785 0.04519843
v -0.04149579 -0.01643825 0.04346138
v -0.04772641 -0.01640265 0.04406558
v -0.04606491 -0.01641215 0.04349914
v -0.04007963 -0.01644633 0.04278599
v -0.03926788 -0.01645097 0.04115791
v -0.02345045 -0.0165413 0.03604414
v -0.03919234 -0.01645139 0.03801393
v -0.03859161 -0.01645482 0.03659019
v -0.03703821 -0.01646369 0.03604414
v -0.02325983 0.01683532 0.04533703
v -0.04130517 0.01693839 0.04346138
v -0.04587429 0.01696448 0.04349914
v -0.04753578 0.01697396 0.04406558
v -0.039889 0.0169303 0.04278599
v -0.03907725 0.01692567 0.04115791
v -0.02325983 0.01683532 0.03604414
v -0.03900172 0.01692523 0.03801393
v -0.03840098 0.0169218 0.03659019
v -0.0368476 0.01691293 0.03604414
v 0.007141833 0.01751607 0.00987328
v 0.01267835 0.01748445 0.009870601
v 0.009909549 0.01750026 0.008725266
v 0.01382633 0.01747788 0.01263834
v 0.01403816 0.01747668 0.01981211
v 0.01464912 0.01747319 0.02295131
v 0.01646587 0.01746282 0.03060529
v 0.01646587 0.01746282 0.02577859
v 0.01812179 0.01745336 0.0266075
v -0.0009797143 0.01756246 0.01968601
v 0.01802833 0.01745389 0.02995809
v 0.01876897 0.01744965 0.02830215
v 0.01403816 0.01747668 0.03293779
v 0.01021736 0.0174985 0.03747552
v -0.009741673 0.0176125 0.02692393
v 0.0101572 0.01749885 0.03754694
v 0.007679763 0.017513 0.0420285
v -0.009817872 0.01761292 0.02698687
v -0.01941027 0.01766772 0.0312706
v -0.02783122 0.01771582 0.04443879
v -0.03081115 0.01773284 0.03466588
v -0.02739275 0.01771333 0.04561739
v -0.02739275 0.01771333 0.04637711
v 0.006258483 0.0175211 0.0459407
v 0.006056094 -0.01791219 0.0459407
v -0.02759512 -0.01771998 0.04637711
v -0.02759512 -0.01771998 0.04561739
v -0.0291513 0.01772336 0.04378917
v 0.007477374 -0.01792031 0.0420285
v -0.03494 0.01775643 0.04054869
v -0.03321252 0.01774655 0.03577963
v -0.03494 0.01775643 0.03792352
v -0.03321252 0.01774655 0.04269256
v -0.03081115 0.01773284 0.04380631
v -0.01961266 -0.01776557 0.0312706
v -0.02803359 -0.01771748 0.04443879
v -0.01002024 -0.01782037 0.02698687
v 0.009954829 -0.01793447 0.03754694
v -0.001182084 -0.01787085 0.01968601
v 0.01383577 -0.01795663 0.03293779
v -0.03101353 -0.01770045 0.03466588
v 0.006939444 -0.01791722 0.00987328
v -0.02935368 -0.01770995 0.04378917
v 0.01626348 -0.01797048 0.03060529
v -0.03514238 -0.01767688 0.04054869
v -0.03101353 -0.01770045 0.04380631
v -0.0334149 -0.01768676 0.04269256
v -0.03514238 -0.01767688 0.03792352
v -0.0334149 -0.01768676 0.03577963
v 0.01444673 -0.01796012 0.02295131
v 0.01383577 -0.01795663 0.01981211
v 0.01362396 -0.01795539 0.01263834
v 0.009707159 -0.01793304 0.008725266
v 0.01247596 -0.01794885 0.009870601
v 0.01626348 -0.01797048 0.02577859
v 0.0179194 -0.01797994 0.0266075
v 0.0185666 -0.01798362 0.02830215
v 0.01782594 -0.0179794 0.02995809
v 0.05488193 -0.01759484 0.05920671
v 0.0623133 -0.006955118 0.05920671
v 0.054894 -0.01548812 0.05920671
v 0.06238872 0.006248331 0.05920671
v 0.05506736 0.0148655 0.05920671
v 0.05507936 0.01697225 0.05920671
v 0.03400333 -0.0153688 0.05920671
v 0.054894 -0.01548812 0.05054362
v 0.04930706 -0.01545621 0.03458981
v -0.003100343 -0.01515687 -0.02007683
v 0.01682102 -0.01527064 -0.02200557
v 0.01320938 -0.01525002 -0.02767347
v 0.008619342 -0.0152238 -0.03365543
v 0.00279901 -0.01519057 -0.03701584
v -0.00441462 -0.01514937 -0.03796554
v -0.01090636 -0.01511229 -0.03622607
v -0.01667872 -0.01507932 -0.03179671
v -0.02003908 -0.01506011 -0.0259763
v -0.02100357 -0.01505462 -0.01865012
v -0.01983407 -0.01506129 -0.01203184
v 0.007450385 -0.01521712 0.03462221
v 0.01311262 -0.01524947 0.05055498
v 0.01311262 -0.01524947 0.05920671
v 0.03417669 0.01498483 0.05920671
v 0.05506736 0.0148655 0.05054362
v 0.04948041 0.01489743 0.03458981
v 0.01699438 0.015083 -0.02200557
v -0.002926965 0.01519677 -0.02007683
v 0.01338273 0.01510362 -0.02767347
v 0.0087927 0.01512982 -0.03365543
v 0.002972369 0.01516309 -0.03701584
v -0.004241261 0.01520429 -0.03796554
v -0.01073298 0.01524136 -0.03622607
v -0.01650535 0.01527432 -0.03179671
v -0.01986571 0.01529351 -0.0259763
v -0.02083022 0.01529904 -0.01865012
v -0.0196607 0.01529235 -0.01203184
v 0.007623763 0.01513652 0.03462221
v 0.01328599 0.01510417 0.05055498
v 0.01328599 0.01510417 0.05920671
v 0.005791239 -0.00663228 0.05920671
v 0.0131006 -0.01735622 0.05920671
v 0.005866637 0.006571169 0.05920671
v 0.01329803 0.01721089 0.05920671
v 0.05488193 -0.01759484 0.05920671
v 0.054894 -0.01548812 0.05920671
v 0.054894 -0.01548812 0.05054362
v 0.05488193 -0.01759484 0.05054362
v 0.03399129 -0.01747552 0.07087682
v 0.05488193 -0.01759484 0.07087682
v 0.0623133 -0.006955118 0.07087682
v 0.0623133 -0.006955118 0.05920671
v 0.06238872 0.006248331 0.07087682
v 0.06238872 0.006248331 0.05920671
v 0.05507936 0.01697225 0.05920671
v 0.05507936 0.01697225 0.07087682
v 0.04929498 -0.01756293 0.03458981
v 0.04930706 -0.01545621 0.03458981
v 0.01682102 -0.01527064 -0.02200557
v 0.01680898 -0.0173774 -0.02200557
v 0.01319734 -0.01735677 -0.02767347
v 0.01320938 -0.01525002 -0.02767347
v 0.008619342 -0.0152238 -0.03365543
v -0.003112378 -0.01726361 -0.02007683
v 0.008607307 -0.01733056 -0.03365543
v 0.002786975 -0.01729731 -0.03701584
v 0.007438369 -0.01732389 0.03462221
v 0.00279901 -0.01519057 -0.03701584
v -0.00441462 -0.01514937 -0.03796554
v -0.004426675 -0.01725612 -0.03796554
v -0.01091839 -0.01721904 -0.03622607
v -0.01090636 -0.01511229 -0.03622607
v -0.01667872 -0.01507932 -0.03179671
v -0.01669076 -0.01718606 -0.03179671
v -0.02005111 -0.01716687 -0.0259763
v -0.02003908 -0.01506011 -0.0259763
v -0.02100357 -0.01505462 -0.01865012
v -0.02101561 -0.01716136 -0.01865012
v -0.01984609 -0.01716804 -0.01203184
v -0.01983407 -0.01506129 -0.01203184
v 0.007450385 -0.01521712 0.03462221
v 0.0131006 -0.01735622 0.05055498
v 0.01311262 -0.01524947 0.05055498
v 0.01311262 -0.01524947 0.05920671
v 0.0131006 -0.01735622 0.05920671
v 0.0131006 -0.01735622 0.07087682
v 0.005791239 -0.00663228 0.05920671
v 0.005791239 -0.00663228 0.07087682
v 0.005866637 0.006571169 0.05920671
v 0.005866637 0.006571169 0.07087682
v 0.01329803 0.01721089 0.07087682
v 0.01329803 0.01721089 0.05920671
v 0.03418872 0.01709157 0.07087682
v 0.01329803 0.01721089 0.05055498
v 0.007635798 0.01724324 0.03462221
v 0.01328599 0.01510417 0.05920671
v 0.01328599 0.01510417 0.05055498
v 0.007623763 0.01513652 0.03462221
v -0.0196607 0.01529235 -0.01203184
v -0.01964866 0.01739907 -0.01203184
v -0.02083022 0.01529904 -0.01865012
v -0.002914948 0.01730351 -0.02007683
v -0.02081818 0.01740575 -0.01865012
v -0.01985367 0.01740026 -0.0259763
v 0.01700641 0.01718972 -0.02200557
v -0.01986571 0.01529351 -0.0259763
v -0.01650535 0.01527432 -0.03179671
v -0.01649331 0.01738107 -0.03179671
v -0.01072096 0.01734809 -0.03622607
v -0.01073298 0.01524136 -0.03622607
v -0.004241261 0.01520429 -0.03796554
v -0.004229226 0.01731101 -0.03796554
v 0.002984405 0.01726979 -0.03701584
v 0.002972369 0.01516309 -0.03701584
v 0.0087927 0.01512982 -0.03365543
v 0.008804736 0.01723657 -0.03365543
v 0.01339477 0.01721034 -0.02767347
v 0.01338273 0.01510362 -0.02767347
v 0.01699438 0.015083 -0.02200557
v 0.04948041 0.01489743 0.03458981
v 0.04949241 0.01700416 0.03458981
v 0.05507936 0.01697225 0.05054362
v 0.05506736 0.0148655 0.05054362
v 0.05507936 0.01697225 0.05920671
v 0.05507936 0.01697225 0.07087682
v 0.05506736 0.0148655 0.05920671
v -0.002090268 -0.01498557 -0.07087682
v 0.01377887 0.01492427 -0.06839049
v -0.001918931 0.01501393 -0.07087682
v 0.01360754 -0.01507523 -0.06839049
v 0.02794008 0.0148434 -0.06117489
v 0.02776872 -0.01515613 -0.06117489
v 0.03917846 0.0147792 -0.04993631
v 0.0390071 -0.01522031 -0.04993631
v 0.04639396 0.014738 -0.03577488
v 0.0462226 -0.01526153 -0.03577489
v 0.04888025 0.01472379 -0.02007682
v 0.04870889 -0.01527572 -0.02007682
v 0.04639396 0.014738 -0.004378757
v 0.0462226 -0.01526153 -0.004378757
v 0.03917846 0.0147792 0.009782672
v 0.0390071 -0.01522031 0.009782672
v 0.02794008 0.0148434 0.02102125
v 0.02776874 -0.01515613 0.02102125
v 0.01377889 0.01492429 0.02823686
v 0.01360754 -0.01507523 0.02823686
v -0.001918931 0.01501393 0.03072319
v -0.002090268 -0.01498557 0.03072319
v -0.01761674 0.0151036 0.02823686
v -0.01778809 -0.01489593 0.02823686
v -0.03177795 0.01518449 0.02102126
v -0.0319493 -0.01481503 0.02102126
v -0.04301634 0.01524865 0.009782681
v -0.04318769 -0.01475085 0.009782681
v -0.05023184 0.01528989 -0.004378753
v -0.05040318 -0.01470962 -0.004378753
v -0.05271812 0.01530408 -0.02007682
v -0.05288947 -0.01469542 -0.02007682
v -0.05023184 0.01528989 -0.03577489
v -0.05040318 -0.01470962 -0.03577489
v -0.04301635 0.01524869 -0.04993633
v -0.0431877 -0.01475085 -0.04993633
v -0.03177795 0.01518449 -0.06117491
v -0.0319493 -0.01481503 -0.06117491
v -0.01761674 0.0151036 -0.06839053
v -0.01778809 -0.01489593 -0.06839053
v -0.001918931 0.01501393 -0.07087682
v -0.002090268 -0.01498557 -0.07087682
v 0.01360754 -0.01507523 -0.06839049
v -0.002090268 -0.01498557 -0.07087682
v -0.002090268 -0.01498557 -0.02007682
v 0.02776872 -0.01515613 -0.06117489
v -0.01778809 -0.01489593 -0.06839053
v 0.0390071 -0.01522031 -0.04993631
v -0.0319493 -0.01481503 -0.06117491
v 0.0462226 -0.01526153 -0.03577489
v -0.0431877 -0.01475085 -0.04993633
v 0.04870889 -0.01527572 -0.02007682
v -0.05040318 -0.01470962 -0.03577489
v 0.0462226 -0.01526153 -0.004378757
v -0.05288947 -0.01469542 -0.02007682
v 0.0390071 -0.01522031 0.009782672
v -0.05040318 -0.01470962 -0.004378753
v 0.02776874 -0.01515613 0.02102125
v -0.04318769 -0.01475085 0.009782681
v 0.01360754 -0.01507523 0.02823686
v -0.0319493 -0.01481503 0.02102126
v -0.002090268 -0.01498557 0.03072319
v -0.01778809 -0.01489593 0.02823686
v -0.001918931 0.01501393 -0.07087682
v 0.01377887 0.01492427 -0.06839049
v -0.001918931 0.01501393 -0.02007682
v -0.01761674 0.0151036 -0.06839053
v 0.02794008 0.0148434 -0.06117489
v -0.03177795 0.01518449 -0.06117491
v 0.03917846 0.0147792 -0.04993631
v -0.04301635 0.01524869 -0.04993633
v 0.04639396 0.014738 -0.03577488
v -0.05023184 0.01528989 -0.03577489
v 0.04888025 0.01472379 -0.02007682
v -0.05271812 0.01530408 -0.02007682
v 0.04639396 0.014738 -0.004378757
v -0.05023184 0.01528989 -0.004378753
v 0.03917846 0.0147792 0.009782672
v -0.04301634 0.01524865 0.009782681
v 0.02794008 0.0148434 0.02102125
v -0.03177795 0.01518449 0.02102126
v 0.01377889 0.01492429 0.02823686
v -0.01761674 0.0151036 0.02823686
v -0.001918931 0.01501393 0.03072319
v 0.01016235 0.01839917 0.03754694
v 0.01403816 0.01747668 0.03293779
v 0.01021736 0.0174985 0.03747552
v 0.0101572 0.01749885 0.03754694
v 0.007684913 0.01841332 0.0420285
v -0.009812722 0.01851327 0.02698687
v 0.007679763 0.017513 0.0420285
v 0.01404329 0.01837701 0.03293779
v 0.01646587 0.01746282 0.03060529
v 0.01647102 0.01836314 0.03060529
v 0.01802833 0.01745389 0.02995809
v -0.0009745645 0.01846278 0.01968601
v 0.007146983 0.0184164 0.00987328
v -0.0009797143 0.01756246 0.01968601
v -0.009741673 0.0176125 0.02692393
v -0.009817872 0.01761292 0.02698687
v -0.01941027 0.01766772 0.0312706
v 0.007141833 0.01751607 0.00987328
v -0.01940513 0.01856805 0.0312706
v -0.03081115 0.01773284 0.03466588
v -0.03080601 0.01863316 0.03466588
v -0.03321252 0.01774655 0.03577963
v 0.009914679 0.01840058 0.008725266
v 0.009909549 0.01750026 0.008725266
v 0.01268348 0.01838477 0.009870601
v 0.01267835 0.01748445 0.009870601
v 0.01383148 0.01837823 0.01263834
v 0.01382633 0.01747788 0.01263834
v 0.01403816 0.01747668 0.01981211
v 0.01404329 0.01837701 0.01981211
v 0.01465425 0.01837352 0.02295131
v 0.01464912 0.01747319 0.02295131
v 0.01647102 0.01836314 0.02577859
v 0.01646587 0.01746282 0.02577859
v 0.01812692 0.01835368 0.0266075
v 0.01812179 0.01745336 0.0266075
v 0.01877412 0.01835 0.02830215
v 0.01876897 0.01744965 0.02830215
v 0.01803348 0.01835421 0.02995809
v -0.03320738 0.0186469 0.03577963
v -0.03494 0.01775643 0.03792352
v -0.03493486 0.01865674 0.03792352
v -0.03494 0.01775643 0.04054869
v -0.03493486 0.01865674 0.04054869
v -0.03321252 0.01774655 0.04269256
v -0.03320738 0.0186469 0.04269256
v -0.03081115 0.01773284 0.04380631
v -0.03080601 0.01863316 0.04380631
v -0.0291513 0.01772336 0.04378917
v -0.02914616 0.0186237 0.04378917
v -0.02783122 0.01771582 0.04443879
v -0.02782607 0.01861615 0.04443879
v -0.02739275 0.01771333 0.04561739
v -0.0273876 0.01861365 0.04561739
v -0.02739275 0.01771333 0.04637711
v 0.005845408 0.01842383 0.04708422
v 0.006258483 0.0175211 0.0459407
v 0.006056094 -0.01791219 0.0459407
v -0.0273876 0.01861365 0.04708422
v -0.02759512 -0.01771998 0.04637711
v 0.005632758 -0.01881013 0.04708422
v -0.02760027 -0.01862031 0.04708422
v -0.02759512 -0.01771998 0.04561739
v -0.02760027 -0.01862031 0.04561739
v -0.02803359 -0.01771748 0.04443879
v 0.007472243 -0.01882064 0.0420285
v 0.007477374 -0.01792031 0.0420285
v -0.02803874 -0.01861781 0.04443879
v -0.02935368 -0.01770995 0.04378917
v 0.009949679 -0.01883479 0.03754694
v 0.009954829 -0.01793447 0.03754694
v -0.02935882 -0.01861028 0.04378917
v -0.03101353 -0.01770045 0.04380631
v -0.0196178 -0.01866591 0.0312706
v 0.01383062 -0.01885695 0.03293779
v 0.01383577 -0.01795663 0.03293779
v 0.01625835 -0.01887082 0.03060529
v 0.01626348 -0.01797048 0.03060529
v -0.03101868 -0.0186008 0.04380631
v -0.0334149 -0.01768676 0.04269256
v -0.03342005 -0.01858708 0.04269256
v -0.03514238 -0.01767688 0.04054869
v -0.03514753 -0.0185772 0.04054869
v -0.03514238 -0.01767688 0.03792352
v -0.01002539 -0.01872069 0.02698687
v 0.006934314 -0.01881757 0.00987328
v -0.001187234 -0.01877118 0.01968601
v 0.006939444 -0.01791722 0.00987328
v -0.001182084 -0.01787085 0.01968601
v -0.01002024 -0.01782037 0.02698687
v -0.01961266 -0.01776557 0.0312706
v 0.009707159 -0.01793304 0.008725266
v -0.03101868 -0.0186008 0.03466588
v -0.03101353 -0.01770045 0.03466588
v -0.03342005 -0.01858708 0.03577963
v -0.0334149 -0.01768676 0.03577963
v -0.03514753 -0.0185772 0.03792352
v 0.00970201 -0.01883338 0.008725266
v 0.01247596 -0.01794885 0.009870601
v 0.01247083 -0.01884919 0.009870601
v 0.01362396 -0.01795539 0.01263834
v 0.01361881 -0.01885575 0.01263834
v 0.01383577 -0.01795663 0.01981211
v 0.01383062 -0.01885695 0.01981211
v 0.01444673 -0.01796012 0.02295131
v 0.01444158 -0.01886044 0.02295131
v 0.01626348 -0.01797048 0.02577859
v 0.01625835 -0.01887082 0.02577859
v 0.0179194 -0.01797994 0.0266075
v 0.01791425 -0.01888028 0.0266075
v 0.0185666 -0.01798362 0.02830215
v 0.01782081 -0.01887975 0.02995809
v 0.01782594 -0.0179794 0.02995809
v 0.01856145 -0.01888398 0.02830215
v 0.003991466 0.02417701 -0.0163417
v 0.003950553 0.01701383 -0.0163417
v -0.0023037 0.01704955 -0.01273075
v 0.003991446 0.02417701 -0.0235636
v 0.003950534 0.01701383 -0.0235636
v -0.002262788 0.02421273 -0.01273075
v -0.008557954 0.01708526 -0.0163417
v -0.002262788 0.02421273 -0.02717455
v -0.0023037 0.01704955 -0.02717455
v -0.002262788 0.02421273 -0.01995265
v -0.008517041 0.02424846 -0.0163417
v -0.008557954 0.01708527 -0.0235636
v -0.008517041 0.02424846 -0.0235636
v -0.008793626 -0.02417701 -0.0163417
v -0.008752733 -0.01701381 -0.0163417
v -0.00249846 -0.01704953 -0.01273075
v -0.008793626 -0.02417701 -0.0235636
v -0.008752713 -0.01701381 -0.0235636
v -0.002539372 -0.02421273 -0.01273075
v 0.003755774 -0.01708526 -0.0163417
v -0.002539391 -0.02421271 -0.02717455
v -0.00249846 -0.01704953 -0.02717455
v -0.002539372 -0.02421273 -0.01995265
v 0.003714862 -0.02424846 -0.0163417
v 0.003755793 -0.01708526 -0.0235636
v 0.003714881 -0.02424846 -0.0235636
vt 0.7026857 0.9231832
vt 0.7132885 0.9219709
vt 0.7031134 0.92257
vt 0.713227 0.9225271
vt 0.714487 0.9224543
vt 0.7159122 0.9254472
vt 0.7044658 0.929666
vt 0.714101 0.9228424
vt 0.7154772 0.9234866
vt 0.7149825 0.9236857
vt 0.7163835 0.9251652
vt 0.7177289 0.9265303
vt 0.6831282 0.9224439
vt 0.7021834 0.9227107
vt 0.6836712 0.9220112
vt 0.6827222 0.9293727
vt 0.6931268 0.9429303
vt 0.7179028 0.928296
vt 0.7178354 0.9276293
vt 0.704382 0.9426453
vt 0.7173228 0.9269029
vt 0.7182693 0.927238
vt 0.7036563 0.9516823
vt 0.7049964 0.9429231
vt 0.7039511 0.952211
vt 0.6941244 0.95112
vt 0.6927471 0.9435279
vt 0.6944433 0.9506435
vt 0.6825963 0.9422018
vt 0.6794706 0.9411618
vt 0.6764349 0.9270239
vt 0.6927246 0.9435215
vt 0.6830451 0.9428313
vt 0.6763527 0.9380872
vt 0.6758448 0.9274256
vt 0.6758009 0.9380558
vt 0.6766929 0.939009
vt 0.6761777 0.9392046
vt 0.6775795 0.9400152
vt 0.677174 0.9404009
vt 0.6791373 0.941614
vt 0.6811514 0.9420602
vt 0.6807977 0.942466
vt 0.6818989 0.9423103
vt 0.6816365 0.9428646
vt 0.9283695 0.4260719
vt 0.9339147 0.4178681
vt 0.9234504 0.4107949
vt 0.9123599 0.4272025
vt 0.9228242 0.4342757
vt 0.935674 0.4310093
vt 0.9298211 0.4396682
vt 0.9225166 0.4347308
vt 0.9180577 0.4071497
vt 0.9069672 0.4235573
vt 0.9053254 0.4345328
vt 0.9319778 0.4025326
vt 0.92763 0.4015349
vt 0.9336372 0.4036542
vt 0.9342542 0.4042519
vt 0.9300057 0.4015628
vt 0.9286499 0.4013416
vt 0.907872 0.4381953
vt 0.9062369 0.4367268
vt 0.9055263 0.4355512
vt 0.9095314 0.4393169
vt 0.9103161 0.4396667
vt 0.8555389 0.5823984
vt 0.8549077 0.5760019
vt 0.854956 0.5817921
vt 0.8552962 0.5763793
vt 0.8630726 0.5747857
vt 0.8646469 0.576424
vt 0.8652573 0.5784758
vt 0.8630624 0.5753582
vt 0.8643159 0.5751616
vt 0.8640286 0.5755873
vt 0.8650826 0.57609
vt 0.8657297 0.5781453
vt 0.8662506 0.5790221
vt 0.8658974 0.5794834
vt 0.8669242 0.5793108
vt 0.8667988 0.5798724
vt 0.8696235 0.5791894
vt 0.8695774 0.579758
vt 0.8708033 0.5795291
vt 0.87057 0.5800224
vt 0.8715243 0.5802242
vt 0.871119 0.5806389
vt 0.8712337 0.5812262
vt 0.8559167 0.6035749
vt 0.8554561 0.6030394
vt 0.8550981 0.5829604
vt 0.8725445 0.5961176
vt 0.8710502 0.6045405
vt 0.8729864 0.595944
vt 0.871811 0.5817144
vt 0.875542 0.5971302
vt 0.875753 0.5967171
vt 0.8784393 0.5980411
vt 0.8786333 0.5976165
vt 0.8811249 0.5990454
vt 0.8815566 0.5989397
vt 0.8796558 0.6058068
vt 0.8799884 0.6061541
vt 0.876712 0.6053736
vt 0.8765897 0.6058941
vt 0.8739619 0.6045896
vt 0.8738618 0.605119
vt 0.8712263 0.6039881
vt 0.8713859 0.6044985
vt 0.8715269 0.6049619
vt 0.8711244 0.6049097
vt 0.8710103 0.6060447
vt 0.8707411 0.6056132
vt 0.8697832 0.6065578
vt 0.8697417 0.6060145
vt 0.8669768 0.6065831
vt 0.8668762 0.6060196
vt 0.8663212 0.6069293
vt 0.8659945 0.6064338
vt 0.8658046 0.6078691
vt 0.8653496 0.6074827
vt 0.865001 0.6099733
vt 0.8646371 0.6095425
vt 0.8641215 0.6108881
vt 0.8553364 0.6093782
vt 0.8553005 0.6041036
vt 0.8548918 0.6096678
vt 0.8630227 0.6105751
vt 0.8628412 0.6111227
vt 0.8639767 0.6103651
vt 0.8725334 0.8399996
vt 0.8651084 0.8429596
vt 0.8725296 0.8429583
vt 0.8651122 0.8400009
vt 0.8725339 0.8370818
vt 0.8651127 0.8370832
vt 0.8725334 0.8341671
vt 0.8651123 0.8341684
vt 0.8725299 0.8183619
vt 0.8514901 0.8341715
vt 0.873652 0.8297449
vt 0.8732502 0.833671
vt 0.8736129 0.8326254
vt 0.8740825 0.8288543
vt 0.8751117 0.828348
vt 0.8783885 0.8183929
vt 0.877094 0.8283109
vt 0.8779936 0.8279368
vt 0.878343 0.8269594
vt 0.851487 0.8183661
vt 0.8503698 0.8297498
vt 0.85041 0.8326302
vt 0.8507731 0.8336757
vt 0.8499388 0.8288593
vt 0.8489094 0.8283535
vt 0.8456284 0.8183997
vt 0.8469271 0.8283172
vt 0.8460274 0.8279436
vt 0.8456775 0.8269662
vt 0.7875296 0.3434246
vt 0.7874862 0.3469149
vt 0.7882308 0.3451788
vt 0.785732 0.3476161
vt 0.781208 0.3476912
vt 0.779224 0.3480507
vt 0.7743841 0.3491337
vt 0.7774268 0.349173
vt 0.7768909 0.3502102
vt 0.7814098 0.3382248
vt 0.7747794 0.350124
vt 0.7758173 0.3506044
vt 0.7729335 0.3475842
vt 0.7701041 0.3451386
vt 0.7769184 0.3326422
vt 0.7700595 0.3451001
vt 0.7672545 0.3435018
vt 0.7768794 0.3325936
vt 0.7742571 0.3265115
vt 0.7660244 0.3210956
vt 0.7722095 0.3192966
vt 0.7652778 0.3213624
vt 0.7647989 0.3213562
vt 0.7647998 0.3425739
vt 0.7424604 0.3425749
vt 0.7424595 0.3213572
vt 0.7419805 0.3213634
vt 0.7664446 0.3202687
vt 0.7400059 0.343503
vt 0.7685346 0.3166458
vt 0.771527 0.3177737
vt 0.7701895 0.3166672
vt 0.7671691 0.3177174
vt 0.7664474 0.3192222
vt 0.7330018 0.3265134
vt 0.7412339 0.3210967
vt 0.73038 0.3325957
vt 0.737201 0.3451016
vt 0.72585 0.3382272
vt 0.7343272 0.3475859
vt 0.7350487 0.3192983
vt 0.7197307 0.3434277
vt 0.7408136 0.3202698
vt 0.7328766 0.3491356
vt 0.7387232 0.3166471
vt 0.7408108 0.3192233
vt 0.7400889 0.3177186
vt 0.7370684 0.3166687
vt 0.7357311 0.3177753
vt 0.7280367 0.348053
vt 0.7260527 0.3476936
vt 0.7215286 0.347619
vt 0.7190297 0.3451819
vt 0.7197744 0.346918
vt 0.7298338 0.3491752
vt 0.73037 0.3502122
vt 0.7314437 0.3506064
vt 0.7324815 0.3501259
vt 0.09192936 0.8913621
vt 0.08685376 0.890313
vt 0.09262834 0.8915217
vt 0.08064398 0.8900546
vt 0.07486631 0.8913611
vt 0.0755608 0.8911974
vt 0.0932182 0.9053446
vt 0.09707505 0.8907577
vt 0.106452 0.8916653
vt 0.1478 0.9144477
vt 0.1464023 0.9019529
vt 0.1505154 0.903339
vt 0.1548464 0.905282
vt 0.157694 0.9082131
vt 0.1593661 0.9121931
vt 0.1594673 0.916121
vt 0.1580458 0.9201103
vt 0.1554837 0.9231181
vt 0.1515747 0.9252862
vt 0.1474279 0.9262864
vt 0.1127708 0.9178783
vt 0.1011014 0.9170113
vt 0.09425534 0.9180155
vt 0.0739287 0.9050465
vt 0.07039812 0.89051
vt 0.06089798 0.8913267
vt 0.02081575 0.9019138
vt 0.01945865 0.9144256
vt 0.01669569 0.9033305
vt 0.01236176 0.90531
vt 0.009524741 0.9082729
vt 0.007878931 0.9122803
vt 0.0078125 0.9162199
vt 0.009274677 0.9202024
vt 0.0118677 0.9231854
vt 0.01579338 0.925311
vt 0.01993787 0.9262657
vt 0.05458646 0.9177176
vt 0.0662328 0.9168576
vt 0.07304773 0.9180295
vt 0.08836305 0.9193206
vt 0.09357694 0.9181793
vt 0.07893685 0.9192397
vt 0.07373054 0.9181889
vt 0.8095417 0.6432549
vt 0.8094904 0.644752
vt 0.8139188 0.6469412
vt 0.8138641 0.6455874
vt 0.8102013 0.6250184
vt 0.8033581 0.6389828
vt 0.7981918 0.6451455
vt 0.8039886 0.65004
vt 0.7927324 0.6513026
vt 0.7982619 0.6568199
vt 0.7907505 0.661954
vt 0.7869607 0.6561998
vt 0.8230939 0.6484713
vt 0.8230234 0.6498225
vt 0.8602036 0.659892
vt 0.8605481 0.6585709
vt 0.8641279 0.6596178
vt 0.8638359 0.6609771
vt 0.8680875 0.6619456
vt 0.8685627 0.6484223
vt 0.8680891 0.6606125
vt 0.8716334 0.6602436
vt 0.8402354 0.6291559
vt 0.8720043 0.6615788
vt 0.8758588 0.6597618
vt 0.87513 0.6586493
vt 0.8776553 0.6560867
vt 0.878739 0.6569495
vt 0.8806077 0.652942
vt 0.8793775 0.6524489
vt 0.8796857 0.6485326
vt 0.8810516 0.6486381
vt 0.8798594 0.6437528
vt 0.8785683 0.6439911
vt 0.8761618 0.640013
vt 0.8770195 0.6389791
vt 0.8410706 0.6280733
vt 0.830245 0.6244892
vt 0.8312481 0.6236092
vt 0.8278719 0.6197048
vt 0.8264233 0.6201166
vt 0.8191003 0.6168777
vt 0.8270435 0.6101891
vt 0.8198077 0.6101523
vt 0.82619 0.6009979
vt 0.8192994 0.6023027
vt 0.8174379 0.5961601
vt 0.8236383 0.5910698
vt 0.8072546 0.592206
vt 0.8257704 0.5853418
vt 0.8333607 0.5770428
vt 0.8251371 0.5909737
vt 0.8269801 0.5859125
vt 0.8345217 0.5777754
vt 0.8637989 0.5529633
vt 0.8625492 0.5524843
vt 0.8642297 0.5473585
vt 0.8522631 0.5479313
vt 0.8629746 0.5477449
vt 0.8620679 0.5430502
vt 0.8405558 0.5419922
vt 0.8632479 0.5423676
vt 0.860979 0.5385903
vt 0.8600864 0.5395675
vt 0.856914 0.5369841
vt 0.8575043 0.5357308
vt 0.8536342 0.534447
vt 0.853486 0.5357685
vt 0.8496346 0.5358588
vt 0.8493529 0.5344993
vt 0.8456889 0.5358671
vt 0.846306 0.5370502
vt 0.8432255 0.5395878
vt 0.8422966 0.5385338
vt 0.8395975 0.541031
vt 0.80957 0.5645654
vt 0.810296 0.565719
vt 0.8031015 0.5719702
vt 0.802603 0.5707332
vt 0.800224 0.5757133
vt 0.7953447 0.5804268
vt 0.7994427 0.5744327
vt 0.2082182 0.9346477
vt 0.198199 0.953562
vt 0.2082192 0.9535614
vt 0.198198 0.9346483
vt 0.1881787 0.9535625
vt 0.1881776 0.9346489
vt 0.1781584 0.953563
vt 0.1781574 0.9346494
vt 0.1681381 0.9535636
vt 0.168137 0.9346499
vt 0.1581178 0.9535641
vt 0.1581168 0.9346505
vt 0.1480975 0.9535647
vt 0.1480966 0.9346511
vt 0.1380772 0.9535652
vt 0.1380762 0.9346516
vt 0.128057 0.9535658
vt 0.1280559 0.9346521
vt 0.1180367 0.9535663
vt 0.1180356 0.9346527
vt 0.1080164 0.9535669
vt 0.1080154 0.9346532
vt 0.09799617 0.9535674
vt 0.09799509 0.9346538
vt 0.08797581 0.953568
vt 0.08797479 0.9346543
vt 0.07795545 0.9535685
vt 0.07795444 0.9346549
vt 0.06793521 0.9535691
vt 0.06793421 0.9346554
vt 0.05791498 0.9535696
vt 0.05791397 0.934656
vt 0.04789463 0.9535702
vt 0.04789362 0.9346565
vt 0.0378744 0.9535707
vt 0.03787338 0.9346571
vt 0.0278541 0.9535713
vt 0.02785309 0.9346576
vt 0.0178338 0.9535718
vt 0.01783273 0.9346582
vt 0.00781351 0.9535724
vt 0.0078125 0.9346587
vt 0.8811046 0.9089775
vt 0.8811041 0.8989573
vt 0.8494716 0.9039693
vt 0.8780088 0.9185075
vt 0.8780071 0.8894276
vt 0.8721196 0.9266145
vt 0.8721167 0.8813214
vt 0.8640134 0.9325049
vt 0.8640098 0.8754321
vt 0.8544837 0.9356019
vt 0.8544797 0.8723363
vt 0.8444635 0.9356025
vt 0.8444594 0.8723369
vt 0.8349334 0.9325067
vt 0.8349298 0.875434
vt 0.8268265 0.9266174
vt 0.8268235 0.8813243
vt 0.8209361 0.9185112
vt 0.8209343 0.8894312
vt 0.8178391 0.9089816
vt 0.8178385 0.8989613
vt 0.6580321 0.930948
vt 0.6499256 0.9250582
vt 0.6353856 0.9535945
vt 0.663922 0.9390545
vt 0.6403958 0.9219617
vt 0.6670184 0.9485844
vt 0.6303754 0.9219617
vt 0.6670184 0.9586047
vt 0.6208456 0.9250582
vt 0.663922 0.9681345
vt 0.612739 0.930948
vt 0.6580321 0.9762411
vt 0.6068492 0.9390545
vt 0.6499256 0.9821309
vt 0.6037529 0.9485844
vt 0.6403958 0.9852273
vt 0.6037529 0.9586047
vt 0.6303754 0.9852273
vt 0.6068492 0.9681345
vt 0.6208456 0.9821309
vt 0.612739 0.9762411
vt 0.7592214 0.2897649
vt 0.7620752 0.2923123
vt 0.7597098 0.2894596
vt 0.7596808 0.2894171
vt 0.7575449 0.2870627
vt 0.7461203 0.2966208
vt 0.7579807 0.2866779
vt 0.7616548 0.2927015
vt 0.7635974 0.2937429
vt 0.7631863 0.2941817
vt 0.7646369 0.2944821
vt 0.7518771 0.3012188
vt 0.757176 0.307157
vt 0.7515012 0.3016533
vt 0.745856 0.2971348
vt 0.7458248 0.2971121
vt 0.7396316 0.2943504
vt 0.7568475 0.307617
vt 0.7398427 0.2938171
vt 0.7324163 0.2923878
vt 0.7326207 0.2918499
vt 0.7306982 0.2917182
vt 0.7587748 0.3079569
vt 0.7587344 0.3085004
vt 0.7604019 0.3074359
vt 0.7607302 0.3078783
vt 0.7612222 0.3057713
vt 0.761766 0.3059576
vt 0.7621326 0.3012142
vt 0.7615688 0.3010962
vt 0.7620097 0.2990396
vt 0.7625344 0.29928
vt 0.7631697 0.2972427
vt 0.7636203 0.2976073
vt 0.7640978 0.2966073
vt 0.7645321 0.296907
vt 0.764504 0.2956968
vt 0.7650354 0.2957533
vt 0.7641595 0.2947508
vt 0.7310513 0.2912742
vt 0.7294175 0.2902965
vt 0.7299336 0.2901042
vt 0.7293223 0.2885152
vt 0.7298693 0.2886099
vt 0.7301815 0.2868699
vt 0.7306445 0.2871872
vt 0.7317056 0.2857614
vt 0.7320051 0.2862158
vt 0.7328337 0.2854299
vt 0.7331453 0.2859385
vt 0.7335846 0.2848946
vt 0.7339869 0.2853924
vt 0.7340922 0.2841155
vt 0.7344732 0.2847036
vt 0.7344114 0.2833752
vt 0.7555647 0.2841443
vt 0.7563148 0.2838686
vt 0.7562621 0.2607306
vt 0.7348475 0.2838679
vt 0.734889 0.2610332
vt 0.7555277 0.2604566
vt 0.7353367 0.2605879
vt 0.7345684 0.2603302
vt 0.7349448 0.2597563
vt 0.7340651 0.2595616
vt 0.7574766 0.2575009
vt 0.7579153 0.2578806
vt 0.7344517 0.2590704
vt 0.7332713 0.259037
vt 0.7591721 0.2547867
vt 0.7596294 0.255139
vt 0.7335913 0.2585151
vt 0.7320932 0.2586387
vt 0.7401001 0.2506982
vt 0.7616161 0.2518567
vt 0.7620368 0.2522451
vt 0.7631546 0.2503923
vt 0.763545 0.2508227
vt 0.732435 0.2581851
vt 0.7305869 0.2574398
vt 0.73107 0.2571492
vt 0.7297629 0.255757
vt 0.7303202 0.2557043
vt 0.7299339 0.253957
vt 0.7462257 0.247895
vt 0.7572928 0.2374118
vt 0.751925 0.2432832
vt 0.7569799 0.2369345
vt 0.7515516 0.2428442
vt 0.7459184 0.2474113
vt 0.7398903 0.2501668
vt 0.7589682 0.236096
vt 0.7331032 0.2526037
vt 0.7329131 0.2520653
vt 0.7315602 0.2530923
vt 0.7312468 0.2526349
vt 0.7304293 0.2541973
vt 0.7589597 0.2366487
vt 0.7609469 0.2368077
vt 0.7605835 0.2372119
vt 0.7618619 0.2387045
vt 0.7613234 0.2388627
vt 0.7621236 0.2433114
vt 0.7615636 0.2434178
vt 0.7625051 0.2452137
vt 0.7619796 0.2454491
vt 0.7636363 0.2469339
vt 0.7631646 0.2473068
vt 0.7645903 0.2477275
vt 0.7641013 0.2479949
vt 0.7650272 0.2489622
vt 0.7641268 0.2498803
vt 0.7645432 0.2501916
vt 0.7644874 0.2489478
vt 0.8431109 0.2773964
vt 0.8394529 0.2758912
vt 0.8394907 0.2841404
vt 0.8470926 0.2756422
vt 0.8466054 0.2717139
vt 0.842634 0.2817279
vt 0.8466404 0.288247
vt 0.850607 0.2782274
vt 0.8537738 0.2758579
vt 0.8466232 0.2799825
vt 0.846139 0.2843187
vt 0.8537729 0.2841122
vt 0.8501287 0.2825599
vt 0.7978268 0.4073786
vt 0.7941656 0.4058635
vt 0.7941855 0.4141086
vt 0.801816 0.4056252
vt 0.8012899 0.4017048
vt 0.7973363 0.4117095
vt 0.8013334 0.4182169
vt 0.8053266 0.4081957
vt 0.8084846 0.405809
vt 0.8013334 0.4099601
vt 0.8008549 0.4142848
vt 0.8084816 0.4140891
vt 0.8048458 0.4125321
vn 0.05311733 0.1910296 0.980146
vn 0.883047 0.1511838 -0.444265
vn 0.8937191 0.1642951 -0.4174606
vn 0.2117066 0.9718032 -0.1038222
vn 0.5502402 -0.003140495 -0.8350005
vn 0.009868386 0.9982731 -0.05790946
vn -0.5222573 0.2027256 0.8283415
vn 0.2651635 0.8796962 -0.394744
vn 0.2480982 -0.001412963 -0.9687339
vn 0.1574691 0.7864214 -0.5972813
vn 0.07180716 -0.0004075275 -0.9974184
vn -0.05246612 0.0002993355 -0.9986227
vn 0.02800019 -0.0001599343 0.999608
vn 0.9999837 -0.005711624 -1.671058E-05
vn 0.9999837 -0.005711624 -1.671058E-05
vn -0.6130132 -0.1621698 0.7732502
vn -0.8849129 -0.008636937 0.4656764
vn 0.005706431 0.9999838 1.656898E-06
vn -0.06049596 0.9263445 -0.3717879
vn -0.8356071 0.04089935 0.547803
vn -0.03674982 0.6383807 -0.7688429
vn -0.1742356 0.0009940683 -0.9847035
vn -0.8232297 0.06641726 0.56381
vn 0.005713389 0.9999837 6.851853E-06
vn -0.473156 0.6475132 -0.5973693
vn -0.4805242 -0.6420582 -0.5973756
vn -0.00571175 -0.9999837 -4.924279E-07
vn -0.8239343 -0.05701274 0.56381
vn -0.9048306 -0.08023981 0.4181423
vn -0.001536842 -0.9983205 -0.05791148
vn 0.1198792 -0.9910516 -0.05870077
vn -0.6238433 0.003562752 -0.7815414
vn -0.6238433 0.003562751 -0.7815413
vn 0.2005876 -0.9741591 -0.1038204
vn 0.8917848 -0.1744773 -0.4174655
vn 0.8812621 -0.1612459 -0.4442711
vn 0.2551038 -0.8826597 -0.3947581
vn 0.5502393 -0.003147627 -0.8350011
vn 0.1484773 -0.7881574 -0.5972959
vn 0.2480972 -0.001420229 -0.9687341
vn 0.07180801 -0.0004075147 -0.9974184
vn -0.04404234 -0.6379079 -0.7688523
vn -0.05246593 0.0003053774 -0.9986227
vn -0.1514656 -0.8761818 -0.4575628
vn -0.2562413 0.00146567 -0.9666117
vn 0.8950996 -0.005112622 -0.4458368
vn 0.9081732 -0.005187277 -0.4185624
vn 0.6190185 0.2263675 -0.7520465
vn 0.5281427 -0.277675 -0.8024724
vn 0.8377404 -0.004783393 -0.5460477
vn 0.7815307 -0.004462518 -0.6238507
vn 0.7815294 -0.004460694 -0.6238524
vn 0.7815294 -0.004460695 -0.6238525
vn 0.001663384 0.291238 -0.9566492
vn -0.001663784 -0.2912374 -0.9566494
vn -0.005712694 -0.9999837 -4.156151E-07
vn 0.0057136 0.9999837 -2.539281E-07
vn 0.005711308 0.9999837 -5.336156E-07
vn 0.005697425 0.9999838 -2.913195E-07
vn 0.005663606 0.999984 -1.439154E-06
vn 0.005706753 0.9999838 5.410681E-06
vn 0.005706753 0.9999838 5.41068E-06
vn -0.005707461 -0.9999838 -4.275148E-07
vn -0.005706752 -0.9999838 9.468691E-07
vn -0.005706753 -0.9999838 9.46869E-07
vn -0.005716108 -0.9999837 2.913203E-07
vn -0.00575027 -0.9999835 1.439148E-06
vn 0.02166057 0.1215825 0.992345
vn 0.5788643 -0.003306521 -0.8154172
vn 0.9999837 -0.00571199 0
vn 0.09453899 0.9876143 -0.1252217
vn -0.03604021 0.0002059491 -0.9993504
vn -0.02772225 0.9996035 -0.004949478
vn -0.02537027 0.9996614 -0.00577789
vn -0.01194881 0.8820762 -0.4709553
vn -0.674812 0.003856987 -0.7379797
vn -0.07805786 0.9927347 -0.09156905
vn -0.9892007 0.005651485 -0.1464583
vn -0.9831337 0.005617421 -0.1828016
vn -0.7187734 0.004109375 -0.6952322
vn -0.07704352 0.9938124 -0.08000766
vn -0.118311 0.0006756055 -0.9929764
vn -0.002786557 0.9974576 -0.07120794
vn -0.09651429 0.000551275 -0.9953315
vn -0.003742704 0.9952552 -0.09722644
vn -0.5692005 0.003253043 -0.8221924
vn -0.3900873 0.7236 -0.5694164
vn -0.8598531 0.004912282 -0.5105178
vn -0.4285074 0.8760999 -0.2209758
vn -0.01178027 0.0282209 0.9995323
vn 0.02627187 -0.15789 0.9871072
vn 0.9999837 -0.005711366 -4.426317E-06
vn 0.9999837 -0.005711367 -4.426317E-06
vn -0.0159127 0.003220985 0.9998682
vn -0.005487619 -0.1271511 0.9918682
vn -0.9802271 0.1978757 -1.063639E-05
vn -0.9999837 0.005711613 -1.083862E-05
vn 0.02313181 0.06418259 0.99767
vn 0.005714305 0.9999837 0
vn 0.1095125 0.06494918 0.9918611
vn 0.005707801 0.9999838 0
vn 0.002399722 0.05645229 0.9984024
vn -0.9240403 0.382295 0
vn 0.001712328 -0.06382944 0.9979594
vn -0.9091008 -0.4165762 0
vn 0.1086499 -0.07472368 0.9912676
vn -0.005708872 -0.9999838 0
vn 0.02233625 -0.07280771 0.9970958
vn -0.005709303 -0.9999838 0
vn -0.002109281 -0.01049488 0.9999428
vn -0.005713808 -0.9999837 0
vn -0.928205 0.005295317 -0.3720315
vn -0.5265975 -0.8239818 -0.2091625
vn -0.5692014 0.003250908 -0.8221918
vn -0.3983348 -0.7191039 -0.5694022
vn -0.09651601 0.0005512854 -0.9953312
vn -0.01511216 -0.9951486 -0.09721576
vn -0.1183093 0.0006756214 -0.9929765
vn -0.01418074 -0.9973614 -0.07119838
vn -0.7187811 0.004111529 -0.6952243
vn -0.08839521 -0.992867 -0.08000887
vn -0.9831342 0.00562572 -0.1827991
vn -0.03678782 -0.9993064 -0.005778248
vn -0.9892002 0.005661635 -0.1464609
vn -0.03913758 -0.9992216 -0.00494985
vn -0.6748028 0.003866046 -0.7379881
vn 0.08325223 -0.9886298 -0.1252201
vn 0.9999837 -0.005711989 0
vn 0.5788721 -0.003312913 -0.8154116
vn -0.02202164 -0.8818851 -0.4709497
vn -0.03603837 0.0001998397 -0.9993504
vn -0.08938923 -0.9917784 -0.09156983
vn -0.109286 0.00888087 -0.9939708
vn -0.1717828 0.009163988 -0.9850922
vn -0.1717828 0.009163989 -0.9850922
vn -0.1093586 0.008881219 -0.9939627
vn -0.02276105 0.008434093 -0.9997054
vn -0.02276656 0.008434122 -0.9997051
vn 0.004241687 0.03595672 -0.9993443
vn 0.003236267 -0.0002417087 -0.9999948
vn 0.004184824 0.1544478 -0.9879921
vn 0.003104453 -0.009911828 -0.9999461
vn 0.00571196 0.9999837 -7.583839E-06
vn 0.005713744 0.9999837 -1.186545E-05
vn 0.005713744 0.9999837 -1.186545E-05
vn 0.005710722 0.9999837 5.060673E-07
vn 0.005711951 0.9999837 8.993852E-07
vn 0.005712248 0.9999837 9.358908E-07
vn 0.005712247 0.9999837 9.067553E-07
vn 0.005712213 0.9999837 5.201244E-07
vn 0.005712213 0.9999837 5.201244E-07
vn 0.002430938 -0.12363 -0.9923254
vn -0.005710969 -0.9999837 -2.531328E-06
vn -0.005713743 -0.9999837 4.009702E-06
vn -0.005713744 -0.9999837 4.009702E-06
vn -0.005712373 -0.9999837 -1.521955E-06
vn -0.005711095 -0.9999837 3.730861E-07
vn -0.005710777 -0.9999837 5.632042E-07
vn -0.005710759 -0.9999837 4.872886E-07
vn -0.005710511 -0.9999837 -5.201209E-07
vn -0.005710511 -0.9999837 -5.201209E-07
vn -0.005713694 -0.9999837 1.193854E-07
vn -0.005715248 -0.9999837 -2.749831E-07
vn -0.005715248 -0.9999837 -2.749831E-07
vn -0.005717453 -0.9999837 9.707205E-07
vn -0.005700899 -0.9999838 1.015409E-07
vn -0.005697475 -0.9999838 -1.186525E-07
vn -0.005713332 -0.9999837 0
vn -0.005706777 -0.9999838 0
vn -0.005717608 -0.9999837 0
vn -0.005712137 -0.9999837 0
vn -0.005695378 -0.9999838 0
vn -0.005695379 -0.9999838 0
vn -0.005712219 -0.9999837 0
vn -0.00571044 -0.9999837 1.043976E-07
vn -0.005710279 -0.9999837 1.37092E-07
vn -0.005709955 -0.9999837 2.02169E-07
vn -0.005710279 -0.9999837 -1.613913E-07
vn -0.005709955 -0.9999837 2.02169E-07
vn -0.005710671 -0.9999837 6.645793E-07
vn -0.005710829 -0.9999837 7.850434E-07
vn -0.005712688 -0.9999837 6.417811E-07
vn -0.005710728 -0.9999837 0
vn -0.01331298 -0.06535066 -0.9977735
vn -0.01338736 -0.08098152 -0.9966258
vn -0.01246158 0.081129 -0.9966258
vn -0.01256572 0.0654983 -0.9977735
vn 0.005710732 0.9999837 0
vn -0.005713064 -0.9999837 -4.113473E-07
vn 0.005712063 0.9999837 -4.149666E-07
vn -0.005715318 -0.9999837 3.972165E-07
vn -0.005696213 -0.9999838 2.436996E-06
vn -0.005696213 -0.9999838 2.436996E-06
vn -0.005709496 -0.9999838 -6.677974E-06
vn -0.005709496 -0.9999838 -6.677974E-06
vn 0.005711575 0.9999837 3.808166E-07
vn 0.005710849 0.9999837 6.320193E-07
vn 0.005712715 0.9999837 -3.317563E-07
vn 0.005712549 0.9999837 -2.671135E-07
vn 0.005711276 0.9999837 5.517636E-07
vn 0.005711222 0.9999837 5.925157E-07
vn 0.005714177 0.9999837 1.102638E-06
vn 0.005710163 0.9999837 1.182053E-06
vn 0.005696356 0.9999838 1.998674E-06
vn 0.005710741 0.9999837 1.245946E-06
vn 0.005709881 0.9999837 9.645615E-07
vn 0.005709496 0.9999838 -2.140376E-06
vn 0.005709496 0.9999838 -2.140376E-06
vn 0.005709775 0.9999838 -4.873991E-06
vn 0.005709775 0.9999838 -4.873991E-06
vn 0.005735431 0.9999835 -3.648557E-06
vn 0.005731007 0.9999835 -2.367058E-06
vn 0.005705186 0.9999838 2.923199E-06
vn 0.005702049 0.9999838 -4.605967E-06
vn 0.005702049 0.9999838 -4.605967E-06
vn 0.005706776 0.9999838 0
vn 0.005725279 0.9999837 0
vn 0.005720767 0.9999837 -1.986377E-07
vn 0.005720767 0.9999837 -1.986377E-07
vn 0 1.22835E-05 -1
vn 0 0 -1
vn 0.0003812299 0.06673982 -0.9977703
vn 0 0 -1
vn -0.0003812297 -0.06673917 -0.9977704
vn 0 -6.033977E-06 -1
vn 0.002866478 0.5018525 -0.8649485
vn 0.005711037 0.9999837 0
vn 0.005711955 0.9999837 1.566499E-07
vn 0.005711427 0.9999837 0
vn 0.005712016 0.9999837 1.403661E-07
vn 0.005710519 0.9999837 -1.521087E-07
vn 0.005711754 0.9999837 0
vn 0.005713994 0.9999837 -9.075339E-07
vn 0.005710872 0.9999837 -5.879025E-07
vn 0.005709322 0.9999838 -7.978038E-07
vn 0.005710889 0.9999837 -1.309214E-06
vn 0.005711364 0.9999837 3.133162E-07
vn 0.005712023 0.9999837 7.743145E-07
vn 0.005710826 0.9999837 -2.495457E-07
vn 0.005710741 0.9999837 -2.178842E-07
vn 0.005711567 0.9999837 3.802002E-07
vn 0.0003807396 0.06665258 -0.9977762
vn -0.002866581 -0.5018519 -0.8649488
vn -0.005712524 -0.9999837 -7.033624E-07
vn -0.005711833 -0.9999837 -4.932931E-07
vn -0.005711762 -0.9999837 -4.351524E-07
vn -0.005711773 -0.9999837 -1.030825E-07
vn -0.005711025 -0.9999837 1.268548E-06
vn -0.005713271 -0.9999837 -1.325968E-07
vn -0.005713995 -0.9999837 -1.013811E-06
vn -0.00571088 -0.9999837 -4.620682E-07
vn -0.005710865 -0.9999837 -7.509648E-07
vn -0.005710865 -0.9999837 -7.973867E-07
vn -0.005710386 -0.9999837 1.298712E-06
vn -0.005711774 -0.9999837 4.456658E-07
vn -0.00571175 -0.9999837 2.137786E-07
vn -0.005711821 -0.9999837 3.136394E-07
vn -0.005713861 -0.9999837 0
vn -0.0003808101 -0.06665216 -0.9977762
vn 0 0 -1
vn 0 0 -1
vn 0 0 -1
vn 0 -1.228366E-05 -1
vn 0.4391078 -0.8984343 0
vn 0.9999835 -0.005730836 0
vn 0.9751824 -0.005589188 -0.2213324
vn 0.1488959 -0.9882307 -0.03507397
vn -0.00571104 -0.9999837 1.794008E-07
vn 0.5093201 -0.8605772 0
vn 0.9538424 -0.3003078 0
vn 0.9538424 -0.3003078 0
vn 0.9572104 0.2893929 0
vn 0.9572104 0.2893929 0
vn 0.8263134 0.5632107 0
vn 0.8263134 0.5632107 0
vn 0.04722875 -0.9984977 -0.02777763
vn 0.8854564 -0.005068607 -0.4646947
vn 0.8651035 -0.004949526 -0.5015691
vn 0.04590781 -0.9984975 -0.02992139
vn 0.1898666 -0.9721229 -0.1375783
vn 0.8176689 -0.004670908 -0.5756699
vn 0.6678829 -0.003815058 -0.7442566
vn -0.005710784 -0.9999837 0
vn 0.1677384 -0.9667413 -0.1930676
vn 0.07591339 -0.9662275 -0.2462552
vn -0.07071456 -0.9969092 0.03422797
vn 0.3139545 -0.001793765 -0.9494363
vn -0.05752569 0.0003288842 -0.9983439
vn -0.020435 -0.9656776 -0.2589389
vn -0.1220601 -0.9650971 -0.2317085
vn -0.4493437 0.002568049 -0.8933552
vn -0.7466018 0.00426577 -0.6652576
vn -0.1991614 -0.9646564 -0.1725474
vn -0.2519081 -0.9643505 -0.08105886
vn -0.9499015 0.005426838 -0.3125023
vn -0.9998757 0.005711091 0.01470048
vn -0.2579088 -0.9661621 0.003711101
vn -0.1136763 -0.9918414 0.05769107
vn -0.8820477 0.005035025 0.4711332
vn -0.8848655 0.005049821 0.4658194
vn -0.2231454 -0.9734961 0.0501148
vn -0.9744707 0.005558059 0.2244458
vn -0.9999838 0.005703624 0
vn -0.4494776 -0.8932915 0
vn -0.5191176 -0.8547028 0
vn -0.9572103 -0.2893935 0
vn -0.9572103 -0.2893935 0
vn -0.9538422 0.3003081 0
vn -0.9538422 0.3003081 0
vn -0.5093192 0.8605778 0
vn -0.4392425 0.8983685 0
vn 0.005711425 0.9999837 0
vn -0.212012 0.9759813 0.05011416
vn -0.05932159 0.997652 0.03422818
vn -0.9999837 0.005712733 0
vn -0.9744709 0.005566608 0.2244447
vn -0.8848641 0.005055099 0.4658218
vn -0.8820459 0.005039171 0.4711364
vn -0.1023371 0.9930755 0.05769084
vn -0.9998757 0.005712154 0.01470042
vn 0.005711738 0.9999837 1.051611E-07
vn -0.2468525 0.9690459 0.003711295
vn -0.2408742 0.9671656 -0.08105735
vn 0.05731002 0.997908 -0.02992136
vn -0.9499011 0.005426783 -0.3125032
vn -0.7466025 0.004264593 -0.6652568
vn -0.1881283 0.9668688 -0.1725471
vn -0.1110273 0.9664286 -0.2317083
vn -0.4493437 0.002565661 -0.8933553
vn -0.05752881 0.0003284096 -0.9983438
vn -0.009402512 0.9658484 -0.2589369
vn 0.08694445 0.9652976 -0.2462542
vn 0.3139525 -0.001793246 -0.949437
vn 0.6678806 -0.003815357 -0.7442588
vn 0.1787695 0.9647624 -0.193067
vn 0.2009578 0.969891 -0.1375772
vn 0.817667 -0.004671112 -0.5756724
vn 0.8651064 -0.004934228 -0.5015641
vn 0.8854594 -0.005047932 -0.4646891
vn 0.05863107 0.9978932 -0.02777765
vn 0.1601772 0.986465 -0.03507424
vn 0.9751832 -0.005553364 -0.2213296
vn 0.09558377 0.9954214 0
vn 0.00571109 0.9999837 0
vn 0.9999838 -0.005694543 0
vn 0.1564317 -0.0008934335 -0.9876884
vn 0.3090119 -0.001764939 -0.9510565
vn 0.1564318 -0.0008934335 -0.9876884
vn 0.3090121 -0.00176494 -0.9510565
vn 0.5877761 -0.003357284 -0.8090166
vn 0.5877761 -0.003357284 -0.8090166
vn 0.8090039 -0.004620967 -0.5877851
vn 0.8090039 -0.004620967 -0.5877851
vn 0.9510408 -0.00543227 -0.3090174
vn 0.9510408 -0.00543227 -0.3090175
vn 0.9999837 -0.005711867 0
vn 0.9999837 -0.005711868 0
vn 0.9510408 -0.005432334 0.3090174
vn 0.9510408 -0.005432334 0.3090175
vn 0.8090039 -0.004620878 0.5877851
vn 0.8090039 -0.004620878 0.5877851
vn 0.5877762 -0.003357105 0.8090166
vn 0.5877762 -0.003357106 0.8090166
vn 0.3090124 -0.00176502 0.9510564
vn 0.3090124 -0.00176502 0.9510564
vn 0 -1.01252E-07 1
vn 0 -1.011576E-07 1
vn -0.309012 0.00176502 0.9510565
vn -0.3090121 0.00176502 0.9510565
vn -0.5877753 0.003357204 0.8090173
vn -0.5877753 0.003357205 0.8090173
vn -0.8090038 0.004620627 0.5877852
vn -0.8090038 0.004620626 0.5877852
vn -0.9510412 0.005431842 0.3090164
vn -0.9510412 0.005431842 0.3090165
vn -0.9999837 0.005711394 0
vn -0.9999837 0.005711395 0
vn -0.951041 0.005431851 -0.3090167
vn -0.951041 0.00543185 -0.3090167
vn -0.8090038 0.004620658 -0.5877852
vn -0.8090038 0.004620658 -0.5877852
vn -0.5877758 0.00335717 -0.809017
vn -0.5877758 0.00335717 -0.809017
vn -0.3090113 0.001764951 -0.9510568
vn -0.3090113 0.001764951 -0.9510568
vn -0.1564299 0.000893447 -0.9876887
vn -0.1564299 0.0008934471 -0.9876887
vn -0.005712457 -0.9999837 0
vn -0.005710121 -0.9999837 0
vn -0.005711633 -0.9999837 0
vn -0.005712398 -0.9999837 1.831203E-07
vn -0.005710296 -0.9999837 2.008716E-07
vn -0.005711319 -0.9999837 0
vn -0.005711788 -0.9999837 1.195885E-07
vn -0.005711797 -0.9999837 1.924632E-07
vn -0.005712507 -0.9999837 6.203656E-07
vn -0.005711558 -0.9999837 0
vn -0.005712031 -0.9999837 3.842256E-07
vn -0.005711558 -0.9999837 -1.924632E-07
vn -0.005711553 -0.9999837 0
vn -0.005711082 -0.9999837 0
vn -0.005712031 -0.9999837 -3.837581E-07
vn -0.005712157 -0.9999837 -1.812516E-07
vn -0.00571251 -0.9999837 -6.198991E-07
vn -0.005712154 -0.9999837 0
vn -0.005711672 -0.9999837 -1.195885E-07
vn -0.005710777 -0.9999837 0
vn -0.005710893 -0.9999837 -2.008715E-07
vn 0.005710839 0.9999837 0
vn 0.005711079 0.9999837 -1.588288E-07
vn 0.005711639 0.9999837 0
vn 0.005711912 0.9999837 0
vn 0.005711796 0.9999837 1.121144E-07
vn 0.005712865 0.9999837 -1.728428E-07
vn 0.005712035 0.9999837 0
vn 0.005712267 0.9999837 3.176571E-07
vn 0.005711318 0.9999837 0
vn 0.005711792 0.9999837 7.738226E-07
vn 0.005711318 0.9999837 0
vn 0.005711554 0.9999837 0
vn 0.005711077 0.9999837 0
vn 0.005712271 0.9999837 3.814223E-07
vn 0.005712513 0.9999837 0
vn 0.005711075 0.9999837 1.228586E-07
vn 0.005712037 0.9999837 -4.746178E-07
vn 0.005711673 0.9999837 -5.418861E-07
vn 0.00571006 0.9999837 -2.036744E-07
vn 0.005712571 0.9999837 0
vn 0.005710716 0.9999837 0
vn 0.02701901 0.9995255 0.0147892
vn 0.7398943 -0.004230286 0.6727099
vn 0.7649292 -0.004375997 0.6440995
vn 0.8743069 -0.005001022 0.4853478
vn 0.02985779 0.9994929 0.01106488
vn -0.02092655 0.9988619 -0.04285969
vn 0.9091028 -0.004583642 0.4165467
vn 0.02323547 0.9996031 0.01593358
vn 0.5983124 -0.003416482 0.8012556
vn 0.01874728 0.9996718 0.01745915
vn 0.7070918 -0.004040663 0.7071102
vn -0.03638666 0.9984676 -0.04169455
vn -0.06816287 0.9949732 -0.07336392
vn -0.7104201 0.004066063 -0.7037662
vn -0.6368557 0.003646984 -0.7709744
vn -0.4088976 0.002335637 -0.9125772
vn -0.3435164 0.001961719 -0.9391446
vn -0.7093982 0.004058572 -0.7047963
vn -0.01211186 0.9987398 -0.04870643
vn -0.3105269 0.001772647 -0.9505629
vn -0.04753985 0.985521 -0.1627525
vn -0.6193936 0.003537133 -0.7850726
vn 0.005318133 0.9560476 -0.2931634
vn -0.0004701971 4.764047E-06 -0.9999999
vn 0.2126529 0.9548634 -0.2073994
vn 0.7067627 -0.004035535 -0.7074392
vn 0.2501212 0.9676362 -0.03345648
vn 0.9907581 -0.005656662 -0.1355229
vn 0.9968162 -0.005687874 -0.07953013
vn 0.1831038 0.9829916 -0.01415999
vn 0.1132824 0.9925975 -0.0437863
vn 0.9262404 -0.005282677 -0.3768964
vn 0.3051829 0.9086715 -0.2849201
vn 0.725051 -0.004140808 -0.6886827
vn 0.3426319 0.8875194 -0.3080791
vn 0.738615 -0.004218366 -0.6741143
vn 0.4775269 0.8785183 0.01317896
vn 0.999595 -0.005709951 0.02788198
vn 0.3288929 0.8871158 0.3238134
vn -0.2218427 0.9316084 -0.2879091
vn -0.9402 0.005369512 -0.3405807
vn -0.3544642 0.9259456 -0.1303073
vn -0.9402 0.005366901 0.3405807
vn -0.1571452 0.9858139 0.0589612
vn -0.6193936 0.003534616 0.7850726
vn -0.3279767 0.845287 0.421807
vn -0.2606742 0.001488727 0.9654257
vn -0.1127805 0.8925837 0.4365489
vn -0.2076187 0.001186526 0.9782091
vn -0.01951896 0.9927433 0.1186588
vn -0.7206826 0.004115547 0.693253
vn 0.001404559 0.9999905 0.004141948
vn -0.9821699 0.00560932 0.1879117
vn 0.0005740367 0.9999994 0.0009821868
vn -0.9999837 0.005711439 0
vn 0.02160907 0.1067806 0.9940478
vn 0.9392118 -0.005238614 0.3432983
vn 0.9392105 -0.005488693 0.3432982
vn -0.008725381 0.08837831 0.9960487
vn -0.9999837 0.005711799 0
vn 0.02038794 -0.1070206 0.9940478
vn -0.009734382 -0.08827317 0.9960487
vn -0.9821694 0.005617077 0.1879136
vn -0.01084893 -0.9999406 0.0009836431
vn -0.720692 0.004118151 0.6932431
vn 0.01843969 -0.9997688 0.01106486
vn 0.9090967 -0.005797357 0.4165447
vn -0.01001817 -0.9999412 0.004143544
vn -0.2076113 0.001186532 0.9782107
vn 0.01641258 -0.9997455 0.01547337
vn 0.8194291 -0.004683325 0.5731614
vn -0.03084802 -0.9924555 0.1186607
vn -0.2606701 0.001495017 0.9654268
vn -0.02351927 -0.9985362 -0.04870591
vn 0.01190628 -0.999801 0.01601016
vn 0.7400244 -0.004231776 0.6725667
vn 0.007328726 -0.9998208 0.01745963
vn 0.5983238 -0.00341638 0.8012472
vn -0.1229645 -0.8912396 0.4365453
vn -0.6193867 0.00354469 0.785078
vn -0.3376052 -0.8414878 0.4218067
vn -0.9402016 0.005377508 0.3405758
vn -0.1683913 -0.9839552 0.05896209
vn -0.9402023 0.005377482 -0.3405741
vn -0.03362158 -0.9984471 -0.04441763
vn -0.07952148 -0.9941298 -0.07336445
vn -0.04786745 -0.9979792 -0.04178825
vn -0.7093963 0.004049972 -0.7047981
vn -0.7102771 0.004062144 -0.7039104
vn -0.5321527 0.003045932 -0.846643
vn -0.343515 0.001961697 -0.9391451
vn -0.0004828187 0 -0.9999999
vn -0.05879451 -0.9849135 -0.1627534
vn -0.3105247 0.001774443 -0.9505637
vn -0.2324667 -0.9290125 -0.2879148
vn -0.6193898 0.003544679 -0.7850756
vn -0.365022 -0.9218341 -0.1303105
vn -0.005598404 -0.956046 -0.2931632
vn 0.7067544 -0.004035447 -0.7074474
vn 0.201741 -0.9572285 -0.2073986
vn 0.9907582 -0.005664201 -0.1355214
vn 0.2390675 -0.9704264 -0.03345596
vn 0.9968165 -0.005702196 -0.07952674
vn 0.1718654 -0.9850187 -0.0141598
vn 0.9262416 -0.005291793 -0.3768932
vn 0.101936 -0.9938268 -0.04378732
vn 0.7250505 -0.004135479 -0.6886833
vn 0.2947686 -0.9121007 -0.2849277
vn 0.7386162 -0.004222181 -0.6741129
vn 0.3324792 -0.8913723 -0.3080799
vn 0.9995951 -0.005713767 0.02787643
vn 0.3187302 -0.8908163 0.3238167
vn 0.7070972 -0.004036514 0.7071048
vn 0.4674587 -0.8839168 0.01317698
vn 0.8227169 0.3138589 0.473951
vn 0.8660121 -0.004946329 0.4999985
vn 7.834403E-07 0 1
vn 0.8227165 0.3138595 -0.4739513
vn 0.8660123 -0.00494611 -0.4999982
vn 0.001819556 0.3185482 0.9479049
vn -0.8660099 0.004946298 0.5000023
vn 0.001820415 0.3185479 -0.9479049
vn 1.820973E-06 1.546702E-07 -1
vn 0.005711281 0.9999837 0
vn -0.8190761 0.3232364 0.4739543
vn -0.8660107 0.00494626 -0.5000011
vn -0.8190759 0.3232369 -0.473954
vn -0.822715 -0.3138596 0.4739537
vn -0.866011 0.004945175 0.5000005
vn 3.811326E-07 -3.457322E-07 1
vn -0.8227156 -0.3138595 -0.4739527
vn -0.8660116 0.004945597 -0.4999995
vn -0.001819964 -0.3185473 0.9479052
vn 0.8660113 -0.004946293 0.4999999
vn -0.001821553 -0.3185472 -0.9479052
vn 0 -1.492109E-07 -1
vn -0.005712688 -0.9999837 -8.8088E-07
vn 0.8190774 -0.3232361 0.4739523
vn 0.8660113 -0.004946516 -0.5
vn 0.8190771 -0.3232362 -0.4739525
usemtl Mat_Tool_Cabinet
f 1/1/1 3/3/3 2/2/2 
f 1/1/1 2/2/2 4/4/4 
f 4/4/4 2/2/2 5/5/5 
f 1/1/1 4/4/4 6/6/6 
f 7/7/7 1/1/1 6/6/6 
f 4/4/4 5/5/5 8/8/8 
f 8/8/8 5/5/5 9/9/9 
f 4/4/4 8/8/8 10/10/10 
f 8/8/8 9/9/9 10/10/10 
f 4/4/4 10/10/10 6/6/6 
f 10/10/10 9/9/9 11/11/11 
f 10/10/10 11/11/11 6/6/6 
f 6/6/6 11/11/11 12/12/12 
f 13/13/13 1/1/1 7/7/7 
f 13/13/13 14/14/14 1/1/1 
f 13/13/13 15/15/15 14/14/14 
f 13/13/13 7/7/7 16/16/16 
f 16/16/16 7/7/7 17/17/17 
f 7/7/7 6/6/6 18/18/18 
f 6/6/6 19/19/19 18/18/18 
f 7/7/7 20/20/20 17/17/17 
f 6/6/6 12/12/12 21/21/21 
f 6/6/6 21/21/21 19/19/19 
f 21/21/21 12/12/12 22/22/22 
f 21/21/21 22/22/22 19/19/19 
f 23/23/23 17/17/17 20/20/20 
f 24/24/24 23/23/23 20/20/20 
f 24/24/24 25/25/25 23/23/23 
f 23/23/23 25/25/25 26/26/26 
f 17/17/17 26/26/26 27/27/27 
f 23/23/23 26/26/26 28/28/28 
f 23/23/23 28/28/28 17/17/17 
f 17/17/17 28/28/28 26/26/26 
f 16/16/16 17/17/17 29/29/29 
f 16/16/16 29/29/29 30/30/30 
f 16/16/16 30/30/30 31/31/31 
f 32/32/32 29/29/29 17/17/17 
f 32/32/32 33/33/33 29/29/29 
f 30/30/30 34/34/34 31/31/31 
f 34/34/34 35/35/35 31/31/31 
f 34/34/34 36/36/36 35/35/35 
f 37/37/37 36/36/36 34/34/34 
f 30/30/30 37/37/37 34/34/34 
f 37/37/37 38/38/38 36/36/36 
f 39/39/39 38/38/38 37/37/37 
f 30/30/30 39/39/39 37/37/37 
f 39/39/39 40/40/40 38/38/38 
f 30/30/30 40/40/40 39/39/39 
f 30/30/30 41/41/41 40/40/40 
f 42/42/42 41/41/41 30/30/30 
f 29/29/29 42/42/42 30/30/30 
f 42/42/42 43/43/43 41/41/41 
f 29/29/29 44/44/44 42/42/42 
f 44/44/44 43/43/43 42/42/42 
f 29/29/29 45/45/45 44/44/44 
f 44/44/44 45/45/45 43/43/43 
f 46/46/46 48/48/48 47/47/47 
f 46/46/46 49/49/49 48/48/48 
f 50/50/50 49/49/49 46/46/46 
f 50/50/50 46/46/46 51/51/51 
f 52/52/52 50/50/50 51/51/51 
f 52/52/52 53/53/53 50/50/50 
f 54/54/54 48/48/48 49/49/49 
f 54/54/54 49/49/49 55/55/55 
f 56/56/56 55/55/55 49/49/49 
f 57/57/57 48/48/48 54/54/54 
f 57/57/57 54/54/54 58/58/58 
f 57/57/57 59/59/59 48/48/48 
f 59/59/59 60/60/60 48/48/48 
f 58/58/58 61/61/61 57/57/57 
f 58/58/58 62/62/62 61/61/61 
f 56/56/56 49/49/49 63/63/63 
f 56/56/56 63/63/63 64/64/64 
f 56/56/56 64/64/64 65/65/65 
f 49/49/49 66/66/66 63/63/63 
f 49/49/49 67/67/67 66/66/66 
f 68/68/68 70/70/70 69/69/69 
f 68/68/68 69/69/69 71/71/71 
f 71/71/71 69/69/69 72/72/72 
f 68/68/68 71/71/71 73/73/73 
f 68/68/68 73/73/73 74/74/74 
f 71/71/71 72/72/72 75/75/75 
f 75/75/75 72/72/72 76/76/76 
f 71/71/71 75/75/75 77/77/77 
f 75/75/75 76/76/76 77/77/77 
f 71/71/71 77/77/77 73/73/73 
f 77/77/77 76/76/76 78/78/78 
f 77/77/77 78/78/78 73/73/73 
f 73/73/73 78/78/78 79/79/79 
f 73/73/73 79/79/79 74/74/74 
f 74/74/74 79/79/79 80/80/80 
f 74/74/74 80/80/80 81/81/81 
f 68/68/68 74/74/74 81/81/81 
f 81/81/81 80/80/80 82/82/82 
f 81/81/81 82/82/82 83/83/83 
f 68/68/68 81/81/81 83/83/83 
f 83/83/83 82/82/82 84/84/84 
f 83/83/83 84/84/84 85/85/85 
f 68/68/68 83/83/83 85/85/85 
f 85/85/85 84/84/84 86/86/86 
f 85/85/85 86/86/86 87/87/87 
f 87/87/87 86/86/86 88/88/88 
f 87/87/87 88/88/88 89/89/89 
f 85/85/85 87/87/87 89/89/89 
f 89/89/89 88/88/88 90/90/90 
f 85/85/85 89/89/89 90/90/90 
f 68/68/68 85/85/85 90/90/90 
f 90/90/90 91/91/91 68/68/68 
f 68/68/68 91/91/91 92/92/92 
f 68/68/68 92/92/92 93/93/93 
f 90/90/90 94/94/94 91/91/91 
f 94/94/94 95/95/95 91/91/91 
f 96/96/96 94/94/94 90/90/90 
f 96/96/96 90/90/90 97/97/97 
f 96/96/96 98/98/98 94/94/94 
f 96/96/96 99/99/99 98/98/98 
f 99/99/99 100/100/100 98/98/98 
f 99/99/99 101/101/101 100/100/100 
f 101/101/101 102/102/102 100/100/100 
f 101/101/101 103/103/103 102/102/102 
f 103/103/103 104/104/104 102/102/102 
f 100/100/100 102/102/102 104/104/104 
f 103/103/103 105/105/105 104/104/104 
f 100/100/100 104/104/104 106/106/106 
f 106/106/106 104/104/104 105/105/105 
f 98/98/98 100/100/100 106/106/106 
f 106/106/106 105/105/105 107/107/107 
f 98/98/98 106/106/106 108/108/108 
f 108/108/108 106/106/106 107/107/107 
f 94/94/94 98/98/98 108/108/108 
f 108/108/108 107/107/107 109/109/109 
f 94/94/94 108/108/108 110/110/110 
f 110/110/110 108/108/108 109/109/109 
f 110/110/110 109/109/109 111/111/111 
f 94/94/94 110/110/110 95/95/95 
f 112/112/112 95/95/95 110/110/110 
f 112/112/112 113/113/113 95/95/95 
f 113/113/113 112/112/112 114/114/114 
f 113/113/113 114/114/114 115/115/115 
f 95/95/95 113/113/113 115/115/115 
f 115/115/115 114/114/114 116/116/116 
f 95/95/95 115/115/115 117/117/117 
f 115/115/115 116/116/116 117/117/117 
f 117/117/117 116/116/116 118/118/118 
f 91/91/91 95/95/95 117/117/117 
f 117/117/117 118/118/118 119/119/119 
f 91/91/91 117/117/117 119/119/119 
f 119/119/119 118/118/118 120/120/120 
f 119/119/119 120/120/120 121/121/121 
f 91/91/91 119/119/119 121/121/121 
f 121/121/121 120/120/120 122/122/122 
f 121/121/121 122/122/122 123/123/123 
f 91/91/91 121/121/121 123/123/123 
f 123/123/123 122/122/122 124/124/124 
f 123/123/123 124/124/124 125/125/125 
f 91/91/91 123/123/123 125/125/125 
f 125/125/125 124/124/124 126/126/126 
f 91/91/91 125/125/125 127/127/127 
f 127/127/127 128/128/128 91/91/91 
f 127/127/127 129/129/129 128/128/128 
f 130/130/130 129/129/129 127/127/127 
f 125/125/125 130/130/130 127/127/127 
f 130/130/130 131/131/131 129/129/129 
f 132/132/132 126/126/126 131/131/131 
f 125/125/125 126/126/126 132/132/132 
f 125/125/125 132/132/132 130/130/130 
f 132/132/132 131/131/131 130/130/130 
f 133/133/133 135/135/135 134/134/134 
f 133/133/133 134/134/134 136/136/136 
f 137/137/137 133/133/133 136/136/136 
f 137/137/137 136/136/136 138/138/138 
f 139/139/139 137/137/137 138/138/138 
f 139/139/139 138/138/138 140/140/140 
f 140/140/140 141/141/141 139/139/139 
f 141/141/141 140/140/140 142/142/142 
f 143/143/143 139/139/139 141/141/141 
f 143/143/143 144/144/144 139/139/139 
f 143/143/143 145/145/145 144/144/144 
f 146/146/146 143/143/143 141/141/141 
f 147/147/147 146/146/146 141/141/141 
f 148/148/148 147/147/147 141/141/141 
f 148/148/148 149/149/149 147/147/147 
f 148/148/148 150/150/150 149/149/149 
f 148/148/148 151/151/151 150/150/150 
f 141/141/141 142/142/142 152/152/152 
f 152/152/152 142/142/142 153/153/153 
f 142/142/142 154/154/154 153/153/153 
f 142/142/142 155/155/155 154/154/154 
f 152/152/152 153/153/153 156/156/156 
f 152/152/152 156/156/156 157/157/157 
f 158/158/158 152/152/152 157/157/157 
f 158/158/158 157/157/157 159/159/159 
f 158/158/158 159/159/159 160/160/160 
f 158/158/158 160/160/160 161/161/161 
f 162/162/162 164/164/164 163/163/163 
f 162/162/162 163/163/163 165/165/165 
f 162/162/162 165/165/165 166/166/166 
f 162/162/162 166/166/166 167/167/167 
f 162/162/162 167/167/167 168/168/168 
f 167/167/167 169/169/169 168/168/168 
f 169/169/169 170/170/170 168/168/168 
f 171/171/171 162/162/162 168/168/168 
f 170/170/170 172/172/172 168/168/168 
f 170/170/170 173/173/173 172/172/172 
f 171/171/171 168/168/168 174/174/174 
f 175/175/175 171/171/171 174/174/174 
f 175/175/175 176/176/176 171/171/171 
f 177/177/177 176/176/176 175/175/175 
f 178/178/178 176/176/176 177/177/177 
f 178/178/178 179/179/179 176/176/176 
f 179/179/179 178/178/178 180/180/180 
f 178/178/178 181/181/181 180/180/180 
f 181/181/181 182/182/182 180/180/180 
f 178/178/178 183/183/183 181/181/181 
f 178/178/178 184/184/184 183/183/183 
f 178/178/178 185/185/185 184/184/184 
f 186/186/186 184/184/184 185/185/185 
f 186/186/186 187/187/187 184/184/184 
f 188/188/188 187/187/187 186/186/186 
f 181/181/181 189/189/189 182/182/182 
f 188/188/188 186/186/186 190/190/190 
f 189/189/189 191/191/191 182/182/182 
f 191/191/191 192/192/192 182/182/182 
f 191/191/191 193/193/193 192/192/192 
f 189/189/189 194/194/194 191/191/191 
f 189/189/189 195/195/195 194/194/194 
f 196/196/196 188/188/188 190/190/190 
f 196/196/196 197/197/197 188/188/188 
f 198/198/198 196/196/196 190/190/190 
f 198/198/198 190/190/190 199/199/199 
f 200/200/200 198/198/198 199/199/199 
f 200/200/200 199/199/199 201/201/201 
f 196/196/196 202/202/202 197/197/197 
f 203/203/203 200/200/200 201/201/201 
f 202/202/202 204/204/204 197/197/197 
f 203/203/203 201/201/201 205/205/205 
f 202/202/202 206/206/206 204/204/204 
f 206/206/206 207/207/207 204/204/204 
f 206/206/206 208/208/208 207/207/207 
f 202/202/202 209/209/209 206/206/206 
f 202/202/202 210/210/210 209/209/209 
f 203/203/203 205/205/205 211/211/211 
f 203/203/203 211/211/211 212/212/212 
f 213/213/213 203/203/203 212/212/212 
f 213/213/213 214/214/214 203/203/203 
f 213/213/213 215/215/215 214/214/214 
f 205/205/205 216/216/216 211/211/211 
f 205/205/205 217/217/217 216/216/216 
f 205/205/205 218/218/218 217/217/217 
f 205/205/205 219/219/219 218/218/218 
f 220/220/220 222/222/222 221/221/221 
f 222/222/222 223/223/223 221/221/221 
f 222/222/222 224/224/224 223/223/223 
f 225/225/225 223/223/223 224/224/224 
f 226/226/226 224/224/224 222/222/222 
f 222/222/222 227/227/227 226/226/226 
f 228/228/228 226/226/226 227/227/227 
f 228/228/228 229/229/229 226/226/226 
f 228/228/228 230/230/230 229/229/229 
f 230/230/230 231/231/231 229/229/229 
f 229/229/229 231/231/231 232/232/232 
f 229/229/229 232/232/232 233/233/233 
f 229/229/229 233/233/233 234/234/234 
f 229/229/229 234/234/234 235/235/235 
f 229/229/229 235/235/235 236/236/236 
f 229/229/229 236/236/236 237/237/237 
f 229/229/229 237/237/237 238/238/238 
f 239/239/239 229/229/229 238/238/238 
f 226/226/226 229/229/229 239/239/239 
f 226/226/226 239/239/239 240/240/240 
f 240/240/240 241/241/241 226/226/226 
f 226/226/226 241/241/241 242/242/242 
f 224/224/224 226/226/226 242/242/242 
f 224/224/224 242/242/242 243/243/243 
f 224/224/224 243/243/243 244/244/244 
f 245/245/245 244/244/244 243/243/243 
f 243/243/243 246/246/246 245/245/245 
f 243/243/243 247/247/247 246/246/246 
f 246/246/246 247/247/247 248/248/248 
f 247/247/247 249/249/249 248/248/248 
f 247/247/247 250/250/250 249/249/249 
f 247/247/247 251/251/251 250/250/250 
f 247/247/247 252/252/252 251/251/251 
f 247/247/247 253/253/253 252/252/252 
f 247/247/247 254/254/254 253/253/253 
f 247/247/247 255/255/255 254/254/254 
f 256/256/256 255/255/255 247/247/247 
f 243/243/243 256/256/256 247/247/247 
f 243/243/243 257/257/257 256/256/256 
f 257/257/257 243/243/243 258/258/258 
f 243/243/243 259/259/259 258/258/258 
f 243/243/243 242/242/242 259/259/259 
f 260/260/260 259/259/259 242/242/242 
f 260/260/260 242/242/242 261/261/261 
f 260/260/260 262/262/262 259/259/259 
f 262/262/262 263/263/263 259/259/259 
f 264/264/264 266/266/266 265/265/265 
f 264/264/264 267/267/267 266/266/266 
f 268/268/268 267/267/267 264/264/264 
f 269/269/269 268/268/268 264/264/264 
f 270/270/270 269/269/269 264/264/264 
f 270/270/270 264/264/264 271/271/271 
f 272/272/272 270/270/270 271/271/271 
f 272/272/272 271/271/271 273/273/273 
f 272/272/272 273/273/273 274/274/274 
f 272/272/272 274/274/274 275/275/275 
f 276/276/276 266/266/266 267/267/267 
f 276/276/276 267/267/267 268/268/268 
f 276/276/276 277/277/277 266/266/266 
f 276/276/276 278/278/278 277/277/277 
f 276/276/276 279/279/279 278/278/278 
f 268/268/268 279/279/279 276/276/276 
f 278/278/278 279/279/279 280/280/280 
f 278/278/278 280/280/280 281/281/281 
f 280/280/280 282/282/282 281/281/281 
f 279/279/279 283/283/283 280/280/280 
f 268/268/268 283/283/283 279/279/279 
f 283/283/283 284/284/284 280/280/280 
f 280/280/280 284/284/284 282/282/282 
f 283/283/283 285/285/285 284/284/284 
f 282/282/282 284/284/284 285/285/285 
f 286/286/286 283/283/283 268/268/268 
f 282/282/282 285/285/285 287/287/287 
f 285/285/285 288/288/288 287/287/287 
f 285/285/285 289/289/289 288/288/288 
f 283/283/283 289/289/289 285/285/285 
f 288/288/288 289/289/289 290/290/290 
f 283/283/283 290/290/290 289/289/289 
f 288/288/288 290/290/290 291/291/291 
f 290/290/290 292/292/292 291/291/291 
f 290/290/290 293/293/293 292/292/292 
f 283/283/283 293/293/293 290/290/290 
f 292/292/292 293/293/293 294/294/294 
f 283/283/283 294/294/294 293/293/293 
f 292/292/292 294/294/294 295/295/295 
f 294/294/294 296/296/296 295/295/295 
f 283/283/283 297/297/297 294/294/294 
f 294/294/294 297/297/297 296/296/296 
f 298/298/298 297/297/297 283/283/283 
f 296/296/296 297/297/297 298/298/298 
f 296/296/296 298/298/298 299/299/299 
f 286/286/286 298/298/298 283/283/283 
f 300/300/300 299/299/299 298/298/298 
f 300/300/300 298/298/298 286/286/286 
f 301/301/301 300/300/300 286/286/286 
f 301/301/301 302/302/302 300/300/300 
f 303/303/303 302/302/302 301/301/301 
f 286/286/286 268/268/268 301/301/301 
f 303/303/303 301/301/301 304/304/304 
f 304/304/304 301/301/301 268/268/268 
f 268/268/268 305/305/305 304/304/304 
f 305/305/305 306/306/306 304/304/304 
f 305/305/305 307/307/307 306/306/306 
f 307/307/307 308/308/308 306/306/306 
f 307/307/307 309/309/309 308/308/308 
f 310/310/310 308/308/308 309/309/309 
f 310/310/310 311/311/311 308/308/308 
f 312/312/312 311/311/311 310/310/310 
f 311/311/311 312/312/312 313/313/313 
f 314/314/314 313/313/313 312/312/312 
f 315/315/315 311/311/311 313/313/313 
f 315/315/315 313/313/313 316/316/316 
f 314/314/314 316/316/316 313/313/313 
f 314/314/314 317/317/317 316/316/316 
f 314/314/314 318/318/318 317/317/317 
f 314/314/314 319/319/319 318/318/318 
f 312/312/312 319/319/319 314/314/314 
f 320/320/320 318/318/318 319/319/319 
f 312/312/312 321/321/321 319/319/319 
f 319/319/319 321/321/321 322/322/322 
f 320/320/320 319/319/319 322/322/322 
f 321/321/321 323/323/323 322/322/322 
f 323/323/323 320/320/320 322/322/322 
f 312/312/312 324/324/324 321/321/321 
f 323/323/323 325/325/325 320/320/320 
f 326/326/326 325/325/325 323/323/323 
f 326/326/326 323/323/323 327/327/327 
f 321/321/321 327/327/327 323/323/323 
f 328/328/328 326/326/326 327/327/327 
f 321/321/321 328/328/328 327/327/327 
f 328/328/328 329/329/329 326/326/326 
f 330/330/330 329/329/329 328/328/328 
f 330/330/330 328/328/328 331/331/331 
f 321/321/321 331/331/331 328/328/328 
f 332/332/332 330/330/330 331/331/331 
f 321/321/321 332/332/332 331/331/331 
f 332/332/332 333/333/333 330/330/330 
f 334/334/334 333/333/333 332/332/332 
f 321/321/321 335/335/335 332/332/332 
f 334/334/334 332/332/332 335/335/335 
f 321/321/321 336/336/336 335/335/335 
f 336/336/336 334/334/334 335/335/335 
f 324/324/324 336/336/336 321/321/321 
f 336/336/336 337/337/337 334/334/334 
f 338/338/338 337/337/337 336/336/336 
f 338/338/338 336/336/336 324/324/324 
f 339/339/339 338/338/338 324/324/324 
f 339/339/339 324/324/324 340/340/340 
f 312/312/312 340/340/340 324/324/324 
f 341/341/341 339/339/339 340/340/340 
f 340/340/340 312/312/312 341/341/341 
f 341/341/341 342/342/342 339/339/339 
f 312/312/312 343/343/343 341/341/341 
f 343/343/343 342/342/342 341/341/341 
f 344/344/344 343/343/343 312/312/312 
f 343/343/343 345/345/345 342/342/342 
f 346/346/346 348/348/348 347/347/347 
f 346/346/346 347/347/347 349/349/349 
f 349/349/349 347/347/347 350/350/350 
f 349/349/349 350/350/350 351/351/351 
f 351/351/351 350/350/350 352/352/352 
f 351/351/351 352/352/352 353/353/353 
f 353/353/353 352/352/352 354/354/354 
f 353/353/353 354/354/354 355/355/355 
f 355/355/355 354/354/354 356/356/356 
f 355/355/355 356/356/356 357/357/357 
f 357/357/357 356/356/356 358/358/358 
f 357/357/357 358/358/358 359/359/359 
f 359/359/359 358/358/358 360/360/360 
f 359/359/359 360/360/360 361/361/361 
f 361/361/361 360/360/360 362/362/362 
f 361/361/361 362/362/362 363/363/363 
f 363/363/363 362/362/362 364/364/364 
f 363/363/363 364/364/364 365/365/365 
f 365/365/365 364/364/364 366/366/366 
f 365/365/365 366/366/366 367/367/367 
f 367/367/367 366/366/366 368/368/368 
f 367/367/367 368/368/368 369/369/369 
f 369/369/369 368/368/368 370/370/370 
f 369/369/369 370/370/370 371/371/371 
f 371/371/371 370/370/370 372/372/372 
f 371/371/371 372/372/372 373/373/373 
f 373/373/373 372/372/372 374/374/374 
f 373/373/373 374/374/374 375/375/375 
f 375/375/375 374/374/374 376/376/376 
f 375/375/375 376/376/376 377/377/377 
f 377/377/377 376/376/376 378/378/378 
f 377/377/377 378/378/378 379/379/379 
f 379/379/379 378/378/378 380/380/380 
f 379/379/379 380/380/380 381/381/381 
f 381/381/381 380/380/380 382/382/382 
f 381/381/381 382/382/382 383/383/383 
f 383/383/383 382/382/382 384/384/384 
f 383/383/383 384/384/384 385/385/385 
f 385/385/385 384/384/384 386/386/386 
f 385/385/385 386/386/386 387/387/387 
f 388/388/388 390/390/390 389/389/389 
f 391/391/391 390/390/390 388/388/388 
f 389/389/389 390/390/390 392/392/392 
f 393/393/393 390/390/390 391/391/391 
f 392/392/392 390/390/390 394/394/394 
f 395/395/395 390/390/390 393/393/393 
f 394/394/394 390/390/390 396/396/396 
f 397/397/397 390/390/390 395/395/395 
f 396/396/396 390/390/390 398/398/398 
f 399/399/399 390/390/390 397/397/397 
f 398/398/398 390/390/390 400/400/400 
f 401/401/401 390/390/390 399/399/399 
f 400/400/400 390/390/390 402/402/402 
f 403/403/403 390/390/390 401/401/401 
f 402/402/402 390/390/390 404/404/404 
f 405/405/405 390/390/390 403/403/403 
f 404/404/404 390/390/390 406/406/406 
f 407/407/407 390/390/390 405/405/405 
f 406/406/406 390/390/390 408/408/408 
f 408/408/408 390/390/390 407/407/407 
f 409/409/409 411/411/411 410/410/410 
f 412/412/412 411/411/411 409/409/409 
f 410/410/410 411/411/411 413/413/413 
f 414/414/414 411/411/411 412/412/412 
f 413/413/413 411/411/411 415/415/415 
f 416/416/416 411/411/411 414/414/414 
f 415/415/415 411/411/411 417/417/417 
f 418/418/418 411/411/411 416/416/416 
f 417/417/417 411/411/411 419/419/419 
f 420/420/420 411/411/411 418/418/418 
f 419/419/419 411/411/411 421/421/421 
f 422/422/422 411/411/411 420/420/420 
f 421/421/421 411/411/411 423/423/423 
f 424/424/424 411/411/411 422/422/422 
f 423/423/423 411/411/411 425/425/425 
f 426/426/426 411/411/411 424/424/424 
f 425/425/425 411/411/411 427/427/427 
f 428/428/428 411/411/411 426/426/426 
f 427/427/427 411/411/411 429/429/429 
f 429/429/429 411/411/411 428/428/428 
f 430/430/430 432/432/432 431/431/431 
f 430/430/430 433/433/433 432/432/432 
f 434/434/434 433/433/433 430/430/430 
f 435/435/435 434/434/434 430/430/430 
f 434/434/434 436/436/436 433/433/433 
f 430/430/430 431/431/431 437/437/437 
f 435/435/435 430/430/430 437/437/437 
f 437/437/437 431/431/431 438/438/438 
f 437/437/437 438/438/438 439/439/439 
f 439/439/439 438/438/438 440/440/440 
f 439/439/439 441/441/441 437/437/437 
f 435/435/435 437/437/437 441/441/441 
f 439/439/439 442/442/442 441/441/441 
f 442/442/442 443/443/443 441/441/441 
f 441/441/441 443/443/443 444/444/444 
f 441/441/441 444/444/444 435/435/435 
f 444/444/444 445/445/445 435/435/435 
f 435/435/435 445/445/445 446/446/446 
f 442/442/442 447/447/447 443/443/443 
f 435/435/435 446/446/446 448/448/448 
f 448/448/448 446/446/446 449/449/449 
f 448/448/448 449/449/449 450/450/450 
f 435/435/435 448/448/448 434/434/434 
f 450/450/450 449/449/449 451/451/451 
f 452/452/452 447/447/447 442/442/442 
f 452/452/452 453/453/453 447/447/447 
f 454/454/454 453/453/453 452/452/452 
f 442/442/442 454/454/454 452/452/452 
f 454/454/454 455/455/455 453/453/453 
f 456/456/456 455/455/455 454/454/454 
f 442/442/442 456/456/456 454/454/454 
f 456/456/456 457/457/457 455/455/455 
f 458/458/458 457/457/457 456/456/456 
f 442/442/442 459/459/459 456/456/456 
f 458/458/458 456/456/456 459/459/459 
f 442/442/442 460/460/460 459/459/459 
f 460/460/460 458/458/458 459/459/459 
f 460/460/460 461/461/461 458/458/458 
f 442/442/442 439/439/439 460/460/460 
f 462/462/462 461/461/461 460/460/460 
f 439/439/439 462/462/462 460/460/460 
f 462/462/462 463/463/463 461/461/461 
f 464/464/464 463/463/463 462/462/462 
f 439/439/439 464/464/464 462/462/462 
f 464/464/464 465/465/465 463/463/463 
f 466/466/466 465/465/465 464/464/464 
f 439/439/439 466/466/466 464/464/464 
f 466/466/466 467/467/467 465/465/465 
f 439/439/439 468/468/468 466/466/466 
f 468/468/468 467/467/467 466/466/466 
f 439/439/439 440/440/440 468/468/468 
f 468/468/468 440/440/440 467/467/467 
f 450/450/450 451/451/451 469/469/469 
f 469/469/469 451/451/451 470/470/470 
f 469/469/469 470/470/470 471/471/471 
f 450/450/450 469/469/469 471/471/471 
f 471/471/471 470/470/470 472/472/472 
f 471/471/471 472/472/472 473/473/473 
f 450/450/450 471/471/471 473/473/473 
f 473/473/473 472/472/472 474/474/474 
f 473/473/473 474/474/474 475/475/475 
f 475/475/475 474/474/474 476/476/476 
f 475/475/475 476/476/476 477/477/477 
f 473/473/473 475/475/475 477/477/477 
f 477/477/477 476/476/476 478/478/478 
f 473/473/473 477/477/477 479/479/479 
f 477/477/477 478/478/478 479/479/479 
f 450/450/450 473/473/473 479/479/479 
f 479/479/479 478/478/478 480/480/480 
f 450/450/450 479/479/479 481/481/481 
f 479/479/479 480/480/480 481/481/481 
f 448/448/448 450/450/450 481/481/481 
f 481/481/481 480/480/480 482/482/482 
f 434/434/434 448/448/448 481/481/481 
f 481/481/481 482/482/482 483/483/483 
f 434/434/434 481/481/481 483/483/483 
f 483/483/483 482/482/482 484/484/484 
f 485/485/485 434/434/434 483/483/483 
f 485/485/485 436/436/436 434/434/434 
f 485/485/485 486/486/486 436/436/436 
f 485/485/485 487/487/487 486/486/486 
f 483/483/483 484/484/484 488/488/488 
f 485/485/485 483/483/483 488/488/488 
f 489/489/489 488/488/488 484/484/484 
f 485/485/485 490/490/490 487/487/487 
f 488/488/488 490/490/490 485/485/485 
f 489/489/489 491/491/491 488/488/488 
f 488/488/488 491/491/491 490/490/490 
f 491/491/491 489/489/489 492/492/492 
f 491/491/491 492/492/492 493/493/493 
f 490/490/490 491/491/491 493/493/493 
f 493/493/493 492/492/492 494/494/494 
f 495/495/495 487/487/487 490/490/490 
f 490/490/490 493/493/493 495/495/495 
f 495/495/495 496/496/496 487/487/487 
f 493/493/493 494/494/494 497/497/497 
f 495/495/495 493/493/493 497/497/497 
f 497/497/497 494/494/494 498/498/498 
f 499/499/499 496/496/496 495/495/495 
f 499/499/499 500/500/500 496/496/496 
f 497/497/497 498/498/498 501/501/501 
f 501/501/501 498/498/498 502/502/502 
f 495/495/495 497/497/497 503/503/503 
f 499/499/499 495/495/495 503/503/503 
f 504/504/504 500/500/500 499/499/499 
f 504/504/504 505/505/505 500/500/500 
f 506/506/506 505/505/505 504/504/504 
f 506/506/506 507/507/507 505/505/505 
f 501/501/501 502/502/502 508/508/508 
f 508/508/508 502/502/502 509/509/509 
f 508/508/508 509/509/509 510/510/510 
f 501/501/501 508/508/508 510/510/510 
f 510/510/510 509/509/509 511/511/511 
f 510/510/510 511/511/511 512/512/512 
f 501/501/501 510/510/510 512/512/512 
f 512/512/512 511/511/511 513/513/513 
f 499/499/499 503/503/503 514/514/514 
f 504/504/504 499/499/499 514/514/514 
f 515/515/515 506/506/506 504/504/504 
f 515/515/515 504/504/504 516/516/516 
f 504/504/504 514/514/514 516/516/516 
f 516/516/516 517/517/517 515/515/515 
f 516/516/516 518/518/518 517/517/517 
f 514/514/514 518/518/518 516/516/516 
f 514/514/514 519/519/519 518/518/518 
f 503/503/503 519/519/519 514/514/514 
f 503/503/503 520/520/520 519/519/519 
f 515/515/515 517/517/517 521/521/521 
f 522/522/522 520/520/520 503/503/503 
f 497/497/497 522/522/522 503/503/503 
f 497/497/497 501/501/501 522/522/522 
f 522/522/522 523/523/523 520/520/520 
f 501/501/501 512/512/512 522/522/522 
f 524/524/524 523/523/523 522/522/522 
f 512/512/512 524/524/524 522/522/522 
f 524/524/524 525/525/525 523/523/523 
f 512/512/512 526/526/526 524/524/524 
f 526/526/526 525/525/525 524/524/524 
f 512/512/512 513/513/513 526/526/526 
f 526/526/526 513/513/513 525/525/525 
f 515/515/515 521/521/521 527/527/527 
f 527/527/527 521/521/521 528/528/528 
f 527/527/527 528/528/528 529/529/529 
f 515/515/515 527/527/527 529/529/529 
f 529/529/529 528/528/528 530/530/530 
f 529/529/529 530/530/530 531/531/531 
f 515/515/515 529/529/529 531/531/531 
f 532/532/532 531/531/531 530/530/530 
f 532/532/532 533/533/533 531/531/531 
f 515/515/515 531/531/531 533/533/533 
f 533/533/533 532/532/532 534/534/534 
f 515/515/515 533/533/533 535/535/535 
f 533/533/533 534/534/534 535/535/535 
f 535/535/535 534/534/534 536/536/536 
f 515/515/515 535/535/535 506/506/506 
f 535/535/535 536/536/536 537/537/537 
f 535/535/535 537/537/537 506/506/506 
f 537/537/537 536/536/536 538/538/538 
f 537/537/537 538/538/538 539/539/539 
f 537/537/537 539/539/539 506/506/506 
f 539/539/539 538/538/538 540/540/540 
f 539/539/539 541/541/541 506/506/506 
f 541/541/541 507/507/507 506/506/506 
f 541/541/541 542/542/542 507/507/507 
f 539/539/539 540/540/540 543/543/543 
f 539/539/539 543/543/543 541/541/541 
f 543/543/543 542/542/542 541/541/541 
f 543/543/543 540/540/540 542/542/542 
f 544/544/544 546/546/546 545/545/545 
f 547/547/547 544/544/544 545/545/545 
f 547/547/547 545/545/545 548/548/548 
f 544/544/544 549/549/549 546/546/546 
f 549/549/549 550/550/550 546/546/546 
f 551/551/551 547/547/547 548/548/548 
f 551/551/551 548/548/548 552/552/552 
f 544/544/544 547/547/547 553/553/553 
f 549/549/549 544/544/544 553/553/553 
f 547/547/547 551/551/551 553/553/553 
f 549/549/549 554/554/554 550/550/550 
f 554/554/554 549/549/549 553/553/553 
f 554/554/554 555/555/555 550/550/550 
f 556/556/556 552/552/552 555/555/555 
f 556/556/556 551/551/551 552/552/552 
f 551/551/551 556/556/556 553/553/553 
f 554/554/554 556/556/556 555/555/555 
f 556/556/556 554/554/554 553/553/553 
f 557/557/557 559/559/559 558/558/558 
f 560/560/560 557/557/557 558/558/558 
f 560/560/560 558/558/558 561/561/561 
f 557/557/557 562/562/562 559/559/559 
f 562/562/562 563/563/563 559/559/559 
f 564/564/564 560/560/560 561/561/561 
f 564/564/564 561/561/561 565/565/565 
f 557/557/557 560/560/560 566/566/566 
f 562/562/562 557/557/557 566/566/566 
f 560/560/560 564/564/564 566/566/566 
f 562/562/562 567/567/567 563/563/563 
f 567/567/567 562/562/562 566/566/566 
f 567/567/567 568/568/568 563/563/563 
f 569/569/569 565/565/565 568/568/568 
f 569/569/569 564/564/564 565/565/565 
f 564/564/564 569/569/569 566/566/566 
f 567/567/567 569/569/569 568/568/568 
f 569/569/569 567/567/567 566/566/566 
