# exported by StudySceneExporter from mesh 'Vice_Slide_low'
mtllib materials.mtl
v 0.0372846 -0.2045151 0.001486549
v 0.03997817 -0.1433125 0.001486549
v 0.03997817 -0.1433125 -0.01427029
v 0.0372846 -0.2045151 -0.07248211
v 0.05526163 0.2039546 -0.01427029
v 0.05526163 0.2039546 -0.07248211
v -0.02766843 0.2076043 -0.07248211
v -0.04564546 -0.2008654 -0.07248211
v 0.0372846 -0.2045151 0.001486549
v -0.04564546 -0.2008654 0.001486549
v -0.04319997 -0.2042924 0.001486549
v 0.03454749 -0.2077142 0.001486549
v -0.02766843 0.2076043 -0.01427029
v 0.05526163 0.2039546 -0.01427029
v -0.04295189 -0.1396626 -0.01427029
v -0.02766843 0.2076043 -0.01427029
v -0.04564546 -0.2008654 0.001486549
v -0.04295189 -0.1396626 0.001486549
v -0.03016602 0.2077142 0.003986549
v -0.03016602 0.2077142 -0.01427029
v 0.05775921 0.2038446 0.003986549
v 0.05775921 0.2038446 -0.01427029
v 0.07099913 -0.126418 0.04254268
v -0.07536581 -0.1199764 0.03954258
v -0.0723687 -0.1201083 0.04254268
v 0.07399623 -0.1265501 0.03954258
v -0.07419377 -0.09334572 0.03954258
v 0.07516827 -0.0999192 0.03954258
v -0.07419378 -0.09334579 0.05184879
v 0.07516827 -0.09991928 0.05184879
v -0.07399624 -0.08885727 0.05184879
v 0.07536581 -0.09543075 0.05184879
v -0.07399624 -0.08885727 0.07248211
v -0.07419378 -0.09334579 0.05184879
v 0.07536581 -0.09543075 0.07248211
v 0.07516827 -0.09991928 0.05184879
v -0.0746438 -0.1035712 0.07248211
v -0.0746438 -0.1035712 0.06948254
v -0.0746438 -0.1035712 0.07248211
v -0.07536581 -0.1199764 0.03954258
v -0.07419377 -0.09334572 0.03954258
v -0.07536581 -0.1199765 0.06948254
v -0.07423315 -0.1200263 0.05435741
v -0.0723687 -0.1201083 0.04254268
v -0.0667771 -0.1203545 0.06648204
v 0.07471824 -0.1101448 0.07248211
v -0.0746438 -0.1035712 0.06948254
v 0.07471824 -0.1101448 0.06948254
v -0.07536581 -0.1199765 0.06948254
v 0.07399623 -0.1265501 0.06948254
v -0.0667771 -0.1203545 0.06648204
v 0.06540752 -0.126172 0.06648204
v 0.07471824 -0.1101448 0.06948254
v 0.07471824 -0.1101448 0.07248211
v 0.07399623 -0.1265501 0.03954258
v 0.07516827 -0.0999192 0.03954258
v 0.07399623 -0.1265501 0.06948254
v 0.07286356 -0.1265002 0.05435741
v 0.07099913 -0.126418 0.04254268
v 0.06540752 -0.126172 0.06648204
v 0.03997817 -0.1433125 0.001486549
v -0.04322134 -0.1457854 0.007971611
v -0.04295189 -0.1396626 0.001486549
v 0.0397087 -0.1494352 0.007971611
v 0.03957362 -0.1529095 0.01330128
v -0.043392 -0.1492581 0.01330128
v 0.04089507 -0.1545312 0.02152561
v -0.04485083 -0.1507576 0.02152561
v -0.04731947 -0.1502523 0.03046039
v 0.04339856 -0.1542448 0.03046039
v 0.04570948 -0.1525635 0.03433887
v -0.04947374 -0.1483744 0.03433887
v 0.04934114 -0.1490848 0.03837498
v -0.05278576 -0.1445902 0.03837498
v 0.05463343 -0.143546 0.04107593
v -0.057571 -0.1386078 0.04107593
v 0.06123669 -0.1369253 0.04254268
v -0.06356709 -0.1314326 0.04254268
v -0.0723687 -0.1201083 0.04254268
v 0.07099913 -0.126418 0.04254268
v -0.04295189 -0.1396626 0.001486549
v 0.04247575 -0.1434224 0.003986549
v 0.03997817 -0.1433125 0.001486549
v -0.04544947 -0.1395528 0.003986549
v 0.05775921 0.2038446 0.003986549
v -0.03016602 0.2077142 0.003986549
v 0.05775921 0.2038446 -0.01427029
v -0.03016602 0.2077142 -0.01427029
v 0.04247575 -0.1434224 -0.01427029
v 0.03997817 -0.1433125 0.001486549
v 0.03997817 -0.1433125 -0.01427029
v 0.03997817 -0.1433125 -0.01427029
v 0.05526163 0.2039546 -0.01427029
v -0.04544947 -0.1395528 -0.01427029
v -0.02766843 0.2076043 -0.01427029
v -0.04295189 -0.1396626 -0.01427029
v -0.04295189 -0.1396626 -0.01427029
v -0.04295189 -0.1396626 0.001486549
v -0.04306232 -0.203362 0.01332111
v -0.04319997 -0.2042924 0.001486549
v -0.04564546 -0.2008654 0.001486549
v -0.04558908 -0.1995846 0.01277889
v -0.04259914 -0.1997932 0.02425083
v -0.04322134 -0.1457854 0.007971611
v -0.04295189 -0.1396626 0.001486549
v -0.043392 -0.1492581 0.01330128
v -0.04548677 -0.1938109 0.02183979
v -0.04256417 -0.1892442 0.03880581
v -0.04583889 -0.1830336 0.03512394
v -0.04485083 -0.1507576 0.02152561
v -0.04347526 -0.1785359 0.04974247
v -0.04754841 -0.1736134 0.04238895
v -0.04731947 -0.1502523 0.03046039
v -0.04665316 -0.1659921 0.05763485
v -0.04947374 -0.1483744 0.03433887
v -0.05111968 -0.1613306 0.04850185
v -0.0498658 -0.1541096 0.0623563
v -0.05278576 -0.1445902 0.03837498
v -0.05497114 -0.1509767 0.05175213
v -0.05502422 -0.1408437 0.06543338
v -0.06017151 -0.1395728 0.05339786
v -0.057571 -0.1386078 0.04107593
v -0.05964439 -0.1312368 0.06648204
v -0.06356709 -0.1314326 0.04254268
v -0.06545033 -0.131008 0.05444859
v -0.0667771 -0.1203545 0.06648204
v -0.0723687 -0.1201083 0.04254268
v -0.07423315 -0.1200263 0.05435741
v 0.05734636 -0.1363856 0.06648204
v 0.06540752 -0.126172 0.06648204
v 0.07286356 -0.1265002 0.05435741
v 0.06314996 -0.1366678 0.05444859
v 0.07099913 -0.126418 0.04254268
v 0.06123669 -0.1369253 0.04254268
v 0.05190007 -0.1455494 0.06543338
v 0.05463343 -0.143546 0.04107593
v 0.05713911 -0.1447357 0.05339786
v 0.04559617 -0.158311 0.0623563
v 0.04934114 -0.1490848 0.03837498
v 0.05095701 -0.1556387 0.05175213
v 0.04135207 -0.1698653 0.05763485
v 0.04570948 -0.1525635 0.03433887
v 0.04621083 -0.1656142 0.04850185
v 0.03708447 -0.1820814 0.04974247
v 0.04339856 -0.1542448 0.03046039
v 0.04157255 -0.1776118 0.04244114
v 0.03523615 -0.1926683 0.03880581
v 0.03904382 -0.1867694 0.03512394
v 0.04089507 -0.1545312 0.02152561
v 0.03434426 -0.2031795 0.02425083
v 0.03957362 -0.1529095 0.01330128
v 0.03774782 -0.1974367 0.0218317
v 0.03449069 -0.2067752 0.01332111
v 0.03734102 -0.2032329 0.01277859
v 0.03454749 -0.2077142 0.001486549
v 0.0397087 -0.1494352 0.007971611
v 0.0372846 -0.2045151 0.001486549
v 0.03997817 -0.1433125 0.001486549
v -0.04306232 -0.203362 0.01332111
v 0.03454749 -0.2077142 0.001486549
v -0.04319997 -0.2042924 0.001486549
v 0.03449069 -0.2067752 0.01332111
v -0.04259914 -0.1997932 0.02425083
v 0.03434426 -0.2031795 0.02425083
v -0.04256417 -0.1892442 0.03880581
v 0.03523615 -0.1926683 0.03880581
v 0.03708447 -0.1820814 0.04974247
v -0.04347526 -0.1785359 0.04974247
v -0.04665316 -0.1659921 0.05763485
v 0.04135207 -0.1698653 0.05763485
v -0.0498658 -0.1541096 0.0623563
v 0.04559617 -0.158311 0.0623563
v -0.05502422 -0.1408437 0.06543338
v 0.05190007 -0.1455494 0.06543338
v -0.05964439 -0.1312368 0.06648204
v 0.05734636 -0.1363856 0.06648204
v 0.06540752 -0.126172 0.06648204
v -0.0667771 -0.1203545 0.06648204
vt 0.4133439 0.2323619
vt 0.4133312 0.3068326
vt 0.4324854 0.3068359
vt 0.503261 0.2323772
vt 0.4324136 0.7293866
vt 0.5031766 0.7293985
vt 0.604085 0.7294157
vt 0.6041694 0.2323944
vt 0.5032763 0.14246
vt 0.6041846 0.1424772
vt 0.6010323 0.1384453
vt 0.5064301 0.1384293
vt 0.6040729 0.8001786
vt 0.5031645 0.8001615
vt 0.6749197 0.3068771
vt 0.674848 0.7294277
vt 0.6940867 0.2324097
vt 0.694074 0.3068804
vt 0.6071082 0.8223725
vt 0.607112 0.8001792
vt 0.5001218 0.8223542
vt 0.5001255 0.800161
vt 0.7401711 0.5773092
vt 0.9182667 0.5809417
vt 0.9146196 0.5772949
vt 0.7365246 0.5809564
vt 0.9182693 0.6133456
vt 0.7365273 0.6133604
vt 0.9182706 0.6283051
vt 0.7365286 0.62832
vt 0.918271 0.6337668
vt 0.736529 0.6337816
vt 0.9182731 0.6588488
vt 0.9237326 0.6337664
vt 0.736531 0.6588637
vt 0.7310674 0.633782
vt 0.9361768 0.6588474
vt 0.9361766 0.6552011
vt 0.9182745 0.6767527
vt 0.9561353 0.6188041
vt 0.9237313 0.6188067
vt 0.9561383 0.6551995
vt 0.9575149 0.636813
vt 0.9597824 0.6224507
vt 0.9665887 0.6515511
vt 0.7365324 0.6767675
vt 0.9182748 0.680399
vt 0.7365327 0.6804138
vt 0.9182764 0.7003607
vt 0.7365344 0.7003756
vt 0.9078261 0.7040089
vt 0.7469853 0.7040222
vt 0.7186269 0.6552188
vt 0.7186272 0.6588651
vt 0.6986622 0.6188251
vt 0.7310662 0.6188224
vt 0.6986651 0.6552204
vt 0.6972855 0.6368343
vt 0.6950157 0.6224723
vt 0.6882142 0.6515738
vt 0.05043942 0.8943464
vt 0.1513482 0.90519
vt 0.1513478 0.8943434
vt 0.05043977 0.905193
vt 0.05041844 0.9129286
vt 0.15137 0.9129255
vt 0.04872715 0.923105
vt 0.1530619 0.9231018
vt 0.1560872 0.9339736
vt 0.04570252 0.933977
vt 0.04298609 0.9391654
vt 0.1588039 0.9391618
vt 0.03876179 0.9457682
vt 0.1630287 0.9457644
vt 0.03263086 0.9535087
vt 0.1691601 0.9535046
vt 0.02496576 0.9620897
vt 0.1768256 0.9620851
vt 0.1881204 0.9753668
vt 0.01367188 0.9753721
vt 0.3905276 0.7945824
vt 0.2865803 0.7915413
vt 0.2896192 0.7945803
vt 0.3935667 0.7915433
vt 0.2865888 0.3689906
vt 0.3935751 0.3689927
vt 0.2643954 0.3689902
vt 0.4157684 0.3689932
vt 0.2643872 0.791541
vt 0.2835412 0.7945802
vt 0.2643869 0.7945799
vt 0.2613481 0.7915406
vt 0.2613565 0.3689902
vt 0.4157599 0.7915438
vt 0.4188074 0.3689932
vt 0.4187989 0.791544
vt 0.4157598 0.7945828
vt 0.3966056 0.7945825
vt 0.3903533 0.1592547
vt 0.3917143 0.1448247
vt 0.3865909 0.1445934
vt 0.3848893 0.158302
vt 0.3859843 0.1725693
vt 0.3196442 0.1524858
vt 0.3122088 0.1446016
vt 0.3238707 0.1589671
vt 0.3780019 0.1693415
vt 0.3734655 0.1903493
vt 0.3650272 0.1856271
vt 0.3257165 0.1690989
vt 0.3610314 0.2039191
vt 0.3534958 0.1947507
vt 0.3250127 0.1803033
vt 0.3459352 0.214037
vt 0.3224429 0.1855003
vt 0.3381033 0.2029099
vt 0.3317358 0.2208632
vt 0.3171902 0.1911891
vt 0.3247802 0.207781
vt 0.3151248 0.2261132
vt 0.3095386 0.2111171
vt 0.3086079 0.1957847
vt 0.3025799 0.2287471
vt 0.2977138 0.1988047
vt 0.2972696 0.2134302
vt 0.2869877 0.2302126
vt 0.2804583 0.2001298
vt 0.2801114 0.2145306
vt 0.3153476 0.3032256
vt 0.3138855 0.3188181
vt 0.329569 0.325691
vt 0.3306657 0.3085326
vt 0.3439696 0.325341
vt 0.345291 0.3080852
vt 0.3179787 0.2906802
vt 0.3483086 0.2971906
vt 0.3329761 0.296263
vt 0.3232248 0.2740682
vt 0.3529026 0.2886077
vt 0.336309 0.2810204
vt 0.3300455 0.2598669
vt 0.3585905 0.2833543
vt 0.341177 0.2676955
vt 0.3401569 0.2447641
vt 0.3637874 0.2807841
vt 0.3492739 0.2522141
vt 0.3537324 0.2323323
vt 0.3584545 0.2407706
vt 0.3749927 0.2800776
vt 0.3715104 0.2198126
vt 0.3851248 0.2819206
vt 0.3747468 0.2278363
vt 0.3848214 0.2154381
vt 0.3857761 0.2209041
vt 0.3992511 0.2140742
vt 0.391607 0.2861456
vt 0.3994838 0.2191976
vt 0.3994928 0.2935793
vt 0.4784585 0.850309
vt 0.5729424 0.8358726
vt 0.4783402 0.8358779
vt 0.572824 0.8503037
vt 0.478831 0.864292
vt 0.5724548 0.8642868
vt 0.4783108 0.8861374
vt 0.5729774 0.8861321
vt 0.5746572 0.9046956
vt 0.4766331 0.9047011
vt 0.4721043 0.9225609
vt 0.579188 0.9225549
vt 0.4675685 0.9379316
vt 0.5837255 0.9379252
vt 0.4605957 0.9542028
vt 0.5907 0.9541956
vt 0.454472 0.9656941
vt 0.596825 0.9656862
vt 0.6060696 0.9785203
vt 0.4452289 0.9785293
vn 0.999033 -0.04396809 0
vn 0.999033 -0.04396809 0
vn 0.999033 -0.04396806 0
vn 0.3225964 -0.1823909 -0.9287977
vn 0.999033 -0.04396806 0
vn 0.5450867 0.09472458 -0.8330113
vn -0.5346568 0.1422446 -0.8330117
vn -0.3373723 -0.1533454 -0.9287977
vn -0.04395417 -0.9987189 -0.02507138
vn -0.04395418 -0.998719 -0.02507123
vn 0 -2.288704E-05 -1
vn 0 -2.288704E-05 -1
vn 0.04396643 0.999033 1.082992E-06
vn 0.04396687 0.999033 1.082992E-06
vn -0.999033 0.04396813 0
vn -0.999033 0.04396814 0
vn -0.999033 0.04396804 0
vn -0.999033 0.04396804 0
vn 0.04396662 0.999033 4.175391E-06
vn 0.04392867 0.9990346 0
vn 0.04396681 0.999033 4.175391E-06
vn 0.04406251 0.9990288 0
vn -0.04396887 -0.9990329 2.538132E-05
vn -0.002420941 -0.05500745 -0.998483
vn -0.04396888 -0.9990329 2.538132E-05
vn -0.00242094 -0.05500744 -0.998483
vn 0.018429 0.4187393 -0.9079195
vn 0.01842899 0.4187393 -0.9079195
vn 0.04130154 0.9384467 -0.3429459
vn 0.04130155 0.9384467 -0.342946
vn 0.02829072 0.9766994 -0.2127395
vn 0.05762191 0.9754084 -0.2127394
vn -0.003957359 0.8142351 0.5805219
vn -0.999033 0.04396818 0
vn 0.07547294 0.8107393 0.5805219
vn 0.999033 -0.04396805 0
vn -0.999033 0.04396717 8.550709E-07
vn -0.999033 0.04396778 3.183976E-07
vn -0.008774648 -0.1993712 0.9798847
vn -0.9965091 -0.08348379 -3.277816E-07
vn -0.999033 0.04396823 0
vn -0.9643253 -0.2647202 -7.906464E-07
vn -0.04395614 -0.9990335 -2.57654E-06
vn -0.04395614 -0.9990335 -2.57654E-06
vn -0.04395614 -0.9990335 -2.57654E-06
vn -0.008774655 -0.1993713 0.9798847
vn -0.007900867 -0.1795186 0.9837229
vn -0.007900864 -0.1795185 0.9837229
vn -0.001617583 -0.03675506 0.999323
vn -0.001617585 -0.03675509 0.999323
vn -0.04396805 -0.999033 -1.268803E-05
vn -0.04396805 -0.999033 -1.268803E-05
vn 0.999033 -0.04396796 0
vn 0.999033 -0.04396794 0
vn 0.9853222 -0.1707049 -3.649144E-07
vn 0.999033 -0.04396799 0
vn 0.9373413 -0.3484127 -9.06639E-07
vn -0.04397117 -0.9990329 -3.104948E-06
vn -0.04397116 -0.9990329 -3.104947E-06
vn -0.04397116 -0.9990329 -3.104948E-06
vn 0.03195509 0.7260925 0.686854
vn 0.03411759 0.7752247 0.6307636
vn 0.03195509 0.7260925 0.686854
vn 0.03411758 0.7752247 0.6307635
vn 0.0413838 0.9403085 0.3377976
vn 0.0413838 0.9403086 0.3377975
vn 0.04391451 0.9977968 0.04973146
vn 0.04391451 0.9977968 0.04973146
vn 0.04295614 0.9760251 -0.2133771
vn 0.04295612 0.9760251 -0.2133771
vn 0.03498029 0.7948379 -0.6058128
vn 0.03498029 0.7948378 -0.6058129
vn 0.02263881 0.5144083 -0.8572465
vn 0.02263881 0.5144082 -0.8572465
vn 0.01149518 0.2611955 -0.9652175
vn 0.01149519 0.2611958 -0.9652174
vn 0.001598047 0.03631801 -0.9993389
vn 0.001598042 0.03631791 -0.9993389
vn 0 8.32399E-06 -1
vn 0 8.32399E-06 -1
vn -0.04396805 -0.999033 -1.52024E-05
vn 0.2027371 -0.01302787 0.9791465
vn -0.04396806 -0.999033 -1.52024E-05
vn -0.2030978 0.004833239 0.9791465
vn 0.2029193 -0.008930395 0.9791546
vn -0.202919 0.008930871 0.9791548
vn 0.9897956 -0.0435617 -0.1356723
vn -0.9897959 0.04356151 -0.1356711
vn 0.9894825 -0.05019194 -0.1356654
vn -0.04399049 -0.9990319 0
vn -0.0439905 -0.9990319 0
vn 0 0 -1
vn 0 0 -1
vn -0.9900664 0.03692941 -0.1356643
vn 0 -1.5364E-06 -1
vn 0 -1.5364E-06 -1
vn -0.04396363 -0.9990331 0
vn -0.04396363 -0.9990331 0
vn -0.8593533 -0.489144 0.1491646
vn -0.8236295 -0.5638574 0.06082182
vn -0.9998007 -0.01891661 0.006376905
vn -0.9992884 -0.03212586 0.01976164
vn -0.899509 -0.3661907 0.2383022
vn -0.999032 0.04391922 -0.002477651
vn -0.999033 0.0439681 0
vn -0.9985693 0.03195151 -0.04287756
vn -0.9984498 -0.05308213 0.0167421
vn -0.9066891 -0.340205 0.2493499
vn -0.9948103 -0.09864516 -0.02492949
vn -0.9925647 -0.009353459 -0.1213582
vn -0.8976967 -0.3651487 0.246591
vn -0.9775497 -0.2032142 -0.05568359
vn -0.965201 -0.105742 -0.2391775
vn -0.8883455 -0.3796546 0.2582726
vn -0.9266797 -0.2113165 -0.3108215
vn -0.951949 -0.3038412 -0.03838851
vn -0.8690094 -0.3992424 0.2922811
vn -0.8860663 -0.3456499 -0.3088892
vn -0.9176945 -0.3966285 0.02286147
vn -0.8371137 -0.4438609 0.3197315
vn -0.869599 -0.4873824 0.07909422
vn -0.8470957 -0.4745699 -0.2391908
vn -0.7771157 -0.5107034 0.367795
vn -0.7969984 -0.5886608 -0.1351737
vn -0.8064383 -0.572413 0.1483257
vn -0.7433086 -0.5394285 0.3956125
vn -0.7803248 -0.6155999 -0.1101363
vn -0.7894321 -0.6002966 0.1282224
vn 0.7292407 -0.5770033 0.3677976
vn 0.6930363 -0.6026507 0.3956171
vn 0.7336372 -0.667335 0.1282207
vn 0.7530295 -0.641051 0.1483246
vn 0.7232215 -0.6817766 -0.1101421
vn 0.7422002 -0.6564038 -0.1351777
vn 0.7948837 -0.5156859 0.3197313
vn 0.8021268 -0.547156 -0.2391925
vn 0.8234192 -0.5618942 0.07909346
vn 0.8305763 -0.4740406 0.2922814
vn 0.8522773 -0.422152 -0.3088867
vn 0.8793035 -0.4757129 0.02286224
vn 0.8512474 -0.4559427 0.2597963
vn 0.9045806 -0.2918037 -0.3107807
vn 0.9217416 -0.3858767 -0.03862102
vn 0.8612108 -0.4434071 0.2484073
vn 0.9521992 -0.1900846 -0.2391333
vn 0.9558452 -0.2887253 -0.05475185
vn 0.8730415 -0.4192748 0.2490123
vn 0.9822536 -0.185817 -0.02549457
vn 0.9878906 -0.09657216 -0.1214333
vn 0.8644534 -0.4429814 0.2376716
vn 0.9975148 -0.05590264 -0.0428841
vn 0.9899548 -0.1404079 0.01658079
vn 0.8136186 -0.5618728 0.1494117
vn 0.9925884 -0.1198858 0.01989119
vn 0.7708974 -0.6340407 0.06090739
vn 0.9990277 -0.04401689 -0.00247624
vn 0.9942706 -0.1067019 0.00638799
vn 0.999033 -0.04396825 -3.476585E-07
vn -0.04314045 -0.9802105 0.1932001
vn -0.04383275 -0.9959258 0.07880698
vn -0.04383275 -0.9959258 0.07880699
vn -0.04314045 -0.9802105 0.1932004
vn -0.03845559 -0.8737828 0.4847936
vn -0.03845546 -0.87378 0.4847986
vn -0.03370989 -0.7659469 0.6420195
vn -0.03370989 -0.7659469 0.6420195
vn -0.02728436 -0.6199338 0.7841796
vn -0.02728436 -0.6199339 0.7841796
vn -0.01960968 -0.4455557 0.8950394
vn -0.01960968 -0.4455557 0.8950394
vn -0.01239622 -0.2816622 0.9594336
vn -0.01239623 -0.2816623 0.9594335
vn -0.007087026 -0.1610305 0.986924
vn -0.007087024 -0.1610304 0.986924
vn -0.001386065 -0.03149551 0.9995029
vn -0.001386063 -0.03149545 0.9995029
vn 0 -1.738313E-06 1
vn 0 -1.738313E-06 1
usemtl Mat_Vice
f 1/1/1 3/3/3 2/2/2 
f 1/1/1 4/4/4 3/3/3 
f 5/5/5 3/3/3 4/4/4 
f 5/5/5 4/4/4 6/6/6 
f 4/4/4 7/7/7 6/6/6 
f 4/4/4 8/8/8 7/7/7 
f 8/8/8 4/4/4 9/9/9 
f 8/8/8 9/9/9 10/10/10 
f 9/9/9 11/11/11 10/10/10 
f 9/9/9 12/12/12 11/11/11 
f 6/6/6 7/7/7 13/13/13 
f 6/6/6 13/13/13 14/14/14 
f 7/7/7 8/8/8 15/15/15 
f 7/7/7 15/15/15 16/16/16 
f 17/17/17 15/15/15 8/8/8 
f 17/17/17 18/18/18 15/15/15 
f 14/14/14 13/13/13 19/19/19 
f 19/19/19 13/13/13 20/20/20 
f 14/14/14 19/19/19 21/21/21 
f 14/14/14 21/21/21 22/22/22 
f 23/23/23 25/25/25 24/24/24 
f 23/23/23 24/24/24 26/26/26 
f 26/26/26 24/24/24 27/27/27 
f 26/26/26 27/27/27 28/28/28 
f 28/28/28 27/27/27 29/29/29 
f 28/28/28 29/29/29 30/30/30 
f 30/30/30 29/29/29 31/31/31 
f 30/30/30 31/31/31 32/32/32 
f 32/32/32 31/31/31 33/33/33 
f 34/34/34 33/33/33 31/31/31 
f 32/32/32 33/33/33 35/35/35 
f 36/36/36 32/32/32 35/35/35 
f 34/34/34 37/37/37 33/33/33 
f 34/34/34 38/38/38 37/37/37 
f 39/39/39 35/35/35 33/33/33 
f 34/34/34 40/40/40 38/38/38 
f 34/34/34 41/41/41 40/40/40 
f 38/38/38 40/40/40 42/42/42 
f 40/40/40 43/43/43 42/42/42 
f 43/43/43 40/40/40 44/44/44 
f 45/45/45 42/42/42 43/43/43 
f 39/39/39 46/46/46 35/35/35 
f 47/47/47 46/46/46 39/39/39 
f 47/47/47 48/48/48 46/46/46 
f 49/49/49 48/48/48 47/47/47 
f 49/49/49 50/50/50 48/48/48 
f 51/51/51 50/50/50 49/49/49 
f 51/51/51 52/52/52 50/50/50 
f 53/53/53 35/35/35 54/54/54 
f 53/53/53 36/36/36 35/35/35 
f 55/55/55 36/36/36 53/53/53 
f 55/55/55 56/56/56 36/36/36 
f 57/57/57 55/55/55 53/53/53 
f 58/58/58 55/55/55 57/57/57 
f 55/55/55 58/58/58 59/59/59 
f 57/57/57 60/60/60 58/58/58 
f 61/61/61 63/63/63 62/62/62 
f 61/61/61 62/62/62 64/64/64 
f 65/65/65 64/64/64 62/62/62 
f 65/65/65 62/62/62 66/66/66 
f 67/67/67 65/65/65 66/66/66 
f 67/67/67 66/66/66 68/68/68 
f 67/67/67 68/68/68 69/69/69 
f 67/67/67 69/69/69 70/70/70 
f 71/71/71 70/70/70 69/69/69 
f 71/71/71 69/69/69 72/72/72 
f 73/73/73 71/71/71 72/72/72 
f 73/73/73 72/72/72 74/74/74 
f 75/75/75 73/73/73 74/74/74 
f 75/75/75 74/74/74 76/76/76 
f 77/77/77 75/75/75 76/76/76 
f 77/77/77 76/76/76 78/78/78 
f 77/77/77 78/78/78 79/79/79 
f 77/77/77 79/79/79 80/80/80 
f 81/81/81 83/83/83 82/82/82 
f 81/81/81 82/82/82 84/84/84 
f 85/85/85 84/84/84 82/82/82 
f 85/85/85 86/86/86 84/84/84 
f 82/82/82 87/87/87 85/85/85 
f 88/88/88 84/84/84 86/86/86 
f 82/82/82 89/89/89 87/87/87 
f 90/90/90 89/89/89 82/82/82 
f 90/90/90 91/91/91 89/89/89 
f 92/92/92 87/87/87 89/89/89 
f 92/92/92 93/93/93 87/87/87 
f 88/88/88 94/94/94 84/84/84 
f 95/95/95 94/94/94 88/88/88 
f 95/95/95 96/96/96 94/94/94 
f 97/97/97 84/84/84 94/94/94 
f 97/97/97 98/98/98 84/84/84 
f 99/99/99 101/101/101 100/100/100 
f 99/99/99 102/102/102 101/101/101 
f 103/103/103 102/102/102 99/99/99 
f 101/101/101 102/102/102 104/104/104 
f 101/101/101 104/104/104 105/105/105 
f 106/106/106 104/104/104 102/102/102 
f 103/103/103 107/107/107 102/102/102 
f 106/106/106 102/102/102 107/107/107 
f 107/107/107 103/103/103 108/108/108 
f 106/106/106 107/107/107 109/109/109 
f 107/107/107 108/108/108 109/109/109 
f 106/106/106 109/109/109 110/110/110 
f 109/109/109 108/108/108 111/111/111 
f 112/112/112 110/110/110 109/109/109 
f 109/109/109 111/111/111 112/112/112 
f 112/112/112 113/113/113 110/110/110 
f 112/112/112 111/111/111 114/114/114 
f 112/112/112 115/115/115 113/113/113 
f 112/112/112 114/114/114 116/116/116 
f 112/112/112 116/116/116 115/115/115 
f 116/116/116 114/114/114 117/117/117 
f 116/116/116 118/118/118 115/115/115 
f 116/116/116 117/117/117 119/119/119 
f 116/116/116 119/119/119 118/118/118 
f 120/120/120 119/119/119 117/117/117 
f 118/118/118 119/119/119 121/121/121 
f 120/120/120 121/121/121 119/119/119 
f 118/118/118 121/121/121 122/122/122 
f 121/121/121 120/120/120 123/123/123 
f 124/124/124 122/122/122 121/121/121 
f 121/121/121 123/123/123 125/125/125 
f 124/124/124 121/121/121 125/125/125 
f 125/125/125 123/123/123 126/126/126 
f 125/125/125 127/127/127 124/124/124 
f 125/125/125 126/126/126 128/128/128 
f 125/125/125 128/128/128 127/127/127 
f 129/129/129 131/131/131 130/130/130 
f 129/129/129 132/132/132 131/131/131 
f 132/132/132 133/133/133 131/131/131 
f 132/132/132 134/134/134 133/133/133 
f 135/135/135 132/132/132 129/129/129 
f 136/136/136 134/134/134 132/132/132 
f 135/135/135 137/137/137 132/132/132 
f 136/136/136 132/132/132 137/137/137 
f 137/137/137 135/135/135 138/138/138 
f 137/137/137 139/139/139 136/136/136 
f 137/137/137 138/138/138 140/140/140 
f 137/137/137 140/140/140 139/139/139 
f 141/141/141 140/140/140 138/138/138 
f 140/140/140 142/142/142 139/139/139 
f 141/141/141 143/143/143 140/140/140 
f 140/140/140 143/143/143 142/142/142 
f 144/144/144 143/143/143 141/141/141 
f 143/143/143 145/145/145 142/142/142 
f 144/144/144 146/146/146 143/143/143 
f 143/143/143 146/146/146 145/145/145 
f 147/147/147 146/146/146 144/144/144 
f 148/148/148 145/145/145 146/146/146 
f 147/147/147 148/148/148 146/146/146 
f 148/148/148 149/149/149 145/145/145 
f 148/148/148 147/147/147 150/150/150 
f 148/148/148 151/151/151 149/149/149 
f 148/148/148 150/150/150 152/152/152 
f 148/148/148 152/152/152 151/151/151 
f 152/152/152 150/150/150 153/153/153 
f 151/151/151 152/152/152 154/154/154 
f 152/152/152 153/153/153 154/154/154 
f 154/154/154 153/153/153 155/155/155 
f 151/151/151 154/154/154 156/156/156 
f 154/154/154 155/155/155 157/157/157 
f 157/157/157 156/156/156 154/154/154 
f 157/157/157 158/158/158 156/156/156 
f 159/159/159 161/161/161 160/160/160 
f 159/159/159 160/160/160 162/162/162 
f 163/163/163 159/159/159 162/162/162 
f 163/163/163 162/162/162 164/164/164 
f 165/165/165 163/163/163 164/164/164 
f 165/165/165 164/164/164 166/166/166 
f 165/165/165 166/166/166 167/167/167 
f 165/165/165 167/167/167 168/168/168 
f 169/169/169 168/168/168 167/167/167 
f 169/169/169 167/167/167 170/170/170 
f 171/171/171 169/169/169 170/170/170 
f 171/171/171 170/170/170 172/172/172 
f 173/173/173 171/171/171 172/172/172 
f 173/173/173 172/172/172 174/174/174 
f 174/174/174 175/175/175 173/173/173 
f 174/174/174 176/176/176 175/175/175 
f 175/175/175 176/176/176 177/177/177 
f 175/175/175 177/177/177 178/178/178 
