# exported by StudySceneExporter from mesh 'Pegboard_Hook_General_low1'
mtllib materials.mtl
v 0.01125591 -0.001730194 0.02324234
v 0.01357052 -0.001730194 0.02740753
v 0.01357052 -0.001730194 0.02394623
v 0.008853874 -0.001730194 0.02573486
v 0.01357052 0.001731186 0.02740753
v 0.006895485 -0.001730194 0.02121094
v 0.0103569 -0.001730194 0.02121429
v 0.0103714 -0.001730194 -0.01813614
v 0.008853874 0.001731186 0.02573486
v 0.01357052 0.001731186 0.02394623
v 0.00690998 -0.001730194 -0.01813949
v 0.006954651 -0.001730194 -0.02491135
v 0.006895485 0.001731186 0.02121094
v 0.01125591 0.001731186 0.02324234
v 0.01357052 -0.001730194 0.02394623
v 0.01125591 -0.001730194 0.02324234
v 0.0103569 -0.001730194 0.02121429
v 0.0103569 0.001731186 0.02121429
v 0.004504852 -0.001730194 -0.02246582
v 0.0006245422 -0.001730194 -0.02740753
v 0.00690998 0.001731186 -0.01813949
v 0.0103714 0.001731186 -0.01813614
v 0.0103714 -0.001730194 -0.01813614
v 0.0006214905 -0.001730194 -0.02394592
v -0.005784569 -0.001730194 -0.02489944
v 0.004504852 0.001731186 -0.02246582
v 0.006954651 0.001731186 -0.02491135
v 0.006954651 -0.001730194 -0.02491135
v -0.003339004 -0.001730194 -0.02244965
v -0.01357052 -0.001730194 -0.01712906
v -0.01112389 -0.001731186 -0.01467819
v 0.0006214905 0.001731186 -0.02394592
v 0.0006245422 0.001731186 -0.02740753
v 0.0006245422 -0.001730194 -0.02740753
v -0.003339004 0.001731186 -0.02244965
v -0.01112274 0.001731186 -0.01467697
v -0.005784569 0.001731186 -0.02489944
v -0.005784569 -0.001730194 -0.02489944
v -0.0135704 0.001731186 -0.01712891
v -0.01357052 -0.001730194 -0.01712906
v -0.01234798 4.577637E-07 -0.01590408
v -0.0135704 0.001731186 -0.01712891
v -0.01112274 0.001731186 -0.01467697
v -0.01112389 -0.001731186 -0.01467819
v -0.01357052 -0.001730194 -0.01712906
vt 0.8102447 0.7735319
vt 0.8132851 0.7756918
vt 0.8119035 0.7735319
vt 0.8102447 0.7756918
vt 0.8132851 0.7778665
vt 0.8082453 0.7756918
vt 0.8082453 0.7735319
vt 0.783199 0.7735319
vt 0.8102447 0.7778665
vt 0.8116934 0.7798722
vt 0.783199 0.7756918
vt 0.7794609 0.7735319
vt 0.8082453 0.7778665
vt 0.8102447 0.7798722
vt 0.8116934 0.7821211
vt 0.8102446 0.7821211
vt 0.8082454 0.7821211
vt 0.8082453 0.7798723
vt 0.7794609 0.7756918
vt 0.7761834 0.773532
vt 0.783199 0.7778665
vt 0.783199 0.7798724
vt 0.783199 0.7821211
vt 0.7761834 0.7756918
vt 0.7728255 0.773532
vt 0.7794609 0.7778665
vt 0.7794609 0.7798722
vt 0.7794608 0.7821211
vt 0.7728255 0.7756919
vt 0.7658403 0.773532
vt 0.7658403 0.7756919
vt 0.7761834 0.7778667
vt 0.7761834 0.7798724
vt 0.7761834 0.7821211
vt 0.7728255 0.7778665
vt 0.7658403 0.7778665
vt 0.7728255 0.7798724
vt 0.7728255 0.7821211
vt 0.7658403 0.7798722
vt 0.7658404 0.7821211
vt 0.764703 0.7747828
vt 0.7635951 0.7735319
vt 0.7635951 0.7756918
vt 0.7658403 0.7756919
vt 0.7658403 0.773532
vn 0.2861433 -0.897124 -0.3365867
vn -0.294384 -0.4735125 0.830135
vn 0.1483674 -0.8602353 -0.4878342
vn -0.5973681 -0.4786043 0.6434977
vn -0.2943909 0.4735114 0.830133
vn -0.7236682 -0.6894028 0.03206263
vn 0.6891381 -0.7244803 -0.0147311
vn 0.7271314 -0.6843998 -0.05363461
vn -0.5973683 0.4786094 0.6434938
vn 0.1483539 0.8602372 -0.4878352
vn -0.6805065 -0.7317948 0.03724734
vn 0.5857707 -0.5269272 -0.6158088
vn -0.7236662 0.689405 0.03206267
vn 0.2861327 0.8971287 -0.3365831
vn 0.1483674 -0.8602353 -0.4878342
vn 0.2861433 -0.897124 -0.3365867
vn 0.6891381 -0.7244803 -0.0147311
vn 0.6891384 0.72448 -0.01473104
vn -0.3689486 -0.8391737 0.3995804
vn -0.0007977489 -0.5205308 -0.8538425
vn -0.6805075 0.7317938 0.03724741
vn 0.7271327 0.6843985 -0.05363461
vn 0.7271314 -0.6843998 -0.05363461
vn 0.001090933 -0.8479937 0.5300051
vn -0.4481992 -0.6449572 -0.6189892
vn -0.3689555 0.8391713 0.3995788
vn 0.5857671 0.5269287 -0.6158109
vn 0.5857707 -0.5269272 -0.6158088
vn 0.4022883 -0.760482 0.5097365
vn -0.499491 -0.7070971 -0.5005221
vn 0.4995019 -0.7072887 0.5002405
vn 0.001090925 0.8479962 0.5300009
vn -0.0007977466 0.5205349 -0.8538401
vn -0.0007977489 -0.5205308 -0.8538425
vn 0.4023118 0.7604339 0.5097897
vn 0.4996093 0.7071076 0.5003891
vn -0.448148 0.6450742 -0.6189044
vn -0.4481992 -0.6449572 -0.6189892
vn -0.4993933 0.7072644 -0.5003833
vn -0.499491 -0.7070971 -0.5005221
vn -0.7077249 -6.36185E-05 0.7064881
vn -0.7077589 0 0.706454
vn -0.7076788 -3.182607E-05 0.7065343
vn -0.7076908 -0.0001271444 0.7065222
vn -0.7077709 -9.550288E-05 0.706442
usemtl Mat_Pegboard
f 1/1/1 3/3/3 2/2/2 
f 1/1/1 2/2/2 4/4/4 
f 4/4/4 2/2/2 5/5/5 
f 6/6/6 1/1/1 4/4/4 
f 6/6/6 7/7/7 1/1/1 
f 8/8/8 7/7/7 6/6/6 
f 4/4/4 5/5/5 9/9/9 
f 9/9/9 5/5/5 10/10/10 
f 8/8/8 6/6/6 11/11/11 
f 12/12/12 8/8/8 11/11/11 
f 13/13/13 6/6/6 4/4/4 
f 13/13/13 4/4/4 9/9/9 
f 11/11/11 6/6/6 13/13/13 
f 9/9/9 10/10/10 14/14/14 
f 14/14/14 10/10/10 15/15/15 
f 14/14/14 15/15/15 16/16/16 
f 17/17/17 14/14/14 16/16/16 
f 18/18/18 9/9/9 14/14/14 
f 18/18/18 13/13/13 9/9/9 
f 17/17/17 18/18/18 14/14/14 
f 12/12/12 11/11/11 19/19/19 
f 20/20/20 12/12/12 19/19/19 
f 11/11/11 13/13/13 21/21/21 
f 21/21/21 13/13/13 18/18/18 
f 19/19/19 11/11/11 21/21/21 
f 22/22/22 18/18/18 17/17/17 
f 21/21/21 18/18/18 22/22/22 
f 22/22/22 17/17/17 23/23/23 
f 20/20/20 19/19/19 24/24/24 
f 25/25/25 20/20/20 24/24/24 
f 19/19/19 21/21/21 26/26/26 
f 26/26/26 21/21/21 22/22/22 
f 24/24/24 19/19/19 26/26/26 
f 27/27/27 22/22/22 23/23/23 
f 26/26/26 22/22/22 27/27/27 
f 27/27/27 23/23/23 28/28/28 
f 25/25/25 24/24/24 29/29/29 
f 30/30/30 25/25/25 29/29/29 
f 30/30/30 29/29/29 31/31/31 
f 24/24/24 26/26/26 32/32/32 
f 32/32/32 26/26/26 27/27/27 
f 29/29/29 24/24/24 32/32/32 
f 33/33/33 27/27/27 28/28/28 
f 32/32/32 27/27/27 33/33/33 
f 33/33/33 28/28/28 34/34/34 
f 31/31/31 29/29/29 35/35/35 
f 29/29/29 32/32/32 35/35/35 
f 35/35/35 32/32/32 33/33/33 
f 31/31/31 35/35/35 36/36/36 
f 37/37/37 33/33/33 34/34/34 
f 35/35/35 33/33/33 37/37/37 
f 36/36/36 35/35/35 37/37/37 
f 37/37/37 34/34/34 38/38/38 
f 36/36/36 37/37/37 39/39/39 
f 39/39/39 37/37/37 38/38/38 
f 39/39/39 38/38/38 40/40/40 
f 41/41/41 43/43/43 42/42/42 
f 41/41/41 44/44/44 43/43/43 
f 41/41/41 42/42/42 45/45/45 
f 41/41/41 45/45/45 44/44/44 
