# exported by StudySceneExporter from mesh 'Workbench_Group_4_low'
mtllib materials.mtl
v 0.2819631 0.9573152 0.05749893
v 0.2800998 0.9553302 0.09775475
v 0.2809849 0.9794626 0.09695221
v 0.2817699 0.9745595 0.05063064
v 0.2813422 0.9802898 0.003446579
v 0.281425 0.9523191 0.006549301
v 0.2793423 0.9777583 -0.002810364
v -0.2833356 0.9723715 -0.00265358
v -0.2836773 0.95096 0.05504791
v -0.2812582 0.9515042 0.0008353424
v -0.2834693 0.9807209 0.08835854
v -0.2796299 0.9806227 0.01025391
v -0.2784407 0.9519714 0.09146431
v -0.2835062 0.9726301 0.0974028
v -0.2835062 0.9726301 0.0974028
v -0.2469365 0.9518586 0.0979628
v -0.2784407 0.9519714 0.09146431
v -0.241396 0.9794993 0.09826187
v -0.2834693 0.9807209 0.08835854
v -0.12482 0.9732034 0.09812553
v -0.1412786 0.9560722 0.09794197
v -0.100947 0.9803303 0.0918148
v 0.2756248 0.9750923 0.09811088
v 0.2800998 0.9553302 0.09775475
v 0.2809849 0.9794626 0.09695221
v -0.01017684 0.9797094 0.09604637
v 0.2730686 0.9806593 0.0874607
v 0.271713 0.9808473 0.02589836
v 0.2817699 0.9745595 0.05063064
v -0.2796299 0.9806227 0.01025391
v 0.2813422 0.9802898 0.003446579
v -0.2705316 0.9801965 0.001235275
v -0.2833356 0.9723715 -0.00265358
v -0.2368813 0.9784386 -0.00271553
v 0.2793423 0.9777583 -0.002810364
v -0.2362462 0.9532878 -0.003548431
v -0.2812582 0.9515042 0.0008353424
v 0.2678471 0.9604033 -0.003194351
v 0.281425 0.9523191 0.006549301
v 0.2237435 0.9515353 0.001911545
v 0.2683786 0.9510922 0.01035644
v -0.2836773 0.95096 0.05504791
v 0.2752065 0.9515392 0.06234276
v 0.2819631 0.9573152 0.05749893
v 0.2800998 0.9553302 0.09775475
v 0.2711258 0.9511641 0.09206344
v -0.193113 0.9510849 0.07775154
v -0.2784407 0.9519714 0.09146431
v -0.2469365 0.9518586 0.0979628
v -0.1412786 0.9560722 0.09794197
v 0.1303379 0.9526218 0.09717422
v -0.08871634 0.9517355 0.09328468
v -0.2556829 -0.8440663 0.04141632
v -0.2512868 -0.8463742 0.0535054
v -0.2525898 -0.8465718 -0.0779013
v -0.2353765 -0.8463823 0.05330162
v -0.2324047 -0.8464842 -0.0536232
v -0.2364559 -0.8446473 -0.08778313
v -0.2307696 -0.8445007 0.04550163
v -0.2308468 -0.8436844 -0.07293075
v -0.2353765 -0.8463823 0.05330162
v -0.2309978 -0.8003178 0.09551056
v -0.2307696 -0.8445007 0.04550163
v -0.2344164 -0.8026195 0.09732849
v -0.2512868 -0.8463742 0.0535054
v -0.2550563 -0.8022589 0.0970874
v -0.2556829 -0.8440663 0.04141632
v -0.2559333 -0.7335216 0.09440102
v -0.25579 -0.8399727 -0.06126961
v -0.2525898 -0.8465718 -0.0779013
v -0.2554347 -0.6659677 0.09723724
v -0.2550572 -0.8389929 -0.08154434
v -0.2364559 -0.8446473 -0.08778313
v -0.2554112 -0.7689053 -0.002364578
v -0.2482674 -0.7637208 -0.007013779
v -0.2536897 -0.6608658 0.0967131
v -0.2373125 -0.7092541 0.04722542
v -0.2313327 -0.6618441 0.09683754
v -0.2323033 -0.7716027 -0.01457062
v -0.2309495 -0.7225873 0.04539352
v -0.2314741 -0.8077792 -0.04723694
v -0.2308468 -0.8436844 -0.07293075
v -0.2305799 -0.7189106 0.08671363
v -0.2309978 -0.8003178 0.09551056
v -0.2307696 -0.8445007 0.04550163
v -0.2536897 -0.6608658 0.0967131
v -0.2313327 -0.6618441 0.09683754
v -0.2554347 -0.6659677 0.09723724
v -0.2474399 -0.7290257 0.09754181
v -0.2559333 -0.7335216 0.09440102
v -0.2550563 -0.8022589 0.0970874
v -0.2344164 -0.8026195 0.09732849
v -0.2309978 -0.8003178 0.09551056
v 0.2834433 -0.9526565 0.07908233
v 0.2810548 -0.9510458 0.01734413
v 0.2831682 -0.9550458 -0.001530304
v 0.2836773 -0.9778029 0.08243363
v 0.2816615 -0.9600555 0.0980413
v 0.2786146 -0.9791337 0.09758667
v 0.2820763 -0.9731044 -0.002632294
v 0.2723655 -0.9807171 0.01243729
v -0.2817017 -0.9766653 0.0206501
v -0.2755436 -0.9797648 -0.002531433
v -0.2812556 -0.9607765 -0.003168945
v -0.2820147 -0.9564969 0.05916893
v -0.2803496 -0.9511941 0.007312011
v -0.281425 -0.9781079 0.0971479
v -0.2789462 -0.9805572 0.08995438
v -0.2812718 -0.9543487 0.09205703
v -0.281057 -0.9692793 0.09856491
v -0.2812718 -0.9543487 0.09205703
v -0.206346 -0.9508474 0.09795333
v -0.281057 -0.9692793 0.09856491
v -0.1234711 -0.9633174 0.09820396
v -0.1234385 -0.9511781 0.0871183
v 0.2786146 -0.9791337 0.09758667
v -0.281425 -0.9781079 0.0971479
v -0.2789462 -0.9805572 0.08995438
v -0.009130687 -0.9612414 0.09819809
v -0.004728842 -0.9511142 0.08438148
v 0.02440757 -0.952652 0.0972686
v 0.2816615 -0.9600555 0.0980413
v 0.2692104 -0.9512849 0.09436546
v 0.2774644 -0.9806765 0.08830956
v 0.2836773 -0.9778029 0.08243363
v 0.2723655 -0.9807171 0.01243729
v -0.2735745 -0.9808473 0.02025604
v -0.2817017 -0.9766653 0.0206501
v -0.2755436 -0.9797648 -0.002531433
v -0.09934805 -0.9797627 1.13678E-05
v 0.2436531 -0.9800534 -0.0001080322
v 0.2820763 -0.9731044 -0.002632294
v -0.1615362 -0.9740744 -0.003109283
v -0.2812556 -0.9607765 -0.003168945
v 0.2123675 -0.9761084 -0.003297729
v 0.2355677 -0.9586406 -0.003263702
v 0.2831682 -0.9550458 -0.001530304
v -0.2471786 -0.952641 -0.002403335
v -0.2803496 -0.9511941 0.007312011
v 0.245946 -0.9513656 0.002864761
v 0.2810548 -0.9510458 0.01734413
v -0.2734375 -0.9508626 0.05988609
v -0.2820147 -0.9564969 0.05916893
v -0.2812718 -0.9543487 0.09205703
v -0.206346 -0.9508474 0.09795333
v -0.1234385 -0.9511781 0.0871183
v -0.004728842 -0.9511142 0.08438148
v 0.2692104 -0.9512849 0.09436546
v 0.02440757 -0.952652 0.0972686
v 0.2834433 -0.9526565 0.07908233
v 0.2816615 -0.9600555 0.0980413
v -0.2525974 0.8489633 0.03751922
v -0.2321797 0.8468069 0.04267494
v -0.252116 0.8462781 0.04379089
v -0.2318851 0.8486375 0.03622215
v -0.2368352 0.8491406 -0.01019226
v -0.2314999 0.8474503 0.002366562
v -0.2525785 0.8489392 -0.01971138
v -0.2316493 0.8469702 -0.03242355
v -0.2481613 0.8484944 -0.03743202
v -0.253829 0.8480617 -0.03685905
v -0.2544833 0.8484768 -0.06218132
v -0.2340262 0.8487028 -0.03233383
v -0.2379815 0.8473561 -0.04679405
v -0.2306347 0.8415051 -0.04744362
v -0.2315667 0.844805 -0.06132271
v -0.239461 0.8476927 -0.05892029
v -0.2357149 0.8487712 -0.07752876
v -0.2528121 0.8488005 -0.0943132
v -0.2310512 0.8457651 -0.08407928
v -0.23184 0.8479228 -0.09667053
v -0.2306347 0.8415051 -0.04744362
v -0.2315667 0.844805 -0.06132271
v -0.2310512 0.8457651 -0.08407928
v -0.230873 0.8233337 -0.06340171
v -0.2321548 0.8208699 -0.07256553
v -0.23184 0.8479228 -0.09667053
v -0.2334501 0.8439754 -0.09674965
v -0.2352029 0.7828911 -0.03589592
v -0.2322059 0.7948431 -0.04641647
v -0.2448596 0.8476629 -0.09856491
v -0.2528121 0.8488005 -0.0943132
v -0.2533186 0.8441954 -0.09686874
v -0.231021 0.7911502 -0.03348831
v -0.2431417 0.8357127 -0.08902939
v -0.2548503 0.8451161 -0.0935868
v -0.2544833 0.8484768 -0.06218132
v -0.2558466 0.8445966 -0.02274483
v -0.253829 0.8480617 -0.03685905
v -0.2525785 0.8489392 -0.01971138
v -0.2550444 0.8486007 -0.00490654
v -0.2525974 0.8489633 0.03751922
v -0.2546916 0.8477905 0.03932648
v -0.252116 0.8462781 0.04379089
v -0.2555808 0.8457449 0.03194801
v -0.2504522 0.7884424 -0.04157173
v -0.2453445 0.6826533 0.06395691
v -0.2406203 0.6622118 0.08449837
v -0.2541152 0.8133847 -0.06522171
v -0.2555133 0.8012156 -0.04460541
v -0.2555445 0.8386781 -0.07905594
v -0.2553751 0.766895 -0.01209564
v -0.2550075 0.7818417 -0.03014625
v -0.2509125 0.7601728 -0.01323784
v -0.2387657 0.7405221 0.006217346
v -0.2558468 0.8312224 -0.04190933
v -0.2558782 0.7564201 0.09125877
v -0.2557184 0.6827902 0.08442253
v -0.2551611 0.6574026 0.09534019
v -0.2553521 0.7850062 0.09636314
v -0.2549015 0.800704 0.08487327
v -0.252698 0.8228084 0.06719352
v -0.2502025 0.7927412 0.09700279
v -0.253875 0.7797173 0.09755203
v -0.2533686 0.6533415 0.09726829
v -0.2341306 0.7959047 0.09417144
v -0.2320002 0.7883735 0.09716286
v -0.2316573 0.804154 0.08316047
v -0.2384408 0.8240097 0.06615211
v -0.2321797 0.8468069 0.04267494
v -0.2334937 0.8267654 0.05976921
v -0.2334956 0.814724 0.07500694
v -0.2528191 0.6524403 0.09513847
v -0.2436787 0.6506575 0.09758667
v -0.233728 0.6536229 0.09369026
v -0.232324 0.6529187 0.09620643
v -0.2335626 0.655926 0.09727318
v -0.2312034 0.7237334 0.09652381
v -0.2320002 0.7883735 0.09716286
v -0.2309884 0.783061 0.09534568
v -0.2316573 0.804154 0.08316047
v -0.2309969 0.8245524 0.0546521
v -0.2334937 0.8267654 0.05976921
v -0.2321797 0.8468069 0.04267494
v -0.2307943 0.8451564 0.02795097
v -0.2318851 0.8486375 0.03622215
v -0.2314999 0.8474503 0.002366562
v -0.2316493 0.8469702 -0.03242355
v -0.230614 0.7635257 0.08486572
v -0.2306724 0.6932884 0.09052108
v -0.2309666 0.667483 0.09313805
v -0.2312825 0.6634557 0.08955238
v -0.2312807 0.7800353 -0.0266526
v -0.2313769 0.7194023 0.03244453
v -0.2313378 0.7510602 0.000874176
v -0.2326756 0.7314405 0.01605217
v -0.2358095 0.7183374 0.02855873
v -0.2332306 0.6881663 0.05908783
v -0.2537203 0.666437 0.0810765
v -0.2548741 0.6769241 0.07377655
v -0.2549242 0.6920883 0.05900421
v -0.2531882 0.6990864 0.04817726
v -0.2542331 0.7346045 0.01493446
v -0.2320002 0.7883735 0.09716286
v -0.2381372 0.776853 0.09778351
v -0.2502025 0.7927412 0.09700279
v -0.2335626 0.655926 0.09727318
v -0.253875 0.7797173 0.09755203
v -0.2436787 0.6506575 0.09758667
v -0.2533686 0.6533415 0.09726829
vt 0.3343418 0.4236527
vt 0.333398 0.4352869
vt 0.3403879 0.4352651
vt 0.3393912 0.4218246
vt 0.3414812 0.4082334
vt 0.333365 0.4088739
vt 0.3408014 0.4063136
vt 0.9426646 0.8026952
vt 0.9259226 0.8087561
vt 0.9416225 0.8087563
vt 0.9163553 0.8000693
vt 0.9389778 0.8000122
vt 0.9152784 0.8084918
vt 0.913655 0.8023127
vt 0.253049 0.7180229
vt 0.2426629 0.7252703
vt 0.2522393 0.7244687
vt 0.2407288 0.7173519
vt 0.2529567 0.7144163
vt 0.2068833 0.7186422
vt 0.2116987 0.7235843
vt 0.1997384 0.7157679
vt 0.09110724 0.7195299
vt 0.08984093 0.7252745
vt 0.08953279 0.7182391
vt 0.173407 0.7171502
vt 0.09179784 0.7153983
vt 0.09185296 0.6975434
vt 0.08846298 0.7047648
vt 0.2516693 0.6917837
vt 0.0890689 0.6910501
vt 0.2488106 0.6892061
vt 0.2527766 0.6864322
vt 0.23892 0.6880606
vt 0.08963086 0.689082
vt 0.2387528 0.680885
vt 0.2520162 0.679387
vt 0.09328627 0.684029
vt 0.0891469 0.6800962
vt 0.1060503 0.6809897
vt 0.09297745 0.6787602
vt 0.2525474 0.6636291
vt 0.09115114 0.6636854
vt 0.08853319 0.664986
vt 0.08968554 0.6529831
vt 0.09245795 0.655167
vt 0.2259704 0.6573863
vt 0.2509284 0.653164
vt 0.2417309 0.6513845
vt 0.2105429 0.6513716
vt 0.1328908 0.6532032
vt 0.1951989 0.6534081
vt 0.773094 0.5460153
vt 0.7765733 0.5445421
vt 0.7384867 0.5452444
vt 0.7764439 0.5399438
vt 0.7455996 0.5394178
vt 0.7356338 0.5402117
vt 0.7741645 0.5385132
vt 0.739978 0.5385537
vt 0.6428501 0.6657298
vt 0.6535428 0.6508409
vt 0.6402302 0.6651309
vt 0.6544723 0.6517583
vt 0.6463666 0.6687148
vt 0.6590538 0.6556127
vt 0.6473553 0.6724022
vt 0.6792535 0.6553794
vt 0.6503425 0.7012207
vt 0.6486447 0.7064605
vt 0.6990617 0.6539994
vt 0.650977 0.7064182
vt 0.6523973 0.7123971
vt 0.670039 0.6838236
vt 0.6722101 0.6857751
vt 0.7006535 0.6541626
vt 0.6901624 0.6720647
vt 0.7051103 0.6586601
vt 0.6733085 0.6911933
vt 0.6902316 0.6765026
vt 0.6642918 0.7018248
vt 0.6571485 0.7123353
vt 0.7022926 0.6752258
vt 0.7051093 0.6989892
vt 0.6909462 0.7119787
vt 0.0142718 0.7766359
vt 0.0078125 0.7769708
vt 0.01478761 0.7781158
vt 0.01259023 0.796384
vt 0.01521838 0.7976685
vt 0.01491028 0.817553
vt 0.00894165 0.8176908
vt 0.00781703 0.8170334
vt 0.9632569 0.7588843
vt 0.9454914 0.7568639
vt 0.9399518 0.7577805
vt 0.9636644 0.7662123
vt 0.9685889 0.7614335
vt 0.9682328 0.7670129
vt 0.939227 0.7629737
vt 0.9431506 0.7670178
vt 0.0247668 0.8424547
vt 0.0235492 0.8493445
vt 0.02928835 0.8493961
vt 0.03072238 0.8313752
vt 0.03211063 0.8463991
vt 0.02458757 0.8203209
vt 0.02356315 0.8223939
vt 0.03144532 0.8218655
vt 0.02714741 0.8199335
vt 0.8994112 0.554976
vt 0.8777118 0.5543223
vt 0.8992634 0.5596911
vt 0.8537614 0.5578891
vt 0.8536849 0.5531368
vt 0.7375183 0.5622862
vt 0.8993688 0.5622811
vt 0.8986556 0.5644823
vt 0.8205875 0.5572423
vt 0.8195034 0.5522385
vt 0.8108824 0.5547292
vt 0.7366375 0.5567628
vt 0.7402267 0.5540109
vt 0.7378881 0.5650076
vt 0.7358924 0.5666574
vt 0.7391764 0.586956
vt 0.8971525 0.5846816
vt 0.8997992 0.584577
vt 0.8977606 0.5911224
vt 0.8468731 0.5906191
vt 0.7476611 0.5905347
vt 0.7363808 0.5923192
vt 0.8649051 0.5925584
vt 0.8993796 0.5964507
vt 0.7566985 0.5919693
vt 0.7499418 0.5969926
vt 0.7359972 0.5978818
vt 0.8890352 0.5987028
vt 0.8991199 0.6014866
vt 0.746905 0.5997323
vt 0.7364886 0.6038677
vt 0.8971171 0.6166933
vt 0.9000917 0.6165382
vt 0.8994079 0.6260512
vt 0.877679 0.6276549
vt 0.853663 0.6244434
vt 0.8192747 0.6235431
vt 0.7399175 0.6261868
vt 0.8108343 0.6272758
vt 0.7357723 0.6217626
vt 0.7356337 0.6276785
vt 0.03697169 0.8100426
vt 0.03108269 0.8117232
vt 0.03685379 0.8120179
vt 0.03097284 0.8097838
vt 0.03214151 0.7963269
vt 0.03058606 0.7999883
vt 0.03663731 0.7934818
vt 0.030397 0.7899207
vt 0.03525215 0.7883614
vt 0.03690088 0.7884981
vt 0.03697133 0.7811927
vt 0.03124267 0.7899501
vt 0.03219229 0.7856959
vt 0.02945042 0.7854813
vt 0.03016222 0.7814887
vt 0.03260374 0.7821616
vt 0.03157568 0.7767562
vt 0.03647488 0.7718642
vt 0.02990884 0.7749224
vt 0.03036577 0.7712446
vt 0.3280497 0.6834105
vt 0.3287536 0.679131
vt 0.3284813 0.6722369
vt 0.3222877 0.6789481
vt 0.3213762 0.676318
vt 0.3288968 0.6684043
vt 0.3275025 0.6687829
vt 0.3104654 0.6871636
vt 0.3142354 0.6843071
vt 0.3250971 0.6659706
vt 0.3229448 0.6635432
vt 0.3229884 0.665203
vt 0.3133239 0.6881174
vt 0.3232804 0.6694347
vt 0.3221384 0.6647373
vt 0.3126816 0.6642493
vt 0.301177 0.6660582
vt 0.3053458 0.6646509
vt 0.3000168 0.6643882
vt 0.295603 0.6655173
vt 0.282808 0.6661947
vt 0.2824715 0.6669614
vt 0.2809737 0.6671891
vt 0.2847322 0.6673934
vt 0.3087517 0.6824137
vt 0.2813038 0.7154115
vt 0.2768782 0.722358
vt 0.3145151 0.674318
vt 0.3088048 0.6781197
vt 0.3179933 0.6668205
vt 0.3000697 0.6886771
vt 0.3050194 0.684049
vt 0.3009246 0.6910104
vt 0.2979488 0.699369
vt 0.3071815 0.6696168
vt 0.2698997 0.6942458
vt 0.2736776 0.7147167
vt 0.2711205 0.7219845
vt 0.2676759 0.6863394
vt 0.2704819 0.6816825
vt 0.2748876 0.6747383
vt 0.2665024 0.6839592
vt 0.2672581 0.6878605
vt 0.2705651 0.7235001
vt 0.2637731 0.6798677
vt 0.2615664 0.6809722
vt 0.2655294 0.6762097
vt 0.2719729 0.6718304
vt 0.2766085 0.6632543
vt 0.2718478 0.669323
vt 0.2685484 0.6738039
vt 0.2713382 0.7235184
vt 0.2730786 0.725903
vt 0.2759369 0.7260142
vt 0.2759134 0.726748
vt 0.27661 0.7272709
vt 0.2950233 0.7267941
vt 0.312697 0.7272735
vt 0.3112203 0.7266418
vt 0.3172936 0.7230071
vt 0.3232819 0.7143621
vt 0.3240475 0.7159908
vt 0.3298735 0.7106277
vt 0.3293328 0.7062534
vt 0.3304057 0.7086884
vt 0.3299544 0.6985618
vt 0.3297162 0.6879589
vt 0.305819 0.7235397
vt 0.2866551 0.7250262
vt 0.2797008 0.7258185
vt 0.2785604 0.7248769
vt 0.3101085 0.690283
vt 0.2936064 0.708155
vt 0.3021617 0.698737
vt 0.2967247 0.7033103
vt 0.2926969 0.7066142
vt 0.2849542 0.7163004
vt 0.2750394 0.7190766
vt 0.2769536 0.7159818
vt 0.2810099 0.711291
vt 0.2840351 0.7091339
vt 0.2928357 0.698484
vt 0.3432004 0.3584447
vt 0.344946 0.3617988
vt 0.3484834 0.3572354
vt 0.3432116 0.3967631
vt 0.3495081 0.3610203
vt 0.3461217 0.3983218
vt 0.3489356 0.3975787
vn 0.9999503 0.002481285 0.009655494
vn 0.9983923 -0.03513684 0.04447748
vn 0.9990467 -0.02250741 0.03740446
vn 0.9999309 0.01169696 0.001249415
vn 0.9989315 -0.001516411 -0.046192
vn 0.9998612 0.001118542 -0.01661747
vn 0.9555312 -0.02971409 -0.2933896
vn -0.9993167 0.02386884 -0.02822092
vn -0.9997439 -0.01836936 0.01321926
vn -0.9932794 -0.1064702 -0.04539026
vn -0.9978765 -0.05167555 0.03965018
vn -0.8837936 0.4658008 -0.04403012
vn -0.9792535 -0.1575072 0.1274911
vn -0.9670671 -0.1877171 -0.1718822
vn -0.1237765 0.1971226 0.9725338
vn -0.0166027 -0.02958072 0.9994245
vn -0.1928504 -0.3144623 0.9294741
vn -0.004454122 0.5324777 0.8464322
vn -0.001797439 0.9999745 0.006921079
vn 0.004995331 0.09827947 0.9951463
vn 0.0003397515 -0.01131037 0.999936
vn -0.006015477 0.9525893 0.3041996
vn 0.002597581 0.04531056 0.9989696
vn 0.000986251 -0.01779936 0.9998411
vn 0.04005587 0.8854042 0.4630928
vn -0.001378161 0.7773494 0.6290675
vn 0.00307477 0.9998741 0.01556833
vn 0.006232765 0.999972 -0.004161007
vn 0.6172267 0.7851056 -0.0513865
vn -0.00140946 0.9999864 -0.005034492
vn 0.004069861 0.9943768 -0.1058219
vn -0.0009863467 0.9817902 -0.1899657
vn -0.05130634 0.07808612 -0.9956255
vn -0.006030887 0.294552 -0.9556165
vn 0.01077302 0.4716003 -0.8817466
vn -0.003906219 -0.2456237 -0.9693573
vn -0.003412358 -0.9990472 -0.04350757
vn 0.01741248 -0.06172793 -0.9979411
vn 0.2063883 -0.922795 -0.3253509
vn 0.005974304 -0.8431824 -0.5375943
vn 0.00282004 -0.9999464 -0.009964981
vn -0.0008062226 -0.9999838 -0.005640346
vn 0.3597412 -0.9329905 0.01072938
vn 0.66776 -0.7429874 0.04545705
vn 0.1745051 -0.8848271 0.4320057
vn 0.004366364 -0.9997361 0.0225505
vn 0.005181869 -0.9994999 0.03119539
vn -0.00589704 -0.999593 0.02791302
vn 0.003632676 -0.9988449 0.0479127
vn -0.03012371 -0.9438595 0.3289708
vn -0.0003692675 -0.7517712 0.6594241
vn -0.003656104 -0.9825126 0.1861605
vn -0.477816 -0.8784391 0.006059737
vn -0.03383853 -0.9994256 0.001839005
vn 0.02492283 -0.9994536 -0.02170813
vn 0.02993731 -0.9995492 0.002259285
vn 0.1556787 -0.9878011 -0.003616318
vn 0.09862422 -0.9929935 -0.06509177
vn 0.3999533 -0.9164602 0.01174128
vn 0.4831197 -0.8711863 -0.08734888
vn 0.3782788 -0.6663067 0.6426045
vn 0.6773862 -0.5309392 0.5091675
vn 0.8198755 -0.4272093 0.3811775
vn 0.1167849 -0.7017679 0.7027683
vn -0.4926873 -0.6357383 0.5942188
vn -0.9703192 -0.1667362 0.1751569
vn -0.9998845 -0.01243266 0.008744479
vn -0.9999858 0.004359202 -0.003089326
vn -0.9985648 -0.05250565 -0.01056618
vn -0.8459882 -0.4529966 -0.2812437
vn -0.9962915 0.05760184 -0.06391654
vn -0.3610561 0.6201143 -0.6964889
vn 0.1161317 0.6750811 -0.7285458
vn -0.8993479 0.3132358 -0.3050521
vn -0.3251953 0.6711161 -0.6662216
vn -0.1826933 0.7007153 -0.6896529
vn 0.207161 0.6885592 -0.6949607
vn 0.5555487 0.6011276 -0.574466
vn 0.3326153 0.6681758 -0.6655136
vn 0.9935955 0.08316413 -0.07649644
vn 0.9611934 0.1886714 -0.2012717
vn 0.9988157 0.02870286 -0.03928646
vn 0.9999564 0.003694449 0.008587281
vn 0.9999492 -0.004141829 0.009184559
vn 0.9999989 -0.00152336 3.70047E-05
vn -0.001048841 0.1025242 0.99473
vn 0.02143325 0.006972967 0.9997459
vn 0.003808383 0.009818272 0.9999446
vn -0.05142829 -0.0006497469 0.9986765
vn -0.3506284 0.008171874 0.936479
vn -0.02364886 -0.003744367 0.9997132
vn 0.08267984 -0.004439115 0.9965663
vn 0.4733304 -0.007295715 0.8808548
vn 0.9998646 0.01348983 0.009427061
vn 0.8448105 0.5347376 -0.01873301
vn 0.9993944 -0.02972318 -0.0180901
vn 0.998229 -0.0518549 0.02915379
vn 0.986458 -0.02979359 0.1612852
vn 0.9407145 -0.1573977 0.30047
vn 0.9686637 -0.246327 -0.03183695
vn 0.5605272 -0.8262278 -0.05618525
vn -0.999042 -0.03217046 -0.02966514
vn -0.9343589 -0.2881089 -0.2096821
vn -0.9956943 -0.05498171 -0.07463152
vn -0.9999216 -0.01215838 0.003018715
vn -0.9930683 0.1158169 -0.0200428
vn -0.998008 -0.06200011 0.01166828
vn -0.7181068 -0.6958532 -0.01052568
vn -0.9996789 0.01130573 0.02267978
vn -0.9952603 0.02646527 0.0935761
vn -0.09042453 0.3968363 0.9134246
vn 0.001555603 0.06587305 0.9978268
vn -0.01549578 -0.05756434 0.9982215
vn 0.009786955 0.177553 0.9840626
vn 0.03408262 0.6823733 0.7302089
vn 0.001973929 -0.5842583 0.8115653
vn -0.001674332 -0.5596694 0.8287143
vn -0.001002012 -0.9990776 0.04293066
vn -0.006567112 0.2737592 0.9617758
vn -0.03613922 0.8114693 0.5832766
vn -0.007713135 0.141208 0.9899499
vn 0.001918384 0.04395647 0.9990315
vn 0.008667638 0.3969615 0.9177943
vn 0.004083428 -0.9997713 0.02099436
vn 0.4019772 -0.9153695 -0.02265017
vn 0.0026019 -0.9999752 -0.006556374
vn -0.007889414 -0.9999672 -0.00183145
vn -0.4583851 -0.8883842 -0.02562458
vn -0.006070385 -0.8173923 -0.5760494
vn -0.001118748 -0.9729525 -0.2310025
vn 0.002926794 -0.9699008 -0.2434825
vn 0.05365318 -0.275902 -0.9596871
vn 0.001857866 -0.07998778 -0.996794
vn -0.02387241 0.1053582 -0.9941478
vn 0.0001133258 -0.1251056 -0.9921435
vn 0.006173158 0.3982305 -0.9172646
vn 0.05799306 0.5784794 -0.8136329
vn -0.0006863869 0.7019676 -0.7122086
vn -0.003953791 0.9997754 -0.02082375
vn 0.001242791 0.987753 -0.1560203
vn 0.001906066 0.9999974 -0.001274178
vn -0.01402872 0.9999013 0.0008072242
vn -0.5504053 0.8344613 0.02698886
vn -0.06858817 0.9934902 0.0909557
vn -0.002560943 0.9999883 0.004119297
vn 0.0001067749 0.9999396 0.01099818
vn 3.296724E-06 0.9998598 0.01674485
vn 0.003734555 0.9999788 0.005350144
vn -0.004027137 0.9918361 0.1274554
vn 0.1539076 0.9865648 0.05479482
vn 0.4640999 0.8095273 0.3595508
vn 0.009881222 0.9984784 0.05425347
vn 0.02560912 0.9543082 0.2977248
vn -0.002334509 0.9192157 0.3937474
vn 0.02340108 0.9989094 0.04040446
vn 0.05932524 0.9982277 -0.004689974
vn 0.358493 0.9331508 -0.02668703
vn -0.008269983 0.9999093 -0.01063642
vn 0.5494031 0.8286132 -0.1075006
vn -0.001881833 0.9996328 -0.0270307
vn -0.07696602 0.9969984 -0.008398236
vn 0.02177904 0.99966 0.01433173
vn 0.1170496 0.9921651 -0.04367999
vn 0.3090042 0.9497434 -0.05003722
vn 0.6201471 0.783355 -0.04210091
vn 0.4387325 0.893557 0.09523499
vn 0.1318345 0.9907782 0.03127677
vn 0.128386 0.9915494 0.01862472
vn 0.01116389 0.9998913 -0.009629497
vn 0.6155203 0.7842184 0.07833465
vn 0.06995589 0.997098 -0.03003046
vn 0.9999914 -0.001671288 -0.003796641
vn 0.9081225 0.4169621 0.03816042
vn 0.9976465 -0.04600285 -0.05084463
vn 0.9997205 -0.01595272 -0.01744874
vn 0.8543441 -0.3667437 -0.3682325
vn 0.9238624 -0.1014488 -0.3690343
vn 0.2492622 -0.6280215 -0.7371956
vn 0.1716565 -0.6968469 -0.6963752
vn 0.8935797 -0.3240004 -0.3107072
vn -0.01690962 0.3919501 -0.919831
vn -0.7615665 0.5882874 -0.2719087
vn -0.22937 -0.6185958 -0.7514842
vn 0.988799 -0.112779 -0.09776139
vn -0.0007091778 -0.7039727 -0.7102266
vn -0.9867151 0.03604921 -0.1584102
vn -0.9729267 0.2307902 -0.01222377
vn -0.9998084 0.01955583 0.000901836
vn -0.8050774 0.5923929 0.03035123
vn -0.7371342 0.6731027 -0.05971602
vn -0.7652786 0.6436916 -0.003118186
vn -0.4511596 0.8915645 0.03959588
vn -0.9627893 0.2353268 0.1328837
vn -0.1257142 0.7089114 0.6940033
vn -0.99978 0.01899854 0.008886728
vn -0.1139113 -0.6995451 -0.7054508
vn -0.03223348 -0.7066427 -0.706836
vn 0.006930748 -0.7134265 -0.7006959
vn -0.8068668 -0.4246087 -0.4106985
vn -0.9086504 -0.325554 -0.2614748
vn -0.9997168 -7.469331E-05 -0.0237977
vn -0.992277 -0.08867797 -0.086732
vn -0.8141347 -0.4041122 -0.4169866
vn -0.4153986 -0.636976 -0.6493886
vn 0.09013347 -0.6966795 -0.7116977
vn -0.9999672 -0.004959196 -0.006396736
vn -0.9999629 -0.0004410192 0.008608745
vn -0.9999123 -0.01245197 -0.004515117
vn -0.9583223 -0.05612126 0.2801228
vn -0.9975332 0.02798271 0.06437761
vn -0.907071 0.2848607 0.309962
vn -0.2227251 0.6864607 0.6922177
vn -0.1808599 0.6599266 0.729237
vn -0.6267508 0.0001264934 0.7792197
vn -0.7589941 -0.1620443 0.6306104
vn 0.1057848 0.6559501 0.7473547
vn 0.21909 0.4130865 0.8839452
vn 0.671907 0.5176448 0.5297027
vn 0.06193326 0.7122986 0.6991387
vn 0.03519187 0.7122698 0.7010229
vn 0.5294095 0.5565723 0.6402757
vn 0.3998256 0.6704766 0.6249804
vn -0.1749389 -0.7594435 -0.6266116
vn 0.01338619 -0.8536159 -0.5207309
vn 0.2293938 -0.7248085 -0.6496394
vn 0.8878853 -0.4166994 0.1949907
vn 0.5690788 -0.05425853 0.820491
vn 0.8893059 -0.003032895 0.4573027
vn 0.9646265 0.1063926 0.2411979
vn 0.9982907 0.01423629 0.05668218
vn 0.9925437 0.08639899 0.08597809
vn 0.9843358 0.1213803 0.1278665
vn 0.8993657 0.3159368 0.3022006
vn 0.9899392 0.1044867 0.09540961
vn 0.999918 0.01222175 0.003830133
vn 0.9826072 0.1773854 0.0549317
vn 0.977329 0.2115774 -0.00793444
vn 0.979556 0.2010501 -0.006983619
vn 0.9999936 0.0008347525 0.003501439
vn 0.9999695 -0.007452307 -0.00236396
vn 0.9992981 -0.02358064 0.02910968
vn 0.9887628 -0.1091382 -0.1021617
vn 0.9621778 -0.1862553 -0.1988039
vn 0.8676259 -0.3483406 -0.3548016
vn 0.5559193 -0.5973663 -0.5780201
vn 0.5856856 -0.5654473 -0.5807251
vn 0.2036838 -0.6952728 -0.6892813
vn 0.4157662 -0.6431326 -0.6430543
vn -0.4048664 -0.644351 -0.6487641
vn -0.5581502 -0.5327815 -0.6360915
vn -0.8518365 -0.3941565 -0.344986
vn -0.2441076 -0.6893213 -0.6820905
vn -0.8158795 -0.4018308 -0.4157795
vn 0.05757116 0.02310309 0.9980741
vn 0.02734119 0.002099154 0.9996239
vn -0.00203652 0.04753727 0.9988674
vn 0.03360356 -0.002945976 0.9994308
vn -0.01425304 0.002493439 0.9998953
vn -0.004116192 -0.001378938 0.9999906
vn -0.03099284 -0.0003475206 0.9995196
usemtl Mat_Workbench
f 1/1/1 3/3/3 2/2/2 
f 4/4/4 3/3/3 1/1/1 
f 4/4/4 1/1/1 5/5/5 
f 1/1/1 6/6/6 5/5/5 
f 7/7/7 5/5/5 6/6/6 
f 8/8/8 10/10/10 9/9/9 
f 11/11/11 8/8/8 9/9/9 
f 11/11/11 12/12/12 8/8/8 
f 11/11/11 9/9/9 13/13/13 
f 11/11/11 13/13/13 14/14/14 
f 15/15/15 17/17/17 16/16/16 
f 15/15/15 16/16/16 18/18/18 
f 15/15/15 18/18/18 19/19/19 
f 16/16/16 20/20/20 18/18/18 
f 21/21/21 20/20/20 16/16/16 
f 18/18/18 22/22/22 19/19/19 
f 18/18/18 20/20/20 22/22/22 
f 23/23/23 20/20/20 21/21/21 
f 24/24/24 23/23/23 21/21/21 
f 24/24/24 25/25/25 23/23/23 
f 23/23/23 25/25/25 20/20/20 
f 20/20/20 26/26/26 22/22/22 
f 26/26/26 20/20/20 25/25/25 
f 26/26/26 27/27/27 22/22/22 
f 22/22/22 27/27/27 19/19/19 
f 26/26/26 25/25/25 27/27/27 
f 19/19/19 27/27/27 28/28/28 
f 25/25/25 28/28/28 27/27/27 
f 28/28/28 25/25/25 29/29/29 
f 28/28/28 30/30/30 19/19/19 
f 29/29/29 31/31/31 28/28/28 
f 28/28/28 31/31/31 30/30/30 
f 30/30/30 31/31/31 32/32/32 
f 30/30/30 32/32/32 33/33/33 
f 32/32/32 31/31/31 34/34/34 
f 35/35/35 34/34/34 31/31/31 
f 33/33/33 32/32/32 36/36/36 
f 34/34/34 36/36/36 32/32/32 
f 34/34/34 35/35/35 36/36/36 
f 36/36/36 37/37/37 33/33/33 
f 36/36/36 35/35/35 38/38/38 
f 35/35/35 39/39/39 38/38/38 
f 36/36/36 40/40/40 37/37/37 
f 38/38/38 40/40/40 36/36/36 
f 40/40/40 41/41/41 37/37/37 
f 38/38/38 41/41/41 40/40/40 
f 39/39/39 41/41/41 38/38/38 
f 37/37/37 41/41/41 42/42/42 
f 41/41/41 39/39/39 43/43/43 
f 44/44/44 43/43/43 39/39/39 
f 45/45/45 43/43/43 44/44/44 
f 43/43/43 46/46/46 41/41/41 
f 41/41/41 46/46/46 42/42/42 
f 46/46/46 43/43/43 45/45/45 
f 47/47/47 42/42/42 46/46/46 
f 42/42/42 47/47/47 48/48/48 
f 47/47/47 49/49/49 48/48/48 
f 50/50/50 49/49/49 47/47/47 
f 51/51/51 45/45/45 50/50/50 
f 51/51/51 46/46/46 45/45/45 
f 50/50/50 47/47/47 52/52/52 
f 52/52/52 51/51/51 50/50/50 
f 52/52/52 47/47/47 46/46/46 
f 46/46/46 51/51/51 52/52/52 
f 53/53/53 55/55/55 54/54/54 
f 56/56/56 54/54/54 55/55/55 
f 57/57/57 56/56/56 55/55/55 
f 55/55/55 58/58/58 57/57/57 
f 56/56/56 57/57/57 59/59/59 
f 58/58/58 60/60/60 57/57/57 
f 60/60/60 59/59/59 57/57/57 
f 61/61/61 63/63/63 62/62/62 
f 61/61/61 62/62/62 64/64/64 
f 65/65/65 61/61/61 64/64/64 
f 66/66/66 65/65/65 64/64/64 
f 67/67/67 65/65/65 66/66/66 
f 66/66/66 68/68/68 67/67/67 
f 67/67/67 68/68/68 69/69/69 
f 67/67/67 69/69/69 70/70/70 
f 68/68/68 71/71/71 69/69/69 
f 69/69/69 72/72/72 70/70/70 
f 72/72/72 73/73/73 70/70/70 
f 74/74/74 69/69/69 71/71/71 
f 74/74/74 72/72/72 69/69/69 
f 74/74/74 71/71/71 75/75/75 
f 74/74/74 75/75/75 72/72/72 
f 75/75/75 73/73/73 72/72/72 
f 76/76/76 75/75/75 71/71/71 
f 77/77/77 75/75/75 76/76/76 
f 76/76/76 78/78/78 77/77/77 
f 75/75/75 79/79/79 73/73/73 
f 75/75/75 77/77/77 79/79/79 
f 77/77/77 78/78/78 80/80/80 
f 79/79/79 77/77/77 80/80/80 
f 81/81/81 73/73/73 79/79/79 
f 79/79/79 80/80/80 81/81/81 
f 82/82/82 73/73/73 81/81/81 
f 82/82/82 81/81/81 80/80/80 
f 83/83/83 80/80/80 78/78/78 
f 82/82/82 80/80/80 83/83/83 
f 83/83/83 78/78/78 84/84/84 
f 83/83/83 85/85/85 82/82/82 
f 85/85/85 83/83/83 84/84/84 
f 86/86/86 88/88/88 87/87/87 
f 89/89/89 87/87/87 88/88/88 
f 89/89/89 88/88/88 90/90/90 
f 91/91/91 89/89/89 90/90/90 
f 92/92/92 89/89/89 91/91/91 
f 87/87/87 89/89/89 92/92/92 
f 92/92/92 93/93/93 87/87/87 
f 94/94/94 96/96/96 95/95/95 
f 94/94/94 97/97/97 96/96/96 
f 98/98/98 97/97/97 94/94/94 
f 97/97/97 98/98/98 99/99/99 
f 96/96/96 97/97/97 100/100/100 
f 97/97/97 101/101/101 100/100/100 
f 102/102/102 104/104/104 103/103/103 
f 105/105/105 104/104/104 102/102/102 
f 105/105/105 106/106/106 104/104/104 
f 105/105/105 102/102/102 107/107/107 
f 102/102/102 108/108/108 107/107/107 
f 107/107/107 109/109/109 105/105/105 
f 107/107/107 110/110/110 109/109/109 
f 111/111/111 113/113/113 112/112/112 
f 113/113/113 114/114/114 112/112/112 
f 112/112/112 114/114/114 115/115/115 
f 116/116/116 114/114/114 113/113/113 
f 116/116/116 113/113/113 117/117/117 
f 118/118/118 116/116/116 117/117/117 
f 114/114/114 119/119/119 115/115/115 
f 116/116/116 119/119/119 114/114/114 
f 119/119/119 120/120/120 115/115/115 
f 119/119/119 121/121/121 120/120/120 
f 122/122/122 121/121/121 119/119/119 
f 116/116/116 122/122/122 119/119/119 
f 123/123/123 121/121/121 122/122/122 
f 118/118/118 124/124/124 116/116/116 
f 125/125/125 116/116/116 124/124/124 
f 126/126/126 125/125/125 124/124/124 
f 124/124/124 118/118/118 127/127/127 
f 126/126/126 124/124/124 127/127/127 
f 118/118/118 128/128/128 127/127/127 
f 128/128/128 129/129/129 127/127/127 
f 130/130/130 126/126/126 127/127/127 
f 130/130/130 127/127/127 129/129/129 
f 131/131/131 126/126/126 130/130/130 
f 131/131/131 132/132/132 126/126/126 
f 133/133/133 130/130/130 129/129/129 
f 134/134/134 133/133/133 129/129/129 
f 133/133/133 135/135/135 130/130/130 
f 130/130/130 135/135/135 131/131/131 
f 133/133/133 134/134/134 135/135/135 
f 136/136/136 132/132/132 131/131/131 
f 136/136/136 131/131/131 135/135/135 
f 137/137/137 132/132/132 136/136/136 
f 138/138/138 135/135/135 134/134/134 
f 136/136/136 135/135/135 138/138/138 
f 138/138/138 134/134/134 139/139/139 
f 140/140/140 137/137/137 136/136/136 
f 136/136/136 138/138/138 140/140/140 
f 139/139/139 140/140/140 138/138/138 
f 141/141/141 137/137/137 140/140/140 
f 140/140/140 139/139/139 141/141/141 
f 142/142/142 141/141/141 139/139/139 
f 139/139/139 143/143/143 142/142/142 
f 144/144/144 142/142/142 143/143/143 
f 144/144/144 145/145/145 142/142/142 
f 146/146/146 142/142/142 145/145/145 
f 146/146/146 147/147/147 142/142/142 
f 148/148/148 141/141/141 142/142/142 
f 147/147/147 148/148/148 142/142/142 
f 149/149/149 148/148/148 147/147/147 
f 150/150/150 141/141/141 148/148/148 
f 148/148/148 151/151/151 150/150/150 
f 152/152/152 154/154/154 153/153/153 
f 153/153/153 155/155/155 152/152/152 
f 155/155/155 156/156/156 152/152/152 
f 156/156/156 155/155/155 157/157/157 
f 152/152/152 156/156/156 158/158/158 
f 156/156/156 157/157/157 159/159/159 
f 158/158/158 156/156/156 160/160/160 
f 158/158/158 160/160/160 161/161/161 
f 160/160/160 162/162/162 161/161/161 
f 156/156/156 159/159/159 163/163/163 
f 163/163/163 160/160/160 156/156/156 
f 163/163/163 159/159/159 164/164/164 
f 164/164/164 160/160/160 163/163/163 
f 164/164/164 159/159/159 165/165/165 
f 166/166/166 164/164/164 165/165/165 
f 160/160/160 164/164/164 167/167/167 
f 162/162/162 160/160/160 167/167/167 
f 166/166/166 167/167/167 164/164/164 
f 168/168/168 162/162/162 167/167/167 
f 166/166/166 168/168/168 167/167/167 
f 168/168/168 169/169/169 162/162/162 
f 168/168/168 166/166/166 170/170/170 
f 168/168/168 171/171/171 169/169/169 
f 171/171/171 168/168/168 170/170/170 
f 172/172/172 174/174/174 173/173/173 
f 175/175/175 174/174/174 172/172/172 
f 176/176/176 174/174/174 175/175/175 
f 174/174/174 176/176/176 177/177/177 
f 178/178/178 177/177/177 176/176/176 
f 176/176/176 179/179/179 178/178/178 
f 180/180/180 176/176/176 175/175/175 
f 176/176/176 180/180/180 179/179/179 
f 177/177/177 178/178/178 181/181/181 
f 177/177/177 181/181/181 182/182/182 
f 181/181/181 178/178/178 183/183/183 
f 182/182/182 181/181/181 183/183/183 
f 180/180/180 175/175/175 184/184/184 
f 180/180/180 184/184/184 179/179/179 
f 185/185/185 178/178/178 179/179/179 
f 185/185/185 183/183/183 178/178/178 
f 182/182/182 183/183/183 186/186/186 
f 182/182/182 186/186/186 187/187/187 
f 187/187/187 186/186/186 188/188/188 
f 187/187/187 188/188/188 189/189/189 
f 188/188/188 190/190/190 189/189/189 
f 191/191/191 190/190/190 188/188/188 
f 191/191/191 192/192/192 190/190/190 
f 191/191/191 193/193/193 192/192/192 
f 193/193/193 194/194/194 192/192/192 
f 188/188/188 195/195/195 191/191/191 
f 193/193/193 191/191/191 195/195/195 
f 185/185/185 196/196/196 183/183/183 
f 196/196/196 185/185/185 197/197/197 
f 198/198/198 197/197/197 185/185/185 
f 183/183/183 199/199/199 186/186/186 
f 199/199/199 183/183/183 196/196/196 
f 186/186/186 199/199/199 200/200/200 
f 200/200/200 199/199/199 196/196/196 
f 188/188/188 186/186/186 201/201/201 
f 186/186/186 200/200/200 201/201/201 
f 200/200/200 202/202/202 201/201/201 
f 200/200/200 196/196/196 203/203/203 
f 203/203/203 202/202/202 200/200/200 
f 204/204/204 203/203/203 196/196/196 
f 196/196/196 197/197/197 204/204/204 
f 202/202/202 203/203/203 204/204/204 
f 205/205/205 198/198/198 185/185/185 
f 205/205/205 185/185/185 179/179/179 
f 188/188/188 201/201/201 206/206/206 
f 206/206/206 207/207/207 188/188/188 
f 207/207/207 195/195/195 188/188/188 
f 201/201/201 208/208/208 206/206/206 
f 202/202/202 208/208/208 201/201/201 
f 207/207/207 206/206/206 208/208/208 
f 209/209/209 207/207/207 208/208/208 
f 208/208/208 202/202/202 209/209/209 
f 207/207/207 210/210/210 195/195/195 
f 210/210/210 207/207/207 209/209/209 
f 210/210/210 211/211/211 195/195/195 
f 195/195/195 211/211/211 193/193/193 
f 212/212/212 193/193/193 211/211/211 
f 212/212/212 194/194/194 193/193/193 
f 213/213/213 212/212/212 211/211/211 
f 211/211/211 210/210/210 213/213/213 
f 210/210/210 214/214/214 213/213/213 
f 214/214/214 210/210/210 215/215/215 
f 210/210/210 209/209/209 215/215/215 
f 216/216/216 212/212/212 213/213/213 
f 212/212/212 216/216/216 194/194/194 
f 216/216/216 213/213/213 217/217/217 
f 217/217/217 218/218/218 216/216/216 
f 216/216/216 219/219/219 194/194/194 
f 194/194/194 219/219/219 220/220/220 
f 221/221/221 220/220/220 219/219/219 
f 218/218/218 221/221/221 222/222/222 
f 218/218/218 222/222/222 216/216/216 
f 221/221/221 219/219/219 222/222/222 
f 222/222/222 219/219/219 216/216/216 
f 215/215/215 209/209/209 223/223/223 
f 215/215/215 223/223/223 224/224/224 
f 223/223/223 225/225/225 224/224/224 
f 224/224/224 225/225/225 226/226/226 
f 226/226/226 227/227/227 224/224/224 
f 226/226/226 228/228/228 227/227/227 
f 228/228/228 229/229/229 227/227/227 
f 230/230/230 229/229/229 228/228/228 
f 231/231/231 229/229/229 230/230/230 
f 231/231/231 230/230/230 232/232/232 
f 232/232/232 233/233/233 231/231/231 
f 233/233/233 232/232/232 234/234/234 
f 234/234/234 232/232/232 235/235/235 
f 235/235/235 232/232/232 230/230/230 
f 236/236/236 234/234/234 235/235/235 
f 236/236/236 235/235/235 237/237/237 
f 237/237/237 235/235/235 172/172/172 
f 237/237/237 172/172/172 238/238/238 
f 239/239/239 235/235/235 230/230/230 
f 239/239/239 172/172/172 235/235/235 
f 239/239/239 230/230/230 240/240/240 
f 240/240/240 172/172/172 239/239/239 
f 240/240/240 230/230/230 228/228/228 
f 175/175/175 172/172/172 240/240/240 
f 228/228/228 241/241/241 240/240/240 
f 240/240/240 241/241/241 175/175/175 
f 226/226/226 241/241/241 228/228/228 
f 241/241/241 184/184/184 175/175/175 
f 242/242/242 184/184/184 241/241/241 
f 242/242/242 241/241/241 226/226/226 
f 243/243/243 184/184/184 242/242/242 
f 179/179/179 184/184/184 243/243/243 
f 226/226/226 244/244/244 242/242/242 
f 244/244/244 243/243/243 242/242/242 
f 243/243/243 245/245/245 179/179/179 
f 245/245/245 243/243/243 244/244/244 
f 245/245/245 205/205/205 179/179/179 
f 245/245/245 246/246/246 205/205/205 
f 244/244/244 246/246/246 245/245/245 
f 247/247/247 205/205/205 246/246/246 
f 247/247/247 246/246/246 244/244/244 
f 247/247/247 198/198/198 205/205/205 
f 248/248/248 244/244/244 226/226/226 
f 248/248/248 247/247/247 244/244/244 
f 248/248/248 198/198/198 247/247/247 
f 248/248/248 226/226/226 225/225/225 
f 248/248/248 225/225/225 198/198/198 
f 223/223/223 198/198/198 225/225/225 
f 197/197/197 198/198/198 223/223/223 
f 223/223/223 249/249/249 197/197/197 
f 209/209/209 249/249/249 223/223/223 
f 209/209/209 250/250/250 249/249/249 
f 249/249/249 250/250/250 197/197/197 
f 209/209/209 251/251/251 250/250/250 
f 251/251/251 197/197/197 250/250/250 
f 202/202/202 251/251/251 209/209/209 
f 251/251/251 252/252/252 197/197/197 
f 197/197/197 252/252/252 204/204/204 
f 202/202/202 204/204/204 253/253/253 
f 251/251/251 202/202/202 253/253/253 
f 253/253/253 252/252/252 251/251/251 
f 252/252/252 253/253/253 204/204/204 
f 254/254/254 256/256/256 255/255/255 
f 257/257/257 254/254/254 255/255/255 
f 256/256/256 258/258/258 255/255/255 
f 255/255/255 259/259/259 257/257/257 
f 260/260/260 255/255/255 258/258/258 
f 260/260/260 259/259/259 255/255/255 
