# exported by StudySceneExporter from mesh 'flower_pot_lod2'
mtllib materials.mtl
v 0.4470843 0.1851885 0.5938777
v 0.4839205 -7.57344E-09 0.5938777
v 0.5242112 -8.048913E-09 0.5938777
v 0.4843079 0.200607 0.5938777
v 0.3421834 0.3421835 0.5938777
v 0.3706732 0.3706733 0.5938777
v 0.200607 0.4843079 0.5938777
v 0.1851884 0.4470843 0.5938777
v 5.461577E-08 0.5242112 0.5938777
v 5.041803E-08 0.4839205 0.5938777
v -0.200607 0.4843079 0.5938777
v -0.1851884 0.4470843 0.5938777
v -0.3421835 0.3421835 0.5938777
v -0.3706733 0.3706733 0.5938777
v -0.484308 0.2006069 0.5938777
v -0.4470843 0.1851884 0.5938777
v -0.4839205 1.935009E-08 0.5938777
v -0.5242112 2.111624E-08 0.5938777
v -0.4137985 0.1714009 0.8000086
v -0.4478922 1.790946E-08 0.8000086
v -0.5416294 2.181272E-08 0.8000001
v -0.5004003 0.2072726 0.8000001
v -0.3167076 0.3167076 0.8000086
v -0.3829898 0.3829898 0.8000001
v -0.1714009 0.4137984 0.8000086
v -0.2072726 0.5004003 0.8000001
v 4.666436E-08 0.4478922 0.8000086
v 5.643052E-08 0.5416294 0.8000001
v 0.1714009 0.4137984 0.8000086
v 0.2072726 0.5004003 0.8000001
v 0.3829898 0.3829898 0.8000001
v 0.3167076 0.3167076 0.8000086
v 0.4137984 0.171401 0.8000086
v 0.5004003 0.2072727 0.8000001
v 0.5416294 -8.321511E-09 0.8000001
v 0.4478922 -7.009589E-09 0.8000086
v 0.4137984 -0.171401 0.8000086
v 0.4478922 -7.009589E-09 0.8000086
v 0.5416294 -8.321511E-09 0.8000001
v 0.5004002 -0.2072727 0.8000001
v 0.3167076 -0.3167076 0.8000086
v 0.3829898 -0.3829898 0.8000001
v 0.2072726 -0.5004003 0.8000001
v 0.1714009 -0.4137985 0.8000086
v 9.07977E-09 -0.5416294 0.8000001
v 7.508378E-09 -0.4478922 0.8000086
v -0.1714009 -0.4137984 0.8000086
v -0.2072726 -0.5004003 0.8000001
v -0.3829898 -0.3829898 0.8000001
v -0.3167076 -0.3167076 0.8000086
v -0.4137984 -0.1714009 0.8000086
v -0.5004003 -0.2072726 0.8000001
v -0.4478922 1.790946E-08 0.8000086
v -0.5416294 2.181272E-08 0.8000001
v -0.5416294 2.181272E-08 0.8000001
v -0.5242112 2.111624E-08 0.5938777
v -0.484308 0.2006069 0.5938777
v -0.5004003 0.2072726 0.8000001
v -0.3829898 0.3829898 0.8000001
v -0.3706733 0.3706733 0.5938777
v -0.200607 0.4843079 0.5938777
v -0.2072726 0.5004003 0.8000001
v 5.461577E-08 0.5242112 0.5938777
v 5.643052E-08 0.5416294 0.8000001
v 0.2072726 0.5004003 0.8000001
v 0.200607 0.4843079 0.5938777
v 0.3829898 0.3829898 0.8000001
v 0.3706732 0.3706733 0.5938777
v 0.4843079 0.200607 0.5938777
v 0.5004003 0.2072727 0.8000001
v 0.5242112 -8.048913E-09 0.5938777
v 0.5416294 -8.321511E-09 0.8000001
v -0.4470843 -0.1851884 0.5938777
v -0.4839205 1.935009E-08 0.5938777
v -0.5242112 2.111624E-08 0.5938777
v -0.4843079 -0.2006069 0.5938777
v -0.3421835 -0.3421835 0.5938777
v -0.3706733 -0.3706733 0.5938777
v -0.2006069 -0.4843079 0.5938777
v -0.1851884 -0.4470843 0.5938777
v 8.112351E-09 -0.4839205 0.5938777
v 8.787775E-09 -0.5242112 0.5938777
v 0.1851884 -0.4470843 0.5938777
v 0.200607 -0.484308 0.5938777
v 0.3421836 -0.3421834 0.5938777
v 0.3706734 -0.3706732 0.5938777
v 0.4843079 -0.200607 0.5938777
v 0.4470843 -0.1851885 0.5938777
v 0.4839205 -7.57344E-09 0.5938777
v 0.5242112 -8.048913E-09 0.5938777
v 0.3094248 -0.3094247 0
v 0.4042829 -0.1674595 0
v 0.4375927 -6.8484E-09 0
v 6.519258E-09 4.656613E-10 0
v 7.335719E-09 -0.4375927 0
v 0.1674595 -0.4042829 0
v 0.3094247 0.3094248 0
v 0.4042829 0.1674595 0
v -0.3094247 -0.3094247 0
v -0.1674594 -0.4042829 0
v 4.559128E-08 0.4375927 0
v 0.1674595 0.4042829 0
v -0.4375927 1.749762E-08 0
v -0.4042829 -0.1674594 0
v -0.3094247 0.3094247 0
v -0.1674595 0.4042829 0
v -0.4042829 0.1674594 0
v 0.4137984 0.171401 0.8000086
v 0.4478922 -7.009589E-09 0.8000086
v 0.4361284 -7.021172E-09 0.6650305
v 0.4029301 0.1668992 0.6650305
v 0.3167076 0.3167076 0.8000086
v 0.3083893 0.3083894 0.6650305
v 0.1714009 0.4137984 0.8000086
v 0.1668991 0.4029301 0.6650305
v 4.666436E-08 0.4478922 0.8000086
v 4.583011E-08 0.4361284 0.6650305
v -0.1714009 0.4137984 0.8000086
v -0.1668991 0.4029301 0.6650305
v -0.3083894 0.3083894 0.6650305
v -0.3167076 0.3167076 0.8000086
v -0.4137985 0.1714009 0.8000086
v -0.4029301 0.1668991 0.6650305
v -0.4478922 1.790946E-08 0.8000086
v -0.4361284 1.724339E-08 0.6650305
v -0.4478922 1.790946E-08 0.8000086
v -0.4361284 1.724339E-08 0.6650305
v -0.4029301 -0.1668991 0.6650305
v -0.4137984 -0.1714009 0.8000086
v -0.3083894 -0.3083894 0.6650305
v -0.3167076 -0.3167076 0.8000086
v -0.1714009 -0.4137984 0.8000086
v -0.1668991 -0.4029301 0.6650305
v 7.508378E-09 -0.4478922 0.8000086
v 7.702548E-09 -0.4361284 0.6650305
v 0.1714009 -0.4137985 0.8000086
v 0.1668991 -0.4029301 0.6650305
v 0.3083894 -0.3083893 0.6650305
v 0.3167076 -0.3167076 0.8000086
v 0.4029301 -0.1668992 0.6650305
v 0.4137984 -0.171401 0.8000086
v 0.4361284 -7.021172E-09 0.6650305
v 0.4478922 -7.009589E-09 0.8000086
v -0.4839205 1.935009E-08 0.5938777
v -0.4375927 1.749762E-08 0
v -0.4042829 0.1674594 0
v -0.4470843 0.1851884 0.5938777
v -0.3094247 0.3094247 0
v -0.3421835 0.3421835 0.5938777
v -0.1674595 0.4042829 0
v -0.1851884 0.4470843 0.5938777
v 4.559128E-08 0.4375927 0
v 5.041803E-08 0.4839205 0.5938777
v 0.1674595 0.4042829 0
v 0.1851884 0.4470843 0.5938777
v 0.3094247 0.3094248 0
v 0.3421834 0.3421835 0.5938777
v 0.4042829 0.1674595 0
v 0.4470843 0.1851885 0.5938777
v 0.4375927 -6.8484E-09 0
v 0.4839205 -7.57344E-09 0.5938777
v 0.4839205 -7.57344E-09 0.5938777
v 0.4375927 -6.8484E-09 0
v 0.4042829 -0.1674595 0
v 0.4470843 -0.1851885 0.5938777
v 0.3094248 -0.3094247 0
v 0.3421836 -0.3421834 0.5938777
v 0.1674595 -0.4042829 0
v 0.1851884 -0.4470843 0.5938777
v 8.112351E-09 -0.4839205 0.5938777
v 7.335719E-09 -0.4375927 0
v -0.1851884 -0.4470843 0.5938777
v -0.1674594 -0.4042829 0
v -0.3094247 -0.3094247 0
v -0.3421835 -0.3421835 0.5938777
v -0.4470843 -0.1851884 0.5938777
v -0.4042829 -0.1674594 0
v -0.4375927 1.749762E-08 0
v -0.4839205 1.935009E-08 0.5938777
v 0.3489684 0.4081587 1.829395
v 0.2997074 0.3332414 1.765084
v 0.2792539 0.3517749 1.765084
v 0.1642421 0.2528596 1.638421
v 0.2125714 0.209067 1.638421
v 0.01361003 0.1194118 1.299752
v 0.09457011 0.04605151 1.299752
v -0.06151268 0.06270432 0.7743415
v 0.04551869 -0.03427983 0.7743415
v -0.03580213 0.07782461 0.5602602
v 0.05803967 -0.007208112 0.5602602
v 0.7930784 0.3484152 1.87998
v 0.7011853 0.290738 1.823541
v 0.6887377 0.3186829 1.823541
v 0.5110188 0.2623419 1.70857
v 0.540431 0.1963113 1.70857
v 0.2514228 0.1734228 1.368939
v 0.3006936 0.06280999 1.368939
v 0.07444992 0.1159368 0.8073584
v 0.1395871 -0.03029631 0.8073584
v 0.1329702 -0.02244581 0.5680111
v 0.07585985 0.1057669 0.568011
v -0.423208 0.7099161 1.846306
v -0.3545183 0.6293721 1.790977
v -0.3797607 0.6133866 1.790977
v -0.3002706 0.4498101 1.678331
v -0.2406256 0.4875821 1.678331
v -0.1779366 0.2120882 1.346097
v -0.07802081 0.2753629 1.346097
v -0.0979047 0.05011959 0.797259
v 0.03418663 0.1337704 0.797259
v -0.08852255 0.05331051 0.5634886
v 0.02729105 0.126653 0.5634886
v -0.8144972 0.1070112 1.826271
v -0.7108929 0.1041461 1.771389
v -0.715846 0.07523067 1.771389
v -0.5449148 0.02566845 1.659825
v -0.5332112 0.09399233 1.659825
v -0.2929072 -0.04124148 1.332202
v -0.2733016 0.073213 1.332202
v -0.1250806 -0.08895882 0.7923675
v -0.09916142 0.062353 0.7923675
v -0.0997363 0.05285483 0.5628272
v -0.1224614 -0.07981074 0.5628271
v 0.7250961 -0.5230388 1.831162
v 0.6297401 -0.4746031 1.777813
v 0.6468725 -0.4501016 1.777813
v 0.5086062 -0.3285613 1.668574
v 0.4681244 -0.3864557 1.668574
v 0.2987363 -0.1527128 1.341284
v 0.2309221 -0.2496961 1.341284
v 0.1537524 -0.02808474 0.7956362
v 0.06410033 -0.1562992 0.7956362
v 0.1426585 -0.03209009 0.5618054
v 0.06405433 -0.1445046 0.5618054
v 0.7014136 -0.3250561 2.061443
v 0.5932052 -0.2962667 1.991768
v 0.6062909 -0.2659836 1.991768
v 0.4412058 -0.170159 1.852642
v 0.4102857 -0.2417145 1.852642
v 0.2080202 -0.04073009 1.464605
v 0.1562237 -0.1605981 1.464605
v 0.07691184 0.03882726 0.8453411
v 0.008435592 -0.1196413 0.8453411
v 0.08828406 0.02232586 0.5877765
v 0.02824619 -0.1166146 0.5877765
v -0.7154354 -0.7034397 1.87303
v -0.6462018 -0.6135442 1.82031
v -0.6242768 -0.635878 1.82031
v -0.4704293 -0.5147327 1.711365
v -0.5222358 -0.4619604 1.711365
v -0.242414 -0.3258745 1.376882
v -0.3291988 -0.2374717 1.376882
v -0.07497144 -0.1894478 0.8114876
v -0.1897032 -0.07257702 0.8114876
v -0.07207353 -0.1724619 0.5670037
v -0.1726668 -0.0699932 0.5670037
v -0.1960022 -0.7075905 1.960818
v -0.1859119 -0.6006993 1.896811
v -0.1555424 -0.6081393 1.896811
v -0.09150224 -0.4362781 1.768428
v -0.1632621 -0.4186982 1.768428
v -0.005750388 -0.1910653 1.405552
v -0.1259607 -0.1616158 1.405552
v 0.05054563 -0.04501752 0.821487
v -0.1083755 -0.006084578 0.821487
v 0.03804142 -0.05368947 0.5771006
v -0.1012958 -0.01955426 0.5771006
v 0.6831118 0.5698692 1.284861
v 0.6282122 0.5088122 1.258314
v 0.6141971 0.5252296 1.258314
v 0.4962799 0.443908 1.200267
v 0.529396 0.4051153 1.200267
v 0.3099268 0.3074638 0.9963646
v 0.365402 0.2424792 0.9963646
v 0.1525376 0.191194 0.6276233
v 0.2258772 0.1052828 0.6276233
v 0.1340022 0.1662199 0.4614668
v 0.1983041 0.09089556 0.4614668
v 0.09207974 0.8979278 1.74036
v 0.09500828 0.7946178 1.692003
v 0.0666386 0.7977566 1.692003
v 0.02781416 0.6237149 1.592167
v 0.09484851 0.6162984 1.592167
v -0.02431214 0.3596143 1.286396
v 0.08798218 0.3471904 1.286396
v -0.06380824 0.1680515 0.7702321
v 0.0846478 0.1516267 0.7702321
v -0.05599573 0.154976 0.5472303
v 0.07416596 0.1405753 0.5472303
v 0.5115672 0.8830082 1.676923
v 0.4707484 0.7851196 1.634537
v 0.4461004 0.7995669 1.634537
v 0.3368064 0.6516054 1.545055
v 0.3950468 0.617468 1.545055
v 0.1726365 0.4165894 1.255063
v 0.2701995 0.3594032 1.255063
v 0.04338228 0.2320818 0.750568
v 0.1723631 0.1564802 0.750568
v 0.03865612 0.205802 0.528432
v 0.1517425 0.1395168 0.528432
v -0.2355331 0.8760576 1.422383
v -0.202514 0.7934099 1.389965
v -0.2254909 0.7876266 1.389965
v -0.2035743 0.6344066 1.320519
v -0.1492824 0.6480721 1.320519
v -0.1622533 0.3928119 1.087525
v -0.07130472 0.415704 1.087525
v -0.1282837 0.1959891 0.6751449
v -0.008047286 0.226253 0.6751449
v -0.1144032 0.1721411 0.4916609
v -0.008983664 0.1986757 0.4916609
v -0.7298616 0.6892463 1.44455
v -0.6472397 0.6368966 1.412075
v -0.6637872 0.6171281 1.412075
v -0.5450034 0.4947888 1.341401
v -0.5059035 0.5414996 1.341401
v -0.3487624 0.3037053 1.095705
v -0.2832633 0.3819541 1.095705
v -0.1832352 0.1437221 0.6534814
v -0.09664369 0.247169 0.6534814
v -0.1513486 0.1278709 0.4547599
v -0.07542776 0.2185701 0.4547599
v -0.9637258 0.296862 1.871531
v -0.8513193 0.2773184 1.818866
v -0.8609185 0.2473865 1.818866
v -0.6810328 0.1672024 1.709941
v -0.6583509 0.2379282 1.709941
v -0.4057326 0.0525818 1.37475
v -0.3677365 0.17106 1.37475
v -0.2048026 -0.03289489 0.8074389
v -0.1545709 0.1237364 0.8074389
v -0.1877581 -0.02771755 0.5619252
v -0.1437165 0.1096119 0.5619252
v -1.030381 0.4738415 1.796782
v -0.9191707 0.4369164 1.751024
v -0.9330066 0.4086538 1.751024
v -0.7280923 0.367249 1.654078
v -0.7607852 0.3004676 1.654078
v -0.4868449 0.1384123 1.337198
v -0.4320785 0.2502829 1.337198
v -0.2695617 0.009711787 0.7835305
v -0.1971591 0.1576077 0.7835305
v -0.2385545 0.005828805 0.5390939
v -0.1750741 0.1354994 0.5390939
v -0.8973782 -0.3632311 1.359614
v -0.8218676 -0.3206908 1.329784
v -0.8133549 -0.3419799 1.329784
v -0.6681408 -0.3007411 1.265272
v -0.6882554 -0.2504374 1.265272
v -0.438047 -0.2284324 1.044098
v -0.4717424 -0.1441648 1.044098
v -0.247036 -0.1677919 0.6485749
v -0.2915823 -0.05638787 0.6485749
v -0.2229952 -0.1502172 0.4715104
v -0.262052 -0.05254152 0.4715104
v -0.8908392 -0.4524984 1.785557
v -0.8013127 -0.3904698 1.736763
v -0.7878342 -0.4171076 1.736763
v -0.6117002 -0.3507849 1.635434
v -0.6435484 -0.2878428 1.635434
v -0.3459175 -0.2429898 1.320319
v -0.3992688 -0.1375505 1.320319
v -0.1476099 -0.1639714 0.7839035
v -0.2181417 -0.02457792 0.7839035
v -0.137176 -0.1479041 0.5509025
v -0.1990162 -0.02568822 0.5509025
v -0.8819221 -0.6913791 1.655032
v -0.8059614 -0.6134841 1.615451
v -0.7881026 -0.6362834 1.615451
v -0.627782 -0.5357716 1.53064
v -0.6699805 -0.4818996 1.53064
v -0.3782984 -0.3696938 1.245968
v -0.4489884 -0.2794487 1.245968
v -0.1751152 -0.2339844 0.7420068
v -0.2685691 -0.114678 0.7420068
v -0.2372267 -0.1019888 0.5177446
v -0.1552891 -0.2065929 0.5177445
v -0.3994997 -0.9631528 1.466336
v -0.3751229 -0.8707241 1.433318
v -0.3517307 -0.8803554 1.433318
v -0.2727495 -0.7338065 1.361956
v -0.3280226 -0.7110489 1.361956
v -0.1531702 -0.4963772 1.11763
v -0.2457623 -0.4582542 1.11763
v -0.05448691 -0.299045 0.6809895
v -0.1768962 -0.2486454 0.6809895
v -0.04999403 -0.2667088 0.4855919
v -0.1573187 -0.22252 0.4855919
v -0.1058038 -1.139357 1.794692
v -0.1114655 -1.022676 1.748614
v -0.08017006 -1.025385 1.748614
v -0.04145603 -0.8264229 1.651143
v -0.1154037 -0.8200199 1.651143
v 0.01073751 -0.5141149 1.333728
v -0.1131378 -0.5033886 1.333728
v 0.05219743 -0.2673773 0.7801659
v -0.111569 -0.2531968 0.7801659
v -0.0990058 -0.2255138 0.5360566
v 0.04457961 -0.2379468 0.5360566
v 0.3289554 -0.8934126 1.716467
v 0.2789191 -0.8024339 1.670037
v 0.3054921 -0.792268 1.670037
v 0.2598628 -0.6187351 1.573591
v 0.1970737 -0.6427559 1.573591
v 0.1836568 -0.3560213 1.273468
v 0.07847402 -0.3962606 1.273468
v 0.1280637 -0.1599566 0.762393
v -0.01099071 -0.2131539 0.762393
v 0.1138005 -0.1483473 0.5403489
v -0.008118119 -0.194989 0.5403489
v 0.5648034 -1.007303 1.645026
v 0.4972817 -0.9177048 1.607544
v 0.5230538 -0.9031684 1.607544
v 0.3841579 -0.7581856 1.526063
v 0.4450544 -0.7238379 1.526063
v 0.3118655 -0.4396589 1.243479
v 0.2098532 -0.4971973 1.243479
v 0.1992878 -0.2016802 0.7354265
v 0.06442495 -0.2777476 0.7354265
v 0.1716649 -0.1721258 0.5072713
v 0.05342119 -0.2388193 0.5072714
v 0.8923992 -0.5616721 1.431616
v 0.805383 -0.5205543 1.401703
v 0.8190464 -0.4993675 1.401703
v 0.6555814 -0.444389 1.335819
v 0.6878663 -0.3943271 1.335819
v 0.4704261 -0.2301703 1.100776
v 0.4163429 -0.3140329 1.100776
v 0.2834172 -0.09044911 0.67276
v 0.2119178 -0.2013176 0.67276
v 0.2473942 -0.07689011 0.4791226
v 0.1847057 -0.1740962 0.4791227
v 1.011869 -0.1439854 1.708704
v 0.9043797 -0.1444151 1.664315
v 0.9082009 -0.1155766 1.664315
v 0.7272227 -0.07159949 1.571061
v 0.7181937 -0.1397417 1.571061
v 0.4452098 -0.01082404 1.272449
v 0.4300845 -0.1249742 1.272449
v 0.2268833 0.0368072 0.7561611
v 0.2068872 -0.1141022 0.7561611
v 0.1854092 -0.1017948 0.5296988
v 0.2029412 0.03051799 0.5296988
v 0.979046 0.1131229 1.893663
v 0.868214 0.08342094 1.839711
v 0.8643168 0.1148975 1.839711
v 0.6663973 0.1121708 1.728398
v 0.6756059 0.03779535 1.728398
v 0.3681327 0.1007351 1.388054
v 0.3835587 -0.02385693 1.388054
v 0.1519764 0.09434063 0.8140775
v 0.17237 -0.0703733 0.8140775
v 0.1403185 0.08259273 0.5662516
v 0.1581989 -0.06182339 0.5662516
v 0.9696773 0.1703939 1.44714
v 0.8813466 0.141513 1.41401
v 0.8768595 0.1657813 1.41401
v 0.715645 0.1530763 1.342786
v 0.7262474 0.09573311 1.342786
v 0.46012 0.1258511 1.101864
v 0.4778809 0.02979121 1.101864
v 0.2503501 0.1030613 0.6737699
v 0.2738305 -0.02393241 0.6737699
v 0.2233389 0.08997476 0.4828463
v 0.2439258 -0.02136939 0.4828463
v -0.5834563 0.01006927 0.9995423
v -0.5431393 0.01241424 0.9856426
v -0.5439353 0.00176021 0.9856426
v -0.474709 -0.01071179 0.955582
v -0.4728284 0.01446248 0.955582
v -0.3635927 -0.02755838 0.8525217
v -0.3604424 0.01461295 0.8525217
v -0.2712245 -0.04128651 0.6682205
v -0.2670597 0.0144651 0.6682205
v -0.2575632 -0.03885271 0.585714
v -0.2539117 0.01002859 0.585714
v -0.5004003 -0.2072726 0.8000001
v -0.5242112 2.111624E-08 0.5938777
v -0.5416294 2.181272E-08 0.8000001
v -0.4843079 -0.2006069 0.5938777
v -0.3829898 -0.3829898 0.8000001
v -0.3706733 -0.3706733 0.5938777
v -0.2006069 -0.4843079 0.5938777
v -0.2072726 -0.5004003 0.8000001
v 8.787775E-09 -0.5242112 0.5938777
v 9.07977E-09 -0.5416294 0.8000001
v 0.2072726 -0.5004003 0.8000001
v 0.200607 -0.484308 0.5938777
v 0.3829898 -0.3829898 0.8000001
v 0.3706734 -0.3706732 0.5938777
v 0.5004002 -0.2072727 0.8000001
v 0.4843079 -0.200607 0.5938777
v 0.5242112 -8.048913E-09 0.5938777
v 0.5416294 -8.321511E-09 0.8000001
v 0.4029301 0.1668992 0.6650305
v 0.4361284 -7.021172E-09 0.6650305
v 0.3603795 0 0.6926881
v 0.4029301 -0.1668992 0.6650305
v 0.3358082 0.1433328 0.691373
v 0.3083893 0.3083894 0.6650305
v 0.3358082 -0.1433328 0.691373
v 0.3083894 -0.3083893 0.6650305
v 0.1801898 7.322826E-10 0.7346262
v 0.2641418 0.2641418 0.6889624
v 0.1433328 0.3358082 0.691373
v 0.1668991 0.4029301 0.6650305
v 0.1692692 0.1692692 0.7223305
v 0 -1.098424E-09 0.7498727
v 0.1692692 -0.1692692 0.7223305
v 0.2641418 -0.2641418 0.6889624
v 0.1433328 -0.3358082 0.691373
v 0.1668991 -0.4029301 0.6650305
v 0 0.3603795 0.6926881
v 4.583011E-08 0.4361284 0.6650305
v -0.1668991 0.4029301 0.6650305
v 0 0.1801898 0.7346262
v -0.1433328 0.3358082 0.691373
v -0.3083894 0.3083894 0.6650305
v 0 -0.1801898 0.7346262
v 0 -0.3603795 0.6926881
v 7.702548E-09 -0.4361284 0.6650305
v -0.1668991 -0.4029301 0.6650305
v -0.1433328 -0.3358082 0.691373
v -0.3083894 -0.3083894 0.6650305
v -0.1692692 0.1692692 0.7223305
v -0.2641418 0.2641418 0.6889624
v -0.3358082 0.1433328 0.691373
v -0.4029301 0.1668991 0.6650305
v -0.1692692 -0.1692692 0.7223305
v -0.1801898 0 0.7346262
v -0.3603795 0 0.6926881
v -0.4361284 1.724339E-08 0.6650305
v -0.4029301 -0.1668991 0.6650305
v -0.3358082 -0.1433328 0.691373
v -0.2641418 -0.2641418 0.6889624
vt 0.9583341 0.2915109
vt 0.9583341 0.2175723
vt 0.9431871 0.2175723
vt 0.9431871 0.2915109
vt 0.9583341 0.3654497
vt 0.9431871 0.3654497
vt 0.9431874 0.4393885
vt 0.9583344 0.4393885
vt 0.9431874 0.5133271
vt 0.9583344 0.5133271
vt 0.9431874 0.5872657
vt 0.9583344 0.5872657
vt 0.9583344 0.6612045
vt 0.9431875 0.6612045
vt 0.9431875 0.7351431
vt 0.9583344 0.7351431
vt 0.9583345 0.8090822
vt 0.9431875 0.8090822
vt 0.08141125 0.9520597
vt 0.00883765 0.9520598
vt 0.008837651 0.9872994
vt 0.08141125 0.9872993
vt 0.153985 0.9520596
vt 0.153985 0.9872993
vt 0.2265587 0.9520596
vt 0.2265587 0.9872993
vt 0.2991323 0.9520596
vt 0.2991323 0.9872993
vt 0.371706 0.9520596
vt 0.371706 0.9872993
vt 0.4442796 0.9872992
vt 0.4442796 0.9520596
vt 0.5168534 0.9520595
vt 0.5168534 0.9872991
vt 0.589427 0.9872991
vt 0.589427 0.9520595
vt 0.8535455 0.4201094
vt 0.8535454 0.3475357
vt 0.8183059 0.3475357
vt 0.8183061 0.4201094
vt 0.8535455 0.4926831
vt 0.8183061 0.4926831
vt 0.8183061 0.5652567
vt 0.8535455 0.5652567
vt 0.8183061 0.6378304
vt 0.8535455 0.6378303
vt 0.8535455 0.7104041
vt 0.8183061 0.7104041
vt 0.8183063 0.7829778
vt 0.8535456 0.7829778
vt 0.8535456 0.8555514
vt 0.8183063 0.8555514
vt 0.8535457 0.928125
vt 0.8183063 0.928125
vt 0.008843659 0.855574
vt 0.00884366 0.9340924
vt 0.08777164 0.9340924
vt 0.08777151 0.8555738
vt 0.1666994 0.8555738
vt 0.1666994 0.9340924
vt 0.2456273 0.9340923
vt 0.2456273 0.8555738
vt 0.3245551 0.9340923
vt 0.324555 0.8555738
vt 0.4034829 0.8555737
vt 0.4034829 0.9340922
vt 0.4824106 0.8555737
vt 0.4824106 0.934092
vt 0.5613385 0.934092
vt 0.5613385 0.8555737
vt 0.6402664 0.934092
vt 0.6402663 0.8555737
vt 0.991164 0.08278269
vt 0.991164 0.008843492
vt 0.9760171 0.008843492
vt 0.9760171 0.08278269
vt 0.991164 0.1567218
vt 0.9760171 0.1567218
vt 0.9760172 0.2306608
vt 0.9911643 0.2306608
vt 0.9911643 0.3045997
vt 0.9760172 0.3045997
vt 0.9911643 0.3785388
vt 0.9760172 0.3785389
vt 0.9911644 0.4524778
vt 0.9760176 0.4524778
vt 0.9760176 0.526417
vt 0.9911644 0.526417
vt 0.9911644 0.6003559
vt 0.9760176 0.6003559
vt 0.6255546 0.07947676
vt 0.6007516 0.1393571
vt 0.6007516 0.2041708
vt 0.7636719 0.1717641
vt 0.7312651 0.00884361
vt 0.6713848 0.03364662
vt 0.6713849 0.3098812
vt 0.6255547 0.2640508
vt 0.8559587 0.03364674
vt 0.7960789 0.00884361
vt 0.7960787 0.3346841
vt 0.7312651 0.3346843
vt 0.9265923 0.139357
vt 0.901789 0.07947676
vt 0.9017892 0.2640508
vt 0.855959 0.3098811
vt 0.9265922 0.2041708
vt 0.9255017 0.3873999
vt 0.9255017 0.3219366
vt 0.8740726 0.3219367
vt 0.8740726 0.3873999
vt 0.9255018 0.4528631
vt 0.8740728 0.4528631
vt 0.9255018 0.5183262
vt 0.874073 0.5183262
vt 0.9255018 0.5837893
vt 0.874073 0.5837893
vt 0.9255018 0.6492524
vt 0.874073 0.6492524
vt 0.874073 0.7147156
vt 0.9255018 0.7147156
vt 0.9255019 0.7801789
vt 0.8740731 0.7801789
vt 0.9255019 0.8456421
vt 0.8740731 0.8456421
vt 0.008839373 0.7846818
vt 0.008839463 0.8361108
vt 0.07430265 0.8361108
vt 0.07430244 0.7846819
vt 0.1397661 0.8361107
vt 0.139766 0.7846818
vt 0.2052297 0.7846817
vt 0.2052297 0.8361105
vt 0.2706932 0.7846817
vt 0.2706932 0.8361105
vt 0.3361565 0.7846817
vt 0.3361565 0.8361105
vt 0.4016199 0.8361103
vt 0.4016199 0.7846814
vt 0.4670835 0.8361103
vt 0.4670835 0.7846814
vt 0.5325471 0.8361103
vt 0.5325471 0.7846814
vt 0.7985665 0.5834843
vt 0.7985665 0.3573738
vt 0.7303256 0.3573739
vt 0.7303258 0.5834842
vt 0.6620851 0.3573739
vt 0.6620851 0.5834843
vt 0.5938442 0.3573739
vt 0.5938442 0.5834844
vt 0.5256034 0.357374
vt 0.5256035 0.5834844
vt 0.4573627 0.357374
vt 0.4573628 0.5834844
vt 0.3891219 0.357374
vt 0.3891219 0.5834845
vt 0.3208812 0.357374
vt 0.3208813 0.5834845
vt 0.2526405 0.3573741
vt 0.2526405 0.5834846
vt 0.2349528 0.008842722
vt 0.008842207 0.008842778
vt 0.008842208 0.07708361
vt 0.2349528 0.07708349
vt 0.008842268 0.1453242
vt 0.2349528 0.1453241
vt 0.008842268 0.2135649
vt 0.2349529 0.2135648
vt 0.2349529 0.2818054
vt 0.008842268 0.2818056
vt 0.2349529 0.3500462
vt 0.008842267 0.3500463
vt 0.008842267 0.418287
vt 0.2349529 0.4182869
vt 0.2349529 0.4865277
vt 0.008842267 0.4865277
vt 0.008842328 0.5547683
vt 0.2349531 0.5547682
vt 0.6866946 0.7318773
vt 0.6354797 0.7383285
vt 0.635481 0.7254165
vt 0.5434502 0.7166088
vt 0.5434476 0.7471193
vt 0.359445 0.7062915
vt 0.3594403 0.7574016
vt 0.109875 0.6980387
vt 0.1098686 0.7656077
vt 0.008842896 0.7021929
vt 0.008837488 0.7614352
vt 0.6866946 0.7318773
vt 0.6354797 0.7383285
vt 0.635481 0.7254165
vt 0.5434502 0.7166088
vt 0.5434476 0.7471193
vt 0.359445 0.7062915
vt 0.3594403 0.7574016
vt 0.109875 0.6980387
vt 0.1098686 0.7656077
vt 0.008837488 0.7614352
vt 0.008842896 0.7021929
vt 0.6866946 0.7318773
vt 0.6354797 0.7383285
vt 0.635481 0.7254165
vt 0.5434502 0.7166088
vt 0.5434476 0.7471193
vt 0.359445 0.7062915
vt 0.3594403 0.7574016
vt 0.109875 0.6980387
vt 0.1098686 0.7656077
vt 0.008842896 0.7021929
vt 0.008837488 0.7614352
vt 0.6866946 0.7318773
vt 0.6354797 0.7383285
vt 0.635481 0.7254165
vt 0.5434502 0.7166088
vt 0.5434476 0.7471193
vt 0.359445 0.7062915
vt 0.3594403 0.7574016
vt 0.109875 0.6980387
vt 0.1098686 0.7656077
vt 0.008837488 0.7614352
vt 0.008842896 0.7021929
vt 0.6866946 0.7318773
vt 0.6354797 0.7383285
vt 0.635481 0.7254165
vt 0.5434502 0.7166088
vt 0.5434476 0.7471193
vt 0.359445 0.7062915
vt 0.3594403 0.7574016
vt 0.109875 0.6980387
vt 0.1098686 0.7656077
vt 0.008842896 0.7021929
vt 0.008837488 0.7614352
vt 0.6866946 0.7318773
vt 0.6354797 0.7383285
vt 0.635481 0.7254165
vt 0.5434502 0.7166088
vt 0.5434476 0.7471193
vt 0.359445 0.7062915
vt 0.3594403 0.7574016
vt 0.109875 0.6980387
vt 0.1098686 0.7656077
vt 0.008842896 0.7021929
vt 0.008837488 0.7614352
vt 0.6866946 0.7318773
vt 0.6354797 0.7383285
vt 0.635481 0.7254165
vt 0.5434502 0.7166088
vt 0.5434476 0.7471193
vt 0.359445 0.7062915
vt 0.3594403 0.7574016
vt 0.109875 0.6980387
vt 0.1098686 0.7656077
vt 0.008842896 0.7021929
vt 0.008837488 0.7614352
vt 0.6866946 0.7318773
vt 0.6354797 0.7383285
vt 0.635481 0.7254165
vt 0.5434502 0.7166088
vt 0.5434476 0.7471193
vt 0.359445 0.7062915
vt 0.3594403 0.7574016
vt 0.109875 0.6980387
vt 0.1098686 0.7656077
vt 0.008842896 0.7021929
vt 0.008837488 0.7614352
vt 0.6866946 0.7318773
vt 0.6354797 0.7383285
vt 0.635481 0.7254165
vt 0.5434502 0.7166088
vt 0.5434476 0.7471193
vt 0.359445 0.7062915
vt 0.3594403 0.7574016
vt 0.109875 0.6980387
vt 0.1098686 0.7656077
vt 0.008842896 0.7021929
vt 0.008837488 0.7614352
vt 0.6866946 0.7318773
vt 0.6354797 0.7383285
vt 0.635481 0.7254165
vt 0.5434502 0.7166088
vt 0.5434476 0.7471193
vt 0.359445 0.7062915
vt 0.3594403 0.7574016
vt 0.109875 0.6980387
vt 0.1098686 0.7656077
vt 0.008842896 0.7021929
vt 0.008837488 0.7614352
vt 0.6866946 0.7318773
vt 0.6354797 0.7383285
vt 0.635481 0.7254165
vt 0.5434502 0.7166088
vt 0.5434476 0.7471193
vt 0.359445 0.7062915
vt 0.3594403 0.7574016
vt 0.109875 0.6980387
vt 0.1098686 0.7656077
vt 0.008842896 0.7021929
vt 0.008837488 0.7614352
vt 0.6866946 0.7318773
vt 0.6354797 0.7383285
vt 0.635481 0.7254165
vt 0.5434502 0.7166088
vt 0.5434476 0.7471193
vt 0.359445 0.7062915
vt 0.3594403 0.7574016
vt 0.109875 0.6980387
vt 0.1098686 0.7656077
vt 0.008842896 0.7021929
vt 0.008837488 0.7614352
vt 0.6866946 0.7318773
vt 0.6354797 0.7383285
vt 0.635481 0.7254165
vt 0.5434502 0.7166088
vt 0.5434476 0.7471193
vt 0.359445 0.7062915
vt 0.3594403 0.7574016
vt 0.109875 0.6980387
vt 0.1098686 0.7656077
vt 0.008842896 0.7021929
vt 0.008837488 0.7614352
vt 0.6866946 0.7318773
vt 0.6354797 0.7383285
vt 0.635481 0.7254165
vt 0.5434502 0.7166088
vt 0.5434476 0.7471193
vt 0.359445 0.7062915
vt 0.3594403 0.7574016
vt 0.109875 0.6980387
vt 0.1098686 0.7656077
vt 0.008842896 0.7021929
vt 0.008837488 0.7614352
vt 0.6866946 0.7318773
vt 0.6354797 0.7383285
vt 0.635481 0.7254165
vt 0.5434476 0.7471193
vt 0.5434502 0.7166088
vt 0.359445 0.7062915
vt 0.3594403 0.7574016
vt 0.109875 0.6980387
vt 0.1098686 0.7656077
vt 0.008842896 0.7021929
vt 0.008837488 0.7614352
vt 0.6866946 0.7318773
vt 0.6354797 0.7383285
vt 0.635481 0.7254165
vt 0.5434502 0.7166088
vt 0.5434476 0.7471193
vt 0.359445 0.7062915
vt 0.3594403 0.7574016
vt 0.109875 0.6980387
vt 0.1098686 0.7656077
vt 0.008842896 0.7021929
vt 0.008837488 0.7614352
vt 0.6866946 0.7318773
vt 0.6354797 0.7383285
vt 0.635481 0.7254165
vt 0.5434502 0.7166088
vt 0.5434476 0.7471193
vt 0.359445 0.7062915
vt 0.3594403 0.7574016
vt 0.109875 0.6980387
vt 0.1098686 0.7656077
vt 0.008842896 0.7021929
vt 0.008837488 0.7614352
vt 0.6866946 0.7318773
vt 0.6354797 0.7383285
vt 0.635481 0.7254165
vt 0.5434502 0.7166088
vt 0.5434476 0.7471193
vt 0.359445 0.7062915
vt 0.3594403 0.7574016
vt 0.109875 0.6980387
vt 0.1098686 0.7656077
vt 0.008837488 0.7614352
vt 0.008842896 0.7021929
vt 0.6866946 0.7318773
vt 0.6354797 0.7383285
vt 0.635481 0.7254165
vt 0.5434502 0.7166088
vt 0.5434476 0.7471193
vt 0.359445 0.7062915
vt 0.3594403 0.7574016
vt 0.109875 0.6980387
vt 0.1098686 0.7656077
vt 0.008842896 0.7021929
vt 0.008837488 0.7614352
vt 0.6866946 0.7318773
vt 0.6354797 0.7383285
vt 0.635481 0.7254165
vt 0.5434502 0.7166088
vt 0.5434476 0.7471193
vt 0.359445 0.7062915
vt 0.3594403 0.7574016
vt 0.109875 0.6980387
vt 0.1098686 0.7656077
vt 0.008837488 0.7614352
vt 0.008842896 0.7021929
vt 0.6866946 0.7318773
vt 0.6354797 0.7383285
vt 0.635481 0.7254165
vt 0.5434502 0.7166088
vt 0.5434476 0.7471193
vt 0.359445 0.7062915
vt 0.3594403 0.7574016
vt 0.109875 0.6980387
vt 0.1098686 0.7656077
vt 0.008842896 0.7021929
vt 0.008837488 0.7614352
vt 0.6866946 0.7318773
vt 0.6354797 0.7383285
vt 0.635481 0.7254165
vt 0.5434476 0.7471193
vt 0.5434502 0.7166088
vt 0.359445 0.7062915
vt 0.3594403 0.7574016
vt 0.109875 0.6980387
vt 0.1098686 0.7656077
vt 0.008842896 0.7021929
vt 0.008837488 0.7614352
vt 0.6866946 0.7318773
vt 0.6354797 0.7383285
vt 0.635481 0.7254165
vt 0.5434476 0.7471193
vt 0.5434502 0.7166088
vt 0.359445 0.7062915
vt 0.3594403 0.7574016
vt 0.109875 0.6980387
vt 0.1098686 0.7656077
vt 0.008842896 0.7021929
vt 0.008837488 0.7614352
vt 0.6866946 0.7318773
vt 0.6354797 0.7383285
vt 0.635481 0.7254165
vt 0.5434502 0.7166088
vt 0.5434476 0.7471193
vt 0.359445 0.7062915
vt 0.3594403 0.7574016
vt 0.109875 0.6980387
vt 0.1098686 0.7656077
vt 0.008837488 0.7614352
vt 0.008842896 0.7021929
vt 0.6866946 0.7318773
vt 0.6354797 0.7383285
vt 0.635481 0.7254165
vt 0.5434502 0.7166088
vt 0.5434476 0.7471193
vt 0.359445 0.7062915
vt 0.3594403 0.7574016
vt 0.109875 0.6980387
vt 0.1098686 0.7656077
vt 0.008842896 0.7021929
vt 0.008837488 0.7614352
vt 0.6866946 0.7318773
vt 0.6354797 0.7383285
vt 0.635481 0.7254165
vt 0.5434502 0.7166088
vt 0.5434476 0.7471193
vt 0.359445 0.7062915
vt 0.3594403 0.7574016
vt 0.109875 0.6980387
vt 0.1098686 0.7656077
vt 0.008842896 0.7021929
vt 0.008837488 0.7614352
vt 0.6866946 0.7318773
vt 0.6354797 0.7383285
vt 0.635481 0.7254165
vt 0.5434502 0.7166088
vt 0.5434476 0.7471193
vt 0.359445 0.7062915
vt 0.3594403 0.7574016
vt 0.109875 0.6980387
vt 0.1098686 0.7656077
vt 0.008842896 0.7021929
vt 0.008837488 0.7614352
vt 0.08776744 0.6800709
vt 0.008839432 0.6015524
vt 0.008839432 0.6800709
vt 0.08776744 0.6015522
vt 0.1666954 0.6800709
vt 0.1666954 0.6015522
vt 0.2456232 0.6015522
vt 0.2456232 0.6800708
vt 0.3245509 0.6015521
vt 0.3245509 0.6800706
vt 0.4034789 0.6800705
vt 0.4034789 0.6015521
vt 0.4824067 0.6800705
vt 0.4824066 0.6015521
vt 0.5613346 0.6800705
vt 0.5613344 0.6015521
vt 0.6402622 0.601552
vt 0.6402623 0.6800705
vt 0.5112852 0.03388209
vt 0.4505976 0.008840935
vt 0.4445877 0.03916778
vt 0.3849465 0.008845142
vt 0.4963984 0.0589781
vt 0.5578606 0.08036587
vt 0.3891373 0.03772202
vt 0.3241642 0.03405369
vt 0.43099 0.1077824
vt 0.5363572 0.09475607
vt 0.5541921 0.1453393
vt 0.5830691 0.1411484
vt 0.4928098 0.1238981
vt 0.4178562 0.174058
vt 0.3676962 0.09910417
vt 0.3385541 0.05555692
vt 0.3027763 0.09551577
vt 0.27768 0.08062886
vt 0.5527465 0.2007896
vt 0.5830731 0.2067994
vt 0.5580322 0.2674873
vt 0.4841316 0.187192
vt 0.532936 0.2526003
vt 0.5115483 0.3140623
vt 0.3515806 0.160924
vt 0.2829658 0.1473266
vt 0.2526389 0.1413164
vt 0.2526433 0.2069674
vt 0.2815201 0.2027766
vt 0.2778517 0.2677501
vt 0.468016 0.2490118
vt 0.4971582 0.2925593
vt 0.4465748 0.3103939
vt 0.4507658 0.3392708
vt 0.3429024 0.2242178
vt 0.4047222 0.2403336
vt 0.3911245 0.3089483
vt 0.3851146 0.3392754
vt 0.3244271 0.314234
vt 0.3393138 0.2891379
vt 0.299355 0.25336
vn -2.538856E-07 0 -1
vn 0 0 -1
vn 0 0 -1
vn -2.136258E-07 0 -1
vn 0 0 -1
vn 0 0 -1
vn 2.136256E-07 0 -1
vn 2.49639E-07 0 -1
vn 0 0 -1
vn 0 0 -1
vn -2.136256E-07 0 -1
vn -2.49639E-07 0 -1
vn 0 0 -1
vn 0 0 -1
vn 8.545024E-07 0 -1
vn 9.985564E-07 0 -1
vn 1.965952E-07 0 -1
vn 1.202947E-07 0 -1
vn -8.374688E-05 3.479717E-05 1
vn -9.150695E-05 0 1
vn -9.08803E-05 0 1
vn -8.316198E-05 3.479717E-05 1
vn -6.443955E-05 6.429679E-05 1
vn -6.410303E-05 6.42968E-05 1
vn -3.428607E-05 8.40078E-05 1
vn -3.41231E-05 8.400781E-05 1
vn 0 9.092945E-05 1
vn 0 9.092942E-05 1
vn 3.472337E-05 8.400777E-05 1
vn 3.470441E-05 8.400773E-05 1
vn 6.432322E-05 6.429681E-05 1
vn 6.445849E-05 6.429684E-05 1
vn 8.369875E-05 3.479717E-05 1
vn 8.359738E-05 3.479717E-05 1
vn 9.139209E-05 0 1
vn 9.181848E-05 0 1
vn 8.458524E-05 -3.479716E-05 1
vn 9.181848E-05 0 1
vn 9.139209E-05 0 1
vn 8.38378E-05 -3.479717E-05 1
vn 6.371718E-05 -6.429679E-05 1
vn 6.327331E-05 -6.429681E-05 1
vn 3.489125E-05 -8.400784E-05 1
vn 3.493002E-05 -8.400784E-05 1
vn 0 -9.092942E-05 1
vn 0 -9.092942E-05 1
vn -3.443636E-05 -8.400784E-05 1
vn -3.432098E-05 -8.400784E-05 1
vn -6.451297E-05 -6.429679E-05 1
vn -6.492218E-05 -6.429676E-05 1
vn -8.406127E-05 -3.479715E-05 1
vn -8.380815E-05 -3.479717E-05 1
vn -9.150695E-05 0 1
vn -9.08803E-05 0 1
vn -0.9964485 0 -0.08420407
vn -0.9964485 0 -0.0842041
vn -0.9205984 0.3813243 -0.08420402
vn -0.9205984 0.3813244 -0.08420415
vn -0.7045954 0.7045956 -0.08420398
vn -0.7045956 0.7045954 -0.08420379
vn -0.3813244 0.9205984 -0.08420393
vn -0.3813244 0.9205984 -0.08420403
vn 0 0.9964485 -0.08420394
vn 0 0.9964485 -0.08420396
vn 0.3813244 0.9205984 -0.08420419
vn 0.3813244 0.9205984 -0.08420417
vn 0.7045953 0.7045956 -0.08420425
vn 0.7045953 0.7045956 -0.08420426
vn 0.9205983 0.3813245 -0.08420421
vn 0.9205984 0.3813244 -0.08420415
vn 0.9964485 -1.004936E-07 -0.0842041
vn 0.9964485 0 -0.08420408
vn 2.654118E-07 0 -1
vn 1.965952E-07 0 -1
vn 1.202947E-07 0 -1
vn 2.136255E-07 0 -1
vn 0 0 -1
vn 0 0 -1
vn -2.136254E-07 0 -1
vn -2.496387E-07 0 -1
vn 2.496394E-07 0 -1
vn 1.803806E-07 0 -1
vn 0 0 -1
vn 0 0 -1
vn 0 0 -1
vn 0 0 -1
vn 0 0 -1
vn 0 0 -1
vn 0 0 -1
vn 0 0 -1
vn 0 0 -1
vn 0 0 -1
vn 0 0 -1
vn 0 0 -1
vn 0 0 -1
vn 0 0 -1
vn 0 0 -1
vn 0 0 -1
vn 0 0 -1
vn 0 0 -1
vn 0 0 -1
vn 0 0 -1
vn 0 0 -1
vn 0 0 -1
vn 0 0 -1
vn 0 0 -1
vn 0 0 -1
vn -0.9203905 -0.3812383 0.08682416
vn -0.9962237 1.173151E-07 0.08682393
vn -0.9962237 0 0.08682404
vn -0.9203905 -0.3812384 0.08682427
vn -0.7044364 -0.7044365 0.08682437
vn -0.7044365 -0.7044365 0.08682432
vn -0.3812383 -0.9203907 0.08682425
vn -0.3812385 -0.9203905 0.08682409
vn -1.270914E-07 -0.9962237 0.08682406
vn -1.770017E-07 -0.9962237 0.08682401
vn 0.3812382 -0.9203907 0.08682401
vn 0.3812384 -0.9203907 0.08682383
vn 0.7044364 -0.7044365 0.08682416
vn 0.7044363 -0.7044366 0.08682436
vn 0.9203907 -0.3812381 0.08682411
vn 0.9203908 -0.3812381 0.08682405
vn 0.9962237 0 0.08682394
vn 0.9962237 0 0.08682387
vn 0.9962237 0 0.08682394
vn 0.9962237 0 0.08682387
vn 0.9203905 0.3812384 0.08682387
vn 0.9203907 0.3812383 0.08682396
vn 0.7044365 0.7044365 0.08682409
vn 0.7044363 0.7044366 0.0868242
vn 0.3812382 0.9203907 0.08682418
vn 0.3812384 0.9203905 0.08682422
vn 2.150778E-07 0.9962237 0.08682425
vn 2.057047E-07 0.9962236 0.08682434
vn -0.3812384 0.9203905 0.08682407
vn -0.3812387 0.9203905 0.08682384
vn -0.7044365 0.7044365 0.08682416
vn -0.7044365 0.7044365 0.08682444
vn -0.9203905 0.3812383 0.08682407
vn -0.9203907 0.3812383 0.0868241
vn -0.9962237 0 0.08682404
vn -0.9962237 1.173151E-07 0.08682393
vn -0.9969711 -2.343706E-07 -0.07777288
vn -0.9969711 2.682004E-07 -0.07777285
vn -0.9210812 0.3815243 -0.07777287
vn -0.9210812 0.3815242 -0.07777288
vn -0.7049652 0.7049649 -0.07777289
vn -0.704965 0.7049652 -0.07777291
vn -0.3815244 0.9210812 -0.07777291
vn -0.3815242 0.9210813 -0.07777287
vn 0 0.9969711 -0.07777285
vn 0 0.9969711 -0.07777281
vn 0.3815243 0.9210812 -0.0777728
vn 0.3815243 0.9210812 -0.07777281
vn 0.7049649 0.7049652 -0.07777283
vn 0.704965 0.7049652 -0.07777285
vn 0.9210812 0.3815243 -0.07777287
vn 0.9210812 0.3815244 -0.07777287
vn 0.9969711 -2.490432E-07 -0.07777285
vn 0.9969711 0 -0.07777287
vn 0.9969711 0 -0.07777287
vn 0.9969711 -2.490432E-07 -0.07777285
vn 0.9210812 -0.3815243 -0.07777289
vn 0.9210812 -0.3815244 -0.07777289
vn 0.7049652 -0.7049649 -0.07777295
vn 0.7049651 -0.7049651 -0.07777291
vn 0.3815244 -0.9210812 -0.07777291
vn 0.3815242 -0.9210812 -0.07777296
vn 0 -0.9969711 -0.07777299
vn 0 -0.9969711 -0.07777285
vn -0.3815243 -0.9210812 -0.07777292
vn -0.3815244 -0.9210812 -0.07777287
vn -0.704965 -0.7049651 -0.07777288
vn -0.7049651 -0.7049651 -0.07777289
vn -0.9210812 -0.3815243 -0.07777287
vn -0.9210812 -0.3815242 -0.07777285
vn -0.9969711 2.682004E-07 -0.07777285
vn -0.9969711 -2.343706E-07 -0.07777288
vn -0.3944607 -0.4353226 0.8092559
vn -0.4150004 -0.4579924 0.786141
vn -0.4150002 -0.4579924 0.786141
vn -0.5161185 -0.5695873 0.6396812
vn -0.5161186 -0.5695872 0.639681
vn -0.6310636 -0.6964391 0.3416595
vn -0.6310637 -0.6964392 0.3416593
vn -0.671316 -0.7408619 0.02141123
vn -0.671316 -0.7408619 0.02141115
vn -0.6656105 -0.7345654 -0.1318193
vn -0.6656104 -0.7345654 -0.1318193
vn -0.4249004 -0.1892628 0.8852339
vn -0.4555874 -0.2029334 0.8667516
vn -0.4555871 -0.2029336 0.8667516
vn -0.6109383 -0.2721322 0.7434369
vn -0.6109384 -0.2721322 0.7434368
vn -0.8047855 -0.3584789 0.4730889
vn -0.8047856 -0.3584789 0.4730888
vn -0.9009904 -0.4013318 0.1647694
vn -0.9009904 -0.4013318 0.1647694
vn -0.913411 -0.4068643 0.01190705
vn -0.913411 -0.4068643 0.01190706
vn 0.2497928 -0.3944447 0.8843172
vn 0.2677492 -0.4227951 0.8657683
vn 0.2677499 -0.4227951 0.865768
vn 0.3586054 -0.566268 0.7421204
vn 0.3586051 -0.566268 0.7421205
vn 0.471857 -0.745101 0.4713551
vn 0.4718571 -0.7451009 0.471355
vn 0.5278797 -0.8335645 0.162829
vn 0.5278798 -0.8335645 0.1628289
vn 0.5349935 -0.8447977 0.009940067
vn 0.5349936 -0.8447976 0.009940038
vn 0.4649051 -0.07963666 0.8817716
vn 0.4978812 -0.08528477 0.8630416
vn 0.4978814 -0.08528465 0.8630415
vn 0.6646009 -0.1138436 0.738475
vn 0.664601 -0.1138437 0.7384749
vn 0.8717888 -0.1493343 0.4665657
vn 0.8717889 -0.1493343 0.4665656
vn 0.9733459 -0.1667306 0.1574764
vn 0.9733459 -0.1667307 0.1574764
vn 0.9856339 -0.1688355 0.004517755
vn 0.9856339 -0.1688355 0.004517749
vn -0.3687001 0.2578085 0.8930818
vn -0.3964857 0.2772401 0.8751782
vn -0.396485 0.2772404 0.8751785
vn -0.5375746 0.375892 0.7547972
vn -0.5375751 0.3758918 0.7547969
vn -0.7152594 0.5001346 0.4881283
vn -0.7152596 0.5001346 0.4881282
vn -0.8058904 0.5635069 0.1816604
vn -0.8058905 0.5635068 0.1816602
vn -0.8191804 0.5727996 0.02905367
vn -0.8191804 0.5727996 0.02905368
vn -0.4888176 0.2112242 0.8464288
vn -0.5182459 0.2239407 0.8253919
vn -0.518246 0.2239407 0.8253918
vn -0.6650959 0.2873961 0.6892393
vn -0.6650959 0.2873963 0.6892393
vn -0.84003 0.3629873 0.4032245
vn -0.8400299 0.3629874 0.4032245
vn -0.9144307 0.3951367 0.08765583
vn -0.9144306 0.3951367 0.08765578
vn -0.9159746 0.3958039 -0.06580094
vn -0.9159746 0.395804 -0.06580096
vn 0.3030739 0.2975277 0.9053306
vn 0.3276185 0.3216225 0.8883834
vn 0.3276188 0.3216224 0.8883833
vn 0.4528263 0.44454 0.7728729
vn 0.4528263 0.4445401 0.7728729
vn 0.6128163 0.6016002 0.5123801
vn 0.6128164 0.6016003 0.5123801
vn 0.6978276 0.6850557 0.2091297
vn 0.6978276 0.6850558 0.2091297
vn 0.7124452 0.699406 0.05703695
vn 0.712445 0.699406 0.0570369
vn 0.122815 0.5012953 0.8565159
vn 0.1305321 0.5328186 0.8361015
vn 0.1305314 0.5328187 0.8361015
vn 0.1692128 0.6907126 0.7030528
vn 0.1692131 0.6907126 0.7030526
vn 0.2158587 0.8811177 0.4207573
vn 0.2158587 0.8811177 0.4207571
vn 0.2365853 0.9657224 0.1068065
vn 0.2365853 0.9657224 0.1068064
vn 0.237688 0.9702237 -0.04658949
vn 0.237688 0.9702237 -0.0465895
vn -0.2358225 -0.2013172 0.9507151
vn -0.2633678 -0.2248308 0.9381304
vn -0.2633681 -0.2248309 0.9381301
vn -0.406612 -0.347113 0.8450912
vn -0.4066119 -0.347113 0.8450912
vn -0.6002151 -0.5123842 0.6141695
vn -0.6002151 -0.5123843 0.6141695
vn -0.7185154 -0.6133736 0.3278849
vn -0.7185153 -0.6133736 0.327885
vn -0.748212 -0.6387248 0.1794693
vn -0.748212 -0.638725 0.1794693
vn -0.04696825 -0.424556 0.9041827
vn -0.05074966 -0.4586961 0.8871427
vn -0.05074987 -0.4586961 0.8871428
vn -0.0700105 -0.6327817 0.7711587
vn -0.07001036 -0.6327817 0.7711588
vn -0.09458578 -0.8549204 0.5100633
vn -0.09458575 -0.8549204 0.5100633
vn -0.1075965 -0.9725141 0.2064927
vn -0.1075965 -0.9725141 0.2064927
vn -0.109804 -0.9924664 0.05434541
vn -0.109804 -0.9924664 0.05434544
vn -0.1891437 -0.3226925 0.9274126
vn -0.206984 -0.3531263 0.9123921
vn -0.2069845 -0.3531263 0.912392
vn -0.2988011 -0.5097724 0.8067529
vn -0.2988009 -0.5097724 0.8067529
vn -0.4192786 -0.7153138 0.5590453
vn -0.4192785 -0.7153139 0.5590451
vn -0.4879006 -0.8323869 0.2628403
vn -0.4879006 -0.8323869 0.2628403
vn -0.5024928 -0.8572816 0.1121117
vn -0.5024928 -0.8572816 0.1121117
vn 0.08420034 -0.3345251 0.9386178
vn 0.09292018 -0.3691727 0.924704
vn 0.09291967 -0.3691725 0.924704
vn 0.1380241 -0.54836 0.824773
vn 0.1380244 -0.5483602 0.8247728
vn 0.1980342 -0.7867741 0.5846101
vn 0.1980342 -0.7867742 0.58461
vn 0.2333944 -0.9272586 0.2927773
vn 0.2333944 -0.9272586 0.2927772
vn 0.2415811 -0.9597831 0.143021
vn 0.241581 -0.9597831 0.143021
vn 0.2435412 -0.2038582 0.9482245
vn 0.2712377 -0.2270408 0.9353516
vn 0.2712383 -0.2270407 0.9353515
vn 0.4150867 -0.3474536 0.8408204
vn 0.4150865 -0.3474537 0.8408205
vn 0.6088687 -0.5096607 0.6078857
vn 0.6088686 -0.5096606 0.6078857
vn 0.7263951 -0.6080375 0.3203758
vn 0.7263951 -0.6080375 0.3203757
vn 0.7554318 -0.6323428 0.171655
vn 0.7554318 -0.6323429 0.171655
vn 0.4022395 -0.1289974 0.9064012
vn 0.4350308 -0.1395136 0.8895416
vn 0.4350308 -0.1395134 0.8895416
vn 0.6023856 -0.1931851 0.7744747
vn 0.6023858 -0.1931853 0.7744746
vn 0.8164995 -0.261852 0.5145504
vn 0.8164995 -0.2618521 0.5145503
vn 0.9306679 -0.2984658 0.2116022
vn 0.9306679 -0.2984657 0.2116021
vn 0.9505398 -0.3048386 0.05956169
vn 0.9505398 -0.3048386 0.05956165
vn 0.329284 -0.1611998 0.9303691
vn 0.3610744 -0.1767623 0.9156312
vn 0.3610743 -0.1767625 0.9156311
vn 0.5249052 -0.2569678 0.8114443
vn 0.5249052 -0.2569679 0.8114443
vn 0.7406563 -0.362589 0.5656479
vn 0.7406563 -0.3625891 0.5656478
vn 0.8646576 -0.4232941 0.2705355
vn 0.8646576 -0.4232939 0.2705355
vn 0.8916549 -0.4365106 0.1200421
vn 0.891655 -0.4365105 0.1200421
vn 0.304572 0.1217884 0.944671
vn 0.3379738 0.1351433 0.9314021
vn 0.3379739 0.1351433 0.9314021
vn 0.5111846 0.2044022 0.8348114
vn 0.5111846 0.2044024 0.8348114
vn 0.7434362 0.2972721 0.5991092
vn 0.7434362 0.2972721 0.5991092
vn 0.8828002 0.352998 0.3099296
vn 0.8828 0.3529981 0.3099296
vn 0.9164378 0.3664488 0.160801
vn 0.9164377 0.366449 0.1608011
vn 0.3676926 0.1860488 0.9111465
vn 0.3985878 0.2016819 0.8946799
vn 0.3985881 0.2016819 0.8946798
vn 0.5565631 0.2816159 0.7816201
vn 0.556563 0.281616 0.7816201
vn 0.7598221 0.3844631 0.5242695
vn 0.7598221 0.3844632 0.5242695
vn 0.86987 0.4401465 0.2227044
vn 0.86987 0.4401466 0.2227043
vn 0.8900324 0.4503487 0.07091117
vn 0.8900323 0.4503487 0.07091113
vn 0.2712661 0.212487 0.9387566
vn 0.2993991 0.2345227 0.9248564
vn 0.299399 0.2345226 0.9248564
vn 0.4448951 0.3484907 0.8249985
vn 0.4448951 0.3484908 0.8249984
vn 0.6385125 0.500154 0.5849339
vn 0.6385126 0.5001541 0.5849339
vn 0.7526486 0.5895575 0.2931587
vn 0.7526487 0.5895574 0.2931587
vn 0.7790989 0.610276 0.1434159
vn 0.7790989 0.6102759 0.1434159
vn 0.1252847 0.3042843 0.9443065
vn 0.1389752 0.3375359 0.930997
vn 0.1389753 0.337536 0.9309969
vn 0.2099547 0.5099323 0.8341991
vn 0.2099548 0.5099325 0.834199
vn 0.3050851 0.7409838 0.598219
vn 0.3050852 0.7409838 0.598219
vn 0.3621064 0.8794751 0.308873
vn 0.3621064 0.8794751 0.308873
vn 0.3758358 0.9128209 0.1597042
vn 0.3758357 0.9128211 0.1597042
vn 0.03190553 0.3684482 0.9291006
vn 0.03495258 0.4036613 0.9142406
vn 0.03495184 0.4036614 0.9142406
vn 0.05065891 0.5850331 0.8094257
vn 0.05065925 0.5850331 0.8094257
vn 0.07130729 0.8235102 0.5628023
vn 0.07130728 0.8235102 0.5628023
vn 0.08312979 0.9600443 0.267216
vn 0.08312977 0.9600443 0.2672161
vn 0.08567818 0.9894741 0.1166198
vn 0.08567821 0.9894742 0.1166196
vn -0.1470136 0.3842902 0.9114318
vn -0.1593878 0.4166412 0.8949891
vn -0.1593869 0.4166413 0.8949893
vn -0.2226812 0.5820746 0.7820502
vn -0.2226815 0.5820745 0.78205
vn -0.3041392 0.7949994 0.5248573
vn -0.3041391 0.7949995 0.5248573
vn -0.3482813 0.910386 0.2233777
vn -0.3482813 0.910386 0.2233777
vn -0.3563926 0.9315888 0.07160015
vn -0.3563926 0.9315888 0.07160022
vn -0.1568988 0.2781829 0.9476271
vn -0.174633 0.3096196 0.9346865
vn -0.1746334 0.3096196 0.9346865
vn -0.2667118 0.4728619 0.8398014
vn -0.266712 0.4728617 0.8398014
vn -0.3906454 0.6925917 0.6063935
vn -0.3906454 0.6925917 0.6063934
vn -0.4656762 0.8256164 0.3185958
vn -0.4656761 0.8256164 0.3185957
vn -0.4841417 0.858355 0.169804
vn -0.4841415 0.8583552 0.1698041
vn -0.2514094 0.162133 0.9542044
vn -0.2819646 0.1818397 0.9420351
vn -0.2819648 0.1818396 0.9420351
vn -0.4411313 0.2844863 0.8511585
vn -0.4411316 0.2844863 0.8511583
vn -0.657263 0.4238704 0.6231688
vn -0.6572629 0.4238705 0.6231688
vn -0.790728 0.5099432 0.3386844
vn -0.7907281 0.5099432 0.3386844
vn -0.8249688 0.5320247 0.1907257
vn -0.8249689 0.5320244 0.1907256
vn -0.381375 0.05053228 0.9230383
vn -0.4161733 0.05514291 0.9076117
vn -0.4161733 0.05514266 0.9076117
vn -0.5949535 0.07883396 0.7998846
vn -0.5949537 0.07883397 0.7998846
vn -0.8282893 0.1097509 0.5494465
vn -0.8282894 0.1097509 0.5494463
vn -0.9594205 0.127127 0.251696
vn -0.9594205 0.127127 0.2516959
vn -0.9863018 0.1306887 0.1006448
vn -0.9863018 0.1306887 0.1006448
vn -0.425624 -0.05269836 0.9033642
vn -0.45968 -0.0569148 0.886259
vn -0.4596801 -0.05691496 0.8862589
vn -0.63328 -0.07840784 0.7699407
vn -0.6332798 -0.07840776 0.7699408
vn -0.8545851 -0.1058078 0.5084183
vn -0.8545851 -0.1058079 0.5084182
vn -0.9714237 -0.120274 0.2046222
vn -0.9714237 -0.120274 0.2046221
vn -0.991057 -0.1227049 0.0524367
vn -0.991057 -0.1227048 0.05243669
vn -0.3328098 -0.06153578 0.9409841
vn -0.368038 -0.06804823 0.9273174
vn -0.3680378 -0.06804811 0.9273174
vn -0.5504121 -0.1017681 0.8286675
vn -0.5504124 -0.1017682 0.8286673
vn -0.793794 -0.1467679 0.590212
vn -0.7937941 -0.1467679 0.5902119
vn -0.9382287 -0.1734734 0.2993891
vn -0.9382287 -0.1734735 0.299389
vn -0.9722272 -0.1797598 0.1498685
vn -0.9722272 -0.1797599 0.1498684
vn 0.3271104 -0.02443917 0.9446701
vn 0.3629815 -0.02711957 0.9314016
vn 0.3629812 -0.02712025 0.9314017
vn 0.5490064 -0.04101082 0.8348114
vn 0.5490065 -0.04101077 0.8348114
vn 0.7984425 -0.05964593 0.5991094
vn 0.7984425 -0.05964603 0.5991092
vn 0.9481177 -0.07082672 0.3099296
vn 0.9481178 -0.0708266 0.3099295
vn 0.9842444 -0.07352518 0.1608008
vn 0.9842445 -0.07352504 0.1608007
vn -0.9205984 -0.3813242 -0.08420425
vn -0.9964485 0 -0.0842041
vn -0.9964485 0 -0.08420407
vn -0.9205983 -0.3813244 -0.08420411
vn -0.7045956 -0.7045956 -0.08420395
vn -0.7045954 -0.7045957 -0.08420371
vn -0.3813244 -0.9205983 -0.08420392
vn -0.3813246 -0.9205983 -0.08420399
vn 0 -0.9964485 -0.08420394
vn 0 -0.9964485 -0.08420397
vn 0.3813244 -0.9205984 -0.08420387
vn 0.3813245 -0.9205983 -0.08420393
vn 0.7045956 -0.7045956 -0.08420386
vn 0.7045956 -0.7045954 -0.08420405
vn 0.9205984 -0.3813244 -0.08420397
vn 0.9205983 -0.3813246 -0.08420404
vn 0.9964485 -1.004936E-07 -0.0842041
vn 0.9964485 0 -0.08420408
vn 0.3217496 0.1309435 0.9377265
vn 0.3429756 0 0.9393443
vn 0.2914942 0 0.9565726
vn 0.3217495 -0.1309434 0.9377265
vn 0.272045 0.1138756 0.9555229
vn 0.2511845 0.2511852 0.9347792
vn 0.2720452 -0.1138756 0.9555228
vn 0.2511848 -0.2511852 0.9347792
vn 0.1493033 0 0.9887915
vn 0.2183342 0.2183348 0.9511362
vn 0.1138756 0.2720456 0.9555227
vn 0.1309434 0.32175 0.9377264
vn 0.1329457 0.1329456 0.9821665
vn 0 0 1
vn 0.1329456 -0.1329456 0.9821665
vn 0.2183342 -0.2183348 0.9511362
vn 0.1138757 -0.2720454 0.9555227
vn 0.1309438 -0.3217498 0.9377264
vn 0 0.2914942 0.9565726
vn 0 0.3429749 0.9393445
vn -0.1309435 0.32175 0.9377264
vn 0 0.1493033 0.9887915
vn -0.1138757 0.2720456 0.9555227
vn -0.2511848 0.2511852 0.9347792
vn 0 -0.1493033 0.9887915
vn 1.025771E-07 -0.2914942 0.9565726
vn 3.36635E-07 -0.3429749 0.9393445
vn -0.1309434 -0.32175 0.9377264
vn -0.1138756 -0.2720456 0.9555227
vn -0.2511845 -0.2511852 0.9347792
vn -0.1329457 0.1329456 0.9821665
vn -0.2183344 0.2183348 0.9511362
vn -0.2720455 0.1138756 0.9555227
vn -0.3217502 0.1309432 0.9377263
vn -0.1329456 -0.1329456 0.9821665
vn -0.1493033 0 0.9887915
vn -0.2914941 0 0.9565726
vn -0.3429752 0 0.9393445
vn -0.3217502 -0.1309432 0.9377263
vn -0.2720453 -0.1138756 0.9555228
vn -0.2183339 -0.2183347 0.9511362
usemtl Material256px
f 1/1/1 3/3/3 2/2/2 
f 1/1/1 4/4/4 3/3/3 
f 5/5/5 4/4/4 1/1/1 
f 5/5/5 6/6/6 4/4/4 
f 5/5/5 7/7/7 6/6/6 
f 5/5/5 8/8/8 7/7/7 
f 8/8/8 9/9/9 7/7/7 
f 8/8/8 10/10/10 9/9/9 
f 10/10/10 11/11/11 9/9/9 
f 10/10/10 12/12/12 11/11/11 
f 13/13/13 11/11/11 12/12/12 
f 13/13/13 14/14/14 11/11/11 
f 13/13/13 15/15/15 14/14/14 
f 13/13/13 16/16/16 15/15/15 
f 17/17/17 15/15/15 16/16/16 
f 17/17/17 18/18/18 15/15/15 
f 19/19/19 21/21/21 20/20/20 
f 19/19/19 22/22/22 21/21/21 
f 23/23/23 22/22/22 19/19/19 
f 23/23/23 24/24/24 22/22/22 
f 25/25/25 24/24/24 23/23/23 
f 25/25/25 26/26/26 24/24/24 
f 27/27/27 26/26/26 25/25/25 
f 27/27/27 28/28/28 26/26/26 
f 29/29/29 28/28/28 27/27/27 
f 29/29/29 30/30/30 28/28/28 
f 29/29/29 31/31/31 30/30/30 
f 29/29/29 32/32/32 31/31/31 
f 33/33/33 31/31/31 32/32/32 
f 33/33/33 34/34/34 31/31/31 
f 33/33/33 35/35/35 34/34/34 
f 33/33/33 36/36/36 35/35/35 
f 37/37/37 39/39/39 38/38/38 
f 37/37/37 40/40/40 39/39/39 
f 41/41/41 40/40/40 37/37/37 
f 41/41/41 42/42/42 40/40/40 
f 41/41/41 43/43/43 42/42/42 
f 41/41/41 44/44/44 43/43/43 
f 44/44/44 45/45/45 43/43/43 
f 44/44/44 46/46/46 45/45/45 
f 47/47/47 45/45/45 46/46/46 
f 47/47/47 48/48/48 45/45/45 
f 47/47/47 49/49/49 48/48/48 
f 47/47/47 50/50/50 49/49/49 
f 51/51/51 49/49/49 50/50/50 
f 51/51/51 52/52/52 49/49/49 
f 53/53/53 52/52/52 51/51/51 
f 53/53/53 54/54/54 52/52/52 
f 55/55/55 57/57/57 56/56/56 
f 55/55/55 58/58/58 57/57/57 
f 57/57/57 58/58/58 59/59/59 
f 57/57/57 59/59/59 60/60/60 
f 59/59/59 61/61/61 60/60/60 
f 59/59/59 62/62/62 61/61/61 
f 62/62/62 63/63/63 61/61/61 
f 62/62/62 64/64/64 63/63/63 
f 63/63/63 64/64/64 65/65/65 
f 63/63/63 65/65/65 66/66/66 
f 66/66/66 65/65/65 67/67/67 
f 66/66/66 67/67/67 68/68/68 
f 67/67/67 69/69/69 68/68/68 
f 67/67/67 70/70/70 69/69/69 
f 70/70/70 71/71/71 69/69/69 
f 70/70/70 72/72/72 71/71/71 
f 73/73/73 75/75/75 74/74/74 
f 73/73/73 76/76/76 75/75/75 
f 77/77/77 76/76/76 73/73/73 
f 77/77/77 78/78/78 76/76/76 
f 77/77/77 79/79/79 78/78/78 
f 77/77/77 80/80/80 79/79/79 
f 81/81/81 79/79/79 80/80/80 
f 81/81/81 82/82/82 79/79/79 
f 83/83/83 82/82/82 81/81/81 
f 83/83/83 84/84/84 82/82/82 
f 85/85/85 84/84/84 83/83/83 
f 85/85/85 86/86/86 84/84/84 
f 85/85/85 87/87/87 86/86/86 
f 85/85/85 88/88/88 87/87/87 
f 89/89/89 87/87/87 88/88/88 
f 89/89/89 90/90/90 87/87/87 
f 91/91/91 93/93/93 92/92/92 
f 91/91/91 94/94/94 93/93/93 
f 91/91/91 95/95/95 94/94/94 
f 91/91/91 96/96/96 95/95/95 
f 93/93/93 94/94/94 97/97/97 
f 93/93/93 97/97/97 98/98/98 
f 95/95/95 99/99/99 94/94/94 
f 95/95/95 100/100/100 99/99/99 
f 97/97/97 94/94/94 101/101/101 
f 97/97/97 101/101/101 102/102/102 
f 99/99/99 103/103/103 94/94/94 
f 99/99/99 104/104/104 103/103/103 
f 101/101/101 94/94/94 105/105/105 
f 103/103/103 105/105/105 94/94/94 
f 101/101/101 105/105/105 106/106/106 
f 103/103/103 107/107/107 105/105/105 
f 108/108/108 110/110/110 109/109/109 
f 108/108/108 111/111/111 110/110/110 
f 112/112/112 111/111/111 108/108/108 
f 112/112/112 113/113/113 111/111/111 
f 114/114/114 113/113/113 112/112/112 
f 114/114/114 115/115/115 113/113/113 
f 116/116/116 115/115/115 114/114/114 
f 116/116/116 117/117/117 115/115/115 
f 118/118/118 117/117/117 116/116/116 
f 118/118/118 119/119/119 117/117/117 
f 118/118/118 120/120/120 119/119/119 
f 118/118/118 121/121/121 120/120/120 
f 122/122/122 120/120/120 121/121/121 
f 122/122/122 123/123/123 120/120/120 
f 124/124/124 123/123/123 122/122/122 
f 124/124/124 125/125/125 123/123/123 
f 126/126/126 128/128/128 127/127/127 
f 126/126/126 129/129/129 128/128/128 
f 129/129/129 130/130/130 128/128/128 
f 129/129/129 131/131/131 130/130/130 
f 132/132/132 130/130/130 131/131/131 
f 132/132/132 133/133/133 130/130/130 
f 134/134/134 133/133/133 132/132/132 
f 134/134/134 135/135/135 133/133/133 
f 136/136/136 135/135/135 134/134/134 
f 136/136/136 137/137/137 135/135/135 
f 136/136/136 138/138/138 137/137/137 
f 136/136/136 139/139/139 138/138/138 
f 139/139/139 140/140/140 138/138/138 
f 139/139/139 141/141/141 140/140/140 
f 141/141/141 142/142/142 140/140/140 
f 141/141/141 143/143/143 142/142/142 
f 144/144/144 146/146/146 145/145/145 
f 144/144/144 147/147/147 146/146/146 
f 147/147/147 148/148/148 146/146/146 
f 147/147/147 149/149/149 148/148/148 
f 149/149/149 150/150/150 148/148/148 
f 149/149/149 151/151/151 150/150/150 
f 151/151/151 152/152/152 150/150/150 
f 151/151/151 153/153/153 152/152/152 
f 153/153/153 154/154/154 152/152/152 
f 153/153/153 155/155/155 154/154/154 
f 155/155/155 156/156/156 154/154/154 
f 155/155/155 157/157/157 156/156/156 
f 157/157/157 158/158/158 156/156/156 
f 157/157/157 159/159/159 158/158/158 
f 159/159/159 160/160/160 158/158/158 
f 159/159/159 161/161/161 160/160/160 
f 162/162/162 164/164/164 163/163/163 
f 162/162/162 165/165/165 164/164/164 
f 165/165/165 166/166/166 164/164/164 
f 165/165/165 167/167/167 166/166/166 
f 167/167/167 168/168/168 166/166/166 
f 167/167/167 169/169/169 168/168/168 
f 168/168/168 169/169/169 170/170/170 
f 168/168/168 170/170/170 171/171/171 
f 171/171/171 170/170/170 172/172/172 
f 171/171/171 172/172/172 173/173/173 
f 172/172/172 174/174/174 173/173/173 
f 172/172/172 175/175/175 174/174/174 
f 174/174/174 175/175/175 176/176/176 
f 174/174/174 176/176/176 177/177/177 
f 176/176/176 178/178/178 177/177/177 
f 176/176/176 179/179/179 178/178/178 
f 180/180/180 182/182/182 181/181/181 
f 183/183/183 181/181/181 182/182/182 
f 183/183/183 184/184/184 181/181/181 
f 185/185/185 184/184/184 183/183/183 
f 185/185/185 186/186/186 184/184/184 
f 187/187/187 186/186/186 185/185/185 
f 187/187/187 188/188/188 186/186/186 
f 189/189/189 188/188/188 187/187/187 
f 189/189/189 190/190/190 188/188/188 
f 191/191/191 193/193/193 192/192/192 
f 194/194/194 192/192/192 193/193/193 
f 194/194/194 195/195/195 192/192/192 
f 196/196/196 195/195/195 194/194/194 
f 196/196/196 197/197/197 195/195/195 
f 198/198/198 197/197/197 196/196/196 
f 198/198/198 199/199/199 197/197/197 
f 198/198/198 200/200/200 199/199/199 
f 198/198/198 201/201/201 200/200/200 
f 202/202/202 204/204/204 203/203/203 
f 205/205/205 203/203/203 204/204/204 
f 205/205/205 206/206/206 203/203/203 
f 207/207/207 206/206/206 205/205/205 
f 207/207/207 208/208/208 206/206/206 
f 209/209/209 208/208/208 207/207/207 
f 209/209/209 210/210/210 208/208/208 
f 211/211/211 210/210/210 209/209/209 
f 211/211/211 212/212/212 210/210/210 
f 213/213/213 215/215/215 214/214/214 
f 216/216/216 214/214/214 215/215/215 
f 216/216/216 217/217/217 214/214/214 
f 218/218/218 217/217/217 216/216/216 
f 218/218/218 219/219/219 217/217/217 
f 220/220/220 219/219/219 218/218/218 
f 220/220/220 221/221/221 219/219/219 
f 220/220/220 222/222/222 221/221/221 
f 220/220/220 223/223/223 222/222/222 
f 224/224/224 226/226/226 225/225/225 
f 227/227/227 225/225/225 226/226/226 
f 227/227/227 228/228/228 225/225/225 
f 229/229/229 228/228/228 227/227/227 
f 229/229/229 230/230/230 228/228/228 
f 231/231/231 230/230/230 229/229/229 
f 231/231/231 232/232/232 230/230/230 
f 233/233/233 232/232/232 231/231/231 
f 233/233/233 234/234/234 232/232/232 
f 235/235/235 237/237/237 236/236/236 
f 238/238/238 236/236/236 237/237/237 
f 238/238/238 239/239/239 236/236/236 
f 240/240/240 239/239/239 238/238/238 
f 240/240/240 241/241/241 239/239/239 
f 242/242/242 241/241/241 240/240/240 
f 242/242/242 243/243/243 241/241/241 
f 244/244/244 243/243/243 242/242/242 
f 244/244/244 245/245/245 243/243/243 
f 246/246/246 248/248/248 247/247/247 
f 249/249/249 247/247/247 248/248/248 
f 249/249/249 250/250/250 247/247/247 
f 251/251/251 250/250/250 249/249/249 
f 251/251/251 252/252/252 250/250/250 
f 253/253/253 252/252/252 251/251/251 
f 253/253/253 254/254/254 252/252/252 
f 255/255/255 254/254/254 253/253/253 
f 255/255/255 256/256/256 254/254/254 
f 257/257/257 259/259/259 258/258/258 
f 260/260/260 258/258/258 259/259/259 
f 260/260/260 261/261/261 258/258/258 
f 262/262/262 261/261/261 260/260/260 
f 262/262/262 263/263/263 261/261/261 
f 264/264/264 263/263/263 262/262/262 
f 264/264/264 265/265/265 263/263/263 
f 266/266/266 265/265/265 264/264/264 
f 266/266/266 267/267/267 265/265/265 
f 268/268/268 270/270/270 269/269/269 
f 271/271/271 269/269/269 270/270/270 
f 271/271/271 272/272/272 269/269/269 
f 273/273/273 272/272/272 271/271/271 
f 273/273/273 274/274/274 272/272/272 
f 275/275/275 274/274/274 273/273/273 
f 275/275/275 276/276/276 274/274/274 
f 277/277/277 276/276/276 275/275/275 
f 277/277/277 278/278/278 276/276/276 
f 279/279/279 281/281/281 280/280/280 
f 282/282/282 280/280/280 281/281/281 
f 282/282/282 283/283/283 280/280/280 
f 284/284/284 283/283/283 282/282/282 
f 284/284/284 285/285/285 283/283/283 
f 286/286/286 285/285/285 284/284/284 
f 286/286/286 287/287/287 285/285/285 
f 288/288/288 287/287/287 286/286/286 
f 288/288/288 289/289/289 287/287/287 
f 290/290/290 292/292/292 291/291/291 
f 293/293/293 291/291/291 292/292/292 
f 293/293/293 294/294/294 291/291/291 
f 295/295/295 294/294/294 293/293/293 
f 295/295/295 296/296/296 294/294/294 
f 297/297/297 296/296/296 295/295/295 
f 297/297/297 298/298/298 296/296/296 
f 299/299/299 298/298/298 297/297/297 
f 299/299/299 300/300/300 298/298/298 
f 301/301/301 303/303/303 302/302/302 
f 304/304/304 302/302/302 303/303/303 
f 304/304/304 305/305/305 302/302/302 
f 306/306/306 305/305/305 304/304/304 
f 306/306/306 307/307/307 305/305/305 
f 308/308/308 307/307/307 306/306/306 
f 308/308/308 309/309/309 307/307/307 
f 310/310/310 309/309/309 308/308/308 
f 310/310/310 311/311/311 309/309/309 
f 312/312/312 314/314/314 313/313/313 
f 315/315/315 313/313/313 314/314/314 
f 315/315/315 316/316/316 313/313/313 
f 317/317/317 316/316/316 315/315/315 
f 317/317/317 318/318/318 316/316/316 
f 319/319/319 318/318/318 317/317/317 
f 319/319/319 320/320/320 318/318/318 
f 321/321/321 320/320/320 319/319/319 
f 321/321/321 322/322/322 320/320/320 
f 323/323/323 325/325/325 324/324/324 
f 326/326/326 324/324/324 325/325/325 
f 326/326/326 327/327/327 324/324/324 
f 328/328/328 327/327/327 326/326/326 
f 328/328/328 329/329/329 327/327/327 
f 330/330/330 329/329/329 328/328/328 
f 330/330/330 331/331/331 329/329/329 
f 332/332/332 331/331/331 330/330/330 
f 332/332/332 333/333/333 331/331/331 
f 334/334/334 336/336/336 335/335/335 
f 336/336/336 337/337/337 335/335/335 
f 336/336/336 338/338/338 337/337/337 
f 339/339/339 337/337/337 338/338/338 
f 339/339/339 340/340/340 337/337/337 
f 341/341/341 340/340/340 339/339/339 
f 341/341/341 342/342/342 340/340/340 
f 343/343/343 342/342/342 341/341/341 
f 343/343/343 344/344/344 342/342/342 
f 345/345/345 347/347/347 346/346/346 
f 348/348/348 346/346/346 347/347/347 
f 348/348/348 349/349/349 346/346/346 
f 350/350/350 349/349/349 348/348/348 
f 350/350/350 351/351/351 349/349/349 
f 352/352/352 351/351/351 350/350/350 
f 352/352/352 353/353/353 351/351/351 
f 354/354/354 353/353/353 352/352/352 
f 354/354/354 355/355/355 353/353/353 
f 356/356/356 358/358/358 357/357/357 
f 359/359/359 357/357/357 358/358/358 
f 359/359/359 360/360/360 357/357/357 
f 361/361/361 360/360/360 359/359/359 
f 361/361/361 362/362/362 360/360/360 
f 363/363/363 362/362/362 361/361/361 
f 363/363/363 364/364/364 362/362/362 
f 365/365/365 364/364/364 363/363/363 
f 365/365/365 366/366/366 364/364/364 
f 367/367/367 369/369/369 368/368/368 
f 370/370/370 368/368/368 369/369/369 
f 370/370/370 371/371/371 368/368/368 
f 372/372/372 371/371/371 370/370/370 
f 372/372/372 373/373/373 371/371/371 
f 374/374/374 373/373/373 372/372/372 
f 374/374/374 375/375/375 373/373/373 
f 374/374/374 376/376/376 375/375/375 
f 374/374/374 377/377/377 376/376/376 
f 378/378/378 380/380/380 379/379/379 
f 381/381/381 379/379/379 380/380/380 
f 381/381/381 382/382/382 379/379/379 
f 383/383/383 382/382/382 381/381/381 
f 383/383/383 384/384/384 382/382/382 
f 385/385/385 384/384/384 383/383/383 
f 385/385/385 386/386/386 384/384/384 
f 387/387/387 386/386/386 385/385/385 
f 387/387/387 388/388/388 386/386/386 
f 389/389/389 391/391/391 390/390/390 
f 392/392/392 390/390/390 391/391/391 
f 392/392/392 393/393/393 390/390/390 
f 394/394/394 393/393/393 392/392/392 
f 394/394/394 395/395/395 393/393/393 
f 396/396/396 395/395/395 394/394/394 
f 396/396/396 397/397/397 395/395/395 
f 396/396/396 398/398/398 397/397/397 
f 396/396/396 399/399/399 398/398/398 
f 400/400/400 402/402/402 401/401/401 
f 403/403/403 401/401/401 402/402/402 
f 403/403/403 404/404/404 401/401/401 
f 405/405/405 404/404/404 403/403/403 
f 405/405/405 406/406/406 404/404/404 
f 407/407/407 406/406/406 405/405/405 
f 407/407/407 408/408/408 406/406/406 
f 409/409/409 408/408/408 407/407/407 
f 409/409/409 410/410/410 408/408/408 
f 411/411/411 413/413/413 412/412/412 
f 413/413/413 414/414/414 412/412/412 
f 413/413/413 415/415/415 414/414/414 
f 416/416/416 414/414/414 415/415/415 
f 416/416/416 417/417/417 414/414/414 
f 418/418/418 417/417/417 416/416/416 
f 418/418/418 419/419/419 417/417/417 
f 420/420/420 419/419/419 418/418/418 
f 420/420/420 421/421/421 419/419/419 
f 422/422/422 424/424/424 423/423/423 
f 424/424/424 425/425/425 423/423/423 
f 424/424/424 426/426/426 425/425/425 
f 427/427/427 425/425/425 426/426/426 
f 427/427/427 428/428/428 425/425/425 
f 429/429/429 428/428/428 427/427/427 
f 429/429/429 430/430/430 428/428/428 
f 431/431/431 430/430/430 429/429/429 
f 431/431/431 432/432/432 430/430/430 
f 433/433/433 435/435/435 434/434/434 
f 436/436/436 434/434/434 435/435/435 
f 436/436/436 437/437/437 434/434/434 
f 438/438/438 437/437/437 436/436/436 
f 438/438/438 439/439/439 437/437/437 
f 440/440/440 439/439/439 438/438/438 
f 440/440/440 441/441/441 439/439/439 
f 440/440/440 442/442/442 441/441/441 
f 440/440/440 443/443/443 442/442/442 
f 444/444/444 446/446/446 445/445/445 
f 447/447/447 445/445/445 446/446/446 
f 447/447/447 448/448/448 445/445/445 
f 449/449/449 448/448/448 447/447/447 
f 449/449/449 450/450/450 448/448/448 
f 451/451/451 450/450/450 449/449/449 
f 451/451/451 452/452/452 450/450/450 
f 453/453/453 452/452/452 451/451/451 
f 453/453/453 454/454/454 452/452/452 
f 455/455/455 457/457/457 456/456/456 
f 458/458/458 456/456/456 457/457/457 
f 458/458/458 459/459/459 456/456/456 
f 460/460/460 459/459/459 458/458/458 
f 460/460/460 461/461/461 459/459/459 
f 462/462/462 461/461/461 460/460/460 
f 462/462/462 463/463/463 461/461/461 
f 464/464/464 463/463/463 462/462/462 
f 464/464/464 465/465/465 463/463/463 
f 466/466/466 468/468/468 467/467/467 
f 469/469/469 467/467/467 468/468/468 
f 469/469/469 470/470/470 467/467/467 
f 471/471/471 470/470/470 469/469/469 
f 471/471/471 472/472/472 470/470/470 
f 473/473/473 472/472/472 471/471/471 
f 473/473/473 474/474/474 472/472/472 
f 475/475/475 474/474/474 473/473/473 
f 475/475/475 476/476/476 474/474/474 
f 477/477/477 479/479/479 478/478/478 
f 477/477/477 478/478/478 480/480/480 
f 481/481/481 477/477/477 480/480/480 
f 481/481/481 480/480/480 482/482/482 
f 483/483/483 481/481/481 482/482/482 
f 483/483/483 484/484/484 481/481/481 
f 485/485/485 484/484/484 483/483/483 
f 485/485/485 486/486/486 484/484/484 
f 487/487/487 486/486/486 485/485/485 
f 487/487/487 485/485/485 488/488/488 
f 489/489/489 487/487/487 488/488/488 
f 489/489/489 488/488/488 490/490/490 
f 491/491/491 489/489/489 490/490/490 
f 491/491/491 490/490/490 492/492/492 
f 493/493/493 491/491/491 492/492/492 
f 493/493/493 494/494/494 491/491/491 
f 495/495/495 497/497/497 496/496/496 
f 497/497/497 498/498/498 496/496/496 
f 495/495/495 499/499/499 497/497/497 
f 500/500/500 499/499/499 495/495/495 
f 497/497/497 501/501/501 498/498/498 
f 501/501/501 502/502/502 498/498/498 
f 499/499/499 503/503/503 497/497/497 
f 503/503/503 501/501/501 497/497/497 
f 500/500/500 504/504/504 499/499/499 
f 505/505/505 504/504/504 500/500/500 
f 505/505/505 500/500/500 506/506/506 
f 504/504/504 507/507/507 499/499/499 
f 499/499/499 507/507/507 503/503/503 
f 504/504/504 505/505/505 507/507/507 
f 507/507/507 508/508/508 503/503/503 
f 503/503/503 509/509/509 501/501/501 
f 508/508/508 509/509/509 503/503/503 
f 501/501/501 510/510/510 502/502/502 
f 509/509/509 510/510/510 501/501/501 
f 502/502/502 510/510/510 511/511/511 
f 509/509/509 511/511/511 510/510/510 
f 502/502/502 511/511/511 512/512/512 
f 513/513/513 505/505/505 506/506/506 
f 513/513/513 506/506/506 514/514/514 
f 515/515/515 513/513/513 514/514/514 
f 505/505/505 516/516/516 507/507/507 
f 505/505/505 513/513/513 516/516/516 
f 507/507/507 516/516/516 508/508/508 
f 515/515/515 517/517/517 513/513/513 
f 517/517/517 516/516/516 513/513/513 
f 518/518/518 517/517/517 515/515/515 
f 519/519/519 511/511/511 509/509/509 
f 508/508/508 519/519/519 509/509/509 
f 512/512/512 511/511/511 520/520/520 
f 519/519/519 520/520/520 511/511/511 
f 512/512/512 520/520/520 521/521/521 
f 520/520/520 522/522/522 521/521/521 
f 520/520/520 523/523/523 522/522/522 
f 519/519/519 523/523/523 520/520/520 
f 523/523/523 524/524/524 522/522/522 
f 517/517/517 525/525/525 516/516/516 
f 525/525/525 508/508/508 516/516/516 
f 518/518/518 526/526/526 517/517/517 
f 526/526/526 525/525/525 517/517/517 
f 527/527/527 526/526/526 518/518/518 
f 526/526/526 527/527/527 525/525/525 
f 527/527/527 518/518/518 528/528/528 
f 508/508/508 529/529/529 519/519/519 
f 519/519/519 529/529/529 523/523/523 
f 525/525/525 530/530/530 508/508/508 
f 527/527/527 530/530/530 525/525/525 
f 508/508/508 530/530/530 529/529/529 
f 531/531/531 527/527/527 528/528/528 
f 527/527/527 531/531/531 530/530/530 
f 531/531/531 528/528/528 532/532/532 
f 533/533/533 531/531/531 532/532/532 
f 530/530/530 531/531/531 534/534/534 
f 533/533/533 534/534/534 531/531/531 
f 530/530/530 534/534/534 529/529/529 
f 524/524/524 534/534/534 533/533/533 
f 529/529/529 535/535/535 523/523/523 
f 523/523/523 535/535/535 524/524/524 
f 524/524/524 535/535/535 534/534/534 
f 529/529/529 534/534/534 535/535/535 
