<svg xmlns="http://www.w3.org/2000/svg" width="21.0cm" height="29.7cm" viewBox="0 0 21.0 29.7">
  <rect x="0" y="0" width="21.0" height="29.7" fill="#fff"/>
  <rect x="4.0000" y="2.0000" width="1.0000" height="1.0000" fill="#000"/>
  <rect x="9.0000" y="2.0000" width="1.0000" height="1.0000" fill="#000"/>
  <rect x="2.0000" y="3.0000" width="1.0000" height="1.0000" fill="#000"/>
  <rect x="3.0000" y="3.0000" width="1.0000" height="1.0000" fill="#000"/>
  <rect x="4.0000" y="3.0000" width="1.0000" height="1.0000" fill="#000"/>
  <rect x="5.0000" y="3.0000" width="1.0000" height="1.0000" fill="#000"/>
  <rect x="6.0000" y="3.0000" width="1.0000" height="1.0000" fill="#000"/>
  <rect x="7.0000" y="3.0000" width="1.0000" height="1.0000" fill="#000"/>
  <rect x="8.0000" y="3.0000" width="1.0000" height="1.0000" fill="#000"/>
  <rect x="9.0000" y="3.0000" width="1.0000" height="1.0000" fill="#000"/>
  <rect x="10.0000" y="3.0000" width="1.0000" height="1.0000" fill="#000"/>
  <rect x="3.0000" y="4.0000" width="1.0000" height="1.0000" fill="#000"/>
  <rect x="9.0000" y="4.0000" width="1.0000" height="1.0000" fill="#000"/>
  <rect x="10.0000" y="4.0000" width="1.0000" height="1.0000" fill="#000"/>
  <rect x="2.0000" y="5.0000" width="1.0000" height="1.0000" fill="#000"/>
  <rect x="3.0000" y="5.0000" width="1.0000" height="1.0000" fill="#000"/>
  <rect x="9.0000" y="5.0000" width="1.0000" height="1.0000" fill="#000"/>
  <rect x="10.0000" y="5.0000" width="1.0000" height="1.0000" fill="#000"/>
  <rect x="3.0000" y="6.0000" width="1.0000" height="1.0000" fill="#000"/>
  <rect x="5.0000" y="6.0000" width="1.0000" height="1.0000" fill="#000"/>
  <rect x="9.0000" y="6.0000" width="1.0000" height="1.0000" fill="#000"/>
  <rect x="3.0000" y="7.0000" width="1.0000" height="1.0000" fill="#000"/>
  <rect x="6.0000" y="7.0000" width="1.0000" height="1.0000" fill="#000"/>
  <rect x="9.0000" y="7.0000" width="1.0000" height="1.0000" fill="#000"/>
  <rect x="10.0000" y="7.0000" width="1.0000" height="1.0000" fill="#000"/>
  <rect x="2.0000" y="8.0000" width="1.0000" height="1.0000" fill="#000"/>
  <rect x="3.0000" y="8.0000" width="1.0000" height="1.0000" fill="#000"/>
  <rect x="9.0000" y="8.0000" width="1.0000" height="1.0000" fill="#000"/>
  <rect x="10.0000" y="8.0000" width="1.0000" height="1.0000" fill="#000"/>
  <rect x="3.0000" y="9.0000" width="1.0000" height="1.0000" fill="#000"/>
  <rect x="4.0000" y="9.0000" width="1.0000" height="1.0000" fill="#000"/>
  <rect x="5.0000" y="9.0000" width="1.0000" height="1.0000" fill="#000"/>
  <rect x="6.0000" y="9.0000" width="1.0000" height="1.0000" fill="#000"/>
  <rect x="7.0000" y="9.0000" width="1.0000" height="1.0000" fill="#000"/>
  <rect x="8.0000" y="9.0000" width="1.0000" height="1.0000" fill="#000"/>
  <rect x="9.0000" y="9.0000" width="1.0000" height="1.0000" fill="#000"/>
  <rect x="2.0000" y="10.0000" width="1.0000" height="1.0000" fill="#000"/>
  <rect x="4.0000" y="10.0000" width="1.0000" height="1.0000" fill="#000"/>
  <rect x="8.0000" y="10.0000" width="1.0000" height="1.0000" fill="#000"/>
  <rect x="9.0000" y="10.0000" width="1.0000" height="1.0000" fill="#000"/>
  <text x="6.5000" y="12.4000" font-family="sans-serif" font-size="0.3" text-anchor="middle">id 1 — 0.050 m</text>
  <rect x="4.0000" y="13.6000" width="1.0000" height="1.0000" fill="#000"/>
  <rect x="9.0000" y="13.6000" width="1.0000" height="1.0000" fill="#000"/>
  <rect x="3.0000" y="14.6000" width="1.0000" height="1.0000" fill="#000"/>
  <rect x="4.0000" y="14.6000" width="1.0000" height="1.0000" fill="#000"/>
  <rect x="5.0000" y="14.6000" width="1.0000" height="1.0000" fill="#000"/>
  <rect x="6.0000" y="14.6000" width="1.0000" height="1.0000" fill="#000"/>
  <rect x="7.0000" y="14.6000" width="1.0000" height="1.0000" fill="#000"/>
  <rect x="8.0000" y="14.6000" width="1.0000" height="1.0000" fill="#000"/>
  <rect x="9.0000" y="14.6000" width="1.0000" height="1.0000" fill="#000"/>
  <rect x="3.0000" y="15.6000" width="1.0000" height="1.0000" fill="#000"/>
  <rect x="9.0000" y="15.6000" width="1.0000" height="1.0000" fill="#000"/>
  <rect x="2.0000" y="16.6000" width="1.0000" height="1.0000" fill="#000"/>
  <rect x="3.0000" y="16.6000" width="1.0000" height="1.0000" fill="#000"/>
  <rect x="7.0000" y="16.6000" width="1.0000" height="1.0000" fill="#000"/>
  <rect x="9.0000" y="16.6000" width="1.0000" height="1.0000" fill="#000"/>
  <rect x="2.0000" y="17.6000" width="1.0000" height="1.0000" fill="#000"/>
  <rect x="3.0000" y="17.6000" width="1.0000" height="1.0000" fill="#000"/>
  <rect x="6.0000" y="17.6000" width="1.0000" height="1.0000" fill="#000"/>
  <rect x="7.0000" y="17.6000" width="1.0000" height="1.0000" fill="#000"/>
  <rect x="9.0000" y="17.6000" width="1.0000" height="1.0000" fill="#000"/>
  <rect x="3.0000" y="18.6000" width="1.0000" height="1.0000" fill="#000"/>
  <rect x="5.0000" y="18.6000" width="1.0000" height="1.0000" fill="#000"/>
  <rect x="9.0000" y="18.6000" width="1.0000" height="1.0000" fill="#000"/>
  <rect x="2.0000" y="19.6000" width="1.0000" height="1.0000" fill="#000"/>
  <rect x="3.0000" y="19.6000" width="1.0000" height="1.0000" fill="#000"/>
  <rect x="9.0000" y="19.6000" width="1.0000" height="1.0000" fill="#000"/>
  <rect x="2.0000" y="20.6000" width="1.0000" height="1.0000" fill="#000"/>
  <rect x="3.0000" y="20.6000" width="1.0000" height="1.0000" fill="#000"/>
  <rect x="4.0000" y="20.6000" width="1.0000" height="1.0000" fill="#000"/>
  <rect x="5.0000" y="20.6000" width="1.0000" height="1.0000" fill="#000"/>
  <rect x="6.0000" y="20.6000" width="1.0000" height="1.0000" fill="#000"/>
  <rect x="7.0000" y="20.6000" width="1.0000" height="1.0000" fill="#000"/>
  <rect x="8.0000" y="20.6000" width="1.0000" height="1.0000" fill="#000"/>
  <rect x="9.0000" y="20.6000" width="1.0000" height="1.0000" fill="#000"/>
  <rect x="2.0000" y="21.6000" width="1.0000" height="1.0000" fill="#000"/>
  <rect x="4.0000" y="21.6000" width="1.0000" height="1.0000" fill="#000"/>
  <rect x="6.0000" y="21.6000" width="1.0000" height="1.0000" fill="#000"/>
  <rect x="8.0000" y="21.6000" width="1.0000" height="1.0000" fill="#000"/>
  <rect x="9.0000" y="21.6000" width="1.0000" height="1.0000" fill="#000"/>
  <rect x="10.0000" y="21.6000" width="1.0000" height="1.0000" fill="#000"/>
  <text x="6.5000" y="24.0000" font-family="sans-serif" font-size="0.3" text-anchor="middle">id 2 — 0.050 m</text>
</svg>
