# exported by StudySceneExporter from mesh 'SM_Pot_010.001'
mtllib materials.mtl
v 0.1488938 0.0616739 0
v 0.1611615 5.83602E-08 0
v 0.1911115 6.942832E-08 0.04565533
v 0.176564 0.07313529 0.04565533
v 0.1139584 0.1139584 0
v 0.1351362 0.1351363 0.04565533
v 0.0616738 0.1488938 0
v 0.07313516 0.176564 0.04565533
v -5.082639E-08 0.1611615 0
v -6.189449E-08 0.1911115 0.04565533
v -0.06167389 0.1488938 0
v -0.07313528 0.176564 0.04565533
v -0.1139584 0.1139583 0
v -0.1351363 0.1351362 0.04565533
v -0.1488938 0.06167379 0
v -0.176564 0.07313515 0.04565533
v -0.1611615 -6.075517E-08 0
v -0.1911115 -7.182327E-08 0.04565533
v -0.1488938 -0.0616739 0
v -0.176564 -0.07313529 0.04565533
v -0.1139583 -0.1139584 0
v -0.1351362 -0.1351363 0.04565533
v -0.06167378 -0.1488938 0
v -0.07313515 -0.176564 0.04565533
v 6.828899E-08 -0.1611615 0
v 7.935709E-08 -0.1911115 0.04565533
v 0.06167391 -0.1488938 0
v 0.07313529 -0.176564 0.04565533
v 0.1139584 -0.1139584 0
v 0.1351363 -0.1351362 0.04565533
v 0.1488938 -0.06167379 0
v 0.1765641 -0.07313515 0.04565533
v 0.1611615 5.83602E-08 0
v 0.1911115 6.942832E-08 0.04565533
v 0.1702053 -0.07050126 0.04565533
v 0.1583471 7.521353E-08 0.002516815
v 0.1842288 6.688479E-08 0.04565533
v 0.1462936 -0.06059673 0.002516815
v 0.1302695 -0.1302694 0.04565533
v 0.1119683 -0.1119682 0.002516815
v 0.07050138 -0.1702052 0.04565533
v 0.06059683 -0.1462936 0.002516815
v 7.681358E-08 -0.1842288 0.04565533
v 3.13611E-08 -0.1583471 0.002516815
v -0.07050125 -0.1702053 0.04565533
v -0.06059678 -0.1462936 0.002516815
v -0.1302694 -0.1302695 0.04565533
v -0.1119683 -0.1119683 0.002516815
v -0.1702052 -0.07050138 0.04565533
v -0.1462936 -0.06059684 0.002516815
v -0.1842288 -6.927975E-08 0.04565533
v -0.1583471 -4.182167E-08 0.002516815
v -0.1702052 0.07050125 0.04565533
v -0.1462937 0.06059676 0.002516815
v -0.1302695 0.1302694 0.04565533
v -0.1119684 0.1119683 0.002516815
v -0.07050136 0.1702052 0.04565533
v -0.06059688 0.1462936 0.002516815
v -5.935097E-08 0.1842288 0.04565533
v -8.56741E-08 0.1583471 0.002516815
v 0.07050126 0.1702053 0.04565533
v 0.06059672 0.1462937 0.002516815
v 0.1302694 0.1302695 0.04565533
v 0.1119682 0.1119683 0.002516815
v 0.1702052 0.07050136 0.04565533
v 0.1462936 0.06059688 0.002516815
v 0.1842288 6.688479E-08 0.04565533
v 0.1583471 7.521353E-08 0.002516815
v 0.4420315 -0.01245097 0.07222388
v 0.4392078 1.845851E-07 0.06561302
v 0.3927577 1.66342E-07 0.07543045
v 0.3930267 -0.01245099 0.08261409
v 0.447679 -0.01245097 0.08544562
v 0.3464924 1.473895E-07 0.06903244
v 0.3935648 -0.01245099 0.09698137
v 0.4505028 1.904088E-07 0.09205648
v 0.34477 -0.01245101 0.07601173
v 0.3004007 1.269249E-07 0.05217326
v 0.3938338 1.686959E-07 0.104165
v 0.447679 0.01245134 0.08544561
v 0.3413252 -0.01245101 0.08997029
v 0.2976423 -0.01245103 0.05881164
v 0.2554667 1.062108E-07 0.03109449
v 0.3935648 0.01245132 0.09698137
v 0.4420315 0.01245134 0.07222388
v 0.3396028 1.457626E-07 0.09694958
v 0.2921254 -0.01245103 0.07208841
v 0.2525219 -0.01245105 0.03765234
v 0.2121844 8.731104E-08 0.01258266
v 0.3930267 0.01245132 0.08261409
v 0.4392078 1.845851E-07 0.06561302
v 0.3927577 1.66342E-07 0.07543045
v 0.3413252 0.0124513 0.08997029
v 0.34477 0.0124513 0.07601173
v 0.3464924 1.473895E-07 0.06903244
v 0.2893669 1.24832E-07 0.07872678
v 0.2466324 -0.01245105 0.05076804
v 0.2100424 -0.01245107 0.01944482
v 0.1629014 6.658655E-08 0.005008718
v 0.1671359 -0.01245109 0.01216635
v 0.2057586 -0.01245107 0.03316914
v 0.1754557 -0.01245108 0.02669413
v 0.2921254 0.01245128 0.0720884
v 0.2976423 0.01245128 0.05881164
v 0.3004007 1.269249E-07 0.05217326
v 0.2436876 1.04449E-07 0.0573259
v 0.2036167 8.594989E-08 0.0400313
v 0.1811822 7.642078E-08 0.0345284
v 0.2466324 0.01245126 0.05076804
v 0.2525219 0.01245126 0.03765234
v 0.2554667 1.062108E-07 0.03109449
v 0.2057586 0.01245124 0.03316914
v 0.1754557 0.01245123 0.02669412
v 0.2100424 0.01245124 0.01944482
v 0.2121844 8.731104E-08 0.01258266
v 0.1671359 0.01245122 0.01216635
v 0.1629014 6.658655E-08 0.005008718
v 0.1613789 -0.0208785 0.003031358
v 0.1587953 -0.0208785 0.004709439
v 0.1848356 -0.0208785 0.04480202
v 0.1874193 -0.0208785 0.04312393
v 0.1587953 0.01905712 0.004709439
v 0.1613789 0.01905712 0.003031358
v 0.1874193 0.01905713 0.04312393
v 0.1848356 0.01905712 0.04480202
v 0.1641192 -0.0009106936 0.001251493
v 0.1613789 -0.0208785 0.003031358
v 0.1874193 -0.0208785 0.04312393
v 0.1901596 -0.000910684 0.04134407
v 0.1613789 0.01905712 0.003031358
v 0.1874193 0.01905713 0.04312393
v 0.1615356 -0.0009106946 0.002929574
v 0.1613789 0.01905712 0.003031358
v 0.1587953 0.01905712 0.004709439
v 0.1641192 -0.0009106936 0.001251493
v 0.1587953 -0.0208785 0.004709439
v 0.1613789 -0.0208785 0.003031358
v 0.187576 -0.0009106849 0.04302214
v 0.1901596 -0.000910684 0.04134407
v 0.1874193 -0.0208785 0.04312393
v 0.1848356 -0.0208785 0.04480202
v 0.1848356 0.01905712 0.04480202
v 0.1874193 0.01905713 0.04312393
v 0.1901596 -0.000910684 0.04134407
v 0.187576 -0.0009106849 0.04302214
v 0.4448553 1.862654E-07 0.07883475
v 0.4420315 -0.01245097 0.07222388
v 0.447679 -0.01245097 0.08544562
v 0.4392078 1.845851E-07 0.06561302
v 0.4505028 1.904088E-07 0.09205648
v 0.4420315 0.01245134 0.07222388
v 0.447679 0.01245134 0.08544561
v -1.885929E-08 2.253076E-08 0.00251681
v -0.1119683 -0.1119683 0.002516815
v -0.1462936 -0.06059684 0.002516815
v -0.06059678 -0.1462936 0.002516815
v -0.1583471 -4.182167E-08 0.002516815
v 3.13611E-08 -0.1583471 0.002516815
v -0.1462937 0.06059676 0.002516815
v 0.06059683 -0.1462936 0.002516815
v -0.1119684 0.1119683 0.002516815
v 0.1119683 -0.1119682 0.002516815
v -0.06059688 0.1462936 0.002516815
v 0.1462936 -0.06059673 0.002516815
v -8.56741E-08 0.1583471 0.002516815
v 0.1583471 7.521353E-08 0.002516815
v 0.06059672 0.1462937 0.002516815
v 0.1462936 0.06059688 0.002516815
v 0.1119682 0.1119683 0.002516815
v 3.72529E-09 1.376691E-15 0
v -0.1488938 -0.0616739 0
v -0.1139583 -0.1139584 0
v -0.06167378 -0.1488938 0
v -0.1611615 -6.075517E-08 0
v 6.828899E-08 -0.1611615 0
v -0.1488938 0.06167379 0
v 0.06167391 -0.1488938 0
v -0.1139584 0.1139583 0
v 0.1139584 -0.1139584 0
v -0.06167389 0.1488938 0
v 0.1488938 -0.06167379 0
v -5.082639E-08 0.1611615 0
v 0.1611615 5.83602E-08 0
v 0.0616738 0.1488938 0
v 0.1488938 0.0616739 0
v 0.1139584 0.1139584 0
v -0.1302694 -0.1302695 0.04565533
v -0.1351362 -0.1351363 0.04565533
v -0.176564 -0.07313529 0.04565533
v -0.07050125 -0.1702053 0.04565533
v -0.1702052 -0.07050138 0.04565533
v -0.07313515 -0.176564 0.04565533
v -0.1911115 -7.182327E-08 0.04565533
v 7.681358E-08 -0.1842288 0.04565533
v -0.1842288 -6.927975E-08 0.04565533
v 7.935709E-08 -0.1911115 0.04565533
v -0.176564 0.07313515 0.04565533
v 0.07050138 -0.1702052 0.04565533
v -0.1702052 0.07050125 0.04565533
v 0.07313529 -0.176564 0.04565533
v -0.1351363 0.1351362 0.04565533
v 0.1302695 -0.1302694 0.04565533
v -0.1302695 0.1302694 0.04565533
v 0.1351363 -0.1351362 0.04565533
v -0.07313528 0.176564 0.04565533
v 0.1702053 -0.07050126 0.04565533
v -0.07050136 0.1702052 0.04565533
v 0.1765641 -0.07313515 0.04565533
v -6.189449E-08 0.1911115 0.04565533
v 0.1842288 6.688479E-08 0.04565533
v -5.935097E-08 0.1842288 0.04565533
v 0.1911115 6.942832E-08 0.04565533
v 0.07313516 0.176564 0.04565533
v 0.1702052 0.07050136 0.04565533
v 0.07050126 0.1702053 0.04565533
v 0.176564 0.07313529 0.04565533
v 0.1351362 0.1351363 0.04565533
v 0.1302694 0.1302695 0.04565533
vt 0.8647402 0.05734145
vt 0.8827261 0.05734145
vt 0.8827261 0.04305147
vt 0.8647402 0.04305147
vt 0.8467542 0.05734145
vt 0.8467542 0.04305147
vt 0.8287683 0.05734145
vt 0.8287683 0.04305147
vt 0.8107824 0.05734145
vt 0.8107824 0.04305147
vt 0.7927964 0.05734145
vt 0.7927964 0.04305147
vt 0.7748105 0.05734145
vt 0.7748105 0.04305147
vt 0.7568246 0.05734144
vt 0.7568246 0.04305147
vt 0.7388386 0.05734144
vt 0.7388386 0.04305147
vt 0.7208527 0.05734144
vt 0.7208527 0.04305147
vt 0.7028667 0.05734144
vt 0.7028667 0.04305147
vt 0.6848808 0.05734144
vt 0.6848808 0.04305147
vt 0.6668949 0.05734144
vt 0.6668949 0.04305146
vt 0.6489089 0.05734144
vt 0.6489089 0.04305146
vt 0.630923 0.05734144
vt 0.630923 0.04305146
vt 0.6129371 0.05734144
vt 0.6129371 0.04305146
vt 0.5949512 0.05734144
vt 0.5949512 0.04305146
vt 0.6124443 0.072507
vt 0.5949473 0.05933664
vt 0.5949473 0.072507
vt 0.6124443 0.0593367
vt 0.6299413 0.072507
vt 0.6299413 0.0593367
vt 0.6474382 0.072507
vt 0.6474382 0.0593367
vt 0.6649354 0.072507
vt 0.6649354 0.0593367
vt 0.6824324 0.072507
vt 0.6824324 0.0593367
vt 0.6999293 0.072507
vt 0.6999293 0.0593367
vt 0.7174263 0.072507
vt 0.7174263 0.0593367
vt 0.7349233 0.07250701
vt 0.7349233 0.0593367
vt 0.7524202 0.07250701
vt 0.7524202 0.0593367
vt 0.7699173 0.07250701
vt 0.7699173 0.05933671
vt 0.7874143 0.07250713
vt 0.7874143 0.05933671
vt 0.8049113 0.07250713
vt 0.8049113 0.05933671
vt 0.8224082 0.07250713
vt 0.8224082 0.05933671
vt 0.8399052 0.07250713
vt 0.8399052 0.05933671
vt 0.8574023 0.07250713
vt 0.8574023 0.05933671
vt 0.8748993 0.07250713
vt 0.8748993 0.05933671
vt 0.7186924 0.02284741
vt 0.7186924 0.02659694
vt 0.7324555 0.02659698
vt 0.7324555 0.0228474
vt 0.7186924 0.01903244
vt 0.7455276 0.02659698
vt 0.7324555 0.01903243
vt 0.7186924 0.01525281
vt 0.7455276 0.0228474
vt 0.7587765 0.02659698
vt 0.7324555 0.01525283
vt 0.7186924 0.0114732
vt 0.7455276 0.01903243
vt 0.7587765 0.0228474
vt 0.7717417 0.02659698
vt 0.7324555 0.01147319
vt 0.7186924 0.007658165
vt 0.7455276 0.01525283
vt 0.7587765 0.01903243
vt 0.7717417 0.0228474
vt 0.7835333 0.02659698
vt 0.7324555 0.007658181
vt 0.7186924 0.003908616
vt 0.7324555 0.003908616
vt 0.7455276 0.01147319
vt 0.7455276 0.007658182
vt 0.7455276 0.003908618
vt 0.7587765 0.01525283
vt 0.7717417 0.01903243
vt 0.7835333 0.0228474
vt 0.7933663 0.02659695
vt 0.7933663 0.02284742
vt 0.7835333 0.01903244
vt 0.7933663 0.01903245
vt 0.7587765 0.01147319
vt 0.7587765 0.007658183
vt 0.7587765 0.003908619
vt 0.7717417 0.01525283
vt 0.7835333 0.01525283
vt 0.7933663 0.01525282
vt 0.7717417 0.01147319
vt 0.7717417 0.007658185
vt 0.7717417 0.00390862
vt 0.7835333 0.0114732
vt 0.7933663 0.01147321
vt 0.7835333 0.007658185
vt 0.7835333 0.003908621
vt 0.7933663 0.007658171
vt 0.7933663 0.003908622
vt 0.994189 0.02273904
vt 0.9954026 0.02273904
vt 0.9954026 0.003906194
vt 0.994189 0.003906193
vt 0.8678872 0.03559627
vt 0.8691008 0.03559627
vt 0.8691008 0.01676344
vt 0.8678872 0.01676344
vt 0.9384326 0.07145407
vt 0.9464033 0.07145407
vt 0.9464033 0.05262122
vt 0.9384326 0.05262122
vt 0.930462 0.07145407
vt 0.930462 0.05262122
vt 0.8759104 0.02539788
vt 0.877116 0.01747973
vt 0.8759104 0.01747973
vt 0.877116 0.02539788
vt 0.8759104 0.03331603
vt 0.877116 0.03331603
vt 0.9325047 0.0104763
vt 0.9323087 0.011674
vt 0.9402794 0.011674
vt 0.9404753 0.0104763
vt 0.979503 0.003904875
vt 0.9796991 0.005102571
vt 0.9876697 0.005102571
vt 0.9874737 0.003904876
vt 0.8837807 0.007829618
vt 0.8805127 0.009716408
vt 0.8837807 0.01160315
vt 0.8805127 0.005942878
vt 0.8870487 0.009716408
vt 0.8837807 0.004056087
vt 0.8870487 0.005942879
vt 0.8469542 0.207238
vt 0.8388461 0.166476
vt 0.8238645 0.1726816
vt 0.8550622 0.166476
vt 0.812398 0.1841481
vt 0.8700439 0.1726816
vt 0.8061923 0.1991298
vt 0.8815103 0.1841481
vt 0.8061923 0.2153459
vt 0.887716 0.1991298
vt 0.812398 0.2303275
vt 0.887716 0.2153459
vt 0.8238645 0.241794
vt 0.8815103 0.2303275
vt 0.8388461 0.2479997
vt 0.8700439 0.241794
vt 0.8550622 0.2479997
vt 0.9542173 0.2079612
vt 0.9127309 0.2162133
vt 0.9190468 0.2314613
vt 0.9307171 0.2431316
vt 0.9127308 0.199709
vt 0.945965 0.2494474
vt 0.9190468 0.1844611
vt 0.9624693 0.2494474
vt 0.9307171 0.1727908
vt 0.9777173 0.2431315
vt 0.9459651 0.1664748
vt 0.9893875 0.2314613
vt 0.9624693 0.1664748
vt 0.9957035 0.2162133
vt 0.9777173 0.1727908
vt 0.9957035 0.199709
vt 0.9893876 0.1844611
vt 0.1997885 0.8246705
vt 0.1994361 0.8264422
vt 0.2190076 0.8264422
vt 0.182358 0.8174505
vt 0.2186551 0.8246704
vt 0.1813543 0.8189525
vt 0.2370892 0.8189525
vt 0.1690172 0.8041097
vt 0.2360857 0.8174505
vt 0.1675152 0.8051134
vt 0.2509284 0.8051134
vt 0.1617972 0.7866792
vt 0.2494263 0.8041098
vt 0.1600255 0.7870317
vt 0.2584181 0.7870317
vt 0.1617973 0.7678126
vt 0.2566463 0.7866792
vt 0.1600255 0.7674601
vt 0.2584181 0.7674602
vt 0.1690172 0.7503821
vt 0.2566464 0.7678126
vt 0.1675152 0.7493784
vt 0.2509284 0.7493784
vt 0.1823579 0.7370413
vt 0.2494264 0.7503821
vt 0.1813543 0.7355393
vt 0.2370893 0.7355393
vt 0.1997885 0.7298214
vt 0.2360856 0.7370413
vt 0.199436 0.7280496
vt 0.2190075 0.7280496
vt 0.2186551 0.7298213
vn 0.772495 0.3199783 -0.5485117
vn 0.8361428 3.060761E-07 -0.5485119
vn 0.8361428 3.096347E-07 -0.5485119
vn 0.772495 0.3199783 -0.5485117
vn 0.591242 0.5912426 -0.5485117
vn 0.5912421 0.5912425 -0.5485118
vn 0.3199778 0.7724954 -0.5485117
vn 0.3199777 0.7724953 -0.5485117
vn -2.520626E-07 0.8361427 -0.548512
vn -2.477077E-07 0.8361427 -0.548512
vn -0.3199783 0.7724949 -0.5485121
vn -0.3199783 0.7724949 -0.5485121
vn -0.5912425 0.5912418 -0.5485119
vn -0.5912424 0.591242 -0.5485119
vn -0.7724953 0.3199778 -0.5485118
vn -0.7724953 0.3199777 -0.5485118
vn -0.8361428 -3.150783E-07 -0.5485119
vn -0.8361428 -3.199559E-07 -0.5485118
vn -0.7724952 -0.3199784 -0.5485117
vn -0.7724952 -0.3199784 -0.5485117
vn -0.5912421 -0.5912426 -0.5485116
vn -0.5912421 -0.5912425 -0.5485116
vn -0.3199778 -0.7724953 -0.5485119
vn -0.3199777 -0.7724953 -0.5485119
vn 2.880716E-07 -0.8361427 -0.548512
vn 2.838318E-07 -0.8361428 -0.548512
vn 0.3199782 -0.7724952 -0.5485119
vn 0.3199783 -0.7724952 -0.5485118
vn 0.5912424 -0.591242 -0.548512
vn 0.5912424 -0.591242 -0.5485119
vn 0.7724953 -0.3199778 -0.548512
vn 0.7724953 -0.3199778 -0.548512
vn 0.8361428 3.060761E-07 -0.5485119
vn 0.8361428 3.096347E-07 -0.5485119
vn -0.792231 0.3281525 0.5144764
vn -0.8575045 -2.622902E-07 0.5144764
vn -0.8575046 -1.902067E-07 0.5144764
vn -0.792231 0.3281526 0.5144765
vn -0.6063476 0.6063471 0.5144764
vn -0.6063476 0.6063471 0.5144764
vn -0.3281532 0.792231 0.5144761
vn -0.3281531 0.792231 0.5144761
vn -3.958355E-07 0.8575047 0.5144759
vn -2.261122E-07 0.8575047 0.514476
vn 0.3281526 0.7922313 0.5144761
vn 0.3281527 0.7922311 0.514476
vn 0.6063474 0.6063478 0.5144756
vn 0.6063475 0.6063478 0.5144756
vn 0.7922315 0.3281535 0.5144751
vn 0.7922316 0.3281533 0.514475
vn 0.8575054 3.084433E-07 0.514475
vn 0.8575054 2.261123E-07 0.514475
vn 0.7922318 -0.3281528 0.5144751
vn 0.7922318 -0.3281528 0.5144751
vn 0.6063481 -0.6063475 0.5144752
vn 0.6063482 -0.6063474 0.5144752
vn 0.3281534 -0.7922314 0.5144752
vn 0.3281535 -0.7922314 0.5144752
vn 2.21051E-07 -0.8575052 0.5144754
vn 3.708241E-07 -0.8575052 0.5144754
vn -0.3281527 -0.7922313 0.5144758
vn -0.3281526 -0.7922313 0.5144758
vn -0.6063473 -0.6063477 0.5144759
vn -0.6063472 -0.6063478 0.5144758
vn -0.792231 -0.3281531 0.5144761
vn -0.7922308 -0.3281533 0.5144761
vn -0.8575046 -1.902067E-07 0.5144764
vn -0.8575045 -2.622902E-07 0.5144764
vn -0.09469555 -0.889349 -0.4473152
vn -0.2071082 -1.438136E-07 -0.9783181
vn -0.03599709 0 -0.9993519
vn -0.01650141 -0.8897737 -0.4561037
vn 0.1148511 -0.8350047 0.5381228
vn 0.2410672 1.276482E-07 -0.9705084
vn 0.02094809 -0.8426009 0.5381311
vn 0.2087275 4.647767E-07 0.9779739
vn 0.1141752 -0.8806214 -0.4598587
vn 0.3842794 0 -0.9232168
vn 0.03875501 1.757501E-07 0.9992487
vn 0.1148503 0.8350052 0.5381225
vn -0.1250193 -0.8510975 0.509905
vn 0.1880859 -0.8720201 -0.4518901
vn 0.4091768 -1.541608E-07 -0.9124551
vn 0.02094735 0.8426009 0.5381309
vn -0.09469616 0.889349 -0.4473154
vn -0.2382224 0 0.9712107
vn -0.1956944 -0.8597417 0.4717498
vn 0.206331 -0.8635494 -0.4601194
vn 0.2785138 -2.509611E-07 -0.9604322
vn -0.01650218 0.8897737 -0.4561037
vn -0.2071082 -1.438136E-07 -0.9783181
vn -0.03599709 0 -0.9993519
vn -0.12502 0.8510975 0.5099049
vn 0.1141744 0.8806214 -0.4598588
vn 0.2410672 1.276482E-07 -0.9705084
vn -0.3831826 1.334299E-07 0.9236726
vn -0.203624 -0.868043 0.4528118
vn 0.1473528 -0.8467592 -0.5111614
vn 0.1590565 -3.079858E-07 -0.9872694
vn 0.1091112 -0.7276127 -0.677255
vn -0.1486537 -0.8768538 0.4571975
vn -0.07138991 -0.9466277 0.3143238
vn -0.1956949 0.8597417 0.4717495
vn 0.1880852 0.8720201 -0.4518903
vn 0.3842794 0 -0.9232168
vn -0.4101336 2.506416E-07 0.9120255
vn -0.3099607 2.55256E-07 0.9507493
vn -0.2214828 1.646109E-07 0.9751643
vn -0.2036246 0.8680431 0.4528114
vn 0.2063304 0.8635494 -0.4601197
vn 0.4091768 -1.541608E-07 -0.9124551
vn -0.1486545 0.8768538 0.4571972
vn -0.07139071 0.9466277 0.3143235
vn 0.1473522 0.846759 -0.5111618
vn 0.2785138 -2.509611E-07 -0.9604322
vn 0.1091106 0.7276124 -0.6772555
vn 0.1590565 -3.079858E-07 -0.9872694
vn 3.490216E-07 -1 0
vn 3.490216E-07 -1 0
vn 3.490216E-07 -1 0
vn 3.490216E-07 -1 0
vn -3.490215E-07 1 0
vn -3.490215E-07 1 0
vn -3.490215E-07 1 0
vn -3.490215E-07 1 0
vn 0.8386328 0 -0.5446972
vn 0.8276243 -0.1614963 -0.5375471
vn 0.8276243 -0.1614963 -0.5375471
vn 0.8386328 0 -0.5446972
vn 0.8276243 0.1614963 -0.5375471
vn 0.8276243 0.1614963 -0.5375471
vn -0.5446955 2.36554E-07 -0.838634
vn -0.5446955 9.462164E-07 -0.838634
vn -0.5446955 9.462164E-07 -0.838634
vn -0.5446955 2.365543E-07 -0.8386339
vn -0.5446955 -4.731082E-07 -0.8386339
vn -0.5446955 -4.731082E-07 -0.8386339
vn 0.5446949 0 0.8386343
vn 0.544695 0 0.8386343
vn 0.5446959 4.73108E-07 0.8386336
vn 0.5446959 4.73108E-07 0.8386336
vn 0.5446939 -4.731088E-07 0.8386348
vn 0.5446939 -4.731088E-07 0.8386348
vn 0.544695 0 0.8386343
vn 0.5446949 0 0.8386343
vn 0.9196219 1.300625E-06 -0.3928046
vn 0.9196222 1.300621E-06 -0.392804
vn 0.9196218 3.901869E-06 -0.3928049
vn 0.9196221 0 -0.3928042
vn 0.9196215 -1.300621E-06 -0.3928057
vn 0.9196221 3.901873E-06 -0.3928042
vn 0.9196219 0 -0.3928048
vn 0 0 1
vn 0 0 1
vn 0 0 1
vn 0 0 1
vn 0 0 1
vn 0 0 1
vn 0 0 1
vn 0 0 1
vn 0 0 1
vn 0 0 1
vn 0 0 1
vn 0 0 1
vn 0 0 1
vn 0 0 1
vn 0 0 1
vn 0 0 1
vn 0 0 1
vn 0 0 -1
vn 0 0 -1
vn 0 0 -1
vn 0 0 -1
vn 0 0 -1
vn 0 0 -1
vn 0 0 -1
vn 0 0 -1
vn 0 0 -1
vn 0 0 -1
vn 0 0 -1
vn 0 0 -1
vn 0 0 -1
vn 0 0 -1
vn 0 0 -1
vn 0 0 -1
vn 0 0 -1
vn 3.532706E-07 0 1
vn 3.532706E-07 0 1
vn -2.355123E-07 0 1
vn 1.766352E-07 0 1
vn -2.355126E-07 0 1
vn 1.766352E-07 0 1
vn -2.355129E-07 0 1
vn 0 0 1
vn -2.35513E-07 0 1
vn 0 0 1
vn 4.710261E-07 0 1
vn 1.177564E-07 0 1
vn 4.710261E-07 0 1
vn 1.177567E-07 0 1
vn 1.177563E-07 0 1
vn 1.177566E-07 0 1
vn 1.177572E-07 0 1
vn 1.177565E-07 0 1
vn -1.177565E-07 0 1
vn 0 0 1
vn -1.177562E-07 0 1
vn 0 0 1
vn 0 0 1
vn 2.355135E-07 0 1
vn 0 0 1
vn 2.355135E-07 0 1
vn -1.766352E-07 0 1
vn 0 0 1
vn -1.766352E-07 0 1
vn 0 0 1
vn -3.5327E-07 0 1
vn -3.5327E-07 0 1
usemtl M_Pot
f 1/1/1 3/3/3 2/2/2 
f 1/1/1 4/4/4 3/3/3 
f 5/5/5 4/4/4 1/1/1 
f 5/5/5 6/6/6 4/4/4 
f 7/7/7 6/6/6 5/5/5 
f 7/7/7 8/8/8 6/6/6 
f 9/9/9 8/8/8 7/7/7 
f 9/9/9 10/10/10 8/8/8 
f 11/11/11 10/10/10 9/9/9 
f 11/11/11 12/12/12 10/10/10 
f 13/13/13 12/12/12 11/11/11 
f 13/13/13 14/14/14 12/12/12 
f 15/15/15 14/14/14 13/13/13 
f 15/15/15 16/16/16 14/14/14 
f 17/17/17 16/16/16 15/15/15 
f 17/17/17 18/18/18 16/16/16 
f 19/19/19 18/18/18 17/17/17 
f 19/19/19 20/20/20 18/18/18 
f 21/21/21 20/20/20 19/19/19 
f 21/21/21 22/22/22 20/20/20 
f 23/23/23 22/22/22 21/21/21 
f 23/23/23 24/24/24 22/22/22 
f 25/25/25 24/24/24 23/23/23 
f 25/25/25 26/26/26 24/24/24 
f 27/27/27 26/26/26 25/25/25 
f 27/27/27 28/28/28 26/26/26 
f 29/29/29 28/28/28 27/27/27 
f 29/29/29 30/30/30 28/28/28 
f 31/31/31 30/30/30 29/29/29 
f 31/31/31 32/32/32 30/30/30 
f 33/33/33 32/32/32 31/31/31 
f 33/33/33 34/34/34 32/32/32 
f 35/35/35 37/37/37 36/36/36 
f 35/35/35 36/36/36 38/38/38 
f 39/39/39 35/35/35 38/38/38 
f 39/39/39 38/38/38 40/40/40 
f 41/41/41 39/39/39 40/40/40 
f 41/41/41 40/40/40 42/42/42 
f 43/43/43 41/41/41 42/42/42 
f 43/43/43 42/42/42 44/44/44 
f 45/45/45 43/43/43 44/44/44 
f 45/45/45 44/44/44 46/46/46 
f 47/47/47 45/45/45 46/46/46 
f 47/47/47 46/46/46 48/48/48 
f 49/49/49 47/47/47 48/48/48 
f 49/49/49 48/48/48 50/50/50 
f 51/51/51 49/49/49 50/50/50 
f 51/51/51 50/50/50 52/52/52 
f 53/53/53 51/51/51 52/52/52 
f 53/53/53 52/52/52 54/54/54 
f 55/55/55 53/53/53 54/54/54 
f 55/55/55 54/54/54 56/56/56 
f 57/57/57 55/55/55 56/56/56 
f 57/57/57 56/56/56 58/58/58 
f 59/59/59 57/57/57 58/58/58 
f 59/59/59 58/58/58 60/60/60 
f 61/61/61 59/59/59 60/60/60 
f 61/61/61 60/60/60 62/62/62 
f 63/63/63 61/61/61 62/62/62 
f 63/63/63 62/62/62 64/64/64 
f 65/65/65 63/63/63 64/64/64 
f 65/65/65 64/64/64 66/66/66 
f 67/67/67 65/65/65 66/66/66 
f 67/67/67 66/66/66 68/68/68 
f 69/69/69 71/71/71 70/70/70 
f 69/69/69 72/72/72 71/71/71 
f 73/73/73 72/72/72 69/69/69 
f 72/72/72 74/74/74 71/71/71 
f 73/73/73 75/75/75 72/72/72 
f 76/76/76 75/75/75 73/73/73 
f 72/72/72 77/77/77 74/74/74 
f 75/75/75 77/77/77 72/72/72 
f 77/77/77 78/78/78 74/74/74 
f 76/76/76 79/79/79 75/75/75 
f 80/80/80 79/79/79 76/76/76 
f 75/75/75 81/81/81 77/77/77 
f 79/79/79 81/81/81 75/75/75 
f 77/77/77 82/82/82 78/78/78 
f 81/81/81 82/82/82 77/77/77 
f 82/82/82 83/83/83 78/78/78 
f 80/80/80 84/84/84 79/79/79 
f 85/85/85 84/84/84 80/80/80 
f 79/79/79 86/86/86 81/81/81 
f 84/84/84 86/86/86 79/79/79 
f 81/81/81 87/87/87 82/82/82 
f 86/86/86 87/87/87 81/81/81 
f 82/82/82 88/88/88 83/83/83 
f 87/87/87 88/88/88 82/82/82 
f 88/88/88 89/89/89 83/83/83 
f 85/85/85 90/90/90 84/84/84 
f 91/91/91 90/90/90 85/85/85 
f 91/91/91 92/92/92 90/90/90 
f 84/84/84 93/93/93 86/86/86 
f 90/90/90 93/93/93 84/84/84 
f 92/92/92 94/94/94 90/90/90 
f 90/90/90 94/94/94 93/93/93 
f 92/92/92 95/95/95 94/94/94 
f 86/86/86 96/96/96 87/87/87 
f 93/93/93 96/96/96 86/86/86 
f 87/87/87 97/97/97 88/88/88 
f 96/96/96 97/97/97 87/87/87 
f 88/88/88 98/98/98 89/89/89 
f 97/97/97 98/98/98 88/88/88 
f 98/98/98 99/99/99 89/89/89 
f 98/98/98 100/100/100 99/99/99 
f 101/101/101 100/100/100 98/98/98 
f 97/97/97 101/101/101 98/98/98 
f 101/101/101 102/102/102 100/100/100 
f 94/94/94 103/103/103 93/93/93 
f 93/93/93 103/103/103 96/96/96 
f 95/95/95 104/104/104 94/94/94 
f 94/94/94 104/104/104 103/103/103 
f 95/95/95 105/105/105 104/104/104 
f 96/96/96 106/106/106 97/97/97 
f 106/106/106 101/101/101 97/97/97 
f 103/103/103 106/106/106 96/96/96 
f 107/107/107 102/102/102 101/101/101 
f 106/106/106 107/107/107 101/101/101 
f 107/107/107 108/108/108 102/102/102 
f 103/103/103 109/109/109 106/106/106 
f 104/104/104 109/109/109 103/103/103 
f 109/109/109 107/107/107 106/106/106 
f 105/105/105 110/110/110 104/104/104 
f 104/104/104 110/110/110 109/109/109 
f 105/105/105 111/111/111 110/110/110 
f 112/112/112 108/108/108 107/107/107 
f 109/109/109 112/112/112 107/107/107 
f 110/110/110 112/112/112 109/109/109 
f 112/112/112 113/113/113 108/108/108 
f 111/111/111 114/114/114 110/110/110 
f 110/110/110 114/114/114 112/112/112 
f 114/114/114 113/113/113 112/112/112 
f 111/111/111 115/115/115 114/114/114 
f 114/114/114 116/116/116 113/113/113 
f 115/115/115 116/116/116 114/114/114 
f 115/115/115 117/117/117 116/116/116 
f 118/118/118 120/120/120 119/119/119 
f 118/118/118 121/121/121 120/120/120 
f 122/122/122 124/124/124 123/123/123 
f 122/122/122 125/125/125 124/124/124 
f 126/126/126 128/128/128 127/127/127 
f 126/126/126 129/129/129 128/128/128 
f 130/130/130 129/129/129 126/126/126 
f 130/130/130 131/131/131 129/129/129 
f 132/132/132 134/134/134 133/133/133 
f 132/132/132 133/133/133 135/135/135 
f 136/136/136 132/132/132 135/135/135 
f 136/136/136 135/135/135 137/137/137 
f 138/138/138 140/140/140 139/139/139 
f 138/138/138 141/141/141 140/140/140 
f 142/142/142 144/144/144 143/143/143 
f 142/142/142 145/145/145 144/144/144 
f 146/146/146 148/148/148 147/147/147 
f 146/146/146 147/147/147 149/149/149 
f 146/146/146 150/150/150 148/148/148 
f 146/146/146 149/149/149 151/151/151 
f 146/146/146 152/152/152 150/150/150 
f 146/146/146 151/151/151 152/152/152 
f 153/153/153 155/155/155 154/154/154 
f 153/153/153 154/154/154 156/156/156 
f 153/153/153 157/157/157 155/155/155 
f 153/153/153 156/156/156 158/158/158 
f 153/153/153 159/159/159 157/157/157 
f 153/153/153 158/158/158 160/160/160 
f 153/153/153 161/161/161 159/159/159 
f 153/153/153 160/160/160 162/162/162 
f 153/153/153 163/163/163 161/161/161 
f 153/153/153 162/162/162 164/164/164 
f 153/153/153 165/165/165 163/163/163 
f 153/153/153 164/164/164 166/166/166 
f 153/153/153 167/167/167 165/165/165 
f 153/153/153 166/166/166 168/168/168 
f 153/153/153 169/169/169 167/167/167 
f 153/153/153 168/168/168 169/169/169 
f 170/170/170 172/172/172 171/171/171 
f 170/170/170 173/173/173 172/172/172 
f 170/170/170 171/171/171 174/174/174 
f 170/170/170 175/175/175 173/173/173 
f 170/170/170 174/174/174 176/176/176 
f 170/170/170 177/177/177 175/175/175 
f 170/170/170 176/176/176 178/178/178 
f 170/170/170 179/179/179 177/177/177 
f 170/170/170 178/178/178 180/180/180 
f 170/170/170 181/181/181 179/179/179 
f 170/170/170 180/180/180 182/182/182 
f 170/170/170 183/183/183 181/181/181 
f 170/170/170 182/182/182 184/184/184 
f 170/170/170 185/185/185 183/183/183 
f 170/170/170 184/184/184 186/186/186 
f 170/170/170 186/186/186 185/185/185 
f 187/187/187 189/189/189 188/188/188 
f 190/190/190 187/187/187 188/188/188 
f 187/187/187 191/191/191 189/189/189 
f 190/190/190 188/188/188 192/192/192 
f 191/191/191 193/193/193 189/189/189 
f 194/194/194 190/190/190 192/192/192 
f 191/191/191 195/195/195 193/193/193 
f 194/194/194 192/192/192 196/196/196 
f 195/195/195 197/197/197 193/193/193 
f 198/198/198 194/194/194 196/196/196 
f 195/195/195 199/199/199 197/197/197 
f 198/198/198 196/196/196 200/200/200 
f 199/199/199 201/201/201 197/197/197 
f 202/202/202 198/198/198 200/200/200 
f 199/199/199 203/203/203 201/201/201 
f 202/202/202 200/200/200 204/204/204 
f 203/203/203 205/205/205 201/201/201 
f 206/206/206 202/202/202 204/204/204 
f 203/203/203 207/207/207 205/205/205 
f 206/206/206 204/204/204 208/208/208 
f 207/207/207 209/209/209 205/205/205 
f 210/210/210 206/206/206 208/208/208 
f 207/207/207 211/211/211 209/209/209 
f 210/210/210 208/208/208 212/212/212 
f 211/211/211 213/213/213 209/209/209 
f 214/214/214 210/210/210 212/212/212 
f 211/211/211 215/215/215 213/213/213 
f 214/214/214 212/212/212 216/216/216 
f 215/215/215 217/217/217 213/213/213 
f 218/218/218 214/214/214 216/216/216 
f 215/215/215 218/218/218 217/217/217 
f 218/218/218 216/216/216 217/217/217 
