# exported by StudySceneExporter from mesh 'plate'
mtllib materials.mtl
v 0.01757385 0.1208655 -0.05553497
v 0.01272766 0.1294424 -0.03228622
v 0.01259277 0.129039 -0.03220642
v 0.01742432 0.1204892 -0.05538231
v 0.007418213 0.1332201 -0.008029251
v 0.0218219 0.10784 -0.07662705
v 0.02165893 0.1075046 -0.07640816
v 0.007536621 0.1336365 -0.008032913
v 0.002015381 0.1324564 0.01654945
v 0.02541565 0.09112778 -0.09520813
v 0.0252417 0.09084473 -0.0949308
v 0.002117309 0.1328705 0.01662331
v -0.003374023 0.1272397 0.04049065
v 0.02812622 0.07110123 -0.1101794
v 0.02794311 0.07088104 -0.109855
v -0.003289185 0.1276372 0.0406398
v -0.00862854 0.1174234 0.06322303
v 0.02996277 0.04860046 -0.1214843
v 0.02977417 0.04845108 -0.1211245
v -0.008560791 0.1177899 0.06344383
v -0.01349609 0.1032353 0.08362205
v 0.03075317 0.02438553 -0.1282328
v 0.03056213 0.02431213 -0.1278518
v -0.01344421 0.1035571 0.08390693
v -0.01782776 0.08540253 0.1010978
v 0.03057495 -0.0007432556 -0.1306741
v 0.03038452 -0.000737915 -0.1302856
v -0.01778931 0.08566833 0.1014377
v -0.02146484 0.0642221 0.1149667
v 0.02933655 -0.02574585 -0.1282523
v 0.02914917 -0.02566208 -0.1278712
v -0.02143799 0.06442123 0.1153502
v -0.02427734 0.04056519 0.1247495
v 0.02716797 -0.0499736 -0.1214875
v 0.02698791 -0.04981369 -0.1211276
v -0.02425842 0.04068985 0.1251638
v -0.02611816 0.01491379 0.1298317
v 0.02407288 -0.0722522 -0.1102354
v 0.02390259 -0.0720224 -0.1099108
v -0.02610474 0.01495773 0.1302621
v -0.02690552 -0.0117215 0.129979
v 0.02021973 -0.09217621 -0.09521416
v 0.02006165 -0.09188385 -0.09493683
v -0.02689453 -0.01176132 0.1304098
v -0.02651489 -0.0384494 0.1247335
v 0.01570312 -0.108602 -0.07671218
v 0.01555908 -0.1082581 -0.07649292
v -0.02650269 -0.0385733 0.1251478
v -0.02498413 -0.06353607 0.1144946
v 0.01070557 -0.1214239 -0.05554458
v 0.01057739 -0.1210397 -0.05539177
v -0.02496765 -0.06373901 0.1148766
v -0.02251648 -0.08435028 0.1005262
v 0.005402221 -0.1296896 -0.03239121
v 0.005290527 -0.1292798 -0.03231102
v -0.02249268 -0.08461914 0.1008643
v -0.01925049 -0.1022577 0.08328598
v -3.78418E-05 -0.133609 -0.008050079
v -0.0001330566 -0.1331866 -0.008046341
v -0.0192157 -0.1025827 0.08356979
v -0.01518494 -0.116423 0.06288338
v -0.005383301 -0.1325543 0.01650291
v -0.005461426 -0.1321353 0.01642952
v -0.01513794 -0.1167929 0.0631031
v -0.01056335 -0.1266183 0.04044998
v -0.01050171 -0.12702 0.04059898
v -0.02485229 -0.06391571 0.1152261
v -0.0223706 -0.08485199 0.1011761
v -0.01908508 -0.1028641 0.08383514
v -0.01499634 -0.1171124 0.06331336
v -0.01034668 -0.1273672 0.04074882
v -0.005214843 -0.1329163 0.01658791
v -0.02639099 -0.03868255 0.1255249
v 0.0001452637 -0.1339737 -0.008031082
v -0.02678406 -0.0117984 0.1308011
v 0.005599365 -0.1300439 -0.03243759
v -0.02599182 0.01499252 0.1306531
v 0.01091675 -0.1217557 -0.05565323
v -0.02414124 0.04079376 0.125541
v 0.01592773 -0.1088995 -0.07687782
v -0.02131287 0.06458893 0.115701
v 0.02045593 -0.0924295 -0.09542946
v -0.01765503 0.08589325 0.101751
v 0.02432068 -0.07245208 -0.1104911
v -0.01329834 0.1038303 0.0841732
v 0.02742371 -0.05011353 -0.1217735
v -0.008400879 0.118101 0.06365509
v 0.02959778 -0.02582062 -0.1285566
v -0.003114624 0.1279749 0.04078979
v 0.03083984 -0.0007507324 -0.1309847
v 0.002305298 0.133222 0.01670876
v 0.03101868 0.02444549 -0.1285369
v 0.007739258 0.1339902 -0.00801384
v 0.03022583 0.04872559 -0.1217702
v 0.01294373 0.1297849 -0.03233238
v 0.0283844 0.07128692 -0.110435
v 0.01780334 0.121185 -0.05564361
v 0.02566711 0.09136734 -0.0954235
v 0.02206299 0.1081244 -0.07679245
v 0.0313501 0.02447388 -0.1286667
v 0.03055542 0.04879028 -0.1218896
v 0.02871155 0.07138519 -0.1105375
v 0.0259906 0.09149566 -0.09550354
v 0.02238037 0.108278 -0.07684479
v 0.01811462 0.121358 -0.05566429
v 0.03117065 -0.0007601929 -0.1311182
v 0.01324829 0.1299707 -0.03231804
v 0.02992676 -0.02586746 -0.1286865
v 0.008035278 0.1341824 -0.007963181
v 0.02774963 -0.05019668 -0.1218932
v 0.002593384 0.1334132 0.01679642
v 0.02464233 -0.07256866 -0.1105936
v -0.002835083 0.1281581 0.04091339
v 0.02077087 -0.09257599 -0.09550957
v -0.008128662 0.1182697 0.06381287
v 0.01623596 -0.1090707 -0.07693023
v -0.01303345 0.1039774 0.0843618
v 0.01121704 -0.1219464 -0.0556739
v -0.01739624 0.08601349 0.1019659
v 0.005891113 -0.1302469 -0.03242348
v -0.02106018 0.06467742 0.1159369
v 0.0004296875 -0.1341824 -0.007980347
v -0.02389343 0.04084656 0.1257918
v -0.004937744 -0.1331235 0.01667541
v -0.02574646 0.01500671 0.1309112
v -0.01007812 -0.1275662 0.0408725
v -0.02654053 -0.01182434 0.1310597
v -0.01473389 -0.1172961 0.06347084
v -0.02614624 -0.03874878 0.1257754
v -0.01882935 -0.1030261 0.08402336
v -0.0246051 -0.06401947 0.1154612
v -0.02211975 -0.08498748 0.1013903
v -0.02622009 -0.01183228 0.1311182
v -0.02582703 -0.03875457 0.1258343
v -0.02428589 -0.06402313 0.1155209
v -0.02180054 -0.08498932 0.1014512
v -0.01851013 -0.1030264 0.08408569
v -0.01441467 -0.1172952 0.06353492
v -0.02542664 0.01499649 0.1309697
v -0.009760132 -0.1275644 0.04093841
v -0.02357422 0.0408342 0.1258508
v -0.004619751 -0.1331213 0.01674339
v -0.02074097 0.06466308 0.1159966
v 0.0007470703 -0.1341803 -0.007910308
v -0.01707764 0.08599731 0.1020268
v 0.006207886 -0.1302451 -0.03235138
v -0.01271484 0.1039596 0.08442429
v 0.0115332 -0.1219452 -0.05559982
v -0.007811279 0.1182507 0.06387703
v 0.01655212 -0.1090707 -0.07685424
v -0.00251709 0.1281383 0.04097939
v 0.02108704 -0.0925772 -0.09543205
v 0.002910156 0.1333932 0.01686447
v 0.02495666 -0.07257172 -0.1105151
v 0.008351441 0.1341626 -0.007893142
v 0.02806518 -0.05020142 -0.1218135
v 0.01356384 0.1299512 -0.03224586
v 0.0302417 -0.02587433 -0.1286063
v 0.01843018 0.121339 -0.05559013
v 0.03148498 -0.0007690429 -0.1310379
v 0.02269531 0.1082602 -0.07676895
v 0.03166443 0.02446289 -0.1285865
v 0.02630554 0.09147903 -0.09542602
v 0.03086975 0.04877731 -0.1218101
v 0.02902588 0.07137024 -0.1104588
v 0.03049255 -0.02584488 -0.1283552
v 0.03173401 -0.000776062 -0.1307834
v 0.03191284 0.02441925 -0.1283356
v 0.03111999 0.04869827 -0.121569
v 0.02927856 0.07125854 -0.1102342
v 0.02656189 0.09133789 -0.09522316
v 0.02831909 -0.05013672 -0.1215723
v 0.02295715 0.1080948 -0.07659317
v 0.02521545 -0.07247436 -0.1102903
v 0.01869812 0.1211545 -0.05544518
v 0.02135132 -0.09245086 -0.09522926
v 0.01383911 0.1297542 -0.03213478
v 0.01682251 -0.1089206 -0.07667839
v 0.008634644 0.1339594 -0.007817459
v 0.01181152 -0.1217764 -0.05545487
v 0.003200684 0.1331912 0.01690407
v 0.00649353 -0.1300644 -0.03224022
v -0.002218628 0.127944 0.04098412
v 0.001040649 -0.1339935 -0.007834625
v -0.007504883 0.118071 0.06384857
v -0.004318237 -0.1329361 0.0167833
v -0.01240112 0.1038003 0.08436584
v -0.009450683 -0.1273874 0.04094322
v -0.01675781 0.08586425 0.1019428
v -0.01409912 -0.1171329 0.06350677
v -0.02041504 0.06456085 0.1158923
v -0.01818909 -0.1028851 0.08402778
v -0.02324463 0.0407666 0.1257322
v -0.021474 -0.08487396 0.1013681
v -0.02509522 0.01496643 0.1308437
v -0.02395569 -0.0639386 0.1154175
v -0.02588745 -0.01182343 0.130992
v -0.02549438 -0.03870636 0.1257158
v -0.02015747 0.06438614 0.1156325
v -0.02297974 0.04065429 0.1254466
v -0.02482544 0.01492172 0.1305447
v -0.02561523 -0.01179794 0.1306925
v -0.02522278 -0.03861053 0.1254302
v -0.02368774 -0.06377655 0.115159
v -0.0165094 0.08563355 0.1017197
v -0.02121338 -0.08465698 0.1011465
v -0.01216431 0.1035229 0.08418877
v -0.0179364 -0.1026208 0.08385155
v -0.007280273 0.117756 0.06372535
v -0.01385803 -0.1168314 0.06338424
v -0.002008667 0.1276031 0.04092079
v -0.009221192 -0.127059 0.0408799
v 0.003396606 0.1328366 0.01690376
v -0.004102783 -0.1325931 0.01678337
v 0.008817138 0.1336026 -0.007752914
v 0.001242065 -0.1336478 -0.007770004
v 0.01400757 0.1294084 -0.03200653
v 0.006681519 -0.1297287 -0.03211151
v 0.01885376 0.1208315 -0.05525574
v 0.01198547 -0.1214627 -0.05526543
v 0.02310181 0.1078058 -0.07634827
v 0.01698303 -0.1086404 -0.07643326
v 0.02669678 0.09109283 -0.09492943
v 0.02149963 -0.09221405 -0.09493553
v 0.02940613 0.07106613 -0.109901
v 0.02535339 -0.07228974 -0.109957
v 0.03124329 0.04856506 -0.1212062
v 0.02844848 -0.05001068 -0.1212093
v 0.03203369 0.02434967 -0.1279549
v 0.03061706 -0.02578262 -0.1279745
v 0.03185547 -0.0007795715 -0.1303964
v 0.02151611 -0.09192505 -0.09461815
v 0.02535767 -0.0720636 -0.1095921
v 0.0284436 -0.04985504 -0.1208089
v 0.03060486 -0.02570328 -0.1275526
v 0.0318396 -0.0007791137 -0.1299669
v 0.03201721 0.02427078 -0.1275331
v 0.01701416 -0.1082993 -0.07617424
v 0.03122925 0.04840973 -0.1208058
v 0.01203247 -0.1210812 -0.05507316
v 0.02939819 0.07083969 -0.1095364
v 0.006745605 -0.129321 -0.03199242
v 0.02669678 0.09080337 -0.09461212
v 0.001323242 -0.1332278 -0.007727737
v 0.02311401 0.1074634 -0.07608948
v -0.004005127 -0.1321765 0.01674828
v 0.01887939 0.120448 -0.05506363
v -0.009107666 -0.1266599 0.04076866
v 0.01404846 0.1289978 -0.03188774
v -0.01372925 -0.1164645 0.06320198
v 0.008874511 0.1331789 -0.007710647
v -0.01779419 -0.1022989 0.08360466
v 0.00347168 0.1324152 0.01686821
v -0.02106079 -0.08439178 0.1008449
v -0.001917725 0.1271985 0.0408094
v -0.02352783 -0.06357697 0.1148133
v -0.007172851 0.117382 0.06354194
v -0.02505859 -0.0384906 0.1250523
v -0.01204102 0.103194 0.08394073
v -0.02544983 -0.0117627 0.1302978
v -0.01637207 0.08536118 0.1014164
v -0.02466247 0.01487259 0.1301505
v -0.02000915 0.0641809 0.1152853
v -0.02282226 0.04052399 0.1250683
v -0.013396 0.07199585 0.05724151
v -0.01641052 0.05958511 0.06940361
v -0.01894165 0.04484466 0.07905548
v -0.02089844 0.02838089 0.0858638
v -0.02217896 0.01052902 0.08940071
v -0.02272705 -0.00800766 0.08950325
v -0.01000732 0.08186981 0.04304512
v -0.02245483 -0.02660873 0.08585266
v -0.006350098 0.08870132 0.0272245
v -0.02139038 -0.04406738 0.07872695
v -0.002599487 0.09233185 0.0105629
v -0.01967346 -0.05855316 0.06900581
v 0.001160278 0.09286331 -0.006542587
v -0.0173999 -0.07101563 0.0570076
v 0.004761352 0.08995361 -0.02336838
v -0.01457092 -0.08087402 0.04280853
v 0.008123779 0.08400345 -0.03949745
v -0.01135376 -0.08796936 0.02719612
v 0.01107056 0.07496689 -0.05413032
v -0.007802734 -0.09180847 0.01047935
v 0.01356445 0.06337249 -0.0670211
v -0.004094238 -0.09254028 -0.006554413
v 0.01544434 0.04947906 -0.07740746
v -0.0003210449 -0.08982147 -0.02344131
v 0.01671814 0.03386902 -0.08525024
v 0.003358154 -0.08408691 -0.03950416
v 0.01726685 0.01706955 -0.0899321
v 0.006825561 -0.07519134 -0.0541893
v 0.01714355 -0.0003637695 -0.09162597
v 0.009958496 -0.06379608 -0.06702522
v 0.01628357 -0.01770935 -0.08994567
v 0.01263184 -0.0499736 -0.07744621
v 0.01477905 -0.03451752 -0.08525246
v 0.002904663 -0.08230621 -0.0387632
v 0.006298828 -0.07359802 -0.05313965
v 0.009365845 -0.06244171 -0.06570587
v 0.01198303 -0.04890991 -0.07590789
v 0.01408508 -0.03377884 -0.08355011
v 0.01555786 -0.01732376 -0.08814468
v -0.0006970215 -0.08792023 -0.02303779
v 0.01640015 -0.0003425598 -0.08978966
v -0.00439209 -0.09058227 -0.006505737
v 0.01652161 0.01672424 -0.08813148
v -0.008022461 -0.08986603 0.01017006
v 0.01598389 0.03317077 -0.08354797
v -0.01149841 -0.08610748 0.02653549
v 0.01473633 0.0484526 -0.07586998
v -0.01464722 -0.07916107 0.04181976
v 0.01289551 0.06205414 -0.06570183
v -0.01741699 -0.06950989 0.05572044
v 0.01045471 0.07340484 -0.05308197
v -0.01964233 -0.05730926 0.06746643
v 0.00756958 0.08225143 -0.03875664
v -0.02132385 -0.04312805 0.07698333
v 0.004278564 0.08807663 -0.02296646
v -0.02236633 -0.02603607 0.08395927
v 0.0007531738 0.09092529 -0.00649414
v -0.02263184 -0.007825928 0.08753318
v -0.002928467 0.09040482 0.01025169
v -0.02209473 0.01032104 0.08743286
v -0.006600342 0.08685058 0.02656319
v -0.02084167 0.02779785 0.08397026
v -0.01018066 0.0801625 0.04205116
v -0.01892578 0.04391571 0.07730499
v -0.01349731 0.07049591 0.05594925
v -0.01644836 0.05834625 0.06785576
v -0.003473511 0.08866852 0.009915847
v -0.007073974 0.08518326 0.02591057
v -0.01058472 0.07862518 0.04109779
v -0.01383667 0.06914642 0.05472595
v -0.01673035 0.05723266 0.06640129
v -0.01916016 0.04308227 0.07566688
v 0.0001361084 0.08917877 -0.006504974
v -0.02103882 0.02727722 0.08220275
v 0.00359314 0.0863855 -0.02265739
v -0.02226807 0.01013992 0.08559807
v 0.006820679 0.08067352 -0.03814079
v -0.02279419 -0.007654724 0.08569649
v 0.009649658 0.0719986 -0.05218796
v -0.02253357 -0.02551117 0.082192
v 0.01204346 0.06086838 -0.06456268
v -0.02151123 -0.04227112 0.07535156
v 0.01384827 0.04753082 -0.07453331
v -0.01986267 -0.05617706 0.06601944
v 0.01507202 0.03254562 -0.0820623
v -0.01768066 -0.06814056 0.05450142
v 0.01559814 0.01641876 -0.08655678
v -0.01496521 -0.07760437 0.04087074
v 0.01547913 -0.0003167725 -0.08818275
v -0.01187683 -0.08441558 0.02588341
v 0.01465332 -0.01696808 -0.08656967
v -0.008468628 -0.08810119 0.009835662
v 0.01320923 -0.03310333 -0.08206436
v -0.004908447 -0.08880371 -0.006516342
v 0.01114868 -0.04794067 -0.07457054
v -0.0012854 -0.08619354 -0.02272728
v 0.008582153 -0.06121002 -0.06456672
v 0.002246704 -0.08068848 -0.03814705
v 0.005574951 -0.07214935 -0.05224449
v -0.01202393 -0.07582855 -0.007330551
v -0.008920899 -0.07359283 -0.02121651
v -0.005895386 -0.06887726 -0.03442482
v -0.003043823 -0.0615628 -0.04650032
v -0.0004675293 -0.05219208 -0.05705513
v 0.001730957 -0.04082611 -0.06562431
v -0.01507324 -0.07522675 0.006676102
v 0.003496094 -0.02811676 -0.07204323
v -0.01799316 -0.0720697 0.02042221
v 0.004733276 -0.01429565 -0.07590248
v -0.02063843 -0.06623504 0.03326011
v 0.005440063 -3.234863E-05 -0.07728416
v -0.02296387 -0.05812896 0.04493584
v 0.005541992 0.01430283 -0.07589134
v -0.02483337 -0.04788116 0.05480194
v 0.005090332 0.02811691 -0.07204155
v -0.02624634 -0.03596954 0.06279556
v 0.004042969 0.04095276 -0.06559234
v -0.02712158 -0.02161346 0.06865486
v 0.002497558 0.05237732 -0.0570517
v -0.02734558 -0.006317749 0.07165672
v 0.0004467773 0.06191131 -0.0464518
v -0.02689453 0.008924561 0.07157249
v -0.001976929 0.06934204 -0.03441948
v -0.02584167 0.02360397 0.06866417
v -0.004741821 0.07423477 -0.02115669
v -0.02423218 0.03714218 0.06306572
v -0.007702637 0.0766275 -0.007320938
v -0.02215088 0.049263 0.05512901
v -0.01079468 0.07619049 0.006744766
v -0.01967163 0.05946808 0.04512825
v -0.01387817 0.07320511 0.02044563
v -0.01688599 0.06758743 0.03345466
v -0.007475586 0.06588226 -0.01949203
v -0.0101001 0.06800216 -0.007232895
v -0.01303589 0.0004890442 -0.003111496
v -0.01283936 0.06761505 0.005230026
v -0.005026245 0.06154693 -0.03124351
v -0.0155719 0.06496979 0.01736961
v -0.002879639 0.05496307 -0.04190491
v -0.01823608 0.05999237 0.02889626
v -0.001062012 0.04651535 -0.05129692
v -0.02070495 0.05279816 0.03923958
v 0.0003076172 0.03639267 -0.05886436
v -0.02290161 0.04375595 0.04810081
v 0.001235962 0.02501938 -0.06457863
v -0.02474487 0.03301636 0.05513313
v 0.001635132 0.01277954 -0.0679898
v -0.02617065 0.02102081 0.06009361
v 0.00154541 7.781982E-05 -0.06922371
v -0.02710327 0.008014068 0.06267051
v 0.0009191894 -0.01256012 -0.06799965
v -0.02750305 -0.005491485 0.06274528
v -0.0001770019 -0.02480637 -0.06458015
v -0.0273053 -0.01904404 0.06008552
v -0.001741943 -0.0360675 -0.05889259
v -0.02652954 -0.03176437 0.05489387
v -0.003689575 -0.04613846 -0.05129997
v -0.02527832 -0.04231872 0.04781105
v -0.0059729 -0.05444122 -0.04194786
v -0.02362183 -0.05139862 0.03906929
v -0.008498535 -0.06092224 -0.03124832
v -0.02156128 -0.05858124 0.02872398
v -0.01117859 -0.0651004 -0.01954506
v -0.01921753 -0.06375092 0.01734894
v -0.01392822 -0.06708129 -0.00724144
v -0.01663025 -0.06654815 0.005169296
v 0.01259277 0.129039 -0.03220642
v 0.001358643 0.09150345 -0.02450363
v 0.00477539 0.08545715 -0.04089332
v 0.01742432 0.1204892 -0.05538231
v 0.007418213 0.1332201 -0.008029251
v 0.007769775 0.07627472 -0.05576248
v 0.02165893 0.1075046 -0.07640816
v -0.002301025 0.09446029 -0.007406006
v 0.002015381 0.1324564 0.01654945
v 0.01030334 0.0644931 -0.06886154
v 0.0252417 0.09084473 -0.0949308
v -0.006122436 0.09392028 0.009975891
v -0.003374023 0.1272397 0.04049065
v 0.01221313 0.05037506 -0.07941581
v 0.02794311 0.07088104 -0.109855
v -0.009933472 0.09023117 0.02690666
v -0.00862854 0.1174234 0.06322303
v 0.0135083 0.03451278 -0.0873854
v 0.02977417 0.04845108 -0.1211245
v -0.0136499 0.08328918 0.04298287
v -0.01349609 0.1032353 0.08362205
v 0.01406555 0.01744202 -0.09214272
v 0.03056213 0.02431213 -0.1278518
v -0.01709229 0.07325561 0.0574086
v -0.01782776 0.08540253 0.1010978
v 0.01394043 -0.0002728271 -0.09386383
v 0.03038452 -0.000737915 -0.1302856
v -0.02015564 0.06064453 0.06976707
v -0.02146484 0.0642221 0.1149667
v 0.01306702 -0.01789887 -0.09215645
v 0.02914917 -0.02566208 -0.1278712
v -0.02272766 0.04566605 0.07957496
v -0.02427734 0.04056519 0.1247495
v 0.01153809 -0.03497833 -0.08738746
v 0.02698791 -0.04981369 -0.1211276
v -0.02471619 0.02893616 0.08649337
v -0.02611816 0.01491379 0.1298317
v 0.009356079 -0.0506842 -0.07945503
v 0.02390259 -0.0720224 -0.1099108
v -0.02601746 0.0107959 0.09008735
v -0.02690552 -0.0117215 0.129979
v 0.006639404 -0.06472992 -0.06886574
v 0.02006165 -0.09188385 -0.09493683
v -0.02657471 -0.008040161 0.0901915
v -0.02651489 -0.0384494 0.1247335
v 0.0034552 -0.07630951 -0.05582245
v 0.01555908 -0.1082581 -0.07649292
v -0.02629883 -0.02694183 0.08648193
v -0.02498413 -0.06353607 0.1144946
v -6.774902E-05 -0.08534851 -0.04090011
v 0.01057739 -0.1210397 -0.05539177
v -0.02521667 -0.04468261 0.0792411
v -0.02251648 -0.08435028 0.1005262
v -0.003806152 -0.09117584 -0.02457779
v 0.005290527 -0.1292798 -0.03231102
v -0.02347107 -0.05940247 0.06936287
v -0.01925049 -0.1022577 0.08328598
v -0.007640991 -0.0939386 -0.00741806
v -0.0001330566 -0.1331866 -0.008046341
v -0.02116089 -0.07206634 0.05717094
v -0.01518494 -0.116423 0.06288338
v -0.0114093 -0.09319519 0.009891052
v -0.005461426 -0.1321353 0.01642952
v -0.01828613 -0.08208404 0.04274246
v -0.01056335 -0.1266183 0.04044998
v -0.01501709 -0.08929382 0.02687782
v -0.02500854 -0.053013 0.06114372
v -0.0229425 -0.06434143 0.05023727
v -0.02037109 -0.07330292 0.03733017
v -0.0174469 -0.0797525 0.02313828
v -0.01421875 -0.08324249 0.007942429
v -0.01084778 -0.08390778 -0.007541504
v -0.02656982 -0.03984497 0.06998046
v -0.007416992 -0.08143616 -0.022892
v -0.02753784 -0.02397476 0.0764579
v -0.004072876 -0.07622345 -0.03749336
v -0.02778442 -0.00706604 0.07977638
v -0.0009216308 -0.06813721 -0.05084236
v -0.02728638 0.009783936 0.07968315
v 0.001926269 -0.05777862 -0.06251037
v -0.02612244 0.0260115 0.07646797
v 0.004356689 -0.04521377 -0.07198318
v -0.02434326 0.04097748 0.07027908
v 0.006308594 -0.03116394 -0.07907929
v -0.02204285 0.05437652 0.06150528
v 0.007675781 -0.01588516 -0.08334541
v -0.01930237 0.06565796 0.05044983
v 0.008458252 -0.0001177978 -0.08487274
v -0.01622314 0.07463378 0.03754509
v 0.008570557 0.01572937 -0.08333305
v -0.01289856 0.08084366 0.02316406
v 0.008072509 0.03100037 -0.07907722
v -0.009489136 0.08414398 0.008018341
v 0.006913452 0.04518997 -0.07194801
v -0.006071167 0.08462708 -0.007530899
v 0.005204468 0.05781952 -0.06250664
v -0.002797852 0.08198211 -0.02282585
v 0.002938232 0.06835876 -0.0507888
v 0.000258789 0.07657318 -0.03748741
v -0.0001171875 0.02781464 -0.07201599
v -0.001148071 0.04044525 -0.06566994
v -0.002669067 0.05168732 -0.05726585
v -0.00468689 0.06106872 -0.04683548
v -0.007072143 0.06838043 -0.03499557
v -0.009792481 0.07319503 -0.02194473
v 0.0003271484 0.0142215 -0.07580421
v -0.0127063 0.07554931 -0.008330307
v 0.0002270508 0.000115509 -0.07717476
v -0.01574829 0.07511932 0.005510559
v -0.00046875 -0.01391968 -0.0758152
v -0.01878296 0.0721817 0.01899223
v -0.001685791 -0.02751984 -0.07201767
v -0.02174194 0.06665405 0.03179329
v -0.003422851 -0.04002609 -0.06570122
v -0.02448303 0.0586644 0.04328026
v -0.005585937 -0.05121063 -0.05726921
v -0.02692261 0.04862259 0.05312111
v -0.008121338 -0.06043121 -0.04688309
v -0.02897034 0.03669555 0.06093101
v -0.01092712 -0.06762848 -0.03500076
v -0.0305542 0.02337387 0.0664399
v -0.01390381 -0.07226867 -0.02200356
v -0.03158997 0.008929138 0.06930175
v -0.0169574 -0.07446869 -0.008339691
v -0.03203369 -0.006069641 0.06938476
v -0.01995789 -0.07387665 0.005442963
v -0.03181335 -0.0211206 0.06643089
v -0.02283142 -0.07076996 0.01896927
v -0.03095215 -0.03524719 0.06066513
v -0.02543396 -0.06502899 0.03160187
v -0.02956299 -0.04696838 0.05279922
v -0.027724 -0.05705231 0.04309097
v -0.03087891 -0.005570373 0.06402969
v -0.03089172 -0.01950806 0.0612458
v -0.01617798 0.0005467224 -0.003793106
v -0.03031372 -0.03258972 0.05585502
v -0.03026794 0.008319092 0.06399544
v -0.02922485 -0.04344391 0.04852195
v -0.02912964 0.02169525 0.06138084
v -0.02770752 -0.05278168 0.03948387
v -0.02751343 0.03403137 0.05630661
v -0.02575439 -0.06016876 0.02879898
v -0.02549805 0.04507629 0.04909271
v -0.02348633 -0.06548493 0.0170594
v -0.02315613 0.05437531 0.03998878
v -0.02093811 -0.06836181 0.004498062
v -0.02057007 0.06177399 0.0293512
v -0.01823913 -0.06891022 -0.008294296
v -0.01782287 0.066893 0.01748756
v -0.01545349 -0.06687286 -0.02096847
v -0.01504395 0.06961334 0.004984588
v -0.01270264 -0.06257599 -0.03301689
v -0.01229309 0.07001144 -0.007858429
v -0.01007019 -0.05591064 -0.04402336
v -0.009696655 0.06783127 -0.02049988
v -0.007653198 -0.04737228 -0.05363571
v -0.007310791 0.0633728 -0.03262497
v -0.005544433 -0.03701507 -0.06142921
v -0.005261841 0.05660171 -0.0436335
v -0.003800659 -0.02543396 -0.06725517
v -0.003573608 0.04791412 -0.05333984
v -0.002510986 -0.01283997 -0.07074058
v -0.002359619 0.03750381 -0.06117096
v -0.001686401 0.0001571655 -0.07196228
v -0.001607056 0.02580749 -0.0670961
v -0.001397705 0.01321976 -0.07065018
vt 0.1667029 0.6716127
vt 0.1973741 0.6728599
vt 0.1974409 0.6723591
vt 0.1666752 0.6711094
vt 0.2273431 0.6792158
vt 0.1364744 0.6762449
vt 0.1363524 0.6757547
vt 0.2271829 0.6796947
vt 0.2554871 0.6917158
vt 0.1075018 0.6863868
vt 0.1072903 0.6859287
vt 0.2552399 0.6921571
vt 0.2807751 0.7091069
vt 0.0811076 0.7018321
vt 0.08081327 0.7014209
vt 0.2804512 0.7094949
vt 0.3025112 0.7311094
vt 0.05790966 0.7219359
vt 0.05754453 0.721588
vt 0.3021198 0.731428
vt 0.3196181 0.7568668
vt 0.03906114 0.7460169
vt 0.03863593 0.7457436
vt 0.3191721 0.757105
vt 0.3315855 0.7853996
vt 0.02490019 0.7732527
vt 0.02443259 0.7730645
vt 0.3311022 0.7855475
vt 0.3379188 0.815949
vt 0.01624804 0.8025839
vt 0.01575204 0.8024867
vt 0.3374162 0.8160019
vt 0.3383276 0.8473517
vt 0.01311558 0.8331209
vt 0.01261089 0.8331181
vt 0.3378257 0.8473055
vt 0.3325009 0.8787469
vt 0.01587724 0.8635759
vt 0.01538064 0.8636684
vt 0.3320171 0.8786039
vt 0.3205112 0.9088819
vt 0.02421548 0.8931191
vt 0.0237459 0.8933024
vt 0.3200642 0.9086481
vt 0.3023518 0.9366106
vt 0.03800239 0.9204148
vt 0.03757436 0.9206833
vt 0.3019584 0.9362963
vt 0.2791681 0.9601245
vt 0.05663767 0.9448062
vt 0.05626832 0.9451497
vt 0.2788419 0.9597398
vt 0.2536346 0.9772786
vt 0.07950966 0.9650992
vt 0.07921195 0.9655073
vt 0.253391 0.9768358
vt 0.225508 0.9894015
vt 0.1058204 0.980906
vt 0.1056042 0.9813625
vt 0.2253528 0.9889214
vt 0.1954451 0.9959406
vt 0.1345567 0.9913416
vt 0.13443 0.9918302
vt 0.1953831 0.9954389
vt 0.1648023 0.9968365
vt 0.1648353 0.9963338
vt 0.2785344 0.9593768
vt 0.2531604 0.9764175
vt 0.2252065 0.9884685
vt 0.1953236 0.9949663
vt 0.1648667 0.995858
vt 0.1346769 0.9908789
vt 0.3015867 0.9359983
vt 0.1060241 0.9804758
vt 0.3196428 0.9084269
vt 0.07979182 0.9647139
vt 0.3315591 0.8784693
vt 0.05698651 0.9444814
vt 0.3373508 0.8472623
vt 0.03840596 0.9201599
vt 0.3369418 0.8160522
vt 0.02465918 0.8929459
vt 0.3306465 0.7856869
vt 0.01634698 0.8634889
vt 0.3187506 0.7573292
vt 0.01359191 0.8331238
vt 0.3017491 0.7317282
vt 0.0167165 0.8026754
vt 0.2801447 0.7098613
vt 0.0253425 0.7734313
vt 0.2550065 0.692573
vt 0.03946254 0.7462754
vt 0.2270313 0.6801465
vt 0.05825457 0.7222642
vt 0.1973104 0.6733325
vt 0.08138574 0.7022201
vt 0.166729 0.6720884
vt 0.1077015 0.6868194
vt 0.1365898 0.6767083
vt 0.03981534 0.7465028
vt 0.0585576 0.7225529
vt 0.08162916 0.7025607
vt 0.1078768 0.6872003
vt 0.1366913 0.6771141
vt 0.1667517 0.6725067
vt 0.02573044 0.7735876
vt 0.1972539 0.6737486
vt 0.01712773 0.8027561
vt 0.2268987 0.6805429
vt 0.01401081 0.8331257
vt 0.2548019 0.6929384
vt 0.01675964 0.8634123
vt 0.2798757 0.7101818
vt 0.02504855 0.8927943
vt 0.3014238 0.7319918
vt 0.03876095 0.9199371
vt 0.3183809 0.757526
vt 0.05729233 0.9441972
vt 0.3302459 0.7858098
vt 0.08003895 0.964377
vt 0.3365253 0.8160962
vt 0.1062042 0.980098
vt 0.3369341 0.8472257
vt 0.1347821 0.9904726
vt 0.331158 0.878352
vt 0.1648937 0.9954405
vt 0.3192723 0.9082336
vt 0.1952714 0.99455
vt 0.3012601 0.9357363
vt 0.2250774 0.9880705
vt 0.2782646 0.9590578
vt 0.2529584 0.9760511
vt 0.3189315 0.9080559
vt 0.3009613 0.9354961
vt 0.2780185 0.9587638
vt 0.2527729 0.9757146
vt 0.2249591 0.987705
vt 0.1952236 0.9941683
vt 0.330789 0.8782449
vt 0.164919 0.9950584
vt 0.3365521 0.8471922
vt 0.1348787 0.9901013
vt 0.3361433 0.8161367
vt 0.1063683 0.9797519
vt 0.3298796 0.7859229
vt 0.08026592 0.9640675
vt 0.3180423 0.7577066
vt 0.05757298 0.943936
vt 0.3011262 0.7322333
vt 0.03908593 0.9197332
vt 0.2796283 0.7104757
vt 0.02540659 0.8926545
vt 0.254614 0.6932726
vt 0.01713624 0.8633426
vt 0.2267772 0.6809063
vt 0.0143949 0.833128
vt 0.1972037 0.6741278
vt 0.01750427 0.8028309
vt 0.1667726 0.6728895
vt 0.02608579 0.7737312
vt 0.1367836 0.6774861
vt 0.04013809 0.7467099
vt 0.1080377 0.6875484
vt 0.05883488 0.7228166
vt 0.08185269 0.7028724
vt 0.01791797 0.8029122
vt 0.02647642 0.7738881
vt 0.04049184 0.7469374
vt 0.05914048 0.723107
vt 0.08209763 0.703215
vt 0.1082141 0.6879307
vt 0.01481577 0.8331304
vt 0.1368858 0.6778951
vt 0.01755052 0.8632659
vt 0.1667956 0.6733096
vt 0.02579916 0.8925012
vt 0.1971472 0.6745461
vt 0.03944273 0.9195093
vt 0.2266434 0.6813061
vt 0.05788173 0.9436487
vt 0.2544077 0.6936404
vt 0.08051468 0.9637282
vt 0.279356 0.710797
vt 0.1065495 0.9793708
vt 0.3007983 0.7324977
vt 0.1349846 0.9896934
vt 0.3176696 0.7579051
vt 0.1649466 0.9946374
vt 0.3294764 0.7860469
vt 0.195172 0.9937506
vt 0.335723 0.816182
vt 0.2248295 0.9873055
vt 0.3361315 0.8471556
vt 0.2525694 0.9753456
vt 0.3303846 0.8781278
vt 0.2777481 0.9584407
vt 0.3185573 0.9078621
vt 0.3006332 0.9352311
vt 0.3352466 0.8162335
vt 0.3356541 0.8471146
vt 0.3299239 0.8779956
vt 0.3181322 0.9076409
vt 0.3002597 0.9349304
vt 0.2774411 0.9580719
vt 0.3290181 0.7861885
vt 0.2523382 0.9749261
vt 0.3172462 0.7581308
vt 0.2246821 0.9868491
vt 0.3004248 0.7327991
vt 0.1951132 0.9932754
vt 0.2790456 0.7111617
vt 0.1649777 0.9941587
vt 0.2541731 0.6940583
vt 0.1351053 0.9892294
vt 0.2264908 0.6817614
vt 0.1067546 0.9789382
vt 0.1970828 0.6750209
vt 0.08079836 0.963341
vt 0.1668226 0.6737883
vt 0.05823229 0.9433217
vt 0.137001 0.6783611
vt 0.03984868 0.9192542
vt 0.1084154 0.6883661
vt 0.02624587 0.8923274
vt 0.08237694 0.7036045
vt 0.01802202 0.8631785
vt 0.0594877 0.7234375
vt 0.01529559 0.8331331
vt 0.04089504 0.7471973
vt 0.01838844 0.8030051
vt 0.02692098 0.7740676
vt 0.02671882 0.8921432
vt 0.01852094 0.8630866
vt 0.01580317 0.8331362
vt 0.01888693 0.8031033
vt 0.02739222 0.7742573
vt 0.04132196 0.7474726
vt 0.04027893 0.9189843
vt 0.05985552 0.7237874
vt 0.05860396 0.9429756
vt 0.08267236 0.7040178
vt 0.0810985 0.9629313
vt 0.1086279 0.6888269
vt 0.1069727 0.9784796
vt 0.137123 0.6788535
vt 0.1352337 0.9887382
vt 0.1668496 0.6742952
vt 0.1650106 0.9936522
vt 0.1970147 0.6755242
vt 0.1950502 0.9927711
vt 0.2263299 0.6822422
vt 0.2245249 0.9863658
vt 0.2539242 0.6945009
vt 0.2520925 0.9744807
vt 0.2787169 0.7115488
vt 0.277116 0.9576814
vt 0.3000299 0.7331188
vt 0.2998653 0.9346116
vt 0.3167981 0.7583699
vt 0.3176814 0.9074081
vt 0.3285321 0.7863386
vt 0.3294362 0.8778554
vt 0.334741 0.8162872
vt 0.3351476 0.847072
vt 0.2740396 0.781176
vt 0.2822447 0.8006672
vt 0.2865785 0.8215661
vt 0.2868818 0.8430436
vt 0.2828903 0.8645422
vt 0.2746962 0.8852094
vt 0.2623517 0.7635564
vt 0.2622412 0.9042175
vt 0.2474676 0.7485393
vt 0.2463279 0.9203421
vt 0.2301815 0.7366968
vt 0.2288458 0.9319941
vt 0.2109679 0.728128
vt 0.2096392 0.9403048
vt 0.1905277 0.723492
vt 0.1890966 0.9447206
vt 0.1695025 0.722607
vt 0.1681645 0.9453634
vt 0.1487874 0.7258289
vt 0.1474254 0.9418905
vt 0.1289114 0.7327523
vt 0.1277196 0.9347658
vt 0.1108363 0.7433794
vt 0.1097108 0.9238892
vt 0.09490565 0.7571391
vt 0.09401044 0.9100003
vt 0.08201258 0.7736771
vt 0.08127095 0.8932488
vt 0.07226836 0.7923372
vt 0.07178892 0.8745486
vt 0.06637212 0.8124617
vt 0.06611311 0.8542792
vt 0.06418451 0.8333992
vt 0.09571545 0.9084121
vt 0.08323546 0.8920158
vt 0.07395954 0.8737015
vt 0.06839334 0.853857
vt 0.06651422 0.8334115
vt 0.06864745 0.8129102
vt 0.111082 0.9220186
vt 0.07442951 0.7932076
vt 0.1287194 0.9326613
vt 0.08396202 0.7749325
vt 0.1480103 0.9396454
vt 0.09659314 0.7587448
vt 0.1683178 0.9430376
vt 0.1121856 0.7452654
vt 0.1888127 0.9424182
vt 0.1298885 0.7348678
vt 0.2089261 0.9380858
vt 0.1493466 0.7280798
vt 0.2277345 0.9299575
vt 0.1696308 0.7249339
vt 0.2448511 0.9185408
vt 0.1902174 0.7257907
vt 0.2604384 0.9027579
vt 0.2102289 0.7303382
vt 0.2726316 0.8841422
vt 0.229045 0.7387196
vt 0.2806552 0.8639057
vt 0.2459683 0.7503183
vt 0.2845596 0.8428531
vt 0.2605385 0.7650248
vt 0.2842702 0.821821
vt 0.2719911 0.7822704
vt 0.2800179 0.8013605
vt 0.2279832 0.74061
vt 0.2445674 0.751981
vt 0.2588447 0.7663959
vt 0.2700775 0.7832934
vt 0.2779369 0.8020074
vt 0.2821135 0.8220589
vt 0.209538 0.7324048
vt 0.2823898 0.8426746
vt 0.189927 0.7279387
vt 0.2785662 0.8633097
vt 0.1697504 0.7271085
vt 0.2707021 0.883145
vt 0.1498688 0.730183
vt 0.258754 0.9013954
vt 0.1308013 0.7368443
vt 0.2434705 0.9168572
vt 0.1134462 0.7470276
vt 0.2266961 0.9280541
vt 0.09817012 0.7602454
vt 0.2082584 0.936011
vt 0.08578414 0.7761059
vt 0.1885476 0.9402664
vt 0.07644879 0.7940222
vt 0.1684618 0.9408641
vt 0.07077376 0.813329
vt 0.1485567 0.9375479
vt 0.06869224 0.8334231
vt 0.1296537 0.9306936
vt 0.0705239 0.8534628
vt 0.1123633 0.9202712
vt 0.07598773 0.8729098
vt 0.09730941 0.9069287
vt 0.08507037 0.8908638
vt 0.1370882 0.9150431
vt 0.122642 0.906251
vt 0.109988 0.8951232
vt 0.09979111 0.881622
vt 0.09212266 0.866612
vt 0.0876129 0.8502998
vt 0.1529441 0.9207226
vt 0.0860102 0.8335176
vt 0.1696051 0.92357
vt 0.08782346 0.816689
vt 0.186429 0.9230046
vt 0.09251244 0.8004938
vt 0.2029573 0.9195108
vt 0.1003948 0.7855153
vt 0.2183823 0.9127853
vt 0.1107172 0.7721852
vt 0.2324832 0.9034649
vt 0.1235591 0.7611616
vt 0.2452348 0.8904561
vt 0.1380627 0.7525702
vt 0.2552826 0.8751867
vt 0.1540585 0.747052
vt 0.2618915 0.8585625
vt 0.1707021 0.7444067
vt 0.2651308 0.8412595
vt 0.1876005 0.7451686
vt 0.2648222 0.8239787
vt 0.2040426 0.7488405
vt 0.2613845 0.8071592
vt 0.2194634 0.7557786
vt 0.2547333 0.791504
vt 0.2333822 0.7652621
vt 0.2453801 0.7773091
vt 0.1862026 0.7555319
vt 0.2007175 0.7587953
vt 0.1756738 0.8339999
vt 0.2143471 0.7649
vt 0.1712799 0.7548825
vt 0.2266376 0.7732871
vt 0.1565786 0.7571982
vt 0.2372236 0.7839255
vt 0.1424604 0.7620929
vt 0.2455061 0.7964479
vt 0.1296419 0.7696625
vt 0.2513607 0.8102852
vt 0.1183152 0.7794151
vt 0.2544234 0.8251375
vt 0.109182 0.7911749
vt 0.2546737 0.8404058
vt 0.1022407 0.8044137
vt 0.2518211 0.8556863
vt 0.09807756 0.8187101
vt 0.2459915 0.8703753
vt 0.09649818 0.8335747
vt 0.2371178 0.8838766
vt 0.09789106 0.8483984
vt 0.2258337 0.8953514
vt 0.1018941 0.862798
vt 0.213386 0.903599
vt 0.1086458 0.8760639
vt 0.1997525 0.9095162
vt 0.1176665 0.8879747
vt 0.1851597 0.9126227
vt 0.1288251 0.8978189
vt 0.1703021 0.9130974
vt 0.1415928 0.9055651
vt 0.1555863 0.9106028
vt 0.05461026 0.9457102
vt 0.04806425 0.9519945
vt 0.05063106 0.955197
vt 0.05806595 0.9503679
vt 0.05008689 0.9420988
vt 0.05253725 0.9588102
vt 0.06094748 0.9553687
vt 0.04496215 0.9493256
vt 0.04515688 0.9389964
vt 0.05374816 0.9627253
vt 0.06244756 0.9609622
vt 0.04139914 0.9472837
vt 0.03963035 0.9372069
vt 0.05419269 0.9667799
vt 0.0632861 0.9666683
vt 0.03753455 0.9459434
vt 0.0338372 0.9365035
vt 0.05387916 0.9708602
vt 0.06262191 0.9724191
vt 0.03345104 0.9453507
vt 0.02799791 0.9365299
vt 0.05280106 0.97479
vt 0.06130169 0.9780304
vt 0.02933604 0.9455394
vt 0.02237033 0.9381223
vt 0.05100877 0.9784653
vt 0.05856837 0.9831309
vt 0.02533607 0.9465184
vt 0.01692664 0.9404036
vt 0.04856093 0.9817197
vt 0.05527607 0.987861
vt 0.02156721 0.9482606
vt 0.01229873 0.9440963
vt 0.04554342 0.9844752
vt 0.0508586 0.9915954
vt 0.01819375 0.9507273
vt 0.008139923 0.9484449
vt 0.04207141 0.986598
vt 0.04605894 0.9947794
vt 0.01530536 0.9538617
vt 0.004923364 0.9536719
vt 0.03825317 0.9880474
vt 0.04057916 0.996625
vt 0.01304002 0.9575589
vt 0.002693325 0.9595576
vt 0.03424543 0.9887421
vt 0.03494715 0.9978183
vt 0.01152985 0.961734
vt 0.002052227 0.9657722
vt 0.03016352 0.9886829
vt 0.02917597 0.9975172
vt 0.01089892 0.9661116
vt 0.002129459 0.9715468
vt 0.02618352 0.9878528
vt 0.02350303 0.9965544
vt 0.01111358 0.9702045
vt 0.003676293 0.9770809
vt 0.0224115 0.9862947
vt 0.01825049 0.9941509
vt 0.01206304 0.9741662
vt 0.005862835 0.9824237
vt 0.01901679 0.9840568
vt 0.0133337 0.9911692
vt 0.01374925 0.9778873
vt 0.009335684 0.9870031
vt 0.01608316 0.981219
vt 0.01344121 0.9698576
vt 0.01428459 0.9733922
vt 0.01579217 0.9767101
vt 0.01787029 0.9796836
vt 0.02048854 0.9822116
vt 0.02351257 0.9842101
vt 0.01324572 0.9662066
vt 0.02687649 0.9855955
vt 0.01381728 0.962306
vt 0.0304236 0.9863394
vt 0.01516382 0.9585866
vt 0.0340622 0.986388
vt 0.01717634 0.9552867
vt 0.03763466 0.9857723
vt 0.01975226 0.9524943
vt 0.04103667 0.9844769
vt 0.02276403 0.9503011
vt 0.04413304 0.9825866
vt 0.02612126 0.9487464
vt 0.04682 0.980128
vt 0.02968559 0.9478771
vt 0.04900394 0.9772287
vt 0.03335202 0.9477021
vt 0.05059755 0.9739495
vt 0.03698855 0.9482347
vt 0.05156112 0.9704472
vt 0.04043022 0.9494324
vt 0.051836 0.9668089
vt 0.04360858 0.9512472
vt 0.05144282 0.9631928
vt 0.04637109 0.953628
vt 0.05035909 0.9597036
vt 0.04866263 0.9564804
vt 0.04908788 0.9700058
vt 0.04931034 0.9668397
vt 0.0489832 0.9636927
vt 0.04802492 0.9606618
vt 0.04656315 0.957851
vt 0.04455798 0.9553798
vt 0.04823511 0.973049
vt 0.04216528 0.953299
vt 0.04686455 0.9759083
vt 0.03939399 0.9517371
vt 0.04495317 0.9784207
vt 0.03640581 0.9506864
vt 0.04262767 0.9805719
vt 0.03324617 0.9502127
vt 0.03992724 0.9822026
vt 0.03006029 0.9503818
vt 0.03697468 0.9833445
vt 0.02695821 0.9511244
vt 0.0338648 0.9838651
vt 0.02404542 0.9524898
vt 0.0307004 0.9838379
vt 0.02141488 0.9543822
vt 0.02761865 0.9831758
vt 0.01918639 0.9568202
vt 0.0246866 0.9819848
vt 0.01742349 0.9596816
vt 0.0220648 0.980233
vt 0.01626624 0.9629224
vt 0.01977632 0.9780442
vt 0.01574971 0.9663116
vt 0.01798105 0.9754481
vt 0.01593578 0.9694865
vt 0.01665509 0.9725664
vt 0.01853327 0.9602215
vt 0.01745545 0.9632224
vt 0.03253114 0.9670654
vt 0.01698074 0.9663641
vt 0.02016265 0.9575667
vt 0.01714841 0.9693069
vt 0.02223196 0.9553118
vt 0.0178197 0.9721609
vt 0.02466721 0.9535543
vt 0.01904482 0.9748339
vt 0.02736975 0.9522936
vt 0.02071278 0.9772388
vt 0.03024281 0.9516007
vt 0.02283069 0.9792714
vt 0.03319466 0.9514481
vt 0.02526351 0.980891
vt 0.03612078 0.9518853
vt 0.02797893 0.9819995
vt 0.03889102 0.9528567
vt 0.0308361 0.982609
vt 0.04145692 0.954308
vt 0.03376867 0.9826383
vt 0.0436772 0.9562324
vt 0.03664991 0.9821512
vt 0.04553174 0.9585248
vt 0.03938786 0.981097
vt 0.04689077 0.9611283
vt 0.04188777 0.9795817
vt 0.04777444 0.9639384
vt 0.04404572 0.9775916
vt 0.04808281 0.9668553
vt 0.04581279 0.9752597
vt 0.04787212 0.9697898
vt 0.04708724 0.9726112
vn -0.8119397 0.4211639 -0.4041968
vn -0.8334168 0.4635849 -0.3008409
vn -0.9360344 0.2358108 -0.2612138
vn -0.9258507 0.215592 -0.3103559
vn -0.9473259 0.242943 -0.208692
vn -0.8025631 0.3903061 -0.4511691
vn -0.9213571 0.200921 -0.332764
vn -0.8572538 0.4783948 -0.1904059
vn -0.9531521 0.241396 -0.182288
vn -0.7864364 0.3118382 -0.5331742
vn -0.913976 0.163638 -0.371309
vn -0.8692886 0.4755978 -0.1346999
vn -0.9589869 0.236481 -0.156272
vn -0.7801846 0.2655119 -0.5664057
vn -0.9111837 0.14161 -0.3868989
vn -0.8817012 0.4649591 -0.08010001
vn -0.970314 0.216853 -0.107077
vn -0.774532 0.162263 -0.611368
vn -0.9076647 0.09250396 -0.4093749
vn -0.9051264 0.4244628 0.02403299
vn -0.9756181 0.202472 -0.08470301
vn -0.7722173 0.1069441 -0.6262933
vn -0.9069595 0.06620004 -0.4159832
vn -0.9163768 0.3940269 0.07068598
vn -0.9850985 0.1656811 -0.04616102
vn -0.7741958 -0.006507998 -0.6329128
vn -0.9077618 0.012166 -0.4193099
vn -0.9367729 0.316026 0.15028
vn -0.9891317 0.1438159 -0.03058599
vn -0.7770669 -0.06301198 -0.6262559
vn -0.9092606 -0.01469299 -0.4159678
vn -0.94505 0.26998 0.184367
vn -0.9954444 0.09500004 -0.008085003
vn -0.7878852 -0.1712391 -0.5915352
vn -0.914299 -0.066063 -0.399616
vn -0.958322 0.167581 0.231377
vn -0.9976306 0.06878197 -0.001501999
vn -0.7952898 -0.2210319 -0.5644989
vn -0.9177575 -0.08973205 -0.3868712
vn -0.9628343 0.112395 0.2455961
vn -0.9998891 0.014776 0.001816
vn -0.8125129 -0.3081049 -0.4948679
vn -0.9263114 -0.1312471 -0.3531592
vn -0.9675599 -0.001139 0.252639
vn -0.9992284 -0.03844002 -0.008063002
vn -0.8232929 -0.344229 -0.451326
vn -0.9312717 -0.148404 -0.3327299
vn -0.9663104 -0.112795 0.2313471
vn -0.9978092 -0.06370202 -0.017855
vn -0.8465061 -0.3979801 -0.353609
vn -0.942149 -0.174176 -0.286388
vn -0.9632043 -0.165926 0.211438
vn -0.9929078 -0.109554 -0.04617599
vn -0.8582904 -0.4156982 -0.3008862
vn -0.9478917 -0.1823939 -0.2612159
vn -0.9530544 -0.2625341 0.1508751
vn -0.9894986 -0.1294409 -0.06432298
vn -0.8827519 -0.429507 -0.190454
vn -0.9595633 -0.1888471 -0.2087461
vn -0.9458815 -0.3042839 0.1127809
vn -0.9810403 -0.1615271 -0.107093
vn -0.8947114 -0.4258717 -0.1346279
vn -0.9653138 -0.1869809 -0.182229
vn -0.9285064 -0.3706652 0.02198201
vn -0.9761127 -0.1732309 -0.13113
vn -0.9179292 -0.39575 -0.028068
vn -0.8753439 -0.252029 0.4126189
vn -0.8610437 -0.3901859 0.3261269
vn -0.850624 -0.449789 0.272266
vn -0.8252274 -0.5463272 0.1432701
vn -0.8109279 -0.580865 0.070653
vn -0.7783272 -0.6223421 -0.08304902
vn -0.8799448 -0.175903 0.4413109
vn -0.7607098 -0.6284168 -0.16252
vn -0.8824472 -0.01574 0.4701481
vn -0.7256352 -0.6088672 -0.3205221
vn -0.8752944 0.1465531 0.4608492
vn -0.7084651 -0.5839511 -0.3963311
vn -0.8685645 0.2255389 0.4412797
vn -0.6760179 -0.5064739 -0.5352419
vn -0.8499851 0.372403 0.3726141
vn -0.6610182 -0.4548992 -0.5967593
vn -0.8377939 0.437894 0.326114
vn -0.6350349 -0.3303 -0.6983069
vn -0.8089119 0.5488729 0.210713
vn -0.6245431 -0.259107 -0.7367561
vn -0.7931313 0.5918843 0.143582
vn -0.6093753 -0.1044931 -0.7859663
vn -0.7589271 0.6511591 -0.004629001
vn -0.6051509 -0.02363699 -0.7957598
vn -0.7413198 0.6660248 -0.08279898
vn -0.6022759 0.138726 -0.7861418
vn -0.7237137 0.6707137 -0.1624239
vn -0.6047848 0.2178909 -0.7660018
vn -0.6897737 0.6492228 -0.3205029
vn -0.615415 0.3654021 -0.698388
vn -0.6591369 0.5883319 -0.4684059
vn -0.6237939 0.4318259 -0.6514658
vn -0.646033 0.5438441 -0.535607
vn -0.063704 0.181897 -0.981252
vn -0.06674198 0.2986959 -0.9520116
vn -0.08258099 0.517541 -0.851664
vn -0.09494202 0.6157761 -0.7821801
vn -0.1276879 0.7811306 -0.6111717
vn -0.147621 0.846398 -0.511682
vn -0.067088 -0.058478 -0.9960319
vn -0.192898 0.936581 -0.292586
vn -0.07387903 -0.178082 -0.9812383
vn -0.2431469 0.9681815 -0.05919597
vn -0.09624299 -0.406334 -0.9086419
vn -0.2693401 0.9612683 0.05847301
vn -0.1116479 -0.5115527 -0.8519675
vn -0.295362 0.9393811 0.174139
vn -0.149908 -0.6964599 -0.7017629
vn -0.3457058 0.8520675 0.3930248
vn -0.171806 -0.772794 -0.61096
vn -0.3691832 0.7881133 0.4925252
vn -0.2200799 -0.8875107 -0.4048328
vn -0.4113239 0.6242099 0.6642098
vn -0.24563 -0.9241119 -0.292717
vn -0.429507 0.527317 0.733117
vn -0.2979101 -0.9527481 -0.05933501
vn -0.4574358 0.3100818 0.8334277
vn -0.32355 -0.9444119 0.058324
vn -0.466812 0.193392 0.862952
vn -0.3710138 -0.8833374 0.2864678
vn -0.4775051 -0.04686501 0.8773782
vn -0.392951 -0.8312389 0.393232
vn -0.4741449 -0.2835659 0.8335329
vn -0.4309159 -0.6884947 0.5833408
vn -0.4678839 -0.3960899 0.7900618
vn -0.4459308 -0.5999558 0.6642278
vn 0.06396498 -0.06218798 0.9960127
vn 0.066945 -0.299022 0.9518951
vn 0.07315999 -0.4113339 0.9085438
vn 0.09475202 -0.6153301 0.7825541
vn 0.11 -0.7039359 0.7016939
vn 0.147769 -0.846542 0.511401
vn 0.073808 0.178008 0.9812571
vn 0.1696139 -0.8986227 0.4046089
vn 0.08326899 0.294535 0.9520059
vn 0.2174101 -0.9599393 0.1767751
vn 0.111569 0.5117189 0.8518779
vn 0.2430691 -0.9682024 0.05917303
vn 0.129472 0.6088452 0.7826522
vn 0.2954751 -0.9393992 -0.173849
vn 0.1719639 0.7730436 0.6105996
vn 0.3207289 -0.9029307 -0.2860929
vn 0.19547 0.8369599 0.511165
vn 0.3691669 -0.7880787 -0.4925928
vn 0.245837 0.9240792 0.292646
vn 0.3911458 -0.7117147 -0.5834957
vn 0.2718529 0.9459618 0.176783
vn 0.4290461 -0.5272431 -0.73344
vn 0.2977729 0.9527996 0.05919598
vn 0.4447888 -0.4219249 -0.7900267
vn 0.347988 0.921221 -0.173943
vn 0.467097 -0.193319 -0.8628141
vn 0.393353 0.831176 -0.392963
vn 0.4731838 -0.07371196 -0.8778745
vn 0.4134433 0.7659205 -0.4923724
vn 0.477852 0.166669 -0.862484
vn 0.4458029 0.5999889 -0.6642839
vn 0.4743331 0.2835791 -0.8334213
vn 0.4578108 0.5017447 -0.7339356
vn 0.8756592 -0.1465821 -0.4601462
vn 0.8798929 -0.06572999 -0.470604
vn 0.8825809 0.09677899 -0.460092
vn 0.8799641 0.175929 -0.441262
vn 0.8700309 0.32332 -0.3721699
vn 0.8616478 0.3892129 -0.3256939
vn 0.8600767 -0.3012429 -0.4117288
vn 0.8392834 0.5016217 -0.2097119
vn 0.849484 -0.372611 -0.373548
vn 0.8257497 0.5457438 -0.142482
vn 0.824298 -0.497085 -0.270997
vn 0.7947906 0.6068637 0.004929997
vn 0.8096099 -0.5481989 -0.209785
vn 0.7604631 0.628731 0.16246
vn 0.7768288 -0.6257297 -0.07070497
vn 0.7431507 0.6237767 0.2421359
vn 0.7593641 -0.6506451 0.005228001
vn 0.7259389 0.6085588 0.3204199
vn 0.7238891 -0.670498 0.162533
vn 0.691623 0.549912 0.468246
vn 0.7069013 -0.6645052 0.2423291
vn 0.6756858 0.5067598 0.5353908
vn 0.6747441 -0.623042 0.3956501
vn 0.6472452 0.3959631 0.6513732
vn 0.659613 -0.5881659 0.4679439
vn 0.6353128 0.3304339 0.6979908
vn 0.6342559 -0.4914779 0.596799
vn 0.6153271 0.1830231 0.7667302
vn 0.624375 -0.4319461 0.6508291
vn 0.609559 0.104355 0.7858421
vn 0.6089449 -0.293829 0.7367839
vn 0.602549 -0.057884 0.79598
vn 0.604744 -0.217962 0.7660139
vn 0.7953661 0.2208461 0.5644641
vn 0.7822233 0.117988 0.6117233
vn 0.7784683 0.06285103 0.6245292
vn 0.7722394 -0.05042702 0.6333273
vn 0.7728183 -0.1623411 0.6135122
vn 0.7759 -0.215465 0.5929199
vn 0.8038197 0.2667359 0.5317197
vn 0.7877622 -0.311808 0.5312311
vn 0.8234428 0.3438219 0.4513629
vn 0.7943401 -0.35335 0.4941331
vn 0.8343799 0.374266 0.404642
vn 0.8121074 -0.4209962 0.4040342
vn 0.858298 0.415844 0.300663
vn 0.8223863 -0.4455562 0.3537802
vn 0.870437 0.4263189 0.246154
vn 0.8450859 -0.4744689 0.246392
vn 0.8831108 0.428694 0.190622
vn 0.8570419 -0.4787709 0.190414
vn 0.9066222 0.414333 0.07977702
vn 0.8811311 -0.4661021 0.07973
vn 0.9277542 0.3724411 -0.02365901
vn 0.8934973 -0.4482322 0.02739901
vn 0.937034 0.341877 -0.07132699
vn 0.9165481 -0.3935831 -0.070936
vn 0.9530727 0.2624949 -0.150827
vn 0.9271142 -0.357231 -0.113337
vn 0.9590665 0.2161801 -0.1829141
vn 0.9454169 -0.269606 -0.183029
vn 0.9657958 0.113105 -0.2333359
vn 0.9524426 -0.2201799 -0.2106509
vn 0.9676574 0.05777497 -0.2455629
vn 0.963014 -0.112622 -0.244786
vn 0.9662942 -0.05595801 -0.251285
vn 0.9467418 0.08214697 0.3113389
vn 0.9408242 0.05342101 0.3346581
vn 0.9384333 0.03704001 0.3434691
vn 0.9349504 0.001512001 0.3547752
vn 0.9339217 -0.01708799 0.3570689
vn 0.9333603 -0.05446801 0.3547841
vn 0.9501753 0.09401604 0.2972001
vn 0.9338459 -0.07267299 0.350215
vn 0.9577146 0.111849 0.2650899
vn 0.9362881 -0.106658 0.334647
vn 0.9616889 0.117535 0.247669
vn 0.9382113 -0.121912 0.3238781
vn 0.9697627 0.122 0.2113679
vn 0.9433363 -0.147708 0.2971511
vn 0.9737269 0.120707 0.193095
vn 0.9464349 -0.157858 0.281677
vn 0.981215 0.11119 0.157651
vn 0.9534704 -0.1718381 0.2477211
vn 0.9846246 0.103089 0.141021
vn 0.9612905 -0.1767581 0.2113701
vn 0.9904746 0.08087996 0.111438
vn 0.9653178 -0.175692 0.1931159
vn 0.9928311 0.067141 0.09888601
vn 0.9693657 -0.1722989 0.175052
vn 0.996226 0.035402 0.07924999
vn 0.9771977 -0.1587159 0.141046
vn 0.9972064 0.01789901 0.07251803
vn 0.9808691 -0.148756 0.125569
vn 0.9976598 -0.018908 0.06570798
vn 0.9874306 -0.1233069 0.09887496
vn 0.9960986 -0.05624898 0.06799698
vn 0.9902154 -0.1082001 0.08812604
vn 0.9945869 -0.07439499 0.07254
vn 0.9807797 -0.150352 0.12436
vn 0.9874251 -0.124558 0.09734901
vn 0.990247 -0.109255 0.086453
vn 0.9946775 -0.07500896 0.07064196
vn 0.9962093 -0.05662302 0.06603702
vn 0.9977936 -0.01878599 0.06367998
vn 0.9770595 -0.1604409 0.1400479
vn 0.9973308 0.018503 0.07063299
vn 0.9691236 -0.1742029 0.1745069
vn 0.9963357 0.03622599 0.07747798
vn 0.9650207 -0.1776539 0.1928059
vn 0.9928977 0.06840398 0.09733897
vn 0.9609389 -0.178735 0.211306
vn 0.9905106 0.08231997 0.110055
vn 0.9530171 -0.173738 0.24814
vn 0.9845847 0.104803 0.140033
vn 0.9458855 -0.1595779 0.2825518
vn 0.9811306 0.1130119 0.1568789
vn 0.9427502 -0.14929 0.298219
vn 0.9735421 0.12267 0.19279
vn 0.9375609 -0.123148 0.325291
vn 0.9695258 0.123977 0.2113039
vn 0.9356081 -0.107689 0.336215
vn 0.9613447 0.119462 0.2480829
vn 0.933135 -0.07326 0.351983
vn 0.9573162 0.113705 0.2657381
vn 0.9326411 -0.05481601 0.3566171
vn 0.9496751 0.09563201 0.298281
vn 0.933211 -0.016944 0.358929
vn 0.946201 0.083598 0.312594
vn 0.9342518 0.001903 0.356609
vn 0.9402031 0.05449901 0.336226
vn 0.9377719 0.037903 0.345177
vn 0.9384294 0.1868001 0.2906131
vn 0.9268597 0.1594859 0.3398459
vn 0.9216357 0.141174 0.3614659
vn 0.9124392 0.09717003 0.3975081
vn 0.9087501 0.07201101 0.411081
vn 0.9033964 0.01742801 0.4284521
vn 0.9445286 0.1956059 0.2638259
vn 0.9018147 -0.011164 0.4319788
vn 0.9568883 0.2026871 0.2080451
vn 0.9010428 -0.06855698 0.4282779
vn 0.9629943 0.2006541 0.1799441
vn 0.9017293 -0.09648903 0.4213952
vn 0.9745259 0.185828 0.125567
vn 0.905464 -0.148752 0.397502
vn 0.9797592 0.173402 0.100019
vn 0.908451 -0.172153 0.380894
vn 0.988734 0.139411 0.05449601
vn 0.9162714 -0.2118291 0.3399632
vn 0.9923518 0.118282 0.03531599
vn 0.9210324 -0.2274458 0.3161768
vn 0.9975713 0.06944703 0.005336002
vn 0.9319169 -0.248833 0.263843
vn 0.9990778 0.04262199 -0.005189999
vn 0.9438828 -0.2565009 0.2080689
vn 0.9997773 -0.013921 -0.015862
vn 0.9500847 -0.254871 0.1799439
vn 0.9973769 -0.07133799 -0.01226
vn 0.9562943 -0.2496371 0.1522581
vn 0.9950601 -0.09914102 -0.005123001
vn 0.9683313 -0.2287771 0.09997704
vn 0.9883441 -0.151084 0.018699
vn 0.9739664 -0.2135411 0.07609004
vn 0.9840529 -0.174349 0.035248
vn 0.852483 -0.507042 0.127205
vn 0.8656234 -0.4959812 0.06854703
vn 0.8911247 -0.4517938 -0.04217799
vn 0.9030645 -0.4194008 -0.09261495
vn 0.9244288 -0.336475 -0.179488
vn 0.9335052 -0.2872611 -0.2145901
vn 0.8393431 -0.510516 0.186753
vn 0.9477223 -0.1773211 -0.265292
vn 0.8138811 -0.4945391 0.305006
vn 0.9526477 -0.118247 -0.2801429
vn 0.7909688 -0.4489518 0.4157049
vn 0.9577469 0.003424 -0.2875919
vn 0.78086 -0.415907 0.466132
vn 0.9562542 0.123293 -0.2652861
vn 0.7642239 -0.331913 0.5529879
vn 0.9530609 0.180227 -0.243296
vn 0.7579679 -0.282317 0.588032
vn 0.9420193 0.2835421 -0.1794531
vn 0.749963 -0.171656 0.638819
vn 0.9343431 0.3283201 -0.138596
vn 0.7483887 -0.112449 0.6536587
vn 0.915287 0.400583 -0.042226
vn 0.7502191 0.009286001 0.6611241
vn 0.9042083 0.4269282 0.01181901
vn 0.7535942 0.06984001 0.6536192
vn 0.8798312 0.4579581 0.127167
vn 0.764917 0.185524 0.616833
vn 0.8669032 0.4621671 0.186763
vn 0.7727217 0.2388819 0.5880787
vn 0.8406138 0.4476119 0.3049789
vn 0.792015 0.332318 0.51213
vn 0.827674 0.429083 0.361723
vn 0.8031925 0.3709822 0.4661053
vn 0.8600991 0.475325 0.185191
vn 0.8330909 0.4604149 0.306558
vn 0.8197951 0.441402 0.364829
vn 0.7946671 0.381737 0.471997
vn 0.783188 0.342053 0.519246
vn 0.7634081 0.246109 0.597192
vn 0.873367 0.471009 0.124019
vn 0.7553822 0.1913361 0.6267282
vn 0.8983939 0.439155 0.005576999
vn 0.7437446 0.07255495 0.6645147
vn 0.9097735 0.4120948 -0.04989998
vn 0.7403122 0.010385 0.6721832
vn 0.9293463 0.3378911 -0.148812
vn 0.7384358 -0.114597 0.6645148
vn 0.9372175 0.2919482 -0.1907611
vn 0.740048 -0.175398 0.64928
vn 0.9485466 0.1858809 -0.2563349
vn 0.748243 -0.289001 0.597169
vn 0.9518281 0.127433 -0.278898
vn 0.7546758 -0.3399189 0.5611769
vn 0.9533603 0.004363001 -0.3018031
vn 0.771749 -0.426165 0.472003
vn 0.9481379 -0.12054 -0.294117
vn 0.7821209 -0.460079 0.420255
vn 0.9430737 -0.181194 -0.278892
vn 0.8056621 -0.5068671 0.306585
vn 0.9284802 -0.294066 -0.226825
vn 0.8317881 -0.5232951 0.185178
vn 0.919171 -0.344579 -0.190762
vn 0.8452749 -0.519735 0.12404
vn 0.8972414 -0.4296932 -0.101596
vn 0.8587776 -0.5083558 0.06383898
vn 0.8849702 -0.4629731 -0.04983601
vn 0.9758576 -0.03462602 0.2156461
vn 0.9762679 -0.034859 0.213743
vn 0.9764896 -0.02768899 0.2137789
vn 0.9764435 -0.03480798 0.2129469
vn 0.9756998 -0.03435399 0.216402
vn 0.9766565 -0.03465801 0.2119931
vn 0.9754111 -0.033463 0.217838
vn 0.9770324 -0.03399301 0.2103621
vn 0.9752657 -0.03292899 0.218569
vn 0.9772081 -0.03351801 0.209621
vn 0.9750594 -0.03148702 0.2196991
vn 0.9775227 -0.03228499 0.2083439
vn 0.9749867 -0.03071299 0.2201309
vn 0.9776558 -0.03155199 0.2078309
vn 0.97492 -0.029031 0.220654
vn 0.9778621 -0.029919 0.2071
vn 0.9749194 -0.02812501 0.2207741
vn 0.9779348 -0.02908299 0.206876
vn 0.975001 -0.026272 0.220642
vn 0.9780156 -0.02636099 0.2068589
vn 0.9750721 -0.025484 0.22042
vn 0.9779916 -0.02551799 0.2070779
vn 0.9752797 -0.02379799 0.2196889
vn 0.9779407 -0.02468499 0.2074189
vn 0.9754183 -0.02307501 0.2191501
vn 0.9777755 -0.02318299 0.2083689
vn 0.9757197 -0.02186 0.2179289
vn 0.9776719 -0.022491 0.20893
vn 0.9759104 -0.02139399 0.2171199
vn 0.9773872 -0.021455 0.210366
vn 0.9762884 -0.02073101 0.2154791
vn 0.9772065 -0.02104199 0.2112459
vn 0.9764807 -0.02058299 0.2146199
vn 0.976847 -0.020593 0.212946
vn -0.9360344 0.2358108 -0.2612138
vn -0.9263795 0.2654359 -0.2671419
vn -0.914736 0.242323 -0.323323
vn -0.9258507 0.215592 -0.3103559
vn -0.9473259 0.242943 -0.208692
vn -0.9096131 0.225539 -0.348907
vn -0.9213571 0.200921 -0.332764
vn -0.9392866 0.2735369 -0.2071669
vn -0.9531521 0.241396 -0.182288
vn -0.901179 0.18295 -0.392945
vn -0.913976 0.163638 -0.371309
vn -0.9459468 0.27179 -0.17696
vn -0.9589869 0.236481 -0.156272
vn -0.8979931 0.157772 -0.410751
vn -0.9111837 0.14161 -0.3868989
vn -0.9526139 0.26618 -0.147224
vn -0.970314 0.216853 -0.107077
vn -0.8939697 0.1016269 -0.4364518
vn -0.9076647 0.09250396 -0.4093749
vn -0.9655648 0.2437329 -0.09098799
vn -0.9756181 0.202472 -0.08470301
vn -0.8931818 0.07158899 -0.4439609
vn -0.9069595 0.06620004 -0.4159832
vn -0.9716188 0.227308 -0.06548198
vn -0.9850985 0.1656811 -0.04616102
vn -0.894088 0.009848 -0.447783
vn -0.9077618 0.012166 -0.4193099
vn -0.9824615 0.1852329 -0.02140399
vn -0.9891317 0.1438159 -0.03058599
vn -0.8957745 -0.02086599 -0.4440187
vn -0.9092606 -0.01469299 -0.4159678
vn -0.987065 0.160281 -0.003583
vn -0.9954444 0.09500004 -0.008085003
vn -0.9015197 -0.07956897 -0.4253598
vn -0.914299 -0.066063 -0.399616
vn -0.9942781 0.104504 0.022133
vn -0.9976306 0.06878197 -0.001501999
vn -0.9054881 -0.106618 -0.41076
vn -0.9177575 -0.08973205 -0.3868712
vn -0.9967781 0.074526 0.029653
vn -0.9998891 0.014776 0.001816
vn -0.9152626 -0.1540249 -0.3722509
vn -0.9263114 -0.1312471 -0.3531592
vn -0.9993575 0.01283601 0.03346502
vn -0.9992284 -0.03844002 -0.008063002
vn -0.9209296 -0.1736359 -0.3489118
vn -0.9312717 -0.148404 -0.3327299
vn -0.998602 -0.047992 0.022157
vn -0.9978092 -0.06370202 -0.017855
vn -0.933382 -0.203119 -0.295873
vn -0.942149 -0.174176 -0.286388
vn -0.9969789 -0.07688699 0.011033
vn -0.9929078 -0.109554 -0.04617599
vn -0.9399397 -0.2124979 -0.2671289
vn -0.9478917 -0.1823939 -0.2612159
vn -0.9913787 -0.129272 -0.02137899
vn -0.9894986 -0.1294409 -0.06432298
vn -0.9532756 -0.2198719 -0.2071759
vn -0.9595633 -0.1888471 -0.2087461
vn -0.9874834 -0.1519919 -0.04212998
vn -0.9810403 -0.1615271 -0.107093
vn -0.959834 -0.217755 -0.176922
vn -0.9653138 -0.1869809 -0.182229
vn -0.9778204 -0.1886379 -0.09100994
vn -0.9761127 -0.1732309 -0.13113
vn -0.9721992 -0.202016 -0.118399
vn -0.9560328 -0.2561339 0.142817
vn -0.9490293 -0.2970121 0.105485
vn -0.9316338 -0.362976 0.017518
vn -0.9215184 -0.3870331 -0.03176802
vn -0.8992563 -0.4153652 -0.1371491
vn -0.8874637 -0.4191899 -0.1915409
vn -0.9661266 -0.1618029 0.2010449
vn -0.8634607 -0.4059128 -0.2994499
vn -0.969048 -0.109819 0.221101
vn -0.851649 -0.38901 -0.351234
vn -0.9703895 -0.0003939998 0.2415449
vn -0.8292642 -0.3359721 -0.4465911
vn -0.9657566 0.110645 0.2346739
vn -0.8190648 -0.3006839 -0.4885919
vn -0.9612539 0.164578 0.221145
vn -0.8014687 -0.2153809 -0.5579058
vn -0.9482617 0.2650029 0.174852
vn -0.794341 -0.166686 -0.5841559
vn -0.9399725 0.3099219 0.1428289
vn -0.7839836 -0.06102497 -0.6177747
vn -0.9204734 0.3856127 0.06349395
vn -0.7809269 -0.005752999 -0.6245959
vn -0.9095719 0.4151759 0.01755
vn -0.7792649 0.105357 -0.617775
vn -0.8862913 0.4555131 -0.08364002
vn -0.7807068 0.159433 -0.6042169
vn -0.8742834 0.4656352 -0.1371581
vn -0.7879909 0.260447 -0.557887
vn -0.8622872 0.4688061 -0.191525
vn -0.7937181 0.305758 -0.5258551
vn -0.8390651 0.4542171 -0.2994271
vn -0.8088903 0.3824312 -0.4465902
vn -0.8181097 0.4125979 -0.4005738
vn -0.692371 0.191998 -0.6955279
vn -0.7015558 0.3187909 -0.6373318
vn -0.708725 0.3756651 -0.597147
vn -0.7277882 0.4719252 -0.4976052
vn -0.7393851 0.5097561 -0.4398391
vn -0.7656953 0.5619692 -0.3128921
vn -0.6905703 0.1240981 -0.7125393
vn -0.7948207 0.5803248 -0.1774349
vn -0.6926908 -0.015369 -0.7210708
vn -0.8098879 0.576334 -0.109182
vn -0.6965353 -0.08475403 -0.7124993
vn -0.8249518 0.5636409 -0.04199299
vn -0.709529 -0.217384 -0.670308
vn -0.8541517 0.5130298 0.08500097
vn -0.7184509 -0.27853 -0.637377
vn -0.86784 0.475903 0.142724
vn -0.7405646 -0.3856208 -0.5503277
vn -0.8923393 0.3808731 0.2422111
vn -0.7533473 -0.4299082 -0.4976412
vn -0.9027604 0.3244638 0.2823948
vn -0.7814193 -0.4964982 -0.3779861
vn -0.9190422 0.198436 0.3405651
vn -0.7962721 -0.517701 -0.312948
vn -0.9246801 0.130738 0.3575951
vn -0.8264271 -0.534346 -0.177461
vn -0.9305135 -0.008660004 0.3661552
vn -0.8412312 -0.5295291 -0.10922
vn -0.9288043 -0.146017 0.3405901
vn -0.8691764 -0.4939626 0.02309299
vn -0.9251498 -0.211251 0.3153899
vn -0.8818692 -0.4637731 0.08497702
vn -0.9124866 -0.3296858 0.2422299
vn -0.9036964 -0.3809912 0.1953931
vn -0.9277651 0.036655 -0.37136
vn -0.9283045 0.07715996 -0.3637268
vn -0.9764921 0.027691 -0.213767
vn -0.9294115 0.09638505 -0.3562362
vn -0.9295603 -0.004471001 -0.3686431
vn -0.9330392 0.131383 -0.3349271
vn -0.9312176 -0.02446099 -0.3636419
vn -0.9356743 0.146518 -0.3210081
vn -0.9360383 -0.06163502 -0.3464581
vn -0.9421539 0.170984 -0.288289
vn -0.9390392 -0.07833502 -0.3347671
vn -0.9458998 0.17994 -0.269991
vn -0.9462458 -0.106407 -0.3054449
vn -0.9541072 0.1905451 -0.2310241
vn -0.9502842 -0.117411 -0.2884
vn -0.9584869 0.191951 -0.21085
vn -0.95895 -0.132229 -0.250859
vn -0.96741 0.186856 -0.170888
vn -0.9634057 -0.136 -0.2309839
vn -0.9717916 0.1805479 -0.1517349
vn -0.9678592 -0.137087 -0.210845
vn -0.9800696 0.1609519 -0.1164389
vn -0.9764299 -0.131858 -0.170875
vn -0.9838282 0.147975 -0.100923
vn -0.984203 -0.116359 -0.133436
vn -0.9903714 0.116386 -0.07495904
vn -0.987626 -0.105166 -0.11634
vn -0.9930028 0.09834398 -0.06537499
vn -0.9932354 -0.07673103 -0.08715404
vn -0.9968507 0.05911297 -0.05286198
vn -0.995363 -0.059966 -0.075211
vn -0.9979879 0.03864099 -0.05027099
vn -0.9980682 -0.022601 -0.05787201
vn -0.9985985 -0.002552999 -0.05286298
usemtl Kitchen_set_props
f 1/1/1 3/3/3 2/2/2 
f 1/1/1 4/4/4 3/3/3 
f 2/2/2 3/3/3 5/5/5 
f 6/6/6 4/4/4 1/1/1 
f 6/6/6 7/7/7 4/4/4 
f 2/2/2 5/5/5 8/8/8 
f 8/8/8 5/5/5 9/9/9 
f 10/10/10 7/7/7 6/6/6 
f 10/10/10 11/11/11 7/7/7 
f 8/8/8 9/9/9 12/12/12 
f 12/12/12 9/9/9 13/13/13 
f 14/14/14 11/11/11 10/10/10 
f 14/14/14 15/15/15 11/11/11 
f 12/12/12 13/13/13 16/16/16 
f 16/16/16 13/13/13 17/17/17 
f 18/18/18 15/15/15 14/14/14 
f 18/18/18 19/19/19 15/15/15 
f 16/16/16 17/17/17 20/20/20 
f 20/20/20 17/17/17 21/21/21 
f 22/22/22 19/19/19 18/18/18 
f 22/22/22 23/23/23 19/19/19 
f 20/20/20 21/21/21 24/24/24 
f 24/24/24 21/21/21 25/25/25 
f 26/26/26 23/23/23 22/22/22 
f 26/26/26 27/27/27 23/23/23 
f 24/24/24 25/25/25 28/28/28 
f 28/28/28 25/25/25 29/29/29 
f 30/30/30 27/27/27 26/26/26 
f 30/30/30 31/31/31 27/27/27 
f 28/28/28 29/29/29 32/32/32 
f 32/32/32 29/29/29 33/33/33 
f 34/34/34 31/31/31 30/30/30 
f 34/34/34 35/35/35 31/31/31 
f 32/32/32 33/33/33 36/36/36 
f 36/36/36 33/33/33 37/37/37 
f 38/38/38 35/35/35 34/34/34 
f 38/38/38 39/39/39 35/35/35 
f 36/36/36 37/37/37 40/40/40 
f 40/40/40 37/37/37 41/41/41 
f 42/42/42 39/39/39 38/38/38 
f 42/42/42 43/43/43 39/39/39 
f 40/40/40 41/41/41 44/44/44 
f 44/44/44 41/41/41 45/45/45 
f 46/46/46 43/43/43 42/42/42 
f 46/46/46 47/47/47 43/43/43 
f 44/44/44 45/45/45 48/48/48 
f 48/48/48 45/45/45 49/49/49 
f 50/50/50 47/47/47 46/46/46 
f 50/50/50 51/51/51 47/47/47 
f 48/48/48 49/49/49 52/52/52 
f 52/52/52 49/49/49 53/53/53 
f 54/54/54 51/51/51 50/50/50 
f 54/54/54 55/55/55 51/51/51 
f 52/52/52 53/53/53 56/56/56 
f 56/56/56 53/53/53 57/57/57 
f 58/58/58 55/55/55 54/54/54 
f 58/58/58 59/59/59 55/55/55 
f 56/56/56 57/57/57 60/60/60 
f 60/60/60 57/57/57 61/61/61 
f 62/62/62 59/59/59 58/58/58 
f 62/62/62 63/63/63 59/59/59 
f 60/60/60 61/61/61 64/64/64 
f 64/64/64 61/61/61 65/65/65 
f 66/66/66 65/65/65 63/63/63 
f 66/66/66 63/63/63 62/62/62 
f 64/64/64 65/65/65 66/66/66 
f 67/67/67 52/52/52 56/56/56 
f 68/68/68 56/56/56 60/60/60 
f 67/67/67 56/56/56 68/68/68 
f 69/69/69 60/60/60 64/64/64 
f 68/68/68 60/60/60 69/69/69 
f 70/70/70 64/64/64 66/66/66 
f 69/69/69 64/64/64 70/70/70 
f 71/71/71 66/66/66 62/62/62 
f 70/70/70 66/66/66 71/71/71 
f 72/72/72 62/62/62 58/58/58 
f 71/71/71 62/62/62 72/72/72 
f 73/73/73 52/52/52 67/67/67 
f 73/73/73 48/48/48 52/52/52 
f 72/72/72 58/58/58 74/74/74 
f 74/74/74 58/58/58 54/54/54 
f 75/75/75 48/48/48 73/73/73 
f 75/75/75 44/44/44 48/48/48 
f 74/74/74 54/54/54 76/76/76 
f 76/76/76 54/54/54 50/50/50 
f 77/77/77 44/44/44 75/75/75 
f 77/77/77 40/40/40 44/44/44 
f 76/76/76 50/50/50 78/78/78 
f 78/78/78 50/50/50 46/46/46 
f 79/79/79 40/40/40 77/77/77 
f 79/79/79 36/36/36 40/40/40 
f 78/78/78 46/46/46 80/80/80 
f 80/80/80 46/46/46 42/42/42 
f 81/81/81 36/36/36 79/79/79 
f 81/81/81 32/32/32 36/36/36 
f 80/80/80 42/42/42 82/82/82 
f 82/82/82 42/42/42 38/38/38 
f 83/83/83 32/32/32 81/81/81 
f 83/83/83 28/28/28 32/32/32 
f 82/82/82 38/38/38 84/84/84 
f 84/84/84 38/38/38 34/34/34 
f 85/85/85 28/28/28 83/83/83 
f 85/85/85 24/24/24 28/28/28 
f 84/84/84 34/34/34 86/86/86 
f 86/86/86 34/34/34 30/30/30 
f 87/87/87 24/24/24 85/85/85 
f 87/87/87 20/20/20 24/24/24 
f 86/86/86 30/30/30 88/88/88 
f 88/88/88 30/30/30 26/26/26 
f 89/89/89 20/20/20 87/87/87 
f 89/89/89 16/16/16 20/20/20 
f 88/88/88 26/26/26 90/90/90 
f 90/90/90 26/26/26 22/22/22 
f 91/91/91 16/16/16 89/89/89 
f 91/91/91 12/12/12 16/16/16 
f 90/90/90 22/22/22 92/92/92 
f 92/92/92 22/22/22 18/18/18 
f 93/93/93 12/12/12 91/91/91 
f 93/93/93 8/8/8 12/12/12 
f 92/92/92 18/18/18 94/94/94 
f 94/94/94 18/18/18 14/14/14 
f 95/95/95 8/8/8 93/93/93 
f 95/95/95 2/2/2 8/8/8 
f 94/94/94 14/14/14 96/96/96 
f 96/96/96 14/14/14 10/10/10 
f 97/97/97 2/2/2 95/95/95 
f 97/97/97 1/1/1 2/2/2 
f 96/96/96 10/10/10 98/98/98 
f 98/98/98 10/10/10 6/6/6 
f 99/99/99 6/6/6 1/1/1 
f 99/99/99 1/1/1 97/97/97 
f 98/98/98 6/6/6 99/99/99 
f 100/100/100 92/92/92 94/94/94 
f 101/101/101 94/94/94 96/96/96 
f 100/100/100 94/94/94 101/101/101 
f 102/102/102 96/96/96 98/98/98 
f 101/101/101 96/96/96 102/102/102 
f 103/103/103 98/98/98 99/99/99 
f 102/102/102 98/98/98 103/103/103 
f 104/104/104 99/99/99 97/97/97 
f 103/103/103 99/99/99 104/104/104 
f 105/105/105 97/97/97 95/95/95 
f 104/104/104 97/97/97 105/105/105 
f 106/106/106 92/92/92 100/100/100 
f 106/106/106 90/90/90 92/92/92 
f 105/105/105 95/95/95 107/107/107 
f 107/107/107 95/95/95 93/93/93 
f 108/108/108 90/90/90 106/106/106 
f 108/108/108 88/88/88 90/90/90 
f 107/107/107 93/93/93 109/109/109 
f 109/109/109 93/93/93 91/91/91 
f 110/110/110 88/88/88 108/108/108 
f 110/110/110 86/86/86 88/88/88 
f 109/109/109 91/91/91 111/111/111 
f 111/111/111 91/91/91 89/89/89 
f 112/112/112 86/86/86 110/110/110 
f 112/112/112 84/84/84 86/86/86 
f 111/111/111 89/89/89 113/113/113 
f 113/113/113 89/89/89 87/87/87 
f 114/114/114 84/84/84 112/112/112 
f 114/114/114 82/82/82 84/84/84 
f 113/113/113 87/87/87 115/115/115 
f 115/115/115 87/87/87 85/85/85 
f 116/116/116 82/82/82 114/114/114 
f 116/116/116 80/80/80 82/82/82 
f 115/115/115 85/85/85 117/117/117 
f 117/117/117 85/85/85 83/83/83 
f 118/118/118 80/80/80 116/116/116 
f 118/118/118 78/78/78 80/80/80 
f 117/117/117 83/83/83 119/119/119 
f 119/119/119 83/83/83 81/81/81 
f 120/120/120 78/78/78 118/118/118 
f 120/120/120 76/76/76 78/78/78 
f 119/119/119 81/81/81 121/121/121 
f 121/121/121 81/81/81 79/79/79 
f 122/122/122 76/76/76 120/120/120 
f 122/122/122 74/74/74 76/76/76 
f 121/121/121 79/79/79 123/123/123 
f 123/123/123 79/79/79 77/77/77 
f 124/124/124 74/74/74 122/122/122 
f 124/124/124 72/72/72 74/74/74 
f 123/123/123 77/77/77 125/125/125 
f 125/125/125 77/77/77 75/75/75 
f 126/126/126 72/72/72 124/124/124 
f 126/126/126 71/71/71 72/72/72 
f 125/125/125 75/75/75 127/127/127 
f 127/127/127 75/75/75 73/73/73 
f 128/128/128 71/71/71 126/126/126 
f 128/128/128 70/70/70 71/71/71 
f 127/127/127 73/73/73 129/129/129 
f 129/129/129 73/73/73 67/67/67 
f 130/130/130 70/70/70 128/128/128 
f 130/130/130 69/69/69 70/70/70 
f 129/129/129 67/67/67 131/131/131 
f 131/131/131 67/67/67 68/68/68 
f 132/132/132 68/68/68 69/69/69 
f 132/132/132 69/69/69 130/130/130 
f 131/131/131 68/68/68 132/132/132 
f 133/133/133 125/125/125 127/127/127 
f 134/134/134 127/127/127 129/129/129 
f 134/134/134 133/133/133 127/127/127 
f 135/135/135 129/129/129 131/131/131 
f 135/135/135 134/134/134 129/129/129 
f 136/136/136 131/131/131 132/132/132 
f 136/136/136 135/135/135 131/131/131 
f 137/137/137 132/132/132 130/130/130 
f 137/137/137 136/136/136 132/132/132 
f 138/138/138 130/130/130 128/128/128 
f 138/138/138 137/137/137 130/130/130 
f 133/133/133 139/139/139 125/125/125 
f 139/139/139 123/123/123 125/125/125 
f 140/140/140 138/138/138 128/128/128 
f 140/140/140 128/128/128 126/126/126 
f 139/139/139 141/141/141 123/123/123 
f 141/141/141 121/121/121 123/123/123 
f 142/142/142 140/140/140 126/126/126 
f 142/142/142 126/126/126 124/124/124 
f 141/141/141 143/143/143 121/121/121 
f 143/143/143 119/119/119 121/121/121 
f 144/144/144 142/142/142 124/124/124 
f 144/144/144 124/124/124 122/122/122 
f 143/143/143 145/145/145 119/119/119 
f 145/145/145 117/117/117 119/119/119 
f 146/146/146 144/144/144 122/122/122 
f 146/146/146 122/122/122 120/120/120 
f 145/145/145 147/147/147 117/117/117 
f 147/147/147 115/115/115 117/117/117 
f 148/148/148 146/146/146 120/120/120 
f 148/148/148 120/120/120 118/118/118 
f 147/147/147 149/149/149 115/115/115 
f 149/149/149 113/113/113 115/115/115 
f 150/150/150 148/148/148 118/118/118 
f 150/150/150 118/118/118 116/116/116 
f 149/149/149 151/151/151 113/113/113 
f 151/151/151 111/111/111 113/113/113 
f 152/152/152 150/150/150 116/116/116 
f 152/152/152 116/116/116 114/114/114 
f 151/151/151 153/153/153 111/111/111 
f 153/153/153 109/109/109 111/111/111 
f 154/154/154 152/152/152 114/114/114 
f 154/154/154 114/114/114 112/112/112 
f 153/153/153 155/155/155 109/109/109 
f 155/155/155 107/107/107 109/109/109 
f 156/156/156 154/154/154 112/112/112 
f 156/156/156 112/112/112 110/110/110 
f 155/155/155 157/157/157 107/107/107 
f 157/157/157 105/105/105 107/107/107 
f 158/158/158 156/156/156 110/110/110 
f 158/158/158 110/110/110 108/108/108 
f 157/157/157 159/159/159 105/105/105 
f 159/159/159 104/104/104 105/105/105 
f 160/160/160 158/158/158 108/108/108 
f 160/160/160 108/108/108 106/106/106 
f 159/159/159 161/161/161 104/104/104 
f 161/161/161 103/103/103 104/104/104 
f 162/162/162 160/160/160 106/106/106 
f 162/162/162 106/106/106 100/100/100 
f 161/161/161 163/163/163 103/103/103 
f 163/163/163 102/102/102 103/103/103 
f 164/164/164 162/162/162 100/100/100 
f 164/164/164 100/100/100 101/101/101 
f 165/165/165 101/101/101 102/102/102 
f 163/163/163 165/165/165 102/102/102 
f 165/165/165 164/164/164 101/101/101 
f 166/166/166 158/158/158 160/160/160 
f 167/167/167 160/160/160 162/162/162 
f 166/166/166 160/160/160 167/167/167 
f 168/168/168 162/162/162 164/164/164 
f 167/167/167 162/162/162 168/168/168 
f 169/169/169 164/164/164 165/165/165 
f 168/168/168 164/164/164 169/169/169 
f 170/170/170 165/165/165 163/163/163 
f 169/169/169 165/165/165 170/170/170 
f 171/171/171 163/163/163 161/161/161 
f 170/170/170 163/163/163 171/171/171 
f 172/172/172 158/158/158 166/166/166 
f 172/172/172 156/156/156 158/158/158 
f 171/171/171 161/161/161 173/173/173 
f 173/173/173 161/161/161 159/159/159 
f 174/174/174 156/156/156 172/172/172 
f 174/174/174 154/154/154 156/156/156 
f 173/173/173 159/159/159 175/175/175 
f 175/175/175 159/159/159 157/157/157 
f 176/176/176 154/154/154 174/174/174 
f 176/176/176 152/152/152 154/154/154 
f 175/175/175 157/157/157 177/177/177 
f 177/177/177 157/157/157 155/155/155 
f 178/178/178 152/152/152 176/176/176 
f 178/178/178 150/150/150 152/152/152 
f 177/177/177 155/155/155 179/179/179 
f 179/179/179 155/155/155 153/153/153 
f 180/180/180 150/150/150 178/178/178 
f 180/180/180 148/148/148 150/150/150 
f 179/179/179 153/153/153 181/181/181 
f 181/181/181 153/153/153 151/151/151 
f 182/182/182 148/148/148 180/180/180 
f 182/182/182 146/146/146 148/148/148 
f 181/181/181 151/151/151 183/183/183 
f 183/183/183 151/151/151 149/149/149 
f 184/184/184 146/146/146 182/182/182 
f 184/184/184 144/144/144 146/146/146 
f 183/183/183 149/149/149 185/185/185 
f 185/185/185 149/149/149 147/147/147 
f 186/186/186 144/144/144 184/184/184 
f 186/186/186 142/142/142 144/144/144 
f 185/185/185 147/147/147 187/187/187 
f 187/187/187 147/147/147 145/145/145 
f 188/188/188 142/142/142 186/186/186 
f 188/188/188 140/140/140 142/142/142 
f 187/187/187 145/145/145 189/189/189 
f 189/189/189 145/145/145 143/143/143 
f 190/190/190 140/140/140 188/188/188 
f 190/190/190 138/138/138 140/140/140 
f 189/189/189 143/143/143 191/191/191 
f 191/191/191 143/143/143 141/141/141 
f 192/192/192 138/138/138 190/190/190 
f 192/192/192 137/137/137 138/138/138 
f 191/191/191 141/141/141 193/193/193 
f 193/193/193 141/141/141 139/139/139 
f 194/194/194 137/137/137 192/192/192 
f 194/194/194 136/136/136 137/137/137 
f 193/193/193 139/139/139 195/195/195 
f 195/195/195 139/139/139 133/133/133 
f 196/196/196 136/136/136 194/194/194 
f 196/196/196 135/135/135 136/136/136 
f 195/195/195 133/133/133 197/197/197 
f 197/197/197 133/133/133 134/134/134 
f 198/198/198 134/134/134 135/135/135 
f 198/198/198 135/135/135 196/196/196 
f 197/197/197 134/134/134 198/198/198 
f 199/199/199 191/191/191 193/193/193 
f 200/200/200 193/193/193 195/195/195 
f 199/199/199 193/193/193 200/200/200 
f 201/201/201 195/195/195 197/197/197 
f 200/200/200 195/195/195 201/201/201 
f 202/202/202 197/197/197 198/198/198 
f 201/201/201 197/197/197 202/202/202 
f 203/203/203 198/198/198 196/196/196 
f 202/202/202 198/198/198 203/203/203 
f 204/204/204 196/196/196 194/194/194 
f 203/203/203 196/196/196 204/204/204 
f 205/205/205 191/191/191 199/199/199 
f 205/205/205 189/189/189 191/191/191 
f 204/204/204 194/194/194 206/206/206 
f 206/206/206 194/194/194 192/192/192 
f 207/207/207 189/189/189 205/205/205 
f 207/207/207 187/187/187 189/189/189 
f 206/206/206 192/192/192 208/208/208 
f 208/208/208 192/192/192 190/190/190 
f 209/209/209 187/187/187 207/207/207 
f 209/209/209 185/185/185 187/187/187 
f 208/208/208 190/190/190 210/210/210 
f 210/210/210 190/190/190 188/188/188 
f 211/211/211 185/185/185 209/209/209 
f 211/211/211 183/183/183 185/185/185 
f 210/210/210 188/188/188 212/212/212 
f 212/212/212 188/188/188 186/186/186 
f 213/213/213 183/183/183 211/211/211 
f 213/213/213 181/181/181 183/183/183 
f 212/212/212 186/186/186 214/214/214 
f 214/214/214 186/186/186 184/184/184 
f 215/215/215 181/181/181 213/213/213 
f 215/215/215 179/179/179 181/181/181 
f 214/214/214 184/184/184 216/216/216 
f 216/216/216 184/184/184 182/182/182 
f 217/217/217 179/179/179 215/215/215 
f 217/217/217 177/177/177 179/179/179 
f 216/216/216 182/182/182 218/218/218 
f 218/218/218 182/182/182 180/180/180 
f 219/219/219 177/177/177 217/217/217 
f 219/219/219 175/175/175 177/177/177 
f 218/218/218 180/180/180 220/220/220 
f 220/220/220 180/180/180 178/178/178 
f 221/221/221 175/175/175 219/219/219 
f 221/221/221 173/173/173 175/175/175 
f 220/220/220 178/178/178 222/222/222 
f 222/222/222 178/178/178 176/176/176 
f 223/223/223 173/173/173 221/221/221 
f 223/223/223 171/171/171 173/173/173 
f 222/222/222 176/176/176 224/224/224 
f 224/224/224 176/176/176 174/174/174 
f 225/225/225 171/171/171 223/223/223 
f 225/225/225 170/170/170 171/171/171 
f 224/224/224 174/174/174 226/226/226 
f 226/226/226 174/174/174 172/172/172 
f 227/227/227 170/170/170 225/225/225 
f 227/227/227 169/169/169 170/170/170 
f 226/226/226 172/172/172 228/228/228 
f 228/228/228 172/172/172 166/166/166 
f 229/229/229 169/169/169 227/227/227 
f 229/229/229 168/168/168 169/169/169 
f 228/228/228 166/166/166 230/230/230 
f 230/230/230 166/166/166 167/167/167 
f 231/231/231 167/167/167 168/168/168 
f 231/231/231 168/168/168 229/229/229 
f 230/230/230 167/167/167 231/231/231 
f 232/232/232 224/224/224 226/226/226 
f 233/233/233 226/226/226 228/228/228 
f 232/232/232 226/226/226 233/233/233 
f 234/234/234 228/228/228 230/230/230 
f 233/233/233 228/228/228 234/234/234 
f 235/235/235 230/230/230 231/231/231 
f 234/234/234 230/230/230 235/235/235 
f 236/236/236 231/231/231 229/229/229 
f 235/235/235 231/231/231 236/236/236 
f 237/237/237 229/229/229 227/227/227 
f 236/236/236 229/229/229 237/237/237 
f 238/238/238 224/224/224 232/232/232 
f 238/238/238 222/222/222 224/224/224 
f 237/237/237 227/227/227 239/239/239 
f 239/239/239 227/227/227 225/225/225 
f 240/240/240 222/222/222 238/238/238 
f 240/240/240 220/220/220 222/222/222 
f 239/239/239 225/225/225 241/241/241 
f 241/241/241 225/225/225 223/223/223 
f 242/242/242 220/220/220 240/240/240 
f 242/242/242 218/218/218 220/220/220 
f 241/241/241 223/223/223 243/243/243 
f 243/243/243 223/223/223 221/221/221 
f 244/244/244 218/218/218 242/242/242 
f 244/244/244 216/216/216 218/218/218 
f 243/243/243 221/221/221 245/245/245 
f 245/245/245 221/221/221 219/219/219 
f 246/246/246 216/216/216 244/244/244 
f 246/246/246 214/214/214 216/216/216 
f 245/245/245 219/219/219 247/247/247 
f 247/247/247 219/219/219 217/217/217 
f 248/248/248 214/214/214 246/246/246 
f 248/248/248 212/212/212 214/214/214 
f 247/247/247 217/217/217 249/249/249 
f 249/249/249 217/217/217 215/215/215 
f 250/250/250 212/212/212 248/248/248 
f 250/250/250 210/210/210 212/212/212 
f 249/249/249 215/215/215 251/251/251 
f 251/251/251 215/215/215 213/213/213 
f 252/252/252 210/210/210 250/250/250 
f 252/252/252 208/208/208 210/210/210 
f 251/251/251 213/213/213 253/253/253 
f 253/253/253 213/213/213 211/211/211 
f 254/254/254 208/208/208 252/252/252 
f 254/254/254 206/206/206 208/208/208 
f 253/253/253 211/211/211 255/255/255 
f 255/255/255 211/211/211 209/209/209 
f 256/256/256 206/206/206 254/254/254 
f 256/256/256 204/204/204 206/206/206 
f 255/255/255 209/209/209 257/257/257 
f 257/257/257 209/209/209 207/207/207 
f 258/258/258 204/204/204 256/256/256 
f 258/258/258 203/203/203 204/204/204 
f 257/257/257 207/207/207 259/259/259 
f 259/259/259 207/207/207 205/205/205 
f 260/260/260 203/203/203 258/258/258 
f 260/260/260 202/202/202 203/203/203 
f 259/259/259 205/205/205 261/261/261 
f 261/261/261 205/205/205 199/199/199 
f 262/262/262 202/202/202 260/260/260 
f 262/262/262 201/201/201 202/202/202 
f 261/261/261 199/199/199 263/263/263 
f 263/263/263 199/199/199 200/200/200 
f 264/264/264 200/200/200 201/201/201 
f 264/264/264 201/201/201 262/262/262 
f 263/263/263 200/200/200 264/264/264 
f 257/257/257 259/259/259 265/265/265 
f 259/259/259 261/261/261 266/266/266 
f 259/259/259 266/266/266 265/265/265 
f 261/261/261 263/263/263 267/267/267 
f 261/261/261 267/267/267 266/266/266 
f 263/263/263 264/264/264 268/268/268 
f 263/263/263 268/268/268 267/267/267 
f 264/264/264 262/262/262 269/269/269 
f 264/264/264 269/269/269 268/268/268 
f 262/262/262 260/260/260 270/270/270 
f 262/262/262 270/270/270 269/269/269 
f 257/257/257 265/265/265 271/271/271 
f 255/255/255 257/257/257 271/271/271 
f 260/260/260 272/272/272 270/270/270 
f 260/260/260 258/258/258 272/272/272 
f 255/255/255 271/271/271 273/273/273 
f 253/253/253 255/255/255 273/273/273 
f 258/258/258 274/274/274 272/272/272 
f 258/258/258 256/256/256 274/274/274 
f 253/253/253 273/273/273 275/275/275 
f 251/251/251 253/253/253 275/275/275 
f 256/256/256 276/276/276 274/274/274 
f 256/256/256 254/254/254 276/276/276 
f 251/251/251 275/275/275 277/277/277 
f 249/249/249 251/251/251 277/277/277 
f 254/254/254 278/278/278 276/276/276 
f 254/254/254 252/252/252 278/278/278 
f 249/249/249 277/277/277 279/279/279 
f 247/247/247 249/249/249 279/279/279 
f 252/252/252 280/280/280 278/278/278 
f 252/252/252 250/250/250 280/280/280 
f 247/247/247 279/279/279 281/281/281 
f 245/245/245 247/247/247 281/281/281 
f 250/250/250 282/282/282 280/280/280 
f 250/250/250 248/248/248 282/282/282 
f 245/245/245 281/281/281 283/283/283 
f 243/243/243 245/245/245 283/283/283 
f 248/248/248 284/284/284 282/282/282 
f 248/248/248 246/246/246 284/284/284 
f 243/243/243 283/283/283 285/285/285 
f 241/241/241 243/243/243 285/285/285 
f 246/246/246 286/286/286 284/284/284 
f 246/246/246 244/244/244 286/286/286 
f 241/241/241 285/285/285 287/287/287 
f 239/239/239 241/241/241 287/287/287 
f 244/244/244 288/288/288 286/286/286 
f 244/244/244 242/242/242 288/288/288 
f 239/239/239 287/287/287 289/289/289 
f 237/237/237 239/239/239 289/289/289 
f 242/242/242 290/290/290 288/288/288 
f 242/242/242 240/240/240 290/290/290 
f 237/237/237 289/289/289 291/291/291 
f 236/236/236 237/237/237 291/291/291 
f 240/240/240 292/292/292 290/290/290 
f 240/240/240 238/238/238 292/292/292 
f 236/236/236 291/291/291 293/293/293 
f 235/235/235 236/236/236 293/293/293 
f 238/238/238 294/294/294 292/292/292 
f 238/238/238 232/232/232 294/294/294 
f 235/235/235 293/293/293 295/295/295 
f 234/234/234 235/235/235 295/295/295 
f 232/232/232 296/296/296 294/294/294 
f 232/232/232 233/233/233 296/296/296 
f 233/233/233 234/234/234 297/297/297 
f 234/234/234 295/295/295 297/297/297 
f 233/233/233 297/297/297 296/296/296 
f 292/292/292 298/298/298 290/290/290 
f 294/294/294 299/299/299 292/292/292 
f 292/292/292 299/299/299 298/298/298 
f 296/296/296 300/300/300 294/294/294 
f 294/294/294 300/300/300 299/299/299 
f 297/297/297 301/301/301 296/296/296 
f 296/296/296 301/301/301 300/300/300 
f 295/295/295 302/302/302 297/297/297 
f 297/297/297 302/302/302 301/301/301 
f 293/293/293 303/303/303 295/295/295 
f 295/295/295 303/303/303 302/302/302 
f 290/290/290 298/298/298 304/304/304 
f 290/290/290 304/304/304 288/288/288 
f 293/293/293 305/305/305 303/303/303 
f 291/291/291 305/305/305 293/293/293 
f 288/288/288 304/304/304 306/306/306 
f 288/288/288 306/306/306 286/286/286 
f 291/291/291 307/307/307 305/305/305 
f 289/289/289 307/307/307 291/291/291 
f 286/286/286 306/306/306 308/308/308 
f 286/286/286 308/308/308 284/284/284 
f 289/289/289 309/309/309 307/307/307 
f 287/287/287 309/309/309 289/289/289 
f 284/284/284 308/308/308 310/310/310 
f 284/284/284 310/310/310 282/282/282 
f 287/287/287 311/311/311 309/309/309 
f 285/285/285 311/311/311 287/287/287 
f 282/282/282 310/310/310 312/312/312 
f 282/282/282 312/312/312 280/280/280 
f 285/285/285 313/313/313 311/311/311 
f 283/283/283 313/313/313 285/285/285 
f 280/280/280 312/312/312 314/314/314 
f 280/280/280 314/314/314 278/278/278 
f 283/283/283 315/315/315 313/313/313 
f 281/281/281 315/315/315 283/283/283 
f 278/278/278 314/314/314 316/316/316 
f 278/278/278 316/316/316 276/276/276 
f 281/281/281 317/317/317 315/315/315 
f 279/279/279 317/317/317 281/281/281 
f 276/276/276 316/316/316 318/318/318 
f 276/276/276 318/318/318 274/274/274 
f 279/279/279 319/319/319 317/317/317 
f 277/277/277 319/319/319 279/279/279 
f 274/274/274 318/318/318 320/320/320 
f 274/274/274 320/320/320 272/272/272 
f 277/277/277 321/321/321 319/319/319 
f 275/275/275 321/321/321 277/277/277 
f 272/272/272 320/320/320 322/322/322 
f 272/272/272 322/322/322 270/270/270 
f 275/275/275 323/323/323 321/321/321 
f 273/273/273 323/323/323 275/275/275 
f 270/270/270 322/322/322 324/324/324 
f 270/270/270 324/324/324 269/269/269 
f 273/273/273 325/325/325 323/323/323 
f 271/271/271 325/325/325 273/273/273 
f 269/269/269 324/324/324 326/326/326 
f 269/269/269 326/326/326 268/268/268 
f 271/271/271 327/327/327 325/325/325 
f 265/265/265 327/327/327 271/271/271 
f 268/268/268 326/326/326 328/328/328 
f 268/268/268 328/328/328 267/267/267 
f 265/265/265 329/329/329 327/327/327 
f 266/266/266 329/329/329 265/265/265 
f 267/267/267 330/330/330 266/266/266 
f 267/267/267 328/328/328 330/330/330 
f 266/266/266 330/330/330 329/329/329 
f 325/325/325 331/331/331 323/323/323 
f 327/327/327 332/332/332 325/325/325 
f 325/325/325 332/332/332 331/331/331 
f 329/329/329 333/333/333 327/327/327 
f 327/327/327 333/333/333 332/332/332 
f 330/330/330 334/334/334 329/329/329 
f 329/329/329 334/334/334 333/333/333 
f 328/328/328 335/335/335 330/330/330 
f 330/330/330 335/335/335 334/334/334 
f 326/326/326 336/336/336 328/328/328 
f 328/328/328 336/336/336 335/335/335 
f 323/323/323 331/331/331 337/337/337 
f 323/323/323 337/337/337 321/321/321 
f 326/326/326 338/338/338 336/336/336 
f 324/324/324 338/338/338 326/326/326 
f 321/321/321 337/337/337 339/339/339 
f 321/321/321 339/339/339 319/319/319 
f 324/324/324 340/340/340 338/338/338 
f 322/322/322 340/340/340 324/324/324 
f 319/319/319 339/339/339 341/341/341 
f 319/319/319 341/341/341 317/317/317 
f 322/322/322 342/342/342 340/340/340 
f 320/320/320 342/342/342 322/322/322 
f 317/317/317 341/341/341 343/343/343 
f 317/317/317 343/343/343 315/315/315 
f 320/320/320 344/344/344 342/342/342 
f 318/318/318 344/344/344 320/320/320 
f 315/315/315 343/343/343 345/345/345 
f 315/315/315 345/345/345 313/313/313 
f 318/318/318 346/346/346 344/344/344 
f 316/316/316 346/346/346 318/318/318 
f 313/313/313 345/345/345 347/347/347 
f 313/313/313 347/347/347 311/311/311 
f 316/316/316 348/348/348 346/346/346 
f 314/314/314 348/348/348 316/316/316 
f 311/311/311 347/347/347 349/349/349 
f 311/311/311 349/349/349 309/309/309 
f 314/314/314 350/350/350 348/348/348 
f 312/312/312 350/350/350 314/314/314 
f 309/309/309 349/349/349 351/351/351 
f 309/309/309 351/351/351 307/307/307 
f 312/312/312 352/352/352 350/350/350 
f 310/310/310 352/352/352 312/312/312 
f 307/307/307 351/351/351 353/353/353 
f 307/307/307 353/353/353 305/305/305 
f 310/310/310 354/354/354 352/352/352 
f 308/308/308 354/354/354 310/310/310 
f 305/305/305 353/353/353 355/355/355 
f 305/305/305 355/355/355 303/303/303 
f 308/308/308 356/356/356 354/354/354 
f 306/306/306 356/356/356 308/308/308 
f 303/303/303 355/355/355 357/357/357 
f 303/303/303 357/357/357 302/302/302 
f 306/306/306 358/358/358 356/356/356 
f 304/304/304 358/358/358 306/306/306 
f 302/302/302 357/357/357 359/359/359 
f 302/302/302 359/359/359 301/301/301 
f 304/304/304 360/360/360 358/358/358 
f 298/298/298 360/360/360 304/304/304 
f 301/301/301 359/359/359 361/361/361 
f 301/301/301 361/361/361 300/300/300 
f 298/298/298 362/362/362 360/360/360 
f 299/299/299 362/362/362 298/298/298 
f 300/300/300 363/363/363 299/299/299 
f 300/300/300 361/361/361 363/363/363 
f 299/299/299 363/363/363 362/362/362 
f 356/356/356 358/358/358 364/364/364 
f 358/358/358 360/360/360 365/365/365 
f 358/358/358 365/365/365 364/364/364 
f 360/360/360 362/362/362 366/366/366 
f 360/360/360 366/366/366 365/365/365 
f 362/362/362 363/363/363 367/367/367 
f 362/362/362 367/367/367 366/366/366 
f 363/363/363 361/361/361 368/368/368 
f 363/363/363 368/368/368 367/367/367 
f 361/361/361 359/359/359 369/369/369 
f 361/361/361 369/369/369 368/368/368 
f 356/356/356 364/364/364 370/370/370 
f 354/354/354 356/356/356 370/370/370 
f 359/359/359 371/371/371 369/369/369 
f 359/359/359 357/357/357 371/371/371 
f 354/354/354 370/370/370 372/372/372 
f 352/352/352 354/354/354 372/372/372 
f 357/357/357 373/373/373 371/371/371 
f 357/357/357 355/355/355 373/373/373 
f 352/352/352 372/372/372 374/374/374 
f 350/350/350 352/352/352 374/374/374 
f 355/355/355 375/375/375 373/373/373 
f 355/355/355 353/353/353 375/375/375 
f 350/350/350 374/374/374 376/376/376 
f 348/348/348 350/350/350 376/376/376 
f 353/353/353 377/377/377 375/375/375 
f 353/353/353 351/351/351 377/377/377 
f 348/348/348 376/376/376 378/378/378 
f 346/346/346 348/348/348 378/378/378 
f 351/351/351 379/379/379 377/377/377 
f 351/351/351 349/349/349 379/379/379 
f 346/346/346 378/378/378 380/380/380 
f 344/344/344 346/346/346 380/380/380 
f 349/349/349 381/381/381 379/379/379 
f 349/349/349 347/347/347 381/381/381 
f 344/344/344 380/380/380 382/382/382 
f 342/342/342 344/344/344 382/382/382 
f 347/347/347 383/383/383 381/381/381 
f 347/347/347 345/345/345 383/383/383 
f 342/342/342 382/382/382 384/384/384 
f 340/340/340 342/342/342 384/384/384 
f 345/345/345 385/385/385 383/383/383 
f 345/345/345 343/343/343 385/385/385 
f 340/340/340 384/384/384 386/386/386 
f 338/338/338 340/340/340 386/386/386 
f 343/343/343 387/387/387 385/385/385 
f 343/343/343 341/341/341 387/387/387 
f 338/338/338 386/386/386 388/388/388 
f 336/336/336 338/338/338 388/388/388 
f 341/341/341 389/389/389 387/387/387 
f 341/341/341 339/339/339 389/389/389 
f 336/336/336 388/388/388 390/390/390 
f 335/335/335 336/336/336 390/390/390 
f 339/339/339 391/391/391 389/389/389 
f 339/339/339 337/337/337 391/391/391 
f 335/335/335 390/390/390 392/392/392 
f 334/334/334 335/335/335 392/392/392 
f 337/337/337 393/393/393 391/391/391 
f 337/337/337 331/331/331 393/393/393 
f 334/334/334 392/392/392 394/394/394 
f 333/333/333 334/334/334 394/394/394 
f 331/331/331 395/395/395 393/393/393 
f 331/331/331 332/332/332 395/395/395 
f 332/332/332 333/333/333 396/396/396 
f 333/333/333 394/394/394 396/396/396 
f 332/332/332 396/396/396 395/395/395 
f 391/391/391 397/397/397 389/389/389 
f 393/393/393 398/398/398 391/391/391 
f 391/391/391 398/398/398 397/397/397 
f 398/398/398 399/399/399 397/397/397 
f 398/398/398 400/400/400 399/399/399 
f 393/393/393 400/400/400 398/398/398 
f 395/395/395 400/400/400 393/393/393 
f 389/389/389 397/397/397 401/401/401 
f 399/399/399 401/401/401 397/397/397 
f 389/389/389 401/401/401 387/387/387 
f 395/395/395 402/402/402 400/400/400 
f 396/396/396 402/402/402 395/395/395 
f 400/400/400 402/402/402 399/399/399 
f 387/387/387 401/401/401 403/403/403 
f 399/399/399 403/403/403 401/401/401 
f 387/387/387 403/403/403 385/385/385 
f 396/396/396 404/404/404 402/402/402 
f 399/399/399 402/402/402 404/404/404 
f 394/394/394 404/404/404 396/396/396 
f 385/385/385 403/403/403 405/405/405 
f 399/399/399 405/405/405 403/403/403 
f 385/385/385 405/405/405 383/383/383 
f 394/394/394 406/406/406 404/404/404 
f 399/399/399 404/404/404 406/406/406 
f 399/399/399 407/407/407 405/405/405 
f 383/383/383 405/405/405 407/407/407 
f 399/399/399 406/406/406 408/408/408 
f 392/392/392 406/406/406 394/394/394 
f 392/392/392 408/408/408 406/406/406 
f 383/383/383 407/407/407 381/381/381 
f 390/390/390 408/408/408 392/392/392 
f 381/381/381 407/407/407 409/409/409 
f 399/399/399 409/409/409 407/407/407 
f 381/381/381 409/409/409 379/379/379 
f 390/390/390 410/410/410 408/408/408 
f 399/399/399 408/408/408 410/410/410 
f 388/388/388 410/410/410 390/390/390 
f 379/379/379 409/409/409 411/411/411 
f 399/399/399 411/411/411 409/409/409 
f 379/379/379 411/411/411 377/377/377 
f 388/388/388 412/412/412 410/410/410 
f 399/399/399 410/410/410 412/412/412 
f 386/386/386 412/412/412 388/388/388 
f 377/377/377 411/411/411 413/413/413 
f 399/399/399 413/413/413 411/411/411 
f 377/377/377 413/413/413 375/375/375 
f 386/386/386 414/414/414 412/412/412 
f 399/399/399 412/412/412 414/414/414 
f 399/399/399 415/415/415 413/413/413 
f 375/375/375 413/413/413 415/415/415 
f 399/399/399 414/414/414 416/416/416 
f 384/384/384 414/414/414 386/386/386 
f 384/384/384 416/416/416 414/414/414 
f 375/375/375 415/415/415 373/373/373 
f 382/382/382 416/416/416 384/384/384 
f 373/373/373 415/415/415 417/417/417 
f 399/399/399 417/417/417 415/415/415 
f 373/373/373 417/417/417 371/371/371 
f 382/382/382 418/418/418 416/416/416 
f 399/399/399 416/416/416 418/418/418 
f 380/380/380 418/418/418 382/382/382 
f 371/371/371 417/417/417 419/419/419 
f 399/399/399 419/419/419 417/417/417 
f 371/371/371 419/419/419 369/369/369 
f 380/380/380 420/420/420 418/418/418 
f 418/418/418 420/420/420 399/399/399 
f 378/378/378 420/420/420 380/380/380 
f 369/369/369 419/419/419 421/421/421 
f 399/399/399 421/421/421 419/419/419 
f 369/369/369 421/421/421 368/368/368 
f 378/378/378 422/422/422 420/420/420 
f 399/399/399 420/420/420 422/422/422 
f 399/399/399 423/423/423 421/421/421 
f 368/368/368 421/421/421 423/423/423 
f 399/399/399 422/422/422 424/424/424 
f 376/376/376 422/422/422 378/378/378 
f 376/376/376 424/424/424 422/422/422 
f 368/368/368 423/423/423 367/367/367 
f 374/374/374 424/424/424 376/376/376 
f 367/367/367 423/423/423 425/425/425 
f 399/399/399 425/425/425 423/423/423 
f 367/367/367 425/425/425 366/366/366 
f 374/374/374 426/426/426 424/424/424 
f 399/399/399 424/424/424 426/426/426 
f 372/372/372 426/426/426 374/374/374 
f 366/366/366 425/425/425 427/427/427 
f 399/399/399 427/427/427 425/425/425 
f 366/366/366 427/427/427 365/365/365 
f 372/372/372 428/428/428 426/426/426 
f 399/399/399 426/426/426 428/428/428 
f 370/370/370 428/428/428 372/372/372 
f 365/365/365 427/427/427 429/429/429 
f 399/399/399 429/429/429 427/427/427 
f 365/365/365 429/429/429 364/364/364 
f 370/370/370 430/430/430 428/428/428 
f 428/428/428 430/430/430 399/399/399 
f 364/364/364 430/430/430 370/370/370 
f 399/399/399 430/430/430 429/429/429 
f 364/364/364 429/429/429 430/430/430 
f 431/431/431 433/433/433 432/432/432 
f 431/431/431 434/434/434 433/433/433 
f 435/435/435 431/431/431 432/432/432 
f 434/434/434 436/436/436 433/433/433 
f 434/434/434 437/437/437 436/436/436 
f 435/435/435 432/432/432 438/438/438 
f 439/439/439 435/435/435 438/438/438 
f 437/437/437 440/440/440 436/436/436 
f 437/437/437 441/441/441 440/440/440 
f 439/439/439 438/438/438 442/442/442 
f 443/443/443 439/439/439 442/442/442 
f 441/441/441 444/444/444 440/440/440 
f 441/441/441 445/445/445 444/444/444 
f 443/443/443 442/442/442 446/446/446 
f 447/447/447 443/443/443 446/446/446 
f 445/445/445 448/448/448 444/444/444 
f 445/445/445 449/449/449 448/448/448 
f 447/447/447 446/446/446 450/450/450 
f 451/451/451 447/447/447 450/450/450 
f 449/449/449 452/452/452 448/448/448 
f 449/449/449 453/453/453 452/452/452 
f 451/451/451 450/450/450 454/454/454 
f 455/455/455 451/451/451 454/454/454 
f 453/453/453 456/456/456 452/452/452 
f 453/453/453 457/457/457 456/456/456 
f 455/455/455 454/454/454 458/458/458 
f 459/459/459 455/455/455 458/458/458 
f 457/457/457 460/460/460 456/456/456 
f 457/457/457 461/461/461 460/460/460 
f 459/459/459 458/458/458 462/462/462 
f 463/463/463 459/459/459 462/462/462 
f 461/461/461 464/464/464 460/460/460 
f 461/461/461 465/465/465 464/464/464 
f 463/463/463 462/462/462 466/466/466 
f 467/467/467 463/463/463 466/466/466 
f 465/465/465 468/468/468 464/464/464 
f 465/465/465 469/469/469 468/468/468 
f 467/467/467 466/466/466 470/470/470 
f 471/471/471 467/467/467 470/470/470 
f 469/469/469 472/472/472 468/468/468 
f 469/469/469 473/473/473 472/472/472 
f 471/471/471 470/470/470 474/474/474 
f 475/475/475 471/471/471 474/474/474 
f 473/473/473 476/476/476 472/472/472 
f 473/473/473 477/477/477 476/476/476 
f 475/475/475 474/474/474 478/478/478 
f 479/479/479 475/475/475 478/478/478 
f 477/477/477 480/480/480 476/476/476 
f 477/477/477 481/481/481 480/480/480 
f 479/479/479 478/478/478 482/482/482 
f 483/483/483 479/479/479 482/482/482 
f 481/481/481 484/484/484 480/480/480 
f 481/481/481 485/485/485 484/484/484 
f 483/483/483 482/482/482 486/486/486 
f 487/487/487 483/483/483 486/486/486 
f 485/485/485 488/488/488 484/484/484 
f 485/485/485 489/489/489 488/488/488 
f 487/487/487 486/486/486 490/490/490 
f 491/491/491 487/487/487 490/490/490 
f 489/489/489 492/492/492 488/488/488 
f 489/489/489 493/493/493 492/492/492 
f 491/491/491 490/490/490 494/494/494 
f 495/495/495 491/491/491 494/494/494 
f 493/493/493 495/495/495 496/496/496 
f 493/493/493 496/496/496 492/492/492 
f 495/495/495 494/494/494 496/496/496 
f 482/482/482 497/497/497 486/486/486 
f 486/486/486 498/498/498 490/490/490 
f 486/486/486 497/497/497 498/498/498 
f 490/490/490 499/499/499 494/494/494 
f 490/490/490 498/498/498 499/499/499 
f 494/494/494 500/500/500 496/496/496 
f 494/494/494 499/499/499 500/500/500 
f 496/496/496 501/501/501 492/492/492 
f 496/496/496 500/500/500 501/501/501 
f 492/492/492 502/502/502 488/488/488 
f 492/492/492 501/501/501 502/502/502 
f 482/482/482 503/503/503 497/497/497 
f 478/478/478 503/503/503 482/482/482 
f 488/488/488 502/502/502 504/504/504 
f 488/488/488 504/504/504 484/484/484 
f 478/478/478 505/505/505 503/503/503 
f 474/474/474 505/505/505 478/478/478 
f 484/484/484 504/504/504 506/506/506 
f 484/484/484 506/506/506 480/480/480 
f 474/474/474 507/507/507 505/505/505 
f 470/470/470 507/507/507 474/474/474 
f 480/480/480 506/506/506 508/508/508 
f 480/480/480 508/508/508 476/476/476 
f 470/470/470 509/509/509 507/507/507 
f 466/466/466 509/509/509 470/470/470 
f 476/476/476 508/508/508 510/510/510 
f 476/476/476 510/510/510 472/472/472 
f 466/466/466 511/511/511 509/509/509 
f 462/462/462 511/511/511 466/466/466 
f 472/472/472 510/510/510 512/512/512 
f 472/472/472 512/512/512 468/468/468 
f 462/462/462 513/513/513 511/511/511 
f 458/458/458 513/513/513 462/462/462 
f 468/468/468 512/512/512 514/514/514 
f 468/468/468 514/514/514 464/464/464 
f 458/458/458 515/515/515 513/513/513 
f 454/454/454 515/515/515 458/458/458 
f 464/464/464 514/514/514 516/516/516 
f 464/464/464 516/516/516 460/460/460 
f 454/454/454 517/517/517 515/515/515 
f 450/450/450 517/517/517 454/454/454 
f 460/460/460 516/516/516 518/518/518 
f 460/460/460 518/518/518 456/456/456 
f 450/450/450 519/519/519 517/517/517 
f 446/446/446 519/519/519 450/450/450 
f 456/456/456 518/518/518 520/520/520 
f 456/456/456 520/520/520 452/452/452 
f 446/446/446 521/521/521 519/519/519 
f 442/442/442 521/521/521 446/446/446 
f 452/452/452 520/520/520 522/522/522 
f 452/452/452 522/522/522 448/448/448 
f 442/442/442 523/523/523 521/521/521 
f 438/438/438 523/523/523 442/442/442 
f 448/448/448 522/522/522 524/524/524 
f 448/448/448 524/524/524 444/444/444 
f 438/438/438 525/525/525 523/523/523 
f 432/432/432 525/525/525 438/438/438 
f 444/444/444 524/524/524 526/526/526 
f 444/444/444 526/526/526 440/440/440 
f 432/432/432 527/527/527 525/525/525 
f 433/433/433 527/527/527 432/432/432 
f 440/440/440 526/526/526 528/528/528 
f 440/440/440 528/528/528 436/436/436 
f 436/436/436 529/529/529 433/433/433 
f 433/433/433 529/529/529 527/527/527 
f 436/436/436 528/528/528 529/529/529 
f 524/524/524 522/522/522 530/530/530 
f 526/526/526 524/524/524 531/531/531 
f 524/524/524 530/530/530 531/531/531 
f 528/528/528 526/526/526 532/532/532 
f 526/526/526 531/531/531 532/532/532 
f 529/529/529 528/528/528 533/533/533 
f 528/528/528 532/532/532 533/533/533 
f 527/527/527 529/529/529 534/534/534 
f 529/529/529 533/533/533 534/534/534 
f 525/525/525 527/527/527 535/535/535 
f 527/527/527 534/534/534 535/535/535 
f 522/522/522 536/536/536 530/530/530 
f 522/522/522 520/520/520 536/536/536 
f 525/525/525 535/535/535 537/537/537 
f 523/523/523 525/525/525 537/537/537 
f 520/520/520 538/538/538 536/536/536 
f 520/520/520 518/518/518 538/538/538 
f 523/523/523 537/537/537 539/539/539 
f 521/521/521 523/523/523 539/539/539 
f 518/518/518 540/540/540 538/538/538 
f 518/518/518 516/516/516 540/540/540 
f 521/521/521 539/539/539 541/541/541 
f 519/519/519 521/521/521 541/541/541 
f 516/516/516 542/542/542 540/540/540 
f 516/516/516 514/514/514 542/542/542 
f 519/519/519 541/541/541 543/543/543 
f 517/517/517 519/519/519 543/543/543 
f 514/514/514 544/544/544 542/542/542 
f 514/514/514 512/512/512 544/544/544 
f 517/517/517 543/543/543 545/545/545 
f 515/515/515 517/517/517 545/545/545 
f 512/512/512 546/546/546 544/544/544 
f 512/512/512 510/510/510 546/546/546 
f 515/515/515 545/545/545 547/547/547 
f 513/513/513 515/515/515 547/547/547 
f 510/510/510 548/548/548 546/546/546 
f 510/510/510 508/508/508 548/548/548 
f 513/513/513 547/547/547 549/549/549 
f 511/511/511 513/513/513 549/549/549 
f 508/508/508 550/550/550 548/548/548 
f 508/508/508 506/506/506 550/550/550 
f 511/511/511 549/549/549 551/551/551 
f 509/509/509 511/511/511 551/551/551 
f 506/506/506 552/552/552 550/550/550 
f 506/506/506 504/504/504 552/552/552 
f 509/509/509 551/551/551 553/553/553 
f 507/507/507 509/509/509 553/553/553 
f 504/504/504 554/554/554 552/552/552 
f 504/504/504 502/502/502 554/554/554 
f 507/507/507 553/553/553 555/555/555 
f 505/505/505 507/507/507 555/555/555 
f 502/502/502 556/556/556 554/554/554 
f 502/502/502 501/501/501 556/556/556 
f 505/505/505 555/555/555 557/557/557 
f 503/503/503 505/505/505 557/557/557 
f 501/501/501 558/558/558 556/556/556 
f 501/501/501 500/500/500 558/558/558 
f 503/503/503 557/557/557 559/559/559 
f 497/497/497 503/503/503 559/559/559 
f 500/500/500 560/560/560 558/558/558 
f 500/500/500 499/499/499 560/560/560 
f 497/497/497 559/559/559 561/561/561 
f 498/498/498 497/497/497 561/561/561 
f 499/499/499 498/498/498 562/562/562 
f 499/499/499 562/562/562 560/560/560 
f 498/498/498 561/561/561 562/562/562 
f 557/557/557 555/555/555 563/563/563 
f 559/559/559 557/557/557 564/564/564 
f 557/557/557 563/563/563 564/564/564 
f 564/564/564 563/563/563 565/565/565 
f 564/564/564 565/565/565 566/566/566 
f 559/559/559 564/564/564 566/566/566 
f 561/561/561 559/559/559 566/566/566 
f 555/555/555 567/567/567 563/563/563 
f 567/567/567 565/565/565 563/563/563 
f 555/555/555 553/553/553 567/567/567 
f 561/561/561 566/566/566 568/568/568 
f 562/562/562 561/561/561 568/568/568 
f 568/568/568 566/566/566 565/565/565 
f 553/553/553 569/569/569 567/567/567 
f 567/567/567 569/569/569 565/565/565 
f 553/553/553 551/551/551 569/569/569 
f 562/562/562 568/568/568 570/570/570 
f 568/568/568 565/565/565 570/570/570 
f 560/560/560 562/562/562 570/570/570 
f 551/551/551 571/571/571 569/569/569 
f 571/571/571 565/565/565 569/569/569 
f 551/551/551 549/549/549 571/571/571 
f 560/560/560 570/570/570 572/572/572 
f 572/572/572 570/570/570 565/565/565 
f 571/571/571 573/573/573 565/565/565 
f 549/549/549 573/573/573 571/571/571 
f 572/572/572 565/565/565 574/574/574 
f 558/558/558 560/560/560 572/572/572 
f 558/558/558 572/572/572 574/574/574 
f 549/549/549 547/547/547 573/573/573 
f 556/556/556 558/558/558 574/574/574 
f 547/547/547 575/575/575 573/573/573 
f 575/575/575 565/565/565 573/573/573 
f 547/547/547 545/545/545 575/575/575 
f 556/556/556 574/574/574 576/576/576 
f 576/576/576 574/574/574 565/565/565 
f 554/554/554 556/556/556 576/576/576 
f 545/545/545 577/577/577 575/575/575 
f 575/575/575 577/577/577 565/565/565 
f 545/545/545 543/543/543 577/577/577 
f 554/554/554 576/576/576 578/578/578 
f 576/576/576 565/565/565 578/578/578 
f 552/552/552 554/554/554 578/578/578 
f 543/543/543 579/579/579 577/577/577 
f 577/577/577 579/579/579 565/565/565 
f 543/543/543 541/541/541 579/579/579 
f 552/552/552 578/578/578 580/580/580 
f 580/580/580 578/578/578 565/565/565 
f 581/581/581 565/565/565 579/579/579 
f 541/541/541 581/581/581 579/579/579 
f 580/580/580 565/565/565 582/582/582 
f 550/550/550 552/552/552 580/580/580 
f 550/550/550 580/580/580 582/582/582 
f 541/541/541 539/539/539 581/581/581 
f 548/548/548 550/550/550 582/582/582 
f 539/539/539 583/583/583 581/581/581 
f 581/581/581 583/583/583 565/565/565 
f 539/539/539 537/537/537 583/583/583 
f 548/548/548 582/582/582 584/584/584 
f 584/584/584 582/582/582 565/565/565 
f 546/546/546 548/548/548 584/584/584 
f 537/537/537 585/585/585 583/583/583 
f 585/585/585 565/565/565 583/583/583 
f 537/537/537 535/535/535 585/585/585 
f 546/546/546 584/584/584 586/586/586 
f 584/584/584 565/565/565 586/586/586 
f 544/544/544 546/546/546 586/586/586 
f 535/535/535 587/587/587 585/585/585 
f 585/585/585 587/587/587 565/565/565 
f 535/535/535 534/534/534 587/587/587 
f 544/544/544 586/586/586 588/588/588 
f 588/588/588 586/586/586 565/565/565 
f 589/589/589 565/565/565 587/587/587 
f 534/534/534 589/589/589 587/587/587 
f 588/588/588 565/565/565 590/590/590 
f 542/542/542 544/544/544 588/588/588 
f 542/542/542 588/588/588 590/590/590 
f 534/534/534 533/533/533 589/589/589 
f 540/540/540 542/542/542 590/590/590 
f 533/533/533 591/591/591 589/589/589 
f 589/589/589 591/591/591 565/565/565 
f 533/533/533 532/532/532 591/591/591 
f 540/540/540 590/590/590 592/592/592 
f 592/592/592 590/590/590 565/565/565 
f 538/538/538 540/540/540 592/592/592 
f 532/532/532 593/593/593 591/591/591 
f 593/593/593 565/565/565 591/591/591 
f 532/532/532 531/531/531 593/593/593 
f 538/538/538 592/592/592 594/594/594 
f 592/592/592 565/565/565 594/594/594 
f 536/536/536 538/538/538 594/594/594 
f 531/531/531 595/595/595 593/593/593 
f 593/593/593 595/595/595 565/565/565 
f 531/531/531 530/530/530 595/595/595 
f 536/536/536 594/594/594 596/596/596 
f 596/596/596 594/594/594 565/565/565 
f 596/596/596 565/565/565 595/595/595 
f 530/530/530 596/596/596 595/595/595 
f 530/530/530 536/536/536 596/596/596 
