# exported by StudySceneExporter from mesh 'Screwdriver_S_Handle_low'
mtllib materials.mtl
v -0.01143898 -0.006739635 -0.02785141
v -0.006874199 -0.01139242 -0.02467651
v -0.006905937 -0.01144323 -0.02782104
v -0.01140724 -0.006688785 -0.02470688
v -0.01301311 -0.0004002571 -0.02793793
v -0.005573692 -0.009235553 -0.0204483
v -0.01298138 -0.0003494072 -0.0247934
v -0.01120651 0.005876293 -0.02805771
v -0.009231147 -0.005440502 -0.02047287
v -0.005035858 -0.008345127 -0.01619202
v -0.01117477 0.005927143 -0.02491318
v -0.006503296 0.01040823 -0.02817841
v -0.008348846 -0.004907474 -0.01621414
v -0.00540493 -0.008960666 -0.01148071
v -0.01050121 -0.0003256035 -0.02054275
v -0.006471558 0.01045908 -0.02503387
v -0.0001636505 0.01198118 -0.02826767
v -0.009007911 -0.005222111 -0.01150482
v -0.006340637 -0.0105168 -0.007008514
v -0.009499283 -0.0002742958 -0.01627747
v -0.009043579 0.004738598 -0.02063934
v -0.0001319122 0.01203203 -0.02512344
v 0.006113701 0.0101737 -0.02830185
v 0.006145439 0.01022455 -0.02515747
v -0.01062637 -0.006069851 -0.007037353
v -0.008067246 -0.01338827 0.001130066
v -0.005248833 0.008395175 -0.02073669
v -0.0001337051 0.009664325 -0.02080887
v 0.004931144 0.008205929 -0.02083633
v -0.00817894 0.004312916 -0.0163649
v -0.01025906 -0.0001833534 -0.01157364
v -0.01361195 -0.007634907 0.001092834
v -0.008850669 -0.01469507 0.01152557
v -0.0001082611 0.0087747 -0.0165184
v 0.004479599 0.007453708 -0.01654343
v -0.004741592 0.007625103 -0.01645309
v -0.0121146 -7.635116E-05 -0.007119141
v -0.008823127 0.004805393 -0.01166885
v -0.01501377 -0.008300152 0.01148422
v -0.007432938 -0.01234667 0.02089859
v -4.59671E-05 0.009657726 -0.01183578
v 0.004943466 0.008221111 -0.01186295
v -0.005084877 0.008407497 -0.01176483
v -0.01553738 0.0001193047 0.000987091
v -0.01040657 0.005857754 -0.007232208
v -0.01267498 -0.006907368 0.02086349
v -0.005497742 -0.009136524 0.02583832
v 3.376007E-05 0.01162958 -0.00743103
v 0.005968628 0.009920712 -0.007463226
v -0.005959969 0.01014242 -0.007346344
v -0.0133276 0.00779665 0.0008406067
v -0.01715389 0.0003188515 0.01136658
v 0.0001797867 0.015264 0.0005834961
v 0.007858085 0.01305315 0.0005418396
v -0.007574691 0.01333998 0.0006930542
v -0.00830326 0.0150139 0.01103973
v 0.0003160477 0.0171525 0.01091812
v 0.008850669 0.01469507 0.01087173
v -0.01469768 0.008852367 0.01120392
v 0.000363884 0.01474146 0.02038193
v 0.007623062 0.01265131 0.02034241
v -0.006967315 0.0129225 0.02048523
v 0.0003470993 0.01117006 0.0254509
v -0.005148697 0.009806499 0.02552841
v 0.005788955 0.009603176 0.02542145
v 0.00323204 0.005356121 0.02838211
v 0.000283699 0.006205082 0.02839798
v 0.0001850891 0.0002966118 0.02954529
v -0.00823368 0.01188086 0.02009308
v -0.002693901 0.005466289 0.02844009
v -0.01371406 0.008346424 0.01509201
v -0.01082996 0.01149015 0.01623077
v -0.01515091 0.004362545 0.01638351
v -0.01449532 0.0004235267 0.0207634
v -0.009427452 -0.005058994 0.02581192
v -0.01079204 0.0004366112 0.02573685
v -0.005012054 -0.002587681 0.0285936
v -0.002882996 -0.004796848 0.02860794
v -0.005751419 0.0003898048 0.02855301
v -0.004902878 0.003337726 0.02849686
v -0.009225922 0.005877743 0.02563309
v -0.009531517 0.006050549 0.02512649
v -0.01417503 0.002016239 0.0203125
v -0.007841988 0.01000669 0.0232251
v -0.01227421 0.002647724 0.02338867
v -0.01312752 0.004661961 0.01741547
v -0.01212826 0.00277338 0.01980942
v -0.01214825 0.007434368 0.01648636
v -0.01066975 0.003452091 0.02203628
v -0.008770561 0.005547161 0.02310043
v -0.01015354 0.009634075 0.01730515
v -0.007828751 0.008169116 0.0219313
v -0.007955093 0.009702244 0.0196553
v 0.01064674 0.005470104 -0.02827164
v 0.006145439 0.01022455 -0.02515747
v 0.006113701 0.0101737 -0.02830185
v 0.01067848 0.005520954 -0.02512711
v 0.01222088 -0.0008692741 -0.02818512
v 0.004931144 0.008205929 -0.02083633
v 0.01225262 -0.0008184242 -0.02504059
v 0.01041428 -0.007145824 -0.02806534
v 0.0085886 0.004410877 -0.02081192
v 0.004479599 0.007453708 -0.01654343
v 0.01044601 -0.007094974 -0.02492081
v 0.00571106 -0.01167776 -0.02794464
v 0.007792587 0.004016056 -0.0165213
v 0.004943466 0.008221111 -0.01186295
v 0.009858665 -0.0007040214 -0.02074203
v 0.005742798 -0.01162691 -0.02480011
v -0.0006285858 -0.01325071 -0.02785507
v 0.008546447 0.004482555 -0.01183884
v 0.005968628 0.009920712 -0.007463226
v 0.008943023 -0.0006170845 -0.01645798
v 0.008401032 -0.005768223 -0.02064545
v -0.0005968475 -0.01319986 -0.02471054
v -0.006905937 -0.01144323 -0.02782104
v -0.006874199 -0.01139242 -0.02467651
v 0.01025436 0.005473766 -0.007434539
v 0.007858085 0.01305315 0.0005418396
v 0.004606285 -0.009424763 -0.0205481
v -0.0005088425 -0.01069391 -0.02047592
v -0.005573692 -0.009235553 -0.0204483
v 0.007622681 -0.005204334 -0.01637039
v 0.009797592 -0.0005561638 -0.01177002
v 0.01340282 0.007299786 0.0005790711
v 0.008850669 0.01469507 0.01087173
v -0.0004480362 -0.009666081 -0.01621704
v -0.005035858 -0.008345127 -0.01619202
v 0.004185295 -0.008516483 -0.0162822
v 0.01174259 -0.0005197715 -0.007352753
v 0.008361664 -0.005544948 -0.0116748
v 0.01501373 0.008300152 0.01091309
v 0.007623062 0.01265131 0.02034241
v -0.0004154968 -0.01039728 -0.01150787
v -0.00540493 -0.008960666 -0.01148071
v 0.004623413 -0.009147014 -0.01157883
v 0.01532825 -0.0004543877 0.0006848144
v 0.01003456 -0.006453876 -0.007239532
v 0.0128651 0.007212047 0.0203775
v 0.005788955 0.009603176 0.02542145
v -0.0004058075 -0.01222567 -0.007040863
v -0.006340637 -0.0105168 -0.007008514
v 0.005587959 -0.01073851 -0.007125397
v 0.01311848 -0.008131733 0.0008312988
v 0.01715389 -0.0003188515 0.01103073
v -0.0003889084 -0.01559908 0.001088409
v -0.008067246 -0.01338827 0.001130066
v 0.00736557 -0.0136751 0.0009788513
v 0.00830326 -0.0150139 0.01135757
v -0.0003160477 -0.0171525 0.01147919
v -0.008850669 -0.01469507 0.01152557
v 0.01469768 -0.008852367 0.01119339
v -0.0001737595 -0.01443682 0.02085922
v -0.007432938 -0.01234667 0.02089859
v 0.00715744 -0.01261785 0.02075577
v -5.592346E-05 -0.01070341 0.02580871
v -0.005497742 -0.009136524 0.02583832
v -0.002882996 -0.004796848 0.02860794
v 0.005439911 -0.009339848 0.0257312
v 6.530761E-05 -0.005645771 0.02859192
v 0.0001850891 0.0002966118 0.02954529
v 0.003042908 -0.004906978 0.02854996
v 0.01525383 -0.004197598 0.01621521
v 0.0137925 -0.008220691 0.01508255
v 0.01468544 -0.0001188469 0.02047775
v 0.009718628 0.005525646 0.02544769
v 0.01108326 3.004074E-05 0.02552276
v 0.005361099 0.003146992 0.0283963
v 0.00323204 0.005356121 0.02838211
v 0.006100425 0.0001695061 0.02843704
v 0.005251923 -0.002778454 0.02849319
v 0.009517135 -0.005411129 0.02562653
v 0.007762146 -0.009420109 0.02338165
v 0.01435661 -0.001725254 0.02008499
v 0.00981247 -0.005600262 0.02511963
v 0.008415299 -0.01158979 0.02030456
v 0.01251846 -0.002256298 0.02321777
v 0.010933 -0.01132502 0.01638031
v 0.01225487 -0.007263508 0.01647781
v 0.01027782 -0.009434986 0.01740738
v 0.01325176 -0.004462871 0.0172969
v 0.008127213 -0.009426403 0.0198024
v 0.01230041 -0.002497578 0.01964828
v 0.008046303 -0.007820492 0.02202988
v 0.0108873 -0.003103466 0.0219249
v 0.009010658 -0.00516241 0.02309402
v -0.01015354 0.009634075 0.01730515
v 0.01225487 -0.007263508 0.01647781
v -0.01214825 0.007434368 0.01648636
v 0.01325176 -0.004462871 0.0172969
v -0.007955093 0.009702244 0.0196553
v 0.01230041 -0.002497578 0.01964828
v -0.007828751 0.008169116 0.0219313
v 0.0108873 -0.003103466 0.0219249
v -0.008770561 0.005547161 0.02310043
v 0.009010658 -0.00516241 0.02309402
v -0.01066975 0.003452091 0.02203628
v 0.008046303 -0.007820492 0.02202988
v -0.01212826 0.00277338 0.01980942
v 0.008127213 -0.009426403 0.0198024
v -0.01312752 0.004661961 0.01741547
v 0.01027782 -0.009434986 0.01740738
v -0.01214825 0.007434368 0.01648636
v 0.01225487 -0.007263508 0.01647781
v -0.01120651 0.005876293 -0.02805771
v -0.007849007 0.003854084 -0.02805893
v -0.004606514 0.006978435 -0.02814209
v -0.006503296 0.01040823 -0.02817841
v -0.01301311 -0.0004002571 -0.02793793
v -0.0002358627 0.008062878 -0.02820374
v -0.0001636505 0.01198118 -0.02826767
v -0.009094467 -0.0004730797 -0.02797638
v -0.01143898 -0.006739635 -0.02785141
v 0.004091873 0.006816807 -0.02822723
v 0.006113701 0.0101737 -0.02830185
v -0.008009261 -0.004843578 -0.02791672
v -0.006905937 -0.01144323 -0.02782104
v 0.007217025 0.003574047 -0.02820633
v 0.01064674 0.005470104 -0.02827164
v -0.004884109 -0.0080863 -0.02789566
v -0.0006285858 -0.01325071 -0.02785507
v 0.00830223 -0.0007964515 -0.02814667
v 0.01222088 -0.0008692741 -0.02818512
v -0.0005563736 -0.009332409 -0.02791916
v 0.00571106 -0.01167776 -0.02794464
v 0.00705677 -0.005123615 -0.02806412
v 0.01041428 -0.007145824 -0.02806534
v 0.003814277 -0.008247967 -0.0279808
v 0.007203712 0.003552761 -0.02952438
v 0.008288955 -0.0008177757 -0.02946472
v 0.007043457 -0.005144901 -0.02938217
v 0.003801002 -0.00826929 -0.02929886
v -0.0004094314 -0.0006560707 -0.02937958
v 0.00407856 0.006795483 -0.02954529
v -0.0005696869 -0.009353733 -0.02923737
v -0.004897384 -0.008107624 -0.02921387
v -0.0002491379 0.008041591 -0.02952179
v -0.008022576 -0.004864902 -0.02923477
v -0.004619827 0.006957149 -0.02946014
v -0.009107781 -0.0004943657 -0.02929443
v -0.007862282 0.00383276 -0.02937698
vt 0.8924315 0.3310193
vt 0.8841043 0.3436501
vt 0.8907754 0.3446156
vt 0.8857689 0.3303542
vt 0.8931069 0.3176054
vt 0.8744979 0.3405836
vt 0.8863814 0.3173627
vt 0.8932273 0.3042163
vt 0.8755009 0.3291231
vt 0.8660882 0.3398023
vt 0.8864856 0.3043478
vt 0.8928642 0.2907208
vt 0.8660753 0.3289945
vt 0.8565435 0.3423576
vt 0.8758285 0.3169681
vt 0.8861566 0.2912604
vt 0.8916967 0.2770624
vt 0.8556337 0.3306744
vt 0.8460965 0.3469062
vt 0.8661973 0.3171388
vt 0.8758709 0.3045107
vt 0.8851271 0.2780839
vt 0.8892689 0.2634191
vt 0.8826945 0.2646499
vt 0.8450227 0.3333203
vt 0.8246748 0.3540956
vt 0.8755937 0.2920378
vt 0.8748136 0.2798483
vt 0.8729806 0.268309
vt 0.8662331 0.3047833
vt 0.8557134 0.3180693
vt 0.8255217 0.337207
vt 0.7970879 0.3540932
vt 0.8655481 0.2806314
vt 0.8647916 0.2698502
vt 0.8660297 0.292446
vt 0.8453727 0.3193021
vt 0.8558483 0.3050357
vt 0.8024194 0.3369954
vt 0.7740364 0.3431647
vt 0.855516 0.2795902
vt 0.8559015 0.2681012
vt 0.8557286 0.2920524
vt 0.8271608 0.3208951
vt 0.8457103 0.3051016
vt 0.782136 0.3307567
vt 0.7627401 0.3312645
vt 0.845439 0.2772017
vt 0.8464847 0.2640638
vt 0.8456135 0.2909776
vt 0.8280764 0.304794
vt 0.8061981 0.3205308
vt 0.8270962 0.2726677
vt 0.82743 0.2564069
vt 0.8278675 0.2887453
vt 0.8072581 0.2877219
vt 0.8048384 0.2709865
vt 0.8016996 0.253418
vt 0.8078938 0.3042527
vt 0.7843945 0.2749738
vt 0.7777519 0.2609739
vt 0.7882679 0.2891698
vt 0.772481 0.2810947
vt 0.7761891 0.2914631
vt 0.7649293 0.2717452
vt 0.7574697 0.2855259
vt 0.7624426 0.2893984
vt 0.753418 0.3012698
vt 0.7893217 0.2921297
vt 0.765269 0.2953035
vt 0.8002806 0.3038973
vt 0.7977414 0.2959438
vt 0.7972145 0.3116084
vt 0.7871163 0.3175106
vt 0.7705059 0.3234937
vt 0.7751546 0.3137308
vt 0.7611022 0.314154
vt 0.7555935 0.3175415
vt 0.7645807 0.3086445
vt 0.7659569 0.3020389
vt 0.7768698 0.3026855
vt 0.7780125 0.3027522
vt 0.7884123 0.3146189
vt 0.782337 0.2945093
vt 0.7815826 0.3114504
vt 0.7939229 0.3089532
vt 0.7882011 0.31063
vt 0.7960703 0.3036984
vt 0.78404 0.3080438
vt 0.7821379 0.3029873
vt 0.7943196 0.2982538
vt 0.7845101 0.2981708
vt 0.7888007 0.2960329
vt 0.8924494 0.4352052
vt 0.8841496 0.447859
vt 0.8908238 0.4488077
vt 0.8857846 0.4345573
vt 0.8930964 0.4217834
vt 0.8745325 0.4448175
vt 0.8863702 0.4215591
vt 0.8931866 0.4083852
vt 0.8755114 0.4333532
vt 0.8661132 0.4440591
vt 0.8864455 0.4085367
vt 0.8927884 0.3948816
vt 0.8660808 0.4332497
vt 0.8565607 0.44664
vt 0.8758152 0.4211934
vt 0.8860831 0.3954425
vt 0.8915801 0.3812197
vt 0.8556352 0.4349563
vt 0.8461049 0.4512122
vt 0.8661828 0.4213899
vt 0.8758316 0.40873
vt 0.8850143 0.3822631
vt 0.8891065 0.3675821
vt 0.8825369 0.368835
vt 0.8450201 0.4376253
vt 0.8246624 0.4584293
vt 0.875524 0.3962514
vt 0.8747087 0.3840592
vt 0.8728373 0.3725241
vt 0.8661957 0.4090291
vt 0.8556981 0.4223472
vt 0.8255098 0.4415401
vt 0.7970572 0.4584324
vt 0.8654506 0.3848677
vt 0.8646574 0.3740869
vt 0.8659651 0.3966861
vt 0.8453565 0.4236033
vt 0.855814 0.4093081
vt 0.802398 0.4413359
vt 0.7740159 0.4475143
vt 0.8554232 0.3838513
vt 0.8557677 0.372358
vt 0.8556695 0.3963189
vt 0.8271399 0.4252274
vt 0.8456798 0.4093972
vt 0.7821302 0.4351122
vt 0.7627268 0.4356332
vt 0.8453488 0.3814865
vt 0.846344 0.3683414
vt 0.8455606 0.3952682
vt 0.8280528 0.4091195
vt 0.8061626 0.4248723
vt 0.8270102 0.376996
vt 0.8272781 0.3607334
vt 0.8278251 0.3930714
vt 0.8072183 0.3920655
vt 0.8047686 0.3753772
vt 0.8015656 0.3578271
vt 0.8078854 0.408597
vt 0.7843876 0.3794822
vt 0.7776897 0.3654597
vt 0.7881966 0.3935026
vt 0.7723882 0.3854669
vt 0.7648661 0.3761487
vt 0.7574458 0.3899574
vt 0.77631 0.3960667
vt 0.7624273 0.3938274
vt 0.753418 0.4056914
vt 0.7652915 0.3997505
vt 0.7971594 0.4159434
vt 0.800303 0.408227
vt 0.7870922 0.4218316
vt 0.7705007 0.4278791
vt 0.7751422 0.4181316
vt 0.7610986 0.4185585
vt 0.7555902 0.4219383
vt 0.7645752 0.4130589
vt 0.7659559 0.4064664
vt 0.7768683 0.40713
vt 0.782042 0.3989027
vt 0.7883854 0.4189265
vt 0.7780061 0.4071981
vt 0.7892809 0.3964616
vt 0.7815533 0.4158258
vt 0.7976918 0.4002571
vt 0.7961395 0.4080169
vt 0.7942376 0.4025607
vt 0.7938333 0.4132686
vt 0.7886755 0.4003623
vt 0.7881918 0.4148951
vt 0.7842519 0.4023724
vt 0.783963 0.412395
vt 0.7821133 0.4073092
vt 0.8481457 0.4604204
vt 0.8957253 0.4552631
vt 0.8471684 0.4552619
vt 0.8947175 0.4604216
vt 0.8512945 0.4649136
vt 0.8915987 0.4649146
vt 0.8528261 0.4693387
vt 0.8900669 0.4693396
vt 0.853756 0.4744037
vt 0.8891368 0.4744046
vt 0.8528256 0.4794688
vt 0.8900666 0.4794697
vt 0.851294 0.4838938
vt 0.8915982 0.4838947
vt 0.8481753 0.4883869
vt 0.8947468 0.4883879
vt 0.8471675 0.4935452
vt 0.8957243 0.4935464
vt 0.8999312 0.2896142
vt 0.907876 0.2875056
vt 0.907866 0.2770599
vt 0.8999314 0.2749135
vt 0.9072814 0.3023454
vt 0.9130802 0.2680087
vt 0.9072819 0.2621825
vt 0.9131076 0.2965468
vt 0.9200125 0.3096957
vt 0.9221215 0.2627771
vt 0.920013 0.2548322
vt 0.922159 0.3017609
vt 0.9347131 0.3096958
vt 0.9325671 0.2627671
vt 0.9347136 0.2548323
vt 0.9326048 0.3017509
vt 0.9474444 0.3023456
vt 0.9416184 0.2679812
vt 0.9474447 0.2621827
vt 0.9416459 0.2965194
vt 0.9547949 0.2896146
vt 0.9468498 0.2770224
vt 0.9547949 0.2749139
vt 0.9468598 0.2874681
vt 0.9319043 0.2653151
vt 0.9397705 0.2698565
vt 0.9443121 0.2777225
vt 0.9443121 0.2868054
vt 0.9273629 0.282264
vt 0.9228215 0.2653151
vt 0.9397707 0.2946715
vt 0.9319046 0.2992131
vt 0.9149556 0.2698565
vt 0.9228215 0.2992131
vt 0.910414 0.2777226
vt 0.9149556 0.2946715
vt 0.910414 0.2868055
vn -0.8750467 -0.4837519 0.01665815
vn -0.6883304 -0.6614177 0.2978723
vn -0.7199898 -0.6937383 0.01848737
vn -0.834724 -0.4583974 0.3051357
vn -0.9997794 0.01858296 0.009791079
vn -0.6631572 -0.6365456 0.3937415
vn -0.9541224 0.02246687 0.2985727
vn -0.8566291 0.5159327 0.0002999751
vn -0.8025792 -0.4395762 0.4032858
vn -0.7196828 -0.6933532 0.03630363
vn -0.8170859 0.4985678 0.2894836
vn -0.4839363 0.8750541 -0.009266838
vn -0.8747119 -0.4833703 0.03510417
vn -0.6924706 -0.66912 -0.2697464
vn -0.9175356 0.0233999 0.3969646
vn -0.4603298 0.8423251 0.2803299
vn 0.01841458 0.9996967 -0.01635306
vn -0.8386154 -0.4667655 -0.2808097
vn -0.6682113 -0.6463607 -0.3683905
vn -0.9994228 0.01887597 0.02824466
vn -0.785595 0.4817963 0.3882175
vn 0.02055413 0.9616385 0.2735489
vn 0.2765669 0.9608198 -0.01833184
vn 0.2683115 0.9268643 0.2625484
vn -0.8071401 -0.4504125 -0.3816458
vn -0.6998222 -0.6759417 -0.2309801
vn -0.442111 0.8127694 0.3793995
vn 0.02089712 0.9276477 0.3728716
vn 0.259988 0.8961379 0.3596432
vn -0.8562932 0.5161491 0.01875974
vn -0.9577335 0.01294715 -0.2873656
vn -0.848217 -0.4716426 -0.2410006
vn -0.7191216 -0.6927016 0.05503294
vn 0.01860056 0.9998248 0.002107344
vn 0.2766907 0.9609589 -0.000493895
vn -0.4836685 0.8752029 0.009194711
vn -0.9216224 0.01063822 -0.3879421
vn -0.8210271 0.4879028 -0.2964211
vn -0.8740357 -0.482797 0.05448516
vn -0.6689667 -0.6422958 0.3740853
vn 0.01459535 0.9498624 -0.3123272
vn 0.2619743 0.9156121 -0.3049981
vn -0.465137 0.8308316 -0.3055594
vn -0.9687565 0.01380355 -0.2476296
vn -0.7902333 0.4671213 -0.3966473
vn -0.8100003 -0.4439002 0.383213
vn -0.5207343 -0.4973608 0.6938789
vn 0.01289913 0.9111239 -0.4119305
vn 0.2512941 0.8803221 -0.4023482
vn -0.4481762 0.7967236 -0.4054253
vn -0.8304133 0.494437 -0.2567993
vn -0.9995224 -0.03078999 0.00262373
vn 0.0152055 0.9619244 -0.2728926
vn 0.2653414 0.9265538 -0.2666306
vn -0.4702595 0.8414734 -0.2660423
vn -0.4404059 0.8976218 -0.01782412
vn 0.01878958 0.9995921 0.02150967
vn 0.2767409 0.9607713 0.01824692
vn -0.8549723 0.5135857 -0.07247097
vn 0.02084222 0.9355692 0.3525278
vn 0.261946 0.90332 0.3397017
vn -0.294091 0.8879319 0.353677
vn 0.02026982 0.7318941 0.6811169
vn -0.2539454 0.6468349 0.719108
vn 0.209511 0.7150835 0.6669037
vn 0.1320377 0.4419357 0.8872761
vn 0.01705961 0.4470594 0.8943415
vn -0.09049787 0.07660957 0.9929457
vn -0.6977521 0.610091 0.3754079
vn -0.2002469 0.3931417 0.8974078
vn -0.816608 0.4996017 0.2890497
vn -0.68959 0.6553383 0.3082161
vn -0.8959268 0.3128402 0.3153511
vn -0.9150565 -0.1440886 0.3767097
vn -0.6238313 -0.337538 0.7049133
vn -0.6762065 -0.05427313 0.7347103
vn -0.3694547 -0.1947032 0.908622
vn -0.3112839 -0.2941273 0.9036545
vn -0.4234172 0.0225783 0.9056535
vn -0.3614855 0.2377659 0.9015518
vn -0.4989412 0.3184274 0.8060159
vn -0.7948416 0.4867817 0.3623125
vn -0.8579647 0.3422053 0.3831345
vn -0.7727075 0.495602 0.3966129
vn -0.7915874 0.4642564 0.3973101
vn -0.3675424 0.6153836 0.6972916
vn -0.3467154 0.8824496 0.317917
vn -0.5180182 0.3309997 0.7887309
vn -0.5369188 0.8147802 -0.2187495
vn -0.7973451 0.4718798 -0.3762583
vn -0.7027138 0.06306481 0.708672
vn -0.9754246 0.08674337 -0.2025397
vn -0.9363052 -0.09367955 0.3384624
vn 0.8750531 0.4837404 -0.01665653
vn 0.693965 0.6704973 0.2623852
vn 0.7199911 0.6937369 -0.01849083
vn 0.8405581 0.4677515 0.2732591
vn 0.9997794 -0.01858135 -0.009789186
vn 0.6707296 0.6487536 0.3595004
vn 0.9599612 -0.01311014 0.2798261
vn 0.8566338 -0.5159248 -0.000305282
vn 0.810401 0.4521336 0.3725928
vn 0.7200358 0.6939366 -0.0006560993
vn 0.8229308 -0.4891989 0.2889107
vn 0.4839556 -0.8750435 0.009262938
vn 0.8750817 0.4839717 0.001802554
vn 0.6866843 0.6598088 -0.3051511
vn 0.925367 -0.01085653 0.378917
vn 0.4661738 -0.8329693 0.2980672
vn -0.01842428 -0.9996966 0.01634854
vn 0.8326341 0.4571609 -0.312609
vn 0.6604438 0.6338899 -0.4024892
vn 0.9997954 -0.01827945 0.00866553
vn 0.7934281 -0.4692463 0.3876591
vn -0.01471527 -0.9522849 0.3048556
vn -0.2765477 -0.9608255 0.01832237
vn -0.2626527 -0.9178097 0.297723
vn 0.799132 0.4375812 -0.4122022
vn 0.6948031 0.6678893 -0.266782
vn 0.4499336 -0.8002297 0.3964747
vn -0.01305855 -0.9151016 0.4030117
vn -0.25238 -0.8839539 0.3936113
vn 0.8566616 -0.5155596 0.01814858
vn 0.9517465 -0.02253592 -0.3060566
vn 0.8430277 0.4633331 -0.2731793
vn 0.7198638 0.6938797 0.01808701
vn -0.01822719 -0.9992281 0.03479921
vn -0.276326 -0.9603842 0.03614024
vn 0.4840384 -0.8746079 0.02771247
vn 0.9136142 -0.02346598 -0.4059046
vn 0.8150429 -0.4974877 -0.2970037
vn 0.8747984 0.4840226 0.02120975
vn 0.6761628 0.6538373 0.3395593
vn -0.02058589 -0.9594588 -0.2810959
vn -0.2677851 -0.9249043 -0.2698948
vn 0.4591462 -0.8404273 -0.2878654
vn 0.9635677 -0.02211097 -0.266549
vn 0.7822274 -0.4799476 -0.3972036
vn 0.8174188 0.4557926 0.3522493
vn 0.5344541 0.5193806 0.6667852
vn -0.02091462 -0.9239597 -0.3819177
vn -0.2590718 -0.8927858 -0.3685314
vn 0.4401626 -0.8095587 -0.388422
vn 0.8252267 -0.5027486 -0.2573804
vn 0.9993618 0.03053469 -0.01853859
vn -0.02039488 -0.9702389 -0.2412894
vn -0.2703586 -0.9346036 -0.2311325
vn 0.4650687 -0.8497872 -0.2481387
vn 0.440248 -0.8978732 0.00231849
vn -0.01802489 -0.9983683 0.05418365
vn -0.2760006 -0.9595899 0.05487124
vn 0.8535045 -0.5159376 -0.07306392
vn -0.0134203 -0.9236794 0.3829311
vn -0.2547483 -0.891781 0.3739382
vn 0.3067106 -0.8737884 0.377389
vn -0.006290516 -0.7094788 0.7046986
vn -0.1957923 -0.6930747 0.6937671
vn -0.113997 -0.4129756 0.9035795
vn 0.2724339 -0.6244798 0.7319868
vn 0.001124515 -0.4179002 0.9084923
vn 0.1105294 -0.04448703 0.9928767
vn 0.218446 -0.3639755 0.9054298
vn 0.9022101 -0.3027816 0.3071486
vn 0.8224393 -0.4902622 0.2885074
vn 0.9224214 0.1558912 0.3533225
vn 0.6378158 0.3599463 0.6809035
vn 0.6908784 0.07775082 0.718778
vn 0.3876418 0.2238432 0.8942192
vn 0.3293414 0.3231106 0.8872056
vn 0.4415981 0.0065326 0.8971891
vn 0.3796741 -0.2086179 0.9012914
vn 0.5217505 -0.2984576 0.7991868
vn 0.7886147 -0.4706243 0.3957269
vn 0.8656322 -0.3299252 0.3766035
vn 0.7996736 -0.4956434 0.3389096
vn 0.7113988 -0.586068 0.387861
vn 0.7995879 -0.4514319 0.3960662
vn 0.695885 -0.6452575 0.3152567
vn 0.5339074 -0.3054891 0.7884284
vn 0.7168594 -0.04035617 0.6960488
vn 0.381724 -0.5926542 0.7092586
vn 0.9292449 0.08275518 0.3600771
vn 0.3533502 -0.8718296 0.3392002
vn 0.9775552 -0.1521481 -0.1457293
vn 0.5326906 -0.821577 -0.2031056
vn 0.7789691 -0.5230784 -0.3458265
vn -0.2544155 -0.4229126 0.8697227
vn -0.1393667 -0.2319601 0.9626896
vn -0.1393667 -0.2319601 0.9626898
vn -0.2545381 -0.4231162 0.8695878
vn -0.5094204 -0.8458716 0.1580886
vn -0.5094592 -0.8459357 0.1576203
vn -0.3626616 -0.6017178 -0.7116264
vn -0.3626614 -0.6017175 -0.7116269
vn -0.01009116 -0.01617754 -0.9998183
vn -0.01009048 -0.0161764 -0.9998183
vn 0.3480449 0.5782769 -0.7378757
vn 0.3480442 0.5782758 -0.737877
vn 0.5122422 0.8504343 0.1198731
vn 0.5122133 0.8503859 0.1203382
vn 0.271883 0.4508932 0.8501617
vn 0.2717653 0.4506975 0.8503032
vn 0.158679 0.2628562 0.9516973
vn 0.158679 0.2628562 0.9516973
vn -0.01009598 -0.01616931 -0.9998184
vn -0.2060295 0.1024362 -0.9731694
vn -0.1206586 0.1846916 -0.9753617
vn -0.0100835 -0.01618294 -0.9998183
vn -0.01010784 -0.01616929 -0.9998183
vn -0.005601164 0.2132554 -0.9769804
vn -0.01008319 -0.01616416 -0.9998185
vn -0.2388272 -0.01148249 -0.9709942
vn -0.010091 -0.0161739 -0.9998183
vn 0.1083261 0.1804477 -0.9776012
vn -0.01008859 -0.01614608 -0.9998187
vn -0.2102509 -0.1265555 -0.9694216
vn -0.01007506 -0.01617425 -0.9998185
vn 0.1905905 0.09505553 -0.9770567
vn -0.01010077 -0.01617402 -0.9998183
vn -0.1279664 -0.2119485 -0.9688665
vn -0.01009289 -0.01614222 -0.9998189
vn 0.2191535 -0.02000292 -0.9754853
vn -0.01010795 -0.01617843 -0.999818
vn -0.01404653 -0.2447158 -0.9694931
vn -0.01010875 -0.01616016 -0.9998184
vn 0.1863584 -0.1339198 -0.9733118
vn -0.01010785 -0.01618754 -0.9998179
vn 0.1010022 -0.216147 -0.9711226
vn 0.2895771 0.1501539 -0.9453036
vn 0.3322006 -0.02152419 -0.9429632
vn 0.2832725 -0.1915259 -0.9397205
vn 0.1559229 -0.3142771 -0.936439
vn -0.01008329 -0.01616259 -0.9998186
vn 0.1668151 0.2775284 -0.946124
vn -0.01576481 -0.35688 -0.9340172
vn -0.1857857 -0.3079146 -0.9330982
vn -0.003190028 0.3264825 -0.9451978
vn -0.3085409 -0.1805001 -0.9339284
vn -0.1748705 0.2838957 -0.9427744
vn -0.3511641 -0.00885879 -0.936272
vn -0.3022373 0.1611222 -0.939517
usemtl Mat_Tools
f 1/1/1 3/3/3 2/2/2 
f 1/1/1 2/2/2 4/4/4 
f 5/5/5 1/1/1 4/4/4 
f 4/4/4 2/2/2 6/6/6 
f 5/5/5 4/4/4 7/7/7 
f 8/8/8 5/5/5 7/7/7 
f 4/4/4 6/6/6 9/9/9 
f 7/7/7 4/4/4 9/9/9 
f 9/9/9 6/6/6 10/10/10 
f 8/8/8 7/7/7 11/11/11 
f 12/12/12 8/8/8 11/11/11 
f 9/9/9 10/10/10 13/13/13 
f 13/13/13 10/10/10 14/14/14 
f 7/7/7 9/9/9 15/15/15 
f 11/11/11 7/7/7 15/15/15 
f 15/15/15 9/9/9 13/13/13 
f 12/12/12 11/11/11 16/16/16 
f 17/17/17 12/12/12 16/16/16 
f 13/13/13 14/14/14 18/18/18 
f 18/18/18 14/14/14 19/19/19 
f 15/15/15 13/13/13 20/20/20 
f 20/20/20 13/13/13 18/18/18 
f 11/11/11 15/15/15 21/21/21 
f 16/16/16 11/11/11 21/21/21 
f 21/21/21 15/15/15 20/20/20 
f 17/17/17 16/16/16 22/22/22 
f 23/23/23 17/17/17 22/22/22 
f 23/23/23 22/22/22 24/24/24 
f 18/18/18 19/19/19 25/25/25 
f 25/25/25 19/19/19 26/26/26 
f 16/16/16 21/21/21 27/27/27 
f 22/22/22 16/16/16 27/27/27 
f 24/24/24 22/22/22 28/28/28 
f 22/22/22 27/27/27 28/28/28 
f 24/24/24 28/28/28 29/29/29 
f 21/21/21 20/20/20 30/30/30 
f 27/27/27 21/21/21 30/30/30 
f 20/20/20 18/18/18 31/31/31 
f 31/31/31 18/18/18 25/25/25 
f 30/30/30 20/20/20 31/31/31 
f 25/25/25 26/26/26 32/32/32 
f 32/32/32 26/26/26 33/33/33 
f 29/29/29 28/28/28 34/34/34 
f 29/29/29 34/34/34 35/35/35 
f 28/28/28 27/27/27 36/36/36 
f 27/27/27 30/30/30 36/36/36 
f 28/28/28 36/36/36 34/34/34 
f 31/31/31 25/25/25 37/37/37 
f 37/37/37 25/25/25 32/32/32 
f 30/30/30 31/31/31 38/38/38 
f 36/36/36 30/30/30 38/38/38 
f 38/38/38 31/31/31 37/37/37 
f 32/32/32 33/33/33 39/39/39 
f 39/39/39 33/33/33 40/40/40 
f 35/35/35 34/34/34 41/41/41 
f 35/35/35 41/41/41 42/42/42 
f 34/34/34 36/36/36 43/43/43 
f 36/36/36 38/38/38 43/43/43 
f 34/34/34 43/43/43 41/41/41 
f 37/37/37 32/32/32 44/44/44 
f 44/44/44 32/32/32 39/39/39 
f 38/38/38 37/37/37 45/45/45 
f 43/43/43 38/38/38 45/45/45 
f 45/45/45 37/37/37 44/44/44 
f 39/39/39 40/40/40 46/46/46 
f 47/47/47 46/46/46 40/40/40 
f 42/42/42 41/41/41 48/48/48 
f 42/42/42 48/48/48 49/49/49 
f 41/41/41 43/43/43 50/50/50 
f 43/43/43 45/45/45 50/50/50 
f 41/41/41 50/50/50 48/48/48 
f 45/45/45 44/44/44 51/51/51 
f 50/50/50 45/45/45 51/51/51 
f 44/44/44 39/39/39 52/52/52 
f 52/52/52 39/39/39 46/46/46 
f 51/51/51 44/44/44 52/52/52 
f 49/49/49 48/48/48 53/53/53 
f 49/49/49 53/53/53 54/54/54 
f 48/48/48 50/50/50 55/55/55 
f 50/50/50 51/51/51 55/55/55 
f 48/48/48 55/55/55 53/53/53 
f 53/53/53 55/55/55 56/56/56 
f 54/54/54 53/53/53 57/57/57 
f 53/53/53 56/56/56 57/57/57 
f 54/54/54 57/57/57 58/58/58 
f 55/55/55 51/51/51 59/59/59 
f 51/51/51 52/52/52 59/59/59 
f 55/55/55 59/59/59 56/56/56 
f 58/58/58 57/57/57 60/60/60 
f 58/58/58 60/60/60 61/61/61 
f 57/57/57 62/62/62 60/60/60 
f 57/57/57 56/56/56 62/62/62 
f 63/63/63 61/61/61 60/60/60 
f 62/62/62 63/63/63 60/60/60 
f 62/62/62 64/64/64 63/63/63 
f 63/63/63 65/65/65 61/61/61 
f 66/66/66 65/65/65 63/63/63 
f 66/66/66 63/63/63 67/67/67 
f 67/67/67 63/63/63 64/64/64 
f 68/68/68 66/66/66 67/67/67 
f 56/56/56 69/69/69 62/62/62 
f 64/64/64 62/62/62 69/69/69 
f 68/68/68 67/67/67 70/70/70 
f 67/67/67 64/64/64 70/70/70 
f 56/56/56 59/59/59 71/71/71 
f 56/56/56 72/72/72 69/69/69 
f 56/56/56 71/71/71 72/72/72 
f 59/59/59 73/73/73 71/71/71 
f 59/59/59 52/52/52 73/73/73 
f 73/73/73 52/52/52 74/74/74 
f 52/52/52 46/46/46 74/74/74 
f 75/75/75 74/74/74 46/46/46 
f 75/75/75 76/76/76 74/74/74 
f 47/47/47 75/75/75 46/46/46 
f 77/77/77 75/75/75 47/47/47 
f 77/77/77 47/47/47 78/78/78 
f 68/68/68 77/77/77 78/78/78 
f 79/79/79 75/75/75 77/77/77 
f 68/68/68 79/79/79 77/77/77 
f 79/79/79 76/76/76 75/75/75 
f 79/79/79 68/68/68 80/80/80 
f 76/76/76 79/79/79 80/80/80 
f 68/68/68 70/70/70 80/80/80 
f 70/70/70 81/81/81 80/80/80 
f 76/76/76 80/80/80 81/81/81 
f 70/70/70 64/64/64 81/81/81 
f 64/64/64 82/82/82 81/81/81 
f 76/76/76 81/81/81 82/82/82 
f 76/76/76 83/83/83 74/74/74 
f 73/73/73 74/74/74 83/83/83 
f 64/64/64 84/84/84 82/82/82 
f 64/64/64 69/69/69 84/84/84 
f 76/76/76 82/82/82 85/85/85 
f 76/76/76 85/85/85 83/83/83 
f 83/83/83 86/86/86 73/73/73 
f 83/83/83 87/87/87 86/86/86 
f 87/87/87 83/83/83 85/85/85 
f 88/88/88 73/73/73 86/86/86 
f 87/87/87 85/85/85 89/89/89 
f 89/89/89 85/85/85 82/82/82 
f 88/88/88 71/71/71 73/73/73 
f 89/89/89 82/82/82 90/90/90 
f 90/90/90 82/82/82 84/84/84 
f 91/91/91 71/71/71 88/88/88 
f 90/90/90 84/84/84 92/92/92 
f 92/92/92 84/84/84 69/69/69 
f 91/91/91 72/72/72 71/71/71 
f 92/92/92 69/69/69 93/93/93 
f 93/93/93 72/72/72 91/91/91 
f 93/93/93 69/69/69 72/72/72 
f 94/94/94 96/96/96 95/95/95 
f 94/94/94 95/95/95 97/97/97 
f 98/98/98 94/94/94 97/97/97 
f 97/97/97 95/95/95 99/99/99 
f 98/98/98 97/97/97 100/100/100 
f 101/101/101 98/98/98 100/100/100 
f 97/97/97 99/99/99 102/102/102 
f 100/100/100 97/97/97 102/102/102 
f 102/102/102 99/99/99 103/103/103 
f 101/101/101 100/100/100 104/104/104 
f 105/105/105 101/101/101 104/104/104 
f 102/102/102 103/103/103 106/106/106 
f 106/106/106 103/103/103 107/107/107 
f 100/100/100 102/102/102 108/108/108 
f 104/104/104 100/100/100 108/108/108 
f 108/108/108 102/102/102 106/106/106 
f 105/105/105 104/104/104 109/109/109 
f 110/110/110 105/105/105 109/109/109 
f 106/106/106 107/107/107 111/111/111 
f 111/111/111 107/107/107 112/112/112 
f 108/108/108 106/106/106 113/113/113 
f 113/113/113 106/106/106 111/111/111 
f 104/104/104 108/108/108 114/114/114 
f 109/109/109 104/104/104 114/114/114 
f 114/114/114 108/108/108 113/113/113 
f 110/110/110 109/109/109 115/115/115 
f 116/116/116 110/110/110 115/115/115 
f 116/116/116 115/115/115 117/117/117 
f 111/111/111 112/112/112 118/118/118 
f 118/118/118 112/112/112 119/119/119 
f 109/109/109 114/114/114 120/120/120 
f 115/115/115 109/109/109 120/120/120 
f 117/117/117 115/115/115 121/121/121 
f 115/115/115 120/120/120 121/121/121 
f 117/117/117 121/121/121 122/122/122 
f 114/114/114 113/113/113 123/123/123 
f 120/120/120 114/114/114 123/123/123 
f 113/113/113 111/111/111 124/124/124 
f 124/124/124 111/111/111 118/118/118 
f 123/123/123 113/113/113 124/124/124 
f 118/118/118 119/119/119 125/125/125 
f 125/125/125 119/119/119 126/126/126 
f 122/122/122 121/121/121 127/127/127 
f 122/122/122 127/127/127 128/128/128 
f 121/121/121 120/120/120 129/129/129 
f 120/120/120 123/123/123 129/129/129 
f 121/121/121 129/129/129 127/127/127 
f 124/124/124 118/118/118 130/130/130 
f 130/130/130 118/118/118 125/125/125 
f 123/123/123 124/124/124 131/131/131 
f 129/129/129 123/123/123 131/131/131 
f 131/131/131 124/124/124 130/130/130 
f 125/125/125 126/126/126 132/132/132 
f 132/132/132 126/126/126 133/133/133 
f 128/128/128 127/127/127 134/134/134 
f 128/128/128 134/134/134 135/135/135 
f 127/127/127 129/129/129 136/136/136 
f 129/129/129 131/131/131 136/136/136 
f 127/127/127 136/136/136 134/134/134 
f 130/130/130 125/125/125 137/137/137 
f 137/137/137 125/125/125 132/132/132 
f 131/131/131 130/130/130 138/138/138 
f 136/136/136 131/131/131 138/138/138 
f 138/138/138 130/130/130 137/137/137 
f 132/132/132 133/133/133 139/139/139 
f 140/140/140 139/139/139 133/133/133 
f 135/135/135 134/134/134 141/141/141 
f 135/135/135 141/141/141 142/142/142 
f 134/134/134 136/136/136 143/143/143 
f 136/136/136 138/138/138 143/143/143 
f 134/134/134 143/143/143 141/141/141 
f 138/138/138 137/137/137 144/144/144 
f 143/143/143 138/138/138 144/144/144 
f 137/137/137 132/132/132 145/145/145 
f 145/145/145 132/132/132 139/139/139 
f 144/144/144 137/137/137 145/145/145 
f 142/142/142 141/141/141 146/146/146 
f 142/142/142 146/146/146 147/147/147 
f 141/141/141 143/143/143 148/148/148 
f 143/143/143 144/144/144 148/148/148 
f 141/141/141 148/148/148 146/146/146 
f 146/146/146 148/148/148 149/149/149 
f 147/147/147 146/146/146 150/150/150 
f 146/146/146 149/149/149 150/150/150 
f 147/147/147 150/150/150 151/151/151 
f 148/148/148 144/144/144 152/152/152 
f 144/144/144 145/145/145 152/152/152 
f 148/148/148 152/152/152 149/149/149 
f 151/151/151 150/150/150 153/153/153 
f 151/151/151 153/153/153 154/154/154 
f 150/150/150 149/149/149 155/155/155 
f 150/150/150 155/155/155 153/153/153 
f 156/156/156 154/154/154 153/153/153 
f 156/156/156 157/157/157 154/154/154 
f 158/158/158 157/157/157 156/156/156 
f 159/159/159 156/156/156 153/153/153 
f 159/159/159 153/153/153 155/155/155 
f 158/158/158 156/156/156 160/160/160 
f 160/160/160 156/156/156 159/159/159 
f 161/161/161 158/158/158 160/160/160 
f 160/160/160 159/159/159 162/162/162 
f 161/161/161 160/160/160 162/162/162 
f 152/152/152 145/145/145 163/163/163 
f 149/149/149 152/152/152 164/164/164 
f 152/152/152 163/163/163 164/164/164 
f 163/163/163 145/145/145 165/165/165 
f 145/145/145 139/139/139 165/165/165 
f 166/166/166 165/165/165 139/139/139 
f 166/166/166 167/167/167 165/165/165 
f 140/140/140 166/166/166 139/139/139 
f 168/168/168 166/166/166 140/140/140 
f 168/168/168 140/140/140 169/169/169 
f 161/161/161 168/168/168 169/169/169 
f 170/170/170 166/166/166 168/168/168 
f 161/161/161 170/170/170 168/168/168 
f 170/170/170 167/167/167 166/166/166 
f 161/161/161 171/171/171 170/170/170 
f 171/171/171 167/167/167 170/170/170 
f 161/161/161 162/162/162 171/171/171 
f 162/162/162 172/172/172 171/171/171 
f 171/171/171 172/172/172 167/167/167 
f 162/162/162 159/159/159 172/172/172 
f 172/172/172 159/159/159 173/173/173 
f 173/173/173 159/159/159 155/155/155 
f 167/167/167 174/174/174 165/165/165 
f 163/163/163 165/165/165 174/174/174 
f 167/167/167 172/172/172 175/175/175 
f 172/172/172 173/173/173 175/175/175 
f 173/173/173 155/155/155 176/176/176 
f 149/149/149 176/176/176 155/155/155 
f 167/167/167 177/177/177 174/174/174 
f 167/167/167 175/175/175 177/177/177 
f 149/149/149 178/178/178 176/176/176 
f 149/149/149 164/164/164 178/178/178 
f 179/179/179 164/164/164 163/163/163 
f 180/180/180 164/164/164 179/179/179 
f 180/180/180 178/178/178 164/164/164 
f 179/179/179 163/163/163 181/181/181 
f 181/181/181 163/163/163 174/174/174 
f 182/182/182 178/178/178 180/180/180 
f 182/182/182 176/176/176 178/178/178 
f 181/181/181 174/174/174 183/183/183 
f 183/183/183 174/174/174 177/177/177 
f 184/184/184 176/176/176 182/182/182 
f 183/183/183 177/177/177 185/185/185 
f 175/175/175 185/185/185 177/177/177 
f 184/184/184 173/173/173 176/176/176 
f 175/175/175 186/186/186 185/185/185 
f 186/186/186 173/173/173 184/184/184 
f 186/186/186 175/175/175 173/173/173 
f 187/187/187 189/189/189 188/188/188 
f 187/187/187 188/188/188 190/190/190 
f 191/191/191 187/187/187 190/190/190 
f 191/191/191 190/190/190 192/192/192 
f 193/193/193 191/191/191 192/192/192 
f 193/193/193 192/192/192 194/194/194 
f 195/195/195 193/193/193 194/194/194 
f 195/195/195 194/194/194 196/196/196 
f 197/197/197 195/195/195 196/196/196 
f 197/197/197 196/196/196 198/198/198 
f 199/199/199 197/197/197 198/198/198 
f 199/199/199 198/198/198 200/200/200 
f 201/201/201 199/199/199 200/200/200 
f 201/201/201 200/200/200 202/202/202 
f 203/203/203 201/201/201 202/202/202 
f 203/203/203 202/202/202 204/204/204 
f 205/205/205 207/207/207 206/206/206 
f 205/205/205 208/208/208 207/207/207 
f 209/209/209 205/205/205 206/206/206 
f 208/208/208 210/210/210 207/207/207 
f 208/208/208 211/211/211 210/210/210 
f 209/209/209 206/206/206 212/212/212 
f 213/213/213 209/209/209 212/212/212 
f 211/211/211 214/214/214 210/210/210 
f 211/211/211 215/215/215 214/214/214 
f 213/213/213 212/212/212 216/216/216 
f 217/217/217 213/213/213 216/216/216 
f 215/215/215 218/218/218 214/214/214 
f 215/215/215 219/219/219 218/218/218 
f 217/217/217 216/216/216 220/220/220 
f 221/221/221 217/217/217 220/220/220 
f 219/219/219 222/222/222 218/218/218 
f 219/219/219 223/223/223 222/222/222 
f 221/221/221 220/220/220 224/224/224 
f 225/225/225 221/221/221 224/224/224 
f 223/223/223 226/226/226 222/222/222 
f 223/223/223 227/227/227 226/226/226 
f 227/227/227 225/225/225 228/228/228 
f 225/225/225 224/224/224 228/228/228 
f 227/227/227 228/228/228 226/226/226 
f 214/214/214 218/218/218 229/229/229 
f 218/218/218 222/222/222 230/230/230 
f 218/218/218 230/230/230 229/229/229 
f 222/222/222 226/226/226 231/231/231 
f 222/222/222 231/231/231 230/230/230 
f 226/226/226 228/228/228 232/232/232 
f 226/226/226 232/232/232 231/231/231 
f 230/230/230 231/231/231 233/233/233 
f 229/229/229 230/230/230 233/233/233 
f 231/231/231 232/232/232 233/233/233 
f 234/234/234 229/229/229 233/233/233 
f 214/214/214 229/229/229 234/234/234 
f 232/232/232 235/235/235 233/233/233 
f 228/228/228 235/235/235 232/232/232 
f 228/228/228 224/224/224 235/235/235 
f 210/210/210 214/214/214 234/234/234 
f 224/224/224 236/236/236 235/235/235 
f 235/235/235 236/236/236 233/233/233 
f 224/224/224 220/220/220 236/236/236 
f 210/210/210 234/234/234 237/237/237 
f 237/237/237 234/234/234 233/233/233 
f 207/207/207 210/210/210 237/237/237 
f 220/220/220 238/238/238 236/236/236 
f 236/236/236 238/238/238 233/233/233 
f 220/220/220 216/216/216 238/238/238 
f 207/207/207 237/237/237 239/239/239 
f 239/239/239 237/237/237 233/233/233 
f 206/206/206 207/207/207 239/239/239 
f 216/216/216 240/240/240 238/238/238 
f 238/238/238 240/240/240 233/233/233 
f 216/216/216 212/212/212 240/240/240 
f 206/206/206 239/239/239 241/241/241 
f 241/241/241 239/239/239 233/233/233 
f 240/240/240 241/241/241 233/233/233 
f 212/212/212 241/241/241 240/240/240 
f 212/212/212 206/206/206 241/241/241 
